<?xml version="1.0" encoding="UTF-8" standalone="no"?>
<!DOCTYPE svg PUBLIC "-//W3C//DTD SVG 1.1//EN"
 "http://www.w3.org/Graphics/SVG/1.1/DTD/svg11.dtd">
<!-- Generated by graphviz version 2.36.0 (20140111.2315)
 -->
<!-- Title: /home/travis/build/mgerhardy/simpleai/src/ai/server/AddNodeHandler.h Pages: 1 -->
<!--zoomable 610 -->
<svg id="main" version="1.1" xmlns="http://www.w3.org/2000/svg" xmlns:xlink="http://www.w3.org/1999/xlink" xml:space="preserve" onload="init(evt)">
<style type="text/css"><![CDATA[
.edge:hover path { stroke: red; }
.edge:hover polygon { stroke: red; fill: red; }
]]></style>
<script type="text/javascript"><![CDATA[
var edges = document.getElementsByTagName('g');
if (edges && edges.length) {
  for (var i=0;i<edges.length;i++) {
    if (edges[i].id.substr(0,4)=='edge') {
      edges[i].setAttribute('class','edge');
    }
  }
}
]]></script>
        <defs>
                <circle id="rim" cx="0" cy="0" r="7"/>
                <circle id="rim2" cx="0" cy="0" r="3.5"/>
                <g id="zoomPlus">
                        <use xlink:href="#rim" fill="#404040">
                                <set attributeName="fill" to="#808080" begin="zoomplus.mouseover" end="zoomplus.mouseout"/>
                        </use>
                        <path d="M-4,0h8M0,-4v8" fill="none" stroke="white" stroke-width="1.5" pointer-events="none"/>
                </g>
                <g id="zoomMin">
                        <use xlink:href="#rim" fill="#404040">
                                <set attributeName="fill" to="#808080" begin="zoomminus.mouseover" end="zoomminus.mouseout"/>
                        </use>
                        <path d="M-4,0h8" fill="none" stroke="white" stroke-width="1.5" pointer-events="none"/>
                </g>
                <g id="dirArrow">
                        <path fill="none" stroke="white" stroke-width="1.5" d="M0,-3.0v7 M-2.5,-0.5L0,-3.0L2.5,-0.5"/>
                </g>
               <g id="resetDef">
                       <use xlink:href="#rim2" fill="#404040">
                               <set attributeName="fill" to="#808080" begin="reset.mouseover" end="reset.mouseout"/>
                       </use>
               </g>
        </defs>

<script type="text/javascript">
var viewWidth = 1822;
var viewHeight = 610;
var sectionId = 'dynsection-0';
</script>
<script xlink:href="svgpan.js"/>
<svg id="graph" class="graph">
<g id="viewport">
<title>/home/travis/build/mgerhardy/simpleai/src/ai/server/AddNodeHandler.h</title>
<polygon fill="white" stroke="none" points="-4,4 -4,-606 1818,-606 1818,4 -4,4"/>
<!-- Node1 -->
<g id="node1" class="node"><title>Node1</title>
<polygon fill="#bfbfbf" stroke="black" points="20.5,-560.5 20.5,-601.5 179.5,-601.5 179.5,-560.5 20.5,-560.5"/>
<text text-anchor="start" x="28.5" y="-589.5" font-family="Helvetica,sans-Serif" font-size="10.00">/home/travis/build</text>
<text text-anchor="start" x="28.5" y="-578.5" font-family="Helvetica,sans-Serif" font-size="10.00">/mgerhardy/simpleai</text>
<text text-anchor="middle" x="100" y="-567.5" font-family="Helvetica,sans-Serif" font-size="10.00">/src/ai/server/AddNodeHandler.h</text>
</g>
<!-- Node2 -->
<g id="node2" class="node"><title>Node2</title>
<g id="a_node2"><a xlink:href="IProtocolHandler_8h.html" target="_top" xlink:title="IProtocolHandler.h">
<polygon fill="white" stroke="black" points="85,-168.5 85,-187.5 183,-187.5 183,-168.5 85,-168.5"/>
<text text-anchor="middle" x="134" y="-175.5" font-family="Helvetica,sans-Serif" font-size="10.00">IProtocolHandler.h</text>
</a>
</g>
</g>
<!-- Node1&#45;&gt;Node2 -->
<g id="edge1" class="edge"><title>Node1&#45;&gt;Node2</title>
<path fill="none" stroke="midnightblue" d="M111.75,-560.213C124.481,-536.86 143,-496.454 143,-459 143,-459 143,-459 143,-289 143,-256.841 139.132,-219.569 136.467,-197.711"/>
<polygon fill="midnightblue" stroke="midnightblue" points="139.907,-197.018 135.177,-187.538 132.963,-197.899 139.907,-197.018"/>
</g>
<!-- Node17 -->
<g id="node17" class="node"><title>Node17</title>
<g id="a_node17"><a xlink:href="AIAddNodeMessage_8h.html" target="_top" xlink:title="AIAddNodeMessage.h">
<polygon fill="white" stroke="black" points="-0.5,-504.5 -0.5,-523.5 114.5,-523.5 114.5,-504.5 -0.5,-504.5"/>
<text text-anchor="middle" x="57" y="-511.5" font-family="Helvetica,sans-Serif" font-size="10.00">AIAddNodeMessage.h</text>
</a>
</g>
</g>
<!-- Node1&#45;&gt;Node17 -->
<g id="edge18" class="edge"><title>Node1&#45;&gt;Node17</title>
<path fill="none" stroke="midnightblue" d="M87.0986,-560.498C81.1398,-551.49 74.126,-540.888 68.3687,-532.185"/>
<polygon fill="midnightblue" stroke="midnightblue" points="71.1604,-530.062 62.724,-523.652 65.3223,-533.924 71.1604,-530.062"/>
</g>
<!-- Node3 -->
<g id="node3" class="node"><title>Node3</title>
<polygon fill="white" stroke="#bfbfbf" points="1603,-112.5 1603,-131.5 1655,-131.5 1655,-112.5 1603,-112.5"/>
<text text-anchor="middle" x="1629" y="-119.5" font-family="Helvetica,sans-Serif" font-size="10.00">memory</text>
</g>
<!-- Node2&#45;&gt;Node3 -->
<g id="edge2" class="edge"><title>Node2&#45;&gt;Node3</title>
<path fill="none" stroke="midnightblue" d="M183.171,-177.032C365.273,-176.815 1018.49,-173.038 1555,-132 1567.28,-131.061 1580.65,-129.577 1592.6,-128.083"/>
<polygon fill="midnightblue" stroke="midnightblue" points="1593.22,-131.533 1602.69,-126.78 1592.32,-124.591 1593.22,-131.533"/>
</g>
<!-- Node4 -->
<g id="node4" class="node"><title>Node4</title>
<g id="a_node4"><a xlink:href="IProtocolMessage_8h.html" target="_top" xlink:title="IProtocolMessage.h">
<polygon fill="white" stroke="black" points="82,-112.5 82,-131.5 186,-131.5 186,-112.5 82,-112.5"/>
<text text-anchor="middle" x="134" y="-119.5" font-family="Helvetica,sans-Serif" font-size="10.00">IProtocolMessage.h</text>
</a>
</g>
</g>
<!-- Node2&#45;&gt;Node4 -->
<g id="edge3" class="edge"><title>Node2&#45;&gt;Node4</title>
<path fill="none" stroke="midnightblue" d="M134,-168.083C134,-161.006 134,-150.861 134,-141.986"/>
<polygon fill="midnightblue" stroke="midnightblue" points="137.5,-141.751 134,-131.751 130.5,-141.751 137.5,-141.751"/>
</g>
<!-- Node10 -->
<g id="node10" class="node"><title>Node10</title>
<g id="a_node10"><a xlink:href="Types_8h.html" target="_top" xlink:title="common/Types.h">
<polygon fill="white" stroke="black" points="916,-112.5 916,-131.5 1008,-131.5 1008,-112.5 916,-112.5"/>
<text text-anchor="middle" x="962" y="-119.5" font-family="Helvetica,sans-Serif" font-size="10.00">common/Types.h</text>
</a>
</g>
</g>
<!-- Node2&#45;&gt;Node10 -->
<g id="edge9" class="edge"><title>Node2&#45;&gt;Node10</title>
<path fill="none" stroke="midnightblue" d="M183.133,-169.579C187.813,-168.993 192.493,-168.454 197,-168 461.267,-141.398 778.593,-128.92 905.512,-124.715"/>
<polygon fill="midnightblue" stroke="midnightblue" points="905.879,-128.205 915.76,-124.38 905.65,-121.209 905.879,-128.205"/>
</g>
<!-- Node5 -->
<g id="node5" class="node"><title>Node5</title>
<polygon fill="white" stroke="#bfbfbf" points="205.5,-56.5 205.5,-75.5 254.5,-75.5 254.5,-56.5 205.5,-56.5"/>
<text text-anchor="middle" x="230" y="-63.5" font-family="Helvetica,sans-Serif" font-size="10.00">stdint.h</text>
</g>
<!-- Node4&#45;&gt;Node5 -->
<g id="edge4" class="edge"><title>Node4&#45;&gt;Node5</title>
<path fill="none" stroke="midnightblue" d="M149.424,-112.324C164.54,-103.822 187.815,-90.7288 205.471,-80.7975"/>
<polygon fill="midnightblue" stroke="midnightblue" points="207.614,-83.6077 214.614,-75.6545 204.183,-77.5066 207.614,-83.6077"/>
</g>
<!-- Node6 -->
<g id="node6" class="node"><title>Node6</title>
<polygon fill="white" stroke="#bfbfbf" points="8,-56.5 8,-75.5 60,-75.5 60,-56.5 8,-56.5"/>
<text text-anchor="middle" x="34" y="-63.5" font-family="Helvetica,sans-Serif" font-size="10.00">stddef.h</text>
</g>
<!-- Node4&#45;&gt;Node6 -->
<g id="edge5" class="edge"><title>Node4&#45;&gt;Node6</title>
<path fill="none" stroke="midnightblue" d="M117.933,-112.324C102.042,-103.743 77.4926,-90.486 59.0415,-80.5224"/>
<polygon fill="midnightblue" stroke="midnightblue" points="60.489,-77.3264 50.0269,-75.6545 57.1629,-83.4857 60.489,-77.3264"/>
</g>
<!-- Node7 -->
<g id="node7" class="node"><title>Node7</title>
<polygon fill="white" stroke="#bfbfbf" points="78,-56.5 78,-75.5 126,-75.5 126,-56.5 78,-56.5"/>
<text text-anchor="middle" x="102" y="-63.5" font-family="Helvetica,sans-Serif" font-size="10.00">limits.h</text>
</g>
<!-- Node4&#45;&gt;Node7 -->
<g id="edge6" class="edge"><title>Node4&#45;&gt;Node7</title>
<path fill="none" stroke="midnightblue" d="M128.716,-112.083C124.289,-104.613 117.837,-93.7244 112.382,-84.5199"/>
<polygon fill="midnightblue" stroke="midnightblue" points="115.295,-82.5697 107.186,-75.7511 109.273,-86.1383 115.295,-82.5697"/>
</g>
<!-- Node8 -->
<g id="node8" class="node"><title>Node8</title>
<polygon fill="white" stroke="#bfbfbf" points="1616.5,-56.5 1616.5,-75.5 1657.5,-75.5 1657.5,-56.5 1616.5,-56.5"/>
<text text-anchor="middle" x="1637" y="-63.5" font-family="Helvetica,sans-Serif" font-size="10.00">string</text>
</g>
<!-- Node4&#45;&gt;Node8 -->
<g id="edge7" class="edge"><title>Node4&#45;&gt;Node8</title>
<path fill="none" stroke="midnightblue" d="M186.173,-119.126C425.958,-110.51 1418.54,-74.849 1606.28,-68.1037"/>
<polygon fill="midnightblue" stroke="midnightblue" points="1606.43,-71.6008 1616.29,-67.7439 1606.17,-64.6053 1606.43,-71.6008"/>
</g>
<!-- Node9 -->
<g id="node9" class="node"><title>Node9</title>
<polygon fill="white" stroke="#bfbfbf" points="144.5,-56.5 144.5,-75.5 187.5,-75.5 187.5,-56.5 144.5,-56.5"/>
<text text-anchor="middle" x="166" y="-63.5" font-family="Helvetica,sans-Serif" font-size="10.00">deque</text>
</g>
<!-- Node4&#45;&gt;Node9 -->
<g id="edge8" class="edge"><title>Node4&#45;&gt;Node9</title>
<path fill="none" stroke="midnightblue" d="M139.284,-112.083C143.711,-104.613 150.163,-93.7244 155.618,-84.5199"/>
<polygon fill="midnightblue" stroke="midnightblue" points="158.727,-86.1383 160.814,-75.7511 152.705,-82.5697 158.727,-86.1383"/>
</g>
<!-- Node10&#45;&gt;Node8 -->
<g id="edge14" class="edge"><title>Node10&#45;&gt;Node8</title>
<path fill="none" stroke="midnightblue" d="M1008.07,-115.738C1020.08,-114.439 1033.02,-113.104 1045,-112 1259.55,-92.2188 1518.42,-74.739 1606.2,-68.9909"/>
<polygon fill="midnightblue" stroke="midnightblue" points="1606.52,-72.4773 1616.27,-68.3335 1606.06,-65.4922 1606.52,-72.4773"/>
</g>
<!-- Node11 -->
<g id="node11" class="node"><title>Node11</title>
<g id="a_node11"><a xlink:href="Log_8h.html" target="_top" xlink:title="Log.h">
<polygon fill="white" stroke="black" points="1046.5,-56.5 1046.5,-75.5 1087.5,-75.5 1087.5,-56.5 1046.5,-56.5"/>
<text text-anchor="middle" x="1067" y="-63.5" font-family="Helvetica,sans-Serif" font-size="10.00">Log.h</text>
</a>
</g>
</g>
<!-- Node10&#45;&gt;Node11 -->
<g id="edge10" class="edge"><title>Node10&#45;&gt;Node11</title>
<path fill="none" stroke="midnightblue" d="M978.87,-112.324C995.709,-103.664 1021.81,-90.2424 1041.24,-80.249"/>
<polygon fill="midnightblue" stroke="midnightblue" points="1042.88,-83.3405 1050.17,-75.6545 1039.68,-77.1155 1042.88,-83.3405"/>
</g>
<!-- Node12 -->
<g id="node12" class="node"><title>Node12</title>
<polygon fill="white" stroke="#bfbfbf" points="905.5,-0.5 905.5,-19.5 948.5,-19.5 948.5,-0.5 905.5,-0.5"/>
<text text-anchor="middle" x="927" y="-7.5" font-family="Helvetica,sans-Serif" font-size="10.00">cstdio</text>
</g>
<!-- Node10&#45;&gt;Node12 -->
<g id="edge17" class="edge"><title>Node10&#45;&gt;Node12</title>
<path fill="none" stroke="midnightblue" d="M922.745,-112.475C903.004,-105.99 880.816,-94.8434 869,-76 856.752,-56.467 879.657,-37.1485 900.192,-24.7152"/>
<polygon fill="midnightblue" stroke="midnightblue" points="902.082,-27.6666 909.032,-19.6694 898.612,-21.5873 902.082,-27.6666"/>
</g>
<!-- Node15 -->
<g id="node15" class="node"><title>Node15</title>
<polygon fill="white" stroke="#bfbfbf" points="878.5,-56.5 878.5,-75.5 961.5,-75.5 961.5,-56.5 878.5,-56.5"/>
<text text-anchor="middle" x="920" y="-63.5" font-family="Helvetica,sans-Serif" font-size="10.00">unordered_map</text>
</g>
<!-- Node10&#45;&gt;Node15 -->
<g id="edge15" class="edge"><title>Node10&#45;&gt;Node15</title>
<path fill="none" stroke="midnightblue" d="M955.065,-112.083C949.071,-104.377 940.248,-93.0333 932.952,-83.6531"/>
<polygon fill="midnightblue" stroke="midnightblue" points="935.709,-81.4958 926.806,-75.7511 930.183,-85.7934 935.709,-81.4958"/>
</g>
<!-- Node16 -->
<g id="node16" class="node"><title>Node16</title>
<polygon fill="white" stroke="#bfbfbf" points="979.5,-56.5 979.5,-75.5 1028.5,-75.5 1028.5,-56.5 979.5,-56.5"/>
<text text-anchor="middle" x="1004" y="-63.5" font-family="Helvetica,sans-Serif" font-size="10.00">cassert</text>
</g>
<!-- Node10&#45;&gt;Node16 -->
<g id="edge16" class="edge"><title>Node10&#45;&gt;Node16</title>
<path fill="none" stroke="midnightblue" d="M968.935,-112.083C974.929,-104.377 983.752,-93.0333 991.048,-83.6531"/>
<polygon fill="midnightblue" stroke="midnightblue" points="993.817,-85.7934 997.194,-75.7511 988.291,-81.4958 993.817,-85.7934"/>
</g>
<!-- Node11&#45;&gt;Node12 -->
<g id="edge11" class="edge"><title>Node11&#45;&gt;Node12</title>
<path fill="none" stroke="midnightblue" d="M1046.34,-57.0321C1023.04,-48.0437 984.892,-33.3298 958.01,-22.9609"/>
<polygon fill="midnightblue" stroke="midnightblue" points="959.253,-19.6893 948.664,-19.3561 956.734,-26.2204 959.253,-19.6893"/>
</g>
<!-- Node13 -->
<g id="node13" class="node"><title>Node13</title>
<polygon fill="white" stroke="#bfbfbf" points="1075.5,-0.5 1075.5,-19.5 1124.5,-19.5 1124.5,-0.5 1075.5,-0.5"/>
<text text-anchor="middle" x="1100" y="-7.5" font-family="Helvetica,sans-Serif" font-size="10.00">cstdarg</text>
</g>
<!-- Node11&#45;&gt;Node13 -->
<g id="edge12" class="edge"><title>Node11&#45;&gt;Node13</title>
<path fill="none" stroke="midnightblue" d="M1072.45,-56.083C1077.01,-48.6127 1083.67,-37.7244 1089.29,-28.5199"/>
<polygon fill="midnightblue" stroke="midnightblue" points="1092.42,-30.109 1094.65,-19.7511 1086.45,-26.4588 1092.42,-30.109"/>
</g>
<!-- Node14 -->
<g id="node14" class="node"><title>Node14</title>
<polygon fill="white" stroke="#bfbfbf" points="1011,-0.5 1011,-19.5 1057,-19.5 1057,-0.5 1011,-0.5"/>
<text text-anchor="middle" x="1034" y="-7.5" font-family="Helvetica,sans-Serif" font-size="10.00">cstring</text>
</g>
<!-- Node11&#45;&gt;Node14 -->
<g id="edge13" class="edge"><title>Node11&#45;&gt;Node14</title>
<path fill="none" stroke="midnightblue" d="M1061.55,-56.083C1056.99,-48.6127 1050.33,-37.7244 1044.71,-28.5199"/>
<polygon fill="midnightblue" stroke="midnightblue" points="1047.55,-26.4588 1039.35,-19.7511 1041.58,-30.109 1047.55,-26.4588"/>
</g>
<!-- Node17&#45;&gt;Node4 -->
<g id="edge19" class="edge"><title>Node17&#45;&gt;Node4</title>
<path fill="none" stroke="midnightblue" d="M57,-504.442C57,-485.936 57,-440.812 57,-403 57,-403 57,-403 57,-233 57,-202.902 59.0635,-192.88 76,-168 84.5724,-155.407 97.7843,-144.763 109.434,-136.994"/>
<polygon fill="midnightblue" stroke="midnightblue" points="111.347,-139.925 117.936,-131.628 107.611,-134.005 111.347,-139.925"/>
</g>
<!-- Node18 -->
<g id="node18" class="node"><title>Node18</title>
<g id="a_node18"><a xlink:href="AIStubTypes_8h.html" target="_top" xlink:title="AIStubTypes.h">
<polygon fill="white" stroke="black" points="794,-448.5 794,-467.5 876,-467.5 876,-448.5 794,-448.5"/>
<text text-anchor="middle" x="835" y="-455.5" font-family="Helvetica,sans-Serif" font-size="10.00">AIStubTypes.h</text>
</a>
</g>
</g>
<!-- Node17&#45;&gt;Node18 -->
<g id="edge20" class="edge"><title>Node17&#45;&gt;Node18</title>
<path fill="none" stroke="midnightblue" d="M114.524,-509.007C260.648,-498.865 644.383,-472.231 783.604,-462.567"/>
<polygon fill="midnightblue" stroke="midnightblue" points="784.245,-466.031 793.979,-461.847 783.761,-459.048 784.245,-466.031"/>
</g>
<!-- Node18&#45;&gt;Node8 -->
<g id="edge22" class="edge"><title>Node18&#45;&gt;Node8</title>
<path fill="none" stroke="midnightblue" d="M876.13,-456.771C1061.94,-455.205 1814,-442.94 1814,-347 1814,-347 1814,-347 1814,-177 1814,-108.939 1718.42,-81.5068 1667.73,-71.7446"/>
<polygon fill="midnightblue" stroke="midnightblue" points="1668.11,-68.2564 1657.65,-69.9213 1666.87,-75.1447 1668.11,-68.2564"/>
</g>
<!-- Node18&#45;&gt;Node10 -->
<g id="edge32" class="edge"><title>Node18&#45;&gt;Node10</title>
<path fill="none" stroke="midnightblue" d="M793.574,-454.098C654.207,-443.787 211,-406.333 211,-347 211,-347 211,-347 211,-233 211,-171.169 274.558,-185.018 334,-168 440.514,-137.505 772.13,-127.088 905.555,-124.074"/>
<polygon fill="midnightblue" stroke="midnightblue" points="905.651,-127.572 915.571,-123.853 905.497,-120.574 905.651,-127.572"/>
</g>
<!-- Node19 -->
<g id="node19" class="node"><title>Node19</title>
<polygon fill="white" stroke="#bfbfbf" points="1054,-112.5 1054,-131.5 1098,-131.5 1098,-112.5 1054,-112.5"/>
<text text-anchor="middle" x="1076" y="-119.5" font-family="Helvetica,sans-Serif" font-size="10.00">vector</text>
</g>
<!-- Node18&#45;&gt;Node19 -->
<g id="edge21" class="edge"><title>Node18&#45;&gt;Node19</title>
<path fill="none" stroke="midnightblue" d="M876.211,-448.481C925.083,-435.686 1000,-406.388 1000,-347 1000,-347 1000,-347 1000,-233 1000,-193.276 1033.96,-157.504 1056.48,-138.154"/>
<polygon fill="midnightblue" stroke="midnightblue" points="1058.98,-140.634 1064.46,-131.567 1054.52,-135.236 1058.98,-140.634"/>
</g>
<!-- Node20 -->
<g id="node20" class="node"><title>Node20</title>
<g id="a_node20"><a xlink:href="Math_8h.html" target="_top" xlink:title="common/Math.h">
<polygon fill="white" stroke="black" points="626.5,-392.5 626.5,-411.5 713.5,-411.5 713.5,-392.5 626.5,-392.5"/>
<text text-anchor="middle" x="670" y="-399.5" font-family="Helvetica,sans-Serif" font-size="10.00">common/Math.h</text>
</a>
</g>
</g>
<!-- Node18&#45;&gt;Node20 -->
<g id="edge23" class="edge"><title>Node18&#45;&gt;Node20</title>
<path fill="none" stroke="midnightblue" d="M808.855,-448.444C780.977,-439.32 736.652,-424.813 705.6,-414.651"/>
<polygon fill="midnightblue" stroke="midnightblue" points="706.615,-411.3 696.022,-411.516 704.438,-417.953 706.615,-411.3"/>
</g>
<!-- Node28 -->
<g id="node28" class="node"><title>Node28</title>
<g id="a_node28"><a xlink:href="TreeNode_8h.html" target="_top" xlink:title="tree/TreeNode.h">
<polygon fill="white" stroke="black" points="1327.5,-392.5 1327.5,-411.5 1414.5,-411.5 1414.5,-392.5 1327.5,-392.5"/>
<text text-anchor="middle" x="1371" y="-399.5" font-family="Helvetica,sans-Serif" font-size="10.00">tree/TreeNode.h</text>
</a>
</g>
</g>
<!-- Node18&#45;&gt;Node28 -->
<g id="edge33" class="edge"><title>Node18&#45;&gt;Node28</title>
<path fill="none" stroke="midnightblue" d="M876.169,-452.852C972.014,-443.196 1210.03,-419.217 1317.2,-408.421"/>
<polygon fill="midnightblue" stroke="midnightblue" points="1317.86,-411.872 1327.46,-407.387 1317.16,-404.907 1317.86,-411.872"/>
</g>
<!-- Node20&#45;&gt;Node10 -->
<g id="edge24" class="edge"><title>Node20&#45;&gt;Node10</title>
<path fill="none" stroke="midnightblue" d="M626.415,-398.825C528.007,-393.534 295.048,-378.734 268,-356 244.959,-336.635 249,-321.098 249,-291 249,-291 249,-291 249,-233 249,-166.676 737.117,-134.8 905.612,-125.772"/>
<polygon fill="midnightblue" stroke="midnightblue" points="905.966,-129.258 915.767,-125.235 905.597,-122.268 905.966,-129.258"/>
</g>
<!-- Node21 -->
<g id="node21" class="node"><title>Node21</title>
<polygon fill="white" stroke="#bfbfbf" points="770,-336.5 770,-355.5 840,-355.5 840,-336.5 770,-336.5"/>
<text text-anchor="middle" x="805" y="-343.5" font-family="Helvetica,sans-Serif" font-size="10.00">glm/glm.hpp</text>
</g>
<!-- Node20&#45;&gt;Node21 -->
<g id="edge25" class="edge"><title>Node20&#45;&gt;Node21</title>
<path fill="none" stroke="midnightblue" d="M691.391,-392.444C713.707,-383.517 748.903,-369.439 774.208,-359.317"/>
<polygon fill="midnightblue" stroke="midnightblue" points="775.724,-362.48 783.709,-355.516 773.124,-355.981 775.724,-362.48"/>
</g>
<!-- Node22 -->
<g id="node22" class="node"><title>Node22</title>
<polygon fill="white" stroke="#bfbfbf" points="858.5,-336.5 858.5,-355.5 971.5,-355.5 971.5,-336.5 858.5,-336.5"/>
<text text-anchor="middle" x="915" y="-343.5" font-family="Helvetica,sans-Serif" font-size="10.00">glm/gtc/constants.hpp</text>
</g>
<!-- Node20&#45;&gt;Node22 -->
<g id="edge26" class="edge"><title>Node20&#45;&gt;Node22</title>
<path fill="none" stroke="midnightblue" d="M708.821,-392.444C751.561,-383.023 820.332,-367.866 866.566,-357.675"/>
<polygon fill="midnightblue" stroke="midnightblue" points="867.348,-361.087 876.361,-355.516 865.842,-354.251 867.348,-361.087"/>
</g>
<!-- Node23 -->
<g id="node23" class="node"><title>Node23</title>
<polygon fill="white" stroke="#bfbfbf" points="277.5,-336.5 277.5,-355.5 378.5,-355.5 378.5,-336.5 277.5,-336.5"/>
<text text-anchor="middle" x="328" y="-343.5" font-family="Helvetica,sans-Serif" font-size="10.00">glm/gtc/epsilon.hpp</text>
</g>
<!-- Node20&#45;&gt;Node23 -->
<g id="edge27" class="edge"><title>Node20&#45;&gt;Node23</title>
<path fill="none" stroke="midnightblue" d="M626.338,-394.106C566.046,-384.586 457.031,-367.373 388.798,-356.6"/>
<polygon fill="midnightblue" stroke="midnightblue" points="389.048,-353.096 378.624,-354.993 387.956,-360.01 389.048,-353.096"/>
</g>
<!-- Node24 -->
<g id="node24" class="node"><title>Node24</title>
<polygon fill="white" stroke="#bfbfbf" points="396.5,-336.5 396.5,-355.5 521.5,-355.5 521.5,-336.5 396.5,-336.5"/>
<text text-anchor="middle" x="459" y="-343.5" font-family="Helvetica,sans-Serif" font-size="10.00">glm/gtx/compatibility.hpp</text>
</g>
<!-- Node20&#45;&gt;Node24 -->
<g id="edge28" class="edge"><title>Node20&#45;&gt;Node24</title>
<path fill="none" stroke="midnightblue" d="M636.566,-392.444C600.144,-383.122 541.77,-368.183 501.971,-357.997"/>
<polygon fill="midnightblue" stroke="midnightblue" points="502.833,-354.605 492.277,-355.516 501.097,-361.387 502.833,-354.605"/>
</g>
<!-- Node25 -->
<g id="node25" class="node"><title>Node25</title>
<polygon fill="white" stroke="#bfbfbf" points="540,-336.5 540,-355.5 632,-355.5 632,-336.5 540,-336.5"/>
<text text-anchor="middle" x="586" y="-343.5" font-family="Helvetica,sans-Serif" font-size="10.00">glm/gtx/norm.hpp</text>
</g>
<!-- Node20&#45;&gt;Node25 -->
<g id="edge29" class="edge"><title>Node20&#45;&gt;Node25</title>
<path fill="none" stroke="midnightblue" d="M656.504,-392.324C643.4,-383.9 623.288,-370.971 607.893,-361.074"/>
<polygon fill="midnightblue" stroke="midnightblue" points="609.767,-358.118 599.463,-355.655 605.982,-364.006 609.767,-358.118"/>
</g>
<!-- Node26 -->
<g id="node26" class="node"><title>Node26</title>
<polygon fill="white" stroke="#bfbfbf" points="650,-336.5 650,-355.5 690,-355.5 690,-336.5 650,-336.5"/>
<text text-anchor="middle" x="670" y="-343.5" font-family="Helvetica,sans-Serif" font-size="10.00">limits</text>
</g>
<!-- Node20&#45;&gt;Node26 -->
<g id="edge30" class="edge"><title>Node20&#45;&gt;Node26</title>
<path fill="none" stroke="midnightblue" d="M670,-392.083C670,-385.006 670,-374.861 670,-365.986"/>
<polygon fill="midnightblue" stroke="midnightblue" points="673.5,-365.751 670,-355.751 666.5,-365.751 673.5,-365.751"/>
</g>
<!-- Node27 -->
<g id="node27" class="node"><title>Node27</title>
<polygon fill="white" stroke="#bfbfbf" points="708,-336.5 708,-355.5 752,-355.5 752,-336.5 708,-336.5"/>
<text text-anchor="middle" x="730" y="-343.5" font-family="Helvetica,sans-Serif" font-size="10.00">cmath</text>
</g>
<!-- Node20&#45;&gt;Node27 -->
<g id="edge31" class="edge"><title>Node20&#45;&gt;Node27</title>
<path fill="none" stroke="midnightblue" d="M679.64,-392.324C688.51,-384.341 701.875,-372.313 712.608,-362.653"/>
<polygon fill="midnightblue" stroke="midnightblue" points="715.093,-365.125 720.185,-355.834 710.41,-359.922 715.093,-365.125"/>
</g>
<!-- Node28&#45;&gt;Node3 -->
<g id="edge64" class="edge"><title>Node28&#45;&gt;Node3</title>
<path fill="none" stroke="midnightblue" d="M1414.54,-397.206C1511.76,-387.536 1738,-357.848 1738,-291 1738,-291 1738,-291 1738,-233 1738,-187.119 1689.56,-153.527 1657.27,-136.228"/>
<polygon fill="midnightblue" stroke="midnightblue" points="1658.73,-133.045 1648.24,-131.585 1655.53,-139.27 1658.73,-133.045"/>
</g>
<!-- Node28&#45;&gt;Node8 -->
<g id="edge63" class="edge"><title>Node28&#45;&gt;Node8</title>
<path fill="none" stroke="midnightblue" d="M1414.73,-398.4C1519.45,-390.979 1776,-365.226 1776,-291 1776,-291 1776,-291 1776,-177 1776,-121.846 1707.87,-90.0035 1667.01,-75.8648"/>
<polygon fill="midnightblue" stroke="midnightblue" points="1668.1,-72.5405 1657.51,-72.7254 1665.91,-79.1869 1668.1,-72.5405"/>
</g>
<!-- Node28&#45;&gt;Node10 -->
<g id="edge34" class="edge"><title>Node28&#45;&gt;Node10</title>
<path fill="none" stroke="midnightblue" d="M1345.11,-392.428C1322.1,-384.368 1287.91,-371.278 1260,-356 1141.48,-291.115 1020.99,-180.03 978.244,-138.913"/>
<polygon fill="midnightblue" stroke="midnightblue" points="980.588,-136.31 970.97,-131.866 975.717,-141.338 980.588,-136.31"/>
</g>
<!-- Node28&#45;&gt;Node19 -->
<g id="edge62" class="edge"><title>Node28&#45;&gt;Node19</title>
<path fill="none" stroke="midnightblue" d="M1354.94,-392.394C1315.56,-370.823 1212.14,-311.326 1140,-244 1116.86,-222.404 1110.68,-216.043 1096,-188 1088.3,-173.29 1083.02,-155.127 1079.83,-141.744"/>
<polygon fill="midnightblue" stroke="midnightblue" points="1083.21,-140.815 1077.64,-131.806 1076.38,-142.326 1083.21,-140.815"/>
</g>
<!-- Node29 -->
<g id="node29" class="node"><title>Node29</title>
<g id="a_node29"><a xlink:href="MemoryAllocator_8h.html" target="_top" xlink:title="common/MemoryAllocator.h">
<polygon fill="white" stroke="black" points="1532.5,-224.5 1532.5,-243.5 1671.5,-243.5 1671.5,-224.5 1532.5,-224.5"/>
<text text-anchor="middle" x="1602" y="-231.5" font-family="Helvetica,sans-Serif" font-size="10.00">common/MemoryAllocator.h</text>
</a>
</g>
</g>
<!-- Node28&#45;&gt;Node29 -->
<g id="edge35" class="edge"><title>Node28&#45;&gt;Node29</title>
<path fill="none" stroke="midnightblue" d="M1414.61,-395.409C1445.8,-389.665 1487.5,-378.265 1518,-356 1555.38,-328.715 1581.89,-279.536 1594.22,-253.055"/>
<polygon fill="midnightblue" stroke="midnightblue" points="1597.46,-254.37 1598.37,-243.813 1591.08,-251.501 1597.46,-254.37"/>
</g>
<!-- Node30 -->
<g id="node30" class="node"><title>Node30</title>
<g id="a_node30"><a xlink:href="ICondition_8h.html" target="_top" xlink:title="Condition related stuff. ">
<polygon fill="white" stroke="black" points="1379,-280.5 1379,-299.5 1495,-299.5 1495,-280.5 1379,-280.5"/>
<text text-anchor="middle" x="1437" y="-287.5" font-family="Helvetica,sans-Serif" font-size="10.00">conditions/ICondition.h</text>
</a>
</g>
</g>
<!-- Node28&#45;&gt;Node30 -->
<g id="edge37" class="edge"><title>Node28&#45;&gt;Node30</title>
<path fill="none" stroke="midnightblue" d="M1359.77,-392.386C1344.69,-379.747 1321.2,-355.558 1334,-336 1344.5,-319.949 1362.13,-309.59 1379.85,-302.918"/>
<polygon fill="midnightblue" stroke="midnightblue" points="1381.33,-306.113 1389.67,-299.578 1379.07,-299.487 1381.33,-306.113"/>
</g>
<!-- Node42 -->
<g id="node42" class="node"><title>Node42</title>
<g id="a_node42"><a xlink:href="True_8h.html" target="_top" xlink:title="conditions/True.h">
<polygon fill="white" stroke="black" points="1417,-336.5 1417,-355.5 1509,-355.5 1509,-336.5 1417,-336.5"/>
<text text-anchor="middle" x="1463" y="-343.5" font-family="Helvetica,sans-Serif" font-size="10.00">conditions/True.h</text>
</a>
</g>
</g>
<!-- Node28&#45;&gt;Node42 -->
<g id="edge60" class="edge"><title>Node28&#45;&gt;Node42</title>
<path fill="none" stroke="midnightblue" d="M1385.78,-392.324C1400.27,-383.822 1422.57,-370.729 1439.49,-360.797"/>
<polygon fill="midnightblue" stroke="midnightblue" points="1441.4,-363.735 1448.26,-355.655 1437.86,-357.698 1441.4,-363.735"/>
</g>
<!-- Node43 -->
<g id="node43" class="node"><title>Node43</title>
<polygon fill="white" stroke="#bfbfbf" points="1343,-336.5 1343,-355.5 1399,-355.5 1399,-336.5 1343,-336.5"/>
<text text-anchor="middle" x="1371" y="-343.5" font-family="Helvetica,sans-Serif" font-size="10.00">algorithm</text>
</g>
<!-- Node28&#45;&gt;Node43 -->
<g id="edge65" class="edge"><title>Node28&#45;&gt;Node43</title>
<path fill="none" stroke="midnightblue" d="M1371,-392.083C1371,-385.006 1371,-374.861 1371,-365.986"/>
<polygon fill="midnightblue" stroke="midnightblue" points="1374.5,-365.751 1371,-355.751 1367.5,-365.751 1374.5,-365.751"/>
</g>
<!-- Node29&#45;&gt;Node3 -->
<g id="edge36" class="edge"><title>Node29&#45;&gt;Node3</title>
<path fill="none" stroke="midnightblue" d="M1612.16,-224.185C1620.91,-215.87 1632.9,-202.539 1638,-188 1643.3,-172.883 1640.06,-154.76 1636.07,-141.495"/>
<polygon fill="midnightblue" stroke="midnightblue" points="1639.25,-139.996 1632.7,-131.669 1632.63,-142.263 1639.25,-139.996"/>
</g>
<!-- Node30&#45;&gt;Node3 -->
<g id="edge41" class="edge"><title>Node30&#45;&gt;Node3</title>
<path fill="none" stroke="midnightblue" d="M1446.79,-280.401C1462.23,-267.135 1493.5,-241.394 1523,-224 1556.94,-203.992 1576.86,-216.559 1604,-188 1616.09,-175.275 1622.51,-156.076 1625.8,-141.84"/>
<polygon fill="midnightblue" stroke="midnightblue" points="1629.3,-142.196 1627.82,-131.706 1622.43,-140.83 1629.3,-142.196"/>
</g>
<!-- Node30&#45;&gt;Node8 -->
<g id="edge38" class="edge"><title>Node30&#45;&gt;Node8</title>
<path fill="none" stroke="midnightblue" d="M1495.23,-286.526C1559.5,-282.429 1656.95,-271.707 1680,-244 1719.56,-196.444 1673.56,-118.222 1649.65,-83.9632"/>
<polygon fill="midnightblue" stroke="midnightblue" points="1652.27,-81.6029 1643.59,-75.5283 1646.58,-85.6902 1652.27,-81.6029"/>
</g>
<!-- Node30&#45;&gt;Node19 -->
<g id="edge39" class="edge"><title>Node30&#45;&gt;Node19</title>
<path fill="none" stroke="midnightblue" d="M1378.82,-284.225C1310.91,-277.795 1203.48,-264.711 1169,-244 1127.51,-219.079 1097.88,-168.117 1084.31,-140.965"/>
<polygon fill="midnightblue" stroke="midnightblue" points="1087.4,-139.315 1079.9,-131.828 1081.09,-142.356 1087.4,-139.315"/>
</g>
<!-- Node30&#45;&gt;Node29 -->
<g id="edge42" class="edge"><title>Node30&#45;&gt;Node29</title>
<path fill="none" stroke="midnightblue" d="M1463.14,-280.444C1491.02,-271.32 1535.35,-256.813 1566.4,-246.651"/>
<polygon fill="midnightblue" stroke="midnightblue" points="1567.56,-249.953 1575.98,-243.516 1565.38,-243.3 1567.56,-249.953"/>
</g>
<!-- Node31 -->
<g id="node31" class="node"><title>Node31</title>
<polygon fill="white" stroke="#bfbfbf" points="1329,-224.5 1329,-243.5 1381,-243.5 1381,-224.5 1329,-224.5"/>
<text text-anchor="middle" x="1355" y="-231.5" font-family="Helvetica,sans-Serif" font-size="10.00">sstream</text>
</g>
<!-- Node30&#45;&gt;Node31 -->
<g id="edge40" class="edge"><title>Node30&#45;&gt;Node31</title>
<path fill="none" stroke="midnightblue" d="M1423.83,-280.324C1411.15,-271.979 1391.77,-259.212 1376.79,-249.352"/>
<polygon fill="midnightblue" stroke="midnightblue" points="1378.42,-246.231 1368.14,-243.655 1374.57,-252.078 1378.42,-246.231"/>
</g>
<!-- Node32 -->
<g id="node32" class="node"><title>Node32</title>
<g id="a_node32"><a xlink:href="Thread_8h.html" target="_top" xlink:title="common/Thread.h">
<polygon fill="white" stroke="black" points="1178.5,-224.5 1178.5,-243.5 1273.5,-243.5 1273.5,-224.5 1178.5,-224.5"/>
<text text-anchor="middle" x="1226" y="-231.5" font-family="Helvetica,sans-Serif" font-size="10.00">common/Thread.h</text>
</a>
</g>
</g>
<!-- Node30&#45;&gt;Node32 -->
<g id="edge43" class="edge"><title>Node30&#45;&gt;Node32</title>
<path fill="none" stroke="midnightblue" d="M1403.57,-280.444C1367.14,-271.122 1308.77,-256.183 1268.97,-245.997"/>
<polygon fill="midnightblue" stroke="midnightblue" points="1269.83,-242.605 1259.28,-243.516 1268.1,-249.387 1269.83,-242.605"/>
</g>
<!-- Node36 -->
<g id="node36" class="node"><title>Node36</title>
<g id="a_node36"><a xlink:href="AIFactories_8h.html" target="_top" xlink:title="AIFactories.h">
<polygon fill="white" stroke="black" points="1399.5,-224.5 1399.5,-243.5 1474.5,-243.5 1474.5,-224.5 1399.5,-224.5"/>
<text text-anchor="middle" x="1437" y="-231.5" font-family="Helvetica,sans-Serif" font-size="10.00">AIFactories.h</text>
</a>
</g>
</g>
<!-- Node30&#45;&gt;Node36 -->
<g id="edge48" class="edge"><title>Node30&#45;&gt;Node36</title>
<path fill="none" stroke="midnightblue" d="M1437,-280.083C1437,-273.006 1437,-262.861 1437,-253.986"/>
<polygon fill="midnightblue" stroke="midnightblue" points="1440.5,-253.751 1437,-243.751 1433.5,-253.751 1440.5,-253.751"/>
</g>
<!-- Node32&#45;&gt;Node10 -->
<g id="edge44" class="edge"><title>Node32&#45;&gt;Node10</title>
<path fill="none" stroke="midnightblue" d="M1205.28,-224.368C1158.83,-205.01 1046.15,-158.065 992.018,-135.507"/>
<polygon fill="midnightblue" stroke="midnightblue" points="993.196,-132.207 982.619,-131.591 990.504,-138.668 993.196,-132.207"/>
</g>
<!-- Node33 -->
<g id="node33" class="node"><title>Node33</title>
<polygon fill="white" stroke="#bfbfbf" points="1142,-168.5 1142,-187.5 1186,-187.5 1186,-168.5 1142,-168.5"/>
<text text-anchor="middle" x="1164" y="-175.5" font-family="Helvetica,sans-Serif" font-size="10.00">thread</text>
</g>
<!-- Node32&#45;&gt;Node33 -->
<g id="edge45" class="edge"><title>Node32&#45;&gt;Node33</title>
<path fill="none" stroke="midnightblue" d="M1216.04,-224.324C1206.87,-216.341 1193.06,-204.313 1181.97,-194.653"/>
<polygon fill="midnightblue" stroke="midnightblue" points="1183.98,-191.762 1174.14,-187.834 1179.38,-197.041 1183.98,-191.762"/>
</g>
<!-- Node34 -->
<g id="node34" class="node"><title>Node34</title>
<polygon fill="white" stroke="#bfbfbf" points="1204,-168.5 1204,-187.5 1248,-187.5 1248,-168.5 1204,-168.5"/>
<text text-anchor="middle" x="1226" y="-175.5" font-family="Helvetica,sans-Serif" font-size="10.00">mutex</text>
</g>
<!-- Node32&#45;&gt;Node34 -->
<g id="edge46" class="edge"><title>Node32&#45;&gt;Node34</title>
<path fill="none" stroke="midnightblue" d="M1226,-224.083C1226,-217.006 1226,-206.861 1226,-197.986"/>
<polygon fill="midnightblue" stroke="midnightblue" points="1229.5,-197.751 1226,-187.751 1222.5,-197.751 1229.5,-197.751"/>
</g>
<!-- Node35 -->
<g id="node35" class="node"><title>Node35</title>
<polygon fill="white" stroke="#bfbfbf" points="1266,-168.5 1266,-187.5 1312,-187.5 1312,-168.5 1266,-168.5"/>
<text text-anchor="middle" x="1289" y="-175.5" font-family="Helvetica,sans-Serif" font-size="10.00">atomic</text>
</g>
<!-- Node32&#45;&gt;Node35 -->
<g id="edge47" class="edge"><title>Node32&#45;&gt;Node35</title>
<path fill="none" stroke="midnightblue" d="M1236.12,-224.324C1245.53,-216.263 1259.74,-204.077 1271.07,-194.369"/>
<polygon fill="midnightblue" stroke="midnightblue" points="1273.38,-196.999 1278.69,-187.834 1268.82,-191.684 1273.38,-196.999"/>
</g>
<!-- Node36&#45;&gt;Node19 -->
<g id="edge59" class="edge"><title>Node36&#45;&gt;Node19</title>
<path fill="none" stroke="midnightblue" d="M1422.18,-224.338C1393.35,-207.534 1331.59,-171.819 1321,-168 1247.63,-141.533 1156.03,-130.023 1108.31,-125.532"/>
<polygon fill="midnightblue" stroke="midnightblue" points="1108.54,-122.039 1098.26,-124.63 1107.91,-129.011 1108.54,-122.039"/>
</g>
<!-- Node37 -->
<g id="node37" class="node"><title>Node37</title>
<g id="a_node37"><a xlink:href="IAIFactory_8h.html" target="_top" xlink:title="IAIFactory.h">
<polygon fill="white" stroke="black" points="1524.5,-168.5 1524.5,-187.5 1595.5,-187.5 1595.5,-168.5 1524.5,-168.5"/>
<text text-anchor="middle" x="1560" y="-175.5" font-family="Helvetica,sans-Serif" font-size="10.00">IAIFactory.h</text>
</a>
</g>
</g>
<!-- Node36&#45;&gt;Node37 -->
<g id="edge49" class="edge"><title>Node36&#45;&gt;Node37</title>
<path fill="none" stroke="midnightblue" d="M1456.49,-224.444C1476.64,-215.596 1508.32,-201.687 1531.33,-191.586"/>
<polygon fill="midnightblue" stroke="midnightblue" points="1532.85,-194.741 1540.6,-187.516 1530.04,-188.332 1532.85,-194.741"/>
</g>
<!-- Node39 -->
<g id="node39" class="node"><title>Node39</title>
<g id="a_node39"><a xlink:href="IFactoryRegistry_8h.html" target="_top" xlink:title="common/IFactoryRegistry.h">
<polygon fill="white" stroke="black" points="1368,-168.5 1368,-187.5 1506,-187.5 1506,-168.5 1368,-168.5"/>
<text text-anchor="middle" x="1437" y="-175.5" font-family="Helvetica,sans-Serif" font-size="10.00">common/IFactoryRegistry.h</text>
</a>
</g>
</g>
<!-- Node36&#45;&gt;Node39 -->
<g id="edge54" class="edge"><title>Node36&#45;&gt;Node39</title>
<path fill="none" stroke="midnightblue" d="M1437,-224.083C1437,-217.006 1437,-206.861 1437,-197.986"/>
<polygon fill="midnightblue" stroke="midnightblue" points="1440.5,-197.751 1437,-187.751 1433.5,-197.751 1440.5,-197.751"/>
</g>
<!-- Node37&#45;&gt;Node3 -->
<g id="edge50" class="edge"><title>Node37&#45;&gt;Node3</title>
<path fill="none" stroke="midnightblue" d="M1571.09,-168.324C1581.49,-160.185 1597.26,-147.839 1609.72,-138.087"/>
<polygon fill="midnightblue" stroke="midnightblue" points="1611.99,-140.753 1617.71,-131.834 1607.68,-135.241 1611.99,-140.753"/>
</g>
<!-- Node37&#45;&gt;Node8 -->
<g id="edge51" class="edge"><title>Node37&#45;&gt;Node8</title>
<path fill="none" stroke="midnightblue" d="M1563.68,-168.14C1569.26,-155.194 1580.64,-130.626 1594,-112 1601.54,-101.487 1611.44,-90.9644 1619.83,-82.7406"/>
<polygon fill="midnightblue" stroke="midnightblue" points="1622.46,-85.0654 1627.3,-75.6358 1617.64,-79.9949 1622.46,-85.0654"/>
</g>
<!-- Node37&#45;&gt;Node19 -->
<g id="edge52" class="edge"><title>Node37&#45;&gt;Node19</title>
<path fill="none" stroke="midnightblue" d="M1524.19,-169.519C1521.09,-168.968 1517.99,-168.452 1515,-168 1363.68,-145.165 1181.23,-130.568 1108.36,-125.256"/>
<polygon fill="midnightblue" stroke="midnightblue" points="1108.24,-121.739 1098.02,-124.511 1107.74,-128.721 1108.24,-121.739"/>
</g>
<!-- Node38 -->
<g id="node38" class="node"><title>Node38</title>
<polygon fill="white" stroke="#bfbfbf" points="1517.5,-112.5 1517.5,-131.5 1546.5,-131.5 1546.5,-112.5 1517.5,-112.5"/>
<text text-anchor="middle" x="1532" y="-119.5" font-family="Helvetica,sans-Serif" font-size="10.00">list</text>
</g>
<!-- Node37&#45;&gt;Node38 -->
<g id="edge53" class="edge"><title>Node37&#45;&gt;Node38</title>
<path fill="none" stroke="midnightblue" d="M1555.38,-168.083C1551.54,-160.691 1545.98,-149.953 1541.24,-140.811"/>
<polygon fill="midnightblue" stroke="midnightblue" points="1544.25,-139.018 1536.54,-131.751 1538.03,-142.24 1544.25,-139.018"/>
</g>
<!-- Node39&#45;&gt;Node3 -->
<g id="edge57" class="edge"><title>Node39&#45;&gt;Node3</title>
<path fill="none" stroke="midnightblue" d="M1467.42,-168.444C1501.54,-158.848 1556.83,-143.298 1593.05,-133.11"/>
<polygon fill="midnightblue" stroke="midnightblue" points="1594.05,-136.465 1602.73,-130.388 1592.16,-129.727 1594.05,-136.465"/>
</g>
<!-- Node39&#45;&gt;Node10 -->
<g id="edge55" class="edge"><title>Node39&#45;&gt;Node10</title>
<path fill="none" stroke="midnightblue" d="M1367.93,-169.148C1273.38,-158.399 1105.47,-139.31 1018.19,-129.388"/>
<polygon fill="midnightblue" stroke="midnightblue" points="1018.54,-125.905 1008.21,-128.253 1017.75,-132.861 1018.54,-125.905"/>
</g>
<!-- Node40 -->
<g id="node40" class="node"><title>Node40</title>
<g id="a_node40"><a xlink:href="NonCopyable_8h.html" target="_top" xlink:title="common/NonCopyable.h">
<polygon fill="white" stroke="black" points="1374.5,-112.5 1374.5,-131.5 1499.5,-131.5 1499.5,-112.5 1374.5,-112.5"/>
<text text-anchor="middle" x="1437" y="-119.5" font-family="Helvetica,sans-Serif" font-size="10.00">common/NonCopyable.h</text>
</a>
</g>
</g>
<!-- Node39&#45;&gt;Node40 -->
<g id="edge56" class="edge"><title>Node39&#45;&gt;Node40</title>
<path fill="none" stroke="midnightblue" d="M1437,-168.083C1437,-161.006 1437,-150.861 1437,-141.986"/>
<polygon fill="midnightblue" stroke="midnightblue" points="1440.5,-141.751 1437,-131.751 1433.5,-141.751 1440.5,-141.751"/>
</g>
<!-- Node41 -->
<g id="node41" class="node"><title>Node41</title>
<polygon fill="white" stroke="#bfbfbf" points="1321.5,-112.5 1321.5,-131.5 1356.5,-131.5 1356.5,-112.5 1321.5,-112.5"/>
<text text-anchor="middle" x="1339" y="-119.5" font-family="Helvetica,sans-Serif" font-size="10.00">map</text>
</g>
<!-- Node39&#45;&gt;Node41 -->
<g id="edge58" class="edge"><title>Node39&#45;&gt;Node41</title>
<path fill="none" stroke="midnightblue" d="M1421.25,-168.324C1405.68,-159.743 1381.62,-146.486 1363.54,-136.522"/>
<polygon fill="midnightblue" stroke="midnightblue" points="1365.15,-133.415 1354.71,-131.655 1361.78,-139.546 1365.15,-133.415"/>
</g>
<!-- Node42&#45;&gt;Node30 -->
<g id="edge61" class="edge"><title>Node42&#45;&gt;Node30</title>
<path fill="none" stroke="midnightblue" d="M1458.71,-336.083C1455.15,-328.691 1449.98,-317.953 1445.58,-308.811"/>
<polygon fill="midnightblue" stroke="midnightblue" points="1448.71,-307.243 1441.21,-299.751 1442.4,-310.279 1448.71,-307.243"/>
</g>
</g>
</svg>
        <g id="navigator" transform="translate(0 0)" fill="#404254">
                <rect fill="#f2f5e9" fill-opacity="0.5" stroke="#606060" stroke-width=".5" x="0" y="0" width="60" height="60"/>
                <use id="zoomplus" xlink:href="#zoomPlus" x="17" y="9" onmousedown="handleZoom(evt,'in')"/>
                <use id="zoomminus" xlink:href="#zoomMin" x="42" y="9" onmousedown="handleZoom(evt,'out')"/>
                <use id="reset" xlink:href="#resetDef" x="30" y="36" onmousedown="handleReset()"/>
                <g id="arrowUp" xlink:href="#dirArrow" transform="translate(30 24)" onmousedown="handlePan(0,-1)">
                  <use xlink:href="#rim" fill="#404040">
                        <set attributeName="fill" to="#808080" begin="arrowUp.mouseover" end="arrowUp.mouseout"/>
                  </use>
                  <path fill="none" stroke="white" stroke-width="1.5" d="M0,-3.0v7 M-2.5,-0.5L0,-3.0L2.5,-0.5"/>
                </g>
                <g id="arrowRight" xlink:href="#dirArrow" transform="rotate(90) translate(36 -43)" onmousedown="handlePan(1,0)">
                  <use xlink:href="#rim" fill="#404040">
                        <set attributeName="fill" to="#808080" begin="arrowRight.mouseover" end="arrowRight.mouseout"/>
                  </use>
                  <path fill="none" stroke="white" stroke-width="1.5" d="M0,-3.0v7 M-2.5,-0.5L0,-3.0L2.5,-0.5"/>
                </g>
                <g id="arrowDown" xlink:href="#dirArrow" transform="rotate(180) translate(-30 -48)" onmousedown="handlePan(0,1)">
                  <use xlink:href="#rim" fill="#404040">
                        <set attributeName="fill" to="#808080" begin="arrowDown.mouseover" end="arrowDown.mouseout"/>
                  </use>
                  <path fill="none" stroke="white" stroke-width="1.5" d="M0,-3.0v7 M-2.5,-0.5L0,-3.0L2.5,-0.5"/>
                </g>
                <g id="arrowLeft" xlink:href="#dirArrow" transform="rotate(270) translate(-36 17)" onmousedown="handlePan(-1,0)">
                  <use xlink:href="#rim" fill="#404040">
                        <set attributeName="fill" to="#808080" begin="arrowLeft.mouseover" end="arrowLeft.mouseout"/>
                  </use>
                  <path fill="none" stroke="white" stroke-width="1.5" d="M0,-3.0v7 M-2.5,-0.5L0,-3.0L2.5,-0.5"/>
                </g>
        </g>
        <svg viewBox="0 0 15 15" width="100%" height="30px" preserveAspectRatio="xMaxYMin meet">
         <g id="arrow_out" transform="scale(0.3 0.3)">
          <a xlink:href="AddNodeHandler_8h__incl_org.svg" target="_base">
           <rect id="button" ry="5" rx="5" y="6" x="6" height="38" width="38"
                fill="#f2f5e9" fill-opacity="0.5" stroke="#606060" stroke-width="1.0"/>
           <path id="arrow"
             d="M 11.500037,31.436501 C 11.940474,20.09759 22.043105,11.32322 32.158766,21.979434 L 37.068811,17.246167 C 37.068811,17.246167 37.088388,32 37.088388,32 L 22.160133,31.978069 C 22.160133,31.978069 26.997745,27.140456 26.997745,27.140456 C 18.528582,18.264221 13.291696,25.230495 11.500037,31.436501 z"
             style="fill:#404040;"/>
          </a>
         </g>
        </svg>
</svg>
