<?xml version="1.0" encoding="UTF-8" standalone="no"?>
<!DOCTYPE svg PUBLIC "-//W3C//DTD SVG 1.1//EN"
 "http://www.w3.org/Graphics/SVG/1.1/DTD/svg11.dtd">
<!-- Generated by graphviz version 2.36.0 (20140111.2315)
 -->
<!-- Title: /home/travis/build/mgerhardy/simpleai/src/ai/server/AddNodeHandler.h Pages: 1 -->
<!--zoomable 610 -->
<svg id="main" version="1.1" xmlns="http://www.w3.org/2000/svg" xmlns:xlink="http://www.w3.org/1999/xlink" xml:space="preserve" onload="init(evt)">
<style type="text/css"><![CDATA[
.edge:hover path { stroke: red; }
.edge:hover polygon { stroke: red; fill: red; }
]]></style>
<script type="text/javascript"><![CDATA[
var edges = document.getElementsByTagName('g');
if (edges && edges.length) {
  for (var i=0;i<edges.length;i++) {
    if (edges[i].id.substr(0,4)=='edge') {
      edges[i].setAttribute('class','edge');
    }
  }
}
]]></script>
        <defs>
                <circle id="rim" cx="0" cy="0" r="7"/>
                <circle id="rim2" cx="0" cy="0" r="3.5"/>
                <g id="zoomPlus">
                        <use xlink:href="#rim" fill="#404040">
                                <set attributeName="fill" to="#808080" begin="zoomplus.mouseover" end="zoomplus.mouseout"/>
                        </use>
                        <path d="M-4,0h8M0,-4v8" fill="none" stroke="white" stroke-width="1.5" pointer-events="none"/>
                </g>
                <g id="zoomMin">
                        <use xlink:href="#rim" fill="#404040">
                                <set attributeName="fill" to="#808080" begin="zoomminus.mouseover" end="zoomminus.mouseout"/>
                        </use>
                        <path d="M-4,0h8" fill="none" stroke="white" stroke-width="1.5" pointer-events="none"/>
                </g>
                <g id="dirArrow">
                        <path fill="none" stroke="white" stroke-width="1.5" d="M0,-3.0v7 M-2.5,-0.5L0,-3.0L2.5,-0.5"/>
                </g>
               <g id="resetDef">
                       <use xlink:href="#rim2" fill="#404040">
                               <set attributeName="fill" to="#808080" begin="reset.mouseover" end="reset.mouseout"/>
                       </use>
               </g>
        </defs>

<script type="text/javascript">
var viewWidth = 1826;
var viewHeight = 610;
var sectionId = 'dynsection-0';
</script>
<script xlink:href="svgpan.js"/>
<svg id="graph" class="graph">
<g id="viewport">
<title>/home/travis/build/mgerhardy/simpleai/src/ai/server/AddNodeHandler.h</title>
<polygon fill="white" stroke="none" points="-4,4 -4,-606 1822,-606 1822,4 -4,4"/>
<!-- Node1 -->
<g id="node1" class="node"><title>Node1</title>
<polygon fill="#bfbfbf" stroke="black" points="20.5,-560.5 20.5,-601.5 179.5,-601.5 179.5,-560.5 20.5,-560.5"/>
<text text-anchor="start" x="28.5" y="-589.5" font-family="Helvetica,sans-Serif" font-size="10.00">/home/travis/build</text>
<text text-anchor="start" x="28.5" y="-578.5" font-family="Helvetica,sans-Serif" font-size="10.00">/mgerhardy/simpleai</text>
<text text-anchor="middle" x="100" y="-567.5" font-family="Helvetica,sans-Serif" font-size="10.00">/src/ai/server/AddNodeHandler.h</text>
</g>
<!-- Node2 -->
<g id="node2" class="node"><title>Node2</title>
<g id="a_node2"><a xlink:href="IProtocolHandler_8h.html" target="_top" xlink:title="IProtocolHandler.h">
<polygon fill="white" stroke="black" points="85,-168.5 85,-187.5 183,-187.5 183,-168.5 85,-168.5"/>
<text text-anchor="middle" x="134" y="-175.5" font-family="Helvetica,sans-Serif" font-size="10.00">IProtocolHandler.h</text>
</a>
</g>
</g>
<!-- Node1&#45;&gt;Node2 -->
<g id="edge1" class="edge"><title>Node1&#45;&gt;Node2</title>
<path fill="none" stroke="midnightblue" d="M111.75,-560.213C124.481,-536.86 143,-496.454 143,-459 143,-459 143,-459 143,-289 143,-256.841 139.132,-219.569 136.467,-197.711"/>
<polygon fill="midnightblue" stroke="midnightblue" points="139.907,-197.018 135.177,-187.538 132.963,-197.899 139.907,-197.018"/>
</g>
<!-- Node18 -->
<g id="node18" class="node"><title>Node18</title>
<g id="a_node18"><a xlink:href="AIAddNodeMessage_8h.html" target="_top" xlink:title="AIAddNodeMessage.h">
<polygon fill="white" stroke="black" points="-0.5,-504.5 -0.5,-523.5 114.5,-523.5 114.5,-504.5 -0.5,-504.5"/>
<text text-anchor="middle" x="57" y="-511.5" font-family="Helvetica,sans-Serif" font-size="10.00">AIAddNodeMessage.h</text>
</a>
</g>
</g>
<!-- Node1&#45;&gt;Node18 -->
<g id="edge18" class="edge"><title>Node1&#45;&gt;Node18</title>
<path fill="none" stroke="midnightblue" d="M87.0986,-560.498C81.1398,-551.49 74.126,-540.888 68.3687,-532.185"/>
<polygon fill="midnightblue" stroke="midnightblue" points="71.1604,-530.062 62.724,-523.652 65.3223,-533.924 71.1604,-530.062"/>
</g>
<!-- Node3 -->
<g id="node3" class="node"><title>Node3</title>
<polygon fill="white" stroke="#bfbfbf" points="1607,-112.5 1607,-131.5 1659,-131.5 1659,-112.5 1607,-112.5"/>
<text text-anchor="middle" x="1633" y="-119.5" font-family="Helvetica,sans-Serif" font-size="10.00">memory</text>
</g>
<!-- Node2&#45;&gt;Node3 -->
<g id="edge2" class="edge"><title>Node2&#45;&gt;Node3</title>
<path fill="none" stroke="midnightblue" d="M183.309,-177.039C365.924,-176.843 1020.98,-173.13 1559,-132 1571.28,-131.062 1584.65,-129.578 1596.6,-128.083"/>
<polygon fill="midnightblue" stroke="midnightblue" points="1597.22,-131.534 1606.69,-126.781 1596.32,-124.591 1597.22,-131.534"/>
</g>
<!-- Node4 -->
<g id="node4" class="node"><title>Node4</title>
<g id="a_node4"><a xlink:href="IProtocolMessage_8h.html" target="_top" xlink:title="IProtocolMessage.h">
<polygon fill="white" stroke="black" points="82,-112.5 82,-131.5 186,-131.5 186,-112.5 82,-112.5"/>
<text text-anchor="middle" x="134" y="-119.5" font-family="Helvetica,sans-Serif" font-size="10.00">IProtocolMessage.h</text>
</a>
</g>
</g>
<!-- Node2&#45;&gt;Node4 -->
<g id="edge3" class="edge"><title>Node2&#45;&gt;Node4</title>
<path fill="none" stroke="midnightblue" d="M134,-168.083C134,-161.006 134,-150.861 134,-141.986"/>
<polygon fill="midnightblue" stroke="midnightblue" points="137.5,-141.751 134,-131.751 130.5,-141.751 137.5,-141.751"/>
</g>
<!-- Node10 -->
<g id="node10" class="node"><title>Node10</title>
<g id="a_node10"><a xlink:href="Types_8h.html" target="_top" xlink:title="common/Types.h">
<polygon fill="white" stroke="black" points="920,-112.5 920,-131.5 1012,-131.5 1012,-112.5 920,-112.5"/>
<text text-anchor="middle" x="966" y="-119.5" font-family="Helvetica,sans-Serif" font-size="10.00">common/Types.h</text>
</a>
</g>
</g>
<!-- Node2&#45;&gt;Node10 -->
<g id="edge9" class="edge"><title>Node2&#45;&gt;Node10</title>
<path fill="none" stroke="midnightblue" d="M183.132,-169.577C187.813,-168.992 192.493,-168.453 197,-168 462.971,-141.267 782.411,-128.846 909.682,-124.685"/>
<polygon fill="midnightblue" stroke="midnightblue" points="910.073,-128.175 919.955,-124.354 909.847,-121.178 910.073,-128.175"/>
</g>
<!-- Node5 -->
<g id="node5" class="node"><title>Node5</title>
<polygon fill="white" stroke="#bfbfbf" points="205.5,-56.5 205.5,-75.5 254.5,-75.5 254.5,-56.5 205.5,-56.5"/>
<text text-anchor="middle" x="230" y="-63.5" font-family="Helvetica,sans-Serif" font-size="10.00">stdint.h</text>
</g>
<!-- Node4&#45;&gt;Node5 -->
<g id="edge4" class="edge"><title>Node4&#45;&gt;Node5</title>
<path fill="none" stroke="midnightblue" d="M149.424,-112.324C164.54,-103.822 187.815,-90.7288 205.471,-80.7975"/>
<polygon fill="midnightblue" stroke="midnightblue" points="207.614,-83.6077 214.614,-75.6545 204.183,-77.5066 207.614,-83.6077"/>
</g>
<!-- Node6 -->
<g id="node6" class="node"><title>Node6</title>
<polygon fill="white" stroke="#bfbfbf" points="8,-56.5 8,-75.5 60,-75.5 60,-56.5 8,-56.5"/>
<text text-anchor="middle" x="34" y="-63.5" font-family="Helvetica,sans-Serif" font-size="10.00">stddef.h</text>
</g>
<!-- Node4&#45;&gt;Node6 -->
<g id="edge5" class="edge"><title>Node4&#45;&gt;Node6</title>
<path fill="none" stroke="midnightblue" d="M117.933,-112.324C102.042,-103.743 77.4926,-90.486 59.0415,-80.5224"/>
<polygon fill="midnightblue" stroke="midnightblue" points="60.489,-77.3264 50.0269,-75.6545 57.1629,-83.4857 60.489,-77.3264"/>
</g>
<!-- Node7 -->
<g id="node7" class="node"><title>Node7</title>
<polygon fill="white" stroke="#bfbfbf" points="78,-56.5 78,-75.5 126,-75.5 126,-56.5 78,-56.5"/>
<text text-anchor="middle" x="102" y="-63.5" font-family="Helvetica,sans-Serif" font-size="10.00">limits.h</text>
</g>
<!-- Node4&#45;&gt;Node7 -->
<g id="edge6" class="edge"><title>Node4&#45;&gt;Node7</title>
<path fill="none" stroke="midnightblue" d="M128.716,-112.083C124.289,-104.613 117.837,-93.7244 112.382,-84.5199"/>
<polygon fill="midnightblue" stroke="midnightblue" points="115.295,-82.5697 107.186,-75.7511 109.273,-86.1383 115.295,-82.5697"/>
</g>
<!-- Node8 -->
<g id="node8" class="node"><title>Node8</title>
<polygon fill="white" stroke="#bfbfbf" points="1620.5,-56.5 1620.5,-75.5 1661.5,-75.5 1661.5,-56.5 1620.5,-56.5"/>
<text text-anchor="middle" x="1641" y="-63.5" font-family="Helvetica,sans-Serif" font-size="10.00">string</text>
</g>
<!-- Node4&#45;&gt;Node8 -->
<g id="edge7" class="edge"><title>Node4&#45;&gt;Node8</title>
<path fill="none" stroke="midnightblue" d="M186.312,-119.126C426.735,-110.51 1421.95,-74.849 1610.2,-68.1037"/>
<polygon fill="midnightblue" stroke="midnightblue" points="1610.37,-71.5999 1620.24,-67.7439 1610.12,-64.6044 1610.37,-71.5999"/>
</g>
<!-- Node9 -->
<g id="node9" class="node"><title>Node9</title>
<polygon fill="white" stroke="#bfbfbf" points="144.5,-56.5 144.5,-75.5 187.5,-75.5 187.5,-56.5 144.5,-56.5"/>
<text text-anchor="middle" x="166" y="-63.5" font-family="Helvetica,sans-Serif" font-size="10.00">deque</text>
</g>
<!-- Node4&#45;&gt;Node9 -->
<g id="edge8" class="edge"><title>Node4&#45;&gt;Node9</title>
<path fill="none" stroke="midnightblue" d="M139.284,-112.083C143.711,-104.613 150.163,-93.7244 155.618,-84.5199"/>
<polygon fill="midnightblue" stroke="midnightblue" points="158.727,-86.1383 160.814,-75.7511 152.705,-82.5697 158.727,-86.1383"/>
</g>
<!-- Node10&#45;&gt;Node8 -->
<g id="edge14" class="edge"><title>Node10&#45;&gt;Node8</title>
<path fill="none" stroke="midnightblue" d="M1012.07,-115.738C1024.08,-114.439 1037.02,-113.104 1049,-112 1263.55,-92.2188 1522.42,-74.739 1610.2,-68.9909"/>
<polygon fill="midnightblue" stroke="midnightblue" points="1610.52,-72.4773 1620.27,-68.3335 1610.06,-65.4922 1610.52,-72.4773"/>
</g>
<!-- Node11 -->
<g id="node11" class="node"><title>Node11</title>
<g id="a_node11"><a xlink:href="Log_8h.html" target="_top" xlink:title="Log.h">
<polygon fill="white" stroke="black" points="1037.5,-56.5 1037.5,-75.5 1078.5,-75.5 1078.5,-56.5 1037.5,-56.5"/>
<text text-anchor="middle" x="1058" y="-63.5" font-family="Helvetica,sans-Serif" font-size="10.00">Log.h</text>
</a>
</g>
</g>
<!-- Node10&#45;&gt;Node11 -->
<g id="edge10" class="edge"><title>Node10&#45;&gt;Node11</title>
<path fill="none" stroke="midnightblue" d="M980.781,-112.324C995.267,-103.822 1017.57,-90.7288 1034.49,-80.7975"/>
<polygon fill="midnightblue" stroke="midnightblue" points="1036.4,-83.735 1043.26,-75.6545 1032.86,-77.6981 1036.4,-83.735"/>
</g>
<!-- Node15 -->
<g id="node15" class="node"><title>Node15</title>
<polygon fill="white" stroke="#bfbfbf" points="808.5,-56.5 808.5,-75.5 891.5,-75.5 891.5,-56.5 808.5,-56.5"/>
<text text-anchor="middle" x="850" y="-63.5" font-family="Helvetica,sans-Serif" font-size="10.00">unordered_map</text>
</g>
<!-- Node10&#45;&gt;Node15 -->
<g id="edge15" class="edge"><title>Node10&#45;&gt;Node15</title>
<path fill="none" stroke="midnightblue" d="M947.619,-112.444C928.784,-103.675 899.269,-89.9355 877.621,-79.8579"/>
<polygon fill="midnightblue" stroke="midnightblue" points="878.838,-76.5637 868.295,-75.5164 875.883,-82.9098 878.838,-76.5637"/>
</g>
<!-- Node16 -->
<g id="node16" class="node"><title>Node16</title>
<polygon fill="white" stroke="#bfbfbf" points="909.5,-56.5 909.5,-75.5 958.5,-75.5 958.5,-56.5 909.5,-56.5"/>
<text text-anchor="middle" x="934" y="-63.5" font-family="Helvetica,sans-Serif" font-size="10.00">cassert</text>
</g>
<!-- Node10&#45;&gt;Node16 -->
<g id="edge16" class="edge"><title>Node10&#45;&gt;Node16</title>
<path fill="none" stroke="midnightblue" d="M960.716,-112.083C956.289,-104.613 949.837,-93.7244 944.382,-84.5199"/>
<polygon fill="midnightblue" stroke="midnightblue" points="947.295,-82.5697 939.186,-75.7511 941.273,-86.1383 947.295,-82.5697"/>
</g>
<!-- Node17 -->
<g id="node17" class="node"><title>Node17</title>
<polygon fill="white" stroke="#bfbfbf" points="976.5,-56.5 976.5,-75.5 1019.5,-75.5 1019.5,-56.5 976.5,-56.5"/>
<text text-anchor="middle" x="998" y="-63.5" font-family="Helvetica,sans-Serif" font-size="10.00">cstdio</text>
</g>
<!-- Node10&#45;&gt;Node17 -->
<g id="edge17" class="edge"><title>Node10&#45;&gt;Node17</title>
<path fill="none" stroke="midnightblue" d="M971.284,-112.083C975.711,-104.613 982.163,-93.7244 987.618,-84.5199"/>
<polygon fill="midnightblue" stroke="midnightblue" points="990.727,-86.1383 992.814,-75.7511 984.705,-82.5697 990.727,-86.1383"/>
</g>
<!-- Node12 -->
<g id="node12" class="node"><title>Node12</title>
<polygon fill="white" stroke="#bfbfbf" points="968,-0.5 968,-19.5 1014,-19.5 1014,-0.5 968,-0.5"/>
<text text-anchor="middle" x="991" y="-7.5" font-family="Helvetica,sans-Serif" font-size="10.00">stdio.h</text>
</g>
<!-- Node11&#45;&gt;Node12 -->
<g id="edge11" class="edge"><title>Node11&#45;&gt;Node12</title>
<path fill="none" stroke="midnightblue" d="M1047.24,-56.324C1037.23,-48.2631 1022.11,-36.0765 1010.07,-26.3695"/>
<polygon fill="midnightblue" stroke="midnightblue" points="1011.94,-23.3841 1001.96,-19.8339 1007.55,-28.8343 1011.94,-23.3841"/>
</g>
<!-- Node13 -->
<g id="node13" class="node"><title>Node13</title>
<polygon fill="white" stroke="#bfbfbf" points="1032,-0.5 1032,-19.5 1084,-19.5 1084,-0.5 1032,-0.5"/>
<text text-anchor="middle" x="1058" y="-7.5" font-family="Helvetica,sans-Serif" font-size="10.00">stdarg.h</text>
</g>
<!-- Node11&#45;&gt;Node13 -->
<g id="edge12" class="edge"><title>Node11&#45;&gt;Node13</title>
<path fill="none" stroke="midnightblue" d="M1058,-56.083C1058,-49.0059 1058,-38.8611 1058,-29.9865"/>
<polygon fill="midnightblue" stroke="midnightblue" points="1061.5,-29.751 1058,-19.7511 1054.5,-29.7511 1061.5,-29.751"/>
</g>
<!-- Node14 -->
<g id="node14" class="node"><title>Node14</title>
<polygon fill="white" stroke="#bfbfbf" points="1102.5,-0.5 1102.5,-19.5 1151.5,-19.5 1151.5,-0.5 1102.5,-0.5"/>
<text text-anchor="middle" x="1127" y="-7.5" font-family="Helvetica,sans-Serif" font-size="10.00">string.h</text>
</g>
<!-- Node11&#45;&gt;Node14 -->
<g id="edge13" class="edge"><title>Node11&#45;&gt;Node14</title>
<path fill="none" stroke="midnightblue" d="M1069.09,-56.324C1079.49,-48.1849 1095.26,-35.8395 1107.72,-26.0874"/>
<polygon fill="midnightblue" stroke="midnightblue" points="1109.99,-28.7533 1115.71,-19.8339 1105.68,-23.2407 1109.99,-28.7533"/>
</g>
<!-- Node18&#45;&gt;Node4 -->
<g id="edge19" class="edge"><title>Node18&#45;&gt;Node4</title>
<path fill="none" stroke="midnightblue" d="M57,-504.442C57,-485.936 57,-440.812 57,-403 57,-403 57,-403 57,-233 57,-202.902 59.0635,-192.88 76,-168 84.5724,-155.407 97.7843,-144.763 109.434,-136.994"/>
<polygon fill="midnightblue" stroke="midnightblue" points="111.347,-139.925 117.936,-131.628 107.611,-134.005 111.347,-139.925"/>
</g>
<!-- Node19 -->
<g id="node19" class="node"><title>Node19</title>
<g id="a_node19"><a xlink:href="AIStubTypes_8h.html" target="_top" xlink:title="AIStubTypes.h">
<polygon fill="white" stroke="black" points="796,-448.5 796,-467.5 878,-467.5 878,-448.5 796,-448.5"/>
<text text-anchor="middle" x="837" y="-455.5" font-family="Helvetica,sans-Serif" font-size="10.00">AIStubTypes.h</text>
</a>
</g>
</g>
<!-- Node18&#45;&gt;Node19 -->
<g id="edge20" class="edge"><title>Node18&#45;&gt;Node19</title>
<path fill="none" stroke="midnightblue" d="M114.672,-509.007C261.318,-498.855 646.664,-472.177 785.891,-462.538"/>
<polygon fill="midnightblue" stroke="midnightblue" points="786.139,-466.03 795.873,-461.847 785.656,-459.046 786.139,-466.03"/>
</g>
<!-- Node19&#45;&gt;Node8 -->
<g id="edge22" class="edge"><title>Node19&#45;&gt;Node8</title>
<path fill="none" stroke="midnightblue" d="M878.214,-456.78C1064.4,-455.253 1818,-443.133 1818,-347 1818,-347 1818,-347 1818,-177 1818,-108.939 1722.42,-81.5068 1671.73,-71.7446"/>
<polygon fill="midnightblue" stroke="midnightblue" points="1672.11,-68.2564 1661.65,-69.9213 1670.87,-75.1447 1672.11,-68.2564"/>
</g>
<!-- Node19&#45;&gt;Node10 -->
<g id="edge32" class="edge"><title>Node19&#45;&gt;Node10</title>
<path fill="none" stroke="midnightblue" d="M795.926,-454.147C656.658,-443.931 211,-406.587 211,-347 211,-347 211,-347 211,-233 211,-171.169 274.554,-185.005 334,-168 441.325,-137.299 775.725,-126.993 909.679,-124.041"/>
<polygon fill="midnightblue" stroke="midnightblue" points="909.81,-127.539 919.732,-123.825 909.659,-120.541 909.81,-127.539"/>
</g>
<!-- Node20 -->
<g id="node20" class="node"><title>Node20</title>
<polygon fill="white" stroke="#bfbfbf" points="1058,-112.5 1058,-131.5 1102,-131.5 1102,-112.5 1058,-112.5"/>
<text text-anchor="middle" x="1080" y="-119.5" font-family="Helvetica,sans-Serif" font-size="10.00">vector</text>
</g>
<!-- Node19&#45;&gt;Node20 -->
<g id="edge21" class="edge"><title>Node19&#45;&gt;Node20</title>
<path fill="none" stroke="midnightblue" d="M878.281,-448.749C927.734,-436.181 1004,-407.061 1004,-347 1004,-347 1004,-347 1004,-233 1004,-193.276 1037.96,-157.504 1060.48,-138.154"/>
<polygon fill="midnightblue" stroke="midnightblue" points="1062.98,-140.634 1068.46,-131.567 1058.52,-135.236 1062.98,-140.634"/>
</g>
<!-- Node21 -->
<g id="node21" class="node"><title>Node21</title>
<g id="a_node21"><a xlink:href="Math_8h.html" target="_top" xlink:title="common/Math.h">
<polygon fill="white" stroke="black" points="626.5,-392.5 626.5,-411.5 713.5,-411.5 713.5,-392.5 626.5,-392.5"/>
<text text-anchor="middle" x="670" y="-399.5" font-family="Helvetica,sans-Serif" font-size="10.00">common/Math.h</text>
</a>
</g>
</g>
<!-- Node19&#45;&gt;Node21 -->
<g id="edge23" class="edge"><title>Node19&#45;&gt;Node21</title>
<path fill="none" stroke="midnightblue" d="M810.538,-448.444C782.322,-439.32 737.46,-424.813 706.032,-414.651"/>
<polygon fill="midnightblue" stroke="midnightblue" points="706.93,-411.263 696.338,-411.516 704.776,-417.923 706.93,-411.263"/>
</g>
<!-- Node29 -->
<g id="node29" class="node"><title>Node29</title>
<g id="a_node29"><a xlink:href="TreeNode_8h.html" target="_top" xlink:title="tree/TreeNode.h">
<polygon fill="white" stroke="black" points="1331.5,-392.5 1331.5,-411.5 1418.5,-411.5 1418.5,-392.5 1331.5,-392.5"/>
<text text-anchor="middle" x="1375" y="-399.5" font-family="Helvetica,sans-Serif" font-size="10.00">tree/TreeNode.h</text>
</a>
</g>
</g>
<!-- Node19&#45;&gt;Node29 -->
<g id="edge33" class="edge"><title>Node19&#45;&gt;Node29</title>
<path fill="none" stroke="midnightblue" d="M878.323,-452.852C974.622,-443.187 1213.91,-419.169 1321.32,-408.388"/>
<polygon fill="midnightblue" stroke="midnightblue" points="1321.69,-411.868 1331.29,-407.387 1320.99,-404.903 1321.69,-411.868"/>
</g>
<!-- Node21&#45;&gt;Node10 -->
<g id="edge24" class="edge"><title>Node21&#45;&gt;Node10</title>
<path fill="none" stroke="midnightblue" d="M626.415,-398.825C528.007,-393.534 295.048,-378.734 268,-356 244.959,-336.635 249,-321.098 249,-291 249,-291 249,-291 249,-233 249,-166.274 740.423,-134.638 909.589,-125.724"/>
<polygon fill="midnightblue" stroke="midnightblue" points="909.979,-129.209 919.783,-125.194 909.615,-122.218 909.979,-129.209"/>
</g>
<!-- Node22 -->
<g id="node22" class="node"><title>Node22</title>
<polygon fill="white" stroke="#bfbfbf" points="774,-336.5 774,-355.5 844,-355.5 844,-336.5 774,-336.5"/>
<text text-anchor="middle" x="809" y="-343.5" font-family="Helvetica,sans-Serif" font-size="10.00">glm/glm.hpp</text>
</g>
<!-- Node21&#45;&gt;Node22 -->
<g id="edge25" class="edge"><title>Node21&#45;&gt;Node22</title>
<path fill="none" stroke="midnightblue" d="M692.025,-392.444C715.104,-383.478 751.562,-369.314 777.641,-359.183"/>
<polygon fill="midnightblue" stroke="midnightblue" points="779.024,-362.4 787.078,-355.516 776.489,-355.875 779.024,-362.4"/>
</g>
<!-- Node23 -->
<g id="node23" class="node"><title>Node23</title>
<polygon fill="white" stroke="#bfbfbf" points="862.5,-336.5 862.5,-355.5 975.5,-355.5 975.5,-336.5 862.5,-336.5"/>
<text text-anchor="middle" x="919" y="-343.5" font-family="Helvetica,sans-Serif" font-size="10.00">glm/gtc/constants.hpp</text>
</g>
<!-- Node21&#45;&gt;Node23 -->
<g id="edge26" class="edge"><title>Node21&#45;&gt;Node23</title>
<path fill="none" stroke="midnightblue" d="M709.455,-392.444C752.892,-383.023 822.786,-367.866 869.776,-357.675"/>
<polygon fill="midnightblue" stroke="midnightblue" points="870.699,-361.056 879.73,-355.516 869.215,-354.215 870.699,-361.056"/>
</g>
<!-- Node24 -->
<g id="node24" class="node"><title>Node24</title>
<polygon fill="white" stroke="#bfbfbf" points="277.5,-336.5 277.5,-355.5 378.5,-355.5 378.5,-336.5 277.5,-336.5"/>
<text text-anchor="middle" x="328" y="-343.5" font-family="Helvetica,sans-Serif" font-size="10.00">glm/gtc/epsilon.hpp</text>
</g>
<!-- Node21&#45;&gt;Node24 -->
<g id="edge27" class="edge"><title>Node21&#45;&gt;Node24</title>
<path fill="none" stroke="midnightblue" d="M626.338,-394.106C566.046,-384.586 457.031,-367.373 388.798,-356.6"/>
<polygon fill="midnightblue" stroke="midnightblue" points="389.048,-353.096 378.624,-354.993 387.956,-360.01 389.048,-353.096"/>
</g>
<!-- Node25 -->
<g id="node25" class="node"><title>Node25</title>
<polygon fill="white" stroke="#bfbfbf" points="396.5,-336.5 396.5,-355.5 521.5,-355.5 521.5,-336.5 396.5,-336.5"/>
<text text-anchor="middle" x="459" y="-343.5" font-family="Helvetica,sans-Serif" font-size="10.00">glm/gtx/compatibility.hpp</text>
</g>
<!-- Node21&#45;&gt;Node25 -->
<g id="edge28" class="edge"><title>Node21&#45;&gt;Node25</title>
<path fill="none" stroke="midnightblue" d="M636.566,-392.444C600.144,-383.122 541.77,-368.183 501.971,-357.997"/>
<polygon fill="midnightblue" stroke="midnightblue" points="502.833,-354.605 492.277,-355.516 501.097,-361.387 502.833,-354.605"/>
</g>
<!-- Node26 -->
<g id="node26" class="node"><title>Node26</title>
<polygon fill="white" stroke="#bfbfbf" points="540,-336.5 540,-355.5 632,-355.5 632,-336.5 540,-336.5"/>
<text text-anchor="middle" x="586" y="-343.5" font-family="Helvetica,sans-Serif" font-size="10.00">glm/gtx/norm.hpp</text>
</g>
<!-- Node21&#45;&gt;Node26 -->
<g id="edge29" class="edge"><title>Node21&#45;&gt;Node26</title>
<path fill="none" stroke="midnightblue" d="M656.504,-392.324C643.4,-383.9 623.288,-370.971 607.893,-361.074"/>
<polygon fill="midnightblue" stroke="midnightblue" points="609.767,-358.118 599.463,-355.655 605.982,-364.006 609.767,-358.118"/>
</g>
<!-- Node27 -->
<g id="node27" class="node"><title>Node27</title>
<polygon fill="white" stroke="#bfbfbf" points="650,-336.5 650,-355.5 690,-355.5 690,-336.5 650,-336.5"/>
<text text-anchor="middle" x="670" y="-343.5" font-family="Helvetica,sans-Serif" font-size="10.00">limits</text>
</g>
<!-- Node21&#45;&gt;Node27 -->
<g id="edge30" class="edge"><title>Node21&#45;&gt;Node27</title>
<path fill="none" stroke="midnightblue" d="M670,-392.083C670,-385.006 670,-374.861 670,-365.986"/>
<polygon fill="midnightblue" stroke="midnightblue" points="673.5,-365.751 670,-355.751 666.5,-365.751 673.5,-365.751"/>
</g>
<!-- Node28 -->
<g id="node28" class="node"><title>Node28</title>
<polygon fill="white" stroke="#bfbfbf" points="708.5,-336.5 708.5,-355.5 755.5,-355.5 755.5,-336.5 708.5,-336.5"/>
<text text-anchor="middle" x="732" y="-343.5" font-family="Helvetica,sans-Serif" font-size="10.00">math.h</text>
</g>
<!-- Node21&#45;&gt;Node28 -->
<g id="edge31" class="edge"><title>Node21&#45;&gt;Node28</title>
<path fill="none" stroke="midnightblue" d="M679.961,-392.324C689.127,-384.341 702.937,-372.313 714.028,-362.653"/>
<polygon fill="midnightblue" stroke="midnightblue" points="716.615,-365.041 721.857,-355.834 712.018,-359.762 716.615,-365.041"/>
</g>
<!-- Node29&#45;&gt;Node3 -->
<g id="edge64" class="edge"><title>Node29&#45;&gt;Node3</title>
<path fill="none" stroke="midnightblue" d="M1418.54,-397.206C1515.76,-387.536 1742,-357.848 1742,-291 1742,-291 1742,-291 1742,-233 1742,-187.119 1693.56,-153.527 1661.27,-136.228"/>
<polygon fill="midnightblue" stroke="midnightblue" points="1662.73,-133.045 1652.24,-131.585 1659.53,-139.27 1662.73,-133.045"/>
</g>
<!-- Node29&#45;&gt;Node8 -->
<g id="edge63" class="edge"><title>Node29&#45;&gt;Node8</title>
<path fill="none" stroke="midnightblue" d="M1418.73,-398.4C1523.45,-390.979 1780,-365.226 1780,-291 1780,-291 1780,-291 1780,-177 1780,-121.846 1711.87,-90.0035 1671.01,-75.8648"/>
<polygon fill="midnightblue" stroke="midnightblue" points="1672.1,-72.5405 1661.51,-72.7254 1669.91,-79.1869 1672.1,-72.5405"/>
</g>
<!-- Node29&#45;&gt;Node10 -->
<g id="edge34" class="edge"><title>Node29&#45;&gt;Node10</title>
<path fill="none" stroke="midnightblue" d="M1349.11,-392.428C1326.1,-384.368 1291.91,-371.278 1264,-356 1145.48,-291.115 1024.99,-180.03 982.244,-138.913"/>
<polygon fill="midnightblue" stroke="midnightblue" points="984.588,-136.31 974.97,-131.866 979.717,-141.338 984.588,-136.31"/>
</g>
<!-- Node29&#45;&gt;Node20 -->
<g id="edge62" class="edge"><title>Node29&#45;&gt;Node20</title>
<path fill="none" stroke="midnightblue" d="M1358.94,-392.394C1319.56,-370.823 1216.14,-311.326 1144,-244 1120.86,-222.404 1114.68,-216.043 1100,-188 1092.3,-173.29 1087.02,-155.127 1083.83,-141.744"/>
<polygon fill="midnightblue" stroke="midnightblue" points="1087.21,-140.815 1081.64,-131.806 1080.38,-142.326 1087.21,-140.815"/>
</g>
<!-- Node30 -->
<g id="node30" class="node"><title>Node30</title>
<g id="a_node30"><a xlink:href="MemoryAllocator_8h.html" target="_top" xlink:title="common/MemoryAllocator.h">
<polygon fill="white" stroke="black" points="1536.5,-224.5 1536.5,-243.5 1675.5,-243.5 1675.5,-224.5 1536.5,-224.5"/>
<text text-anchor="middle" x="1606" y="-231.5" font-family="Helvetica,sans-Serif" font-size="10.00">common/MemoryAllocator.h</text>
</a>
</g>
</g>
<!-- Node29&#45;&gt;Node30 -->
<g id="edge35" class="edge"><title>Node29&#45;&gt;Node30</title>
<path fill="none" stroke="midnightblue" d="M1418.61,-395.409C1449.8,-389.665 1491.5,-378.265 1522,-356 1559.38,-328.715 1585.89,-279.536 1598.22,-253.055"/>
<polygon fill="midnightblue" stroke="midnightblue" points="1601.46,-254.37 1602.37,-243.813 1595.08,-251.501 1601.46,-254.37"/>
</g>
<!-- Node31 -->
<g id="node31" class="node"><title>Node31</title>
<g id="a_node31"><a xlink:href="ICondition_8h.html" target="_top" xlink:title="Condition related stuff. ">
<polygon fill="white" stroke="black" points="1383,-280.5 1383,-299.5 1499,-299.5 1499,-280.5 1383,-280.5"/>
<text text-anchor="middle" x="1441" y="-287.5" font-family="Helvetica,sans-Serif" font-size="10.00">conditions/ICondition.h</text>
</a>
</g>
</g>
<!-- Node29&#45;&gt;Node31 -->
<g id="edge37" class="edge"><title>Node29&#45;&gt;Node31</title>
<path fill="none" stroke="midnightblue" d="M1363.77,-392.386C1348.69,-379.747 1325.2,-355.558 1338,-336 1348.5,-319.949 1366.13,-309.59 1383.85,-302.918"/>
<polygon fill="midnightblue" stroke="midnightblue" points="1385.33,-306.113 1393.67,-299.578 1383.07,-299.487 1385.33,-306.113"/>
</g>
<!-- Node43 -->
<g id="node43" class="node"><title>Node43</title>
<g id="a_node43"><a xlink:href="True_8h.html" target="_top" xlink:title="conditions/True.h">
<polygon fill="white" stroke="black" points="1421,-336.5 1421,-355.5 1513,-355.5 1513,-336.5 1421,-336.5"/>
<text text-anchor="middle" x="1467" y="-343.5" font-family="Helvetica,sans-Serif" font-size="10.00">conditions/True.h</text>
</a>
</g>
</g>
<!-- Node29&#45;&gt;Node43 -->
<g id="edge60" class="edge"><title>Node29&#45;&gt;Node43</title>
<path fill="none" stroke="midnightblue" d="M1389.78,-392.324C1404.27,-383.822 1426.57,-370.729 1443.49,-360.797"/>
<polygon fill="midnightblue" stroke="midnightblue" points="1445.4,-363.735 1452.26,-355.655 1441.86,-357.698 1445.4,-363.735"/>
</g>
<!-- Node44 -->
<g id="node44" class="node"><title>Node44</title>
<polygon fill="white" stroke="#bfbfbf" points="1347,-336.5 1347,-355.5 1403,-355.5 1403,-336.5 1347,-336.5"/>
<text text-anchor="middle" x="1375" y="-343.5" font-family="Helvetica,sans-Serif" font-size="10.00">algorithm</text>
</g>
<!-- Node29&#45;&gt;Node44 -->
<g id="edge65" class="edge"><title>Node29&#45;&gt;Node44</title>
<path fill="none" stroke="midnightblue" d="M1375,-392.083C1375,-385.006 1375,-374.861 1375,-365.986"/>
<polygon fill="midnightblue" stroke="midnightblue" points="1378.5,-365.751 1375,-355.751 1371.5,-365.751 1378.5,-365.751"/>
</g>
<!-- Node30&#45;&gt;Node3 -->
<g id="edge36" class="edge"><title>Node30&#45;&gt;Node3</title>
<path fill="none" stroke="midnightblue" d="M1616.16,-224.185C1624.91,-215.87 1636.9,-202.539 1642,-188 1647.3,-172.883 1644.06,-154.76 1640.07,-141.495"/>
<polygon fill="midnightblue" stroke="midnightblue" points="1643.25,-139.996 1636.7,-131.669 1636.63,-142.263 1643.25,-139.996"/>
</g>
<!-- Node31&#45;&gt;Node3 -->
<g id="edge41" class="edge"><title>Node31&#45;&gt;Node3</title>
<path fill="none" stroke="midnightblue" d="M1450.79,-280.401C1466.23,-267.135 1497.5,-241.394 1527,-224 1560.94,-203.992 1580.86,-216.559 1608,-188 1620.09,-175.275 1626.51,-156.076 1629.8,-141.84"/>
<polygon fill="midnightblue" stroke="midnightblue" points="1633.3,-142.196 1631.82,-131.706 1626.43,-140.83 1633.3,-142.196"/>
</g>
<!-- Node31&#45;&gt;Node8 -->
<g id="edge38" class="edge"><title>Node31&#45;&gt;Node8</title>
<path fill="none" stroke="midnightblue" d="M1499.23,-286.526C1563.5,-282.429 1660.95,-271.707 1684,-244 1723.56,-196.444 1677.56,-118.222 1653.65,-83.9632"/>
<polygon fill="midnightblue" stroke="midnightblue" points="1656.27,-81.6029 1647.59,-75.5283 1650.58,-85.6902 1656.27,-81.6029"/>
</g>
<!-- Node31&#45;&gt;Node20 -->
<g id="edge39" class="edge"><title>Node31&#45;&gt;Node20</title>
<path fill="none" stroke="midnightblue" d="M1382.82,-284.225C1314.91,-277.795 1207.48,-264.711 1173,-244 1131.51,-219.079 1101.88,-168.117 1088.31,-140.965"/>
<polygon fill="midnightblue" stroke="midnightblue" points="1091.4,-139.315 1083.9,-131.828 1085.09,-142.356 1091.4,-139.315"/>
</g>
<!-- Node31&#45;&gt;Node30 -->
<g id="edge42" class="edge"><title>Node31&#45;&gt;Node30</title>
<path fill="none" stroke="midnightblue" d="M1467.14,-280.444C1495.02,-271.32 1539.35,-256.813 1570.4,-246.651"/>
<polygon fill="midnightblue" stroke="midnightblue" points="1571.56,-249.953 1579.98,-243.516 1569.38,-243.3 1571.56,-249.953"/>
</g>
<!-- Node32 -->
<g id="node32" class="node"><title>Node32</title>
<polygon fill="white" stroke="#bfbfbf" points="1333,-224.5 1333,-243.5 1385,-243.5 1385,-224.5 1333,-224.5"/>
<text text-anchor="middle" x="1359" y="-231.5" font-family="Helvetica,sans-Serif" font-size="10.00">sstream</text>
</g>
<!-- Node31&#45;&gt;Node32 -->
<g id="edge40" class="edge"><title>Node31&#45;&gt;Node32</title>
<path fill="none" stroke="midnightblue" d="M1427.83,-280.324C1415.15,-271.979 1395.77,-259.212 1380.79,-249.352"/>
<polygon fill="midnightblue" stroke="midnightblue" points="1382.42,-246.231 1372.14,-243.655 1378.57,-252.078 1382.42,-246.231"/>
</g>
<!-- Node33 -->
<g id="node33" class="node"><title>Node33</title>
<g id="a_node33"><a xlink:href="Thread_8h.html" target="_top" xlink:title="common/Thread.h">
<polygon fill="white" stroke="black" points="1182.5,-224.5 1182.5,-243.5 1277.5,-243.5 1277.5,-224.5 1182.5,-224.5"/>
<text text-anchor="middle" x="1230" y="-231.5" font-family="Helvetica,sans-Serif" font-size="10.00">common/Thread.h</text>
</a>
</g>
</g>
<!-- Node31&#45;&gt;Node33 -->
<g id="edge43" class="edge"><title>Node31&#45;&gt;Node33</title>
<path fill="none" stroke="midnightblue" d="M1407.57,-280.444C1371.14,-271.122 1312.77,-256.183 1272.97,-245.997"/>
<polygon fill="midnightblue" stroke="midnightblue" points="1273.83,-242.605 1263.28,-243.516 1272.1,-249.387 1273.83,-242.605"/>
</g>
<!-- Node37 -->
<g id="node37" class="node"><title>Node37</title>
<g id="a_node37"><a xlink:href="AIFactories_8h.html" target="_top" xlink:title="AIFactories.h">
<polygon fill="white" stroke="black" points="1403.5,-224.5 1403.5,-243.5 1478.5,-243.5 1478.5,-224.5 1403.5,-224.5"/>
<text text-anchor="middle" x="1441" y="-231.5" font-family="Helvetica,sans-Serif" font-size="10.00">AIFactories.h</text>
</a>
</g>
</g>
<!-- Node31&#45;&gt;Node37 -->
<g id="edge48" class="edge"><title>Node31&#45;&gt;Node37</title>
<path fill="none" stroke="midnightblue" d="M1441,-280.083C1441,-273.006 1441,-262.861 1441,-253.986"/>
<polygon fill="midnightblue" stroke="midnightblue" points="1444.5,-253.751 1441,-243.751 1437.5,-253.751 1444.5,-253.751"/>
</g>
<!-- Node33&#45;&gt;Node10 -->
<g id="edge44" class="edge"><title>Node33&#45;&gt;Node10</title>
<path fill="none" stroke="midnightblue" d="M1209.28,-224.368C1162.83,-205.01 1050.15,-158.065 996.018,-135.507"/>
<polygon fill="midnightblue" stroke="midnightblue" points="997.196,-132.207 986.619,-131.591 994.504,-138.668 997.196,-132.207"/>
</g>
<!-- Node34 -->
<g id="node34" class="node"><title>Node34</title>
<polygon fill="white" stroke="#bfbfbf" points="1146,-168.5 1146,-187.5 1190,-187.5 1190,-168.5 1146,-168.5"/>
<text text-anchor="middle" x="1168" y="-175.5" font-family="Helvetica,sans-Serif" font-size="10.00">thread</text>
</g>
<!-- Node33&#45;&gt;Node34 -->
<g id="edge45" class="edge"><title>Node33&#45;&gt;Node34</title>
<path fill="none" stroke="midnightblue" d="M1220.04,-224.324C1210.87,-216.341 1197.06,-204.313 1185.97,-194.653"/>
<polygon fill="midnightblue" stroke="midnightblue" points="1187.98,-191.762 1178.14,-187.834 1183.38,-197.041 1187.98,-191.762"/>
</g>
<!-- Node35 -->
<g id="node35" class="node"><title>Node35</title>
<polygon fill="white" stroke="#bfbfbf" points="1208,-168.5 1208,-187.5 1252,-187.5 1252,-168.5 1208,-168.5"/>
<text text-anchor="middle" x="1230" y="-175.5" font-family="Helvetica,sans-Serif" font-size="10.00">mutex</text>
</g>
<!-- Node33&#45;&gt;Node35 -->
<g id="edge46" class="edge"><title>Node33&#45;&gt;Node35</title>
<path fill="none" stroke="midnightblue" d="M1230,-224.083C1230,-217.006 1230,-206.861 1230,-197.986"/>
<polygon fill="midnightblue" stroke="midnightblue" points="1233.5,-197.751 1230,-187.751 1226.5,-197.751 1233.5,-197.751"/>
</g>
<!-- Node36 -->
<g id="node36" class="node"><title>Node36</title>
<polygon fill="white" stroke="#bfbfbf" points="1270,-168.5 1270,-187.5 1316,-187.5 1316,-168.5 1270,-168.5"/>
<text text-anchor="middle" x="1293" y="-175.5" font-family="Helvetica,sans-Serif" font-size="10.00">atomic</text>
</g>
<!-- Node33&#45;&gt;Node36 -->
<g id="edge47" class="edge"><title>Node33&#45;&gt;Node36</title>
<path fill="none" stroke="midnightblue" d="M1240.12,-224.324C1249.53,-216.263 1263.74,-204.077 1275.07,-194.369"/>
<polygon fill="midnightblue" stroke="midnightblue" points="1277.38,-196.999 1282.69,-187.834 1272.82,-191.684 1277.38,-196.999"/>
</g>
<!-- Node37&#45;&gt;Node20 -->
<g id="edge59" class="edge"><title>Node37&#45;&gt;Node20</title>
<path fill="none" stroke="midnightblue" d="M1426.18,-224.338C1397.35,-207.534 1335.59,-171.819 1325,-168 1251.63,-141.533 1160.03,-130.023 1112.31,-125.532"/>
<polygon fill="midnightblue" stroke="midnightblue" points="1112.54,-122.039 1102.26,-124.63 1111.91,-129.011 1112.54,-122.039"/>
</g>
<!-- Node38 -->
<g id="node38" class="node"><title>Node38</title>
<g id="a_node38"><a xlink:href="IAIFactory_8h.html" target="_top" xlink:title="IAIFactory.h">
<polygon fill="white" stroke="black" points="1528.5,-168.5 1528.5,-187.5 1599.5,-187.5 1599.5,-168.5 1528.5,-168.5"/>
<text text-anchor="middle" x="1564" y="-175.5" font-family="Helvetica,sans-Serif" font-size="10.00">IAIFactory.h</text>
</a>
</g>
</g>
<!-- Node37&#45;&gt;Node38 -->
<g id="edge49" class="edge"><title>Node37&#45;&gt;Node38</title>
<path fill="none" stroke="midnightblue" d="M1460.49,-224.444C1480.64,-215.596 1512.32,-201.687 1535.33,-191.586"/>
<polygon fill="midnightblue" stroke="midnightblue" points="1536.85,-194.741 1544.6,-187.516 1534.04,-188.332 1536.85,-194.741"/>
</g>
<!-- Node40 -->
<g id="node40" class="node"><title>Node40</title>
<g id="a_node40"><a xlink:href="IFactoryRegistry_8h.html" target="_top" xlink:title="common/IFactoryRegistry.h">
<polygon fill="white" stroke="black" points="1372,-168.5 1372,-187.5 1510,-187.5 1510,-168.5 1372,-168.5"/>
<text text-anchor="middle" x="1441" y="-175.5" font-family="Helvetica,sans-Serif" font-size="10.00">common/IFactoryRegistry.h</text>
</a>
</g>
</g>
<!-- Node37&#45;&gt;Node40 -->
<g id="edge54" class="edge"><title>Node37&#45;&gt;Node40</title>
<path fill="none" stroke="midnightblue" d="M1441,-224.083C1441,-217.006 1441,-206.861 1441,-197.986"/>
<polygon fill="midnightblue" stroke="midnightblue" points="1444.5,-197.751 1441,-187.751 1437.5,-197.751 1444.5,-197.751"/>
</g>
<!-- Node38&#45;&gt;Node3 -->
<g id="edge50" class="edge"><title>Node38&#45;&gt;Node3</title>
<path fill="none" stroke="midnightblue" d="M1575.09,-168.324C1585.49,-160.185 1601.26,-147.839 1613.72,-138.087"/>
<polygon fill="midnightblue" stroke="midnightblue" points="1615.99,-140.753 1621.71,-131.834 1611.68,-135.241 1615.99,-140.753"/>
</g>
<!-- Node38&#45;&gt;Node8 -->
<g id="edge51" class="edge"><title>Node38&#45;&gt;Node8</title>
<path fill="none" stroke="midnightblue" d="M1567.68,-168.14C1573.26,-155.194 1584.64,-130.626 1598,-112 1605.54,-101.487 1615.44,-90.9644 1623.83,-82.7406"/>
<polygon fill="midnightblue" stroke="midnightblue" points="1626.46,-85.0654 1631.3,-75.6358 1621.64,-79.9949 1626.46,-85.0654"/>
</g>
<!-- Node38&#45;&gt;Node20 -->
<g id="edge52" class="edge"><title>Node38&#45;&gt;Node20</title>
<path fill="none" stroke="midnightblue" d="M1528.19,-169.519C1525.09,-168.968 1521.99,-168.452 1519,-168 1367.68,-145.165 1185.23,-130.568 1112.36,-125.256"/>
<polygon fill="midnightblue" stroke="midnightblue" points="1112.24,-121.739 1102.02,-124.511 1111.74,-128.721 1112.24,-121.739"/>
</g>
<!-- Node39 -->
<g id="node39" class="node"><title>Node39</title>
<polygon fill="white" stroke="#bfbfbf" points="1521.5,-112.5 1521.5,-131.5 1550.5,-131.5 1550.5,-112.5 1521.5,-112.5"/>
<text text-anchor="middle" x="1536" y="-119.5" font-family="Helvetica,sans-Serif" font-size="10.00">list</text>
</g>
<!-- Node38&#45;&gt;Node39 -->
<g id="edge53" class="edge"><title>Node38&#45;&gt;Node39</title>
<path fill="none" stroke="midnightblue" d="M1559.38,-168.083C1555.54,-160.691 1549.98,-149.953 1545.24,-140.811"/>
<polygon fill="midnightblue" stroke="midnightblue" points="1548.25,-139.018 1540.54,-131.751 1542.03,-142.24 1548.25,-139.018"/>
</g>
<!-- Node40&#45;&gt;Node3 -->
<g id="edge57" class="edge"><title>Node40&#45;&gt;Node3</title>
<path fill="none" stroke="midnightblue" d="M1471.42,-168.444C1505.54,-158.848 1560.83,-143.298 1597.05,-133.11"/>
<polygon fill="midnightblue" stroke="midnightblue" points="1598.05,-136.465 1606.73,-130.388 1596.16,-129.727 1598.05,-136.465"/>
</g>
<!-- Node40&#45;&gt;Node10 -->
<g id="edge55" class="edge"><title>Node40&#45;&gt;Node10</title>
<path fill="none" stroke="midnightblue" d="M1371.93,-169.148C1277.38,-158.399 1109.47,-139.31 1022.19,-129.388"/>
<polygon fill="midnightblue" stroke="midnightblue" points="1022.54,-125.905 1012.21,-128.253 1021.75,-132.861 1022.54,-125.905"/>
</g>
<!-- Node41 -->
<g id="node41" class="node"><title>Node41</title>
<g id="a_node41"><a xlink:href="NonCopyable_8h.html" target="_top" xlink:title="common/NonCopyable.h">
<polygon fill="white" stroke="black" points="1378.5,-112.5 1378.5,-131.5 1503.5,-131.5 1503.5,-112.5 1378.5,-112.5"/>
<text text-anchor="middle" x="1441" y="-119.5" font-family="Helvetica,sans-Serif" font-size="10.00">common/NonCopyable.h</text>
</a>
</g>
</g>
<!-- Node40&#45;&gt;Node41 -->
<g id="edge56" class="edge"><title>Node40&#45;&gt;Node41</title>
<path fill="none" stroke="midnightblue" d="M1441,-168.083C1441,-161.006 1441,-150.861 1441,-141.986"/>
<polygon fill="midnightblue" stroke="midnightblue" points="1444.5,-141.751 1441,-131.751 1437.5,-141.751 1444.5,-141.751"/>
</g>
<!-- Node42 -->
<g id="node42" class="node"><title>Node42</title>
<polygon fill="white" stroke="#bfbfbf" points="1325.5,-112.5 1325.5,-131.5 1360.5,-131.5 1360.5,-112.5 1325.5,-112.5"/>
<text text-anchor="middle" x="1343" y="-119.5" font-family="Helvetica,sans-Serif" font-size="10.00">map</text>
</g>
<!-- Node40&#45;&gt;Node42 -->
<g id="edge58" class="edge"><title>Node40&#45;&gt;Node42</title>
<path fill="none" stroke="midnightblue" d="M1425.25,-168.324C1409.68,-159.743 1385.62,-146.486 1367.54,-136.522"/>
<polygon fill="midnightblue" stroke="midnightblue" points="1369.15,-133.415 1358.71,-131.655 1365.78,-139.546 1369.15,-133.415"/>
</g>
<!-- Node43&#45;&gt;Node31 -->
<g id="edge61" class="edge"><title>Node43&#45;&gt;Node31</title>
<path fill="none" stroke="midnightblue" d="M1462.71,-336.083C1459.15,-328.691 1453.98,-317.953 1449.58,-308.811"/>
<polygon fill="midnightblue" stroke="midnightblue" points="1452.71,-307.243 1445.21,-299.751 1446.4,-310.279 1452.71,-307.243"/>
</g>
</g>
</svg>
        <g id="navigator" transform="translate(0 0)" fill="#404254">
                <rect fill="#f2f5e9" fill-opacity="0.5" stroke="#606060" stroke-width=".5" x="0" y="0" width="60" height="60"/>
                <use id="zoomplus" xlink:href="#zoomPlus" x="17" y="9" onmousedown="handleZoom(evt,'in')"/>
                <use id="zoomminus" xlink:href="#zoomMin" x="42" y="9" onmousedown="handleZoom(evt,'out')"/>
                <use id="reset" xlink:href="#resetDef" x="30" y="36" onmousedown="handleReset()"/>
                <g id="arrowUp" xlink:href="#dirArrow" transform="translate(30 24)" onmousedown="handlePan(0,-1)">
                  <use xlink:href="#rim" fill="#404040">
                        <set attributeName="fill" to="#808080" begin="arrowUp.mouseover" end="arrowUp.mouseout"/>
                  </use>
                  <path fill="none" stroke="white" stroke-width="1.5" d="M0,-3.0v7 M-2.5,-0.5L0,-3.0L2.5,-0.5"/>
                </g>
                <g id="arrowRight" xlink:href="#dirArrow" transform="rotate(90) translate(36 -43)" onmousedown="handlePan(1,0)">
                  <use xlink:href="#rim" fill="#404040">
                        <set attributeName="fill" to="#808080" begin="arrowRight.mouseover" end="arrowRight.mouseout"/>
                  </use>
                  <path fill="none" stroke="white" stroke-width="1.5" d="M0,-3.0v7 M-2.5,-0.5L0,-3.0L2.5,-0.5"/>
                </g>
                <g id="arrowDown" xlink:href="#dirArrow" transform="rotate(180) translate(-30 -48)" onmousedown="handlePan(0,1)">
                  <use xlink:href="#rim" fill="#404040">
                        <set attributeName="fill" to="#808080" begin="arrowDown.mouseover" end="arrowDown.mouseout"/>
                  </use>
                  <path fill="none" stroke="white" stroke-width="1.5" d="M0,-3.0v7 M-2.5,-0.5L0,-3.0L2.5,-0.5"/>
                </g>
                <g id="arrowLeft" xlink:href="#dirArrow" transform="rotate(270) translate(-36 17)" onmousedown="handlePan(-1,0)">
                  <use xlink:href="#rim" fill="#404040">
                        <set attributeName="fill" to="#808080" begin="arrowLeft.mouseover" end="arrowLeft.mouseout"/>
                  </use>
                  <path fill="none" stroke="white" stroke-width="1.5" d="M0,-3.0v7 M-2.5,-0.5L0,-3.0L2.5,-0.5"/>
                </g>
        </g>
        <svg viewBox="0 0 15 15" width="100%" height="30px" preserveAspectRatio="xMaxYMin meet">
         <g id="arrow_out" transform="scale(0.3 0.3)">
          <a xlink:href="AddNodeHandler_8h__incl_org.svg" target="_base">
           <rect id="button" ry="5" rx="5" y="6" x="6" height="38" width="38"
                fill="#f2f5e9" fill-opacity="0.5" stroke="#606060" stroke-width="1.0"/>
           <path id="arrow"
             d="M 11.500037,31.436501 C 11.940474,20.09759 22.043105,11.32322 32.158766,21.979434 L 37.068811,17.246167 C 37.068811,17.246167 37.088388,32 37.088388,32 L 22.160133,31.978069 C 22.160133,31.978069 26.997745,27.140456 26.997745,27.140456 C 18.528582,18.264221 13.291696,25.230495 11.500037,31.436501 z"
             style="fill:#404040;"/>
          </a>
         </g>
        </svg>
</svg>
