<?xml version="1.0" encoding="UTF-8" standalone="no"?>
<!DOCTYPE svg PUBLIC "-//W3C//DTD SVG 1.1//EN"
 "http://www.w3.org/Graphics/SVG/1.1/DTD/svg11.dtd">
<!-- Generated by graphviz version 2.36.0 (20140111.2315)
 -->
<!-- Title: /home/travis/build/mgerhardy/simpleai/src/ai/aggro/AggroMgr.h Pages: 1 -->
<svg width="934pt" height="330pt"
 viewBox="0.00 0.00 934.00 330.00" xmlns="http://www.w3.org/2000/svg" xmlns:xlink="http://www.w3.org/1999/xlink">
<g id="graph0" class="graph" transform="scale(1 1) rotate(0) translate(4 326)">
<title>/home/travis/build/mgerhardy/simpleai/src/ai/aggro/AggroMgr.h</title>
<polygon fill="white" stroke="none" points="-4,4 -4,-326 930,-326 930,4 -4,4"/>
<!-- Node1 -->
<g id="node1" class="node"><title>Node1</title>
<polygon fill="#bfbfbf" stroke="black" points="462,-280.5 462,-321.5 586,-321.5 586,-280.5 462,-280.5"/>
<text text-anchor="start" x="470" y="-309.5" font-family="Helvetica,sans-Serif" font-size="10.00">/home/travis/build</text>
<text text-anchor="start" x="470" y="-298.5" font-family="Helvetica,sans-Serif" font-size="10.00">/mgerhardy/simpleai</text>
<text text-anchor="middle" x="524" y="-287.5" font-family="Helvetica,sans-Serif" font-size="10.00">/src/ai/aggro/AggroMgr.h</text>
</g>
<!-- Node2 -->
<g id="node2" class="node"><title>Node2</title>
<polygon fill="white" stroke="#bfbfbf" points="388,-224.5 388,-243.5 432,-243.5 432,-224.5 388,-224.5"/>
<text text-anchor="middle" x="410" y="-231.5" font-family="Helvetica,sans-Serif" font-size="10.00">vector</text>
</g>
<!-- Node1&#45;&gt;Node2 -->
<g id="edge1" class="edge"><title>Node1&#45;&gt;Node2</title>
<path fill="none" stroke="midnightblue" d="M489.796,-280.498C471.814,-270.245 450.207,-257.925 434.015,-248.693"/>
<polygon fill="midnightblue" stroke="midnightblue" points="435.596,-245.565 425.175,-243.652 432.129,-251.646 435.596,-245.565"/>
</g>
<!-- Node3 -->
<g id="node3" class="node"><title>Node3</title>
<polygon fill="white" stroke="#bfbfbf" points="325,-168.5 325,-187.5 377,-187.5 377,-168.5 325,-168.5"/>
<text text-anchor="middle" x="351" y="-175.5" font-family="Helvetica,sans-Serif" font-size="10.00">memory</text>
</g>
<!-- Node1&#45;&gt;Node3 -->
<g id="edge2" class="edge"><title>Node1&#45;&gt;Node3</title>
<path fill="none" stroke="midnightblue" d="M505.229,-280.29C488.977,-263.922 464.317,-240.7 440,-224 421.455,-211.264 398.807,-199.863 380.999,-191.724"/>
<polygon fill="midnightblue" stroke="midnightblue" points="382.218,-188.435 371.66,-187.55 379.361,-194.826 382.218,-188.435"/>
</g>
<!-- Node4 -->
<g id="node4" class="node"><title>Node4</title>
<g id="a_node4"><a xlink:href="ICharacter_8h.html" target="_top" xlink:title="ICharacter.h">
<polygon fill="white" stroke="black" points="488.5,-224.5 488.5,-243.5 559.5,-243.5 559.5,-224.5 488.5,-224.5"/>
<text text-anchor="middle" x="524" y="-231.5" font-family="Helvetica,sans-Serif" font-size="10.00">ICharacter.h</text>
</a>
</g>
</g>
<!-- Node1&#45;&gt;Node4 -->
<g id="edge3" class="edge"><title>Node1&#45;&gt;Node4</title>
<path fill="none" stroke="midnightblue" d="M524,-280.498C524,-272.065 524,-262.235 524,-253.874"/>
<polygon fill="midnightblue" stroke="midnightblue" points="527.5,-253.652 524,-243.652 520.5,-253.653 527.5,-253.652"/>
</g>
<!-- Node23 -->
<g id="node23" class="node"><title>Node23</title>
<polygon fill="white" stroke="#bfbfbf" points="578,-224.5 578,-243.5 634,-243.5 634,-224.5 578,-224.5"/>
<text text-anchor="middle" x="606" y="-231.5" font-family="Helvetica,sans-Serif" font-size="10.00">algorithm</text>
</g>
<!-- Node1&#45;&gt;Node23 -->
<g id="edge25" class="edge"><title>Node1&#45;&gt;Node23</title>
<path fill="none" stroke="midnightblue" d="M548.603,-280.498C560.933,-270.724 575.632,-259.072 587.069,-250.007"/>
<polygon fill="midnightblue" stroke="midnightblue" points="589.422,-252.607 595.085,-243.652 585.074,-247.122 589.422,-252.607"/>
</g>
<!-- Node24 -->
<g id="node24" class="node"><title>Node24</title>
<g id="a_node24"><a xlink:href="Entry_8h.html" target="_top" xlink:title="aggro/Entry.h">
<polygon fill="white" stroke="black" points="685.5,-224.5 685.5,-243.5 760.5,-243.5 760.5,-224.5 685.5,-224.5"/>
<text text-anchor="middle" x="723" y="-231.5" font-family="Helvetica,sans-Serif" font-size="10.00">aggro/Entry.h</text>
</a>
</g>
</g>
<!-- Node1&#45;&gt;Node24 -->
<g id="edge26" class="edge"><title>Node1&#45;&gt;Node24</title>
<path fill="none" stroke="midnightblue" d="M583.707,-280.498C617.4,-269.493 658.382,-256.106 687.141,-246.713"/>
<polygon fill="midnightblue" stroke="midnightblue" points="688.353,-249.999 696.772,-243.567 686.179,-243.345 688.353,-249.999"/>
</g>
<!-- Node4&#45;&gt;Node3 -->
<g id="edge24" class="edge"><title>Node4&#45;&gt;Node3</title>
<path fill="none" stroke="midnightblue" d="M496.588,-224.444C466.885,-215.172 419.378,-200.343 386.76,-190.162"/>
<polygon fill="midnightblue" stroke="midnightblue" points="387.74,-186.802 377.152,-187.163 385.655,-193.484 387.74,-186.802"/>
</g>
<!-- Node5 -->
<g id="node5" class="node"><title>Node5</title>
<g id="a_node5"><a xlink:href="NonCopyable_8h.html" target="_top" xlink:title="common/NonCopyable.h">
<polygon fill="white" stroke="black" points="565.5,-168.5 565.5,-187.5 690.5,-187.5 690.5,-168.5 565.5,-168.5"/>
<text text-anchor="middle" x="628" y="-175.5" font-family="Helvetica,sans-Serif" font-size="10.00">common/NonCopyable.h</text>
</a>
</g>
</g>
<!-- Node4&#45;&gt;Node5 -->
<g id="edge4" class="edge"><title>Node4&#45;&gt;Node5</title>
<path fill="none" stroke="midnightblue" d="M540.709,-224.324C557.312,-215.703 583.002,-202.364 602.22,-192.386"/>
<polygon fill="midnightblue" stroke="midnightblue" points="604.07,-195.369 611.332,-187.655 600.844,-189.156 604.07,-195.369"/>
</g>
<!-- Node6 -->
<g id="node6" class="node"><title>Node6</title>
<g id="a_node6"><a xlink:href="Math_8h.html" target="_top" xlink:title="common/Math.h">
<polygon fill="white" stroke="black" points="395.5,-168.5 395.5,-187.5 482.5,-187.5 482.5,-168.5 395.5,-168.5"/>
<text text-anchor="middle" x="439" y="-175.5" font-family="Helvetica,sans-Serif" font-size="10.00">common/Math.h</text>
</a>
</g>
</g>
<!-- Node4&#45;&gt;Node6 -->
<g id="edge5" class="edge"><title>Node4&#45;&gt;Node6</title>
<path fill="none" stroke="midnightblue" d="M510.343,-224.324C497.084,-215.9 476.732,-202.971 461.154,-193.074"/>
<polygon fill="midnightblue" stroke="midnightblue" points="462.94,-190.063 452.623,-187.655 459.187,-195.971 462.94,-190.063"/>
</g>
<!-- Node7 -->
<g id="node7" class="node"><title>Node7</title>
<g id="a_node7"><a xlink:href="Types_8h.html" target="_top" xlink:title="Types.h">
<polygon fill="white" stroke="black" points="712,-112.5 712,-131.5 764,-131.5 764,-112.5 712,-112.5"/>
<text text-anchor="middle" x="738" y="-119.5" font-family="Helvetica,sans-Serif" font-size="10.00">Types.h</text>
</a>
</g>
</g>
<!-- Node4&#45;&gt;Node7 -->
<g id="edge22" class="edge"><title>Node4&#45;&gt;Node7</title>
<path fill="none" stroke="midnightblue" d="M559.722,-225.338C607.577,-214.843 687.812,-196.348 699,-188 714.787,-176.221 725.445,-155.997 731.575,-141.229"/>
<polygon fill="midnightblue" stroke="midnightblue" points="734.94,-142.229 735.247,-131.639 728.403,-139.726 734.94,-142.229"/>
</g>
<!-- Node22 -->
<g id="node22" class="node"><title>Node22</title>
<polygon fill="white" stroke="#bfbfbf" points="501,-168.5 501,-187.5 547,-187.5 547,-168.5 501,-168.5"/>
<text text-anchor="middle" x="524" y="-175.5" font-family="Helvetica,sans-Serif" font-size="10.00">atomic</text>
</g>
<!-- Node4&#45;&gt;Node22 -->
<g id="edge23" class="edge"><title>Node4&#45;&gt;Node22</title>
<path fill="none" stroke="midnightblue" d="M524,-224.083C524,-217.006 524,-206.861 524,-197.986"/>
<polygon fill="midnightblue" stroke="midnightblue" points="527.5,-197.751 524,-187.751 520.5,-197.751 527.5,-197.751"/>
</g>
<!-- Node6&#45;&gt;Node7 -->
<g id="edge6" class="edge"><title>Node6&#45;&gt;Node7</title>
<path fill="none" stroke="midnightblue" d="M482.514,-169.598C547.253,-158.58 664.572,-138.591 701.542,-131.78"/>
<polygon fill="midnightblue" stroke="midnightblue" points="702.552,-135.15 711.707,-129.817 701.225,-128.277 702.552,-135.15"/>
</g>
<!-- Node15 -->
<g id="node15" class="node"><title>Node15</title>
<polygon fill="white" stroke="#bfbfbf" points="0,-112.5 0,-131.5 70,-131.5 70,-112.5 0,-112.5"/>
<text text-anchor="middle" x="35" y="-119.5" font-family="Helvetica,sans-Serif" font-size="10.00">glm/glm.hpp</text>
</g>
<!-- Node6&#45;&gt;Node15 -->
<g id="edge15" class="edge"><title>Node6&#45;&gt;Node15</title>
<path fill="none" stroke="midnightblue" d="M395.355,-169.406C392.192,-168.911 389.049,-168.437 386,-168 253.2,-148.951 216.354,-153.55 80.0069,-132.037"/>
<polygon fill="midnightblue" stroke="midnightblue" points="80.4419,-128.562 70.0153,-130.442 79.3386,-135.474 80.4419,-128.562"/>
</g>
<!-- Node16 -->
<g id="node16" class="node"><title>Node16</title>
<polygon fill="white" stroke="#bfbfbf" points="88.5,-112.5 88.5,-131.5 201.5,-131.5 201.5,-112.5 88.5,-112.5"/>
<text text-anchor="middle" x="145" y="-119.5" font-family="Helvetica,sans-Serif" font-size="10.00">glm/gtc/constants.hpp</text>
</g>
<!-- Node6&#45;&gt;Node16 -->
<g id="edge16" class="edge"><title>Node6&#45;&gt;Node16</title>
<path fill="none" stroke="midnightblue" d="M395.303,-168.974C343.695,-159.495 257.739,-143.707 201.215,-133.325"/>
<polygon fill="midnightblue" stroke="midnightblue" points="201.834,-129.88 191.366,-131.516 200.569,-136.765 201.834,-129.88"/>
</g>
<!-- Node17 -->
<g id="node17" class="node"><title>Node17</title>
<polygon fill="white" stroke="#bfbfbf" points="219.5,-112.5 219.5,-131.5 320.5,-131.5 320.5,-112.5 219.5,-112.5"/>
<text text-anchor="middle" x="270" y="-119.5" font-family="Helvetica,sans-Serif" font-size="10.00">glm/gtc/epsilon.hpp</text>
</g>
<!-- Node6&#45;&gt;Node17 -->
<g id="edge17" class="edge"><title>Node6&#45;&gt;Node17</title>
<path fill="none" stroke="midnightblue" d="M412.221,-168.444C383.667,-159.32 338.267,-144.813 306.463,-134.651"/>
<polygon fill="midnightblue" stroke="midnightblue" points="307.244,-131.226 296.653,-131.516 305.114,-137.894 307.244,-131.226"/>
</g>
<!-- Node18 -->
<g id="node18" class="node"><title>Node18</title>
<polygon fill="white" stroke="#bfbfbf" points="338.5,-112.5 338.5,-131.5 463.5,-131.5 463.5,-112.5 338.5,-112.5"/>
<text text-anchor="middle" x="401" y="-119.5" font-family="Helvetica,sans-Serif" font-size="10.00">glm/gtx/compatibility.hpp</text>
</g>
<!-- Node6&#45;&gt;Node18 -->
<g id="edge18" class="edge"><title>Node6&#45;&gt;Node18</title>
<path fill="none" stroke="midnightblue" d="M432.725,-168.083C427.358,-160.455 419.482,-149.264 412.921,-139.941"/>
<polygon fill="midnightblue" stroke="midnightblue" points="415.775,-137.915 407.158,-131.751 410.051,-141.943 415.775,-137.915"/>
</g>
<!-- Node19 -->
<g id="node19" class="node"><title>Node19</title>
<polygon fill="white" stroke="#bfbfbf" points="482,-112.5 482,-131.5 574,-131.5 574,-112.5 482,-112.5"/>
<text text-anchor="middle" x="528" y="-119.5" font-family="Helvetica,sans-Serif" font-size="10.00">glm/gtx/norm.hpp</text>
</g>
<!-- Node6&#45;&gt;Node19 -->
<g id="edge19" class="edge"><title>Node6&#45;&gt;Node19</title>
<path fill="none" stroke="midnightblue" d="M453.299,-168.324C467.183,-159.9 488.492,-146.971 504.804,-137.074"/>
<polygon fill="midnightblue" stroke="midnightblue" points="507.002,-139.834 513.736,-131.655 503.371,-133.85 507.002,-139.834"/>
</g>
<!-- Node20 -->
<g id="node20" class="node"><title>Node20</title>
<polygon fill="white" stroke="#bfbfbf" points="592,-112.5 592,-131.5 632,-131.5 632,-112.5 592,-112.5"/>
<text text-anchor="middle" x="612" y="-119.5" font-family="Helvetica,sans-Serif" font-size="10.00">limits</text>
</g>
<!-- Node6&#45;&gt;Node20 -->
<g id="edge20" class="edge"><title>Node6&#45;&gt;Node20</title>
<path fill="none" stroke="midnightblue" d="M466.412,-168.444C497.964,-158.595 549.607,-142.475 582.151,-132.317"/>
<polygon fill="midnightblue" stroke="midnightblue" points="583.494,-135.564 591.997,-129.244 581.408,-128.882 583.494,-135.564"/>
</g>
<!-- Node21 -->
<g id="node21" class="node"><title>Node21</title>
<polygon fill="white" stroke="#bfbfbf" points="650,-112.5 650,-131.5 694,-131.5 694,-112.5 650,-112.5"/>
<text text-anchor="middle" x="672" y="-119.5" font-family="Helvetica,sans-Serif" font-size="10.00">cmath</text>
</g>
<!-- Node6&#45;&gt;Node21 -->
<g id="edge21" class="edge"><title>Node6&#45;&gt;Node21</title>
<path fill="none" stroke="midnightblue" d="M480.966,-168.461C519.87,-160.364 579.563,-147.484 639.993,-132.142"/>
<polygon fill="midnightblue" stroke="midnightblue" points="640.875,-135.529 649.695,-129.659 639.14,-128.748 640.875,-135.529"/>
</g>
<!-- Node8 -->
<g id="node8" class="node"><title>Node8</title>
<g id="a_node8"><a xlink:href="Log_8h.html" target="_top" xlink:title="Log.h">
<polygon fill="white" stroke="black" points="658.5,-56.5 658.5,-75.5 699.5,-75.5 699.5,-56.5 658.5,-56.5"/>
<text text-anchor="middle" x="679" y="-63.5" font-family="Helvetica,sans-Serif" font-size="10.00">Log.h</text>
</a>
</g>
</g>
<!-- Node7&#45;&gt;Node8 -->
<g id="edge7" class="edge"><title>Node7&#45;&gt;Node8</title>
<path fill="none" stroke="midnightblue" d="M728.521,-112.324C719.799,-104.341 706.657,-92.3128 696.102,-82.6529"/>
<polygon fill="midnightblue" stroke="midnightblue" points="698.392,-80.0036 688.652,-75.8339 693.666,-85.1674 698.392,-80.0036"/>
</g>
<!-- Node9 -->
<g id="node9" class="node"><title>Node9</title>
<polygon fill="white" stroke="#bfbfbf" points="598.5,-0.5 598.5,-19.5 641.5,-19.5 641.5,-0.5 598.5,-0.5"/>
<text text-anchor="middle" x="620" y="-7.5" font-family="Helvetica,sans-Serif" font-size="10.00">cstdio</text>
</g>
<!-- Node7&#45;&gt;Node9 -->
<g id="edge14" class="edge"><title>Node7&#45;&gt;Node9</title>
<path fill="none" stroke="midnightblue" d="M711.675,-113.063C692.208,-106.034 666.197,-94.052 649,-76 636.503,-62.8816 628.808,-43.4674 624.514,-29.2727"/>
<polygon fill="midnightblue" stroke="midnightblue" points="627.889,-28.3452 621.87,-19.6261 621.138,-30.1956 627.889,-28.3452"/>
</g>
<!-- Node12 -->
<g id="node12" class="node"><title>Node12</title>
<polygon fill="white" stroke="#bfbfbf" points="717.5,-56.5 717.5,-75.5 758.5,-75.5 758.5,-56.5 717.5,-56.5"/>
<text text-anchor="middle" x="738" y="-63.5" font-family="Helvetica,sans-Serif" font-size="10.00">string</text>
</g>
<!-- Node7&#45;&gt;Node12 -->
<g id="edge11" class="edge"><title>Node7&#45;&gt;Node12</title>
<path fill="none" stroke="midnightblue" d="M738,-112.083C738,-105.006 738,-94.8611 738,-85.9865"/>
<polygon fill="midnightblue" stroke="midnightblue" points="741.5,-85.751 738,-75.7511 734.5,-85.7511 741.5,-85.751"/>
</g>
<!-- Node13 -->
<g id="node13" class="node"><title>Node13</title>
<polygon fill="white" stroke="#bfbfbf" points="776.5,-56.5 776.5,-75.5 859.5,-75.5 859.5,-56.5 776.5,-56.5"/>
<text text-anchor="middle" x="818" y="-63.5" font-family="Helvetica,sans-Serif" font-size="10.00">unordered_map</text>
</g>
<!-- Node7&#45;&gt;Node13 -->
<g id="edge12" class="edge"><title>Node7&#45;&gt;Node13</title>
<path fill="none" stroke="midnightblue" d="M750.853,-112.324C763.216,-103.979 782.13,-91.2122 796.737,-81.3524"/>
<polygon fill="midnightblue" stroke="midnightblue" points="798.848,-84.1503 805.179,-75.6545 794.932,-78.3483 798.848,-84.1503"/>
</g>
<!-- Node14 -->
<g id="node14" class="node"><title>Node14</title>
<polygon fill="white" stroke="#bfbfbf" points="877.5,-56.5 877.5,-75.5 926.5,-75.5 926.5,-56.5 877.5,-56.5"/>
<text text-anchor="middle" x="902" y="-63.5" font-family="Helvetica,sans-Serif" font-size="10.00">cassert</text>
</g>
<!-- Node7&#45;&gt;Node14 -->
<g id="edge13" class="edge"><title>Node7&#45;&gt;Node14</title>
<path fill="none" stroke="midnightblue" d="M763.986,-112.444C792.104,-103.185 837.052,-88.3854 867.969,-78.2054"/>
<polygon fill="midnightblue" stroke="midnightblue" points="869.071,-81.5275 877.475,-75.0755 866.882,-74.8786 869.071,-81.5275"/>
</g>
<!-- Node8&#45;&gt;Node9 -->
<g id="edge8" class="edge"><title>Node8&#45;&gt;Node9</title>
<path fill="none" stroke="midnightblue" d="M669.521,-56.324C660.799,-48.3414 647.657,-36.3128 637.102,-26.6529"/>
<polygon fill="midnightblue" stroke="midnightblue" points="639.392,-24.0036 629.652,-19.8339 634.666,-29.1674 639.392,-24.0036"/>
</g>
<!-- Node10 -->
<g id="node10" class="node"><title>Node10</title>
<polygon fill="white" stroke="#bfbfbf" points="724.5,-0.5 724.5,-19.5 773.5,-19.5 773.5,-0.5 724.5,-0.5"/>
<text text-anchor="middle" x="749" y="-7.5" font-family="Helvetica,sans-Serif" font-size="10.00">cstdarg</text>
</g>
<!-- Node8&#45;&gt;Node10 -->
<g id="edge9" class="edge"><title>Node8&#45;&gt;Node10</title>
<path fill="none" stroke="midnightblue" d="M690.247,-56.324C700.797,-48.1849 716.801,-35.8395 729.442,-26.0874"/>
<polygon fill="midnightblue" stroke="midnightblue" points="731.769,-28.7132 737.549,-19.8339 727.493,-23.1707 731.769,-28.7132"/>
</g>
<!-- Node11 -->
<g id="node11" class="node"><title>Node11</title>
<polygon fill="white" stroke="#bfbfbf" points="660,-0.5 660,-19.5 706,-19.5 706,-0.5 660,-0.5"/>
<text text-anchor="middle" x="683" y="-7.5" font-family="Helvetica,sans-Serif" font-size="10.00">cstring</text>
</g>
<!-- Node8&#45;&gt;Node11 -->
<g id="edge10" class="edge"><title>Node8&#45;&gt;Node11</title>
<path fill="none" stroke="midnightblue" d="M679.661,-56.083C680.185,-49.0059 680.936,-38.8611 681.594,-29.9865"/>
<polygon fill="midnightblue" stroke="midnightblue" points="685.103,-29.9823 682.352,-19.7511 678.123,-29.4652 685.103,-29.9823"/>
</g>
<!-- Node24&#45;&gt;Node7 -->
<g id="edge27" class="edge"><title>Node24&#45;&gt;Node7</title>
<path fill="none" stroke="midnightblue" d="M725.283,-224.441C727.594,-215.438 731.092,-200.824 733,-188 735.293,-172.588 736.566,-154.954 737.253,-141.945"/>
<polygon fill="midnightblue" stroke="midnightblue" points="740.753,-142.026 737.716,-131.876 733.76,-141.704 740.753,-142.026"/>
</g>
</g>
</svg>
