<?xml version="1.0" encoding="UTF-8" standalone="no"?>
<!DOCTYPE svg PUBLIC "-//W3C//DTD SVG 1.1//EN"
 "http://www.w3.org/Graphics/SVG/1.1/DTD/svg11.dtd">
<!-- Generated by graphviz version 2.36.0 (20140111.2315)
 -->
<!-- Title: /home/travis/build/mgerhardy/simpleai/src/ai/aggro/AggroMgr.h Pages: 1 -->
<svg width="979pt" height="330pt"
 viewBox="0.00 0.00 979.00 330.00" xmlns="http://www.w3.org/2000/svg" xmlns:xlink="http://www.w3.org/1999/xlink">
<g id="graph0" class="graph" transform="scale(1 1) rotate(0) translate(4 326)">
<title>/home/travis/build/mgerhardy/simpleai/src/ai/aggro/AggroMgr.h</title>
<polygon fill="white" stroke="none" points="-4,4 -4,-326 975,-326 975,4 -4,4"/>
<!-- Node1 -->
<g id="node1" class="node"><title>Node1</title>
<polygon fill="#bfbfbf" stroke="black" points="466,-280.5 466,-321.5 590,-321.5 590,-280.5 466,-280.5"/>
<text text-anchor="start" x="474" y="-309.5" font-family="Helvetica,sans-Serif" font-size="10.00">/home/travis/build</text>
<text text-anchor="start" x="474" y="-298.5" font-family="Helvetica,sans-Serif" font-size="10.00">/mgerhardy/simpleai</text>
<text text-anchor="middle" x="528" y="-287.5" font-family="Helvetica,sans-Serif" font-size="10.00">/src/ai/aggro/AggroMgr.h</text>
</g>
<!-- Node2 -->
<g id="node2" class="node"><title>Node2</title>
<polygon fill="white" stroke="#bfbfbf" points="392,-224.5 392,-243.5 436,-243.5 436,-224.5 392,-224.5"/>
<text text-anchor="middle" x="414" y="-231.5" font-family="Helvetica,sans-Serif" font-size="10.00">vector</text>
</g>
<!-- Node1&#45;&gt;Node2 -->
<g id="edge1" class="edge"><title>Node1&#45;&gt;Node2</title>
<path fill="none" stroke="midnightblue" d="M493.796,-280.498C475.814,-270.245 454.207,-257.925 438.015,-248.693"/>
<polygon fill="midnightblue" stroke="midnightblue" points="439.596,-245.565 429.175,-243.652 436.129,-251.646 439.596,-245.565"/>
</g>
<!-- Node3 -->
<g id="node3" class="node"><title>Node3</title>
<polygon fill="white" stroke="#bfbfbf" points="329,-168.5 329,-187.5 381,-187.5 381,-168.5 329,-168.5"/>
<text text-anchor="middle" x="355" y="-175.5" font-family="Helvetica,sans-Serif" font-size="10.00">memory</text>
</g>
<!-- Node1&#45;&gt;Node3 -->
<g id="edge2" class="edge"><title>Node1&#45;&gt;Node3</title>
<path fill="none" stroke="midnightblue" d="M509.229,-280.29C492.977,-263.922 468.317,-240.7 444,-224 425.455,-211.264 402.807,-199.863 384.999,-191.724"/>
<polygon fill="midnightblue" stroke="midnightblue" points="386.218,-188.435 375.66,-187.55 383.361,-194.826 386.218,-188.435"/>
</g>
<!-- Node4 -->
<g id="node4" class="node"><title>Node4</title>
<g id="a_node4"><a xlink:href="ICharacter_8h.html" target="_top" xlink:title="ICharacter.h">
<polygon fill="white" stroke="black" points="492.5,-224.5 492.5,-243.5 563.5,-243.5 563.5,-224.5 492.5,-224.5"/>
<text text-anchor="middle" x="528" y="-231.5" font-family="Helvetica,sans-Serif" font-size="10.00">ICharacter.h</text>
</a>
</g>
</g>
<!-- Node1&#45;&gt;Node4 -->
<g id="edge3" class="edge"><title>Node1&#45;&gt;Node4</title>
<path fill="none" stroke="midnightblue" d="M528,-280.498C528,-272.065 528,-262.235 528,-253.874"/>
<polygon fill="midnightblue" stroke="midnightblue" points="531.5,-253.652 528,-243.652 524.5,-253.653 531.5,-253.652"/>
</g>
<!-- Node24 -->
<g id="node24" class="node"><title>Node24</title>
<polygon fill="white" stroke="#bfbfbf" points="582,-224.5 582,-243.5 638,-243.5 638,-224.5 582,-224.5"/>
<text text-anchor="middle" x="610" y="-231.5" font-family="Helvetica,sans-Serif" font-size="10.00">algorithm</text>
</g>
<!-- Node1&#45;&gt;Node24 -->
<g id="edge26" class="edge"><title>Node1&#45;&gt;Node24</title>
<path fill="none" stroke="midnightblue" d="M552.603,-280.498C564.933,-270.724 579.632,-259.072 591.069,-250.007"/>
<polygon fill="midnightblue" stroke="midnightblue" points="593.422,-252.607 599.085,-243.652 589.074,-247.122 593.422,-252.607"/>
</g>
<!-- Node25 -->
<g id="node25" class="node"><title>Node25</title>
<g id="a_node25"><a xlink:href="Entry_8h.html" target="_top" xlink:title="aggro/Entry.h">
<polygon fill="white" stroke="black" points="689.5,-224.5 689.5,-243.5 764.5,-243.5 764.5,-224.5 689.5,-224.5"/>
<text text-anchor="middle" x="727" y="-231.5" font-family="Helvetica,sans-Serif" font-size="10.00">aggro/Entry.h</text>
</a>
</g>
</g>
<!-- Node1&#45;&gt;Node25 -->
<g id="edge27" class="edge"><title>Node1&#45;&gt;Node25</title>
<path fill="none" stroke="midnightblue" d="M587.707,-280.498C621.4,-269.493 662.382,-256.106 691.141,-246.713"/>
<polygon fill="midnightblue" stroke="midnightblue" points="692.353,-249.999 700.772,-243.567 690.179,-243.345 692.353,-249.999"/>
</g>
<!-- Node4&#45;&gt;Node3 -->
<g id="edge25" class="edge"><title>Node4&#45;&gt;Node3</title>
<path fill="none" stroke="midnightblue" d="M500.588,-224.444C470.885,-215.172 423.378,-200.343 390.76,-190.162"/>
<polygon fill="midnightblue" stroke="midnightblue" points="391.74,-186.802 381.152,-187.163 389.655,-193.484 391.74,-186.802"/>
</g>
<!-- Node5 -->
<g id="node5" class="node"><title>Node5</title>
<g id="a_node5"><a xlink:href="NonCopyable_8h.html" target="_top" xlink:title="common/NonCopyable.h">
<polygon fill="white" stroke="black" points="569.5,-168.5 569.5,-187.5 694.5,-187.5 694.5,-168.5 569.5,-168.5"/>
<text text-anchor="middle" x="632" y="-175.5" font-family="Helvetica,sans-Serif" font-size="10.00">common/NonCopyable.h</text>
</a>
</g>
</g>
<!-- Node4&#45;&gt;Node5 -->
<g id="edge4" class="edge"><title>Node4&#45;&gt;Node5</title>
<path fill="none" stroke="midnightblue" d="M544.709,-224.324C561.312,-215.703 587.002,-202.364 606.22,-192.386"/>
<polygon fill="midnightblue" stroke="midnightblue" points="608.07,-195.369 615.332,-187.655 604.844,-189.156 608.07,-195.369"/>
</g>
<!-- Node6 -->
<g id="node6" class="node"><title>Node6</title>
<g id="a_node6"><a xlink:href="Math_8h.html" target="_top" xlink:title="common/Math.h">
<polygon fill="white" stroke="black" points="399.5,-168.5 399.5,-187.5 486.5,-187.5 486.5,-168.5 399.5,-168.5"/>
<text text-anchor="middle" x="443" y="-175.5" font-family="Helvetica,sans-Serif" font-size="10.00">common/Math.h</text>
</a>
</g>
</g>
<!-- Node4&#45;&gt;Node6 -->
<g id="edge5" class="edge"><title>Node4&#45;&gt;Node6</title>
<path fill="none" stroke="midnightblue" d="M514.343,-224.324C501.084,-215.9 480.732,-202.971 465.154,-193.074"/>
<polygon fill="midnightblue" stroke="midnightblue" points="466.94,-190.063 456.623,-187.655 463.187,-195.971 466.94,-190.063"/>
</g>
<!-- Node7 -->
<g id="node7" class="node"><title>Node7</title>
<g id="a_node7"><a xlink:href="Types_8h.html" target="_top" xlink:title="Types.h">
<polygon fill="white" stroke="black" points="716,-112.5 716,-131.5 768,-131.5 768,-112.5 716,-112.5"/>
<text text-anchor="middle" x="742" y="-119.5" font-family="Helvetica,sans-Serif" font-size="10.00">Types.h</text>
</a>
</g>
</g>
<!-- Node4&#45;&gt;Node7 -->
<g id="edge23" class="edge"><title>Node4&#45;&gt;Node7</title>
<path fill="none" stroke="midnightblue" d="M563.722,-225.338C611.577,-214.843 691.812,-196.348 703,-188 718.787,-176.221 729.445,-155.997 735.575,-141.229"/>
<polygon fill="midnightblue" stroke="midnightblue" points="738.94,-142.229 739.247,-131.639 732.403,-139.726 738.94,-142.229"/>
</g>
<!-- Node23 -->
<g id="node23" class="node"><title>Node23</title>
<polygon fill="white" stroke="#bfbfbf" points="505,-168.5 505,-187.5 551,-187.5 551,-168.5 505,-168.5"/>
<text text-anchor="middle" x="528" y="-175.5" font-family="Helvetica,sans-Serif" font-size="10.00">atomic</text>
</g>
<!-- Node4&#45;&gt;Node23 -->
<g id="edge24" class="edge"><title>Node4&#45;&gt;Node23</title>
<path fill="none" stroke="midnightblue" d="M528,-224.083C528,-217.006 528,-206.861 528,-197.986"/>
<polygon fill="midnightblue" stroke="midnightblue" points="531.5,-197.751 528,-187.751 524.5,-197.751 531.5,-197.751"/>
</g>
<!-- Node6&#45;&gt;Node7 -->
<g id="edge6" class="edge"><title>Node6&#45;&gt;Node7</title>
<path fill="none" stroke="midnightblue" d="M486.514,-169.598C551.253,-158.58 668.572,-138.591 705.542,-131.78"/>
<polygon fill="midnightblue" stroke="midnightblue" points="706.552,-135.15 715.707,-129.817 705.225,-128.277 706.552,-135.15"/>
</g>
<!-- Node16 -->
<g id="node16" class="node"><title>Node16</title>
<polygon fill="white" stroke="#bfbfbf" points="0,-112.5 0,-131.5 70,-131.5 70,-112.5 0,-112.5"/>
<text text-anchor="middle" x="35" y="-119.5" font-family="Helvetica,sans-Serif" font-size="10.00">glm/glm.hpp</text>
</g>
<!-- Node6&#45;&gt;Node16 -->
<g id="edge16" class="edge"><title>Node6&#45;&gt;Node16</title>
<path fill="none" stroke="midnightblue" d="M399.356,-169.4C396.193,-168.907 393.049,-168.435 390,-168 255.478,-148.806 218.137,-153.713 80.1279,-132.053"/>
<polygon fill="midnightblue" stroke="midnightblue" points="80.4397,-128.558 70.0145,-130.447 79.3417,-135.472 80.4397,-128.558"/>
</g>
<!-- Node17 -->
<g id="node17" class="node"><title>Node17</title>
<polygon fill="white" stroke="#bfbfbf" points="88.5,-112.5 88.5,-131.5 201.5,-131.5 201.5,-112.5 88.5,-112.5"/>
<text text-anchor="middle" x="145" y="-119.5" font-family="Helvetica,sans-Serif" font-size="10.00">glm/gtc/constants.hpp</text>
</g>
<!-- Node6&#45;&gt;Node17 -->
<g id="edge17" class="edge"><title>Node6&#45;&gt;Node17</title>
<path fill="none" stroke="midnightblue" d="M399.349,-169.09C347.191,-159.639 259.772,-143.798 202.241,-133.372"/>
<polygon fill="midnightblue" stroke="midnightblue" points="202.679,-129.895 192.215,-131.556 201.431,-136.783 202.679,-129.895"/>
</g>
<!-- Node18 -->
<g id="node18" class="node"><title>Node18</title>
<polygon fill="white" stroke="#bfbfbf" points="219.5,-112.5 219.5,-131.5 320.5,-131.5 320.5,-112.5 219.5,-112.5"/>
<text text-anchor="middle" x="270" y="-119.5" font-family="Helvetica,sans-Serif" font-size="10.00">glm/gtc/epsilon.hpp</text>
</g>
<!-- Node6&#45;&gt;Node18 -->
<g id="edge18" class="edge"><title>Node6&#45;&gt;Node18</title>
<path fill="none" stroke="midnightblue" d="M415.588,-168.444C386.231,-159.28 339.481,-144.688 306.904,-134.519"/>
<polygon fill="midnightblue" stroke="midnightblue" points="307.873,-131.155 297.284,-131.516 305.787,-137.837 307.873,-131.155"/>
</g>
<!-- Node19 -->
<g id="node19" class="node"><title>Node19</title>
<polygon fill="white" stroke="#bfbfbf" points="338.5,-112.5 338.5,-131.5 463.5,-131.5 463.5,-112.5 338.5,-112.5"/>
<text text-anchor="middle" x="401" y="-119.5" font-family="Helvetica,sans-Serif" font-size="10.00">glm/gtx/compatibility.hpp</text>
</g>
<!-- Node6&#45;&gt;Node19 -->
<g id="edge19" class="edge"><title>Node6&#45;&gt;Node19</title>
<path fill="none" stroke="midnightblue" d="M436.065,-168.083C430.071,-160.377 421.248,-149.033 413.952,-139.653"/>
<polygon fill="midnightblue" stroke="midnightblue" points="416.709,-137.496 407.806,-131.751 411.183,-141.793 416.709,-137.496"/>
</g>
<!-- Node20 -->
<g id="node20" class="node"><title>Node20</title>
<polygon fill="white" stroke="#bfbfbf" points="482,-112.5 482,-131.5 574,-131.5 574,-112.5 482,-112.5"/>
<text text-anchor="middle" x="528" y="-119.5" font-family="Helvetica,sans-Serif" font-size="10.00">glm/gtx/norm.hpp</text>
</g>
<!-- Node6&#45;&gt;Node20 -->
<g id="edge20" class="edge"><title>Node6&#45;&gt;Node20</title>
<path fill="none" stroke="midnightblue" d="M456.657,-168.324C469.916,-159.9 490.268,-146.971 505.846,-137.074"/>
<polygon fill="midnightblue" stroke="midnightblue" points="507.813,-139.971 514.377,-131.655 504.06,-134.063 507.813,-139.971"/>
</g>
<!-- Node21 -->
<g id="node21" class="node"><title>Node21</title>
<polygon fill="white" stroke="#bfbfbf" points="592,-112.5 592,-131.5 632,-131.5 632,-112.5 592,-112.5"/>
<text text-anchor="middle" x="612" y="-119.5" font-family="Helvetica,sans-Serif" font-size="10.00">limits</text>
</g>
<!-- Node6&#45;&gt;Node21 -->
<g id="edge21" class="edge"><title>Node6&#45;&gt;Node21</title>
<path fill="none" stroke="midnightblue" d="M469.779,-168.444C500.349,-158.676 550.226,-142.738 582.058,-132.567"/>
<polygon fill="midnightblue" stroke="midnightblue" points="583.252,-135.86 591.712,-129.483 581.121,-129.192 583.252,-135.86"/>
</g>
<!-- Node22 -->
<g id="node22" class="node"><title>Node22</title>
<polygon fill="white" stroke="#bfbfbf" points="650.5,-112.5 650.5,-131.5 697.5,-131.5 697.5,-112.5 650.5,-112.5"/>
<text text-anchor="middle" x="674" y="-119.5" font-family="Helvetica,sans-Serif" font-size="10.00">math.h</text>
</g>
<!-- Node6&#45;&gt;Node22 -->
<g id="edge22" class="edge"><title>Node6&#45;&gt;Node22</title>
<path fill="none" stroke="midnightblue" d="M482.94,-168.448C520.979,-160.187 580.068,-147.05 640.527,-132.036"/>
<polygon fill="midnightblue" stroke="midnightblue" points="641.385,-135.429 650.239,-129.611 639.689,-128.638 641.385,-135.429"/>
</g>
<!-- Node8 -->
<g id="node8" class="node"><title>Node8</title>
<g id="a_node8"><a xlink:href="Log_8h.html" target="_top" xlink:title="Log.h">
<polygon fill="white" stroke="black" points="622.5,-56.5 622.5,-75.5 663.5,-75.5 663.5,-56.5 622.5,-56.5"/>
<text text-anchor="middle" x="643" y="-63.5" font-family="Helvetica,sans-Serif" font-size="10.00">Log.h</text>
</a>
</g>
</g>
<!-- Node7&#45;&gt;Node8 -->
<g id="edge7" class="edge"><title>Node7&#45;&gt;Node8</title>
<path fill="none" stroke="midnightblue" d="M726.094,-112.324C710.362,-103.743 686.058,-90.486 667.791,-80.5224"/>
<polygon fill="midnightblue" stroke="midnightblue" points="669.322,-77.3704 658.867,-75.6545 665.97,-83.5157 669.322,-77.3704"/>
</g>
<!-- Node9 -->
<g id="node9" class="node"><title>Node9</title>
<polygon fill="white" stroke="#bfbfbf" points="559,-0.5 559,-19.5 605,-19.5 605,-0.5 559,-0.5"/>
<text text-anchor="middle" x="582" y="-7.5" font-family="Helvetica,sans-Serif" font-size="10.00">stdio.h</text>
</g>
<!-- Node7&#45;&gt;Node9 -->
<g id="edge14" class="edge"><title>Node7&#45;&gt;Node9</title>
<path fill="none" stroke="midnightblue" d="M715.787,-114.421C682.751,-105.703 628.412,-89.8119 613,-76 599.348,-63.7655 591.165,-44.2226 586.665,-29.7567"/>
<polygon fill="midnightblue" stroke="midnightblue" points="589.971,-28.5807 583.912,-19.8893 583.228,-30.462 589.971,-28.5807"/>
</g>
<!-- Node12 -->
<g id="node12" class="node"><title>Node12</title>
<polygon fill="white" stroke="#bfbfbf" points="681.5,-56.5 681.5,-75.5 722.5,-75.5 722.5,-56.5 681.5,-56.5"/>
<text text-anchor="middle" x="702" y="-63.5" font-family="Helvetica,sans-Serif" font-size="10.00">string</text>
</g>
<!-- Node7&#45;&gt;Node12 -->
<g id="edge11" class="edge"><title>Node7&#45;&gt;Node12</title>
<path fill="none" stroke="midnightblue" d="M735.395,-112.083C729.745,-104.455 721.455,-93.2645 714.549,-83.9408"/>
<polygon fill="midnightblue" stroke="midnightblue" points="717.247,-81.7034 708.482,-75.7511 711.622,-85.87 717.247,-81.7034"/>
</g>
<!-- Node13 -->
<g id="node13" class="node"><title>Node13</title>
<polygon fill="white" stroke="#bfbfbf" points="740.5,-56.5 740.5,-75.5 823.5,-75.5 823.5,-56.5 740.5,-56.5"/>
<text text-anchor="middle" x="782" y="-63.5" font-family="Helvetica,sans-Serif" font-size="10.00">unordered_map</text>
</g>
<!-- Node7&#45;&gt;Node13 -->
<g id="edge12" class="edge"><title>Node7&#45;&gt;Node13</title>
<path fill="none" stroke="midnightblue" d="M748.605,-112.083C754.255,-104.455 762.545,-93.2645 769.451,-83.9408"/>
<polygon fill="midnightblue" stroke="midnightblue" points="772.378,-85.87 775.518,-75.7511 766.753,-81.7034 772.378,-85.87"/>
</g>
<!-- Node14 -->
<g id="node14" class="node"><title>Node14</title>
<polygon fill="white" stroke="#bfbfbf" points="842,-56.5 842,-75.5 894,-75.5 894,-56.5 842,-56.5"/>
<text text-anchor="middle" x="868" y="-63.5" font-family="Helvetica,sans-Serif" font-size="10.00">assert.h</text>
</g>
<!-- Node7&#45;&gt;Node14 -->
<g id="edge13" class="edge"><title>Node7&#45;&gt;Node14</title>
<path fill="none" stroke="midnightblue" d="M761.965,-112.444C782.609,-103.596 815.063,-89.6875 838.632,-79.5865"/>
<polygon fill="midnightblue" stroke="midnightblue" points="840.316,-82.6727 848.128,-75.5164 837.558,-76.2387 840.316,-82.6727"/>
</g>
<!-- Node15 -->
<g id="node15" class="node"><title>Node15</title>
<polygon fill="white" stroke="#bfbfbf" points="912.5,-56.5 912.5,-75.5 971.5,-75.5 971.5,-56.5 912.5,-56.5"/>
<text text-anchor="middle" x="942" y="-63.5" font-family="Helvetica,sans-Serif" font-size="10.00">inttypes.h</text>
</g>
<!-- Node7&#45;&gt;Node15 -->
<g id="edge15" class="edge"><title>Node7&#45;&gt;Node15</title>
<path fill="none" stroke="midnightblue" d="M768.147,-113.94C802.336,-104.709 862.547,-88.4524 902.361,-77.7026"/>
<polygon fill="midnightblue" stroke="midnightblue" points="903.522,-81.0145 912.264,-75.0288 901.697,-74.2565 903.522,-81.0145"/>
</g>
<!-- Node8&#45;&gt;Node9 -->
<g id="edge8" class="edge"><title>Node8&#45;&gt;Node9</title>
<path fill="none" stroke="midnightblue" d="M633.199,-56.324C624.182,-48.3414 610.594,-36.3128 599.682,-26.6529"/>
<polygon fill="midnightblue" stroke="midnightblue" points="601.787,-23.8416 591.979,-19.8339 597.147,-29.083 601.787,-23.8416"/>
</g>
<!-- Node10 -->
<g id="node10" class="node"><title>Node10</title>
<polygon fill="white" stroke="#bfbfbf" points="691,-0.5 691,-19.5 743,-19.5 743,-0.5 691,-0.5"/>
<text text-anchor="middle" x="717" y="-7.5" font-family="Helvetica,sans-Serif" font-size="10.00">stdarg.h</text>
</g>
<!-- Node8&#45;&gt;Node10 -->
<g id="edge9" class="edge"><title>Node8&#45;&gt;Node10</title>
<path fill="none" stroke="midnightblue" d="M654.889,-56.324C666.15,-48.1066 683.287,-35.6017 696.709,-25.8069"/>
<polygon fill="midnightblue" stroke="midnightblue" points="698.88,-28.5559 704.894,-19.8339 694.753,-22.9014 698.88,-28.5559"/>
</g>
<!-- Node11 -->
<g id="node11" class="node"><title>Node11</title>
<polygon fill="white" stroke="#bfbfbf" points="623.5,-0.5 623.5,-19.5 672.5,-19.5 672.5,-0.5 623.5,-0.5"/>
<text text-anchor="middle" x="648" y="-7.5" font-family="Helvetica,sans-Serif" font-size="10.00">string.h</text>
</g>
<!-- Node8&#45;&gt;Node11 -->
<g id="edge10" class="edge"><title>Node8&#45;&gt;Node11</title>
<path fill="none" stroke="midnightblue" d="M643.826,-56.083C644.481,-49.0059 645.42,-38.8611 646.242,-29.9865"/>
<polygon fill="midnightblue" stroke="midnightblue" points="649.753,-30.0312 647.19,-19.7511 642.783,-29.3858 649.753,-30.0312"/>
</g>
<!-- Node25&#45;&gt;Node7 -->
<g id="edge28" class="edge"><title>Node25&#45;&gt;Node7</title>
<path fill="none" stroke="midnightblue" d="M729.283,-224.441C731.594,-215.438 735.092,-200.824 737,-188 739.293,-172.588 740.566,-154.954 741.253,-141.945"/>
<polygon fill="midnightblue" stroke="midnightblue" points="744.753,-142.026 741.716,-131.876 737.76,-141.704 744.753,-142.026"/>
</g>
</g>
</svg>
