<?xml version="1.0" encoding="UTF-8" standalone="no"?>
<!DOCTYPE svg PUBLIC "-//W3C//DTD SVG 1.1//EN"
 "http://www.w3.org/Graphics/SVG/1.1/DTD/svg11.dtd">
<!-- Generated by graphviz version 2.36.0 (20140111.2315)
 -->
<!-- Title: /home/travis/build/mgerhardy/simpleai/src/ai/AI.h Pages: 1 -->
<!--zoomable 498 -->
<svg id="main" version="1.1" xmlns="http://www.w3.org/2000/svg" xmlns:xlink="http://www.w3.org/1999/xlink" xml:space="preserve" onload="init(evt)">
<style type="text/css"><![CDATA[
.edge:hover path { stroke: red; }
.edge:hover polygon { stroke: red; fill: red; }
]]></style>
<script type="text/javascript"><![CDATA[
var edges = document.getElementsByTagName('g');
if (edges && edges.length) {
  for (var i=0;i<edges.length;i++) {
    if (edges[i].id.substr(0,4)=='edge') {
      edges[i].setAttribute('class','edge');
    }
  }
}
]]></script>
        <defs>
                <circle id="rim" cx="0" cy="0" r="7"/>
                <circle id="rim2" cx="0" cy="0" r="3.5"/>
                <g id="zoomPlus">
                        <use xlink:href="#rim" fill="#404040">
                                <set attributeName="fill" to="#808080" begin="zoomplus.mouseover" end="zoomplus.mouseout"/>
                        </use>
                        <path d="M-4,0h8M0,-4v8" fill="none" stroke="white" stroke-width="1.5" pointer-events="none"/>
                </g>
                <g id="zoomMin">
                        <use xlink:href="#rim" fill="#404040">
                                <set attributeName="fill" to="#808080" begin="zoomminus.mouseover" end="zoomminus.mouseout"/>
                        </use>
                        <path d="M-4,0h8" fill="none" stroke="white" stroke-width="1.5" pointer-events="none"/>
                </g>
                <g id="dirArrow">
                        <path fill="none" stroke="white" stroke-width="1.5" d="M0,-3.0v7 M-2.5,-0.5L0,-3.0L2.5,-0.5"/>
                </g>
               <g id="resetDef">
                       <use xlink:href="#rim2" fill="#404040">
                               <set attributeName="fill" to="#808080" begin="reset.mouseover" end="reset.mouseout"/>
                       </use>
               </g>
        </defs>

<script type="text/javascript">
var viewWidth = 2009;
var viewHeight = 498;
var sectionId = 'dynsection-0';
</script>
<script xlink:href="svgpan.js"/>
<svg id="graph" class="graph">
<g id="viewport">
<title>/home/travis/build/mgerhardy/simpleai/src/ai/AI.h</title>
<polygon fill="white" stroke="none" points="-4,4 -4,-494 2004.98,-494 2004.98,4 -4,4"/>
<!-- Node1 -->
<g id="node1" class="node"><title>Node1</title>
<polygon fill="#bfbfbf" stroke="black" points="1137.98,-448.5 1137.98,-489.5 1241.98,-489.5 1241.98,-448.5 1137.98,-448.5"/>
<text text-anchor="start" x="1145.98" y="-477.5" font-family="Helvetica,sans-Serif" font-size="10.00">/home/travis/build</text>
<text text-anchor="start" x="1145.98" y="-466.5" font-family="Helvetica,sans-Serif" font-size="10.00">/mgerhardy/simpleai</text>
<text text-anchor="middle" x="1189.98" y="-455.5" font-family="Helvetica,sans-Serif" font-size="10.00">/src/ai/AI.h</text>
</g>
<!-- Node2 -->
<g id="node2" class="node"><title>Node2</title>
<polygon fill="white" stroke="#bfbfbf" points="337.478,-56.5 337.478,-75.5 420.478,-75.5 420.478,-56.5 337.478,-56.5"/>
<text text-anchor="middle" x="378.978" y="-63.5" font-family="Helvetica,sans-Serif" font-size="10.00">unordered_map</text>
</g>
<!-- Node1&#45;&gt;Node2 -->
<g id="edge1" class="edge"><title>Node1&#45;&gt;Node2</title>
<path fill="none" stroke="midnightblue" d="M1137.74,-468.25C908.261,-468.67 0.977999,-463 0.977999,-347 0.977999,-347 0.977999,-347 0.977999,-177 0.977999,-146.902 -2.934,-131.517 19.978,-112 65.1693,-73.5048 239.337,-67.3232 327.387,-66.7238"/>
<polygon fill="midnightblue" stroke="midnightblue" points="327.443,-70.2236 337.427,-66.6772 327.411,-63.2237 327.443,-70.2236"/>
</g>
<!-- Node3 -->
<g id="node3" class="node"><title>Node3</title>
<polygon fill="white" stroke="#bfbfbf" points="1542.98,-112.5 1542.98,-131.5 1594.98,-131.5 1594.98,-112.5 1542.98,-112.5"/>
<text text-anchor="middle" x="1568.98" y="-119.5" font-family="Helvetica,sans-Serif" font-size="10.00">memory</text>
</g>
<!-- Node1&#45;&gt;Node3 -->
<g id="edge2" class="edge"><title>Node1&#45;&gt;Node3</title>
<path fill="none" stroke="midnightblue" d="M1226.7,-448.382C1244.11,-438.41 1264.8,-425.548 1281.98,-412 1397.77,-320.672 1515.38,-186.339 1554.99,-139.687"/>
<polygon fill="midnightblue" stroke="midnightblue" points="1557.88,-141.693 1561.66,-131.795 1552.53,-137.176 1557.88,-141.693"/>
</g>
<!-- Node4 -->
<g id="node4" class="node"><title>Node4</title>
<g id="a_node4"><a xlink:href="GroupId_8h.html" target="_top" xlink:title="group/GroupId.h">
<polygon fill="white" stroke="black" points="1599.98,-392.5 1599.98,-411.5 1685.98,-411.5 1685.98,-392.5 1599.98,-392.5"/>
<text text-anchor="middle" x="1642.98" y="-399.5" font-family="Helvetica,sans-Serif" font-size="10.00">group/GroupId.h</text>
</a>
</g>
</g>
<!-- Node1&#45;&gt;Node4 -->
<g id="edge3" class="edge"><title>Node1&#45;&gt;Node4</title>
<path fill="none" stroke="midnightblue" d="M1242.15,-461.189C1318.57,-451.1 1465.42,-431.291 1589.98,-412 1590.08,-411.984 1590.18,-411.969 1590.28,-411.953"/>
<polygon fill="midnightblue" stroke="midnightblue" points="1590.57,-415.451 1599.9,-410.424 1589.47,-408.538 1590.57,-415.451"/>
</g>
<!-- Node5 -->
<g id="node5" class="node"><title>Node5</title>
<g id="a_node5"><a xlink:href="AggroMgr_8h.html" target="_top" xlink:title="aggro/AggroMgr.h">
<polygon fill="white" stroke="black" points="1288.98,-280.5 1288.98,-299.5 1382.98,-299.5 1382.98,-280.5 1288.98,-280.5"/>
<text text-anchor="middle" x="1335.98" y="-287.5" font-family="Helvetica,sans-Serif" font-size="10.00">aggro/AggroMgr.h</text>
</a>
</g>
</g>
<!-- Node1&#45;&gt;Node5 -->
<g id="edge4" class="edge"><title>Node1&#45;&gt;Node5</title>
<path fill="none" stroke="midnightblue" d="M1218.76,-448.417C1232.19,-438.453 1247.86,-425.588 1259.98,-412 1289.31,-379.119 1314.53,-333.615 1327.22,-308.834"/>
<polygon fill="midnightblue" stroke="midnightblue" points="1330.5,-310.087 1331.86,-299.579 1324.25,-306.945 1330.5,-310.087"/>
</g>
<!-- Node7 -->
<g id="node7" class="node"><title>Node7</title>
<g id="a_node7"><a xlink:href="ICharacter_8h.html" target="_top" xlink:title="ICharacter.h">
<polygon fill="white" stroke="black" points="920.478,-224.5 920.478,-243.5 991.478,-243.5 991.478,-224.5 920.478,-224.5"/>
<text text-anchor="middle" x="955.978" y="-231.5" font-family="Helvetica,sans-Serif" font-size="10.00">ICharacter.h</text>
</a>
</g>
</g>
<!-- Node1&#45;&gt;Node7 -->
<g id="edge33" class="edge"><title>Node1&#45;&gt;Node7</title>
<path fill="none" stroke="midnightblue" d="M1170.03,-448.135C1124.44,-402.739 1013.37,-292.146 971.922,-250.876"/>
<polygon fill="midnightblue" stroke="midnightblue" points="974.157,-248.162 964.601,-243.586 969.218,-253.122 974.157,-248.162"/>
</g>
<!-- Node8 -->
<g id="node8" class="node"><title>Node8</title>
<g id="a_node8"><a xlink:href="NonCopyable_8h.html" target="_top" xlink:title="common/NonCopyable.h">
<polygon fill="white" stroke="black" points="1266.48,-112.5 1266.48,-131.5 1391.48,-131.5 1391.48,-112.5 1266.48,-112.5"/>
<text text-anchor="middle" x="1328.98" y="-119.5" font-family="Helvetica,sans-Serif" font-size="10.00">common/NonCopyable.h</text>
</a>
</g>
</g>
<!-- Node1&#45;&gt;Node8 -->
<g id="edge77" class="edge"><title>Node1&#45;&gt;Node8</title>
<path fill="none" stroke="midnightblue" d="M1196.54,-448.224C1209.04,-412.37 1238.74,-335.237 1279.98,-280 1302.19,-250.247 1312.48,-246.559 1341.98,-224 1365.48,-206.024 1383.8,-213.97 1397.98,-188 1409.88,-166.194 1383.75,-147.503 1360.31,-135.836"/>
<polygon fill="midnightblue" stroke="midnightblue" points="1361.75,-132.645 1351.21,-131.57 1358.78,-138.983 1361.75,-132.645"/>
</g>
<!-- Node9 -->
<g id="node9" class="node"><title>Node9</title>
<g id="a_node9"><a xlink:href="Math_8h.html" target="_top" xlink:title="common/Math.h">
<polygon fill="white" stroke="black" points="444.478,-168.5 444.478,-187.5 531.478,-187.5 531.478,-168.5 444.478,-168.5"/>
<text text-anchor="middle" x="487.978" y="-175.5" font-family="Helvetica,sans-Serif" font-size="10.00">common/Math.h</text>
</a>
</g>
</g>
<!-- Node1&#45;&gt;Node9 -->
<g id="edge78" class="edge"><title>Node1&#45;&gt;Node9</title>
<path fill="none" stroke="midnightblue" d="M1137.71,-467.094C1004,-463.37 659.978,-444.331 659.978,-347 659.978,-347 659.978,-347 659.978,-289 659.978,-232.01 592.133,-203.216 541.663,-189.681"/>
<polygon fill="midnightblue" stroke="midnightblue" points="542.381,-186.252 531.826,-187.173 540.652,-193.035 542.381,-186.252"/>
</g>
<!-- Node10 -->
<g id="node10" class="node"><title>Node10</title>
<g id="a_node10"><a xlink:href="Types_8h.html" target="_top" xlink:title="Types.h">
<polygon fill="white" stroke="black" points="932.978,-112.5 932.978,-131.5 984.978,-131.5 984.978,-112.5 932.978,-112.5"/>
<text text-anchor="middle" x="958.978" y="-119.5" font-family="Helvetica,sans-Serif" font-size="10.00">Types.h</text>
</a>
</g>
</g>
<!-- Node1&#45;&gt;Node10 -->
<g id="edge76" class="edge"><title>Node1&#45;&gt;Node10</title>
<path fill="none" stroke="midnightblue" d="M1137.8,-459.803C1045.48,-443.813 862.978,-404.884 862.978,-347 862.978,-347 862.978,-347 862.978,-233 862.978,-189.543 906.035,-154.957 934.478,-136.851"/>
<polygon fill="midnightblue" stroke="midnightblue" points="936.421,-139.765 943.126,-131.561 932.769,-133.794 936.421,-139.765"/>
</g>
<!-- Node28 -->
<g id="node28" class="node"><title>Node28</title>
<g id="a_node28"><a xlink:href="TreeNode_8h.html" target="_top" xlink:title="tree/TreeNode.h">
<polygon fill="white" stroke="black" points="1494.48,-392.5 1494.48,-411.5 1581.48,-411.5 1581.48,-392.5 1494.48,-392.5"/>
<text text-anchor="middle" x="1537.98" y="-399.5" font-family="Helvetica,sans-Serif" font-size="10.00">tree/TreeNode.h</text>
</a>
</g>
</g>
<!-- Node1&#45;&gt;Node28 -->
<g id="edge34" class="edge"><title>Node1&#45;&gt;Node28</title>
<path fill="none" stroke="midnightblue" d="M1242.08,-458.269C1307.23,-446.099 1418.21,-425.371 1484.16,-413.053"/>
<polygon fill="midnightblue" stroke="midnightblue" points="1485.15,-416.427 1494.34,-411.151 1483.87,-409.546 1485.15,-416.427"/>
</g>
<!-- Node32 -->
<g id="node32" class="node"><title>Node32</title>
<g id="a_node32"><a xlink:href="Thread_8h.html" target="_top" xlink:title="common/Thread.h">
<polygon fill="white" stroke="black" points="739.478,-168.5 739.478,-187.5 834.478,-187.5 834.478,-168.5 739.478,-168.5"/>
<text text-anchor="middle" x="786.978" y="-175.5" font-family="Helvetica,sans-Serif" font-size="10.00">common/Thread.h</text>
</a>
</g>
</g>
<!-- Node1&#45;&gt;Node32 -->
<g id="edge75" class="edge"><title>Node1&#45;&gt;Node32</title>
<path fill="none" stroke="midnightblue" d="M1137.94,-464.53C1054.6,-458.145 895.814,-442.323 848.978,-412 819.902,-393.175 805.978,-381.638 805.978,-347 805.978,-347 805.978,-347 805.978,-289 805.978,-256.489 797.819,-219.35 792.194,-197.61"/>
<polygon fill="midnightblue" stroke="midnightblue" points="795.519,-196.498 789.54,-187.751 788.76,-198.317 795.519,-196.498"/>
</g>
<!-- Node41 -->
<g id="node41" class="node"><title>Node41</title>
<g id="a_node41"><a xlink:href="ITreeLoader_8h.html" target="_top" xlink:title="tree/loaders/ITreeLoader.h">
<polygon fill="white" stroke="black" points="1124.48,-224.5 1124.48,-243.5 1255.48,-243.5 1255.48,-224.5 1124.48,-224.5"/>
<text text-anchor="middle" x="1189.98" y="-231.5" font-family="Helvetica,sans-Serif" font-size="10.00">tree/loaders/ITreeLoader.h</text>
</a>
</g>
</g>
<!-- Node1&#45;&gt;Node41 -->
<g id="edge67" class="edge"><title>Node1&#45;&gt;Node41</title>
<path fill="none" stroke="midnightblue" d="M1189.98,-448.135C1189.98,-403.779 1189.98,-297.181 1189.98,-253.821"/>
<polygon fill="midnightblue" stroke="midnightblue" points="1193.48,-253.586 1189.98,-243.586 1186.48,-253.586 1193.48,-253.586"/>
</g>
<!-- Node5&#45;&gt;Node3 -->
<g id="edge6" class="edge"><title>Node5&#45;&gt;Node3</title>
<path fill="none" stroke="midnightblue" d="M1336.51,-280.113C1337.82,-266.22 1342.34,-239.361 1357.98,-224 1395.58,-187.065 1423.45,-210.786 1470.98,-188 1500.22,-173.981 1530.9,-152.334 1549.98,-137.923"/>
<polygon fill="midnightblue" stroke="midnightblue" points="1552.32,-140.543 1558.12,-131.679 1548.06,-134.989 1552.32,-140.543"/>
</g>
<!-- Node6 -->
<g id="node6" class="node"><title>Node6</title>
<polygon fill="white" stroke="#bfbfbf" points="1883.98,-112.5 1883.98,-131.5 1927.98,-131.5 1927.98,-112.5 1883.98,-112.5"/>
<text text-anchor="middle" x="1905.98" y="-119.5" font-family="Helvetica,sans-Serif" font-size="10.00">vector</text>
</g>
<!-- Node5&#45;&gt;Node6 -->
<g id="edge5" class="edge"><title>Node5&#45;&gt;Node6</title>
<path fill="none" stroke="midnightblue" d="M1383.12,-289.053C1491.75,-288.492 1756.39,-283.034 1834.98,-244 1865.13,-229.025 1869.29,-217.237 1885.98,-188 1894.21,-173.58 1899.43,-155.388 1902.47,-141.92"/>
<polygon fill="midnightblue" stroke="midnightblue" points="1905.94,-142.404 1904.52,-131.904 1899.08,-140.997 1905.94,-142.404"/>
</g>
<!-- Node5&#45;&gt;Node7 -->
<g id="edge7" class="edge"><title>Node5&#45;&gt;Node7</title>
<path fill="none" stroke="midnightblue" d="M1288.89,-283.219C1224.78,-275.202 1106.5,-259.893 1005.98,-244 1004.54,-243.772 1003.07,-243.536 1001.59,-243.293"/>
<polygon fill="midnightblue" stroke="midnightblue" points="1002.17,-239.841 991.726,-241.625 1001,-246.744 1002.17,-239.841"/>
</g>
<!-- Node26 -->
<g id="node26" class="node"><title>Node26</title>
<polygon fill="white" stroke="#bfbfbf" points="1366.98,-224.5 1366.98,-243.5 1422.98,-243.5 1422.98,-224.5 1366.98,-224.5"/>
<text text-anchor="middle" x="1394.98" y="-231.5" font-family="Helvetica,sans-Serif" font-size="10.00">algorithm</text>
</g>
<!-- Node5&#45;&gt;Node26 -->
<g id="edge30" class="edge"><title>Node5&#45;&gt;Node26</title>
<path fill="none" stroke="midnightblue" d="M1345.46,-280.324C1354.18,-272.341 1367.32,-260.313 1377.88,-250.653"/>
<polygon fill="midnightblue" stroke="midnightblue" points="1380.31,-253.167 1385.33,-243.834 1375.59,-248.004 1380.31,-253.167"/>
</g>
<!-- Node27 -->
<g id="node27" class="node"><title>Node27</title>
<g id="a_node27"><a xlink:href="Entry_8h.html" target="_top" xlink:title="aggro/Entry.h">
<polygon fill="white" stroke="black" points="967.478,-168.5 967.478,-187.5 1042.48,-187.5 1042.48,-168.5 967.478,-168.5"/>
<text text-anchor="middle" x="1004.98" y="-175.5" font-family="Helvetica,sans-Serif" font-size="10.00">aggro/Entry.h</text>
</a>
</g>
</g>
<!-- Node5&#45;&gt;Node27 -->
<g id="edge31" class="edge"><title>Node5&#45;&gt;Node27</title>
<path fill="none" stroke="midnightblue" d="M1288.56,-283.976C1242.92,-278.074 1172.53,-266.145 1114.98,-244 1081.28,-231.036 1045.97,-208.285 1024.72,-193.43"/>
<polygon fill="midnightblue" stroke="midnightblue" points="1026.69,-190.54 1016.52,-187.599 1022.64,-196.246 1026.69,-190.54"/>
</g>
<!-- Node7&#45;&gt;Node3 -->
<g id="edge29" class="edge"><title>Node7&#45;&gt;Node3</title>
<path fill="none" stroke="midnightblue" d="M991.691,-230.273C1089.99,-222.64 1359.81,-200.783 1397.98,-188 1414.24,-182.554 1415.39,-175.15 1430.98,-168 1464.43,-152.655 1504.64,-140.171 1533,-132.279"/>
<polygon fill="midnightblue" stroke="midnightblue" points="1534.15,-135.592 1542.87,-129.582 1532.31,-128.84 1534.15,-135.592"/>
</g>
<!-- Node7&#45;&gt;Node8 -->
<g id="edge8" class="edge"><title>Node7&#45;&gt;Node8</title>
<path fill="none" stroke="midnightblue" d="M984.936,-224.46C1051.39,-204.862 1214.88,-156.647 1290.04,-134.483"/>
<polygon fill="midnightblue" stroke="midnightblue" points="1291.44,-137.72 1300.04,-131.535 1289.46,-131.006 1291.44,-137.72"/>
</g>
<!-- Node7&#45;&gt;Node9 -->
<g id="edge9" class="edge"><title>Node7&#45;&gt;Node9</title>
<path fill="none" stroke="midnightblue" d="M920.418,-228.897C838.917,-219.493 638.237,-196.338 541.638,-185.192"/>
<polygon fill="midnightblue" stroke="midnightblue" points="541.839,-181.692 531.504,-184.022 541.037,-188.646 541.839,-181.692"/>
</g>
<!-- Node7&#45;&gt;Node10 -->
<g id="edge27" class="edge"><title>Node7&#45;&gt;Node10</title>
<path fill="none" stroke="midnightblue" d="M947.128,-224.451C935.654,-212.283 917.903,-189.1 924.978,-168 928.582,-157.251 935.881,-147.02 942.795,-139.038"/>
<polygon fill="midnightblue" stroke="midnightblue" points="945.455,-141.317 949.69,-131.605 940.323,-136.556 945.455,-141.317"/>
</g>
<!-- Node25 -->
<g id="node25" class="node"><title>Node25</title>
<polygon fill="white" stroke="#bfbfbf" points="744.978,-112.5 744.978,-131.5 790.978,-131.5 790.978,-112.5 744.978,-112.5"/>
<text text-anchor="middle" x="767.978" y="-119.5" font-family="Helvetica,sans-Serif" font-size="10.00">atomic</text>
</g>
<!-- Node7&#45;&gt;Node25 -->
<g id="edge28" class="edge"><title>Node7&#45;&gt;Node25</title>
<path fill="none" stroke="midnightblue" d="M920.283,-231.228C862.773,-227.542 753.642,-216.84 729.978,-188 717.127,-172.338 733.764,-151.816 748.895,-138.059"/>
<polygon fill="midnightblue" stroke="midnightblue" points="751.185,-140.706 756.505,-131.543 746.633,-135.388 751.185,-140.706"/>
</g>
<!-- Node9&#45;&gt;Node10 -->
<g id="edge10" class="edge"><title>Node9&#45;&gt;Node10</title>
<path fill="none" stroke="midnightblue" d="M531.479,-174.55C608.338,-169.777 773.276,-157.544 922.467,-131.816"/>
<polygon fill="midnightblue" stroke="midnightblue" points="923.477,-135.192 932.724,-130.021 922.271,-128.297 923.477,-135.192"/>
</g>
<!-- Node18 -->
<g id="node18" class="node"><title>Node18</title>
<polygon fill="white" stroke="#bfbfbf" points="152.978,-112.5 152.978,-131.5 222.978,-131.5 222.978,-112.5 152.978,-112.5"/>
<text text-anchor="middle" x="187.978" y="-119.5" font-family="Helvetica,sans-Serif" font-size="10.00">glm/glm.hpp</text>
</g>
<!-- Node9&#45;&gt;Node18 -->
<g id="edge20" class="edge"><title>Node9&#45;&gt;Node18</title>
<path fill="none" stroke="midnightblue" d="M444.427,-169.723C395.523,-161.468 313.53,-147.376 233.306,-132.211"/>
<polygon fill="midnightblue" stroke="midnightblue" points="233.502,-128.686 223.025,-130.26 232.197,-135.563 233.502,-128.686"/>
</g>
<!-- Node19 -->
<g id="node19" class="node"><title>Node19</title>
<polygon fill="white" stroke="#bfbfbf" points="241.478,-112.5 241.478,-131.5 354.478,-131.5 354.478,-112.5 241.478,-112.5"/>
<text text-anchor="middle" x="297.978" y="-119.5" font-family="Helvetica,sans-Serif" font-size="10.00">glm/gtc/constants.hpp</text>
</g>
<!-- Node9&#45;&gt;Node19 -->
<g id="edge21" class="edge"><title>Node9&#45;&gt;Node19</title>
<path fill="none" stroke="midnightblue" d="M457.872,-168.444C425.352,-159.201 373.399,-144.436 337.587,-134.257"/>
<polygon fill="midnightblue" stroke="midnightblue" points="338.519,-130.884 327.943,-131.516 336.605,-137.617 338.519,-130.884"/>
</g>
<!-- Node20 -->
<g id="node20" class="node"><title>Node20</title>
<polygon fill="white" stroke="#bfbfbf" points="372.478,-112.5 372.478,-131.5 473.478,-131.5 473.478,-112.5 372.478,-112.5"/>
<text text-anchor="middle" x="422.978" y="-119.5" font-family="Helvetica,sans-Serif" font-size="10.00">glm/gtc/epsilon.hpp</text>
</g>
<!-- Node9&#45;&gt;Node20 -->
<g id="edge22" class="edge"><title>Node9&#45;&gt;Node20</title>
<path fill="none" stroke="midnightblue" d="M477.535,-168.324C467.832,-160.263 453.163,-148.077 441.478,-138.369"/>
<polygon fill="midnightblue" stroke="midnightblue" points="443.54,-135.532 433.611,-131.834 439.067,-140.916 443.54,-135.532"/>
</g>
<!-- Node21 -->
<g id="node21" class="node"><title>Node21</title>
<polygon fill="white" stroke="#bfbfbf" points="491.478,-112.5 491.478,-131.5 616.478,-131.5 616.478,-112.5 491.478,-112.5"/>
<text text-anchor="middle" x="553.978" y="-119.5" font-family="Helvetica,sans-Serif" font-size="10.00">glm/gtx/compatibility.hpp</text>
</g>
<!-- Node9&#45;&gt;Node21 -->
<g id="edge23" class="edge"><title>Node9&#45;&gt;Node21</title>
<path fill="none" stroke="midnightblue" d="M498.582,-168.324C508.434,-160.263 523.329,-148.077 535.193,-138.369"/>
<polygon fill="midnightblue" stroke="midnightblue" points="537.658,-140.875 543.181,-131.834 533.225,-135.457 537.658,-140.875"/>
</g>
<!-- Node22 -->
<g id="node22" class="node"><title>Node22</title>
<polygon fill="white" stroke="#bfbfbf" points="634.978,-112.5 634.978,-131.5 726.978,-131.5 726.978,-112.5 634.978,-112.5"/>
<text text-anchor="middle" x="680.978" y="-119.5" font-family="Helvetica,sans-Serif" font-size="10.00">glm/gtx/norm.hpp</text>
</g>
<!-- Node9&#45;&gt;Node22 -->
<g id="edge24" class="edge"><title>Node9&#45;&gt;Node22</title>
<path fill="none" stroke="midnightblue" d="M518.559,-168.444C551.593,-159.201 604.366,-144.436 640.744,-134.257"/>
<polygon fill="midnightblue" stroke="midnightblue" points="641.853,-137.582 650.54,-131.516 639.966,-130.84 641.853,-137.582"/>
</g>
<!-- Node23 -->
<g id="node23" class="node"><title>Node23</title>
<polygon fill="white" stroke="#bfbfbf" points="28.978,-112.5 28.978,-131.5 68.978,-131.5 68.978,-112.5 28.978,-112.5"/>
<text text-anchor="middle" x="48.978" y="-119.5" font-family="Helvetica,sans-Serif" font-size="10.00">limits</text>
</g>
<!-- Node9&#45;&gt;Node23 -->
<g id="edge25" class="edge"><title>Node9&#45;&gt;Node23</title>
<path fill="none" stroke="midnightblue" d="M444.46,-174.966C370.879,-170.933 217.202,-159.952 79.0487,-131.849"/>
<polygon fill="midnightblue" stroke="midnightblue" points="79.6318,-128.395 69.1299,-129.795 78.2128,-135.25 79.6318,-128.395"/>
</g>
<!-- Node24 -->
<g id="node24" class="node"><title>Node24</title>
<polygon fill="white" stroke="#bfbfbf" points="87.478,-112.5 87.478,-131.5 134.478,-131.5 134.478,-112.5 87.478,-112.5"/>
<text text-anchor="middle" x="110.978" y="-119.5" font-family="Helvetica,sans-Serif" font-size="10.00">math.h</text>
</g>
<!-- Node9&#45;&gt;Node24 -->
<g id="edge26" class="edge"><title>Node9&#45;&gt;Node24</title>
<path fill="none" stroke="midnightblue" d="M444.223,-173.202C380.428,-167.244 258.046,-154.227 144.576,-131.858"/>
<polygon fill="midnightblue" stroke="midnightblue" points="145.171,-128.408 134.679,-129.879 143.798,-135.272 145.171,-128.408"/>
</g>
<!-- Node10&#45;&gt;Node2 -->
<g id="edge16" class="edge"><title>Node10&#45;&gt;Node2</title>
<path fill="none" stroke="midnightblue" d="M932.735,-113.916C929.466,-113.188 926.156,-112.525 922.978,-112 743.681,-82.3739 527.753,-71.882 430.678,-68.4821"/>
<polygon fill="midnightblue" stroke="midnightblue" points="430.661,-64.9795 420.548,-68.1381 430.423,-71.9755 430.661,-64.9795"/>
</g>
<!-- Node11 -->
<g id="node11" class="node"><title>Node11</title>
<g id="a_node11"><a xlink:href="Log_8h.html" target="_top" xlink:title="Log.h">
<polygon fill="white" stroke="black" points="893.478,-56.5 893.478,-75.5 934.478,-75.5 934.478,-56.5 893.478,-56.5"/>
<text text-anchor="middle" x="913.978" y="-63.5" font-family="Helvetica,sans-Serif" font-size="10.00">Log.h</text>
</a>
</g>
</g>
<!-- Node10&#45;&gt;Node11 -->
<g id="edge11" class="edge"><title>Node10&#45;&gt;Node11</title>
<path fill="none" stroke="midnightblue" d="M951.547,-112.083C945.125,-104.377 935.672,-93.0333 927.856,-83.6531"/>
<polygon fill="midnightblue" stroke="midnightblue" points="930.361,-81.1927 921.271,-75.7511 924.984,-85.674 930.361,-81.1927"/>
</g>
<!-- Node12 -->
<g id="node12" class="node"><title>Node12</title>
<polygon fill="white" stroke="#bfbfbf" points="1009.98,-0.5 1009.98,-19.5 1055.98,-19.5 1055.98,-0.5 1009.98,-0.5"/>
<text text-anchor="middle" x="1032.98" y="-7.5" font-family="Helvetica,sans-Serif" font-size="10.00">stdio.h</text>
</g>
<!-- Node10&#45;&gt;Node12 -->
<g id="edge18" class="edge"><title>Node10&#45;&gt;Node12</title>
<path fill="none" stroke="midnightblue" d="M973.709,-112.496C986.178,-104.57 1003.63,-91.6373 1013.98,-76 1023.21,-62.0604 1028.04,-43.5535 1030.52,-29.8531"/>
<polygon fill="midnightblue" stroke="midnightblue" points="1034.03,-30.0982 1032.09,-19.6811 1027.11,-29.0295 1034.03,-30.0982"/>
</g>
<!-- Node15 -->
<g id="node15" class="node"><title>Node15</title>
<polygon fill="white" stroke="#bfbfbf" points="1700.48,-56.5 1700.48,-75.5 1741.48,-75.5 1741.48,-56.5 1700.48,-56.5"/>
<text text-anchor="middle" x="1720.98" y="-63.5" font-family="Helvetica,sans-Serif" font-size="10.00">string</text>
</g>
<!-- Node10&#45;&gt;Node15 -->
<g id="edge15" class="edge"><title>Node10&#45;&gt;Node15</title>
<path fill="none" stroke="midnightblue" d="M985.208,-119.141C1100.92,-110.941 1565.5,-78.0182 1690.1,-69.1884"/>
<polygon fill="midnightblue" stroke="midnightblue" points="1690.7,-72.6543 1700.43,-68.4561 1690.21,-65.6718 1690.7,-72.6543"/>
</g>
<!-- Node16 -->
<g id="node16" class="node"><title>Node16</title>
<polygon fill="white" stroke="#bfbfbf" points="952.978,-56.5 952.978,-75.5 1004.98,-75.5 1004.98,-56.5 952.978,-56.5"/>
<text text-anchor="middle" x="978.978" y="-63.5" font-family="Helvetica,sans-Serif" font-size="10.00">assert.h</text>
</g>
<!-- Node10&#45;&gt;Node16 -->
<g id="edge17" class="edge"><title>Node10&#45;&gt;Node16</title>
<path fill="none" stroke="midnightblue" d="M962.281,-112.083C964.96,-104.849 968.827,-94.4087 972.164,-85.3968"/>
<polygon fill="midnightblue" stroke="midnightblue" points="975.546,-86.3442 975.737,-75.7511 968.982,-83.9129 975.546,-86.3442"/>
</g>
<!-- Node17 -->
<g id="node17" class="node"><title>Node17</title>
<polygon fill="white" stroke="#bfbfbf" points="816.478,-56.5 816.478,-75.5 875.478,-75.5 875.478,-56.5 816.478,-56.5"/>
<text text-anchor="middle" x="845.978" y="-63.5" font-family="Helvetica,sans-Serif" font-size="10.00">inttypes.h</text>
</g>
<!-- Node10&#45;&gt;Node17 -->
<g id="edge19" class="edge"><title>Node10&#45;&gt;Node17</title>
<path fill="none" stroke="midnightblue" d="M941.073,-112.444C922.724,-103.675 893.973,-89.9355 872.884,-79.8579"/>
<polygon fill="midnightblue" stroke="midnightblue" points="874.331,-76.6703 863.799,-75.5164 871.313,-82.9862 874.331,-76.6703"/>
</g>
<!-- Node11&#45;&gt;Node12 -->
<g id="edge12" class="edge"><title>Node11&#45;&gt;Node12</title>
<path fill="none" stroke="midnightblue" d="M932.834,-56.4435C952.244,-47.6356 982.708,-33.8116 1004.94,-23.722"/>
<polygon fill="midnightblue" stroke="midnightblue" points="1006.55,-26.836 1014.21,-19.5164 1003.66,-20.4615 1006.55,-26.836"/>
</g>
<!-- Node13 -->
<g id="node13" class="node"><title>Node13</title>
<polygon fill="white" stroke="#bfbfbf" points="1077.98,-0.5 1077.98,-19.5 1129.98,-19.5 1129.98,-0.5 1077.98,-0.5"/>
<text text-anchor="middle" x="1103.98" y="-7.5" font-family="Helvetica,sans-Serif" font-size="10.00">stdarg.h</text>
</g>
<!-- Node11&#45;&gt;Node13 -->
<g id="edge13" class="edge"><title>Node11&#45;&gt;Node13</title>
<path fill="none" stroke="midnightblue" d="M934.621,-58.756C937.753,-57.8234 940.949,-56.8801 943.978,-56 986.483,-43.6478 1035.5,-29.9413 1067.96,-20.9386"/>
<polygon fill="midnightblue" stroke="midnightblue" points="1069.19,-24.231 1077.89,-18.1887 1067.32,-17.485 1069.19,-24.231"/>
</g>
<!-- Node14 -->
<g id="node14" class="node"><title>Node14</title>
<polygon fill="white" stroke="#bfbfbf" points="889.478,-0.5 889.478,-19.5 938.478,-19.5 938.478,-0.5 889.478,-0.5"/>
<text text-anchor="middle" x="913.978" y="-7.5" font-family="Helvetica,sans-Serif" font-size="10.00">string.h</text>
</g>
<!-- Node11&#45;&gt;Node14 -->
<g id="edge14" class="edge"><title>Node11&#45;&gt;Node14</title>
<path fill="none" stroke="midnightblue" d="M913.978,-56.083C913.978,-49.0059 913.978,-38.8611 913.978,-29.9865"/>
<polygon fill="midnightblue" stroke="midnightblue" points="917.478,-29.751 913.978,-19.7511 910.478,-29.7511 917.478,-29.751"/>
</g>
<!-- Node27&#45;&gt;Node10 -->
<g id="edge32" class="edge"><title>Node27&#45;&gt;Node10</title>
<path fill="none" stroke="midnightblue" d="M997.382,-168.083C990.751,-160.298 980.957,-148.801 972.92,-139.367"/>
<polygon fill="midnightblue" stroke="midnightblue" points="975.582,-137.094 966.433,-131.751 970.253,-141.633 975.582,-137.094"/>
</g>
<!-- Node28&#45;&gt;Node3 -->
<g id="edge65" class="edge"><title>Node28&#45;&gt;Node3</title>
<path fill="none" stroke="midnightblue" d="M1532.73,-392.452C1516.87,-365.409 1472.62,-280.189 1507.98,-224 1527.67,-192.705 1563.29,-219.295 1582.98,-188 1591.98,-173.691 1586.1,-154.481 1579.42,-140.66"/>
<polygon fill="midnightblue" stroke="midnightblue" points="1582.43,-138.856 1574.62,-131.696 1576.26,-142.164 1582.43,-138.856"/>
</g>
<!-- Node28&#45;&gt;Node6 -->
<g id="edge63" class="edge"><title>Node28&#45;&gt;Node6</title>
<path fill="none" stroke="midnightblue" d="M1581.63,-393.431C1584.79,-392.931 1587.93,-392.448 1590.98,-392 1683.81,-378.342 2000.98,-384.835 2000.98,-291 2000.98,-291 2000.98,-291 2000.98,-233 2000.98,-189.739 1958.37,-155.086 1930.22,-136.915"/>
<polygon fill="midnightblue" stroke="midnightblue" points="1932.01,-133.903 1921.67,-131.604 1928.32,-139.851 1932.01,-133.903"/>
</g>
<!-- Node28&#45;&gt;Node10 -->
<g id="edge35" class="edge"><title>Node28&#45;&gt;Node10</title>
<path fill="none" stroke="midnightblue" d="M1508.31,-392.489C1433.8,-370.795 1233.2,-310.42 1071.98,-244 1019.78,-222.497 987.824,-235.914 957.978,-188 949.409,-174.243 950.768,-155.466 953.614,-141.63"/>
<polygon fill="midnightblue" stroke="midnightblue" points="957.046,-142.332 956.053,-131.783 950.251,-140.648 957.046,-142.332"/>
</g>
<!-- Node28&#45;&gt;Node15 -->
<g id="edge64" class="edge"><title>Node28&#45;&gt;Node15</title>
<path fill="none" stroke="midnightblue" d="M1547.04,-392.326C1569.98,-369.898 1630.95,-307.301 1664.98,-244 1693.92,-190.165 1710.71,-118.959 1717.47,-85.6617"/>
<polygon fill="midnightblue" stroke="midnightblue" points="1720.97,-86.0412 1719.45,-75.5553 1714.1,-84.6976 1720.97,-86.0412"/>
</g>
<!-- Node28&#45;&gt;Node26 -->
<g id="edge66" class="edge"><title>Node28&#45;&gt;Node26</title>
<path fill="none" stroke="midnightblue" d="M1522.79,-392.357C1509.23,-384.157 1489.35,-370.898 1474.98,-356 1443.78,-323.661 1417.21,-277.625 1403.97,-252.693"/>
<polygon fill="midnightblue" stroke="midnightblue" points="1407,-250.935 1399.28,-243.68 1400.79,-254.167 1407,-250.935"/>
</g>
<!-- Node29 -->
<g id="node29" class="node"><title>Node29</title>
<g id="a_node29"><a xlink:href="MemoryAllocator_8h.html" target="_top" xlink:title="common/MemoryAllocator.h">
<polygon fill="white" stroke="black" points="1517.48,-224.5 1517.48,-243.5 1656.48,-243.5 1656.48,-224.5 1517.48,-224.5"/>
<text text-anchor="middle" x="1586.98" y="-231.5" font-family="Helvetica,sans-Serif" font-size="10.00">common/MemoryAllocator.h</text>
</a>
</g>
</g>
<!-- Node28&#45;&gt;Node29 -->
<g id="edge36" class="edge"><title>Node28&#45;&gt;Node29</title>
<path fill="none" stroke="midnightblue" d="M1540.61,-392.075C1548.33,-365.945 1570.98,-289.211 1581.49,-253.577"/>
<polygon fill="midnightblue" stroke="midnightblue" points="1584.97,-254.15 1584.45,-243.568 1578.26,-252.168 1584.97,-254.15"/>
</g>
<!-- Node30 -->
<g id="node30" class="node"><title>Node30</title>
<g id="a_node30"><a xlink:href="ICondition_8h.html" target="_top" xlink:title="Condition related stuff. ">
<polygon fill="white" stroke="black" points="1740.98,-280.5 1740.98,-299.5 1856.98,-299.5 1856.98,-280.5 1740.98,-280.5"/>
<text text-anchor="middle" x="1798.98" y="-287.5" font-family="Helvetica,sans-Serif" font-size="10.00">conditions/ICondition.h</text>
</a>
</g>
</g>
<!-- Node28&#45;&gt;Node30 -->
<g id="edge38" class="edge"><title>Node28&#45;&gt;Node30</title>
<path fill="none" stroke="midnightblue" d="M1581.59,-393.217C1629.22,-384.263 1702.05,-369.107 1726.98,-356 1750.15,-343.815 1771.74,-322.454 1785.11,-307.558"/>
<polygon fill="midnightblue" stroke="midnightblue" points="1788.07,-309.494 1791.99,-299.652 1782.79,-304.9 1788.07,-309.494"/>
</g>
<!-- Node40 -->
<g id="node40" class="node"><title>Node40</title>
<g id="a_node40"><a xlink:href="True_8h.html" target="_top" xlink:title="conditions/True.h">
<polygon fill="white" stroke="black" points="1778.98,-336.5 1778.98,-355.5 1870.98,-355.5 1870.98,-336.5 1778.98,-336.5"/>
<text text-anchor="middle" x="1824.98" y="-343.5" font-family="Helvetica,sans-Serif" font-size="10.00">conditions/True.h</text>
</a>
</g>
</g>
<!-- Node28&#45;&gt;Node40 -->
<g id="edge61" class="edge"><title>Node28&#45;&gt;Node40</title>
<path fill="none" stroke="midnightblue" d="M1581.57,-392.799C1631.91,-383.327 1714.81,-367.728 1769.65,-357.409"/>
<polygon fill="midnightblue" stroke="midnightblue" points="1770.37,-360.835 1779.55,-355.547 1769.08,-353.956 1770.37,-360.835"/>
</g>
<!-- Node29&#45;&gt;Node3 -->
<g id="edge37" class="edge"><title>Node29&#45;&gt;Node3</title>
<path fill="none" stroke="midnightblue" d="M1597.15,-224.316C1610.28,-211.989 1630.4,-188.617 1620.98,-168 1615.2,-155.36 1603.93,-144.911 1593.35,-137.274"/>
<polygon fill="midnightblue" stroke="midnightblue" points="1595.02,-134.182 1584.76,-131.533 1591.13,-140.001 1595.02,-134.182"/>
</g>
<!-- Node30&#45;&gt;Node3 -->
<g id="edge42" class="edge"><title>Node30&#45;&gt;Node3</title>
<path fill="none" stroke="midnightblue" d="M1787.75,-280.266C1761.64,-260.037 1694.69,-208.598 1636.98,-168 1621.83,-157.345 1604.41,-145.829 1590.99,-137.115"/>
<polygon fill="midnightblue" stroke="midnightblue" points="1592.72,-134.063 1582.42,-131.574 1588.92,-139.942 1592.72,-134.063"/>
</g>
<!-- Node30&#45;&gt;Node6 -->
<g id="edge40" class="edge"><title>Node30&#45;&gt;Node6</title>
<path fill="none" stroke="midnightblue" d="M1857.2,-286.766C1888.28,-282.236 1924.12,-270.951 1943.98,-244 1951.21,-234.185 1951.85,-202.097 1938.98,-168 1935.06,-157.616 1928.04,-147.514 1921.48,-139.521"/>
<polygon fill="midnightblue" stroke="midnightblue" points="1923.92,-136.996 1914.71,-131.762 1918.65,-141.598 1923.92,-136.996"/>
</g>
<!-- Node30&#45;&gt;Node15 -->
<g id="edge39" class="edge"><title>Node30&#45;&gt;Node15</title>
<path fill="none" stroke="midnightblue" d="M1856.71,-280.459C1897.9,-273.047 1948.17,-260.848 1960.98,-244 1966.77,-236.375 1964.81,-208.254 1955.98,-168 1950.31,-142.186 1955.9,-129.368 1935.98,-112 1908.82,-88.3198 1804.59,-75.0787 1751.88,-69.7687"/>
<polygon fill="midnightblue" stroke="midnightblue" points="1752.06,-66.2692 1741.77,-68.7834 1751.38,-73.2362 1752.06,-66.2692"/>
</g>
<!-- Node30&#45;&gt;Node29 -->
<g id="edge43" class="edge"><title>Node30&#45;&gt;Node29</title>
<path fill="none" stroke="midnightblue" d="M1765.39,-280.444C1728.79,-271.122 1670.14,-256.183 1630.15,-245.997"/>
<polygon fill="midnightblue" stroke="midnightblue" points="1630.97,-242.593 1620.41,-243.516 1629.24,-249.377 1630.97,-242.593"/>
</g>
<!-- Node31 -->
<g id="node31" class="node"><title>Node31</title>
<polygon fill="white" stroke="#bfbfbf" points="1882.98,-224.5 1882.98,-243.5 1934.98,-243.5 1934.98,-224.5 1882.98,-224.5"/>
<text text-anchor="middle" x="1908.98" y="-231.5" font-family="Helvetica,sans-Serif" font-size="10.00">sstream</text>
</g>
<!-- Node30&#45;&gt;Node31 -->
<g id="edge41" class="edge"><title>Node30&#45;&gt;Node31</title>
<path fill="none" stroke="midnightblue" d="M1816.65,-280.324C1834.37,-271.625 1861.88,-258.12 1882.27,-248.113"/>
<polygon fill="midnightblue" stroke="midnightblue" points="1883.91,-251.203 1891.35,-243.655 1880.83,-244.919 1883.91,-251.203"/>
</g>
<!-- Node30&#45;&gt;Node32 -->
<g id="edge44" class="edge"><title>Node30&#45;&gt;Node32</title>
<path fill="none" stroke="midnightblue" d="M1740.62,-287.715C1622.2,-284.546 1345.36,-274.275 1114.98,-244 1061.82,-237.015 914.621,-206.272 836.757,-189.69"/>
<polygon fill="midnightblue" stroke="midnightblue" points="837.213,-186.209 826.703,-187.546 835.753,-193.055 837.213,-186.209"/>
</g>
<!-- Node35 -->
<g id="node35" class="node"><title>Node35</title>
<g id="a_node35"><a xlink:href="AIFactories_8h.html" target="_top" xlink:title="AIFactories.h">
<polygon fill="white" stroke="black" points="1751.48,-224.5 1751.48,-243.5 1826.48,-243.5 1826.48,-224.5 1751.48,-224.5"/>
<text text-anchor="middle" x="1788.98" y="-231.5" font-family="Helvetica,sans-Serif" font-size="10.00">AIFactories.h</text>
</a>
</g>
</g>
<!-- Node30&#45;&gt;Node35 -->
<g id="edge49" class="edge"><title>Node30&#45;&gt;Node35</title>
<path fill="none" stroke="midnightblue" d="M1797.33,-280.083C1796,-272.927 1794.1,-262.635 1792.44,-253.691"/>
<polygon fill="midnightblue" stroke="midnightblue" points="1795.86,-252.947 1790.6,-243.751 1788.98,-254.221 1795.86,-252.947"/>
</g>
<!-- Node32&#45;&gt;Node10 -->
<g id="edge45" class="edge"><title>Node32&#45;&gt;Node10</title>
<path fill="none" stroke="midnightblue" d="M814.232,-168.444C843.763,-159.172 890.995,-144.343 923.424,-134.162"/>
<polygon fill="midnightblue" stroke="midnightblue" points="924.485,-137.498 932.977,-131.163 922.388,-130.819 924.485,-137.498"/>
</g>
<!-- Node32&#45;&gt;Node25 -->
<g id="edge48" class="edge"><title>Node32&#45;&gt;Node25</title>
<path fill="none" stroke="midnightblue" d="M783.841,-168.083C781.295,-160.849 777.622,-150.409 774.451,-141.397"/>
<polygon fill="midnightblue" stroke="midnightblue" points="777.678,-140.023 771.057,-131.751 771.075,-142.346 777.678,-140.023"/>
</g>
<!-- Node33 -->
<g id="node33" class="node"><title>Node33</title>
<polygon fill="white" stroke="#bfbfbf" points="870.978,-112.5 870.978,-131.5 914.978,-131.5 914.978,-112.5 870.978,-112.5"/>
<text text-anchor="middle" x="892.978" y="-119.5" font-family="Helvetica,sans-Serif" font-size="10.00">thread</text>
</g>
<!-- Node32&#45;&gt;Node33 -->
<g id="edge46" class="edge"><title>Node32&#45;&gt;Node33</title>
<path fill="none" stroke="midnightblue" d="M804.009,-168.324C821.008,-159.664 847.354,-146.242 866.971,-136.249"/>
<polygon fill="midnightblue" stroke="midnightblue" points="868.668,-139.312 875.99,-131.655 865.49,-133.075 868.668,-139.312"/>
</g>
<!-- Node34 -->
<g id="node34" class="node"><title>Node34</title>
<polygon fill="white" stroke="#bfbfbf" points="808.978,-112.5 808.978,-131.5 852.978,-131.5 852.978,-112.5 808.978,-112.5"/>
<text text-anchor="middle" x="830.978" y="-119.5" font-family="Helvetica,sans-Serif" font-size="10.00">mutex</text>
</g>
<!-- Node32&#45;&gt;Node34 -->
<g id="edge47" class="edge"><title>Node32&#45;&gt;Node34</title>
<path fill="none" stroke="midnightblue" d="M794.244,-168.083C800.523,-160.377 809.766,-149.033 817.409,-139.653"/>
<polygon fill="midnightblue" stroke="midnightblue" points="820.244,-141.714 823.847,-131.751 814.817,-137.293 820.244,-141.714"/>
</g>
<!-- Node35&#45;&gt;Node6 -->
<g id="edge60" class="edge"><title>Node35&#45;&gt;Node6</title>
<path fill="none" stroke="midnightblue" d="M1807.86,-224.446C1823.81,-216.573 1846.62,-203.746 1862.98,-188 1877.25,-174.257 1889.27,-154.965 1896.94,-140.971"/>
<polygon fill="midnightblue" stroke="midnightblue" points="1900.17,-142.352 1901.72,-131.873 1893.97,-139.094 1900.17,-142.352"/>
</g>
<!-- Node36 -->
<g id="node36" class="node"><title>Node36</title>
<g id="a_node36"><a xlink:href="IAIFactory_8h.html" target="_top" xlink:title="IAIFactory.h">
<polygon fill="white" stroke="black" points="1749.48,-168.5 1749.48,-187.5 1820.48,-187.5 1820.48,-168.5 1749.48,-168.5"/>
<text text-anchor="middle" x="1784.98" y="-175.5" font-family="Helvetica,sans-Serif" font-size="10.00">IAIFactory.h</text>
</a>
</g>
</g>
<!-- Node35&#45;&gt;Node36 -->
<g id="edge50" class="edge"><title>Node35&#45;&gt;Node36</title>
<path fill="none" stroke="midnightblue" d="M1788.32,-224.083C1787.79,-217.006 1787.04,-206.861 1786.38,-197.986"/>
<polygon fill="midnightblue" stroke="midnightblue" points="1789.86,-197.465 1785.63,-187.751 1782.87,-197.982 1789.86,-197.465"/>
</g>
<!-- Node38 -->
<g id="node38" class="node"><title>Node38</title>
<g id="a_node38"><a xlink:href="IFactoryRegistry_8h.html" target="_top" xlink:title="common/IFactoryRegistry.h">
<polygon fill="white" stroke="black" points="1250.98,-168.5 1250.98,-187.5 1388.98,-187.5 1388.98,-168.5 1250.98,-168.5"/>
<text text-anchor="middle" x="1319.98" y="-175.5" font-family="Helvetica,sans-Serif" font-size="10.00">common/IFactoryRegistry.h</text>
</a>
</g>
</g>
<!-- Node35&#45;&gt;Node38 -->
<g id="edge55" class="edge"><title>Node35&#45;&gt;Node38</title>
<path fill="none" stroke="midnightblue" d="M1751.39,-228.672C1675.24,-219.904 1501.32,-199.879 1399.07,-188.107"/>
<polygon fill="midnightblue" stroke="midnightblue" points="1399.44,-184.626 1389.11,-186.959 1398.64,-191.58 1399.44,-184.626"/>
</g>
<!-- Node36&#45;&gt;Node3 -->
<g id="edge51" class="edge"><title>Node36&#45;&gt;Node3</title>
<path fill="none" stroke="midnightblue" d="M1750.75,-168.444C1710.94,-158.492 1645.52,-142.136 1604.97,-131.999"/>
<polygon fill="midnightblue" stroke="midnightblue" points="1605.78,-128.593 1595.23,-129.563 1604.08,-135.384 1605.78,-128.593"/>
</g>
<!-- Node36&#45;&gt;Node6 -->
<g id="edge53" class="edge"><title>Node36&#45;&gt;Node6</title>
<path fill="none" stroke="midnightblue" d="M1804.15,-168.444C1823.89,-159.636 1854.86,-145.812 1877.47,-135.722"/>
<polygon fill="midnightblue" stroke="midnightblue" points="1879.19,-138.788 1886.89,-131.516 1876.34,-132.396 1879.19,-138.788"/>
</g>
<!-- Node36&#45;&gt;Node15 -->
<g id="edge52" class="edge"><title>Node36&#45;&gt;Node15</title>
<path fill="none" stroke="midnightblue" d="M1779.96,-168.368C1769.44,-150.296 1744.94,-108.176 1731.05,-84.3074"/>
<polygon fill="midnightblue" stroke="midnightblue" points="1734.03,-82.4748 1725.98,-75.5914 1727.98,-85.9951 1734.03,-82.4748"/>
</g>
<!-- Node37 -->
<g id="node37" class="node"><title>Node37</title>
<polygon fill="white" stroke="#bfbfbf" points="1787.48,-112.5 1787.48,-131.5 1816.48,-131.5 1816.48,-112.5 1787.48,-112.5"/>
<text text-anchor="middle" x="1801.98" y="-119.5" font-family="Helvetica,sans-Serif" font-size="10.00">list</text>
</g>
<!-- Node36&#45;&gt;Node37 -->
<g id="edge54" class="edge"><title>Node36&#45;&gt;Node37</title>
<path fill="none" stroke="midnightblue" d="M1787.79,-168.083C1790.06,-160.849 1793.35,-150.409 1796.19,-141.397"/>
<polygon fill="midnightblue" stroke="midnightblue" points="1799.56,-142.341 1799.22,-131.751 1792.88,-140.239 1799.56,-142.341"/>
</g>
<!-- Node38&#45;&gt;Node3 -->
<g id="edge58" class="edge"><title>Node38&#45;&gt;Node3</title>
<path fill="none" stroke="midnightblue" d="M1359.43,-168.444C1407.11,-158.103 1486.67,-140.849 1532.82,-130.841"/>
<polygon fill="midnightblue" stroke="midnightblue" points="1533.66,-134.24 1542.69,-128.7 1532.18,-127.399 1533.66,-134.24"/>
</g>
<!-- Node38&#45;&gt;Node8 -->
<g id="edge57" class="edge"><title>Node38&#45;&gt;Node8</title>
<path fill="none" stroke="midnightblue" d="M1321.46,-168.083C1322.66,-160.927 1324.37,-150.635 1325.86,-141.691"/>
<polygon fill="midnightblue" stroke="midnightblue" points="1329.33,-142.19 1327.52,-131.751 1322.42,-141.04 1329.33,-142.19"/>
</g>
<!-- Node38&#45;&gt;Node10 -->
<g id="edge56" class="edge"><title>Node38&#45;&gt;Node10</title>
<path fill="none" stroke="midnightblue" d="M1262.78,-168.444C1187.79,-157.226 1058.41,-137.874 995.48,-128.46"/>
<polygon fill="midnightblue" stroke="midnightblue" points="995.656,-124.948 985.248,-126.93 994.62,-131.871 995.656,-124.948"/>
</g>
<!-- Node39 -->
<g id="node39" class="node"><title>Node39</title>
<polygon fill="white" stroke="#bfbfbf" points="1213.48,-112.5 1213.48,-131.5 1248.48,-131.5 1248.48,-112.5 1213.48,-112.5"/>
<text text-anchor="middle" x="1230.98" y="-119.5" font-family="Helvetica,sans-Serif" font-size="10.00">map</text>
</g>
<!-- Node38&#45;&gt;Node39 -->
<g id="edge59" class="edge"><title>Node38&#45;&gt;Node39</title>
<path fill="none" stroke="midnightblue" d="M1305.68,-168.324C1291.8,-159.9 1270.49,-146.971 1254.17,-137.074"/>
<polygon fill="midnightblue" stroke="midnightblue" points="1255.61,-133.85 1245.24,-131.655 1251.98,-139.834 1255.61,-133.85"/>
</g>
<!-- Node40&#45;&gt;Node30 -->
<g id="edge62" class="edge"><title>Node40&#45;&gt;Node30</title>
<path fill="none" stroke="midnightblue" d="M1820.68,-336.083C1817.13,-328.691 1811.96,-317.953 1807.55,-308.811"/>
<polygon fill="midnightblue" stroke="midnightblue" points="1810.68,-307.243 1803.19,-299.751 1804.38,-310.279 1810.68,-307.243"/>
</g>
<!-- Node41&#45;&gt;Node3 -->
<g id="edge69" class="edge"><title>Node41&#45;&gt;Node3</title>
<path fill="none" stroke="midnightblue" d="M1255.54,-225.371C1304.65,-218.555 1373.06,-206.706 1430.98,-188 1472.73,-174.517 1518.23,-151.266 1545.15,-136.534"/>
<polygon fill="midnightblue" stroke="midnightblue" points="1547.13,-139.436 1554.18,-131.526 1543.74,-133.313 1547.13,-139.436"/>
</g>
<!-- Node41&#45;&gt;Node6 -->
<g id="edge71" class="edge"><title>Node41&#45;&gt;Node6</title>
<path fill="none" stroke="midnightblue" d="M1255.69,-229.473C1413.49,-220.855 1802.73,-198.656 1828.98,-188 1854.69,-177.56 1878.1,-155.102 1892.19,-139.527"/>
<polygon fill="midnightblue" stroke="midnightblue" points="1895.08,-141.54 1899.02,-131.703 1889.81,-136.939 1895.08,-141.54"/>
</g>
<!-- Node41&#45;&gt;Node12 -->
<g id="edge74" class="edge"><title>Node41&#45;&gt;Node12</title>
<path fill="none" stroke="midnightblue" d="M1183.82,-224.297C1160.43,-191.217 1076.76,-72.9094 1045.17,-28.2407"/>
<polygon fill="midnightblue" stroke="midnightblue" points="1047.89,-26.0274 1039.26,-19.8837 1042.18,-30.0693 1047.89,-26.0274"/>
</g>
<!-- Node41&#45;&gt;Node13 -->
<g id="edge73" class="edge"><title>Node41&#45;&gt;Node13</title>
<path fill="none" stroke="midnightblue" d="M1186.61,-224.297C1173.9,-191.494 1128.73,-74.8835 1111.1,-29.3774"/>
<polygon fill="midnightblue" stroke="midnightblue" points="1114.3,-27.9442 1107.42,-19.8837 1107.77,-30.4728 1114.3,-27.9442"/>
</g>
<!-- Node41&#45;&gt;Node15 -->
<g id="edge70" class="edge"><title>Node41&#45;&gt;Node15</title>
<path fill="none" stroke="midnightblue" d="M1187.8,-224.431C1182.71,-202.211 1172.74,-142.364 1203.98,-112 1238.96,-78.0009 1584.73,-69.3215 1690.44,-67.4542"/>
<polygon fill="midnightblue" stroke="midnightblue" points="1690.52,-70.9534 1700.46,-67.2852 1690.4,-63.9544 1690.52,-70.9534"/>
</g>
<!-- Node41&#45;&gt;Node32 -->
<g id="edge68" class="edge"><title>Node41&#45;&gt;Node32</title>
<path fill="none" stroke="midnightblue" d="M1126.12,-224.444C1048.75,-214.076 919.519,-196.76 844.914,-186.763"/>
<polygon fill="midnightblue" stroke="midnightblue" points="845.137,-183.262 834.76,-185.403 844.207,-190.2 845.137,-183.262"/>
</g>
<!-- Node41&#45;&gt;Node39 -->
<g id="edge72" class="edge"><title>Node41&#45;&gt;Node39</title>
<path fill="none" stroke="midnightblue" d="M1193.2,-224.368C1199.84,-206.537 1215.21,-165.295 1224.17,-141.272"/>
<polygon fill="midnightblue" stroke="midnightblue" points="1227.56,-142.184 1227.78,-131.591 1221,-139.739 1227.56,-142.184"/>
</g>
</g>
</svg>
        <g id="navigator" transform="translate(0 0)" fill="#404254">
                <rect fill="#f2f5e9" fill-opacity="0.5" stroke="#606060" stroke-width=".5" x="0" y="0" width="60" height="60"/>
                <use id="zoomplus" xlink:href="#zoomPlus" x="17" y="9" onmousedown="handleZoom(evt,'in')"/>
                <use id="zoomminus" xlink:href="#zoomMin" x="42" y="9" onmousedown="handleZoom(evt,'out')"/>
                <use id="reset" xlink:href="#resetDef" x="30" y="36" onmousedown="handleReset()"/>
                <g id="arrowUp" xlink:href="#dirArrow" transform="translate(30 24)" onmousedown="handlePan(0,-1)">
                  <use xlink:href="#rim" fill="#404040">
                        <set attributeName="fill" to="#808080" begin="arrowUp.mouseover" end="arrowUp.mouseout"/>
                  </use>
                  <path fill="none" stroke="white" stroke-width="1.5" d="M0,-3.0v7 M-2.5,-0.5L0,-3.0L2.5,-0.5"/>
                </g>
                <g id="arrowRight" xlink:href="#dirArrow" transform="rotate(90) translate(36 -43)" onmousedown="handlePan(1,0)">
                  <use xlink:href="#rim" fill="#404040">
                        <set attributeName="fill" to="#808080" begin="arrowRight.mouseover" end="arrowRight.mouseout"/>
                  </use>
                  <path fill="none" stroke="white" stroke-width="1.5" d="M0,-3.0v7 M-2.5,-0.5L0,-3.0L2.5,-0.5"/>
                </g>
                <g id="arrowDown" xlink:href="#dirArrow" transform="rotate(180) translate(-30 -48)" onmousedown="handlePan(0,1)">
                  <use xlink:href="#rim" fill="#404040">
                        <set attributeName="fill" to="#808080" begin="arrowDown.mouseover" end="arrowDown.mouseout"/>
                  </use>
                  <path fill="none" stroke="white" stroke-width="1.5" d="M0,-3.0v7 M-2.5,-0.5L0,-3.0L2.5,-0.5"/>
                </g>
                <g id="arrowLeft" xlink:href="#dirArrow" transform="rotate(270) translate(-36 17)" onmousedown="handlePan(-1,0)">
                  <use xlink:href="#rim" fill="#404040">
                        <set attributeName="fill" to="#808080" begin="arrowLeft.mouseover" end="arrowLeft.mouseout"/>
                  </use>
                  <path fill="none" stroke="white" stroke-width="1.5" d="M0,-3.0v7 M-2.5,-0.5L0,-3.0L2.5,-0.5"/>
                </g>
        </g>
        <svg viewBox="0 0 15 15" width="100%" height="30px" preserveAspectRatio="xMaxYMin meet">
         <g id="arrow_out" transform="scale(0.3 0.3)">
          <a xlink:href="AI_8h__incl_org.svg" target="_base">
           <rect id="button" ry="5" rx="5" y="6" x="6" height="38" width="38"
                fill="#f2f5e9" fill-opacity="0.5" stroke="#606060" stroke-width="1.0"/>
           <path id="arrow"
             d="M 11.500037,31.436501 C 11.940474,20.09759 22.043105,11.32322 32.158766,21.979434 L 37.068811,17.246167 C 37.068811,17.246167 37.088388,32 37.088388,32 L 22.160133,31.978069 C 22.160133,31.978069 26.997745,27.140456 26.997745,27.140456 C 18.528582,18.264221 13.291696,25.230495 11.500037,31.436501 z"
             style="fill:#404040;"/>
          </a>
         </g>
        </svg>
</svg>
