<?xml version="1.0" encoding="UTF-8" standalone="no"?>
<!DOCTYPE svg PUBLIC "-//W3C//DTD SVG 1.1//EN"
 "http://www.w3.org/Graphics/SVG/1.1/DTD/svg11.dtd">
<!-- Generated by graphviz version 2.36.0 (20140111.2315)
 -->
<!-- Title: /home/travis/build/mgerhardy/simpleai/src/ai/AI.h Pages: 1 -->
<svg width="2117pt" height="498pt"
 viewBox="0.00 0.00 2117.01 498.00" xmlns="http://www.w3.org/2000/svg" xmlns:xlink="http://www.w3.org/1999/xlink">
<g id="graph0" class="graph" transform="scale(1 1) rotate(0) translate(4 494)">
<title>/home/travis/build/mgerhardy/simpleai/src/ai/AI.h</title>
<polygon fill="white" stroke="none" points="-4,4 -4,-494 2113.01,-494 2113.01,4 -4,4"/>
<!-- Node1 -->
<g id="node1" class="node"><title>Node1</title>
<polygon fill="#bfbfbf" stroke="black" points="1019.01,-448.5 1019.01,-489.5 1123.01,-489.5 1123.01,-448.5 1019.01,-448.5"/>
<text text-anchor="start" x="1027.01" y="-477.5" font-family="Helvetica,sans-Serif" font-size="10.00">/home/travis/build</text>
<text text-anchor="start" x="1027.01" y="-466.5" font-family="Helvetica,sans-Serif" font-size="10.00">/mgerhardy/simpleai</text>
<text text-anchor="middle" x="1071.01" y="-455.5" font-family="Helvetica,sans-Serif" font-size="10.00">/src/ai/AI.h</text>
</g>
<!-- Node2 -->
<g id="node2" class="node"><title>Node2</title>
<polygon fill="white" stroke="#bfbfbf" points="379.509,-56.5 379.509,-75.5 462.509,-75.5 462.509,-56.5 379.509,-56.5"/>
<text text-anchor="middle" x="421.009" y="-63.5" font-family="Helvetica,sans-Serif" font-size="10.00">unordered_map</text>
</g>
<!-- Node1&#45;&gt;Node2 -->
<g id="edge1" class="edge"><title>Node1&#45;&gt;Node2</title>
<path fill="none" stroke="midnightblue" d="M1018.68,-467.647C803.853,-465.52 1.00946,-450.639 1.00946,-347 1.00946,-347 1.00946,-347 1.00946,-177 1.00946,-146.902 -3.02839,-131.368 20.0095,-112 46.2545,-89.9353 266.88,-75.3006 369.232,-69.6361"/>
<polygon fill="midnightblue" stroke="midnightblue" points="369.552,-73.124 379.346,-69.0843 369.17,-66.1344 369.552,-73.124"/>
</g>
<!-- Node3 -->
<g id="node3" class="node"><title>Node3</title>
<polygon fill="white" stroke="#bfbfbf" points="1353.01,-112.5 1353.01,-131.5 1405.01,-131.5 1405.01,-112.5 1353.01,-112.5"/>
<text text-anchor="middle" x="1379.01" y="-119.5" font-family="Helvetica,sans-Serif" font-size="10.00">memory</text>
</g>
<!-- Node1&#45;&gt;Node3 -->
<g id="edge2" class="edge"><title>Node1&#45;&gt;Node3</title>
<path fill="none" stroke="midnightblue" d="M1109.52,-448.359C1170.76,-415.045 1289.67,-341.47 1351.01,-244 1371.23,-211.875 1376.88,-166.715 1378.44,-141.638"/>
<polygon fill="midnightblue" stroke="midnightblue" points="1381.93,-141.8 1378.9,-131.648 1374.94,-141.474 1381.93,-141.8"/>
</g>
<!-- Node4 -->
<g id="node4" class="node"><title>Node4</title>
<g id="a_node4"><a xlink:href="GroupId_8h.html" target="_top" xlink:title="group/GroupId.h">
<polygon fill="white" stroke="black" points="2023.01,-392.5 2023.01,-411.5 2109.01,-411.5 2109.01,-392.5 2023.01,-392.5"/>
<text text-anchor="middle" x="2066.01" y="-399.5" font-family="Helvetica,sans-Serif" font-size="10.00">group/GroupId.h</text>
</a>
</g>
</g>
<!-- Node1&#45;&gt;Node4 -->
<g id="edge3" class="edge"><title>Node1&#45;&gt;Node4</title>
<path fill="none" stroke="midnightblue" d="M1123.02,-466.665C1265.24,-462.632 1672.48,-448.527 2009.01,-412 2010.27,-411.863 2011.55,-411.718 2012.83,-411.565"/>
<polygon fill="midnightblue" stroke="midnightblue" points="2013.34,-415.028 2022.81,-410.272 2012.44,-408.087 2013.34,-415.028"/>
</g>
<!-- Node5 -->
<g id="node5" class="node"><title>Node5</title>
<g id="a_node5"><a xlink:href="AggroMgr_8h.html" target="_top" xlink:title="aggro/AggroMgr.h">
<polygon fill="white" stroke="black" points="1155.01,-280.5 1155.01,-299.5 1249.01,-299.5 1249.01,-280.5 1155.01,-280.5"/>
<text text-anchor="middle" x="1202.01" y="-287.5" font-family="Helvetica,sans-Serif" font-size="10.00">aggro/AggroMgr.h</text>
</a>
</g>
</g>
<!-- Node1&#45;&gt;Node5 -->
<g id="edge4" class="edge"><title>Node1&#45;&gt;Node5</title>
<path fill="none" stroke="midnightblue" d="M1085.53,-448.382C1111.47,-413.333 1165.33,-340.565 1189.63,-307.724"/>
<polygon fill="midnightblue" stroke="midnightblue" points="1192.52,-309.704 1195.66,-299.584 1186.89,-305.54 1192.52,-309.704"/>
</g>
<!-- Node7 -->
<g id="node7" class="node"><title>Node7</title>
<g id="a_node7"><a xlink:href="ICharacter_8h.html" target="_top" xlink:title="ICharacter.h">
<polygon fill="white" stroke="black" points="895.509,-224.5 895.509,-243.5 966.509,-243.5 966.509,-224.5 895.509,-224.5"/>
<text text-anchor="middle" x="931.009" y="-231.5" font-family="Helvetica,sans-Serif" font-size="10.00">ICharacter.h</text>
</a>
</g>
</g>
<!-- Node1&#45;&gt;Node7 -->
<g id="edge32" class="edge"><title>Node1&#45;&gt;Node7</title>
<path fill="none" stroke="midnightblue" d="M1059.07,-448.135C1032.08,-403.212 966.726,-294.443 941.337,-252.188"/>
<polygon fill="midnightblue" stroke="midnightblue" points="944.319,-250.355 936.169,-243.586 938.319,-253.961 944.319,-250.355"/>
</g>
<!-- Node8 -->
<g id="node8" class="node"><title>Node8</title>
<g id="a_node8"><a xlink:href="NonCopyable_8h.html" target="_top" xlink:title="common/NonCopyable.h">
<polygon fill="white" stroke="black" points="1510.51,-112.5 1510.51,-131.5 1635.51,-131.5 1635.51,-112.5 1510.51,-112.5"/>
<text text-anchor="middle" x="1573.01" y="-119.5" font-family="Helvetica,sans-Serif" font-size="10.00">common/NonCopyable.h</text>
</a>
</g>
</g>
<!-- Node1&#45;&gt;Node8 -->
<g id="edge76" class="edge"><title>Node1&#45;&gt;Node8</title>
<path fill="none" stroke="midnightblue" d="M1123.19,-465.459C1248.22,-458.988 1562,-440.361 1663.01,-412 1777.75,-379.782 1831.24,-355.989 1872.01,-244 1906.17,-150.169 1766.09,-208.851 1706.01,-188 1666.01,-174.115 1622.4,-151.178 1596.4,-136.592"/>
<polygon fill="midnightblue" stroke="midnightblue" points="1598.09,-133.522 1587.66,-131.629 1594.63,-139.609 1598.09,-133.522"/>
</g>
<!-- Node9 -->
<g id="node9" class="node"><title>Node9</title>
<g id="a_node9"><a xlink:href="Math_8h.html" target="_top" xlink:title="common/Math.h">
<polygon fill="white" stroke="black" points="540.509,-168.5 540.509,-187.5 627.509,-187.5 627.509,-168.5 540.509,-168.5"/>
<text text-anchor="middle" x="584.009" y="-175.5" font-family="Helvetica,sans-Serif" font-size="10.00">common/Math.h</text>
</a>
</g>
</g>
<!-- Node1&#45;&gt;Node9 -->
<g id="edge77" class="edge"><title>Node1&#45;&gt;Node9</title>
<path fill="none" stroke="midnightblue" d="M1018.67,-461.884C917.077,-448.547 703.009,-412.657 703.009,-347 703.009,-347 703.009,-347 703.009,-289 703.009,-241.296 650.805,-208.528 615.55,-191.838"/>
<polygon fill="midnightblue" stroke="midnightblue" points="616.666,-188.502 606.114,-187.558 613.775,-194.876 616.666,-188.502"/>
</g>
<!-- Node10 -->
<g id="node10" class="node"><title>Node10</title>
<g id="a_node10"><a xlink:href="Types_8h.html" target="_top" xlink:title="Types.h">
<polygon fill="white" stroke="black" points="933.009,-112.5 933.009,-131.5 985.009,-131.5 985.009,-112.5 933.009,-112.5"/>
<text text-anchor="middle" x="959.009" y="-119.5" font-family="Helvetica,sans-Serif" font-size="10.00">Types.h</text>
</a>
</g>
</g>
<!-- Node1&#45;&gt;Node10 -->
<g id="edge75" class="edge"><title>Node1&#45;&gt;Node10</title>
<path fill="none" stroke="midnightblue" d="M1019,-460.236C958.564,-447.925 867.009,-417.62 867.009,-347 867.009,-347 867.009,-347 867.009,-233 867.009,-190.502 907.916,-155.77 935.175,-137.344"/>
<polygon fill="midnightblue" stroke="midnightblue" points="937.336,-140.113 943.818,-131.732 933.524,-134.242 937.336,-140.113"/>
</g>
<!-- Node27 -->
<g id="node27" class="node"><title>Node27</title>
<g id="a_node27"><a xlink:href="TreeNode_8h.html" target="_top" xlink:title="tree/TreeNode.h">
<polygon fill="white" stroke="black" points="1567.51,-392.5 1567.51,-411.5 1654.51,-411.5 1654.51,-392.5 1567.51,-392.5"/>
<text text-anchor="middle" x="1611.01" y="-399.5" font-family="Helvetica,sans-Serif" font-size="10.00">tree/TreeNode.h</text>
</a>
</g>
</g>
<!-- Node1&#45;&gt;Node27 -->
<g id="edge33" class="edge"><title>Node1&#45;&gt;Node27</title>
<path fill="none" stroke="midnightblue" d="M1123.28,-461.708C1226,-449.344 1453.21,-421.995 1557.18,-409.48"/>
<polygon fill="midnightblue" stroke="midnightblue" points="1557.63,-412.95 1567.14,-408.28 1556.8,-406 1557.63,-412.95"/>
</g>
<!-- Node31 -->
<g id="node31" class="node"><title>Node31</title>
<g id="a_node31"><a xlink:href="Thread_8h.html" target="_top" xlink:title="common/Thread.h">
<polygon fill="white" stroke="black" points="743.509,-168.5 743.509,-187.5 838.509,-187.5 838.509,-168.5 743.509,-168.5"/>
<text text-anchor="middle" x="791.009" y="-175.5" font-family="Helvetica,sans-Serif" font-size="10.00">common/Thread.h</text>
</a>
</g>
</g>
<!-- Node1&#45;&gt;Node31 -->
<g id="edge74" class="edge"><title>Node1&#45;&gt;Node31</title>
<path fill="none" stroke="midnightblue" d="M1018.82,-466.346C942.653,-460.834 810.009,-438.15 810.009,-347 810.009,-347 810.009,-347 810.009,-289 810.009,-256.489 801.85,-219.35 796.226,-197.61"/>
<polygon fill="midnightblue" stroke="midnightblue" points="799.551,-196.498 793.572,-187.751 792.791,-198.317 799.551,-196.498"/>
</g>
<!-- Node40 -->
<g id="node40" class="node"><title>Node40</title>
<g id="a_node40"><a xlink:href="ITreeLoader_8h.html" target="_top" xlink:title="tree/loaders/ITreeLoader.h">
<polygon fill="white" stroke="black" points="1099.51,-224.5 1099.51,-243.5 1230.51,-243.5 1230.51,-224.5 1099.51,-224.5"/>
<text text-anchor="middle" x="1165.01" y="-231.5" font-family="Helvetica,sans-Serif" font-size="10.00">tree/loaders/ITreeLoader.h</text>
</a>
</g>
</g>
<!-- Node1&#45;&gt;Node40 -->
<g id="edge66" class="edge"><title>Node1&#45;&gt;Node40</title>
<path fill="none" stroke="midnightblue" d="M1078.66,-448.462C1092.08,-414.244 1120.85,-341.277 1146.01,-280 1149.68,-271.064 1153.84,-261.171 1157.34,-252.942"/>
<polygon fill="midnightblue" stroke="midnightblue" points="1160.62,-254.177 1161.32,-243.606 1154.18,-251.433 1160.62,-254.177"/>
</g>
<!-- Node5&#45;&gt;Node3 -->
<g id="edge6" class="edge"><title>Node5&#45;&gt;Node3</title>
<path fill="none" stroke="midnightblue" d="M1210.64,-280.321C1230.71,-260.206 1282.23,-208.991 1327.01,-168 1338.02,-157.923 1350.67,-146.958 1360.74,-138.375"/>
<polygon fill="midnightblue" stroke="midnightblue" points="1363.14,-140.934 1368.5,-131.797 1358.61,-135.595 1363.14,-140.934"/>
</g>
<!-- Node6 -->
<g id="node6" class="node"><title>Node6</title>
<polygon fill="white" stroke="#bfbfbf" points="1850.01,-112.5 1850.01,-131.5 1894.01,-131.5 1894.01,-112.5 1850.01,-112.5"/>
<text text-anchor="middle" x="1872.01" y="-119.5" font-family="Helvetica,sans-Serif" font-size="10.00">vector</text>
</g>
<!-- Node5&#45;&gt;Node6 -->
<g id="edge5" class="edge"><title>Node5&#45;&gt;Node6</title>
<path fill="none" stroke="midnightblue" d="M1249.05,-288.104C1366.14,-285.416 1668.08,-275.545 1763.01,-244 1774.1,-240.315 1844.9,-197.274 1852.01,-188 1862.32,-174.541 1867.36,-155.728 1869.79,-141.802"/>
<polygon fill="midnightblue" stroke="midnightblue" points="1873.26,-142.278 1871.24,-131.878 1866.33,-141.269 1873.26,-142.278"/>
</g>
<!-- Node5&#45;&gt;Node7 -->
<g id="edge7" class="edge"><title>Node5&#45;&gt;Node7</title>
<path fill="none" stroke="midnightblue" d="M1159.07,-280.444C1109.36,-270.539 1027.82,-254.291 976.895,-244.143"/>
<polygon fill="midnightblue" stroke="midnightblue" points="977.317,-240.659 966.826,-242.137 975.949,-247.524 977.317,-240.659"/>
</g>
<!-- Node25 -->
<g id="node25" class="node"><title>Node25</title>
<polygon fill="white" stroke="#bfbfbf" points="1287.01,-224.5 1287.01,-243.5 1343.01,-243.5 1343.01,-224.5 1287.01,-224.5"/>
<text text-anchor="middle" x="1315.01" y="-231.5" font-family="Helvetica,sans-Serif" font-size="10.00">algorithm</text>
</g>
<!-- Node5&#45;&gt;Node25 -->
<g id="edge29" class="edge"><title>Node5&#45;&gt;Node25</title>
<path fill="none" stroke="midnightblue" d="M1219.91,-280.444C1238.26,-271.675 1267.01,-257.935 1288.1,-247.858"/>
<polygon fill="midnightblue" stroke="midnightblue" points="1289.67,-250.986 1297.19,-243.516 1286.66,-244.67 1289.67,-250.986"/>
</g>
<!-- Node26 -->
<g id="node26" class="node"><title>Node26</title>
<g id="a_node26"><a xlink:href="Entry_8h.html" target="_top" xlink:title="aggro/Entry.h">
<polygon fill="white" stroke="black" points="971.509,-168.5 971.509,-187.5 1046.51,-187.5 1046.51,-168.5 971.509,-168.5"/>
<text text-anchor="middle" x="1009.01" y="-175.5" font-family="Helvetica,sans-Serif" font-size="10.00">aggro/Entry.h</text>
</a>
</g>
</g>
<!-- Node5&#45;&gt;Node26 -->
<g id="edge30" class="edge"><title>Node5&#45;&gt;Node26</title>
<path fill="none" stroke="midnightblue" d="M1174.26,-280.405C1150.93,-272.59 1117.14,-259.867 1090.01,-244 1065.85,-229.87 1041.2,-208.972 1025.54,-194.713"/>
<polygon fill="midnightblue" stroke="midnightblue" points="1027.54,-191.793 1017.83,-187.558 1022.78,-196.925 1027.54,-191.793"/>
</g>
<!-- Node7&#45;&gt;Node3 -->
<g id="edge28" class="edge"><title>Node7&#45;&gt;Node3</title>
<path fill="none" stroke="midnightblue" d="M965.79,-224.46C1048.98,-204.035 1258.75,-152.527 1343.09,-131.821"/>
<polygon fill="midnightblue" stroke="midnightblue" points="1344.09,-135.179 1352.96,-129.395 1342.42,-128.381 1344.09,-135.179"/>
</g>
<!-- Node7&#45;&gt;Node8 -->
<g id="edge8" class="edge"><title>Node7&#45;&gt;Node8</title>
<path fill="none" stroke="midnightblue" d="M966.904,-230.959C1097.8,-223.448 1542.5,-197.293 1554.01,-188 1567.57,-177.053 1571.8,-156.993 1572.95,-142.042"/>
<polygon fill="midnightblue" stroke="midnightblue" points="1576.46,-141.967 1573.34,-131.841 1569.46,-141.7 1576.46,-141.967"/>
</g>
<!-- Node7&#45;&gt;Node9 -->
<g id="edge9" class="edge"><title>Node7&#45;&gt;Node9</title>
<path fill="none" stroke="midnightblue" d="M895.505,-227.475C834.508,-217.982 709.472,-198.524 637.751,-187.363"/>
<polygon fill="midnightblue" stroke="midnightblue" points="637.989,-183.858 627.57,-185.779 636.913,-190.775 637.989,-183.858"/>
</g>
<!-- Node7&#45;&gt;Node10 -->
<g id="edge26" class="edge"><title>Node7&#45;&gt;Node10</title>
<path fill="none" stroke="midnightblue" d="M929.028,-224.358C926.502,-211.684 923.12,-187.45 929.009,-168 932.127,-157.705 938.462,-147.612 944.511,-139.602"/>
<polygon fill="midnightblue" stroke="midnightblue" points="947.237,-141.797 950.796,-131.818 941.791,-137.399 947.237,-141.797"/>
</g>
<!-- Node24 -->
<g id="node24" class="node"><title>Node24</title>
<polygon fill="white" stroke="#bfbfbf" points="745.009,-112.5 745.009,-131.5 791.009,-131.5 791.009,-112.5 745.009,-112.5"/>
<text text-anchor="middle" x="768.009" y="-119.5" font-family="Helvetica,sans-Serif" font-size="10.00">atomic</text>
</g>
<!-- Node7&#45;&gt;Node24 -->
<g id="edge27" class="edge"><title>Node7&#45;&gt;Node24</title>
<path fill="none" stroke="midnightblue" d="M895.288,-230.068C844.086,-225.041 753.803,-212.824 734.009,-188 721.817,-172.709 736.486,-152.374 750.178,-138.549"/>
<polygon fill="midnightblue" stroke="midnightblue" points="752.651,-141.027 757.507,-131.611 747.838,-135.944 752.651,-141.027"/>
</g>
<!-- Node9&#45;&gt;Node10 -->
<g id="edge10" class="edge"><title>Node9&#45;&gt;Node10</title>
<path fill="none" stroke="midnightblue" d="M627.607,-172.806C690.492,-166.407 810.451,-152.9 922.607,-131.858"/>
<polygon fill="midnightblue" stroke="midnightblue" points="923.569,-135.238 932.739,-129.932 922.262,-128.361 923.569,-135.238"/>
</g>
<!-- Node17 -->
<g id="node17" class="node"><title>Node17</title>
<polygon fill="white" stroke="#bfbfbf" points="657.009,-112.5 657.009,-131.5 727.009,-131.5 727.009,-112.5 657.009,-112.5"/>
<text text-anchor="middle" x="692.009" y="-119.5" font-family="Helvetica,sans-Serif" font-size="10.00">glm/glm.hpp</text>
</g>
<!-- Node9&#45;&gt;Node17 -->
<g id="edge19" class="edge"><title>Node9&#45;&gt;Node17</title>
<path fill="none" stroke="midnightblue" d="M601.362,-168.324C618.681,-159.664 645.525,-146.242 665.511,-136.249"/>
<polygon fill="midnightblue" stroke="midnightblue" points="667.321,-139.257 674.7,-131.655 664.191,-132.996 667.321,-139.257"/>
</g>
<!-- Node18 -->
<g id="node18" class="node"><title>Node18</title>
<polygon fill="white" stroke="#bfbfbf" points="29.5095,-112.5 29.5095,-131.5 142.509,-131.5 142.509,-112.5 29.5095,-112.5"/>
<text text-anchor="middle" x="86.0095" y="-119.5" font-family="Helvetica,sans-Serif" font-size="10.00">glm/gtc/constants.hpp</text>
</g>
<!-- Node9&#45;&gt;Node18 -->
<g id="edge20" class="edge"><title>Node9&#45;&gt;Node18</title>
<path fill="none" stroke="midnightblue" d="M540.317,-172.955C463.894,-165.772 300.735,-149.958 152.881,-132.195"/>
<polygon fill="midnightblue" stroke="midnightblue" points="153.062,-128.691 142.715,-130.967 152.223,-135.641 153.062,-128.691"/>
</g>
<!-- Node19 -->
<g id="node19" class="node"><title>Node19</title>
<polygon fill="white" stroke="#bfbfbf" points="160.509,-112.5 160.509,-131.5 261.509,-131.5 261.509,-112.5 160.509,-112.5"/>
<text text-anchor="middle" x="211.009" y="-119.5" font-family="Helvetica,sans-Serif" font-size="10.00">glm/gtc/epsilon.hpp</text>
</g>
<!-- Node9&#45;&gt;Node19 -->
<g id="edge21" class="edge"><title>Node9&#45;&gt;Node19</title>
<path fill="none" stroke="midnightblue" d="M540.306,-170.864C481.583,-162.591 373.677,-147.291 271.701,-132.24"/>
<polygon fill="midnightblue" stroke="midnightblue" points="271.94,-128.738 261.535,-130.738 270.916,-135.663 271.94,-128.738"/>
</g>
<!-- Node20 -->
<g id="node20" class="node"><title>Node20</title>
<polygon fill="white" stroke="#bfbfbf" points="279.509,-112.5 279.509,-131.5 404.509,-131.5 404.509,-112.5 279.509,-112.5"/>
<text text-anchor="middle" x="342.009" y="-119.5" font-family="Helvetica,sans-Serif" font-size="10.00">glm/gtx/compatibility.hpp</text>
</g>
<!-- Node9&#45;&gt;Node20 -->
<g id="edge22" class="edge"><title>Node9&#45;&gt;Node20</title>
<path fill="none" stroke="midnightblue" d="M545.664,-168.444C503.536,-159.043 435.803,-143.929 390.137,-133.739"/>
<polygon fill="midnightblue" stroke="midnightblue" points="390.698,-130.278 380.176,-131.516 389.173,-137.11 390.698,-130.278"/>
</g>
<!-- Node21 -->
<g id="node21" class="node"><title>Node21</title>
<polygon fill="white" stroke="#bfbfbf" points="423.009,-112.5 423.009,-131.5 515.009,-131.5 515.009,-112.5 423.009,-112.5"/>
<text text-anchor="middle" x="469.009" y="-119.5" font-family="Helvetica,sans-Serif" font-size="10.00">glm/gtx/norm.hpp</text>
</g>
<!-- Node9&#45;&gt;Node21 -->
<g id="edge23" class="edge"><title>Node9&#45;&gt;Node21</title>
<path fill="none" stroke="midnightblue" d="M565.787,-168.444C547.114,-159.675 517.853,-145.935 496.392,-135.858"/>
<polygon fill="midnightblue" stroke="midnightblue" points="497.686,-132.599 487.146,-131.516 494.71,-138.935 497.686,-132.599"/>
</g>
<!-- Node22 -->
<g id="node22" class="node"><title>Node22</title>
<polygon fill="white" stroke="#bfbfbf" points="533.009,-112.5 533.009,-131.5 573.009,-131.5 573.009,-112.5 533.009,-112.5"/>
<text text-anchor="middle" x="553.009" y="-119.5" font-family="Helvetica,sans-Serif" font-size="10.00">limits</text>
</g>
<!-- Node9&#45;&gt;Node22 -->
<g id="edge24" class="edge"><title>Node9&#45;&gt;Node22</title>
<path fill="none" stroke="midnightblue" d="M578.89,-168.083C574.602,-160.613 568.351,-149.724 563.067,-140.52"/>
<polygon fill="midnightblue" stroke="midnightblue" points="566.047,-138.681 558.033,-131.751 559.977,-142.166 566.047,-138.681"/>
</g>
<!-- Node23 -->
<g id="node23" class="node"><title>Node23</title>
<polygon fill="white" stroke="#bfbfbf" points="591.509,-112.5 591.509,-131.5 638.509,-131.5 638.509,-112.5 591.509,-112.5"/>
<text text-anchor="middle" x="615.009" y="-119.5" font-family="Helvetica,sans-Serif" font-size="10.00">math.h</text>
</g>
<!-- Node9&#45;&gt;Node23 -->
<g id="edge25" class="edge"><title>Node9&#45;&gt;Node23</title>
<path fill="none" stroke="midnightblue" d="M589.128,-168.083C593.417,-160.613 599.668,-149.724 604.952,-140.52"/>
<polygon fill="midnightblue" stroke="midnightblue" points="608.042,-142.166 609.986,-131.751 601.972,-138.681 608.042,-142.166"/>
</g>
<!-- Node10&#45;&gt;Node2 -->
<g id="edge16" class="edge"><title>Node10&#45;&gt;Node2</title>
<path fill="none" stroke="midnightblue" d="M932.763,-113.937C929.495,-113.206 926.186,-112.536 923.009,-112 759.964,-84.4836 564.099,-73.0707 472.704,-68.9804"/>
<polygon fill="midnightblue" stroke="midnightblue" points="472.754,-65.4793 462.611,-68.5396 472.449,-72.4727 472.754,-65.4793"/>
</g>
<!-- Node11 -->
<g id="node11" class="node"><title>Node11</title>
<g id="a_node11"><a xlink:href="Log_8h.html" target="_top" xlink:title="Log.h">
<polygon fill="white" stroke="black" points="938.509,-56.5 938.509,-75.5 979.509,-75.5 979.509,-56.5 938.509,-56.5"/>
<text text-anchor="middle" x="959.009" y="-63.5" font-family="Helvetica,sans-Serif" font-size="10.00">Log.h</text>
</a>
</g>
</g>
<!-- Node10&#45;&gt;Node11 -->
<g id="edge11" class="edge"><title>Node10&#45;&gt;Node11</title>
<path fill="none" stroke="midnightblue" d="M959.009,-112.083C959.009,-105.006 959.009,-94.8611 959.009,-85.9865"/>
<polygon fill="midnightblue" stroke="midnightblue" points="962.51,-85.751 959.009,-75.7511 955.51,-85.7511 962.51,-85.751"/>
</g>
<!-- Node12 -->
<g id="node12" class="node"><title>Node12</title>
<polygon fill="white" stroke="#bfbfbf" points="959.509,-0.5 959.509,-19.5 1002.51,-19.5 1002.51,-0.5 959.509,-0.5"/>
<text text-anchor="middle" x="981.009" y="-7.5" font-family="Helvetica,sans-Serif" font-size="10.00">cstdio</text>
</g>
<!-- Node10&#45;&gt;Node12 -->
<g id="edge18" class="edge"><title>Node10&#45;&gt;Node12</title>
<path fill="none" stroke="midnightblue" d="M949.79,-112.178C937.909,-99.686 919.813,-76.1209 929.009,-56 934.787,-43.3602 946.062,-32.911 956.64,-25.2737"/>
<polygon fill="midnightblue" stroke="midnightblue" points="958.858,-28.0009 965.226,-19.5333 954.968,-22.1817 958.858,-28.0009"/>
</g>
<!-- Node15 -->
<g id="node15" class="node"><title>Node15</title>
<polygon fill="white" stroke="#bfbfbf" points="1708.51,-56.5 1708.51,-75.5 1749.51,-75.5 1749.51,-56.5 1708.51,-56.5"/>
<text text-anchor="middle" x="1729.01" y="-63.5" font-family="Helvetica,sans-Serif" font-size="10.00">string</text>
</g>
<!-- Node10&#45;&gt;Node15 -->
<g id="edge15" class="edge"><title>Node10&#45;&gt;Node15</title>
<path fill="none" stroke="midnightblue" d="M985.07,-119.172C1101.34,-111.018 1572.52,-77.9745 1698.12,-69.1664"/>
<polygon fill="midnightblue" stroke="midnightblue" points="1698.47,-72.6503 1708.2,-68.4592 1697.98,-65.6674 1698.47,-72.6503"/>
</g>
<!-- Node16 -->
<g id="node16" class="node"><title>Node16</title>
<polygon fill="white" stroke="#bfbfbf" points="997.509,-56.5 997.509,-75.5 1046.51,-75.5 1046.51,-56.5 997.509,-56.5"/>
<text text-anchor="middle" x="1022.01" y="-63.5" font-family="Helvetica,sans-Serif" font-size="10.00">cassert</text>
</g>
<!-- Node10&#45;&gt;Node16 -->
<g id="edge17" class="edge"><title>Node10&#45;&gt;Node16</title>
<path fill="none" stroke="midnightblue" d="M969.132,-112.324C978.536,-104.263 992.754,-92.0765 1004.08,-82.3695"/>
<polygon fill="midnightblue" stroke="midnightblue" points="1006.39,-84.9993 1011.7,-75.8339 1001.83,-79.6844 1006.39,-84.9993"/>
</g>
<!-- Node11&#45;&gt;Node12 -->
<g id="edge12" class="edge"><title>Node11&#45;&gt;Node12</title>
<path fill="none" stroke="midnightblue" d="M962.642,-56.083C965.622,-48.77 969.936,-38.1814 973.634,-29.1034"/>
<polygon fill="midnightblue" stroke="midnightblue" points="976.913,-30.3326 977.444,-19.7511 970.43,-27.6914 976.913,-30.3326"/>
</g>
<!-- Node13 -->
<g id="node13" class="node"><title>Node13</title>
<polygon fill="white" stroke="#bfbfbf" points="1065.51,-0.5 1065.51,-19.5 1114.51,-19.5 1114.51,-0.5 1065.51,-0.5"/>
<text text-anchor="middle" x="1090.01" y="-7.5" font-family="Helvetica,sans-Serif" font-size="10.00">cstdarg</text>
</g>
<!-- Node11&#45;&gt;Node13 -->
<g id="edge13" class="edge"><title>Node11&#45;&gt;Node13</title>
<path fill="none" stroke="midnightblue" d="M979.767,-56.4435C1001.33,-47.5566 1035.27,-33.5632 1059.8,-23.4514"/>
<polygon fill="midnightblue" stroke="midnightblue" points="1061.44,-26.5634 1069.35,-19.5164 1058.77,-20.0917 1061.44,-26.5634"/>
</g>
<!-- Node14 -->
<g id="node14" class="node"><title>Node14</title>
<polygon fill="white" stroke="#bfbfbf" points="895.009,-0.5 895.009,-19.5 941.009,-19.5 941.009,-0.5 895.009,-0.5"/>
<text text-anchor="middle" x="918.009" y="-7.5" font-family="Helvetica,sans-Serif" font-size="10.00">cstring</text>
</g>
<!-- Node11&#45;&gt;Node14 -->
<g id="edge14" class="edge"><title>Node11&#45;&gt;Node14</title>
<path fill="none" stroke="midnightblue" d="M952.239,-56.083C946.448,-48.4554 937.951,-37.2645 930.872,-27.9408"/>
<polygon fill="midnightblue" stroke="midnightblue" points="933.488,-25.5991 924.654,-19.7511 927.913,-29.8321 933.488,-25.5991"/>
</g>
<!-- Node26&#45;&gt;Node10 -->
<g id="edge31" class="edge"><title>Node26&#45;&gt;Node10</title>
<path fill="none" stroke="midnightblue" d="M1000.75,-168.083C993.545,-160.298 982.9,-148.801 974.164,-139.367"/>
<polygon fill="midnightblue" stroke="midnightblue" points="976.475,-136.711 967.112,-131.751 971.338,-141.467 976.475,-136.711"/>
</g>
<!-- Node27&#45;&gt;Node3 -->
<g id="edge64" class="edge"><title>Node27&#45;&gt;Node3</title>
<path fill="none" stroke="midnightblue" d="M1611.01,-392.442C1611.01,-373.936 1611.01,-328.812 1611.01,-291 1611.01,-291 1611.01,-291 1611.01,-233 1611.01,-147.494 1480.75,-128.368 1415.44,-124.152"/>
<polygon fill="midnightblue" stroke="midnightblue" points="1415.35,-120.642 1405.17,-123.578 1414.96,-127.631 1415.35,-120.642"/>
</g>
<!-- Node27&#45;&gt;Node6 -->
<g id="edge62" class="edge"><title>Node27&#45;&gt;Node6</title>
<path fill="none" stroke="midnightblue" d="M1654.71,-395.192C1689.75,-389.17 1739.29,-377.508 1778.01,-356 1841.78,-320.572 1856.53,-304.014 1898.01,-244 1918.08,-214.969 1935.2,-200.31 1921.01,-168 1915.62,-155.732 1905.05,-145.341 1895.11,-137.646"/>
<polygon fill="midnightblue" stroke="midnightblue" points="1896.84,-134.581 1886.67,-131.598 1892.76,-140.27 1896.84,-134.581"/>
</g>
<!-- Node27&#45;&gt;Node10 -->
<g id="edge34" class="edge"><title>Node27&#45;&gt;Node10</title>
<path fill="none" stroke="midnightblue" d="M1567.28,-396.414C1483.17,-386.538 1294.06,-359.189 1146.01,-300 1057.11,-264.46 1010.83,-270.356 962.009,-188 953.819,-174.182 953.802,-155.662 955.405,-141.925"/>
<polygon fill="midnightblue" stroke="midnightblue" points="958.913,-142.139 956.989,-131.72 951.996,-141.065 958.913,-142.139"/>
</g>
<!-- Node27&#45;&gt;Node15 -->
<g id="edge63" class="edge"><title>Node27&#45;&gt;Node15</title>
<path fill="none" stroke="midnightblue" d="M1654.57,-396.796C1695.98,-391.51 1759.15,-380.029 1809.01,-356 1893.57,-315.245 1923.23,-280.852 1937.01,-188 1942.03,-154.174 1949.01,-136.356 1925.01,-112 1902.18,-88.8332 1808.75,-75.551 1759.59,-70.0372"/>
<polygon fill="midnightblue" stroke="midnightblue" points="1759.84,-66.5447 1749.52,-68.9482 1759.09,-73.504 1759.84,-66.5447"/>
</g>
<!-- Node27&#45;&gt;Node25 -->
<g id="edge65" class="edge"><title>Node27&#45;&gt;Node25</title>
<path fill="none" stroke="midnightblue" d="M1595.51,-392.309C1547.06,-365.136 1398.17,-281.636 1339.31,-248.63"/>
<polygon fill="midnightblue" stroke="midnightblue" points="1340.79,-245.444 1330.35,-243.605 1337.36,-251.549 1340.79,-245.444"/>
</g>
<!-- Node28 -->
<g id="node28" class="node"><title>Node28</title>
<g id="a_node28"><a xlink:href="MemoryAllocator_8h.html" target="_top" xlink:title="common/MemoryAllocator.h">
<polygon fill="white" stroke="black" points="1443.51,-224.5 1443.51,-243.5 1582.51,-243.5 1582.51,-224.5 1443.51,-224.5"/>
<text text-anchor="middle" x="1513.01" y="-231.5" font-family="Helvetica,sans-Serif" font-size="10.00">common/MemoryAllocator.h</text>
</a>
</g>
</g>
<!-- Node27&#45;&gt;Node28 -->
<g id="edge35" class="edge"><title>Node27&#45;&gt;Node28</title>
<path fill="none" stroke="midnightblue" d="M1605.74,-392.075C1590.11,-365.606 1543.83,-287.209 1523.17,-252.21"/>
<polygon fill="midnightblue" stroke="midnightblue" points="1526.17,-250.4 1518.07,-243.568 1520.14,-253.959 1526.17,-250.4"/>
</g>
<!-- Node29 -->
<g id="node29" class="node"><title>Node29</title>
<g id="a_node29"><a xlink:href="ICondition_8h.html" target="_top" xlink:title="Condition related stuff. ">
<polygon fill="white" stroke="black" points="1659.01,-280.5 1659.01,-299.5 1775.01,-299.5 1775.01,-280.5 1659.01,-280.5"/>
<text text-anchor="middle" x="1717.01" y="-287.5" font-family="Helvetica,sans-Serif" font-size="10.00">conditions/ICondition.h</text>
</a>
</g>
</g>
<!-- Node27&#45;&gt;Node29 -->
<g id="edge37" class="edge"><title>Node27&#45;&gt;Node29</title>
<path fill="none" stroke="midnightblue" d="M1618.1,-392.324C1628.62,-379.607 1649.13,-355.321 1668.01,-336 1678,-325.778 1689.78,-314.923 1699.29,-306.436"/>
<polygon fill="midnightblue" stroke="midnightblue" points="1701.78,-308.907 1706.95,-299.663 1697.14,-303.661 1701.78,-308.907"/>
</g>
<!-- Node39 -->
<g id="node39" class="node"><title>Node39</title>
<g id="a_node39"><a xlink:href="True_8h.html" target="_top" xlink:title="conditions/True.h">
<polygon fill="white" stroke="black" points="1677.01,-336.5 1677.01,-355.5 1769.01,-355.5 1769.01,-336.5 1677.01,-336.5"/>
<text text-anchor="middle" x="1723.01" y="-343.5" font-family="Helvetica,sans-Serif" font-size="10.00">conditions/True.h</text>
</a>
</g>
</g>
<!-- Node27&#45;&gt;Node39 -->
<g id="edge60" class="edge"><title>Node27&#45;&gt;Node39</title>
<path fill="none" stroke="midnightblue" d="M1629,-392.324C1647.05,-383.625 1675.06,-370.12 1695.81,-360.113"/>
<polygon fill="midnightblue" stroke="midnightblue" points="1697.57,-363.15 1705.06,-355.655 1694.53,-356.845 1697.57,-363.15"/>
</g>
<!-- Node28&#45;&gt;Node3 -->
<g id="edge36" class="edge"><title>Node28&#45;&gt;Node3</title>
<path fill="none" stroke="midnightblue" d="M1464.83,-224.463C1441.73,-218.054 1415.38,-206.98 1398.01,-188 1386.49,-175.407 1381.92,-156.191 1380.13,-141.915"/>
<polygon fill="midnightblue" stroke="midnightblue" points="1383.6,-141.388 1379.21,-131.745 1376.63,-142.021 1383.6,-141.388"/>
</g>
<!-- Node29&#45;&gt;Node3 -->
<g id="edge41" class="edge"><title>Node29&#45;&gt;Node3</title>
<path fill="none" stroke="midnightblue" d="M1706.5,-280.412C1696.41,-271.845 1681.11,-257.981 1670.01,-244 1645.61,-213.252 1657.22,-190.442 1625.01,-168 1591.66,-144.76 1475.47,-131.442 1415.48,-125.965"/>
<polygon fill="midnightblue" stroke="midnightblue" points="1415.59,-122.46 1405.32,-125.062 1414.97,-129.433 1415.59,-122.46"/>
</g>
<!-- Node29&#45;&gt;Node6 -->
<g id="edge39" class="edge"><title>Node29&#45;&gt;Node6</title>
<path fill="none" stroke="midnightblue" d="M1775.13,-282.659C1806.44,-276.809 1844.24,-265.573 1872.01,-244 1901.09,-221.41 1916.47,-202.997 1905.01,-168 1901.52,-157.34 1894.44,-147.117 1887.72,-139.117"/>
<polygon fill="midnightblue" stroke="midnightblue" points="1890.31,-136.763 1881.03,-131.66 1885.11,-141.439 1890.31,-136.763"/>
</g>
<!-- Node29&#45;&gt;Node15 -->
<g id="edge38" class="edge"><title>Node29&#45;&gt;Node15</title>
<path fill="none" stroke="midnightblue" d="M1775.37,-287.748C1814.24,-284.002 1864.19,-273.208 1898.01,-244 1918.37,-226.413 1915.8,-214.397 1921.01,-188 1927.75,-153.842 1927.51,-135.71 1902.01,-112 1862.75,-75.4905 1797.69,-67.7637 1759.54,-66.5989"/>
<polygon fill="midnightblue" stroke="midnightblue" points="1759.59,-63.0994 1749.53,-66.4259 1759.47,-70.0984 1759.59,-63.0994"/>
</g>
<!-- Node29&#45;&gt;Node28 -->
<g id="edge42" class="edge"><title>Node29&#45;&gt;Node28</title>
<path fill="none" stroke="midnightblue" d="M1684.69,-280.444C1649.62,-271.162 1593.51,-256.309 1555.04,-246.127"/>
<polygon fill="midnightblue" stroke="midnightblue" points="1555.75,-242.692 1545.18,-243.516 1553.95,-249.459 1555.75,-242.692"/>
</g>
<!-- Node30 -->
<g id="node30" class="node"><title>Node30</title>
<polygon fill="white" stroke="#bfbfbf" points="1811.01,-224.5 1811.01,-243.5 1863.01,-243.5 1863.01,-224.5 1811.01,-224.5"/>
<text text-anchor="middle" x="1837.01" y="-231.5" font-family="Helvetica,sans-Serif" font-size="10.00">sstream</text>
</g>
<!-- Node29&#45;&gt;Node30 -->
<g id="edge40" class="edge"><title>Node29&#45;&gt;Node30</title>
<path fill="none" stroke="midnightblue" d="M1736.02,-280.444C1755.6,-271.636 1786.32,-257.812 1808.74,-247.722"/>
<polygon fill="midnightblue" stroke="midnightblue" points="1810.4,-250.812 1818.08,-243.516 1807.53,-244.428 1810.4,-250.812"/>
</g>
<!-- Node29&#45;&gt;Node31 -->
<g id="edge43" class="edge"><title>Node29&#45;&gt;Node31</title>
<path fill="none" stroke="midnightblue" d="M1658.8,-287.588C1547.7,-284.282 1297.95,-273.909 1090.01,-244 997.252,-230.658 890.351,-204.839 832.846,-190.073"/>
<polygon fill="midnightblue" stroke="midnightblue" points="833.593,-186.652 823.035,-187.538 831.842,-193.429 833.593,-186.652"/>
</g>
<!-- Node34 -->
<g id="node34" class="node"><title>Node34</title>
<g id="a_node34"><a xlink:href="AIFactories_8h.html" target="_top" xlink:title="AIFactories.h">
<polygon fill="white" stroke="black" points="1679.51,-224.5 1679.51,-243.5 1754.51,-243.5 1754.51,-224.5 1679.51,-224.5"/>
<text text-anchor="middle" x="1717.01" y="-231.5" font-family="Helvetica,sans-Serif" font-size="10.00">AIFactories.h</text>
</a>
</g>
</g>
<!-- Node29&#45;&gt;Node34 -->
<g id="edge48" class="edge"><title>Node29&#45;&gt;Node34</title>
<path fill="none" stroke="midnightblue" d="M1717.01,-280.083C1717.01,-273.006 1717.01,-262.861 1717.01,-253.986"/>
<polygon fill="midnightblue" stroke="midnightblue" points="1720.51,-253.751 1717.01,-243.751 1713.51,-253.751 1720.51,-253.751"/>
</g>
<!-- Node31&#45;&gt;Node10 -->
<g id="edge44" class="edge"><title>Node31&#45;&gt;Node10</title>
<path fill="none" stroke="midnightblue" d="M817.63,-168.444C846.099,-159.293 891.412,-144.728 923.041,-134.561"/>
<polygon fill="midnightblue" stroke="midnightblue" points="924.341,-137.82 932.79,-131.428 922.199,-131.156 924.341,-137.82"/>
</g>
<!-- Node31&#45;&gt;Node24 -->
<g id="edge47" class="edge"><title>Node31&#45;&gt;Node24</title>
<path fill="none" stroke="midnightblue" d="M787.211,-168.083C784.097,-160.77 779.587,-150.181 775.72,-141.103"/>
<polygon fill="midnightblue" stroke="midnightblue" points="778.876,-139.58 771.737,-131.751 772.435,-142.323 778.876,-139.58"/>
</g>
<!-- Node32 -->
<g id="node32" class="node"><title>Node32</title>
<polygon fill="white" stroke="#bfbfbf" points="871.009,-112.5 871.009,-131.5 915.009,-131.5 915.009,-112.5 871.009,-112.5"/>
<text text-anchor="middle" x="893.009" y="-119.5" font-family="Helvetica,sans-Serif" font-size="10.00">thread</text>
</g>
<!-- Node31&#45;&gt;Node32 -->
<g id="edge45" class="edge"><title>Node31&#45;&gt;Node32</title>
<path fill="none" stroke="midnightblue" d="M807.398,-168.324C823.681,-159.703 848.877,-146.364 867.726,-136.386"/>
<polygon fill="midnightblue" stroke="midnightblue" points="869.462,-139.427 876.662,-131.655 866.187,-133.24 869.462,-139.427"/>
</g>
<!-- Node33 -->
<g id="node33" class="node"><title>Node33</title>
<polygon fill="white" stroke="#bfbfbf" points="809.009,-112.5 809.009,-131.5 853.009,-131.5 853.009,-112.5 809.009,-112.5"/>
<text text-anchor="middle" x="831.009" y="-119.5" font-family="Helvetica,sans-Serif" font-size="10.00">mutex</text>
</g>
<!-- Node31&#45;&gt;Node33 -->
<g id="edge46" class="edge"><title>Node31&#45;&gt;Node33</title>
<path fill="none" stroke="midnightblue" d="M797.615,-168.083C803.265,-160.455 811.554,-149.264 818.461,-139.941"/>
<polygon fill="midnightblue" stroke="midnightblue" points="821.387,-141.87 824.527,-131.751 815.762,-137.703 821.387,-141.87"/>
</g>
<!-- Node34&#45;&gt;Node6 -->
<g id="edge59" class="edge"><title>Node34&#45;&gt;Node6</title>
<path fill="none" stroke="midnightblue" d="M1753.21,-224.48C1776.7,-217.587 1806.92,-206.013 1829.01,-188 1844.53,-175.338 1856.48,-155.579 1863.8,-141.169"/>
<polygon fill="midnightblue" stroke="midnightblue" points="1867.13,-142.329 1868.3,-131.799 1860.82,-139.301 1867.13,-142.329"/>
</g>
<!-- Node35 -->
<g id="node35" class="node"><title>Node35</title>
<g id="a_node35"><a xlink:href="IAIFactory_8h.html" target="_top" xlink:title="IAIFactory.h">
<polygon fill="white" stroke="black" points="1715.51,-168.5 1715.51,-187.5 1786.51,-187.5 1786.51,-168.5 1715.51,-168.5"/>
<text text-anchor="middle" x="1751.01" y="-175.5" font-family="Helvetica,sans-Serif" font-size="10.00">IAIFactory.h</text>
</a>
</g>
</g>
<!-- Node34&#45;&gt;Node35 -->
<g id="edge49" class="edge"><title>Node34&#45;&gt;Node35</title>
<path fill="none" stroke="midnightblue" d="M1722.62,-224.083C1727.38,-216.534 1734.33,-205.495 1740.16,-196.23"/>
<polygon fill="midnightblue" stroke="midnightblue" points="1743.13,-198.078 1745.5,-187.751 1737.21,-194.349 1743.13,-198.078"/>
</g>
<!-- Node37 -->
<g id="node37" class="node"><title>Node37</title>
<g id="a_node37"><a xlink:href="IFactoryRegistry_8h.html" target="_top" xlink:title="common/IFactoryRegistry.h">
<polygon fill="white" stroke="black" points="1407.01,-168.5 1407.01,-187.5 1545.01,-187.5 1545.01,-168.5 1407.01,-168.5"/>
<text text-anchor="middle" x="1476.01" y="-175.5" font-family="Helvetica,sans-Serif" font-size="10.00">common/IFactoryRegistry.h</text>
</a>
</g>
</g>
<!-- Node34&#45;&gt;Node37 -->
<g id="edge54" class="edge"><title>Node34&#45;&gt;Node37</title>
<path fill="none" stroke="midnightblue" d="M1679.35,-224.562C1637.51,-215.186 1569.83,-200.021 1524.16,-189.789"/>
<polygon fill="midnightblue" stroke="midnightblue" points="1524.72,-186.328 1514.2,-187.556 1523.19,-193.158 1524.72,-186.328"/>
</g>
<!-- Node35&#45;&gt;Node3 -->
<g id="edge50" class="edge"><title>Node35&#45;&gt;Node3</title>
<path fill="none" stroke="midnightblue" d="M1715.34,-171.822C1644.59,-161.553 1487.18,-138.703 1415.65,-128.319"/>
<polygon fill="midnightblue" stroke="midnightblue" points="1415.74,-124.795 1405.34,-126.822 1414.73,-131.722 1415.74,-124.795"/>
</g>
<!-- Node35&#45;&gt;Node6 -->
<g id="edge52" class="edge"><title>Node35&#45;&gt;Node6</title>
<path fill="none" stroke="midnightblue" d="M1770.18,-168.444C1789.92,-159.636 1820.89,-145.812 1843.5,-135.722"/>
<polygon fill="midnightblue" stroke="midnightblue" points="1845.22,-138.788 1852.93,-131.516 1842.37,-132.396 1845.22,-138.788"/>
</g>
<!-- Node35&#45;&gt;Node15 -->
<g id="edge51" class="edge"><title>Node35&#45;&gt;Node15</title>
<path fill="none" stroke="midnightblue" d="M1749.28,-168.368C1745.73,-150.617 1737.54,-109.666 1732.73,-85.5974"/>
<polygon fill="midnightblue" stroke="midnightblue" points="1736.12,-84.7108 1730.73,-75.5914 1729.26,-86.0837 1736.12,-84.7108"/>
</g>
<!-- Node36 -->
<g id="node36" class="node"><title>Node36</title>
<polygon fill="white" stroke="#bfbfbf" points="1757.51,-112.5 1757.51,-131.5 1786.51,-131.5 1786.51,-112.5 1757.51,-112.5"/>
<text text-anchor="middle" x="1772.01" y="-119.5" font-family="Helvetica,sans-Serif" font-size="10.00">list</text>
</g>
<!-- Node35&#45;&gt;Node36 -->
<g id="edge53" class="edge"><title>Node35&#45;&gt;Node36</title>
<path fill="none" stroke="midnightblue" d="M1754.48,-168.083C1757.32,-160.77 1761.44,-150.181 1764.97,-141.103"/>
<polygon fill="midnightblue" stroke="midnightblue" points="1768.24,-142.34 1768.61,-131.751 1761.72,-139.803 1768.24,-142.34"/>
</g>
<!-- Node37&#45;&gt;Node3 -->
<g id="edge57" class="edge"><title>Node37&#45;&gt;Node3</title>
<path fill="none" stroke="midnightblue" d="M1460.42,-168.324C1445.01,-159.743 1421.2,-146.486 1403.3,-136.522"/>
<polygon fill="midnightblue" stroke="midnightblue" points="1405,-133.461 1394.56,-131.655 1401.59,-139.577 1405,-133.461"/>
</g>
<!-- Node37&#45;&gt;Node8 -->
<g id="edge56" class="edge"><title>Node37&#45;&gt;Node8</title>
<path fill="none" stroke="midnightblue" d="M1491.59,-168.324C1507.01,-159.743 1530.82,-146.486 1548.72,-136.522"/>
<polygon fill="midnightblue" stroke="midnightblue" points="1550.43,-139.577 1557.46,-131.655 1547.02,-133.461 1550.43,-139.577"/>
</g>
<!-- Node37&#45;&gt;Node10 -->
<g id="edge55" class="edge"><title>Node37&#45;&gt;Node10</title>
<path fill="none" stroke="midnightblue" d="M1406.82,-169.773C1295.49,-158.145 1080.45,-135.684 995.146,-126.774"/>
<polygon fill="midnightblue" stroke="midnightblue" points="995.476,-123.29 985.166,-125.732 994.749,-130.252 995.476,-123.29"/>
</g>
<!-- Node38 -->
<g id="node38" class="node"><title>Node38</title>
<polygon fill="white" stroke="#bfbfbf" points="1258.51,-112.5 1258.51,-131.5 1293.51,-131.5 1293.51,-112.5 1258.51,-112.5"/>
<text text-anchor="middle" x="1276.01" y="-119.5" font-family="Helvetica,sans-Serif" font-size="10.00">map</text>
</g>
<!-- Node37&#45;&gt;Node38 -->
<g id="edge58" class="edge"><title>Node37&#45;&gt;Node38</title>
<path fill="none" stroke="midnightblue" d="M1444.32,-168.444C1405.52,-157.968 1340.45,-140.399 1303.61,-130.453"/>
<polygon fill="midnightblue" stroke="midnightblue" points="1304.15,-126.973 1293.58,-127.745 1302.33,-133.731 1304.15,-126.973"/>
</g>
<!-- Node39&#45;&gt;Node29 -->
<g id="edge61" class="edge"><title>Node39&#45;&gt;Node29</title>
<path fill="none" stroke="midnightblue" d="M1722.02,-336.083C1721.22,-328.927 1720.08,-318.635 1719.09,-309.691"/>
<polygon fill="midnightblue" stroke="midnightblue" points="1722.56,-309.303 1717.98,-299.751 1715.61,-310.076 1722.56,-309.303"/>
</g>
<!-- Node40&#45;&gt;Node3 -->
<g id="edge68" class="edge"><title>Node40&#45;&gt;Node3</title>
<path fill="none" stroke="midnightblue" d="M1181.01,-224.487C1204.58,-211.975 1250.07,-187.94 1289.01,-168 1310.26,-157.117 1334.48,-145.027 1352.43,-136.121"/>
<polygon fill="midnightblue" stroke="midnightblue" points="1354.3,-139.103 1361.71,-131.529 1351.19,-132.831 1354.3,-139.103"/>
</g>
<!-- Node40&#45;&gt;Node6 -->
<g id="edge70" class="edge"><title>Node40&#45;&gt;Node6</title>
<path fill="none" stroke="midnightblue" d="M1230.73,-227.655C1246.23,-226.424 1262.7,-225.143 1278.01,-224 1392.86,-215.428 1688.29,-231.285 1795.01,-188 1820.73,-177.57 1844.14,-155.11 1858.22,-139.532"/>
<polygon fill="midnightblue" stroke="midnightblue" points="1861.11,-141.543 1865.05,-131.706 1855.84,-136.943 1861.11,-141.543"/>
</g>
<!-- Node40&#45;&gt;Node12 -->
<g id="edge73" class="edge"><title>Node40&#45;&gt;Node12</title>
<path fill="none" stroke="midnightblue" d="M1159.93,-224.314C1140.22,-190.657 1069.15,-70.0023 1055.01,-56 1041.86,-42.981 1024.26,-32.0811 1009.52,-24.2708"/>
<polygon fill="midnightblue" stroke="midnightblue" points="1010.82,-21.0069 1000.32,-19.5933 1007.65,-27.2463 1010.82,-21.0069"/>
</g>
<!-- Node40&#45;&gt;Node13 -->
<g id="edge72" class="edge"><title>Node40&#45;&gt;Node13</title>
<path fill="none" stroke="midnightblue" d="M1162.07,-224.297C1150.99,-191.494 1111.59,-74.8835 1096.22,-29.3774"/>
<polygon fill="midnightblue" stroke="midnightblue" points="1099.53,-28.2374 1093.01,-19.8837 1092.9,-30.478 1099.53,-28.2374"/>
</g>
<!-- Node40&#45;&gt;Node15 -->
<g id="edge69" class="edge"><title>Node40&#45;&gt;Node15</title>
<path fill="none" stroke="midnightblue" d="M1167.99,-224.24C1176.41,-201.012 1202.82,-137.86 1249.01,-112 1326.37,-68.687 1604.44,-66.244 1698.02,-66.6892"/>
<polygon fill="midnightblue" stroke="midnightblue" points="1698.23,-70.1904 1708.25,-66.7533 1698.27,-63.1905 1698.23,-70.1904"/>
</g>
<!-- Node40&#45;&gt;Node31 -->
<g id="edge67" class="edge"><title>Node40&#45;&gt;Node31</title>
<path fill="none" stroke="midnightblue" d="M1105.75,-224.444C1035.27,-214.268 918.422,-197.396 848.66,-187.324"/>
<polygon fill="midnightblue" stroke="midnightblue" points="849.117,-183.854 838.72,-185.889 848.117,-190.782 849.117,-183.854"/>
</g>
<!-- Node40&#45;&gt;Node38 -->
<g id="edge71" class="edge"><title>Node40&#45;&gt;Node38</title>
<path fill="none" stroke="midnightblue" d="M1173.72,-224.368C1192.36,-205.894 1236.36,-162.293 1260.12,-138.744"/>
<polygon fill="midnightblue" stroke="midnightblue" points="1262.7,-141.117 1267.34,-131.591 1257.77,-136.144 1262.7,-141.117"/>
</g>
</g>
</svg>
