<?xml version="1.0" encoding="UTF-8" standalone="no"?>
<!DOCTYPE svg PUBLIC "-//W3C//DTD SVG 1.1//EN"
 "http://www.w3.org/Graphics/SVG/1.1/DTD/svg11.dtd">
<!-- Generated by graphviz version 2.36.0 (20140111.2315)
 -->
<!-- Title: /home/travis/build/mgerhardy/simpleai/src/ai/server/AIAddNodeMessage.h Pages: 1 -->
<svg width="400pt" height="296pt"
 viewBox="0.00 0.00 400.00 296.00" xmlns="http://www.w3.org/2000/svg" xmlns:xlink="http://www.w3.org/1999/xlink">
<g id="graph0" class="graph" transform="scale(1 1) rotate(0) translate(4 292)">
<title>/home/travis/build/mgerhardy/simpleai/src/ai/server/AIAddNodeMessage.h</title>
<polygon fill="white" stroke="none" points="-4,4 -4,-292 396,-292 396,4 -4,4"/>
<!-- Node1 -->
<g id="node1" class="node"><title>Node1</title>
<polygon fill="#bfbfbf" stroke="black" points="98.5,-246.5 98.5,-287.5 273.5,-287.5 273.5,-246.5 98.5,-246.5"/>
<text text-anchor="start" x="106.5" y="-275.5" font-family="Helvetica,sans-Serif" font-size="10.00">/home/travis/build</text>
<text text-anchor="start" x="106.5" y="-264.5" font-family="Helvetica,sans-Serif" font-size="10.00">/mgerhardy/simpleai</text>
<text text-anchor="middle" x="186" y="-253.5" font-family="Helvetica,sans-Serif" font-size="10.00">/src/ai/server/AIAddNodeMessage.h</text>
</g>
<!-- Node2 -->
<g id="node2" class="node"><title>Node2</title>
<g id="a_node2"><a xlink:href="AddNodeHandler_8h.html" target="_top" xlink:title="/home/travis/build\l/mgerhardy/simpleai\l/src/ai/server/AddNodeHandler.h">
<polygon fill="white" stroke="black" points="-0.5,-162.5 -0.5,-203.5 158.5,-203.5 158.5,-162.5 -0.5,-162.5"/>
<text text-anchor="start" x="7.5" y="-191.5" font-family="Helvetica,sans-Serif" font-size="10.00">/home/travis/build</text>
<text text-anchor="start" x="7.5" y="-180.5" font-family="Helvetica,sans-Serif" font-size="10.00">/mgerhardy/simpleai</text>
<text text-anchor="middle" x="79" y="-169.5" font-family="Helvetica,sans-Serif" font-size="10.00">/src/ai/server/AddNodeHandler.h</text>
</a>
</g>
</g>
<!-- Node1&#45;&gt;Node2 -->
<g id="edge1" class="edge"><title>Node1&#45;&gt;Node2</title>
<path fill="none" stroke="midnightblue" d="M152.153,-240.062C136.83,-228.318 119.007,-214.66 104.791,-203.765"/>
<polygon fill="midnightblue" stroke="midnightblue" points="150.305,-243.054 160.371,-246.359 154.563,-237.498 150.305,-243.054"/>
</g>
<!-- Node4 -->
<g id="node4" class="node"><title>Node4</title>
<g id="a_node4"><a xlink:href="SimpleAI_8h.html" target="_top" xlink:title="/home/travis/build\l/mgerhardy/simpleai\l/src/ai/SimpleAI.h">
<polygon fill="white" stroke="black" points="153,-0.5 153,-41.5 257,-41.5 257,-0.5 153,-0.5"/>
<text text-anchor="start" x="161" y="-29.5" font-family="Helvetica,sans-Serif" font-size="10.00">/home/travis/build</text>
<text text-anchor="start" x="161" y="-18.5" font-family="Helvetica,sans-Serif" font-size="10.00">/mgerhardy/simpleai</text>
<text text-anchor="middle" x="205" y="-7.5" font-family="Helvetica,sans-Serif" font-size="10.00">/src/ai/SimpleAI.h</text>
</a>
</g>
</g>
<!-- Node1&#45;&gt;Node4 -->
<g id="edge8" class="edge"><title>Node1&#45;&gt;Node4</title>
<path fill="none" stroke="midnightblue" d="M188.323,-236.17C192.262,-185.579 200.149,-84.2975 203.47,-41.6482"/>
<polygon fill="midnightblue" stroke="midnightblue" points="184.81,-236.203 187.523,-246.445 191.789,-236.747 184.81,-236.203"/>
</g>
<!-- Node5 -->
<g id="node5" class="node"><title>Node5</title>
<g id="a_node5"><a xlink:href="ProtocolMessageFactory_8h.html" target="_top" xlink:title="/home/travis/build\l/mgerhardy/simpleai\l/src/ai/server/ProtocolMessage\lFactory.h">
<polygon fill="white" stroke="black" points="214,-157 214,-209 366,-209 366,-157 214,-157"/>
<text text-anchor="start" x="222" y="-197" font-family="Helvetica,sans-Serif" font-size="10.00">/home/travis/build</text>
<text text-anchor="start" x="222" y="-186" font-family="Helvetica,sans-Serif" font-size="10.00">/mgerhardy/simpleai</text>
<text text-anchor="start" x="222" y="-175" font-family="Helvetica,sans-Serif" font-size="10.00">/src/ai/server/ProtocolMessage</text>
<text text-anchor="middle" x="290" y="-164" font-family="Helvetica,sans-Serif" font-size="10.00">Factory.h</text>
</a>
</g>
</g>
<!-- Node1&#45;&gt;Node5 -->
<g id="edge4" class="edge"><title>Node1&#45;&gt;Node5</title>
<path fill="none" stroke="midnightblue" d="M218.879,-240.076C231.442,-230.171 245.733,-218.902 258.194,-209.078"/>
<polygon fill="midnightblue" stroke="midnightblue" points="216.596,-237.419 210.911,-246.359 220.93,-242.916 216.596,-237.419"/>
</g>
<!-- Node3 -->
<g id="node3" class="node"><title>Node3</title>
<g id="a_node3"><a xlink:href="ServerImpl_8h.html" target="_top" xlink:title="/home/travis/build\l/mgerhardy/simpleai\l/src/ai/server/ServerImpl.h">
<polygon fill="white" stroke="black" points="20,-78.5 20,-119.5 152,-119.5 152,-78.5 20,-78.5"/>
<text text-anchor="start" x="28" y="-107.5" font-family="Helvetica,sans-Serif" font-size="10.00">/home/travis/build</text>
<text text-anchor="start" x="28" y="-96.5" font-family="Helvetica,sans-Serif" font-size="10.00">/mgerhardy/simpleai</text>
<text text-anchor="middle" x="86" y="-85.5" font-family="Helvetica,sans-Serif" font-size="10.00">/src/ai/server/ServerImpl.h</text>
</a>
</g>
</g>
<!-- Node2&#45;&gt;Node3 -->
<g id="edge2" class="edge"><title>Node2&#45;&gt;Node3</title>
<path fill="none" stroke="midnightblue" d="M81.5711,-151.881C82.4887,-141.133 83.498,-129.309 84.3211,-119.667"/>
<polygon fill="midnightblue" stroke="midnightblue" points="78.0578,-151.889 80.6945,-162.15 85.0325,-152.484 78.0578,-151.889"/>
</g>
<!-- Node3&#45;&gt;Node4 -->
<g id="edge3" class="edge"><title>Node3&#45;&gt;Node4</title>
<path fill="none" stroke="midnightblue" d="M125.271,-72.9194C141.269,-62.702 159.482,-51.0701 174.458,-41.5056"/>
<polygon fill="midnightblue" stroke="midnightblue" points="123.189,-70.0958 116.645,-78.4281 126.957,-75.9953 123.189,-70.0958"/>
</g>
<!-- Node5&#45;&gt;Node4 -->
<g id="edge7" class="edge"><title>Node5&#45;&gt;Node4</title>
<path fill="none" stroke="midnightblue" d="M262.217,-148.883C255.403,-139.855 248.496,-129.842 243,-120 228.676,-94.3488 217.339,-62.2007 210.898,-41.8733"/>
<polygon fill="midnightblue" stroke="midnightblue" points="259.512,-151.106 268.406,-156.864 265.044,-146.817 259.512,-151.106"/>
</g>
<!-- Node6 -->
<g id="node6" class="node"><title>Node6</title>
<g id="a_node6"><a xlink:href="NetworkImpl_8h.html" target="_top" xlink:title="/home/travis/build\l/mgerhardy/simpleai\l/src/ai/server/NetworkImpl.h">
<polygon fill="white" stroke="black" points="252,-78.5 252,-119.5 392,-119.5 392,-78.5 252,-78.5"/>
<text text-anchor="start" x="260" y="-107.5" font-family="Helvetica,sans-Serif" font-size="10.00">/home/travis/build</text>
<text text-anchor="start" x="260" y="-96.5" font-family="Helvetica,sans-Serif" font-size="10.00">/mgerhardy/simpleai</text>
<text text-anchor="middle" x="322" y="-85.5" font-family="Helvetica,sans-Serif" font-size="10.00">/src/ai/server/NetworkImpl.h</text>
</a>
</g>
</g>
<!-- Node5&#45;&gt;Node6 -->
<g id="edge5" class="edge"><title>Node5&#45;&gt;Node6</title>
<path fill="none" stroke="midnightblue" d="M303.519,-147.358C307.207,-137.908 311.075,-127.996 314.314,-119.696"/>
<polygon fill="midnightblue" stroke="midnightblue" points="300.15,-146.364 299.775,-156.952 306.671,-148.908 300.15,-146.364"/>
</g>
<!-- Node6&#45;&gt;Node4 -->
<g id="edge6" class="edge"><title>Node6&#45;&gt;Node4</title>
<path fill="none" stroke="midnightblue" d="M283.389,-72.9194C267.66,-62.702 249.753,-51.0701 235.028,-41.5056"/>
<polygon fill="midnightblue" stroke="midnightblue" points="281.577,-75.9158 291.87,-78.4281 285.39,-70.0456 281.577,-75.9158"/>
</g>
</g>
</svg>
