<?xml version="1.0" encoding="UTF-8" standalone="no"?>
<!DOCTYPE svg PUBLIC "-//W3C//DTD SVG 1.1//EN"
 "http://www.w3.org/Graphics/SVG/1.1/DTD/svg11.dtd">
<!-- Generated by graphviz version 2.36.0 (20140111.2315)
 -->
<!-- Title: /home/travis/build/mgerhardy/simpleai/src/ai/server/AIAddNodeMessage.h Pages: 1 -->
<!--zoomable 554 -->
<svg id="main" version="1.1" xmlns="http://www.w3.org/2000/svg" xmlns:xlink="http://www.w3.org/1999/xlink" xml:space="preserve" onload="init(evt)">
<style type="text/css"><![CDATA[
.edge:hover path { stroke: red; }
.edge:hover polygon { stroke: red; fill: red; }
]]></style>
<script type="text/javascript"><![CDATA[
var edges = document.getElementsByTagName('g');
if (edges && edges.length) {
  for (var i=0;i<edges.length;i++) {
    if (edges[i].id.substr(0,4)=='edge') {
      edges[i].setAttribute('class','edge');
    }
  }
}
]]></script>
        <defs>
                <circle id="rim" cx="0" cy="0" r="7"/>
                <circle id="rim2" cx="0" cy="0" r="3.5"/>
                <g id="zoomPlus">
                        <use xlink:href="#rim" fill="#404040">
                                <set attributeName="fill" to="#808080" begin="zoomplus.mouseover" end="zoomplus.mouseout"/>
                        </use>
                        <path d="M-4,0h8M0,-4v8" fill="none" stroke="white" stroke-width="1.5" pointer-events="none"/>
                </g>
                <g id="zoomMin">
                        <use xlink:href="#rim" fill="#404040">
                                <set attributeName="fill" to="#808080" begin="zoomminus.mouseover" end="zoomminus.mouseout"/>
                        </use>
                        <path d="M-4,0h8" fill="none" stroke="white" stroke-width="1.5" pointer-events="none"/>
                </g>
                <g id="dirArrow">
                        <path fill="none" stroke="white" stroke-width="1.5" d="M0,-3.0v7 M-2.5,-0.5L0,-3.0L2.5,-0.5"/>
                </g>
               <g id="resetDef">
                       <use xlink:href="#rim2" fill="#404040">
                               <set attributeName="fill" to="#808080" begin="reset.mouseover" end="reset.mouseout"/>
                       </use>
               </g>
        </defs>

<script type="text/javascript">
var viewWidth = 1974;
var viewHeight = 554;
var sectionId = 'dynsection-0';
</script>
<script xlink:href="svgpan.js"/>
<svg id="graph" class="graph">
<g id="viewport">
<title>/home/travis/build/mgerhardy/simpleai/src/ai/server/AIAddNodeMessage.h</title>
<polygon fill="white" stroke="none" points="-4,4 -4,-550 1970,-550 1970,4 -4,4"/>
<!-- Node1 -->
<g id="node1" class="node"><title>Node1</title>
<polygon fill="#bfbfbf" stroke="black" points="247.5,-504.5 247.5,-545.5 422.5,-545.5 422.5,-504.5 247.5,-504.5"/>
<text text-anchor="start" x="255.5" y="-533.5" font-family="Helvetica,sans-Serif" font-size="10.00">/home/travis/build</text>
<text text-anchor="start" x="255.5" y="-522.5" font-family="Helvetica,sans-Serif" font-size="10.00">/mgerhardy/simpleai</text>
<text text-anchor="middle" x="335" y="-511.5" font-family="Helvetica,sans-Serif" font-size="10.00">/src/ai/server/AIAddNodeMessage.h</text>
</g>
<!-- Node2 -->
<g id="node2" class="node"><title>Node2</title>
<g id="a_node2"><a xlink:href="IProtocolMessage_8h.html" target="_top" xlink:title="IProtocolMessage.h">
<polygon fill="white" stroke="black" points="141,-448.5 141,-467.5 245,-467.5 245,-448.5 141,-448.5"/>
<text text-anchor="middle" x="193" y="-455.5" font-family="Helvetica,sans-Serif" font-size="10.00">IProtocolMessage.h</text>
</a>
</g>
</g>
<!-- Node1&#45;&gt;Node2 -->
<g id="edge1" class="edge"><title>Node1&#45;&gt;Node2</title>
<path fill="none" stroke="midnightblue" d="M292.395,-504.498C269.368,-493.957 241.57,-481.233 221.233,-471.923"/>
<polygon fill="midnightblue" stroke="midnightblue" points="222.452,-468.632 211.902,-467.652 219.538,-474.997 222.452,-468.632"/>
</g>
<!-- Node8 -->
<g id="node8" class="node"><title>Node8</title>
<g id="a_node8"><a xlink:href="AIStubTypes_8h.html" target="_top" xlink:title="AIStubTypes.h">
<polygon fill="white" stroke="black" points="404,-448.5 404,-467.5 486,-467.5 486,-448.5 404,-448.5"/>
<text text-anchor="middle" x="445" y="-455.5" font-family="Helvetica,sans-Serif" font-size="10.00">AIStubTypes.h</text>
</a>
</g>
</g>
<!-- Node1&#45;&gt;Node8 -->
<g id="edge7" class="edge"><title>Node1&#45;&gt;Node8</title>
<path fill="none" stroke="midnightblue" d="M368.004,-504.498C385.193,-494.34 405.814,-482.155 421.388,-472.952"/>
<polygon fill="midnightblue" stroke="midnightblue" points="423.529,-475.753 430.357,-467.652 419.967,-469.727 423.529,-475.753"/>
</g>
<!-- Node3 -->
<g id="node3" class="node"><title>Node3</title>
<polygon fill="white" stroke="#bfbfbf" points="-0.5,-392.5 -0.5,-411.5 48.5,-411.5 48.5,-392.5 -0.5,-392.5"/>
<text text-anchor="middle" x="24" y="-399.5" font-family="Helvetica,sans-Serif" font-size="10.00">stdint.h</text>
</g>
<!-- Node2&#45;&gt;Node3 -->
<g id="edge2" class="edge"><title>Node2&#45;&gt;Node3</title>
<path fill="none" stroke="midnightblue" d="M166.221,-448.444C137.079,-439.132 90.3909,-424.214 58.5162,-414.029"/>
<polygon fill="midnightblue" stroke="midnightblue" points="59.3197,-410.611 48.7289,-410.902 57.1891,-417.279 59.3197,-410.611"/>
</g>
<!-- Node4 -->
<g id="node4" class="node"><title>Node4</title>
<polygon fill="white" stroke="#bfbfbf" points="67,-392.5 67,-411.5 119,-411.5 119,-392.5 67,-392.5"/>
<text text-anchor="middle" x="93" y="-399.5" font-family="Helvetica,sans-Serif" font-size="10.00">stddef.h</text>
</g>
<!-- Node2&#45;&gt;Node4 -->
<g id="edge3" class="edge"><title>Node2&#45;&gt;Node4</title>
<path fill="none" stroke="midnightblue" d="M176.933,-448.324C161.042,-439.743 136.493,-426.486 118.042,-416.522"/>
<polygon fill="midnightblue" stroke="midnightblue" points="119.489,-413.326 109.027,-411.655 116.163,-419.486 119.489,-413.326"/>
</g>
<!-- Node5 -->
<g id="node5" class="node"><title>Node5</title>
<polygon fill="white" stroke="#bfbfbf" points="137,-392.5 137,-411.5 185,-411.5 185,-392.5 137,-392.5"/>
<text text-anchor="middle" x="161" y="-399.5" font-family="Helvetica,sans-Serif" font-size="10.00">limits.h</text>
</g>
<!-- Node2&#45;&gt;Node5 -->
<g id="edge4" class="edge"><title>Node2&#45;&gt;Node5</title>
<path fill="none" stroke="midnightblue" d="M187.716,-448.083C183.289,-440.613 176.837,-429.724 171.382,-420.52"/>
<polygon fill="midnightblue" stroke="midnightblue" points="174.295,-418.57 166.186,-411.751 168.273,-422.138 174.295,-418.57"/>
</g>
<!-- Node6 -->
<g id="node6" class="node"><title>Node6</title>
<polygon fill="white" stroke="#bfbfbf" points="433.5,-56.5 433.5,-75.5 474.5,-75.5 474.5,-56.5 433.5,-56.5"/>
<text text-anchor="middle" x="454" y="-63.5" font-family="Helvetica,sans-Serif" font-size="10.00">string</text>
</g>
<!-- Node2&#45;&gt;Node6 -->
<g id="edge5" class="edge"><title>Node2&#45;&gt;Node6</title>
<path fill="none" stroke="midnightblue" d="M210.399,-448.436C224.362,-440.72 243.474,-428.121 255,-412 272.58,-387.413 275,-377.225 275,-347 275,-347 275,-347 275,-177 275,-108.213 372.139,-81.0776 423.299,-71.5563"/>
<polygon fill="midnightblue" stroke="midnightblue" points="424.216,-74.9492 433.466,-69.7833 423.014,-68.0533 424.216,-74.9492"/>
</g>
<!-- Node7 -->
<g id="node7" class="node"><title>Node7</title>
<polygon fill="white" stroke="#bfbfbf" points="203.5,-392.5 203.5,-411.5 246.5,-411.5 246.5,-392.5 203.5,-392.5"/>
<text text-anchor="middle" x="225" y="-399.5" font-family="Helvetica,sans-Serif" font-size="10.00">deque</text>
</g>
<!-- Node2&#45;&gt;Node7 -->
<g id="edge6" class="edge"><title>Node2&#45;&gt;Node7</title>
<path fill="none" stroke="midnightblue" d="M198.284,-448.083C202.711,-440.613 209.163,-429.724 214.618,-420.52"/>
<polygon fill="midnightblue" stroke="midnightblue" points="217.727,-422.138 219.814,-411.751 211.705,-418.57 217.727,-422.138"/>
</g>
<!-- Node8&#45;&gt;Node6 -->
<g id="edge9" class="edge"><title>Node8&#45;&gt;Node6</title>
<path fill="none" stroke="midnightblue" d="M418.605,-448.467C380.084,-434.165 313,-401.441 313,-347 313,-347 313,-347 313,-177 313,-121.213 382.464,-89.547 423.88,-75.6251"/>
<polygon fill="midnightblue" stroke="midnightblue" points="425.045,-78.9271 433.497,-72.5397 422.906,-72.2617 425.045,-78.9271"/>
</g>
<!-- Node9 -->
<g id="node9" class="node"><title>Node9</title>
<polygon fill="white" stroke="#bfbfbf" points="443,-112.5 443,-131.5 487,-131.5 487,-112.5 443,-112.5"/>
<text text-anchor="middle" x="465" y="-119.5" font-family="Helvetica,sans-Serif" font-size="10.00">vector</text>
</g>
<!-- Node8&#45;&gt;Node9 -->
<g id="edge8" class="edge"><title>Node8&#45;&gt;Node9</title>
<path fill="none" stroke="midnightblue" d="M429.478,-448.353C402.779,-432.203 351,-394.729 351,-347 351,-347 351,-347 351,-233 351,-186.115 401.552,-152.894 435.329,-135.93"/>
<polygon fill="midnightblue" stroke="midnightblue" points="436.868,-139.074 444.355,-131.579 433.828,-132.769 436.868,-139.074"/>
</g>
<!-- Node10 -->
<g id="node10" class="node"><title>Node10</title>
<g id="a_node10"><a xlink:href="Math_8h.html" target="_top" xlink:title="common/Math.h">
<polygon fill="white" stroke="black" points="1495.5,-392.5 1495.5,-411.5 1582.5,-411.5 1582.5,-392.5 1495.5,-392.5"/>
<text text-anchor="middle" x="1539" y="-399.5" font-family="Helvetica,sans-Serif" font-size="10.00">common/Math.h</text>
</a>
</g>
</g>
<!-- Node8&#45;&gt;Node10 -->
<g id="edge10" class="edge"><title>Node8&#45;&gt;Node10</title>
<path fill="none" stroke="midnightblue" d="M486.219,-454.965C655.19,-446.625 1294.88,-415.05 1485.24,-405.653"/>
<polygon fill="midnightblue" stroke="midnightblue" points="1485.47,-409.146 1495.29,-405.158 1485.13,-402.155 1485.47,-409.146"/>
</g>
<!-- Node11 -->
<g id="node11" class="node"><title>Node11</title>
<g id="a_node11"><a xlink:href="Types_8h.html" target="_top" xlink:title="Types.h">
<polygon fill="white" stroke="black" points="1155,-112.5 1155,-131.5 1207,-131.5 1207,-112.5 1155,-112.5"/>
<text text-anchor="middle" x="1181" y="-119.5" font-family="Helvetica,sans-Serif" font-size="10.00">Types.h</text>
</a>
</g>
</g>
<!-- Node8&#45;&gt;Node11 -->
<g id="edge27" class="edge"><title>Node8&#45;&gt;Node11</title>
<path fill="none" stroke="midnightblue" d="M486.022,-455.414C643.834,-448.775 1203,-420.095 1203,-347 1203,-347 1203,-347 1203,-233 1203,-200.328 1193.55,-163.24 1187.04,-141.553"/>
<polygon fill="midnightblue" stroke="midnightblue" points="1190.29,-140.222 1183.97,-131.721 1183.61,-142.31 1190.29,-140.222"/>
</g>
<!-- Node25 -->
<g id="node25" class="node"><title>Node25</title>
<g id="a_node25"><a xlink:href="TreeNode_8h.html" target="_top" xlink:title="tree/TreeNode.h">
<polygon fill="white" stroke="black" points="495.5,-392.5 495.5,-411.5 582.5,-411.5 582.5,-392.5 495.5,-392.5"/>
<text text-anchor="middle" x="539" y="-399.5" font-family="Helvetica,sans-Serif" font-size="10.00">tree/TreeNode.h</text>
</a>
</g>
</g>
<!-- Node8&#45;&gt;Node25 -->
<g id="edge28" class="edge"><title>Node8&#45;&gt;Node25</title>
<path fill="none" stroke="midnightblue" d="M460.103,-448.324C474.903,-439.822 497.694,-426.729 514.982,-416.797"/>
<polygon fill="midnightblue" stroke="midnightblue" points="517.007,-419.671 523.935,-411.655 513.52,-413.601 517.007,-419.671"/>
</g>
<!-- Node10&#45;&gt;Node11 -->
<g id="edge11" class="edge"><title>Node10&#45;&gt;Node11</title>
<path fill="none" stroke="midnightblue" d="M1495.22,-399.506C1425.64,-396.241 1294.16,-386.155 1260,-356 1237.44,-336.083 1241,-321.098 1241,-291 1241,-291 1241,-291 1241,-233 1241,-195.883 1214.35,-159.378 1196.57,-139.158"/>
<polygon fill="midnightblue" stroke="midnightblue" points="1198.93,-136.552 1189.6,-131.535 1193.76,-141.276 1198.93,-136.552"/>
</g>
<!-- Node18 -->
<g id="node18" class="node"><title>Node18</title>
<polygon fill="white" stroke="#bfbfbf" points="1269,-336.5 1269,-355.5 1339,-355.5 1339,-336.5 1269,-336.5"/>
<text text-anchor="middle" x="1304" y="-343.5" font-family="Helvetica,sans-Serif" font-size="10.00">glm/glm.hpp</text>
</g>
<!-- Node10&#45;&gt;Node18 -->
<g id="edge20" class="edge"><title>Node10&#45;&gt;Node18</title>
<path fill="none" stroke="midnightblue" d="M1501.76,-392.444C1460.34,-382.925 1393.42,-367.548 1349.07,-357.357"/>
<polygon fill="midnightblue" stroke="midnightblue" points="1349.67,-353.904 1339.14,-355.075 1348.11,-360.726 1349.67,-353.904"/>
</g>
<!-- Node19 -->
<g id="node19" class="node"><title>Node19</title>
<polygon fill="white" stroke="#bfbfbf" points="1357.5,-336.5 1357.5,-355.5 1470.5,-355.5 1470.5,-336.5 1357.5,-336.5"/>
<text text-anchor="middle" x="1414" y="-343.5" font-family="Helvetica,sans-Serif" font-size="10.00">glm/gtc/constants.hpp</text>
</g>
<!-- Node10&#45;&gt;Node19 -->
<g id="edge21" class="edge"><title>Node10&#45;&gt;Node19</title>
<path fill="none" stroke="midnightblue" d="M1519.19,-392.444C1498.71,-383.596 1466.52,-369.687 1443.14,-359.586"/>
<polygon fill="midnightblue" stroke="midnightblue" points="1444.28,-356.269 1433.71,-355.516 1441.51,-362.695 1444.28,-356.269"/>
</g>
<!-- Node20 -->
<g id="node20" class="node"><title>Node20</title>
<polygon fill="white" stroke="#bfbfbf" points="1488.5,-336.5 1488.5,-355.5 1589.5,-355.5 1589.5,-336.5 1488.5,-336.5"/>
<text text-anchor="middle" x="1539" y="-343.5" font-family="Helvetica,sans-Serif" font-size="10.00">glm/gtc/epsilon.hpp</text>
</g>
<!-- Node10&#45;&gt;Node20 -->
<g id="edge22" class="edge"><title>Node10&#45;&gt;Node20</title>
<path fill="none" stroke="midnightblue" d="M1539,-392.083C1539,-385.006 1539,-374.861 1539,-365.986"/>
<polygon fill="midnightblue" stroke="midnightblue" points="1542.5,-365.751 1539,-355.751 1535.5,-365.751 1542.5,-365.751"/>
</g>
<!-- Node21 -->
<g id="node21" class="node"><title>Node21</title>
<polygon fill="white" stroke="#bfbfbf" points="1607.5,-336.5 1607.5,-355.5 1732.5,-355.5 1732.5,-336.5 1607.5,-336.5"/>
<text text-anchor="middle" x="1670" y="-343.5" font-family="Helvetica,sans-Serif" font-size="10.00">glm/gtx/compatibility.hpp</text>
</g>
<!-- Node10&#45;&gt;Node21 -->
<g id="edge23" class="edge"><title>Node10&#45;&gt;Node21</title>
<path fill="none" stroke="midnightblue" d="M1559.76,-392.444C1581.32,-383.557 1615.26,-369.563 1639.79,-359.451"/>
<polygon fill="midnightblue" stroke="midnightblue" points="1641.43,-362.563 1649.34,-355.516 1638.76,-356.092 1641.43,-362.563"/>
</g>
<!-- Node22 -->
<g id="node22" class="node"><title>Node22</title>
<polygon fill="white" stroke="#bfbfbf" points="1751,-336.5 1751,-355.5 1843,-355.5 1843,-336.5 1751,-336.5"/>
<text text-anchor="middle" x="1797" y="-343.5" font-family="Helvetica,sans-Serif" font-size="10.00">glm/gtx/norm.hpp</text>
</g>
<!-- Node10&#45;&gt;Node22 -->
<g id="edge24" class="edge"><title>Node10&#45;&gt;Node22</title>
<path fill="none" stroke="midnightblue" d="M1579.88,-392.444C1624.98,-383.004 1697.61,-367.802 1746.3,-357.611"/>
<polygon fill="midnightblue" stroke="midnightblue" points="1747.24,-360.991 1756.31,-355.516 1745.81,-354.139 1747.24,-360.991"/>
</g>
<!-- Node23 -->
<g id="node23" class="node"><title>Node23</title>
<polygon fill="white" stroke="#bfbfbf" points="1861,-336.5 1861,-355.5 1901,-355.5 1901,-336.5 1861,-336.5"/>
<text text-anchor="middle" x="1881" y="-343.5" font-family="Helvetica,sans-Serif" font-size="10.00">limits</text>
</g>
<!-- Node10&#45;&gt;Node23 -->
<g id="edge25" class="edge"><title>Node10&#45;&gt;Node23</title>
<path fill="none" stroke="midnightblue" d="M1582.69,-396.924C1641.59,-390.945 1749.81,-378.264 1850.77,-355.967"/>
<polygon fill="midnightblue" stroke="midnightblue" points="1851.84,-359.314 1860.83,-353.707 1850.3,-352.484 1851.84,-359.314"/>
</g>
<!-- Node24 -->
<g id="node24" class="node"><title>Node24</title>
<polygon fill="white" stroke="#bfbfbf" points="1919.5,-336.5 1919.5,-355.5 1966.5,-355.5 1966.5,-336.5 1919.5,-336.5"/>
<text text-anchor="middle" x="1943" y="-343.5" font-family="Helvetica,sans-Serif" font-size="10.00">math.h</text>
</g>
<!-- Node10&#45;&gt;Node24 -->
<g id="edge26" class="edge"><title>Node10&#45;&gt;Node24</title>
<path fill="none" stroke="midnightblue" d="M1582.73,-397.771C1650.6,-392.307 1785.49,-379.645 1909.27,-355.862"/>
<polygon fill="midnightblue" stroke="midnightblue" points="1910.16,-359.256 1919.3,-353.906 1908.82,-352.385 1910.16,-359.256"/>
</g>
<!-- Node11&#45;&gt;Node6 -->
<g id="edge16" class="edge"><title>Node11&#45;&gt;Node6</title>
<path fill="none" stroke="midnightblue" d="M1154.86,-114.505C1150.26,-113.539 1145.51,-112.651 1141,-112 889.543,-75.7017 582.036,-68.6574 484.912,-67.3119"/>
<polygon fill="midnightblue" stroke="midnightblue" points="484.679,-63.8088 474.635,-67.1804 484.59,-70.8082 484.679,-63.8088"/>
</g>
<!-- Node12 -->
<g id="node12" class="node"><title>Node12</title>
<g id="a_node12"><a xlink:href="Log_8h.html" target="_top" xlink:title="Log.h">
<polygon fill="white" stroke="black" points="1242.5,-56.5 1242.5,-75.5 1283.5,-75.5 1283.5,-56.5 1242.5,-56.5"/>
<text text-anchor="middle" x="1263" y="-63.5" font-family="Helvetica,sans-Serif" font-size="10.00">Log.h</text>
</a>
</g>
</g>
<!-- Node11&#45;&gt;Node12 -->
<g id="edge12" class="edge"><title>Node11&#45;&gt;Node12</title>
<path fill="none" stroke="midnightblue" d="M1194.17,-112.324C1206.85,-103.979 1226.23,-91.2122 1241.21,-81.3524"/>
<polygon fill="midnightblue" stroke="midnightblue" points="1243.43,-84.0776 1249.86,-75.6545 1239.58,-78.2313 1243.43,-84.0776"/>
</g>
<!-- Node13 -->
<g id="node13" class="node"><title>Node13</title>
<polygon fill="white" stroke="#bfbfbf" points="1182.5,-0.5 1182.5,-19.5 1225.5,-19.5 1225.5,-0.5 1182.5,-0.5"/>
<text text-anchor="middle" x="1204" y="-7.5" font-family="Helvetica,sans-Serif" font-size="10.00">cstdio</text>
</g>
<!-- Node11&#45;&gt;Node13 -->
<g id="edge19" class="edge"><title>Node11&#45;&gt;Node13</title>
<path fill="none" stroke="midnightblue" d="M1182.8,-112.368C1186.52,-94.617 1195.08,-53.6664 1200.11,-29.5974"/>
<polygon fill="midnightblue" stroke="midnightblue" points="1203.58,-30.0961 1202.2,-19.5914 1196.73,-28.6634 1203.58,-30.0961"/>
</g>
<!-- Node16 -->
<g id="node16" class="node"><title>Node16</title>
<polygon fill="white" stroke="#bfbfbf" points="1028.5,-56.5 1028.5,-75.5 1111.5,-75.5 1111.5,-56.5 1028.5,-56.5"/>
<text text-anchor="middle" x="1070" y="-63.5" font-family="Helvetica,sans-Serif" font-size="10.00">unordered_map</text>
</g>
<!-- Node11&#45;&gt;Node16 -->
<g id="edge17" class="edge"><title>Node11&#45;&gt;Node16</title>
<path fill="none" stroke="midnightblue" d="M1163.17,-112.324C1145.28,-103.625 1117.52,-90.1202 1096.95,-80.113"/>
<polygon fill="midnightblue" stroke="midnightblue" points="1098.31,-76.8819 1087.79,-75.6545 1095.25,-83.1765 1098.31,-76.8819"/>
</g>
<!-- Node17 -->
<g id="node17" class="node"><title>Node17</title>
<polygon fill="white" stroke="#bfbfbf" points="1129.5,-56.5 1129.5,-75.5 1178.5,-75.5 1178.5,-56.5 1129.5,-56.5"/>
<text text-anchor="middle" x="1154" y="-63.5" font-family="Helvetica,sans-Serif" font-size="10.00">cassert</text>
</g>
<!-- Node11&#45;&gt;Node17 -->
<g id="edge18" class="edge"><title>Node11&#45;&gt;Node17</title>
<path fill="none" stroke="midnightblue" d="M1176.54,-112.083C1172.85,-104.691 1167.48,-93.9533 1162.91,-84.8111"/>
<polygon fill="midnightblue" stroke="midnightblue" points="1165.98,-83.1301 1158.38,-75.7511 1159.72,-86.2606 1165.98,-83.1301"/>
</g>
<!-- Node12&#45;&gt;Node13 -->
<g id="edge13" class="edge"><title>Node12&#45;&gt;Node13</title>
<path fill="none" stroke="midnightblue" d="M1253.52,-56.324C1244.8,-48.3414 1231.66,-36.3128 1221.1,-26.6529"/>
<polygon fill="midnightblue" stroke="midnightblue" points="1223.39,-24.0036 1213.65,-19.8339 1218.67,-29.1674 1223.39,-24.0036"/>
</g>
<!-- Node14 -->
<g id="node14" class="node"><title>Node14</title>
<polygon fill="white" stroke="#bfbfbf" points="1308.5,-0.5 1308.5,-19.5 1357.5,-19.5 1357.5,-0.5 1308.5,-0.5"/>
<text text-anchor="middle" x="1333" y="-7.5" font-family="Helvetica,sans-Serif" font-size="10.00">cstdarg</text>
</g>
<!-- Node12&#45;&gt;Node14 -->
<g id="edge14" class="edge"><title>Node12&#45;&gt;Node14</title>
<path fill="none" stroke="midnightblue" d="M1274.25,-56.324C1284.8,-48.1849 1300.8,-35.8395 1313.44,-26.0874"/>
<polygon fill="midnightblue" stroke="midnightblue" points="1315.77,-28.7132 1321.55,-19.8339 1311.49,-23.1707 1315.77,-28.7132"/>
</g>
<!-- Node15 -->
<g id="node15" class="node"><title>Node15</title>
<polygon fill="white" stroke="#bfbfbf" points="1244,-0.5 1244,-19.5 1290,-19.5 1290,-0.5 1244,-0.5"/>
<text text-anchor="middle" x="1267" y="-7.5" font-family="Helvetica,sans-Serif" font-size="10.00">cstring</text>
</g>
<!-- Node12&#45;&gt;Node15 -->
<g id="edge15" class="edge"><title>Node12&#45;&gt;Node15</title>
<path fill="none" stroke="midnightblue" d="M1263.66,-56.083C1264.18,-49.0059 1264.94,-38.8611 1265.59,-29.9865"/>
<polygon fill="midnightblue" stroke="midnightblue" points="1269.1,-29.9823 1266.35,-19.7511 1262.12,-29.4652 1269.1,-29.9823"/>
</g>
<!-- Node25&#45;&gt;Node6 -->
<g id="edge58" class="edge"><title>Node25&#45;&gt;Node6</title>
<path fill="none" stroke="midnightblue" d="M505.337,-392.483C461.112,-379.036 389,-348.321 389,-291 389,-291 389,-291 389,-177 389,-139.178 417.835,-102.94 437.094,-82.9551"/>
<polygon fill="midnightblue" stroke="midnightblue" points="439.801,-85.1988 444.409,-75.6585 434.857,-80.2429 439.801,-85.1988"/>
</g>
<!-- Node25&#45;&gt;Node9 -->
<g id="edge57" class="edge"><title>Node25&#45;&gt;Node9</title>
<path fill="none" stroke="midnightblue" d="M505.895,-392.43C485.909,-385.646 461.409,-374.211 446,-356 426.559,-333.024 427,-321.098 427,-291 427,-291 427,-291 427,-233 427,-198.813 443.6,-161.764 454.857,-140.571"/>
<polygon fill="midnightblue" stroke="midnightblue" points="457.947,-142.215 459.716,-131.769 451.819,-138.832 457.947,-142.215"/>
</g>
<!-- Node25&#45;&gt;Node11 -->
<g id="edge29" class="edge"><title>Node25&#45;&gt;Node11</title>
<path fill="none" stroke="midnightblue" d="M582.522,-397.967C724.485,-387.498 1165,-350.242 1165,-291 1165,-291 1165,-291 1165,-233 1165,-200.626 1171.87,-163.445 1176.61,-141.659"/>
<polygon fill="midnightblue" stroke="midnightblue" points="1180.05,-142.303 1178.84,-131.777 1173.22,-140.759 1180.05,-142.303"/>
</g>
<!-- Node26 -->
<g id="node26" class="node"><title>Node26</title>
<g id="a_node26"><a xlink:href="MemoryAllocator_8h.html" target="_top" xlink:title="common/MemoryAllocator.h">
<polygon fill="white" stroke="black" points="769.5,-224.5 769.5,-243.5 908.5,-243.5 908.5,-224.5 769.5,-224.5"/>
<text text-anchor="middle" x="839" y="-231.5" font-family="Helvetica,sans-Serif" font-size="10.00">common/MemoryAllocator.h</text>
</a>
</g>
</g>
<!-- Node25&#45;&gt;Node26 -->
<g id="edge30" class="edge"><title>Node25&#45;&gt;Node26</title>
<path fill="none" stroke="midnightblue" d="M582.762,-392.431C613.394,-385.34 654.641,-373.555 688,-356 742.992,-327.061 797.352,-276.767 823.281,-251.089"/>
<polygon fill="midnightblue" stroke="midnightblue" points="826.088,-253.23 830.665,-243.675 821.128,-248.29 826.088,-253.23"/>
</g>
<!-- Node27 -->
<g id="node27" class="node"><title>Node27</title>
<polygon fill="white" stroke="#bfbfbf" points="643,-112.5 643,-131.5 695,-131.5 695,-112.5 643,-112.5"/>
<text text-anchor="middle" x="669" y="-119.5" font-family="Helvetica,sans-Serif" font-size="10.00">memory</text>
</g>
<!-- Node25&#45;&gt;Node27 -->
<g id="edge59" class="edge"><title>Node25&#45;&gt;Node27</title>
<path fill="none" stroke="midnightblue" d="M537.561,-392.474C533.467,-365.495 524.125,-280.444 558,-224 572.653,-199.584 589.582,-206.765 611,-188 627.984,-173.12 644.884,-153.489 656.023,-139.709"/>
<polygon fill="midnightblue" stroke="midnightblue" points="658.978,-141.616 662.453,-131.607 653.495,-137.264 658.978,-141.616"/>
</g>
<!-- Node28 -->
<g id="node28" class="node"><title>Node28</title>
<g id="a_node28"><a xlink:href="ICondition_8h.html" target="_top" xlink:title="Condition related stuff. ">
<polygon fill="white" stroke="black" points="629,-280.5 629,-299.5 745,-299.5 745,-280.5 629,-280.5"/>
<text text-anchor="middle" x="687" y="-287.5" font-family="Helvetica,sans-Serif" font-size="10.00">conditions/ICondition.h</text>
</a>
</g>
</g>
<!-- Node25&#45;&gt;Node28 -->
<g id="edge32" class="edge"><title>Node25&#45;&gt;Node28</title>
<path fill="none" stroke="midnightblue" d="M582.507,-396.082C610.506,-390.708 645.7,-379.473 668,-356 679.757,-343.625 684.289,-324.379 686.011,-310.037"/>
<polygon fill="midnightblue" stroke="midnightblue" points="689.52,-310.069 686.872,-299.811 682.545,-309.482 689.52,-310.069"/>
</g>
<!-- Node40 -->
<g id="node40" class="node"><title>Node40</title>
<g id="a_node40"><a xlink:href="True_8h.html" target="_top" xlink:title="conditions/True.h">
<polygon fill="white" stroke="black" points="567,-336.5 567,-355.5 659,-355.5 659,-336.5 567,-336.5"/>
<text text-anchor="middle" x="613" y="-343.5" font-family="Helvetica,sans-Serif" font-size="10.00">conditions/True.h</text>
</a>
</g>
</g>
<!-- Node25&#45;&gt;Node40 -->
<g id="edge55" class="edge"><title>Node25&#45;&gt;Node40</title>
<path fill="none" stroke="midnightblue" d="M550.889,-392.324C562.15,-384.107 579.287,-371.602 592.709,-361.807"/>
<polygon fill="midnightblue" stroke="midnightblue" points="594.88,-364.556 600.894,-355.834 590.753,-358.901 594.88,-364.556"/>
</g>
<!-- Node41 -->
<g id="node41" class="node"><title>Node41</title>
<polygon fill="white" stroke="#bfbfbf" points="455,-336.5 455,-355.5 511,-355.5 511,-336.5 455,-336.5"/>
<text text-anchor="middle" x="483" y="-343.5" font-family="Helvetica,sans-Serif" font-size="10.00">algorithm</text>
</g>
<!-- Node25&#45;&gt;Node41 -->
<g id="edge60" class="edge"><title>Node25&#45;&gt;Node41</title>
<path fill="none" stroke="midnightblue" d="M530.003,-392.324C521.806,-384.42 509.494,-372.548 499.528,-362.938"/>
<polygon fill="midnightblue" stroke="midnightblue" points="501.789,-360.256 492.161,-355.834 496.93,-365.295 501.789,-360.256"/>
</g>
<!-- Node26&#45;&gt;Node27 -->
<g id="edge31" class="edge"><title>Node26&#45;&gt;Node27</title>
<path fill="none" stroke="midnightblue" d="M806.303,-224.468C782.581,-217.252 750.492,-205.299 726,-188 707.496,-174.931 690.997,-154.677 680.571,-140.254"/>
<polygon fill="midnightblue" stroke="midnightblue" points="683.231,-137.949 674.637,-131.752 677.491,-141.955 683.231,-137.949"/>
</g>
<!-- Node28&#45;&gt;Node6 -->
<g id="edge33" class="edge"><title>Node28&#45;&gt;Node6</title>
<path fill="none" stroke="midnightblue" d="M745.13,-287.193C830.674,-283.579 985.38,-273.119 1032,-244 1063.86,-224.098 1089.74,-199.325 1069,-168 1003.62,-69.2357 600.251,-65.5304 484.827,-66.5276"/>
<polygon fill="midnightblue" stroke="midnightblue" points="484.54,-63.0304 474.577,-66.6358 484.613,-70.03 484.54,-63.0304"/>
</g>
<!-- Node28&#45;&gt;Node9 -->
<g id="edge34" class="edge"><title>Node28&#45;&gt;Node9</title>
<path fill="none" stroke="midnightblue" d="M649.909,-280.459C623.112,-273.269 586.73,-261.35 558,-244 526.775,-225.143 519.925,-217.153 498,-188 487.076,-173.475 478.023,-154.791 472.18,-141.185"/>
<polygon fill="midnightblue" stroke="midnightblue" points="475.252,-139.453 468.208,-131.539 468.779,-142.119 475.252,-139.453"/>
</g>
<!-- Node28&#45;&gt;Node26 -->
<g id="edge37" class="edge"><title>Node28&#45;&gt;Node26</title>
<path fill="none" stroke="midnightblue" d="M711.085,-280.444C736.545,-271.399 776.894,-257.064 805.459,-246.916"/>
<polygon fill="midnightblue" stroke="midnightblue" points="806.777,-250.162 815.028,-243.516 804.433,-243.566 806.777,-250.162"/>
</g>
<!-- Node28&#45;&gt;Node27 -->
<g id="edge36" class="edge"><title>Node28&#45;&gt;Node27</title>
<path fill="none" stroke="midnightblue" d="M686.032,-280.075C683.199,-253.945 674.878,-177.211 671.014,-141.577"/>
<polygon fill="midnightblue" stroke="midnightblue" points="674.487,-141.132 669.929,-131.568 667.528,-141.887 674.487,-141.132"/>
</g>
<!-- Node29 -->
<g id="node29" class="node"><title>Node29</title>
<polygon fill="white" stroke="#bfbfbf" points="699,-224.5 699,-243.5 751,-243.5 751,-224.5 699,-224.5"/>
<text text-anchor="middle" x="725" y="-231.5" font-family="Helvetica,sans-Serif" font-size="10.00">sstream</text>
</g>
<!-- Node28&#45;&gt;Node29 -->
<g id="edge35" class="edge"><title>Node28&#45;&gt;Node29</title>
<path fill="none" stroke="midnightblue" d="M693.275,-280.083C698.642,-272.455 706.518,-261.264 713.079,-251.941"/>
<polygon fill="midnightblue" stroke="midnightblue" points="715.949,-253.943 718.842,-243.751 710.225,-249.915 715.949,-253.943"/>
</g>
<!-- Node30 -->
<g id="node30" class="node"><title>Node30</title>
<g id="a_node30"><a xlink:href="Thread_8h.html" target="_top" xlink:title="common/Thread.h">
<polygon fill="white" stroke="black" points="928.5,-224.5 928.5,-243.5 1023.5,-243.5 1023.5,-224.5 928.5,-224.5"/>
<text text-anchor="middle" x="976" y="-231.5" font-family="Helvetica,sans-Serif" font-size="10.00">common/Thread.h</text>
</a>
</g>
</g>
<!-- Node28&#45;&gt;Node30 -->
<g id="edge38" class="edge"><title>Node28&#45;&gt;Node30</title>
<path fill="none" stroke="midnightblue" d="M732.793,-280.444C783.737,-270.925 866.034,-255.547 920.574,-245.356"/>
<polygon fill="midnightblue" stroke="midnightblue" points="921.234,-248.794 930.421,-243.516 919.949,-241.913 921.234,-248.794"/>
</g>
<!-- Node34 -->
<g id="node34" class="node"><title>Node34</title>
<g id="a_node34"><a xlink:href="AIFactories_8h.html" target="_top" xlink:title="AIFactories.h">
<polygon fill="white" stroke="black" points="567.5,-224.5 567.5,-243.5 642.5,-243.5 642.5,-224.5 567.5,-224.5"/>
<text text-anchor="middle" x="605" y="-231.5" font-family="Helvetica,sans-Serif" font-size="10.00">AIFactories.h</text>
</a>
</g>
</g>
<!-- Node28&#45;&gt;Node34 -->
<g id="edge43" class="edge"><title>Node28&#45;&gt;Node34</title>
<path fill="none" stroke="midnightblue" d="M673.825,-280.324C661.153,-271.979 641.767,-259.212 626.794,-249.352"/>
<polygon fill="midnightblue" stroke="midnightblue" points="628.419,-246.231 618.142,-243.655 624.569,-252.078 628.419,-246.231"/>
</g>
<!-- Node30&#45;&gt;Node11 -->
<g id="edge39" class="edge"><title>Node30&#45;&gt;Node11</title>
<path fill="none" stroke="midnightblue" d="M994.733,-224.441C1013.66,-215.675 1043.65,-201.462 1069,-188 1100.45,-171.298 1135.85,-150.384 1158.28,-136.862"/>
<polygon fill="midnightblue" stroke="midnightblue" points="1160.31,-139.726 1167.05,-131.553 1156.68,-133.738 1160.31,-139.726"/>
</g>
<!-- Node31 -->
<g id="node31" class="node"><title>Node31</title>
<polygon fill="white" stroke="#bfbfbf" points="1017,-168.5 1017,-187.5 1061,-187.5 1061,-168.5 1017,-168.5"/>
<text text-anchor="middle" x="1039" y="-175.5" font-family="Helvetica,sans-Serif" font-size="10.00">thread</text>
</g>
<!-- Node30&#45;&gt;Node31 -->
<g id="edge40" class="edge"><title>Node30&#45;&gt;Node31</title>
<path fill="none" stroke="midnightblue" d="M986.122,-224.324C995.526,-216.263 1009.74,-204.077 1021.07,-194.369"/>
<polygon fill="midnightblue" stroke="midnightblue" points="1023.38,-196.999 1028.69,-187.834 1018.82,-191.684 1023.38,-196.999"/>
</g>
<!-- Node32 -->
<g id="node32" class="node"><title>Node32</title>
<polygon fill="white" stroke="#bfbfbf" points="891,-168.5 891,-187.5 935,-187.5 935,-168.5 891,-168.5"/>
<text text-anchor="middle" x="913" y="-175.5" font-family="Helvetica,sans-Serif" font-size="10.00">mutex</text>
</g>
<!-- Node30&#45;&gt;Node32 -->
<g id="edge41" class="edge"><title>Node30&#45;&gt;Node32</title>
<path fill="none" stroke="midnightblue" d="M965.878,-224.324C956.474,-216.263 942.256,-204.077 930.931,-194.369"/>
<polygon fill="midnightblue" stroke="midnightblue" points="933.177,-191.684 923.306,-187.834 928.621,-196.999 933.177,-191.684"/>
</g>
<!-- Node33 -->
<g id="node33" class="node"><title>Node33</title>
<polygon fill="white" stroke="#bfbfbf" points="953,-168.5 953,-187.5 999,-187.5 999,-168.5 953,-168.5"/>
<text text-anchor="middle" x="976" y="-175.5" font-family="Helvetica,sans-Serif" font-size="10.00">atomic</text>
</g>
<!-- Node30&#45;&gt;Node33 -->
<g id="edge42" class="edge"><title>Node30&#45;&gt;Node33</title>
<path fill="none" stroke="midnightblue" d="M976,-224.083C976,-217.006 976,-206.861 976,-197.986"/>
<polygon fill="midnightblue" stroke="midnightblue" points="979.5,-197.751 976,-187.751 972.5,-197.751 979.5,-197.751"/>
</g>
<!-- Node34&#45;&gt;Node9 -->
<g id="edge54" class="edge"><title>Node34&#45;&gt;Node9</title>
<path fill="none" stroke="midnightblue" d="M584.675,-224.451C567.079,-216.496 541.469,-203.547 522,-188 504.49,-174.017 488.017,-154.237 477.327,-140.176"/>
<polygon fill="midnightblue" stroke="midnightblue" points="479.948,-137.835 471.184,-131.881 474.322,-142 479.948,-137.835"/>
</g>
<!-- Node35 -->
<g id="node35" class="node"><title>Node35</title>
<g id="a_node35"><a xlink:href="IAIFactory_8h.html" target="_top" xlink:title="IAIFactory.h">
<polygon fill="white" stroke="black" points="531.5,-168.5 531.5,-187.5 602.5,-187.5 602.5,-168.5 531.5,-168.5"/>
<text text-anchor="middle" x="567" y="-175.5" font-family="Helvetica,sans-Serif" font-size="10.00">IAIFactory.h</text>
</a>
</g>
</g>
<!-- Node34&#45;&gt;Node35 -->
<g id="edge44" class="edge"><title>Node34&#45;&gt;Node35</title>
<path fill="none" stroke="midnightblue" d="M598.725,-224.083C593.358,-216.455 585.482,-205.264 578.921,-195.941"/>
<polygon fill="midnightblue" stroke="midnightblue" points="581.775,-193.915 573.158,-187.751 576.051,-197.943 581.775,-193.915"/>
</g>
<!-- Node37 -->
<g id="node37" class="node"><title>Node37</title>
<g id="a_node37"><a xlink:href="IFactoryRegistry_8h.html" target="_top" xlink:title="common/IFactoryRegistry.h">
<polygon fill="white" stroke="black" points="735,-168.5 735,-187.5 873,-187.5 873,-168.5 735,-168.5"/>
<text text-anchor="middle" x="804" y="-175.5" font-family="Helvetica,sans-Serif" font-size="10.00">common/IFactoryRegistry.h</text>
</a>
</g>
</g>
<!-- Node34&#45;&gt;Node37 -->
<g id="edge49" class="edge"><title>Node34&#45;&gt;Node37</title>
<path fill="none" stroke="midnightblue" d="M636.532,-224.444C670.592,-215.201 725.006,-200.436 762.515,-190.257"/>
<polygon fill="midnightblue" stroke="midnightblue" points="763.881,-193.513 772.615,-187.516 762.048,-186.758 763.881,-193.513"/>
</g>
<!-- Node35&#45;&gt;Node6 -->
<g id="edge46" class="edge"><title>Node35&#45;&gt;Node6</title>
<path fill="none" stroke="midnightblue" d="M558.133,-168.368C539.155,-149.894 494.364,-106.293 470.173,-82.7436"/>
<polygon fill="midnightblue" stroke="midnightblue" points="472.433,-80.0588 462.826,-75.5914 467.55,-85.0747 472.433,-80.0588"/>
</g>
<!-- Node35&#45;&gt;Node9 -->
<g id="edge47" class="edge"><title>Node35&#45;&gt;Node9</title>
<path fill="none" stroke="midnightblue" d="M550.612,-168.324C534.329,-159.703 509.133,-146.364 490.284,-136.386"/>
<polygon fill="midnightblue" stroke="midnightblue" points="491.823,-133.24 481.347,-131.655 488.548,-139.427 491.823,-133.24"/>
</g>
<!-- Node35&#45;&gt;Node27 -->
<g id="edge45" class="edge"><title>Node35&#45;&gt;Node27</title>
<path fill="none" stroke="midnightblue" d="M583.388,-168.324C599.671,-159.703 624.867,-146.364 643.716,-136.386"/>
<polygon fill="midnightblue" stroke="midnightblue" points="645.452,-139.427 652.653,-131.655 642.177,-133.24 645.452,-139.427"/>
</g>
<!-- Node36 -->
<g id="node36" class="node"><title>Node36</title>
<polygon fill="white" stroke="#bfbfbf" points="552.5,-112.5 552.5,-131.5 581.5,-131.5 581.5,-112.5 552.5,-112.5"/>
<text text-anchor="middle" x="567" y="-119.5" font-family="Helvetica,sans-Serif" font-size="10.00">list</text>
</g>
<!-- Node35&#45;&gt;Node36 -->
<g id="edge48" class="edge"><title>Node35&#45;&gt;Node36</title>
<path fill="none" stroke="midnightblue" d="M567,-168.083C567,-161.006 567,-150.861 567,-141.986"/>
<polygon fill="midnightblue" stroke="midnightblue" points="570.5,-141.751 567,-131.751 563.5,-141.751 570.5,-141.751"/>
</g>
<!-- Node37&#45;&gt;Node11 -->
<g id="edge50" class="edge"><title>Node37&#45;&gt;Node11</title>
<path fill="none" stroke="midnightblue" d="M863.737,-168.444C942.8,-157.119 1079.76,-137.502 1144.75,-128.192"/>
<polygon fill="midnightblue" stroke="midnightblue" points="1145.51,-131.619 1154.92,-126.736 1144.52,-124.689 1145.51,-131.619"/>
</g>
<!-- Node37&#45;&gt;Node27 -->
<g id="edge52" class="edge"><title>Node37&#45;&gt;Node27</title>
<path fill="none" stroke="midnightblue" d="M782.609,-168.444C760.293,-159.517 725.097,-145.439 699.792,-135.317"/>
<polygon fill="midnightblue" stroke="midnightblue" points="700.876,-131.981 690.291,-131.516 698.276,-138.48 700.876,-131.981"/>
</g>
<!-- Node38 -->
<g id="node38" class="node"><title>Node38</title>
<g id="a_node38"><a xlink:href="NonCopyable_8h.html" target="_top" xlink:title="common/NonCopyable.h">
<polygon fill="white" stroke="black" points="803.5,-112.5 803.5,-131.5 928.5,-131.5 928.5,-112.5 803.5,-112.5"/>
<text text-anchor="middle" x="866" y="-119.5" font-family="Helvetica,sans-Serif" font-size="10.00">common/NonCopyable.h</text>
</a>
</g>
</g>
<!-- Node37&#45;&gt;Node38 -->
<g id="edge51" class="edge"><title>Node37&#45;&gt;Node38</title>
<path fill="none" stroke="midnightblue" d="M813.961,-168.324C823.127,-160.341 836.937,-148.313 848.028,-138.653"/>
<polygon fill="midnightblue" stroke="midnightblue" points="850.615,-141.041 855.857,-131.834 846.018,-135.762 850.615,-141.041"/>
</g>
<!-- Node39 -->
<g id="node39" class="node"><title>Node39</title>
<polygon fill="white" stroke="#bfbfbf" points="750.5,-112.5 750.5,-131.5 785.5,-131.5 785.5,-112.5 750.5,-112.5"/>
<text text-anchor="middle" x="768" y="-119.5" font-family="Helvetica,sans-Serif" font-size="10.00">map</text>
</g>
<!-- Node37&#45;&gt;Node39 -->
<g id="edge53" class="edge"><title>Node37&#45;&gt;Node39</title>
<path fill="none" stroke="midnightblue" d="M798.055,-168.083C793.023,-160.534 785.663,-149.495 779.487,-140.23"/>
<polygon fill="midnightblue" stroke="midnightblue" points="782.293,-138.13 773.834,-131.751 776.469,-142.013 782.293,-138.13"/>
</g>
<!-- Node40&#45;&gt;Node28 -->
<g id="edge56" class="edge"><title>Node40&#45;&gt;Node28</title>
<path fill="none" stroke="midnightblue" d="M624.889,-336.324C636.15,-328.107 653.287,-315.602 666.709,-305.807"/>
<polygon fill="midnightblue" stroke="midnightblue" points="668.88,-308.556 674.894,-299.834 664.753,-302.901 668.88,-308.556"/>
</g>
</g>
</svg>
        <g id="navigator" transform="translate(0 0)" fill="#404254">
                <rect fill="#f2f5e9" fill-opacity="0.5" stroke="#606060" stroke-width=".5" x="0" y="0" width="60" height="60"/>
                <use id="zoomplus" xlink:href="#zoomPlus" x="17" y="9" onmousedown="handleZoom(evt,'in')"/>
                <use id="zoomminus" xlink:href="#zoomMin" x="42" y="9" onmousedown="handleZoom(evt,'out')"/>
                <use id="reset" xlink:href="#resetDef" x="30" y="36" onmousedown="handleReset()"/>
                <g id="arrowUp" xlink:href="#dirArrow" transform="translate(30 24)" onmousedown="handlePan(0,-1)">
                  <use xlink:href="#rim" fill="#404040">
                        <set attributeName="fill" to="#808080" begin="arrowUp.mouseover" end="arrowUp.mouseout"/>
                  </use>
                  <path fill="none" stroke="white" stroke-width="1.5" d="M0,-3.0v7 M-2.5,-0.5L0,-3.0L2.5,-0.5"/>
                </g>
                <g id="arrowRight" xlink:href="#dirArrow" transform="rotate(90) translate(36 -43)" onmousedown="handlePan(1,0)">
                  <use xlink:href="#rim" fill="#404040">
                        <set attributeName="fill" to="#808080" begin="arrowRight.mouseover" end="arrowRight.mouseout"/>
                  </use>
                  <path fill="none" stroke="white" stroke-width="1.5" d="M0,-3.0v7 M-2.5,-0.5L0,-3.0L2.5,-0.5"/>
                </g>
                <g id="arrowDown" xlink:href="#dirArrow" transform="rotate(180) translate(-30 -48)" onmousedown="handlePan(0,1)">
                  <use xlink:href="#rim" fill="#404040">
                        <set attributeName="fill" to="#808080" begin="arrowDown.mouseover" end="arrowDown.mouseout"/>
                  </use>
                  <path fill="none" stroke="white" stroke-width="1.5" d="M0,-3.0v7 M-2.5,-0.5L0,-3.0L2.5,-0.5"/>
                </g>
                <g id="arrowLeft" xlink:href="#dirArrow" transform="rotate(270) translate(-36 17)" onmousedown="handlePan(-1,0)">
                  <use xlink:href="#rim" fill="#404040">
                        <set attributeName="fill" to="#808080" begin="arrowLeft.mouseover" end="arrowLeft.mouseout"/>
                  </use>
                  <path fill="none" stroke="white" stroke-width="1.5" d="M0,-3.0v7 M-2.5,-0.5L0,-3.0L2.5,-0.5"/>
                </g>
        </g>
        <svg viewBox="0 0 15 15" width="100%" height="30px" preserveAspectRatio="xMaxYMin meet">
         <g id="arrow_out" transform="scale(0.3 0.3)">
          <a xlink:href="AIAddNodeMessage_8h__incl_org.svg" target="_base">
           <rect id="button" ry="5" rx="5" y="6" x="6" height="38" width="38"
                fill="#f2f5e9" fill-opacity="0.5" stroke="#606060" stroke-width="1.0"/>
           <path id="arrow"
             d="M 11.500037,31.436501 C 11.940474,20.09759 22.043105,11.32322 32.158766,21.979434 L 37.068811,17.246167 C 37.068811,17.246167 37.088388,32 37.088388,32 L 22.160133,31.978069 C 22.160133,31.978069 26.997745,27.140456 26.997745,27.140456 C 18.528582,18.264221 13.291696,25.230495 11.500037,31.436501 z"
             style="fill:#404040;"/>
          </a>
         </g>
        </svg>
</svg>
