<?xml version="1.0" encoding="UTF-8" standalone="no"?>
<!DOCTYPE svg PUBLIC "-//W3C//DTD SVG 1.1//EN"
 "http://www.w3.org/Graphics/SVG/1.1/DTD/svg11.dtd">
<!-- Generated by graphviz version 2.36.0 (20140111.2315)
 -->
<!-- Title: /home/travis/build/mgerhardy/simpleai/src/ai/server/AICharacterDetailsMessage.h Pages: 1 -->
<svg width="1933pt" height="566pt"
 viewBox="0.00 0.00 1933.00 566.00" xmlns="http://www.w3.org/2000/svg" xmlns:xlink="http://www.w3.org/1999/xlink">
<g id="graph0" class="graph" transform="scale(1 1) rotate(0) translate(4 562)">
<title>/home/travis/build/mgerhardy/simpleai/src/ai/server/AICharacterDetailsMessage.h</title>
<polygon fill="white" stroke="none" points="-4,4 -4,-562 1929,-562 1929,4 -4,4"/>
<!-- Node1 -->
<g id="node1" class="node"><title>Node1</title>
<polygon fill="#bfbfbf" stroke="black" points="1215,-505 1215,-557 1375,-557 1375,-505 1215,-505"/>
<text text-anchor="start" x="1223" y="-545" font-family="Helvetica,sans-Serif" font-size="10.00">/home/travis/build</text>
<text text-anchor="start" x="1223" y="-534" font-family="Helvetica,sans-Serif" font-size="10.00">/mgerhardy/simpleai</text>
<text text-anchor="start" x="1223" y="-523" font-family="Helvetica,sans-Serif" font-size="10.00">/src/ai/server/AICharacterDetails</text>
<text text-anchor="middle" x="1295" y="-512" font-family="Helvetica,sans-Serif" font-size="10.00">Message.h</text>
</g>
<!-- Node2 -->
<g id="node2" class="node"><title>Node2</title>
<g id="a_node2"><a xlink:href="IProtocolMessage_8h.html" target="_top" xlink:title="IProtocolMessage.h">
<polygon fill="white" stroke="black" points="138,-448.5 138,-467.5 242,-467.5 242,-448.5 138,-448.5"/>
<text text-anchor="middle" x="190" y="-455.5" font-family="Helvetica,sans-Serif" font-size="10.00">IProtocolMessage.h</text>
</a>
</g>
</g>
<!-- Node1&#45;&gt;Node2 -->
<g id="edge1" class="edge"><title>Node1&#45;&gt;Node2</title>
<path fill="none" stroke="midnightblue" d="M1214.64,-524.837C1004.21,-511.316 440.353,-475.086 252.134,-462.992"/>
<polygon fill="midnightblue" stroke="midnightblue" points="252.334,-459.498 242.13,-462.35 251.885,-466.484 252.334,-459.498"/>
</g>
<!-- Node8 -->
<g id="node8" class="node"><title>Node8</title>
<g id="a_node8"><a xlink:href="AIStubTypes_8h.html" target="_top" xlink:title="AIStubTypes.h">
<polygon fill="white" stroke="black" points="1254,-448.5 1254,-467.5 1336,-467.5 1336,-448.5 1254,-448.5"/>
<text text-anchor="middle" x="1295" y="-455.5" font-family="Helvetica,sans-Serif" font-size="10.00">AIStubTypes.h</text>
</a>
</g>
</g>
<!-- Node1&#45;&gt;Node8 -->
<g id="edge7" class="edge"><title>Node1&#45;&gt;Node8</title>
<path fill="none" stroke="midnightblue" d="M1295,-504.768C1295,-495.89 1295,-486.074 1295,-477.816"/>
<polygon fill="midnightblue" stroke="midnightblue" points="1298.5,-477.757 1295,-467.757 1291.5,-477.757 1298.5,-477.757"/>
</g>
<!-- Node9 -->
<g id="node9" class="node"><title>Node9</title>
<polygon fill="white" stroke="#bfbfbf" points="1732,-112.5 1732,-131.5 1776,-131.5 1776,-112.5 1732,-112.5"/>
<text text-anchor="middle" x="1754" y="-119.5" font-family="Helvetica,sans-Serif" font-size="10.00">vector</text>
</g>
<!-- Node1&#45;&gt;Node9 -->
<g id="edge61" class="edge"><title>Node1&#45;&gt;Node9</title>
<path fill="none" stroke="midnightblue" d="M1375.16,-523.494C1473.78,-512.588 1643.64,-484.17 1770,-412 1800.29,-394.698 1811.8,-388.29 1825,-356 1847.21,-301.698 1832.66,-282.165 1825,-224 1821.64,-198.454 1824.07,-189.584 1810,-168 1801.88,-155.552 1789.19,-144.943 1777.94,-137.158"/>
<polygon fill="midnightblue" stroke="midnightblue" points="1779.63,-134.08 1769.34,-131.539 1775.8,-139.939 1779.63,-134.08"/>
</g>
<!-- Node3 -->
<g id="node3" class="node"><title>Node3</title>
<polygon fill="white" stroke="#bfbfbf" points="197.5,-392.5 197.5,-411.5 246.5,-411.5 246.5,-392.5 197.5,-392.5"/>
<text text-anchor="middle" x="222" y="-399.5" font-family="Helvetica,sans-Serif" font-size="10.00">stdint.h</text>
</g>
<!-- Node2&#45;&gt;Node3 -->
<g id="edge2" class="edge"><title>Node2&#45;&gt;Node3</title>
<path fill="none" stroke="midnightblue" d="M195.284,-448.083C199.711,-440.613 206.163,-429.724 211.618,-420.52"/>
<polygon fill="midnightblue" stroke="midnightblue" points="214.727,-422.138 216.814,-411.751 208.705,-418.57 214.727,-422.138"/>
</g>
<!-- Node4 -->
<g id="node4" class="node"><title>Node4</title>
<polygon fill="white" stroke="#bfbfbf" points="0,-392.5 0,-411.5 52,-411.5 52,-392.5 0,-392.5"/>
<text text-anchor="middle" x="26" y="-399.5" font-family="Helvetica,sans-Serif" font-size="10.00">stddef.h</text>
</g>
<!-- Node2&#45;&gt;Node4 -->
<g id="edge3" class="edge"><title>Node2&#45;&gt;Node4</title>
<path fill="none" stroke="midnightblue" d="M164.014,-448.444C136.304,-439.32 92.2477,-424.813 61.3843,-414.651"/>
<polygon fill="midnightblue" stroke="midnightblue" points="62.4577,-411.32 51.8647,-411.516 60.2684,-417.968 62.4577,-411.32"/>
</g>
<!-- Node5 -->
<g id="node5" class="node"><title>Node5</title>
<polygon fill="white" stroke="#bfbfbf" points="70,-392.5 70,-411.5 118,-411.5 118,-392.5 70,-392.5"/>
<text text-anchor="middle" x="94" y="-399.5" font-family="Helvetica,sans-Serif" font-size="10.00">limits.h</text>
</g>
<!-- Node2&#45;&gt;Node5 -->
<g id="edge4" class="edge"><title>Node2&#45;&gt;Node5</title>
<path fill="none" stroke="midnightblue" d="M174.576,-448.324C159.46,-439.822 136.185,-426.729 118.529,-416.797"/>
<polygon fill="midnightblue" stroke="midnightblue" points="119.817,-413.507 109.386,-411.655 116.386,-419.608 119.817,-413.507"/>
</g>
<!-- Node6 -->
<g id="node6" class="node"><title>Node6</title>
<polygon fill="white" stroke="#bfbfbf" points="1348.5,-56.5 1348.5,-75.5 1389.5,-75.5 1389.5,-56.5 1348.5,-56.5"/>
<text text-anchor="middle" x="1369" y="-63.5" font-family="Helvetica,sans-Serif" font-size="10.00">string</text>
</g>
<!-- Node2&#45;&gt;Node6 -->
<g id="edge5" class="edge"><title>Node2&#45;&gt;Node6</title>
<path fill="none" stroke="midnightblue" d="M208.539,-448.482C223.152,-440.87 243.002,-428.391 255,-412 272.853,-387.61 275,-377.225 275,-347 275,-347 275,-347 275,-177 275,-122.049 1160.34,-76.9458 1338.13,-68.4423"/>
<polygon fill="midnightblue" stroke="midnightblue" points="1338.3,-71.9381 1348.12,-67.9672 1337.97,-64.946 1338.3,-71.9381"/>
</g>
<!-- Node7 -->
<g id="node7" class="node"><title>Node7</title>
<polygon fill="white" stroke="#bfbfbf" points="136.5,-392.5 136.5,-411.5 179.5,-411.5 179.5,-392.5 136.5,-392.5"/>
<text text-anchor="middle" x="158" y="-399.5" font-family="Helvetica,sans-Serif" font-size="10.00">deque</text>
</g>
<!-- Node2&#45;&gt;Node7 -->
<g id="edge6" class="edge"><title>Node2&#45;&gt;Node7</title>
<path fill="none" stroke="midnightblue" d="M184.716,-448.083C180.289,-440.613 173.837,-429.724 168.382,-420.52"/>
<polygon fill="midnightblue" stroke="midnightblue" points="171.295,-418.57 163.186,-411.751 165.273,-422.138 171.295,-418.57"/>
</g>
<!-- Node8&#45;&gt;Node6 -->
<g id="edge9" class="edge"><title>Node8&#45;&gt;Node6</title>
<path fill="none" stroke="midnightblue" d="M1336.12,-456.05C1436.48,-453.264 1691.49,-443.233 1770,-412 1851.2,-379.694 1925,-378.394 1925,-291 1925,-291 1925,-291 1925,-177 1925,-69.0562 1516.61,-65.3396 1399.84,-66.4832"/>
<polygon fill="midnightblue" stroke="midnightblue" points="1399.74,-62.9841 1389.78,-66.6015 1399.82,-69.9836 1399.74,-62.9841"/>
</g>
<!-- Node8&#45;&gt;Node9 -->
<g id="edge8" class="edge"><title>Node8&#45;&gt;Node9</title>
<path fill="none" stroke="midnightblue" d="M1336.35,-456.965C1458.8,-455.757 1811,-443.863 1811,-347 1811,-347 1811,-347 1811,-233 1811,-196.3 1785.68,-159.657 1768.79,-139.297"/>
<polygon fill="midnightblue" stroke="midnightblue" points="1771.35,-136.904 1762.17,-131.616 1766.05,-141.475 1771.35,-136.904"/>
</g>
<!-- Node10 -->
<g id="node10" class="node"><title>Node10</title>
<g id="a_node10"><a xlink:href="Math_8h.html" target="_top" xlink:title="common/Math.h">
<polygon fill="white" stroke="black" points="685.5,-392.5 685.5,-411.5 772.5,-411.5 772.5,-392.5 685.5,-392.5"/>
<text text-anchor="middle" x="729" y="-399.5" font-family="Helvetica,sans-Serif" font-size="10.00">common/Math.h</text>
</a>
</g>
</g>
<!-- Node8&#45;&gt;Node10 -->
<g id="edge10" class="edge"><title>Node8&#45;&gt;Node10</title>
<path fill="none" stroke="midnightblue" d="M1253.84,-453.073C1153.31,-443.482 895.324,-418.868 782.813,-408.134"/>
<polygon fill="midnightblue" stroke="midnightblue" points="782.998,-404.636 772.711,-407.17 782.333,-411.604 782.998,-404.636"/>
</g>
<!-- Node11 -->
<g id="node11" class="node"><title>Node11</title>
<g id="a_node11"><a xlink:href="Types_8h.html" target="_top" xlink:title="Types.h">
<polygon fill="white" stroke="black" points="990,-112.5 990,-131.5 1042,-131.5 1042,-112.5 990,-112.5"/>
<text text-anchor="middle" x="1016" y="-119.5" font-family="Helvetica,sans-Serif" font-size="10.00">Types.h</text>
</a>
</g>
</g>
<!-- Node8&#45;&gt;Node11 -->
<g id="edge27" class="edge"><title>Node8&#45;&gt;Node11</title>
<path fill="none" stroke="midnightblue" d="M1253.74,-456.784C1067.36,-455.277 313,-443.23 313,-347 313,-347 313,-347 313,-233 313,-164.832 835.617,-132.44 979.638,-124.807"/>
<polygon fill="midnightblue" stroke="midnightblue" points="979.921,-128.297 989.725,-124.28 979.556,-121.307 979.921,-128.297"/>
</g>
<!-- Node25 -->
<g id="node25" class="node"><title>Node25</title>
<g id="a_node25"><a xlink:href="TreeNode_8h.html" target="_top" xlink:title="tree/TreeNode.h">
<polygon fill="white" stroke="black" points="1251.5,-392.5 1251.5,-411.5 1338.5,-411.5 1338.5,-392.5 1251.5,-392.5"/>
<text text-anchor="middle" x="1295" y="-399.5" font-family="Helvetica,sans-Serif" font-size="10.00">tree/TreeNode.h</text>
</a>
</g>
</g>
<!-- Node8&#45;&gt;Node25 -->
<g id="edge28" class="edge"><title>Node8&#45;&gt;Node25</title>
<path fill="none" stroke="midnightblue" d="M1295,-448.083C1295,-441.006 1295,-430.861 1295,-421.986"/>
<polygon fill="midnightblue" stroke="midnightblue" points="1298.5,-421.751 1295,-411.751 1291.5,-421.751 1298.5,-421.751"/>
</g>
<!-- Node10&#45;&gt;Node11 -->
<g id="edge11" class="edge"><title>Node10&#45;&gt;Node11</title>
<path fill="none" stroke="midnightblue" d="M729,-392.442C729,-373.936 729,-328.812 729,-291 729,-291 729,-291 729,-233 729,-179.934 902.241,-142.927 979.529,-129.057"/>
<polygon fill="midnightblue" stroke="midnightblue" points="980.528,-132.435 989.77,-127.254 979.314,-125.541 980.528,-132.435"/>
</g>
<!-- Node18 -->
<g id="node18" class="node"><title>Node18</title>
<polygon fill="white" stroke="#bfbfbf" points="757,-336.5 757,-355.5 827,-355.5 827,-336.5 757,-336.5"/>
<text text-anchor="middle" x="792" y="-343.5" font-family="Helvetica,sans-Serif" font-size="10.00">glm/glm.hpp</text>
</g>
<!-- Node10&#45;&gt;Node18 -->
<g id="edge20" class="edge"><title>Node10&#45;&gt;Node18</title>
<path fill="none" stroke="midnightblue" d="M739.122,-392.324C748.526,-384.263 762.744,-372.077 774.069,-362.369"/>
<polygon fill="midnightblue" stroke="midnightblue" points="776.379,-364.999 781.694,-355.834 771.823,-359.684 776.379,-364.999"/>
</g>
<!-- Node19 -->
<g id="node19" class="node"><title>Node19</title>
<polygon fill="white" stroke="#bfbfbf" points="845.5,-336.5 845.5,-355.5 958.5,-355.5 958.5,-336.5 845.5,-336.5"/>
<text text-anchor="middle" x="902" y="-343.5" font-family="Helvetica,sans-Serif" font-size="10.00">glm/gtc/constants.hpp</text>
</g>
<!-- Node10&#45;&gt;Node19 -->
<g id="edge21" class="edge"><title>Node10&#45;&gt;Node19</title>
<path fill="none" stroke="midnightblue" d="M756.412,-392.444C785.769,-383.28 832.519,-368.688 865.096,-358.519"/>
<polygon fill="midnightblue" stroke="midnightblue" points="866.213,-361.837 874.716,-355.516 864.127,-355.155 866.213,-361.837"/>
</g>
<!-- Node20 -->
<g id="node20" class="node"><title>Node20</title>
<polygon fill="white" stroke="#bfbfbf" points="976.5,-336.5 976.5,-355.5 1077.5,-355.5 1077.5,-336.5 976.5,-336.5"/>
<text text-anchor="middle" x="1027" y="-343.5" font-family="Helvetica,sans-Serif" font-size="10.00">glm/gtc/epsilon.hpp</text>
</g>
<!-- Node10&#45;&gt;Node20 -->
<g id="edge22" class="edge"><title>Node10&#45;&gt;Node20</title>
<path fill="none" stroke="midnightblue" d="M772.651,-393.09C824.809,-383.639 912.228,-367.798 969.759,-357.372"/>
<polygon fill="midnightblue" stroke="midnightblue" points="970.569,-360.783 979.785,-355.556 969.321,-353.895 970.569,-360.783"/>
</g>
<!-- Node21 -->
<g id="node21" class="node"><title>Node21</title>
<polygon fill="white" stroke="#bfbfbf" points="341.5,-336.5 341.5,-355.5 466.5,-355.5 466.5,-336.5 341.5,-336.5"/>
<text text-anchor="middle" x="404" y="-343.5" font-family="Helvetica,sans-Serif" font-size="10.00">glm/gtx/compatibility.hpp</text>
</g>
<!-- Node10&#45;&gt;Node21 -->
<g id="edge23" class="edge"><title>Node10&#45;&gt;Node21</title>
<path fill="none" stroke="midnightblue" d="M685.169,-393.717C628.511,-384.303 529.532,-367.858 465.404,-357.203"/>
<polygon fill="midnightblue" stroke="midnightblue" points="465.861,-353.731 455.423,-355.544 464.714,-360.636 465.861,-353.731"/>
</g>
<!-- Node22 -->
<g id="node22" class="node"><title>Node22</title>
<polygon fill="white" stroke="#bfbfbf" points="485,-336.5 485,-355.5 577,-355.5 577,-336.5 485,-336.5"/>
<text text-anchor="middle" x="531" y="-343.5" font-family="Helvetica,sans-Serif" font-size="10.00">glm/gtx/norm.hpp</text>
</g>
<!-- Node10&#45;&gt;Node22 -->
<g id="edge24" class="edge"><title>Node10&#45;&gt;Node22</title>
<path fill="none" stroke="midnightblue" d="M697.626,-392.444C663.737,-383.201 609.597,-368.436 572.276,-358.257"/>
<polygon fill="midnightblue" stroke="midnightblue" points="572.795,-354.771 562.227,-355.516 570.954,-361.524 572.795,-354.771"/>
</g>
<!-- Node23 -->
<g id="node23" class="node"><title>Node23</title>
<polygon fill="white" stroke="#bfbfbf" points="595,-336.5 595,-355.5 635,-355.5 635,-336.5 595,-336.5"/>
<text text-anchor="middle" x="615" y="-343.5" font-family="Helvetica,sans-Serif" font-size="10.00">limits</text>
</g>
<!-- Node10&#45;&gt;Node23 -->
<g id="edge25" class="edge"><title>Node10&#45;&gt;Node23</title>
<path fill="none" stroke="midnightblue" d="M710.936,-392.444C692.425,-383.675 663.419,-369.935 642.145,-359.858"/>
<polygon fill="midnightblue" stroke="midnightblue" points="643.515,-356.634 632.979,-355.516 640.518,-362.96 643.515,-356.634"/>
</g>
<!-- Node24 -->
<g id="node24" class="node"><title>Node24</title>
<polygon fill="white" stroke="#bfbfbf" points="653.5,-336.5 653.5,-355.5 700.5,-355.5 700.5,-336.5 653.5,-336.5"/>
<text text-anchor="middle" x="677" y="-343.5" font-family="Helvetica,sans-Serif" font-size="10.00">math.h</text>
</g>
<!-- Node10&#45;&gt;Node24 -->
<g id="edge26" class="edge"><title>Node10&#45;&gt;Node24</title>
<path fill="none" stroke="midnightblue" d="M720.413,-392.083C712.841,-384.22 701.622,-372.569 692.486,-363.081"/>
<polygon fill="midnightblue" stroke="midnightblue" points="694.885,-360.527 685.427,-355.751 689.842,-365.382 694.885,-360.527"/>
</g>
<!-- Node11&#45;&gt;Node6 -->
<g id="edge16" class="edge"><title>Node11&#45;&gt;Node6</title>
<path fill="none" stroke="midnightblue" d="M1042.24,-116.985C1106.1,-107.218 1269.33,-82.2466 1337.91,-71.7554"/>
<polygon fill="midnightblue" stroke="midnightblue" points="1338.72,-75.1725 1348.08,-70.2005 1337.66,-68.253 1338.72,-75.1725"/>
</g>
<!-- Node12 -->
<g id="node12" class="node"><title>Node12</title>
<g id="a_node12"><a xlink:href="Log_8h.html" target="_top" xlink:title="Log.h">
<polygon fill="white" stroke="black" points="1100.5,-56.5 1100.5,-75.5 1141.5,-75.5 1141.5,-56.5 1100.5,-56.5"/>
<text text-anchor="middle" x="1121" y="-63.5" font-family="Helvetica,sans-Serif" font-size="10.00">Log.h</text>
</a>
</g>
</g>
<!-- Node11&#45;&gt;Node12 -->
<g id="edge12" class="edge"><title>Node11&#45;&gt;Node12</title>
<path fill="none" stroke="midnightblue" d="M1032.87,-112.324C1049.71,-103.664 1075.81,-90.2424 1095.24,-80.249"/>
<polygon fill="midnightblue" stroke="midnightblue" points="1096.88,-83.3405 1104.17,-75.6545 1093.68,-77.1155 1096.88,-83.3405"/>
</g>
<!-- Node13 -->
<g id="node13" class="node"><title>Node13</title>
<polygon fill="white" stroke="#bfbfbf" points="959.5,-0.5 959.5,-19.5 1002.5,-19.5 1002.5,-0.5 959.5,-0.5"/>
<text text-anchor="middle" x="981" y="-7.5" font-family="Helvetica,sans-Serif" font-size="10.00">cstdio</text>
</g>
<!-- Node11&#45;&gt;Node13 -->
<g id="edge19" class="edge"><title>Node11&#45;&gt;Node13</title>
<path fill="none" stroke="midnightblue" d="M989.596,-116.19C967.554,-110.632 937.484,-99.0983 923,-76 910.752,-56.467 933.657,-37.1485 954.192,-24.7152"/>
<polygon fill="midnightblue" stroke="midnightblue" points="956.082,-27.6666 963.032,-19.6694 952.612,-21.5873 956.082,-27.6666"/>
</g>
<!-- Node16 -->
<g id="node16" class="node"><title>Node16</title>
<polygon fill="white" stroke="#bfbfbf" points="932.5,-56.5 932.5,-75.5 1015.5,-75.5 1015.5,-56.5 932.5,-56.5"/>
<text text-anchor="middle" x="974" y="-63.5" font-family="Helvetica,sans-Serif" font-size="10.00">unordered_map</text>
</g>
<!-- Node11&#45;&gt;Node16 -->
<g id="edge17" class="edge"><title>Node11&#45;&gt;Node16</title>
<path fill="none" stroke="midnightblue" d="M1009.06,-112.083C1003.07,-104.377 994.248,-93.0333 986.952,-83.6531"/>
<polygon fill="midnightblue" stroke="midnightblue" points="989.709,-81.4958 980.806,-75.7511 984.183,-85.7934 989.709,-81.4958"/>
</g>
<!-- Node17 -->
<g id="node17" class="node"><title>Node17</title>
<polygon fill="white" stroke="#bfbfbf" points="1033.5,-56.5 1033.5,-75.5 1082.5,-75.5 1082.5,-56.5 1033.5,-56.5"/>
<text text-anchor="middle" x="1058" y="-63.5" font-family="Helvetica,sans-Serif" font-size="10.00">cassert</text>
</g>
<!-- Node11&#45;&gt;Node17 -->
<g id="edge18" class="edge"><title>Node11&#45;&gt;Node17</title>
<path fill="none" stroke="midnightblue" d="M1022.94,-112.083C1028.93,-104.377 1037.75,-93.0333 1045.05,-83.6531"/>
<polygon fill="midnightblue" stroke="midnightblue" points="1047.82,-85.7934 1051.19,-75.7511 1042.29,-81.4958 1047.82,-85.7934"/>
</g>
<!-- Node12&#45;&gt;Node13 -->
<g id="edge13" class="edge"><title>Node12&#45;&gt;Node13</title>
<path fill="none" stroke="midnightblue" d="M1100.34,-57.0321C1077.04,-48.0437 1038.89,-33.3298 1012.01,-22.9609"/>
<polygon fill="midnightblue" stroke="midnightblue" points="1013.25,-19.6893 1002.66,-19.3561 1010.73,-26.2204 1013.25,-19.6893"/>
</g>
<!-- Node14 -->
<g id="node14" class="node"><title>Node14</title>
<polygon fill="white" stroke="#bfbfbf" points="1129.5,-0.5 1129.5,-19.5 1178.5,-19.5 1178.5,-0.5 1129.5,-0.5"/>
<text text-anchor="middle" x="1154" y="-7.5" font-family="Helvetica,sans-Serif" font-size="10.00">cstdarg</text>
</g>
<!-- Node12&#45;&gt;Node14 -->
<g id="edge14" class="edge"><title>Node12&#45;&gt;Node14</title>
<path fill="none" stroke="midnightblue" d="M1126.45,-56.083C1131.01,-48.6127 1137.67,-37.7244 1143.29,-28.5199"/>
<polygon fill="midnightblue" stroke="midnightblue" points="1146.42,-30.109 1148.65,-19.7511 1140.45,-26.4588 1146.42,-30.109"/>
</g>
<!-- Node15 -->
<g id="node15" class="node"><title>Node15</title>
<polygon fill="white" stroke="#bfbfbf" points="1065,-0.5 1065,-19.5 1111,-19.5 1111,-0.5 1065,-0.5"/>
<text text-anchor="middle" x="1088" y="-7.5" font-family="Helvetica,sans-Serif" font-size="10.00">cstring</text>
</g>
<!-- Node12&#45;&gt;Node15 -->
<g id="edge15" class="edge"><title>Node12&#45;&gt;Node15</title>
<path fill="none" stroke="midnightblue" d="M1115.55,-56.083C1110.99,-48.6127 1104.33,-37.7244 1098.71,-28.5199"/>
<polygon fill="midnightblue" stroke="midnightblue" points="1101.55,-26.4588 1093.35,-19.7511 1095.58,-30.109 1101.55,-26.4588"/>
</g>
<!-- Node25&#45;&gt;Node6 -->
<g id="edge58" class="edge"><title>Node25&#45;&gt;Node6</title>
<path fill="none" stroke="midnightblue" d="M1338.61,-399.424C1433.76,-395.509 1657.03,-383.595 1727,-356 1809.94,-323.291 1887,-324.156 1887,-235 1887,-235 1887,-235 1887,-177 1887,-76.794 1511.4,-67.4834 1399.87,-66.9277"/>
<polygon fill="midnightblue" stroke="midnightblue" points="1399.64,-63.4271 1389.63,-66.8982 1399.62,-70.427 1399.64,-63.4271"/>
</g>
<!-- Node25&#45;&gt;Node9 -->
<g id="edge57" class="edge"><title>Node25&#45;&gt;Node9</title>
<path fill="none" stroke="midnightblue" d="M1338.69,-400.201C1456.69,-396.869 1773,-379.668 1773,-291 1773,-291 1773,-291 1773,-233 1773,-200.489 1764.84,-163.35 1759.22,-141.61"/>
<polygon fill="midnightblue" stroke="midnightblue" points="1762.54,-140.498 1756.56,-131.751 1755.78,-142.317 1762.54,-140.498"/>
</g>
<!-- Node25&#45;&gt;Node11 -->
<g id="edge29" class="edge"><title>Node25&#45;&gt;Node11</title>
<path fill="none" stroke="midnightblue" d="M1251.4,-393.692C1182.11,-379.34 1049.96,-340.056 1004,-244 987.968,-210.493 999.644,-165.882 1008.51,-141.262"/>
<polygon fill="midnightblue" stroke="midnightblue" points="1011.85,-142.336 1012.17,-131.746 1005.31,-139.827 1011.85,-142.336"/>
</g>
<!-- Node26 -->
<g id="node26" class="node"><title>Node26</title>
<g id="a_node26"><a xlink:href="MemoryAllocator_8h.html" target="_top" xlink:title="common/MemoryAllocator.h">
<polygon fill="white" stroke="black" points="1013.5,-224.5 1013.5,-243.5 1152.5,-243.5 1152.5,-224.5 1013.5,-224.5"/>
<text text-anchor="middle" x="1083" y="-231.5" font-family="Helvetica,sans-Serif" font-size="10.00">common/MemoryAllocator.h</text>
</a>
</g>
</g>
<!-- Node25&#45;&gt;Node26 -->
<g id="edge30" class="edge"><title>Node25&#45;&gt;Node26</title>
<path fill="none" stroke="midnightblue" d="M1251.49,-392.622C1225.34,-385.968 1192.5,-374.603 1168,-356 1131,-327.902 1103.83,-279.06 1091.09,-252.846"/>
<polygon fill="midnightblue" stroke="midnightblue" points="1094.21,-251.262 1086.79,-243.704 1087.88,-254.242 1094.21,-251.262"/>
</g>
<!-- Node27 -->
<g id="node27" class="node"><title>Node27</title>
<polygon fill="white" stroke="#bfbfbf" points="1215,-112.5 1215,-131.5 1267,-131.5 1267,-112.5 1215,-112.5"/>
<text text-anchor="middle" x="1241" y="-119.5" font-family="Helvetica,sans-Serif" font-size="10.00">memory</text>
</g>
<!-- Node25&#45;&gt;Node27 -->
<g id="edge59" class="edge"><title>Node25&#45;&gt;Node27</title>
<path fill="none" stroke="midnightblue" d="M1256.15,-392.364C1236.62,-385.847 1214.67,-374.704 1203,-356 1159.3,-285.975 1207.87,-181.925 1230.59,-140.723"/>
<polygon fill="midnightblue" stroke="midnightblue" points="1233.72,-142.292 1235.61,-131.867 1227.63,-138.838 1233.72,-142.292"/>
</g>
<!-- Node28 -->
<g id="node28" class="node"><title>Node28</title>
<g id="a_node28"><a xlink:href="ICondition_8h.html" target="_top" xlink:title="Condition related stuff. ">
<polygon fill="white" stroke="black" points="1274,-280.5 1274,-299.5 1390,-299.5 1390,-280.5 1274,-280.5"/>
<text text-anchor="middle" x="1332" y="-287.5" font-family="Helvetica,sans-Serif" font-size="10.00">conditions/ICondition.h</text>
</a>
</g>
</g>
<!-- Node25&#45;&gt;Node28 -->
<g id="edge32" class="edge"><title>Node25&#45;&gt;Node28</title>
<path fill="none" stroke="midnightblue" d="M1298.7,-392.466C1302.52,-383.483 1308.55,-368.885 1313,-356 1318.34,-340.546 1323.48,-322.701 1327.07,-309.623"/>
<polygon fill="midnightblue" stroke="midnightblue" points="1330.46,-310.483 1329.69,-299.916 1323.7,-308.661 1330.46,-310.483"/>
</g>
<!-- Node40 -->
<g id="node40" class="node"><title>Node40</title>
<g id="a_node40"><a xlink:href="True_8h.html" target="_top" xlink:title="conditions/True.h">
<polygon fill="white" stroke="black" points="1212,-336.5 1212,-355.5 1304,-355.5 1304,-336.5 1212,-336.5"/>
<text text-anchor="middle" x="1258" y="-343.5" font-family="Helvetica,sans-Serif" font-size="10.00">conditions/True.h</text>
</a>
</g>
</g>
<!-- Node25&#45;&gt;Node40 -->
<g id="edge55" class="edge"><title>Node25&#45;&gt;Node40</title>
<path fill="none" stroke="midnightblue" d="M1288.89,-392.083C1283.72,-384.534 1276.15,-373.495 1269.81,-364.23"/>
<polygon fill="midnightblue" stroke="midnightblue" points="1272.54,-362.022 1264,-355.751 1266.76,-365.979 1272.54,-362.022"/>
</g>
<!-- Node41 -->
<g id="node41" class="node"><title>Node41</title>
<polygon fill="white" stroke="#bfbfbf" points="1360,-336.5 1360,-355.5 1416,-355.5 1416,-336.5 1360,-336.5"/>
<text text-anchor="middle" x="1388" y="-343.5" font-family="Helvetica,sans-Serif" font-size="10.00">algorithm</text>
</g>
<!-- Node25&#45;&gt;Node41 -->
<g id="edge60" class="edge"><title>Node25&#45;&gt;Node41</title>
<path fill="none" stroke="midnightblue" d="M1309.94,-392.324C1324.59,-383.822 1347.13,-370.729 1364.24,-360.797"/>
<polygon fill="midnightblue" stroke="midnightblue" points="1366.2,-363.703 1373.1,-355.655 1362.69,-357.649 1366.2,-363.703"/>
</g>
<!-- Node26&#45;&gt;Node27 -->
<g id="edge31" class="edge"><title>Node26&#45;&gt;Node27</title>
<path fill="none" stroke="midnightblue" d="M1088,-224.28C1096.22,-210.616 1113.81,-184.066 1135,-168 1156,-152.078 1183.48,-140.622 1205.19,-133.254"/>
<polygon fill="midnightblue" stroke="midnightblue" points="1206.29,-136.576 1214.72,-130.155 1204.13,-129.92 1206.29,-136.576"/>
</g>
<!-- Node28&#45;&gt;Node6 -->
<g id="edge33" class="edge"><title>Node28&#45;&gt;Node6</title>
<path fill="none" stroke="midnightblue" d="M1310.21,-280.471C1293.52,-272.998 1270.9,-260.712 1256,-244 1214.26,-197.17 1168,-161.915 1206,-112 1221.94,-91.0589 1295.52,-77.3767 1338.17,-71.0581"/>
<polygon fill="midnightblue" stroke="midnightblue" points="1338.89,-74.4909 1348.29,-69.6104 1337.9,-67.5614 1338.89,-74.4909"/>
</g>
<!-- Node28&#45;&gt;Node9 -->
<g id="edge34" class="edge"><title>Node28&#45;&gt;Node9</title>
<path fill="none" stroke="midnightblue" d="M1390.12,-286.373C1448.35,-282.221 1539.74,-271.525 1614,-244 1658.53,-227.496 1669.87,-219.96 1705,-188 1720.46,-173.936 1734.41,-154.432 1743.43,-140.465"/>
<polygon fill="midnightblue" stroke="midnightblue" points="1746.51,-142.147 1748.85,-131.815 1740.58,-138.43 1746.51,-142.147"/>
</g>
<!-- Node28&#45;&gt;Node26 -->
<g id="edge37" class="edge"><title>Node28&#45;&gt;Node26</title>
<path fill="none" stroke="midnightblue" d="M1292.55,-280.444C1249.11,-271.023 1179.21,-255.866 1132.22,-245.675"/>
<polygon fill="midnightblue" stroke="midnightblue" points="1132.78,-242.215 1122.27,-243.516 1131.3,-249.056 1132.78,-242.215"/>
</g>
<!-- Node28&#45;&gt;Node27 -->
<g id="edge36" class="edge"><title>Node28&#45;&gt;Node27</title>
<path fill="none" stroke="midnightblue" d="M1318.35,-280.219C1306.2,-271.927 1288.47,-258.61 1276,-244 1257.39,-222.196 1251.99,-215.528 1244,-188 1239.61,-172.897 1239.11,-154.997 1239.57,-141.809"/>
<polygon fill="midnightblue" stroke="midnightblue" points="1243.07,-141.802 1240.14,-131.622 1236.08,-141.41 1243.07,-141.802"/>
</g>
<!-- Node29 -->
<g id="node29" class="node"><title>Node29</title>
<polygon fill="white" stroke="#bfbfbf" points="1399,-224.5 1399,-243.5 1451,-243.5 1451,-224.5 1399,-224.5"/>
<text text-anchor="middle" x="1425" y="-231.5" font-family="Helvetica,sans-Serif" font-size="10.00">sstream</text>
</g>
<!-- Node28&#45;&gt;Node29 -->
<g id="edge35" class="edge"><title>Node28&#45;&gt;Node29</title>
<path fill="none" stroke="midnightblue" d="M1346.94,-280.324C1361.59,-271.822 1384.13,-258.729 1401.24,-248.797"/>
<polygon fill="midnightblue" stroke="midnightblue" points="1403.2,-251.703 1410.1,-243.655 1399.69,-245.649 1403.2,-251.703"/>
</g>
<!-- Node30 -->
<g id="node30" class="node"><title>Node30</title>
<g id="a_node30"><a xlink:href="Thread_8h.html" target="_top" xlink:title="common/Thread.h">
<polygon fill="white" stroke="black" points="1285.5,-224.5 1285.5,-243.5 1380.5,-243.5 1380.5,-224.5 1285.5,-224.5"/>
<text text-anchor="middle" x="1333" y="-231.5" font-family="Helvetica,sans-Serif" font-size="10.00">common/Thread.h</text>
</a>
</g>
</g>
<!-- Node28&#45;&gt;Node30 -->
<g id="edge38" class="edge"><title>Node28&#45;&gt;Node30</title>
<path fill="none" stroke="midnightblue" d="M1332.17,-280.083C1332.3,-273.006 1332.48,-262.861 1332.65,-253.986"/>
<polygon fill="midnightblue" stroke="midnightblue" points="1336.15,-253.814 1332.84,-243.751 1329.15,-253.685 1336.15,-253.814"/>
</g>
<!-- Node34 -->
<g id="node34" class="node"><title>Node34</title>
<g id="a_node34"><a xlink:href="AIFactories_8h.html" target="_top" xlink:title="AIFactories.h">
<polygon fill="white" stroke="black" points="1530.5,-224.5 1530.5,-243.5 1605.5,-243.5 1605.5,-224.5 1530.5,-224.5"/>
<text text-anchor="middle" x="1568" y="-231.5" font-family="Helvetica,sans-Serif" font-size="10.00">AIFactories.h</text>
</a>
</g>
</g>
<!-- Node28&#45;&gt;Node34 -->
<g id="edge43" class="edge"><title>Node28&#45;&gt;Node34</title>
<path fill="none" stroke="midnightblue" d="M1369.39,-280.444C1410.39,-271.063 1476.25,-255.993 1520.78,-245.804"/>
<polygon fill="midnightblue" stroke="midnightblue" points="1521.81,-249.159 1530.78,-243.516 1520.25,-242.335 1521.81,-249.159"/>
</g>
<!-- Node30&#45;&gt;Node11 -->
<g id="edge39" class="edge"><title>Node30&#45;&gt;Node11</title>
<path fill="none" stroke="midnightblue" d="M1308.39,-224.46C1252.33,-205.006 1115.01,-157.355 1050.51,-134.977"/>
<polygon fill="midnightblue" stroke="midnightblue" points="1051.41,-131.582 1040.81,-131.61 1049.11,-138.195 1051.41,-131.582"/>
</g>
<!-- Node31 -->
<g id="node31" class="node"><title>Node31</title>
<polygon fill="white" stroke="#bfbfbf" points="1253,-168.5 1253,-187.5 1297,-187.5 1297,-168.5 1253,-168.5"/>
<text text-anchor="middle" x="1275" y="-175.5" font-family="Helvetica,sans-Serif" font-size="10.00">thread</text>
</g>
<!-- Node30&#45;&gt;Node31 -->
<g id="edge40" class="edge"><title>Node30&#45;&gt;Node31</title>
<path fill="none" stroke="midnightblue" d="M1323.68,-224.324C1315.11,-216.341 1302.19,-204.313 1291.81,-194.653"/>
<polygon fill="midnightblue" stroke="midnightblue" points="1294.19,-192.086 1284.49,-187.834 1289.42,-197.21 1294.19,-192.086"/>
</g>
<!-- Node32 -->
<g id="node32" class="node"><title>Node32</title>
<polygon fill="white" stroke="#bfbfbf" points="1315,-168.5 1315,-187.5 1359,-187.5 1359,-168.5 1315,-168.5"/>
<text text-anchor="middle" x="1337" y="-175.5" font-family="Helvetica,sans-Serif" font-size="10.00">mutex</text>
</g>
<!-- Node30&#45;&gt;Node32 -->
<g id="edge41" class="edge"><title>Node30&#45;&gt;Node32</title>
<path fill="none" stroke="midnightblue" d="M1333.66,-224.083C1334.18,-217.006 1334.94,-206.861 1335.59,-197.986"/>
<polygon fill="midnightblue" stroke="midnightblue" points="1339.1,-197.982 1336.35,-187.751 1332.12,-197.465 1339.1,-197.982"/>
</g>
<!-- Node33 -->
<g id="node33" class="node"><title>Node33</title>
<polygon fill="white" stroke="#bfbfbf" points="1377,-168.5 1377,-187.5 1423,-187.5 1423,-168.5 1377,-168.5"/>
<text text-anchor="middle" x="1400" y="-175.5" font-family="Helvetica,sans-Serif" font-size="10.00">atomic</text>
</g>
<!-- Node30&#45;&gt;Node33 -->
<g id="edge42" class="edge"><title>Node30&#45;&gt;Node33</title>
<path fill="none" stroke="midnightblue" d="M1343.76,-224.324C1353.77,-216.263 1368.89,-204.077 1380.93,-194.369"/>
<polygon fill="midnightblue" stroke="midnightblue" points="1383.45,-196.834 1389.04,-187.834 1379.06,-191.384 1383.45,-196.834"/>
</g>
<!-- Node34&#45;&gt;Node9 -->
<g id="edge54" class="edge"><title>Node34&#45;&gt;Node9</title>
<path fill="none" stroke="midnightblue" d="M1595.09,-224.45C1617.85,-216.662 1650.76,-203.955 1677,-188 1700.21,-173.889 1723.58,-152.988 1738.39,-138.722"/>
<polygon fill="midnightblue" stroke="midnightblue" points="1741,-141.068 1745.68,-131.564 1736.09,-136.074 1741,-141.068"/>
</g>
<!-- Node35 -->
<g id="node35" class="node"><title>Node35</title>
<g id="a_node35"><a xlink:href="IAIFactory_8h.html" target="_top" xlink:title="IAIFactory.h">
<polygon fill="white" stroke="black" points="1597.5,-168.5 1597.5,-187.5 1668.5,-187.5 1668.5,-168.5 1597.5,-168.5"/>
<text text-anchor="middle" x="1633" y="-175.5" font-family="Helvetica,sans-Serif" font-size="10.00">IAIFactory.h</text>
</a>
</g>
</g>
<!-- Node34&#45;&gt;Node35 -->
<g id="edge44" class="edge"><title>Node34&#45;&gt;Node35</title>
<path fill="none" stroke="midnightblue" d="M1578.44,-224.324C1588.15,-216.263 1602.82,-204.077 1614.5,-194.369"/>
<polygon fill="midnightblue" stroke="midnightblue" points="1616.91,-196.916 1622.37,-187.834 1612.44,-191.532 1616.91,-196.916"/>
</g>
<!-- Node37 -->
<g id="node37" class="node"><title>Node37</title>
<g id="a_node37"><a xlink:href="IFactoryRegistry_8h.html" target="_top" xlink:title="common/IFactoryRegistry.h">
<polygon fill="white" stroke="black" points="1441,-168.5 1441,-187.5 1579,-187.5 1579,-168.5 1441,-168.5"/>
<text text-anchor="middle" x="1510" y="-175.5" font-family="Helvetica,sans-Serif" font-size="10.00">common/IFactoryRegistry.h</text>
</a>
</g>
</g>
<!-- Node34&#45;&gt;Node37 -->
<g id="edge49" class="edge"><title>Node34&#45;&gt;Node37</title>
<path fill="none" stroke="midnightblue" d="M1558.68,-224.324C1550.11,-216.341 1537.19,-204.313 1526.81,-194.653"/>
<polygon fill="midnightblue" stroke="midnightblue" points="1529.19,-192.086 1519.49,-187.834 1524.42,-197.21 1529.19,-192.086"/>
</g>
<!-- Node35&#45;&gt;Node6 -->
<g id="edge46" class="edge"><title>Node35&#45;&gt;Node6</title>
<path fill="none" stroke="midnightblue" d="M1628.59,-168.243C1620.96,-154.029 1603.88,-126.109 1581,-112 1523.87,-76.7694 1443.42,-68.7874 1399.89,-67.1858"/>
<polygon fill="midnightblue" stroke="midnightblue" points="1399.75,-63.6806 1389.66,-66.9034 1399.56,-70.6779 1399.75,-63.6806"/>
</g>
<!-- Node35&#45;&gt;Node9 -->
<g id="edge47" class="edge"><title>Node35&#45;&gt;Node9</title>
<path fill="none" stroke="midnightblue" d="M1652.17,-168.444C1671.91,-159.636 1702.89,-145.812 1725.49,-135.722"/>
<polygon fill="midnightblue" stroke="midnightblue" points="1727.21,-138.788 1734.92,-131.516 1724.36,-132.396 1727.21,-138.788"/>
</g>
<!-- Node35&#45;&gt;Node27 -->
<g id="edge45" class="edge"><title>Node35&#45;&gt;Node27</title>
<path fill="none" stroke="midnightblue" d="M1597.18,-169.606C1594.08,-169.036 1590.99,-168.492 1588,-168 1475.24,-149.435 1340.83,-133.855 1277.47,-126.898"/>
<polygon fill="midnightblue" stroke="midnightblue" points="1277.53,-123.384 1267.21,-125.778 1276.77,-130.342 1277.53,-123.384"/>
</g>
<!-- Node36 -->
<g id="node36" class="node"><title>Node36</title>
<polygon fill="white" stroke="#bfbfbf" points="1629.5,-112.5 1629.5,-131.5 1658.5,-131.5 1658.5,-112.5 1629.5,-112.5"/>
<text text-anchor="middle" x="1644" y="-119.5" font-family="Helvetica,sans-Serif" font-size="10.00">list</text>
</g>
<!-- Node35&#45;&gt;Node36 -->
<g id="edge48" class="edge"><title>Node35&#45;&gt;Node36</title>
<path fill="none" stroke="midnightblue" d="M1634.82,-168.083C1636.27,-160.927 1638.37,-150.635 1640.19,-141.691"/>
<polygon fill="midnightblue" stroke="midnightblue" points="1643.65,-142.248 1642.22,-131.751 1636.79,-140.851 1643.65,-142.248"/>
</g>
<!-- Node37&#45;&gt;Node11 -->
<g id="edge50" class="edge"><title>Node37&#45;&gt;Node11</title>
<path fill="none" stroke="midnightblue" d="M1440.68,-168.976C1437.75,-168.644 1434.84,-168.318 1432,-168 1291.63,-152.31 1124.51,-134.494 1052.25,-126.833"/>
<polygon fill="midnightblue" stroke="midnightblue" points="1052.6,-123.351 1042.29,-125.778 1051.87,-130.312 1052.6,-123.351"/>
</g>
<!-- Node37&#45;&gt;Node27 -->
<g id="edge52" class="edge"><title>Node37&#45;&gt;Node27</title>
<path fill="none" stroke="midnightblue" d="M1467.38,-168.444C1414.82,-157.893 1326.41,-140.145 1277.07,-130.24"/>
<polygon fill="midnightblue" stroke="midnightblue" points="1277.65,-126.787 1267.16,-128.251 1276.27,-133.65 1277.65,-126.787"/>
</g>
<!-- Node38 -->
<g id="node38" class="node"><title>Node38</title>
<g id="a_node38"><a xlink:href="NonCopyable_8h.html" target="_top" xlink:title="common/NonCopyable.h">
<polygon fill="white" stroke="black" points="1447.5,-112.5 1447.5,-131.5 1572.5,-131.5 1572.5,-112.5 1447.5,-112.5"/>
<text text-anchor="middle" x="1510" y="-119.5" font-family="Helvetica,sans-Serif" font-size="10.00">common/NonCopyable.h</text>
</a>
</g>
</g>
<!-- Node37&#45;&gt;Node38 -->
<g id="edge51" class="edge"><title>Node37&#45;&gt;Node38</title>
<path fill="none" stroke="midnightblue" d="M1510,-168.083C1510,-161.006 1510,-150.861 1510,-141.986"/>
<polygon fill="midnightblue" stroke="midnightblue" points="1513.5,-141.751 1510,-131.751 1506.5,-141.751 1513.5,-141.751"/>
</g>
<!-- Node39 -->
<g id="node39" class="node"><title>Node39</title>
<polygon fill="white" stroke="#bfbfbf" points="1394.5,-112.5 1394.5,-131.5 1429.5,-131.5 1429.5,-112.5 1394.5,-112.5"/>
<text text-anchor="middle" x="1412" y="-119.5" font-family="Helvetica,sans-Serif" font-size="10.00">map</text>
</g>
<!-- Node37&#45;&gt;Node39 -->
<g id="edge53" class="edge"><title>Node37&#45;&gt;Node39</title>
<path fill="none" stroke="midnightblue" d="M1494.25,-168.324C1478.68,-159.743 1454.62,-146.486 1436.54,-136.522"/>
<polygon fill="midnightblue" stroke="midnightblue" points="1438.15,-133.415 1427.71,-131.655 1434.78,-139.546 1438.15,-133.415"/>
</g>
<!-- Node40&#45;&gt;Node28 -->
<g id="edge56" class="edge"><title>Node40&#45;&gt;Node28</title>
<path fill="none" stroke="midnightblue" d="M1269.89,-336.324C1281.15,-328.107 1298.29,-315.602 1311.71,-305.807"/>
<polygon fill="midnightblue" stroke="midnightblue" points="1313.88,-308.556 1319.89,-299.834 1309.75,-302.901 1313.88,-308.556"/>
</g>
</g>
</svg>
