<?xml version="1.0" encoding="UTF-8" standalone="no"?>
<!DOCTYPE svg PUBLIC "-//W3C//DTD SVG 1.1//EN"
 "http://www.w3.org/Graphics/SVG/1.1/DTD/svg11.dtd">
<!-- Generated by graphviz version 2.36.0 (20140111.2315)
 -->
<!-- Title: /home/travis/build/mgerhardy/simpleai/src/ai/server/AIChangeMessage.h Pages: 1 -->
<svg width="394pt" height="296pt"
 viewBox="0.00 0.00 394.00 296.00" xmlns="http://www.w3.org/2000/svg" xmlns:xlink="http://www.w3.org/1999/xlink">
<g id="graph0" class="graph" transform="scale(1 1) rotate(0) translate(4 292)">
<title>/home/travis/build/mgerhardy/simpleai/src/ai/server/AIChangeMessage.h</title>
<polygon fill="white" stroke="none" points="-4,4 -4,-292 390,-292 390,4 -4,4"/>
<!-- Node1 -->
<g id="node1" class="node"><title>Node1</title>
<polygon fill="#bfbfbf" stroke="black" points="96,-246.5 96,-287.5 264,-287.5 264,-246.5 96,-246.5"/>
<text text-anchor="start" x="104" y="-275.5" font-family="Helvetica,sans-Serif" font-size="10.00">/home/travis/build</text>
<text text-anchor="start" x="104" y="-264.5" font-family="Helvetica,sans-Serif" font-size="10.00">/mgerhardy/simpleai</text>
<text text-anchor="middle" x="180" y="-253.5" font-family="Helvetica,sans-Serif" font-size="10.00">/src/ai/server/AIChangeMessage.h</text>
</g>
<!-- Node2 -->
<g id="node2" class="node"><title>Node2</title>
<g id="a_node2"><a xlink:href="ChangeHandler_8h.html" target="_top" xlink:title="/home/travis/build\l/mgerhardy/simpleai\l/src/ai/server/ChangeHandler.h">
<polygon fill="white" stroke="black" points="0,-162.5 0,-203.5 152,-203.5 152,-162.5 0,-162.5"/>
<text text-anchor="start" x="8" y="-191.5" font-family="Helvetica,sans-Serif" font-size="10.00">/home/travis/build</text>
<text text-anchor="start" x="8" y="-180.5" font-family="Helvetica,sans-Serif" font-size="10.00">/mgerhardy/simpleai</text>
<text text-anchor="middle" x="76" y="-169.5" font-family="Helvetica,sans-Serif" font-size="10.00">/src/ai/server/ChangeHandler.h</text>
</a>
</g>
</g>
<!-- Node1&#45;&gt;Node2 -->
<g id="edge1" class="edge"><title>Node1&#45;&gt;Node2</title>
<path fill="none" stroke="midnightblue" d="M147.102,-240.062C132.208,-228.318 114.886,-214.66 101.068,-203.765"/>
<polygon fill="midnightblue" stroke="midnightblue" points="145.07,-242.916 155.089,-246.359 149.404,-237.419 145.07,-242.916"/>
</g>
<!-- Node4 -->
<g id="node4" class="node"><title>Node4</title>
<g id="a_node4"><a xlink:href="SimpleAI_8h.html" target="_top" xlink:title="/home/travis/build\l/mgerhardy/simpleai\l/src/ai/SimpleAI.h">
<polygon fill="white" stroke="black" points="147,-0.5 147,-41.5 251,-41.5 251,-0.5 147,-0.5"/>
<text text-anchor="start" x="155" y="-29.5" font-family="Helvetica,sans-Serif" font-size="10.00">/home/travis/build</text>
<text text-anchor="start" x="155" y="-18.5" font-family="Helvetica,sans-Serif" font-size="10.00">/mgerhardy/simpleai</text>
<text text-anchor="middle" x="199" y="-7.5" font-family="Helvetica,sans-Serif" font-size="10.00">/src/ai/SimpleAI.h</text>
</a>
</g>
</g>
<!-- Node1&#45;&gt;Node4 -->
<g id="edge8" class="edge"><title>Node1&#45;&gt;Node4</title>
<path fill="none" stroke="midnightblue" d="M182.323,-236.17C186.262,-185.579 194.149,-84.2975 197.47,-41.6482"/>
<polygon fill="midnightblue" stroke="midnightblue" points="178.81,-236.203 181.523,-246.445 185.789,-236.747 178.81,-236.203"/>
</g>
<!-- Node5 -->
<g id="node5" class="node"><title>Node5</title>
<g id="a_node5"><a xlink:href="ProtocolMessageFactory_8h.html" target="_top" xlink:title="/home/travis/build\l/mgerhardy/simpleai\l/src/ai/server/ProtocolMessage\lFactory.h">
<polygon fill="white" stroke="black" points="208,-157 208,-209 360,-209 360,-157 208,-157"/>
<text text-anchor="start" x="216" y="-197" font-family="Helvetica,sans-Serif" font-size="10.00">/home/travis/build</text>
<text text-anchor="start" x="216" y="-186" font-family="Helvetica,sans-Serif" font-size="10.00">/mgerhardy/simpleai</text>
<text text-anchor="start" x="216" y="-175" font-family="Helvetica,sans-Serif" font-size="10.00">/src/ai/server/ProtocolMessage</text>
<text text-anchor="middle" x="284" y="-164" font-family="Helvetica,sans-Serif" font-size="10.00">Factory.h</text>
</a>
</g>
</g>
<!-- Node1&#45;&gt;Node5 -->
<g id="edge4" class="edge"><title>Node1&#45;&gt;Node5</title>
<path fill="none" stroke="midnightblue" d="M212.879,-240.076C225.442,-230.171 239.733,-218.902 252.194,-209.078"/>
<polygon fill="midnightblue" stroke="midnightblue" points="210.596,-237.419 204.911,-246.359 214.93,-242.916 210.596,-237.419"/>
</g>
<!-- Node3 -->
<g id="node3" class="node"><title>Node3</title>
<g id="a_node3"><a xlink:href="ServerImpl_8h.html" target="_top" xlink:title="/home/travis/build\l/mgerhardy/simpleai\l/src/ai/server/ServerImpl.h">
<polygon fill="white" stroke="black" points="15,-78.5 15,-119.5 147,-119.5 147,-78.5 15,-78.5"/>
<text text-anchor="start" x="23" y="-107.5" font-family="Helvetica,sans-Serif" font-size="10.00">/home/travis/build</text>
<text text-anchor="start" x="23" y="-96.5" font-family="Helvetica,sans-Serif" font-size="10.00">/mgerhardy/simpleai</text>
<text text-anchor="middle" x="81" y="-85.5" font-family="Helvetica,sans-Serif" font-size="10.00">/src/ai/server/ServerImpl.h</text>
</a>
</g>
</g>
<!-- Node2&#45;&gt;Node3 -->
<g id="edge2" class="edge"><title>Node2&#45;&gt;Node3</title>
<path fill="none" stroke="midnightblue" d="M77.8365,-151.881C78.4919,-141.133 79.2129,-129.309 79.8008,-119.667"/>
<polygon fill="midnightblue" stroke="midnightblue" points="74.3256,-151.956 77.2104,-162.15 81.3126,-152.382 74.3256,-151.956"/>
</g>
<!-- Node3&#45;&gt;Node4 -->
<g id="edge3" class="edge"><title>Node3&#45;&gt;Node4</title>
<path fill="none" stroke="midnightblue" d="M119.941,-72.9194C135.805,-62.702 153.865,-51.0701 168.715,-41.5056"/>
<polygon fill="midnightblue" stroke="midnightblue" points="117.9,-70.0708 111.388,-78.4281 121.69,-75.9558 117.9,-70.0708"/>
</g>
<!-- Node5&#45;&gt;Node4 -->
<g id="edge7" class="edge"><title>Node5&#45;&gt;Node4</title>
<path fill="none" stroke="midnightblue" d="M256.217,-148.883C249.403,-139.855 242.496,-129.842 237,-120 222.676,-94.3488 211.339,-62.2007 204.898,-41.8733"/>
<polygon fill="midnightblue" stroke="midnightblue" points="253.512,-151.106 262.406,-156.864 259.044,-146.817 253.512,-151.106"/>
</g>
<!-- Node6 -->
<g id="node6" class="node"><title>Node6</title>
<g id="a_node6"><a xlink:href="NetworkImpl_8h.html" target="_top" xlink:title="/home/travis/build\l/mgerhardy/simpleai\l/src/ai/server/NetworkImpl.h">
<polygon fill="white" stroke="black" points="246,-78.5 246,-119.5 386,-119.5 386,-78.5 246,-78.5"/>
<text text-anchor="start" x="254" y="-107.5" font-family="Helvetica,sans-Serif" font-size="10.00">/home/travis/build</text>
<text text-anchor="start" x="254" y="-96.5" font-family="Helvetica,sans-Serif" font-size="10.00">/mgerhardy/simpleai</text>
<text text-anchor="middle" x="316" y="-85.5" font-family="Helvetica,sans-Serif" font-size="10.00">/src/ai/server/NetworkImpl.h</text>
</a>
</g>
</g>
<!-- Node5&#45;&gt;Node6 -->
<g id="edge5" class="edge"><title>Node5&#45;&gt;Node6</title>
<path fill="none" stroke="midnightblue" d="M297.519,-147.358C301.207,-137.908 305.075,-127.996 308.314,-119.696"/>
<polygon fill="midnightblue" stroke="midnightblue" points="294.15,-146.364 293.775,-156.952 300.671,-148.908 294.15,-146.364"/>
</g>
<!-- Node6&#45;&gt;Node4 -->
<g id="edge6" class="edge"><title>Node6&#45;&gt;Node4</title>
<path fill="none" stroke="midnightblue" d="M277.389,-72.9194C261.66,-62.702 243.753,-51.0701 229.028,-41.5056"/>
<polygon fill="midnightblue" stroke="midnightblue" points="275.577,-75.9158 285.87,-78.4281 279.39,-70.0456 275.577,-75.9158"/>
</g>
</g>
</svg>
