<?xml version="1.0" encoding="UTF-8" standalone="no"?>
<!DOCTYPE svg PUBLIC "-//W3C//DTD SVG 1.1//EN"
 "http://www.w3.org/Graphics/SVG/1.1/DTD/svg11.dtd">
<!-- Generated by graphviz version 2.36.0 (20140111.2315)
 -->
<!-- Title: /home/travis/build/mgerhardy/simpleai/src/ai/server/AICharacterDetailsMessage.h Pages: 1 -->
<svg width="1946pt" height="566pt"
 viewBox="0.00 0.00 1946.00 566.00" xmlns="http://www.w3.org/2000/svg" xmlns:xlink="http://www.w3.org/1999/xlink">
<g id="graph0" class="graph" transform="scale(1 1) rotate(0) translate(4 562)">
<title>/home/travis/build/mgerhardy/simpleai/src/ai/server/AICharacterDetailsMessage.h</title>
<polygon fill="white" stroke="none" points="-4,4 -4,-562 1942,-562 1942,4 -4,4"/>
<!-- Node1 -->
<g id="node1" class="node"><title>Node1</title>
<polygon fill="#bfbfbf" stroke="black" points="1215,-505 1215,-557 1375,-557 1375,-505 1215,-505"/>
<text text-anchor="start" x="1223" y="-545" font-family="Helvetica,sans-Serif" font-size="10.00">/home/travis/build</text>
<text text-anchor="start" x="1223" y="-534" font-family="Helvetica,sans-Serif" font-size="10.00">/mgerhardy/simpleai</text>
<text text-anchor="start" x="1223" y="-523" font-family="Helvetica,sans-Serif" font-size="10.00">/src/ai/server/AICharacterDetails</text>
<text text-anchor="middle" x="1295" y="-512" font-family="Helvetica,sans-Serif" font-size="10.00">Message.h</text>
</g>
<!-- Node2 -->
<g id="node2" class="node"><title>Node2</title>
<g id="a_node2"><a xlink:href="IProtocolMessage_8h.html" target="_top" xlink:title="IProtocolMessage.h">
<polygon fill="white" stroke="black" points="138,-448.5 138,-467.5 242,-467.5 242,-448.5 138,-448.5"/>
<text text-anchor="middle" x="190" y="-455.5" font-family="Helvetica,sans-Serif" font-size="10.00">IProtocolMessage.h</text>
</a>
</g>
</g>
<!-- Node1&#45;&gt;Node2 -->
<g id="edge1" class="edge"><title>Node1&#45;&gt;Node2</title>
<path fill="none" stroke="midnightblue" d="M1214.64,-524.837C1004.21,-511.316 440.353,-475.086 252.134,-462.992"/>
<polygon fill="midnightblue" stroke="midnightblue" points="252.334,-459.498 242.13,-462.35 251.885,-466.484 252.334,-459.498"/>
</g>
<!-- Node8 -->
<g id="node8" class="node"><title>Node8</title>
<g id="a_node8"><a xlink:href="AIStubTypes_8h.html" target="_top" xlink:title="AIStubTypes.h">
<polygon fill="white" stroke="black" points="1254,-448.5 1254,-467.5 1336,-467.5 1336,-448.5 1254,-448.5"/>
<text text-anchor="middle" x="1295" y="-455.5" font-family="Helvetica,sans-Serif" font-size="10.00">AIStubTypes.h</text>
</a>
</g>
</g>
<!-- Node1&#45;&gt;Node8 -->
<g id="edge7" class="edge"><title>Node1&#45;&gt;Node8</title>
<path fill="none" stroke="midnightblue" d="M1295,-504.768C1295,-495.89 1295,-486.074 1295,-477.816"/>
<polygon fill="midnightblue" stroke="midnightblue" points="1298.5,-477.757 1295,-467.757 1291.5,-477.757 1298.5,-477.757"/>
</g>
<!-- Node9 -->
<g id="node9" class="node"><title>Node9</title>
<polygon fill="white" stroke="#bfbfbf" points="1745,-112.5 1745,-131.5 1789,-131.5 1789,-112.5 1745,-112.5"/>
<text text-anchor="middle" x="1767" y="-119.5" font-family="Helvetica,sans-Serif" font-size="10.00">vector</text>
</g>
<!-- Node1&#45;&gt;Node9 -->
<g id="edge61" class="edge"><title>Node1&#45;&gt;Node9</title>
<path fill="none" stroke="midnightblue" d="M1375.2,-525.491C1477.58,-516.591 1657.1,-490.188 1788,-412 1862.23,-367.664 1849.28,-309.721 1838,-224 1834.64,-198.454 1837.07,-189.584 1823,-168 1814.88,-155.552 1802.19,-144.943 1790.94,-137.158"/>
<polygon fill="midnightblue" stroke="midnightblue" points="1792.63,-134.08 1782.34,-131.539 1788.8,-139.939 1792.63,-134.08"/>
</g>
<!-- Node3 -->
<g id="node3" class="node"><title>Node3</title>
<polygon fill="white" stroke="#bfbfbf" points="197.5,-392.5 197.5,-411.5 246.5,-411.5 246.5,-392.5 197.5,-392.5"/>
<text text-anchor="middle" x="222" y="-399.5" font-family="Helvetica,sans-Serif" font-size="10.00">stdint.h</text>
</g>
<!-- Node2&#45;&gt;Node3 -->
<g id="edge2" class="edge"><title>Node2&#45;&gt;Node3</title>
<path fill="none" stroke="midnightblue" d="M195.284,-448.083C199.711,-440.613 206.163,-429.724 211.618,-420.52"/>
<polygon fill="midnightblue" stroke="midnightblue" points="214.727,-422.138 216.814,-411.751 208.705,-418.57 214.727,-422.138"/>
</g>
<!-- Node4 -->
<g id="node4" class="node"><title>Node4</title>
<polygon fill="white" stroke="#bfbfbf" points="0,-392.5 0,-411.5 52,-411.5 52,-392.5 0,-392.5"/>
<text text-anchor="middle" x="26" y="-399.5" font-family="Helvetica,sans-Serif" font-size="10.00">stddef.h</text>
</g>
<!-- Node2&#45;&gt;Node4 -->
<g id="edge3" class="edge"><title>Node2&#45;&gt;Node4</title>
<path fill="none" stroke="midnightblue" d="M164.014,-448.444C136.304,-439.32 92.2477,-424.813 61.3843,-414.651"/>
<polygon fill="midnightblue" stroke="midnightblue" points="62.4577,-411.32 51.8647,-411.516 60.2684,-417.968 62.4577,-411.32"/>
</g>
<!-- Node5 -->
<g id="node5" class="node"><title>Node5</title>
<polygon fill="white" stroke="#bfbfbf" points="70,-392.5 70,-411.5 118,-411.5 118,-392.5 70,-392.5"/>
<text text-anchor="middle" x="94" y="-399.5" font-family="Helvetica,sans-Serif" font-size="10.00">limits.h</text>
</g>
<!-- Node2&#45;&gt;Node5 -->
<g id="edge4" class="edge"><title>Node2&#45;&gt;Node5</title>
<path fill="none" stroke="midnightblue" d="M174.576,-448.324C159.46,-439.822 136.185,-426.729 118.529,-416.797"/>
<polygon fill="midnightblue" stroke="midnightblue" points="119.817,-413.507 109.386,-411.655 116.386,-419.608 119.817,-413.507"/>
</g>
<!-- Node6 -->
<g id="node6" class="node"><title>Node6</title>
<polygon fill="white" stroke="#bfbfbf" points="1363.5,-56.5 1363.5,-75.5 1404.5,-75.5 1404.5,-56.5 1363.5,-56.5"/>
<text text-anchor="middle" x="1384" y="-63.5" font-family="Helvetica,sans-Serif" font-size="10.00">string</text>
</g>
<!-- Node2&#45;&gt;Node6 -->
<g id="edge5" class="edge"><title>Node2&#45;&gt;Node6</title>
<path fill="none" stroke="midnightblue" d="M208.539,-448.482C223.152,-440.87 243.002,-428.391 255,-412 272.853,-387.61 275,-377.225 275,-347 275,-347 275,-347 275,-177 275,-121.244 1174.39,-76.7013 1353.28,-68.3931"/>
<polygon fill="midnightblue" stroke="midnightblue" points="1353.5,-71.8868 1363.32,-67.9295 1353.17,-64.8942 1353.5,-71.8868"/>
</g>
<!-- Node7 -->
<g id="node7" class="node"><title>Node7</title>
<polygon fill="white" stroke="#bfbfbf" points="136.5,-392.5 136.5,-411.5 179.5,-411.5 179.5,-392.5 136.5,-392.5"/>
<text text-anchor="middle" x="158" y="-399.5" font-family="Helvetica,sans-Serif" font-size="10.00">deque</text>
</g>
<!-- Node2&#45;&gt;Node7 -->
<g id="edge6" class="edge"><title>Node2&#45;&gt;Node7</title>
<path fill="none" stroke="midnightblue" d="M184.716,-448.083C180.289,-440.613 173.837,-429.724 168.382,-420.52"/>
<polygon fill="midnightblue" stroke="midnightblue" points="171.295,-418.57 163.186,-411.751 165.273,-422.138 171.295,-418.57"/>
</g>
<!-- Node8&#45;&gt;Node6 -->
<g id="edge9" class="edge"><title>Node8&#45;&gt;Node6</title>
<path fill="none" stroke="midnightblue" d="M1336.18,-456.292C1439.33,-454.036 1706.35,-445.077 1788,-412 1867.39,-379.839 1938,-376.653 1938,-291 1938,-291 1938,-291 1938,-177 1938,-69.4299 1531.08,-65.4465 1414.73,-66.5061"/>
<polygon fill="midnightblue" stroke="midnightblue" points="1414.67,-63.0065 1404.71,-66.6171 1414.74,-70.0061 1414.67,-63.0065"/>
</g>
<!-- Node8&#45;&gt;Node9 -->
<g id="edge8" class="edge"><title>Node8&#45;&gt;Node9</title>
<path fill="none" stroke="midnightblue" d="M1336.07,-457.183C1460.36,-456.641 1824,-446.55 1824,-347 1824,-347 1824,-347 1824,-233 1824,-196.3 1798.68,-159.657 1781.79,-139.297"/>
<polygon fill="midnightblue" stroke="midnightblue" points="1784.35,-136.904 1775.17,-131.616 1779.05,-141.475 1784.35,-136.904"/>
</g>
<!-- Node10 -->
<g id="node10" class="node"><title>Node10</title>
<g id="a_node10"><a xlink:href="Math_8h.html" target="_top" xlink:title="common/Math.h">
<polygon fill="white" stroke="black" points="685.5,-392.5 685.5,-411.5 772.5,-411.5 772.5,-392.5 685.5,-392.5"/>
<text text-anchor="middle" x="729" y="-399.5" font-family="Helvetica,sans-Serif" font-size="10.00">common/Math.h</text>
</a>
</g>
</g>
<!-- Node8&#45;&gt;Node10 -->
<g id="edge10" class="edge"><title>Node8&#45;&gt;Node10</title>
<path fill="none" stroke="midnightblue" d="M1253.84,-453.073C1153.31,-443.482 895.324,-418.868 782.813,-408.134"/>
<polygon fill="midnightblue" stroke="midnightblue" points="782.998,-404.636 772.711,-407.17 782.333,-411.604 782.998,-404.636"/>
</g>
<!-- Node11 -->
<g id="node11" class="node"><title>Node11</title>
<g id="a_node11"><a xlink:href="Types_8h.html" target="_top" xlink:title="Types.h">
<polygon fill="white" stroke="black" points="1010,-112.5 1010,-131.5 1062,-131.5 1062,-112.5 1010,-112.5"/>
<text text-anchor="middle" x="1036" y="-119.5" font-family="Helvetica,sans-Serif" font-size="10.00">Types.h</text>
</a>
</g>
</g>
<!-- Node8&#45;&gt;Node11 -->
<g id="edge27" class="edge"><title>Node8&#45;&gt;Node11</title>
<path fill="none" stroke="midnightblue" d="M1253.74,-456.784C1067.36,-455.277 313,-443.23 313,-347 313,-347 313,-347 313,-233 313,-162.784 852.864,-131.781 999.579,-124.652"/>
<polygon fill="midnightblue" stroke="midnightblue" points="1000.02,-128.135 1009.84,-124.161 999.685,-121.143 1000.02,-128.135"/>
</g>
<!-- Node26 -->
<g id="node26" class="node"><title>Node26</title>
<g id="a_node26"><a xlink:href="TreeNode_8h.html" target="_top" xlink:title="tree/TreeNode.h">
<polygon fill="white" stroke="black" points="1251.5,-392.5 1251.5,-411.5 1338.5,-411.5 1338.5,-392.5 1251.5,-392.5"/>
<text text-anchor="middle" x="1295" y="-399.5" font-family="Helvetica,sans-Serif" font-size="10.00">tree/TreeNode.h</text>
</a>
</g>
</g>
<!-- Node8&#45;&gt;Node26 -->
<g id="edge28" class="edge"><title>Node8&#45;&gt;Node26</title>
<path fill="none" stroke="midnightblue" d="M1295,-448.083C1295,-441.006 1295,-430.861 1295,-421.986"/>
<polygon fill="midnightblue" stroke="midnightblue" points="1298.5,-421.751 1295,-411.751 1291.5,-421.751 1298.5,-421.751"/>
</g>
<!-- Node10&#45;&gt;Node11 -->
<g id="edge11" class="edge"><title>Node10&#45;&gt;Node11</title>
<path fill="none" stroke="midnightblue" d="M729,-392.442C729,-373.936 729,-328.812 729,-291 729,-291 729,-291 729,-233 729,-176.107 918.212,-140.747 999.549,-128.176"/>
<polygon fill="midnightblue" stroke="midnightblue" points="1000.46,-131.577 1009.83,-126.62 999.414,-124.656 1000.46,-131.577"/>
</g>
<!-- Node19 -->
<g id="node19" class="node"><title>Node19</title>
<polygon fill="white" stroke="#bfbfbf" points="757,-336.5 757,-355.5 827,-355.5 827,-336.5 757,-336.5"/>
<text text-anchor="middle" x="792" y="-343.5" font-family="Helvetica,sans-Serif" font-size="10.00">glm/glm.hpp</text>
</g>
<!-- Node10&#45;&gt;Node19 -->
<g id="edge20" class="edge"><title>Node10&#45;&gt;Node19</title>
<path fill="none" stroke="midnightblue" d="M739.122,-392.324C748.526,-384.263 762.744,-372.077 774.069,-362.369"/>
<polygon fill="midnightblue" stroke="midnightblue" points="776.379,-364.999 781.694,-355.834 771.823,-359.684 776.379,-364.999"/>
</g>
<!-- Node20 -->
<g id="node20" class="node"><title>Node20</title>
<polygon fill="white" stroke="#bfbfbf" points="845.5,-336.5 845.5,-355.5 958.5,-355.5 958.5,-336.5 845.5,-336.5"/>
<text text-anchor="middle" x="902" y="-343.5" font-family="Helvetica,sans-Serif" font-size="10.00">glm/gtc/constants.hpp</text>
</g>
<!-- Node10&#45;&gt;Node20 -->
<g id="edge21" class="edge"><title>Node10&#45;&gt;Node20</title>
<path fill="none" stroke="midnightblue" d="M756.412,-392.444C785.769,-383.28 832.519,-368.688 865.096,-358.519"/>
<polygon fill="midnightblue" stroke="midnightblue" points="866.213,-361.837 874.716,-355.516 864.127,-355.155 866.213,-361.837"/>
</g>
<!-- Node21 -->
<g id="node21" class="node"><title>Node21</title>
<polygon fill="white" stroke="#bfbfbf" points="976.5,-336.5 976.5,-355.5 1077.5,-355.5 1077.5,-336.5 976.5,-336.5"/>
<text text-anchor="middle" x="1027" y="-343.5" font-family="Helvetica,sans-Serif" font-size="10.00">glm/gtc/epsilon.hpp</text>
</g>
<!-- Node10&#45;&gt;Node21 -->
<g id="edge22" class="edge"><title>Node10&#45;&gt;Node21</title>
<path fill="none" stroke="midnightblue" d="M772.651,-393.09C824.809,-383.639 912.228,-367.798 969.759,-357.372"/>
<polygon fill="midnightblue" stroke="midnightblue" points="970.569,-360.783 979.785,-355.556 969.321,-353.895 970.569,-360.783"/>
</g>
<!-- Node22 -->
<g id="node22" class="node"><title>Node22</title>
<polygon fill="white" stroke="#bfbfbf" points="341.5,-336.5 341.5,-355.5 466.5,-355.5 466.5,-336.5 341.5,-336.5"/>
<text text-anchor="middle" x="404" y="-343.5" font-family="Helvetica,sans-Serif" font-size="10.00">glm/gtx/compatibility.hpp</text>
</g>
<!-- Node10&#45;&gt;Node22 -->
<g id="edge23" class="edge"><title>Node10&#45;&gt;Node22</title>
<path fill="none" stroke="midnightblue" d="M685.169,-393.717C628.511,-384.303 529.532,-367.858 465.404,-357.203"/>
<polygon fill="midnightblue" stroke="midnightblue" points="465.861,-353.731 455.423,-355.544 464.714,-360.636 465.861,-353.731"/>
</g>
<!-- Node23 -->
<g id="node23" class="node"><title>Node23</title>
<polygon fill="white" stroke="#bfbfbf" points="485,-336.5 485,-355.5 577,-355.5 577,-336.5 485,-336.5"/>
<text text-anchor="middle" x="531" y="-343.5" font-family="Helvetica,sans-Serif" font-size="10.00">glm/gtx/norm.hpp</text>
</g>
<!-- Node10&#45;&gt;Node23 -->
<g id="edge24" class="edge"><title>Node10&#45;&gt;Node23</title>
<path fill="none" stroke="midnightblue" d="M697.626,-392.444C663.737,-383.201 609.597,-368.436 572.276,-358.257"/>
<polygon fill="midnightblue" stroke="midnightblue" points="572.795,-354.771 562.227,-355.516 570.954,-361.524 572.795,-354.771"/>
</g>
<!-- Node24 -->
<g id="node24" class="node"><title>Node24</title>
<polygon fill="white" stroke="#bfbfbf" points="595,-336.5 595,-355.5 635,-355.5 635,-336.5 595,-336.5"/>
<text text-anchor="middle" x="615" y="-343.5" font-family="Helvetica,sans-Serif" font-size="10.00">limits</text>
</g>
<!-- Node10&#45;&gt;Node24 -->
<g id="edge25" class="edge"><title>Node10&#45;&gt;Node24</title>
<path fill="none" stroke="midnightblue" d="M710.936,-392.444C692.425,-383.675 663.419,-369.935 642.145,-359.858"/>
<polygon fill="midnightblue" stroke="midnightblue" points="643.515,-356.634 632.979,-355.516 640.518,-362.96 643.515,-356.634"/>
</g>
<!-- Node25 -->
<g id="node25" class="node"><title>Node25</title>
<polygon fill="white" stroke="#bfbfbf" points="653.5,-336.5 653.5,-355.5 700.5,-355.5 700.5,-336.5 653.5,-336.5"/>
<text text-anchor="middle" x="677" y="-343.5" font-family="Helvetica,sans-Serif" font-size="10.00">math.h</text>
</g>
<!-- Node10&#45;&gt;Node25 -->
<g id="edge26" class="edge"><title>Node10&#45;&gt;Node25</title>
<path fill="none" stroke="midnightblue" d="M720.413,-392.083C712.841,-384.22 701.622,-372.569 692.486,-363.081"/>
<polygon fill="midnightblue" stroke="midnightblue" points="694.885,-360.527 685.427,-355.751 689.842,-365.382 694.885,-360.527"/>
</g>
<!-- Node11&#45;&gt;Node6 -->
<g id="edge16" class="edge"><title>Node11&#45;&gt;Node6</title>
<path fill="none" stroke="midnightblue" d="M1062.16,-116.941C1125.32,-107.139 1285.95,-82.2144 1353.42,-71.7451"/>
<polygon fill="midnightblue" stroke="midnightblue" points="1354.07,-75.1855 1363.42,-70.1935 1353,-68.2683 1354.07,-75.1855"/>
</g>
<!-- Node12 -->
<g id="node12" class="node"><title>Node12</title>
<g id="a_node12"><a xlink:href="Log_8h.html" target="_top" xlink:title="Log.h">
<polygon fill="white" stroke="black" points="1107.5,-56.5 1107.5,-75.5 1148.5,-75.5 1148.5,-56.5 1107.5,-56.5"/>
<text text-anchor="middle" x="1128" y="-63.5" font-family="Helvetica,sans-Serif" font-size="10.00">Log.h</text>
</a>
</g>
</g>
<!-- Node11&#45;&gt;Node12 -->
<g id="edge12" class="edge"><title>Node11&#45;&gt;Node12</title>
<path fill="none" stroke="midnightblue" d="M1050.78,-112.324C1065.27,-103.822 1087.57,-90.7288 1104.49,-80.7975"/>
<polygon fill="midnightblue" stroke="midnightblue" points="1106.4,-83.735 1113.26,-75.6545 1102.86,-77.6981 1106.4,-83.735"/>
</g>
<!-- Node16 -->
<g id="node16" class="node"><title>Node16</title>
<polygon fill="white" stroke="#bfbfbf" points="878.5,-56.5 878.5,-75.5 961.5,-75.5 961.5,-56.5 878.5,-56.5"/>
<text text-anchor="middle" x="920" y="-63.5" font-family="Helvetica,sans-Serif" font-size="10.00">unordered_map</text>
</g>
<!-- Node11&#45;&gt;Node16 -->
<g id="edge17" class="edge"><title>Node11&#45;&gt;Node16</title>
<path fill="none" stroke="midnightblue" d="M1017.62,-112.444C998.784,-103.675 969.269,-89.9355 947.621,-79.8579"/>
<polygon fill="midnightblue" stroke="midnightblue" points="948.838,-76.5637 938.295,-75.5164 945.883,-82.9098 948.838,-76.5637"/>
</g>
<!-- Node17 -->
<g id="node17" class="node"><title>Node17</title>
<polygon fill="white" stroke="#bfbfbf" points="979.5,-56.5 979.5,-75.5 1028.5,-75.5 1028.5,-56.5 979.5,-56.5"/>
<text text-anchor="middle" x="1004" y="-63.5" font-family="Helvetica,sans-Serif" font-size="10.00">cassert</text>
</g>
<!-- Node11&#45;&gt;Node17 -->
<g id="edge18" class="edge"><title>Node11&#45;&gt;Node17</title>
<path fill="none" stroke="midnightblue" d="M1030.72,-112.083C1026.29,-104.613 1019.84,-93.7244 1014.38,-84.5199"/>
<polygon fill="midnightblue" stroke="midnightblue" points="1017.29,-82.5697 1009.19,-75.7511 1011.27,-86.1383 1017.29,-82.5697"/>
</g>
<!-- Node18 -->
<g id="node18" class="node"><title>Node18</title>
<polygon fill="white" stroke="#bfbfbf" points="1046.5,-56.5 1046.5,-75.5 1089.5,-75.5 1089.5,-56.5 1046.5,-56.5"/>
<text text-anchor="middle" x="1068" y="-63.5" font-family="Helvetica,sans-Serif" font-size="10.00">cstdio</text>
</g>
<!-- Node11&#45;&gt;Node18 -->
<g id="edge19" class="edge"><title>Node11&#45;&gt;Node18</title>
<path fill="none" stroke="midnightblue" d="M1041.28,-112.083C1045.71,-104.613 1052.16,-93.7244 1057.62,-84.5199"/>
<polygon fill="midnightblue" stroke="midnightblue" points="1060.73,-86.1383 1062.81,-75.7511 1054.71,-82.5697 1060.73,-86.1383"/>
</g>
<!-- Node13 -->
<g id="node13" class="node"><title>Node13</title>
<polygon fill="white" stroke="#bfbfbf" points="1038,-0.5 1038,-19.5 1084,-19.5 1084,-0.5 1038,-0.5"/>
<text text-anchor="middle" x="1061" y="-7.5" font-family="Helvetica,sans-Serif" font-size="10.00">stdio.h</text>
</g>
<!-- Node12&#45;&gt;Node13 -->
<g id="edge13" class="edge"><title>Node12&#45;&gt;Node13</title>
<path fill="none" stroke="midnightblue" d="M1117.24,-56.324C1107.23,-48.2631 1092.11,-36.0765 1080.07,-26.3695"/>
<polygon fill="midnightblue" stroke="midnightblue" points="1081.94,-23.3841 1071.96,-19.8339 1077.55,-28.8343 1081.94,-23.3841"/>
</g>
<!-- Node14 -->
<g id="node14" class="node"><title>Node14</title>
<polygon fill="white" stroke="#bfbfbf" points="1102,-0.5 1102,-19.5 1154,-19.5 1154,-0.5 1102,-0.5"/>
<text text-anchor="middle" x="1128" y="-7.5" font-family="Helvetica,sans-Serif" font-size="10.00">stdarg.h</text>
</g>
<!-- Node12&#45;&gt;Node14 -->
<g id="edge14" class="edge"><title>Node12&#45;&gt;Node14</title>
<path fill="none" stroke="midnightblue" d="M1128,-56.083C1128,-49.0059 1128,-38.8611 1128,-29.9865"/>
<polygon fill="midnightblue" stroke="midnightblue" points="1131.5,-29.751 1128,-19.7511 1124.5,-29.7511 1131.5,-29.751"/>
</g>
<!-- Node15 -->
<g id="node15" class="node"><title>Node15</title>
<polygon fill="white" stroke="#bfbfbf" points="1172.5,-0.5 1172.5,-19.5 1221.5,-19.5 1221.5,-0.5 1172.5,-0.5"/>
<text text-anchor="middle" x="1197" y="-7.5" font-family="Helvetica,sans-Serif" font-size="10.00">string.h</text>
</g>
<!-- Node12&#45;&gt;Node15 -->
<g id="edge15" class="edge"><title>Node12&#45;&gt;Node15</title>
<path fill="none" stroke="midnightblue" d="M1139.09,-56.324C1149.49,-48.1849 1165.26,-35.8395 1177.72,-26.0874"/>
<polygon fill="midnightblue" stroke="midnightblue" points="1179.99,-28.7533 1185.71,-19.8339 1175.68,-23.2407 1179.99,-28.7533"/>
</g>
<!-- Node26&#45;&gt;Node6 -->
<g id="edge58" class="edge"><title>Node26&#45;&gt;Node6</title>
<path fill="none" stroke="midnightblue" d="M1338.55,-399.799C1437.12,-396.58 1674.41,-385.879 1748,-356 1828,-323.518 1900,-321.347 1900,-235 1900,-235 1900,-235 1900,-177 1900,-77.1642 1525.85,-67.5934 1414.75,-66.9521"/>
<polygon fill="midnightblue" stroke="midnightblue" points="1414.56,-63.4515 1404.55,-66.9148 1414.53,-70.4515 1414.56,-63.4515"/>
</g>
<!-- Node26&#45;&gt;Node9 -->
<g id="edge57" class="edge"><title>Node26&#45;&gt;Node9</title>
<path fill="none" stroke="midnightblue" d="M1338.57,-400.469C1458.74,-397.837 1786,-382.287 1786,-291 1786,-291 1786,-291 1786,-233 1786,-200.489 1777.84,-163.35 1772.22,-141.61"/>
<polygon fill="midnightblue" stroke="midnightblue" points="1775.54,-140.498 1769.56,-131.751 1768.78,-142.317 1775.54,-140.498"/>
</g>
<!-- Node26&#45;&gt;Node11 -->
<g id="edge29" class="edge"><title>Node26&#45;&gt;Node11</title>
<path fill="none" stroke="midnightblue" d="M1251.4,-393.692C1182.11,-379.34 1049.96,-340.056 1004,-244 987.275,-209.046 1009.38,-164.075 1024.33,-140.004"/>
<polygon fill="midnightblue" stroke="midnightblue" points="1027.28,-141.886 1029.8,-131.595 1021.41,-138.07 1027.28,-141.886"/>
</g>
<!-- Node27 -->
<g id="node27" class="node"><title>Node27</title>
<g id="a_node27"><a xlink:href="MemoryAllocator_8h.html" target="_top" xlink:title="common/MemoryAllocator.h">
<polygon fill="white" stroke="black" points="1013.5,-224.5 1013.5,-243.5 1152.5,-243.5 1152.5,-224.5 1013.5,-224.5"/>
<text text-anchor="middle" x="1083" y="-231.5" font-family="Helvetica,sans-Serif" font-size="10.00">common/MemoryAllocator.h</text>
</a>
</g>
</g>
<!-- Node26&#45;&gt;Node27 -->
<g id="edge30" class="edge"><title>Node26&#45;&gt;Node27</title>
<path fill="none" stroke="midnightblue" d="M1251.49,-392.622C1225.34,-385.968 1192.5,-374.603 1168,-356 1131,-327.902 1103.83,-279.06 1091.09,-252.846"/>
<polygon fill="midnightblue" stroke="midnightblue" points="1094.21,-251.262 1086.79,-243.704 1087.88,-254.242 1094.21,-251.262"/>
</g>
<!-- Node28 -->
<g id="node28" class="node"><title>Node28</title>
<polygon fill="white" stroke="#bfbfbf" points="1228,-112.5 1228,-131.5 1280,-131.5 1280,-112.5 1228,-112.5"/>
<text text-anchor="middle" x="1254" y="-119.5" font-family="Helvetica,sans-Serif" font-size="10.00">memory</text>
</g>
<!-- Node26&#45;&gt;Node28 -->
<g id="edge59" class="edge"><title>Node26&#45;&gt;Node28</title>
<path fill="none" stroke="midnightblue" d="M1256.15,-392.364C1236.62,-385.847 1214.67,-374.704 1203,-356 1158.75,-285.102 1215.97,-181.178 1242.17,-140.365"/>
<polygon fill="midnightblue" stroke="midnightblue" points="1245.22,-142.091 1247.8,-131.815 1239.38,-138.239 1245.22,-142.091"/>
</g>
<!-- Node29 -->
<g id="node29" class="node"><title>Node29</title>
<g id="a_node29"><a xlink:href="ICondition_8h.html" target="_top" xlink:title="Condition related stuff. ">
<polygon fill="white" stroke="black" points="1274,-280.5 1274,-299.5 1390,-299.5 1390,-280.5 1274,-280.5"/>
<text text-anchor="middle" x="1332" y="-287.5" font-family="Helvetica,sans-Serif" font-size="10.00">conditions/ICondition.h</text>
</a>
</g>
</g>
<!-- Node26&#45;&gt;Node29 -->
<g id="edge32" class="edge"><title>Node26&#45;&gt;Node29</title>
<path fill="none" stroke="midnightblue" d="M1298.7,-392.466C1302.52,-383.483 1308.55,-368.885 1313,-356 1318.34,-340.546 1323.48,-322.701 1327.07,-309.623"/>
<polygon fill="midnightblue" stroke="midnightblue" points="1330.46,-310.483 1329.69,-299.916 1323.7,-308.661 1330.46,-310.483"/>
</g>
<!-- Node41 -->
<g id="node41" class="node"><title>Node41</title>
<g id="a_node41"><a xlink:href="True_8h.html" target="_top" xlink:title="conditions/True.h">
<polygon fill="white" stroke="black" points="1212,-336.5 1212,-355.5 1304,-355.5 1304,-336.5 1212,-336.5"/>
<text text-anchor="middle" x="1258" y="-343.5" font-family="Helvetica,sans-Serif" font-size="10.00">conditions/True.h</text>
</a>
</g>
</g>
<!-- Node26&#45;&gt;Node41 -->
<g id="edge55" class="edge"><title>Node26&#45;&gt;Node41</title>
<path fill="none" stroke="midnightblue" d="M1288.89,-392.083C1283.72,-384.534 1276.15,-373.495 1269.81,-364.23"/>
<polygon fill="midnightblue" stroke="midnightblue" points="1272.54,-362.022 1264,-355.751 1266.76,-365.979 1272.54,-362.022"/>
</g>
<!-- Node42 -->
<g id="node42" class="node"><title>Node42</title>
<polygon fill="white" stroke="#bfbfbf" points="1360,-336.5 1360,-355.5 1416,-355.5 1416,-336.5 1360,-336.5"/>
<text text-anchor="middle" x="1388" y="-343.5" font-family="Helvetica,sans-Serif" font-size="10.00">algorithm</text>
</g>
<!-- Node26&#45;&gt;Node42 -->
<g id="edge60" class="edge"><title>Node26&#45;&gt;Node42</title>
<path fill="none" stroke="midnightblue" d="M1309.94,-392.324C1324.59,-383.822 1347.13,-370.729 1364.24,-360.797"/>
<polygon fill="midnightblue" stroke="midnightblue" points="1366.2,-363.703 1373.1,-355.655 1362.69,-357.649 1366.2,-363.703"/>
</g>
<!-- Node27&#45;&gt;Node28 -->
<g id="edge31" class="edge"><title>Node27&#45;&gt;Node28</title>
<path fill="none" stroke="midnightblue" d="M1089.76,-224.364C1100.73,-210.816 1123.66,-184.421 1148,-168 1169.61,-153.426 1196.69,-142.027 1218.08,-134.347"/>
<polygon fill="midnightblue" stroke="midnightblue" points="1219.47,-137.57 1227.76,-130.981 1217.17,-130.958 1219.47,-137.57"/>
</g>
<!-- Node29&#45;&gt;Node6 -->
<g id="edge33" class="edge"><title>Node29&#45;&gt;Node6</title>
<path fill="none" stroke="midnightblue" d="M1312.03,-280.432C1296.5,-272.866 1275.4,-260.473 1262,-244 1223.06,-196.14 1181.55,-161.034 1219,-112 1235.23,-90.7459 1310.33,-77.1212 1353.4,-70.9131"/>
<polygon fill="midnightblue" stroke="midnightblue" points="1353.93,-74.3733 1363.35,-69.5286 1352.97,-67.4401 1353.93,-74.3733"/>
</g>
<!-- Node29&#45;&gt;Node9 -->
<g id="edge34" class="edge"><title>Node29&#45;&gt;Node9</title>
<path fill="none" stroke="midnightblue" d="M1390.07,-285.436C1448.06,-280.566 1539.09,-269.332 1614,-244 1663.73,-227.183 1678.17,-222.195 1718,-188 1734.03,-174.238 1748.05,-154.382 1756.94,-140.243"/>
<polygon fill="midnightblue" stroke="midnightblue" points="1760.04,-141.878 1762.23,-131.513 1754.06,-138.248 1760.04,-141.878"/>
</g>
<!-- Node29&#45;&gt;Node27 -->
<g id="edge37" class="edge"><title>Node29&#45;&gt;Node27</title>
<path fill="none" stroke="midnightblue" d="M1292.55,-280.444C1249.11,-271.023 1179.21,-255.866 1132.22,-245.675"/>
<polygon fill="midnightblue" stroke="midnightblue" points="1132.78,-242.215 1122.27,-243.516 1131.3,-249.056 1132.78,-242.215"/>
</g>
<!-- Node29&#45;&gt;Node28 -->
<g id="edge36" class="edge"><title>Node29&#45;&gt;Node28</title>
<path fill="none" stroke="midnightblue" d="M1317.16,-280.445C1304.57,-272.485 1286.87,-259.533 1276,-244 1254.35,-213.051 1252.11,-167.094 1252.8,-141.651"/>
<polygon fill="midnightblue" stroke="midnightblue" points="1256.3,-141.681 1253.26,-131.532 1249.31,-141.361 1256.3,-141.681"/>
</g>
<!-- Node30 -->
<g id="node30" class="node"><title>Node30</title>
<polygon fill="white" stroke="#bfbfbf" points="1399,-224.5 1399,-243.5 1451,-243.5 1451,-224.5 1399,-224.5"/>
<text text-anchor="middle" x="1425" y="-231.5" font-family="Helvetica,sans-Serif" font-size="10.00">sstream</text>
</g>
<!-- Node29&#45;&gt;Node30 -->
<g id="edge35" class="edge"><title>Node29&#45;&gt;Node30</title>
<path fill="none" stroke="midnightblue" d="M1346.94,-280.324C1361.59,-271.822 1384.13,-258.729 1401.24,-248.797"/>
<polygon fill="midnightblue" stroke="midnightblue" points="1403.2,-251.703 1410.1,-243.655 1399.69,-245.649 1403.2,-251.703"/>
</g>
<!-- Node31 -->
<g id="node31" class="node"><title>Node31</title>
<g id="a_node31"><a xlink:href="Thread_8h.html" target="_top" xlink:title="common/Thread.h">
<polygon fill="white" stroke="black" points="1285.5,-224.5 1285.5,-243.5 1380.5,-243.5 1380.5,-224.5 1285.5,-224.5"/>
<text text-anchor="middle" x="1333" y="-231.5" font-family="Helvetica,sans-Serif" font-size="10.00">common/Thread.h</text>
</a>
</g>
</g>
<!-- Node29&#45;&gt;Node31 -->
<g id="edge38" class="edge"><title>Node29&#45;&gt;Node31</title>
<path fill="none" stroke="midnightblue" d="M1332.17,-280.083C1332.3,-273.006 1332.48,-262.861 1332.65,-253.986"/>
<polygon fill="midnightblue" stroke="midnightblue" points="1336.15,-253.814 1332.84,-243.751 1329.15,-253.685 1336.15,-253.814"/>
</g>
<!-- Node35 -->
<g id="node35" class="node"><title>Node35</title>
<g id="a_node35"><a xlink:href="AIFactories_8h.html" target="_top" xlink:title="AIFactories.h">
<polygon fill="white" stroke="black" points="1530.5,-224.5 1530.5,-243.5 1605.5,-243.5 1605.5,-224.5 1530.5,-224.5"/>
<text text-anchor="middle" x="1568" y="-231.5" font-family="Helvetica,sans-Serif" font-size="10.00">AIFactories.h</text>
</a>
</g>
</g>
<!-- Node29&#45;&gt;Node35 -->
<g id="edge43" class="edge"><title>Node29&#45;&gt;Node35</title>
<path fill="none" stroke="midnightblue" d="M1369.39,-280.444C1410.39,-271.063 1476.25,-255.993 1520.78,-245.804"/>
<polygon fill="midnightblue" stroke="midnightblue" points="1521.81,-249.159 1530.78,-243.516 1520.25,-242.335 1521.81,-249.159"/>
</g>
<!-- Node31&#45;&gt;Node11 -->
<g id="edge39" class="edge"><title>Node31&#45;&gt;Node11</title>
<path fill="none" stroke="midnightblue" d="M1309.69,-224.368C1257.1,-204.89 1129.09,-157.479 1068.64,-135.089"/>
<polygon fill="midnightblue" stroke="midnightblue" points="1069.79,-131.783 1059.2,-131.591 1067.36,-138.347 1069.79,-131.783"/>
</g>
<!-- Node32 -->
<g id="node32" class="node"><title>Node32</title>
<polygon fill="white" stroke="#bfbfbf" points="1266,-168.5 1266,-187.5 1310,-187.5 1310,-168.5 1266,-168.5"/>
<text text-anchor="middle" x="1288" y="-175.5" font-family="Helvetica,sans-Serif" font-size="10.00">thread</text>
</g>
<!-- Node31&#45;&gt;Node32 -->
<g id="edge40" class="edge"><title>Node31&#45;&gt;Node32</title>
<path fill="none" stroke="midnightblue" d="M1325.57,-224.083C1319.15,-216.377 1309.69,-205.033 1301.88,-195.653"/>
<polygon fill="midnightblue" stroke="midnightblue" points="1304.38,-193.193 1295.29,-187.751 1299.01,-197.674 1304.38,-193.193"/>
</g>
<!-- Node33 -->
<g id="node33" class="node"><title>Node33</title>
<polygon fill="white" stroke="#bfbfbf" points="1328,-168.5 1328,-187.5 1372,-187.5 1372,-168.5 1328,-168.5"/>
<text text-anchor="middle" x="1350" y="-175.5" font-family="Helvetica,sans-Serif" font-size="10.00">mutex</text>
</g>
<!-- Node31&#45;&gt;Node33 -->
<g id="edge41" class="edge"><title>Node31&#45;&gt;Node33</title>
<path fill="none" stroke="midnightblue" d="M1335.81,-224.083C1338.08,-216.849 1341.37,-206.409 1344.21,-197.397"/>
<polygon fill="midnightblue" stroke="midnightblue" points="1347.58,-198.341 1347.25,-187.751 1340.9,-196.239 1347.58,-198.341"/>
</g>
<!-- Node34 -->
<g id="node34" class="node"><title>Node34</title>
<polygon fill="white" stroke="#bfbfbf" points="1390,-168.5 1390,-187.5 1436,-187.5 1436,-168.5 1390,-168.5"/>
<text text-anchor="middle" x="1413" y="-175.5" font-family="Helvetica,sans-Serif" font-size="10.00">atomic</text>
</g>
<!-- Node31&#45;&gt;Node34 -->
<g id="edge42" class="edge"><title>Node31&#45;&gt;Node34</title>
<path fill="none" stroke="midnightblue" d="M1345.85,-224.324C1358.22,-215.979 1377.13,-203.212 1391.74,-193.352"/>
<polygon fill="midnightblue" stroke="midnightblue" points="1393.85,-196.15 1400.18,-187.655 1389.93,-190.348 1393.85,-196.15"/>
</g>
<!-- Node35&#45;&gt;Node9 -->
<g id="edge54" class="edge"><title>Node35&#45;&gt;Node9</title>
<path fill="none" stroke="midnightblue" d="M1600.18,-224.477C1625.6,-216.972 1661.42,-204.64 1690,-188 1713.47,-174.335 1736.79,-153.338 1751.51,-138.929"/>
<polygon fill="midnightblue" stroke="midnightblue" points="1754.16,-141.235 1758.76,-131.689 1749.21,-136.285 1754.16,-141.235"/>
</g>
<!-- Node36 -->
<g id="node36" class="node"><title>Node36</title>
<g id="a_node36"><a xlink:href="IAIFactory_8h.html" target="_top" xlink:title="IAIFactory.h">
<polygon fill="white" stroke="black" points="1610.5,-168.5 1610.5,-187.5 1681.5,-187.5 1681.5,-168.5 1610.5,-168.5"/>
<text text-anchor="middle" x="1646" y="-175.5" font-family="Helvetica,sans-Serif" font-size="10.00">IAIFactory.h</text>
</a>
</g>
</g>
<!-- Node35&#45;&gt;Node36 -->
<g id="edge44" class="edge"><title>Node35&#45;&gt;Node36</title>
<path fill="none" stroke="midnightblue" d="M1580.53,-224.324C1592.59,-215.979 1611.03,-203.212 1625.27,-193.352"/>
<polygon fill="midnightblue" stroke="midnightblue" points="1627.27,-196.224 1633.5,-187.655 1623.28,-190.469 1627.27,-196.224"/>
</g>
<!-- Node38 -->
<g id="node38" class="node"><title>Node38</title>
<g id="a_node38"><a xlink:href="IFactoryRegistry_8h.html" target="_top" xlink:title="common/IFactoryRegistry.h">
<polygon fill="white" stroke="black" points="1454,-168.5 1454,-187.5 1592,-187.5 1592,-168.5 1454,-168.5"/>
<text text-anchor="middle" x="1523" y="-175.5" font-family="Helvetica,sans-Serif" font-size="10.00">common/IFactoryRegistry.h</text>
</a>
</g>
</g>
<!-- Node35&#45;&gt;Node38 -->
<g id="edge49" class="edge"><title>Node35&#45;&gt;Node38</title>
<path fill="none" stroke="midnightblue" d="M1560.57,-224.083C1554.15,-216.377 1544.69,-205.033 1536.88,-195.653"/>
<polygon fill="midnightblue" stroke="midnightblue" points="1539.38,-193.193 1530.29,-187.751 1534.01,-197.674 1539.38,-193.193"/>
</g>
<!-- Node36&#45;&gt;Node6 -->
<g id="edge46" class="edge"><title>Node36&#45;&gt;Node6</title>
<path fill="none" stroke="midnightblue" d="M1641.59,-168.248C1633.95,-154.041 1616.87,-126.132 1594,-112 1537.57,-77.123 1458.14,-68.989 1414.94,-67.2716"/>
<polygon fill="midnightblue" stroke="midnightblue" points="1414.87,-63.7681 1404.77,-66.9609 1414.66,-70.7648 1414.87,-63.7681"/>
</g>
<!-- Node36&#45;&gt;Node9 -->
<g id="edge47" class="edge"><title>Node36&#45;&gt;Node9</title>
<path fill="none" stroke="midnightblue" d="M1665.17,-168.444C1684.91,-159.636 1715.89,-145.812 1738.49,-135.722"/>
<polygon fill="midnightblue" stroke="midnightblue" points="1740.21,-138.788 1747.92,-131.516 1737.36,-132.396 1740.21,-138.788"/>
</g>
<!-- Node36&#45;&gt;Node28 -->
<g id="edge45" class="edge"><title>Node36&#45;&gt;Node28</title>
<path fill="none" stroke="midnightblue" d="M1610.18,-169.606C1607.08,-169.036 1603.99,-168.492 1601,-168 1488.24,-149.435 1353.83,-133.855 1290.47,-126.898"/>
<polygon fill="midnightblue" stroke="midnightblue" points="1290.53,-123.384 1280.21,-125.778 1289.77,-130.342 1290.53,-123.384"/>
</g>
<!-- Node37 -->
<g id="node37" class="node"><title>Node37</title>
<polygon fill="white" stroke="#bfbfbf" points="1642.5,-112.5 1642.5,-131.5 1671.5,-131.5 1671.5,-112.5 1642.5,-112.5"/>
<text text-anchor="middle" x="1657" y="-119.5" font-family="Helvetica,sans-Serif" font-size="10.00">list</text>
</g>
<!-- Node36&#45;&gt;Node37 -->
<g id="edge48" class="edge"><title>Node36&#45;&gt;Node37</title>
<path fill="none" stroke="midnightblue" d="M1647.82,-168.083C1649.27,-160.927 1651.37,-150.635 1653.19,-141.691"/>
<polygon fill="midnightblue" stroke="midnightblue" points="1656.65,-142.248 1655.22,-131.751 1649.79,-140.851 1656.65,-142.248"/>
</g>
<!-- Node38&#45;&gt;Node11 -->
<g id="edge50" class="edge"><title>Node38&#45;&gt;Node11</title>
<path fill="none" stroke="midnightblue" d="M1453.68,-168.982C1450.75,-168.649 1447.84,-168.321 1445,-168 1307.6,-152.514 1144.15,-134.72 1072.6,-126.961"/>
<polygon fill="midnightblue" stroke="midnightblue" points="1072.64,-123.445 1062.32,-125.847 1071.89,-130.405 1072.64,-123.445"/>
</g>
<!-- Node38&#45;&gt;Node28 -->
<g id="edge52" class="edge"><title>Node38&#45;&gt;Node28</title>
<path fill="none" stroke="midnightblue" d="M1480.38,-168.444C1427.82,-157.893 1339.41,-140.145 1290.07,-130.24"/>
<polygon fill="midnightblue" stroke="midnightblue" points="1290.65,-126.787 1280.16,-128.251 1289.27,-133.65 1290.65,-126.787"/>
</g>
<!-- Node39 -->
<g id="node39" class="node"><title>Node39</title>
<g id="a_node39"><a xlink:href="NonCopyable_8h.html" target="_top" xlink:title="common/NonCopyable.h">
<polygon fill="white" stroke="black" points="1460.5,-112.5 1460.5,-131.5 1585.5,-131.5 1585.5,-112.5 1460.5,-112.5"/>
<text text-anchor="middle" x="1523" y="-119.5" font-family="Helvetica,sans-Serif" font-size="10.00">common/NonCopyable.h</text>
</a>
</g>
</g>
<!-- Node38&#45;&gt;Node39 -->
<g id="edge51" class="edge"><title>Node38&#45;&gt;Node39</title>
<path fill="none" stroke="midnightblue" d="M1523,-168.083C1523,-161.006 1523,-150.861 1523,-141.986"/>
<polygon fill="midnightblue" stroke="midnightblue" points="1526.5,-141.751 1523,-131.751 1519.5,-141.751 1526.5,-141.751"/>
</g>
<!-- Node40 -->
<g id="node40" class="node"><title>Node40</title>
<polygon fill="white" stroke="#bfbfbf" points="1407.5,-112.5 1407.5,-131.5 1442.5,-131.5 1442.5,-112.5 1407.5,-112.5"/>
<text text-anchor="middle" x="1425" y="-119.5" font-family="Helvetica,sans-Serif" font-size="10.00">map</text>
</g>
<!-- Node38&#45;&gt;Node40 -->
<g id="edge53" class="edge"><title>Node38&#45;&gt;Node40</title>
<path fill="none" stroke="midnightblue" d="M1507.25,-168.324C1491.68,-159.743 1467.62,-146.486 1449.54,-136.522"/>
<polygon fill="midnightblue" stroke="midnightblue" points="1451.15,-133.415 1440.71,-131.655 1447.78,-139.546 1451.15,-133.415"/>
</g>
<!-- Node41&#45;&gt;Node29 -->
<g id="edge56" class="edge"><title>Node41&#45;&gt;Node29</title>
<path fill="none" stroke="midnightblue" d="M1269.89,-336.324C1281.15,-328.107 1298.29,-315.602 1311.71,-305.807"/>
<polygon fill="midnightblue" stroke="midnightblue" points="1313.88,-308.556 1319.89,-299.834 1309.75,-302.901 1313.88,-308.556"/>
</g>
</g>
</svg>
