<?xml version="1.0" encoding="UTF-8" standalone="no"?>
<!DOCTYPE svg PUBLIC "-//W3C//DTD SVG 1.1//EN"
 "http://www.w3.org/Graphics/SVG/1.1/DTD/svg11.dtd">
<!-- Generated by graphviz version 2.36.0 (20140111.2315)
 -->
<!-- Title: /home/travis/build/mgerhardy/simpleai/src/ai/server/AICharacterStaticMessage.h Pages: 1 -->
<svg width="1636pt" height="566pt"
 viewBox="0.00 0.00 1636.31 566.00" xmlns="http://www.w3.org/2000/svg" xmlns:xlink="http://www.w3.org/1999/xlink">
<g id="graph0" class="graph" transform="scale(1 1) rotate(0) translate(4 562)">
<title>/home/travis/build/mgerhardy/simpleai/src/ai/server/AICharacterStaticMessage.h</title>
<polygon fill="white" stroke="none" points="-4,4 -4,-562 1632.31,-562 1632.31,4 -4,4"/>
<!-- Node1 -->
<g id="node1" class="node"><title>Node1</title>
<polygon fill="#bfbfbf" stroke="black" points="56.0744,-505 56.0744,-557 211.074,-557 211.074,-505 56.0744,-505"/>
<text text-anchor="start" x="64.0744" y="-545" font-family="Helvetica,sans-Serif" font-size="10.00">/home/travis/build</text>
<text text-anchor="start" x="64.0744" y="-534" font-family="Helvetica,sans-Serif" font-size="10.00">/mgerhardy/simpleai</text>
<text text-anchor="start" x="64.0744" y="-523" font-family="Helvetica,sans-Serif" font-size="10.00">/src/ai/server/AICharacterStatic</text>
<text text-anchor="middle" x="133.574" y="-512" font-family="Helvetica,sans-Serif" font-size="10.00">Message.h</text>
</g>
<!-- Node2 -->
<g id="node2" class="node"><title>Node2</title>
<g id="a_node2"><a xlink:href="AIStubTypes_8h.html" target="_top" xlink:title="AIStubTypes.h">
<polygon fill="white" stroke="black" points="240.574,-448.5 240.574,-467.5 322.574,-467.5 322.574,-448.5 240.574,-448.5"/>
<text text-anchor="middle" x="281.574" y="-455.5" font-family="Helvetica,sans-Serif" font-size="10.00">AIStubTypes.h</text>
</a>
</g>
</g>
<!-- Node1&#45;&gt;Node2 -->
<g id="edge1" class="edge"><title>Node1&#45;&gt;Node2</title>
<path fill="none" stroke="midnightblue" d="M185.754,-504.968C208.963,-493.834 235.318,-481.191 254.505,-471.986"/>
<polygon fill="midnightblue" stroke="midnightblue" points="256.064,-475.12 263.567,-467.639 253.036,-468.809 256.064,-475.12"/>
</g>
<!-- Node3 -->
<g id="node3" class="node"><title>Node3</title>
<polygon fill="white" stroke="#bfbfbf" points="66.5744,-112.5 66.5744,-131.5 110.574,-131.5 110.574,-112.5 66.5744,-112.5"/>
<text text-anchor="middle" x="88.5744" y="-119.5" font-family="Helvetica,sans-Serif" font-size="10.00">vector</text>
</g>
<!-- Node1&#45;&gt;Node3 -->
<g id="edge55" class="edge"><title>Node1&#45;&gt;Node3</title>
<path fill="none" stroke="midnightblue" d="M119.19,-504.841C96.8188,-463.627 55.5236,-378.448 48.5744,-300 43.3598,-241.134 42.428,-222.789 64.5744,-168 68.3487,-158.662 73.5073,-148.738 78.0749,-140.592"/>
<polygon fill="midnightblue" stroke="midnightblue" points="81.2428,-142.106 83.2203,-131.697 75.1835,-138.601 81.2428,-142.106"/>
</g>
<!-- Node2&#45;&gt;Node3 -->
<g id="edge2" class="edge"><title>Node2&#45;&gt;Node3</title>
<path fill="none" stroke="midnightblue" d="M240.382,-454.474C176.943,-448.107 62.5744,-425.713 62.5744,-347 62.5744,-347 62.5744,-347 62.5744,-233 62.5744,-199.929 73.842,-162.729 81.5421,-141.168"/>
<polygon fill="midnightblue" stroke="midnightblue" points="84.8673,-142.268 85.0679,-131.675 78.3053,-139.831 84.8673,-142.268"/>
</g>
<!-- Node4 -->
<g id="node4" class="node"><title>Node4</title>
<polygon fill="white" stroke="#bfbfbf" points="118.074,-56.5 118.074,-75.5 159.074,-75.5 159.074,-56.5 118.074,-56.5"/>
<text text-anchor="middle" x="138.574" y="-63.5" font-family="Helvetica,sans-Serif" font-size="10.00">string</text>
</g>
<!-- Node2&#45;&gt;Node4 -->
<g id="edge3" class="edge"><title>Node2&#45;&gt;Node4</title>
<path fill="none" stroke="midnightblue" d="M240.329,-452.695C187.863,-446.427 101.214,-433.172 77.5744,-412 -22.1185,-322.71 -19.0224,-225.699 51.5744,-112 63.9489,-92.0703 88.2507,-80.5524 108.032,-74.1678"/>
<polygon fill="midnightblue" stroke="midnightblue" points="109.266,-77.4532 117.877,-71.2797 107.296,-70.7363 109.266,-77.4532"/>
</g>
<!-- Node5 -->
<g id="node5" class="node"><title>Node5</title>
<g id="a_node5"><a xlink:href="Math_8h.html" target="_top" xlink:title="common/Math.h">
<polygon fill="white" stroke="black" points="1254.07,-392.5 1254.07,-411.5 1341.07,-411.5 1341.07,-392.5 1254.07,-392.5"/>
<text text-anchor="middle" x="1297.57" y="-399.5" font-family="Helvetica,sans-Serif" font-size="10.00">common/Math.h</text>
</a>
</g>
</g>
<!-- Node2&#45;&gt;Node5 -->
<g id="edge4" class="edge"><title>Node2&#45;&gt;Node5</title>
<path fill="none" stroke="midnightblue" d="M322.661,-454.816C482.625,-446.314 1063.82,-415.424 1243.96,-405.849"/>
<polygon fill="midnightblue" stroke="midnightblue" points="1244.2,-409.342 1254,-405.316 1243.82,-402.352 1244.2,-409.342"/>
</g>
<!-- Node6 -->
<g id="node6" class="node"><title>Node6</title>
<g id="a_node6"><a xlink:href="Types_8h.html" target="_top" xlink:title="Types.h">
<polygon fill="white" stroke="black" points="774.574,-112.5 774.574,-131.5 826.574,-131.5 826.574,-112.5 774.574,-112.5"/>
<text text-anchor="middle" x="800.574" y="-119.5" font-family="Helvetica,sans-Serif" font-size="10.00">Types.h</text>
</a>
</g>
</g>
<!-- Node2&#45;&gt;Node6 -->
<g id="edge21" class="edge"><title>Node2&#45;&gt;Node6</title>
<path fill="none" stroke="midnightblue" d="M322.941,-453.745C457.874,-442.582 876.574,-403.398 876.574,-347 876.574,-347 876.574,-347 876.574,-233 876.574,-193.276 842.61,-157.504 820.092,-138.154"/>
<polygon fill="midnightblue" stroke="midnightblue" points="822.056,-135.236 812.117,-131.567 817.599,-140.634 822.056,-135.236"/>
</g>
<!-- Node20 -->
<g id="node20" class="node"><title>Node20</title>
<g id="a_node20"><a xlink:href="TreeNode_8h.html" target="_top" xlink:title="tree/TreeNode.h">
<polygon fill="white" stroke="black" points="458.074,-392.5 458.074,-411.5 545.074,-411.5 545.074,-392.5 458.074,-392.5"/>
<text text-anchor="middle" x="501.574" y="-399.5" font-family="Helvetica,sans-Serif" font-size="10.00">tree/TreeNode.h</text>
</a>
</g>
</g>
<!-- Node2&#45;&gt;Node20 -->
<g id="edge22" class="edge"><title>Node2&#45;&gt;Node20</title>
<path fill="none" stroke="midnightblue" d="M316.434,-448.444C354.491,-439.102 415.532,-424.119 457.034,-413.933"/>
<polygon fill="midnightblue" stroke="midnightblue" points="458,-417.299 466.878,-411.516 456.332,-410.501 458,-417.299"/>
</g>
<!-- Node5&#45;&gt;Node6 -->
<g id="edge5" class="edge"><title>Node5&#45;&gt;Node6</title>
<path fill="none" stroke="midnightblue" d="M1341.24,-400.262C1416.98,-398.094 1568.39,-389.563 1607.57,-356 1630.53,-336.339 1627.57,-321.225 1627.57,-291 1627.57,-291 1627.57,-291 1627.57,-233 1627.57,-152.03 996.594,-128.585 836.936,-123.948"/>
<polygon fill="midnightblue" stroke="midnightblue" points="836.786,-120.443 826.691,-123.658 836.588,-127.44 836.786,-120.443"/>
</g>
<!-- Node13 -->
<g id="node13" class="node"><title>Node13</title>
<polygon fill="white" stroke="#bfbfbf" points="1397.57,-336.5 1397.57,-355.5 1467.57,-355.5 1467.57,-336.5 1397.57,-336.5"/>
<text text-anchor="middle" x="1432.57" y="-343.5" font-family="Helvetica,sans-Serif" font-size="10.00">glm/glm.hpp</text>
</g>
<!-- Node5&#45;&gt;Node13 -->
<g id="edge14" class="edge"><title>Node5&#45;&gt;Node13</title>
<path fill="none" stroke="midnightblue" d="M1318.97,-392.444C1341.28,-383.517 1376.48,-369.439 1401.78,-359.317"/>
<polygon fill="midnightblue" stroke="midnightblue" points="1403.3,-362.48 1411.28,-355.516 1400.7,-355.981 1403.3,-362.48"/>
</g>
<!-- Node14 -->
<g id="node14" class="node"><title>Node14</title>
<polygon fill="white" stroke="#bfbfbf" points="1486.07,-336.5 1486.07,-355.5 1599.07,-355.5 1599.07,-336.5 1486.07,-336.5"/>
<text text-anchor="middle" x="1542.57" y="-343.5" font-family="Helvetica,sans-Serif" font-size="10.00">glm/gtc/constants.hpp</text>
</g>
<!-- Node5&#45;&gt;Node14 -->
<g id="edge15" class="edge"><title>Node5&#45;&gt;Node14</title>
<path fill="none" stroke="midnightblue" d="M1336.4,-392.444C1379.13,-383.023 1447.91,-367.866 1494.14,-357.675"/>
<polygon fill="midnightblue" stroke="midnightblue" points="1494.92,-361.087 1503.94,-355.516 1493.42,-354.251 1494.92,-361.087"/>
</g>
<!-- Node15 -->
<g id="node15" class="node"><title>Node15</title>
<polygon fill="white" stroke="#bfbfbf" points="905.074,-336.5 905.074,-355.5 1006.07,-355.5 1006.07,-336.5 905.074,-336.5"/>
<text text-anchor="middle" x="955.574" y="-343.5" font-family="Helvetica,sans-Serif" font-size="10.00">glm/gtc/epsilon.hpp</text>
</g>
<!-- Node5&#45;&gt;Node15 -->
<g id="edge16" class="edge"><title>Node5&#45;&gt;Node15</title>
<path fill="none" stroke="midnightblue" d="M1253.91,-394.106C1193.62,-384.586 1084.61,-367.373 1016.37,-356.6"/>
<polygon fill="midnightblue" stroke="midnightblue" points="1016.62,-353.096 1006.2,-354.993 1015.53,-360.01 1016.62,-353.096"/>
</g>
<!-- Node16 -->
<g id="node16" class="node"><title>Node16</title>
<polygon fill="white" stroke="#bfbfbf" points="1024.07,-336.5 1024.07,-355.5 1149.07,-355.5 1149.07,-336.5 1024.07,-336.5"/>
<text text-anchor="middle" x="1086.57" y="-343.5" font-family="Helvetica,sans-Serif" font-size="10.00">glm/gtx/compatibility.hpp</text>
</g>
<!-- Node5&#45;&gt;Node16 -->
<g id="edge17" class="edge"><title>Node5&#45;&gt;Node16</title>
<path fill="none" stroke="midnightblue" d="M1264.14,-392.444C1227.72,-383.122 1169.34,-368.183 1129.55,-357.997"/>
<polygon fill="midnightblue" stroke="midnightblue" points="1130.41,-354.605 1119.85,-355.516 1128.67,-361.387 1130.41,-354.605"/>
</g>
<!-- Node17 -->
<g id="node17" class="node"><title>Node17</title>
<polygon fill="white" stroke="#bfbfbf" points="1167.57,-336.5 1167.57,-355.5 1259.57,-355.5 1259.57,-336.5 1167.57,-336.5"/>
<text text-anchor="middle" x="1213.57" y="-343.5" font-family="Helvetica,sans-Serif" font-size="10.00">glm/gtx/norm.hpp</text>
</g>
<!-- Node5&#45;&gt;Node17 -->
<g id="edge18" class="edge"><title>Node5&#45;&gt;Node17</title>
<path fill="none" stroke="midnightblue" d="M1284.08,-392.324C1270.97,-383.9 1250.86,-370.971 1235.47,-361.074"/>
<polygon fill="midnightblue" stroke="midnightblue" points="1237.34,-358.118 1227.04,-355.655 1233.56,-364.006 1237.34,-358.118"/>
</g>
<!-- Node18 -->
<g id="node18" class="node"><title>Node18</title>
<polygon fill="white" stroke="#bfbfbf" points="1277.57,-336.5 1277.57,-355.5 1317.57,-355.5 1317.57,-336.5 1277.57,-336.5"/>
<text text-anchor="middle" x="1297.57" y="-343.5" font-family="Helvetica,sans-Serif" font-size="10.00">limits</text>
</g>
<!-- Node5&#45;&gt;Node18 -->
<g id="edge19" class="edge"><title>Node5&#45;&gt;Node18</title>
<path fill="none" stroke="midnightblue" d="M1297.57,-392.083C1297.57,-385.006 1297.57,-374.861 1297.57,-365.986"/>
<polygon fill="midnightblue" stroke="midnightblue" points="1301.07,-365.751 1297.57,-355.751 1294.07,-365.751 1301.07,-365.751"/>
</g>
<!-- Node19 -->
<g id="node19" class="node"><title>Node19</title>
<polygon fill="white" stroke="#bfbfbf" points="1335.57,-336.5 1335.57,-355.5 1379.57,-355.5 1379.57,-336.5 1335.57,-336.5"/>
<text text-anchor="middle" x="1357.57" y="-343.5" font-family="Helvetica,sans-Serif" font-size="10.00">cmath</text>
</g>
<!-- Node5&#45;&gt;Node19 -->
<g id="edge20" class="edge"><title>Node5&#45;&gt;Node19</title>
<path fill="none" stroke="midnightblue" d="M1307.21,-392.324C1316.08,-384.341 1329.45,-372.313 1340.18,-362.653"/>
<polygon fill="midnightblue" stroke="midnightblue" points="1342.67,-365.125 1347.76,-355.834 1337.98,-359.922 1342.67,-365.125"/>
</g>
<!-- Node6&#45;&gt;Node4 -->
<g id="edge10" class="edge"><title>Node6&#45;&gt;Node4</title>
<path fill="none" stroke="midnightblue" d="M774.266,-117.76C758.913,-115.93 739.163,-113.68 721.574,-112 510.792,-91.8653 256.467,-74.6679 169.479,-68.9876"/>
<polygon fill="midnightblue" stroke="midnightblue" points="169.458,-65.4789 159.252,-68.3226 169.004,-72.4642 169.458,-65.4789"/>
</g>
<!-- Node7 -->
<g id="node7" class="node"><title>Node7</title>
<g id="a_node7"><a xlink:href="Log_8h.html" target="_top" xlink:title="Log.h">
<polygon fill="white" stroke="black" points="658.074,-56.5 658.074,-75.5 699.074,-75.5 699.074,-56.5 658.074,-56.5"/>
<text text-anchor="middle" x="678.574" y="-63.5" font-family="Helvetica,sans-Serif" font-size="10.00">Log.h</text>
</a>
</g>
</g>
<!-- Node6&#45;&gt;Node7 -->
<g id="edge6" class="edge"><title>Node6&#45;&gt;Node7</title>
<path fill="none" stroke="midnightblue" d="M781.243,-112.444C761.254,-103.596 729.831,-89.6875 707.01,-79.5865"/>
<polygon fill="midnightblue" stroke="midnightblue" points="708.376,-76.3635 697.815,-75.5164 705.543,-82.7645 708.376,-76.3635"/>
</g>
<!-- Node8 -->
<g id="node8" class="node"><title>Node8</title>
<polygon fill="white" stroke="#bfbfbf" points="813.074,-0.5 813.074,-19.5 856.074,-19.5 856.074,-0.5 813.074,-0.5"/>
<text text-anchor="middle" x="834.574" y="-7.5" font-family="Helvetica,sans-Serif" font-size="10.00">cstdio</text>
</g>
<!-- Node6&#45;&gt;Node8 -->
<g id="edge13" class="edge"><title>Node6&#45;&gt;Node8</title>
<path fill="none" stroke="midnightblue" d="M826.736,-112.903C843.958,-106.055 865.175,-94.3672 875.574,-76 885.447,-58.5628 869.624,-39.2135 854.858,-26.1973"/>
<polygon fill="midnightblue" stroke="midnightblue" points="856.877,-23.3258 846.932,-19.67 852.426,-28.7291 856.877,-23.3258"/>
</g>
<!-- Node11 -->
<g id="node11" class="node"><title>Node11</title>
<polygon fill="white" stroke="#bfbfbf" points="717.074,-56.5 717.074,-75.5 800.074,-75.5 800.074,-56.5 717.074,-56.5"/>
<text text-anchor="middle" x="758.574" y="-63.5" font-family="Helvetica,sans-Serif" font-size="10.00">unordered_map</text>
</g>
<!-- Node6&#45;&gt;Node11 -->
<g id="edge11" class="edge"><title>Node6&#45;&gt;Node11</title>
<path fill="none" stroke="midnightblue" d="M793.639,-112.083C787.645,-104.377 778.823,-93.0333 771.527,-83.6531"/>
<polygon fill="midnightblue" stroke="midnightblue" points="774.283,-81.4958 765.381,-75.7511 768.757,-85.7934 774.283,-81.4958"/>
</g>
<!-- Node12 -->
<g id="node12" class="node"><title>Node12</title>
<polygon fill="white" stroke="#bfbfbf" points="818.074,-56.5 818.074,-75.5 867.074,-75.5 867.074,-56.5 818.074,-56.5"/>
<text text-anchor="middle" x="842.574" y="-63.5" font-family="Helvetica,sans-Serif" font-size="10.00">cassert</text>
</g>
<!-- Node6&#45;&gt;Node12 -->
<g id="edge12" class="edge"><title>Node6&#45;&gt;Node12</title>
<path fill="none" stroke="midnightblue" d="M807.51,-112.083C813.504,-104.377 822.326,-93.0333 829.622,-83.6531"/>
<polygon fill="midnightblue" stroke="midnightblue" points="832.391,-85.7934 835.768,-75.7511 826.866,-81.4958 832.391,-85.7934"/>
</g>
<!-- Node7&#45;&gt;Node8 -->
<g id="edge7" class="edge"><title>Node7&#45;&gt;Node8</title>
<path fill="none" stroke="midnightblue" d="M699.29,-57.8292C725.873,-48.6273 772.241,-32.5768 803.173,-21.8696"/>
<polygon fill="midnightblue" stroke="midnightblue" points="804.716,-25.0395 813.021,-18.4608 802.426,-18.4246 804.716,-25.0395"/>
</g>
<!-- Node9 -->
<g id="node9" class="node"><title>Node9</title>
<polygon fill="white" stroke="#bfbfbf" points="621.074,-0.5 621.074,-19.5 670.074,-19.5 670.074,-0.5 621.074,-0.5"/>
<text text-anchor="middle" x="645.574" y="-7.5" font-family="Helvetica,sans-Serif" font-size="10.00">cstdarg</text>
</g>
<!-- Node7&#45;&gt;Node9 -->
<g id="edge8" class="edge"><title>Node7&#45;&gt;Node9</title>
<path fill="none" stroke="midnightblue" d="M673.125,-56.083C668.56,-48.6127 661.906,-37.7244 656.281,-28.5199"/>
<polygon fill="midnightblue" stroke="midnightblue" points="659.123,-26.4588 650.922,-19.7511 653.15,-30.109 659.123,-26.4588"/>
</g>
<!-- Node10 -->
<g id="node10" class="node"><title>Node10</title>
<polygon fill="white" stroke="#bfbfbf" points="688.574,-0.5 688.574,-19.5 734.574,-19.5 734.574,-0.5 688.574,-0.5"/>
<text text-anchor="middle" x="711.574" y="-7.5" font-family="Helvetica,sans-Serif" font-size="10.00">cstring</text>
</g>
<!-- Node7&#45;&gt;Node10 -->
<g id="edge9" class="edge"><title>Node7&#45;&gt;Node10</title>
<path fill="none" stroke="midnightblue" d="M684.024,-56.083C688.589,-48.6127 695.243,-37.7244 700.868,-28.5199"/>
<polygon fill="midnightblue" stroke="midnightblue" points="703.998,-30.109 706.226,-19.7511 698.025,-26.4588 703.998,-30.109"/>
</g>
<!-- Node20&#45;&gt;Node3 -->
<g id="edge51" class="edge"><title>Node20&#45;&gt;Node3</title>
<path fill="none" stroke="midnightblue" d="M486.062,-392.4C445.344,-369.65 332.43,-305.411 243.574,-244 192.164,-208.469 135.02,-161.88 106.631,-138.217"/>
<polygon fill="midnightblue" stroke="midnightblue" points="108.697,-135.382 98.7824,-131.647 104.204,-140.749 108.697,-135.382"/>
</g>
<!-- Node20&#45;&gt;Node4 -->
<g id="edge52" class="edge"><title>Node20&#45;&gt;Node4</title>
<path fill="none" stroke="midnightblue" d="M464.417,-392.476C373.515,-369.325 141.257,-295.711 57.5744,-132 44.2871,-106.006 80.2079,-86.8918 108.407,-76.3529"/>
<polygon fill="midnightblue" stroke="midnightblue" points="109.697,-79.6094 117.966,-72.9856 107.372,-73.007 109.697,-79.6094"/>
</g>
<!-- Node20&#45;&gt;Node6 -->
<g id="edge23" class="edge"><title>Node20&#45;&gt;Node6</title>
<path fill="none" stroke="midnightblue" d="M545.391,-398.975C596.32,-395.301 682.011,-384.976 749.574,-356 794.591,-336.694 838.574,-339.982 838.574,-291 838.574,-291 838.574,-291 838.574,-233 838.574,-198.813 821.974,-161.764 810.717,-140.571"/>
<polygon fill="midnightblue" stroke="midnightblue" points="813.755,-138.832 805.858,-131.769 807.627,-142.215 813.755,-138.832"/>
</g>
<!-- Node21 -->
<g id="node21" class="node"><title>Node21</title>
<g id="a_node21"><a xlink:href="MemoryAllocator_8h.html" target="_top" xlink:title="common/MemoryAllocator.h">
<polygon fill="white" stroke="black" points="633.074,-224.5 633.074,-243.5 772.074,-243.5 772.074,-224.5 633.074,-224.5"/>
<text text-anchor="middle" x="702.574" y="-231.5" font-family="Helvetica,sans-Serif" font-size="10.00">common/MemoryAllocator.h</text>
</a>
</g>
</g>
<!-- Node20&#45;&gt;Node21 -->
<g id="edge24" class="edge"><title>Node20&#45;&gt;Node21</title>
<path fill="none" stroke="midnightblue" d="M512.134,-392.393C523.219,-383.351 541.146,-368.705 556.574,-356 602.667,-318.045 656.732,-273.135 684.337,-250.177"/>
<polygon fill="midnightblue" stroke="midnightblue" points="686.877,-252.617 692.326,-243.531 682.4,-247.235 686.877,-252.617"/>
</g>
<!-- Node22 -->
<g id="node22" class="node"><title>Node22</title>
<polygon fill="white" stroke="#bfbfbf" points="660.574,-112.5 660.574,-131.5 712.574,-131.5 712.574,-112.5 660.574,-112.5"/>
<text text-anchor="middle" x="686.574" y="-119.5" font-family="Helvetica,sans-Serif" font-size="10.00">memory</text>
</g>
<!-- Node20&#45;&gt;Node22 -->
<g id="edge53" class="edge"><title>Node20&#45;&gt;Node22</title>
<path fill="none" stroke="midnightblue" d="M545.372,-394.264C628.422,-380.25 800.574,-344.721 800.574,-291 800.574,-291 800.574,-291 800.574,-233 800.574,-186.115 750.023,-152.894 716.245,-135.93"/>
<polygon fill="midnightblue" stroke="midnightblue" points="717.747,-132.769 707.219,-131.579 714.707,-139.074 717.747,-132.769"/>
</g>
<!-- Node23 -->
<g id="node23" class="node"><title>Node23</title>
<g id="a_node23"><a xlink:href="ICondition_8h.html" target="_top" xlink:title="Condition related stuff. ">
<polygon fill="white" stroke="black" points="400.574,-280.5 400.574,-299.5 516.574,-299.5 516.574,-280.5 400.574,-280.5"/>
<text text-anchor="middle" x="458.574" y="-287.5" font-family="Helvetica,sans-Serif" font-size="10.00">conditions/ICondition.h</text>
</a>
</g>
</g>
<!-- Node20&#45;&gt;Node23 -->
<g id="edge26" class="edge"><title>Node20&#45;&gt;Node23</title>
<path fill="none" stroke="midnightblue" d="M484.376,-392.386C471.323,-384.794 454.341,-372.389 446.574,-356 439.526,-341.126 444.143,-322.513 449.566,-309.022"/>
<polygon fill="midnightblue" stroke="midnightblue" points="452.782,-310.405 453.691,-299.849 446.397,-307.534 452.782,-310.405"/>
</g>
<!-- Node35 -->
<g id="node35" class="node"><title>Node35</title>
<g id="a_node35"><a xlink:href="True_8h.html" target="_top" xlink:title="conditions/True.h">
<polygon fill="white" stroke="black" points="455.574,-336.5 455.574,-355.5 547.574,-355.5 547.574,-336.5 455.574,-336.5"/>
<text text-anchor="middle" x="501.574" y="-343.5" font-family="Helvetica,sans-Serif" font-size="10.00">conditions/True.h</text>
</a>
</g>
</g>
<!-- Node20&#45;&gt;Node35 -->
<g id="edge49" class="edge"><title>Node20&#45;&gt;Node35</title>
<path fill="none" stroke="midnightblue" d="M501.574,-392.083C501.574,-385.006 501.574,-374.861 501.574,-365.986"/>
<polygon fill="midnightblue" stroke="midnightblue" points="505.074,-365.751 501.574,-355.751 498.074,-365.751 505.074,-365.751"/>
</g>
<!-- Node36 -->
<g id="node36" class="node"><title>Node36</title>
<polygon fill="white" stroke="#bfbfbf" points="603.574,-336.5 603.574,-355.5 659.574,-355.5 659.574,-336.5 603.574,-336.5"/>
<text text-anchor="middle" x="631.574" y="-343.5" font-family="Helvetica,sans-Serif" font-size="10.00">algorithm</text>
</g>
<!-- Node20&#45;&gt;Node36 -->
<g id="edge54" class="edge"><title>Node20&#45;&gt;Node36</title>
<path fill="none" stroke="midnightblue" d="M522.173,-392.444C543.568,-383.557 577.256,-369.563 601.599,-359.451"/>
<polygon fill="midnightblue" stroke="midnightblue" points="603.18,-362.585 611.072,-355.516 600.494,-356.12 603.18,-362.585"/>
</g>
<!-- Node21&#45;&gt;Node22 -->
<g id="edge25" class="edge"><title>Node21&#45;&gt;Node22</title>
<path fill="none" stroke="midnightblue" d="M703.056,-224.094C703.567,-211.502 703.899,-187.819 700.574,-168 699.069,-159.023 696.228,-149.35 693.496,-141.281"/>
<polygon fill="midnightblue" stroke="midnightblue" points="696.763,-140.021 690.09,-131.792 690.174,-142.386 696.763,-140.021"/>
</g>
<!-- Node23&#45;&gt;Node3 -->
<g id="edge28" class="edge"><title>Node23&#45;&gt;Node3</title>
<path fill="none" stroke="midnightblue" d="M400.538,-280.547C362.492,-273.704 312.265,-262.162 270.574,-244 205.392,-215.605 138.122,-163.95 106.743,-138.299"/>
<polygon fill="midnightblue" stroke="midnightblue" points="108.813,-135.469 98.8755,-131.795 104.352,-140.864 108.813,-135.469"/>
</g>
<!-- Node23&#45;&gt;Node4 -->
<g id="edge27" class="edge"><title>Node23&#45;&gt;Node4</title>
<path fill="none" stroke="midnightblue" d="M400.22,-285.37C360.86,-280.563 309.251,-269.477 270.574,-244 207.931,-202.736 163.929,-121.136 146.672,-84.9751"/>
<polygon fill="midnightblue" stroke="midnightblue" points="149.739,-83.2708 142.351,-75.6772 143.391,-86.2209 149.739,-83.2708"/>
</g>
<!-- Node23&#45;&gt;Node21 -->
<g id="edge31" class="edge"><title>Node23&#45;&gt;Node21</title>
<path fill="none" stroke="midnightblue" d="M497.237,-280.444C539.713,-271.043 608.006,-255.929 654.049,-245.739"/>
<polygon fill="midnightblue" stroke="midnightblue" points="655.085,-249.095 664.093,-243.516 653.573,-242.26 655.085,-249.095"/>
</g>
<!-- Node23&#45;&gt;Node22 -->
<g id="edge30" class="edge"><title>Node23&#45;&gt;Node22</title>
<path fill="none" stroke="midnightblue" d="M469.05,-280.296C485.911,-266.655 520.532,-240.134 553.574,-224 600.939,-200.873 629.489,-225.456 666.574,-188 678.635,-175.819 683.449,-156.547 685.356,-142.146"/>
<polygon fill="midnightblue" stroke="midnightblue" points="688.871,-142.159 686.345,-131.869 681.903,-141.488 688.871,-142.159"/>
</g>
<!-- Node24 -->
<g id="node24" class="node"><title>Node24</title>
<polygon fill="white" stroke="#bfbfbf" points="562.574,-224.5 562.574,-243.5 614.574,-243.5 614.574,-224.5 562.574,-224.5"/>
<text text-anchor="middle" x="588.574" y="-231.5" font-family="Helvetica,sans-Serif" font-size="10.00">sstream</text>
</g>
<!-- Node23&#45;&gt;Node24 -->
<g id="edge29" class="edge"><title>Node23&#45;&gt;Node24</title>
<path fill="none" stroke="midnightblue" d="M479.173,-280.444C500.568,-271.557 534.256,-257.563 558.599,-247.451"/>
<polygon fill="midnightblue" stroke="midnightblue" points="560.18,-250.585 568.072,-243.516 557.494,-244.12 560.18,-250.585"/>
</g>
<!-- Node25 -->
<g id="node25" class="node"><title>Node25</title>
<g id="a_node25"><a xlink:href="Thread_8h.html" target="_top" xlink:title="common/Thread.h">
<polygon fill="white" stroke="black" points="411.074,-224.5 411.074,-243.5 506.074,-243.5 506.074,-224.5 411.074,-224.5"/>
<text text-anchor="middle" x="458.574" y="-231.5" font-family="Helvetica,sans-Serif" font-size="10.00">common/Thread.h</text>
</a>
</g>
</g>
<!-- Node23&#45;&gt;Node25 -->
<g id="edge32" class="edge"><title>Node23&#45;&gt;Node25</title>
<path fill="none" stroke="midnightblue" d="M458.574,-280.083C458.574,-273.006 458.574,-262.861 458.574,-253.986"/>
<polygon fill="midnightblue" stroke="midnightblue" points="462.074,-253.751 458.574,-243.751 455.074,-253.751 462.074,-253.751"/>
</g>
<!-- Node29 -->
<g id="node29" class="node"><title>Node29</title>
<g id="a_node29"><a xlink:href="AIFactories_8h.html" target="_top" xlink:title="AIFactories.h">
<polygon fill="white" stroke="black" points="280.074,-224.5 280.074,-243.5 355.074,-243.5 355.074,-224.5 280.074,-224.5"/>
<text text-anchor="middle" x="317.574" y="-231.5" font-family="Helvetica,sans-Serif" font-size="10.00">AIFactories.h</text>
</a>
</g>
</g>
<!-- Node23&#45;&gt;Node29 -->
<g id="edge37" class="edge"><title>Node23&#45;&gt;Node29</title>
<path fill="none" stroke="midnightblue" d="M436.232,-280.444C412.821,-271.478 375.839,-257.314 349.385,-247.183"/>
<polygon fill="midnightblue" stroke="midnightblue" points="350.402,-243.824 339.812,-243.516 347.898,-250.361 350.402,-243.824"/>
</g>
<!-- Node25&#45;&gt;Node6 -->
<g id="edge33" class="edge"><title>Node25&#45;&gt;Node6</title>
<path fill="none" stroke="midnightblue" d="M506.125,-226.034C548.862,-218.996 612.965,-206.503 666.574,-188 706.846,-174.1 750.787,-151.167 776.992,-136.586"/>
<polygon fill="midnightblue" stroke="midnightblue" points="778.808,-139.581 785.804,-131.625 775.373,-133.481 778.808,-139.581"/>
</g>
<!-- Node26 -->
<g id="node26" class="node"><title>Node26</title>
<polygon fill="white" stroke="#bfbfbf" points="614.574,-168.5 614.574,-187.5 658.574,-187.5 658.574,-168.5 614.574,-168.5"/>
<text text-anchor="middle" x="636.574" y="-175.5" font-family="Helvetica,sans-Serif" font-size="10.00">thread</text>
</g>
<!-- Node25&#45;&gt;Node26 -->
<g id="edge34" class="edge"><title>Node25&#45;&gt;Node26</title>
<path fill="none" stroke="midnightblue" d="M486.779,-224.444C518.85,-214.714 571.096,-198.864 604.64,-188.688"/>
<polygon fill="midnightblue" stroke="midnightblue" points="605.853,-191.977 614.407,-185.725 603.821,-185.279 605.853,-191.977"/>
</g>
<!-- Node27 -->
<g id="node27" class="node"><title>Node27</title>
<polygon fill="white" stroke="#bfbfbf" points="488.574,-168.5 488.574,-187.5 532.574,-187.5 532.574,-168.5 488.574,-168.5"/>
<text text-anchor="middle" x="510.574" y="-175.5" font-family="Helvetica,sans-Serif" font-size="10.00">mutex</text>
</g>
<!-- Node25&#45;&gt;Node27 -->
<g id="edge35" class="edge"><title>Node25&#45;&gt;Node27</title>
<path fill="none" stroke="midnightblue" d="M467.161,-224.083C474.733,-216.22 485.953,-204.569 495.089,-195.081"/>
<polygon fill="midnightblue" stroke="midnightblue" points="497.732,-197.382 502.147,-187.751 492.69,-192.527 497.732,-197.382"/>
</g>
<!-- Node28 -->
<g id="node28" class="node"><title>Node28</title>
<polygon fill="white" stroke="#bfbfbf" points="550.574,-168.5 550.574,-187.5 596.574,-187.5 596.574,-168.5 550.574,-168.5"/>
<text text-anchor="middle" x="573.574" y="-175.5" font-family="Helvetica,sans-Serif" font-size="10.00">atomic</text>
</g>
<!-- Node25&#45;&gt;Node28 -->
<g id="edge36" class="edge"><title>Node25&#45;&gt;Node28</title>
<path fill="none" stroke="midnightblue" d="M476.796,-224.444C495.47,-215.675 524.73,-201.935 546.192,-191.858"/>
<polygon fill="midnightblue" stroke="midnightblue" points="547.873,-194.935 555.438,-187.516 544.898,-188.599 547.873,-194.935"/>
</g>
<!-- Node29&#45;&gt;Node3 -->
<g id="edge48" class="edge"><title>Node29&#45;&gt;Node3</title>
<path fill="none" stroke="midnightblue" d="M301.683,-224.493C277.779,-211.783 231.054,-187.269 190.574,-168 166.545,-156.562 138.902,-144.429 118.461,-135.647"/>
<polygon fill="midnightblue" stroke="midnightblue" points="119.622,-132.337 109.051,-131.623 116.87,-138.773 119.622,-132.337"/>
</g>
<!-- Node30 -->
<g id="node30" class="node"><title>Node30</title>
<g id="a_node30"><a xlink:href="IAIFactory_8h.html" target="_top" xlink:title="IAIFactory.h">
<polygon fill="white" stroke="black" points="243.074,-168.5 243.074,-187.5 314.074,-187.5 314.074,-168.5 243.074,-168.5"/>
<text text-anchor="middle" x="278.574" y="-175.5" font-family="Helvetica,sans-Serif" font-size="10.00">IAIFactory.h</text>
</a>
</g>
</g>
<!-- Node29&#45;&gt;Node30 -->
<g id="edge38" class="edge"><title>Node29&#45;&gt;Node30</title>
<path fill="none" stroke="midnightblue" d="M311.134,-224.083C305.626,-216.455 297.543,-205.264 290.809,-195.941"/>
<polygon fill="midnightblue" stroke="midnightblue" points="293.587,-193.809 284.895,-187.751 287.912,-197.907 293.587,-193.809"/>
</g>
<!-- Node32 -->
<g id="node32" class="node"><title>Node32</title>
<g id="a_node32"><a xlink:href="IFactoryRegistry_8h.html" target="_top" xlink:title="common/IFactoryRegistry.h">
<polygon fill="white" stroke="black" points="332.574,-168.5 332.574,-187.5 470.574,-187.5 470.574,-168.5 332.574,-168.5"/>
<text text-anchor="middle" x="401.574" y="-175.5" font-family="Helvetica,sans-Serif" font-size="10.00">common/IFactoryRegistry.h</text>
</a>
</g>
</g>
<!-- Node29&#45;&gt;Node32 -->
<g id="edge43" class="edge"><title>Node29&#45;&gt;Node32</title>
<path fill="none" stroke="midnightblue" d="M331.07,-224.324C344.174,-215.9 364.286,-202.971 379.681,-193.074"/>
<polygon fill="midnightblue" stroke="midnightblue" points="381.593,-196.006 388.112,-187.655 377.807,-190.118 381.593,-196.006"/>
</g>
<!-- Node30&#45;&gt;Node3 -->
<g id="edge41" class="edge"><title>Node30&#45;&gt;Node3</title>
<path fill="none" stroke="midnightblue" d="M248.468,-168.444C213.611,-158.537 156.428,-142.285 120.725,-132.137"/>
<polygon fill="midnightblue" stroke="midnightblue" points="121.398,-128.69 110.822,-129.323 119.484,-135.424 121.398,-128.69"/>
</g>
<!-- Node30&#45;&gt;Node4 -->
<g id="edge40" class="edge"><title>Node30&#45;&gt;Node4</title>
<path fill="none" stroke="midnightblue" d="M267.589,-168.368C243.769,-149.653 187.13,-105.151 157.452,-81.8324"/>
<polygon fill="midnightblue" stroke="midnightblue" points="159.534,-79.0176 149.509,-75.5914 155.21,-84.5218 159.534,-79.0176"/>
</g>
<!-- Node30&#45;&gt;Node22 -->
<g id="edge39" class="edge"><title>Node30&#45;&gt;Node22</title>
<path fill="none" stroke="midnightblue" d="M314.392,-169.588C317.493,-169.022 320.586,-168.483 323.574,-168 442.636,-148.741 584.835,-133.29 650.307,-126.597"/>
<polygon fill="midnightblue" stroke="midnightblue" points="650.915,-130.053 660.511,-125.561 650.208,-123.089 650.915,-130.053"/>
</g>
<!-- Node31 -->
<g id="node31" class="node"><title>Node31</title>
<polygon fill="white" stroke="#bfbfbf" points="264.074,-112.5 264.074,-131.5 293.074,-131.5 293.074,-112.5 264.074,-112.5"/>
<text text-anchor="middle" x="278.574" y="-119.5" font-family="Helvetica,sans-Serif" font-size="10.00">list</text>
</g>
<!-- Node30&#45;&gt;Node31 -->
<g id="edge42" class="edge"><title>Node30&#45;&gt;Node31</title>
<path fill="none" stroke="midnightblue" d="M278.574,-168.083C278.574,-161.006 278.574,-150.861 278.574,-141.986"/>
<polygon fill="midnightblue" stroke="midnightblue" points="282.074,-141.751 278.574,-131.751 275.074,-141.751 282.074,-141.751"/>
</g>
<!-- Node32&#45;&gt;Node6 -->
<g id="edge44" class="edge"><title>Node32&#45;&gt;Node6</title>
<path fill="none" stroke="midnightblue" d="M464.797,-168.444C549.273,-157.011 696.193,-137.127 764.161,-127.928"/>
<polygon fill="midnightblue" stroke="midnightblue" points="764.929,-131.356 774.37,-126.547 763.99,-124.419 764.929,-131.356"/>
</g>
<!-- Node32&#45;&gt;Node22 -->
<g id="edge46" class="edge"><title>Node32&#45;&gt;Node22</title>
<path fill="none" stroke="midnightblue" d="M446.733,-168.444C503.12,-157.76 598.459,-139.696 650.326,-129.868"/>
<polygon fill="midnightblue" stroke="midnightblue" points="651.227,-133.26 660.4,-127.959 649.923,-126.382 651.227,-133.26"/>
</g>
<!-- Node33 -->
<g id="node33" class="node"><title>Node33</title>
<g id="a_node33"><a xlink:href="NonCopyable_8h.html" target="_top" xlink:title="common/NonCopyable.h">
<polygon fill="white" stroke="black" points="325.074,-112.5 325.074,-131.5 450.074,-131.5 450.074,-112.5 325.074,-112.5"/>
<text text-anchor="middle" x="387.574" y="-119.5" font-family="Helvetica,sans-Serif" font-size="10.00">common/NonCopyable.h</text>
</a>
</g>
</g>
<!-- Node32&#45;&gt;Node33 -->
<g id="edge45" class="edge"><title>Node32&#45;&gt;Node33</title>
<path fill="none" stroke="midnightblue" d="M399.263,-168.083C397.407,-160.927 394.739,-150.635 392.42,-141.691"/>
<polygon fill="midnightblue" stroke="midnightblue" points="395.741,-140.553 389.843,-131.751 388.965,-142.309 395.741,-140.553"/>
</g>
<!-- Node34 -->
<g id="node34" class="node"><title>Node34</title>
<polygon fill="white" stroke="#bfbfbf" points="468.074,-112.5 468.074,-131.5 503.074,-131.5 503.074,-112.5 468.074,-112.5"/>
<text text-anchor="middle" x="485.574" y="-119.5" font-family="Helvetica,sans-Serif" font-size="10.00">map</text>
</g>
<!-- Node32&#45;&gt;Node34 -->
<g id="edge47" class="edge"><title>Node32&#45;&gt;Node34</title>
<path fill="none" stroke="midnightblue" d="M415.07,-168.324C428.174,-159.9 448.286,-146.971 463.681,-137.074"/>
<polygon fill="midnightblue" stroke="midnightblue" points="465.593,-140.006 472.112,-131.655 461.807,-134.118 465.593,-140.006"/>
</g>
<!-- Node35&#45;&gt;Node23 -->
<g id="edge50" class="edge"><title>Node35&#45;&gt;Node23</title>
<path fill="none" stroke="midnightblue" d="M494.474,-336.083C488.337,-328.377 479.305,-317.033 471.835,-307.653"/>
<polygon fill="midnightblue" stroke="midnightblue" points="474.51,-305.394 465.543,-299.751 469.034,-309.754 474.51,-305.394"/>
</g>
</g>
</svg>
