<?xml version="1.0" encoding="UTF-8" standalone="no"?>
<!DOCTYPE svg PUBLIC "-//W3C//DTD SVG 1.1//EN"
 "http://www.w3.org/Graphics/SVG/1.1/DTD/svg11.dtd">
<!-- Generated by graphviz version 2.36.0 (20140111.2315)
 -->
<!-- Title: /home/travis/build/mgerhardy/simpleai/src/ai/server/AIDeleteNodeMessage.h Pages: 1 -->
<svg width="412pt" height="308pt"
 viewBox="0.00 0.00 412.00 308.00" xmlns="http://www.w3.org/2000/svg" xmlns:xlink="http://www.w3.org/1999/xlink">
<g id="graph0" class="graph" transform="scale(1 1) rotate(0) translate(4 304)">
<title>/home/travis/build/mgerhardy/simpleai/src/ai/server/AIDeleteNodeMessage.h</title>
<polygon fill="white" stroke="none" points="-4,4 -4,-304 408,-304 408,4 -4,4"/>
<!-- Node1 -->
<g id="node1" class="node"><title>Node1</title>
<polygon fill="#bfbfbf" stroke="black" points="129,-247 129,-299 267,-299 267,-247 129,-247"/>
<text text-anchor="start" x="137" y="-287" font-family="Helvetica,sans-Serif" font-size="10.00">/home/travis/build</text>
<text text-anchor="start" x="137" y="-276" font-family="Helvetica,sans-Serif" font-size="10.00">/mgerhardy/simpleai</text>
<text text-anchor="start" x="137" y="-265" font-family="Helvetica,sans-Serif" font-size="10.00">/src/ai/server/AIDeleteNode</text>
<text text-anchor="middle" x="198" y="-254" font-family="Helvetica,sans-Serif" font-size="10.00">Message.h</text>
</g>
<!-- Node2 -->
<g id="node2" class="node"><title>Node2</title>
<g id="a_node2"><a xlink:href="DeleteNodeHandler_8h.html" target="_top" xlink:title="/home/travis/build\l/mgerhardy/simpleai\l/src/ai/server/DeleteNodeHandler.h">
<polygon fill="white" stroke="black" points="0,-162.5 0,-203.5 170,-203.5 170,-162.5 0,-162.5"/>
<text text-anchor="start" x="8" y="-191.5" font-family="Helvetica,sans-Serif" font-size="10.00">/home/travis/build</text>
<text text-anchor="start" x="8" y="-180.5" font-family="Helvetica,sans-Serif" font-size="10.00">/mgerhardy/simpleai</text>
<text text-anchor="middle" x="85" y="-169.5" font-family="Helvetica,sans-Serif" font-size="10.00">/src/ai/server/DeleteNodeHandler.h</text>
</a>
</g>
</g>
<!-- Node1&#45;&gt;Node2 -->
<g id="edge1" class="edge"><title>Node1&#45;&gt;Node2</title>
<path fill="none" stroke="midnightblue" d="M157.552,-240.501C141.753,-228.197 124.127,-214.47 110.204,-203.628"/>
<polygon fill="midnightblue" stroke="midnightblue" points="155.578,-243.4 165.619,-246.783 159.879,-237.877 155.578,-243.4"/>
</g>
<!-- Node4 -->
<g id="node4" class="node"><title>Node4</title>
<g id="a_node4"><a xlink:href="SimpleAI_8h.html" target="_top" xlink:title="/home/travis/build\l/mgerhardy/simpleai\l/src/ai/SimpleAI.h">
<polygon fill="white" stroke="black" points="165,-0.5 165,-41.5 269,-41.5 269,-0.5 165,-0.5"/>
<text text-anchor="start" x="173" y="-29.5" font-family="Helvetica,sans-Serif" font-size="10.00">/home/travis/build</text>
<text text-anchor="start" x="173" y="-18.5" font-family="Helvetica,sans-Serif" font-size="10.00">/mgerhardy/simpleai</text>
<text text-anchor="middle" x="217" y="-7.5" font-family="Helvetica,sans-Serif" font-size="10.00">/src/ai/SimpleAI.h</text>
</a>
</g>
</g>
<!-- Node1&#45;&gt;Node4 -->
<g id="edge8" class="edge"><title>Node1&#45;&gt;Node4</title>
<path fill="none" stroke="midnightblue" d="M200.689,-236.622C204.745,-183.251 212.295,-83.9076 215.5,-41.7427"/>
<polygon fill="midnightblue" stroke="midnightblue" points="197.194,-236.416 199.926,-246.653 204.174,-236.947 197.194,-236.416"/>
</g>
<!-- Node5 -->
<g id="node5" class="node"><title>Node5</title>
<g id="a_node5"><a xlink:href="ProtocolMessageFactory_8h.html" target="_top" xlink:title="/home/travis/build\l/mgerhardy/simpleai\l/src/ai/server/ProtocolMessage\lFactory.h">
<polygon fill="white" stroke="black" points="226,-157 226,-209 378,-209 378,-157 226,-157"/>
<text text-anchor="start" x="234" y="-197" font-family="Helvetica,sans-Serif" font-size="10.00">/home/travis/build</text>
<text text-anchor="start" x="234" y="-186" font-family="Helvetica,sans-Serif" font-size="10.00">/mgerhardy/simpleai</text>
<text text-anchor="start" x="234" y="-175" font-family="Helvetica,sans-Serif" font-size="10.00">/src/ai/server/ProtocolMessage</text>
<text text-anchor="middle" x="302" y="-164" font-family="Helvetica,sans-Serif" font-size="10.00">Factory.h</text>
</a>
</g>
</g>
<!-- Node1&#45;&gt;Node5 -->
<g id="edge4" class="edge"><title>Node1&#45;&gt;Node5</title>
<path fill="none" stroke="midnightblue" d="M235.532,-240.242C247.587,-230.042 260.77,-218.887 272.193,-209.221"/>
<polygon fill="midnightblue" stroke="midnightblue" points="233.175,-237.651 227.802,-246.783 237.697,-242.995 233.175,-237.651"/>
</g>
<!-- Node3 -->
<g id="node3" class="node"><title>Node3</title>
<g id="a_node3"><a xlink:href="ServerImpl_8h.html" target="_top" xlink:title="/home/travis/build\l/mgerhardy/simpleai\l/src/ai/server/ServerImpl.h">
<polygon fill="white" stroke="black" points="29,-78.5 29,-119.5 161,-119.5 161,-78.5 29,-78.5"/>
<text text-anchor="start" x="37" y="-107.5" font-family="Helvetica,sans-Serif" font-size="10.00">/home/travis/build</text>
<text text-anchor="start" x="37" y="-96.5" font-family="Helvetica,sans-Serif" font-size="10.00">/mgerhardy/simpleai</text>
<text text-anchor="middle" x="95" y="-85.5" font-family="Helvetica,sans-Serif" font-size="10.00">/src/ai/server/ServerImpl.h</text>
</a>
</g>
</g>
<!-- Node2&#45;&gt;Node3 -->
<g id="edge2" class="edge"><title>Node2&#45;&gt;Node3</title>
<path fill="none" stroke="midnightblue" d="M88.6321,-152.217C89.9537,-141.379 91.4135,-129.409 92.6016,-119.667"/>
<polygon fill="midnightblue" stroke="midnightblue" points="85.1571,-151.8 87.4207,-162.15 92.1056,-152.647 85.1571,-151.8"/>
</g>
<!-- Node3&#45;&gt;Node4 -->
<g id="edge3" class="edge"><title>Node3&#45;&gt;Node4</title>
<path fill="none" stroke="midnightblue" d="M135.261,-72.9194C151.663,-62.702 170.335,-51.0701 185.688,-41.5056"/>
<polygon fill="midnightblue" stroke="midnightblue" points="133.055,-70.1699 126.418,-78.4281 136.756,-76.1113 133.055,-70.1699"/>
</g>
<!-- Node5&#45;&gt;Node4 -->
<g id="edge7" class="edge"><title>Node5&#45;&gt;Node4</title>
<path fill="none" stroke="midnightblue" d="M274.217,-148.883C267.403,-139.855 260.496,-129.842 255,-120 240.676,-94.3488 229.339,-62.2007 222.898,-41.8733"/>
<polygon fill="midnightblue" stroke="midnightblue" points="271.512,-151.106 280.406,-156.864 277.044,-146.817 271.512,-151.106"/>
</g>
<!-- Node6 -->
<g id="node6" class="node"><title>Node6</title>
<g id="a_node6"><a xlink:href="NetworkImpl_8h.html" target="_top" xlink:title="/home/travis/build\l/mgerhardy/simpleai\l/src/ai/server/NetworkImpl.h">
<polygon fill="white" stroke="black" points="264,-78.5 264,-119.5 404,-119.5 404,-78.5 264,-78.5"/>
<text text-anchor="start" x="272" y="-107.5" font-family="Helvetica,sans-Serif" font-size="10.00">/home/travis/build</text>
<text text-anchor="start" x="272" y="-96.5" font-family="Helvetica,sans-Serif" font-size="10.00">/mgerhardy/simpleai</text>
<text text-anchor="middle" x="334" y="-85.5" font-family="Helvetica,sans-Serif" font-size="10.00">/src/ai/server/NetworkImpl.h</text>
</a>
</g>
</g>
<!-- Node5&#45;&gt;Node6 -->
<g id="edge5" class="edge"><title>Node5&#45;&gt;Node6</title>
<path fill="none" stroke="midnightblue" d="M315.519,-147.358C319.207,-137.908 323.075,-127.996 326.314,-119.696"/>
<polygon fill="midnightblue" stroke="midnightblue" points="312.15,-146.364 311.775,-156.952 318.671,-148.908 312.15,-146.364"/>
</g>
<!-- Node6&#45;&gt;Node4 -->
<g id="edge6" class="edge"><title>Node6&#45;&gt;Node4</title>
<path fill="none" stroke="midnightblue" d="M295.389,-72.9194C279.66,-62.702 261.753,-51.0701 247.028,-41.5056"/>
<polygon fill="midnightblue" stroke="midnightblue" points="293.577,-75.9158 303.87,-78.4281 297.39,-70.0456 293.577,-75.9158"/>
</g>
</g>
</svg>
