<?xml version="1.0" encoding="UTF-8" standalone="no"?>
<!DOCTYPE svg PUBLIC "-//W3C//DTD SVG 1.1//EN"
 "http://www.w3.org/Graphics/SVG/1.1/DTD/svg11.dtd">
<!-- Generated by graphviz version 2.36.0 (20140111.2315)
 -->
<!-- Title: /home/travis/build/mgerhardy/simpleai/src/ai/server/AINamesMessage.h Pages: 1 -->
<svg width="313pt" height="162pt"
 viewBox="0.00 0.00 313.00 162.00" xmlns="http://www.w3.org/2000/svg" xmlns:xlink="http://www.w3.org/1999/xlink">
<g id="graph0" class="graph" transform="scale(1 1) rotate(0) translate(4 158)">
<title>/home/travis/build/mgerhardy/simpleai/src/ai/server/AINamesMessage.h</title>
<polygon fill="white" stroke="none" points="-4,4 -4,-158 309,-158 309,4 -4,4"/>
<!-- Node1 -->
<g id="node1" class="node"><title>Node1</title>
<polygon fill="#bfbfbf" stroke="black" points="78,-112.5 78,-153.5 244,-153.5 244,-112.5 78,-112.5"/>
<text text-anchor="start" x="86" y="-141.5" font-family="Helvetica,sans-Serif" font-size="10.00">/home/travis/build</text>
<text text-anchor="start" x="86" y="-130.5" font-family="Helvetica,sans-Serif" font-size="10.00">/mgerhardy/simpleai</text>
<text text-anchor="middle" x="161" y="-119.5" font-family="Helvetica,sans-Serif" font-size="10.00">/src/ai/server/AINamesMessage.h</text>
</g>
<!-- Node2 -->
<g id="node2" class="node"><title>Node2</title>
<g id="a_node2"><a xlink:href="IProtocolMessage_8h.html" target="_top" xlink:title="IProtocolMessage.h">
<polygon fill="white" stroke="black" points="109,-56.5 109,-75.5 213,-75.5 213,-56.5 109,-56.5"/>
<text text-anchor="middle" x="161" y="-63.5" font-family="Helvetica,sans-Serif" font-size="10.00">IProtocolMessage.h</text>
</a>
</g>
</g>
<!-- Node1&#45;&gt;Node2 -->
<g id="edge1" class="edge"><title>Node1&#45;&gt;Node2</title>
<path fill="none" stroke="midnightblue" d="M161,-112.498C161,-104.065 161,-94.2351 161,-85.874"/>
<polygon fill="midnightblue" stroke="midnightblue" points="164.5,-85.6525 161,-75.6525 157.5,-85.6525 164.5,-85.6525"/>
</g>
<!-- Node3 -->
<g id="node3" class="node"><title>Node3</title>
<polygon fill="white" stroke="#bfbfbf" points="-0.5,-0.5 -0.5,-19.5 48.5,-19.5 48.5,-0.5 -0.5,-0.5"/>
<text text-anchor="middle" x="24" y="-7.5" font-family="Helvetica,sans-Serif" font-size="10.00">stdint.h</text>
</g>
<!-- Node2&#45;&gt;Node3 -->
<g id="edge2" class="edge"><title>Node2&#45;&gt;Node3</title>
<path fill="none" stroke="midnightblue" d="M139.292,-56.4435C116.645,-47.5171 80.9279,-33.4387 55.2482,-23.3168"/>
<polygon fill="midnightblue" stroke="midnightblue" points="56.1934,-19.9273 45.6065,-19.5164 53.6264,-26.4397 56.1934,-19.9273"/>
</g>
<!-- Node4 -->
<g id="node4" class="node"><title>Node4</title>
<polygon fill="white" stroke="#bfbfbf" points="67,-0.5 67,-19.5 119,-19.5 119,-0.5 67,-0.5"/>
<text text-anchor="middle" x="93" y="-7.5" font-family="Helvetica,sans-Serif" font-size="10.00">stddef.h</text>
</g>
<!-- Node2&#45;&gt;Node4 -->
<g id="edge3" class="edge"><title>Node2&#45;&gt;Node4</title>
<path fill="none" stroke="midnightblue" d="M150.075,-56.324C139.825,-48.1849 124.279,-35.8395 111.999,-26.0874"/>
<polygon fill="midnightblue" stroke="midnightblue" points="114.132,-23.3119 104.124,-19.8339 109.779,-28.7937 114.132,-23.3119"/>
</g>
<!-- Node5 -->
<g id="node5" class="node"><title>Node5</title>
<polygon fill="white" stroke="#bfbfbf" points="137,-0.5 137,-19.5 185,-19.5 185,-0.5 137,-0.5"/>
<text text-anchor="middle" x="161" y="-7.5" font-family="Helvetica,sans-Serif" font-size="10.00">limits.h</text>
</g>
<!-- Node2&#45;&gt;Node5 -->
<g id="edge4" class="edge"><title>Node2&#45;&gt;Node5</title>
<path fill="none" stroke="midnightblue" d="M161,-56.083C161,-49.0059 161,-38.8611 161,-29.9865"/>
<polygon fill="midnightblue" stroke="midnightblue" points="164.5,-29.751 161,-19.7511 157.5,-29.7511 164.5,-29.751"/>
</g>
<!-- Node6 -->
<g id="node6" class="node"><title>Node6</title>
<polygon fill="white" stroke="#bfbfbf" points="203.5,-0.5 203.5,-19.5 244.5,-19.5 244.5,-0.5 203.5,-0.5"/>
<text text-anchor="middle" x="224" y="-7.5" font-family="Helvetica,sans-Serif" font-size="10.00">string</text>
</g>
<!-- Node2&#45;&gt;Node6 -->
<g id="edge5" class="edge"><title>Node2&#45;&gt;Node6</title>
<path fill="none" stroke="midnightblue" d="M171.122,-56.324C180.526,-48.2631 194.744,-36.0765 206.069,-26.3695"/>
<polygon fill="midnightblue" stroke="midnightblue" points="208.379,-28.9993 213.694,-19.8339 203.823,-23.6844 208.379,-28.9993"/>
</g>
<!-- Node7 -->
<g id="node7" class="node"><title>Node7</title>
<polygon fill="white" stroke="#bfbfbf" points="262.5,-0.5 262.5,-19.5 305.5,-19.5 305.5,-0.5 262.5,-0.5"/>
<text text-anchor="middle" x="284" y="-7.5" font-family="Helvetica,sans-Serif" font-size="10.00">deque</text>
</g>
<!-- Node2&#45;&gt;Node7 -->
<g id="edge6" class="edge"><title>Node2&#45;&gt;Node7</title>
<path fill="none" stroke="midnightblue" d="M180.49,-56.4435C200.642,-47.5961 232.323,-33.6875 255.331,-23.5865"/>
<polygon fill="midnightblue" stroke="midnightblue" points="256.852,-26.7411 264.601,-19.5164 254.038,-20.3316 256.852,-26.7411"/>
</g>
</g>
</svg>
