<?xml version="1.0" encoding="UTF-8" standalone="no"?>
<!DOCTYPE svg PUBLIC "-//W3C//DTD SVG 1.1//EN"
 "http://www.w3.org/Graphics/SVG/1.1/DTD/svg11.dtd">
<!-- Generated by graphviz version 2.36.0 (20140111.2315)
 -->
<!-- Title: /home/travis/build/mgerhardy/simpleai/src/ai/server/AISelectMessage.h Pages: 1 -->
<svg width="1038pt" height="330pt"
 viewBox="0.00 0.00 1038.00 330.00" xmlns="http://www.w3.org/2000/svg" xmlns:xlink="http://www.w3.org/1999/xlink">
<g id="graph0" class="graph" transform="scale(1 1) rotate(0) translate(4 326)">
<title>/home/travis/build/mgerhardy/simpleai/src/ai/server/AISelectMessage.h</title>
<polygon fill="white" stroke="none" points="-4,4 -4,-326 1034,-326 1034,4 -4,4"/>
<!-- Node1 -->
<g id="node1" class="node"><title>Node1</title>
<polygon fill="#bfbfbf" stroke="black" points="320,-280.5 320,-321.5 482,-321.5 482,-280.5 320,-280.5"/>
<text text-anchor="start" x="328" y="-309.5" font-family="Helvetica,sans-Serif" font-size="10.00">/home/travis/build</text>
<text text-anchor="start" x="328" y="-298.5" font-family="Helvetica,sans-Serif" font-size="10.00">/mgerhardy/simpleai</text>
<text text-anchor="middle" x="401" y="-287.5" font-family="Helvetica,sans-Serif" font-size="10.00">/src/ai/server/AISelectMessage.h</text>
</g>
<!-- Node2 -->
<g id="node2" class="node"><title>Node2</title>
<g id="a_node2"><a xlink:href="IProtocolMessage_8h.html" target="_top" xlink:title="IProtocolMessage.h">
<polygon fill="white" stroke="black" points="135,-224.5 135,-243.5 239,-243.5 239,-224.5 135,-224.5"/>
<text text-anchor="middle" x="187" y="-231.5" font-family="Helvetica,sans-Serif" font-size="10.00">IProtocolMessage.h</text>
</a>
</g>
</g>
<!-- Node1&#45;&gt;Node2 -->
<g id="edge1" class="edge"><title>Node1&#45;&gt;Node2</title>
<path fill="none" stroke="midnightblue" d="M336.793,-280.498C300.402,-269.444 256.104,-255.99 225.158,-246.59"/>
<polygon fill="midnightblue" stroke="midnightblue" points="225.791,-243.124 215.205,-243.567 223.757,-249.822 225.791,-243.124"/>
</g>
<!-- Node8 -->
<g id="node8" class="node"><title>Node8</title>
<g id="a_node8"><a xlink:href="ICharacter_8h.html" target="_top" xlink:title="ICharacter.h">
<polygon fill="white" stroke="black" points="494.5,-224.5 494.5,-243.5 565.5,-243.5 565.5,-224.5 494.5,-224.5"/>
<text text-anchor="middle" x="530" y="-231.5" font-family="Helvetica,sans-Serif" font-size="10.00">ICharacter.h</text>
</a>
</g>
</g>
<!-- Node1&#45;&gt;Node8 -->
<g id="edge7" class="edge"><title>Node1&#45;&gt;Node8</title>
<path fill="none" stroke="midnightblue" d="M439.704,-280.498C460.433,-270.053 485.418,-257.464 503.846,-248.178"/>
<polygon fill="midnightblue" stroke="midnightblue" points="505.473,-251.278 512.828,-243.652 502.323,-245.027 505.473,-251.278"/>
</g>
<!-- Node3 -->
<g id="node3" class="node"><title>Node3</title>
<polygon fill="white" stroke="#bfbfbf" points="-0.5,-168.5 -0.5,-187.5 48.5,-187.5 48.5,-168.5 -0.5,-168.5"/>
<text text-anchor="middle" x="24" y="-175.5" font-family="Helvetica,sans-Serif" font-size="10.00">stdint.h</text>
</g>
<!-- Node2&#45;&gt;Node3 -->
<g id="edge2" class="edge"><title>Node2&#45;&gt;Node3</title>
<path fill="none" stroke="midnightblue" d="M161.172,-224.444C133.428,-215.252 89.1961,-200.599 58.4911,-190.426"/>
<polygon fill="midnightblue" stroke="midnightblue" points="59.2334,-186.985 48.64,-187.163 57.0319,-193.63 59.2334,-186.985"/>
</g>
<!-- Node4 -->
<g id="node4" class="node"><title>Node4</title>
<polygon fill="white" stroke="#bfbfbf" points="67,-168.5 67,-187.5 119,-187.5 119,-168.5 67,-168.5"/>
<text text-anchor="middle" x="93" y="-175.5" font-family="Helvetica,sans-Serif" font-size="10.00">stddef.h</text>
</g>
<!-- Node2&#45;&gt;Node4 -->
<g id="edge3" class="edge"><title>Node2&#45;&gt;Node4</title>
<path fill="none" stroke="midnightblue" d="M171.897,-224.324C157.097,-215.822 134.306,-202.729 117.018,-192.797"/>
<polygon fill="midnightblue" stroke="midnightblue" points="118.48,-189.601 108.065,-187.655 114.993,-195.671 118.48,-189.601"/>
</g>
<!-- Node5 -->
<g id="node5" class="node"><title>Node5</title>
<polygon fill="white" stroke="#bfbfbf" points="137,-168.5 137,-187.5 185,-187.5 185,-168.5 137,-168.5"/>
<text text-anchor="middle" x="161" y="-175.5" font-family="Helvetica,sans-Serif" font-size="10.00">limits.h</text>
</g>
<!-- Node2&#45;&gt;Node5 -->
<g id="edge4" class="edge"><title>Node2&#45;&gt;Node5</title>
<path fill="none" stroke="midnightblue" d="M182.707,-224.083C179.148,-216.691 173.978,-205.953 169.576,-196.811"/>
<polygon fill="midnightblue" stroke="midnightblue" points="172.705,-195.243 165.213,-187.751 166.398,-198.279 172.705,-195.243"/>
</g>
<!-- Node6 -->
<g id="node6" class="node"><title>Node6</title>
<polygon fill="white" stroke="#bfbfbf" points="170.5,-56.5 170.5,-75.5 211.5,-75.5 211.5,-56.5 170.5,-56.5"/>
<text text-anchor="middle" x="191" y="-63.5" font-family="Helvetica,sans-Serif" font-size="10.00">string</text>
</g>
<!-- Node2&#45;&gt;Node6 -->
<g id="edge5" class="edge"><title>Node2&#45;&gt;Node6</title>
<path fill="none" stroke="midnightblue" d="M188.739,-224.419C190.472,-215.399 193.013,-200.77 194,-188 196.798,-151.811 194.454,-109.37 192.634,-85.5897"/>
<polygon fill="midnightblue" stroke="midnightblue" points="196.114,-85.204 191.807,-75.5242 189.137,-85.7772 196.114,-85.204"/>
</g>
<!-- Node7 -->
<g id="node7" class="node"><title>Node7</title>
<polygon fill="white" stroke="#bfbfbf" points="241.5,-168.5 241.5,-187.5 284.5,-187.5 284.5,-168.5 241.5,-168.5"/>
<text text-anchor="middle" x="263" y="-175.5" font-family="Helvetica,sans-Serif" font-size="10.00">deque</text>
</g>
<!-- Node2&#45;&gt;Node7 -->
<g id="edge6" class="edge"><title>Node2&#45;&gt;Node7</title>
<path fill="none" stroke="midnightblue" d="M199.211,-224.324C210.776,-216.107 228.375,-203.602 242.161,-193.807"/>
<polygon fill="midnightblue" stroke="midnightblue" points="244.443,-196.479 250.567,-187.834 240.388,-190.773 244.443,-196.479"/>
</g>
<!-- Node9 -->
<g id="node9" class="node"><title>Node9</title>
<g id="a_node9"><a xlink:href="NonCopyable_8h.html" target="_top" xlink:title="common/NonCopyable.h">
<polygon fill="white" stroke="black" points="340.5,-168.5 340.5,-187.5 465.5,-187.5 465.5,-168.5 340.5,-168.5"/>
<text text-anchor="middle" x="403" y="-175.5" font-family="Helvetica,sans-Serif" font-size="10.00">common/NonCopyable.h</text>
</a>
</g>
</g>
<!-- Node8&#45;&gt;Node9 -->
<g id="edge8" class="edge"><title>Node8&#45;&gt;Node9</title>
<path fill="none" stroke="midnightblue" d="M509.876,-224.444C488.976,-215.557 456.065,-201.563 432.284,-191.451"/>
<polygon fill="midnightblue" stroke="midnightblue" points="433.602,-188.208 423.029,-187.516 430.862,-194.65 433.602,-188.208"/>
</g>
<!-- Node10 -->
<g id="node10" class="node"><title>Node10</title>
<g id="a_node10"><a xlink:href="Math_8h.html" target="_top" xlink:title="common/Math.h">
<polygon fill="white" stroke="black" points="522.5,-168.5 522.5,-187.5 609.5,-187.5 609.5,-168.5 522.5,-168.5"/>
<text text-anchor="middle" x="566" y="-175.5" font-family="Helvetica,sans-Serif" font-size="10.00">common/Math.h</text>
</a>
</g>
</g>
<!-- Node8&#45;&gt;Node10 -->
<g id="edge9" class="edge"><title>Node8&#45;&gt;Node10</title>
<path fill="none" stroke="midnightblue" d="M535.945,-224.083C540.977,-216.534 548.337,-205.495 554.513,-196.23"/>
<polygon fill="midnightblue" stroke="midnightblue" points="557.531,-198.013 560.166,-187.751 551.707,-194.13 557.531,-198.013"/>
</g>
<!-- Node11 -->
<g id="node11" class="node"><title>Node11</title>
<g id="a_node11"><a xlink:href="Types_8h.html" target="_top" xlink:title="Types.h">
<polygon fill="white" stroke="black" points="263,-112.5 263,-131.5 315,-131.5 315,-112.5 263,-112.5"/>
<text text-anchor="middle" x="289" y="-119.5" font-family="Helvetica,sans-Serif" font-size="10.00">Types.h</text>
</a>
</g>
</g>
<!-- Node8&#45;&gt;Node11 -->
<g id="edge27" class="edge"><title>Node8&#45;&gt;Node11</title>
<path fill="none" stroke="midnightblue" d="M525.034,-224.313C516.498,-210.201 497.654,-182.424 474,-168 418.095,-133.909 392.843,-147.184 325.196,-132.145"/>
<polygon fill="midnightblue" stroke="midnightblue" points="325.898,-128.715 315.362,-129.827 324.292,-135.528 325.898,-128.715"/>
</g>
<!-- Node26 -->
<g id="node26" class="node"><title>Node26</title>
<polygon fill="white" stroke="#bfbfbf" points="628,-168.5 628,-187.5 674,-187.5 674,-168.5 628,-168.5"/>
<text text-anchor="middle" x="651" y="-175.5" font-family="Helvetica,sans-Serif" font-size="10.00">atomic</text>
</g>
<!-- Node8&#45;&gt;Node26 -->
<g id="edge28" class="edge"><title>Node8&#45;&gt;Node26</title>
<path fill="none" stroke="midnightblue" d="M549.173,-224.444C568.909,-215.636 599.885,-201.812 622.493,-191.722"/>
<polygon fill="midnightblue" stroke="midnightblue" points="624.211,-194.788 631.917,-187.516 621.359,-188.396 624.211,-194.788"/>
</g>
<!-- Node27 -->
<g id="node27" class="node"><title>Node27</title>
<polygon fill="white" stroke="#bfbfbf" points="692,-168.5 692,-187.5 744,-187.5 744,-168.5 692,-168.5"/>
<text text-anchor="middle" x="718" y="-175.5" font-family="Helvetica,sans-Serif" font-size="10.00">memory</text>
</g>
<!-- Node8&#45;&gt;Node27 -->
<g id="edge29" class="edge"><title>Node8&#45;&gt;Node27</title>
<path fill="none" stroke="midnightblue" d="M559.789,-224.444C592.96,-214.916 646.565,-199.519 682.043,-189.328"/>
<polygon fill="midnightblue" stroke="midnightblue" points="683.338,-192.598 691.983,-186.473 681.405,-185.87 683.338,-192.598"/>
</g>
<!-- Node10&#45;&gt;Node11 -->
<g id="edge10" class="edge"><title>Node10&#45;&gt;Node11</title>
<path fill="none" stroke="midnightblue" d="M522.101,-169.759C475.566,-161.878 399.716,-148.451 325.334,-132.182"/>
<polygon fill="midnightblue" stroke="midnightblue" points="325.847,-128.711 315.327,-129.974 324.338,-135.547 325.847,-128.711"/>
</g>
<!-- Node19 -->
<g id="node19" class="node"><title>Node19</title>
<polygon fill="white" stroke="#bfbfbf" points="333,-112.5 333,-131.5 403,-131.5 403,-112.5 333,-112.5"/>
<text text-anchor="middle" x="368" y="-119.5" font-family="Helvetica,sans-Serif" font-size="10.00">glm/glm.hpp</text>
</g>
<!-- Node10&#45;&gt;Node19 -->
<g id="edge20" class="edge"><title>Node10&#45;&gt;Node19</title>
<path fill="none" stroke="midnightblue" d="M534.626,-168.444C500.737,-159.201 446.597,-144.436 409.276,-134.257"/>
<polygon fill="midnightblue" stroke="midnightblue" points="409.795,-130.771 399.227,-131.516 407.954,-137.524 409.795,-130.771"/>
</g>
<!-- Node20 -->
<g id="node20" class="node"><title>Node20</title>
<polygon fill="white" stroke="#bfbfbf" points="421.5,-112.5 421.5,-131.5 534.5,-131.5 534.5,-112.5 421.5,-112.5"/>
<text text-anchor="middle" x="478" y="-119.5" font-family="Helvetica,sans-Serif" font-size="10.00">glm/gtc/constants.hpp</text>
</g>
<!-- Node10&#45;&gt;Node20 -->
<g id="edge21" class="edge"><title>Node10&#45;&gt;Node20</title>
<path fill="none" stroke="midnightblue" d="M551.861,-168.324C538.134,-159.9 517.064,-146.971 500.936,-137.074"/>
<polygon fill="midnightblue" stroke="midnightblue" points="502.457,-133.902 492.104,-131.655 498.796,-139.868 502.457,-133.902"/>
</g>
<!-- Node21 -->
<g id="node21" class="node"><title>Node21</title>
<polygon fill="white" stroke="#bfbfbf" points="552.5,-112.5 552.5,-131.5 653.5,-131.5 653.5,-112.5 552.5,-112.5"/>
<text text-anchor="middle" x="603" y="-119.5" font-family="Helvetica,sans-Serif" font-size="10.00">glm/gtc/epsilon.hpp</text>
</g>
<!-- Node10&#45;&gt;Node21 -->
<g id="edge22" class="edge"><title>Node10&#45;&gt;Node21</title>
<path fill="none" stroke="midnightblue" d="M572.11,-168.083C577.282,-160.534 584.846,-149.495 591.194,-140.23"/>
<polygon fill="midnightblue" stroke="midnightblue" points="594.239,-141.979 597.004,-131.751 588.464,-138.022 594.239,-141.979"/>
</g>
<!-- Node22 -->
<g id="node22" class="node"><title>Node22</title>
<polygon fill="white" stroke="#bfbfbf" points="671.5,-112.5 671.5,-131.5 796.5,-131.5 796.5,-112.5 671.5,-112.5"/>
<text text-anchor="middle" x="734" y="-119.5" font-family="Helvetica,sans-Serif" font-size="10.00">glm/gtx/compatibility.hpp</text>
</g>
<!-- Node10&#45;&gt;Node22 -->
<g id="edge23" class="edge"><title>Node10&#45;&gt;Node22</title>
<path fill="none" stroke="midnightblue" d="M592.62,-168.444C621.006,-159.32 666.137,-144.813 697.753,-134.651"/>
<polygon fill="midnightblue" stroke="midnightblue" points="699.055,-137.909 707.504,-131.516 696.913,-131.244 699.055,-137.909"/>
</g>
<!-- Node23 -->
<g id="node23" class="node"><title>Node23</title>
<polygon fill="white" stroke="#bfbfbf" points="815,-112.5 815,-131.5 907,-131.5 907,-112.5 815,-112.5"/>
<text text-anchor="middle" x="861" y="-119.5" font-family="Helvetica,sans-Serif" font-size="10.00">glm/gtx/norm.hpp</text>
</g>
<!-- Node10&#45;&gt;Node23 -->
<g id="edge24" class="edge"><title>Node10&#45;&gt;Node23</title>
<path fill="none" stroke="midnightblue" d="M609.528,-169.032C661.388,-159.539 748.136,-143.66 804.962,-133.258"/>
<polygon fill="midnightblue" stroke="midnightblue" points="805.654,-136.689 814.861,-131.446 804.394,-129.804 805.654,-136.689"/>
</g>
<!-- Node24 -->
<g id="node24" class="node"><title>Node24</title>
<polygon fill="white" stroke="#bfbfbf" points="925,-112.5 925,-131.5 965,-131.5 965,-112.5 925,-112.5"/>
<text text-anchor="middle" x="945" y="-119.5" font-family="Helvetica,sans-Serif" font-size="10.00">limits</text>
</g>
<!-- Node10&#45;&gt;Node24 -->
<g id="edge25" class="edge"><title>Node10&#45;&gt;Node24</title>
<path fill="none" stroke="midnightblue" d="M609.647,-169.419C612.809,-168.922 615.952,-168.443 619,-168 747.37,-149.332 784.191,-159.302 914.853,-131.894"/>
<polygon fill="midnightblue" stroke="midnightblue" points="915.791,-135.273 924.842,-129.766 914.332,-128.427 915.791,-135.273"/>
</g>
<!-- Node25 -->
<g id="node25" class="node"><title>Node25</title>
<polygon fill="white" stroke="#bfbfbf" points="983.5,-112.5 983.5,-131.5 1030.5,-131.5 1030.5,-112.5 983.5,-112.5"/>
<text text-anchor="middle" x="1007" y="-119.5" font-family="Helvetica,sans-Serif" font-size="10.00">math.h</text>
</g>
<!-- Node10&#45;&gt;Node25 -->
<g id="edge26" class="edge"><title>Node10&#45;&gt;Node25</title>
<path fill="none" stroke="midnightblue" d="M609.637,-169.351C612.802,-168.87 615.948,-168.413 619,-168 772.929,-147.15 816.312,-160.393 973.303,-131.813"/>
<polygon fill="midnightblue" stroke="midnightblue" points="974.118,-135.222 983.315,-129.963 972.846,-128.339 974.118,-135.222"/>
</g>
<!-- Node11&#45;&gt;Node6 -->
<g id="edge15" class="edge"><title>Node11&#45;&gt;Node6</title>
<path fill="none" stroke="midnightblue" d="M273.255,-112.324C257.681,-103.743 233.623,-90.486 215.541,-80.5224"/>
<polygon fill="midnightblue" stroke="midnightblue" points="217.154,-77.4152 206.706,-75.6545 213.776,-83.546 217.154,-77.4152"/>
</g>
<!-- Node12 -->
<g id="node12" class="node"><title>Node12</title>
<g id="a_node12"><a xlink:href="Log_8h.html" target="_top" xlink:title="Log.h">
<polygon fill="white" stroke="black" points="268.5,-56.5 268.5,-75.5 309.5,-75.5 309.5,-56.5 268.5,-56.5"/>
<text text-anchor="middle" x="289" y="-63.5" font-family="Helvetica,sans-Serif" font-size="10.00">Log.h</text>
</a>
</g>
</g>
<!-- Node11&#45;&gt;Node12 -->
<g id="edge11" class="edge"><title>Node11&#45;&gt;Node12</title>
<path fill="none" stroke="midnightblue" d="M289,-112.083C289,-105.006 289,-94.8611 289,-85.9865"/>
<polygon fill="midnightblue" stroke="midnightblue" points="292.5,-85.751 289,-75.7511 285.5,-85.7511 292.5,-85.751"/>
</g>
<!-- Node13 -->
<g id="node13" class="node"><title>Node13</title>
<polygon fill="white" stroke="#bfbfbf" points="208,-0.5 208,-19.5 254,-19.5 254,-0.5 208,-0.5"/>
<text text-anchor="middle" x="231" y="-7.5" font-family="Helvetica,sans-Serif" font-size="10.00">stdio.h</text>
</g>
<!-- Node11&#45;&gt;Node13 -->
<g id="edge18" class="edge"><title>Node11&#45;&gt;Node13</title>
<path fill="none" stroke="midnightblue" d="M282.81,-112.279C276.637,-103.387 267.078,-89.0784 260,-76 251.647,-60.5648 243.636,-42.2489 238.159,-28.9999"/>
<polygon fill="midnightblue" stroke="midnightblue" points="241.353,-27.5639 234.351,-19.6127 234.866,-30.195 241.353,-27.5639"/>
</g>
<!-- Node16 -->
<g id="node16" class="node"><title>Node16</title>
<polygon fill="white" stroke="#bfbfbf" points="327.5,-56.5 327.5,-75.5 410.5,-75.5 410.5,-56.5 327.5,-56.5"/>
<text text-anchor="middle" x="369" y="-63.5" font-family="Helvetica,sans-Serif" font-size="10.00">unordered_map</text>
</g>
<!-- Node11&#45;&gt;Node16 -->
<g id="edge16" class="edge"><title>Node11&#45;&gt;Node16</title>
<path fill="none" stroke="midnightblue" d="M301.853,-112.324C314.216,-103.979 333.13,-91.2122 347.737,-81.3524"/>
<polygon fill="midnightblue" stroke="midnightblue" points="349.848,-84.1503 356.179,-75.6545 345.932,-78.3483 349.848,-84.1503"/>
</g>
<!-- Node17 -->
<g id="node17" class="node"><title>Node17</title>
<polygon fill="white" stroke="#bfbfbf" points="429,-56.5 429,-75.5 481,-75.5 481,-56.5 429,-56.5"/>
<text text-anchor="middle" x="455" y="-63.5" font-family="Helvetica,sans-Serif" font-size="10.00">assert.h</text>
</g>
<!-- Node11&#45;&gt;Node17 -->
<g id="edge17" class="edge"><title>Node11&#45;&gt;Node17</title>
<path fill="none" stroke="midnightblue" d="M315.303,-112.444C343.351,-103.32 387.944,-88.8133 419.184,-78.6509"/>
<polygon fill="midnightblue" stroke="midnightblue" points="420.393,-81.9383 428.82,-75.5164 418.228,-75.2816 420.393,-81.9383"/>
</g>
<!-- Node18 -->
<g id="node18" class="node"><title>Node18</title>
<polygon fill="white" stroke="#bfbfbf" points="499.5,-56.5 499.5,-75.5 558.5,-75.5 558.5,-56.5 499.5,-56.5"/>
<text text-anchor="middle" x="529" y="-63.5" font-family="Helvetica,sans-Serif" font-size="10.00">inttypes.h</text>
</g>
<!-- Node11&#45;&gt;Node18 -->
<g id="edge19" class="edge"><title>Node11&#45;&gt;Node18</title>
<path fill="none" stroke="midnightblue" d="M315.347,-114.11C318.263,-113.382 321.192,-112.665 324,-112 394.446,-95.3103 414.69,-92.6867 489.317,-76.1238"/>
<polygon fill="midnightblue" stroke="midnightblue" points="490.2,-79.5128 499.199,-73.9199 488.677,-72.6807 490.2,-79.5128"/>
</g>
<!-- Node12&#45;&gt;Node13 -->
<g id="edge12" class="edge"><title>Node12&#45;&gt;Node13</title>
<path fill="none" stroke="midnightblue" d="M279.681,-56.324C271.107,-48.3414 258.188,-36.3128 247.812,-26.6529"/>
<polygon fill="midnightblue" stroke="midnightblue" points="250.192,-24.0865 240.488,-19.8339 245.422,-29.2098 250.192,-24.0865"/>
</g>
<!-- Node14 -->
<g id="node14" class="node"><title>Node14</title>
<polygon fill="white" stroke="#bfbfbf" points="272,-0.5 272,-19.5 324,-19.5 324,-0.5 272,-0.5"/>
<text text-anchor="middle" x="298" y="-7.5" font-family="Helvetica,sans-Serif" font-size="10.00">stdarg.h</text>
</g>
<!-- Node12&#45;&gt;Node14 -->
<g id="edge13" class="edge"><title>Node12&#45;&gt;Node14</title>
<path fill="none" stroke="midnightblue" d="M290.486,-56.083C291.679,-48.9272 293.394,-38.6353 294.885,-29.6911"/>
<polygon fill="midnightblue" stroke="midnightblue" points="298.35,-30.1904 296.541,-19.7511 291.445,-29.0396 298.35,-30.1904"/>
</g>
<!-- Node15 -->
<g id="node15" class="node"><title>Node15</title>
<polygon fill="white" stroke="#bfbfbf" points="342.5,-0.5 342.5,-19.5 391.5,-19.5 391.5,-0.5 342.5,-0.5"/>
<text text-anchor="middle" x="367" y="-7.5" font-family="Helvetica,sans-Serif" font-size="10.00">string.h</text>
</g>
<!-- Node12&#45;&gt;Node15 -->
<g id="edge14" class="edge"><title>Node12&#45;&gt;Node15</title>
<path fill="none" stroke="midnightblue" d="M301.532,-56.324C313.586,-47.979 332.027,-35.2122 346.269,-25.3524"/>
<polygon fill="midnightblue" stroke="midnightblue" points="348.269,-28.2243 354.499,-19.6545 344.285,-22.469 348.269,-28.2243"/>
</g>
</g>
</svg>
