<?xml version="1.0" encoding="UTF-8" standalone="no"?>
<!DOCTYPE svg PUBLIC "-//W3C//DTD SVG 1.1//EN"
 "http://www.w3.org/Graphics/SVG/1.1/DTD/svg11.dtd">
<!-- Generated by graphviz version 2.36.0 (20140111.2315)
 -->
<!-- Title: /home/travis/build/mgerhardy/simpleai/src/ai/server/AISelectMessage.h Pages: 1 -->
<svg width="1059pt" height="330pt"
 viewBox="0.00 0.00 1059.00 330.00" xmlns="http://www.w3.org/2000/svg" xmlns:xlink="http://www.w3.org/1999/xlink">
<g id="graph0" class="graph" transform="scale(1 1) rotate(0) translate(4 326)">
<title>/home/travis/build/mgerhardy/simpleai/src/ai/server/AISelectMessage.h</title>
<polygon fill="white" stroke="none" points="-4,4 -4,-326 1055,-326 1055,4 -4,4"/>
<!-- Node1 -->
<g id="node1" class="node"><title>Node1</title>
<polygon fill="#bfbfbf" stroke="black" points="300,-280.5 300,-321.5 462,-321.5 462,-280.5 300,-280.5"/>
<text text-anchor="start" x="308" y="-309.5" font-family="Helvetica,sans-Serif" font-size="10.00">/home/travis/build</text>
<text text-anchor="start" x="308" y="-298.5" font-family="Helvetica,sans-Serif" font-size="10.00">/mgerhardy/simpleai</text>
<text text-anchor="middle" x="381" y="-287.5" font-family="Helvetica,sans-Serif" font-size="10.00">/src/ai/server/AISelectMessage.h</text>
</g>
<!-- Node2 -->
<g id="node2" class="node"><title>Node2</title>
<g id="a_node2"><a xlink:href="IProtocolMessage_8h.html" target="_top" xlink:title="IProtocolMessage.h">
<polygon fill="white" stroke="black" points="135,-224.5 135,-243.5 239,-243.5 239,-224.5 135,-224.5"/>
<text text-anchor="middle" x="187" y="-231.5" font-family="Helvetica,sans-Serif" font-size="10.00">IProtocolMessage.h</text>
</a>
</g>
</g>
<!-- Node1&#45;&gt;Node2 -->
<g id="edge1" class="edge"><title>Node1&#45;&gt;Node2</title>
<path fill="none" stroke="midnightblue" d="M322.794,-280.498C290.09,-269.541 250.343,-256.223 222.326,-246.836"/>
<polygon fill="midnightblue" stroke="midnightblue" points="223.163,-243.425 212.569,-243.567 220.939,-250.063 223.163,-243.425"/>
</g>
<!-- Node8 -->
<g id="node8" class="node"><title>Node8</title>
<g id="a_node8"><a xlink:href="ICharacter_8h.html" target="_top" xlink:title="ICharacter.h">
<polygon fill="white" stroke="black" points="504.5,-224.5 504.5,-243.5 575.5,-243.5 575.5,-224.5 504.5,-224.5"/>
<text text-anchor="middle" x="540" y="-231.5" font-family="Helvetica,sans-Serif" font-size="10.00">ICharacter.h</text>
</a>
</g>
</g>
<!-- Node1&#45;&gt;Node8 -->
<g id="edge7" class="edge"><title>Node1&#45;&gt;Node8</title>
<path fill="none" stroke="midnightblue" d="M428.705,-280.498C454.841,-269.813 486.466,-256.885 509.314,-247.545"/>
<polygon fill="midnightblue" stroke="midnightblue" points="510.903,-250.676 518.835,-243.652 508.254,-244.197 510.903,-250.676"/>
</g>
<!-- Node3 -->
<g id="node3" class="node"><title>Node3</title>
<polygon fill="white" stroke="#bfbfbf" points="-0.5,-168.5 -0.5,-187.5 48.5,-187.5 48.5,-168.5 -0.5,-168.5"/>
<text text-anchor="middle" x="24" y="-175.5" font-family="Helvetica,sans-Serif" font-size="10.00">stdint.h</text>
</g>
<!-- Node2&#45;&gt;Node3 -->
<g id="edge2" class="edge"><title>Node2&#45;&gt;Node3</title>
<path fill="none" stroke="midnightblue" d="M161.172,-224.444C133.428,-215.252 89.1961,-200.599 58.4911,-190.426"/>
<polygon fill="midnightblue" stroke="midnightblue" points="59.2334,-186.985 48.64,-187.163 57.0319,-193.63 59.2334,-186.985"/>
</g>
<!-- Node4 -->
<g id="node4" class="node"><title>Node4</title>
<polygon fill="white" stroke="#bfbfbf" points="67,-168.5 67,-187.5 119,-187.5 119,-168.5 67,-168.5"/>
<text text-anchor="middle" x="93" y="-175.5" font-family="Helvetica,sans-Serif" font-size="10.00">stddef.h</text>
</g>
<!-- Node2&#45;&gt;Node4 -->
<g id="edge3" class="edge"><title>Node2&#45;&gt;Node4</title>
<path fill="none" stroke="midnightblue" d="M171.897,-224.324C157.097,-215.822 134.306,-202.729 117.018,-192.797"/>
<polygon fill="midnightblue" stroke="midnightblue" points="118.48,-189.601 108.065,-187.655 114.993,-195.671 118.48,-189.601"/>
</g>
<!-- Node5 -->
<g id="node5" class="node"><title>Node5</title>
<polygon fill="white" stroke="#bfbfbf" points="137,-168.5 137,-187.5 185,-187.5 185,-168.5 137,-168.5"/>
<text text-anchor="middle" x="161" y="-175.5" font-family="Helvetica,sans-Serif" font-size="10.00">limits.h</text>
</g>
<!-- Node2&#45;&gt;Node5 -->
<g id="edge4" class="edge"><title>Node2&#45;&gt;Node5</title>
<path fill="none" stroke="midnightblue" d="M182.707,-224.083C179.148,-216.691 173.978,-205.953 169.576,-196.811"/>
<polygon fill="midnightblue" stroke="midnightblue" points="172.705,-195.243 165.213,-187.751 166.398,-198.279 172.705,-195.243"/>
</g>
<!-- Node6 -->
<g id="node6" class="node"><title>Node6</title>
<polygon fill="white" stroke="#bfbfbf" points="190.5,-56.5 190.5,-75.5 231.5,-75.5 231.5,-56.5 190.5,-56.5"/>
<text text-anchor="middle" x="211" y="-63.5" font-family="Helvetica,sans-Serif" font-size="10.00">string</text>
</g>
<!-- Node2&#45;&gt;Node6 -->
<g id="edge5" class="edge"><title>Node2&#45;&gt;Node6</title>
<path fill="none" stroke="midnightblue" d="M188.38,-224.379C189.82,-215.325 192.125,-200.67 194,-188 199.365,-151.752 205.23,-109.332 208.477,-85.5712"/>
<polygon fill="midnightblue" stroke="midnightblue" points="211.965,-85.8958 209.848,-75.5148 205.029,-84.9506 211.965,-85.8958"/>
</g>
<!-- Node7 -->
<g id="node7" class="node"><title>Node7</title>
<polygon fill="white" stroke="#bfbfbf" points="241.5,-168.5 241.5,-187.5 284.5,-187.5 284.5,-168.5 241.5,-168.5"/>
<text text-anchor="middle" x="263" y="-175.5" font-family="Helvetica,sans-Serif" font-size="10.00">deque</text>
</g>
<!-- Node2&#45;&gt;Node7 -->
<g id="edge6" class="edge"><title>Node2&#45;&gt;Node7</title>
<path fill="none" stroke="midnightblue" d="M199.211,-224.324C210.776,-216.107 228.375,-203.602 242.161,-193.807"/>
<polygon fill="midnightblue" stroke="midnightblue" points="244.443,-196.479 250.567,-187.834 240.388,-190.773 244.443,-196.479"/>
</g>
<!-- Node9 -->
<g id="node9" class="node"><title>Node9</title>
<g id="a_node9"><a xlink:href="NonCopyable_8h.html" target="_top" xlink:title="common/NonCopyable.h">
<polygon fill="white" stroke="black" points="350.5,-168.5 350.5,-187.5 475.5,-187.5 475.5,-168.5 350.5,-168.5"/>
<text text-anchor="middle" x="413" y="-175.5" font-family="Helvetica,sans-Serif" font-size="10.00">common/NonCopyable.h</text>
</a>
</g>
</g>
<!-- Node8&#45;&gt;Node9 -->
<g id="edge8" class="edge"><title>Node8&#45;&gt;Node9</title>
<path fill="none" stroke="midnightblue" d="M519.876,-224.444C498.976,-215.557 466.065,-201.563 442.284,-191.451"/>
<polygon fill="midnightblue" stroke="midnightblue" points="443.602,-188.208 433.029,-187.516 440.862,-194.65 443.602,-188.208"/>
</g>
<!-- Node10 -->
<g id="node10" class="node"><title>Node10</title>
<g id="a_node10"><a xlink:href="Math_8h.html" target="_top" xlink:title="common/Math.h">
<polygon fill="white" stroke="black" points="532.5,-168.5 532.5,-187.5 619.5,-187.5 619.5,-168.5 532.5,-168.5"/>
<text text-anchor="middle" x="576" y="-175.5" font-family="Helvetica,sans-Serif" font-size="10.00">common/Math.h</text>
</a>
</g>
</g>
<!-- Node8&#45;&gt;Node10 -->
<g id="edge9" class="edge"><title>Node8&#45;&gt;Node10</title>
<path fill="none" stroke="midnightblue" d="M545.945,-224.083C550.977,-216.534 558.337,-205.495 564.513,-196.23"/>
<polygon fill="midnightblue" stroke="midnightblue" points="567.531,-198.013 570.166,-187.751 561.707,-194.13 567.531,-198.013"/>
</g>
<!-- Node11 -->
<g id="node11" class="node"><title>Node11</title>
<g id="a_node11"><a xlink:href="Types_8h.html" target="_top" xlink:title="Types.h">
<polygon fill="white" stroke="black" points="284,-112.5 284,-131.5 336,-131.5 336,-112.5 284,-112.5"/>
<text text-anchor="middle" x="310" y="-119.5" font-family="Helvetica,sans-Serif" font-size="10.00">Types.h</text>
</a>
</g>
</g>
<!-- Node8&#45;&gt;Node11 -->
<g id="edge26" class="edge"><title>Node8&#45;&gt;Node11</title>
<path fill="none" stroke="midnightblue" d="M535.006,-224.36C526.428,-210.314 507.527,-182.631 484,-168 483.626,-167.768 397.22,-145.477 346.327,-132.36"/>
<polygon fill="midnightblue" stroke="midnightblue" points="346.911,-128.896 336.354,-129.789 345.164,-135.674 346.911,-128.896"/>
</g>
<!-- Node26 -->
<g id="node26" class="node"><title>Node26</title>
<polygon fill="white" stroke="#bfbfbf" points="638,-168.5 638,-187.5 684,-187.5 684,-168.5 638,-168.5"/>
<text text-anchor="middle" x="661" y="-175.5" font-family="Helvetica,sans-Serif" font-size="10.00">atomic</text>
</g>
<!-- Node8&#45;&gt;Node26 -->
<g id="edge27" class="edge"><title>Node8&#45;&gt;Node26</title>
<path fill="none" stroke="midnightblue" d="M559.173,-224.444C578.909,-215.636 609.885,-201.812 632.493,-191.722"/>
<polygon fill="midnightblue" stroke="midnightblue" points="634.211,-194.788 641.917,-187.516 631.359,-188.396 634.211,-194.788"/>
</g>
<!-- Node27 -->
<g id="node27" class="node"><title>Node27</title>
<polygon fill="white" stroke="#bfbfbf" points="702,-168.5 702,-187.5 754,-187.5 754,-168.5 702,-168.5"/>
<text text-anchor="middle" x="728" y="-175.5" font-family="Helvetica,sans-Serif" font-size="10.00">memory</text>
</g>
<!-- Node8&#45;&gt;Node27 -->
<g id="edge28" class="edge"><title>Node8&#45;&gt;Node27</title>
<path fill="none" stroke="midnightblue" d="M569.789,-224.444C602.96,-214.916 656.565,-199.519 692.043,-189.328"/>
<polygon fill="midnightblue" stroke="midnightblue" points="693.338,-192.598 701.983,-186.473 691.405,-185.87 693.338,-192.598"/>
</g>
<!-- Node10&#45;&gt;Node11 -->
<g id="edge10" class="edge"><title>Node10&#45;&gt;Node11</title>
<path fill="none" stroke="midnightblue" d="M532.413,-169.305C487.942,-161.277 416.722,-147.934 346.266,-132.187"/>
<polygon fill="midnightblue" stroke="midnightblue" points="346.857,-128.733 336.333,-129.95 345.319,-135.562 346.857,-128.733"/>
</g>
<!-- Node19 -->
<g id="node19" class="node"><title>Node19</title>
<polygon fill="white" stroke="#bfbfbf" points="354,-112.5 354,-131.5 424,-131.5 424,-112.5 354,-112.5"/>
<text text-anchor="middle" x="389" y="-119.5" font-family="Helvetica,sans-Serif" font-size="10.00">glm/glm.hpp</text>
</g>
<!-- Node10&#45;&gt;Node19 -->
<g id="edge19" class="edge"><title>Node10&#45;&gt;Node19</title>
<path fill="none" stroke="midnightblue" d="M546.369,-168.444C514.5,-159.241 463.667,-144.562 428.436,-134.388"/>
<polygon fill="midnightblue" stroke="midnightblue" points="429.071,-130.928 418.492,-131.516 427.128,-137.653 429.071,-130.928"/>
</g>
<!-- Node20 -->
<g id="node20" class="node"><title>Node20</title>
<polygon fill="white" stroke="#bfbfbf" points="442.5,-112.5 442.5,-131.5 555.5,-131.5 555.5,-112.5 442.5,-112.5"/>
<text text-anchor="middle" x="499" y="-119.5" font-family="Helvetica,sans-Serif" font-size="10.00">glm/gtc/constants.hpp</text>
</g>
<!-- Node10&#45;&gt;Node20 -->
<g id="edge20" class="edge"><title>Node10&#45;&gt;Node20</title>
<path fill="none" stroke="midnightblue" d="M563.629,-168.324C551.842,-160.058 533.868,-147.453 519.864,-137.632"/>
<polygon fill="midnightblue" stroke="midnightblue" points="521.538,-134.531 511.341,-131.655 517.518,-140.262 521.538,-134.531"/>
</g>
<!-- Node21 -->
<g id="node21" class="node"><title>Node21</title>
<polygon fill="white" stroke="#bfbfbf" points="573.5,-112.5 573.5,-131.5 674.5,-131.5 674.5,-112.5 573.5,-112.5"/>
<text text-anchor="middle" x="624" y="-119.5" font-family="Helvetica,sans-Serif" font-size="10.00">glm/gtc/epsilon.hpp</text>
</g>
<!-- Node10&#45;&gt;Node21 -->
<g id="edge21" class="edge"><title>Node10&#45;&gt;Node21</title>
<path fill="none" stroke="midnightblue" d="M583.926,-168.083C590.846,-160.298 601.065,-148.801 609.452,-139.367"/>
<polygon fill="midnightblue" stroke="midnightblue" points="612.194,-141.55 616.221,-131.751 606.962,-136.9 612.194,-141.55"/>
</g>
<!-- Node22 -->
<g id="node22" class="node"><title>Node22</title>
<polygon fill="white" stroke="#bfbfbf" points="692.5,-112.5 692.5,-131.5 817.5,-131.5 817.5,-112.5 692.5,-112.5"/>
<text text-anchor="middle" x="755" y="-119.5" font-family="Helvetica,sans-Serif" font-size="10.00">glm/gtx/compatibility.hpp</text>
</g>
<!-- Node10&#45;&gt;Node22 -->
<g id="edge22" class="edge"><title>Node10&#45;&gt;Node22</title>
<path fill="none" stroke="midnightblue" d="M604.363,-168.444C634.738,-159.28 683.11,-144.688 716.816,-134.519"/>
<polygon fill="midnightblue" stroke="midnightblue" points="718.207,-137.756 726.77,-131.516 716.185,-131.054 718.207,-137.756"/>
</g>
<!-- Node23 -->
<g id="node23" class="node"><title>Node23</title>
<polygon fill="white" stroke="#bfbfbf" points="836,-112.5 836,-131.5 928,-131.5 928,-112.5 836,-112.5"/>
<text text-anchor="middle" x="882" y="-119.5" font-family="Helvetica,sans-Serif" font-size="10.00">glm/gtx/norm.hpp</text>
</g>
<!-- Node10&#45;&gt;Node23 -->
<g id="edge23" class="edge"><title>Node10&#45;&gt;Node23</title>
<path fill="none" stroke="midnightblue" d="M619.517,-169.32C673.72,-159.755 766.42,-143.397 825.905,-132.899"/>
<polygon fill="midnightblue" stroke="midnightblue" points="826.642,-136.323 835.882,-131.139 825.426,-129.43 826.642,-136.323"/>
</g>
<!-- Node24 -->
<g id="node24" class="node"><title>Node24</title>
<polygon fill="white" stroke="#bfbfbf" points="946,-112.5 946,-131.5 986,-131.5 986,-112.5 946,-112.5"/>
<text text-anchor="middle" x="966" y="-119.5" font-family="Helvetica,sans-Serif" font-size="10.00">limits</text>
</g>
<!-- Node10&#45;&gt;Node24 -->
<g id="edge24" class="edge"><title>Node10&#45;&gt;Node24</title>
<path fill="none" stroke="midnightblue" d="M619.645,-169.404C622.808,-168.91 625.951,-168.437 629,-168 762.231,-148.915 800.391,-159.997 935.916,-131.871"/>
<polygon fill="midnightblue" stroke="midnightblue" points="936.782,-135.265 945.844,-129.777 935.337,-128.416 936.782,-135.265"/>
</g>
<!-- Node25 -->
<g id="node25" class="node"><title>Node25</title>
<polygon fill="white" stroke="#bfbfbf" points="1004.5,-112.5 1004.5,-131.5 1051.5,-131.5 1051.5,-112.5 1004.5,-112.5"/>
<text text-anchor="middle" x="1028" y="-119.5" font-family="Helvetica,sans-Serif" font-size="10.00">math.h</text>
</g>
<!-- Node10&#45;&gt;Node25 -->
<g id="edge25" class="edge"><title>Node10&#45;&gt;Node25</title>
<path fill="none" stroke="midnightblue" d="M619.636,-169.341C622.801,-168.862 625.947,-168.409 629,-168 787.683,-146.749 832.429,-160.996 994.012,-131.859"/>
<polygon fill="midnightblue" stroke="midnightblue" points="995.111,-135.216 1004.32,-129.971 993.85,-128.331 995.111,-135.216"/>
</g>
<!-- Node11&#45;&gt;Node6 -->
<g id="edge15" class="edge"><title>Node11&#45;&gt;Node6</title>
<path fill="none" stroke="midnightblue" d="M294.094,-112.324C278.362,-103.743 254.058,-90.486 235.791,-80.5224"/>
<polygon fill="midnightblue" stroke="midnightblue" points="237.322,-77.3704 226.867,-75.6545 233.97,-83.5157 237.322,-77.3704"/>
</g>
<!-- Node12 -->
<g id="node12" class="node"><title>Node12</title>
<g id="a_node12"><a xlink:href="Log_8h.html" target="_top" xlink:title="Log.h">
<polygon fill="white" stroke="black" points="249.5,-56.5 249.5,-75.5 290.5,-75.5 290.5,-56.5 249.5,-56.5"/>
<text text-anchor="middle" x="270" y="-63.5" font-family="Helvetica,sans-Serif" font-size="10.00">Log.h</text>
</a>
</g>
</g>
<!-- Node11&#45;&gt;Node12 -->
<g id="edge11" class="edge"><title>Node11&#45;&gt;Node12</title>
<path fill="none" stroke="midnightblue" d="M303.395,-112.083C297.745,-104.455 289.455,-93.2645 282.549,-83.9408"/>
<polygon fill="midnightblue" stroke="midnightblue" points="285.247,-81.7034 276.482,-75.7511 279.622,-85.87 285.247,-81.7034"/>
</g>
<!-- Node16 -->
<g id="node16" class="node"><title>Node16</title>
<polygon fill="white" stroke="#bfbfbf" points="308.5,-56.5 308.5,-75.5 391.5,-75.5 391.5,-56.5 308.5,-56.5"/>
<text text-anchor="middle" x="350" y="-63.5" font-family="Helvetica,sans-Serif" font-size="10.00">unordered_map</text>
</g>
<!-- Node11&#45;&gt;Node16 -->
<g id="edge16" class="edge"><title>Node11&#45;&gt;Node16</title>
<path fill="none" stroke="midnightblue" d="M316.605,-112.083C322.255,-104.455 330.545,-93.2645 337.451,-83.9408"/>
<polygon fill="midnightblue" stroke="midnightblue" points="340.378,-85.87 343.518,-75.7511 334.753,-81.7034 340.378,-85.87"/>
</g>
<!-- Node17 -->
<g id="node17" class="node"><title>Node17</title>
<polygon fill="white" stroke="#bfbfbf" points="409.5,-56.5 409.5,-75.5 458.5,-75.5 458.5,-56.5 409.5,-56.5"/>
<text text-anchor="middle" x="434" y="-63.5" font-family="Helvetica,sans-Serif" font-size="10.00">cassert</text>
</g>
<!-- Node11&#45;&gt;Node17 -->
<g id="edge17" class="edge"><title>Node11&#45;&gt;Node17</title>
<path fill="none" stroke="midnightblue" d="M329.648,-112.444C349.965,-103.596 381.903,-89.6875 405.098,-79.5865"/>
<polygon fill="midnightblue" stroke="midnightblue" points="406.673,-82.7181 414.444,-75.5164 403.878,-76.3002 406.673,-82.7181"/>
</g>
<!-- Node18 -->
<g id="node18" class="node"><title>Node18</title>
<polygon fill="white" stroke="#bfbfbf" points="476.5,-56.5 476.5,-75.5 519.5,-75.5 519.5,-56.5 476.5,-56.5"/>
<text text-anchor="middle" x="498" y="-63.5" font-family="Helvetica,sans-Serif" font-size="10.00">cstdio</text>
</g>
<!-- Node11&#45;&gt;Node18 -->
<g id="edge18" class="edge"><title>Node11&#45;&gt;Node18</title>
<path fill="none" stroke="midnightblue" d="M336.121,-113.543C365.458,-105.16 414.746,-91.0592 466.612,-76.1047"/>
<polygon fill="midnightblue" stroke="midnightblue" points="467.684,-79.4382 476.323,-73.3037 465.744,-72.7125 467.684,-79.4382"/>
</g>
<!-- Node13 -->
<g id="node13" class="node"><title>Node13</title>
<polygon fill="white" stroke="#bfbfbf" points="180,-0.5 180,-19.5 226,-19.5 226,-0.5 180,-0.5"/>
<text text-anchor="middle" x="203" y="-7.5" font-family="Helvetica,sans-Serif" font-size="10.00">stdio.h</text>
</g>
<!-- Node12&#45;&gt;Node13 -->
<g id="edge12" class="edge"><title>Node12&#45;&gt;Node13</title>
<path fill="none" stroke="midnightblue" d="M259.235,-56.324C249.234,-48.2631 234.113,-36.0765 222.07,-26.3695"/>
<polygon fill="midnightblue" stroke="midnightblue" points="223.943,-23.3841 213.961,-19.8339 219.55,-28.8343 223.943,-23.3841"/>
</g>
<!-- Node14 -->
<g id="node14" class="node"><title>Node14</title>
<polygon fill="white" stroke="#bfbfbf" points="244,-0.5 244,-19.5 296,-19.5 296,-0.5 244,-0.5"/>
<text text-anchor="middle" x="270" y="-7.5" font-family="Helvetica,sans-Serif" font-size="10.00">stdarg.h</text>
</g>
<!-- Node12&#45;&gt;Node14 -->
<g id="edge13" class="edge"><title>Node12&#45;&gt;Node14</title>
<path fill="none" stroke="midnightblue" d="M270,-56.083C270,-49.0059 270,-38.8611 270,-29.9865"/>
<polygon fill="midnightblue" stroke="midnightblue" points="273.5,-29.751 270,-19.7511 266.5,-29.7511 273.5,-29.751"/>
</g>
<!-- Node15 -->
<g id="node15" class="node"><title>Node15</title>
<polygon fill="white" stroke="#bfbfbf" points="314.5,-0.5 314.5,-19.5 363.5,-19.5 363.5,-0.5 314.5,-0.5"/>
<text text-anchor="middle" x="339" y="-7.5" font-family="Helvetica,sans-Serif" font-size="10.00">string.h</text>
</g>
<!-- Node12&#45;&gt;Node15 -->
<g id="edge14" class="edge"><title>Node12&#45;&gt;Node15</title>
<path fill="none" stroke="midnightblue" d="M281.086,-56.324C291.486,-48.1849 307.261,-35.8395 319.722,-26.0874"/>
<polygon fill="midnightblue" stroke="midnightblue" points="321.994,-28.7533 327.712,-19.8339 317.68,-23.2407 321.994,-28.7533"/>
</g>
</g>
</svg>
