<?xml version="1.0" encoding="UTF-8" standalone="no"?>
<!DOCTYPE svg PUBLIC "-//W3C//DTD SVG 1.1//EN"
 "http://www.w3.org/Graphics/SVG/1.1/DTD/svg11.dtd">
<!-- Generated by graphviz version 2.36.0 (20140111.2315)
 -->
<!-- Title: /home/travis/build/mgerhardy/simpleai/src/ai/server/AIStubTypes.h Pages: 1 -->
<!--zoomable 498 -->
<svg id="main" version="1.1" xmlns="http://www.w3.org/2000/svg" xmlns:xlink="http://www.w3.org/1999/xlink" xml:space="preserve" onload="init(evt)">
<style type="text/css"><![CDATA[
.edge:hover path { stroke: red; }
.edge:hover polygon { stroke: red; fill: red; }
]]></style>
<script type="text/javascript"><![CDATA[
var edges = document.getElementsByTagName('g');
if (edges && edges.length) {
  for (var i=0;i<edges.length;i++) {
    if (edges[i].id.substr(0,4)=='edge') {
      edges[i].setAttribute('class','edge');
    }
  }
}
]]></script>
        <defs>
                <circle id="rim" cx="0" cy="0" r="7"/>
                <circle id="rim2" cx="0" cy="0" r="3.5"/>
                <g id="zoomPlus">
                        <use xlink:href="#rim" fill="#404040">
                                <set attributeName="fill" to="#808080" begin="zoomplus.mouseover" end="zoomplus.mouseout"/>
                        </use>
                        <path d="M-4,0h8M0,-4v8" fill="none" stroke="white" stroke-width="1.5" pointer-events="none"/>
                </g>
                <g id="zoomMin">
                        <use xlink:href="#rim" fill="#404040">
                                <set attributeName="fill" to="#808080" begin="zoomminus.mouseover" end="zoomminus.mouseout"/>
                        </use>
                        <path d="M-4,0h8" fill="none" stroke="white" stroke-width="1.5" pointer-events="none"/>
                </g>
                <g id="dirArrow">
                        <path fill="none" stroke="white" stroke-width="1.5" d="M0,-3.0v7 M-2.5,-0.5L0,-3.0L2.5,-0.5"/>
                </g>
               <g id="resetDef">
                       <use xlink:href="#rim2" fill="#404040">
                               <set attributeName="fill" to="#808080" begin="reset.mouseover" end="reset.mouseout"/>
                       </use>
               </g>
        </defs>

<script type="text/javascript">
var viewWidth = 1662;
var viewHeight = 498;
var sectionId = 'dynsection-0';
</script>
<script xlink:href="svgpan.js"/>
<svg id="graph" class="graph">
<g id="viewport">
<title>/home/travis/build/mgerhardy/simpleai/src/ai/server/AIStubTypes.h</title>
<polygon fill="white" stroke="none" points="-4,4 -4,-494 1658,-494 1658,4 -4,4"/>
<!-- Node1 -->
<g id="node1" class="node"><title>Node1</title>
<polygon fill="#bfbfbf" stroke="black" points="942,-448.5 942,-489.5 1084,-489.5 1084,-448.5 942,-448.5"/>
<text text-anchor="start" x="950" y="-477.5" font-family="Helvetica,sans-Serif" font-size="10.00">/home/travis/build</text>
<text text-anchor="start" x="950" y="-466.5" font-family="Helvetica,sans-Serif" font-size="10.00">/mgerhardy/simpleai</text>
<text text-anchor="middle" x="1013" y="-455.5" font-family="Helvetica,sans-Serif" font-size="10.00">/src/ai/server/AIStubTypes.h</text>
</g>
<!-- Node2 -->
<g id="node2" class="node"><title>Node2</title>
<polygon fill="white" stroke="#bfbfbf" points="1480,-112.5 1480,-131.5 1524,-131.5 1524,-112.5 1480,-112.5"/>
<text text-anchor="middle" x="1502" y="-119.5" font-family="Helvetica,sans-Serif" font-size="10.00">vector</text>
</g>
<!-- Node1&#45;&gt;Node2 -->
<g id="edge1" class="edge"><title>Node1&#45;&gt;Node2</title>
<path fill="none" stroke="midnightblue" d="M1084.24,-468.505C1243.81,-467.719 1616,-454.375 1616,-347 1616,-347 1616,-347 1616,-233 1616,-186.115 1565.45,-152.894 1531.67,-135.93"/>
<polygon fill="midnightblue" stroke="midnightblue" points="1533.17,-132.769 1522.64,-131.579 1530.13,-139.074 1533.17,-132.769"/>
</g>
<!-- Node3 -->
<g id="node3" class="node"><title>Node3</title>
<polygon fill="white" stroke="#bfbfbf" points="1422.5,-56.5 1422.5,-75.5 1463.5,-75.5 1463.5,-56.5 1422.5,-56.5"/>
<text text-anchor="middle" x="1443" y="-63.5" font-family="Helvetica,sans-Serif" font-size="10.00">string</text>
</g>
<!-- Node1&#45;&gt;Node3 -->
<g id="edge2" class="edge"><title>Node1&#45;&gt;Node3</title>
<path fill="none" stroke="midnightblue" d="M1084.14,-466.95C1217.67,-464.023 1500.27,-453.027 1588,-412 1625.29,-394.56 1654,-388.171 1654,-347 1654,-347 1654,-347 1654,-177 1654,-96.6911 1532.33,-74.9198 1473.77,-69.0923"/>
<polygon fill="midnightblue" stroke="midnightblue" points="1473.89,-65.5888 1463.62,-68.1792 1473.26,-72.5607 1473.89,-65.5888"/>
</g>
<!-- Node4 -->
<g id="node4" class="node"><title>Node4</title>
<g id="a_node4"><a xlink:href="Math_8h.html" target="_top" xlink:title="common/Math.h">
<polygon fill="white" stroke="black" points="335.5,-392.5 335.5,-411.5 422.5,-411.5 422.5,-392.5 335.5,-392.5"/>
<text text-anchor="middle" x="379" y="-399.5" font-family="Helvetica,sans-Serif" font-size="10.00">common/Math.h</text>
</a>
</g>
</g>
<!-- Node1&#45;&gt;Node4 -->
<g id="edge3" class="edge"><title>Node1&#45;&gt;Node4</title>
<path fill="none" stroke="midnightblue" d="M941.811,-460.701C813.825,-447.58 547.563,-420.282 433.156,-408.552"/>
<polygon fill="midnightblue" stroke="midnightblue" points="433.199,-405.038 422.894,-407.5 432.485,-412.002 433.199,-405.038"/>
</g>
<!-- Node5 -->
<g id="node5" class="node"><title>Node5</title>
<g id="a_node5"><a xlink:href="Types_8h.html" target="_top" xlink:title="Types.h">
<polygon fill="white" stroke="black" points="760,-112.5 760,-131.5 812,-131.5 812,-112.5 760,-112.5"/>
<text text-anchor="middle" x="786" y="-119.5" font-family="Helvetica,sans-Serif" font-size="10.00">Types.h</text>
</a>
</g>
</g>
<!-- Node1&#45;&gt;Node5 -->
<g id="edge21" class="edge"><title>Node1&#45;&gt;Node5</title>
<path fill="none" stroke="midnightblue" d="M941.98,-463.191C868.382,-453.894 764,-426.664 764,-347 764,-347 764,-347 764,-233 764,-200.328 773.447,-163.24 779.96,-141.553"/>
<polygon fill="midnightblue" stroke="midnightblue" points="783.391,-142.31 783.033,-131.721 776.709,-140.222 783.391,-142.31"/>
</g>
<!-- Node20 -->
<g id="node20" class="node"><title>Node20</title>
<g id="a_node20"><a xlink:href="TreeNode_8h.html" target="_top" xlink:title="tree/TreeNode.h">
<polygon fill="white" stroke="black" points="969.5,-392.5 969.5,-411.5 1056.5,-411.5 1056.5,-392.5 969.5,-392.5"/>
<text text-anchor="middle" x="1013" y="-399.5" font-family="Helvetica,sans-Serif" font-size="10.00">tree/TreeNode.h</text>
</a>
</g>
</g>
<!-- Node1&#45;&gt;Node20 -->
<g id="edge22" class="edge"><title>Node1&#45;&gt;Node20</title>
<path fill="none" stroke="midnightblue" d="M1013,-448.498C1013,-440.065 1013,-430.235 1013,-421.874"/>
<polygon fill="midnightblue" stroke="midnightblue" points="1016.5,-421.652 1013,-411.652 1009.5,-421.653 1016.5,-421.652"/>
</g>
<!-- Node4&#45;&gt;Node5 -->
<g id="edge4" class="edge"><title>Node4&#45;&gt;Node5</title>
<path fill="none" stroke="midnightblue" d="M422.543,-400.644C501.529,-399.108 664.139,-391.584 706,-356 729.029,-336.424 726,-321.225 726,-291 726,-291 726,-291 726,-233 726,-195.883 752.654,-159.378 770.431,-139.158"/>
<polygon fill="midnightblue" stroke="midnightblue" points="773.237,-141.276 777.403,-131.535 768.072,-136.552 773.237,-141.276"/>
</g>
<!-- Node13 -->
<g id="node13" class="node"><title>Node13</title>
<polygon fill="white" stroke="#bfbfbf" points="234,-336.5 234,-355.5 304,-355.5 304,-336.5 234,-336.5"/>
<text text-anchor="middle" x="269" y="-343.5" font-family="Helvetica,sans-Serif" font-size="10.00">glm/glm.hpp</text>
</g>
<!-- Node4&#45;&gt;Node13 -->
<g id="edge14" class="edge"><title>Node4&#45;&gt;Node13</title>
<path fill="none" stroke="midnightblue" d="M361.327,-392.324C343.606,-383.625 316.097,-370.12 295.712,-360.113"/>
<polygon fill="midnightblue" stroke="midnightblue" points="297.149,-356.919 286.63,-355.655 294.064,-363.203 297.149,-356.919"/>
</g>
<!-- Node14 -->
<g id="node14" class="node"><title>Node14</title>
<polygon fill="white" stroke="#bfbfbf" points="322.5,-336.5 322.5,-355.5 435.5,-355.5 435.5,-336.5 322.5,-336.5"/>
<text text-anchor="middle" x="379" y="-343.5" font-family="Helvetica,sans-Serif" font-size="10.00">glm/gtc/constants.hpp</text>
</g>
<!-- Node4&#45;&gt;Node14 -->
<g id="edge15" class="edge"><title>Node4&#45;&gt;Node14</title>
<path fill="none" stroke="midnightblue" d="M379,-392.083C379,-385.006 379,-374.861 379,-365.986"/>
<polygon fill="midnightblue" stroke="midnightblue" points="382.5,-365.751 379,-355.751 375.5,-365.751 382.5,-365.751"/>
</g>
<!-- Node15 -->
<g id="node15" class="node"><title>Node15</title>
<polygon fill="white" stroke="#bfbfbf" points="453.5,-336.5 453.5,-355.5 554.5,-355.5 554.5,-336.5 453.5,-336.5"/>
<text text-anchor="middle" x="504" y="-343.5" font-family="Helvetica,sans-Serif" font-size="10.00">glm/gtc/epsilon.hpp</text>
</g>
<!-- Node4&#45;&gt;Node15 -->
<g id="edge16" class="edge"><title>Node4&#45;&gt;Node15</title>
<path fill="none" stroke="midnightblue" d="M398.807,-392.444C419.287,-383.596 451.483,-369.687 474.865,-359.586"/>
<polygon fill="midnightblue" stroke="midnightblue" points="476.494,-362.695 484.286,-355.516 473.718,-356.269 476.494,-362.695"/>
</g>
<!-- Node16 -->
<g id="node16" class="node"><title>Node16</title>
<polygon fill="white" stroke="#bfbfbf" points="572.5,-336.5 572.5,-355.5 697.5,-355.5 697.5,-336.5 572.5,-336.5"/>
<text text-anchor="middle" x="635" y="-343.5" font-family="Helvetica,sans-Serif" font-size="10.00">glm/gtx/compatibility.hpp</text>
</g>
<!-- Node4&#45;&gt;Node16 -->
<g id="edge17" class="edge"><title>Node4&#45;&gt;Node16</title>
<path fill="none" stroke="midnightblue" d="M419.564,-392.444C464.316,-383.004 536.383,-367.802 584.695,-357.611"/>
<polygon fill="midnightblue" stroke="midnightblue" points="585.564,-361.005 594.626,-355.516 584.119,-354.156 585.564,-361.005"/>
</g>
<!-- Node17 -->
<g id="node17" class="node"><title>Node17</title>
<polygon fill="white" stroke="#bfbfbf" points="0,-336.5 0,-355.5 92,-355.5 92,-336.5 0,-336.5"/>
<text text-anchor="middle" x="46" y="-343.5" font-family="Helvetica,sans-Serif" font-size="10.00">glm/gtx/norm.hpp</text>
</g>
<!-- Node4&#45;&gt;Node17 -->
<g id="edge18" class="edge"><title>Node4&#45;&gt;Node17</title>
<path fill="none" stroke="midnightblue" d="M335.18,-393.931C282.38,-385.407 190.69,-370.589 102.154,-356.186"/>
<polygon fill="midnightblue" stroke="midnightblue" points="102.645,-352.72 92.2125,-354.568 101.521,-359.629 102.645,-352.72"/>
</g>
<!-- Node18 -->
<g id="node18" class="node"><title>Node18</title>
<polygon fill="white" stroke="#bfbfbf" points="110,-336.5 110,-355.5 150,-355.5 150,-336.5 110,-336.5"/>
<text text-anchor="middle" x="130" y="-343.5" font-family="Helvetica,sans-Serif" font-size="10.00">limits</text>
</g>
<!-- Node4&#45;&gt;Node18 -->
<g id="edge19" class="edge"><title>Node4&#45;&gt;Node18</title>
<path fill="none" stroke="midnightblue" d="M335.296,-393.382C292.784,-385.678 226.212,-372.837 159.976,-356.056"/>
<polygon fill="midnightblue" stroke="midnightblue" points="160.764,-352.645 150.208,-353.552 159.026,-359.426 160.764,-352.645"/>
</g>
<!-- Node19 -->
<g id="node19" class="node"><title>Node19</title>
<polygon fill="white" stroke="#bfbfbf" points="168.5,-336.5 168.5,-355.5 215.5,-355.5 215.5,-336.5 168.5,-336.5"/>
<text text-anchor="middle" x="192" y="-343.5" font-family="Helvetica,sans-Serif" font-size="10.00">math.h</text>
</g>
<!-- Node4&#45;&gt;Node19 -->
<g id="edge20" class="edge"><title>Node4&#45;&gt;Node19</title>
<path fill="none" stroke="midnightblue" d="M349.369,-392.444C315.625,-382.699 260.621,-366.816 225.388,-356.641"/>
<polygon fill="midnightblue" stroke="midnightblue" points="226.15,-353.218 215.571,-353.807 224.208,-359.944 226.15,-353.218"/>
</g>
<!-- Node5&#45;&gt;Node3 -->
<g id="edge9" class="edge"><title>Node5&#45;&gt;Node3</title>
<path fill="none" stroke="midnightblue" d="M812.145,-114.533C816.74,-113.564 821.494,-112.668 826,-112 1049.33,-78.9185 1321.9,-69.8241 1412.27,-67.629"/>
<polygon fill="midnightblue" stroke="midnightblue" points="1412.46,-71.1257 1422.37,-67.3944 1412.29,-64.1276 1412.46,-71.1257"/>
</g>
<!-- Node6 -->
<g id="node6" class="node"><title>Node6</title>
<g id="a_node6"><a xlink:href="Log_8h.html" target="_top" xlink:title="Log.h">
<polygon fill="white" stroke="black" points="765.5,-56.5 765.5,-75.5 806.5,-75.5 806.5,-56.5 765.5,-56.5"/>
<text text-anchor="middle" x="786" y="-63.5" font-family="Helvetica,sans-Serif" font-size="10.00">Log.h</text>
</a>
</g>
</g>
<!-- Node5&#45;&gt;Node6 -->
<g id="edge5" class="edge"><title>Node5&#45;&gt;Node6</title>
<path fill="none" stroke="midnightblue" d="M786,-112.083C786,-105.006 786,-94.8611 786,-85.9865"/>
<polygon fill="midnightblue" stroke="midnightblue" points="789.5,-85.751 786,-75.7511 782.5,-85.7511 789.5,-85.751"/>
</g>
<!-- Node7 -->
<g id="node7" class="node"><title>Node7</title>
<polygon fill="white" stroke="#bfbfbf" points="821,-0.5 821,-19.5 867,-19.5 867,-0.5 821,-0.5"/>
<text text-anchor="middle" x="844" y="-7.5" font-family="Helvetica,sans-Serif" font-size="10.00">stdio.h</text>
</g>
<!-- Node5&#45;&gt;Node7 -->
<g id="edge12" class="edge"><title>Node5&#45;&gt;Node7</title>
<path fill="none" stroke="midnightblue" d="M792.19,-112.279C798.363,-103.387 807.922,-89.0784 815,-76 823.353,-60.5648 831.364,-42.2489 836.841,-28.9999"/>
<polygon fill="midnightblue" stroke="midnightblue" points="840.134,-30.195 840.649,-19.6127 833.647,-27.5639 840.134,-30.195"/>
</g>
<!-- Node10 -->
<g id="node10" class="node"><title>Node10</title>
<polygon fill="white" stroke="#bfbfbf" points="863.5,-56.5 863.5,-75.5 946.5,-75.5 946.5,-56.5 863.5,-56.5"/>
<text text-anchor="middle" x="905" y="-63.5" font-family="Helvetica,sans-Serif" font-size="10.00">unordered_map</text>
</g>
<!-- Node5&#45;&gt;Node10 -->
<g id="edge10" class="edge"><title>Node5&#45;&gt;Node10</title>
<path fill="none" stroke="midnightblue" d="M804.856,-112.444C824.266,-103.636 854.73,-89.8116 876.965,-79.722"/>
<polygon fill="midnightblue" stroke="midnightblue" points="878.572,-82.836 886.232,-75.5164 875.68,-76.4615 878.572,-82.836"/>
</g>
<!-- Node11 -->
<g id="node11" class="node"><title>Node11</title>
<polygon fill="white" stroke="#bfbfbf" points="618,-56.5 618,-75.5 670,-75.5 670,-56.5 618,-56.5"/>
<text text-anchor="middle" x="644" y="-63.5" font-family="Helvetica,sans-Serif" font-size="10.00">assert.h</text>
</g>
<!-- Node5&#45;&gt;Node11 -->
<g id="edge11" class="edge"><title>Node5&#45;&gt;Node11</title>
<path fill="none" stroke="midnightblue" d="M763.5,-112.444C739.923,-103.478 702.678,-89.314 676.036,-79.1827"/>
<polygon fill="midnightblue" stroke="midnightblue" points="676.986,-75.7995 666.395,-75.5164 674.498,-82.3424 676.986,-75.7995"/>
</g>
<!-- Node12 -->
<g id="node12" class="node"><title>Node12</title>
<polygon fill="white" stroke="#bfbfbf" points="688.5,-56.5 688.5,-75.5 747.5,-75.5 747.5,-56.5 688.5,-56.5"/>
<text text-anchor="middle" x="718" y="-63.5" font-family="Helvetica,sans-Serif" font-size="10.00">inttypes.h</text>
</g>
<!-- Node5&#45;&gt;Node12 -->
<g id="edge13" class="edge"><title>Node5&#45;&gt;Node12</title>
<path fill="none" stroke="midnightblue" d="M775.075,-112.324C764.825,-104.185 749.279,-91.8395 736.999,-82.0874"/>
<polygon fill="midnightblue" stroke="midnightblue" points="739.132,-79.3119 729.124,-75.8339 734.779,-84.7937 739.132,-79.3119"/>
</g>
<!-- Node6&#45;&gt;Node7 -->
<g id="edge6" class="edge"><title>Node6&#45;&gt;Node7</title>
<path fill="none" stroke="midnightblue" d="M795.319,-56.324C803.893,-48.3414 816.812,-36.3128 827.188,-26.6529"/>
<polygon fill="midnightblue" stroke="midnightblue" points="829.578,-29.2098 834.512,-19.8339 824.808,-24.0865 829.578,-29.2098"/>
</g>
<!-- Node8 -->
<g id="node8" class="node"><title>Node8</title>
<polygon fill="white" stroke="#bfbfbf" points="751,-0.5 751,-19.5 803,-19.5 803,-0.5 751,-0.5"/>
<text text-anchor="middle" x="777" y="-7.5" font-family="Helvetica,sans-Serif" font-size="10.00">stdarg.h</text>
</g>
<!-- Node6&#45;&gt;Node8 -->
<g id="edge7" class="edge"><title>Node6&#45;&gt;Node8</title>
<path fill="none" stroke="midnightblue" d="M784.514,-56.083C783.321,-48.9272 781.606,-38.6353 780.115,-29.6911"/>
<polygon fill="midnightblue" stroke="midnightblue" points="783.555,-29.0396 778.459,-19.7511 776.65,-30.1904 783.555,-29.0396"/>
</g>
<!-- Node9 -->
<g id="node9" class="node"><title>Node9</title>
<polygon fill="white" stroke="#bfbfbf" points="683.5,-0.5 683.5,-19.5 732.5,-19.5 732.5,-0.5 683.5,-0.5"/>
<text text-anchor="middle" x="708" y="-7.5" font-family="Helvetica,sans-Serif" font-size="10.00">string.h</text>
</g>
<!-- Node6&#45;&gt;Node9 -->
<g id="edge8" class="edge"><title>Node6&#45;&gt;Node9</title>
<path fill="none" stroke="midnightblue" d="M773.468,-56.324C761.414,-47.979 742.973,-35.2122 728.731,-25.3524"/>
<polygon fill="midnightblue" stroke="midnightblue" points="730.715,-22.469 720.501,-19.6545 726.731,-28.2243 730.715,-22.469"/>
</g>
<!-- Node20&#45;&gt;Node2 -->
<g id="edge51" class="edge"><title>Node20&#45;&gt;Node2</title>
<path fill="none" stroke="midnightblue" d="M1056.57,-401.136C1182.84,-400.367 1540,-389.489 1540,-291 1540,-291 1540,-291 1540,-233 1540,-198.813 1523.4,-161.764 1512.14,-140.571"/>
<polygon fill="midnightblue" stroke="midnightblue" points="1515.18,-138.832 1507.28,-131.769 1509.05,-142.215 1515.18,-138.832"/>
</g>
<!-- Node20&#45;&gt;Node3 -->
<g id="edge52" class="edge"><title>Node20&#45;&gt;Node3</title>
<path fill="none" stroke="midnightblue" d="M969.345,-393.016C918.095,-380.83 840,-352.218 840,-291 840,-291 840,-291 840,-177 840,-118.25 1288.72,-79.0041 1411.99,-69.3308"/>
<polygon fill="midnightblue" stroke="midnightblue" points="1412.54,-72.7987 1422.24,-68.5361 1412,-65.8196 1412.54,-72.7987"/>
</g>
<!-- Node20&#45;&gt;Node5 -->
<g id="edge23" class="edge"><title>Node20&#45;&gt;Node5</title>
<path fill="none" stroke="midnightblue" d="M969.333,-395.309C920.947,-388.191 846.965,-374.635 826,-356 802.983,-335.541 802,-321.795 802,-291 802,-291 802,-291 802,-233 802,-200.626 795.129,-163.445 790.393,-141.659"/>
<polygon fill="midnightblue" stroke="midnightblue" points="793.777,-140.759 788.158,-131.777 786.95,-142.303 793.777,-140.759"/>
</g>
<!-- Node21 -->
<g id="node21" class="node"><title>Node21</title>
<g id="a_node21"><a xlink:href="MemoryAllocator_8h.html" target="_top" xlink:title="common/MemoryAllocator.h">
<polygon fill="white" stroke="black" points="906.5,-224.5 906.5,-243.5 1045.5,-243.5 1045.5,-224.5 906.5,-224.5"/>
<text text-anchor="middle" x="976" y="-231.5" font-family="Helvetica,sans-Serif" font-size="10.00">common/MemoryAllocator.h</text>
</a>
</g>
</g>
<!-- Node20&#45;&gt;Node21 -->
<g id="edge24" class="edge"><title>Node20&#45;&gt;Node21</title>
<path fill="none" stroke="midnightblue" d="M1008.81,-392.238C1004.71,-383.315 998.567,-368.982 995,-356 985.269,-320.582 980.02,-277.871 977.634,-253.834"/>
<polygon fill="midnightblue" stroke="midnightblue" points="981.098,-253.281 976.686,-243.648 974.128,-253.93 981.098,-253.281"/>
</g>
<!-- Node22 -->
<g id="node22" class="node"><title>Node22</title>
<polygon fill="white" stroke="#bfbfbf" points="1119,-112.5 1119,-131.5 1171,-131.5 1171,-112.5 1119,-112.5"/>
<text text-anchor="middle" x="1145" y="-119.5" font-family="Helvetica,sans-Serif" font-size="10.00">memory</text>
</g>
<!-- Node20&#45;&gt;Node22 -->
<g id="edge53" class="edge"><title>Node20&#45;&gt;Node22</title>
<path fill="none" stroke="midnightblue" d="M985.355,-392.416C945.859,-378.23 878,-345.872 878,-291 878,-291 878,-291 878,-233 878,-134.326 1035.82,-122.358 1108.79,-122.098"/>
<polygon fill="midnightblue" stroke="midnightblue" points="1108.9,-125.598 1118.91,-122.136 1108.93,-118.598 1108.9,-125.598"/>
</g>
<!-- Node23 -->
<g id="node23" class="node"><title>Node23</title>
<g id="a_node23"><a xlink:href="ICondition_8h.html" target="_top" xlink:title="Condition related stuff. ">
<polygon fill="white" stroke="black" points="1129,-280.5 1129,-299.5 1245,-299.5 1245,-280.5 1129,-280.5"/>
<text text-anchor="middle" x="1187" y="-287.5" font-family="Helvetica,sans-Serif" font-size="10.00">conditions/ICondition.h</text>
</a>
</g>
</g>
<!-- Node20&#45;&gt;Node23 -->
<g id="edge26" class="edge"><title>Node20&#45;&gt;Node23</title>
<path fill="none" stroke="midnightblue" d="M1033.78,-392.378C1052.88,-384.096 1081.69,-370.7 1105,-356 1128.82,-340.983 1153.85,-320.325 1169.9,-306.36"/>
<polygon fill="midnightblue" stroke="midnightblue" points="1172.23,-308.971 1177.42,-299.733 1167.6,-303.72 1172.23,-308.971"/>
</g>
<!-- Node35 -->
<g id="node35" class="node"><title>Node35</title>
<g id="a_node35"><a xlink:href="True_8h.html" target="_top" xlink:title="conditions/True.h">
<polygon fill="white" stroke="black" points="1004,-336.5 1004,-355.5 1096,-355.5 1096,-336.5 1004,-336.5"/>
<text text-anchor="middle" x="1050" y="-343.5" font-family="Helvetica,sans-Serif" font-size="10.00">conditions/True.h</text>
</a>
</g>
</g>
<!-- Node20&#45;&gt;Node35 -->
<g id="edge49" class="edge"><title>Node20&#45;&gt;Node35</title>
<path fill="none" stroke="midnightblue" d="M1019.11,-392.083C1024.28,-384.534 1031.85,-373.495 1038.19,-364.23"/>
<polygon fill="midnightblue" stroke="midnightblue" points="1041.24,-365.979 1044,-355.751 1035.46,-362.022 1041.24,-365.979"/>
</g>
<!-- Node36 -->
<g id="node36" class="node"><title>Node36</title>
<polygon fill="white" stroke="#bfbfbf" points="1152,-336.5 1152,-355.5 1208,-355.5 1208,-336.5 1152,-336.5"/>
<text text-anchor="middle" x="1180" y="-343.5" font-family="Helvetica,sans-Serif" font-size="10.00">algorithm</text>
</g>
<!-- Node20&#45;&gt;Node36 -->
<g id="edge54" class="edge"><title>Node20&#45;&gt;Node36</title>
<path fill="none" stroke="midnightblue" d="M1039.46,-392.444C1067.68,-383.32 1112.54,-368.813 1143.97,-358.651"/>
<polygon fill="midnightblue" stroke="midnightblue" points="1145.22,-361.923 1153.66,-355.516 1143.07,-355.263 1145.22,-361.923"/>
</g>
<!-- Node21&#45;&gt;Node22 -->
<g id="edge25" class="edge"><title>Node21&#45;&gt;Node22</title>
<path fill="none" stroke="midnightblue" d="M972.407,-224.372C967.405,-210.834 960.298,-184.453 973,-168 989.449,-146.693 1063.32,-133.531 1108.74,-127.306"/>
<polygon fill="midnightblue" stroke="midnightblue" points="1109.34,-130.758 1118.79,-125.977 1108.42,-123.818 1109.34,-130.758"/>
</g>
<!-- Node23&#45;&gt;Node2 -->
<g id="edge28" class="edge"><title>Node23&#45;&gt;Node2</title>
<path fill="none" stroke="midnightblue" d="M1245.25,-285.815C1291.56,-281.293 1356.84,-270.37 1408,-244 1440.42,-227.288 1445.9,-217.019 1468,-188 1479.19,-173.306 1488.61,-154.399 1494.68,-140.769"/>
<polygon fill="midnightblue" stroke="midnightblue" points="1497.92,-142.102 1498.64,-131.532 1491.48,-139.344 1497.92,-142.102"/>
</g>
<!-- Node23&#45;&gt;Node3 -->
<g id="edge27" class="edge"><title>Node23&#45;&gt;Node3</title>
<path fill="none" stroke="midnightblue" d="M1245.1,-288.959C1298.15,-286.596 1377.18,-277.076 1437,-244 1500.25,-209.024 1569.86,-173.571 1532,-112 1519.35,-91.4342 1494.08,-79.9214 1473.68,-73.7011"/>
<polygon fill="midnightblue" stroke="midnightblue" points="1474.42,-70.2736 1463.85,-70.9834 1472.56,-77.0207 1474.42,-70.2736"/>
</g>
<!-- Node23&#45;&gt;Node21 -->
<g id="edge31" class="edge"><title>Node23&#45;&gt;Node21</title>
<path fill="none" stroke="midnightblue" d="M1153.57,-280.444C1117.14,-271.122 1058.77,-256.183 1018.97,-245.997"/>
<polygon fill="midnightblue" stroke="midnightblue" points="1019.83,-242.605 1009.28,-243.516 1018.1,-249.387 1019.83,-242.605"/>
</g>
<!-- Node23&#45;&gt;Node22 -->
<g id="edge30" class="edge"><title>Node23&#45;&gt;Node22</title>
<path fill="none" stroke="midnightblue" d="M1185.4,-280.417C1181.61,-260.506 1171.57,-209.688 1160,-168 1157.52,-159.062 1154.32,-149.277 1151.51,-141.121"/>
<polygon fill="midnightblue" stroke="midnightblue" points="1154.76,-139.817 1148.14,-131.546 1148.16,-142.141 1154.76,-139.817"/>
</g>
<!-- Node24 -->
<g id="node24" class="node"><title>Node24</title>
<polygon fill="white" stroke="#bfbfbf" points="1215,-224.5 1215,-243.5 1267,-243.5 1267,-224.5 1215,-224.5"/>
<text text-anchor="middle" x="1241" y="-231.5" font-family="Helvetica,sans-Serif" font-size="10.00">sstream</text>
</g>
<!-- Node23&#45;&gt;Node24 -->
<g id="edge29" class="edge"><title>Node23&#45;&gt;Node24</title>
<path fill="none" stroke="midnightblue" d="M1195.92,-280.083C1203.78,-272.22 1215.43,-260.569 1224.92,-251.081"/>
<polygon fill="midnightblue" stroke="midnightblue" points="1227.65,-253.297 1232.25,-243.751 1222.7,-248.347 1227.65,-253.297"/>
</g>
<!-- Node25 -->
<g id="node25" class="node"><title>Node25</title>
<g id="a_node25"><a xlink:href="Thread_8h.html" target="_top" xlink:title="common/Thread.h">
<polygon fill="white" stroke="black" points="1063.5,-224.5 1063.5,-243.5 1158.5,-243.5 1158.5,-224.5 1063.5,-224.5"/>
<text text-anchor="middle" x="1111" y="-231.5" font-family="Helvetica,sans-Serif" font-size="10.00">common/Thread.h</text>
</a>
</g>
</g>
<!-- Node23&#45;&gt;Node25 -->
<g id="edge32" class="edge"><title>Node23&#45;&gt;Node25</title>
<path fill="none" stroke="midnightblue" d="M1174.79,-280.324C1163.22,-272.107 1145.62,-259.602 1131.84,-249.807"/>
<polygon fill="midnightblue" stroke="midnightblue" points="1133.61,-246.773 1123.43,-243.834 1129.56,-252.479 1133.61,-246.773"/>
</g>
<!-- Node29 -->
<g id="node29" class="node"><title>Node29</title>
<g id="a_node29"><a xlink:href="AIFactories_8h.html" target="_top" xlink:title="AIFactories.h">
<polygon fill="white" stroke="black" points="1324.5,-224.5 1324.5,-243.5 1399.5,-243.5 1399.5,-224.5 1324.5,-224.5"/>
<text text-anchor="middle" x="1362" y="-231.5" font-family="Helvetica,sans-Serif" font-size="10.00">AIFactories.h</text>
</a>
</g>
</g>
<!-- Node23&#45;&gt;Node29 -->
<g id="edge37" class="edge"><title>Node23&#45;&gt;Node29</title>
<path fill="none" stroke="midnightblue" d="M1214.73,-280.444C1244.43,-271.28 1291.72,-256.688 1324.67,-246.519"/>
<polygon fill="midnightblue" stroke="midnightblue" points="1325.88,-249.809 1334.4,-243.516 1323.81,-243.121 1325.88,-249.809"/>
</g>
<!-- Node25&#45;&gt;Node5 -->
<g id="edge33" class="edge"><title>Node25&#45;&gt;Node5</title>
<path fill="none" stroke="midnightblue" d="M1084.24,-224.442C1056.4,-215.5 1011.57,-200.99 973,-188 919.408,-169.95 857.46,-148.252 820.034,-135.051"/>
<polygon fill="midnightblue" stroke="midnightblue" points="820.75,-131.593 810.156,-131.564 818.42,-138.193 820.75,-131.593"/>
</g>
<!-- Node26 -->
<g id="node26" class="node"><title>Node26</title>
<polygon fill="white" stroke="#bfbfbf" points="1046,-168.5 1046,-187.5 1090,-187.5 1090,-168.5 1046,-168.5"/>
<text text-anchor="middle" x="1068" y="-175.5" font-family="Helvetica,sans-Serif" font-size="10.00">thread</text>
</g>
<!-- Node25&#45;&gt;Node26 -->
<g id="edge34" class="edge"><title>Node25&#45;&gt;Node26</title>
<path fill="none" stroke="midnightblue" d="M1103.9,-224.083C1097.76,-216.377 1088.73,-205.033 1081.26,-195.653"/>
<polygon fill="midnightblue" stroke="midnightblue" points="1083.94,-193.394 1074.97,-187.751 1078.46,-197.754 1083.94,-193.394"/>
</g>
<!-- Node27 -->
<g id="node27" class="node"><title>Node27</title>
<polygon fill="white" stroke="#bfbfbf" points="1108,-168.5 1108,-187.5 1152,-187.5 1152,-168.5 1108,-168.5"/>
<text text-anchor="middle" x="1130" y="-175.5" font-family="Helvetica,sans-Serif" font-size="10.00">mutex</text>
</g>
<!-- Node25&#45;&gt;Node27 -->
<g id="edge35" class="edge"><title>Node25&#45;&gt;Node27</title>
<path fill="none" stroke="midnightblue" d="M1114.14,-224.083C1116.68,-216.849 1120.36,-206.409 1123.53,-197.397"/>
<polygon fill="midnightblue" stroke="midnightblue" points="1126.9,-198.346 1126.92,-187.751 1120.3,-196.023 1126.9,-198.346"/>
</g>
<!-- Node28 -->
<g id="node28" class="node"><title>Node28</title>
<polygon fill="white" stroke="#bfbfbf" points="982,-168.5 982,-187.5 1028,-187.5 1028,-168.5 982,-168.5"/>
<text text-anchor="middle" x="1005" y="-175.5" font-family="Helvetica,sans-Serif" font-size="10.00">atomic</text>
</g>
<!-- Node25&#45;&gt;Node28 -->
<g id="edge36" class="edge"><title>Node25&#45;&gt;Node28</title>
<path fill="none" stroke="midnightblue" d="M1093.97,-224.324C1076.97,-215.664 1050.62,-202.242 1031.01,-192.249"/>
<polygon fill="midnightblue" stroke="midnightblue" points="1032.49,-189.075 1021.99,-187.655 1029.31,-195.312 1032.49,-189.075"/>
</g>
<!-- Node29&#45;&gt;Node2 -->
<g id="edge48" class="edge"><title>Node29&#45;&gt;Node2</title>
<path fill="none" stroke="midnightblue" d="M1382.04,-224.363C1399.4,-216.351 1424.68,-203.368 1444,-188 1461.67,-173.942 1478.46,-154.173 1489.38,-140.137"/>
<polygon fill="midnightblue" stroke="midnightblue" points="1492.41,-141.94 1495.66,-131.858 1486.83,-137.708 1492.41,-141.94"/>
</g>
<!-- Node30 -->
<g id="node30" class="node"><title>Node30</title>
<g id="a_node30"><a xlink:href="IAIFactory_8h.html" target="_top" xlink:title="IAIFactory.h">
<polygon fill="white" stroke="black" points="1364.5,-168.5 1364.5,-187.5 1435.5,-187.5 1435.5,-168.5 1364.5,-168.5"/>
<text text-anchor="middle" x="1400" y="-175.5" font-family="Helvetica,sans-Serif" font-size="10.00">IAIFactory.h</text>
</a>
</g>
</g>
<!-- Node29&#45;&gt;Node30 -->
<g id="edge38" class="edge"><title>Node29&#45;&gt;Node30</title>
<path fill="none" stroke="midnightblue" d="M1368.27,-224.083C1373.64,-216.455 1381.52,-205.264 1388.08,-195.941"/>
<polygon fill="midnightblue" stroke="midnightblue" points="1390.95,-197.943 1393.84,-187.751 1385.22,-193.915 1390.95,-197.943"/>
</g>
<!-- Node32 -->
<g id="node32" class="node"><title>Node32</title>
<g id="a_node32"><a xlink:href="IFactoryRegistry_8h.html" target="_top" xlink:title="common/IFactoryRegistry.h">
<polygon fill="white" stroke="black" points="1208,-168.5 1208,-187.5 1346,-187.5 1346,-168.5 1208,-168.5"/>
<text text-anchor="middle" x="1277" y="-175.5" font-family="Helvetica,sans-Serif" font-size="10.00">common/IFactoryRegistry.h</text>
</a>
</g>
</g>
<!-- Node29&#45;&gt;Node32 -->
<g id="edge43" class="edge"><title>Node29&#45;&gt;Node32</title>
<path fill="none" stroke="midnightblue" d="M1348.34,-224.324C1335.08,-215.9 1314.73,-202.971 1299.15,-193.074"/>
<polygon fill="midnightblue" stroke="midnightblue" points="1300.94,-190.063 1290.62,-187.655 1297.19,-195.971 1300.94,-190.063"/>
</g>
<!-- Node30&#45;&gt;Node2 -->
<g id="edge41" class="edge"><title>Node30&#45;&gt;Node2</title>
<path fill="none" stroke="midnightblue" d="M1416.39,-168.324C1432.67,-159.703 1457.87,-146.364 1476.72,-136.386"/>
<polygon fill="midnightblue" stroke="midnightblue" points="1478.45,-139.427 1485.65,-131.655 1475.18,-133.24 1478.45,-139.427"/>
</g>
<!-- Node30&#45;&gt;Node3 -->
<g id="edge40" class="edge"><title>Node30&#45;&gt;Node3</title>
<path fill="none" stroke="midnightblue" d="M1405.05,-168.249C1410.06,-159.334 1417.72,-145.008 1423,-132 1429.24,-116.615 1434.66,-98.5189 1438.28,-85.3325"/>
<polygon fill="midnightblue" stroke="midnightblue" points="1441.69,-86.1415 1440.87,-75.578 1434.92,-84.3435 1441.69,-86.1415"/>
</g>
<!-- Node30&#45;&gt;Node22 -->
<g id="edge39" class="edge"><title>Node30&#45;&gt;Node22</title>
<path fill="none" stroke="midnightblue" d="M1364.32,-169.859C1315.31,-160.021 1228.75,-142.529 1181.36,-131.983"/>
<polygon fill="midnightblue" stroke="midnightblue" points="1181.84,-128.503 1171.32,-129.715 1180.3,-135.331 1181.84,-128.503"/>
</g>
<!-- Node31 -->
<g id="node31" class="node"><title>Node31</title>
<polygon fill="white" stroke="#bfbfbf" points="1385.5,-112.5 1385.5,-131.5 1414.5,-131.5 1414.5,-112.5 1385.5,-112.5"/>
<text text-anchor="middle" x="1400" y="-119.5" font-family="Helvetica,sans-Serif" font-size="10.00">list</text>
</g>
<!-- Node30&#45;&gt;Node31 -->
<g id="edge42" class="edge"><title>Node30&#45;&gt;Node31</title>
<path fill="none" stroke="midnightblue" d="M1400,-168.083C1400,-161.006 1400,-150.861 1400,-141.986"/>
<polygon fill="midnightblue" stroke="midnightblue" points="1403.5,-141.751 1400,-131.751 1396.5,-141.751 1403.5,-141.751"/>
</g>
<!-- Node32&#45;&gt;Node5 -->
<g id="edge44" class="edge"><title>Node32&#45;&gt;Node5</title>
<path fill="none" stroke="midnightblue" d="M1207.95,-169.406C1102.16,-157.771 903.677,-135.942 822.256,-126.987"/>
<polygon fill="midnightblue" stroke="midnightblue" points="822.339,-123.476 812.016,-125.861 821.574,-130.434 822.339,-123.476"/>
</g>
<!-- Node32&#45;&gt;Node22 -->
<g id="edge46" class="edge"><title>Node32&#45;&gt;Node22</title>
<path fill="none" stroke="midnightblue" d="M1256.08,-168.444C1234.26,-159.517 1199.85,-145.439 1175.11,-135.317"/>
<polygon fill="midnightblue" stroke="midnightblue" points="1176.4,-132.063 1165.82,-131.516 1173.75,-138.542 1176.4,-132.063"/>
</g>
<!-- Node33 -->
<g id="node33" class="node"><title>Node33</title>
<g id="a_node33"><a xlink:href="NonCopyable_8h.html" target="_top" xlink:title="common/NonCopyable.h">
<polygon fill="white" stroke="black" points="1189.5,-112.5 1189.5,-131.5 1314.5,-131.5 1314.5,-112.5 1189.5,-112.5"/>
<text text-anchor="middle" x="1252" y="-119.5" font-family="Helvetica,sans-Serif" font-size="10.00">common/NonCopyable.h</text>
</a>
</g>
</g>
<!-- Node32&#45;&gt;Node33 -->
<g id="edge45" class="edge"><title>Node32&#45;&gt;Node33</title>
<path fill="none" stroke="midnightblue" d="M1272.87,-168.083C1269.49,-160.77 1264.58,-150.181 1260.38,-141.103"/>
<polygon fill="midnightblue" stroke="midnightblue" points="1263.43,-139.355 1256.05,-131.751 1257.08,-142.296 1263.43,-139.355"/>
</g>
<!-- Node34 -->
<g id="node34" class="node"><title>Node34</title>
<polygon fill="white" stroke="#bfbfbf" points="1332.5,-112.5 1332.5,-131.5 1367.5,-131.5 1367.5,-112.5 1332.5,-112.5"/>
<text text-anchor="middle" x="1350" y="-119.5" font-family="Helvetica,sans-Serif" font-size="10.00">map</text>
</g>
<!-- Node32&#45;&gt;Node34 -->
<g id="edge47" class="edge"><title>Node32&#45;&gt;Node34</title>
<path fill="none" stroke="midnightblue" d="M1288.73,-168.324C1299.84,-160.107 1316.74,-147.602 1329.98,-137.807"/>
<polygon fill="midnightblue" stroke="midnightblue" points="1332.1,-140.595 1338.06,-131.834 1327.94,-134.967 1332.1,-140.595"/>
</g>
<!-- Node35&#45;&gt;Node23 -->
<g id="edge50" class="edge"><title>Node35&#45;&gt;Node23</title>
<path fill="none" stroke="midnightblue" d="M1071.71,-336.444C1094.35,-327.517 1130.07,-313.439 1155.75,-303.317"/>
<polygon fill="midnightblue" stroke="midnightblue" points="1157.37,-306.44 1165.39,-299.516 1154.81,-299.927 1157.37,-306.44"/>
</g>
</g>
</svg>
        <g id="navigator" transform="translate(0 0)" fill="#404254">
                <rect fill="#f2f5e9" fill-opacity="0.5" stroke="#606060" stroke-width=".5" x="0" y="0" width="60" height="60"/>
                <use id="zoomplus" xlink:href="#zoomPlus" x="17" y="9" onmousedown="handleZoom(evt,'in')"/>
                <use id="zoomminus" xlink:href="#zoomMin" x="42" y="9" onmousedown="handleZoom(evt,'out')"/>
                <use id="reset" xlink:href="#resetDef" x="30" y="36" onmousedown="handleReset()"/>
                <g id="arrowUp" xlink:href="#dirArrow" transform="translate(30 24)" onmousedown="handlePan(0,-1)">
                  <use xlink:href="#rim" fill="#404040">
                        <set attributeName="fill" to="#808080" begin="arrowUp.mouseover" end="arrowUp.mouseout"/>
                  </use>
                  <path fill="none" stroke="white" stroke-width="1.5" d="M0,-3.0v7 M-2.5,-0.5L0,-3.0L2.5,-0.5"/>
                </g>
                <g id="arrowRight" xlink:href="#dirArrow" transform="rotate(90) translate(36 -43)" onmousedown="handlePan(1,0)">
                  <use xlink:href="#rim" fill="#404040">
                        <set attributeName="fill" to="#808080" begin="arrowRight.mouseover" end="arrowRight.mouseout"/>
                  </use>
                  <path fill="none" stroke="white" stroke-width="1.5" d="M0,-3.0v7 M-2.5,-0.5L0,-3.0L2.5,-0.5"/>
                </g>
                <g id="arrowDown" xlink:href="#dirArrow" transform="rotate(180) translate(-30 -48)" onmousedown="handlePan(0,1)">
                  <use xlink:href="#rim" fill="#404040">
                        <set attributeName="fill" to="#808080" begin="arrowDown.mouseover" end="arrowDown.mouseout"/>
                  </use>
                  <path fill="none" stroke="white" stroke-width="1.5" d="M0,-3.0v7 M-2.5,-0.5L0,-3.0L2.5,-0.5"/>
                </g>
                <g id="arrowLeft" xlink:href="#dirArrow" transform="rotate(270) translate(-36 17)" onmousedown="handlePan(-1,0)">
                  <use xlink:href="#rim" fill="#404040">
                        <set attributeName="fill" to="#808080" begin="arrowLeft.mouseover" end="arrowLeft.mouseout"/>
                  </use>
                  <path fill="none" stroke="white" stroke-width="1.5" d="M0,-3.0v7 M-2.5,-0.5L0,-3.0L2.5,-0.5"/>
                </g>
        </g>
        <svg viewBox="0 0 15 15" width="100%" height="30px" preserveAspectRatio="xMaxYMin meet">
         <g id="arrow_out" transform="scale(0.3 0.3)">
          <a xlink:href="AIStubTypes_8h__incl_org.svg" target="_base">
           <rect id="button" ry="5" rx="5" y="6" x="6" height="38" width="38"
                fill="#f2f5e9" fill-opacity="0.5" stroke="#606060" stroke-width="1.0"/>
           <path id="arrow"
             d="M 11.500037,31.436501 C 11.940474,20.09759 22.043105,11.32322 32.158766,21.979434 L 37.068811,17.246167 C 37.068811,17.246167 37.088388,32 37.088388,32 L 22.160133,31.978069 C 22.160133,31.978069 26.997745,27.140456 26.997745,27.140456 C 18.528582,18.264221 13.291696,25.230495 11.500037,31.436501 z"
             style="fill:#404040;"/>
          </a>
         </g>
        </svg>
</svg>
