<?xml version="1.0" encoding="UTF-8" standalone="no"?>
<!DOCTYPE svg PUBLIC "-//W3C//DTD SVG 1.1//EN"
 "http://www.w3.org/Graphics/SVG/1.1/DTD/svg11.dtd">
<!-- Generated by graphviz version 2.36.0 (20140111.2315)
 -->
<!-- Title: /home/travis/build/mgerhardy/simpleai/src/ai/server/AIStubTypes.h Pages: 1 -->
<svg width="1658pt" height="498pt"
 viewBox="0.00 0.00 1658.00 498.00" xmlns="http://www.w3.org/2000/svg" xmlns:xlink="http://www.w3.org/1999/xlink">
<g id="graph0" class="graph" transform="scale(1 1) rotate(0) translate(4 494)">
<title>/home/travis/build/mgerhardy/simpleai/src/ai/server/AIStubTypes.h</title>
<polygon fill="white" stroke="none" points="-4,4 -4,-494 1654,-494 1654,4 -4,4"/>
<!-- Node1 -->
<g id="node1" class="node"><title>Node1</title>
<polygon fill="#bfbfbf" stroke="black" points="938,-448.5 938,-489.5 1080,-489.5 1080,-448.5 938,-448.5"/>
<text text-anchor="start" x="946" y="-477.5" font-family="Helvetica,sans-Serif" font-size="10.00">/home/travis/build</text>
<text text-anchor="start" x="946" y="-466.5" font-family="Helvetica,sans-Serif" font-size="10.00">/mgerhardy/simpleai</text>
<text text-anchor="middle" x="1009" y="-455.5" font-family="Helvetica,sans-Serif" font-size="10.00">/src/ai/server/AIStubTypes.h</text>
</g>
<!-- Node2 -->
<g id="node2" class="node"><title>Node2</title>
<polygon fill="white" stroke="#bfbfbf" points="1476,-112.5 1476,-131.5 1520,-131.5 1520,-112.5 1476,-112.5"/>
<text text-anchor="middle" x="1498" y="-119.5" font-family="Helvetica,sans-Serif" font-size="10.00">vector</text>
</g>
<!-- Node1&#45;&gt;Node2 -->
<g id="edge1" class="edge"><title>Node1&#45;&gt;Node2</title>
<path fill="none" stroke="midnightblue" d="M1080.24,-468.505C1239.81,-467.719 1612,-454.375 1612,-347 1612,-347 1612,-347 1612,-233 1612,-186.115 1561.45,-152.894 1527.67,-135.93"/>
<polygon fill="midnightblue" stroke="midnightblue" points="1529.17,-132.769 1518.64,-131.579 1526.13,-139.074 1529.17,-132.769"/>
</g>
<!-- Node3 -->
<g id="node3" class="node"><title>Node3</title>
<polygon fill="white" stroke="#bfbfbf" points="1418.5,-56.5 1418.5,-75.5 1459.5,-75.5 1459.5,-56.5 1418.5,-56.5"/>
<text text-anchor="middle" x="1439" y="-63.5" font-family="Helvetica,sans-Serif" font-size="10.00">string</text>
</g>
<!-- Node1&#45;&gt;Node3 -->
<g id="edge2" class="edge"><title>Node1&#45;&gt;Node3</title>
<path fill="none" stroke="midnightblue" d="M1080.14,-466.95C1213.67,-464.023 1496.27,-453.027 1584,-412 1621.29,-394.56 1650,-388.171 1650,-347 1650,-347 1650,-347 1650,-177 1650,-96.6911 1528.33,-74.9198 1469.77,-69.0923"/>
<polygon fill="midnightblue" stroke="midnightblue" points="1469.89,-65.5888 1459.62,-68.1792 1469.26,-72.5607 1469.89,-65.5888"/>
</g>
<!-- Node4 -->
<g id="node4" class="node"><title>Node4</title>
<g id="a_node4"><a xlink:href="Math_8h.html" target="_top" xlink:title="common/Math.h">
<polygon fill="white" stroke="black" points="331.5,-392.5 331.5,-411.5 418.5,-411.5 418.5,-392.5 331.5,-392.5"/>
<text text-anchor="middle" x="375" y="-399.5" font-family="Helvetica,sans-Serif" font-size="10.00">common/Math.h</text>
</a>
</g>
</g>
<!-- Node1&#45;&gt;Node4 -->
<g id="edge3" class="edge"><title>Node1&#45;&gt;Node4</title>
<path fill="none" stroke="midnightblue" d="M937.811,-460.701C809.825,-447.58 543.563,-420.282 429.156,-408.552"/>
<polygon fill="midnightblue" stroke="midnightblue" points="429.199,-405.038 418.894,-407.5 428.485,-412.002 429.199,-405.038"/>
</g>
<!-- Node5 -->
<g id="node5" class="node"><title>Node5</title>
<g id="a_node5"><a xlink:href="Types_8h.html" target="_top" xlink:title="Types.h">
<polygon fill="white" stroke="black" points="756,-112.5 756,-131.5 808,-131.5 808,-112.5 756,-112.5"/>
<text text-anchor="middle" x="782" y="-119.5" font-family="Helvetica,sans-Serif" font-size="10.00">Types.h</text>
</a>
</g>
</g>
<!-- Node1&#45;&gt;Node5 -->
<g id="edge20" class="edge"><title>Node1&#45;&gt;Node5</title>
<path fill="none" stroke="midnightblue" d="M937.98,-463.191C864.382,-453.894 760,-426.664 760,-347 760,-347 760,-347 760,-233 760,-200.328 769.447,-163.24 775.96,-141.553"/>
<polygon fill="midnightblue" stroke="midnightblue" points="779.391,-142.31 779.033,-131.721 772.709,-140.222 779.391,-142.31"/>
</g>
<!-- Node19 -->
<g id="node19" class="node"><title>Node19</title>
<g id="a_node19"><a xlink:href="TreeNode_8h.html" target="_top" xlink:title="tree/TreeNode.h">
<polygon fill="white" stroke="black" points="965.5,-392.5 965.5,-411.5 1052.5,-411.5 1052.5,-392.5 965.5,-392.5"/>
<text text-anchor="middle" x="1009" y="-399.5" font-family="Helvetica,sans-Serif" font-size="10.00">tree/TreeNode.h</text>
</a>
</g>
</g>
<!-- Node1&#45;&gt;Node19 -->
<g id="edge21" class="edge"><title>Node1&#45;&gt;Node19</title>
<path fill="none" stroke="midnightblue" d="M1009,-448.498C1009,-440.065 1009,-430.235 1009,-421.874"/>
<polygon fill="midnightblue" stroke="midnightblue" points="1012.5,-421.652 1009,-411.652 1005.5,-421.653 1012.5,-421.652"/>
</g>
<!-- Node4&#45;&gt;Node5 -->
<g id="edge4" class="edge"><title>Node4&#45;&gt;Node5</title>
<path fill="none" stroke="midnightblue" d="M418.543,-400.644C497.529,-399.108 660.139,-391.584 702,-356 725.029,-336.424 722,-321.225 722,-291 722,-291 722,-291 722,-233 722,-195.883 748.654,-159.378 766.431,-139.158"/>
<polygon fill="midnightblue" stroke="midnightblue" points="769.237,-141.276 773.403,-131.535 764.072,-136.552 769.237,-141.276"/>
</g>
<!-- Node12 -->
<g id="node12" class="node"><title>Node12</title>
<polygon fill="white" stroke="#bfbfbf" points="230,-336.5 230,-355.5 300,-355.5 300,-336.5 230,-336.5"/>
<text text-anchor="middle" x="265" y="-343.5" font-family="Helvetica,sans-Serif" font-size="10.00">glm/glm.hpp</text>
</g>
<!-- Node4&#45;&gt;Node12 -->
<g id="edge13" class="edge"><title>Node4&#45;&gt;Node12</title>
<path fill="none" stroke="midnightblue" d="M357.327,-392.324C339.606,-383.625 312.097,-370.12 291.712,-360.113"/>
<polygon fill="midnightblue" stroke="midnightblue" points="293.149,-356.919 282.63,-355.655 290.064,-363.203 293.149,-356.919"/>
</g>
<!-- Node13 -->
<g id="node13" class="node"><title>Node13</title>
<polygon fill="white" stroke="#bfbfbf" points="318.5,-336.5 318.5,-355.5 431.5,-355.5 431.5,-336.5 318.5,-336.5"/>
<text text-anchor="middle" x="375" y="-343.5" font-family="Helvetica,sans-Serif" font-size="10.00">glm/gtc/constants.hpp</text>
</g>
<!-- Node4&#45;&gt;Node13 -->
<g id="edge14" class="edge"><title>Node4&#45;&gt;Node13</title>
<path fill="none" stroke="midnightblue" d="M375,-392.083C375,-385.006 375,-374.861 375,-365.986"/>
<polygon fill="midnightblue" stroke="midnightblue" points="378.5,-365.751 375,-355.751 371.5,-365.751 378.5,-365.751"/>
</g>
<!-- Node14 -->
<g id="node14" class="node"><title>Node14</title>
<polygon fill="white" stroke="#bfbfbf" points="449.5,-336.5 449.5,-355.5 550.5,-355.5 550.5,-336.5 449.5,-336.5"/>
<text text-anchor="middle" x="500" y="-343.5" font-family="Helvetica,sans-Serif" font-size="10.00">glm/gtc/epsilon.hpp</text>
</g>
<!-- Node4&#45;&gt;Node14 -->
<g id="edge15" class="edge"><title>Node4&#45;&gt;Node14</title>
<path fill="none" stroke="midnightblue" d="M394.807,-392.444C415.287,-383.596 447.483,-369.687 470.865,-359.586"/>
<polygon fill="midnightblue" stroke="midnightblue" points="472.494,-362.695 480.286,-355.516 469.718,-356.269 472.494,-362.695"/>
</g>
<!-- Node15 -->
<g id="node15" class="node"><title>Node15</title>
<polygon fill="white" stroke="#bfbfbf" points="568.5,-336.5 568.5,-355.5 693.5,-355.5 693.5,-336.5 568.5,-336.5"/>
<text text-anchor="middle" x="631" y="-343.5" font-family="Helvetica,sans-Serif" font-size="10.00">glm/gtx/compatibility.hpp</text>
</g>
<!-- Node4&#45;&gt;Node15 -->
<g id="edge16" class="edge"><title>Node4&#45;&gt;Node15</title>
<path fill="none" stroke="midnightblue" d="M415.564,-392.444C460.316,-383.004 532.383,-367.802 580.695,-357.611"/>
<polygon fill="midnightblue" stroke="midnightblue" points="581.564,-361.005 590.626,-355.516 580.119,-354.156 581.564,-361.005"/>
</g>
<!-- Node16 -->
<g id="node16" class="node"><title>Node16</title>
<polygon fill="white" stroke="#bfbfbf" points="0,-336.5 0,-355.5 92,-355.5 92,-336.5 0,-336.5"/>
<text text-anchor="middle" x="46" y="-343.5" font-family="Helvetica,sans-Serif" font-size="10.00">glm/gtx/norm.hpp</text>
</g>
<!-- Node4&#45;&gt;Node16 -->
<g id="edge17" class="edge"><title>Node4&#45;&gt;Node16</title>
<path fill="none" stroke="midnightblue" d="M331.311,-393.829C272.328,-384.148 167.159,-366.886 102.306,-356.242"/>
<polygon fill="midnightblue" stroke="midnightblue" points="102.692,-352.758 92.2572,-354.592 101.558,-359.666 102.692,-352.758"/>
</g>
<!-- Node17 -->
<g id="node17" class="node"><title>Node17</title>
<polygon fill="white" stroke="#bfbfbf" points="110,-336.5 110,-355.5 150,-355.5 150,-336.5 110,-336.5"/>
<text text-anchor="middle" x="130" y="-343.5" font-family="Helvetica,sans-Serif" font-size="10.00">limits</text>
</g>
<!-- Node4&#45;&gt;Node17 -->
<g id="edge18" class="edge"><title>Node4&#45;&gt;Node17</title>
<path fill="none" stroke="midnightblue" d="M331.277,-393.161C289.582,-385.403 224.855,-372.627 160.169,-356.115"/>
<polygon fill="midnightblue" stroke="midnightblue" points="160.768,-352.655 150.211,-353.543 159.018,-359.432 160.768,-352.655"/>
</g>
<!-- Node18 -->
<g id="node18" class="node"><title>Node18</title>
<polygon fill="white" stroke="#bfbfbf" points="168,-336.5 168,-355.5 212,-355.5 212,-336.5 168,-336.5"/>
<text text-anchor="middle" x="190" y="-343.5" font-family="Helvetica,sans-Serif" font-size="10.00">cmath</text>
</g>
<!-- Node4&#45;&gt;Node18 -->
<g id="edge19" class="edge"><title>Node4&#45;&gt;Node18</title>
<path fill="none" stroke="midnightblue" d="M345.686,-392.444C311.932,-382.591 256.676,-366.462 221.876,-356.304"/>
<polygon fill="midnightblue" stroke="midnightblue" points="222.789,-352.925 212.209,-353.483 220.828,-359.644 222.789,-352.925"/>
</g>
<!-- Node5&#45;&gt;Node3 -->
<g id="edge9" class="edge"><title>Node5&#45;&gt;Node3</title>
<path fill="none" stroke="midnightblue" d="M808.145,-114.533C812.74,-113.564 817.494,-112.668 822,-112 1045.33,-78.9185 1317.9,-69.8241 1408.27,-67.629"/>
<polygon fill="midnightblue" stroke="midnightblue" points="1408.46,-71.1257 1418.37,-67.3944 1408.29,-64.1276 1408.46,-71.1257"/>
</g>
<!-- Node6 -->
<g id="node6" class="node"><title>Node6</title>
<g id="a_node6"><a xlink:href="Log_8h.html" target="_top" xlink:title="Log.h">
<polygon fill="white" stroke="black" points="737.5,-56.5 737.5,-75.5 778.5,-75.5 778.5,-56.5 737.5,-56.5"/>
<text text-anchor="middle" x="758" y="-63.5" font-family="Helvetica,sans-Serif" font-size="10.00">Log.h</text>
</a>
</g>
</g>
<!-- Node5&#45;&gt;Node6 -->
<g id="edge5" class="edge"><title>Node5&#45;&gt;Node6</title>
<path fill="none" stroke="midnightblue" d="M778.037,-112.083C774.787,-104.77 770.081,-94.1814 766.046,-85.1034"/>
<polygon fill="midnightblue" stroke="midnightblue" points="769.149,-83.4677 761.889,-75.7511 762.752,-86.3107 769.149,-83.4677"/>
</g>
<!-- Node7 -->
<g id="node7" class="node"><title>Node7</title>
<polygon fill="white" stroke="#bfbfbf" points="793.5,-0.5 793.5,-19.5 836.5,-19.5 836.5,-0.5 793.5,-0.5"/>
<text text-anchor="middle" x="815" y="-7.5" font-family="Helvetica,sans-Serif" font-size="10.00">cstdio</text>
</g>
<!-- Node5&#45;&gt;Node7 -->
<g id="edge12" class="edge"><title>Node5&#45;&gt;Node7</title>
<path fill="none" stroke="midnightblue" d="M784.589,-112.368C789.939,-94.5366 802.311,-53.2953 809.518,-29.2717"/>
<polygon fill="midnightblue" stroke="midnightblue" points="812.901,-30.1754 812.423,-19.5914 806.197,-28.1639 812.901,-30.1754"/>
</g>
<!-- Node10 -->
<g id="node10" class="node"><title>Node10</title>
<polygon fill="white" stroke="#bfbfbf" points="835.5,-56.5 835.5,-75.5 918.5,-75.5 918.5,-56.5 835.5,-56.5"/>
<text text-anchor="middle" x="877" y="-63.5" font-family="Helvetica,sans-Serif" font-size="10.00">unordered_map</text>
</g>
<!-- Node5&#45;&gt;Node10 -->
<g id="edge10" class="edge"><title>Node5&#45;&gt;Node10</title>
<path fill="none" stroke="midnightblue" d="M797.263,-112.324C812.221,-103.822 835.255,-90.7288 852.727,-80.7975"/>
<polygon fill="midnightblue" stroke="midnightblue" points="854.81,-83.639 861.774,-75.6545 851.351,-77.5534 854.81,-83.639"/>
</g>
<!-- Node11 -->
<g id="node11" class="node"><title>Node11</title>
<polygon fill="white" stroke="#bfbfbf" points="670.5,-56.5 670.5,-75.5 719.5,-75.5 719.5,-56.5 670.5,-56.5"/>
<text text-anchor="middle" x="695" y="-63.5" font-family="Helvetica,sans-Serif" font-size="10.00">cassert</text>
</g>
<!-- Node5&#45;&gt;Node11 -->
<g id="edge11" class="edge"><title>Node5&#45;&gt;Node11</title>
<path fill="none" stroke="midnightblue" d="M768.022,-112.324C754.45,-103.9 733.62,-90.9709 717.675,-81.0741"/>
<polygon fill="midnightblue" stroke="midnightblue" points="719.286,-77.9544 708.943,-75.6545 715.594,-83.9019 719.286,-77.9544"/>
</g>
<!-- Node6&#45;&gt;Node7 -->
<g id="edge6" class="edge"><title>Node6&#45;&gt;Node7</title>
<path fill="none" stroke="midnightblue" d="M767.158,-56.324C775.501,-48.4196 788.032,-36.5482 798.177,-26.9377"/>
<polygon fill="midnightblue" stroke="midnightblue" points="800.823,-29.2522 805.675,-19.8339 796.009,-24.1705 800.823,-29.2522"/>
</g>
<!-- Node8 -->
<g id="node8" class="node"><title>Node8</title>
<polygon fill="white" stroke="#bfbfbf" points="726.5,-0.5 726.5,-19.5 775.5,-19.5 775.5,-0.5 726.5,-0.5"/>
<text text-anchor="middle" x="751" y="-7.5" font-family="Helvetica,sans-Serif" font-size="10.00">cstdarg</text>
</g>
<!-- Node6&#45;&gt;Node8 -->
<g id="edge7" class="edge"><title>Node6&#45;&gt;Node8</title>
<path fill="none" stroke="midnightblue" d="M756.844,-56.083C755.916,-48.9272 754.582,-38.6353 753.423,-29.6911"/>
<polygon fill="midnightblue" stroke="midnightblue" points="756.891,-29.2181 752.134,-19.7511 749.949,-30.1181 756.891,-29.2181"/>
</g>
<!-- Node9 -->
<g id="node9" class="node"><title>Node9</title>
<polygon fill="white" stroke="#bfbfbf" points="662,-0.5 662,-19.5 708,-19.5 708,-0.5 662,-0.5"/>
<text text-anchor="middle" x="685" y="-7.5" font-family="Helvetica,sans-Serif" font-size="10.00">cstring</text>
</g>
<!-- Node6&#45;&gt;Node9 -->
<g id="edge8" class="edge"><title>Node6&#45;&gt;Node9</title>
<path fill="none" stroke="midnightblue" d="M746.271,-56.324C735.163,-48.1066 718.258,-35.6017 705.017,-25.8069"/>
<polygon fill="midnightblue" stroke="midnightblue" points="707.063,-22.9671 696.942,-19.8339 702.9,-28.5948 707.063,-22.9671"/>
</g>
<!-- Node19&#45;&gt;Node2 -->
<g id="edge50" class="edge"><title>Node19&#45;&gt;Node2</title>
<path fill="none" stroke="midnightblue" d="M1052.57,-401.136C1178.84,-400.367 1536,-389.489 1536,-291 1536,-291 1536,-291 1536,-233 1536,-198.813 1519.4,-161.764 1508.14,-140.571"/>
<polygon fill="midnightblue" stroke="midnightblue" points="1511.18,-138.832 1503.28,-131.769 1505.05,-142.215 1511.18,-138.832"/>
</g>
<!-- Node19&#45;&gt;Node3 -->
<g id="edge51" class="edge"><title>Node19&#45;&gt;Node3</title>
<path fill="none" stroke="midnightblue" d="M965.345,-393.016C914.095,-380.83 836,-352.218 836,-291 836,-291 836,-291 836,-177 836,-118.25 1284.72,-79.0041 1407.99,-69.3308"/>
<polygon fill="midnightblue" stroke="midnightblue" points="1408.54,-72.7987 1418.24,-68.5361 1408,-65.8196 1408.54,-72.7987"/>
</g>
<!-- Node19&#45;&gt;Node5 -->
<g id="edge22" class="edge"><title>Node19&#45;&gt;Node5</title>
<path fill="none" stroke="midnightblue" d="M965.333,-395.309C916.947,-388.191 842.965,-374.635 822,-356 798.983,-335.541 798,-321.795 798,-291 798,-291 798,-291 798,-233 798,-200.626 791.129,-163.445 786.393,-141.659"/>
<polygon fill="midnightblue" stroke="midnightblue" points="789.777,-140.759 784.158,-131.777 782.95,-142.303 789.777,-140.759"/>
</g>
<!-- Node20 -->
<g id="node20" class="node"><title>Node20</title>
<g id="a_node20"><a xlink:href="MemoryAllocator_8h.html" target="_top" xlink:title="common/MemoryAllocator.h">
<polygon fill="white" stroke="black" points="902.5,-224.5 902.5,-243.5 1041.5,-243.5 1041.5,-224.5 902.5,-224.5"/>
<text text-anchor="middle" x="972" y="-231.5" font-family="Helvetica,sans-Serif" font-size="10.00">common/MemoryAllocator.h</text>
</a>
</g>
</g>
<!-- Node19&#45;&gt;Node20 -->
<g id="edge23" class="edge"><title>Node19&#45;&gt;Node20</title>
<path fill="none" stroke="midnightblue" d="M1004.81,-392.238C1000.71,-383.315 994.567,-368.982 991,-356 981.269,-320.582 976.02,-277.871 973.634,-253.834"/>
<polygon fill="midnightblue" stroke="midnightblue" points="977.098,-253.281 972.686,-243.648 970.128,-253.93 977.098,-253.281"/>
</g>
<!-- Node21 -->
<g id="node21" class="node"><title>Node21</title>
<polygon fill="white" stroke="#bfbfbf" points="1115,-112.5 1115,-131.5 1167,-131.5 1167,-112.5 1115,-112.5"/>
<text text-anchor="middle" x="1141" y="-119.5" font-family="Helvetica,sans-Serif" font-size="10.00">memory</text>
</g>
<!-- Node19&#45;&gt;Node21 -->
<g id="edge52" class="edge"><title>Node19&#45;&gt;Node21</title>
<path fill="none" stroke="midnightblue" d="M981.355,-392.416C941.859,-378.23 874,-345.872 874,-291 874,-291 874,-291 874,-233 874,-134.326 1031.82,-122.358 1104.79,-122.098"/>
<polygon fill="midnightblue" stroke="midnightblue" points="1104.9,-125.598 1114.91,-122.136 1104.93,-118.598 1104.9,-125.598"/>
</g>
<!-- Node22 -->
<g id="node22" class="node"><title>Node22</title>
<g id="a_node22"><a xlink:href="ICondition_8h.html" target="_top" xlink:title="Condition related stuff. ">
<polygon fill="white" stroke="black" points="1125,-280.5 1125,-299.5 1241,-299.5 1241,-280.5 1125,-280.5"/>
<text text-anchor="middle" x="1183" y="-287.5" font-family="Helvetica,sans-Serif" font-size="10.00">conditions/ICondition.h</text>
</a>
</g>
</g>
<!-- Node19&#45;&gt;Node22 -->
<g id="edge25" class="edge"><title>Node19&#45;&gt;Node22</title>
<path fill="none" stroke="midnightblue" d="M1029.78,-392.378C1048.88,-384.096 1077.69,-370.7 1101,-356 1124.82,-340.983 1149.85,-320.325 1165.9,-306.36"/>
<polygon fill="midnightblue" stroke="midnightblue" points="1168.23,-308.971 1173.42,-299.733 1163.6,-303.72 1168.23,-308.971"/>
</g>
<!-- Node34 -->
<g id="node34" class="node"><title>Node34</title>
<g id="a_node34"><a xlink:href="True_8h.html" target="_top" xlink:title="conditions/True.h">
<polygon fill="white" stroke="black" points="1000,-336.5 1000,-355.5 1092,-355.5 1092,-336.5 1000,-336.5"/>
<text text-anchor="middle" x="1046" y="-343.5" font-family="Helvetica,sans-Serif" font-size="10.00">conditions/True.h</text>
</a>
</g>
</g>
<!-- Node19&#45;&gt;Node34 -->
<g id="edge48" class="edge"><title>Node19&#45;&gt;Node34</title>
<path fill="none" stroke="midnightblue" d="M1015.11,-392.083C1020.28,-384.534 1027.85,-373.495 1034.19,-364.23"/>
<polygon fill="midnightblue" stroke="midnightblue" points="1037.24,-365.979 1040,-355.751 1031.46,-362.022 1037.24,-365.979"/>
</g>
<!-- Node35 -->
<g id="node35" class="node"><title>Node35</title>
<polygon fill="white" stroke="#bfbfbf" points="1148,-336.5 1148,-355.5 1204,-355.5 1204,-336.5 1148,-336.5"/>
<text text-anchor="middle" x="1176" y="-343.5" font-family="Helvetica,sans-Serif" font-size="10.00">algorithm</text>
</g>
<!-- Node19&#45;&gt;Node35 -->
<g id="edge53" class="edge"><title>Node19&#45;&gt;Node35</title>
<path fill="none" stroke="midnightblue" d="M1035.46,-392.444C1063.68,-383.32 1108.54,-368.813 1139.97,-358.651"/>
<polygon fill="midnightblue" stroke="midnightblue" points="1141.22,-361.923 1149.66,-355.516 1139.07,-355.263 1141.22,-361.923"/>
</g>
<!-- Node20&#45;&gt;Node21 -->
<g id="edge24" class="edge"><title>Node20&#45;&gt;Node21</title>
<path fill="none" stroke="midnightblue" d="M968.407,-224.372C963.405,-210.834 956.298,-184.453 969,-168 985.449,-146.693 1059.32,-133.531 1104.74,-127.306"/>
<polygon fill="midnightblue" stroke="midnightblue" points="1105.34,-130.758 1114.79,-125.977 1104.42,-123.818 1105.34,-130.758"/>
</g>
<!-- Node22&#45;&gt;Node2 -->
<g id="edge27" class="edge"><title>Node22&#45;&gt;Node2</title>
<path fill="none" stroke="midnightblue" d="M1241.25,-285.815C1287.56,-281.293 1352.84,-270.37 1404,-244 1436.42,-227.288 1441.9,-217.019 1464,-188 1475.19,-173.306 1484.61,-154.399 1490.68,-140.769"/>
<polygon fill="midnightblue" stroke="midnightblue" points="1493.92,-142.102 1494.64,-131.532 1487.48,-139.344 1493.92,-142.102"/>
</g>
<!-- Node22&#45;&gt;Node3 -->
<g id="edge26" class="edge"><title>Node22&#45;&gt;Node3</title>
<path fill="none" stroke="midnightblue" d="M1241.1,-288.959C1294.15,-286.596 1373.18,-277.076 1433,-244 1496.25,-209.024 1565.86,-173.571 1528,-112 1515.35,-91.4342 1490.08,-79.9214 1469.68,-73.7011"/>
<polygon fill="midnightblue" stroke="midnightblue" points="1470.42,-70.2736 1459.85,-70.9834 1468.56,-77.0207 1470.42,-70.2736"/>
</g>
<!-- Node22&#45;&gt;Node20 -->
<g id="edge30" class="edge"><title>Node22&#45;&gt;Node20</title>
<path fill="none" stroke="midnightblue" d="M1149.57,-280.444C1113.14,-271.122 1054.77,-256.183 1014.97,-245.997"/>
<polygon fill="midnightblue" stroke="midnightblue" points="1015.83,-242.605 1005.28,-243.516 1014.1,-249.387 1015.83,-242.605"/>
</g>
<!-- Node22&#45;&gt;Node21 -->
<g id="edge29" class="edge"><title>Node22&#45;&gt;Node21</title>
<path fill="none" stroke="midnightblue" d="M1181.4,-280.417C1177.61,-260.506 1167.57,-209.688 1156,-168 1153.52,-159.062 1150.32,-149.277 1147.51,-141.121"/>
<polygon fill="midnightblue" stroke="midnightblue" points="1150.76,-139.817 1144.14,-131.546 1144.16,-142.141 1150.76,-139.817"/>
</g>
<!-- Node23 -->
<g id="node23" class="node"><title>Node23</title>
<polygon fill="white" stroke="#bfbfbf" points="1211,-224.5 1211,-243.5 1263,-243.5 1263,-224.5 1211,-224.5"/>
<text text-anchor="middle" x="1237" y="-231.5" font-family="Helvetica,sans-Serif" font-size="10.00">sstream</text>
</g>
<!-- Node22&#45;&gt;Node23 -->
<g id="edge28" class="edge"><title>Node22&#45;&gt;Node23</title>
<path fill="none" stroke="midnightblue" d="M1191.92,-280.083C1199.78,-272.22 1211.43,-260.569 1220.92,-251.081"/>
<polygon fill="midnightblue" stroke="midnightblue" points="1223.65,-253.297 1228.25,-243.751 1218.7,-248.347 1223.65,-253.297"/>
</g>
<!-- Node24 -->
<g id="node24" class="node"><title>Node24</title>
<g id="a_node24"><a xlink:href="Thread_8h.html" target="_top" xlink:title="common/Thread.h">
<polygon fill="white" stroke="black" points="1059.5,-224.5 1059.5,-243.5 1154.5,-243.5 1154.5,-224.5 1059.5,-224.5"/>
<text text-anchor="middle" x="1107" y="-231.5" font-family="Helvetica,sans-Serif" font-size="10.00">common/Thread.h</text>
</a>
</g>
</g>
<!-- Node22&#45;&gt;Node24 -->
<g id="edge31" class="edge"><title>Node22&#45;&gt;Node24</title>
<path fill="none" stroke="midnightblue" d="M1170.79,-280.324C1159.22,-272.107 1141.62,-259.602 1127.84,-249.807"/>
<polygon fill="midnightblue" stroke="midnightblue" points="1129.61,-246.773 1119.43,-243.834 1125.56,-252.479 1129.61,-246.773"/>
</g>
<!-- Node28 -->
<g id="node28" class="node"><title>Node28</title>
<g id="a_node28"><a xlink:href="AIFactories_8h.html" target="_top" xlink:title="AIFactories.h">
<polygon fill="white" stroke="black" points="1320.5,-224.5 1320.5,-243.5 1395.5,-243.5 1395.5,-224.5 1320.5,-224.5"/>
<text text-anchor="middle" x="1358" y="-231.5" font-family="Helvetica,sans-Serif" font-size="10.00">AIFactories.h</text>
</a>
</g>
</g>
<!-- Node22&#45;&gt;Node28 -->
<g id="edge36" class="edge"><title>Node22&#45;&gt;Node28</title>
<path fill="none" stroke="midnightblue" d="M1210.73,-280.444C1240.43,-271.28 1287.72,-256.688 1320.67,-246.519"/>
<polygon fill="midnightblue" stroke="midnightblue" points="1321.88,-249.809 1330.4,-243.516 1319.81,-243.121 1321.88,-249.809"/>
</g>
<!-- Node24&#45;&gt;Node5 -->
<g id="edge32" class="edge"><title>Node24&#45;&gt;Node5</title>
<path fill="none" stroke="midnightblue" d="M1080.24,-224.442C1052.4,-215.5 1007.57,-200.99 969,-188 915.408,-169.95 853.46,-148.252 816.034,-135.051"/>
<polygon fill="midnightblue" stroke="midnightblue" points="816.75,-131.593 806.156,-131.564 814.42,-138.193 816.75,-131.593"/>
</g>
<!-- Node25 -->
<g id="node25" class="node"><title>Node25</title>
<polygon fill="white" stroke="#bfbfbf" points="1042,-168.5 1042,-187.5 1086,-187.5 1086,-168.5 1042,-168.5"/>
<text text-anchor="middle" x="1064" y="-175.5" font-family="Helvetica,sans-Serif" font-size="10.00">thread</text>
</g>
<!-- Node24&#45;&gt;Node25 -->
<g id="edge33" class="edge"><title>Node24&#45;&gt;Node25</title>
<path fill="none" stroke="midnightblue" d="M1099.9,-224.083C1093.76,-216.377 1084.73,-205.033 1077.26,-195.653"/>
<polygon fill="midnightblue" stroke="midnightblue" points="1079.94,-193.394 1070.97,-187.751 1074.46,-197.754 1079.94,-193.394"/>
</g>
<!-- Node26 -->
<g id="node26" class="node"><title>Node26</title>
<polygon fill="white" stroke="#bfbfbf" points="1104,-168.5 1104,-187.5 1148,-187.5 1148,-168.5 1104,-168.5"/>
<text text-anchor="middle" x="1126" y="-175.5" font-family="Helvetica,sans-Serif" font-size="10.00">mutex</text>
</g>
<!-- Node24&#45;&gt;Node26 -->
<g id="edge34" class="edge"><title>Node24&#45;&gt;Node26</title>
<path fill="none" stroke="midnightblue" d="M1110.14,-224.083C1112.68,-216.849 1116.36,-206.409 1119.53,-197.397"/>
<polygon fill="midnightblue" stroke="midnightblue" points="1122.9,-198.346 1122.92,-187.751 1116.3,-196.023 1122.9,-198.346"/>
</g>
<!-- Node27 -->
<g id="node27" class="node"><title>Node27</title>
<polygon fill="white" stroke="#bfbfbf" points="978,-168.5 978,-187.5 1024,-187.5 1024,-168.5 978,-168.5"/>
<text text-anchor="middle" x="1001" y="-175.5" font-family="Helvetica,sans-Serif" font-size="10.00">atomic</text>
</g>
<!-- Node24&#45;&gt;Node27 -->
<g id="edge35" class="edge"><title>Node24&#45;&gt;Node27</title>
<path fill="none" stroke="midnightblue" d="M1089.97,-224.324C1072.97,-215.664 1046.62,-202.242 1027.01,-192.249"/>
<polygon fill="midnightblue" stroke="midnightblue" points="1028.49,-189.075 1017.99,-187.655 1025.31,-195.312 1028.49,-189.075"/>
</g>
<!-- Node28&#45;&gt;Node2 -->
<g id="edge47" class="edge"><title>Node28&#45;&gt;Node2</title>
<path fill="none" stroke="midnightblue" d="M1378.04,-224.363C1395.4,-216.351 1420.68,-203.368 1440,-188 1457.67,-173.942 1474.46,-154.173 1485.38,-140.137"/>
<polygon fill="midnightblue" stroke="midnightblue" points="1488.41,-141.94 1491.66,-131.858 1482.83,-137.708 1488.41,-141.94"/>
</g>
<!-- Node29 -->
<g id="node29" class="node"><title>Node29</title>
<g id="a_node29"><a xlink:href="IAIFactory_8h.html" target="_top" xlink:title="IAIFactory.h">
<polygon fill="white" stroke="black" points="1360.5,-168.5 1360.5,-187.5 1431.5,-187.5 1431.5,-168.5 1360.5,-168.5"/>
<text text-anchor="middle" x="1396" y="-175.5" font-family="Helvetica,sans-Serif" font-size="10.00">IAIFactory.h</text>
</a>
</g>
</g>
<!-- Node28&#45;&gt;Node29 -->
<g id="edge37" class="edge"><title>Node28&#45;&gt;Node29</title>
<path fill="none" stroke="midnightblue" d="M1364.27,-224.083C1369.64,-216.455 1377.52,-205.264 1384.08,-195.941"/>
<polygon fill="midnightblue" stroke="midnightblue" points="1386.95,-197.943 1389.84,-187.751 1381.22,-193.915 1386.95,-197.943"/>
</g>
<!-- Node31 -->
<g id="node31" class="node"><title>Node31</title>
<g id="a_node31"><a xlink:href="IFactoryRegistry_8h.html" target="_top" xlink:title="common/IFactoryRegistry.h">
<polygon fill="white" stroke="black" points="1204,-168.5 1204,-187.5 1342,-187.5 1342,-168.5 1204,-168.5"/>
<text text-anchor="middle" x="1273" y="-175.5" font-family="Helvetica,sans-Serif" font-size="10.00">common/IFactoryRegistry.h</text>
</a>
</g>
</g>
<!-- Node28&#45;&gt;Node31 -->
<g id="edge42" class="edge"><title>Node28&#45;&gt;Node31</title>
<path fill="none" stroke="midnightblue" d="M1344.34,-224.324C1331.08,-215.9 1310.73,-202.971 1295.15,-193.074"/>
<polygon fill="midnightblue" stroke="midnightblue" points="1296.94,-190.063 1286.62,-187.655 1293.19,-195.971 1296.94,-190.063"/>
</g>
<!-- Node29&#45;&gt;Node2 -->
<g id="edge40" class="edge"><title>Node29&#45;&gt;Node2</title>
<path fill="none" stroke="midnightblue" d="M1412.39,-168.324C1428.67,-159.703 1453.87,-146.364 1472.72,-136.386"/>
<polygon fill="midnightblue" stroke="midnightblue" points="1474.45,-139.427 1481.65,-131.655 1471.18,-133.24 1474.45,-139.427"/>
</g>
<!-- Node29&#45;&gt;Node3 -->
<g id="edge39" class="edge"><title>Node29&#45;&gt;Node3</title>
<path fill="none" stroke="midnightblue" d="M1401.05,-168.249C1406.06,-159.334 1413.72,-145.008 1419,-132 1425.24,-116.615 1430.66,-98.5189 1434.28,-85.3325"/>
<polygon fill="midnightblue" stroke="midnightblue" points="1437.69,-86.1415 1436.87,-75.578 1430.92,-84.3435 1437.69,-86.1415"/>
</g>
<!-- Node29&#45;&gt;Node21 -->
<g id="edge38" class="edge"><title>Node29&#45;&gt;Node21</title>
<path fill="none" stroke="midnightblue" d="M1360.32,-169.859C1311.31,-160.021 1224.75,-142.529 1177.36,-131.983"/>
<polygon fill="midnightblue" stroke="midnightblue" points="1177.84,-128.503 1167.32,-129.715 1176.3,-135.331 1177.84,-128.503"/>
</g>
<!-- Node30 -->
<g id="node30" class="node"><title>Node30</title>
<polygon fill="white" stroke="#bfbfbf" points="1381.5,-112.5 1381.5,-131.5 1410.5,-131.5 1410.5,-112.5 1381.5,-112.5"/>
<text text-anchor="middle" x="1396" y="-119.5" font-family="Helvetica,sans-Serif" font-size="10.00">list</text>
</g>
<!-- Node29&#45;&gt;Node30 -->
<g id="edge41" class="edge"><title>Node29&#45;&gt;Node30</title>
<path fill="none" stroke="midnightblue" d="M1396,-168.083C1396,-161.006 1396,-150.861 1396,-141.986"/>
<polygon fill="midnightblue" stroke="midnightblue" points="1399.5,-141.751 1396,-131.751 1392.5,-141.751 1399.5,-141.751"/>
</g>
<!-- Node31&#45;&gt;Node5 -->
<g id="edge43" class="edge"><title>Node31&#45;&gt;Node5</title>
<path fill="none" stroke="midnightblue" d="M1203.95,-169.406C1098.16,-157.771 899.677,-135.942 818.256,-126.987"/>
<polygon fill="midnightblue" stroke="midnightblue" points="818.339,-123.476 808.016,-125.861 817.574,-130.434 818.339,-123.476"/>
</g>
<!-- Node31&#45;&gt;Node21 -->
<g id="edge45" class="edge"><title>Node31&#45;&gt;Node21</title>
<path fill="none" stroke="midnightblue" d="M1252.08,-168.444C1230.26,-159.517 1195.85,-145.439 1171.11,-135.317"/>
<polygon fill="midnightblue" stroke="midnightblue" points="1172.4,-132.063 1161.82,-131.516 1169.75,-138.542 1172.4,-132.063"/>
</g>
<!-- Node32 -->
<g id="node32" class="node"><title>Node32</title>
<g id="a_node32"><a xlink:href="NonCopyable_8h.html" target="_top" xlink:title="common/NonCopyable.h">
<polygon fill="white" stroke="black" points="1185.5,-112.5 1185.5,-131.5 1310.5,-131.5 1310.5,-112.5 1185.5,-112.5"/>
<text text-anchor="middle" x="1248" y="-119.5" font-family="Helvetica,sans-Serif" font-size="10.00">common/NonCopyable.h</text>
</a>
</g>
</g>
<!-- Node31&#45;&gt;Node32 -->
<g id="edge44" class="edge"><title>Node31&#45;&gt;Node32</title>
<path fill="none" stroke="midnightblue" d="M1268.87,-168.083C1265.49,-160.77 1260.58,-150.181 1256.38,-141.103"/>
<polygon fill="midnightblue" stroke="midnightblue" points="1259.43,-139.355 1252.05,-131.751 1253.08,-142.296 1259.43,-139.355"/>
</g>
<!-- Node33 -->
<g id="node33" class="node"><title>Node33</title>
<polygon fill="white" stroke="#bfbfbf" points="1328.5,-112.5 1328.5,-131.5 1363.5,-131.5 1363.5,-112.5 1328.5,-112.5"/>
<text text-anchor="middle" x="1346" y="-119.5" font-family="Helvetica,sans-Serif" font-size="10.00">map</text>
</g>
<!-- Node31&#45;&gt;Node33 -->
<g id="edge46" class="edge"><title>Node31&#45;&gt;Node33</title>
<path fill="none" stroke="midnightblue" d="M1284.73,-168.324C1295.84,-160.107 1312.74,-147.602 1325.98,-137.807"/>
<polygon fill="midnightblue" stroke="midnightblue" points="1328.1,-140.595 1334.06,-131.834 1323.94,-134.967 1328.1,-140.595"/>
</g>
<!-- Node34&#45;&gt;Node22 -->
<g id="edge49" class="edge"><title>Node34&#45;&gt;Node22</title>
<path fill="none" stroke="midnightblue" d="M1067.71,-336.444C1090.35,-327.517 1126.07,-313.439 1151.75,-303.317"/>
<polygon fill="midnightblue" stroke="midnightblue" points="1153.37,-306.44 1161.39,-299.516 1150.81,-299.927 1153.37,-306.44"/>
</g>
</g>
</svg>
