<?xml version="1.0" encoding="UTF-8" standalone="no"?>
<!DOCTYPE svg PUBLIC "-//W3C//DTD SVG 1.1//EN"
 "http://www.w3.org/Graphics/SVG/1.1/DTD/svg11.dtd">
<!-- Generated by graphviz version 2.36.0 (20140111.2315)
 -->
<!-- Title: /home/travis/build/mgerhardy/simpleai/src/ai/server/AIStateMessage.h Pages: 1 -->
<svg width="1929pt" height="554pt"
 viewBox="0.00 0.00 1929.00 554.00" xmlns="http://www.w3.org/2000/svg" xmlns:xlink="http://www.w3.org/1999/xlink">
<g id="graph0" class="graph" transform="scale(1 1) rotate(0) translate(4 550)">
<title>/home/travis/build/mgerhardy/simpleai/src/ai/server/AIStateMessage.h</title>
<polygon fill="white" stroke="none" points="-4,4 -4,-550 1925,-550 1925,4 -4,4"/>
<!-- Node1 -->
<g id="node1" class="node"><title>Node1</title>
<polygon fill="#bfbfbf" stroke="black" points="1212,-504.5 1212,-545.5 1370,-545.5 1370,-504.5 1212,-504.5"/>
<text text-anchor="start" x="1220" y="-533.5" font-family="Helvetica,sans-Serif" font-size="10.00">/home/travis/build</text>
<text text-anchor="start" x="1220" y="-522.5" font-family="Helvetica,sans-Serif" font-size="10.00">/mgerhardy/simpleai</text>
<text text-anchor="middle" x="1291" y="-511.5" font-family="Helvetica,sans-Serif" font-size="10.00">/src/ai/server/AIStateMessage.h</text>
</g>
<!-- Node2 -->
<g id="node2" class="node"><title>Node2</title>
<g id="a_node2"><a xlink:href="IProtocolMessage_8h.html" target="_top" xlink:title="IProtocolMessage.h">
<polygon fill="white" stroke="black" points="138,-448.5 138,-467.5 242,-467.5 242,-448.5 138,-448.5"/>
<text text-anchor="middle" x="190" y="-455.5" font-family="Helvetica,sans-Serif" font-size="10.00">IProtocolMessage.h</text>
</a>
</g>
</g>
<!-- Node1&#45;&gt;Node2 -->
<g id="edge1" class="edge"><title>Node1&#45;&gt;Node2</title>
<path fill="none" stroke="midnightblue" d="M1211.82,-519.325C1002.9,-506.992 439.986,-473.758 252.046,-462.663"/>
<polygon fill="midnightblue" stroke="midnightblue" points="252.246,-459.169 242.057,-462.073 251.834,-466.157 252.246,-459.169"/>
</g>
<!-- Node8 -->
<g id="node8" class="node"><title>Node8</title>
<g id="a_node8"><a xlink:href="AIStubTypes_8h.html" target="_top" xlink:title="AIStubTypes.h">
<polygon fill="white" stroke="black" points="1250,-448.5 1250,-467.5 1332,-467.5 1332,-448.5 1250,-448.5"/>
<text text-anchor="middle" x="1291" y="-455.5" font-family="Helvetica,sans-Serif" font-size="10.00">AIStubTypes.h</text>
</a>
</g>
</g>
<!-- Node1&#45;&gt;Node8 -->
<g id="edge7" class="edge"><title>Node1&#45;&gt;Node8</title>
<path fill="none" stroke="midnightblue" d="M1291,-504.498C1291,-496.065 1291,-486.235 1291,-477.874"/>
<polygon fill="midnightblue" stroke="midnightblue" points="1294.5,-477.652 1291,-467.652 1287.5,-477.653 1294.5,-477.652"/>
</g>
<!-- Node9 -->
<g id="node9" class="node"><title>Node9</title>
<polygon fill="white" stroke="#bfbfbf" points="1728,-112.5 1728,-131.5 1772,-131.5 1772,-112.5 1728,-112.5"/>
<text text-anchor="middle" x="1750" y="-119.5" font-family="Helvetica,sans-Serif" font-size="10.00">vector</text>
</g>
<!-- Node1&#45;&gt;Node9 -->
<g id="edge61" class="edge"><title>Node1&#45;&gt;Node9</title>
<path fill="none" stroke="midnightblue" d="M1370.28,-518.798C1468.75,-509.419 1639.21,-483.417 1766,-412 1796.4,-394.879 1807.8,-388.29 1821,-356 1843.21,-301.698 1828.66,-282.165 1821,-224 1817.64,-198.454 1820.07,-189.584 1806,-168 1797.88,-155.552 1785.19,-144.943 1773.94,-137.158"/>
<polygon fill="midnightblue" stroke="midnightblue" points="1775.63,-134.08 1765.34,-131.539 1771.8,-139.939 1775.63,-134.08"/>
</g>
<!-- Node3 -->
<g id="node3" class="node"><title>Node3</title>
<polygon fill="white" stroke="#bfbfbf" points="197.5,-392.5 197.5,-411.5 246.5,-411.5 246.5,-392.5 197.5,-392.5"/>
<text text-anchor="middle" x="222" y="-399.5" font-family="Helvetica,sans-Serif" font-size="10.00">stdint.h</text>
</g>
<!-- Node2&#45;&gt;Node3 -->
<g id="edge2" class="edge"><title>Node2&#45;&gt;Node3</title>
<path fill="none" stroke="midnightblue" d="M195.284,-448.083C199.711,-440.613 206.163,-429.724 211.618,-420.52"/>
<polygon fill="midnightblue" stroke="midnightblue" points="214.727,-422.138 216.814,-411.751 208.705,-418.57 214.727,-422.138"/>
</g>
<!-- Node4 -->
<g id="node4" class="node"><title>Node4</title>
<polygon fill="white" stroke="#bfbfbf" points="0,-392.5 0,-411.5 52,-411.5 52,-392.5 0,-392.5"/>
<text text-anchor="middle" x="26" y="-399.5" font-family="Helvetica,sans-Serif" font-size="10.00">stddef.h</text>
</g>
<!-- Node2&#45;&gt;Node4 -->
<g id="edge3" class="edge"><title>Node2&#45;&gt;Node4</title>
<path fill="none" stroke="midnightblue" d="M164.014,-448.444C136.304,-439.32 92.2477,-424.813 61.3843,-414.651"/>
<polygon fill="midnightblue" stroke="midnightblue" points="62.4577,-411.32 51.8647,-411.516 60.2684,-417.968 62.4577,-411.32"/>
</g>
<!-- Node5 -->
<g id="node5" class="node"><title>Node5</title>
<polygon fill="white" stroke="#bfbfbf" points="70,-392.5 70,-411.5 118,-411.5 118,-392.5 70,-392.5"/>
<text text-anchor="middle" x="94" y="-399.5" font-family="Helvetica,sans-Serif" font-size="10.00">limits.h</text>
</g>
<!-- Node2&#45;&gt;Node5 -->
<g id="edge4" class="edge"><title>Node2&#45;&gt;Node5</title>
<path fill="none" stroke="midnightblue" d="M174.576,-448.324C159.46,-439.822 136.185,-426.729 118.529,-416.797"/>
<polygon fill="midnightblue" stroke="midnightblue" points="119.817,-413.507 109.386,-411.655 116.386,-419.608 119.817,-413.507"/>
</g>
<!-- Node6 -->
<g id="node6" class="node"><title>Node6</title>
<polygon fill="white" stroke="#bfbfbf" points="1344.5,-56.5 1344.5,-75.5 1385.5,-75.5 1385.5,-56.5 1344.5,-56.5"/>
<text text-anchor="middle" x="1365" y="-63.5" font-family="Helvetica,sans-Serif" font-size="10.00">string</text>
</g>
<!-- Node2&#45;&gt;Node6 -->
<g id="edge5" class="edge"><title>Node2&#45;&gt;Node6</title>
<path fill="none" stroke="midnightblue" d="M208.539,-448.482C223.152,-440.87 243.002,-428.391 255,-412 272.853,-387.61 275,-377.225 275,-347 275,-347 275,-347 275,-177 275,-122.275 1156.22,-77.0309 1333.97,-68.4611"/>
<polygon fill="midnightblue" stroke="midnightblue" points="1334.38,-71.9458 1344.2,-67.9713 1334.04,-64.9539 1334.38,-71.9458"/>
</g>
<!-- Node7 -->
<g id="node7" class="node"><title>Node7</title>
<polygon fill="white" stroke="#bfbfbf" points="136.5,-392.5 136.5,-411.5 179.5,-411.5 179.5,-392.5 136.5,-392.5"/>
<text text-anchor="middle" x="158" y="-399.5" font-family="Helvetica,sans-Serif" font-size="10.00">deque</text>
</g>
<!-- Node2&#45;&gt;Node7 -->
<g id="edge6" class="edge"><title>Node2&#45;&gt;Node7</title>
<path fill="none" stroke="midnightblue" d="M184.716,-448.083C180.289,-440.613 173.837,-429.724 168.382,-420.52"/>
<polygon fill="midnightblue" stroke="midnightblue" points="171.295,-418.57 163.186,-411.751 165.273,-422.138 171.295,-418.57"/>
</g>
<!-- Node8&#45;&gt;Node6 -->
<g id="edge9" class="edge"><title>Node8&#45;&gt;Node6</title>
<path fill="none" stroke="midnightblue" d="M1332.12,-456.05C1432.48,-453.264 1687.49,-443.233 1766,-412 1847.2,-379.694 1921,-378.394 1921,-291 1921,-291 1921,-291 1921,-177 1921,-69.0562 1512.61,-65.3396 1395.84,-66.4832"/>
<polygon fill="midnightblue" stroke="midnightblue" points="1395.74,-62.9841 1385.78,-66.6015 1395.82,-69.9836 1395.74,-62.9841"/>
</g>
<!-- Node8&#45;&gt;Node9 -->
<g id="edge8" class="edge"><title>Node8&#45;&gt;Node9</title>
<path fill="none" stroke="midnightblue" d="M1332.35,-456.965C1454.8,-455.757 1807,-443.863 1807,-347 1807,-347 1807,-347 1807,-233 1807,-196.3 1781.68,-159.657 1764.79,-139.297"/>
<polygon fill="midnightblue" stroke="midnightblue" points="1767.35,-136.904 1758.17,-131.616 1762.05,-141.475 1767.35,-136.904"/>
</g>
<!-- Node10 -->
<g id="node10" class="node"><title>Node10</title>
<g id="a_node10"><a xlink:href="Math_8h.html" target="_top" xlink:title="common/Math.h">
<polygon fill="white" stroke="black" points="681.5,-392.5 681.5,-411.5 768.5,-411.5 768.5,-392.5 681.5,-392.5"/>
<text text-anchor="middle" x="725" y="-399.5" font-family="Helvetica,sans-Serif" font-size="10.00">common/Math.h</text>
</a>
</g>
</g>
<!-- Node8&#45;&gt;Node10 -->
<g id="edge10" class="edge"><title>Node8&#45;&gt;Node10</title>
<path fill="none" stroke="midnightblue" d="M1249.84,-453.073C1149.31,-443.482 891.324,-418.868 778.813,-408.134"/>
<polygon fill="midnightblue" stroke="midnightblue" points="778.998,-404.636 768.711,-407.17 778.333,-411.604 778.998,-404.636"/>
</g>
<!-- Node11 -->
<g id="node11" class="node"><title>Node11</title>
<g id="a_node11"><a xlink:href="Types_8h.html" target="_top" xlink:title="Types.h">
<polygon fill="white" stroke="black" points="986,-112.5 986,-131.5 1038,-131.5 1038,-112.5 986,-112.5"/>
<text text-anchor="middle" x="1012" y="-119.5" font-family="Helvetica,sans-Serif" font-size="10.00">Types.h</text>
</a>
</g>
</g>
<!-- Node8&#45;&gt;Node11 -->
<g id="edge27" class="edge"><title>Node8&#45;&gt;Node11</title>
<path fill="none" stroke="midnightblue" d="M1249.91,-456.767C1064.29,-455.181 313,-442.843 313,-347 313,-347 313,-347 313,-233 313,-165.211 832.643,-132.544 975.845,-124.829"/>
<polygon fill="midnightblue" stroke="midnightblue" points="976.074,-128.322 985.874,-124.296 975.703,-121.331 976.074,-128.322"/>
</g>
<!-- Node25 -->
<g id="node25" class="node"><title>Node25</title>
<g id="a_node25"><a xlink:href="TreeNode_8h.html" target="_top" xlink:title="tree/TreeNode.h">
<polygon fill="white" stroke="black" points="1247.5,-392.5 1247.5,-411.5 1334.5,-411.5 1334.5,-392.5 1247.5,-392.5"/>
<text text-anchor="middle" x="1291" y="-399.5" font-family="Helvetica,sans-Serif" font-size="10.00">tree/TreeNode.h</text>
</a>
</g>
</g>
<!-- Node8&#45;&gt;Node25 -->
<g id="edge28" class="edge"><title>Node8&#45;&gt;Node25</title>
<path fill="none" stroke="midnightblue" d="M1291,-448.083C1291,-441.006 1291,-430.861 1291,-421.986"/>
<polygon fill="midnightblue" stroke="midnightblue" points="1294.5,-421.751 1291,-411.751 1287.5,-421.751 1294.5,-421.751"/>
</g>
<!-- Node10&#45;&gt;Node11 -->
<g id="edge11" class="edge"><title>Node10&#45;&gt;Node11</title>
<path fill="none" stroke="midnightblue" d="M725,-392.442C725,-373.936 725,-328.812 725,-291 725,-291 725,-291 725,-233 725,-179.934 898.241,-142.927 975.529,-129.057"/>
<polygon fill="midnightblue" stroke="midnightblue" points="976.528,-132.435 985.77,-127.254 975.314,-125.541 976.528,-132.435"/>
</g>
<!-- Node18 -->
<g id="node18" class="node"><title>Node18</title>
<polygon fill="white" stroke="#bfbfbf" points="753,-336.5 753,-355.5 823,-355.5 823,-336.5 753,-336.5"/>
<text text-anchor="middle" x="788" y="-343.5" font-family="Helvetica,sans-Serif" font-size="10.00">glm/glm.hpp</text>
</g>
<!-- Node10&#45;&gt;Node18 -->
<g id="edge20" class="edge"><title>Node10&#45;&gt;Node18</title>
<path fill="none" stroke="midnightblue" d="M735.122,-392.324C744.526,-384.263 758.744,-372.077 770.069,-362.369"/>
<polygon fill="midnightblue" stroke="midnightblue" points="772.379,-364.999 777.694,-355.834 767.823,-359.684 772.379,-364.999"/>
</g>
<!-- Node19 -->
<g id="node19" class="node"><title>Node19</title>
<polygon fill="white" stroke="#bfbfbf" points="841.5,-336.5 841.5,-355.5 954.5,-355.5 954.5,-336.5 841.5,-336.5"/>
<text text-anchor="middle" x="898" y="-343.5" font-family="Helvetica,sans-Serif" font-size="10.00">glm/gtc/constants.hpp</text>
</g>
<!-- Node10&#45;&gt;Node19 -->
<g id="edge21" class="edge"><title>Node10&#45;&gt;Node19</title>
<path fill="none" stroke="midnightblue" d="M752.412,-392.444C781.769,-383.28 828.519,-368.688 861.096,-358.519"/>
<polygon fill="midnightblue" stroke="midnightblue" points="862.213,-361.837 870.716,-355.516 860.127,-355.155 862.213,-361.837"/>
</g>
<!-- Node20 -->
<g id="node20" class="node"><title>Node20</title>
<polygon fill="white" stroke="#bfbfbf" points="972.5,-336.5 972.5,-355.5 1073.5,-355.5 1073.5,-336.5 972.5,-336.5"/>
<text text-anchor="middle" x="1023" y="-343.5" font-family="Helvetica,sans-Serif" font-size="10.00">glm/gtc/epsilon.hpp</text>
</g>
<!-- Node10&#45;&gt;Node20 -->
<g id="edge22" class="edge"><title>Node10&#45;&gt;Node20</title>
<path fill="none" stroke="midnightblue" d="M768.651,-393.09C820.809,-383.639 908.228,-367.798 965.759,-357.372"/>
<polygon fill="midnightblue" stroke="midnightblue" points="966.569,-360.783 975.785,-355.556 965.321,-353.895 966.569,-360.783"/>
</g>
<!-- Node21 -->
<g id="node21" class="node"><title>Node21</title>
<polygon fill="white" stroke="#bfbfbf" points="341.5,-336.5 341.5,-355.5 466.5,-355.5 466.5,-336.5 341.5,-336.5"/>
<text text-anchor="middle" x="404" y="-343.5" font-family="Helvetica,sans-Serif" font-size="10.00">glm/gtx/compatibility.hpp</text>
</g>
<!-- Node10&#45;&gt;Node21 -->
<g id="edge23" class="edge"><title>Node10&#45;&gt;Node21</title>
<path fill="none" stroke="midnightblue" d="M681.374,-393.661C625.434,-384.251 528.123,-367.88 464.903,-357.245"/>
<polygon fill="midnightblue" stroke="midnightblue" points="465.116,-353.732 454.674,-355.525 463.955,-360.635 465.116,-353.732"/>
</g>
<!-- Node22 -->
<g id="node22" class="node"><title>Node22</title>
<polygon fill="white" stroke="#bfbfbf" points="485,-336.5 485,-355.5 577,-355.5 577,-336.5 485,-336.5"/>
<text text-anchor="middle" x="531" y="-343.5" font-family="Helvetica,sans-Serif" font-size="10.00">glm/gtx/norm.hpp</text>
</g>
<!-- Node10&#45;&gt;Node22 -->
<g id="edge24" class="edge"><title>Node10&#45;&gt;Node22</title>
<path fill="none" stroke="midnightblue" d="M694.26,-392.444C661.056,-383.201 608.009,-368.436 571.443,-358.257"/>
<polygon fill="midnightblue" stroke="midnightblue" points="572.168,-354.826 561.596,-355.516 570.291,-361.57 572.168,-354.826"/>
</g>
<!-- Node23 -->
<g id="node23" class="node"><title>Node23</title>
<polygon fill="white" stroke="#bfbfbf" points="595,-336.5 595,-355.5 635,-355.5 635,-336.5 595,-336.5"/>
<text text-anchor="middle" x="615" y="-343.5" font-family="Helvetica,sans-Serif" font-size="10.00">limits</text>
</g>
<!-- Node10&#45;&gt;Node23 -->
<g id="edge25" class="edge"><title>Node10&#45;&gt;Node23</title>
<path fill="none" stroke="midnightblue" d="M707.327,-392.324C689.606,-383.625 662.097,-370.12 641.712,-360.113"/>
<polygon fill="midnightblue" stroke="midnightblue" points="643.149,-356.919 632.63,-355.655 640.064,-363.203 643.149,-356.919"/>
</g>
<!-- Node24 -->
<g id="node24" class="node"><title>Node24</title>
<polygon fill="white" stroke="#bfbfbf" points="653,-336.5 653,-355.5 697,-355.5 697,-336.5 653,-336.5"/>
<text text-anchor="middle" x="675" y="-343.5" font-family="Helvetica,sans-Serif" font-size="10.00">cmath</text>
</g>
<!-- Node10&#45;&gt;Node24 -->
<g id="edge26" class="edge"><title>Node10&#45;&gt;Node24</title>
<path fill="none" stroke="midnightblue" d="M716.744,-392.083C709.535,-384.298 698.89,-372.801 690.154,-363.367"/>
<polygon fill="midnightblue" stroke="midnightblue" points="692.465,-360.711 683.103,-355.751 687.329,-365.467 692.465,-360.711"/>
</g>
<!-- Node11&#45;&gt;Node6 -->
<g id="edge16" class="edge"><title>Node11&#45;&gt;Node6</title>
<path fill="none" stroke="midnightblue" d="M1038.24,-116.985C1102.1,-107.218 1265.33,-82.2466 1333.91,-71.7554"/>
<polygon fill="midnightblue" stroke="midnightblue" points="1334.72,-75.1725 1344.08,-70.2005 1333.66,-68.253 1334.72,-75.1725"/>
</g>
<!-- Node12 -->
<g id="node12" class="node"><title>Node12</title>
<g id="a_node12"><a xlink:href="Log_8h.html" target="_top" xlink:title="Log.h">
<polygon fill="white" stroke="black" points="1096.5,-56.5 1096.5,-75.5 1137.5,-75.5 1137.5,-56.5 1096.5,-56.5"/>
<text text-anchor="middle" x="1117" y="-63.5" font-family="Helvetica,sans-Serif" font-size="10.00">Log.h</text>
</a>
</g>
</g>
<!-- Node11&#45;&gt;Node12 -->
<g id="edge12" class="edge"><title>Node11&#45;&gt;Node12</title>
<path fill="none" stroke="midnightblue" d="M1028.87,-112.324C1045.71,-103.664 1071.81,-90.2424 1091.24,-80.249"/>
<polygon fill="midnightblue" stroke="midnightblue" points="1092.88,-83.3405 1100.17,-75.6545 1089.68,-77.1155 1092.88,-83.3405"/>
</g>
<!-- Node13 -->
<g id="node13" class="node"><title>Node13</title>
<polygon fill="white" stroke="#bfbfbf" points="955.5,-0.5 955.5,-19.5 998.5,-19.5 998.5,-0.5 955.5,-0.5"/>
<text text-anchor="middle" x="977" y="-7.5" font-family="Helvetica,sans-Serif" font-size="10.00">cstdio</text>
</g>
<!-- Node11&#45;&gt;Node13 -->
<g id="edge19" class="edge"><title>Node11&#45;&gt;Node13</title>
<path fill="none" stroke="midnightblue" d="M985.596,-116.19C963.554,-110.632 933.484,-99.0983 919,-76 906.752,-56.467 929.657,-37.1485 950.192,-24.7152"/>
<polygon fill="midnightblue" stroke="midnightblue" points="952.082,-27.6666 959.032,-19.6694 948.612,-21.5873 952.082,-27.6666"/>
</g>
<!-- Node16 -->
<g id="node16" class="node"><title>Node16</title>
<polygon fill="white" stroke="#bfbfbf" points="928.5,-56.5 928.5,-75.5 1011.5,-75.5 1011.5,-56.5 928.5,-56.5"/>
<text text-anchor="middle" x="970" y="-63.5" font-family="Helvetica,sans-Serif" font-size="10.00">unordered_map</text>
</g>
<!-- Node11&#45;&gt;Node16 -->
<g id="edge17" class="edge"><title>Node11&#45;&gt;Node16</title>
<path fill="none" stroke="midnightblue" d="M1005.06,-112.083C999.071,-104.377 990.248,-93.0333 982.952,-83.6531"/>
<polygon fill="midnightblue" stroke="midnightblue" points="985.709,-81.4958 976.806,-75.7511 980.183,-85.7934 985.709,-81.4958"/>
</g>
<!-- Node17 -->
<g id="node17" class="node"><title>Node17</title>
<polygon fill="white" stroke="#bfbfbf" points="1029.5,-56.5 1029.5,-75.5 1078.5,-75.5 1078.5,-56.5 1029.5,-56.5"/>
<text text-anchor="middle" x="1054" y="-63.5" font-family="Helvetica,sans-Serif" font-size="10.00">cassert</text>
</g>
<!-- Node11&#45;&gt;Node17 -->
<g id="edge18" class="edge"><title>Node11&#45;&gt;Node17</title>
<path fill="none" stroke="midnightblue" d="M1018.94,-112.083C1024.93,-104.377 1033.75,-93.0333 1041.05,-83.6531"/>
<polygon fill="midnightblue" stroke="midnightblue" points="1043.82,-85.7934 1047.19,-75.7511 1038.29,-81.4958 1043.82,-85.7934"/>
</g>
<!-- Node12&#45;&gt;Node13 -->
<g id="edge13" class="edge"><title>Node12&#45;&gt;Node13</title>
<path fill="none" stroke="midnightblue" d="M1096.34,-57.0321C1073.04,-48.0437 1034.89,-33.3298 1008.01,-22.9609"/>
<polygon fill="midnightblue" stroke="midnightblue" points="1009.25,-19.6893 998.664,-19.3561 1006.73,-26.2204 1009.25,-19.6893"/>
</g>
<!-- Node14 -->
<g id="node14" class="node"><title>Node14</title>
<polygon fill="white" stroke="#bfbfbf" points="1125.5,-0.5 1125.5,-19.5 1174.5,-19.5 1174.5,-0.5 1125.5,-0.5"/>
<text text-anchor="middle" x="1150" y="-7.5" font-family="Helvetica,sans-Serif" font-size="10.00">cstdarg</text>
</g>
<!-- Node12&#45;&gt;Node14 -->
<g id="edge14" class="edge"><title>Node12&#45;&gt;Node14</title>
<path fill="none" stroke="midnightblue" d="M1122.45,-56.083C1127.01,-48.6127 1133.67,-37.7244 1139.29,-28.5199"/>
<polygon fill="midnightblue" stroke="midnightblue" points="1142.42,-30.109 1144.65,-19.7511 1136.45,-26.4588 1142.42,-30.109"/>
</g>
<!-- Node15 -->
<g id="node15" class="node"><title>Node15</title>
<polygon fill="white" stroke="#bfbfbf" points="1061,-0.5 1061,-19.5 1107,-19.5 1107,-0.5 1061,-0.5"/>
<text text-anchor="middle" x="1084" y="-7.5" font-family="Helvetica,sans-Serif" font-size="10.00">cstring</text>
</g>
<!-- Node12&#45;&gt;Node15 -->
<g id="edge15" class="edge"><title>Node12&#45;&gt;Node15</title>
<path fill="none" stroke="midnightblue" d="M1111.55,-56.083C1106.99,-48.6127 1100.33,-37.7244 1094.71,-28.5199"/>
<polygon fill="midnightblue" stroke="midnightblue" points="1097.55,-26.4588 1089.35,-19.7511 1091.58,-30.109 1097.55,-26.4588"/>
</g>
<!-- Node25&#45;&gt;Node6 -->
<g id="edge58" class="edge"><title>Node25&#45;&gt;Node6</title>
<path fill="none" stroke="midnightblue" d="M1334.61,-399.424C1429.76,-395.509 1653.03,-383.595 1723,-356 1805.94,-323.291 1883,-324.156 1883,-235 1883,-235 1883,-235 1883,-177 1883,-76.794 1507.4,-67.4834 1395.87,-66.9277"/>
<polygon fill="midnightblue" stroke="midnightblue" points="1395.64,-63.4271 1385.63,-66.8982 1395.62,-70.427 1395.64,-63.4271"/>
</g>
<!-- Node25&#45;&gt;Node9 -->
<g id="edge57" class="edge"><title>Node25&#45;&gt;Node9</title>
<path fill="none" stroke="midnightblue" d="M1334.69,-400.201C1452.69,-396.869 1769,-379.668 1769,-291 1769,-291 1769,-291 1769,-233 1769,-200.489 1760.84,-163.35 1755.22,-141.61"/>
<polygon fill="midnightblue" stroke="midnightblue" points="1758.54,-140.498 1752.56,-131.751 1751.78,-142.317 1758.54,-140.498"/>
</g>
<!-- Node25&#45;&gt;Node11 -->
<g id="edge29" class="edge"><title>Node25&#45;&gt;Node11</title>
<path fill="none" stroke="midnightblue" d="M1247.4,-393.692C1178.11,-379.34 1045.96,-340.056 1000,-244 983.968,-210.493 995.644,-165.882 1004.51,-141.262"/>
<polygon fill="midnightblue" stroke="midnightblue" points="1007.85,-142.336 1008.17,-131.746 1001.31,-139.827 1007.85,-142.336"/>
</g>
<!-- Node26 -->
<g id="node26" class="node"><title>Node26</title>
<g id="a_node26"><a xlink:href="MemoryAllocator_8h.html" target="_top" xlink:title="common/MemoryAllocator.h">
<polygon fill="white" stroke="black" points="1009.5,-224.5 1009.5,-243.5 1148.5,-243.5 1148.5,-224.5 1009.5,-224.5"/>
<text text-anchor="middle" x="1079" y="-231.5" font-family="Helvetica,sans-Serif" font-size="10.00">common/MemoryAllocator.h</text>
</a>
</g>
</g>
<!-- Node25&#45;&gt;Node26 -->
<g id="edge30" class="edge"><title>Node25&#45;&gt;Node26</title>
<path fill="none" stroke="midnightblue" d="M1247.49,-392.622C1221.34,-385.968 1188.5,-374.603 1164,-356 1127,-327.902 1099.83,-279.06 1087.09,-252.846"/>
<polygon fill="midnightblue" stroke="midnightblue" points="1090.21,-251.262 1082.79,-243.704 1083.88,-254.242 1090.21,-251.262"/>
</g>
<!-- Node27 -->
<g id="node27" class="node"><title>Node27</title>
<polygon fill="white" stroke="#bfbfbf" points="1211,-112.5 1211,-131.5 1263,-131.5 1263,-112.5 1211,-112.5"/>
<text text-anchor="middle" x="1237" y="-119.5" font-family="Helvetica,sans-Serif" font-size="10.00">memory</text>
</g>
<!-- Node25&#45;&gt;Node27 -->
<g id="edge59" class="edge"><title>Node25&#45;&gt;Node27</title>
<path fill="none" stroke="midnightblue" d="M1252.15,-392.364C1232.62,-385.847 1210.67,-374.704 1199,-356 1155.3,-285.975 1203.87,-181.925 1226.59,-140.723"/>
<polygon fill="midnightblue" stroke="midnightblue" points="1229.72,-142.292 1231.61,-131.867 1223.63,-138.838 1229.72,-142.292"/>
</g>
<!-- Node28 -->
<g id="node28" class="node"><title>Node28</title>
<g id="a_node28"><a xlink:href="ICondition_8h.html" target="_top" xlink:title="Condition related stuff. ">
<polygon fill="white" stroke="black" points="1270,-280.5 1270,-299.5 1386,-299.5 1386,-280.5 1270,-280.5"/>
<text text-anchor="middle" x="1328" y="-287.5" font-family="Helvetica,sans-Serif" font-size="10.00">conditions/ICondition.h</text>
</a>
</g>
</g>
<!-- Node25&#45;&gt;Node28 -->
<g id="edge32" class="edge"><title>Node25&#45;&gt;Node28</title>
<path fill="none" stroke="midnightblue" d="M1294.7,-392.466C1298.52,-383.483 1304.55,-368.885 1309,-356 1314.34,-340.546 1319.48,-322.701 1323.07,-309.623"/>
<polygon fill="midnightblue" stroke="midnightblue" points="1326.46,-310.483 1325.69,-299.916 1319.7,-308.661 1326.46,-310.483"/>
</g>
<!-- Node40 -->
<g id="node40" class="node"><title>Node40</title>
<g id="a_node40"><a xlink:href="True_8h.html" target="_top" xlink:title="conditions/True.h">
<polygon fill="white" stroke="black" points="1208,-336.5 1208,-355.5 1300,-355.5 1300,-336.5 1208,-336.5"/>
<text text-anchor="middle" x="1254" y="-343.5" font-family="Helvetica,sans-Serif" font-size="10.00">conditions/True.h</text>
</a>
</g>
</g>
<!-- Node25&#45;&gt;Node40 -->
<g id="edge55" class="edge"><title>Node25&#45;&gt;Node40</title>
<path fill="none" stroke="midnightblue" d="M1284.89,-392.083C1279.72,-384.534 1272.15,-373.495 1265.81,-364.23"/>
<polygon fill="midnightblue" stroke="midnightblue" points="1268.54,-362.022 1260,-355.751 1262.76,-365.979 1268.54,-362.022"/>
</g>
<!-- Node41 -->
<g id="node41" class="node"><title>Node41</title>
<polygon fill="white" stroke="#bfbfbf" points="1356,-336.5 1356,-355.5 1412,-355.5 1412,-336.5 1356,-336.5"/>
<text text-anchor="middle" x="1384" y="-343.5" font-family="Helvetica,sans-Serif" font-size="10.00">algorithm</text>
</g>
<!-- Node25&#45;&gt;Node41 -->
<g id="edge60" class="edge"><title>Node25&#45;&gt;Node41</title>
<path fill="none" stroke="midnightblue" d="M1305.94,-392.324C1320.59,-383.822 1343.13,-370.729 1360.24,-360.797"/>
<polygon fill="midnightblue" stroke="midnightblue" points="1362.2,-363.703 1369.1,-355.655 1358.69,-357.649 1362.2,-363.703"/>
</g>
<!-- Node26&#45;&gt;Node27 -->
<g id="edge31" class="edge"><title>Node26&#45;&gt;Node27</title>
<path fill="none" stroke="midnightblue" d="M1084,-224.28C1092.22,-210.616 1109.81,-184.066 1131,-168 1152,-152.078 1179.48,-140.622 1201.19,-133.254"/>
<polygon fill="midnightblue" stroke="midnightblue" points="1202.29,-136.576 1210.72,-130.155 1200.13,-129.92 1202.29,-136.576"/>
</g>
<!-- Node28&#45;&gt;Node6 -->
<g id="edge33" class="edge"><title>Node28&#45;&gt;Node6</title>
<path fill="none" stroke="midnightblue" d="M1306.21,-280.471C1289.52,-272.998 1266.9,-260.712 1252,-244 1210.26,-197.17 1164,-161.915 1202,-112 1217.94,-91.0589 1291.52,-77.3767 1334.17,-71.0581"/>
<polygon fill="midnightblue" stroke="midnightblue" points="1334.89,-74.4909 1344.29,-69.6104 1333.9,-67.5614 1334.89,-74.4909"/>
</g>
<!-- Node28&#45;&gt;Node9 -->
<g id="edge34" class="edge"><title>Node28&#45;&gt;Node9</title>
<path fill="none" stroke="midnightblue" d="M1386.12,-286.373C1444.35,-282.221 1535.74,-271.525 1610,-244 1654.53,-227.496 1665.87,-219.96 1701,-188 1716.46,-173.936 1730.41,-154.432 1739.43,-140.465"/>
<polygon fill="midnightblue" stroke="midnightblue" points="1742.51,-142.147 1744.85,-131.815 1736.58,-138.43 1742.51,-142.147"/>
</g>
<!-- Node28&#45;&gt;Node26 -->
<g id="edge37" class="edge"><title>Node28&#45;&gt;Node26</title>
<path fill="none" stroke="midnightblue" d="M1288.55,-280.444C1245.11,-271.023 1175.21,-255.866 1128.22,-245.675"/>
<polygon fill="midnightblue" stroke="midnightblue" points="1128.78,-242.215 1118.27,-243.516 1127.3,-249.056 1128.78,-242.215"/>
</g>
<!-- Node28&#45;&gt;Node27 -->
<g id="edge36" class="edge"><title>Node28&#45;&gt;Node27</title>
<path fill="none" stroke="midnightblue" d="M1314.35,-280.219C1302.2,-271.927 1284.47,-258.61 1272,-244 1253.39,-222.196 1247.99,-215.528 1240,-188 1235.61,-172.897 1235.11,-154.997 1235.57,-141.809"/>
<polygon fill="midnightblue" stroke="midnightblue" points="1239.07,-141.802 1236.14,-131.622 1232.08,-141.41 1239.07,-141.802"/>
</g>
<!-- Node29 -->
<g id="node29" class="node"><title>Node29</title>
<polygon fill="white" stroke="#bfbfbf" points="1395,-224.5 1395,-243.5 1447,-243.5 1447,-224.5 1395,-224.5"/>
<text text-anchor="middle" x="1421" y="-231.5" font-family="Helvetica,sans-Serif" font-size="10.00">sstream</text>
</g>
<!-- Node28&#45;&gt;Node29 -->
<g id="edge35" class="edge"><title>Node28&#45;&gt;Node29</title>
<path fill="none" stroke="midnightblue" d="M1342.94,-280.324C1357.59,-271.822 1380.13,-258.729 1397.24,-248.797"/>
<polygon fill="midnightblue" stroke="midnightblue" points="1399.2,-251.703 1406.1,-243.655 1395.69,-245.649 1399.2,-251.703"/>
</g>
<!-- Node30 -->
<g id="node30" class="node"><title>Node30</title>
<g id="a_node30"><a xlink:href="Thread_8h.html" target="_top" xlink:title="common/Thread.h">
<polygon fill="white" stroke="black" points="1281.5,-224.5 1281.5,-243.5 1376.5,-243.5 1376.5,-224.5 1281.5,-224.5"/>
<text text-anchor="middle" x="1329" y="-231.5" font-family="Helvetica,sans-Serif" font-size="10.00">common/Thread.h</text>
</a>
</g>
</g>
<!-- Node28&#45;&gt;Node30 -->
<g id="edge38" class="edge"><title>Node28&#45;&gt;Node30</title>
<path fill="none" stroke="midnightblue" d="M1328.17,-280.083C1328.3,-273.006 1328.48,-262.861 1328.65,-253.986"/>
<polygon fill="midnightblue" stroke="midnightblue" points="1332.15,-253.814 1328.84,-243.751 1325.15,-253.685 1332.15,-253.814"/>
</g>
<!-- Node34 -->
<g id="node34" class="node"><title>Node34</title>
<g id="a_node34"><a xlink:href="AIFactories_8h.html" target="_top" xlink:title="AIFactories.h">
<polygon fill="white" stroke="black" points="1526.5,-224.5 1526.5,-243.5 1601.5,-243.5 1601.5,-224.5 1526.5,-224.5"/>
<text text-anchor="middle" x="1564" y="-231.5" font-family="Helvetica,sans-Serif" font-size="10.00">AIFactories.h</text>
</a>
</g>
</g>
<!-- Node28&#45;&gt;Node34 -->
<g id="edge43" class="edge"><title>Node28&#45;&gt;Node34</title>
<path fill="none" stroke="midnightblue" d="M1365.39,-280.444C1406.39,-271.063 1472.25,-255.993 1516.78,-245.804"/>
<polygon fill="midnightblue" stroke="midnightblue" points="1517.81,-249.159 1526.78,-243.516 1516.25,-242.335 1517.81,-249.159"/>
</g>
<!-- Node30&#45;&gt;Node11 -->
<g id="edge39" class="edge"><title>Node30&#45;&gt;Node11</title>
<path fill="none" stroke="midnightblue" d="M1304.39,-224.46C1248.33,-205.006 1111.01,-157.355 1046.51,-134.977"/>
<polygon fill="midnightblue" stroke="midnightblue" points="1047.41,-131.582 1036.81,-131.61 1045.11,-138.195 1047.41,-131.582"/>
</g>
<!-- Node31 -->
<g id="node31" class="node"><title>Node31</title>
<polygon fill="white" stroke="#bfbfbf" points="1249,-168.5 1249,-187.5 1293,-187.5 1293,-168.5 1249,-168.5"/>
<text text-anchor="middle" x="1271" y="-175.5" font-family="Helvetica,sans-Serif" font-size="10.00">thread</text>
</g>
<!-- Node30&#45;&gt;Node31 -->
<g id="edge40" class="edge"><title>Node30&#45;&gt;Node31</title>
<path fill="none" stroke="midnightblue" d="M1319.68,-224.324C1311.11,-216.341 1298.19,-204.313 1287.81,-194.653"/>
<polygon fill="midnightblue" stroke="midnightblue" points="1290.19,-192.086 1280.49,-187.834 1285.42,-197.21 1290.19,-192.086"/>
</g>
<!-- Node32 -->
<g id="node32" class="node"><title>Node32</title>
<polygon fill="white" stroke="#bfbfbf" points="1311,-168.5 1311,-187.5 1355,-187.5 1355,-168.5 1311,-168.5"/>
<text text-anchor="middle" x="1333" y="-175.5" font-family="Helvetica,sans-Serif" font-size="10.00">mutex</text>
</g>
<!-- Node30&#45;&gt;Node32 -->
<g id="edge41" class="edge"><title>Node30&#45;&gt;Node32</title>
<path fill="none" stroke="midnightblue" d="M1329.66,-224.083C1330.18,-217.006 1330.94,-206.861 1331.59,-197.986"/>
<polygon fill="midnightblue" stroke="midnightblue" points="1335.1,-197.982 1332.35,-187.751 1328.12,-197.465 1335.1,-197.982"/>
</g>
<!-- Node33 -->
<g id="node33" class="node"><title>Node33</title>
<polygon fill="white" stroke="#bfbfbf" points="1373,-168.5 1373,-187.5 1419,-187.5 1419,-168.5 1373,-168.5"/>
<text text-anchor="middle" x="1396" y="-175.5" font-family="Helvetica,sans-Serif" font-size="10.00">atomic</text>
</g>
<!-- Node30&#45;&gt;Node33 -->
<g id="edge42" class="edge"><title>Node30&#45;&gt;Node33</title>
<path fill="none" stroke="midnightblue" d="M1339.76,-224.324C1349.77,-216.263 1364.89,-204.077 1376.93,-194.369"/>
<polygon fill="midnightblue" stroke="midnightblue" points="1379.45,-196.834 1385.04,-187.834 1375.06,-191.384 1379.45,-196.834"/>
</g>
<!-- Node34&#45;&gt;Node9 -->
<g id="edge54" class="edge"><title>Node34&#45;&gt;Node9</title>
<path fill="none" stroke="midnightblue" d="M1591.09,-224.45C1613.85,-216.662 1646.76,-203.955 1673,-188 1696.21,-173.889 1719.58,-152.988 1734.39,-138.722"/>
<polygon fill="midnightblue" stroke="midnightblue" points="1737,-141.068 1741.68,-131.564 1732.09,-136.074 1737,-141.068"/>
</g>
<!-- Node35 -->
<g id="node35" class="node"><title>Node35</title>
<g id="a_node35"><a xlink:href="IAIFactory_8h.html" target="_top" xlink:title="IAIFactory.h">
<polygon fill="white" stroke="black" points="1593.5,-168.5 1593.5,-187.5 1664.5,-187.5 1664.5,-168.5 1593.5,-168.5"/>
<text text-anchor="middle" x="1629" y="-175.5" font-family="Helvetica,sans-Serif" font-size="10.00">IAIFactory.h</text>
</a>
</g>
</g>
<!-- Node34&#45;&gt;Node35 -->
<g id="edge44" class="edge"><title>Node34&#45;&gt;Node35</title>
<path fill="none" stroke="midnightblue" d="M1574.44,-224.324C1584.15,-216.263 1598.82,-204.077 1610.5,-194.369"/>
<polygon fill="midnightblue" stroke="midnightblue" points="1612.91,-196.916 1618.37,-187.834 1608.44,-191.532 1612.91,-196.916"/>
</g>
<!-- Node37 -->
<g id="node37" class="node"><title>Node37</title>
<g id="a_node37"><a xlink:href="IFactoryRegistry_8h.html" target="_top" xlink:title="common/IFactoryRegistry.h">
<polygon fill="white" stroke="black" points="1437,-168.5 1437,-187.5 1575,-187.5 1575,-168.5 1437,-168.5"/>
<text text-anchor="middle" x="1506" y="-175.5" font-family="Helvetica,sans-Serif" font-size="10.00">common/IFactoryRegistry.h</text>
</a>
</g>
</g>
<!-- Node34&#45;&gt;Node37 -->
<g id="edge49" class="edge"><title>Node34&#45;&gt;Node37</title>
<path fill="none" stroke="midnightblue" d="M1554.68,-224.324C1546.11,-216.341 1533.19,-204.313 1522.81,-194.653"/>
<polygon fill="midnightblue" stroke="midnightblue" points="1525.19,-192.086 1515.49,-187.834 1520.42,-197.21 1525.19,-192.086"/>
</g>
<!-- Node35&#45;&gt;Node6 -->
<g id="edge46" class="edge"><title>Node35&#45;&gt;Node6</title>
<path fill="none" stroke="midnightblue" d="M1624.59,-168.243C1616.96,-154.029 1599.88,-126.109 1577,-112 1519.87,-76.7694 1439.42,-68.7874 1395.89,-67.1858"/>
<polygon fill="midnightblue" stroke="midnightblue" points="1395.75,-63.6806 1385.66,-66.9034 1395.56,-70.6779 1395.75,-63.6806"/>
</g>
<!-- Node35&#45;&gt;Node9 -->
<g id="edge47" class="edge"><title>Node35&#45;&gt;Node9</title>
<path fill="none" stroke="midnightblue" d="M1648.17,-168.444C1667.91,-159.636 1698.89,-145.812 1721.49,-135.722"/>
<polygon fill="midnightblue" stroke="midnightblue" points="1723.21,-138.788 1730.92,-131.516 1720.36,-132.396 1723.21,-138.788"/>
</g>
<!-- Node35&#45;&gt;Node27 -->
<g id="edge45" class="edge"><title>Node35&#45;&gt;Node27</title>
<path fill="none" stroke="midnightblue" d="M1593.18,-169.606C1590.08,-169.036 1586.99,-168.492 1584,-168 1471.24,-149.435 1336.83,-133.855 1273.47,-126.898"/>
<polygon fill="midnightblue" stroke="midnightblue" points="1273.53,-123.384 1263.21,-125.778 1272.77,-130.342 1273.53,-123.384"/>
</g>
<!-- Node36 -->
<g id="node36" class="node"><title>Node36</title>
<polygon fill="white" stroke="#bfbfbf" points="1625.5,-112.5 1625.5,-131.5 1654.5,-131.5 1654.5,-112.5 1625.5,-112.5"/>
<text text-anchor="middle" x="1640" y="-119.5" font-family="Helvetica,sans-Serif" font-size="10.00">list</text>
</g>
<!-- Node35&#45;&gt;Node36 -->
<g id="edge48" class="edge"><title>Node35&#45;&gt;Node36</title>
<path fill="none" stroke="midnightblue" d="M1630.82,-168.083C1632.27,-160.927 1634.37,-150.635 1636.19,-141.691"/>
<polygon fill="midnightblue" stroke="midnightblue" points="1639.65,-142.248 1638.22,-131.751 1632.79,-140.851 1639.65,-142.248"/>
</g>
<!-- Node37&#45;&gt;Node11 -->
<g id="edge50" class="edge"><title>Node37&#45;&gt;Node11</title>
<path fill="none" stroke="midnightblue" d="M1436.68,-168.976C1433.75,-168.644 1430.84,-168.318 1428,-168 1287.63,-152.31 1120.51,-134.494 1048.25,-126.833"/>
<polygon fill="midnightblue" stroke="midnightblue" points="1048.6,-123.351 1038.29,-125.778 1047.87,-130.312 1048.6,-123.351"/>
</g>
<!-- Node37&#45;&gt;Node27 -->
<g id="edge52" class="edge"><title>Node37&#45;&gt;Node27</title>
<path fill="none" stroke="midnightblue" d="M1463.38,-168.444C1410.82,-157.893 1322.41,-140.145 1273.07,-130.24"/>
<polygon fill="midnightblue" stroke="midnightblue" points="1273.65,-126.787 1263.16,-128.251 1272.27,-133.65 1273.65,-126.787"/>
</g>
<!-- Node38 -->
<g id="node38" class="node"><title>Node38</title>
<g id="a_node38"><a xlink:href="NonCopyable_8h.html" target="_top" xlink:title="common/NonCopyable.h">
<polygon fill="white" stroke="black" points="1443.5,-112.5 1443.5,-131.5 1568.5,-131.5 1568.5,-112.5 1443.5,-112.5"/>
<text text-anchor="middle" x="1506" y="-119.5" font-family="Helvetica,sans-Serif" font-size="10.00">common/NonCopyable.h</text>
</a>
</g>
</g>
<!-- Node37&#45;&gt;Node38 -->
<g id="edge51" class="edge"><title>Node37&#45;&gt;Node38</title>
<path fill="none" stroke="midnightblue" d="M1506,-168.083C1506,-161.006 1506,-150.861 1506,-141.986"/>
<polygon fill="midnightblue" stroke="midnightblue" points="1509.5,-141.751 1506,-131.751 1502.5,-141.751 1509.5,-141.751"/>
</g>
<!-- Node39 -->
<g id="node39" class="node"><title>Node39</title>
<polygon fill="white" stroke="#bfbfbf" points="1390.5,-112.5 1390.5,-131.5 1425.5,-131.5 1425.5,-112.5 1390.5,-112.5"/>
<text text-anchor="middle" x="1408" y="-119.5" font-family="Helvetica,sans-Serif" font-size="10.00">map</text>
</g>
<!-- Node37&#45;&gt;Node39 -->
<g id="edge53" class="edge"><title>Node37&#45;&gt;Node39</title>
<path fill="none" stroke="midnightblue" d="M1490.25,-168.324C1474.68,-159.743 1450.62,-146.486 1432.54,-136.522"/>
<polygon fill="midnightblue" stroke="midnightblue" points="1434.15,-133.415 1423.71,-131.655 1430.78,-139.546 1434.15,-133.415"/>
</g>
<!-- Node40&#45;&gt;Node28 -->
<g id="edge56" class="edge"><title>Node40&#45;&gt;Node28</title>
<path fill="none" stroke="midnightblue" d="M1265.89,-336.324C1277.15,-328.107 1294.29,-315.602 1307.71,-305.807"/>
<polygon fill="midnightblue" stroke="midnightblue" points="1309.88,-308.556 1315.89,-299.834 1305.75,-302.901 1309.88,-308.556"/>
</g>
</g>
</svg>
