<?xml version="1.0" encoding="UTF-8" standalone="no"?>
<!DOCTYPE svg PUBLIC "-//W3C//DTD SVG 1.1//EN"
 "http://www.w3.org/Graphics/SVG/1.1/DTD/svg11.dtd">
<!-- Generated by graphviz version 2.36.0 (20140111.2315)
 -->
<!-- Title: /home/travis/build/mgerhardy/simpleai/src/ai/server/AIStepMessage.h Pages: 1 -->
<svg width="381pt" height="296pt"
 viewBox="0.00 0.00 381.00 296.00" xmlns="http://www.w3.org/2000/svg" xmlns:xlink="http://www.w3.org/1999/xlink">
<g id="graph0" class="graph" transform="scale(1 1) rotate(0) translate(4 292)">
<title>/home/travis/build/mgerhardy/simpleai/src/ai/server/AIStepMessage.h</title>
<polygon fill="white" stroke="none" points="-4,4 -4,-292 377,-292 377,4 -4,4"/>
<!-- Node1 -->
<g id="node1" class="node"><title>Node1</title>
<polygon fill="#bfbfbf" stroke="black" points="128.5,-246.5 128.5,-287.5 283.5,-287.5 283.5,-246.5 128.5,-246.5"/>
<text text-anchor="start" x="136.5" y="-275.5" font-family="Helvetica,sans-Serif" font-size="10.00">/home/travis/build</text>
<text text-anchor="start" x="136.5" y="-264.5" font-family="Helvetica,sans-Serif" font-size="10.00">/mgerhardy/simpleai</text>
<text text-anchor="middle" x="206" y="-253.5" font-family="Helvetica,sans-Serif" font-size="10.00">/src/ai/server/AIStepMessage.h</text>
</g>
<!-- Node2 -->
<g id="node2" class="node"><title>Node2</title>
<g id="a_node2"><a xlink:href="ProtocolMessageFactory_8h.html" target="_top" xlink:title="/home/travis/build\l/mgerhardy/simpleai\l/src/ai/server/ProtocolMessage\lFactory.h">
<polygon fill="white" stroke="black" points="26,-157 26,-209 178,-209 178,-157 26,-157"/>
<text text-anchor="start" x="34" y="-197" font-family="Helvetica,sans-Serif" font-size="10.00">/home/travis/build</text>
<text text-anchor="start" x="34" y="-186" font-family="Helvetica,sans-Serif" font-size="10.00">/mgerhardy/simpleai</text>
<text text-anchor="start" x="34" y="-175" font-family="Helvetica,sans-Serif" font-size="10.00">/src/ai/server/ProtocolMessage</text>
<text text-anchor="middle" x="102" y="-164" font-family="Helvetica,sans-Serif" font-size="10.00">Factory.h</text>
</a>
</g>
</g>
<!-- Node1&#45;&gt;Node2 -->
<g id="edge1" class="edge"><title>Node1&#45;&gt;Node2</title>
<path fill="none" stroke="midnightblue" d="M173.121,-240.076C160.558,-230.171 146.267,-218.902 133.806,-209.078"/>
<polygon fill="midnightblue" stroke="midnightblue" points="171.07,-242.916 181.089,-246.359 175.404,-237.419 171.07,-242.916"/>
</g>
<!-- Node4 -->
<g id="node4" class="node"><title>Node4</title>
<g id="a_node4"><a xlink:href="SimpleAI_8h.html" target="_top" xlink:title="/home/travis/build\l/mgerhardy/simpleai\l/src/ai/SimpleAI.h">
<polygon fill="white" stroke="black" points="135,-0.5 135,-41.5 239,-41.5 239,-0.5 135,-0.5"/>
<text text-anchor="start" x="143" y="-29.5" font-family="Helvetica,sans-Serif" font-size="10.00">/home/travis/build</text>
<text text-anchor="start" x="143" y="-18.5" font-family="Helvetica,sans-Serif" font-size="10.00">/mgerhardy/simpleai</text>
<text text-anchor="middle" x="187" y="-7.5" font-family="Helvetica,sans-Serif" font-size="10.00">/src/ai/SimpleAI.h</text>
</a>
</g>
</g>
<!-- Node1&#45;&gt;Node4 -->
<g id="edge8" class="edge"><title>Node1&#45;&gt;Node4</title>
<path fill="none" stroke="midnightblue" d="M203.677,-236.17C199.738,-185.579 191.851,-84.2975 188.53,-41.6482"/>
<polygon fill="midnightblue" stroke="midnightblue" points="200.211,-236.747 204.477,-246.445 207.19,-236.203 200.211,-236.747"/>
</g>
<!-- Node5 -->
<g id="node5" class="node"><title>Node5</title>
<g id="a_node5"><a xlink:href="StepHandler_8h.html" target="_top" xlink:title="/home/travis/build\l/mgerhardy/simpleai\l/src/ai/server/StepHandler.h">
<polygon fill="white" stroke="black" points="234.5,-162.5 234.5,-203.5 373.5,-203.5 373.5,-162.5 234.5,-162.5"/>
<text text-anchor="start" x="242.5" y="-191.5" font-family="Helvetica,sans-Serif" font-size="10.00">/home/travis/build</text>
<text text-anchor="start" x="242.5" y="-180.5" font-family="Helvetica,sans-Serif" font-size="10.00">/mgerhardy/simpleai</text>
<text text-anchor="middle" x="304" y="-169.5" font-family="Helvetica,sans-Serif" font-size="10.00">/src/ai/server/StepHandler.h</text>
</a>
</g>
</g>
<!-- Node1&#45;&gt;Node5 -->
<g id="edge5" class="edge"><title>Node1&#45;&gt;Node5</title>
<path fill="none" stroke="midnightblue" d="M237.637,-239.528C251.569,-227.871 267.652,-214.414 280.495,-203.667"/>
<polygon fill="midnightblue" stroke="midnightblue" points="235.146,-237.049 229.723,-246.15 239.638,-242.417 235.146,-237.049"/>
</g>
<!-- Node3 -->
<g id="node3" class="node"><title>Node3</title>
<g id="a_node3"><a xlink:href="NetworkImpl_8h.html" target="_top" xlink:title="/home/travis/build\l/mgerhardy/simpleai\l/src/ai/server/NetworkImpl.h">
<polygon fill="white" stroke="black" points="0,-78.5 0,-119.5 140,-119.5 140,-78.5 0,-78.5"/>
<text text-anchor="start" x="8" y="-107.5" font-family="Helvetica,sans-Serif" font-size="10.00">/home/travis/build</text>
<text text-anchor="start" x="8" y="-96.5" font-family="Helvetica,sans-Serif" font-size="10.00">/mgerhardy/simpleai</text>
<text text-anchor="middle" x="70" y="-85.5" font-family="Helvetica,sans-Serif" font-size="10.00">/src/ai/server/NetworkImpl.h</text>
</a>
</g>
</g>
<!-- Node2&#45;&gt;Node3 -->
<g id="edge2" class="edge"><title>Node2&#45;&gt;Node3</title>
<path fill="none" stroke="midnightblue" d="M88.4811,-147.358C84.7933,-137.908 80.9252,-127.996 77.6864,-119.696"/>
<polygon fill="midnightblue" stroke="midnightblue" points="85.3291,-148.908 92.2251,-156.952 91.8501,-146.364 85.3291,-148.908"/>
</g>
<!-- Node2&#45;&gt;Node4 -->
<g id="edge4" class="edge"><title>Node2&#45;&gt;Node4</title>
<path fill="none" stroke="midnightblue" d="M129.783,-148.883C136.597,-139.855 143.504,-129.842 149,-120 163.324,-94.3488 174.661,-62.2007 181.102,-41.8733"/>
<polygon fill="midnightblue" stroke="midnightblue" points="126.956,-146.817 123.594,-156.864 132.488,-151.106 126.956,-146.817"/>
</g>
<!-- Node3&#45;&gt;Node4 -->
<g id="edge3" class="edge"><title>Node3&#45;&gt;Node4</title>
<path fill="none" stroke="midnightblue" d="M108.611,-72.9194C124.34,-62.702 142.247,-51.0701 156.972,-41.5056"/>
<polygon fill="midnightblue" stroke="midnightblue" points="106.61,-70.0456 100.13,-78.4281 110.423,-75.9158 106.61,-70.0456"/>
</g>
<!-- Node6 -->
<g id="node6" class="node"><title>Node6</title>
<g id="a_node6"><a xlink:href="ServerImpl_8h.html" target="_top" xlink:title="/home/travis/build\l/mgerhardy/simpleai\l/src/ai/server/ServerImpl.h">
<polygon fill="white" stroke="black" points="236,-78.5 236,-119.5 368,-119.5 368,-78.5 236,-78.5"/>
<text text-anchor="start" x="244" y="-107.5" font-family="Helvetica,sans-Serif" font-size="10.00">/home/travis/build</text>
<text text-anchor="start" x="244" y="-96.5" font-family="Helvetica,sans-Serif" font-size="10.00">/mgerhardy/simpleai</text>
<text text-anchor="middle" x="302" y="-85.5" font-family="Helvetica,sans-Serif" font-size="10.00">/src/ai/server/ServerImpl.h</text>
</a>
</g>
</g>
<!-- Node5&#45;&gt;Node6 -->
<g id="edge6" class="edge"><title>Node5&#45;&gt;Node6</title>
<path fill="none" stroke="midnightblue" d="M303.265,-151.881C303.003,-141.133 302.715,-129.309 302.48,-119.667"/>
<polygon fill="midnightblue" stroke="midnightblue" points="299.773,-152.238 303.516,-162.15 306.771,-152.068 299.773,-152.238"/>
</g>
<!-- Node6&#45;&gt;Node4 -->
<g id="edge7" class="edge"><title>Node6&#45;&gt;Node4</title>
<path fill="none" stroke="midnightblue" d="M263.619,-72.6352C248.263,-62.4868 230.854,-50.9816 216.515,-41.5056"/>
<polygon fill="midnightblue" stroke="midnightblue" points="262.112,-75.8346 272.385,-78.4281 265.972,-69.9946 262.112,-75.8346"/>
</g>
</g>
</svg>
