<?xml version="1.0" encoding="UTF-8" standalone="no"?>
<!DOCTYPE svg PUBLIC "-//W3C//DTD SVG 1.1//EN"
 "http://www.w3.org/Graphics/SVG/1.1/DTD/svg11.dtd">
<!-- Generated by graphviz version 2.36.0 (20140111.2315)
 -->
<!-- Title: /home/travis/build/mgerhardy/simpleai/src/ai/server/AIStubTypes.h Pages: 1 -->
<svg width="1902pt" height="476pt"
 viewBox="0.00 0.00 1902.50 476.00" xmlns="http://www.w3.org/2000/svg" xmlns:xlink="http://www.w3.org/1999/xlink">
<g id="graph0" class="graph" transform="scale(1 1) rotate(0) translate(4 472)">
<title>/home/travis/build/mgerhardy/simpleai/src/ai/server/AIStubTypes.h</title>
<polygon fill="white" stroke="none" points="-4,4 -4,-472 1898.5,-472 1898.5,4 -4,4"/>
<!-- Node1 -->
<g id="node1" class="node"><title>Node1</title>
<polygon fill="#bfbfbf" stroke="black" points="1393.5,-426.5 1393.5,-467.5 1535.5,-467.5 1535.5,-426.5 1393.5,-426.5"/>
<text text-anchor="start" x="1401.5" y="-455.5" font-family="Helvetica,sans-Serif" font-size="10.00">/home/travis/build</text>
<text text-anchor="start" x="1401.5" y="-444.5" font-family="Helvetica,sans-Serif" font-size="10.00">/mgerhardy/simpleai</text>
<text text-anchor="middle" x="1464.5" y="-433.5" font-family="Helvetica,sans-Serif" font-size="10.00">/src/ai/server/AIStubTypes.h</text>
</g>
<!-- Node2 -->
<g id="node2" class="node"><title>Node2</title>
<g id="a_node2"><a xlink:href="AIAddNodeMessage_8h.html" target="_top" xlink:title="/home/travis/build\l/mgerhardy/simpleai\l/src/ai/server/AIAddNodeMessage.h">
<polygon fill="white" stroke="black" points="1202,-252.5 1202,-293.5 1377,-293.5 1377,-252.5 1202,-252.5"/>
<text text-anchor="start" x="1210" y="-281.5" font-family="Helvetica,sans-Serif" font-size="10.00">/home/travis/build</text>
<text text-anchor="start" x="1210" y="-270.5" font-family="Helvetica,sans-Serif" font-size="10.00">/mgerhardy/simpleai</text>
<text text-anchor="middle" x="1289.5" y="-259.5" font-family="Helvetica,sans-Serif" font-size="10.00">/src/ai/server/AIAddNodeMessage.h</text>
</a>
</g>
</g>
<!-- Node1&#45;&gt;Node2 -->
<g id="edge1" class="edge"><title>Node1&#45;&gt;Node2</title>
<path fill="none" stroke="midnightblue" d="M1437.27,-419.238C1401.82,-384.398 1340.71,-324.331 1309.34,-293.5"/>
<polygon fill="midnightblue" stroke="midnightblue" points="1434.84,-421.756 1444.42,-426.269 1439.75,-416.764 1434.84,-421.756"/>
</g>
<!-- Node8 -->
<g id="node8" class="node"><title>Node8</title>
<g id="a_node8"><a xlink:href="AICharacterDetailsMessage_8h.html" target="_top" xlink:title="/home/travis/build\l/mgerhardy/simpleai\l/src/ai/server/AICharacterDetails\lMessage.h">
<polygon fill="white" stroke="black" points="1148.5,-337 1148.5,-389 1308.5,-389 1308.5,-337 1148.5,-337"/>
<text text-anchor="start" x="1156.5" y="-377" font-family="Helvetica,sans-Serif" font-size="10.00">/home/travis/build</text>
<text text-anchor="start" x="1156.5" y="-366" font-family="Helvetica,sans-Serif" font-size="10.00">/mgerhardy/simpleai</text>
<text text-anchor="start" x="1156.5" y="-355" font-family="Helvetica,sans-Serif" font-size="10.00">/src/ai/server/AICharacterDetails</text>
<text text-anchor="middle" x="1228.5" y="-344" font-family="Helvetica,sans-Serif" font-size="10.00">Message.h</text>
</a>
</g>
</g>
<!-- Node1&#45;&gt;Node8 -->
<g id="edge10" class="edge"><title>Node1&#45;&gt;Node8</title>
<path fill="none" stroke="midnightblue" d="M1398.61,-423.108C1368.2,-412.541 1332.01,-399.967 1300.85,-389.138"/>
<polygon fill="midnightblue" stroke="midnightblue" points="1397.68,-426.487 1408.27,-426.463 1399.97,-419.875 1397.68,-426.487"/>
</g>
<!-- Node9 -->
<g id="node9" class="node"><title>Node9</title>
<g id="a_node9"><a xlink:href="Server_8h.html" target="_top" xlink:title="/home/travis/build\l/mgerhardy/simpleai\l/src/ai/server/Server.h">
<polygon fill="white" stroke="black" points="911.999,-252.5 911.999,-293.5 1025,-293.5 1025,-252.5 911.999,-252.5"/>
<text text-anchor="start" x="919.999" y="-281.5" font-family="Helvetica,sans-Serif" font-size="10.00">/home/travis/build</text>
<text text-anchor="start" x="919.999" y="-270.5" font-family="Helvetica,sans-Serif" font-size="10.00">/mgerhardy/simpleai</text>
<text text-anchor="middle" x="968.499" y="-259.5" font-family="Helvetica,sans-Serif" font-size="10.00">/src/ai/server/Server.h</text>
</a>
</g>
</g>
<!-- Node1&#45;&gt;Node9 -->
<g id="edge46" class="edge"><title>Node1&#45;&gt;Node9</title>
<path fill="none" stroke="midnightblue" d="M1383.23,-441.563C1315.86,-435.661 1218.67,-421.929 1139.5,-390 1080.61,-366.251 1021.41,-319.889 990.478,-293.537"/>
<polygon fill="midnightblue" stroke="midnightblue" points="1383.1,-445.065 1393.36,-442.411 1383.69,-438.089 1383.1,-445.065"/>
</g>
<!-- Node17 -->
<g id="node17" class="node"><title>Node17</title>
<g id="a_node17"><a xlink:href="AICharacterStaticMessage_8h.html" target="_top" xlink:title="/home/travis/build\l/mgerhardy/simpleai\l/src/ai/server/AICharacterStatic\lMessage.h">
<polygon fill="white" stroke="black" points="1740,-337 1740,-389 1895,-389 1895,-337 1740,-337"/>
<text text-anchor="start" x="1748" y="-377" font-family="Helvetica,sans-Serif" font-size="10.00">/home/travis/build</text>
<text text-anchor="start" x="1748" y="-366" font-family="Helvetica,sans-Serif" font-size="10.00">/mgerhardy/simpleai</text>
<text text-anchor="start" x="1748" y="-355" font-family="Helvetica,sans-Serif" font-size="10.00">/src/ai/server/AICharacterStatic</text>
<text text-anchor="middle" x="1817.5" y="-344" font-family="Helvetica,sans-Serif" font-size="10.00">Message.h</text>
</a>
</g>
</g>
<!-- Node1&#45;&gt;Node17 -->
<g id="edge30" class="edge"><title>Node1&#45;&gt;Node17</title>
<path fill="none" stroke="midnightblue" d="M1545.63,-427.422C1592.88,-416.574 1653.58,-402.586 1707.5,-390 1718.01,-387.547 1729.08,-384.948 1739.99,-382.378"/>
<polygon fill="midnightblue" stroke="midnightblue" points="1544.73,-424.039 1535.76,-429.687 1546.29,-430.861 1544.73,-424.039"/>
</g>
<!-- Node18 -->
<g id="node18" class="node"><title>Node18</title>
<g id="a_node18"><a xlink:href="AIDeleteNodeMessage_8h.html" target="_top" xlink:title="/home/travis/build\l/mgerhardy/simpleai\l/src/ai/server/AIDeleteNode\lMessage.h">
<polygon fill="white" stroke="black" points="1395.5,-247 1395.5,-299 1533.5,-299 1533.5,-247 1395.5,-247"/>
<text text-anchor="start" x="1403.5" y="-287" font-family="Helvetica,sans-Serif" font-size="10.00">/home/travis/build</text>
<text text-anchor="start" x="1403.5" y="-276" font-family="Helvetica,sans-Serif" font-size="10.00">/mgerhardy/simpleai</text>
<text text-anchor="start" x="1403.5" y="-265" font-family="Helvetica,sans-Serif" font-size="10.00">/src/ai/server/AIDeleteNode</text>
<text text-anchor="middle" x="1464.5" y="-254" font-family="Helvetica,sans-Serif" font-size="10.00">Message.h</text>
</a>
</g>
</g>
<!-- Node1&#45;&gt;Node18 -->
<g id="edge34" class="edge"><title>Node1&#45;&gt;Node18</title>
<path fill="none" stroke="midnightblue" d="M1464.5,-416.263C1464.5,-383.131 1464.5,-330.145 1464.5,-299.045"/>
<polygon fill="midnightblue" stroke="midnightblue" points="1461,-416.269 1464.5,-426.269 1468,-416.269 1461,-416.269"/>
</g>
<!-- Node19 -->
<g id="node19" class="node"><title>Node19</title>
<g id="a_node19"><a xlink:href="AIStateMessage_8h.html" target="_top" xlink:title="/home/travis/build\l/mgerhardy/simpleai\l/src/ai/server/AIStateMessage.h">
<polygon fill="white" stroke="black" points="1502.5,-342.5 1502.5,-383.5 1660.5,-383.5 1660.5,-342.5 1502.5,-342.5"/>
<text text-anchor="start" x="1510.5" y="-371.5" font-family="Helvetica,sans-Serif" font-size="10.00">/home/travis/build</text>
<text text-anchor="start" x="1510.5" y="-360.5" font-family="Helvetica,sans-Serif" font-size="10.00">/mgerhardy/simpleai</text>
<text text-anchor="middle" x="1581.5" y="-349.5" font-family="Helvetica,sans-Serif" font-size="10.00">/src/ai/server/AIStateMessage.h</text>
</a>
</g>
</g>
<!-- Node1&#45;&gt;Node19 -->
<g id="edge38" class="edge"><title>Node1&#45;&gt;Node19</title>
<path fill="none" stroke="midnightblue" d="M1501.04,-420.387C1517.9,-408.571 1537.61,-394.761 1553.3,-383.765"/>
<polygon fill="midnightblue" stroke="midnightblue" points="1498.7,-417.753 1492.52,-426.359 1502.72,-423.486 1498.7,-417.753"/>
</g>
<!-- Node20 -->
<g id="node20" class="node"><title>Node20</title>
<g id="a_node20"><a xlink:href="AIUpdateNodeMessage_8h.html" target="_top" xlink:title="/home/travis/build\l/mgerhardy/simpleai\l/src/ai/server/AIUpdateNode\lMessage.h">
<polygon fill="white" stroke="black" points="1628,-247 1628,-299 1769,-299 1769,-247 1628,-247"/>
<text text-anchor="start" x="1636" y="-287" font-family="Helvetica,sans-Serif" font-size="10.00">/home/travis/build</text>
<text text-anchor="start" x="1636" y="-276" font-family="Helvetica,sans-Serif" font-size="10.00">/mgerhardy/simpleai</text>
<text text-anchor="start" x="1636" y="-265" font-family="Helvetica,sans-Serif" font-size="10.00">/src/ai/server/AIUpdateNode</text>
<text text-anchor="middle" x="1698.5" y="-254" font-family="Helvetica,sans-Serif" font-size="10.00">Message.h</text>
</a>
</g>
</g>
<!-- Node1&#45;&gt;Node20 -->
<g id="edge42" class="edge"><title>Node1&#45;&gt;Node20</title>
<path fill="none" stroke="midnightblue" d="M1545.73,-442.571C1587.63,-436.605 1636.52,-422.455 1668.5,-390 1692.3,-365.847 1697.95,-325.424 1698.92,-299.241"/>
<polygon fill="midnightblue" stroke="midnightblue" points="1545.27,-439.101 1535.8,-443.853 1546.16,-446.043 1545.27,-439.101"/>
</g>
<!-- Node3 -->
<g id="node3" class="node"><title>Node3</title>
<g id="a_node3"><a xlink:href="AddNodeHandler_8h.html" target="_top" xlink:title="/home/travis/build\l/mgerhardy/simpleai\l/src/ai/server/AddNodeHandler.h">
<polygon fill="white" stroke="black" points="1301,-162.5 1301,-203.5 1460,-203.5 1460,-162.5 1301,-162.5"/>
<text text-anchor="start" x="1309" y="-191.5" font-family="Helvetica,sans-Serif" font-size="10.00">/home/travis/build</text>
<text text-anchor="start" x="1309" y="-180.5" font-family="Helvetica,sans-Serif" font-size="10.00">/mgerhardy/simpleai</text>
<text text-anchor="middle" x="1380.5" y="-169.5" font-family="Helvetica,sans-Serif" font-size="10.00">/src/ai/server/AddNodeHandler.h</text>
</a>
</g>
</g>
<!-- Node2&#45;&gt;Node3 -->
<g id="edge2" class="edge"><title>Node2&#45;&gt;Node3</title>
<path fill="none" stroke="midnightblue" d="M1317.07,-245.341C1330.9,-231.967 1347.36,-216.049 1360.05,-203.78"/>
<polygon fill="midnightblue" stroke="midnightblue" points="1314.45,-243.002 1309.7,-252.47 1319.32,-248.034 1314.45,-243.002"/>
</g>
<!-- Node5 -->
<g id="node5" class="node"><title>Node5</title>
<g id="a_node5"><a xlink:href="SimpleAI_8h.html" target="_top" xlink:title="/home/travis/build\l/mgerhardy/simpleai\l/src/ai/SimpleAI.h">
<polygon fill="white" stroke="black" points="1492.5,-0.5 1492.5,-41.5 1596.5,-41.5 1596.5,-0.5 1492.5,-0.5"/>
<text text-anchor="start" x="1500.5" y="-29.5" font-family="Helvetica,sans-Serif" font-size="10.00">/home/travis/build</text>
<text text-anchor="start" x="1500.5" y="-18.5" font-family="Helvetica,sans-Serif" font-size="10.00">/mgerhardy/simpleai</text>
<text text-anchor="middle" x="1544.5" y="-7.5" font-family="Helvetica,sans-Serif" font-size="10.00">/src/ai/SimpleAI.h</text>
</a>
</g>
</g>
<!-- Node2&#45;&gt;Node5 -->
<g id="edge9" class="edge"><title>Node2&#45;&gt;Node5</title>
<path fill="none" stroke="midnightblue" d="M1364.05,-249.369C1409.47,-235.031 1460.32,-217.774 1468.5,-210 1474.99,-203.83 1519.19,-88.6721 1537.04,-41.6987"/>
<polygon fill="midnightblue" stroke="midnightblue" points="1362.95,-246.046 1354.45,-252.38 1365.04,-252.725 1362.95,-246.046"/>
</g>
<!-- Node6 -->
<g id="node6" class="node"><title>Node6</title>
<g id="a_node6"><a xlink:href="ProtocolMessageFactory_8h.html" target="_top" xlink:title="/home/travis/build\l/mgerhardy/simpleai\l/src/ai/server/ProtocolMessage\lFactory.h">
<polygon fill="white" stroke="black" points="1553.5,-157 1553.5,-209 1705.5,-209 1705.5,-157 1553.5,-157"/>
<text text-anchor="start" x="1561.5" y="-197" font-family="Helvetica,sans-Serif" font-size="10.00">/home/travis/build</text>
<text text-anchor="start" x="1561.5" y="-186" font-family="Helvetica,sans-Serif" font-size="10.00">/mgerhardy/simpleai</text>
<text text-anchor="start" x="1561.5" y="-175" font-family="Helvetica,sans-Serif" font-size="10.00">/src/ai/server/ProtocolMessage</text>
<text text-anchor="middle" x="1629.5" y="-164" font-family="Helvetica,sans-Serif" font-size="10.00">Factory.h</text>
</a>
</g>
</g>
<!-- Node2&#45;&gt;Node6 -->
<g id="edge5" class="edge"><title>Node2&#45;&gt;Node6</title>
<path fill="none" stroke="midnightblue" d="M1372.08,-249.792C1376.96,-248.503 1381.79,-247.231 1386.5,-246 1442.31,-231.401 1505.44,-215.305 1553.37,-203.173"/>
<polygon fill="midnightblue" stroke="midnightblue" points="1370.81,-246.509 1362.04,-252.454 1372.6,-253.275 1370.81,-246.509"/>
</g>
<!-- Node4 -->
<g id="node4" class="node"><title>Node4</title>
<g id="a_node4"><a xlink:href="ServerImpl_8h.html" target="_top" xlink:title="/home/travis/build\l/mgerhardy/simpleai\l/src/ai/server/ServerImpl.h">
<polygon fill="white" stroke="black" points="643.499,-78.5 643.499,-119.5 775.499,-119.5 775.499,-78.5 643.499,-78.5"/>
<text text-anchor="start" x="651.499" y="-107.5" font-family="Helvetica,sans-Serif" font-size="10.00">/home/travis/build</text>
<text text-anchor="start" x="651.499" y="-96.5" font-family="Helvetica,sans-Serif" font-size="10.00">/mgerhardy/simpleai</text>
<text text-anchor="middle" x="709.499" y="-85.5" font-family="Helvetica,sans-Serif" font-size="10.00">/src/ai/server/ServerImpl.h</text>
</a>
</g>
</g>
<!-- Node3&#45;&gt;Node4 -->
<g id="edge3" class="edge"><title>Node3&#45;&gt;Node4</title>
<path fill="none" stroke="midnightblue" d="M1290.81,-162.484C1278.32,-160.102 1265.61,-157.858 1253.5,-156 1082,-129.684 878.129,-112.402 775.503,-104.667"/>
<polygon fill="midnightblue" stroke="midnightblue" points="1290.29,-165.948 1300.77,-164.419 1291.63,-159.076 1290.29,-165.948"/>
</g>
<!-- Node4&#45;&gt;Node5 -->
<g id="edge4" class="edge"><title>Node4&#45;&gt;Node5</title>
<path fill="none" stroke="midnightblue" d="M785.691,-91.0652C953.167,-75.8218 1349.75,-39.7256 1492.32,-26.7494"/>
<polygon fill="midnightblue" stroke="midnightblue" points="785.36,-87.5808 775.718,-91.9729 785.994,-94.552 785.36,-87.5808"/>
</g>
<!-- Node6&#45;&gt;Node5 -->
<g id="edge8" class="edge"><title>Node6&#45;&gt;Node5</title>
<path fill="none" stroke="midnightblue" d="M1601.72,-148.883C1594.9,-139.855 1587.99,-129.842 1582.5,-120 1568.18,-94.3488 1556.84,-62.2007 1550.4,-41.8733"/>
<polygon fill="midnightblue" stroke="midnightblue" points="1599.01,-151.106 1607.91,-156.864 1604.54,-146.817 1599.01,-151.106"/>
</g>
<!-- Node7 -->
<g id="node7" class="node"><title>Node7</title>
<g id="a_node7"><a xlink:href="NetworkImpl_8h.html" target="_top" xlink:title="/home/travis/build\l/mgerhardy/simpleai\l/src/ai/server/NetworkImpl.h">
<polygon fill="white" stroke="black" points="1591.5,-78.5 1591.5,-119.5 1731.5,-119.5 1731.5,-78.5 1591.5,-78.5"/>
<text text-anchor="start" x="1599.5" y="-107.5" font-family="Helvetica,sans-Serif" font-size="10.00">/home/travis/build</text>
<text text-anchor="start" x="1599.5" y="-96.5" font-family="Helvetica,sans-Serif" font-size="10.00">/mgerhardy/simpleai</text>
<text text-anchor="middle" x="1661.5" y="-85.5" font-family="Helvetica,sans-Serif" font-size="10.00">/src/ai/server/NetworkImpl.h</text>
</a>
</g>
</g>
<!-- Node6&#45;&gt;Node7 -->
<g id="edge6" class="edge"><title>Node6&#45;&gt;Node7</title>
<path fill="none" stroke="midnightblue" d="M1643.02,-147.358C1646.71,-137.908 1650.57,-127.996 1653.81,-119.696"/>
<polygon fill="midnightblue" stroke="midnightblue" points="1639.65,-146.364 1639.27,-156.952 1646.17,-148.908 1639.65,-146.364"/>
</g>
<!-- Node7&#45;&gt;Node5 -->
<g id="edge7" class="edge"><title>Node7&#45;&gt;Node5</title>
<path fill="none" stroke="midnightblue" d="M1622.89,-72.9194C1607.16,-62.702 1589.25,-51.0701 1574.53,-41.5056"/>
<polygon fill="midnightblue" stroke="midnightblue" points="1621.08,-75.9158 1631.37,-78.4281 1624.89,-70.0456 1621.08,-75.9158"/>
</g>
<!-- Node8&#45;&gt;Node5 -->
<g id="edge29" class="edge"><title>Node8&#45;&gt;Node5</title>
<path fill="none" stroke="midnightblue" d="M1138.27,-361.154C832.666,-356.713 -136.025,-328.985 16.4992,-156 116.225,-42.8964 1235.62,-25.0366 1492.28,-22.4224"/>
<polygon fill="midnightblue" stroke="midnightblue" points="1138.37,-364.656 1148.42,-361.296 1138.47,-357.656 1138.37,-364.656"/>
</g>
<!-- Node8&#45;&gt;Node6 -->
<g id="edge28" class="edge"><title>Node8&#45;&gt;Node6</title>
<path fill="none" stroke="midnightblue" d="M1318.82,-361.132C1385.24,-356.657 1475.26,-342.258 1542.5,-300 1560.94,-288.413 1594.19,-239.511 1613.81,-209.02"/>
<polygon fill="midnightblue" stroke="midnightblue" points="1318.56,-357.641 1308.79,-361.745 1318.98,-364.628 1318.56,-357.641"/>
</g>
<!-- Node8&#45;&gt;Node9 -->
<g id="edge11" class="edge"><title>Node8&#45;&gt;Node9</title>
<path fill="none" stroke="midnightblue" d="M1144.58,-333.597C1105.61,-320.407 1060.29,-305.069 1025.39,-293.256"/>
<polygon fill="midnightblue" stroke="midnightblue" points="1143.75,-337.01 1154.34,-336.901 1145.99,-330.379 1143.75,-337.01"/>
</g>
<!-- Node9&#45;&gt;Node4 -->
<g id="edge22" class="edge"><title>Node9&#45;&gt;Node4</title>
<path fill="none" stroke="midnightblue" d="M901.518,-272.48C793.034,-271.67 586.376,-263.001 540.499,-210 524.792,-191.854 526.449,-175.457 540.499,-156 563.842,-123.674 606.572,-109.707 643.224,-103.805"/>
<polygon fill="midnightblue" stroke="midnightblue" points="901.683,-275.981 911.702,-272.535 901.721,-268.981 901.683,-275.981"/>
</g>
<!-- Node9&#45;&gt;Node5 -->
<g id="edge27" class="edge"><title>Node9&#45;&gt;Node5</title>
<path fill="none" stroke="midnightblue" d="M1035.44,-270.967C1096.83,-267.061 1187.89,-253.54 1253.5,-210 1277.95,-193.773 1269.48,-175.402 1291.5,-156 1352.19,-102.518 1437.97,-62.8792 1492.41,-41.0977"/>
<polygon fill="midnightblue" stroke="midnightblue" points="1034.89,-267.493 1025.1,-271.552 1035.28,-274.482 1034.89,-267.493"/>
</g>
<!-- Node10 -->
<g id="node10" class="node"><title>Node10</title>
<g id="a_node10"><a xlink:href="ChangeHandler_8h.html" target="_top" xlink:title="/home/travis/build\l/mgerhardy/simpleai\l/src/ai/server/ChangeHandler.h">
<polygon fill="white" stroke="black" points="549.499,-162.5 549.499,-203.5 701.499,-203.5 701.499,-162.5 549.499,-162.5"/>
<text text-anchor="start" x="557.499" y="-191.5" font-family="Helvetica,sans-Serif" font-size="10.00">/home/travis/build</text>
<text text-anchor="start" x="557.499" y="-180.5" font-family="Helvetica,sans-Serif" font-size="10.00">/mgerhardy/simpleai</text>
<text text-anchor="middle" x="625.499" y="-169.5" font-family="Helvetica,sans-Serif" font-size="10.00">/src/ai/server/ChangeHandler.h</text>
</a>
</g>
</g>
<!-- Node9&#45;&gt;Node10 -->
<g id="edge12" class="edge"><title>Node9&#45;&gt;Node10</title>
<path fill="none" stroke="midnightblue" d="M902.057,-257.207C849.783,-245.286 775.214,-227.656 710.499,-210 703.204,-208.01 695.588,-205.829 688.04,-203.603"/>
<polygon fill="midnightblue" stroke="midnightblue" points="901.35,-260.635 911.877,-259.439 902.902,-253.81 901.35,-260.635"/>
</g>
<!-- Node11 -->
<g id="node11" class="node"><title>Node11</title>
<g id="a_node11"><a xlink:href="DeleteNodeHandler_8h.html" target="_top" xlink:title="/home/travis/build\l/mgerhardy/simpleai\l/src/ai/server/DeleteNodeHandler.h">
<polygon fill="white" stroke="black" points="883.499,-162.5 883.499,-203.5 1053.5,-203.5 1053.5,-162.5 883.499,-162.5"/>
<text text-anchor="start" x="891.499" y="-191.5" font-family="Helvetica,sans-Serif" font-size="10.00">/home/travis/build</text>
<text text-anchor="start" x="891.499" y="-180.5" font-family="Helvetica,sans-Serif" font-size="10.00">/mgerhardy/simpleai</text>
<text text-anchor="middle" x="968.499" y="-169.5" font-family="Helvetica,sans-Serif" font-size="10.00">/src/ai/server/DeleteNodeHandler.h</text>
</a>
</g>
</g>
<!-- Node9&#45;&gt;Node11 -->
<g id="edge14" class="edge"><title>Node9&#45;&gt;Node11</title>
<path fill="none" stroke="midnightblue" d="M968.499,-242.33C968.499,-229.629 968.499,-215.14 968.499,-203.78"/>
<polygon fill="midnightblue" stroke="midnightblue" points="964.999,-242.47 968.499,-252.47 971.999,-242.47 964.999,-242.47"/>
</g>
<!-- Node12 -->
<g id="node12" class="node"><title>Node12</title>
<g id="a_node12"><a xlink:href="PauseHandler_8h.html" target="_top" xlink:title="/home/travis/build\l/mgerhardy/simpleai\l/src/ai/server/PauseHandler.h">
<polygon fill="white" stroke="black" points="719.499,-162.5 719.499,-203.5 865.499,-203.5 865.499,-162.5 719.499,-162.5"/>
<text text-anchor="start" x="727.499" y="-191.5" font-family="Helvetica,sans-Serif" font-size="10.00">/home/travis/build</text>
<text text-anchor="start" x="727.499" y="-180.5" font-family="Helvetica,sans-Serif" font-size="10.00">/mgerhardy/simpleai</text>
<text text-anchor="middle" x="792.499" y="-169.5" font-family="Helvetica,sans-Serif" font-size="10.00">/src/ai/server/PauseHandler.h</text>
</a>
</g>
</g>
<!-- Node9&#45;&gt;Node12 -->
<g id="edge16" class="edge"><title>Node9&#45;&gt;Node12</title>
<path fill="none" stroke="midnightblue" d="M920.282,-247.891C892.456,-233.979 857.909,-216.705 831.754,-203.627"/>
<polygon fill="midnightblue" stroke="midnightblue" points="918.93,-251.128 929.439,-252.47 922.06,-244.867 918.93,-251.128"/>
</g>
<!-- Node13 -->
<g id="node13" class="node"><title>Node13</title>
<g id="a_node13"><a xlink:href="ResetHandler_8h.html" target="_top" xlink:title="/home/travis/build\l/mgerhardy/simpleai\l/src/ai/server/ResetHandler.h">
<polygon fill="white" stroke="black" points="25.9992,-162.5 25.9992,-203.5 170.999,-203.5 170.999,-162.5 25.9992,-162.5"/>
<text text-anchor="start" x="33.9992" y="-191.5" font-family="Helvetica,sans-Serif" font-size="10.00">/home/travis/build</text>
<text text-anchor="start" x="33.9992" y="-180.5" font-family="Helvetica,sans-Serif" font-size="10.00">/mgerhardy/simpleai</text>
<text text-anchor="middle" x="98.4992" y="-169.5" font-family="Helvetica,sans-Serif" font-size="10.00">/src/ai/server/ResetHandler.h</text>
</a>
</g>
</g>
<!-- Node9&#45;&gt;Node13 -->
<g id="edge18" class="edge"><title>Node9&#45;&gt;Node13</title>
<path fill="none" stroke="midnightblue" d="M901.197,-271.859C764.214,-270.444 443.688,-261.376 180.499,-210 171.998,-208.34 163.139,-206.098 154.522,-203.623"/>
<polygon fill="midnightblue" stroke="midnightblue" points="901.493,-275.361 911.525,-271.954 901.558,-268.362 901.493,-275.361"/>
</g>
<!-- Node14 -->
<g id="node14" class="node"><title>Node14</title>
<g id="a_node14"><a xlink:href="SelectHandler_8h.html" target="_top" xlink:title="/home/travis/build\l/mgerhardy/simpleai\l/src/ai/server/SelectHandler.h">
<polygon fill="white" stroke="black" points="189.499,-162.5 189.499,-203.5 335.499,-203.5 335.499,-162.5 189.499,-162.5"/>
<text text-anchor="start" x="197.499" y="-191.5" font-family="Helvetica,sans-Serif" font-size="10.00">/home/travis/build</text>
<text text-anchor="start" x="197.499" y="-180.5" font-family="Helvetica,sans-Serif" font-size="10.00">/mgerhardy/simpleai</text>
<text text-anchor="middle" x="262.499" y="-169.5" font-family="Helvetica,sans-Serif" font-size="10.00">/src/ai/server/SelectHandler.h</text>
</a>
</g>
</g>
<!-- Node9&#45;&gt;Node14 -->
<g id="edge20" class="edge"><title>Node9&#45;&gt;Node14</title>
<path fill="none" stroke="midnightblue" d="M901.93,-269.924C787.088,-265.337 544.784,-251.234 344.499,-210 336.161,-208.283 327.471,-206.042 318.999,-203.595"/>
<polygon fill="midnightblue" stroke="midnightblue" points="901.846,-273.423 911.975,-270.314 902.118,-266.429 901.846,-273.423"/>
</g>
<!-- Node15 -->
<g id="node15" class="node"><title>Node15</title>
<g id="a_node15"><a xlink:href="StepHandler_8h.html" target="_top" xlink:title="/home/travis/build\l/mgerhardy/simpleai\l/src/ai/server/StepHandler.h">
<polygon fill="white" stroke="black" points="353.999,-162.5 353.999,-203.5 492.999,-203.5 492.999,-162.5 353.999,-162.5"/>
<text text-anchor="start" x="361.999" y="-191.5" font-family="Helvetica,sans-Serif" font-size="10.00">/home/travis/build</text>
<text text-anchor="start" x="361.999" y="-180.5" font-family="Helvetica,sans-Serif" font-size="10.00">/mgerhardy/simpleai</text>
<text text-anchor="middle" x="423.499" y="-169.5" font-family="Helvetica,sans-Serif" font-size="10.00">/src/ai/server/StepHandler.h</text>
</a>
</g>
</g>
<!-- Node9&#45;&gt;Node15 -->
<g id="edge23" class="edge"><title>Node9&#45;&gt;Node15</title>
<path fill="none" stroke="midnightblue" d="M901.822,-266.544C811.629,-258.369 646.083,-240.543 507.499,-210 499.3,-208.193 490.746,-205.962 482.369,-203.573"/>
<polygon fill="midnightblue" stroke="midnightblue" points="901.637,-270.042 911.909,-267.447 902.26,-263.069 901.637,-270.042"/>
</g>
<!-- Node16 -->
<g id="node16" class="node"><title>Node16</title>
<g id="a_node16"><a xlink:href="UpdateNodeHandler_8h.html" target="_top" xlink:title="/home/travis/build\l/mgerhardy/simpleai\l/src/ai/server/UpdateNodeHandler.h">
<polygon fill="white" stroke="black" points="1072,-162.5 1072,-203.5 1245,-203.5 1245,-162.5 1072,-162.5"/>
<text text-anchor="start" x="1080" y="-191.5" font-family="Helvetica,sans-Serif" font-size="10.00">/home/travis/build</text>
<text text-anchor="start" x="1080" y="-180.5" font-family="Helvetica,sans-Serif" font-size="10.00">/mgerhardy/simpleai</text>
<text text-anchor="middle" x="1158.5" y="-169.5" font-family="Helvetica,sans-Serif" font-size="10.00">/src/ai/server/UpdateNodeHandler.h</text>
</a>
</g>
</g>
<!-- Node9&#45;&gt;Node16 -->
<g id="edge25" class="edge"><title>Node9&#45;&gt;Node16</title>
<path fill="none" stroke="midnightblue" d="M1019.77,-248.254C1049.94,-234.279 1087.64,-216.819 1116.12,-203.627"/>
<polygon fill="midnightblue" stroke="midnightblue" points="1018.27,-245.091 1010.67,-252.47 1021.21,-251.443 1018.27,-245.091"/>
</g>
<!-- Node10&#45;&gt;Node4 -->
<g id="edge13" class="edge"><title>Node10&#45;&gt;Node4</title>
<path fill="none" stroke="midnightblue" d="M653.288,-154.873C665.073,-143.369 678.549,-130.213 689.352,-119.667"/>
<polygon fill="midnightblue" stroke="midnightblue" points="650.544,-152.66 645.833,-162.15 655.434,-157.669 650.544,-152.66"/>
</g>
<!-- Node11&#45;&gt;Node4 -->
<g id="edge15" class="edge"><title>Node11&#45;&gt;Node4</title>
<path fill="none" stroke="midnightblue" d="M897.214,-159.431C857.699,-146.92 809.052,-131.519 771.183,-119.529"/>
<polygon fill="midnightblue" stroke="midnightblue" points="896.201,-162.781 906.791,-162.463 898.314,-156.108 896.201,-162.781"/>
</g>
<!-- Node12&#45;&gt;Node4 -->
<g id="edge17" class="edge"><title>Node12&#45;&gt;Node4</title>
<path fill="none" stroke="midnightblue" d="M765.041,-154.873C753.397,-143.369 740.081,-130.213 729.406,-119.667"/>
<polygon fill="midnightblue" stroke="midnightblue" points="762.834,-157.612 772.407,-162.15 767.753,-152.632 762.834,-157.612"/>
</g>
<!-- Node13&#45;&gt;Node4 -->
<g id="edge19" class="edge"><title>Node13&#45;&gt;Node4</title>
<path fill="none" stroke="midnightblue" d="M165.001,-159.687C170.212,-158.315 175.422,-157.062 180.499,-156 344.794,-121.624 542.442,-107.833 643.273,-102.725"/>
<polygon fill="midnightblue" stroke="midnightblue" points="163.713,-156.412 155.009,-162.453 165.58,-163.158 163.713,-156.412"/>
</g>
<!-- Node14&#45;&gt;Node4 -->
<g id="edge21" class="edge"><title>Node14&#45;&gt;Node4</title>
<path fill="none" stroke="midnightblue" d="M330.259,-159.624C335.055,-158.315 339.836,-157.09 344.499,-156 447.659,-131.885 569.726,-115.569 643.306,-107.031"/>
<polygon fill="midnightblue" stroke="midnightblue" points="329.091,-156.317 320.424,-162.411 331,-163.051 329.091,-156.317"/>
</g>
<!-- Node15&#45;&gt;Node4 -->
<g id="edge24" class="edge"><title>Node15&#45;&gt;Node4</title>
<path fill="none" stroke="midnightblue" d="M495.398,-159.591C499.489,-158.365 503.544,-157.16 507.499,-156 552.722,-142.736 603.882,-128.561 643.401,-117.792"/>
<polygon fill="midnightblue" stroke="midnightblue" points="494.383,-156.242 485.822,-162.484 496.407,-162.943 494.383,-156.242"/>
</g>
<!-- Node16&#45;&gt;Node4 -->
<g id="edge26" class="edge"><title>Node16&#45;&gt;Node4</title>
<path fill="none" stroke="midnightblue" d="M1080.06,-160.021C1074.13,-158.586 1068.23,-157.227 1062.5,-156 963.294,-134.761 846.818,-117.809 775.599,-108.331"/>
<polygon fill="midnightblue" stroke="midnightblue" points="1079.47,-163.482 1090.02,-162.496 1081.16,-156.688 1079.47,-163.482"/>
</g>
<!-- Node17&#45;&gt;Node5 -->
<g id="edge33" class="edge"><title>Node17&#45;&gt;Node5</title>
<path fill="none" stroke="midnightblue" d="M1827.33,-326.937C1842.15,-265.585 1861.46,-139.454 1790.5,-78 1761.9,-53.2324 1659.88,-36.3912 1596.55,-28.057"/>
<polygon fill="midnightblue" stroke="midnightblue" points="1823.87,-326.358 1824.83,-336.909 1830.66,-328.065 1823.87,-326.358"/>
</g>
<!-- Node17&#45;&gt;Node6 -->
<g id="edge32" class="edge"><title>Node17&#45;&gt;Node6</title>
<path fill="none" stroke="midnightblue" d="M1813.11,-326.811C1808.28,-301.526 1798.24,-268.129 1777.5,-246 1758.35,-225.573 1731.43,-211.63 1705.79,-202.227"/>
<polygon fill="midnightblue" stroke="midnightblue" points="1809.68,-327.49 1814.83,-336.75 1816.58,-326.301 1809.68,-327.49"/>
</g>
<!-- Node17&#45;&gt;Node9 -->
<g id="edge31" class="edge"><title>Node17&#45;&gt;Node9</title>
<path fill="none" stroke="midnightblue" d="M1729.91,-345.254C1709.79,-341.815 1688.45,-338.489 1668.5,-336 1457.97,-309.734 1403.69,-320.235 1192.5,-300 1135.41,-294.53 1070.3,-286.806 1025.05,-281.199"/>
<polygon fill="midnightblue" stroke="midnightblue" points="1729.54,-348.742 1740,-347.004 1730.74,-341.845 1729.54,-348.742"/>
</g>
<!-- Node18&#45;&gt;Node5 -->
<g id="edge37" class="edge"><title>Node18&#45;&gt;Node5</title>
<path fill="none" stroke="midnightblue" d="M1487.14,-238.393C1492.44,-229.449 1497.65,-219.598 1501.5,-210 1525.12,-151.112 1537.33,-76.392 1542.08,-41.5461"/>
<polygon fill="midnightblue" stroke="midnightblue" points="1484.11,-236.637 1481.87,-246.991 1490.08,-240.298 1484.11,-236.637"/>
</g>
<!-- Node18&#45;&gt;Node6 -->
<g id="edge36" class="edge"><title>Node18&#45;&gt;Node6</title>
<path fill="none" stroke="midnightblue" d="M1520.82,-241.96C1540.9,-231.253 1563.28,-219.315 1582.5,-209.069"/>
<polygon fill="midnightblue" stroke="midnightblue" points="1518.96,-238.989 1511.78,-246.783 1522.25,-245.165 1518.96,-238.989"/>
</g>
<!-- Node18&#45;&gt;Node11 -->
<g id="edge35" class="edge"><title>Node18&#45;&gt;Node11</title>
<path fill="none" stroke="midnightblue" d="M1385.8,-246.067C1385.7,-246.044 1385.6,-246.022 1385.5,-246 1244.36,-215.258 1204.33,-237.34 1062.5,-210 1053.19,-208.205 1043.45,-205.952 1033.92,-203.526"/>
<polygon fill="midnightblue" stroke="midnightblue" points="1384.82,-249.431 1395.36,-248.348 1386.45,-242.622 1384.82,-249.431"/>
</g>
<!-- Node19&#45;&gt;Node5 -->
<g id="edge41" class="edge"><title>Node19&#45;&gt;Node5</title>
<path fill="none" stroke="midnightblue" d="M1670.51,-344.547C1715.81,-333.669 1764.11,-318.273 1777.5,-300 1807.37,-259.224 1833.66,-161.77 1762.5,-78 1741.25,-52.984 1654,-36.6843 1596.54,-28.4343"/>
<polygon fill="midnightblue" stroke="midnightblue" points="1669.54,-341.18 1660.61,-346.868 1671.14,-347.995 1669.54,-341.18"/>
</g>
<!-- Node19&#45;&gt;Node6 -->
<g id="edge40" class="edge"><title>Node19&#45;&gt;Node6</title>
<path fill="none" stroke="midnightblue" d="M1589.5,-332.332C1598.79,-297.891 1613.94,-241.682 1622.69,-209.248"/>
<polygon fill="midnightblue" stroke="midnightblue" points="1586.04,-331.704 1586.82,-342.271 1592.8,-333.527 1586.04,-331.704"/>
</g>
<!-- Node19&#45;&gt;Node9 -->
<g id="edge39" class="edge"><title>Node19&#45;&gt;Node9</title>
<path fill="none" stroke="midnightblue" d="M1492.13,-349.171C1364.06,-330.786 1132.03,-297.476 1025.17,-282.135"/>
<polygon fill="midnightblue" stroke="midnightblue" points="1491.91,-352.674 1502.3,-350.631 1492.9,-345.745 1491.91,-352.674"/>
</g>
<!-- Node20&#45;&gt;Node5 -->
<g id="edge45" class="edge"><title>Node20&#45;&gt;Node5</title>
<path fill="none" stroke="midnightblue" d="M1720.67,-238.248C1745,-196.535 1776.17,-125.289 1740.5,-78 1723.18,-55.0444 1648.88,-38.6677 1596.91,-29.7672"/>
<polygon fill="midnightblue" stroke="midnightblue" points="1717.61,-236.557 1715.46,-246.932 1723.61,-240.162 1717.61,-236.557"/>
</g>
<!-- Node20&#45;&gt;Node6 -->
<g id="edge43" class="edge"><title>Node20&#45;&gt;Node6</title>
<path fill="none" stroke="midnightblue" d="M1672.27,-238.553C1664.61,-228.775 1656.36,-218.258 1649.17,-209.092"/>
<polygon fill="midnightblue" stroke="midnightblue" points="1669.62,-240.837 1678.54,-246.547 1675.13,-236.518 1669.62,-240.837"/>
</g>
<!-- Node20&#45;&gt;Node16 -->
<g id="edge44" class="edge"><title>Node20&#45;&gt;Node16</title>
<path fill="none" stroke="midnightblue" d="M1618.01,-258.227C1593.76,-254.174 1567.06,-249.808 1542.5,-246 1431.13,-228.735 1402.61,-228.817 1291.5,-210 1276.54,-207.466 1260.67,-204.559 1245.31,-201.627"/>
<polygon fill="midnightblue" stroke="midnightblue" points="1617.44,-261.681 1627.89,-259.882 1618.6,-254.777 1617.44,-261.681"/>
</g>
</g>
</svg>
