<?xml version="1.0" encoding="UTF-8" standalone="no"?>
<!DOCTYPE svg PUBLIC "-//W3C//DTD SVG 1.1//EN"
 "http://www.w3.org/Graphics/SVG/1.1/DTD/svg11.dtd">
<!-- Generated by graphviz version 2.36.0 (20140111.2315)
 -->
<!-- Title: /home/travis/build/mgerhardy/simpleai/src/ai/server/AIStateMessage.h Pages: 1 -->
<svg width="2073pt" height="554pt"
 viewBox="0.00 0.00 2072.84 554.00" xmlns="http://www.w3.org/2000/svg" xmlns:xlink="http://www.w3.org/1999/xlink">
<g id="graph0" class="graph" transform="scale(1 1) rotate(0) translate(4 550)">
<title>/home/travis/build/mgerhardy/simpleai/src/ai/server/AIStateMessage.h</title>
<polygon fill="white" stroke="none" points="-4,4 -4,-550 2068.84,-550 2068.84,4 -4,4"/>
<!-- Node1 -->
<g id="node1" class="node"><title>Node1</title>
<polygon fill="#bfbfbf" stroke="black" points="1155,-504.5 1155,-545.5 1313,-545.5 1313,-504.5 1155,-504.5"/>
<text text-anchor="start" x="1163" y="-533.5" font-family="Helvetica,sans-Serif" font-size="10.00">/home/travis/build</text>
<text text-anchor="start" x="1163" y="-522.5" font-family="Helvetica,sans-Serif" font-size="10.00">/mgerhardy/simpleai</text>
<text text-anchor="middle" x="1234" y="-511.5" font-family="Helvetica,sans-Serif" font-size="10.00">/src/ai/server/AIStateMessage.h</text>
</g>
<!-- Node2 -->
<g id="node2" class="node"><title>Node2</title>
<g id="a_node2"><a xlink:href="IProtocolMessage_8h.html" target="_top" xlink:title="IProtocolMessage.h">
<polygon fill="white" stroke="black" points="141,-448.5 141,-467.5 245,-467.5 245,-448.5 141,-448.5"/>
<text text-anchor="middle" x="193" y="-455.5" font-family="Helvetica,sans-Serif" font-size="10.00">IProtocolMessage.h</text>
</a>
</g>
</g>
<!-- Node1&#45;&gt;Node2 -->
<g id="edge1" class="edge"><title>Node1&#45;&gt;Node2</title>
<path fill="none" stroke="midnightblue" d="M1154.9,-519.061C955.459,-506.608 435.168,-474.121 255.271,-462.888"/>
<polygon fill="midnightblue" stroke="midnightblue" points="255.383,-459.388 245.184,-462.258 254.946,-466.375 255.383,-459.388"/>
</g>
<!-- Node8 -->
<g id="node8" class="node"><title>Node8</title>
<g id="a_node8"><a xlink:href="AIStubTypes_8h.html" target="_top" xlink:title="AIStubTypes.h">
<polygon fill="white" stroke="black" points="1193,-448.5 1193,-467.5 1275,-467.5 1275,-448.5 1193,-448.5"/>
<text text-anchor="middle" x="1234" y="-455.5" font-family="Helvetica,sans-Serif" font-size="10.00">AIStubTypes.h</text>
</a>
</g>
</g>
<!-- Node1&#45;&gt;Node8 -->
<g id="edge7" class="edge"><title>Node1&#45;&gt;Node8</title>
<path fill="none" stroke="midnightblue" d="M1234,-504.498C1234,-496.065 1234,-486.235 1234,-477.874"/>
<polygon fill="midnightblue" stroke="midnightblue" points="1237.5,-477.652 1234,-467.652 1230.5,-477.653 1237.5,-477.652"/>
</g>
<!-- Node9 -->
<g id="node9" class="node"><title>Node9</title>
<polygon fill="white" stroke="#bfbfbf" points="1093,-112.5 1093,-131.5 1137,-131.5 1137,-112.5 1093,-112.5"/>
<text text-anchor="middle" x="1115" y="-119.5" font-family="Helvetica,sans-Serif" font-size="10.00">vector</text>
</g>
<!-- Node1&#45;&gt;Node9 -->
<g id="edge62" class="edge"><title>Node1&#45;&gt;Node9</title>
<path fill="none" stroke="midnightblue" d="M1256.39,-504.113C1278.81,-481.9 1310,-443.683 1310,-403 1310,-403 1310,-403 1310,-289 1310,-204.454 1202.4,-153.916 1147.06,-133.514"/>
<polygon fill="midnightblue" stroke="midnightblue" points="1147.96,-130.122 1137.37,-130.054 1145.61,-136.714 1147.96,-130.122"/>
</g>
<!-- Node3 -->
<g id="node3" class="node"><title>Node3</title>
<polygon fill="white" stroke="#bfbfbf" points="-0.5,-392.5 -0.5,-411.5 48.5,-411.5 48.5,-392.5 -0.5,-392.5"/>
<text text-anchor="middle" x="24" y="-399.5" font-family="Helvetica,sans-Serif" font-size="10.00">stdint.h</text>
</g>
<!-- Node2&#45;&gt;Node3 -->
<g id="edge2" class="edge"><title>Node2&#45;&gt;Node3</title>
<path fill="none" stroke="midnightblue" d="M166.221,-448.444C137.079,-439.132 90.3909,-424.214 58.5162,-414.029"/>
<polygon fill="midnightblue" stroke="midnightblue" points="59.3197,-410.611 48.7289,-410.902 57.1891,-417.279 59.3197,-410.611"/>
</g>
<!-- Node4 -->
<g id="node4" class="node"><title>Node4</title>
<polygon fill="white" stroke="#bfbfbf" points="67,-392.5 67,-411.5 119,-411.5 119,-392.5 67,-392.5"/>
<text text-anchor="middle" x="93" y="-399.5" font-family="Helvetica,sans-Serif" font-size="10.00">stddef.h</text>
</g>
<!-- Node2&#45;&gt;Node4 -->
<g id="edge3" class="edge"><title>Node2&#45;&gt;Node4</title>
<path fill="none" stroke="midnightblue" d="M176.933,-448.324C161.042,-439.743 136.493,-426.486 118.042,-416.522"/>
<polygon fill="midnightblue" stroke="midnightblue" points="119.489,-413.326 109.027,-411.655 116.163,-419.486 119.489,-413.326"/>
</g>
<!-- Node5 -->
<g id="node5" class="node"><title>Node5</title>
<polygon fill="white" stroke="#bfbfbf" points="137,-392.5 137,-411.5 185,-411.5 185,-392.5 137,-392.5"/>
<text text-anchor="middle" x="161" y="-399.5" font-family="Helvetica,sans-Serif" font-size="10.00">limits.h</text>
</g>
<!-- Node2&#45;&gt;Node5 -->
<g id="edge4" class="edge"><title>Node2&#45;&gt;Node5</title>
<path fill="none" stroke="midnightblue" d="M187.716,-448.083C183.289,-440.613 176.837,-429.724 171.382,-420.52"/>
<polygon fill="midnightblue" stroke="midnightblue" points="174.295,-418.57 166.186,-411.751 168.273,-422.138 174.295,-418.57"/>
</g>
<!-- Node6 -->
<g id="node6" class="node"><title>Node6</title>
<polygon fill="white" stroke="#bfbfbf" points="384.5,-56.5 384.5,-75.5 425.5,-75.5 425.5,-56.5 384.5,-56.5"/>
<text text-anchor="middle" x="405" y="-63.5" font-family="Helvetica,sans-Serif" font-size="10.00">string</text>
</g>
<!-- Node2&#45;&gt;Node6 -->
<g id="edge5" class="edge"><title>Node2&#45;&gt;Node6</title>
<path fill="none" stroke="midnightblue" d="M210.399,-448.436C224.362,-440.72 243.474,-428.121 255,-412 272.58,-387.413 275,-377.225 275,-347 275,-347 275,-347 275,-177 275,-146.205 277.751,-134.289 299,-112 319.188,-90.8235 350.935,-79.1528 374.428,-73.0401"/>
<polygon fill="midnightblue" stroke="midnightblue" points="375.346,-76.4191 384.251,-70.6787 373.71,-69.613 375.346,-76.4191"/>
</g>
<!-- Node7 -->
<g id="node7" class="node"><title>Node7</title>
<polygon fill="white" stroke="#bfbfbf" points="203.5,-392.5 203.5,-411.5 246.5,-411.5 246.5,-392.5 203.5,-392.5"/>
<text text-anchor="middle" x="225" y="-399.5" font-family="Helvetica,sans-Serif" font-size="10.00">deque</text>
</g>
<!-- Node2&#45;&gt;Node7 -->
<g id="edge6" class="edge"><title>Node2&#45;&gt;Node7</title>
<path fill="none" stroke="midnightblue" d="M198.284,-448.083C202.711,-440.613 209.163,-429.724 214.618,-420.52"/>
<polygon fill="midnightblue" stroke="midnightblue" points="217.727,-422.138 219.814,-411.751 211.705,-418.57 217.727,-422.138"/>
</g>
<!-- Node8&#45;&gt;Node6 -->
<g id="edge9" class="edge"><title>Node8&#45;&gt;Node6</title>
<path fill="none" stroke="midnightblue" d="M1192.94,-456.477C1014.21,-453.67 313,-436.926 313,-347 313,-347 313,-347 313,-177 313,-134.502 353.906,-99.77 381.166,-81.3436"/>
<polygon fill="midnightblue" stroke="midnightblue" points="383.327,-84.1133 389.808,-75.732 379.515,-78.2424 383.327,-84.1133"/>
</g>
<!-- Node8&#45;&gt;Node9 -->
<g id="edge8" class="edge"><title>Node8&#45;&gt;Node9</title>
<path fill="none" stroke="midnightblue" d="M1234,-448.442C1234,-429.936 1234,-384.812 1234,-347 1234,-347 1234,-347 1234,-289 1234,-222.596 1170.32,-164.515 1136.13,-138.113"/>
<polygon fill="midnightblue" stroke="midnightblue" points="1137.83,-135.016 1127.74,-131.811 1133.63,-140.614 1137.83,-135.016"/>
</g>
<!-- Node10 -->
<g id="node10" class="node"><title>Node10</title>
<g id="a_node10"><a xlink:href="Math_8h.html" target="_top" xlink:title="common/Math.h">
<polygon fill="white" stroke="black" points="1563.5,-392.5 1563.5,-411.5 1650.5,-411.5 1650.5,-392.5 1563.5,-392.5"/>
<text text-anchor="middle" x="1607" y="-399.5" font-family="Helvetica,sans-Serif" font-size="10.00">common/Math.h</text>
</a>
</g>
</g>
<!-- Node8&#45;&gt;Node10 -->
<g id="edge10" class="edge"><title>Node8&#45;&gt;Node10</title>
<path fill="none" stroke="midnightblue" d="M1275.34,-451.015C1343.19,-441.193 1478.1,-421.662 1553.26,-410.78"/>
<polygon fill="midnightblue" stroke="midnightblue" points="1554.06,-414.2 1563.46,-409.304 1553.06,-407.273 1554.06,-414.2"/>
</g>
<!-- Node11 -->
<g id="node11" class="node"><title>Node11</title>
<g id="a_node11"><a xlink:href="Types_8h.html" target="_top" xlink:title="Types.h">
<polygon fill="white" stroke="black" points="1217,-112.5 1217,-131.5 1269,-131.5 1269,-112.5 1217,-112.5"/>
<text text-anchor="middle" x="1243" y="-119.5" font-family="Helvetica,sans-Serif" font-size="10.00">Types.h</text>
</a>
</g>
</g>
<!-- Node8&#45;&gt;Node11 -->
<g id="edge28" class="edge"><title>Node8&#45;&gt;Node11</title>
<path fill="none" stroke="midnightblue" d="M1239.28,-448.231C1249.73,-430.043 1272,-386.601 1272,-347 1272,-347 1272,-347 1272,-289 1272,-234.543 1256.67,-171.516 1248.3,-141.172"/>
<polygon fill="midnightblue" stroke="midnightblue" points="1251.67,-140.216 1245.57,-131.548 1244.93,-142.124 1251.67,-140.216"/>
</g>
<!-- Node26 -->
<g id="node26" class="node"><title>Node26</title>
<g id="a_node26"><a xlink:href="TreeNode_8h.html" target="_top" xlink:title="tree/TreeNode.h">
<polygon fill="white" stroke="black" points="765.5,-392.5 765.5,-411.5 852.5,-411.5 852.5,-392.5 765.5,-392.5"/>
<text text-anchor="middle" x="809" y="-399.5" font-family="Helvetica,sans-Serif" font-size="10.00">tree/TreeNode.h</text>
</a>
</g>
</g>
<!-- Node8&#45;&gt;Node26 -->
<g id="edge29" class="edge"><title>Node8&#45;&gt;Node26</title>
<path fill="none" stroke="midnightblue" d="M1192.86,-451.773C1115.59,-441.955 948.815,-420.765 862.772,-409.832"/>
<polygon fill="midnightblue" stroke="midnightblue" points="863.052,-406.34 852.691,-408.551 862.17,-413.284 863.052,-406.34"/>
</g>
<!-- Node10&#45;&gt;Node11 -->
<g id="edge11" class="edge"><title>Node10&#45;&gt;Node11</title>
<path fill="none" stroke="midnightblue" d="M1650.81,-399.205C1755.56,-394.535 2014.01,-380.623 2044,-356 2067.36,-336.82 2064,-321.225 2064,-291 2064,-291 2064,-291 2064,-233 2064,-152.695 1438.97,-128.783 1279.62,-123.992"/>
<polygon fill="midnightblue" stroke="midnightblue" points="1279.48,-120.486 1269.39,-123.691 1279.28,-127.483 1279.48,-120.486"/>
</g>
<!-- Node19 -->
<g id="node19" class="node"><title>Node19</title>
<polygon fill="white" stroke="#bfbfbf" points="1572,-336.5 1572,-355.5 1642,-355.5 1642,-336.5 1572,-336.5"/>
<text text-anchor="middle" x="1607" y="-343.5" font-family="Helvetica,sans-Serif" font-size="10.00">glm/glm.hpp</text>
</g>
<!-- Node10&#45;&gt;Node19 -->
<g id="edge21" class="edge"><title>Node10&#45;&gt;Node19</title>
<path fill="none" stroke="midnightblue" d="M1607,-392.083C1607,-385.006 1607,-374.861 1607,-365.986"/>
<polygon fill="midnightblue" stroke="midnightblue" points="1610.5,-365.751 1607,-355.751 1603.5,-365.751 1610.5,-365.751"/>
</g>
<!-- Node20 -->
<g id="node20" class="node"><title>Node20</title>
<polygon fill="white" stroke="#bfbfbf" points="1660.5,-336.5 1660.5,-355.5 1773.5,-355.5 1773.5,-336.5 1660.5,-336.5"/>
<text text-anchor="middle" x="1717" y="-343.5" font-family="Helvetica,sans-Serif" font-size="10.00">glm/gtc/constants.hpp</text>
</g>
<!-- Node10&#45;&gt;Node20 -->
<g id="edge22" class="edge"><title>Node10&#45;&gt;Node20</title>
<path fill="none" stroke="midnightblue" d="M1624.67,-392.324C1642.39,-383.625 1669.9,-370.12 1690.29,-360.113"/>
<polygon fill="midnightblue" stroke="midnightblue" points="1691.94,-363.203 1699.37,-355.655 1688.85,-356.919 1691.94,-363.203"/>
</g>
<!-- Node21 -->
<g id="node21" class="node"><title>Node21</title>
<polygon fill="white" stroke="#bfbfbf" points="1791.5,-336.5 1791.5,-355.5 1892.5,-355.5 1892.5,-336.5 1791.5,-336.5"/>
<text text-anchor="middle" x="1842" y="-343.5" font-family="Helvetica,sans-Serif" font-size="10.00">glm/gtc/epsilon.hpp</text>
</g>
<!-- Node10&#45;&gt;Node21 -->
<g id="edge23" class="edge"><title>Node10&#45;&gt;Node21</title>
<path fill="none" stroke="midnightblue" d="M1644.24,-392.444C1685.06,-383.063 1750.64,-367.993 1794.98,-357.804"/>
<polygon fill="midnightblue" stroke="midnightblue" points="1795.98,-361.167 1804.94,-355.516 1794.41,-354.345 1795.98,-361.167"/>
</g>
<!-- Node22 -->
<g id="node22" class="node"><title>Node22</title>
<polygon fill="white" stroke="#bfbfbf" points="1910.5,-336.5 1910.5,-355.5 2035.5,-355.5 2035.5,-336.5 1910.5,-336.5"/>
<text text-anchor="middle" x="1973" y="-343.5" font-family="Helvetica,sans-Serif" font-size="10.00">glm/gtx/compatibility.hpp</text>
</g>
<!-- Node10&#45;&gt;Node22 -->
<g id="edge24" class="edge"><title>Node10&#45;&gt;Node22</title>
<path fill="none" stroke="midnightblue" d="M1650.78,-394.54C1713.85,-385.235 1830.82,-367.978 1905.13,-357.013"/>
<polygon fill="midnightblue" stroke="midnightblue" points="1905.94,-360.432 1915.32,-355.509 1904.92,-353.507 1905.94,-360.432"/>
</g>
<!-- Node23 -->
<g id="node23" class="node"><title>Node23</title>
<polygon fill="white" stroke="#bfbfbf" points="1338,-336.5 1338,-355.5 1430,-355.5 1430,-336.5 1338,-336.5"/>
<text text-anchor="middle" x="1384" y="-343.5" font-family="Helvetica,sans-Serif" font-size="10.00">glm/gtx/norm.hpp</text>
</g>
<!-- Node10&#45;&gt;Node23 -->
<g id="edge25" class="edge"><title>Node10&#45;&gt;Node23</title>
<path fill="none" stroke="midnightblue" d="M1571.66,-392.444C1533.09,-383.102 1471.22,-368.119 1429.15,-357.933"/>
<polygon fill="midnightblue" stroke="midnightblue" points="1429.71,-354.468 1419.17,-355.516 1428.07,-361.272 1429.71,-354.468"/>
</g>
<!-- Node24 -->
<g id="node24" class="node"><title>Node24</title>
<polygon fill="white" stroke="#bfbfbf" points="1448,-336.5 1448,-355.5 1488,-355.5 1488,-336.5 1448,-336.5"/>
<text text-anchor="middle" x="1468" y="-343.5" font-family="Helvetica,sans-Serif" font-size="10.00">limits</text>
</g>
<!-- Node10&#45;&gt;Node24 -->
<g id="edge26" class="edge"><title>Node10&#45;&gt;Node24</title>
<path fill="none" stroke="midnightblue" d="M1584.98,-392.444C1561.35,-383.267 1523.71,-368.645 1497.54,-358.474"/>
<polygon fill="midnightblue" stroke="midnightblue" points="1498.71,-355.174 1488.12,-354.815 1496.17,-361.699 1498.71,-355.174"/>
</g>
<!-- Node25 -->
<g id="node25" class="node"><title>Node25</title>
<polygon fill="white" stroke="#bfbfbf" points="1506.5,-336.5 1506.5,-355.5 1553.5,-355.5 1553.5,-336.5 1506.5,-336.5"/>
<text text-anchor="middle" x="1530" y="-343.5" font-family="Helvetica,sans-Serif" font-size="10.00">math.h</text>
</g>
<!-- Node10&#45;&gt;Node25 -->
<g id="edge27" class="edge"><title>Node10&#45;&gt;Node25</title>
<path fill="none" stroke="midnightblue" d="M1594.63,-392.324C1582.84,-384.058 1564.87,-371.453 1550.86,-361.632"/>
<polygon fill="midnightblue" stroke="midnightblue" points="1552.54,-358.531 1542.34,-355.655 1548.52,-364.262 1552.54,-358.531"/>
</g>
<!-- Node11&#45;&gt;Node6 -->
<g id="edge16" class="edge"><title>Node11&#45;&gt;Node6</title>
<path fill="none" stroke="midnightblue" d="M1216.81,-118.374C1197.09,-116.449 1169.36,-113.859 1145,-112 870.109,-91.0243 537.171,-73.6463 435.764,-68.53"/>
<polygon fill="midnightblue" stroke="midnightblue" points="435.778,-65.0264 425.615,-68.02 435.427,-72.0176 435.778,-65.0264"/>
</g>
<!-- Node12 -->
<g id="node12" class="node"><title>Node12</title>
<g id="a_node12"><a xlink:href="Log_8h.html" target="_top" xlink:title="Log.h">
<polygon fill="white" stroke="black" points="1222.5,-56.5 1222.5,-75.5 1263.5,-75.5 1263.5,-56.5 1222.5,-56.5"/>
<text text-anchor="middle" x="1243" y="-63.5" font-family="Helvetica,sans-Serif" font-size="10.00">Log.h</text>
</a>
</g>
</g>
<!-- Node11&#45;&gt;Node12 -->
<g id="edge12" class="edge"><title>Node11&#45;&gt;Node12</title>
<path fill="none" stroke="midnightblue" d="M1243,-112.083C1243,-105.006 1243,-94.8611 1243,-85.9865"/>
<polygon fill="midnightblue" stroke="midnightblue" points="1246.5,-85.751 1243,-75.7511 1239.5,-85.7511 1246.5,-85.751"/>
</g>
<!-- Node13 -->
<g id="node13" class="node"><title>Node13</title>
<polygon fill="white" stroke="#bfbfbf" points="1278,-0.5 1278,-19.5 1324,-19.5 1324,-0.5 1278,-0.5"/>
<text text-anchor="middle" x="1301" y="-7.5" font-family="Helvetica,sans-Serif" font-size="10.00">stdio.h</text>
</g>
<!-- Node11&#45;&gt;Node13 -->
<g id="edge19" class="edge"><title>Node11&#45;&gt;Node13</title>
<path fill="none" stroke="midnightblue" d="M1249.19,-112.279C1255.36,-103.387 1264.92,-89.0784 1272,-76 1280.35,-60.5648 1288.36,-42.2489 1293.84,-28.9999"/>
<polygon fill="midnightblue" stroke="midnightblue" points="1297.13,-30.195 1297.65,-19.6127 1290.65,-27.5639 1297.13,-30.195"/>
</g>
<!-- Node16 -->
<g id="node16" class="node"><title>Node16</title>
<polygon fill="white" stroke="#bfbfbf" points="1320.5,-56.5 1320.5,-75.5 1403.5,-75.5 1403.5,-56.5 1320.5,-56.5"/>
<text text-anchor="middle" x="1362" y="-63.5" font-family="Helvetica,sans-Serif" font-size="10.00">unordered_map</text>
</g>
<!-- Node11&#45;&gt;Node16 -->
<g id="edge17" class="edge"><title>Node11&#45;&gt;Node16</title>
<path fill="none" stroke="midnightblue" d="M1261.86,-112.444C1281.27,-103.636 1311.73,-89.8116 1333.96,-79.722"/>
<polygon fill="midnightblue" stroke="midnightblue" points="1335.57,-82.836 1343.23,-75.5164 1332.68,-76.4615 1335.57,-82.836"/>
</g>
<!-- Node17 -->
<g id="node17" class="node"><title>Node17</title>
<polygon fill="white" stroke="#bfbfbf" points="1075,-56.5 1075,-75.5 1127,-75.5 1127,-56.5 1075,-56.5"/>
<text text-anchor="middle" x="1101" y="-63.5" font-family="Helvetica,sans-Serif" font-size="10.00">assert.h</text>
</g>
<!-- Node11&#45;&gt;Node17 -->
<g id="edge18" class="edge"><title>Node11&#45;&gt;Node17</title>
<path fill="none" stroke="midnightblue" d="M1220.5,-112.444C1196.92,-103.478 1159.68,-89.314 1133.04,-79.1827"/>
<polygon fill="midnightblue" stroke="midnightblue" points="1133.99,-75.7995 1123.4,-75.5164 1131.5,-82.3424 1133.99,-75.7995"/>
</g>
<!-- Node18 -->
<g id="node18" class="node"><title>Node18</title>
<polygon fill="white" stroke="#bfbfbf" points="1145.5,-56.5 1145.5,-75.5 1204.5,-75.5 1204.5,-56.5 1145.5,-56.5"/>
<text text-anchor="middle" x="1175" y="-63.5" font-family="Helvetica,sans-Serif" font-size="10.00">inttypes.h</text>
</g>
<!-- Node11&#45;&gt;Node18 -->
<g id="edge20" class="edge"><title>Node11&#45;&gt;Node18</title>
<path fill="none" stroke="midnightblue" d="M1232.07,-112.324C1221.83,-104.185 1206.28,-91.8395 1194,-82.0874"/>
<polygon fill="midnightblue" stroke="midnightblue" points="1196.13,-79.3119 1186.12,-75.8339 1191.78,-84.7937 1196.13,-79.3119"/>
</g>
<!-- Node12&#45;&gt;Node13 -->
<g id="edge13" class="edge"><title>Node12&#45;&gt;Node13</title>
<path fill="none" stroke="midnightblue" d="M1252.32,-56.324C1260.89,-48.3414 1273.81,-36.3128 1284.19,-26.6529"/>
<polygon fill="midnightblue" stroke="midnightblue" points="1286.58,-29.2098 1291.51,-19.8339 1281.81,-24.0865 1286.58,-29.2098"/>
</g>
<!-- Node14 -->
<g id="node14" class="node"><title>Node14</title>
<polygon fill="white" stroke="#bfbfbf" points="1140,-0.5 1140,-19.5 1192,-19.5 1192,-0.5 1140,-0.5"/>
<text text-anchor="middle" x="1166" y="-7.5" font-family="Helvetica,sans-Serif" font-size="10.00">stdarg.h</text>
</g>
<!-- Node12&#45;&gt;Node14 -->
<g id="edge14" class="edge"><title>Node12&#45;&gt;Node14</title>
<path fill="none" stroke="midnightblue" d="M1230.63,-56.324C1218.84,-48.0577 1200.87,-35.4527 1186.86,-25.6322"/>
<polygon fill="midnightblue" stroke="midnightblue" points="1188.54,-22.5307 1178.34,-19.6545 1184.52,-28.2619 1188.54,-22.5307"/>
</g>
<!-- Node15 -->
<g id="node15" class="node"><title>Node15</title>
<polygon fill="white" stroke="#bfbfbf" points="1210.5,-0.5 1210.5,-19.5 1259.5,-19.5 1259.5,-0.5 1210.5,-0.5"/>
<text text-anchor="middle" x="1235" y="-7.5" font-family="Helvetica,sans-Serif" font-size="10.00">string.h</text>
</g>
<!-- Node12&#45;&gt;Node15 -->
<g id="edge15" class="edge"><title>Node12&#45;&gt;Node15</title>
<path fill="none" stroke="midnightblue" d="M1241.68,-56.083C1240.62,-48.9272 1239.09,-38.6353 1237.77,-29.6911"/>
<polygon fill="midnightblue" stroke="midnightblue" points="1241.22,-29.1302 1236.3,-19.7511 1234.3,-30.1561 1241.22,-29.1302"/>
</g>
<!-- Node26&#45;&gt;Node6 -->
<g id="edge59" class="edge"><title>Node26&#45;&gt;Node6</title>
<path fill="none" stroke="midnightblue" d="M765.5,-399.771C651.175,-395.368 351,-375.739 351,-291 351,-291 351,-291 351,-177 351,-140.863 374.775,-104.252 390.774,-83.7063"/>
<polygon fill="midnightblue" stroke="midnightblue" points="393.689,-85.6678 397.263,-75.694 388.249,-81.2619 393.689,-85.6678"/>
</g>
<!-- Node26&#45;&gt;Node9 -->
<g id="edge58" class="edge"><title>Node26&#45;&gt;Node9</title>
<path fill="none" stroke="midnightblue" d="M852.703,-395.049C926.795,-382.344 1075.22,-344.978 1139,-244 1159.5,-211.551 1139.53,-165.236 1125.72,-140.371"/>
<polygon fill="midnightblue" stroke="midnightblue" points="1128.71,-138.557 1120.65,-131.685 1122.66,-142.086 1128.71,-138.557"/>
</g>
<!-- Node26&#45;&gt;Node11 -->
<g id="edge30" class="edge"><title>Node26&#45;&gt;Node11</title>
<path fill="none" stroke="midnightblue" d="M852.818,-396.936C898.083,-391.616 970.083,-379.984 1028,-356 1133.18,-312.445 1208.74,-187.185 1233.89,-140.668"/>
<polygon fill="midnightblue" stroke="midnightblue" points="1237.02,-142.24 1238.6,-131.764 1230.83,-138.965 1237.02,-142.24"/>
</g>
<!-- Node27 -->
<g id="node27" class="node"><title>Node27</title>
<g id="a_node27"><a xlink:href="MemoryAllocator_8h.html" target="_top" xlink:title="common/MemoryAllocator.h">
<polygon fill="white" stroke="black" points="379.5,-224.5 379.5,-243.5 518.5,-243.5 518.5,-224.5 379.5,-224.5"/>
<text text-anchor="middle" x="449" y="-231.5" font-family="Helvetica,sans-Serif" font-size="10.00">common/MemoryAllocator.h</text>
</a>
</g>
</g>
<!-- Node26&#45;&gt;Node27 -->
<g id="edge31" class="edge"><title>Node26&#45;&gt;Node27</title>
<path fill="none" stroke="midnightblue" d="M765.242,-400.316C715.5,-397.874 633.157,-388.683 571,-356 522.345,-330.417 480.522,-278.969 460.906,-252.148"/>
<polygon fill="midnightblue" stroke="midnightblue" points="463.581,-249.872 454.919,-243.771 457.886,-253.942 463.581,-249.872"/>
</g>
<!-- Node28 -->
<g id="node28" class="node"><title>Node28</title>
<polygon fill="white" stroke="#bfbfbf" points="531,-112.5 531,-131.5 583,-131.5 583,-112.5 531,-112.5"/>
<text text-anchor="middle" x="557" y="-119.5" font-family="Helvetica,sans-Serif" font-size="10.00">memory</text>
</g>
<!-- Node26&#45;&gt;Node28 -->
<g id="edge60" class="edge"><title>Node26&#45;&gt;Node28</title>
<path fill="none" stroke="midnightblue" d="M765.349,-393.452C738.506,-387.064 704.65,-375.687 680,-356 611.199,-301.052 610.451,-268.599 575,-188 568.37,-172.927 563.593,-154.8 560.633,-141.523"/>
<polygon fill="midnightblue" stroke="midnightblue" points="564.048,-140.754 558.574,-131.684 557.197,-142.189 564.048,-140.754"/>
</g>
<!-- Node29 -->
<g id="node29" class="node"><title>Node29</title>
<g id="a_node29"><a xlink:href="ICondition_8h.html" target="_top" xlink:title="Condition related stuff. ">
<polygon fill="white" stroke="black" points="703,-280.5 703,-299.5 819,-299.5 819,-280.5 703,-280.5"/>
<text text-anchor="middle" x="761" y="-287.5" font-family="Helvetica,sans-Serif" font-size="10.00">conditions/ICondition.h</text>
</a>
</g>
</g>
<!-- Node26&#45;&gt;Node29 -->
<g id="edge33" class="edge"><title>Node26&#45;&gt;Node29</title>
<path fill="none" stroke="midnightblue" d="M807.295,-392.305C804.613,-379.565 798.792,-355.25 790,-336 785.511,-326.172 779.119,-315.99 773.478,-307.803"/>
<polygon fill="midnightblue" stroke="midnightblue" points="776.23,-305.634 767.569,-299.532 770.534,-309.703 776.23,-305.634"/>
</g>
<!-- Node41 -->
<g id="node41" class="node"><title>Node41</title>
<g id="a_node41"><a xlink:href="True_8h.html" target="_top" xlink:title="conditions/True.h">
<polygon fill="white" stroke="black" points="689,-336.5 689,-355.5 781,-355.5 781,-336.5 689,-336.5"/>
<text text-anchor="middle" x="735" y="-343.5" font-family="Helvetica,sans-Serif" font-size="10.00">conditions/True.h</text>
</a>
</g>
</g>
<!-- Node26&#45;&gt;Node41 -->
<g id="edge56" class="edge"><title>Node26&#45;&gt;Node41</title>
<path fill="none" stroke="midnightblue" d="M797.111,-392.324C785.85,-384.107 768.713,-371.602 755.291,-361.807"/>
<polygon fill="midnightblue" stroke="midnightblue" points="757.247,-358.901 747.106,-355.834 753.12,-364.556 757.247,-358.901"/>
</g>
<!-- Node42 -->
<g id="node42" class="node"><title>Node42</title>
<polygon fill="white" stroke="#bfbfbf" points="837,-336.5 837,-355.5 893,-355.5 893,-336.5 837,-336.5"/>
<text text-anchor="middle" x="865" y="-343.5" font-family="Helvetica,sans-Serif" font-size="10.00">algorithm</text>
</g>
<!-- Node26&#45;&gt;Node42 -->
<g id="edge61" class="edge"><title>Node26&#45;&gt;Node42</title>
<path fill="none" stroke="midnightblue" d="M817.997,-392.324C826.194,-384.42 838.506,-372.548 848.472,-362.938"/>
<polygon fill="midnightblue" stroke="midnightblue" points="851.07,-365.295 855.839,-355.834 846.211,-360.256 851.07,-365.295"/>
</g>
<!-- Node27&#45;&gt;Node28 -->
<g id="edge32" class="edge"><title>Node27&#45;&gt;Node28</title>
<path fill="none" stroke="midnightblue" d="M457.475,-224.368C475.613,-205.894 518.422,-162.293 541.543,-138.744"/>
<polygon fill="midnightblue" stroke="midnightblue" points="544.056,-141.179 548.565,-131.591 539.061,-136.275 544.056,-141.179"/>
</g>
<!-- Node29&#45;&gt;Node6 -->
<g id="edge34" class="edge"><title>Node29&#45;&gt;Node6</title>
<path fill="none" stroke="midnightblue" d="M727.68,-280.487C701.095,-272.951 663.403,-260.573 633,-244 545.832,-196.482 457.029,-116.504 421.328,-82.7667"/>
<polygon fill="midnightblue" stroke="midnightblue" points="423.447,-79.9511 413.794,-75.5847 418.617,-85.018 423.447,-79.9511"/>
</g>
<!-- Node29&#45;&gt;Node9 -->
<g id="edge35" class="edge"><title>Node29&#45;&gt;Node9</title>
<path fill="none" stroke="midnightblue" d="M819.072,-284.386C886.846,-278.116 993.987,-265.192 1028,-244 1067.94,-219.118 1095.04,-168.525 1107.38,-141.307"/>
<polygon fill="midnightblue" stroke="midnightblue" points="1110.73,-142.385 1111.52,-131.819 1104.31,-139.589 1110.73,-142.385"/>
</g>
<!-- Node29&#45;&gt;Node27 -->
<g id="edge38" class="edge"><title>Node29&#45;&gt;Node27</title>
<path fill="none" stroke="midnightblue" d="M711.563,-280.444C656.336,-270.885 566.979,-255.419 508.105,-245.23"/>
<polygon fill="midnightblue" stroke="midnightblue" points="508.656,-241.773 498.206,-243.516 507.463,-248.671 508.656,-241.773"/>
</g>
<!-- Node29&#45;&gt;Node28 -->
<g id="edge37" class="edge"><title>Node29&#45;&gt;Node28</title>
<path fill="none" stroke="midnightblue" d="M739.49,-280.456C704.987,-265.874 636.721,-233.302 593,-188 580.008,-174.538 570.182,-155.467 564.105,-141.463"/>
<polygon fill="midnightblue" stroke="midnightblue" points="567.226,-139.848 560.198,-131.919 560.747,-142.5 567.226,-139.848"/>
</g>
<!-- Node30 -->
<g id="node30" class="node"><title>Node30</title>
<polygon fill="white" stroke="#bfbfbf" points="1078,-224.5 1078,-243.5 1130,-243.5 1130,-224.5 1078,-224.5"/>
<text text-anchor="middle" x="1104" y="-231.5" font-family="Helvetica,sans-Serif" font-size="10.00">sstream</text>
</g>
<!-- Node29&#45;&gt;Node30 -->
<g id="edge36" class="edge"><title>Node29&#45;&gt;Node30</title>
<path fill="none" stroke="midnightblue" d="M819.017,-281.68C880.161,-273.662 979.176,-259.819 1064,-244 1065.26,-243.765 1066.54,-243.519 1067.83,-243.264"/>
<polygon fill="midnightblue" stroke="midnightblue" points="1068.73,-246.651 1077.81,-241.184 1067.3,-239.799 1068.73,-246.651"/>
</g>
<!-- Node31 -->
<g id="node31" class="node"><title>Node31</title>
<g id="a_node31"><a xlink:href="Thread_8h.html" target="_top" xlink:title="common/Thread.h">
<polygon fill="white" stroke="black" points="924.5,-224.5 924.5,-243.5 1019.5,-243.5 1019.5,-224.5 924.5,-224.5"/>
<text text-anchor="middle" x="972" y="-231.5" font-family="Helvetica,sans-Serif" font-size="10.00">common/Thread.h</text>
</a>
</g>
</g>
<!-- Node29&#45;&gt;Node31 -->
<g id="edge39" class="edge"><title>Node29&#45;&gt;Node31</title>
<path fill="none" stroke="midnightblue" d="M794.434,-280.444C830.856,-271.122 889.23,-256.183 929.029,-245.997"/>
<polygon fill="midnightblue" stroke="midnightblue" points="929.903,-249.387 938.723,-243.516 928.167,-242.605 929.903,-249.387"/>
</g>
<!-- Node35 -->
<g id="node35" class="node"><title>Node35</title>
<g id="a_node35"><a xlink:href="AIFactories_8h.html" target="_top" xlink:title="AIFactories.h">
<polygon fill="white" stroke="black" points="723.5,-224.5 723.5,-243.5 798.5,-243.5 798.5,-224.5 723.5,-224.5"/>
<text text-anchor="middle" x="761" y="-231.5" font-family="Helvetica,sans-Serif" font-size="10.00">AIFactories.h</text>
</a>
</g>
</g>
<!-- Node29&#45;&gt;Node35 -->
<g id="edge44" class="edge"><title>Node29&#45;&gt;Node35</title>
<path fill="none" stroke="midnightblue" d="M761,-280.083C761,-273.006 761,-262.861 761,-253.986"/>
<polygon fill="midnightblue" stroke="midnightblue" points="764.5,-253.751 761,-243.751 757.5,-253.751 764.5,-253.751"/>
</g>
<!-- Node31&#45;&gt;Node11 -->
<g id="edge40" class="edge"><title>Node31&#45;&gt;Node11</title>
<path fill="none" stroke="midnightblue" d="M993.265,-224.368C1041.05,-204.97 1157.09,-157.87 1212.53,-135.367"/>
<polygon fill="midnightblue" stroke="midnightblue" points="1213.88,-138.596 1221.83,-131.591 1211.25,-132.109 1213.88,-138.596"/>
</g>
<!-- Node32 -->
<g id="node32" class="node"><title>Node32</title>
<polygon fill="white" stroke="#bfbfbf" points="950,-168.5 950,-187.5 994,-187.5 994,-168.5 950,-168.5"/>
<text text-anchor="middle" x="972" y="-175.5" font-family="Helvetica,sans-Serif" font-size="10.00">thread</text>
</g>
<!-- Node31&#45;&gt;Node32 -->
<g id="edge41" class="edge"><title>Node31&#45;&gt;Node32</title>
<path fill="none" stroke="midnightblue" d="M972,-224.083C972,-217.006 972,-206.861 972,-197.986"/>
<polygon fill="midnightblue" stroke="midnightblue" points="975.5,-197.751 972,-187.751 968.5,-197.751 975.5,-197.751"/>
</g>
<!-- Node33 -->
<g id="node33" class="node"><title>Node33</title>
<polygon fill="white" stroke="#bfbfbf" points="1012,-168.5 1012,-187.5 1056,-187.5 1056,-168.5 1012,-168.5"/>
<text text-anchor="middle" x="1034" y="-175.5" font-family="Helvetica,sans-Serif" font-size="10.00">mutex</text>
</g>
<!-- Node31&#45;&gt;Node33 -->
<g id="edge42" class="edge"><title>Node31&#45;&gt;Node33</title>
<path fill="none" stroke="midnightblue" d="M981.961,-224.324C991.127,-216.341 1004.94,-204.313 1016.03,-194.653"/>
<polygon fill="midnightblue" stroke="midnightblue" points="1018.62,-197.041 1023.86,-187.834 1014.02,-191.762 1018.62,-197.041"/>
</g>
<!-- Node34 -->
<g id="node34" class="node"><title>Node34</title>
<polygon fill="white" stroke="#bfbfbf" points="886,-168.5 886,-187.5 932,-187.5 932,-168.5 886,-168.5"/>
<text text-anchor="middle" x="909" y="-175.5" font-family="Helvetica,sans-Serif" font-size="10.00">atomic</text>
</g>
<!-- Node31&#45;&gt;Node34 -->
<g id="edge43" class="edge"><title>Node31&#45;&gt;Node34</title>
<path fill="none" stroke="midnightblue" d="M961.878,-224.324C952.474,-216.263 938.256,-204.077 926.931,-194.369"/>
<polygon fill="midnightblue" stroke="midnightblue" points="929.177,-191.684 919.306,-187.834 924.621,-196.999 929.177,-191.684"/>
</g>
<!-- Node35&#45;&gt;Node9 -->
<g id="edge55" class="edge"><title>Node35&#45;&gt;Node9</title>
<path fill="none" stroke="midnightblue" d="M775.818,-224.342C804.655,-207.547 866.424,-171.846 877,-168 947.76,-142.266 1035.97,-130.516 1082.6,-125.778"/>
<polygon fill="midnightblue" stroke="midnightblue" points="1083.1,-129.246 1092.71,-124.795 1082.42,-122.279 1083.1,-129.246"/>
</g>
<!-- Node36 -->
<g id="node36" class="node"><title>Node36</title>
<g id="a_node36"><a xlink:href="IAIFactory_8h.html" target="_top" xlink:title="IAIFactory.h">
<polygon fill="white" stroke="black" points="602.5,-168.5 602.5,-187.5 673.5,-187.5 673.5,-168.5 602.5,-168.5"/>
<text text-anchor="middle" x="638" y="-175.5" font-family="Helvetica,sans-Serif" font-size="10.00">IAIFactory.h</text>
</a>
</g>
</g>
<!-- Node35&#45;&gt;Node36 -->
<g id="edge45" class="edge"><title>Node35&#45;&gt;Node36</title>
<path fill="none" stroke="midnightblue" d="M741.51,-224.444C721.358,-215.596 689.677,-201.687 666.669,-191.586"/>
<polygon fill="midnightblue" stroke="midnightblue" points="667.962,-188.332 657.399,-187.516 665.148,-194.741 667.962,-188.332"/>
</g>
<!-- Node38 -->
<g id="node38" class="node"><title>Node38</title>
<g id="a_node38"><a xlink:href="IFactoryRegistry_8h.html" target="_top" xlink:title="common/IFactoryRegistry.h">
<polygon fill="white" stroke="black" points="692,-168.5 692,-187.5 830,-187.5 830,-168.5 692,-168.5"/>
<text text-anchor="middle" x="761" y="-175.5" font-family="Helvetica,sans-Serif" font-size="10.00">common/IFactoryRegistry.h</text>
</a>
</g>
</g>
<!-- Node35&#45;&gt;Node38 -->
<g id="edge50" class="edge"><title>Node35&#45;&gt;Node38</title>
<path fill="none" stroke="midnightblue" d="M761,-224.083C761,-217.006 761,-206.861 761,-197.986"/>
<polygon fill="midnightblue" stroke="midnightblue" points="764.5,-197.751 761,-187.751 757.5,-197.751 764.5,-197.751"/>
</g>
<!-- Node36&#45;&gt;Node6 -->
<g id="edge47" class="edge"><title>Node36&#45;&gt;Node6</title>
<path fill="none" stroke="midnightblue" d="M634.338,-168.313C627.925,-154.201 613.287,-126.424 592,-112 544.015,-79.485 475.126,-70.3748 435.744,-67.879"/>
<polygon fill="midnightblue" stroke="midnightblue" points="435.866,-64.3806 425.695,-67.3464 435.496,-71.3708 435.866,-64.3806"/>
</g>
<!-- Node36&#45;&gt;Node9 -->
<g id="edge48" class="edge"><title>Node36&#45;&gt;Node9</title>
<path fill="none" stroke="midnightblue" d="M673.808,-169.524C676.911,-168.972 680.007,-168.454 683,-168 831.561,-145.457 1010.59,-130.743 1082.65,-125.329"/>
<polygon fill="midnightblue" stroke="midnightblue" points="1083.16,-128.8 1092.88,-124.569 1082.65,-121.819 1083.16,-128.8"/>
</g>
<!-- Node36&#45;&gt;Node28 -->
<g id="edge46" class="edge"><title>Node36&#45;&gt;Node28</title>
<path fill="none" stroke="midnightblue" d="M624.986,-168.324C612.468,-159.979 593.318,-147.212 578.529,-137.352"/>
<polygon fill="midnightblue" stroke="midnightblue" points="580.244,-134.289 569.982,-131.655 576.361,-140.114 580.244,-134.289"/>
</g>
<!-- Node37 -->
<g id="node37" class="node"><title>Node37</title>
<polygon fill="white" stroke="#bfbfbf" points="639.5,-112.5 639.5,-131.5 668.5,-131.5 668.5,-112.5 639.5,-112.5"/>
<text text-anchor="middle" x="654" y="-119.5" font-family="Helvetica,sans-Serif" font-size="10.00">list</text>
</g>
<!-- Node36&#45;&gt;Node37 -->
<g id="edge49" class="edge"><title>Node36&#45;&gt;Node37</title>
<path fill="none" stroke="midnightblue" d="M640.642,-168.083C642.786,-160.849 645.879,-150.409 648.549,-141.397"/>
<polygon fill="midnightblue" stroke="midnightblue" points="651.922,-142.333 651.407,-131.751 645.21,-140.345 651.922,-142.333"/>
</g>
<!-- Node38&#45;&gt;Node11 -->
<g id="edge51" class="edge"><title>Node38&#45;&gt;Node11</title>
<path fill="none" stroke="midnightblue" d="M830.059,-169.263C933.943,-157.625 1126.76,-136.022 1206.76,-127.06"/>
<polygon fill="midnightblue" stroke="midnightblue" points="1207.29,-130.523 1216.84,-125.931 1206.51,-123.566 1207.29,-130.523"/>
</g>
<!-- Node38&#45;&gt;Node28 -->
<g id="edge53" class="edge"><title>Node38&#45;&gt;Node28</title>
<path fill="none" stroke="midnightblue" d="M728.676,-168.444C691.651,-158.643 631.165,-142.632 592.758,-132.465"/>
<polygon fill="midnightblue" stroke="midnightblue" points="593.586,-129.064 583.024,-129.889 591.795,-135.831 593.586,-129.064"/>
</g>
<!-- Node39 -->
<g id="node39" class="node"><title>Node39</title>
<g id="a_node39"><a xlink:href="NonCopyable_8h.html" target="_top" xlink:title="common/NonCopyable.h">
<polygon fill="white" stroke="black" points="760.5,-112.5 760.5,-131.5 885.5,-131.5 885.5,-112.5 760.5,-112.5"/>
<text text-anchor="middle" x="823" y="-119.5" font-family="Helvetica,sans-Serif" font-size="10.00">common/NonCopyable.h</text>
</a>
</g>
</g>
<!-- Node38&#45;&gt;Node39 -->
<g id="edge52" class="edge"><title>Node38&#45;&gt;Node39</title>
<path fill="none" stroke="midnightblue" d="M770.961,-168.324C780.127,-160.341 793.937,-148.313 805.028,-138.653"/>
<polygon fill="midnightblue" stroke="midnightblue" points="807.615,-141.041 812.857,-131.834 803.018,-135.762 807.615,-141.041"/>
</g>
<!-- Node40 -->
<g id="node40" class="node"><title>Node40</title>
<polygon fill="white" stroke="#bfbfbf" points="707.5,-112.5 707.5,-131.5 742.5,-131.5 742.5,-112.5 707.5,-112.5"/>
<text text-anchor="middle" x="725" y="-119.5" font-family="Helvetica,sans-Serif" font-size="10.00">map</text>
</g>
<!-- Node38&#45;&gt;Node40 -->
<g id="edge54" class="edge"><title>Node38&#45;&gt;Node40</title>
<path fill="none" stroke="midnightblue" d="M755.055,-168.083C750.023,-160.534 742.663,-149.495 736.487,-140.23"/>
<polygon fill="midnightblue" stroke="midnightblue" points="739.293,-138.13 730.834,-131.751 733.469,-142.013 739.293,-138.13"/>
</g>
<!-- Node41&#45;&gt;Node29 -->
<g id="edge57" class="edge"><title>Node41&#45;&gt;Node29</title>
<path fill="none" stroke="midnightblue" d="M739.293,-336.083C742.852,-328.691 748.022,-317.953 752.424,-308.811"/>
<polygon fill="midnightblue" stroke="midnightblue" points="755.602,-310.279 756.787,-299.751 749.295,-307.243 755.602,-310.279"/>
</g>
</g>
</svg>
