<?xml version="1.0" encoding="UTF-8" standalone="no"?>
<!DOCTYPE svg PUBLIC "-//W3C//DTD SVG 1.1//EN"
 "http://www.w3.org/Graphics/SVG/1.1/DTD/svg11.dtd">
<!-- Generated by graphviz version 2.36.0 (20140111.2315)
 -->
<!-- Title: /home/travis/build/mgerhardy/simpleai/src/ai/server/AIUpdateNodeMessage.h Pages: 1 -->
<svg width="415pt" height="308pt"
 viewBox="0.00 0.00 415.00 308.00" xmlns="http://www.w3.org/2000/svg" xmlns:xlink="http://www.w3.org/1999/xlink">
<g id="graph0" class="graph" transform="scale(1 1) rotate(0) translate(4 304)">
<title>/home/travis/build/mgerhardy/simpleai/src/ai/server/AIUpdateNodeMessage.h</title>
<polygon fill="white" stroke="none" points="-4,4 -4,-304 411,-304 411,4 -4,4"/>
<!-- Node1 -->
<g id="node1" class="node"><title>Node1</title>
<polygon fill="#bfbfbf" stroke="black" points="135.5,-247 135.5,-299 276.5,-299 276.5,-247 135.5,-247"/>
<text text-anchor="start" x="143.5" y="-287" font-family="Helvetica,sans-Serif" font-size="10.00">/home/travis/build</text>
<text text-anchor="start" x="143.5" y="-276" font-family="Helvetica,sans-Serif" font-size="10.00">/mgerhardy/simpleai</text>
<text text-anchor="start" x="143.5" y="-265" font-family="Helvetica,sans-Serif" font-size="10.00">/src/ai/server/AIUpdateNode</text>
<text text-anchor="middle" x="206" y="-254" font-family="Helvetica,sans-Serif" font-size="10.00">Message.h</text>
</g>
<!-- Node2 -->
<g id="node2" class="node"><title>Node2</title>
<g id="a_node2"><a xlink:href="ProtocolMessageFactory_8h.html" target="_top" xlink:title="/home/travis/build\l/mgerhardy/simpleai\l/src/ai/server/ProtocolMessage\lFactory.h">
<polygon fill="white" stroke="black" points="26,-157 26,-209 178,-209 178,-157 26,-157"/>
<text text-anchor="start" x="34" y="-197" font-family="Helvetica,sans-Serif" font-size="10.00">/home/travis/build</text>
<text text-anchor="start" x="34" y="-186" font-family="Helvetica,sans-Serif" font-size="10.00">/mgerhardy/simpleai</text>
<text text-anchor="start" x="34" y="-175" font-family="Helvetica,sans-Serif" font-size="10.00">/src/ai/server/ProtocolMessage</text>
<text text-anchor="middle" x="102" y="-164" font-family="Helvetica,sans-Serif" font-size="10.00">Factory.h</text>
</a>
</g>
</g>
<!-- Node1&#45;&gt;Node2 -->
<g id="edge1" class="edge"><title>Node1&#45;&gt;Node2</title>
<path fill="none" stroke="midnightblue" d="M168.468,-240.242C156.413,-230.042 143.23,-218.887 131.807,-209.221"/>
<polygon fill="midnightblue" stroke="midnightblue" points="166.303,-242.995 176.198,-246.783 170.825,-237.651 166.303,-242.995"/>
</g>
<!-- Node4 -->
<g id="node4" class="node"><title>Node4</title>
<g id="a_node4"><a xlink:href="SimpleAI_8h.html" target="_top" xlink:title="/home/travis/build\l/mgerhardy/simpleai\l/src/ai/SimpleAI.h">
<polygon fill="white" stroke="black" points="135,-0.5 135,-41.5 239,-41.5 239,-0.5 135,-0.5"/>
<text text-anchor="start" x="143" y="-29.5" font-family="Helvetica,sans-Serif" font-size="10.00">/home/travis/build</text>
<text text-anchor="start" x="143" y="-18.5" font-family="Helvetica,sans-Serif" font-size="10.00">/mgerhardy/simpleai</text>
<text text-anchor="middle" x="187" y="-7.5" font-family="Helvetica,sans-Serif" font-size="10.00">/src/ai/SimpleAI.h</text>
</a>
</g>
</g>
<!-- Node1&#45;&gt;Node4 -->
<g id="edge8" class="edge"><title>Node1&#45;&gt;Node4</title>
<path fill="none" stroke="midnightblue" d="M203.311,-236.622C199.255,-183.251 191.705,-83.9076 188.5,-41.7427"/>
<polygon fill="midnightblue" stroke="midnightblue" points="199.826,-236.947 204.074,-246.653 206.806,-236.416 199.826,-236.947"/>
</g>
<!-- Node5 -->
<g id="node5" class="node"><title>Node5</title>
<g id="a_node5"><a xlink:href="UpdateNodeHandler_8h.html" target="_top" xlink:title="/home/travis/build\l/mgerhardy/simpleai\l/src/ai/server/UpdateNodeHandler.h">
<polygon fill="white" stroke="black" points="234.5,-162.5 234.5,-203.5 407.5,-203.5 407.5,-162.5 234.5,-162.5"/>
<text text-anchor="start" x="242.5" y="-191.5" font-family="Helvetica,sans-Serif" font-size="10.00">/home/travis/build</text>
<text text-anchor="start" x="242.5" y="-180.5" font-family="Helvetica,sans-Serif" font-size="10.00">/mgerhardy/simpleai</text>
<text text-anchor="middle" x="321" y="-169.5" font-family="Helvetica,sans-Serif" font-size="10.00">/src/ai/server/UpdateNodeHandler.h</text>
</a>
</g>
</g>
<!-- Node1&#45;&gt;Node5 -->
<g id="edge5" class="edge"><title>Node1&#45;&gt;Node5</title>
<path fill="none" stroke="midnightblue" d="M247.164,-240.501C263.243,-228.197 281.181,-214.47 295.349,-203.628"/>
<polygon fill="midnightblue" stroke="midnightblue" points="244.769,-237.926 238.954,-246.783 249.023,-243.485 244.769,-237.926"/>
</g>
<!-- Node3 -->
<g id="node3" class="node"><title>Node3</title>
<g id="a_node3"><a xlink:href="NetworkImpl_8h.html" target="_top" xlink:title="/home/travis/build\l/mgerhardy/simpleai\l/src/ai/server/NetworkImpl.h">
<polygon fill="white" stroke="black" points="0,-78.5 0,-119.5 140,-119.5 140,-78.5 0,-78.5"/>
<text text-anchor="start" x="8" y="-107.5" font-family="Helvetica,sans-Serif" font-size="10.00">/home/travis/build</text>
<text text-anchor="start" x="8" y="-96.5" font-family="Helvetica,sans-Serif" font-size="10.00">/mgerhardy/simpleai</text>
<text text-anchor="middle" x="70" y="-85.5" font-family="Helvetica,sans-Serif" font-size="10.00">/src/ai/server/NetworkImpl.h</text>
</a>
</g>
</g>
<!-- Node2&#45;&gt;Node3 -->
<g id="edge2" class="edge"><title>Node2&#45;&gt;Node3</title>
<path fill="none" stroke="midnightblue" d="M88.4811,-147.358C84.7933,-137.908 80.9252,-127.996 77.6864,-119.696"/>
<polygon fill="midnightblue" stroke="midnightblue" points="85.3291,-148.908 92.2251,-156.952 91.8501,-146.364 85.3291,-148.908"/>
</g>
<!-- Node2&#45;&gt;Node4 -->
<g id="edge4" class="edge"><title>Node2&#45;&gt;Node4</title>
<path fill="none" stroke="midnightblue" d="M129.783,-148.883C136.597,-139.855 143.504,-129.842 149,-120 163.324,-94.3488 174.661,-62.2007 181.102,-41.8733"/>
<polygon fill="midnightblue" stroke="midnightblue" points="126.956,-146.817 123.594,-156.864 132.488,-151.106 126.956,-146.817"/>
</g>
<!-- Node3&#45;&gt;Node4 -->
<g id="edge3" class="edge"><title>Node3&#45;&gt;Node4</title>
<path fill="none" stroke="midnightblue" d="M108.611,-72.9194C124.34,-62.702 142.247,-51.0701 156.972,-41.5056"/>
<polygon fill="midnightblue" stroke="midnightblue" points="106.61,-70.0456 100.13,-78.4281 110.423,-75.9158 106.61,-70.0456"/>
</g>
<!-- Node6 -->
<g id="node6" class="node"><title>Node6</title>
<g id="a_node6"><a xlink:href="ServerImpl_8h.html" target="_top" xlink:title="/home/travis/build\l/mgerhardy/simpleai\l/src/ai/server/ServerImpl.h">
<polygon fill="white" stroke="black" points="244,-78.5 244,-119.5 376,-119.5 376,-78.5 244,-78.5"/>
<text text-anchor="start" x="252" y="-107.5" font-family="Helvetica,sans-Serif" font-size="10.00">/home/travis/build</text>
<text text-anchor="start" x="252" y="-96.5" font-family="Helvetica,sans-Serif" font-size="10.00">/mgerhardy/simpleai</text>
<text text-anchor="middle" x="310" y="-85.5" font-family="Helvetica,sans-Serif" font-size="10.00">/src/ai/server/ServerImpl.h</text>
</a>
</g>
</g>
<!-- Node5&#45;&gt;Node6 -->
<g id="edge6" class="edge"><title>Node5&#45;&gt;Node6</title>
<path fill="none" stroke="midnightblue" d="M317.005,-152.217C315.551,-141.379 313.945,-129.409 312.638,-119.667"/>
<polygon fill="midnightblue" stroke="midnightblue" points="313.539,-152.704 318.337,-162.15 320.476,-151.773 313.539,-152.704"/>
</g>
<!-- Node6&#45;&gt;Node4 -->
<g id="edge7" class="edge"><title>Node6&#45;&gt;Node4</title>
<path fill="none" stroke="midnightblue" d="M269.409,-72.9194C252.873,-62.702 234.048,-51.0701 218.568,-41.5056"/>
<polygon fill="midnightblue" stroke="midnightblue" points="267.978,-76.1491 278.324,-78.4281 271.657,-70.1942 267.978,-76.1491"/>
</g>
</g>
</svg>
