<?xml version="1.0" encoding="UTF-8" standalone="no"?>
<!DOCTYPE svg PUBLIC "-//W3C//DTD SVG 1.1//EN"
 "http://www.w3.org/Graphics/SVG/1.1/DTD/svg11.dtd">
<!-- Generated by graphviz version 2.36.0 (20140111.2315)
 -->
<!-- Title: ai::ProbabilitySelector Pages: 1 -->
<svg width="118pt" height="196pt"
 viewBox="0.00 0.00 118.00 196.00" xmlns="http://www.w3.org/2000/svg" xmlns:xlink="http://www.w3.org/1999/xlink">
<g id="graph0" class="graph" transform="scale(1 1) rotate(0) translate(4 192)">
<title>ai::ProbabilitySelector</title>
<polygon fill="white" stroke="none" points="-4,4 -4,-192 114,-192 114,4 -4,4"/>
<!-- Node1 -->
<g id="node1" class="node"><title>Node1</title>
<polygon fill="#bfbfbf" stroke="black" points="-1,-0.5 -1,-19.5 111,-19.5 111,-0.5 -1,-0.5"/>
<text text-anchor="middle" x="55" y="-7.5" font-family="Helvetica,sans-Serif" font-size="10.00">ai::ProbabilitySelector</text>
</g>
<!-- Node2 -->
<g id="node2" class="node"><title>Node2</title>
<g id="a_node2"><a xlink:href="classai_1_1Selector.html" target="_top" xlink:title="Base class for all type of TreeNode selectors. ">
<polygon fill="white" stroke="black" points="22,-56.5 22,-75.5 88,-75.5 88,-56.5 22,-56.5"/>
<text text-anchor="middle" x="55" y="-63.5" font-family="Helvetica,sans-Serif" font-size="10.00">ai::Selector</text>
</a>
</g>
</g>
<!-- Node2&#45;&gt;Node1 -->
<g id="edge1" class="edge"><title>Node2&#45;&gt;Node1</title>
<path fill="none" stroke="midnightblue" d="M55,-45.8045C55,-36.9102 55,-26.7798 55,-19.7511"/>
<polygon fill="midnightblue" stroke="midnightblue" points="51.5001,-46.083 55,-56.083 58.5001,-46.083 51.5001,-46.083"/>
</g>
<!-- Node3 -->
<g id="node3" class="node"><title>Node3</title>
<g id="a_node3"><a xlink:href="classai_1_1TreeNode.html" target="_top" xlink:title="The base class for all behaviour tree actions. ">
<polygon fill="white" stroke="black" points="18.5,-112.5 18.5,-131.5 91.5,-131.5 91.5,-112.5 18.5,-112.5"/>
<text text-anchor="middle" x="55" y="-119.5" font-family="Helvetica,sans-Serif" font-size="10.00">ai::TreeNode</text>
</a>
</g>
</g>
<!-- Node3&#45;&gt;Node2 -->
<g id="edge2" class="edge"><title>Node3&#45;&gt;Node2</title>
<path fill="none" stroke="midnightblue" d="M55,-101.805C55,-92.9102 55,-82.7798 55,-75.7511"/>
<polygon fill="midnightblue" stroke="midnightblue" points="51.5001,-102.083 55,-112.083 58.5001,-102.083 51.5001,-102.083"/>
</g>
<!-- Node4 -->
<g id="node4" class="node"><title>Node4</title>
<g id="a_node4"><a xlink:href="classai_1_1__MemObject.html" target="_top" xlink:title="MemObject">
<polygon fill="white" stroke="black" points="21.5,-168.5 21.5,-187.5 88.5,-187.5 88.5,-168.5 21.5,-168.5"/>
<text text-anchor="middle" x="55" y="-175.5" font-family="Helvetica,sans-Serif" font-size="10.00">MemObject</text>
</a>
</g>
</g>
<!-- Node4&#45;&gt;Node3 -->
<g id="edge3" class="edge"><title>Node4&#45;&gt;Node3</title>
<path fill="none" stroke="midnightblue" d="M55,-157.805C55,-148.91 55,-138.78 55,-131.751"/>
<polygon fill="midnightblue" stroke="midnightblue" points="51.5001,-158.083 55,-168.083 58.5001,-158.083 51.5001,-158.083"/>
</g>
</g>
</svg>
