<?xml version="1.0" encoding="UTF-8" standalone="no"?>
<!DOCTYPE svg PUBLIC "-//W3C//DTD SVG 1.1//EN"
 "http://www.w3.org/Graphics/SVG/1.1/DTD/svg11.dtd">
<!-- Generated by graphviz version 2.36.0 (20140111.2315)
 -->
<!-- Title: ai::AIRegistry::ConditionFactory Pages: 1 -->
<svg width="892pt" height="112pt"
 viewBox="0.00 0.00 892.00 112.00" xmlns="http://www.w3.org/2000/svg" xmlns:xlink="http://www.w3.org/1999/xlink">
<g id="graph0" class="graph" transform="scale(1 1) rotate(0) translate(4 108)">
<title>ai::AIRegistry::ConditionFactory</title>
<polygon fill="white" stroke="none" points="-4,4 -4,-108 888,-108 888,4 -4,4"/>
<!-- Node1 -->
<g id="node1" class="node"><title>Node1</title>
<polygon fill="#bfbfbf" stroke="black" points="760,-59 760,-89 884,-89 884,-59 760,-59"/>
<text text-anchor="start" x="768" y="-77" font-family="Helvetica,sans-Serif" font-size="10.00">ai::AIRegistry::Condition</text>
<text text-anchor="middle" x="822" y="-66" font-family="Helvetica,sans-Serif" font-size="10.00">Factory</text>
</g>
<!-- Node2 -->
<g id="node2" class="node"><title>Node2</title>
<g id="a_node2"><a xlink:href="classai_1_1IFactoryRegistry.html" target="_top" xlink:title="ai::IFactoryRegistry\l\&lt; std::string, ICondition,\l ConditionFactoryContext \&gt;">
<polygon fill="white" stroke="black" points="584.5,-53.5 584.5,-94.5 721.5,-94.5 721.5,-53.5 584.5,-53.5"/>
<text text-anchor="start" x="592.5" y="-82.5" font-family="Helvetica,sans-Serif" font-size="10.00">ai::IFactoryRegistry</text>
<text text-anchor="start" x="592.5" y="-71.5" font-family="Helvetica,sans-Serif" font-size="10.00">&lt; std::string, ICondition,</text>
<text text-anchor="middle" x="653" y="-60.5" font-family="Helvetica,sans-Serif" font-size="10.00"> ConditionFactoryContext &gt;</text>
</a>
</g>
</g>
<!-- Node2&#45;&gt;Node1 -->
<g id="edge1" class="edge"><title>Node2&#45;&gt;Node1</title>
<path fill="none" stroke="midnightblue" d="M732.008,-74C741.355,-74 750.793,-74 759.852,-74"/>
<polygon fill="midnightblue" stroke="midnightblue" points="731.925,-70.5001 721.925,-74 731.925,-77.5001 731.925,-70.5001"/>
</g>
<!-- Node3 -->
<g id="node3" class="node"><title>Node3</title>
<g id="a_node3"><a xlink:href="classai_1_1NonCopyable.html" target="_top" xlink:title="ai::NonCopyable">
<polygon fill="white" stroke="black" points="382.5,-84.5 382.5,-103.5 471.5,-103.5 471.5,-84.5 382.5,-84.5"/>
<text text-anchor="middle" x="427" y="-91.5" font-family="Helvetica,sans-Serif" font-size="10.00">ai::NonCopyable</text>
</a>
</g>
</g>
<!-- Node3&#45;&gt;Node2 -->
<g id="edge2" class="edge"><title>Node3&#45;&gt;Node2</title>
<path fill="none" stroke="midnightblue" d="M481.809,-89.1956C512.529,-86.4527 551.337,-82.9878 584.134,-80.0595"/>
<polygon fill="midnightblue" stroke="midnightblue" points="481.37,-85.7208 471.721,-90.0963 481.993,-92.693 481.37,-85.7208"/>
</g>
<!-- Node4 -->
<g id="node4" class="node"><title>Node4</title>
<polygon fill="white" stroke="#bfbfbf" points="352,-13 352,-65 502,-65 502,-13 352,-13"/>
<text text-anchor="start" x="360" y="-53" font-family="Helvetica,sans-Serif" font-size="10.00">std::map&lt; const std</text>
<text text-anchor="start" x="360" y="-42" font-family="Helvetica,sans-Serif" font-size="10.00">::string, const IFactory</text>
<text text-anchor="start" x="360" y="-31" font-family="Helvetica,sans-Serif" font-size="10.00">&lt; ICondition, ConditionFactory</text>
<text text-anchor="middle" x="427" y="-20" font-family="Helvetica,sans-Serif" font-size="10.00">Context &gt; * &gt;</text>
</g>
<!-- Node4&#45;&gt;Node2 -->
<g id="edge3" class="edge"><title>Node4&#45;&gt;Node2</title>
<path fill="none" stroke="#9a32cd" stroke-dasharray="5,2" d="M512.347,-52.1792C536.127,-55.8949 561.681,-59.8877 584.346,-63.4291"/>
<polygon fill="#9a32cd" stroke="#9a32cd" points="512.698,-48.6917 502.278,-50.6059 511.617,-55.6078 512.698,-48.6917"/>
<text text-anchor="middle" x="543" y="-62" font-family="Helvetica,sans-Serif" font-size="10.00"> _factories</text>
</g>
<!-- Node5 -->
<g id="node5" class="node"><title>Node5</title>
<g id="a_node5"><a xlink:href="classai_1_1IFactory.html" target="_top" xlink:title="ai::IFactory\&lt; ICondition,\l ConditionFactoryContext \&gt;">
<polygon fill="white" stroke="black" points="134.5,-44 134.5,-74 271.5,-74 271.5,-44 134.5,-44"/>
<text text-anchor="start" x="142.5" y="-62" font-family="Helvetica,sans-Serif" font-size="10.00">ai::IFactory&lt; ICondition,</text>
<text text-anchor="middle" x="203" y="-51" font-family="Helvetica,sans-Serif" font-size="10.00"> ConditionFactoryContext &gt;</text>
</a>
</g>
</g>
<!-- Node5&#45;&gt;Node4 -->
<g id="edge4" class="edge"><title>Node5&#45;&gt;Node4</title>
<path fill="none" stroke="#9a32cd" stroke-dasharray="5,2" d="M281.494,-52.0186C304.321,-49.9621 329.233,-47.7177 351.845,-45.6806"/>
<polygon fill="#9a32cd" stroke="#9a32cd" points="281.157,-48.5346 271.512,-52.9179 281.785,-55.5064 281.157,-48.5346"/>
<text text-anchor="middle" x="312" y="-53" font-family="Helvetica,sans-Serif" font-size="10.00"> elements</text>
</g>
<!-- Node6 -->
<g id="node6" class="node"><title>Node6</title>
<g id="a_node6"><a xlink:title="STL class. ">
<polygon fill="white" stroke="#bfbfbf" points="173,-5.5 173,-24.5 233,-24.5 233,-5.5 173,-5.5"/>
<text text-anchor="middle" x="203" y="-12.5" font-family="Helvetica,sans-Serif" font-size="10.00">std::string</text>
</a>
</g>
</g>
<!-- Node6&#45;&gt;Node4 -->
<g id="edge5" class="edge"><title>Node6&#45;&gt;Node4</title>
<path fill="none" stroke="#9a32cd" stroke-dasharray="5,2" d="M243.077,-19.2245C273.033,-22.463 315.262,-27.0284 351.6,-30.9567"/>
<polygon fill="#9a32cd" stroke="#9a32cd" points="243.341,-15.7328 233.023,-18.1376 242.588,-22.6922 243.341,-15.7328"/>
<text text-anchor="middle" x="312" y="-32" font-family="Helvetica,sans-Serif" font-size="10.00"> keys</text>
</g>
<!-- Node7 -->
<g id="node7" class="node"><title>Node7</title>
<g id="a_node7"><a xlink:title="STL class. ">
<polygon fill="white" stroke="#bfbfbf" points="0.5,-0 0.5,-30 95.5,-30 95.5,-0 0.5,-0"/>
<text text-anchor="start" x="8.5" y="-18" font-family="Helvetica,sans-Serif" font-size="10.00">std::basic_string&lt;</text>
<text text-anchor="middle" x="48" y="-7" font-family="Helvetica,sans-Serif" font-size="10.00"> char &gt;</text>
</a>
</g>
</g>
<!-- Node7&#45;&gt;Node6 -->
<g id="edge6" class="edge"><title>Node7&#45;&gt;Node6</title>
<path fill="none" stroke="midnightblue" d="M105.988,-15C128.746,-15 153.974,-15 172.856,-15"/>
<polygon fill="midnightblue" stroke="midnightblue" points="105.736,-11.5001 95.7364,-15 105.736,-18.5001 105.736,-11.5001"/>
</g>
</g>
</svg>
