<?xml version="1.0" encoding="UTF-8" standalone="no"?>
<!DOCTYPE svg PUBLIC "-//W3C//DTD SVG 1.1//EN"
 "http://www.w3.org/Graphics/SVG/1.1/DTD/svg11.dtd">
<!-- Generated by graphviz version 2.36.0 (20140111.2315)
 -->
<!-- Title: ai::ICondition Pages: 1 -->
<svg width="324pt" height="408pt"
 viewBox="0.00 0.00 324.00 408.00" xmlns="http://www.w3.org/2000/svg" xmlns:xlink="http://www.w3.org/1999/xlink">
<g id="graph0" class="graph" transform="scale(1 1) rotate(0) translate(4 404)">
<title>ai::ICondition</title>
<polygon fill="white" stroke="none" points="-4,4 -4,-404 320,-404 320,4 -4,4"/>
<!-- Node1 -->
<g id="node1" class="node"><title>Node1</title>
<polygon fill="#bfbfbf" stroke="black" points="104,-190.5 104,-209.5 178,-209.5 178,-190.5 104,-190.5"/>
<text text-anchor="middle" x="141" y="-197.5" font-family="Helvetica,sans-Serif" font-size="10.00">ai::ICondition</text>
</g>
<!-- Node3 -->
<g id="node3" class="node"><title>Node3</title>
<g id="a_node3"><a xlink:href="classai_1_1And.html" target="_top" xlink:title="This condition will logically and all contained conditions. ">
<polygon fill="white" stroke="black" points="241.5,-380.5 241.5,-399.5 288.5,-399.5 288.5,-380.5 241.5,-380.5"/>
<text text-anchor="middle" x="265" y="-387.5" font-family="Helvetica,sans-Serif" font-size="10.00">ai::And</text>
</a>
</g>
</g>
<!-- Node1&#45;&gt;Node3 -->
<g id="edge2" class="edge"><title>Node1&#45;&gt;Node3</title>
<path fill="none" stroke="midnightblue" d="M145.068,-219.543C151.558,-254.584 169.873,-328.407 214,-371 221.483,-378.223 231.989,-382.763 241.44,-385.584"/>
<polygon fill="midnightblue" stroke="midnightblue" points="148.505,-218.879 143.359,-209.618 141.607,-220.067 148.505,-218.879"/>
</g>
<!-- Node4 -->
<g id="node4" class="node"><title>Node4</title>
<g id="a_node4"><a xlink:href="classai_1_1False.html" target="_top" xlink:title="This condition just always evaluates to false. ">
<polygon fill="white" stroke="black" points="238,-342.5 238,-361.5 292,-361.5 292,-342.5 238,-342.5"/>
<text text-anchor="middle" x="265" y="-349.5" font-family="Helvetica,sans-Serif" font-size="10.00">ai::False</text>
</a>
</g>
</g>
<!-- Node1&#45;&gt;Node4 -->
<g id="edge3" class="edge"><title>Node1&#45;&gt;Node4</title>
<path fill="none" stroke="midnightblue" d="M147.59,-219.131C156.87,-247.716 178.082,-301.569 214,-333 220.779,-338.932 229.599,-343.096 237.94,-345.981"/>
<polygon fill="midnightblue" stroke="midnightblue" points="150.913,-218.029 144.611,-209.512 144.226,-220.1 150.913,-218.029"/>
</g>
<!-- Node5 -->
<g id="node5" class="node"><title>Node5</title>
<g id="a_node5"><a xlink:href="classai_1_1Filter.html" target="_top" xlink:title="The filter condition executes some selection filters (IFilter) and evaluates to true if the resulting...">
<polygon fill="white" stroke="black" points="239,-304.5 239,-323.5 291,-323.5 291,-304.5 239,-304.5"/>
<text text-anchor="middle" x="265" y="-311.5" font-family="Helvetica,sans-Serif" font-size="10.00">ai::Filter</text>
</a>
</g>
</g>
<!-- Node1&#45;&gt;Node5 -->
<g id="edge4" class="edge"><title>Node1&#45;&gt;Node5</title>
<path fill="none" stroke="midnightblue" d="M151.922,-218.771C163.998,-239.975 186.256,-274.227 214,-295 221.359,-300.51 230.504,-304.6 238.953,-307.544"/>
<polygon fill="midnightblue" stroke="midnightblue" points="154.861,-216.852 146.969,-209.783 148.73,-220.231 154.861,-216.852"/>
</g>
<!-- Node6 -->
<g id="node6" class="node"><title>Node6</title>
<g id="a_node6"><a xlink:href="classai_1_1HasEnemies.html" target="_top" xlink:title="This condition checks whether there are enemies. ">
<polygon fill="white" stroke="black" points="222,-266.5 222,-285.5 308,-285.5 308,-266.5 222,-266.5"/>
<text text-anchor="middle" x="265" y="-273.5" font-family="Helvetica,sans-Serif" font-size="10.00">ai::HasEnemies</text>
</a>
</g>
</g>
<!-- Node1&#45;&gt;Node6 -->
<g id="edge5" class="edge"><title>Node1&#45;&gt;Node6</title>
<path fill="none" stroke="midnightblue" d="M159.794,-216.651C173.724,-229.025 194.023,-245.657 214,-257 220.299,-260.576 227.401,-263.737 234.232,-266.404"/>
<polygon fill="midnightblue" stroke="midnightblue" points="161.762,-213.71 152.004,-209.582 157.058,-218.894 161.762,-213.71"/>
</g>
<!-- Node7 -->
<g id="node7" class="node"><title>Node7</title>
<g id="a_node7"><a xlink:href="classai_1_1IsCloseToGroup.html" target="_top" xlink:title="Checks whether the controlled AI is close to a particular group. ">
<polygon fill="white" stroke="black" points="214.5,-228.5 214.5,-247.5 315.5,-247.5 315.5,-228.5 214.5,-228.5"/>
<text text-anchor="middle" x="265" y="-235.5" font-family="Helvetica,sans-Serif" font-size="10.00">ai::IsCloseToGroup</text>
</a>
</g>
</g>
<!-- Node1&#45;&gt;Node7 -->
<g id="edge6" class="edge"><title>Node1&#45;&gt;Node7</title>
<path fill="none" stroke="midnightblue" d="M182.711,-212.68C199.195,-217.815 217.91,-223.644 233.224,-228.414"/>
<polygon fill="midnightblue" stroke="midnightblue" points="183.374,-209.221 172.786,-209.589 181.292,-215.905 183.374,-209.221"/>
</g>
<!-- Node8 -->
<g id="node8" class="node"><title>Node8</title>
<g id="a_node8"><a xlink:href="classai_1_1IsGroupLeader.html" target="_top" xlink:title="Evaluates to true if you are the first member in a particular group. ">
<polygon fill="white" stroke="black" points="218,-190.5 218,-209.5 312,-209.5 312,-190.5 218,-190.5"/>
<text text-anchor="middle" x="265" y="-197.5" font-family="Helvetica,sans-Serif" font-size="10.00">ai::IsGroupLeader</text>
</a>
</g>
</g>
<!-- Node1&#45;&gt;Node8 -->
<g id="edge7" class="edge"><title>Node1&#45;&gt;Node8</title>
<path fill="none" stroke="midnightblue" d="M188.422,-200C198.002,-200 208.093,-200 217.67,-200"/>
<polygon fill="midnightblue" stroke="midnightblue" points="188.274,-196.5 178.274,-200 188.274,-203.5 188.274,-196.5"/>
</g>
<!-- Node9 -->
<g id="node9" class="node"><title>Node9</title>
<g id="a_node9"><a xlink:href="classai_1_1IsInGroup.html" target="_top" xlink:title="Checks whether the AI is in any or in a particular group. ">
<polygon fill="white" stroke="black" points="228.5,-152.5 228.5,-171.5 301.5,-171.5 301.5,-152.5 228.5,-152.5"/>
<text text-anchor="middle" x="265" y="-159.5" font-family="Helvetica,sans-Serif" font-size="10.00">ai::IsInGroup</text>
</a>
</g>
</g>
<!-- Node1&#45;&gt;Node9 -->
<g id="edge8" class="edge"><title>Node1&#45;&gt;Node9</title>
<path fill="none" stroke="midnightblue" d="M182.711,-187.32C199.195,-182.185 217.91,-176.356 233.224,-171.586"/>
<polygon fill="midnightblue" stroke="midnightblue" points="181.292,-184.095 172.786,-190.411 183.374,-190.779 181.292,-184.095"/>
</g>
<!-- Node10 -->
<g id="node10" class="node"><title>Node10</title>
<g id="a_node10"><a xlink:href="classai_1_1LUACondition.html" target="_top" xlink:title="ai::LUACondition">
<polygon fill="white" stroke="black" points="219.5,-114.5 219.5,-133.5 310.5,-133.5 310.5,-114.5 219.5,-114.5"/>
<text text-anchor="middle" x="265" y="-121.5" font-family="Helvetica,sans-Serif" font-size="10.00">ai::LUACondition</text>
</a>
</g>
</g>
<!-- Node1&#45;&gt;Node10 -->
<g id="edge9" class="edge"><title>Node1&#45;&gt;Node10</title>
<path fill="none" stroke="midnightblue" d="M159.794,-183.349C173.724,-170.975 194.023,-154.343 214,-143 220.299,-139.424 227.401,-136.263 234.232,-133.596"/>
<polygon fill="midnightblue" stroke="midnightblue" points="157.058,-181.106 152.004,-190.418 161.762,-186.29 157.058,-181.106"/>
</g>
<!-- Node11 -->
<g id="node11" class="node"><title>Node11</title>
<g id="a_node11"><a xlink:href="classai_1_1Not.html" target="_top" xlink:title="This condition will just swap the result of the contained condition. ">
<polygon fill="white" stroke="black" points="242,-76.5 242,-95.5 288,-95.5 288,-76.5 242,-76.5"/>
<text text-anchor="middle" x="265" y="-83.5" font-family="Helvetica,sans-Serif" font-size="10.00">ai::Not</text>
</a>
</g>
</g>
<!-- Node1&#45;&gt;Node11 -->
<g id="edge10" class="edge"><title>Node1&#45;&gt;Node11</title>
<path fill="none" stroke="midnightblue" d="M151.922,-181.229C163.998,-160.025 186.256,-125.773 214,-105 222.251,-98.822 232.747,-94.4294 241.99,-91.4354"/>
<polygon fill="midnightblue" stroke="midnightblue" points="148.73,-179.769 146.969,-190.217 154.861,-183.148 148.73,-179.769"/>
</g>
<!-- Node12 -->
<g id="node12" class="node"><title>Node12</title>
<g id="a_node12"><a xlink:href="classai_1_1Or.html" target="_top" xlink:title="This condition will logically or all contained conditions. ">
<polygon fill="white" stroke="black" points="244.5,-38.5 244.5,-57.5 285.5,-57.5 285.5,-38.5 244.5,-38.5"/>
<text text-anchor="middle" x="265" y="-45.5" font-family="Helvetica,sans-Serif" font-size="10.00">ai::Or</text>
</a>
</g>
</g>
<!-- Node1&#45;&gt;Node12 -->
<g id="edge11" class="edge"><title>Node1&#45;&gt;Node12</title>
<path fill="none" stroke="midnightblue" d="M147.59,-180.869C156.87,-152.284 178.082,-98.4314 214,-67 222.526,-59.5393 234.281,-54.8744 244.251,-52.0351"/>
<polygon fill="midnightblue" stroke="midnightblue" points="144.226,-179.9 144.611,-190.488 150.913,-181.971 144.226,-179.9"/>
</g>
<!-- Node13 -->
<g id="node13" class="node"><title>Node13</title>
<g id="a_node13"><a xlink:href="classai_1_1True.html" target="_top" xlink:title="This condition just always evaluates to true. ">
<polygon fill="white" stroke="black" points="240,-0.5 240,-19.5 290,-19.5 290,-0.5 240,-0.5"/>
<text text-anchor="middle" x="265" y="-7.5" font-family="Helvetica,sans-Serif" font-size="10.00">ai::True</text>
</a>
</g>
</g>
<!-- Node1&#45;&gt;Node13 -->
<g id="edge12" class="edge"><title>Node1&#45;&gt;Node13</title>
<path fill="none" stroke="midnightblue" d="M145.068,-180.457C151.558,-145.416 169.873,-71.5927 214,-29 221.082,-22.1639 230.872,-17.7314 239.913,-14.8841"/>
<polygon fill="midnightblue" stroke="midnightblue" points="141.607,-179.933 143.359,-190.382 148.505,-181.121 141.607,-179.933"/>
</g>
<!-- Node2 -->
<g id="node2" class="node"><title>Node2</title>
<g id="a_node2"><a xlink:href="classai_1_1__MemObject.html" target="_top" xlink:title="MemObject">
<polygon fill="white" stroke="black" points="0.5,-190.5 0.5,-209.5 67.5,-209.5 67.5,-190.5 0.5,-190.5"/>
<text text-anchor="middle" x="34" y="-197.5" font-family="Helvetica,sans-Serif" font-size="10.00">MemObject</text>
</a>
</g>
</g>
<!-- Node2&#45;&gt;Node1 -->
<g id="edge1" class="edge"><title>Node2&#45;&gt;Node1</title>
<path fill="none" stroke="midnightblue" d="M77.8713,-200C86.4506,-200 95.3851,-200 103.716,-200"/>
<polygon fill="midnightblue" stroke="midnightblue" points="77.6471,-196.5 67.6471,-200 77.6471,-203.5 77.6471,-196.5"/>
</g>
</g>
</svg>
