<?xml version="1.0" encoding="UTF-8" standalone="no"?>
<!DOCTYPE svg PUBLIC "-//W3C//DTD SVG 1.1//EN"
 "http://www.w3.org/Graphics/SVG/1.1/DTD/svg11.dtd">
<!-- Generated by graphviz version 2.36.0 (20140111.2315)
 -->
<!-- Title: ai::TreeNode Pages: 1 -->
<svg width="308pt" height="188pt"
 viewBox="0.00 0.00 308.00 188.00" xmlns="http://www.w3.org/2000/svg" xmlns:xlink="http://www.w3.org/1999/xlink">
<g id="graph0" class="graph" transform="scale(1 1) rotate(0) translate(4 184)">
<title>ai::TreeNode</title>
<polygon fill="white" stroke="none" points="-4,4 -4,-184 304,-184 304,4 -4,4"/>
<!-- Node1 -->
<g id="node1" class="node"><title>Node1</title>
<polygon fill="#bfbfbf" stroke="black" points="78.5,-0.5 78.5,-19.5 151.5,-19.5 151.5,-0.5 78.5,-0.5"/>
<text text-anchor="middle" x="115" y="-7.5" font-family="Helvetica,sans-Serif" font-size="10.00">ai::TreeNode</text>
</g>
<!-- Node2 -->
<g id="node2" class="node"><title>Node2</title>
<g id="a_node2"><a xlink:href="classai_1_1__MemObject.html" target="_top" xlink:title="MemObject">
<polygon fill="white" stroke="black" points="-0.5,-90.5 -0.5,-109.5 66.5,-109.5 66.5,-90.5 -0.5,-90.5"/>
<text text-anchor="middle" x="33" y="-97.5" font-family="Helvetica,sans-Serif" font-size="10.00">MemObject</text>
</a>
</g>
</g>
<!-- Node2&#45;&gt;Node1 -->
<g id="edge1" class="edge"><title>Node2&#45;&gt;Node1</title>
<path fill="none" stroke="midnightblue" d="M48.0872,-82.8088C65.4135,-64.2147 93.2018,-34.3932 106.871,-19.7241"/>
<polygon fill="midnightblue" stroke="midnightblue" points="45.4189,-80.5383 41.1623,-90.2405 50.5402,-85.3104 45.4189,-80.5383"/>
</g>
<!-- Node3 -->
<g id="node3" class="node"><title>Node3</title>
<g id="a_node3"><a xlink:title="STL class. ">
<polygon fill="white" stroke="#bfbfbf" points="85,-90.5 85,-109.5 145,-109.5 145,-90.5 85,-90.5"/>
<text text-anchor="middle" x="115" y="-97.5" font-family="Helvetica,sans-Serif" font-size="10.00">std::string</text>
</a>
</g>
</g>
<!-- Node3&#45;&gt;Node1 -->
<g id="edge2" class="edge"><title>Node3&#45;&gt;Node1</title>
<path fill="none" stroke="#9a32cd" stroke-dasharray="5,2" d="M115,-79.9784C115,-61.3096 115,-33.6696 115,-19.7241"/>
<polygon fill="#9a32cd" stroke="#9a32cd" points="111.5,-80.2405 115,-90.2405 118.5,-80.2405 111.5,-80.2405"/>
<text text-anchor="middle" x="142.5" y="-63.5" font-family="Helvetica,sans-Serif" font-size="10.00"> _type</text>
<text text-anchor="middle" x="142.5" y="-52.5" font-family="Helvetica,sans-Serif" font-size="10.00">_name</text>
<text text-anchor="middle" x="142.5" y="-41.5" font-family="Helvetica,sans-Serif" font-size="10.00">_parameters</text>
</g>
<!-- Node4 -->
<g id="node4" class="node"><title>Node4</title>
<g id="a_node4"><a xlink:title="STL class. ">
<polygon fill="white" stroke="#bfbfbf" points="67.5,-149 67.5,-179 162.5,-179 162.5,-149 67.5,-149"/>
<text text-anchor="start" x="75.5" y="-167" font-family="Helvetica,sans-Serif" font-size="10.00">std::basic_string&lt;</text>
<text text-anchor="middle" x="115" y="-156" font-family="Helvetica,sans-Serif" font-size="10.00"> char &gt;</text>
</a>
</g>
</g>
<!-- Node4&#45;&gt;Node3 -->
<g id="edge3" class="edge"><title>Node4&#45;&gt;Node3</title>
<path fill="none" stroke="midnightblue" d="M115,-138.871C115,-128.663 115,-117.408 115,-109.842"/>
<polygon fill="midnightblue" stroke="midnightblue" points="111.5,-138.931 115,-148.931 118.5,-138.931 111.5,-138.931"/>
</g>
<!-- Node5 -->
<g id="node5" class="node"><title>Node5</title>
<polygon fill="white" stroke="#bfbfbf" points="163.5,-90.5 163.5,-109.5 300.5,-109.5 300.5,-90.5 163.5,-90.5"/>
<text text-anchor="middle" x="232" y="-97.5" font-family="Helvetica,sans-Serif" font-size="10.00">std::vector&lt; TreeNodePtr &gt;</text>
</g>
<!-- Node5&#45;&gt;Node1 -->
<g id="edge4" class="edge"><title>Node5&#45;&gt;Node1</title>
<path fill="none" stroke="#9a32cd" stroke-dasharray="5,2" d="M219.065,-82.2061C208.161,-68.9037 191.563,-50.5353 174,-38 163.364,-30.4088 150.253,-24.1534 139.094,-19.5819"/>
<polygon fill="#9a32cd" stroke="#9a32cd" points="216.39,-84.4661 225.361,-90.1039 221.864,-80.1026 216.39,-84.4661"/>
<text text-anchor="middle" x="231.5" y="-52.5" font-family="Helvetica,sans-Serif" font-size="10.00"> _children</text>
</g>
</g>
</svg>
