<?xml version="1.0" encoding="UTF-8" standalone="no"?>
<!DOCTYPE svg PUBLIC "-//W3C//DTD SVG 1.1//EN"
 "http://www.w3.org/Graphics/SVG/1.1/DTD/svg11.dtd">
<!-- Generated by graphviz version 2.36.0 (20140111.2315)
 -->
<!-- Title: ai::IsCloseToGroup Pages: 1 -->
<svg width="108pt" height="140pt"
 viewBox="0.00 0.00 108.00 140.00" xmlns="http://www.w3.org/2000/svg" xmlns:xlink="http://www.w3.org/1999/xlink">
<g id="graph0" class="graph" transform="scale(1 1) rotate(0) translate(4 136)">
<title>ai::IsCloseToGroup</title>
<polygon fill="white" stroke="none" points="-4,4 -4,-136 104,-136 104,4 -4,4"/>
<!-- Node1 -->
<g id="node1" class="node"><title>Node1</title>
<polygon fill="#bfbfbf" stroke="black" points="-0.5,-0.5 -0.5,-19.5 100.5,-19.5 100.5,-0.5 -0.5,-0.5"/>
<text text-anchor="middle" x="50" y="-7.5" font-family="Helvetica,sans-Serif" font-size="10.00">ai::IsCloseToGroup</text>
</g>
<!-- Node2 -->
<g id="node2" class="node"><title>Node2</title>
<g id="a_node2"><a xlink:href="classai_1_1ICondition.html" target="_top" xlink:title="A condition can be placed on a TreeNode to decide which node is going to get executed. In general they are stateless. If they are not, it should explicitly get noted. ">
<polygon fill="white" stroke="black" points="13,-56.5 13,-75.5 87,-75.5 87,-56.5 13,-56.5"/>
<text text-anchor="middle" x="50" y="-63.5" font-family="Helvetica,sans-Serif" font-size="10.00">ai::ICondition</text>
</a>
</g>
</g>
<!-- Node2&#45;&gt;Node1 -->
<g id="edge1" class="edge"><title>Node2&#45;&gt;Node1</title>
<path fill="none" stroke="midnightblue" d="M50,-45.8045C50,-36.9102 50,-26.7798 50,-19.7511"/>
<polygon fill="midnightblue" stroke="midnightblue" points="46.5001,-46.083 50,-56.083 53.5001,-46.083 46.5001,-46.083"/>
</g>
<!-- Node3 -->
<g id="node3" class="node"><title>Node3</title>
<g id="a_node3"><a xlink:href="classai_1_1__MemObject.html" target="_top" xlink:title="MemObject">
<polygon fill="white" stroke="black" points="16.5,-112.5 16.5,-131.5 83.5,-131.5 83.5,-112.5 16.5,-112.5"/>
<text text-anchor="middle" x="50" y="-119.5" font-family="Helvetica,sans-Serif" font-size="10.00">MemObject</text>
</a>
</g>
</g>
<!-- Node3&#45;&gt;Node2 -->
<g id="edge2" class="edge"><title>Node3&#45;&gt;Node2</title>
<path fill="none" stroke="midnightblue" d="M50,-101.805C50,-92.9102 50,-82.7798 50,-75.7511"/>
<polygon fill="midnightblue" stroke="midnightblue" points="46.5001,-102.083 50,-112.083 53.5001,-102.083 46.5001,-102.083"/>
</g>
</g>
</svg>
