<?xml version="1.0" encoding="UTF-8" standalone="no"?>
<!DOCTYPE svg PUBLIC "-//W3C//DTD SVG 1.1//EN"
 "http://www.w3.org/Graphics/SVG/1.1/DTD/svg11.dtd">
<!-- Generated by graphviz version 2.36.0 (20140111.2315)
 -->
<!-- Title: ai::NonCopyable Pages: 1 -->
<!--zoomable 492 -->
<svg id="main" version="1.1" xmlns="http://www.w3.org/2000/svg" xmlns:xlink="http://www.w3.org/1999/xlink" xml:space="preserve" onload="init(evt)">
<style type="text/css"><![CDATA[
.edge:hover path { stroke: red; }
.edge:hover polygon { stroke: red; fill: red; }
]]></style>
<script type="text/javascript"><![CDATA[
var edges = document.getElementsByTagName('g');
if (edges && edges.length) {
  for (var i=0;i<edges.length;i++) {
    if (edges[i].id.substr(0,4)=='edge') {
      edges[i].setAttribute('class','edge');
    }
  }
}
]]></script>
        <defs>
                <circle id="rim" cx="0" cy="0" r="7"/>
                <circle id="rim2" cx="0" cy="0" r="3.5"/>
                <g id="zoomPlus">
                        <use xlink:href="#rim" fill="#404040">
                                <set attributeName="fill" to="#808080" begin="zoomplus.mouseover" end="zoomplus.mouseout"/>
                        </use>
                        <path d="M-4,0h8M0,-4v8" fill="none" stroke="white" stroke-width="1.5" pointer-events="none"/>
                </g>
                <g id="zoomMin">
                        <use xlink:href="#rim" fill="#404040">
                                <set attributeName="fill" to="#808080" begin="zoomminus.mouseover" end="zoomminus.mouseout"/>
                        </use>
                        <path d="M-4,0h8" fill="none" stroke="white" stroke-width="1.5" pointer-events="none"/>
                </g>
                <g id="dirArrow">
                        <path fill="none" stroke="white" stroke-width="1.5" d="M0,-3.0v7 M-2.5,-0.5L0,-3.0L2.5,-0.5"/>
                </g>
               <g id="resetDef">
                       <use xlink:href="#rim2" fill="#404040">
                               <set attributeName="fill" to="#808080" begin="reset.mouseover" end="reset.mouseout"/>
                       </use>
               </g>
        </defs>

<script type="text/javascript">
var viewWidth = 488;
var viewHeight = 492;
var sectionId = 'dynsection-0';
</script>
<script xlink:href="svgpan.js"/>
<svg id="graph" class="graph">
<g id="viewport">
<title>ai::NonCopyable</title>
<polygon fill="white" stroke="none" points="-4,4 -4,-488 484,-488 484,4 -4,4"/>
<!-- Node1 -->
<g id="node1" class="node"><title>Node1</title>
<polygon fill="#bfbfbf" stroke="black" points="0.5,-275.5 0.5,-294.5 89.5,-294.5 89.5,-275.5 0.5,-275.5"/>
<text text-anchor="middle" x="45" y="-282.5" font-family="Helvetica,sans-Serif" font-size="10.00">ai::NonCopyable</text>
</g>
<!-- Node2 -->
<g id="node2" class="node"><title>Node2</title>
<g id="a_node2"><a xlink:href="classai_1_1AI.html" target="_top" xlink:title="This is the type the library works with. It interacts with it&#39;s real world entity by the ICharacter i...">
<polygon fill="white" stroke="black" points="196,-464.5 196,-483.5 236,-483.5 236,-464.5 196,-464.5"/>
<text text-anchor="middle" x="216" y="-471.5" font-family="Helvetica,sans-Serif" font-size="10.00">ai::AI</text>
</a>
</g>
</g>
<!-- Node1&#45;&gt;Node2 -->
<g id="edge1" class="edge"><title>Node1&#45;&gt;Node2</title>
<path fill="none" stroke="midnightblue" d="M49.3798,-304.658C56.6183,-340.471 77.1157,-416.22 126,-455 146.052,-470.907 176.366,-474.29 195.924,-474.63"/>
<polygon fill="midnightblue" stroke="midnightblue" points="52.7634,-303.712 47.4763,-294.531 45.8839,-305.005 52.7634,-303.712"/>
</g>
<!-- Node3 -->
<g id="node3" class="node"><title>Node3</title>
<g id="a_node3"><a xlink:href="classai_1_1ICharacter.html" target="_top" xlink:title="Class that should be extended by the AI controlled entity class. ">
<polygon fill="white" stroke="black" points="178,-426.5 178,-445.5 254,-445.5 254,-426.5 178,-426.5"/>
<text text-anchor="middle" x="216" y="-433.5" font-family="Helvetica,sans-Serif" font-size="10.00">ai::ICharacter</text>
</a>
</g>
</g>
<!-- Node1&#45;&gt;Node3 -->
<g id="edge2" class="edge"><title>Node1&#45;&gt;Node3</title>
<path fill="none" stroke="midnightblue" d="M52.3455,-304.535C62.8325,-333.588 86.6256,-387.783 126,-416 140.932,-426.701 160.606,-431.811 177.658,-434.199"/>
<polygon fill="midnightblue" stroke="midnightblue" points="55.5373,-303.053 48.9731,-294.737 48.9184,-305.332 55.5373,-303.053"/>
</g>
<!-- Node4 -->
<g id="node4" class="node"><title>Node4</title>
<g id="a_node4"><a xlink:href="classai_1_1IFactoryRegistry.html" target="_top" xlink:title="ai::IFactoryRegistry\l\&lt; KEY, TYPE, CTX \&gt;">
<polygon fill="white" stroke="black" points="159.5,-377 159.5,-407 272.5,-407 272.5,-377 159.5,-377"/>
<text text-anchor="start" x="167.5" y="-395" font-family="Helvetica,sans-Serif" font-size="10.00">ai::IFactoryRegistry</text>
<text text-anchor="middle" x="216" y="-384" font-family="Helvetica,sans-Serif" font-size="10.00">&lt; KEY, TYPE, CTX &gt;</text>
</a>
</g>
</g>
<!-- Node1&#45;&gt;Node4 -->
<g id="edge3" class="edge"><title>Node1&#45;&gt;Node4</title>
<path fill="none" stroke="midnightblue" d="M58.8919,-302.953C73.228,-321.632 98.0761,-350.421 126,-367 136.212,-373.063 147.957,-377.71 159.495,-381.253"/>
<polygon fill="midnightblue" stroke="midnightblue" points="61.5156,-300.617 52.7311,-294.694 55.9045,-304.802 61.5156,-300.617"/>
</g>
<!-- Node5 -->
<g id="node5" class="node"><title>Node5</title>
<g id="a_node5"><a xlink:href="classai_1_1lua_1_1LUA.html" target="_top" xlink:title="ai::lua::LUA">
<polygon fill="white" stroke="black" points="182,-338.5 182,-357.5 250,-357.5 250,-338.5 182,-338.5"/>
<text text-anchor="middle" x="216" y="-345.5" font-family="Helvetica,sans-Serif" font-size="10.00">ai::lua::LUA</text>
</a>
</g>
</g>
<!-- Node1&#45;&gt;Node5 -->
<g id="edge4" class="edge"><title>Node1&#45;&gt;Node5</title>
<path fill="none" stroke="midnightblue" d="M69.2878,-300.194C84.8015,-309.705 105.95,-321.531 126,-329 143.915,-335.673 164.778,-340.283 181.799,-343.289"/>
<polygon fill="midnightblue" stroke="midnightblue" points="70.7481,-296.979 60.4167,-294.631 67.029,-302.909 70.7481,-296.979"/>
</g>
<!-- Node6 -->
<g id="node6" class="node"><title>Node6</title>
<g id="a_node6"><a xlink:href="classai_1_1ProtocolMessageFactory.html" target="_top" xlink:title="ai::ProtocolMessageFactory">
<polygon fill="white" stroke="black" points="146.5,-300.5 146.5,-319.5 285.5,-319.5 285.5,-300.5 146.5,-300.5"/>
<text text-anchor="middle" x="216" y="-307.5" font-family="Helvetica,sans-Serif" font-size="10.00">ai::ProtocolMessageFactory</text>
</a>
</g>
</g>
<!-- Node1&#45;&gt;Node6 -->
<g id="edge5" class="edge"><title>Node1&#45;&gt;Node6</title>
<path fill="none" stroke="midnightblue" d="M99.8466,-292.965C115.982,-295.352 133.842,-297.994 150.585,-300.471"/>
<polygon fill="midnightblue" stroke="midnightblue" points="99.9263,-289.439 89.5217,-291.438 98.9018,-296.364 99.9263,-289.439"/>
</g>
<!-- Node7 -->
<g id="node7" class="node"><title>Node7</title>
<g id="a_node7"><a xlink:href="classai_1_1IFactoryRegistry.html" target="_top" xlink:title="ai::IFactoryRegistry\l\&lt; std::string, ICondition,\l ConditionFactoryContext \&gt;">
<polygon fill="white" stroke="black" points="147.5,-240.5 147.5,-281.5 284.5,-281.5 284.5,-240.5 147.5,-240.5"/>
<text text-anchor="start" x="155.5" y="-269.5" font-family="Helvetica,sans-Serif" font-size="10.00">ai::IFactoryRegistry</text>
<text text-anchor="start" x="155.5" y="-258.5" font-family="Helvetica,sans-Serif" font-size="10.00">&lt; std::string, ICondition,</text>
<text text-anchor="middle" x="216" y="-247.5" font-family="Helvetica,sans-Serif" font-size="10.00"> ConditionFactoryContext &gt;</text>
</a>
</g>
</g>
<!-- Node1&#45;&gt;Node7 -->
<g id="edge6" class="edge"><title>Node1&#45;&gt;Node7</title>
<path fill="none" stroke="midnightblue" d="M99.7253,-277.37C114.857,-275.221 131.515,-272.856 147.349,-270.607"/>
<polygon fill="midnightblue" stroke="midnightblue" points="98.9302,-273.948 89.5217,-278.819 99.9145,-280.879 98.9302,-273.948"/>
</g>
<!-- Node9 -->
<g id="node9" class="node"><title>Node9</title>
<g id="a_node9"><a xlink:href="classai_1_1IFactoryRegistry.html" target="_top" xlink:title="ai::IFactoryRegistry\l\&lt; std::string, IFilter,\l FilterFactoryContext \&gt;">
<polygon fill="white" stroke="black" points="157,-180.5 157,-221.5 275,-221.5 275,-180.5 157,-180.5"/>
<text text-anchor="start" x="165" y="-209.5" font-family="Helvetica,sans-Serif" font-size="10.00">ai::IFactoryRegistry</text>
<text text-anchor="start" x="165" y="-198.5" font-family="Helvetica,sans-Serif" font-size="10.00">&lt; std::string, IFilter,</text>
<text text-anchor="middle" x="216" y="-187.5" font-family="Helvetica,sans-Serif" font-size="10.00"> FilterFactoryContext &gt;</text>
</a>
</g>
</g>
<!-- Node1&#45;&gt;Node9 -->
<g id="edge8" class="edge"><title>Node1&#45;&gt;Node9</title>
<path fill="none" stroke="midnightblue" d="M66.4649,-268.922C82.0944,-257.218 104.531,-241.622 126,-231 135.646,-226.228 146.233,-221.922 156.636,-218.16"/>
<polygon fill="midnightblue" stroke="midnightblue" points="63.9364,-266.449 58.1078,-275.296 68.1816,-272.014 63.9364,-266.449"/>
</g>
<!-- Node11 -->
<g id="node11" class="node"><title>Node11</title>
<g id="a_node11"><a xlink:href="classai_1_1IFactoryRegistry.html" target="_top" xlink:title="ai::IFactoryRegistry\l\&lt; std::string, movement\l::ISteering, SteeringFactoryContext \&gt;">
<polygon fill="white" stroke="black" points="126,-120.5 126,-161.5 306,-161.5 306,-120.5 126,-120.5"/>
<text text-anchor="start" x="134" y="-149.5" font-family="Helvetica,sans-Serif" font-size="10.00">ai::IFactoryRegistry</text>
<text text-anchor="start" x="134" y="-138.5" font-family="Helvetica,sans-Serif" font-size="10.00">&lt; std::string, movement</text>
<text text-anchor="middle" x="216" y="-127.5" font-family="Helvetica,sans-Serif" font-size="10.00">::ISteering, SteeringFactoryContext &gt;</text>
</a>
</g>
</g>
<!-- Node1&#45;&gt;Node11 -->
<g id="edge10" class="edge"><title>Node1&#45;&gt;Node11</title>
<path fill="none" stroke="midnightblue" d="M54.6158,-265.931C66.9486,-240.699 91.9606,-196.45 126,-171 130.701,-167.485 135.84,-164.365 141.201,-161.599"/>
<polygon fill="midnightblue" stroke="midnightblue" points="51.3543,-264.641 50.2498,-275.178 57.6842,-267.63 51.3543,-264.641"/>
</g>
<!-- Node13 -->
<g id="node13" class="node"><title>Node13</title>
<g id="a_node13"><a xlink:href="classai_1_1IFactoryRegistry.html" target="_top" xlink:title="ai::IFactoryRegistry\l\&lt; std::string, TreeNode,\l SteerNodeFactoryContext \&gt;">
<polygon fill="white" stroke="black" points="144.5,-60.5 144.5,-101.5 287.5,-101.5 287.5,-60.5 144.5,-60.5"/>
<text text-anchor="start" x="152.5" y="-89.5" font-family="Helvetica,sans-Serif" font-size="10.00">ai::IFactoryRegistry</text>
<text text-anchor="start" x="152.5" y="-78.5" font-family="Helvetica,sans-Serif" font-size="10.00">&lt; std::string, TreeNode,</text>
<text text-anchor="middle" x="216" y="-67.5" font-family="Helvetica,sans-Serif" font-size="10.00"> SteerNodeFactoryContext &gt;</text>
</a>
</g>
</g>
<!-- Node1&#45;&gt;Node13 -->
<g id="edge12" class="edge"><title>Node1&#45;&gt;Node13</title>
<path fill="none" stroke="midnightblue" d="M49.7958,-264.915C57.6257,-228.942 78.9333,-153.332 126,-111 131.456,-106.093 137.743,-101.985 144.402,-98.545"/>
<polygon fill="midnightblue" stroke="midnightblue" points="46.2856,-264.611 47.7116,-275.11 53.1438,-266.013 46.2856,-264.611"/>
</g>
<!-- Node15 -->
<g id="node15" class="node"><title>Node15</title>
<g id="a_node15"><a xlink:href="classai_1_1IFactoryRegistry.html" target="_top" xlink:title="ai::IFactoryRegistry\l\&lt; std::string, TreeNode,\l TreeNodeFactoryContext \&gt;">
<polygon fill="white" stroke="black" points="146.5,-0.5 146.5,-41.5 285.5,-41.5 285.5,-0.5 146.5,-0.5"/>
<text text-anchor="start" x="154.5" y="-29.5" font-family="Helvetica,sans-Serif" font-size="10.00">ai::IFactoryRegistry</text>
<text text-anchor="start" x="154.5" y="-18.5" font-family="Helvetica,sans-Serif" font-size="10.00">&lt; std::string, TreeNode,</text>
<text text-anchor="middle" x="216" y="-7.5" font-family="Helvetica,sans-Serif" font-size="10.00"> TreeNodeFactoryContext &gt;</text>
</a>
</g>
</g>
<!-- Node1&#45;&gt;Node15 -->
<g id="edge14" class="edge"><title>Node1&#45;&gt;Node15</title>
<path fill="none" stroke="midnightblue" d="M47.0465,-265.367C50.472,-220.92 64.987,-111.751 126,-51 131.777,-45.2475 138.693,-40.5977 146.082,-36.8393"/>
<polygon fill="midnightblue" stroke="midnightblue" points="43.5487,-265.219 46.3807,-275.428 50.5335,-265.681 43.5487,-265.219"/>
</g>
<!-- Node8 -->
<g id="node8" class="node"><title>Node8</title>
<g id="a_node8"><a xlink:href="classai_1_1AIRegistry_1_1ConditionFactory.html" target="_top" xlink:title="ai::AIRegistry::Condition\lFactory">
<polygon fill="white" stroke="black" points="349,-246 349,-276 473,-276 473,-246 349,-246"/>
<text text-anchor="start" x="357" y="-264" font-family="Helvetica,sans-Serif" font-size="10.00">ai::AIRegistry::Condition</text>
<text text-anchor="middle" x="411" y="-253" font-family="Helvetica,sans-Serif" font-size="10.00">Factory</text>
</a>
</g>
</g>
<!-- Node7&#45;&gt;Node8 -->
<g id="edge7" class="edge"><title>Node7&#45;&gt;Node8</title>
<path fill="none" stroke="midnightblue" d="M294.719,-261C312.784,-261 331.762,-261 348.987,-261"/>
<polygon fill="midnightblue" stroke="midnightblue" points="294.502,-257.5 284.502,-261 294.502,-264.5 294.502,-257.5"/>
</g>
<!-- Node10 -->
<g id="node10" class="node"><title>Node10</title>
<g id="a_node10"><a xlink:href="classai_1_1AIRegistry_1_1FilterFactory.html" target="_top" xlink:title="ai::AIRegistry::FilterFactory">
<polygon fill="white" stroke="black" points="342.5,-191.5 342.5,-210.5 479.5,-210.5 479.5,-191.5 342.5,-191.5"/>
<text text-anchor="middle" x="411" y="-198.5" font-family="Helvetica,sans-Serif" font-size="10.00">ai::AIRegistry::FilterFactory</text>
</a>
</g>
</g>
<!-- Node9&#45;&gt;Node10 -->
<g id="edge9" class="edge"><title>Node9&#45;&gt;Node10</title>
<path fill="none" stroke="midnightblue" d="M285.301,-201C303.859,-201 323.943,-201 342.458,-201"/>
<polygon fill="midnightblue" stroke="midnightblue" points="285.168,-197.5 275.168,-201 285.168,-204.5 285.168,-197.5"/>
</g>
<!-- Node12 -->
<g id="node12" class="node"><title>Node12</title>
<g id="a_node12"><a xlink:href="classai_1_1AIRegistry_1_1SteeringFactory.html" target="_top" xlink:title="ai::AIRegistry::Steering\lFactory">
<polygon fill="white" stroke="black" points="351.5,-126 351.5,-156 470.5,-156 470.5,-126 351.5,-126"/>
<text text-anchor="start" x="359.5" y="-144" font-family="Helvetica,sans-Serif" font-size="10.00">ai::AIRegistry::Steering</text>
<text text-anchor="middle" x="411" y="-133" font-family="Helvetica,sans-Serif" font-size="10.00">Factory</text>
</a>
</g>
</g>
<!-- Node11&#45;&gt;Node12 -->
<g id="edge11" class="edge"><title>Node11&#45;&gt;Node12</title>
<path fill="none" stroke="midnightblue" d="M316.222,-141C328.209,-141 340.139,-141 351.274,-141"/>
<polygon fill="midnightblue" stroke="midnightblue" points="316.156,-137.5 306.156,-141 316.156,-144.5 316.156,-137.5"/>
</g>
<!-- Node14 -->
<g id="node14" class="node"><title>Node14</title>
<g id="a_node14"><a xlink:href="classai_1_1AIRegistry_1_1SteerNodeFactory.html" target="_top" xlink:title="ai::AIRegistry::SteerNode\lFactory">
<polygon fill="white" stroke="black" points="346.5,-66 346.5,-96 475.5,-96 475.5,-66 346.5,-66"/>
<text text-anchor="start" x="354.5" y="-84" font-family="Helvetica,sans-Serif" font-size="10.00">ai::AIRegistry::SteerNode</text>
<text text-anchor="middle" x="411" y="-73" font-family="Helvetica,sans-Serif" font-size="10.00">Factory</text>
</a>
</g>
</g>
<!-- Node13&#45;&gt;Node14 -->
<g id="edge13" class="edge"><title>Node13&#45;&gt;Node14</title>
<path fill="none" stroke="midnightblue" d="M298.215,-81C314.265,-81 330.895,-81 346.266,-81"/>
<polygon fill="midnightblue" stroke="midnightblue" points="297.77,-77.5001 287.77,-81 297.77,-84.5001 297.77,-77.5001"/>
</g>
<!-- Node16 -->
<g id="node16" class="node"><title>Node16</title>
<g id="a_node16"><a xlink:href="classai_1_1AIRegistry_1_1TreeNodeFactory.html" target="_top" xlink:title="ai::AIRegistry::TreeNode\lFactory">
<polygon fill="white" stroke="black" points="348.5,-6 348.5,-36 473.5,-36 473.5,-6 348.5,-6"/>
<text text-anchor="start" x="356.5" y="-24" font-family="Helvetica,sans-Serif" font-size="10.00">ai::AIRegistry::TreeNode</text>
<text text-anchor="middle" x="411" y="-13" font-family="Helvetica,sans-Serif" font-size="10.00">Factory</text>
</a>
</g>
</g>
<!-- Node15&#45;&gt;Node16 -->
<g id="edge15" class="edge"><title>Node15&#45;&gt;Node16</title>
<path fill="none" stroke="midnightblue" d="M295.797,-21C313.325,-21 331.66,-21 348.38,-21"/>
<polygon fill="midnightblue" stroke="midnightblue" points="295.588,-17.5001 285.588,-21 295.588,-24.5001 295.588,-17.5001"/>
</g>
</g>
</svg>
        <g id="navigator" transform="translate(0 0)" fill="#404254">
                <rect fill="#f2f5e9" fill-opacity="0.5" stroke="#606060" stroke-width=".5" x="0" y="0" width="60" height="60"/>
                <use id="zoomplus" xlink:href="#zoomPlus" x="17" y="9" onmousedown="handleZoom(evt,'in')"/>
                <use id="zoomminus" xlink:href="#zoomMin" x="42" y="9" onmousedown="handleZoom(evt,'out')"/>
                <use id="reset" xlink:href="#resetDef" x="30" y="36" onmousedown="handleReset()"/>
                <g id="arrowUp" xlink:href="#dirArrow" transform="translate(30 24)" onmousedown="handlePan(0,-1)">
                  <use xlink:href="#rim" fill="#404040">
                        <set attributeName="fill" to="#808080" begin="arrowUp.mouseover" end="arrowUp.mouseout"/>
                  </use>
                  <path fill="none" stroke="white" stroke-width="1.5" d="M0,-3.0v7 M-2.5,-0.5L0,-3.0L2.5,-0.5"/>
                </g>
                <g id="arrowRight" xlink:href="#dirArrow" transform="rotate(90) translate(36 -43)" onmousedown="handlePan(1,0)">
                  <use xlink:href="#rim" fill="#404040">
                        <set attributeName="fill" to="#808080" begin="arrowRight.mouseover" end="arrowRight.mouseout"/>
                  </use>
                  <path fill="none" stroke="white" stroke-width="1.5" d="M0,-3.0v7 M-2.5,-0.5L0,-3.0L2.5,-0.5"/>
                </g>
                <g id="arrowDown" xlink:href="#dirArrow" transform="rotate(180) translate(-30 -48)" onmousedown="handlePan(0,1)">
                  <use xlink:href="#rim" fill="#404040">
                        <set attributeName="fill" to="#808080" begin="arrowDown.mouseover" end="arrowDown.mouseout"/>
                  </use>
                  <path fill="none" stroke="white" stroke-width="1.5" d="M0,-3.0v7 M-2.5,-0.5L0,-3.0L2.5,-0.5"/>
                </g>
                <g id="arrowLeft" xlink:href="#dirArrow" transform="rotate(270) translate(-36 17)" onmousedown="handlePan(-1,0)">
                  <use xlink:href="#rim" fill="#404040">
                        <set attributeName="fill" to="#808080" begin="arrowLeft.mouseover" end="arrowLeft.mouseout"/>
                  </use>
                  <path fill="none" stroke="white" stroke-width="1.5" d="M0,-3.0v7 M-2.5,-0.5L0,-3.0L2.5,-0.5"/>
                </g>
        </g>
        <svg viewBox="0 0 15 15" width="100%" height="30px" preserveAspectRatio="xMaxYMin meet">
         <g id="arrow_out" transform="scale(0.3 0.3)">
          <a xlink:href="classai_1_1NonCopyable__inherit__graph_org.svg" target="_base">
           <rect id="button" ry="5" rx="5" y="6" x="6" height="38" width="38"
                fill="#f2f5e9" fill-opacity="0.5" stroke="#606060" stroke-width="1.0"/>
           <path id="arrow"
             d="M 11.500037,31.436501 C 11.940474,20.09759 22.043105,11.32322 32.158766,21.979434 L 37.068811,17.246167 C 37.068811,17.246167 37.088388,32 37.088388,32 L 22.160133,31.978069 C 22.160133,31.978069 26.997745,27.140456 26.997745,27.140456 C 18.528582,18.264221 13.291696,25.230495 11.500037,31.436501 z"
             style="fill:#404040;"/>
          </a>
         </g>
        </svg>
</svg>
