<?xml version="1.0" encoding="UTF-8" standalone="no"?>
<!DOCTYPE svg PUBLIC "-//W3C//DTD SVG 1.1//EN"
 "http://www.w3.org/Graphics/SVG/1.1/DTD/svg11.dtd">
<!-- Generated by graphviz version 2.36.0 (20140111.2315)
 -->
<!-- Title: ai::Sequence Pages: 1 -->
<svg width="82pt" height="196pt"
 viewBox="0.00 0.00 82.00 196.00" xmlns="http://www.w3.org/2000/svg" xmlns:xlink="http://www.w3.org/1999/xlink">
<g id="graph0" class="graph" transform="scale(1 1) rotate(0) translate(4 192)">
<title>ai::Sequence</title>
<polygon fill="white" stroke="none" points="-4,4 -4,-192 78,-192 78,4 -4,4"/>
<!-- Node1 -->
<g id="node1" class="node"><title>Node1</title>
<polygon fill="#bfbfbf" stroke="black" points="0,-0.5 0,-19.5 74,-19.5 74,-0.5 0,-0.5"/>
<text text-anchor="middle" x="37" y="-7.5" font-family="Helvetica,sans-Serif" font-size="10.00">ai::Sequence</text>
</g>
<!-- Node2 -->
<g id="node2" class="node"><title>Node2</title>
<g id="a_node2"><a xlink:href="classai_1_1Selector.html" target="_top" xlink:title="Base class for all type of TreeNode selectors. ">
<polygon fill="white" stroke="black" points="4,-56.5 4,-75.5 70,-75.5 70,-56.5 4,-56.5"/>
<text text-anchor="middle" x="37" y="-63.5" font-family="Helvetica,sans-Serif" font-size="10.00">ai::Selector</text>
</a>
</g>
</g>
<!-- Node2&#45;&gt;Node1 -->
<g id="edge1" class="edge"><title>Node2&#45;&gt;Node1</title>
<path fill="none" stroke="midnightblue" d="M37,-45.8045C37,-36.9102 37,-26.7798 37,-19.7511"/>
<polygon fill="midnightblue" stroke="midnightblue" points="33.5001,-46.083 37,-56.083 40.5001,-46.083 33.5001,-46.083"/>
</g>
<!-- Node3 -->
<g id="node3" class="node"><title>Node3</title>
<g id="a_node3"><a xlink:href="classai_1_1TreeNode.html" target="_top" xlink:title="The base class for all behaviour tree actions. ">
<polygon fill="white" stroke="black" points="0.5,-112.5 0.5,-131.5 73.5,-131.5 73.5,-112.5 0.5,-112.5"/>
<text text-anchor="middle" x="37" y="-119.5" font-family="Helvetica,sans-Serif" font-size="10.00">ai::TreeNode</text>
</a>
</g>
</g>
<!-- Node3&#45;&gt;Node2 -->
<g id="edge2" class="edge"><title>Node3&#45;&gt;Node2</title>
<path fill="none" stroke="midnightblue" d="M37,-101.805C37,-92.9102 37,-82.7798 37,-75.7511"/>
<polygon fill="midnightblue" stroke="midnightblue" points="33.5001,-102.083 37,-112.083 40.5001,-102.083 33.5001,-102.083"/>
</g>
<!-- Node4 -->
<g id="node4" class="node"><title>Node4</title>
<g id="a_node4"><a xlink:href="classai_1_1__MemObject.html" target="_top" xlink:title="MemObject">
<polygon fill="white" stroke="black" points="3.5,-168.5 3.5,-187.5 70.5,-187.5 70.5,-168.5 3.5,-168.5"/>
<text text-anchor="middle" x="37" y="-175.5" font-family="Helvetica,sans-Serif" font-size="10.00">MemObject</text>
</a>
</g>
</g>
<!-- Node4&#45;&gt;Node3 -->
<g id="edge3" class="edge"><title>Node4&#45;&gt;Node3</title>
<path fill="none" stroke="midnightblue" d="M37,-157.805C37,-148.91 37,-138.78 37,-131.751"/>
<polygon fill="midnightblue" stroke="midnightblue" points="33.5001,-158.083 37,-168.083 40.5001,-158.083 33.5001,-158.083"/>
</g>
</g>
</svg>
