<?xml version="1.0" encoding="UTF-8" standalone="no"?>
<!DOCTYPE svg PUBLIC "-//W3C//DTD SVG 1.1//EN"
 "http://www.w3.org/Graphics/SVG/1.1/DTD/svg11.dtd">
<!-- Generated by graphviz version 2.36.0 (20140111.2315)
 -->
<!-- Title: ai::IConditionFactory Pages: 1 -->
<svg width="164pt" height="164pt"
 viewBox="0.00 0.00 164.00 164.00" xmlns="http://www.w3.org/2000/svg" xmlns:xlink="http://www.w3.org/1999/xlink">
<g id="graph0" class="graph" transform="scale(1 1) rotate(0) translate(4 160)">
<title>ai::IConditionFactory</title>
<polygon fill="white" stroke="none" points="-4,4 -4,-160 160,-160 160,4 -4,4"/>
<!-- Node1 -->
<g id="node1" class="node"><title>Node1</title>
<polygon fill="#bfbfbf" stroke="black" points="24.5,-68.5 24.5,-87.5 131.5,-87.5 131.5,-68.5 24.5,-68.5"/>
<text text-anchor="middle" x="78" y="-75.5" font-family="Helvetica,sans-Serif" font-size="10.00">ai::IConditionFactory</text>
</g>
<!-- Node3 -->
<g id="node3" class="node"><title>Node3</title>
<g id="a_node3"><a xlink:href="classai_1_1LUACondition_1_1LUAConditionFactory.html" target="_top" xlink:title="ai::LUACondition::LUACondition\lFactory">
<polygon fill="white" stroke="black" points="-1,-1 -1,-31 157,-31 157,-1 -1,-1"/>
<text text-anchor="start" x="7" y="-19" font-family="Helvetica,sans-Serif" font-size="10.00">ai::LUACondition::LUACondition</text>
<text text-anchor="middle" x="78" y="-8" font-family="Helvetica,sans-Serif" font-size="10.00">Factory</text>
</a>
</g>
</g>
<!-- Node1&#45;&gt;Node3 -->
<g id="edge2" class="edge"><title>Node1&#45;&gt;Node3</title>
<path fill="none" stroke="midnightblue" d="M78,-58.3707C78,-49.5849 78,-39.2721 78,-31.1408"/>
<polygon fill="midnightblue" stroke="midnightblue" points="74.5001,-58.4034 78,-68.4035 81.5001,-58.4035 74.5001,-58.4034"/>
</g>
<!-- Node2 -->
<g id="node2" class="node"><title>Node2</title>
<g id="a_node2"><a xlink:href="classai_1_1IFactory.html" target="_top" xlink:title="ai::IFactory\&lt; ICondition,\l ConditionFactoryContext \&gt;">
<polygon fill="white" stroke="black" points="9.5,-125 9.5,-155 146.5,-155 146.5,-125 9.5,-125"/>
<text text-anchor="start" x="17.5" y="-143" font-family="Helvetica,sans-Serif" font-size="10.00">ai::IFactory&lt; ICondition,</text>
<text text-anchor="middle" x="78" y="-132" font-family="Helvetica,sans-Serif" font-size="10.00"> ConditionFactoryContext &gt;</text>
</a>
</g>
</g>
<!-- Node2&#45;&gt;Node1 -->
<g id="edge1" class="edge"><title>Node2&#45;&gt;Node1</title>
<path fill="none" stroke="midnightblue" d="M78,-114.586C78,-105.074 78,-94.7864 78,-87.7305"/>
<polygon fill="midnightblue" stroke="midnightblue" points="74.5001,-114.781 78,-124.781 81.5001,-114.781 74.5001,-114.781"/>
</g>
</g>
</svg>
