<?xml version="1.0" encoding="UTF-8" standalone="no"?>
<!DOCTYPE svg PUBLIC "-//W3C//DTD SVG 1.1//EN"
 "http://www.w3.org/Graphics/SVG/1.1/DTD/svg11.dtd">
<!-- Generated by graphviz version 2.36.0 (20140111.2315)
 -->
<!-- Title: ai::AIRegistry::SteerNodeFactory Pages: 1 -->
<svg width="974pt" height="106pt"
 viewBox="0.00 0.00 974.00 106.00" xmlns="http://www.w3.org/2000/svg" xmlns:xlink="http://www.w3.org/1999/xlink">
<g id="graph0" class="graph" transform="scale(1 1) rotate(0) translate(4 102)">
<title>ai::AIRegistry::SteerNodeFactory</title>
<polygon fill="white" stroke="none" points="-4,4 -4,-102 970,-102 970,4 -4,4"/>
<!-- Node1 -->
<g id="node1" class="node"><title>Node1</title>
<polygon fill="#bfbfbf" stroke="black" points="836.5,-54 836.5,-84 965.5,-84 965.5,-54 836.5,-54"/>
<text text-anchor="start" x="844.5" y="-72" font-family="Helvetica,sans-Serif" font-size="10.00">ai::AIRegistry::SteerNode</text>
<text text-anchor="middle" x="901" y="-61" font-family="Helvetica,sans-Serif" font-size="10.00">Factory</text>
</g>
<!-- Node2 -->
<g id="node2" class="node"><title>Node2</title>
<g id="a_node2"><a xlink:href="classai_1_1IFactoryRegistry.html" target="_top" xlink:title="ai::IFactoryRegistry\l\&lt; std::string, TreeNode,\l SteerNodeFactoryContext \&gt;">
<polygon fill="white" stroke="black" points="654.5,-48.5 654.5,-89.5 797.5,-89.5 797.5,-48.5 654.5,-48.5"/>
<text text-anchor="start" x="662.5" y="-77.5" font-family="Helvetica,sans-Serif" font-size="10.00">ai::IFactoryRegistry</text>
<text text-anchor="start" x="662.5" y="-66.5" font-family="Helvetica,sans-Serif" font-size="10.00">&lt; std::string, TreeNode,</text>
<text text-anchor="middle" x="726" y="-55.5" font-family="Helvetica,sans-Serif" font-size="10.00"> SteerNodeFactoryContext &gt;</text>
</a>
</g>
</g>
<!-- Node2&#45;&gt;Node1 -->
<g id="edge1" class="edge"><title>Node2&#45;&gt;Node1</title>
<path fill="none" stroke="midnightblue" d="M808.13,-69C817.641,-69 827.24,-69 836.463,-69"/>
<polygon fill="midnightblue" stroke="midnightblue" points="807.865,-65.5001 797.865,-69 807.865,-72.5001 807.865,-65.5001"/>
</g>
<!-- Node3 -->
<g id="node3" class="node"><title>Node3</title>
<g id="a_node3"><a xlink:href="classai_1_1NonCopyable.html" target="_top" xlink:title="ai::NonCopyable">
<polygon fill="white" stroke="black" points="420.5,-78.5 420.5,-97.5 509.5,-97.5 509.5,-78.5 420.5,-78.5"/>
<text text-anchor="middle" x="465" y="-85.5" font-family="Helvetica,sans-Serif" font-size="10.00">ai::NonCopyable</text>
</a>
</g>
</g>
<!-- Node3&#45;&gt;Node2 -->
<g id="edge2" class="edge"><title>Node3&#45;&gt;Node2</title>
<path fill="none" stroke="midnightblue" d="M519.738,-84.0578C558.722,-81.198 611.835,-77.3017 654.266,-74.189"/>
<polygon fill="midnightblue" stroke="midnightblue" points="519.36,-80.5761 509.643,-84.7984 519.872,-87.5573 519.36,-80.5761"/>
</g>
<!-- Node4 -->
<g id="node4" class="node"><title>Node4</title>
<polygon fill="white" stroke="#bfbfbf" points="358.5,-18.5 358.5,-59.5 571.5,-59.5 571.5,-18.5 358.5,-18.5"/>
<text text-anchor="start" x="366.5" y="-47.5" font-family="Helvetica,sans-Serif" font-size="10.00">std::map&lt; const std</text>
<text text-anchor="start" x="366.5" y="-36.5" font-family="Helvetica,sans-Serif" font-size="10.00">::string, const IFactory</text>
<text text-anchor="middle" x="465" y="-25.5" font-family="Helvetica,sans-Serif" font-size="10.00">&lt; TreeNode, SteerNodeFactoryContext &gt; * &gt;</text>
</g>
<!-- Node4&#45;&gt;Node2 -->
<g id="edge3" class="edge"><title>Node4&#45;&gt;Node2</title>
<path fill="none" stroke="#9a32cd" stroke-dasharray="5,2" d="M581.888,-52.4233C606.606,-55.2864 631.993,-58.227 654.394,-60.8216"/>
<polygon fill="#9a32cd" stroke="#9a32cd" points="582.055,-48.9194 571.719,-51.2454 581.25,-55.8729 582.055,-48.9194"/>
<text text-anchor="middle" x="613" y="-61" font-family="Helvetica,sans-Serif" font-size="10.00"> _factories</text>
</g>
<!-- Node5 -->
<g id="node5" class="node"><title>Node5</title>
<g id="a_node5"><a xlink:href="classai_1_1IFactory.html" target="_top" xlink:title="ai::IFactory\&lt; TreeNode,\l SteerNodeFactoryContext \&gt;">
<polygon fill="white" stroke="black" points="134.5,-44 134.5,-74 277.5,-74 277.5,-44 134.5,-44"/>
<text text-anchor="start" x="142.5" y="-62" font-family="Helvetica,sans-Serif" font-size="10.00">ai::IFactory&lt; TreeNode,</text>
<text text-anchor="middle" x="206" y="-51" font-family="Helvetica,sans-Serif" font-size="10.00"> SteerNodeFactoryContext &gt;</text>
</a>
</g>
</g>
<!-- Node5&#45;&gt;Node4 -->
<g id="edge4" class="edge"><title>Node5&#45;&gt;Node4</title>
<path fill="none" stroke="#9a32cd" stroke-dasharray="5,2" d="M287.696,-52.7201C310.117,-50.9753 334.802,-49.0543 358.419,-47.2164"/>
<polygon fill="#9a32cd" stroke="#9a32cd" points="287.265,-49.2431 277.566,-53.5085 287.808,-56.222 287.265,-49.2431"/>
<text text-anchor="middle" x="318" y="-54" font-family="Helvetica,sans-Serif" font-size="10.00"> elements</text>
</g>
<!-- Node6 -->
<g id="node6" class="node"><title>Node6</title>
<g id="a_node6"><a xlink:title="STL class. ">
<polygon fill="white" stroke="#bfbfbf" points="176,-5.5 176,-24.5 236,-24.5 236,-5.5 176,-5.5"/>
<text text-anchor="middle" x="206" y="-12.5" font-family="Helvetica,sans-Serif" font-size="10.00">std::string</text>
</a>
</g>
</g>
<!-- Node6&#45;&gt;Node4 -->
<g id="edge5" class="edge"><title>Node6&#45;&gt;Node4</title>
<path fill="none" stroke="#9a32cd" stroke-dasharray="5,2" d="M246.485,-18.6873C276.325,-21.4739 318.754,-25.4362 358.228,-29.1225"/>
<polygon fill="#9a32cd" stroke="#9a32cd" points="246.763,-15.1982 236.481,-17.7531 246.112,-22.1678 246.763,-15.1982"/>
<text text-anchor="middle" x="318" y="-30" font-family="Helvetica,sans-Serif" font-size="10.00"> keys</text>
</g>
<!-- Node7 -->
<g id="node7" class="node"><title>Node7</title>
<g id="a_node7"><a xlink:title="STL class. ">
<polygon fill="white" stroke="#bfbfbf" points="0.5,-0 0.5,-30 95.5,-30 95.5,-0 0.5,-0"/>
<text text-anchor="start" x="8.5" y="-18" font-family="Helvetica,sans-Serif" font-size="10.00">std::basic_string&lt;</text>
<text text-anchor="middle" x="48" y="-7" font-family="Helvetica,sans-Serif" font-size="10.00"> char &gt;</text>
</a>
</g>
</g>
<!-- Node7&#45;&gt;Node6 -->
<g id="edge6" class="edge"><title>Node7&#45;&gt;Node6</title>
<path fill="none" stroke="midnightblue" d="M106.115,-15C129.821,-15 156.306,-15 175.895,-15"/>
<polygon fill="midnightblue" stroke="midnightblue" points="105.805,-11.5001 95.8051,-15 105.805,-18.5001 105.805,-11.5001"/>
</g>
</g>
</svg>
