<?xml version="1.0" encoding="UTF-8" standalone="no"?>
<!DOCTYPE svg PUBLIC "-//W3C//DTD SVG 1.1//EN"
 "http://www.w3.org/Graphics/SVG/1.1/DTD/svg11.dtd">
<!-- Generated by graphviz version 2.36.0 (20140111.2315)
 -->
<!-- Title: ai::XMLTreeLoader Pages: 1 -->
<svg width="328pt" height="304pt"
 viewBox="0.00 0.00 328.00 304.00" xmlns="http://www.w3.org/2000/svg" xmlns:xlink="http://www.w3.org/1999/xlink">
<g id="graph0" class="graph" transform="scale(1 1) rotate(0) translate(4 300)">
<title>ai::XMLTreeLoader</title>
<polygon fill="white" stroke="none" points="-4,4 -4,-300 324,-300 324,4 -4,4"/>
<!-- Node1 -->
<g id="node1" class="node"><title>Node1</title>
<polygon fill="#bfbfbf" stroke="black" points="121.5,-0.5 121.5,-19.5 220.5,-19.5 220.5,-0.5 121.5,-0.5"/>
<text text-anchor="middle" x="171" y="-7.5" font-family="Helvetica,sans-Serif" font-size="10.00">ai::XMLTreeLoader</text>
</g>
<!-- Node2 -->
<g id="node2" class="node"><title>Node2</title>
<g id="a_node2"><a xlink:href="classai_1_1ITreeLoader.html" target="_top" xlink:title="This class must be extended to load behaviour trees. The contract here is that the parsing only happe...">
<polygon fill="white" stroke="black" points="130,-58.5 130,-77.5 212,-77.5 212,-58.5 130,-58.5"/>
<text text-anchor="middle" x="171" y="-65.5" font-family="Helvetica,sans-Serif" font-size="10.00">ai::ITreeLoader</text>
</a>
</g>
</g>
<!-- Node2&#45;&gt;Node1 -->
<g id="edge1" class="edge"><title>Node2&#45;&gt;Node1</title>
<path fill="none" stroke="midnightblue" d="M171,-47.953C171,-38.2875 171,-27.0312 171,-19.5052"/>
<polygon fill="midnightblue" stroke="midnightblue" points="167.5,-48.25 171,-58.25 174.5,-48.25 167.5,-48.25"/>
</g>
<!-- Node3 -->
<g id="node3" class="node"><title>Node3</title>
<g id="a_node3"><a xlink:href="classai_1_1ReadWriteLock.html" target="_top" xlink:title="ai::ReadWriteLock">
<polygon fill="white" stroke="black" points="0,-132.5 0,-151.5 98,-151.5 98,-132.5 0,-132.5"/>
<text text-anchor="middle" x="49" y="-139.5" font-family="Helvetica,sans-Serif" font-size="10.00">ai::ReadWriteLock</text>
</a>
</g>
</g>
<!-- Node3&#45;&gt;Node2 -->
<g id="edge2" class="edge"><title>Node3&#45;&gt;Node2</title>
<path fill="none" stroke="#9a32cd" stroke-dasharray="5,2" d="M72.2595,-127.273C97.113,-112.605 135.735,-89.8119 156.545,-77.531"/>
<polygon fill="#9a32cd" stroke="#9a32cd" points="70.3073,-124.361 63.4741,-132.458 73.8651,-130.39 70.3073,-124.361"/>
<text text-anchor="middle" x="138.5" y="-99.5" font-family="Helvetica,sans-Serif" font-size="10.00"> _lock</text>
</g>
<!-- Node4 -->
<g id="node4" class="node"><title>Node4</title>
<polygon fill="white" stroke="#bfbfbf" points="116,-127 116,-157 226,-157 226,-127 116,-127"/>
<text text-anchor="start" x="124" y="-145" font-family="Helvetica,sans-Serif" font-size="10.00">std::map&lt; std::string,</text>
<text text-anchor="middle" x="171" y="-134" font-family="Helvetica,sans-Serif" font-size="10.00"> TreeNodePtr &gt;</text>
</g>
<!-- Node4&#45;&gt;Node2 -->
<g id="edge3" class="edge"><title>Node4&#45;&gt;Node2</title>
<path fill="none" stroke="#9a32cd" stroke-dasharray="5,2" d="M171,-116.688C171,-103.253 171,-87.3805 171,-77.7589"/>
<polygon fill="#9a32cd" stroke="#9a32cd" points="167.5,-116.775 171,-126.775 174.5,-116.775 167.5,-116.775"/>
<text text-anchor="middle" x="193" y="-99.5" font-family="Helvetica,sans-Serif" font-size="10.00"> _treeMap</text>
</g>
<!-- Node5 -->
<g id="node5" class="node"><title>Node5</title>
<g id="a_node5"><a xlink:title="STL class. ">
<polygon fill="white" stroke="#bfbfbf" points="141,-206.5 141,-225.5 201,-225.5 201,-206.5 141,-206.5"/>
<text text-anchor="middle" x="171" y="-213.5" font-family="Helvetica,sans-Serif" font-size="10.00">std::string</text>
</a>
</g>
</g>
<!-- Node5&#45;&gt;Node4 -->
<g id="edge4" class="edge"><title>Node5&#45;&gt;Node4</title>
<path fill="none" stroke="#9a32cd" stroke-dasharray="5,2" d="M171,-196.085C171,-183.915 171,-168.354 171,-157.232"/>
<polygon fill="#9a32cd" stroke="#9a32cd" points="167.5,-196.458 171,-206.458 174.5,-196.458 167.5,-196.458"/>
<text text-anchor="middle" x="183.5" y="-179.5" font-family="Helvetica,sans-Serif" font-size="10.00"> keys</text>
</g>
<!-- Node6 -->
<g id="node6" class="node"><title>Node6</title>
<g id="a_node6"><a xlink:title="STL class. ">
<polygon fill="white" stroke="#bfbfbf" points="123.5,-265 123.5,-295 218.5,-295 218.5,-265 123.5,-265"/>
<text text-anchor="start" x="131.5" y="-283" font-family="Helvetica,sans-Serif" font-size="10.00">std::basic_string&lt;</text>
<text text-anchor="middle" x="171" y="-272" font-family="Helvetica,sans-Serif" font-size="10.00"> char &gt;</text>
</a>
</g>
</g>
<!-- Node6&#45;&gt;Node5 -->
<g id="edge5" class="edge"><title>Node6&#45;&gt;Node5</title>
<path fill="none" stroke="midnightblue" d="M171,-254.871C171,-244.663 171,-233.408 171,-225.842"/>
<polygon fill="midnightblue" stroke="midnightblue" points="167.5,-254.931 171,-264.931 174.5,-254.931 167.5,-254.931"/>
</g>
<!-- Node7 -->
<g id="node7" class="node"><title>Node7</title>
<g id="a_node7"><a xlink:href="classai_1_1IAIFactory.html" target="_top" xlink:title="ai::IAIFactory">
<polygon fill="white" stroke="black" points="244,-132.5 244,-151.5 320,-151.5 320,-132.5 244,-132.5"/>
<text text-anchor="middle" x="282" y="-139.5" font-family="Helvetica,sans-Serif" font-size="10.00">ai::IAIFactory</text>
</a>
</g>
</g>
<!-- Node7&#45;&gt;Node2 -->
<g id="edge6" class="edge"><title>Node7&#45;&gt;Node2</title>
<path fill="none" stroke="#9a32cd" stroke-dasharray="5,2" d="M262.506,-126.248C250.247,-117.18 233.969,-105.517 219,-96 208.672,-89.4337 196.672,-82.6837 187.254,-77.5753"/>
<polygon fill="#9a32cd" stroke="#9a32cd" points="260.539,-129.147 270.646,-132.324 264.726,-123.538 260.539,-129.147"/>
<text text-anchor="middle" x="261.5" y="-99.5" font-family="Helvetica,sans-Serif" font-size="10.00"> _aiFactory</text>
</g>
</g>
</svg>
