<?xml version="1.0" encoding="UTF-8" standalone="no"?>
<!DOCTYPE svg PUBLIC "-//W3C//DTD SVG 1.1//EN"
 "http://www.w3.org/Graphics/SVG/1.1/DTD/svg11.dtd">
<!-- Generated by graphviz version 2.36.0 (20140111.2315)
 -->
<!-- Title: ai::NonCopyable Pages: 1 -->
<svg width="488pt" height="454pt"
 viewBox="0.00 0.00 488.00 454.00" xmlns="http://www.w3.org/2000/svg" xmlns:xlink="http://www.w3.org/1999/xlink">
<g id="graph0" class="graph" transform="scale(1 1) rotate(0) translate(4 450)">
<title>ai::NonCopyable</title>
<polygon fill="white" stroke="none" points="-4,4 -4,-450 484,-450 484,4 -4,4"/>
<!-- Node1 -->
<g id="node1" class="node"><title>Node1</title>
<polygon fill="#bfbfbf" stroke="black" points="0.5,-251.5 0.5,-270.5 89.5,-270.5 89.5,-251.5 0.5,-251.5"/>
<text text-anchor="middle" x="45" y="-258.5" font-family="Helvetica,sans-Serif" font-size="10.00">ai::NonCopyable</text>
</g>
<!-- Node2 -->
<g id="node2" class="node"><title>Node2</title>
<g id="a_node2"><a xlink:href="classai_1_1ICharacter.html" target="_top" xlink:title="Class that should be extended by the AI controlled entity class. ">
<polygon fill="white" stroke="black" points="178,-426.5 178,-445.5 254,-445.5 254,-426.5 178,-426.5"/>
<text text-anchor="middle" x="216" y="-433.5" font-family="Helvetica,sans-Serif" font-size="10.00">ai::ICharacter</text>
</a>
</g>
</g>
<!-- Node1&#45;&gt;Node2 -->
<g id="edge1" class="edge"><title>Node1&#45;&gt;Node2</title>
<path fill="none" stroke="midnightblue" d="M50.4288,-280.753C58.9727,-314.081 80.9985,-381.241 126,-416 140.664,-427.327 160.514,-432.477 177.747,-434.732"/>
<polygon fill="midnightblue" stroke="midnightblue" points="53.7852,-279.741 48.0345,-270.843 46.981,-281.385 53.7852,-279.741"/>
</g>
<!-- Node3 -->
<g id="node3" class="node"><title>Node3</title>
<g id="a_node3"><a xlink:href="classai_1_1IFactoryRegistry.html" target="_top" xlink:title="ai::IFactoryRegistry\l\&lt; KEY, TYPE, CTX \&gt;">
<polygon fill="white" stroke="black" points="159.5,-377 159.5,-407 272.5,-407 272.5,-377 159.5,-377"/>
<text text-anchor="start" x="167.5" y="-395" font-family="Helvetica,sans-Serif" font-size="10.00">ai::IFactoryRegistry</text>
<text text-anchor="middle" x="216" y="-384" font-family="Helvetica,sans-Serif" font-size="10.00">&lt; KEY, TYPE, CTX &gt;</text>
</a>
</g>
</g>
<!-- Node1&#45;&gt;Node3 -->
<g id="edge2" class="edge"><title>Node1&#45;&gt;Node3</title>
<path fill="none" stroke="midnightblue" d="M55.1408,-279.646C67.7814,-303.481 92.8451,-344.363 126,-367 135.941,-373.787 147.696,-378.743 159.349,-382.359"/>
<polygon fill="midnightblue" stroke="midnightblue" points="58.1702,-277.883 50.4966,-270.577 51.9397,-281.073 58.1702,-277.883"/>
</g>
<!-- Node4 -->
<g id="node4" class="node"><title>Node4</title>
<g id="a_node4"><a xlink:href="classai_1_1lua_1_1LUA.html" target="_top" xlink:title="ai::lua::LUA">
<polygon fill="white" stroke="black" points="182,-338.5 182,-357.5 250,-357.5 250,-338.5 182,-338.5"/>
<text text-anchor="middle" x="216" y="-345.5" font-family="Helvetica,sans-Serif" font-size="10.00">ai::lua::LUA</text>
</a>
</g>
</g>
<!-- Node1&#45;&gt;Node4 -->
<g id="edge3" class="edge"><title>Node1&#45;&gt;Node4</title>
<path fill="none" stroke="midnightblue" d="M61.2083,-278.066C76.1484,-293.739 100.375,-316.386 126,-329 143.294,-337.513 164.318,-342.227 181.588,-344.829"/>
<polygon fill="midnightblue" stroke="midnightblue" points="63.6488,-275.551 54.2838,-270.596 58.515,-280.309 63.6488,-275.551"/>
</g>
<!-- Node5 -->
<g id="node5" class="node"><title>Node5</title>
<g id="a_node5"><a xlink:href="classai_1_1ProtocolMessageFactory.html" target="_top" xlink:title="ai::ProtocolMessageFactory">
<polygon fill="white" stroke="black" points="146.5,-300.5 146.5,-319.5 285.5,-319.5 285.5,-300.5 146.5,-300.5"/>
<text text-anchor="middle" x="216" y="-307.5" font-family="Helvetica,sans-Serif" font-size="10.00">ai::ProtocolMessageFactory</text>
</a>
</g>
</g>
<!-- Node1&#45;&gt;Node5 -->
<g id="edge4" class="edge"><title>Node1&#45;&gt;Node5</title>
<path fill="none" stroke="midnightblue" d="M79.2838,-274.135C93.5346,-279.479 110.447,-285.453 126,-290 139.224,-293.866 153.739,-297.414 167.14,-300.414"/>
<polygon fill="midnightblue" stroke="midnightblue" points="80.4833,-270.847 69.8923,-270.561 77.9938,-277.389 80.4833,-270.847"/>
</g>
<!-- Node6 -->
<g id="node6" class="node"><title>Node6</title>
<g id="a_node6"><a xlink:href="classai_1_1IFactoryRegistry.html" target="_top" xlink:title="ai::IFactoryRegistry\l\&lt; std::string, ICondition,\l ConditionFactoryContext \&gt;">
<polygon fill="white" stroke="black" points="147.5,-240.5 147.5,-281.5 284.5,-281.5 284.5,-240.5 147.5,-240.5"/>
<text text-anchor="start" x="155.5" y="-269.5" font-family="Helvetica,sans-Serif" font-size="10.00">ai::IFactoryRegistry</text>
<text text-anchor="start" x="155.5" y="-258.5" font-family="Helvetica,sans-Serif" font-size="10.00">&lt; std::string, ICondition,</text>
<text text-anchor="middle" x="216" y="-247.5" font-family="Helvetica,sans-Serif" font-size="10.00"> ConditionFactoryContext &gt;</text>
</a>
</g>
</g>
<!-- Node1&#45;&gt;Node6 -->
<g id="edge5" class="edge"><title>Node1&#45;&gt;Node6</title>
<path fill="none" stroke="midnightblue" d="M99.7253,-261C114.857,-261 131.515,-261 147.349,-261"/>
<polygon fill="midnightblue" stroke="midnightblue" points="99.5217,-257.5 89.5217,-261 99.5217,-264.5 99.5217,-257.5"/>
</g>
<!-- Node8 -->
<g id="node8" class="node"><title>Node8</title>
<g id="a_node8"><a xlink:href="classai_1_1IFactoryRegistry.html" target="_top" xlink:title="ai::IFactoryRegistry\l\&lt; std::string, IFilter,\l FilterFactoryContext \&gt;">
<polygon fill="white" stroke="black" points="157,-180.5 157,-221.5 275,-221.5 275,-180.5 157,-180.5"/>
<text text-anchor="start" x="165" y="-209.5" font-family="Helvetica,sans-Serif" font-size="10.00">ai::IFactoryRegistry</text>
<text text-anchor="start" x="165" y="-198.5" font-family="Helvetica,sans-Serif" font-size="10.00">&lt; std::string, IFilter,</text>
<text text-anchor="middle" x="216" y="-187.5" font-family="Helvetica,sans-Serif" font-size="10.00"> FilterFactoryContext &gt;</text>
</a>
</g>
</g>
<!-- Node1&#45;&gt;Node8 -->
<g id="edge7" class="edge"><title>Node1&#45;&gt;Node8</title>
<path fill="none" stroke="midnightblue" d="M80.1411,-247.909C94.2918,-242.558 110.899,-236.375 126,-231 135.985,-227.446 146.637,-223.763 156.974,-220.245"/>
<polygon fill="midnightblue" stroke="midnightblue" points="78.8925,-244.639 70.7856,-251.46 81.3768,-251.183 78.8925,-244.639"/>
</g>
<!-- Node10 -->
<g id="node10" class="node"><title>Node10</title>
<g id="a_node10"><a xlink:href="classai_1_1IFactoryRegistry.html" target="_top" xlink:title="ai::IFactoryRegistry\l\&lt; std::string, movement\l::ISteering, SteeringFactoryContext \&gt;">
<polygon fill="white" stroke="black" points="126,-120.5 126,-161.5 306,-161.5 306,-120.5 126,-120.5"/>
<text text-anchor="start" x="134" y="-149.5" font-family="Helvetica,sans-Serif" font-size="10.00">ai::IFactoryRegistry</text>
<text text-anchor="start" x="134" y="-138.5" font-family="Helvetica,sans-Serif" font-size="10.00">&lt; std::string, movement</text>
<text text-anchor="middle" x="216" y="-127.5" font-family="Helvetica,sans-Serif" font-size="10.00">::ISteering, SteeringFactoryContext &gt;</text>
</a>
</g>
</g>
<!-- Node1&#45;&gt;Node10 -->
<g id="edge9" class="edge"><title>Node1&#45;&gt;Node10</title>
<path fill="none" stroke="midnightblue" d="M57.6359,-243.05C71.6019,-222.84 96.8222,-190.31 126,-171 131.303,-167.49 137.056,-164.354 142.998,-161.558"/>
<polygon fill="midnightblue" stroke="midnightblue" points="54.7123,-241.125 52.0372,-251.377 60.5214,-245.031 54.7123,-241.125"/>
</g>
<!-- Node12 -->
<g id="node12" class="node"><title>Node12</title>
<g id="a_node12"><a xlink:href="classai_1_1IFactoryRegistry.html" target="_top" xlink:title="ai::IFactoryRegistry\l\&lt; std::string, TreeNode,\l SteerNodeFactoryContext \&gt;">
<polygon fill="white" stroke="black" points="144.5,-60.5 144.5,-101.5 287.5,-101.5 287.5,-60.5 144.5,-60.5"/>
<text text-anchor="start" x="152.5" y="-89.5" font-family="Helvetica,sans-Serif" font-size="10.00">ai::IFactoryRegistry</text>
<text text-anchor="start" x="152.5" y="-78.5" font-family="Helvetica,sans-Serif" font-size="10.00">&lt; std::string, TreeNode,</text>
<text text-anchor="middle" x="216" y="-67.5" font-family="Helvetica,sans-Serif" font-size="10.00"> SteerNodeFactoryContext &gt;</text>
</a>
</g>
</g>
<!-- Node1&#45;&gt;Node12 -->
<g id="edge11" class="edge"><title>Node1&#45;&gt;Node12</title>
<path fill="none" stroke="midnightblue" d="M51.2695,-241.48C60.8492,-209.635 84.1048,-146.502 126,-111 131.474,-106.362 137.695,-102.432 144.245,-99.1034"/>
<polygon fill="midnightblue" stroke="midnightblue" points="47.8334,-240.766 48.4432,-251.343 54.5626,-242.694 47.8334,-240.766"/>
</g>
<!-- Node14 -->
<g id="node14" class="node"><title>Node14</title>
<g id="a_node14"><a xlink:href="classai_1_1IFactoryRegistry.html" target="_top" xlink:title="ai::IFactoryRegistry\l\&lt; std::string, TreeNode,\l TreeNodeFactoryContext \&gt;">
<polygon fill="white" stroke="black" points="146.5,-0.5 146.5,-41.5 285.5,-41.5 285.5,-0.5 146.5,-0.5"/>
<text text-anchor="start" x="154.5" y="-29.5" font-family="Helvetica,sans-Serif" font-size="10.00">ai::IFactoryRegistry</text>
<text text-anchor="start" x="154.5" y="-18.5" font-family="Helvetica,sans-Serif" font-size="10.00">&lt; std::string, TreeNode,</text>
<text text-anchor="middle" x="216" y="-7.5" font-family="Helvetica,sans-Serif" font-size="10.00"> TreeNodeFactoryContext &gt;</text>
</a>
</g>
</g>
<!-- Node1&#45;&gt;Node14 -->
<g id="edge13" class="edge"><title>Node1&#45;&gt;Node14</title>
<path fill="none" stroke="midnightblue" d="M47.9999,-240.868C53.1782,-199.454 70.7415,-104.152 126,-51 131.876,-45.3482 138.851,-40.7597 146.273,-37.0348"/>
<polygon fill="midnightblue" stroke="midnightblue" points="44.4956,-240.71 46.8468,-251.04 51.451,-241.498 44.4956,-240.71"/>
</g>
<!-- Node7 -->
<g id="node7" class="node"><title>Node7</title>
<g id="a_node7"><a xlink:href="classai_1_1AIRegistry_1_1ConditionFactory.html" target="_top" xlink:title="ai::AIRegistry::Condition\lFactory">
<polygon fill="white" stroke="black" points="349,-246 349,-276 473,-276 473,-246 349,-246"/>
<text text-anchor="start" x="357" y="-264" font-family="Helvetica,sans-Serif" font-size="10.00">ai::AIRegistry::Condition</text>
<text text-anchor="middle" x="411" y="-253" font-family="Helvetica,sans-Serif" font-size="10.00">Factory</text>
</a>
</g>
</g>
<!-- Node6&#45;&gt;Node7 -->
<g id="edge6" class="edge"><title>Node6&#45;&gt;Node7</title>
<path fill="none" stroke="midnightblue" d="M294.719,-261C312.784,-261 331.762,-261 348.987,-261"/>
<polygon fill="midnightblue" stroke="midnightblue" points="294.502,-257.5 284.502,-261 294.502,-264.5 294.502,-257.5"/>
</g>
<!-- Node9 -->
<g id="node9" class="node"><title>Node9</title>
<g id="a_node9"><a xlink:href="classai_1_1AIRegistry_1_1FilterFactory.html" target="_top" xlink:title="ai::AIRegistry::FilterFactory">
<polygon fill="white" stroke="black" points="342.5,-191.5 342.5,-210.5 479.5,-210.5 479.5,-191.5 342.5,-191.5"/>
<text text-anchor="middle" x="411" y="-198.5" font-family="Helvetica,sans-Serif" font-size="10.00">ai::AIRegistry::FilterFactory</text>
</a>
</g>
</g>
<!-- Node8&#45;&gt;Node9 -->
<g id="edge8" class="edge"><title>Node8&#45;&gt;Node9</title>
<path fill="none" stroke="midnightblue" d="M285.301,-201C303.859,-201 323.943,-201 342.458,-201"/>
<polygon fill="midnightblue" stroke="midnightblue" points="285.168,-197.5 275.168,-201 285.168,-204.5 285.168,-197.5"/>
</g>
<!-- Node11 -->
<g id="node11" class="node"><title>Node11</title>
<g id="a_node11"><a xlink:href="classai_1_1AIRegistry_1_1SteeringFactory.html" target="_top" xlink:title="ai::AIRegistry::Steering\lFactory">
<polygon fill="white" stroke="black" points="351.5,-126 351.5,-156 470.5,-156 470.5,-126 351.5,-126"/>
<text text-anchor="start" x="359.5" y="-144" font-family="Helvetica,sans-Serif" font-size="10.00">ai::AIRegistry::Steering</text>
<text text-anchor="middle" x="411" y="-133" font-family="Helvetica,sans-Serif" font-size="10.00">Factory</text>
</a>
</g>
</g>
<!-- Node10&#45;&gt;Node11 -->
<g id="edge10" class="edge"><title>Node10&#45;&gt;Node11</title>
<path fill="none" stroke="midnightblue" d="M316.222,-141C328.209,-141 340.139,-141 351.274,-141"/>
<polygon fill="midnightblue" stroke="midnightblue" points="316.156,-137.5 306.156,-141 316.156,-144.5 316.156,-137.5"/>
</g>
<!-- Node13 -->
<g id="node13" class="node"><title>Node13</title>
<g id="a_node13"><a xlink:href="classai_1_1AIRegistry_1_1SteerNodeFactory.html" target="_top" xlink:title="ai::AIRegistry::SteerNode\lFactory">
<polygon fill="white" stroke="black" points="346.5,-66 346.5,-96 475.5,-96 475.5,-66 346.5,-66"/>
<text text-anchor="start" x="354.5" y="-84" font-family="Helvetica,sans-Serif" font-size="10.00">ai::AIRegistry::SteerNode</text>
<text text-anchor="middle" x="411" y="-73" font-family="Helvetica,sans-Serif" font-size="10.00">Factory</text>
</a>
</g>
</g>
<!-- Node12&#45;&gt;Node13 -->
<g id="edge12" class="edge"><title>Node12&#45;&gt;Node13</title>
<path fill="none" stroke="midnightblue" d="M298.215,-81C314.265,-81 330.895,-81 346.266,-81"/>
<polygon fill="midnightblue" stroke="midnightblue" points="297.77,-77.5001 287.77,-81 297.77,-84.5001 297.77,-77.5001"/>
</g>
<!-- Node15 -->
<g id="node15" class="node"><title>Node15</title>
<g id="a_node15"><a xlink:href="classai_1_1AIRegistry_1_1TreeNodeFactory.html" target="_top" xlink:title="ai::AIRegistry::TreeNode\lFactory">
<polygon fill="white" stroke="black" points="348.5,-6 348.5,-36 473.5,-36 473.5,-6 348.5,-6"/>
<text text-anchor="start" x="356.5" y="-24" font-family="Helvetica,sans-Serif" font-size="10.00">ai::AIRegistry::TreeNode</text>
<text text-anchor="middle" x="411" y="-13" font-family="Helvetica,sans-Serif" font-size="10.00">Factory</text>
</a>
</g>
</g>
<!-- Node14&#45;&gt;Node15 -->
<g id="edge14" class="edge"><title>Node14&#45;&gt;Node15</title>
<path fill="none" stroke="midnightblue" d="M295.797,-21C313.325,-21 331.66,-21 348.38,-21"/>
<polygon fill="midnightblue" stroke="midnightblue" points="295.588,-17.5001 285.588,-21 295.588,-24.5001 295.588,-17.5001"/>
</g>
</g>
</svg>
