<?xml version="1.0" encoding="UTF-8" standalone="no"?>
<!DOCTYPE svg PUBLIC "-//W3C//DTD SVG 1.1//EN"
 "http://www.w3.org/Graphics/SVG/1.1/DTD/svg11.dtd">
<!-- Generated by graphviz version 2.36.0 (20140111.2315)
 -->
<!-- Title: ai::AIRegistry Pages: 1 -->
<svg width="1220pt" height="376pt"
 viewBox="0.00 0.00 1220.00 376.00" xmlns="http://www.w3.org/2000/svg" xmlns:xlink="http://www.w3.org/1999/xlink">
<g id="graph0" class="graph" transform="scale(1 1) rotate(0) translate(4 372)">
<title>ai::AIRegistry</title>
<polygon fill="white" stroke="none" points="-4,4 -4,-372 1216,-372 1216,4 -4,4"/>
<!-- Node1 -->
<g id="node1" class="node"><title>Node1</title>
<polygon fill="#bfbfbf" stroke="black" points="1134.5,-196.5 1134.5,-215.5 1211.5,-215.5 1211.5,-196.5 1134.5,-196.5"/>
<text text-anchor="middle" x="1173" y="-203.5" font-family="Helvetica,sans-Serif" font-size="10.00">ai::AIRegistry</text>
</g>
<!-- Node2 -->
<g id="node2" class="node"><title>Node2</title>
<g id="a_node2"><a xlink:href="classai_1_1IAIFactory.html" target="_top" xlink:title="ai::IAIFactory">
<polygon fill="white" stroke="black" points="903,-315.5 903,-334.5 979,-334.5 979,-315.5 903,-315.5"/>
<text text-anchor="middle" x="941" y="-322.5" font-family="Helvetica,sans-Serif" font-size="10.00">ai::IAIFactory</text>
</a>
</g>
</g>
<!-- Node2&#45;&gt;Node1 -->
<g id="edge1" class="edge"><title>Node2&#45;&gt;Node1</title>
<path fill="none" stroke="midnightblue" d="M989.2,-320.898C1026.28,-315.8 1077.84,-304.406 1116,-279 1140.73,-262.534 1159.09,-231.459 1167.28,-215.696"/>
<polygon fill="midnightblue" stroke="midnightblue" points="988.629,-317.443 979.15,-322.176 989.511,-324.387 988.629,-317.443"/>
</g>
<!-- Node3 -->
<g id="node3" class="node"><title>Node3</title>
<g id="a_node3"><a xlink:href="classai_1_1AIRegistry_1_1SteerNodeFactory.html" target="_top" xlink:title="ai::AIRegistry::SteerNode\lFactory">
<polygon fill="white" stroke="black" points="876.5,-217 876.5,-247 1005.5,-247 1005.5,-217 876.5,-217"/>
<text text-anchor="start" x="884.5" y="-235" font-family="Helvetica,sans-Serif" font-size="10.00">ai::AIRegistry::SteerNode</text>
<text text-anchor="middle" x="941" y="-224" font-family="Helvetica,sans-Serif" font-size="10.00">Factory</text>
</a>
</g>
</g>
<!-- Node3&#45;&gt;Node1 -->
<g id="edge2" class="edge"><title>Node3&#45;&gt;Node1</title>
<path fill="none" stroke="#9a32cd" stroke-dasharray="5,2" d="M1015.89,-223.647C1055.4,-219.181 1102.35,-213.874 1134.37,-210.254"/>
<polygon fill="#9a32cd" stroke="#9a32cd" points="1015.31,-220.191 1005.76,-224.792 1016.09,-227.147 1015.31,-220.191"/>
<text text-anchor="middle" x="1072" y="-226" font-family="Helvetica,sans-Serif" font-size="10.00"> _steerNodeFactory</text>
</g>
<!-- Node4 -->
<g id="node4" class="node"><title>Node4</title>
<g id="a_node4"><a xlink:href="classai_1_1IFactoryRegistry.html" target="_top" xlink:title="ai::IFactoryRegistry\l\&lt; std::string, TreeNode,\l SteerNodeFactoryContext \&gt;">
<polygon fill="white" stroke="black" points="672.5,-222.5 672.5,-263.5 815.5,-263.5 815.5,-222.5 672.5,-222.5"/>
<text text-anchor="start" x="680.5" y="-251.5" font-family="Helvetica,sans-Serif" font-size="10.00">ai::IFactoryRegistry</text>
<text text-anchor="start" x="680.5" y="-240.5" font-family="Helvetica,sans-Serif" font-size="10.00">&lt; std::string, TreeNode,</text>
<text text-anchor="middle" x="744" y="-229.5" font-family="Helvetica,sans-Serif" font-size="10.00"> SteerNodeFactoryContext &gt;</text>
</a>
</g>
</g>
<!-- Node4&#45;&gt;Node3 -->
<g id="edge3" class="edge"><title>Node4&#45;&gt;Node3</title>
<path fill="none" stroke="midnightblue" d="M826.028,-238.429C842.823,-237.482 860.291,-236.496 876.357,-235.59"/>
<polygon fill="midnightblue" stroke="midnightblue" points="825.462,-234.955 815.675,-239.013 825.856,-241.944 825.462,-234.955"/>
</g>
<!-- Node5 -->
<g id="node5" class="node"><title>Node5</title>
<g id="a_node5"><a xlink:href="classai_1_1NonCopyable.html" target="_top" xlink:title="ai::NonCopyable">
<polygon fill="white" stroke="black" points="420.5,-196.5 420.5,-215.5 509.5,-215.5 509.5,-196.5 420.5,-196.5"/>
<text text-anchor="middle" x="465" y="-203.5" font-family="Helvetica,sans-Serif" font-size="10.00">ai::NonCopyable</text>
</a>
</g>
</g>
<!-- Node5&#45;&gt;Node4 -->
<g id="edge4" class="edge"><title>Node5&#45;&gt;Node4</title>
<path fill="none" stroke="midnightblue" d="M519.689,-213.171C563.222,-218.986 624.932,-227.229 672.453,-233.577"/>
<polygon fill="midnightblue" stroke="midnightblue" points="519.961,-209.677 509.586,-211.822 519.035,-216.615 519.961,-209.677"/>
</g>
<!-- Node11 -->
<g id="node11" class="node"><title>Node11</title>
<g id="a_node11"><a xlink:href="classai_1_1IFactoryRegistry.html" target="_top" xlink:title="ai::IFactoryRegistry\l\&lt; std::string, ICondition,\l ConditionFactoryContext \&gt;">
<polygon fill="white" stroke="black" points="675.5,-282.5 675.5,-323.5 812.5,-323.5 812.5,-282.5 675.5,-282.5"/>
<text text-anchor="start" x="683.5" y="-311.5" font-family="Helvetica,sans-Serif" font-size="10.00">ai::IFactoryRegistry</text>
<text text-anchor="start" x="683.5" y="-300.5" font-family="Helvetica,sans-Serif" font-size="10.00">&lt; std::string, ICondition,</text>
<text text-anchor="middle" x="744" y="-289.5" font-family="Helvetica,sans-Serif" font-size="10.00"> ConditionFactoryContext &gt;</text>
</a>
</g>
</g>
<!-- Node5&#45;&gt;Node11 -->
<g id="edge11" class="edge"><title>Node5&#45;&gt;Node11</title>
<path fill="none" stroke="midnightblue" d="M506.465,-218.678C541.141,-229.81 592.265,-246.86 636,-264 644.151,-267.194 645.859,-268.78 654,-272 662.977,-275.551 672.543,-279.112 681.95,-282.489"/>
<polygon fill="midnightblue" stroke="midnightblue" points="507.29,-215.268 496.7,-215.56 505.161,-221.936 507.29,-215.268"/>
</g>
<!-- Node15 -->
<g id="node15" class="node"><title>Node15</title>
<g id="a_node15"><a xlink:href="classai_1_1IFactoryRegistry.html" target="_top" xlink:title="ai::IFactoryRegistry\l\&lt; std::string, IFilter,\l FilterFactoryContext \&gt;">
<polygon fill="white" stroke="black" points="685,-102.5 685,-143.5 803,-143.5 803,-102.5 685,-102.5"/>
<text text-anchor="start" x="693" y="-131.5" font-family="Helvetica,sans-Serif" font-size="10.00">ai::IFactoryRegistry</text>
<text text-anchor="start" x="693" y="-120.5" font-family="Helvetica,sans-Serif" font-size="10.00">&lt; std::string, IFilter,</text>
<text text-anchor="middle" x="744" y="-109.5" font-family="Helvetica,sans-Serif" font-size="10.00"> FilterFactoryContext &gt;</text>
</a>
</g>
</g>
<!-- Node5&#45;&gt;Node15 -->
<g id="edge17" class="edge"><title>Node5&#45;&gt;Node15</title>
<path fill="none" stroke="midnightblue" d="M519.972,-197.818C536.792,-194.736 555.304,-190.791 572,-186 601.353,-177.577 607.818,-172.76 636,-161 644.079,-157.629 645.843,-156.179 654,-153 663.875,-149.151 674.473,-145.322 684.79,-141.752"/>
<polygon fill="midnightblue" stroke="midnightblue" points="518.986,-194.438 509.748,-199.626 520.205,-201.331 518.986,-194.438"/>
</g>
<!-- Node19 -->
<g id="node19" class="node"><title>Node19</title>
<g id="a_node19"><a xlink:href="classai_1_1IFactoryRegistry.html" target="_top" xlink:title="ai::IFactoryRegistry\l\&lt; std::string, TreeNode,\l TreeNodeFactoryContext \&gt;">
<polygon fill="white" stroke="black" points="674.5,-42.5 674.5,-83.5 813.5,-83.5 813.5,-42.5 674.5,-42.5"/>
<text text-anchor="start" x="682.5" y="-71.5" font-family="Helvetica,sans-Serif" font-size="10.00">ai::IFactoryRegistry</text>
<text text-anchor="start" x="682.5" y="-60.5" font-family="Helvetica,sans-Serif" font-size="10.00">&lt; std::string, TreeNode,</text>
<text text-anchor="middle" x="744" y="-49.5" font-family="Helvetica,sans-Serif" font-size="10.00"> TreeNodeFactoryContext &gt;</text>
</a>
</g>
</g>
<!-- Node5&#45;&gt;Node19 -->
<g id="edge23" class="edge"><title>Node5&#45;&gt;Node19</title>
<path fill="none" stroke="midnightblue" d="M519.708,-203.399C537.353,-200.642 556.419,-195.48 572,-186 583.089,-179.253 581.614,-172.908 590,-163 617.232,-130.822 618.685,-116.018 654,-93 660.284,-88.9044 667.183,-85.312 674.273,-82.1742"/>
<polygon fill="midnightblue" stroke="midnightblue" points="518.969,-199.966 509.52,-204.759 519.895,-206.905 518.969,-199.966"/>
</g>
<!-- Node23 -->
<g id="node23" class="node"><title>Node23</title>
<g id="a_node23"><a xlink:href="classai_1_1IFactoryRegistry.html" target="_top" xlink:title="ai::IFactoryRegistry\l\&lt; std::string, movement\l::ISteering, SteeringFactoryContext \&gt;">
<polygon fill="white" stroke="black" points="654,-162.5 654,-203.5 834,-203.5 834,-162.5 654,-162.5"/>
<text text-anchor="start" x="662" y="-191.5" font-family="Helvetica,sans-Serif" font-size="10.00">ai::IFactoryRegistry</text>
<text text-anchor="start" x="662" y="-180.5" font-family="Helvetica,sans-Serif" font-size="10.00">&lt; std::string, movement</text>
<text text-anchor="middle" x="744" y="-169.5" font-family="Helvetica,sans-Serif" font-size="10.00">::ISteering, SteeringFactoryContext &gt;</text>
</a>
</g>
</g>
<!-- Node5&#45;&gt;Node23 -->
<g id="edge29" class="edge"><title>Node5&#45;&gt;Node23</title>
<path fill="none" stroke="midnightblue" d="M519.925,-201.523C557.938,-198.366 609.725,-194.066 653.833,-190.404"/>
<polygon fill="midnightblue" stroke="midnightblue" points="519.262,-198.065 509.586,-202.381 519.841,-205.041 519.262,-198.065"/>
</g>
<!-- Node6 -->
<g id="node6" class="node"><title>Node6</title>
<polygon fill="white" stroke="#bfbfbf" points="358.5,-254.5 358.5,-295.5 571.5,-295.5 571.5,-254.5 358.5,-254.5"/>
<text text-anchor="start" x="366.5" y="-283.5" font-family="Helvetica,sans-Serif" font-size="10.00">std::map&lt; const std</text>
<text text-anchor="start" x="366.5" y="-272.5" font-family="Helvetica,sans-Serif" font-size="10.00">::string, const IFactory</text>
<text text-anchor="middle" x="465" y="-261.5" font-family="Helvetica,sans-Serif" font-size="10.00">&lt; TreeNode, SteerNodeFactoryContext &gt; * &gt;</text>
</g>
<!-- Node6&#45;&gt;Node4 -->
<g id="edge5" class="edge"><title>Node6&#45;&gt;Node4</title>
<path fill="none" stroke="#9a32cd" stroke-dasharray="5,2" d="M581.837,-261.618C612.48,-258.078 644.645,-254.362 672.11,-251.19"/>
<polygon fill="#9a32cd" stroke="#9a32cd" points="581.044,-258.186 571.512,-262.811 581.848,-265.14 581.044,-258.186"/>
<text text-anchor="middle" x="613" y="-263" font-family="Helvetica,sans-Serif" font-size="10.00"> _factories</text>
</g>
<!-- Node7 -->
<g id="node7" class="node"><title>Node7</title>
<g id="a_node7"><a xlink:href="classai_1_1IFactory.html" target="_top" xlink:title="ai::IFactory\&lt; TreeNode,\l SteerNodeFactoryContext \&gt;">
<polygon fill="white" stroke="black" points="134.5,-287 134.5,-317 277.5,-317 277.5,-287 134.5,-287"/>
<text text-anchor="start" x="142.5" y="-305" font-family="Helvetica,sans-Serif" font-size="10.00">ai::IFactory&lt; TreeNode,</text>
<text text-anchor="middle" x="206" y="-294" font-family="Helvetica,sans-Serif" font-size="10.00"> SteerNodeFactoryContext &gt;</text>
</a>
</g>
</g>
<!-- Node7&#45;&gt;Node6 -->
<g id="edge6" class="edge"><title>Node7&#45;&gt;Node6</title>
<path fill="none" stroke="#9a32cd" stroke-dasharray="5,2" d="M287.696,-293.522C310.117,-291.167 334.802,-288.573 358.419,-286.092"/>
<polygon fill="#9a32cd" stroke="#9a32cd" points="287.146,-290.061 277.566,-294.586 287.877,-297.022 287.146,-290.061"/>
<text text-anchor="middle" x="318" y="-296" font-family="Helvetica,sans-Serif" font-size="10.00"> elements</text>
</g>
<!-- Node8 -->
<g id="node8" class="node"><title>Node8</title>
<g id="a_node8"><a xlink:title="STL class. ">
<polygon fill="white" stroke="#bfbfbf" points="176,-190.5 176,-209.5 236,-209.5 236,-190.5 176,-190.5"/>
<text text-anchor="middle" x="206" y="-197.5" font-family="Helvetica,sans-Serif" font-size="10.00">std::string</text>
</a>
</g>
</g>
<!-- Node8&#45;&gt;Node6 -->
<g id="edge7" class="edge"><title>Node8&#45;&gt;Node6</title>
<path fill="none" stroke="#9a32cd" stroke-dasharray="5,2" d="M245.89,-209.637C272.492,-216.375 308.505,-225.783 340,-235 360.516,-241.004 382.782,-248.025 402.711,-254.496"/>
<polygon fill="#9a32cd" stroke="#9a32cd" points="246.737,-206.241 236.185,-207.191 245.027,-213.029 246.737,-206.241"/>
<text text-anchor="middle" x="318" y="-238" font-family="Helvetica,sans-Serif" font-size="10.00"> keys</text>
</g>
<!-- Node12 -->
<g id="node12" class="node"><title>Node12</title>
<polygon fill="white" stroke="#bfbfbf" points="390,-315 390,-367 540,-367 540,-315 390,-315"/>
<text text-anchor="start" x="398" y="-355" font-family="Helvetica,sans-Serif" font-size="10.00">std::map&lt; const std</text>
<text text-anchor="start" x="398" y="-344" font-family="Helvetica,sans-Serif" font-size="10.00">::string, const IFactory</text>
<text text-anchor="start" x="398" y="-333" font-family="Helvetica,sans-Serif" font-size="10.00">&lt; ICondition, ConditionFactory</text>
<text text-anchor="middle" x="465" y="-322" font-family="Helvetica,sans-Serif" font-size="10.00">Context &gt; * &gt;</text>
</g>
<!-- Node8&#45;&gt;Node12 -->
<g id="edge14" class="edge"><title>Node8&#45;&gt;Node12</title>
<path fill="none" stroke="#9a32cd" stroke-dasharray="5,2" d="M234.676,-214.414C271.12,-233.545 331.59,-265.861 340,-274 351.173,-284.814 345.94,-294.185 358,-304 367.373,-311.628 378.424,-317.731 389.789,-322.601"/>
<polygon fill="#9a32cd" stroke="#9a32cd" points="236.018,-211.166 225.535,-209.628 232.771,-217.368 236.018,-211.166"/>
<text text-anchor="middle" x="318" y="-277" font-family="Helvetica,sans-Serif" font-size="10.00"> keys</text>
</g>
<!-- Node16 -->
<g id="node16" class="node"><title>Node16</title>
<polygon fill="white" stroke="#bfbfbf" points="380,-64.5 380,-105.5 550,-105.5 550,-64.5 380,-64.5"/>
<text text-anchor="start" x="388" y="-93.5" font-family="Helvetica,sans-Serif" font-size="10.00">std::map&lt; const std</text>
<text text-anchor="start" x="388" y="-82.5" font-family="Helvetica,sans-Serif" font-size="10.00">::string, const IFactory</text>
<text text-anchor="middle" x="465" y="-71.5" font-family="Helvetica,sans-Serif" font-size="10.00">&lt; IFilter, FilterFactoryContext &gt; * &gt;</text>
</g>
<!-- Node8&#45;&gt;Node16 -->
<g id="edge20" class="edge"><title>Node8&#45;&gt;Node16</title>
<path fill="none" stroke="#9a32cd" stroke-dasharray="5,2" d="M241.421,-186.764C278.123,-172.453 332.065,-150.778 340,-144 351.535,-134.147 345.883,-124.127 358,-115 364.645,-109.995 372.093,-105.824 379.878,-102.349"/>
<polygon fill="#9a32cd" stroke="#9a32cd" points="240.093,-183.525 232.039,-190.408 242.628,-190.05 240.093,-183.525"/>
<text text-anchor="middle" x="318" y="-167" font-family="Helvetica,sans-Serif" font-size="10.00"> keys</text>
</g>
<!-- Node20 -->
<g id="node20" class="node"><title>Node20</title>
<polygon fill="white" stroke="#bfbfbf" points="360.5,-4.5 360.5,-45.5 569.5,-45.5 569.5,-4.5 360.5,-4.5"/>
<text text-anchor="start" x="368.5" y="-33.5" font-family="Helvetica,sans-Serif" font-size="10.00">std::map&lt; const std</text>
<text text-anchor="start" x="368.5" y="-22.5" font-family="Helvetica,sans-Serif" font-size="10.00">::string, const IFactory</text>
<text text-anchor="middle" x="465" y="-11.5" font-family="Helvetica,sans-Serif" font-size="10.00">&lt; TreeNode, TreeNodeFactoryContext &gt; * &gt;</text>
</g>
<!-- Node8&#45;&gt;Node20 -->
<g id="edge25" class="edge"><title>Node8&#45;&gt;Node20</title>
<path fill="none" stroke="#9a32cd" stroke-dasharray="5,2" d="M243.138,-186.157C255.496,-179.984 268.567,-171.658 278,-161 292.276,-144.87 283.718,-133.696 296,-116 311.069,-94.2887 321.587,-94.9586 340,-76 348.564,-67.1818 347.644,-61.6231 358,-55 363.559,-51.445 369.544,-48.3032 375.741,-45.528"/>
<polygon fill="#9a32cd" stroke="#9a32cd" points="241.486,-183.065 233.899,-190.46 244.441,-189.411 241.486,-183.065"/>
<text text-anchor="middle" x="318" y="-119" font-family="Helvetica,sans-Serif" font-size="10.00"> keys</text>
</g>
<!-- Node24 -->
<g id="node24" class="node"><title>Node24</title>
<polygon fill="white" stroke="#bfbfbf" points="391,-125 391,-177 539,-177 539,-125 391,-125"/>
<text text-anchor="start" x="399" y="-165" font-family="Helvetica,sans-Serif" font-size="10.00">std::map&lt; const std</text>
<text text-anchor="start" x="399" y="-154" font-family="Helvetica,sans-Serif" font-size="10.00">::string, const IFactory</text>
<text text-anchor="start" x="399" y="-143" font-family="Helvetica,sans-Serif" font-size="10.00">&lt; movement::ISteering,</text>
<text text-anchor="middle" x="465" y="-132" font-family="Helvetica,sans-Serif" font-size="10.00"> SteeringFactoryContext &gt; * &gt;</text>
</g>
<!-- Node8&#45;&gt;Node24 -->
<g id="edge32" class="edge"><title>Node8&#45;&gt;Node24</title>
<path fill="none" stroke="#9a32cd" stroke-dasharray="5,2" d="M246.179,-194.052C272.718,-189.892 308.546,-184.022 340,-178 356.446,-174.851 374.056,-171.193 390.689,-167.604"/>
<polygon fill="#9a32cd" stroke="#9a32cd" points="245.477,-190.619 236.133,-195.614 246.553,-197.536 245.477,-190.619"/>
<text text-anchor="middle" x="318" y="-189" font-family="Helvetica,sans-Serif" font-size="10.00"> keys</text>
</g>
<!-- Node9 -->
<g id="node9" class="node"><title>Node9</title>
<g id="a_node9"><a xlink:title="STL class. ">
<polygon fill="white" stroke="#bfbfbf" points="0.5,-185 0.5,-215 95.5,-215 95.5,-185 0.5,-185"/>
<text text-anchor="start" x="8.5" y="-203" font-family="Helvetica,sans-Serif" font-size="10.00">std::basic_string&lt;</text>
<text text-anchor="middle" x="48" y="-192" font-family="Helvetica,sans-Serif" font-size="10.00"> char &gt;</text>
</a>
</g>
</g>
<!-- Node9&#45;&gt;Node8 -->
<g id="edge8" class="edge"><title>Node9&#45;&gt;Node8</title>
<path fill="none" stroke="midnightblue" d="M106.115,-200C129.821,-200 156.306,-200 175.895,-200"/>
<polygon fill="midnightblue" stroke="midnightblue" points="105.805,-196.5 95.8051,-200 105.805,-203.5 105.805,-196.5"/>
</g>
<!-- Node10 -->
<g id="node10" class="node"><title>Node10</title>
<g id="a_node10"><a xlink:href="classai_1_1AIRegistry_1_1ConditionFactory.html" target="_top" xlink:title="ai::AIRegistry::Condition\lFactory">
<polygon fill="white" stroke="black" points="879,-266 879,-296 1003,-296 1003,-266 879,-266"/>
<text text-anchor="start" x="887" y="-284" font-family="Helvetica,sans-Serif" font-size="10.00">ai::AIRegistry::Condition</text>
<text text-anchor="middle" x="941" y="-273" font-family="Helvetica,sans-Serif" font-size="10.00">Factory</text>
</a>
</g>
</g>
<!-- Node10&#45;&gt;Node1 -->
<g id="edge9" class="edge"><title>Node10&#45;&gt;Node1</title>
<path fill="none" stroke="#9a32cd" stroke-dasharray="5,2" d="M1013.46,-268.014C1045.46,-261.018 1083.28,-251.094 1116,-238 1130.97,-232.008 1146.82,-222.632 1157.82,-215.575"/>
<polygon fill="#9a32cd" stroke="#9a32cd" points="1012.33,-264.674 1003.28,-270.183 1013.79,-271.521 1012.33,-264.674"/>
<text text-anchor="middle" x="1072" y="-267" font-family="Helvetica,sans-Serif" font-size="10.00"> _conditionFactory</text>
</g>
<!-- Node11&#45;&gt;Node10 -->
<g id="edge10" class="edge"><title>Node11&#45;&gt;Node10</title>
<path fill="none" stroke="midnightblue" d="M822.641,-294.241C841.379,-292.127 861.138,-289.897 878.99,-287.883"/>
<polygon fill="midnightblue" stroke="midnightblue" points="822.199,-290.768 812.654,-295.367 822.984,-297.724 822.199,-290.768"/>
</g>
<!-- Node12&#45;&gt;Node11 -->
<g id="edge12" class="edge"><title>Node12&#45;&gt;Node11</title>
<path fill="none" stroke="#9a32cd" stroke-dasharray="5,2" d="M550.247,-329.443C590.292,-323.949 637.524,-317.47 675.21,-312.3"/>
<polygon fill="#9a32cd" stroke="#9a32cd" points="549.662,-325.99 540.231,-330.817 550.614,-332.925 549.662,-325.99"/>
<text text-anchor="middle" x="613" y="-327" font-family="Helvetica,sans-Serif" font-size="10.00"> _factories</text>
</g>
<!-- Node13 -->
<g id="node13" class="node"><title>Node13</title>
<g id="a_node13"><a xlink:href="classai_1_1IFactory.html" target="_top" xlink:title="ai::IFactory\&lt; ICondition,\l ConditionFactoryContext \&gt;">
<polygon fill="white" stroke="black" points="137.5,-336 137.5,-366 274.5,-366 274.5,-336 137.5,-336"/>
<text text-anchor="start" x="145.5" y="-354" font-family="Helvetica,sans-Serif" font-size="10.00">ai::IFactory&lt; ICondition,</text>
<text text-anchor="middle" x="206" y="-343" font-family="Helvetica,sans-Serif" font-size="10.00"> ConditionFactoryContext &gt;</text>
</a>
</g>
</g>
<!-- Node13&#45;&gt;Node12 -->
<g id="edge13" class="edge"><title>Node13&#45;&gt;Node12</title>
<path fill="none" stroke="#9a32cd" stroke-dasharray="5,2" d="M284.678,-347.978C318,-346.681 356.757,-345.173 389.697,-343.891"/>
<polygon fill="#9a32cd" stroke="#9a32cd" points="284.38,-344.486 274.524,-348.373 284.652,-351.481 284.38,-344.486"/>
<text text-anchor="middle" x="318" y="-351" font-family="Helvetica,sans-Serif" font-size="10.00"> elements</text>
</g>
<!-- Node14 -->
<g id="node14" class="node"><title>Node14</title>
<g id="a_node14"><a xlink:href="classai_1_1AIRegistry_1_1FilterFactory.html" target="_top" xlink:title="ai::AIRegistry::FilterFactory">
<polygon fill="white" stroke="black" points="872.5,-125.5 872.5,-144.5 1009.5,-144.5 1009.5,-125.5 872.5,-125.5"/>
<text text-anchor="middle" x="941" y="-132.5" font-family="Helvetica,sans-Serif" font-size="10.00">ai::AIRegistry::FilterFactory</text>
</a>
</g>
</g>
<!-- Node14&#45;&gt;Node1 -->
<g id="edge15" class="edge"><title>Node14&#45;&gt;Node1</title>
<path fill="none" stroke="#9a32cd" stroke-dasharray="5,2" d="M1020.02,-144.333C1050.68,-149.625 1085.72,-157.734 1116,-170 1132.28,-176.596 1148.97,-188.051 1159.84,-196.269"/>
<polygon fill="#9a32cd" stroke="#9a32cd" points="1020.23,-140.822 1009.8,-142.645 1019.09,-147.728 1020.23,-140.822"/>
<text text-anchor="middle" x="1072" y="-173" font-family="Helvetica,sans-Serif" font-size="10.00"> _filterFactory</text>
</g>
<!-- Node15&#45;&gt;Node14 -->
<g id="edge16" class="edge"><title>Node15&#45;&gt;Node14</title>
<path fill="none" stroke="midnightblue" d="M813.392,-127.209C832.548,-128.388 853.355,-129.668 872.462,-130.844"/>
<polygon fill="midnightblue" stroke="midnightblue" points="813.438,-123.705 803.242,-126.584 813.008,-130.692 813.438,-123.705"/>
</g>
<!-- Node16&#45;&gt;Node15 -->
<g id="edge18" class="edge"><title>Node16&#45;&gt;Node15</title>
<path fill="none" stroke="#9a32cd" stroke-dasharray="5,2" d="M560.305,-97.9371C601.525,-103.592 648.579,-110.047 684.61,-114.99"/>
<polygon fill="#9a32cd" stroke="#9a32cd" points="560.62,-94.4477 550.237,-96.556 559.669,-101.383 560.62,-94.4477"/>
<text text-anchor="middle" x="613" y="-111" font-family="Helvetica,sans-Serif" font-size="10.00"> _factories</text>
</g>
<!-- Node17 -->
<g id="node17" class="node"><title>Node17</title>
<g id="a_node17"><a xlink:href="classai_1_1IFactory.html" target="_top" xlink:title="ai::IFactory\&lt; IFilter,\l FilterFactoryContext \&gt;">
<polygon fill="white" stroke="black" points="147,-49 147,-79 265,-79 265,-49 147,-49"/>
<text text-anchor="start" x="155" y="-67" font-family="Helvetica,sans-Serif" font-size="10.00">ai::IFactory&lt; IFilter,</text>
<text text-anchor="middle" x="206" y="-56" font-family="Helvetica,sans-Serif" font-size="10.00"> FilterFactoryContext &gt;</text>
</a>
</g>
</g>
<!-- Node17&#45;&gt;Node16 -->
<g id="edge19" class="edge"><title>Node17&#45;&gt;Node16</title>
<path fill="none" stroke="#9a32cd" stroke-dasharray="5,2" d="M275.077,-62.5196C295.939,-62.6014 318.94,-63.2328 340,-65 352.929,-66.0849 366.547,-67.7459 379.834,-69.6566"/>
<polygon fill="#9a32cd" stroke="#9a32cd" points="275.025,-59.0195 265.025,-62.5209 275.026,-66.0195 275.025,-59.0195"/>
<text text-anchor="middle" x="318" y="-68" font-family="Helvetica,sans-Serif" font-size="10.00"> elements</text>
</g>
<!-- Node18 -->
<g id="node18" class="node"><title>Node18</title>
<g id="a_node18"><a xlink:href="classai_1_1AIRegistry_1_1TreeNodeFactory.html" target="_top" xlink:title="ai::AIRegistry::TreeNode\lFactory">
<polygon fill="white" stroke="black" points="878.5,-68 878.5,-98 1003.5,-98 1003.5,-68 878.5,-68"/>
<text text-anchor="start" x="886.5" y="-86" font-family="Helvetica,sans-Serif" font-size="10.00">ai::AIRegistry::TreeNode</text>
<text text-anchor="middle" x="941" y="-75" font-family="Helvetica,sans-Serif" font-size="10.00">Factory</text>
</a>
</g>
</g>
<!-- Node18&#45;&gt;Node1 -->
<g id="edge21" class="edge"><title>Node18&#45;&gt;Node1</title>
<path fill="none" stroke="#9a32cd" stroke-dasharray="5,2" d="M1013.83,-92.4448C1047.08,-99.4044 1085.81,-111.402 1116,-132 1140.89,-148.98 1159.3,-180.639 1167.41,-196.471"/>
<polygon fill="#9a32cd" stroke="#9a32cd" points="1014.19,-88.9485 1003.7,-90.4428 1012.83,-95.8156 1014.19,-88.9485"/>
<text text-anchor="middle" x="1072" y="-135" font-family="Helvetica,sans-Serif" font-size="10.00"> _treeNodeFactory</text>
</g>
<!-- Node19&#45;&gt;Node18 -->
<g id="edge22" class="edge"><title>Node19&#45;&gt;Node18</title>
<path fill="none" stroke="midnightblue" d="M823.745,-71.0764C841.935,-72.9421 861.031,-74.9006 878.368,-76.6787"/>
<polygon fill="midnightblue" stroke="midnightblue" points="824.055,-67.5899 813.75,-70.0513 823.34,-74.5534 824.055,-67.5899"/>
</g>
<!-- Node20&#45;&gt;Node19 -->
<g id="edge24" class="edge"><title>Node20&#45;&gt;Node19</title>
<path fill="none" stroke="#9a32cd" stroke-dasharray="5,2" d="M579.469,-40.5661C611.685,-44.9856 645.77,-49.6616 674.436,-53.5942"/>
<polygon fill="#9a32cd" stroke="#9a32cd" points="579.921,-37.0955 569.538,-39.2038 578.97,-44.0306 579.921,-37.0955"/>
<text text-anchor="middle" x="613" y="-51" font-family="Helvetica,sans-Serif" font-size="10.00"> _factories</text>
</g>
<!-- Node21 -->
<g id="node21" class="node"><title>Node21</title>
<g id="a_node21"><a xlink:href="classai_1_1IFactory.html" target="_top" xlink:title="ai::IFactory\&lt; TreeNode,\l TreeNodeFactoryContext \&gt;">
<polygon fill="white" stroke="black" points="136.5,-0 136.5,-30 275.5,-30 275.5,-0 136.5,-0"/>
<text text-anchor="start" x="144.5" y="-18" font-family="Helvetica,sans-Serif" font-size="10.00">ai::IFactory&lt; TreeNode,</text>
<text text-anchor="middle" x="206" y="-7" font-family="Helvetica,sans-Serif" font-size="10.00"> TreeNodeFactoryContext &gt;</text>
</a>
</g>
</g>
<!-- Node21&#45;&gt;Node20 -->
<g id="edge26" class="edge"><title>Node21&#45;&gt;Node20</title>
<path fill="none" stroke="#9a32cd" stroke-dasharray="5,2" d="M285.795,-18.066C309.326,-18.9816 335.487,-19.9995 360.356,-20.9672"/>
<polygon fill="#9a32cd" stroke="#9a32cd" points="285.662,-14.5582 275.534,-17.6667 285.39,-21.5529 285.662,-14.5582"/>
<text text-anchor="middle" x="318" y="-23" font-family="Helvetica,sans-Serif" font-size="10.00"> elements</text>
</g>
<!-- Node22 -->
<g id="node22" class="node"><title>Node22</title>
<g id="a_node22"><a xlink:href="classai_1_1AIRegistry_1_1SteeringFactory.html" target="_top" xlink:title="ai::AIRegistry::Steering\lFactory">
<polygon fill="white" stroke="black" points="881.5,-168 881.5,-198 1000.5,-198 1000.5,-168 881.5,-168"/>
<text text-anchor="start" x="889.5" y="-186" font-family="Helvetica,sans-Serif" font-size="10.00">ai::AIRegistry::Steering</text>
<text text-anchor="middle" x="941" y="-175" font-family="Helvetica,sans-Serif" font-size="10.00">Factory</text>
</a>
</g>
</g>
<!-- Node22&#45;&gt;Node1 -->
<g id="edge27" class="edge"><title>Node22&#45;&gt;Node1</title>
<path fill="none" stroke="#9a32cd" stroke-dasharray="5,2" d="M1010.86,-183.503C1042.96,-184.519 1081.58,-186.857 1116,-192 1123.33,-193.096 1131.11,-194.728 1138.45,-196.495"/>
<polygon fill="#9a32cd" stroke="#9a32cd" points="1010.77,-180 1000.68,-183.218 1010.58,-186.997 1010.77,-180"/>
<text text-anchor="middle" x="1072" y="-195" font-family="Helvetica,sans-Serif" font-size="10.00"> _steeringFactory</text>
</g>
<!-- Node23&#45;&gt;Node22 -->
<g id="edge28" class="edge"><title>Node23&#45;&gt;Node22</title>
<path fill="none" stroke="midnightblue" d="M844.339,-183C856.959,-183 869.539,-183 881.231,-183"/>
<polygon fill="midnightblue" stroke="midnightblue" points="844.225,-179.5 834.225,-183 844.225,-186.5 844.225,-179.5"/>
</g>
<!-- Node24&#45;&gt;Node23 -->
<g id="edge30" class="edge"><title>Node24&#45;&gt;Node23</title>
<path fill="none" stroke="#9a32cd" stroke-dasharray="5,2" d="M549.218,-160.614C582.242,-164.429 620.282,-168.823 653.867,-172.703"/>
<polygon fill="#9a32cd" stroke="#9a32cd" points="549.476,-157.12 539.141,-159.449 548.673,-164.074 549.476,-157.12"/>
<text text-anchor="middle" x="613" y="-173" font-family="Helvetica,sans-Serif" font-size="10.00"> _factories</text>
</g>
<!-- Node25 -->
<g id="node25" class="node"><title>Node25</title>
<g id="a_node25"><a xlink:href="classai_1_1IFactory.html" target="_top" xlink:title="ai::IFactory\&lt; movement\l::ISteering, SteeringFactory\lContext \&gt;">
<polygon fill="white" stroke="black" points="137.5,-111.5 137.5,-152.5 274.5,-152.5 274.5,-111.5 137.5,-111.5"/>
<text text-anchor="start" x="145.5" y="-140.5" font-family="Helvetica,sans-Serif" font-size="10.00">ai::IFactory&lt; movement</text>
<text text-anchor="start" x="145.5" y="-129.5" font-family="Helvetica,sans-Serif" font-size="10.00">::ISteering, SteeringFactory</text>
<text text-anchor="middle" x="206" y="-118.5" font-family="Helvetica,sans-Serif" font-size="10.00">Context &gt;</text>
</a>
</g>
</g>
<!-- Node25&#45;&gt;Node24 -->
<g id="edge31" class="edge"><title>Node25&#45;&gt;Node24</title>
<path fill="none" stroke="#9a32cd" stroke-dasharray="5,2" d="M284.951,-130.805C303.043,-131.021 322.21,-131.648 340,-133 356.485,-134.253 374.111,-136.348 390.747,-138.675"/>
<polygon fill="#9a32cd" stroke="#9a32cd" points="284.762,-127.303 274.735,-130.724 284.707,-134.303 284.762,-127.303"/>
<text text-anchor="middle" x="318" y="-136" font-family="Helvetica,sans-Serif" font-size="10.00"> elements</text>
</g>
</g>
</svg>
