<?xml version="1.0" encoding="UTF-8" standalone="no"?>
<!DOCTYPE svg PUBLIC "-//W3C//DTD SVG 1.1//EN"
 "http://www.w3.org/Graphics/SVG/1.1/DTD/svg11.dtd">
<!-- Generated by graphviz version 2.36.0 (20140111.2315)
 -->
<!-- Title: ai::IFactoryRegistry&lt; KEY, TYPE, CTX &gt; Pages: 1 -->
<svg width="235pt" height="130pt"
 viewBox="0.00 0.00 235.00 130.00" xmlns="http://www.w3.org/2000/svg" xmlns:xlink="http://www.w3.org/1999/xlink">
<g id="graph0" class="graph" transform="scale(1 1) rotate(0) translate(4 126)">
<title>ai::IFactoryRegistry&lt; KEY, TYPE, CTX &gt;</title>
<polygon fill="white" stroke="none" points="-4,4 -4,-126 231,-126 231,4 -4,4"/>
<!-- Node1 -->
<g id="node1" class="node"><title>Node1</title>
<polygon fill="#bfbfbf" stroke="black" points="48.5,-1 48.5,-31 161.5,-31 161.5,-1 48.5,-1"/>
<text text-anchor="start" x="56.5" y="-19" font-family="Helvetica,sans-Serif" font-size="10.00">ai::IFactoryRegistry</text>
<text text-anchor="middle" x="105" y="-8" font-family="Helvetica,sans-Serif" font-size="10.00">&lt; KEY, TYPE, CTX &gt;</text>
</g>
<!-- Node2 -->
<g id="node2" class="node"><title>Node2</title>
<g id="a_node2"><a xlink:href="classai_1_1NonCopyable.html" target="_top" xlink:title="ai::NonCopyable">
<polygon fill="white" stroke="black" points="-0.5,-91.5 -0.5,-110.5 88.5,-110.5 88.5,-91.5 -0.5,-91.5"/>
<text text-anchor="middle" x="44" y="-98.5" font-family="Helvetica,sans-Serif" font-size="10.00">ai::NonCopyable</text>
</a>
</g>
</g>
<!-- Node2&#45;&gt;Node1 -->
<g id="edge1" class="edge"><title>Node2&#45;&gt;Node1</title>
<path fill="none" stroke="midnightblue" d="M56.2261,-83.3645C67.4656,-68.0714 83.9495,-45.6425 94.5787,-31.1798"/>
<polygon fill="midnightblue" stroke="midnightblue" points="53.4001,-81.2995 50.2983,-91.4302 59.0407,-85.445 53.4001,-81.2995"/>
</g>
<!-- Node3 -->
<g id="node3" class="node"><title>Node3</title>
<polygon fill="white" stroke="#bfbfbf" points="106.5,-80.5 106.5,-121.5 227.5,-121.5 227.5,-80.5 106.5,-80.5"/>
<text text-anchor="start" x="114.5" y="-109.5" font-family="Helvetica,sans-Serif" font-size="10.00">std::map&lt; const KEY,</text>
<text text-anchor="start" x="114.5" y="-98.5" font-family="Helvetica,sans-Serif" font-size="10.00"> const IFactory&lt; TYPE,</text>
<text text-anchor="middle" x="167" y="-87.5" font-family="Helvetica,sans-Serif" font-size="10.00"> CTX &gt; * &gt;</text>
</g>
<!-- Node3&#45;&gt;Node1 -->
<g id="edge2" class="edge"><title>Node3&#45;&gt;Node1</title>
<path fill="none" stroke="#9a32cd" stroke-dasharray="5,2" d="M146.16,-72.1018C135.864,-58.3177 123.886,-42.2827 115.515,-31.0769"/>
<polygon fill="#9a32cd" stroke="#9a32cd" points="143.518,-74.4132 152.307,-80.3302 149.126,-70.224 143.518,-74.4132"/>
<text text-anchor="middle" x="161" y="-53.5" font-family="Helvetica,sans-Serif" font-size="10.00"> _factories</text>
</g>
</g>
</svg>
