<?xml version="1.0" encoding="UTF-8" standalone="no"?>
<!DOCTYPE svg PUBLIC "-//W3C//DTD SVG 1.1//EN"
 "http://www.w3.org/Graphics/SVG/1.1/DTD/svg11.dtd">
<!-- Generated by graphviz version 2.36.0 (20140111.2315)
 -->
<!-- Title: ai::IParser Pages: 1 -->
<svg width="227pt" height="84pt"
 viewBox="0.00 0.00 227.00 84.00" xmlns="http://www.w3.org/2000/svg" xmlns:xlink="http://www.w3.org/1999/xlink">
<g id="graph0" class="graph" transform="scale(1 1) rotate(0) translate(4 80)">
<title>ai::IParser</title>
<polygon fill="white" stroke="none" points="-4,4 -4,-80 223,-80 223,4 -4,4"/>
<!-- Node1 -->
<g id="node1" class="node"><title>Node1</title>
<polygon fill="#bfbfbf" stroke="black" points="78,-56.5 78,-75.5 140,-75.5 140,-56.5 78,-56.5"/>
<text text-anchor="middle" x="109" y="-63.5" font-family="Helvetica,sans-Serif" font-size="10.00">ai::IParser</text>
</g>
<!-- Node2 -->
<g id="node2" class="node"><title>Node2</title>
<g id="a_node2"><a xlink:href="classai_1_1ConditionParser.html" target="_top" xlink:title="Transforms the string representation of a condition with all its sub conditions and parameters into a...">
<polygon fill="white" stroke="black" points="0,-0.5 0,-19.5 100,-19.5 100,-0.5 0,-0.5"/>
<text text-anchor="middle" x="50" y="-7.5" font-family="Helvetica,sans-Serif" font-size="10.00">ai::ConditionParser</text>
</a>
</g>
</g>
<!-- Node1&#45;&gt;Node2 -->
<g id="edge1" class="edge"><title>Node1&#45;&gt;Node2</title>
<path fill="none" stroke="midnightblue" d="M92.1055,-49.5372C81.5855,-39.9087 68.4313,-27.8694 59.6519,-19.8339"/>
<polygon fill="midnightblue" stroke="midnightblue" points="89.7808,-52.1542 99.5206,-56.324 94.5069,-46.9905 89.7808,-52.1542"/>
</g>
<!-- Node3 -->
<g id="node3" class="node"><title>Node3</title>
<g id="a_node3"><a xlink:href="classai_1_1TreeNodeParser.html" target="_top" xlink:title="Transforms the string representation of a TreeNode with all its parameters into a TreeNode instance...">
<polygon fill="white" stroke="black" points="118.5,-0.5 118.5,-19.5 219.5,-19.5 219.5,-0.5 118.5,-0.5"/>
<text text-anchor="middle" x="169" y="-7.5" font-family="Helvetica,sans-Serif" font-size="10.00">ai::TreeNodeParser</text>
</a>
</g>
</g>
<!-- Node1&#45;&gt;Node3 -->
<g id="edge2" class="edge"><title>Node1&#45;&gt;Node3</title>
<path fill="none" stroke="midnightblue" d="M126.181,-49.5372C136.879,-39.9087 150.256,-27.8694 159.185,-19.8339"/>
<polygon fill="midnightblue" stroke="midnightblue" points="123.732,-47.0327 118.64,-56.324 128.414,-52.2358 123.732,-47.0327"/>
</g>
</g>
</svg>
