<?xml version="1.0" encoding="UTF-8" standalone="no"?>
<!DOCTYPE svg PUBLIC "-//W3C//DTD SVG 1.1//EN"
 "http://www.w3.org/Graphics/SVG/1.1/DTD/svg11.dtd">
<!-- Generated by graphviz version 2.36.0 (20140111.2315)
 -->
<!-- Title: ai::ITreeLoader Pages: 1 -->
<svg width="223pt" height="84pt"
 viewBox="0.00 0.00 223.00 84.00" xmlns="http://www.w3.org/2000/svg" xmlns:xlink="http://www.w3.org/1999/xlink">
<g id="graph0" class="graph" transform="scale(1 1) rotate(0) translate(4 80)">
<title>ai::ITreeLoader</title>
<polygon fill="white" stroke="none" points="-4,4 -4,-80 219,-80 219,4 -4,4"/>
<!-- Node1 -->
<g id="node1" class="node"><title>Node1</title>
<polygon fill="#bfbfbf" stroke="black" points="66,-56.5 66,-75.5 148,-75.5 148,-56.5 66,-56.5"/>
<text text-anchor="middle" x="107" y="-63.5" font-family="Helvetica,sans-Serif" font-size="10.00">ai::ITreeLoader</text>
</g>
<!-- Node2 -->
<g id="node2" class="node"><title>Node2</title>
<g id="a_node2"><a xlink:href="classai_1_1LUATreeLoader.html" target="_top" xlink:title="Implementation of ITreeLoader that gets its data from a lua script. ">
<polygon fill="white" stroke="black" points="0,-0.5 0,-19.5 98,-19.5 98,-0.5 0,-0.5"/>
<text text-anchor="middle" x="49" y="-7.5" font-family="Helvetica,sans-Serif" font-size="10.00">ai::LUATreeLoader</text>
</a>
</g>
</g>
<!-- Node1&#45;&gt;Node2 -->
<g id="edge1" class="edge"><title>Node1&#45;&gt;Node2</title>
<path fill="none" stroke="midnightblue" d="M90.0869,-49.2533C79.797,-39.6731 67.0343,-27.7906 58.4883,-19.8339"/>
<polygon fill="midnightblue" stroke="midnightblue" points="87.9774,-52.0714 97.6813,-56.324 92.7473,-46.9481 87.9774,-52.0714"/>
</g>
<!-- Node3 -->
<g id="node3" class="node"><title>Node3</title>
<g id="a_node3"><a xlink:href="classai_1_1XMLTreeLoader.html" target="_top" xlink:title="Implementation of ITreeLoader that gets its data from a xml file. ">
<polygon fill="white" stroke="black" points="116.5,-0.5 116.5,-19.5 215.5,-19.5 215.5,-0.5 116.5,-0.5"/>
<text text-anchor="middle" x="166" y="-7.5" font-family="Helvetica,sans-Serif" font-size="10.00">ai::XMLTreeLoader</text>
</a>
</g>
</g>
<!-- Node1&#45;&gt;Node3 -->
<g id="edge2" class="edge"><title>Node1&#45;&gt;Node3</title>
<path fill="none" stroke="midnightblue" d="M123.895,-49.5372C134.415,-39.9087 147.569,-27.8694 156.348,-19.8339"/>
<polygon fill="midnightblue" stroke="midnightblue" points="121.493,-46.9905 116.479,-56.324 126.219,-52.1542 121.493,-46.9905"/>
</g>
</g>
</svg>
