<?xml version="1.0" encoding="UTF-8" standalone="no"?>
<!DOCTYPE svg PUBLIC "-//W3C//DTD SVG 1.1//EN"
 "http://www.w3.org/Graphics/SVG/1.1/DTD/svg11.dtd">
<!-- Generated by graphviz version 2.36.0 (20140111.2315)
 -->
<!-- Title: ai::ICharacter Pages: 1 -->
<svg width="241pt" height="96pt"
 viewBox="0.00 0.00 241.00 96.00" xmlns="http://www.w3.org/2000/svg" xmlns:xlink="http://www.w3.org/1999/xlink">
<g id="graph0" class="graph" transform="scale(1 1) rotate(0) translate(4 92)">
<title>ai::ICharacter</title>
<polygon fill="white" stroke="none" points="-4,4 -4,-92 237,-92 237,4 -4,4"/>
<!-- Node1 -->
<g id="node1" class="node"><title>Node1</title>
<polygon fill="#bfbfbf" stroke="black" points="69,-0.5 69,-19.5 145,-19.5 145,-0.5 69,-0.5"/>
<text text-anchor="middle" x="107" y="-7.5" font-family="Helvetica,sans-Serif" font-size="10.00">ai::ICharacter</text>
</g>
<!-- Node2 -->
<g id="node2" class="node"><title>Node2</title>
<g id="a_node2"><a xlink:href="classai_1_1NonCopyable.html" target="_top" xlink:title="ai::NonCopyable">
<polygon fill="white" stroke="black" points="-0.5,-62.5 -0.5,-81.5 88.5,-81.5 88.5,-62.5 -0.5,-62.5"/>
<text text-anchor="middle" x="44" y="-69.5" font-family="Helvetica,sans-Serif" font-size="10.00">ai::NonCopyable</text>
</a>
</g>
</g>
<!-- Node2&#45;&gt;Node1 -->
<g id="edge1" class="edge"><title>Node2&#45;&gt;Node1</title>
<path fill="none" stroke="midnightblue" d="M60.5976,-55.1928C72.5669,-43.7935 88.2665,-28.8414 97.9904,-19.5806"/>
<polygon fill="midnightblue" stroke="midnightblue" points="57.854,-52.9724 53.0264,-62.4035 62.6816,-58.0414 57.854,-52.9724"/>
</g>
<!-- Node3 -->
<g id="node3" class="node"><title>Node3</title>
<polygon fill="white" stroke="#bfbfbf" points="107,-57 107,-87 233,-87 233,-57 107,-57"/>
<text text-anchor="start" x="115" y="-75" font-family="Helvetica,sans-Serif" font-size="10.00">std::enable_shared</text>
<text text-anchor="middle" x="170" y="-64" font-family="Helvetica,sans-Serif" font-size="10.00">_from_this&lt; ICharacter &gt;</text>
</g>
<!-- Node3&#45;&gt;Node1 -->
<g id="edge2" class="edge"><title>Node3&#45;&gt;Node1</title>
<path fill="none" stroke="midnightblue" d="M147.553,-49.622C136.74,-39.3242 124.372,-27.5451 116.167,-19.7305"/>
<polygon fill="midnightblue" stroke="midnightblue" points="145.415,-52.4187 155.07,-56.7808 150.242,-47.3498 145.415,-52.4187"/>
</g>
</g>
</svg>
