<?xml version="1.0" encoding="UTF-8" standalone="no"?>
<!DOCTYPE svg PUBLIC "-//W3C//DTD SVG 1.1//EN"
 "http://www.w3.org/Graphics/SVG/1.1/DTD/svg11.dtd">
<!-- Generated by graphviz version 2.36.0 (20140111.2315)
 -->
<!-- Title: ai::AI Pages: 1 -->
<svg width="600pt" height="301pt"
 viewBox="0.00 0.00 600.00 301.00" xmlns="http://www.w3.org/2000/svg" xmlns:xlink="http://www.w3.org/1999/xlink">
<g id="graph0" class="graph" transform="scale(1 1) rotate(0) translate(4 297)">
<title>ai::AI</title>
<polygon fill="white" stroke="none" points="-4,4 -4,-297 596,-297 596,4 -4,4"/>
<!-- Node1 -->
<g id="node1" class="node"><title>Node1</title>
<polygon fill="#bfbfbf" stroke="black" points="552,-131.5 552,-150.5 592,-150.5 592,-131.5 552,-131.5"/>
<text text-anchor="middle" x="572" y="-138.5" font-family="Helvetica,sans-Serif" font-size="10.00">ai::AI</text>
</g>
<!-- Node2 -->
<g id="node2" class="node"><title>Node2</title>
<g id="a_node2"><a xlink:href="classai_1_1NonCopyable.html" target="_top" xlink:title="ai::NonCopyable">
<polygon fill="white" stroke="black" points="333.5,-273.5 333.5,-292.5 422.5,-292.5 422.5,-273.5 333.5,-273.5"/>
<text text-anchor="middle" x="378" y="-280.5" font-family="Helvetica,sans-Serif" font-size="10.00">ai::NonCopyable</text>
</a>
</g>
</g>
<!-- Node2&#45;&gt;Node1 -->
<g id="edge1" class="edge"><title>Node2&#45;&gt;Node1</title>
<path fill="none" stroke="midnightblue" d="M432.619,-272.857C465.604,-264.13 506.652,-248.441 534,-221 554.308,-200.623 564.743,-167.03 568.854,-150.622"/>
<polygon fill="midnightblue" stroke="midnightblue" points="431.517,-269.524 422.665,-275.347 433.216,-276.315 431.517,-269.524"/>
</g>
<!-- Node3 -->
<g id="node3" class="node"><title>Node3</title>
<polygon fill="white" stroke="#bfbfbf" points="328.5,-224 328.5,-254 427.5,-254 427.5,-224 328.5,-224"/>
<text text-anchor="start" x="336.5" y="-242" font-family="Helvetica,sans-Serif" font-size="10.00">std::enable_shared</text>
<text text-anchor="middle" x="378" y="-231" font-family="Helvetica,sans-Serif" font-size="10.00">_from_this&lt; AI &gt;</text>
</g>
<!-- Node3&#45;&gt;Node1 -->
<g id="edge2" class="edge"><title>Node3&#45;&gt;Node1</title>
<path fill="none" stroke="midnightblue" d="M437.682,-229.379C468.439,-222.231 505.526,-210.119 534,-190 548.626,-179.666 559.99,-161.793 566.074,-150.726"/>
<polygon fill="midnightblue" stroke="midnightblue" points="436.529,-226.048 427.516,-231.617 438.034,-232.885 436.529,-226.048"/>
</g>
<!-- Node4 -->
<g id="node4" class="node"><title>Node4</title>
<polygon fill="white" stroke="#bfbfbf" points="326.5,-175 326.5,-205 429.5,-205 429.5,-175 326.5,-175"/>
<text text-anchor="start" x="334.5" y="-193" font-family="Helvetica,sans-Serif" font-size="10.00">std::unordered_map</text>
<text text-anchor="middle" x="378" y="-182" font-family="Helvetica,sans-Serif" font-size="10.00">&lt; int, uint64_t &gt;</text>
</g>
<!-- Node4&#45;&gt;Node1 -->
<g id="edge3" class="edge"><title>Node4&#45;&gt;Node1</title>
<path fill="none" stroke="#9a32cd" stroke-dasharray="5,2" d="M439.764,-179.148C468.615,-173.368 503.399,-165.484 534,-156 539.826,-154.194 546.019,-151.857 551.638,-149.568"/>
<polygon fill="#9a32cd" stroke="#9a32cd" points="438.959,-175.739 429.823,-181.104 440.31,-182.607 438.959,-175.739"/>
<text text-anchor="middle" x="498" y="-178" font-family="Helvetica,sans-Serif" font-size="10.00"> _lastExecMillis</text>
</g>
<!-- Node5 -->
<g id="node5" class="node"><title>Node5</title>
<polygon fill="white" stroke="#bfbfbf" points="317,-126 317,-156 439,-156 439,-126 317,-126"/>
<text text-anchor="start" x="325" y="-144" font-family="Helvetica,sans-Serif" font-size="10.00">std::unordered_map</text>
<text text-anchor="middle" x="378" y="-133" font-family="Helvetica,sans-Serif" font-size="10.00">&lt; int, TreeNodeStatus &gt;</text>
</g>
<!-- Node5&#45;&gt;Node1 -->
<g id="edge4" class="edge"><title>Node5&#45;&gt;Node1</title>
<path fill="none" stroke="#9a32cd" stroke-dasharray="5,2" d="M449.385,-141C485.984,-141 527.944,-141 551.778,-141"/>
<polygon fill="#9a32cd" stroke="#9a32cd" points="449.223,-137.5 439.223,-141 449.223,-144.5 449.223,-137.5"/>
<text text-anchor="middle" x="498" y="-144" font-family="Helvetica,sans-Serif" font-size="10.00"> _lastStatus</text>
</g>
<!-- Node6 -->
<g id="node6" class="node"><title>Node6</title>
<polygon fill="white" stroke="#bfbfbf" points="326.5,-77 326.5,-107 429.5,-107 429.5,-77 326.5,-77"/>
<text text-anchor="start" x="334.5" y="-95" font-family="Helvetica,sans-Serif" font-size="10.00">std::unordered_map</text>
<text text-anchor="middle" x="378" y="-84" font-family="Helvetica,sans-Serif" font-size="10.00">&lt; int, int &gt;</text>
</g>
<!-- Node6&#45;&gt;Node1 -->
<g id="edge5" class="edge"><title>Node6&#45;&gt;Node1</title>
<path fill="none" stroke="#9a32cd" stroke-dasharray="5,2" d="M439.85,-94.4933C469.148,-97.315 504.281,-103.133 534,-115 543.624,-118.843 553.161,-125.636 560.141,-131.314"/>
<polygon fill="#9a32cd" stroke="#9a32cd" points="440.015,-90.9944 429.749,-93.6151 439.408,-97.9681 440.015,-90.9944"/>
<text text-anchor="middle" x="498" y="-129" font-family="Helvetica,sans-Serif" font-size="10.00"> _selectorStates</text>
<text text-anchor="middle" x="498" y="-118" font-family="Helvetica,sans-Serif" font-size="10.00">_limitStates</text>
</g>
<!-- Node7 -->
<g id="node7" class="node"><title>Node7</title>
<polygon fill="white" stroke="#bfbfbf" points="312,-38.5 312,-57.5 444,-57.5 444,-38.5 312,-38.5"/>
<text text-anchor="middle" x="378" y="-45.5" font-family="Helvetica,sans-Serif" font-size="10.00">std::vector&lt; CharacterId &gt;</text>
</g>
<!-- Node7&#45;&gt;Node1 -->
<g id="edge6" class="edge"><title>Node7&#45;&gt;Node1</title>
<path fill="none" stroke="#9a32cd" stroke-dasharray="5,2" d="M454.465,-53.1371C481.454,-57.9076 510.883,-66.7561 534,-83 551.2,-95.0857 562.238,-117.968 567.457,-131.089"/>
<polygon fill="#9a32cd" stroke="#9a32cd" points="454.686,-49.628 444.258,-51.5015 453.578,-56.5398 454.686,-49.628"/>
<text text-anchor="middle" x="498" y="-86" font-family="Helvetica,sans-Serif" font-size="10.00"> _filteredEntities</text>
</g>
<!-- Node8 -->
<g id="node8" class="node"><title>Node8</title>
<g id="a_node8"><a xlink:href="classai_1_1AggroMgr.html" target="_top" xlink:title="Manages the aggro values for one AI instance. There are several ways to degrade the aggro values...">
<polygon fill="white" stroke="black" points="342,-0.5 342,-19.5 414,-19.5 414,-0.5 342,-0.5"/>
<text text-anchor="middle" x="378" y="-7.5" font-family="Helvetica,sans-Serif" font-size="10.00">ai::AggroMgr</text>
</a>
</g>
</g>
<!-- Node8&#45;&gt;Node1 -->
<g id="edge7" class="edge"><title>Node8&#45;&gt;Node1</title>
<path fill="none" stroke="#9a32cd" stroke-dasharray="5,2" d="M424.404,-7.50134C458.319,-8.06925 503.836,-14.3131 534,-40 562.151,-63.9728 568.889,-111.281 570.498,-131.488"/>
<polygon fill="#9a32cd" stroke="#9a32cd" points="424.284,-4.00133 414.281,-7.49207 424.278,-11.0013 424.284,-4.00133"/>
<text text-anchor="middle" x="498" y="-43" font-family="Helvetica,sans-Serif" font-size="10.00"> _aggroMgr</text>
</g>
<!-- Node9 -->
<g id="node9" class="node"><title>Node9</title>
<polygon fill="white" stroke="#bfbfbf" points="134,-0.5 134,-19.5 238,-19.5 238,-0.5 134,-0.5"/>
<text text-anchor="middle" x="186" y="-7.5" font-family="Helvetica,sans-Serif" font-size="10.00">std::vector&lt; Entry &gt;</text>
</g>
<!-- Node9&#45;&gt;Node8 -->
<g id="edge8" class="edge"><title>Node9&#45;&gt;Node8</title>
<path fill="none" stroke="#9a32cd" stroke-dasharray="5,2" d="M248.434,-10C279.395,-10 315.815,-10 341.972,-10"/>
<polygon fill="#9a32cd" stroke="#9a32cd" points="248.166,-6.5001 238.166,-10 248.166,-13.5001 248.166,-6.5001"/>
<text text-anchor="middle" x="275" y="-13" font-family="Helvetica,sans-Serif" font-size="10.00"> _entries</text>
</g>
<!-- Node10 -->
<g id="node10" class="node"><title>Node10</title>
<g id="a_node10"><a xlink:href="classai_1_1Entry.html" target="_top" xlink:title="One entry for the AggroMgr. ">
<polygon fill="white" stroke="black" points="0.5,-0.5 0.5,-19.5 53.5,-19.5 53.5,-0.5 0.5,-0.5"/>
<text text-anchor="middle" x="27" y="-7.5" font-family="Helvetica,sans-Serif" font-size="10.00">ai::Entry</text>
</a>
</g>
</g>
<!-- Node10&#45;&gt;Node9 -->
<g id="edge9" class="edge"><title>Node10&#45;&gt;Node9</title>
<path fill="none" stroke="#9a32cd" stroke-dasharray="5,2" d="M63.8238,-10C84.5069,-10 110.869,-10 133.719,-10"/>
<polygon fill="#9a32cd" stroke="#9a32cd" points="63.5742,-6.5001 53.5742,-10 63.5742,-13.5001 63.5742,-6.5001"/>
<text text-anchor="middle" x="94" y="-13" font-family="Helvetica,sans-Serif" font-size="10.00"> elements</text>
</g>
</g>
</svg>
