<?xml version="1.0" encoding="UTF-8" standalone="no"?>
<!DOCTYPE svg PUBLIC "-//W3C//DTD SVG 1.1//EN"
 "http://www.w3.org/Graphics/SVG/1.1/DTD/svg11.dtd">
<!-- Generated by graphviz version 2.36.0 (20140111.2315)
 -->
<!-- Title: ai::_MemObject&lt; AllocatorClass &gt; Pages: 1 -->
<!--zoomable 1016 -->
<svg id="main" version="1.1" xmlns="http://www.w3.org/2000/svg" xmlns:xlink="http://www.w3.org/1999/xlink" xml:space="preserve" onload="init(evt)">
<style type="text/css"><![CDATA[
.edge:hover path { stroke: red; }
.edge:hover polygon { stroke: red; fill: red; }
]]></style>
<script type="text/javascript"><![CDATA[
var edges = document.getElementsByTagName('g');
if (edges && edges.length) {
  for (var i=0;i<edges.length;i++) {
    if (edges[i].id.substr(0,4)=='edge') {
      edges[i].setAttribute('class','edge');
    }
  }
}
]]></script>
        <defs>
                <circle id="rim" cx="0" cy="0" r="7"/>
                <circle id="rim2" cx="0" cy="0" r="3.5"/>
                <g id="zoomPlus">
                        <use xlink:href="#rim" fill="#404040">
                                <set attributeName="fill" to="#808080" begin="zoomplus.mouseover" end="zoomplus.mouseout"/>
                        </use>
                        <path d="M-4,0h8M0,-4v8" fill="none" stroke="white" stroke-width="1.5" pointer-events="none"/>
                </g>
                <g id="zoomMin">
                        <use xlink:href="#rim" fill="#404040">
                                <set attributeName="fill" to="#808080" begin="zoomminus.mouseover" end="zoomminus.mouseout"/>
                        </use>
                        <path d="M-4,0h8" fill="none" stroke="white" stroke-width="1.5" pointer-events="none"/>
                </g>
                <g id="dirArrow">
                        <path fill="none" stroke="white" stroke-width="1.5" d="M0,-3.0v7 M-2.5,-0.5L0,-3.0L2.5,-0.5"/>
                </g>
               <g id="resetDef">
                       <use xlink:href="#rim2" fill="#404040">
                               <set attributeName="fill" to="#808080" begin="reset.mouseover" end="reset.mouseout"/>
                       </use>
               </g>
        </defs>

<script type="text/javascript">
var viewWidth = 712;
var viewHeight = 1016;
var sectionId = 'dynsection-0';
</script>
<script xlink:href="svgpan.js"/>
<svg id="graph" class="graph">
<g id="viewport">
<title>ai::_MemObject&lt; AllocatorClass &gt;</title>
<polygon fill="white" stroke="none" points="-4,4 -4,-1012 708,-1012 708,4 -4,4"/>
<!-- Node1 -->
<g id="node1" class="node"><title>Node1</title>
<polygon fill="#bfbfbf" stroke="black" points="0.5,-451 0.5,-481 133.5,-481 133.5,-451 0.5,-451"/>
<text text-anchor="start" x="8.5" y="-469" font-family="Helvetica,sans-Serif" font-size="10.00">ai::_MemObject&lt; Allocator</text>
<text text-anchor="middle" x="67" y="-458" font-family="Helvetica,sans-Serif" font-size="10.00">Class &gt;</text>
</g>
<!-- Node2 -->
<g id="node2" class="node"><title>Node2</title>
<g id="a_node2"><a xlink:href="classai_1_1ICondition.html" target="_top" xlink:title="A condition can be placed on a TreeNode to decide which node is going to get executed. In general they are stateless. If they are not, it should explicitly get noted. ">
<polygon fill="white" stroke="black" points="184.5,-774 184.5,-804 313.5,-804 313.5,-774 184.5,-774"/>
<text text-anchor="start" x="192.5" y="-792" font-family="Helvetica,sans-Serif" font-size="10.00">ai::ICondition&lt; AI</text>
<text text-anchor="middle" x="249" y="-781" font-family="Helvetica,sans-Serif" font-size="10.00">_ALLOCATOR_CLASS &gt;</text>
</a>
</g>
</g>
<!-- Node1&#45;&gt;Node2 -->
<g id="edge1" class="edge"><title>Node1&#45;&gt;Node2</title>
<path fill="none" stroke="midnightblue" d="M81.3707,-489.993C116.531,-553.087 210.847,-722.331 239.578,-773.887"/>
<polygon fill="midnightblue" stroke="midnightblue" points="84.3656,-488.177 76.4403,-481.146 78.251,-491.585 84.3656,-488.177"/>
</g>
<!-- Node14 -->
<g id="node14" class="node"><title>Node14</title>
<g id="a_node14"><a xlink:href="classai_1_1movement_1_1ISteering.html" target="_top" xlink:title="Steering interface. ">
<polygon fill="white" stroke="black" points="175,-451 175,-481 323,-481 323,-451 175,-451"/>
<text text-anchor="start" x="183" y="-469" font-family="Helvetica,sans-Serif" font-size="10.00">ai::movement::ISteering</text>
<text text-anchor="middle" x="249" y="-458" font-family="Helvetica,sans-Serif" font-size="10.00">&lt; AI_ALLOCATOR_CLASS &gt;</text>
</a>
</g>
</g>
<!-- Node1&#45;&gt;Node14 -->
<g id="edge13" class="edge"><title>Node1&#45;&gt;Node14</title>
<path fill="none" stroke="midnightblue" d="M143.89,-466C154.136,-466 164.631,-466 174.828,-466"/>
<polygon fill="midnightblue" stroke="midnightblue" points="143.748,-462.5 133.748,-466 143.748,-469.5 143.748,-462.5"/>
</g>
<!-- Node24 -->
<g id="node24" class="node"><title>Node24</title>
<g id="a_node24"><a xlink:href="classai_1_1TreeNode.html" target="_top" xlink:title="The base class for all behaviour tree actions. ">
<polygon fill="white" stroke="black" points="170.5,-185 170.5,-215 327.5,-215 327.5,-185 170.5,-185"/>
<text text-anchor="start" x="178.5" y="-203" font-family="Helvetica,sans-Serif" font-size="10.00">ai::TreeNode&lt; AI_ALLOCATOR</text>
<text text-anchor="middle" x="249" y="-192" font-family="Helvetica,sans-Serif" font-size="10.00">_CLASS &gt;</text>
</a>
</g>
</g>
<!-- Node1&#45;&gt;Node24 -->
<g id="edge23" class="edge"><title>Node1&#45;&gt;Node24</title>
<path fill="none" stroke="midnightblue" d="M83.9368,-442.449C120.123,-388.973 207.674,-259.593 237.695,-215.228"/>
<polygon fill="midnightblue" stroke="midnightblue" points="80.899,-440.693 78.1933,-450.937 86.6964,-444.616 80.899,-440.693"/>
</g>
<!-- Node3 -->
<g id="node3" class="node"><title>Node3</title>
<g id="a_node3"><a xlink:href="classai_1_1And.html" target="_top" xlink:title="This condition will logically and all contained conditions. ">
<polygon fill="white" stroke="black" points="419.5,-988.5 419.5,-1007.5 466.5,-1007.5 466.5,-988.5 419.5,-988.5"/>
<text text-anchor="middle" x="443" y="-995.5" font-family="Helvetica,sans-Serif" font-size="10.00">ai::And</text>
</a>
</g>
</g>
<!-- Node2&#45;&gt;Node3 -->
<g id="edge2" class="edge"><title>Node2&#45;&gt;Node3</title>
<path fill="none" stroke="midnightblue" d="M257.814,-813.841C272.038,-854.851 306.152,-936.408 364,-979 380.05,-990.817 402.507,-995.361 419.205,-997.07"/>
<polygon fill="midnightblue" stroke="midnightblue" points="261.048,-812.474 254.55,-804.106 254.411,-814.7 261.048,-812.474"/>
</g>
<!-- Node4 -->
<g id="node4" class="node"><title>Node4</title>
<g id="a_node4"><a xlink:href="classai_1_1False.html" target="_top" xlink:title="This condition just always evaluates to false. ">
<polygon fill="white" stroke="black" points="416,-950.5 416,-969.5 470,-969.5 470,-950.5 416,-950.5"/>
<text text-anchor="middle" x="443" y="-957.5" font-family="Helvetica,sans-Serif" font-size="10.00">ai::False</text>
</a>
</g>
</g>
<!-- Node2&#45;&gt;Node4 -->
<g id="edge3" class="edge"><title>Node2&#45;&gt;Node4</title>
<path fill="none" stroke="midnightblue" d="M261.536,-813.506C278.861,-847.546 314.88,-908.599 364,-941 379.357,-951.13 399.615,-955.865 415.637,-958.075"/>
<polygon fill="midnightblue" stroke="midnightblue" points="264.534,-811.674 256.957,-804.268 258.263,-814.782 264.534,-811.674"/>
</g>
<!-- Node5 -->
<g id="node5" class="node"><title>Node5</title>
<g id="a_node5"><a xlink:href="classai_1_1Filter.html" target="_top" xlink:title="The filter condition executes some selection filters (IFilter) and evaluates to true if the resulting...">
<polygon fill="white" stroke="black" points="417,-912.5 417,-931.5 469,-931.5 469,-912.5 417,-912.5"/>
<text text-anchor="middle" x="443" y="-919.5" font-family="Helvetica,sans-Serif" font-size="10.00">ai::Filter</text>
</a>
</g>
</g>
<!-- Node2&#45;&gt;Node5 -->
<g id="edge4" class="edge"><title>Node2&#45;&gt;Node5</title>
<path fill="none" stroke="midnightblue" d="M266.942,-812.398C287.109,-838.505 323.228,-880.078 364,-903 380.28,-912.153 400.888,-916.929 416.832,-919.404"/>
<polygon fill="midnightblue" stroke="midnightblue" points="269.555,-810.05 260.73,-804.187 263.972,-814.273 269.555,-810.05"/>
</g>
<!-- Node6 -->
<g id="node6" class="node"><title>Node6</title>
<g id="a_node6"><a xlink:href="classai_1_1HasEnemies.html" target="_top" xlink:title="This condition checks whether there are enemies. ">
<polygon fill="white" stroke="black" points="400,-874.5 400,-893.5 486,-893.5 486,-874.5 400,-874.5"/>
<text text-anchor="middle" x="443" y="-881.5" font-family="Helvetica,sans-Serif" font-size="10.00">ai::HasEnemies</text>
</a>
</g>
</g>
<!-- Node2&#45;&gt;Node6 -->
<g id="edge5" class="edge"><title>Node2&#45;&gt;Node6</title>
<path fill="none" stroke="midnightblue" d="M276.103,-810.28C298.265,-827.36 331.551,-850.763 364,-865 375.232,-869.928 387.958,-873.713 399.825,-876.559"/>
<polygon fill="midnightblue" stroke="midnightblue" points="278.21,-807.485 268.179,-804.076 273.895,-812.996 278.21,-807.485"/>
</g>
<!-- Node7 -->
<g id="node7" class="node"><title>Node7</title>
<g id="a_node7"><a xlink:href="classai_1_1IsCloseToGroup.html" target="_top" xlink:title="Checks whether the controlled AI is close to a particular group. ">
<polygon fill="white" stroke="black" points="392.5,-836.5 392.5,-855.5 493.5,-855.5 493.5,-836.5 392.5,-836.5"/>
<text text-anchor="middle" x="443" y="-843.5" font-family="Helvetica,sans-Serif" font-size="10.00">ai::IsCloseToGroup</text>
</a>
</g>
</g>
<!-- Node2&#45;&gt;Node7 -->
<g id="edge6" class="edge"><title>Node2&#45;&gt;Node7</title>
<path fill="none" stroke="midnightblue" d="M301.798,-807.273C321.2,-813.851 343.505,-821.099 364,-827 375.652,-830.355 388.393,-833.624 400.137,-836.478"/>
<polygon fill="midnightblue" stroke="midnightblue" points="302.831,-803.927 292.236,-804.006 300.567,-810.552 302.831,-803.927"/>
</g>
<!-- Node8 -->
<g id="node8" class="node"><title>Node8</title>
<g id="a_node8"><a xlink:href="classai_1_1IsGroupLeader.html" target="_top" xlink:title="Evaluates to true if you are the first member in a particular group. ">
<polygon fill="white" stroke="black" points="396,-798.5 396,-817.5 490,-817.5 490,-798.5 396,-798.5"/>
<text text-anchor="middle" x="443" y="-805.5" font-family="Helvetica,sans-Serif" font-size="10.00">ai::IsGroupLeader</text>
</a>
</g>
</g>
<!-- Node2&#45;&gt;Node8 -->
<g id="edge7" class="edge"><title>Node2&#45;&gt;Node8</title>
<path fill="none" stroke="midnightblue" d="M323.896,-796.313C348.094,-798.707 374.273,-801.298 395.819,-803.43"/>
<polygon fill="midnightblue" stroke="midnightblue" points="323.963,-792.802 313.667,-795.3 323.273,-799.768 323.963,-792.802"/>
</g>
<!-- Node9 -->
<g id="node9" class="node"><title>Node9</title>
<g id="a_node9"><a xlink:href="classai_1_1IsInGroup.html" target="_top" xlink:title="Checks whether the AI is in any or in a particular group. ">
<polygon fill="white" stroke="black" points="406.5,-760.5 406.5,-779.5 479.5,-779.5 479.5,-760.5 406.5,-760.5"/>
<text text-anchor="middle" x="443" y="-767.5" font-family="Helvetica,sans-Serif" font-size="10.00">ai::IsInGroup</text>
</a>
</g>
</g>
<!-- Node2&#45;&gt;Node9 -->
<g id="edge8" class="edge"><title>Node2&#45;&gt;Node9</title>
<path fill="none" stroke="midnightblue" d="M323.965,-781.681C352.303,-778.876 383.35,-775.804 406.487,-773.514"/>
<polygon fill="midnightblue" stroke="midnightblue" points="323.273,-778.232 313.667,-782.7 323.963,-785.198 323.273,-778.232"/>
</g>
<!-- Node10 -->
<g id="node10" class="node"><title>Node10</title>
<g id="a_node10"><a xlink:href="classai_1_1LUACondition.html" target="_top" xlink:title="ai::LUACondition">
<polygon fill="white" stroke="black" points="397.5,-722.5 397.5,-741.5 488.5,-741.5 488.5,-722.5 397.5,-722.5"/>
<text text-anchor="middle" x="443" y="-729.5" font-family="Helvetica,sans-Serif" font-size="10.00">ai::LUACondition</text>
</a>
</g>
</g>
<!-- Node2&#45;&gt;Node10 -->
<g id="edge9" class="edge"><title>Node2&#45;&gt;Node10</title>
<path fill="none" stroke="midnightblue" d="M301.798,-770.727C321.2,-764.149 343.505,-756.901 364,-751 375.652,-747.645 388.393,-744.376 400.137,-741.522"/>
<polygon fill="midnightblue" stroke="midnightblue" points="300.567,-767.448 292.236,-773.994 302.831,-774.073 300.567,-767.448"/>
</g>
<!-- Node11 -->
<g id="node11" class="node"><title>Node11</title>
<g id="a_node11"><a xlink:href="classai_1_1Not.html" target="_top" xlink:title="This condition will just swap the result of the contained condition. ">
<polygon fill="white" stroke="black" points="420,-684.5 420,-703.5 466,-703.5 466,-684.5 420,-684.5"/>
<text text-anchor="middle" x="443" y="-691.5" font-family="Helvetica,sans-Serif" font-size="10.00">ai::Not</text>
</a>
</g>
</g>
<!-- Node2&#45;&gt;Node11 -->
<g id="edge10" class="edge"><title>Node2&#45;&gt;Node11</title>
<path fill="none" stroke="midnightblue" d="M276.103,-767.72C298.265,-750.64 331.551,-727.237 364,-713 381.996,-705.104 403.83,-700.142 419.816,-697.278"/>
<polygon fill="midnightblue" stroke="midnightblue" points="273.895,-765.004 268.179,-773.924 278.21,-770.515 273.895,-765.004"/>
</g>
<!-- Node12 -->
<g id="node12" class="node"><title>Node12</title>
<g id="a_node12"><a xlink:href="classai_1_1Or.html" target="_top" xlink:title="This condition will logically or all contained conditions. ">
<polygon fill="white" stroke="black" points="422.5,-646.5 422.5,-665.5 463.5,-665.5 463.5,-646.5 422.5,-646.5"/>
<text text-anchor="middle" x="443" y="-653.5" font-family="Helvetica,sans-Serif" font-size="10.00">ai::Or</text>
</a>
</g>
</g>
<!-- Node2&#45;&gt;Node12 -->
<g id="edge11" class="edge"><title>Node2&#45;&gt;Node12</title>
<path fill="none" stroke="midnightblue" d="M266.942,-765.602C287.109,-739.495 323.228,-697.922 364,-675 382.224,-664.754 405.871,-659.992 422.329,-657.805"/>
<polygon fill="midnightblue" stroke="midnightblue" points="263.972,-763.727 260.73,-773.813 269.555,-767.95 263.972,-763.727"/>
</g>
<!-- Node13 -->
<g id="node13" class="node"><title>Node13</title>
<g id="a_node13"><a xlink:href="classai_1_1True.html" target="_top" xlink:title="This condition just always evaluates to true. ">
<polygon fill="white" stroke="black" points="418,-608.5 418,-627.5 468,-627.5 468,-608.5 418,-608.5"/>
<text text-anchor="middle" x="443" y="-615.5" font-family="Helvetica,sans-Serif" font-size="10.00">ai::True</text>
</a>
</g>
</g>
<!-- Node2&#45;&gt;Node13 -->
<g id="edge12" class="edge"><title>Node2&#45;&gt;Node13</title>
<path fill="none" stroke="midnightblue" d="M261.536,-764.494C278.861,-730.454 314.88,-669.401 364,-637 380.056,-626.409 401.467,-621.715 417.795,-619.639"/>
<polygon fill="midnightblue" stroke="midnightblue" points="258.263,-763.218 256.957,-773.732 264.534,-766.326 258.263,-763.218"/>
</g>
<!-- Node15 -->
<g id="node15" class="node"><title>Node15</title>
<g id="a_node15"><a xlink:href="classai_1_1movement_1_1GroupFlee.html" target="_top" xlink:title="Flees from a particular group. ">
<polygon fill="white" stroke="black" points="379.5,-570.5 379.5,-589.5 506.5,-589.5 506.5,-570.5 379.5,-570.5"/>
<text text-anchor="middle" x="443" y="-577.5" font-family="Helvetica,sans-Serif" font-size="10.00">ai::movement::GroupFlee</text>
</a>
</g>
</g>
<!-- Node14&#45;&gt;Node15 -->
<g id="edge14" class="edge"><title>Node14&#45;&gt;Node15</title>
<path fill="none" stroke="midnightblue" d="M270.851,-488.548C292.203,-510.29 327.368,-542.538 364,-561 371.592,-564.826 379.995,-567.908 388.391,-570.383"/>
<polygon fill="midnightblue" stroke="midnightblue" points="273.356,-486.104 263.895,-481.336 268.318,-490.963 273.356,-486.104"/>
</g>
<!-- Node16 -->
<g id="node16" class="node"><title>Node16</title>
<g id="a_node16"><a xlink:href="classai_1_1movement_1_1GroupSeek.html" target="_top" xlink:title="Seeks a particular group. ">
<polygon fill="white" stroke="black" points="377.5,-532.5 377.5,-551.5 508.5,-551.5 508.5,-532.5 377.5,-532.5"/>
<text text-anchor="middle" x="443" y="-539.5" font-family="Helvetica,sans-Serif" font-size="10.00">ai::movement::GroupSeek</text>
</a>
</g>
</g>
<!-- Node14&#45;&gt;Node16 -->
<g id="edge15" class="edge"><title>Node14&#45;&gt;Node16</title>
<path fill="none" stroke="midnightblue" d="M284.963,-486.056C307.067,-498.08 336.549,-512.939 364,-523 373.946,-526.645 384.861,-529.8 395.293,-532.436"/>
<polygon fill="midnightblue" stroke="midnightblue" points="286.416,-482.86 275.969,-481.098 283.037,-488.991 286.416,-482.86"/>
</g>
<!-- Node17 -->
<g id="node17" class="node"><title>Node17</title>
<g id="a_node17"><a xlink:href="classai_1_1movement_1_1LUASteering.html" target="_top" xlink:title="ai::movement::LUASteering">
<polygon fill="white" stroke="black" points="374.5,-494.5 374.5,-513.5 511.5,-513.5 511.5,-494.5 374.5,-494.5"/>
<text text-anchor="middle" x="443" y="-501.5" font-family="Helvetica,sans-Serif" font-size="10.00">ai::movement::LUASteering</text>
</a>
</g>
</g>
<!-- Node14&#45;&gt;Node17 -->
<g id="edge16" class="edge"><title>Node14&#45;&gt;Node17</title>
<path fill="none" stroke="midnightblue" d="M333.204,-482.467C353.882,-486.56 375.367,-490.812 393.727,-494.446"/>
<polygon fill="midnightblue" stroke="midnightblue" points="333.624,-478.983 323.135,-480.475 332.265,-485.85 333.624,-478.983"/>
</g>
<!-- Node18 -->
<g id="node18" class="node"><title>Node18</title>
<g id="a_node18"><a xlink:href="classai_1_1movement_1_1SelectionSteering.html" target="_top" xlink:title="IFilter steering interface ">
<polygon fill="white" stroke="black" points="364,-456.5 364,-475.5 522,-475.5 522,-456.5 364,-456.5"/>
<text text-anchor="middle" x="443" y="-463.5" font-family="Helvetica,sans-Serif" font-size="10.00">ai::movement::SelectionSteering</text>
</a>
</g>
</g>
<!-- Node14&#45;&gt;Node18 -->
<g id="edge17" class="edge"><title>Node14&#45;&gt;Node18</title>
<path fill="none" stroke="midnightblue" d="M333.249,-466C343.447,-466 353.839,-466 363.956,-466"/>
<polygon fill="midnightblue" stroke="midnightblue" points="333.135,-462.5 323.135,-466 333.135,-469.5 333.135,-462.5"/>
</g>
<!-- Node21 -->
<g id="node21" class="node"><title>Node21</title>
<g id="a_node21"><a xlink:href="classai_1_1movement_1_1TargetFlee.html" target="_top" xlink:title="Flees from a particular target. ">
<polygon fill="white" stroke="black" points="379,-418.5 379,-437.5 507,-437.5 507,-418.5 379,-418.5"/>
<text text-anchor="middle" x="443" y="-425.5" font-family="Helvetica,sans-Serif" font-size="10.00">ai::movement::TargetFlee</text>
</a>
</g>
</g>
<!-- Node14&#45;&gt;Node21 -->
<g id="edge20" class="edge"><title>Node14&#45;&gt;Node21</title>
<path fill="none" stroke="midnightblue" d="M333.204,-449.533C353.882,-445.44 375.367,-441.188 393.727,-437.554"/>
<polygon fill="midnightblue" stroke="midnightblue" points="332.265,-446.15 323.135,-451.525 333.624,-453.017 332.265,-446.15"/>
</g>
<!-- Node22 -->
<g id="node22" class="node"><title>Node22</title>
<g id="a_node22"><a xlink:href="classai_1_1movement_1_1TargetSeek.html" target="_top" xlink:title="Seeks a particular target. ">
<polygon fill="white" stroke="black" points="377,-380.5 377,-399.5 509,-399.5 509,-380.5 377,-380.5"/>
<text text-anchor="middle" x="443" y="-387.5" font-family="Helvetica,sans-Serif" font-size="10.00">ai::movement::TargetSeek</text>
</a>
</g>
</g>
<!-- Node14&#45;&gt;Node22 -->
<g id="edge21" class="edge"><title>Node14&#45;&gt;Node22</title>
<path fill="none" stroke="midnightblue" d="M284.963,-445.944C307.067,-433.92 336.549,-419.061 364,-409 373.946,-405.355 384.861,-402.2 395.293,-399.564"/>
<polygon fill="midnightblue" stroke="midnightblue" points="283.037,-443.009 275.969,-450.902 286.416,-449.14 283.037,-443.009"/>
</g>
<!-- Node23 -->
<g id="node23" class="node"><title>Node23</title>
<g id="a_node23"><a xlink:href="classai_1_1movement_1_1Wander.html" target="_top" xlink:title="Moves forward in the direction the character is currently facing into. ">
<polygon fill="white" stroke="black" points="385,-342.5 385,-361.5 501,-361.5 501,-342.5 385,-342.5"/>
<text text-anchor="middle" x="443" y="-349.5" font-family="Helvetica,sans-Serif" font-size="10.00">ai::movement::Wander</text>
</a>
</g>
</g>
<!-- Node14&#45;&gt;Node23 -->
<g id="edge22" class="edge"><title>Node14&#45;&gt;Node23</title>
<path fill="none" stroke="midnightblue" d="M270.851,-443.452C292.203,-421.71 327.368,-389.462 364,-371 371.592,-367.174 379.995,-364.092 388.391,-361.617"/>
<polygon fill="midnightblue" stroke="midnightblue" points="268.318,-441.037 263.895,-450.664 273.356,-445.896 268.318,-441.037"/>
</g>
<!-- Node19 -->
<g id="node19" class="node"><title>Node19</title>
<g id="a_node19"><a xlink:href="classai_1_1movement_1_1SelectionFlee.html" target="_top" xlink:title="Flees the current IFilter selection from the given ICharacter. ">
<polygon fill="white" stroke="black" points="560.5,-475.5 560.5,-494.5 701.5,-494.5 701.5,-475.5 560.5,-475.5"/>
<text text-anchor="middle" x="631" y="-482.5" font-family="Helvetica,sans-Serif" font-size="10.00">ai::movement::SelectionFlee</text>
</a>
</g>
</g>
<!-- Node18&#45;&gt;Node19 -->
<g id="edge18" class="edge"><title>Node18&#45;&gt;Node19</title>
<path fill="none" stroke="midnightblue" d="M532.275,-475.017C541.719,-475.982 551.227,-476.953 560.41,-477.891"/>
<polygon fill="midnightblue" stroke="midnightblue" points="532.376,-471.51 522.072,-473.975 531.665,-478.473 532.376,-471.51"/>
</g>
<!-- Node20 -->
<g id="node20" class="node"><title>Node20</title>
<g id="a_node20"><a xlink:href="classai_1_1movement_1_1SelectionSeek.html" target="_top" xlink:title="Seeks the current IFilter selection from the given ICharacter. ">
<polygon fill="white" stroke="black" points="558.5,-437.5 558.5,-456.5 703.5,-456.5 703.5,-437.5 558.5,-437.5"/>
<text text-anchor="middle" x="631" y="-444.5" font-family="Helvetica,sans-Serif" font-size="10.00">ai::movement::SelectionSeek</text>
</a>
</g>
</g>
<!-- Node18&#45;&gt;Node20 -->
<g id="edge19" class="edge"><title>Node18&#45;&gt;Node20</title>
<path fill="none" stroke="midnightblue" d="M532.285,-456.982C541.022,-456.089 549.814,-455.191 558.353,-454.319"/>
<polygon fill="midnightblue" stroke="midnightblue" points="531.665,-453.527 522.072,-458.025 532.376,-460.49 531.665,-453.527"/>
</g>
<!-- Node25 -->
<g id="node25" class="node"><title>Node25</title>
<g id="a_node25"><a xlink:href="classai_1_1Fail.html" target="_top" xlink:title="A decorator node with only one child attached. The result of the attached child is only taken into ac...">
<polygon fill="white" stroke="black" points="420,-304.5 420,-323.5 466,-323.5 466,-304.5 420,-304.5"/>
<text text-anchor="middle" x="443" y="-311.5" font-family="Helvetica,sans-Serif" font-size="10.00">ai::Fail</text>
</a>
</g>
</g>
<!-- Node24&#45;&gt;Node25 -->
<g id="edge24" class="edge"><title>Node24&#45;&gt;Node25</title>
<path fill="none" stroke="midnightblue" d="M270.851,-222.548C292.203,-244.29 327.368,-276.538 364,-295 381.674,-303.907 403.74,-308.779 419.887,-311.351"/>
<polygon fill="midnightblue" stroke="midnightblue" points="273.356,-220.104 263.895,-215.336 268.318,-224.963 273.356,-220.104"/>
</g>
<!-- Node26 -->
<g id="node26" class="node"><title>Node26</title>
<g id="a_node26"><a xlink:href="classai_1_1Invert.html" target="_top" xlink:title="A node with only one child attached. The result of the attached child is inverted. ">
<polygon fill="white" stroke="black" points="415.5,-266.5 415.5,-285.5 470.5,-285.5 470.5,-266.5 415.5,-266.5"/>
<text text-anchor="middle" x="443" y="-273.5" font-family="Helvetica,sans-Serif" font-size="10.00">ai::Invert</text>
</a>
</g>
</g>
<!-- Node24&#45;&gt;Node26 -->
<g id="edge25" class="edge"><title>Node24&#45;&gt;Node26</title>
<path fill="none" stroke="midnightblue" d="M284.963,-220.056C307.067,-232.08 336.549,-246.939 364,-257 380.62,-263.091 399.946,-267.815 415.203,-271.029"/>
<polygon fill="midnightblue" stroke="midnightblue" points="286.416,-216.86 275.969,-215.098 283.037,-222.991 286.416,-216.86"/>
</g>
<!-- Node27 -->
<g id="node27" class="node"><title>Node27</title>
<g id="a_node27"><a xlink:href="classai_1_1ITask.html" target="_top" xlink:title="A node for your real actions in the behaviour tree. ">
<polygon fill="white" stroke="black" points="415.5,-228.5 415.5,-247.5 470.5,-247.5 470.5,-228.5 415.5,-228.5"/>
<text text-anchor="middle" x="443" y="-235.5" font-family="Helvetica,sans-Serif" font-size="10.00">ai::ITask</text>
</a>
</g>
</g>
<!-- Node24&#45;&gt;Node27 -->
<g id="edge26" class="edge"><title>Node24&#45;&gt;Node27</title>
<path fill="none" stroke="midnightblue" d="M335.984,-217.018C364.732,-222.707 394.691,-228.637 415.398,-232.735"/>
<polygon fill="midnightblue" stroke="midnightblue" points="336.373,-213.527 325.883,-215.019 335.014,-220.394 336.373,-213.527"/>
</g>
<!-- Node29 -->
<g id="node29" class="node"><title>Node29</title>
<g id="a_node29"><a xlink:href="classai_1_1ITimedNode.html" target="_top" xlink:title="A timed node is a TreeNode that is executed until a given time (millis) is elapsed. ">
<polygon fill="white" stroke="black" points="401.5,-190.5 401.5,-209.5 484.5,-209.5 484.5,-190.5 401.5,-190.5"/>
<text text-anchor="middle" x="443" y="-197.5" font-family="Helvetica,sans-Serif" font-size="10.00">ai::ITimedNode</text>
</a>
</g>
</g>
<!-- Node24&#45;&gt;Node29 -->
<g id="edge28" class="edge"><title>Node24&#45;&gt;Node29</title>
<path fill="none" stroke="midnightblue" d="M337.694,-200C359.922,-200 382.748,-200 401.358,-200"/>
<polygon fill="midnightblue" stroke="midnightblue" points="337.54,-196.5 327.54,-200 337.54,-203.5 337.54,-196.5"/>
</g>
<!-- Node31 -->
<g id="node31" class="node"><title>Node31</title>
<g id="a_node31"><a xlink:href="classai_1_1Limit.html" target="_top" xlink:title="A decorator node which limits the execution of the attached child to a specified amount of runs...">
<polygon fill="white" stroke="black" points="417.5,-152.5 417.5,-171.5 468.5,-171.5 468.5,-152.5 417.5,-152.5"/>
<text text-anchor="middle" x="443" y="-159.5" font-family="Helvetica,sans-Serif" font-size="10.00">ai::Limit</text>
</a>
</g>
</g>
<!-- Node24&#45;&gt;Node31 -->
<g id="edge30" class="edge"><title>Node24&#45;&gt;Node31</title>
<path fill="none" stroke="midnightblue" d="M335.867,-183.005C365.502,-177.14 396.439,-171.017 417.213,-166.906"/>
<polygon fill="midnightblue" stroke="midnightblue" points="335.014,-179.606 325.883,-184.981 336.373,-186.473 335.014,-179.606"/>
</g>
<!-- Node32 -->
<g id="node32" class="node"><title>Node32</title>
<g id="a_node32"><a xlink:href="classai_1_1LUATreeNode.html" target="_top" xlink:title="ai::LUATreeNode">
<polygon fill="white" stroke="black" points="397,-114.5 397,-133.5 489,-133.5 489,-114.5 397,-114.5"/>
<text text-anchor="middle" x="443" y="-121.5" font-family="Helvetica,sans-Serif" font-size="10.00">ai::LUATreeNode</text>
</a>
</g>
</g>
<!-- Node24&#45;&gt;Node32 -->
<g id="edge31" class="edge"><title>Node24&#45;&gt;Node32</title>
<path fill="none" stroke="midnightblue" d="M284.963,-179.944C307.067,-167.92 336.549,-153.061 364,-143 374.469,-139.163 386.012,-135.869 396.936,-133.153"/>
<polygon fill="midnightblue" stroke="midnightblue" points="283.037,-177.009 275.969,-184.902 286.416,-183.14 283.037,-177.009"/>
</g>
<!-- Node33 -->
<g id="node33" class="node"><title>Node33</title>
<g id="a_node33"><a xlink:href="classai_1_1Selector.html" target="_top" xlink:title="Base class for all type of TreeNode selectors. ">
<polygon fill="white" stroke="black" points="410,-76.5 410,-95.5 476,-95.5 476,-76.5 410,-76.5"/>
<text text-anchor="middle" x="443" y="-83.5" font-family="Helvetica,sans-Serif" font-size="10.00">ai::Selector</text>
</a>
</g>
</g>
<!-- Node24&#45;&gt;Node33 -->
<g id="edge32" class="edge"><title>Node24&#45;&gt;Node33</title>
<path fill="none" stroke="midnightblue" d="M270.851,-177.452C292.203,-155.71 327.368,-123.462 364,-105 378.189,-97.849 395.208,-93.2991 409.724,-90.4517"/>
<polygon fill="midnightblue" stroke="midnightblue" points="268.318,-175.037 263.895,-184.664 273.356,-179.896 268.318,-175.037"/>
</g>
<!-- Node39 -->
<g id="node39" class="node"><title>Node39</title>
<g id="a_node39"><a xlink:href="classai_1_1Succeed.html" target="_top" xlink:title="A decorator node with only one child attached. The result of the attached child is only taken into ac...">
<polygon fill="white" stroke="black" points="409,-38.5 409,-57.5 477,-57.5 477,-38.5 409,-38.5"/>
<text text-anchor="middle" x="443" y="-45.5" font-family="Helvetica,sans-Serif" font-size="10.00">ai::Succeed</text>
</a>
</g>
</g>
<!-- Node24&#45;&gt;Node39 -->
<g id="edge38" class="edge"><title>Node24&#45;&gt;Node39</title>
<path fill="none" stroke="midnightblue" d="M263.715,-176.325C282.444,-146.178 318.903,-94.6837 364,-67 377.422,-58.7605 394.193,-54.093 408.74,-51.4494"/>
<polygon fill="midnightblue" stroke="midnightblue" points="260.679,-174.582 258.482,-184.946 266.663,-178.214 260.679,-174.582"/>
</g>
<!-- Node28 -->
<g id="node28" class="node"><title>Node28</title>
<g id="a_node28"><a xlink:href="classai_1_1Steer.html" target="_top" xlink:title="ai::Steer">
<polygon fill="white" stroke="black" points="604.5,-228.5 604.5,-247.5 657.5,-247.5 657.5,-228.5 604.5,-228.5"/>
<text text-anchor="middle" x="631" y="-235.5" font-family="Helvetica,sans-Serif" font-size="10.00">ai::Steer</text>
</a>
</g>
</g>
<!-- Node27&#45;&gt;Node28 -->
<g id="edge27" class="edge"><title>Node27&#45;&gt;Node28</title>
<path fill="none" stroke="midnightblue" d="M480.879,-238C517.373,-238 572.286,-238 604.298,-238"/>
<polygon fill="midnightblue" stroke="midnightblue" points="480.649,-234.5 470.649,-238 480.649,-241.5 480.649,-234.5"/>
</g>
<!-- Node30 -->
<g id="node30" class="node"><title>Node30</title>
<g id="a_node30"><a xlink:href="classai_1_1Idle.html" target="_top" xlink:title="ITimedNode that is just idling until the given time is elapsed. ">
<polygon fill="white" stroke="black" points="608,-190.5 608,-209.5 654,-209.5 654,-190.5 608,-190.5"/>
<text text-anchor="middle" x="631" y="-197.5" font-family="Helvetica,sans-Serif" font-size="10.00">ai::Idle</text>
</a>
</g>
</g>
<!-- Node29&#45;&gt;Node30 -->
<g id="edge29" class="edge"><title>Node29&#45;&gt;Node30</title>
<path fill="none" stroke="midnightblue" d="M494.93,-200C531.93,-200 580.188,-200 607.871,-200"/>
<polygon fill="midnightblue" stroke="midnightblue" points="494.819,-196.5 484.818,-200 494.818,-203.5 494.819,-196.5"/>
</g>
<!-- Node34 -->
<g id="node34" class="node"><title>Node34</title>
<g id="a_node34"><a xlink:href="classai_1_1Parallel.html" target="_top" xlink:title="Executes all the connected children in the order they were added (no matter what the TreeNodeStatus o...">
<polygon fill="white" stroke="black" points="600,-152.5 600,-171.5 662,-171.5 662,-152.5 600,-152.5"/>
<text text-anchor="middle" x="631" y="-159.5" font-family="Helvetica,sans-Serif" font-size="10.00">ai::Parallel</text>
</a>
</g>
</g>
<!-- Node33&#45;&gt;Node34 -->
<g id="edge33" class="edge"><title>Node33&#45;&gt;Node34</title>
<path fill="none" stroke="midnightblue" d="M486.233,-91.6809C498.333,-94.5031 511.169,-98.7164 522,-105 542.123,-116.674 537.989,-131.135 558,-143 570.677,-150.517 586.341,-155.107 599.819,-157.886"/>
<polygon fill="midnightblue" stroke="midnightblue" points="486.806,-88.2252 476.303,-89.6225 485.385,-95.0795 486.806,-88.2252"/>
</g>
<!-- Node35 -->
<g id="node35" class="node"><title>Node35</title>
<g id="a_node35"><a xlink:href="classai_1_1PrioritySelector.html" target="_top" xlink:title="This node tries to execute all the attached children until one succeeds. This composite only fails if...">
<polygon fill="white" stroke="black" points="582.5,-114.5 582.5,-133.5 679.5,-133.5 679.5,-114.5 582.5,-114.5"/>
<text text-anchor="middle" x="631" y="-121.5" font-family="Helvetica,sans-Serif" font-size="10.00">ai::PrioritySelector</text>
</a>
</g>
</g>
<!-- Node33&#45;&gt;Node35 -->
<g id="edge34" class="edge"><title>Node33&#45;&gt;Node35</title>
<path fill="none" stroke="midnightblue" d="M486.205,-94.6225C515.126,-100.531 553.502,-108.371 583.334,-114.466"/>
<polygon fill="midnightblue" stroke="midnightblue" points="486.897,-91.1917 476.399,-92.6191 485.496,-98.05 486.897,-91.1917"/>
</g>
<!-- Node36 -->
<g id="node36" class="node"><title>Node36</title>
<g id="a_node36"><a xlink:href="classai_1_1ProbabilitySelector.html" target="_top" xlink:title="This node executes one of the attached children randomly based on the given weights. The node is executed until it is no longer in the running state. ">
<polygon fill="white" stroke="black" points="575,-76.5 575,-95.5 687,-95.5 687,-76.5 575,-76.5"/>
<text text-anchor="middle" x="631" y="-83.5" font-family="Helvetica,sans-Serif" font-size="10.00">ai::ProbabilitySelector</text>
</a>
</g>
</g>
<!-- Node33&#45;&gt;Node36 -->
<g id="edge35" class="edge"><title>Node33&#45;&gt;Node36</title>
<path fill="none" stroke="midnightblue" d="M486.729,-86C512.846,-86 546.524,-86 574.666,-86"/>
<polygon fill="midnightblue" stroke="midnightblue" points="486.399,-82.5001 476.399,-86 486.399,-89.5001 486.399,-82.5001"/>
</g>
<!-- Node37 -->
<g id="node37" class="node"><title>Node37</title>
<g id="a_node37"><a xlink:href="classai_1_1RandomSelector.html" target="_top" xlink:title="This node executes all the attached children in random order. This composite only fails if all childr...">
<polygon fill="white" stroke="black" points="579.5,-38.5 579.5,-57.5 682.5,-57.5 682.5,-38.5 579.5,-38.5"/>
<text text-anchor="middle" x="631" y="-45.5" font-family="Helvetica,sans-Serif" font-size="10.00">ai::RandomSelector</text>
</a>
</g>
</g>
<!-- Node33&#45;&gt;Node37 -->
<g id="edge36" class="edge"><title>Node33&#45;&gt;Node37</title>
<path fill="none" stroke="midnightblue" d="M486.205,-77.3775C515.126,-71.4688 553.502,-63.6286 583.334,-57.5338"/>
<polygon fill="midnightblue" stroke="midnightblue" points="485.496,-73.95 476.399,-79.3809 486.897,-80.8083 485.496,-73.95"/>
</g>
<!-- Node38 -->
<g id="node38" class="node"><title>Node38</title>
<g id="a_node38"><a xlink:href="classai_1_1Sequence.html" target="_top" xlink:title="The sequence continues to execute their children until one of the children returned a state that is n...">
<polygon fill="white" stroke="black" points="594,-0.5 594,-19.5 668,-19.5 668,-0.5 594,-0.5"/>
<text text-anchor="middle" x="631" y="-7.5" font-family="Helvetica,sans-Serif" font-size="10.00">ai::Sequence</text>
</a>
</g>
</g>
<!-- Node33&#45;&gt;Node38 -->
<g id="edge37" class="edge"><title>Node33&#45;&gt;Node38</title>
<path fill="none" stroke="midnightblue" d="M486.233,-80.3191C498.333,-77.4969 511.169,-73.2836 522,-67 542.123,-55.3259 537.989,-40.8654 558,-29 568.786,-22.6043 581.736,-18.3275 593.66,-15.4821"/>
<polygon fill="midnightblue" stroke="midnightblue" points="485.385,-76.9205 476.303,-82.3775 486.806,-83.7748 485.385,-76.9205"/>
</g>
</g>
</svg>
        <g id="navigator" transform="translate(0 0)" fill="#404254">
                <rect fill="#f2f5e9" fill-opacity="0.5" stroke="#606060" stroke-width=".5" x="0" y="0" width="60" height="60"/>
                <use id="zoomplus" xlink:href="#zoomPlus" x="17" y="9" onmousedown="handleZoom(evt,'in')"/>
                <use id="zoomminus" xlink:href="#zoomMin" x="42" y="9" onmousedown="handleZoom(evt,'out')"/>
                <use id="reset" xlink:href="#resetDef" x="30" y="36" onmousedown="handleReset()"/>
                <g id="arrowUp" xlink:href="#dirArrow" transform="translate(30 24)" onmousedown="handlePan(0,-1)">
                  <use xlink:href="#rim" fill="#404040">
                        <set attributeName="fill" to="#808080" begin="arrowUp.mouseover" end="arrowUp.mouseout"/>
                  </use>
                  <path fill="none" stroke="white" stroke-width="1.5" d="M0,-3.0v7 M-2.5,-0.5L0,-3.0L2.5,-0.5"/>
                </g>
                <g id="arrowRight" xlink:href="#dirArrow" transform="rotate(90) translate(36 -43)" onmousedown="handlePan(1,0)">
                  <use xlink:href="#rim" fill="#404040">
                        <set attributeName="fill" to="#808080" begin="arrowRight.mouseover" end="arrowRight.mouseout"/>
                  </use>
                  <path fill="none" stroke="white" stroke-width="1.5" d="M0,-3.0v7 M-2.5,-0.5L0,-3.0L2.5,-0.5"/>
                </g>
                <g id="arrowDown" xlink:href="#dirArrow" transform="rotate(180) translate(-30 -48)" onmousedown="handlePan(0,1)">
                  <use xlink:href="#rim" fill="#404040">
                        <set attributeName="fill" to="#808080" begin="arrowDown.mouseover" end="arrowDown.mouseout"/>
                  </use>
                  <path fill="none" stroke="white" stroke-width="1.5" d="M0,-3.0v7 M-2.5,-0.5L0,-3.0L2.5,-0.5"/>
                </g>
                <g id="arrowLeft" xlink:href="#dirArrow" transform="rotate(270) translate(-36 17)" onmousedown="handlePan(-1,0)">
                  <use xlink:href="#rim" fill="#404040">
                        <set attributeName="fill" to="#808080" begin="arrowLeft.mouseover" end="arrowLeft.mouseout"/>
                  </use>
                  <path fill="none" stroke="white" stroke-width="1.5" d="M0,-3.0v7 M-2.5,-0.5L0,-3.0L2.5,-0.5"/>
                </g>
        </g>
        <svg viewBox="0 0 15 15" width="100%" height="30px" preserveAspectRatio="xMaxYMin meet">
         <g id="arrow_out" transform="scale(0.3 0.3)">
          <a xlink:href="classai_1_1__MemObject__inherit__graph_org.svg" target="_base">
           <rect id="button" ry="5" rx="5" y="6" x="6" height="38" width="38"
                fill="#f2f5e9" fill-opacity="0.5" stroke="#606060" stroke-width="1.0"/>
           <path id="arrow"
             d="M 11.500037,31.436501 C 11.940474,20.09759 22.043105,11.32322 32.158766,21.979434 L 37.068811,17.246167 C 37.068811,17.246167 37.088388,32 37.088388,32 L 22.160133,31.978069 C 22.160133,31.978069 26.997745,27.140456 26.997745,27.140456 C 18.528582,18.264221 13.291696,25.230495 11.500037,31.436501 z"
             style="fill:#404040;"/>
          </a>
         </g>
        </svg>
</svg>
