<?xml version="1.0" encoding="UTF-8" standalone="no"?>
<!DOCTYPE svg PUBLIC "-//W3C//DTD SVG 1.1//EN"
 "http://www.w3.org/Graphics/SVG/1.1/DTD/svg11.dtd">
<!-- Generated by graphviz version 2.36.0 (20140111.2315)
 -->
<!-- Title: ai::Filter Pages: 1 -->
<svg width="213pt" height="244pt"
 viewBox="0.00 0.00 213.00 244.00" xmlns="http://www.w3.org/2000/svg" xmlns:xlink="http://www.w3.org/1999/xlink">
<g id="graph0" class="graph" transform="scale(1 1) rotate(0) translate(4 240)">
<title>ai::Filter</title>
<polygon fill="white" stroke="none" points="-4,4 -4,-240 209,-240 209,4 -4,4"/>
<!-- Node1 -->
<g id="node1" class="node"><title>Node1</title>
<polygon fill="#bfbfbf" stroke="black" points="102,-0.5 102,-19.5 154,-19.5 154,-0.5 102,-0.5"/>
<text text-anchor="middle" x="128" y="-7.5" font-family="Helvetica,sans-Serif" font-size="10.00">ai::Filter</text>
</g>
<!-- Node2 -->
<g id="node2" class="node"><title>Node2</title>
<g id="a_node2"><a xlink:href="classai_1_1ICondition.html" target="_top" xlink:title="A condition can be placed on a TreeNode to decide which node is going to get executed. In general they are stateless. If they are not, it should explicitly get noted. ">
<polygon fill="white" stroke="black" points="12,-68.5 12,-87.5 86,-87.5 86,-68.5 12,-68.5"/>
<text text-anchor="middle" x="49" y="-75.5" font-family="Helvetica,sans-Serif" font-size="10.00">ai::ICondition</text>
</a>
</g>
</g>
<!-- Node2&#45;&gt;Node1 -->
<g id="edge1" class="edge"><title>Node2&#45;&gt;Node1</title>
<path fill="none" stroke="midnightblue" d="M67.2726,-61.7343C82.9214,-48.6606 104.894,-30.3039 117.67,-19.6305"/>
<polygon fill="midnightblue" stroke="midnightblue" points="64.7581,-59.2742 59.3279,-68.3717 69.2461,-64.6462 64.7581,-59.2742"/>
</g>
<!-- Node3 -->
<g id="node3" class="node"><title>Node3</title>
<g id="a_node3"><a xlink:href="classai_1_1__MemObject.html" target="_top" xlink:title="MemObject">
<polygon fill="white" stroke="black" points="-0.5,-146.5 -0.5,-165.5 66.5,-165.5 66.5,-146.5 -0.5,-146.5"/>
<text text-anchor="middle" x="33" y="-153.5" font-family="Helvetica,sans-Serif" font-size="10.00">MemObject</text>
</a>
</g>
</g>
<!-- Node3&#45;&gt;Node2 -->
<g id="edge2" class="edge"><title>Node3&#45;&gt;Node2</title>
<path fill="none" stroke="midnightblue" d="M36.9529,-136.224C40.2216,-120.697 44.7141,-99.3582 47.186,-87.6165"/>
<polygon fill="midnightblue" stroke="midnightblue" points="33.4707,-135.775 34.8354,-146.282 40.3205,-137.217 33.4707,-135.775"/>
</g>
<!-- Node4 -->
<g id="node4" class="node"><title>Node4</title>
<g id="a_node4"><a xlink:title="STL class. ">
<polygon fill="white" stroke="#bfbfbf" points="85,-146.5 85,-165.5 145,-165.5 145,-146.5 85,-146.5"/>
<text text-anchor="middle" x="115" y="-153.5" font-family="Helvetica,sans-Serif" font-size="10.00">std::string</text>
</a>
</g>
</g>
<!-- Node4&#45;&gt;Node2 -->
<g id="edge3" class="edge"><title>Node4&#45;&gt;Node2</title>
<path fill="none" stroke="#9a32cd" stroke-dasharray="5,2" d="M100.621,-138.442C87.0297,-122.792 67.1745,-99.9282 56.4827,-87.6165"/>
<polygon fill="#9a32cd" stroke="#9a32cd" points="98.2294,-141.026 107.429,-146.282 103.515,-136.437 98.2294,-141.026"/>
<text text-anchor="middle" x="117.5" y="-120" font-family="Helvetica,sans-Serif" font-size="10.00"> _name</text>
<text text-anchor="middle" x="117.5" y="-109" font-family="Helvetica,sans-Serif" font-size="10.00">_parameters</text>
</g>
<!-- Node5 -->
<g id="node5" class="node"><title>Node5</title>
<g id="a_node5"><a xlink:title="STL class. ">
<polygon fill="white" stroke="#bfbfbf" points="67.5,-205 67.5,-235 162.5,-235 162.5,-205 67.5,-205"/>
<text text-anchor="start" x="75.5" y="-223" font-family="Helvetica,sans-Serif" font-size="10.00">std::basic_string&lt;</text>
<text text-anchor="middle" x="115" y="-212" font-family="Helvetica,sans-Serif" font-size="10.00"> char &gt;</text>
</a>
</g>
</g>
<!-- Node5&#45;&gt;Node4 -->
<g id="edge4" class="edge"><title>Node5&#45;&gt;Node4</title>
<path fill="none" stroke="midnightblue" d="M115,-194.871C115,-184.663 115,-173.408 115,-165.842"/>
<polygon fill="midnightblue" stroke="midnightblue" points="111.5,-194.931 115,-204.931 118.5,-194.931 111.5,-194.931"/>
</g>
<!-- Node6 -->
<g id="node6" class="node"><title>Node6</title>
<polygon fill="white" stroke="#bfbfbf" points="104.5,-68.5 104.5,-87.5 205.5,-87.5 205.5,-68.5 104.5,-68.5"/>
<text text-anchor="middle" x="155" y="-75.5" font-family="Helvetica,sans-Serif" font-size="10.00">std::list&lt; FilterPtr &gt;</text>
</g>
<!-- Node6&#45;&gt;Node1 -->
<g id="edge5" class="edge"><title>Node6&#45;&gt;Node1</title>
<path fill="none" stroke="#9a32cd" stroke-dasharray="5,2" d="M147.557,-58.8066C142.369,-46.1244 135.675,-29.7615 131.617,-19.8411"/>
<polygon fill="#9a32cd" stroke="#9a32cd" points="144.444,-60.4414 151.47,-68.3717 150.923,-57.7909 144.444,-60.4414"/>
<text text-anchor="middle" x="160.5" y="-41.5" font-family="Helvetica,sans-Serif" font-size="10.00"> _filters</text>
</g>
</g>
</svg>
