<?xml version="1.0" encoding="UTF-8" standalone="no"?>
<!DOCTYPE svg PUBLIC "-//W3C//DTD SVG 1.1//EN"
 "http://www.w3.org/Graphics/SVG/1.1/DTD/svg11.dtd">
<!-- Generated by graphviz version 2.36.0 (20140111.2315)
 -->
<!-- Title: ai::ProbabilitySelector Pages: 1 -->
<svg width="308pt" height="314pt"
 viewBox="0.00 0.00 308.00 314.00" xmlns="http://www.w3.org/2000/svg" xmlns:xlink="http://www.w3.org/1999/xlink">
<g id="graph0" class="graph" transform="scale(1 1) rotate(0) translate(4 310)">
<title>ai::ProbabilitySelector</title>
<polygon fill="white" stroke="none" points="-4,4 -4,-310 304,-310 304,4 -4,4"/>
<!-- Node1 -->
<g id="node1" class="node"><title>Node1</title>
<polygon fill="#bfbfbf" stroke="black" points="134,-0.5 134,-19.5 246,-19.5 246,-0.5 134,-0.5"/>
<text text-anchor="middle" x="190" y="-7.5" font-family="Helvetica,sans-Serif" font-size="10.00">ai::ProbabilitySelector</text>
</g>
<!-- Node2 -->
<g id="node2" class="node"><title>Node2</title>
<g id="a_node2"><a xlink:href="classai_1_1Selector.html" target="_top" xlink:title="Base class for all type of TreeNode selectors. ">
<polygon fill="white" stroke="black" points="82,-68.5 82,-87.5 148,-87.5 148,-68.5 82,-68.5"/>
<text text-anchor="middle" x="115" y="-75.5" font-family="Helvetica,sans-Serif" font-size="10.00">ai::Selector</text>
</a>
</g>
</g>
<!-- Node2&#45;&gt;Node1 -->
<g id="edge1" class="edge"><title>Node2&#45;&gt;Node1</title>
<path fill="none" stroke="midnightblue" d="M132.713,-61.4122C147.447,-48.4468 167.891,-30.4559 179.953,-19.8411"/>
<polygon fill="midnightblue" stroke="midnightblue" points="130,-59.1378 124.805,-68.3717 134.624,-64.3928 130,-59.1378"/>
</g>
<!-- Node3 -->
<g id="node3" class="node"><title>Node3</title>
<g id="a_node3"><a xlink:href="classai_1_1TreeNode.html" target="_top" xlink:title="The base class for all behaviour tree actions. ">
<polygon fill="white" stroke="black" points="78.5,-126.5 78.5,-145.5 151.5,-145.5 151.5,-126.5 78.5,-126.5"/>
<text text-anchor="middle" x="115" y="-133.5" font-family="Helvetica,sans-Serif" font-size="10.00">ai::TreeNode</text>
</a>
</g>
</g>
<!-- Node3&#45;&gt;Node2 -->
<g id="edge2" class="edge"><title>Node3&#45;&gt;Node2</title>
<path fill="none" stroke="midnightblue" d="M115,-115.953C115,-106.287 115,-95.0312 115,-87.5052"/>
<polygon fill="midnightblue" stroke="midnightblue" points="111.5,-116.25 115,-126.25 118.5,-116.25 111.5,-116.25"/>
</g>
<!-- Node4 -->
<g id="node4" class="node"><title>Node4</title>
<g id="a_node4"><a xlink:href="classai_1_1__MemObject.html" target="_top" xlink:title="MemObject">
<polygon fill="white" stroke="black" points="-0.5,-216.5 -0.5,-235.5 66.5,-235.5 66.5,-216.5 -0.5,-216.5"/>
<text text-anchor="middle" x="33" y="-223.5" font-family="Helvetica,sans-Serif" font-size="10.00">MemObject</text>
</a>
</g>
</g>
<!-- Node4&#45;&gt;Node3 -->
<g id="edge3" class="edge"><title>Node4&#45;&gt;Node3</title>
<path fill="none" stroke="midnightblue" d="M48.0872,-208.809C65.4135,-190.215 93.2018,-160.393 106.871,-145.724"/>
<polygon fill="midnightblue" stroke="midnightblue" points="45.4189,-206.538 41.1623,-216.241 50.5402,-211.31 45.4189,-206.538"/>
</g>
<!-- Node5 -->
<g id="node5" class="node"><title>Node5</title>
<g id="a_node5"><a xlink:title="STL class. ">
<polygon fill="white" stroke="#bfbfbf" points="85,-216.5 85,-235.5 145,-235.5 145,-216.5 85,-216.5"/>
<text text-anchor="middle" x="115" y="-223.5" font-family="Helvetica,sans-Serif" font-size="10.00">std::string</text>
</a>
</g>
</g>
<!-- Node5&#45;&gt;Node3 -->
<g id="edge4" class="edge"><title>Node5&#45;&gt;Node3</title>
<path fill="none" stroke="#9a32cd" stroke-dasharray="5,2" d="M115,-205.978C115,-187.31 115,-159.67 115,-145.724"/>
<polygon fill="#9a32cd" stroke="#9a32cd" points="111.5,-206.24 115,-216.241 118.5,-206.241 111.5,-206.24"/>
<text text-anchor="middle" x="142.5" y="-189.5" font-family="Helvetica,sans-Serif" font-size="10.00"> _type</text>
<text text-anchor="middle" x="142.5" y="-178.5" font-family="Helvetica,sans-Serif" font-size="10.00">_name</text>
<text text-anchor="middle" x="142.5" y="-167.5" font-family="Helvetica,sans-Serif" font-size="10.00">_parameters</text>
</g>
<!-- Node6 -->
<g id="node6" class="node"><title>Node6</title>
<g id="a_node6"><a xlink:title="STL class. ">
<polygon fill="white" stroke="#bfbfbf" points="67.5,-275 67.5,-305 162.5,-305 162.5,-275 67.5,-275"/>
<text text-anchor="start" x="75.5" y="-293" font-family="Helvetica,sans-Serif" font-size="10.00">std::basic_string&lt;</text>
<text text-anchor="middle" x="115" y="-282" font-family="Helvetica,sans-Serif" font-size="10.00"> char &gt;</text>
</a>
</g>
</g>
<!-- Node6&#45;&gt;Node5 -->
<g id="edge5" class="edge"><title>Node6&#45;&gt;Node5</title>
<path fill="none" stroke="midnightblue" d="M115,-264.871C115,-254.663 115,-243.408 115,-235.842"/>
<polygon fill="midnightblue" stroke="midnightblue" points="111.5,-264.931 115,-274.931 118.5,-264.931 111.5,-264.931"/>
</g>
<!-- Node7 -->
<g id="node7" class="node"><title>Node7</title>
<polygon fill="white" stroke="#bfbfbf" points="163.5,-216.5 163.5,-235.5 300.5,-235.5 300.5,-216.5 163.5,-216.5"/>
<text text-anchor="middle" x="232" y="-223.5" font-family="Helvetica,sans-Serif" font-size="10.00">std::vector&lt; TreeNodePtr &gt;</text>
</g>
<!-- Node7&#45;&gt;Node3 -->
<g id="edge6" class="edge"><title>Node7&#45;&gt;Node3</title>
<path fill="none" stroke="#9a32cd" stroke-dasharray="5,2" d="M219.065,-208.206C208.161,-194.904 191.563,-176.535 174,-164 163.364,-156.409 150.253,-150.153 139.094,-145.582"/>
<polygon fill="#9a32cd" stroke="#9a32cd" points="216.39,-210.466 225.361,-216.104 221.864,-206.103 216.39,-210.466"/>
<text text-anchor="middle" x="231.5" y="-178.5" font-family="Helvetica,sans-Serif" font-size="10.00"> _children</text>
</g>
<!-- Node8 -->
<g id="node8" class="node"><title>Node8</title>
<polygon fill="white" stroke="#bfbfbf" points="166,-68.5 166,-87.5 266,-87.5 266,-68.5 166,-68.5"/>
<text text-anchor="middle" x="216" y="-75.5" font-family="Helvetica,sans-Serif" font-size="10.00">std::vector&lt; float &gt;</text>
</g>
<!-- Node8&#45;&gt;Node1 -->
<g id="edge7" class="edge"><title>Node8&#45;&gt;Node1</title>
<path fill="none" stroke="#9a32cd" stroke-dasharray="5,2" d="M208.833,-58.8066C203.837,-46.1244 197.391,-29.7615 193.483,-19.8411"/>
<polygon fill="#9a32cd" stroke="#9a32cd" points="205.679,-60.3504 212.601,-68.3717 212.192,-57.7847 205.679,-60.3504"/>
<text text-anchor="middle" x="227.5" y="-41.5" font-family="Helvetica,sans-Serif" font-size="10.00"> _weights</text>
</g>
</g>
</svg>
