<?xml version="1.0" encoding="UTF-8" standalone="no"?>
<!DOCTYPE svg PUBLIC "-//W3C//DTD SVG 1.1//EN"
 "http://www.w3.org/Graphics/SVG/1.1/DTD/svg11.dtd">
<!-- Generated by graphviz version 2.36.0 (20140111.2315)
 -->
<!-- Title: ai::movement::ISteering Pages: 1 -->
<svg width="610pt" height="256pt"
 viewBox="0.00 0.00 610.00 256.00" xmlns="http://www.w3.org/2000/svg" xmlns:xlink="http://www.w3.org/1999/xlink">
<g id="graph0" class="graph" transform="scale(1 1) rotate(0) translate(4 252)">
<title>ai::movement::ISteering</title>
<polygon fill="white" stroke="none" points="-4,4 -4,-252 606,-252 606,4 -4,4"/>
<!-- Node1 -->
<g id="node1" class="node"><title>Node1</title>
<polygon fill="#bfbfbf" stroke="black" points="104.5,-114.5 104.5,-133.5 225.5,-133.5 225.5,-114.5 104.5,-114.5"/>
<text text-anchor="middle" x="165" y="-121.5" font-family="Helvetica,sans-Serif" font-size="10.00">ai::movement::ISteering</text>
</g>
<!-- Node3 -->
<g id="node3" class="node"><title>Node3</title>
<g id="a_node3"><a xlink:href="classai_1_1movement_1_1GroupFlee.html" target="_top" xlink:title="Flees from a particular group. ">
<polygon fill="white" stroke="black" points="277.5,-228.5 277.5,-247.5 404.5,-247.5 404.5,-228.5 277.5,-228.5"/>
<text text-anchor="middle" x="341" y="-235.5" font-family="Helvetica,sans-Serif" font-size="10.00">ai::movement::GroupFlee</text>
</a>
</g>
</g>
<!-- Node1&#45;&gt;Node3 -->
<g id="edge2" class="edge"><title>Node1&#45;&gt;Node3</title>
<path fill="none" stroke="midnightblue" d="M178.776,-141.518C195.463,-163.094 226.739,-199.297 262,-219 268.935,-222.875 276.649,-225.967 284.451,-228.431"/>
<polygon fill="midnightblue" stroke="midnightblue" points="181.554,-139.39 172.737,-133.515 175.966,-143.606 181.554,-139.39"/>
</g>
<!-- Node4 -->
<g id="node4" class="node"><title>Node4</title>
<g id="a_node4"><a xlink:href="classai_1_1movement_1_1GroupSeek.html" target="_top" xlink:title="Seeks a particular group. ">
<polygon fill="white" stroke="black" points="275.5,-190.5 275.5,-209.5 406.5,-209.5 406.5,-190.5 275.5,-190.5"/>
<text text-anchor="middle" x="341" y="-197.5" font-family="Helvetica,sans-Serif" font-size="10.00">ai::movement::GroupSeek</text>
</a>
</g>
</g>
<!-- Node1&#45;&gt;Node4 -->
<g id="edge3" class="edge"><title>Node1&#45;&gt;Node4</title>
<path fill="none" stroke="midnightblue" d="M187.753,-139.476C206.6,-152.243 235.01,-169.988 262,-181 271.162,-184.738 281.242,-187.864 291.026,-190.43"/>
<polygon fill="midnightblue" stroke="midnightblue" points="189.537,-136.455 179.318,-133.66 185.564,-142.218 189.537,-136.455"/>
</g>
<!-- Node5 -->
<g id="node5" class="node"><title>Node5</title>
<g id="a_node5"><a xlink:href="classai_1_1movement_1_1LUASteering.html" target="_top" xlink:title="ai::movement::LUASteering">
<polygon fill="white" stroke="black" points="272.5,-152.5 272.5,-171.5 409.5,-171.5 409.5,-152.5 272.5,-152.5"/>
<text text-anchor="middle" x="341" y="-159.5" font-family="Helvetica,sans-Serif" font-size="10.00">ai::movement::LUASteering</text>
</a>
</g>
</g>
<!-- Node1&#45;&gt;Node5 -->
<g id="edge4" class="edge"><title>Node1&#45;&gt;Node5</title>
<path fill="none" stroke="midnightblue" d="M219.814,-135.753C244.418,-141.126 273.187,-147.409 296.408,-152.48"/>
<polygon fill="midnightblue" stroke="midnightblue" points="220.424,-132.303 209.908,-133.589 218.93,-139.142 220.424,-132.303"/>
</g>
<!-- Node6 -->
<g id="node6" class="node"><title>Node6</title>
<g id="a_node6"><a xlink:href="classai_1_1movement_1_1SelectionSteering.html" target="_top" xlink:title="IFilter steering interface ">
<polygon fill="white" stroke="black" points="262,-114.5 262,-133.5 420,-133.5 420,-114.5 262,-114.5"/>
<text text-anchor="middle" x="341" y="-121.5" font-family="Helvetica,sans-Serif" font-size="10.00">ai::movement::SelectionSteering</text>
</a>
</g>
</g>
<!-- Node1&#45;&gt;Node6 -->
<g id="edge5" class="edge"><title>Node1&#45;&gt;Node6</title>
<path fill="none" stroke="midnightblue" d="M236.097,-124C244.581,-124 253.288,-124 261.879,-124"/>
<polygon fill="midnightblue" stroke="midnightblue" points="235.881,-120.5 225.881,-124 235.881,-127.5 235.881,-120.5"/>
</g>
<!-- Node9 -->
<g id="node9" class="node"><title>Node9</title>
<g id="a_node9"><a xlink:href="classai_1_1movement_1_1TargetFlee.html" target="_top" xlink:title="Flees from a particular target. ">
<polygon fill="white" stroke="black" points="277,-76.5 277,-95.5 405,-95.5 405,-76.5 277,-76.5"/>
<text text-anchor="middle" x="341" y="-83.5" font-family="Helvetica,sans-Serif" font-size="10.00">ai::movement::TargetFlee</text>
</a>
</g>
</g>
<!-- Node1&#45;&gt;Node9 -->
<g id="edge8" class="edge"><title>Node1&#45;&gt;Node9</title>
<path fill="none" stroke="midnightblue" d="M219.814,-112.247C244.418,-106.874 273.187,-100.591 296.408,-95.5201"/>
<polygon fill="midnightblue" stroke="midnightblue" points="218.93,-108.858 209.908,-114.411 220.424,-115.697 218.93,-108.858"/>
</g>
<!-- Node10 -->
<g id="node10" class="node"><title>Node10</title>
<g id="a_node10"><a xlink:href="classai_1_1movement_1_1TargetSeek.html" target="_top" xlink:title="Seeks a particular target. ">
<polygon fill="white" stroke="black" points="275,-38.5 275,-57.5 407,-57.5 407,-38.5 275,-38.5"/>
<text text-anchor="middle" x="341" y="-45.5" font-family="Helvetica,sans-Serif" font-size="10.00">ai::movement::TargetSeek</text>
</a>
</g>
</g>
<!-- Node1&#45;&gt;Node10 -->
<g id="edge9" class="edge"><title>Node1&#45;&gt;Node10</title>
<path fill="none" stroke="midnightblue" d="M187.753,-108.524C206.6,-95.757 235.01,-78.0118 262,-67 271.162,-63.2618 281.242,-60.1357 291.026,-57.5696"/>
<polygon fill="midnightblue" stroke="midnightblue" points="185.564,-105.782 179.318,-114.34 189.537,-111.545 185.564,-105.782"/>
</g>
<!-- Node11 -->
<g id="node11" class="node"><title>Node11</title>
<g id="a_node11"><a xlink:href="classai_1_1movement_1_1Wander.html" target="_top" xlink:title="Moves forward in the direction the character is currently facing into. ">
<polygon fill="white" stroke="black" points="283,-0.5 283,-19.5 399,-19.5 399,-0.5 283,-0.5"/>
<text text-anchor="middle" x="341" y="-7.5" font-family="Helvetica,sans-Serif" font-size="10.00">ai::movement::Wander</text>
</a>
</g>
</g>
<!-- Node1&#45;&gt;Node11 -->
<g id="edge10" class="edge"><title>Node1&#45;&gt;Node11</title>
<path fill="none" stroke="midnightblue" d="M178.776,-106.482C195.463,-84.9062 226.739,-48.7028 262,-29 268.935,-25.1248 276.649,-22.0334 284.451,-19.5688"/>
<polygon fill="midnightblue" stroke="midnightblue" points="175.966,-104.394 172.737,-114.485 181.554,-108.61 175.966,-104.394"/>
</g>
<!-- Node2 -->
<g id="node2" class="node"><title>Node2</title>
<g id="a_node2"><a xlink:href="classai_1_1__MemObject.html" target="_top" xlink:title="MemObject">
<polygon fill="white" stroke="black" points="0.5,-114.5 0.5,-133.5 67.5,-133.5 67.5,-114.5 0.5,-114.5"/>
<text text-anchor="middle" x="34" y="-121.5" font-family="Helvetica,sans-Serif" font-size="10.00">MemObject</text>
</a>
</g>
</g>
<!-- Node2&#45;&gt;Node1 -->
<g id="edge1" class="edge"><title>Node2&#45;&gt;Node1</title>
<path fill="none" stroke="midnightblue" d="M77.6442,-124C86.193,-124 95.3228,-124 104.326,-124"/>
<polygon fill="midnightblue" stroke="midnightblue" points="77.5522,-120.5 67.5521,-124 77.5521,-127.5 77.5522,-120.5"/>
</g>
<!-- Node7 -->
<g id="node7" class="node"><title>Node7</title>
<g id="a_node7"><a xlink:href="classai_1_1movement_1_1SelectionFlee.html" target="_top" xlink:title="Flees the current IFilter selection from the given ICharacter. ">
<polygon fill="white" stroke="black" points="458.5,-133.5 458.5,-152.5 599.5,-152.5 599.5,-133.5 458.5,-133.5"/>
<text text-anchor="middle" x="529" y="-140.5" font-family="Helvetica,sans-Serif" font-size="10.00">ai::movement::SelectionFlee</text>
</a>
</g>
</g>
<!-- Node6&#45;&gt;Node7 -->
<g id="edge6" class="edge"><title>Node6&#45;&gt;Node7</title>
<path fill="none" stroke="midnightblue" d="M430.275,-133.017C439.719,-133.982 449.227,-134.953 458.41,-135.891"/>
<polygon fill="midnightblue" stroke="midnightblue" points="430.376,-129.51 420.072,-131.975 429.665,-136.473 430.376,-129.51"/>
</g>
<!-- Node8 -->
<g id="node8" class="node"><title>Node8</title>
<g id="a_node8"><a xlink:href="classai_1_1movement_1_1SelectionSeek.html" target="_top" xlink:title="Seeks the current IFilter selection from the given ICharacter. ">
<polygon fill="white" stroke="black" points="456.5,-95.5 456.5,-114.5 601.5,-114.5 601.5,-95.5 456.5,-95.5"/>
<text text-anchor="middle" x="529" y="-102.5" font-family="Helvetica,sans-Serif" font-size="10.00">ai::movement::SelectionSeek</text>
</a>
</g>
</g>
<!-- Node6&#45;&gt;Node8 -->
<g id="edge7" class="edge"><title>Node6&#45;&gt;Node8</title>
<path fill="none" stroke="midnightblue" d="M430.285,-114.982C439.022,-114.089 447.814,-113.191 456.353,-112.319"/>
<polygon fill="midnightblue" stroke="midnightblue" points="429.665,-111.527 420.072,-116.025 430.376,-118.49 429.665,-111.527"/>
</g>
</g>
</svg>
