<?xml version="1.0" encoding="UTF-8" standalone="no"?>
<!DOCTYPE svg PUBLIC "-//W3C//DTD SVG 1.1//EN"
 "http://www.w3.org/Graphics/SVG/1.1/DTD/svg11.dtd">
<!-- Generated by graphviz version 2.36.0 (20140111.2315)
 -->
<!-- Title: ai::ICharacter Pages: 1 -->
<svg width="566pt" height="137pt"
 viewBox="0.00 0.00 566.00 137.00" xmlns="http://www.w3.org/2000/svg" xmlns:xlink="http://www.w3.org/1999/xlink">
<g id="graph0" class="graph" transform="scale(1 1) rotate(0) translate(4 133)">
<title>ai::ICharacter</title>
<polygon fill="white" stroke="none" points="-4,4 -4,-133 562,-133 562,4 -4,4"/>
<!-- Node1 -->
<g id="node1" class="node"><title>Node1</title>
<polygon fill="#bfbfbf" stroke="black" points="482,-65.5 482,-84.5 558,-84.5 558,-65.5 482,-65.5"/>
<text text-anchor="middle" x="520" y="-72.5" font-family="Helvetica,sans-Serif" font-size="10.00">ai::ICharacter</text>
</g>
<!-- Node2 -->
<g id="node2" class="node"><title>Node2</title>
<g id="a_node2"><a xlink:href="classai_1_1NonCopyable.html" target="_top" xlink:title="ai::NonCopyable">
<polygon fill="white" stroke="black" points="288.5,-109.5 288.5,-128.5 377.5,-128.5 377.5,-109.5 288.5,-109.5"/>
<text text-anchor="middle" x="333" y="-116.5" font-family="Helvetica,sans-Serif" font-size="10.00">ai::NonCopyable</text>
</a>
</g>
</g>
<!-- Node2&#45;&gt;Node1 -->
<g id="edge1" class="edge"><title>Node2&#45;&gt;Node1</title>
<path fill="none" stroke="midnightblue" d="M386.367,-107.197C410.098,-101.776 438.494,-95.1884 464,-89 469.841,-87.5828 476.021,-86.0462 482.047,-84.5274"/>
<polygon fill="midnightblue" stroke="midnightblue" points="385.477,-103.81 376.504,-109.444 387.032,-110.635 385.477,-103.81"/>
</g>
<!-- Node3 -->
<g id="node3" class="node"><title>Node3</title>
<polygon fill="white" stroke="#bfbfbf" points="270,-60 270,-90 396,-90 396,-60 270,-60"/>
<text text-anchor="start" x="278" y="-78" font-family="Helvetica,sans-Serif" font-size="10.00">std::enable_shared</text>
<text text-anchor="middle" x="333" y="-67" font-family="Helvetica,sans-Serif" font-size="10.00">_from_this&lt; ICharacter &gt;</text>
</g>
<!-- Node3&#45;&gt;Node1 -->
<g id="edge2" class="edge"><title>Node3&#45;&gt;Node1</title>
<path fill="none" stroke="midnightblue" d="M406.275,-75C432.129,-75 460.199,-75 481.861,-75"/>
<polygon fill="midnightblue" stroke="midnightblue" points="406.117,-71.5001 396.117,-75 406.117,-78.5001 406.117,-71.5001"/>
</g>
<!-- Node4 -->
<g id="node4" class="node"><title>Node4</title>
<polygon fill="white" stroke="#bfbfbf" points="281.5,-0.5 281.5,-41.5 384.5,-41.5 384.5,-0.5 281.5,-0.5"/>
<text text-anchor="start" x="289.5" y="-29.5" font-family="Helvetica,sans-Serif" font-size="10.00">std::unordered_map</text>
<text text-anchor="start" x="289.5" y="-18.5" font-family="Helvetica,sans-Serif" font-size="10.00">&lt; std::string, std::</text>
<text text-anchor="middle" x="333" y="-7.5" font-family="Helvetica,sans-Serif" font-size="10.00">string &gt;</text>
</g>
<!-- Node4&#45;&gt;Node1 -->
<g id="edge3" class="edge"><title>Node4&#45;&gt;Node1</title>
<path fill="none" stroke="#9a32cd" stroke-dasharray="5,2" d="M394.278,-38.5947C424.879,-47.5267 460.855,-58.0281 486.285,-65.4508"/>
<polygon fill="#9a32cd" stroke="#9a32cd" points="395.132,-35.198 384.552,-35.7557 393.171,-41.9176 395.132,-35.198"/>
<text text-anchor="middle" x="439" y="-61" font-family="Helvetica,sans-Serif" font-size="10.00"> _attributes</text>
</g>
<!-- Node5 -->
<g id="node5" class="node"><title>Node5</title>
<g id="a_node5"><a xlink:title="STL class. ">
<polygon fill="white" stroke="#bfbfbf" points="134,-11.5 134,-30.5 194,-30.5 194,-11.5 134,-11.5"/>
<text text-anchor="middle" x="164" y="-18.5" font-family="Helvetica,sans-Serif" font-size="10.00">std::string</text>
</a>
</g>
</g>
<!-- Node5&#45;&gt;Node4 -->
<g id="edge4" class="edge"><title>Node5&#45;&gt;Node4</title>
<path fill="none" stroke="#9a32cd" stroke-dasharray="5,2" d="M204.182,-21C227.203,-21 256.553,-21 281.321,-21"/>
<polygon fill="#9a32cd" stroke="#9a32cd" points="204.089,-17.5001 194.089,-21 204.089,-24.5001 204.089,-17.5001"/>
<text text-anchor="middle" x="232" y="-35" font-family="Helvetica,sans-Serif" font-size="10.00"> keys</text>
<text text-anchor="middle" x="232" y="-24" font-family="Helvetica,sans-Serif" font-size="10.00">elements</text>
</g>
<!-- Node6 -->
<g id="node6" class="node"><title>Node6</title>
<g id="a_node6"><a xlink:title="STL class. ">
<polygon fill="white" stroke="#bfbfbf" points="0.5,-6 0.5,-36 95.5,-36 95.5,-6 0.5,-6"/>
<text text-anchor="start" x="8.5" y="-24" font-family="Helvetica,sans-Serif" font-size="10.00">std::basic_string&lt;</text>
<text text-anchor="middle" x="48" y="-13" font-family="Helvetica,sans-Serif" font-size="10.00"> char &gt;</text>
</a>
</g>
</g>
<!-- Node6&#45;&gt;Node5 -->
<g id="edge5" class="edge"><title>Node6&#45;&gt;Node5</title>
<path fill="none" stroke="midnightblue" d="M105.782,-21C115.509,-21 125.243,-21 133.854,-21"/>
<polygon fill="midnightblue" stroke="midnightblue" points="105.697,-17.5001 95.6971,-21 105.697,-24.5001 105.697,-17.5001"/>
</g>
</g>
</svg>
