<?xml version="1.0" encoding="UTF-8" standalone="no"?>
<!DOCTYPE svg PUBLIC "-//W3C//DTD SVG 1.1//EN"
 "http://www.w3.org/Graphics/SVG/1.1/DTD/svg11.dtd">
<!-- Generated by graphviz version 2.36.0 (20140111.2315)
 -->
<!-- Title: ai::ICondition Pages: 1 -->
<svg width="170pt" height="176pt"
 viewBox="0.00 0.00 170.00 176.00" xmlns="http://www.w3.org/2000/svg" xmlns:xlink="http://www.w3.org/1999/xlink">
<g id="graph0" class="graph" transform="scale(1 1) rotate(0) translate(4 172)">
<title>ai::ICondition</title>
<polygon fill="white" stroke="none" points="-4,4 -4,-172 166,-172 166,4 -4,4"/>
<!-- Node1 -->
<g id="node1" class="node"><title>Node1</title>
<polygon fill="#bfbfbf" stroke="black" points="24,-0.5 24,-19.5 98,-19.5 98,-0.5 24,-0.5"/>
<text text-anchor="middle" x="61" y="-7.5" font-family="Helvetica,sans-Serif" font-size="10.00">ai::ICondition</text>
</g>
<!-- Node2 -->
<g id="node2" class="node"><title>Node2</title>
<g id="a_node2"><a xlink:href="classai_1_1__MemObject.html" target="_top" xlink:title="MemObject">
<polygon fill="white" stroke="black" points="-0.5,-78.5 -0.5,-97.5 66.5,-97.5 66.5,-78.5 -0.5,-78.5"/>
<text text-anchor="middle" x="33" y="-85.5" font-family="Helvetica,sans-Serif" font-size="10.00">MemObject</text>
</a>
</g>
</g>
<!-- Node2&#45;&gt;Node1 -->
<g id="edge1" class="edge"><title>Node2&#45;&gt;Node1</title>
<path fill="none" stroke="midnightblue" d="M39.7515,-68.6744C45.4848,-53.1127 53.4576,-31.4722 57.8255,-19.6165"/>
<polygon fill="midnightblue" stroke="midnightblue" points="36.3849,-67.6884 36.212,-78.2818 42.9533,-70.1084 36.3849,-67.6884"/>
</g>
<!-- Node3 -->
<g id="node3" class="node"><title>Node3</title>
<g id="a_node3"><a xlink:title="STL class. ">
<polygon fill="white" stroke="#bfbfbf" points="85,-78.5 85,-97.5 145,-97.5 145,-78.5 85,-78.5"/>
<text text-anchor="middle" x="115" y="-85.5" font-family="Helvetica,sans-Serif" font-size="10.00">std::string</text>
</a>
</g>
</g>
<!-- Node3&#45;&gt;Node1 -->
<g id="edge2" class="edge"><title>Node3&#45;&gt;Node1</title>
<path fill="none" stroke="#9a32cd" stroke-dasharray="5,2" d="M102.925,-70.0056C91.815,-54.3693 75.789,-31.8142 67.1222,-19.6165"/>
<polygon fill="#9a32cd" stroke="#9a32cd" points="100.16,-72.1573 108.806,-78.2818 105.867,-68.1028 100.16,-72.1573"/>
<text text-anchor="middle" x="121.5" y="-52" font-family="Helvetica,sans-Serif" font-size="10.00"> _name</text>
<text text-anchor="middle" x="121.5" y="-41" font-family="Helvetica,sans-Serif" font-size="10.00">_parameters</text>
</g>
<!-- Node4 -->
<g id="node4" class="node"><title>Node4</title>
<g id="a_node4"><a xlink:title="STL class. ">
<polygon fill="white" stroke="#bfbfbf" points="67.5,-137 67.5,-167 162.5,-167 162.5,-137 67.5,-137"/>
<text text-anchor="start" x="75.5" y="-155" font-family="Helvetica,sans-Serif" font-size="10.00">std::basic_string&lt;</text>
<text text-anchor="middle" x="115" y="-144" font-family="Helvetica,sans-Serif" font-size="10.00"> char &gt;</text>
</a>
</g>
</g>
<!-- Node4&#45;&gt;Node3 -->
<g id="edge3" class="edge"><title>Node4&#45;&gt;Node3</title>
<path fill="none" stroke="midnightblue" d="M115,-126.871C115,-116.663 115,-105.408 115,-97.8419"/>
<polygon fill="midnightblue" stroke="midnightblue" points="111.5,-126.931 115,-136.931 118.5,-126.931 111.5,-126.931"/>
</g>
</g>
</svg>
