<?xml version="1.0" encoding="UTF-8" standalone="no"?>
<!DOCTYPE svg PUBLIC "-//W3C//DTD SVG 1.1//EN"
 "http://www.w3.org/Graphics/SVG/1.1/DTD/svg11.dtd">
<!-- Generated by graphviz version 2.36.0 (20140111.2315)
 -->
<!-- Title: ai::movement::Wander Pages: 1 -->
<svg width="128pt" height="140pt"
 viewBox="0.00 0.00 128.00 140.00" xmlns="http://www.w3.org/2000/svg" xmlns:xlink="http://www.w3.org/1999/xlink">
<g id="graph0" class="graph" transform="scale(1 1) rotate(0) translate(4 136)">
<title>ai::movement::Wander</title>
<polygon fill="white" stroke="none" points="-4,4 -4,-136 124,-136 124,4 -4,4"/>
<!-- Node1 -->
<g id="node1" class="node"><title>Node1</title>
<polygon fill="#bfbfbf" stroke="black" points="2,-0.5 2,-19.5 118,-19.5 118,-0.5 2,-0.5"/>
<text text-anchor="middle" x="60" y="-7.5" font-family="Helvetica,sans-Serif" font-size="10.00">ai::movement::Wander</text>
</g>
<!-- Node2 -->
<g id="node2" class="node"><title>Node2</title>
<g id="a_node2"><a xlink:href="classai_1_1movement_1_1ISteering.html" target="_top" xlink:title="Steering interface. ">
<polygon fill="white" stroke="black" points="-0.5,-56.5 -0.5,-75.5 120.5,-75.5 120.5,-56.5 -0.5,-56.5"/>
<text text-anchor="middle" x="60" y="-63.5" font-family="Helvetica,sans-Serif" font-size="10.00">ai::movement::ISteering</text>
</a>
</g>
</g>
<!-- Node2&#45;&gt;Node1 -->
<g id="edge1" class="edge"><title>Node2&#45;&gt;Node1</title>
<path fill="none" stroke="midnightblue" d="M60,-45.8045C60,-36.9102 60,-26.7798 60,-19.7511"/>
<polygon fill="midnightblue" stroke="midnightblue" points="56.5001,-46.083 60,-56.083 63.5001,-46.083 56.5001,-46.083"/>
</g>
<!-- Node3 -->
<g id="node3" class="node"><title>Node3</title>
<g id="a_node3"><a xlink:href="classai_1_1__MemObject.html" target="_top" xlink:title="MemObject">
<polygon fill="white" stroke="black" points="26.5,-112.5 26.5,-131.5 93.5,-131.5 93.5,-112.5 26.5,-112.5"/>
<text text-anchor="middle" x="60" y="-119.5" font-family="Helvetica,sans-Serif" font-size="10.00">MemObject</text>
</a>
</g>
</g>
<!-- Node3&#45;&gt;Node2 -->
<g id="edge2" class="edge"><title>Node3&#45;&gt;Node2</title>
<path fill="none" stroke="midnightblue" d="M60,-101.805C60,-92.9102 60,-82.7798 60,-75.7511"/>
<polygon fill="midnightblue" stroke="midnightblue" points="56.5001,-102.083 60,-112.083 63.5001,-102.083 56.5001,-102.083"/>
</g>
</g>
</svg>
