<?xml version="1.0" encoding="UTF-8" standalone="no"?>
<!DOCTYPE svg PUBLIC "-//W3C//DTD SVG 1.1//EN"
 "http://www.w3.org/Graphics/SVG/1.1/DTD/svg11.dtd">
<!-- Generated by graphviz version 2.36.0 (20140111.2315)
 -->
<!-- Title: ai::Network Pages: 1 -->
<svg width="353pt" height="254pt"
 viewBox="0.00 0.00 353.00 254.00" xmlns="http://www.w3.org/2000/svg" xmlns:xlink="http://www.w3.org/1999/xlink">
<g id="graph0" class="graph" transform="scale(1 1) rotate(0) translate(4 250)">
<title>ai::Network</title>
<polygon fill="white" stroke="none" points="-4,4 -4,-250 349,-250 349,4 -4,4"/>
<!-- Node1 -->
<g id="node1" class="node"><title>Node1</title>
<polygon fill="#bfbfbf" stroke="black" points="115.5,-0.5 115.5,-19.5 182.5,-19.5 182.5,-0.5 115.5,-0.5"/>
<text text-anchor="middle" x="149" y="-7.5" font-family="Helvetica,sans-Serif" font-size="10.00">ai::Network</text>
</g>
<!-- Node2 -->
<g id="node2" class="node"><title>Node2</title>
<polygon fill="white" stroke="#bfbfbf" points="9,-68.5 9,-87.5 101,-87.5 101,-68.5 9,-68.5"/>
<text text-anchor="middle" x="55" y="-75.5" font-family="Helvetica,sans-Serif" font-size="10.00">std::list&lt; Client &gt;</text>
</g>
<!-- Node2&#45;&gt;Node1 -->
<g id="edge1" class="edge"><title>Node2&#45;&gt;Node1</title>
<path fill="none" stroke="#9a32cd" stroke-dasharray="5,2" d="M61.8334,-59.1132C65.4043,-51.7434 70.4226,-43.6304 77,-38 87.8516,-28.7108 102.21,-22.4699 115.248,-18.352"/>
<polygon fill="#9a32cd" stroke="#9a32cd" points="58.5757,-57.8293 57.8506,-68.3993 65.009,-60.5886 58.5757,-57.8293"/>
<text text-anchor="middle" x="111" y="-41.5" font-family="Helvetica,sans-Serif" font-size="10.00"> _clientSockets</text>
</g>
<!-- Node3 -->
<g id="node3" class="node"><title>Node3</title>
<g id="a_node3"><a xlink:href="structai_1_1Client.html" target="_top" xlink:title="ai::Client">
<polygon fill="white" stroke="black" points="27,-142.5 27,-161.5 83,-161.5 83,-142.5 27,-142.5"/>
<text text-anchor="middle" x="55" y="-149.5" font-family="Helvetica,sans-Serif" font-size="10.00">ai::Client</text>
</a>
</g>
</g>
<!-- Node3&#45;&gt;Node2 -->
<g id="edge2" class="edge"><title>Node3&#45;&gt;Node2</title>
<path fill="none" stroke="#9a32cd" stroke-dasharray="5,2" d="M55,-132.156C55,-117.712 55,-98.4594 55,-87.531"/>
<polygon fill="#9a32cd" stroke="#9a32cd" points="51.5001,-132.458 55,-142.458 58.5001,-132.458 51.5001,-132.458"/>
<text text-anchor="middle" x="76.5" y="-109.5" font-family="Helvetica,sans-Serif" font-size="10.00"> elements</text>
</g>
<!-- Node4 -->
<g id="node4" class="node"><title>Node4</title>
<polygon fill="white" stroke="#bfbfbf" points="0,-226.5 0,-245.5 110,-245.5 110,-226.5 0,-226.5"/>
<text text-anchor="middle" x="55" y="-233.5" font-family="Helvetica,sans-Serif" font-size="10.00">std::deque&lt; uint8_t &gt;</text>
</g>
<!-- Node4&#45;&gt;Node3 -->
<g id="edge3" class="edge"><title>Node4&#45;&gt;Node3</title>
<path fill="none" stroke="#9a32cd" stroke-dasharray="5,2" d="M55,-215.759C55,-198.676 55,-174.498 55,-161.712"/>
<polygon fill="#9a32cd" stroke="#9a32cd" points="51.5001,-216.225 55,-226.225 58.5001,-216.225 51.5001,-216.225"/>
<text text-anchor="middle" x="62" y="-200" font-family="Helvetica,sans-Serif" font-size="10.00"> in</text>
<text text-anchor="middle" x="62" y="-189" font-family="Helvetica,sans-Serif" font-size="10.00">out</text>
</g>
<!-- Node5 -->
<g id="node5" class="node"><title>Node5</title>
<g id="a_node5"><a xlink:title="STL class. ">
<polygon fill="white" stroke="#bfbfbf" points="119,-68.5 119,-87.5 179,-87.5 179,-68.5 119,-68.5"/>
<text text-anchor="middle" x="149" y="-75.5" font-family="Helvetica,sans-Serif" font-size="10.00">std::string</text>
</a>
</g>
</g>
<!-- Node5&#45;&gt;Node1 -->
<g id="edge4" class="edge"><title>Node5&#45;&gt;Node1</title>
<path fill="none" stroke="#9a32cd" stroke-dasharray="5,2" d="M149,-58.0413C149,-45.4724 149,-29.5631 149,-19.8411"/>
<polygon fill="#9a32cd" stroke="#9a32cd" points="145.5,-58.3716 149,-68.3717 152.5,-58.3717 145.5,-58.3716"/>
<text text-anchor="middle" x="175" y="-41.5" font-family="Helvetica,sans-Serif" font-size="10.00"> _hostname</text>
</g>
<!-- Node6 -->
<g id="node6" class="node"><title>Node6</title>
<g id="a_node6"><a xlink:title="STL class. ">
<polygon fill="white" stroke="#bfbfbf" points="101.5,-137 101.5,-167 196.5,-167 196.5,-137 101.5,-137"/>
<text text-anchor="start" x="109.5" y="-155" font-family="Helvetica,sans-Serif" font-size="10.00">std::basic_string&lt;</text>
<text text-anchor="middle" x="149" y="-144" font-family="Helvetica,sans-Serif" font-size="10.00"> char &gt;</text>
</a>
</g>
</g>
<!-- Node6&#45;&gt;Node5 -->
<g id="edge5" class="edge"><title>Node6&#45;&gt;Node5</title>
<path fill="none" stroke="midnightblue" d="M149,-126.688C149,-113.253 149,-97.3805 149,-87.7589"/>
<polygon fill="midnightblue" stroke="midnightblue" points="145.5,-126.775 149,-136.775 152.5,-126.775 145.5,-126.775"/>
</g>
<!-- Node7 -->
<g id="node7" class="node"><title>Node7</title>
<polygon fill="white" stroke="#bfbfbf" points="197,-68.5 197,-87.5 345,-87.5 345,-68.5 197,-68.5"/>
<text text-anchor="middle" x="271" y="-75.5" font-family="Helvetica,sans-Serif" font-size="10.00">std::list&lt; INetworkListener * &gt;</text>
</g>
<!-- Node7&#45;&gt;Node1 -->
<g id="edge6" class="edge"><title>Node7&#45;&gt;Node1</title>
<path fill="none" stroke="#9a32cd" stroke-dasharray="5,2" d="M248.395,-63.0025C235.775,-55.3503 219.68,-45.8583 205,-38 192.82,-31.48 178.82,-24.73 167.865,-19.61"/>
<polygon fill="#9a32cd" stroke="#9a32cd" points="246.93,-66.209 257.288,-68.4379 250.581,-60.2363 246.93,-66.209"/>
<text text-anchor="middle" x="249" y="-41.5" font-family="Helvetica,sans-Serif" font-size="10.00"> _listeners</text>
</g>
<!-- Node8 -->
<g id="node8" class="node"><title>Node8</title>
<g id="a_node8"><a xlink:href="classai_1_1INetworkListener.html" target="_top" xlink:title="ai::INetworkListener">
<polygon fill="white" stroke="black" points="219,-142.5 219,-161.5 323,-161.5 323,-142.5 219,-142.5"/>
<text text-anchor="middle" x="271" y="-149.5" font-family="Helvetica,sans-Serif" font-size="10.00">ai::INetworkListener</text>
</a>
</g>
</g>
<!-- Node8&#45;&gt;Node7 -->
<g id="edge7" class="edge"><title>Node8&#45;&gt;Node7</title>
<path fill="none" stroke="#9a32cd" stroke-dasharray="5,2" d="M271,-132.156C271,-117.712 271,-98.4594 271,-87.531"/>
<polygon fill="#9a32cd" stroke="#9a32cd" points="267.5,-132.458 271,-142.458 274.5,-132.458 267.5,-132.458"/>
<text text-anchor="middle" x="292.5" y="-109.5" font-family="Helvetica,sans-Serif" font-size="10.00"> elements</text>
</g>
</g>
</svg>
