<?xml version="1.0" encoding="UTF-8" standalone="no"?>
<!DOCTYPE svg PUBLIC "-//W3C//DTD SVG 1.1//EN"
 "http://www.w3.org/Graphics/SVG/1.1/DTD/svg11.dtd">
<!-- Generated by graphviz version 2.36.0 (20140111.2315)
 -->
<!-- Title: ai::ITreeNodeFactory Pages: 1 -->
<svg width="146pt" height="164pt"
 viewBox="0.00 0.00 146.00 164.00" xmlns="http://www.w3.org/2000/svg" xmlns:xlink="http://www.w3.org/1999/xlink">
<g id="graph0" class="graph" transform="scale(1 1) rotate(0) translate(4 160)">
<title>ai::ITreeNodeFactory</title>
<polygon fill="white" stroke="none" points="-4,4 -4,-160 142,-160 142,4 -4,4"/>
<!-- Node1 -->
<g id="node1" class="node"><title>Node1</title>
<polygon fill="#bfbfbf" stroke="black" points="14.5,-68.5 14.5,-87.5 123.5,-87.5 123.5,-68.5 14.5,-68.5"/>
<text text-anchor="middle" x="69" y="-75.5" font-family="Helvetica,sans-Serif" font-size="10.00">ai::ITreeNodeFactory</text>
</g>
<!-- Node3 -->
<g id="node3" class="node"><title>Node3</title>
<g id="a_node3"><a xlink:href="classai_1_1LUATreeNode_1_1LUATreeNodeFactory.html" target="_top" xlink:title="ai::LUATreeNode::LUATree\lNodeFactory">
<polygon fill="white" stroke="black" points="0.5,-1 0.5,-31 137.5,-31 137.5,-1 0.5,-1"/>
<text text-anchor="start" x="8.5" y="-19" font-family="Helvetica,sans-Serif" font-size="10.00">ai::LUATreeNode::LUATree</text>
<text text-anchor="middle" x="69" y="-8" font-family="Helvetica,sans-Serif" font-size="10.00">NodeFactory</text>
</a>
</g>
</g>
<!-- Node1&#45;&gt;Node3 -->
<g id="edge2" class="edge"><title>Node1&#45;&gt;Node3</title>
<path fill="none" stroke="midnightblue" d="M69,-58.3707C69,-49.5849 69,-39.2721 69,-31.1408"/>
<polygon fill="midnightblue" stroke="midnightblue" points="65.5001,-58.4034 69,-68.4035 72.5001,-58.4035 65.5001,-58.4034"/>
</g>
<!-- Node2 -->
<g id="node2" class="node"><title>Node2</title>
<g id="a_node2"><a xlink:href="classai_1_1IFactory.html" target="_top" xlink:title="ai::IFactory\&lt; TreeNode,\l TreeNodeFactoryContext \&gt;">
<polygon fill="white" stroke="black" points="-0.5,-125 -0.5,-155 138.5,-155 138.5,-125 -0.5,-125"/>
<text text-anchor="start" x="7.5" y="-143" font-family="Helvetica,sans-Serif" font-size="10.00">ai::IFactory&lt; TreeNode,</text>
<text text-anchor="middle" x="69" y="-132" font-family="Helvetica,sans-Serif" font-size="10.00"> TreeNodeFactoryContext &gt;</text>
</a>
</g>
</g>
<!-- Node2&#45;&gt;Node1 -->
<g id="edge1" class="edge"><title>Node2&#45;&gt;Node1</title>
<path fill="none" stroke="midnightblue" d="M69,-114.586C69,-105.074 69,-94.7864 69,-87.7305"/>
<polygon fill="midnightblue" stroke="midnightblue" points="65.5001,-114.781 69,-124.781 72.5001,-114.781 65.5001,-114.781"/>
</g>
</g>
</svg>
