<?xml version="1.0" encoding="UTF-8" standalone="no"?>
<!DOCTYPE svg PUBLIC "-//W3C//DTD SVG 1.1//EN"
 "http://www.w3.org/Graphics/SVG/1.1/DTD/svg11.dtd">
<!-- Generated by graphviz version 2.36.0 (20140111.2315)
 -->
<!-- Title: ai::Parallel Pages: 1 -->
<svg width="308pt" height="304pt"
 viewBox="0.00 0.00 308.00 304.00" xmlns="http://www.w3.org/2000/svg" xmlns:xlink="http://www.w3.org/1999/xlink">
<g id="graph0" class="graph" transform="scale(1 1) rotate(0) translate(4 300)">
<title>ai::Parallel</title>
<polygon fill="white" stroke="none" points="-4,4 -4,-300 304,-300 304,4 -4,4"/>
<!-- Node1 -->
<g id="node1" class="node"><title>Node1</title>
<polygon fill="#bfbfbf" stroke="black" points="84,-0.5 84,-19.5 146,-19.5 146,-0.5 84,-0.5"/>
<text text-anchor="middle" x="115" y="-7.5" font-family="Helvetica,sans-Serif" font-size="10.00">ai::Parallel</text>
</g>
<!-- Node2 -->
<g id="node2" class="node"><title>Node2</title>
<g id="a_node2"><a xlink:href="classai_1_1Selector.html" target="_top" xlink:title="Base class for all type of TreeNode selectors. ">
<polygon fill="white" stroke="black" points="82,-58.5 82,-77.5 148,-77.5 148,-58.5 82,-58.5"/>
<text text-anchor="middle" x="115" y="-65.5" font-family="Helvetica,sans-Serif" font-size="10.00">ai::Selector</text>
</a>
</g>
</g>
<!-- Node2&#45;&gt;Node1 -->
<g id="edge1" class="edge"><title>Node2&#45;&gt;Node1</title>
<path fill="none" stroke="midnightblue" d="M115,-47.953C115,-38.2875 115,-27.0312 115,-19.5052"/>
<polygon fill="midnightblue" stroke="midnightblue" points="111.5,-48.25 115,-58.25 118.5,-48.25 111.5,-48.25"/>
</g>
<!-- Node3 -->
<g id="node3" class="node"><title>Node3</title>
<g id="a_node3"><a xlink:href="classai_1_1TreeNode.html" target="_top" xlink:title="The base class for all behaviour tree actions. ">
<polygon fill="white" stroke="black" points="78.5,-116.5 78.5,-135.5 151.5,-135.5 151.5,-116.5 78.5,-116.5"/>
<text text-anchor="middle" x="115" y="-123.5" font-family="Helvetica,sans-Serif" font-size="10.00">ai::TreeNode</text>
</a>
</g>
</g>
<!-- Node3&#45;&gt;Node2 -->
<g id="edge2" class="edge"><title>Node3&#45;&gt;Node2</title>
<path fill="none" stroke="midnightblue" d="M115,-105.953C115,-96.2875 115,-85.0312 115,-77.5052"/>
<polygon fill="midnightblue" stroke="midnightblue" points="111.5,-106.25 115,-116.25 118.5,-106.25 111.5,-106.25"/>
</g>
<!-- Node4 -->
<g id="node4" class="node"><title>Node4</title>
<g id="a_node4"><a xlink:href="classai_1_1__MemObject.html" target="_top" xlink:title="MemObject">
<polygon fill="white" stroke="black" points="-0.5,-206.5 -0.5,-225.5 66.5,-225.5 66.5,-206.5 -0.5,-206.5"/>
<text text-anchor="middle" x="33" y="-213.5" font-family="Helvetica,sans-Serif" font-size="10.00">MemObject</text>
</a>
</g>
</g>
<!-- Node4&#45;&gt;Node3 -->
<g id="edge3" class="edge"><title>Node4&#45;&gt;Node3</title>
<path fill="none" stroke="midnightblue" d="M48.0872,-198.809C65.4135,-180.215 93.2018,-150.393 106.871,-135.724"/>
<polygon fill="midnightblue" stroke="midnightblue" points="45.4189,-196.538 41.1623,-206.241 50.5402,-201.31 45.4189,-196.538"/>
</g>
<!-- Node5 -->
<g id="node5" class="node"><title>Node5</title>
<g id="a_node5"><a xlink:title="STL class. ">
<polygon fill="white" stroke="#bfbfbf" points="85,-206.5 85,-225.5 145,-225.5 145,-206.5 85,-206.5"/>
<text text-anchor="middle" x="115" y="-213.5" font-family="Helvetica,sans-Serif" font-size="10.00">std::string</text>
</a>
</g>
</g>
<!-- Node5&#45;&gt;Node3 -->
<g id="edge4" class="edge"><title>Node5&#45;&gt;Node3</title>
<path fill="none" stroke="#9a32cd" stroke-dasharray="5,2" d="M115,-195.978C115,-177.31 115,-149.67 115,-135.724"/>
<polygon fill="#9a32cd" stroke="#9a32cd" points="111.5,-196.24 115,-206.241 118.5,-196.241 111.5,-196.24"/>
<text text-anchor="middle" x="142.5" y="-179.5" font-family="Helvetica,sans-Serif" font-size="10.00"> _type</text>
<text text-anchor="middle" x="142.5" y="-168.5" font-family="Helvetica,sans-Serif" font-size="10.00">_name</text>
<text text-anchor="middle" x="142.5" y="-157.5" font-family="Helvetica,sans-Serif" font-size="10.00">_parameters</text>
</g>
<!-- Node6 -->
<g id="node6" class="node"><title>Node6</title>
<g id="a_node6"><a xlink:title="STL class. ">
<polygon fill="white" stroke="#bfbfbf" points="67.5,-265 67.5,-295 162.5,-295 162.5,-265 67.5,-265"/>
<text text-anchor="start" x="75.5" y="-283" font-family="Helvetica,sans-Serif" font-size="10.00">std::basic_string&lt;</text>
<text text-anchor="middle" x="115" y="-272" font-family="Helvetica,sans-Serif" font-size="10.00"> char &gt;</text>
</a>
</g>
</g>
<!-- Node6&#45;&gt;Node5 -->
<g id="edge5" class="edge"><title>Node6&#45;&gt;Node5</title>
<path fill="none" stroke="midnightblue" d="M115,-254.871C115,-244.663 115,-233.408 115,-225.842"/>
<polygon fill="midnightblue" stroke="midnightblue" points="111.5,-254.931 115,-264.931 118.5,-254.931 111.5,-254.931"/>
</g>
<!-- Node7 -->
<g id="node7" class="node"><title>Node7</title>
<polygon fill="white" stroke="#bfbfbf" points="163.5,-206.5 163.5,-225.5 300.5,-225.5 300.5,-206.5 163.5,-206.5"/>
<text text-anchor="middle" x="232" y="-213.5" font-family="Helvetica,sans-Serif" font-size="10.00">std::vector&lt; TreeNodePtr &gt;</text>
</g>
<!-- Node7&#45;&gt;Node3 -->
<g id="edge6" class="edge"><title>Node7&#45;&gt;Node3</title>
<path fill="none" stroke="#9a32cd" stroke-dasharray="5,2" d="M219.065,-198.206C208.161,-184.904 191.563,-166.535 174,-154 163.364,-146.409 150.253,-140.153 139.094,-135.582"/>
<polygon fill="#9a32cd" stroke="#9a32cd" points="216.39,-200.466 225.361,-206.104 221.864,-196.103 216.39,-200.466"/>
<text text-anchor="middle" x="231.5" y="-168.5" font-family="Helvetica,sans-Serif" font-size="10.00"> _children</text>
</g>
</g>
</svg>
