<?xml version="1.0" encoding="UTF-8" standalone="no"?>
<!DOCTYPE svg PUBLIC "-//W3C//DTD SVG 1.1//EN"
 "http://www.w3.org/Graphics/SVG/1.1/DTD/svg11.dtd">
<!-- Generated by graphviz version 2.36.0 (20140111.2315)
 -->
<!-- Title: ai::movement::LUASteering Pages: 1 -->
<svg width="223pt" height="166pt"
 viewBox="0.00 0.00 223.00 166.00" xmlns="http://www.w3.org/2000/svg" xmlns:xlink="http://www.w3.org/1999/xlink">
<g id="graph0" class="graph" transform="scale(1 1) rotate(0) translate(4 162)">
<title>ai::movement::LUASteering</title>
<polygon fill="white" stroke="none" points="-4,4 -4,-162 219,-162 219,4 -4,4"/>
<!-- Node1 -->
<g id="node1" class="node"><title>Node1</title>
<polygon fill="#bfbfbf" stroke="black" points="54.5,-0.5 54.5,-19.5 191.5,-19.5 191.5,-0.5 54.5,-0.5"/>
<text text-anchor="middle" x="123" y="-7.5" font-family="Helvetica,sans-Serif" font-size="10.00">ai::movement::LUASteering</text>
</g>
<!-- Node2 -->
<g id="node2" class="node"><title>Node2</title>
<g id="a_node2"><a xlink:href="classai_1_1movement_1_1ISteering.html" target="_top" xlink:title="Steering interface. ">
<polygon fill="white" stroke="black" points="-0.5,-68.5 -0.5,-87.5 120.5,-87.5 120.5,-68.5 -0.5,-68.5"/>
<text text-anchor="middle" x="60" y="-75.5" font-family="Helvetica,sans-Serif" font-size="10.00">ai::movement::ISteering</text>
</a>
</g>
</g>
<!-- Node2&#45;&gt;Node1 -->
<g id="edge1" class="edge"><title>Node2&#45;&gt;Node1</title>
<path fill="none" stroke="midnightblue" d="M75.2275,-61.0474C87.5757,-48.1111 104.523,-30.3567 114.561,-19.8411"/>
<polygon fill="midnightblue" stroke="midnightblue" points="72.6092,-58.7214 68.2361,-68.3717 77.6727,-63.5547 72.6092,-58.7214"/>
</g>
<!-- Node3 -->
<g id="node3" class="node"><title>Node3</title>
<g id="a_node3"><a xlink:href="classai_1_1__MemObject.html" target="_top" xlink:title="MemObject">
<polygon fill="white" stroke="black" points="26.5,-132.5 26.5,-151.5 93.5,-151.5 93.5,-132.5 26.5,-132.5"/>
<text text-anchor="middle" x="60" y="-139.5" font-family="Helvetica,sans-Serif" font-size="10.00">MemObject</text>
</a>
</g>
</g>
<!-- Node3&#45;&gt;Node2 -->
<g id="edge2" class="edge"><title>Node3&#45;&gt;Node2</title>
<path fill="none" stroke="midnightblue" d="M60,-122.037C60,-110.53 60,-96.4026 60,-87.5476"/>
<polygon fill="midnightblue" stroke="midnightblue" points="56.5001,-122.379 60,-132.379 63.5001,-122.379 56.5001,-122.379"/>
</g>
<!-- Node4 -->
<g id="node4" class="node"><title>Node4</title>
<g id="a_node4"><a xlink:title="STL class. ">
<polygon fill="white" stroke="#bfbfbf" points="138,-68.5 138,-87.5 198,-87.5 198,-68.5 138,-68.5"/>
<text text-anchor="middle" x="168" y="-75.5" font-family="Helvetica,sans-Serif" font-size="10.00">std::string</text>
</a>
</g>
</g>
<!-- Node4&#45;&gt;Node1 -->
<g id="edge3" class="edge"><title>Node4&#45;&gt;Node1</title>
<path fill="none" stroke="#9a32cd" stroke-dasharray="5,2" d="M156.367,-59.9377C147.622,-47.112 135.995,-30.0591 129.028,-19.8411"/>
<polygon fill="#9a32cd" stroke="#9a32cd" points="153.592,-62.0811 162.117,-68.3717 159.375,-58.1377 153.592,-62.0811"/>
<text text-anchor="middle" x="163" y="-41.5" font-family="Helvetica,sans-Serif" font-size="10.00"> _type</text>
</g>
<!-- Node5 -->
<g id="node5" class="node"><title>Node5</title>
<g id="a_node5"><a xlink:title="STL class. ">
<polygon fill="white" stroke="#bfbfbf" points="120.5,-127 120.5,-157 215.5,-157 215.5,-127 120.5,-127"/>
<text text-anchor="start" x="128.5" y="-145" font-family="Helvetica,sans-Serif" font-size="10.00">std::basic_string&lt;</text>
<text text-anchor="middle" x="168" y="-134" font-family="Helvetica,sans-Serif" font-size="10.00"> char &gt;</text>
</a>
</g>
</g>
<!-- Node5&#45;&gt;Node4 -->
<g id="edge4" class="edge"><title>Node5&#45;&gt;Node4</title>
<path fill="none" stroke="midnightblue" d="M168,-116.871C168,-106.663 168,-95.4077 168,-87.8419"/>
<polygon fill="midnightblue" stroke="midnightblue" points="164.5,-116.931 168,-126.931 171.5,-116.931 164.5,-116.931"/>
</g>
</g>
</svg>
