<?xml version="1.0" encoding="UTF-8" standalone="no"?>
<!DOCTYPE svg PUBLIC "-//W3C//DTD SVG 1.1//EN"
 "http://www.w3.org/Graphics/SVG/1.1/DTD/svg11.dtd">
<!-- Generated by graphviz version 2.36.0 (20140111.2315)
 -->
<!-- Title: ai::AI Pages: 1 -->
<svg width="213pt" height="96pt"
 viewBox="0.00 0.00 213.00 96.00" xmlns="http://www.w3.org/2000/svg" xmlns:xlink="http://www.w3.org/1999/xlink">
<g id="graph0" class="graph" transform="scale(1 1) rotate(0) translate(4 92)">
<title>ai::AI</title>
<polygon fill="white" stroke="none" points="-4,4 -4,-92 209,-92 209,4 -4,4"/>
<!-- Node1 -->
<g id="node1" class="node"><title>Node1</title>
<polygon fill="#bfbfbf" stroke="black" points="80,-0.5 80,-19.5 120,-19.5 120,-0.5 80,-0.5"/>
<text text-anchor="middle" x="100" y="-7.5" font-family="Helvetica,sans-Serif" font-size="10.00">ai::AI</text>
</g>
<!-- Node2 -->
<g id="node2" class="node"><title>Node2</title>
<g id="a_node2"><a xlink:href="classai_1_1NonCopyable.html" target="_top" xlink:title="ai::NonCopyable">
<polygon fill="white" stroke="black" points="-0.5,-62.5 -0.5,-81.5 88.5,-81.5 88.5,-62.5 -0.5,-62.5"/>
<text text-anchor="middle" x="44" y="-69.5" font-family="Helvetica,sans-Serif" font-size="10.00">ai::NonCopyable</text>
</a>
</g>
</g>
<!-- Node2&#45;&gt;Node1 -->
<g id="edge1" class="edge"><title>Node2&#45;&gt;Node1</title>
<path fill="none" stroke="midnightblue" d="M59.0612,-54.863C69.6607,-43.5064 83.4311,-28.7524 91.9914,-19.5806"/>
<polygon fill="midnightblue" stroke="midnightblue" points="56.2879,-52.7048 52.0234,-62.4035 61.4054,-57.481 56.2879,-52.7048"/>
</g>
<!-- Node3 -->
<g id="node3" class="node"><title>Node3</title>
<polygon fill="white" stroke="#bfbfbf" points="106.5,-57 106.5,-87 205.5,-87 205.5,-57 106.5,-57"/>
<text text-anchor="start" x="114.5" y="-75" font-family="Helvetica,sans-Serif" font-size="10.00">std::enable_shared</text>
<text text-anchor="middle" x="156" y="-64" font-family="Helvetica,sans-Serif" font-size="10.00">_from_this&lt; AI &gt;</text>
</g>
<!-- Node3&#45;&gt;Node1 -->
<g id="edge2" class="edge"><title>Node3&#45;&gt;Node1</title>
<path fill="none" stroke="midnightblue" d="M135.767,-49.3217C126.223,-39.0958 115.371,-27.4692 108.148,-19.7305"/>
<polygon fill="midnightblue" stroke="midnightblue" points="133.347,-51.8584 142.729,-56.7808 138.464,-47.0821 133.347,-51.8584"/>
</g>
</g>
</svg>
