<?xml version="1.0" encoding="UTF-8" standalone="no"?>
<!DOCTYPE svg PUBLIC "-//W3C//DTD SVG 1.1//EN"
 "http://www.w3.org/Graphics/SVG/1.1/DTD/svg11.dtd">
<!-- Generated by graphviz version 2.36.0 (20140111.2315)
 -->
<!-- Title: ai::ITask Pages: 1 -->
<svg width="80pt" height="196pt"
 viewBox="0.00 0.00 80.00 196.00" xmlns="http://www.w3.org/2000/svg" xmlns:xlink="http://www.w3.org/1999/xlink">
<g id="graph0" class="graph" transform="scale(1 1) rotate(0) translate(4 192)">
<title>ai::ITask</title>
<polygon fill="white" stroke="none" points="-4,4 -4,-192 76,-192 76,4 -4,4"/>
<!-- Node1 -->
<g id="node1" class="node"><title>Node1</title>
<polygon fill="#bfbfbf" stroke="black" points="8.5,-56.5 8.5,-75.5 63.5,-75.5 63.5,-56.5 8.5,-56.5"/>
<text text-anchor="middle" x="36" y="-63.5" font-family="Helvetica,sans-Serif" font-size="10.00">ai::ITask</text>
</g>
<!-- Node4 -->
<g id="node4" class="node"><title>Node4</title>
<g id="a_node4"><a xlink:href="classai_1_1Steer.html" target="_top" xlink:title="ai::Steer">
<polygon fill="white" stroke="black" points="9.5,-0.5 9.5,-19.5 62.5,-19.5 62.5,-0.5 9.5,-0.5"/>
<text text-anchor="middle" x="36" y="-7.5" font-family="Helvetica,sans-Serif" font-size="10.00">ai::Steer</text>
</a>
</g>
</g>
<!-- Node1&#45;&gt;Node4 -->
<g id="edge3" class="edge"><title>Node1&#45;&gt;Node4</title>
<path fill="none" stroke="midnightblue" d="M36,-45.8045C36,-36.9102 36,-26.7798 36,-19.7511"/>
<polygon fill="midnightblue" stroke="midnightblue" points="32.5001,-46.083 36,-56.083 39.5001,-46.083 32.5001,-46.083"/>
</g>
<!-- Node2 -->
<g id="node2" class="node"><title>Node2</title>
<g id="a_node2"><a xlink:href="classai_1_1TreeNode.html" target="_top" xlink:title="The base class for all behaviour tree actions. ">
<polygon fill="white" stroke="black" points="-0.5,-112.5 -0.5,-131.5 72.5,-131.5 72.5,-112.5 -0.5,-112.5"/>
<text text-anchor="middle" x="36" y="-119.5" font-family="Helvetica,sans-Serif" font-size="10.00">ai::TreeNode</text>
</a>
</g>
</g>
<!-- Node2&#45;&gt;Node1 -->
<g id="edge1" class="edge"><title>Node2&#45;&gt;Node1</title>
<path fill="none" stroke="midnightblue" d="M36,-101.805C36,-92.9102 36,-82.7798 36,-75.7511"/>
<polygon fill="midnightblue" stroke="midnightblue" points="32.5001,-102.083 36,-112.083 39.5001,-102.083 32.5001,-102.083"/>
</g>
<!-- Node3 -->
<g id="node3" class="node"><title>Node3</title>
<g id="a_node3"><a xlink:href="classai_1_1__MemObject.html" target="_top" xlink:title="MemObject">
<polygon fill="white" stroke="black" points="2.5,-168.5 2.5,-187.5 69.5,-187.5 69.5,-168.5 2.5,-168.5"/>
<text text-anchor="middle" x="36" y="-175.5" font-family="Helvetica,sans-Serif" font-size="10.00">MemObject</text>
</a>
</g>
</g>
<!-- Node3&#45;&gt;Node2 -->
<g id="edge2" class="edge"><title>Node3&#45;&gt;Node2</title>
<path fill="none" stroke="midnightblue" d="M36,-157.805C36,-148.91 36,-138.78 36,-131.751"/>
<polygon fill="midnightblue" stroke="midnightblue" points="32.5001,-158.083 36,-168.083 39.5001,-158.083 32.5001,-158.083"/>
</g>
</g>
</svg>
