<?xml version="1.0" encoding="UTF-8" standalone="no"?>
<!DOCTYPE svg PUBLIC "-//W3C//DTD SVG 1.1//EN"
 "http://www.w3.org/Graphics/SVG/1.1/DTD/svg11.dtd">
<!-- Generated by graphviz version 2.36.0 (20140111.2315)
 -->
<!-- Title: ai::AIRegistry::ConditionFactory Pages: 1 -->
<svg width="144pt" height="174pt"
 viewBox="0.00 0.00 144.00 174.00" xmlns="http://www.w3.org/2000/svg" xmlns:xlink="http://www.w3.org/1999/xlink">
<g id="graph0" class="graph" transform="scale(1 1) rotate(0) translate(4 170)">
<title>ai::AIRegistry::ConditionFactory</title>
<polygon fill="white" stroke="none" points="-4,4 -4,-170 140,-170 140,4 -4,4"/>
<!-- Node1 -->
<g id="node1" class="node"><title>Node1</title>
<polygon fill="#bfbfbf" stroke="black" points="6,-1 6,-31 130,-31 130,-1 6,-1"/>
<text text-anchor="start" x="14" y="-19" font-family="Helvetica,sans-Serif" font-size="10.00">ai::AIRegistry::Condition</text>
<text text-anchor="middle" x="68" y="-8" font-family="Helvetica,sans-Serif" font-size="10.00">Factory</text>
</g>
<!-- Node2 -->
<g id="node2" class="node"><title>Node2</title>
<g id="a_node2"><a xlink:href="classai_1_1IFactoryRegistry.html" target="_top" xlink:title="ai::IFactoryRegistry\l\&lt; std::string, ICondition,\l ConditionFactoryContext \&gt;">
<polygon fill="white" stroke="black" points="-0.5,-68.5 -0.5,-109.5 136.5,-109.5 136.5,-68.5 -0.5,-68.5"/>
<text text-anchor="start" x="7.5" y="-97.5" font-family="Helvetica,sans-Serif" font-size="10.00">ai::IFactoryRegistry</text>
<text text-anchor="start" x="7.5" y="-86.5" font-family="Helvetica,sans-Serif" font-size="10.00">&lt; std::string, ICondition,</text>
<text text-anchor="middle" x="68" y="-75.5" font-family="Helvetica,sans-Serif" font-size="10.00"> ConditionFactoryContext &gt;</text>
</a>
</g>
</g>
<!-- Node2&#45;&gt;Node1 -->
<g id="edge1" class="edge"><title>Node2&#45;&gt;Node1</title>
<path fill="none" stroke="midnightblue" d="M68,-58.0188C68,-48.6567 68,-38.7696 68,-31.0485"/>
<polygon fill="midnightblue" stroke="midnightblue" points="64.5001,-58.2225 68,-68.2225 71.5001,-58.2226 64.5001,-58.2225"/>
</g>
<!-- Node3 -->
<g id="node3" class="node"><title>Node3</title>
<g id="a_node3"><a xlink:href="classai_1_1NonCopyable.html" target="_top" xlink:title="ai::NonCopyable">
<polygon fill="white" stroke="black" points="23.5,-146.5 23.5,-165.5 112.5,-165.5 112.5,-146.5 23.5,-146.5"/>
<text text-anchor="middle" x="68" y="-153.5" font-family="Helvetica,sans-Serif" font-size="10.00">ai::NonCopyable</text>
</a>
</g>
</g>
<!-- Node3&#45;&gt;Node2 -->
<g id="edge2" class="edge"><title>Node3&#45;&gt;Node2</title>
<path fill="none" stroke="midnightblue" d="M68,-136.037C68,-127.708 68,-117.936 68,-109.542"/>
<polygon fill="midnightblue" stroke="midnightblue" points="64.5001,-136.234 68,-146.234 71.5001,-136.234 64.5001,-136.234"/>
</g>
</g>
</svg>
