<?xml version="1.0" encoding="UTF-8" standalone="no"?>
<!DOCTYPE svg PUBLIC "-//W3C//DTD SVG 1.1//EN"
 "http://www.w3.org/Graphics/SVG/1.1/DTD/svg11.dtd">
<!-- Generated by graphviz version 2.36.0 (20140111.2315)
 -->
<!-- Title: ai::movement::SelectionSteering Pages: 1 -->
<svg width="311pt" height="196pt"
 viewBox="0.00 0.00 311.00 196.00" xmlns="http://www.w3.org/2000/svg" xmlns:xlink="http://www.w3.org/1999/xlink">
<g id="graph0" class="graph" transform="scale(1 1) rotate(0) translate(4 192)">
<title>ai::movement::SelectionSteering</title>
<polygon fill="white" stroke="none" points="-4,4 -4,-192 307,-192 307,4 -4,4"/>
<!-- Node1 -->
<g id="node1" class="node"><title>Node1</title>
<polygon fill="#bfbfbf" stroke="black" points="71,-56.5 71,-75.5 229,-75.5 229,-56.5 71,-56.5"/>
<text text-anchor="middle" x="150" y="-63.5" font-family="Helvetica,sans-Serif" font-size="10.00">ai::movement::SelectionSteering</text>
</g>
<!-- Node4 -->
<g id="node4" class="node"><title>Node4</title>
<g id="a_node4"><a xlink:href="classai_1_1movement_1_1SelectionFlee.html" target="_top" xlink:title="Flees the current IFilter selection from the given ICharacter. ">
<polygon fill="white" stroke="black" points="-0.5,-0.5 -0.5,-19.5 140.5,-19.5 140.5,-0.5 -0.5,-0.5"/>
<text text-anchor="middle" x="70" y="-7.5" font-family="Helvetica,sans-Serif" font-size="10.00">ai::movement::SelectionFlee</text>
</a>
</g>
</g>
<!-- Node1&#45;&gt;Node4 -->
<g id="edge3" class="edge"><title>Node1&#45;&gt;Node4</title>
<path fill="none" stroke="midnightblue" d="M128.699,-50.6221C114.085,-40.7574 95.1732,-27.9919 82.8215,-19.6545"/>
<polygon fill="midnightblue" stroke="midnightblue" points="126.9,-53.6302 137.147,-56.324 130.816,-47.8282 126.9,-53.6302"/>
</g>
<!-- Node5 -->
<g id="node5" class="node"><title>Node5</title>
<g id="a_node5"><a xlink:href="classai_1_1movement_1_1SelectionSeek.html" target="_top" xlink:title="Seeks the current IFilter selection from the given ICharacter. ">
<polygon fill="white" stroke="black" points="158.5,-0.5 158.5,-19.5 303.5,-19.5 303.5,-0.5 158.5,-0.5"/>
<text text-anchor="middle" x="231" y="-7.5" font-family="Helvetica,sans-Serif" font-size="10.00">ai::movement::SelectionSeek</text>
</a>
</g>
</g>
<!-- Node1&#45;&gt;Node5 -->
<g id="edge4" class="edge"><title>Node1&#45;&gt;Node5</title>
<path fill="none" stroke="midnightblue" d="M171.567,-50.6221C186.364,-40.7574 205.512,-27.9919 218.018,-19.6545"/>
<polygon fill="midnightblue" stroke="midnightblue" points="169.393,-47.8647 163.014,-56.324 173.276,-53.6891 169.393,-47.8647"/>
</g>
<!-- Node2 -->
<g id="node2" class="node"><title>Node2</title>
<g id="a_node2"><a xlink:href="classai_1_1movement_1_1ISteering.html" target="_top" xlink:title="Steering interface. ">
<polygon fill="white" stroke="black" points="89.5,-112.5 89.5,-131.5 210.5,-131.5 210.5,-112.5 89.5,-112.5"/>
<text text-anchor="middle" x="150" y="-119.5" font-family="Helvetica,sans-Serif" font-size="10.00">ai::movement::ISteering</text>
</a>
</g>
</g>
<!-- Node2&#45;&gt;Node1 -->
<g id="edge1" class="edge"><title>Node2&#45;&gt;Node1</title>
<path fill="none" stroke="midnightblue" d="M150,-101.805C150,-92.9102 150,-82.7798 150,-75.7511"/>
<polygon fill="midnightblue" stroke="midnightblue" points="146.5,-102.083 150,-112.083 153.5,-102.083 146.5,-102.083"/>
</g>
<!-- Node3 -->
<g id="node3" class="node"><title>Node3</title>
<g id="a_node3"><a xlink:href="classai_1_1__MemObject.html" target="_top" xlink:title="MemObject">
<polygon fill="white" stroke="black" points="116.5,-168.5 116.5,-187.5 183.5,-187.5 183.5,-168.5 116.5,-168.5"/>
<text text-anchor="middle" x="150" y="-175.5" font-family="Helvetica,sans-Serif" font-size="10.00">MemObject</text>
</a>
</g>
</g>
<!-- Node3&#45;&gt;Node2 -->
<g id="edge2" class="edge"><title>Node3&#45;&gt;Node2</title>
<path fill="none" stroke="midnightblue" d="M150,-157.805C150,-148.91 150,-138.78 150,-131.751"/>
<polygon fill="midnightblue" stroke="midnightblue" points="146.5,-158.083 150,-168.083 153.5,-158.083 146.5,-158.083"/>
</g>
</g>
</svg>
