<?xml version="1.0" encoding="UTF-8" standalone="no"?>
<!DOCTYPE svg PUBLIC "-//W3C//DTD SVG 1.1//EN"
 "http://www.w3.org/Graphics/SVG/1.1/DTD/svg11.dtd">
<!-- Generated by graphviz version 2.36.0 (20140111.2315)
 -->
<!-- Title: ai::Selector Pages: 1 -->
<svg width="436pt" height="180pt"
 viewBox="0.00 0.00 436.00 180.00" xmlns="http://www.w3.org/2000/svg" xmlns:xlink="http://www.w3.org/1999/xlink">
<g id="graph0" class="graph" transform="scale(1 1) rotate(0) translate(4 176)">
<title>ai::Selector</title>
<polygon fill="white" stroke="none" points="-4,4 -4,-176 432,-176 432,4 -4,4"/>
<!-- Node1 -->
<g id="node1" class="node"><title>Node1</title>
<polygon fill="#bfbfbf" stroke="black" points="214,-76.5 214,-95.5 280,-95.5 280,-76.5 214,-76.5"/>
<text text-anchor="middle" x="247" y="-83.5" font-family="Helvetica,sans-Serif" font-size="10.00">ai::Selector</text>
</g>
<!-- Node4 -->
<g id="node4" class="node"><title>Node4</title>
<g id="a_node4"><a xlink:href="classai_1_1Parallel.html" target="_top" xlink:title="Executes all the connected children in the order they were added (no matter what the TreeNodeStatus o...">
<polygon fill="white" stroke="black" points="341,-152.5 341,-171.5 403,-171.5 403,-152.5 341,-152.5"/>
<text text-anchor="middle" x="372" y="-159.5" font-family="Helvetica,sans-Serif" font-size="10.00">ai::Parallel</text>
</a>
</g>
</g>
<!-- Node1&#45;&gt;Node4 -->
<g id="edge3" class="edge"><title>Node1&#45;&gt;Node4</title>
<path fill="none" stroke="midnightblue" d="M264.548,-102.885C277.569,-115.381 296.684,-132.065 316,-143 323.648,-147.33 332.451,-150.911 340.739,-153.753"/>
<polygon fill="midnightblue" stroke="midnightblue" points="266.864,-100.253 257.281,-95.7337 261.954,-105.242 266.864,-100.253"/>
</g>
<!-- Node5 -->
<g id="node5" class="node"><title>Node5</title>
<g id="a_node5"><a xlink:href="classai_1_1PrioritySelector.html" target="_top" xlink:title="This node tries to execute all the attached children until one succeeds. This composite only fails if...">
<polygon fill="white" stroke="black" points="323.5,-114.5 323.5,-133.5 420.5,-133.5 420.5,-114.5 323.5,-114.5"/>
<text text-anchor="middle" x="372" y="-121.5" font-family="Helvetica,sans-Serif" font-size="10.00">ai::PrioritySelector</text>
</a>
</g>
</g>
<!-- Node1&#45;&gt;Node5 -->
<g id="edge4" class="edge"><title>Node1&#45;&gt;Node5</title>
<path fill="none" stroke="midnightblue" d="M289.045,-98.6804C305.664,-103.815 324.532,-109.644 339.972,-114.414"/>
<polygon fill="midnightblue" stroke="midnightblue" points="289.626,-95.1968 279.038,-95.589 287.559,-101.885 289.626,-95.1968"/>
</g>
<!-- Node6 -->
<g id="node6" class="node"><title>Node6</title>
<g id="a_node6"><a xlink:href="classai_1_1ProbabilitySelector.html" target="_top" xlink:title="This node executes one of the attached children randomly based on the given weights. The node is executed until it is no longer in the running state. ">
<polygon fill="white" stroke="black" points="316,-76.5 316,-95.5 428,-95.5 428,-76.5 316,-76.5"/>
<text text-anchor="middle" x="372" y="-83.5" font-family="Helvetica,sans-Serif" font-size="10.00">ai::ProbabilitySelector</text>
</a>
</g>
</g>
<!-- Node1&#45;&gt;Node6 -->
<g id="edge5" class="edge"><title>Node1&#45;&gt;Node6</title>
<path fill="none" stroke="midnightblue" d="M290.318,-86C298.463,-86 307.107,-86 315.595,-86"/>
<polygon fill="midnightblue" stroke="midnightblue" points="290.317,-82.5001 280.317,-86 290.317,-89.5001 290.317,-82.5001"/>
</g>
<!-- Node7 -->
<g id="node7" class="node"><title>Node7</title>
<g id="a_node7"><a xlink:href="classai_1_1RandomSelector.html" target="_top" xlink:title="This node executes all the attached children in random order. This composite only fails if all childr...">
<polygon fill="white" stroke="black" points="320.5,-38.5 320.5,-57.5 423.5,-57.5 423.5,-38.5 320.5,-38.5"/>
<text text-anchor="middle" x="372" y="-45.5" font-family="Helvetica,sans-Serif" font-size="10.00">ai::RandomSelector</text>
</a>
</g>
</g>
<!-- Node1&#45;&gt;Node7 -->
<g id="edge6" class="edge"><title>Node1&#45;&gt;Node7</title>
<path fill="none" stroke="midnightblue" d="M289.045,-73.3196C305.664,-68.1852 324.532,-62.3559 339.972,-57.5859"/>
<polygon fill="midnightblue" stroke="midnightblue" points="287.559,-70.1151 279.038,-76.411 289.626,-76.8032 287.559,-70.1151"/>
</g>
<!-- Node8 -->
<g id="node8" class="node"><title>Node8</title>
<g id="a_node8"><a xlink:href="classai_1_1Sequence.html" target="_top" xlink:title="The sequence continues to execute their children until one of the children returned a state that is n...">
<polygon fill="white" stroke="black" points="335,-0.5 335,-19.5 409,-19.5 409,-0.5 335,-0.5"/>
<text text-anchor="middle" x="372" y="-7.5" font-family="Helvetica,sans-Serif" font-size="10.00">ai::Sequence</text>
</a>
</g>
</g>
<!-- Node1&#45;&gt;Node8 -->
<g id="edge7" class="edge"><title>Node1&#45;&gt;Node8</title>
<path fill="none" stroke="midnightblue" d="M264.548,-69.1154C277.569,-56.6189 296.684,-39.9351 316,-29 322.506,-25.3172 329.846,-22.1759 336.995,-19.5708"/>
<polygon fill="midnightblue" stroke="midnightblue" points="261.954,-66.7576 257.281,-76.2663 266.864,-71.747 261.954,-66.7576"/>
</g>
<!-- Node2 -->
<g id="node2" class="node"><title>Node2</title>
<g id="a_node2"><a xlink:href="classai_1_1TreeNode.html" target="_top" xlink:title="The base class for all behaviour tree actions. ">
<polygon fill="white" stroke="black" points="104.5,-76.5 104.5,-95.5 177.5,-95.5 177.5,-76.5 104.5,-76.5"/>
<text text-anchor="middle" x="141" y="-83.5" font-family="Helvetica,sans-Serif" font-size="10.00">ai::TreeNode</text>
</a>
</g>
</g>
<!-- Node2&#45;&gt;Node1 -->
<g id="edge1" class="edge"><title>Node2&#45;&gt;Node1</title>
<path fill="none" stroke="midnightblue" d="M187.667,-86C196.476,-86 205.532,-86 213.802,-86"/>
<polygon fill="midnightblue" stroke="midnightblue" points="187.5,-82.5001 177.5,-86 187.5,-89.5001 187.5,-82.5001"/>
</g>
<!-- Node3 -->
<g id="node3" class="node"><title>Node3</title>
<g id="a_node3"><a xlink:href="classai_1_1__MemObject.html" target="_top" xlink:title="MemObject">
<polygon fill="white" stroke="black" points="0.5,-76.5 0.5,-95.5 67.5,-95.5 67.5,-76.5 0.5,-76.5"/>
<text text-anchor="middle" x="34" y="-83.5" font-family="Helvetica,sans-Serif" font-size="10.00">MemObject</text>
</a>
</g>
</g>
<!-- Node3&#45;&gt;Node2 -->
<g id="edge2" class="edge"><title>Node3&#45;&gt;Node2</title>
<path fill="none" stroke="midnightblue" d="M77.8028,-86C86.657,-86 95.8925,-86 104.454,-86"/>
<polygon fill="midnightblue" stroke="midnightblue" points="77.6471,-82.5001 67.6471,-86 77.6471,-89.5001 77.6471,-82.5001"/>
</g>
</g>
</svg>
