<?xml version="1.0" encoding="UTF-8" standalone="no"?>
<!DOCTYPE svg PUBLIC "-//W3C//DTD SVG 1.1//EN"
 "http://www.w3.org/Graphics/SVG/1.1/DTD/svg11.dtd">
<!-- Generated by graphviz version 2.36.0 (20140111.2315)
 -->
<!-- Title: ai::movement::LUASteering::LUASteeringFactory Pages: 1 -->
<svg width="144pt" height="174pt"
 viewBox="0.00 0.00 144.00 174.00" xmlns="http://www.w3.org/2000/svg" xmlns:xlink="http://www.w3.org/1999/xlink">
<g id="graph0" class="graph" transform="scale(1 1) rotate(0) translate(4 170)">
<title>ai::movement::LUASteering::LUASteeringFactory</title>
<polygon fill="white" stroke="none" points="-4,4 -4,-170 140,-170 140,4 -4,4"/>
<!-- Node1 -->
<g id="node1" class="node"><title>Node1</title>
<polygon fill="#bfbfbf" stroke="black" points="-0.5,-1 -0.5,-31 136.5,-31 136.5,-1 -0.5,-1"/>
<text text-anchor="start" x="7.5" y="-19" font-family="Helvetica,sans-Serif" font-size="10.00">ai::movement::LUASteering</text>
<text text-anchor="middle" x="68" y="-8" font-family="Helvetica,sans-Serif" font-size="10.00">::LUASteeringFactory</text>
</g>
<!-- Node2 -->
<g id="node2" class="node"><title>Node2</title>
<g id="a_node2"><a xlink:href="classai_1_1ISteeringFactory.html" target="_top" xlink:title="ai::ISteeringFactory">
<polygon fill="white" stroke="black" points="17,-68.5 17,-87.5 119,-87.5 119,-68.5 17,-68.5"/>
<text text-anchor="middle" x="68" y="-75.5" font-family="Helvetica,sans-Serif" font-size="10.00">ai::ISteeringFactory</text>
</a>
</g>
</g>
<!-- Node2&#45;&gt;Node1 -->
<g id="edge1" class="edge"><title>Node2&#45;&gt;Node1</title>
<path fill="none" stroke="midnightblue" d="M68,-58.3707C68,-49.5849 68,-39.2721 68,-31.1408"/>
<polygon fill="midnightblue" stroke="midnightblue" points="64.5001,-58.4034 68,-68.4035 71.5001,-58.4035 64.5001,-58.4034"/>
</g>
<!-- Node3 -->
<g id="node3" class="node"><title>Node3</title>
<g id="a_node3"><a xlink:href="classai_1_1IFactory.html" target="_top" xlink:title="ai::IFactory\&lt; movement\l::ISteering, SteeringFactory\lContext \&gt;">
<polygon fill="white" stroke="black" points="-0.5,-124.5 -0.5,-165.5 136.5,-165.5 136.5,-124.5 -0.5,-124.5"/>
<text text-anchor="start" x="7.5" y="-153.5" font-family="Helvetica,sans-Serif" font-size="10.00">ai::IFactory&lt; movement</text>
<text text-anchor="start" x="7.5" y="-142.5" font-family="Helvetica,sans-Serif" font-size="10.00">::ISteering, SteeringFactory</text>
<text text-anchor="middle" x="68" y="-131.5" font-family="Helvetica,sans-Serif" font-size="10.00">Context &gt;</text>
</a>
</g>
</g>
<!-- Node3&#45;&gt;Node2 -->
<g id="edge2" class="edge"><title>Node3&#45;&gt;Node2</title>
<path fill="none" stroke="midnightblue" d="M68,-114.263C68,-104.559 68,-94.5242 68,-87.6525"/>
<polygon fill="midnightblue" stroke="midnightblue" points="64.5001,-114.498 68,-124.498 71.5001,-114.498 64.5001,-114.498"/>
</g>
</g>
</svg>
