<?xml version="1.0" encoding="UTF-8" standalone="no"?>
<!DOCTYPE svg PUBLIC "-//W3C//DTD SVG 1.1//EN"
 "http://www.w3.org/Graphics/SVG/1.1/DTD/svg11.dtd">
<!-- Generated by graphviz version 2.36.0 (20140111.2315)
 -->
<!-- Title: ai::AIRegistry::TreeNodeFactory Pages: 1 -->
<svg width="958pt" height="101pt"
 viewBox="0.00 0.00 958.00 101.00" xmlns="http://www.w3.org/2000/svg" xmlns:xlink="http://www.w3.org/1999/xlink">
<g id="graph0" class="graph" transform="scale(1 1) rotate(0) translate(4 97)">
<title>ai::AIRegistry::TreeNodeFactory</title>
<polygon fill="white" stroke="none" points="-4,4 -4,-97 954,-97 954,4 -4,4"/>
<!-- Node1 -->
<g id="node1" class="node"><title>Node1</title>
<polygon fill="#bfbfbf" stroke="black" points="824.5,-49 824.5,-79 949.5,-79 949.5,-49 824.5,-49"/>
<text text-anchor="start" x="832.5" y="-67" font-family="Helvetica,sans-Serif" font-size="10.00">ai::AIRegistry::TreeNode</text>
<text text-anchor="middle" x="887" y="-56" font-family="Helvetica,sans-Serif" font-size="10.00">Factory</text>
</g>
<!-- Node2 -->
<g id="node2" class="node"><title>Node2</title>
<g id="a_node2"><a xlink:href="classai_1_1IFactoryRegistry.html" target="_top" xlink:title="ai::IFactoryRegistry\l\&lt; std::string, TreeNode,\l TreeNodeFactoryContext \&gt;">
<polygon fill="white" stroke="black" points="646.5,-43.5 646.5,-84.5 785.5,-84.5 785.5,-43.5 646.5,-43.5"/>
<text text-anchor="start" x="654.5" y="-72.5" font-family="Helvetica,sans-Serif" font-size="10.00">ai::IFactoryRegistry</text>
<text text-anchor="start" x="654.5" y="-61.5" font-family="Helvetica,sans-Serif" font-size="10.00">&lt; std::string, TreeNode,</text>
<text text-anchor="middle" x="716" y="-50.5" font-family="Helvetica,sans-Serif" font-size="10.00"> TreeNodeFactoryContext &gt;</text>
</a>
</g>
</g>
<!-- Node2&#45;&gt;Node1 -->
<g id="edge1" class="edge"><title>Node2&#45;&gt;Node1</title>
<path fill="none" stroke="midnightblue" d="M796.017,-64C805.543,-64 815.163,-64 824.389,-64"/>
<polygon fill="midnightblue" stroke="midnightblue" points="795.739,-60.5001 785.739,-64 795.739,-67.5001 795.739,-60.5001"/>
</g>
<!-- Node3 -->
<g id="node3" class="node"><title>Node3</title>
<g id="a_node3"><a xlink:href="classai_1_1NonCopyable.html" target="_top" xlink:title="ai::NonCopyable">
<polygon fill="white" stroke="black" points="414.5,-73.5 414.5,-92.5 503.5,-92.5 503.5,-73.5 414.5,-73.5"/>
<text text-anchor="middle" x="459" y="-80.5" font-family="Helvetica,sans-Serif" font-size="10.00">ai::NonCopyable</text>
</a>
</g>
</g>
<!-- Node3&#45;&gt;Node2 -->
<g id="edge2" class="edge"><title>Node3&#45;&gt;Node2</title>
<path fill="none" stroke="midnightblue" d="M513.539,-79.0108C552.111,-76.1368 604.487,-72.2343 646.167,-69.1287"/>
<polygon fill="midnightblue" stroke="midnightblue" points="513.259,-75.5219 503.546,-79.7554 513.779,-82.5026 513.259,-75.5219"/>
</g>
<!-- Node4 -->
<g id="node4" class="node"><title>Node4</title>
<polygon fill="white" stroke="#bfbfbf" points="354.5,-13.5 354.5,-54.5 563.5,-54.5 563.5,-13.5 354.5,-13.5"/>
<text text-anchor="start" x="362.5" y="-42.5" font-family="Helvetica,sans-Serif" font-size="10.00">std::map&lt; const std</text>
<text text-anchor="start" x="362.5" y="-31.5" font-family="Helvetica,sans-Serif" font-size="10.00">::string, const IFactory</text>
<text text-anchor="middle" x="459" y="-20.5" font-family="Helvetica,sans-Serif" font-size="10.00">&lt; TreeNode, TreeNodeFactoryContext &gt; * &gt;</text>
</g>
<!-- Node4&#45;&gt;Node2 -->
<g id="edge3" class="edge"><title>Node4&#45;&gt;Node2</title>
<path fill="none" stroke="#9a32cd" stroke-dasharray="5,2" d="M573.896,-47.3995C598.639,-50.3104 624.073,-53.3026 646.413,-55.931"/>
<polygon fill="#9a32cd" stroke="#9a32cd" points="574.059,-43.8946 563.718,-46.2021 573.241,-50.8467 574.059,-43.8946"/>
<text text-anchor="middle" x="605" y="-57" font-family="Helvetica,sans-Serif" font-size="10.00"> _factories</text>
</g>
<!-- Node5 -->
<g id="node5" class="node"><title>Node5</title>
<g id="a_node5"><a xlink:title="STL class. ">
<polygon fill="white" stroke="#bfbfbf" points="174,-49.5 174,-68.5 234,-68.5 234,-49.5 174,-49.5"/>
<text text-anchor="middle" x="204" y="-56.5" font-family="Helvetica,sans-Serif" font-size="10.00">std::string</text>
</a>
</g>
</g>
<!-- Node5&#45;&gt;Node4 -->
<g id="edge4" class="edge"><title>Node5&#45;&gt;Node4</title>
<path fill="none" stroke="#9a32cd" stroke-dasharray="5,2" d="M244.304,-55.1162C273.802,-52.2014 315.619,-48.0693 354.451,-44.2321"/>
<polygon fill="#9a32cd" stroke="#9a32cd" points="243.63,-51.6657 234.022,-56.1322 244.318,-58.6318 243.63,-51.6657"/>
<text text-anchor="middle" x="314" y="-54" font-family="Helvetica,sans-Serif" font-size="10.00"> keys</text>
</g>
<!-- Node6 -->
<g id="node6" class="node"><title>Node6</title>
<g id="a_node6"><a xlink:title="STL class. ">
<polygon fill="white" stroke="#bfbfbf" points="0.5,-44 0.5,-74 95.5,-74 95.5,-44 0.5,-44"/>
<text text-anchor="start" x="8.5" y="-62" font-family="Helvetica,sans-Serif" font-size="10.00">std::basic_string&lt;</text>
<text text-anchor="middle" x="48" y="-51" font-family="Helvetica,sans-Serif" font-size="10.00"> char &gt;</text>
</a>
</g>
</g>
<!-- Node6&#45;&gt;Node5 -->
<g id="edge5" class="edge"><title>Node6&#45;&gt;Node5</title>
<path fill="none" stroke="midnightblue" d="M105.717,-59C128.911,-59 154.75,-59 173.966,-59"/>
<polygon fill="midnightblue" stroke="midnightblue" points="105.623,-55.5001 95.623,-59 105.623,-62.5001 105.623,-55.5001"/>
</g>
<!-- Node7 -->
<g id="node7" class="node"><title>Node7</title>
<g id="a_node7"><a xlink:href="classai_1_1IFactory.html" target="_top" xlink:title="ai::IFactory\&lt; TreeNode,\l TreeNodeFactoryContext \&gt;">
<polygon fill="white" stroke="black" points="134.5,-0 134.5,-30 273.5,-30 273.5,-0 134.5,-0"/>
<text text-anchor="start" x="142.5" y="-18" font-family="Helvetica,sans-Serif" font-size="10.00">ai::IFactory&lt; TreeNode,</text>
<text text-anchor="middle" x="204" y="-7" font-family="Helvetica,sans-Serif" font-size="10.00"> TreeNodeFactoryContext &gt;</text>
</a>
</g>
</g>
<!-- Node7&#45;&gt;Node4 -->
<g id="edge6" class="edge"><title>Node7&#45;&gt;Node4</title>
<path fill="none" stroke="#9a32cd" stroke-dasharray="5,2" d="M283.741,-17.8337C300.974,-18.6695 319.111,-19.7146 336,-21 341.947,-21.4526 348.052,-21.9617 354.211,-22.5096"/>
<polygon fill="#9a32cd" stroke="#9a32cd" points="283.868,-14.3359 273.715,-17.3655 283.541,-21.3283 283.868,-14.3359"/>
<text text-anchor="middle" x="314" y="-24" font-family="Helvetica,sans-Serif" font-size="10.00"> elements</text>
</g>
</g>
</svg>
