<?xml version="1.0" encoding="UTF-8" standalone="no"?>
<!DOCTYPE svg PUBLIC "-//W3C//DTD SVG 1.1//EN"
 "http://www.w3.org/Graphics/SVG/1.1/DTD/svg11.dtd">
<!-- Generated by graphviz version 2.36.0 (20140111.2315)
 -->
<!-- Title: ai::Random Pages: 1 -->
<svg width="167pt" height="96pt"
 viewBox="0.00 0.00 167.00 96.00" xmlns="http://www.w3.org/2000/svg" xmlns:xlink="http://www.w3.org/1999/xlink">
<g id="graph0" class="graph" transform="scale(1 1) rotate(0) translate(4 92)">
<title>ai::Random</title>
<polygon fill="white" stroke="none" points="-4,4 -4,-92 163,-92 163,4 -4,4"/>
<!-- Node1 -->
<g id="node1" class="node"><title>Node1</title>
<polygon fill="#bfbfbf" stroke="black" points="30.5,-0.5 30.5,-19.5 97.5,-19.5 97.5,-0.5 30.5,-0.5"/>
<text text-anchor="middle" x="64" y="-7.5" font-family="Helvetica,sans-Serif" font-size="10.00">ai::Random</text>
</g>
<!-- Node2 -->
<g id="node2" class="node"><title>Node2</title>
<polygon fill="white" stroke="#bfbfbf" points="-0.5,-68.5 -0.5,-87.5 40.5,-87.5 40.5,-68.5 -0.5,-68.5"/>
<text text-anchor="middle" x="20" y="-75.5" font-family="Helvetica,sans-Serif" font-size="10.00">IFilter</text>
</g>
<!-- Node2&#45;&gt;Node1 -->
<g id="edge1" class="edge"><title>Node2&#45;&gt;Node1</title>
<path fill="none" stroke="midnightblue" d="M31.3748,-59.9377C39.9254,-47.112 51.2939,-30.0591 58.1059,-19.8411"/>
<polygon fill="midnightblue" stroke="midnightblue" points="28.3871,-58.1097 25.7522,-68.3717 34.2115,-61.9926 28.3871,-58.1097"/>
</g>
<!-- Node3 -->
<g id="node3" class="node"><title>Node3</title>
<polygon fill="white" stroke="#bfbfbf" points="58.5,-68.5 58.5,-87.5 159.5,-87.5 159.5,-68.5 58.5,-68.5"/>
<text text-anchor="middle" x="109" y="-75.5" font-family="Helvetica,sans-Serif" font-size="10.00">std::list&lt; FilterPtr &gt;</text>
</g>
<!-- Node3&#45;&gt;Node1 -->
<g id="edge2" class="edge"><title>Node3&#45;&gt;Node1</title>
<path fill="none" stroke="#9a32cd" stroke-dasharray="5,2" d="M97.3666,-59.9377C88.6218,-47.112 76.9949,-30.0591 70.028,-19.8411"/>
<polygon fill="#9a32cd" stroke="#9a32cd" points="94.5918,-62.0811 103.117,-68.3717 100.375,-58.1377 94.5918,-62.0811"/>
<text text-anchor="middle" x="106.5" y="-41.5" font-family="Helvetica,sans-Serif" font-size="10.00"> _filters</text>
</g>
</g>
</svg>
