<?xml version="1.0" encoding="UTF-8" standalone="no"?>
<!DOCTYPE svg PUBLIC "-//W3C//DTD SVG 1.1//EN"
 "http://www.w3.org/Graphics/SVG/1.1/DTD/svg11.dtd">
<!-- Generated by graphviz version 2.36.0 (20140111.2315)
 -->
<!-- Title: ai::AIRegistry::SteeringFactory Pages: 1 -->
<svg width="928pt" height="116pt"
 viewBox="0.00 0.00 928.00 116.00" xmlns="http://www.w3.org/2000/svg" xmlns:xlink="http://www.w3.org/1999/xlink">
<g id="graph0" class="graph" transform="scale(1 1) rotate(0) translate(4 112)">
<title>ai::AIRegistry::SteeringFactory</title>
<polygon fill="white" stroke="none" points="-4,4 -4,-112 924,-112 924,4 -4,4"/>
<!-- Node1 -->
<g id="node1" class="node"><title>Node1</title>
<polygon fill="#bfbfbf" stroke="black" points="800.5,-63 800.5,-93 919.5,-93 919.5,-63 800.5,-63"/>
<text text-anchor="start" x="808.5" y="-81" font-family="Helvetica,sans-Serif" font-size="10.00">ai::AIRegistry::Steering</text>
<text text-anchor="middle" x="860" y="-70" font-family="Helvetica,sans-Serif" font-size="10.00">Factory</text>
</g>
<!-- Node2 -->
<g id="node2" class="node"><title>Node2</title>
<g id="a_node2"><a xlink:href="classai_1_1IFactoryRegistry.html" target="_top" xlink:title="ai::IFactoryRegistry\l\&lt; std::string, movement\l::ISteering, SteeringFactoryContext \&gt;">
<polygon fill="white" stroke="black" points="582,-57.5 582,-98.5 762,-98.5 762,-57.5 582,-57.5"/>
<text text-anchor="start" x="590" y="-86.5" font-family="Helvetica,sans-Serif" font-size="10.00">ai::IFactoryRegistry</text>
<text text-anchor="start" x="590" y="-75.5" font-family="Helvetica,sans-Serif" font-size="10.00">&lt; std::string, movement</text>
<text text-anchor="middle" x="672" y="-64.5" font-family="Helvetica,sans-Serif" font-size="10.00">::ISteering, SteeringFactoryContext &gt;</text>
</a>
</g>
</g>
<!-- Node2&#45;&gt;Node1 -->
<g id="edge1" class="edge"><title>Node2&#45;&gt;Node1</title>
<path fill="none" stroke="midnightblue" d="M772.212,-78C781.819,-78 791.336,-78 800.353,-78"/>
<polygon fill="midnightblue" stroke="midnightblue" points="772.187,-74.5001 762.186,-78 772.186,-81.5001 772.187,-74.5001"/>
</g>
<!-- Node3 -->
<g id="node3" class="node"><title>Node3</title>
<g id="a_node3"><a xlink:href="classai_1_1NonCopyable.html" target="_top" xlink:title="ai::NonCopyable">
<polygon fill="white" stroke="black" points="381.5,-88.5 381.5,-107.5 470.5,-107.5 470.5,-88.5 381.5,-88.5"/>
<text text-anchor="middle" x="426" y="-95.5" font-family="Helvetica,sans-Serif" font-size="10.00">ai::NonCopyable</text>
</a>
</g>
</g>
<!-- Node3&#45;&gt;Node2 -->
<g id="edge2" class="edge"><title>Node3&#45;&gt;Node2</title>
<path fill="none" stroke="midnightblue" d="M480.749,-93.5944C510.364,-91.1669 547.891,-88.0909 581.775,-85.3135"/>
<polygon fill="midnightblue" stroke="midnightblue" points="480.303,-90.1191 470.622,-94.4244 480.875,-97.0957 480.303,-90.1191"/>
</g>
<!-- Node4 -->
<g id="node4" class="node"><title>Node4</title>
<polygon fill="white" stroke="#bfbfbf" points="352,-17 352,-69 500,-69 500,-17 352,-17"/>
<text text-anchor="start" x="360" y="-57" font-family="Helvetica,sans-Serif" font-size="10.00">std::map&lt; const std</text>
<text text-anchor="start" x="360" y="-46" font-family="Helvetica,sans-Serif" font-size="10.00">::string, const IFactory</text>
<text text-anchor="start" x="360" y="-35" font-family="Helvetica,sans-Serif" font-size="10.00">&lt; movement::ISteering,</text>
<text text-anchor="middle" x="426" y="-24" font-family="Helvetica,sans-Serif" font-size="10.00"> SteeringFactoryContext &gt; * &gt;</text>
</g>
<!-- Node4&#45;&gt;Node2 -->
<g id="edge3" class="edge"><title>Node4&#45;&gt;Node2</title>
<path fill="none" stroke="#9a32cd" stroke-dasharray="5,2" d="M510.302,-54.9491C533.372,-58.2583 558.501,-61.8629 581.888,-65.2176"/>
<polygon fill="#9a32cd" stroke="#9a32cd" points="510.604,-51.4566 500.208,-53.5012 509.61,-58.3857 510.604,-51.4566"/>
<text text-anchor="middle" x="541" y="-65" font-family="Helvetica,sans-Serif" font-size="10.00"> _factories</text>
</g>
<!-- Node5 -->
<g id="node5" class="node"><title>Node5</title>
<g id="a_node5"><a xlink:href="classai_1_1IFactory.html" target="_top" xlink:title="ai::IFactory\&lt; movement\l::ISteering, SteeringFactory\lContext \&gt;">
<polygon fill="white" stroke="black" points="134.5,-43.5 134.5,-84.5 271.5,-84.5 271.5,-43.5 134.5,-43.5"/>
<text text-anchor="start" x="142.5" y="-72.5" font-family="Helvetica,sans-Serif" font-size="10.00">ai::IFactory&lt; movement</text>
<text text-anchor="start" x="142.5" y="-61.5" font-family="Helvetica,sans-Serif" font-size="10.00">::ISteering, SteeringFactory</text>
<text text-anchor="middle" x="203" y="-50.5" font-family="Helvetica,sans-Serif" font-size="10.00">Context &gt;</text>
</a>
</g>
</g>
<!-- Node5&#45;&gt;Node4 -->
<g id="edge4" class="edge"><title>Node5&#45;&gt;Node4</title>
<path fill="none" stroke="#9a32cd" stroke-dasharray="5,2" d="M281.49,-56.6367C304.314,-54.4679 329.207,-52.1025 351.756,-49.9599"/>
<polygon fill="#9a32cd" stroke="#9a32cd" points="281.132,-53.1548 271.508,-57.5852 281.794,-60.1234 281.132,-53.1548"/>
<text text-anchor="middle" x="312" y="-58" font-family="Helvetica,sans-Serif" font-size="10.00"> elements</text>
</g>
<!-- Node6 -->
<g id="node6" class="node"><title>Node6</title>
<g id="a_node6"><a xlink:title="STL class. ">
<polygon fill="white" stroke="#bfbfbf" points="173,-5.5 173,-24.5 233,-24.5 233,-5.5 173,-5.5"/>
<text text-anchor="middle" x="203" y="-12.5" font-family="Helvetica,sans-Serif" font-size="10.00">std::string</text>
</a>
</g>
</g>
<!-- Node6&#45;&gt;Node4 -->
<g id="edge5" class="edge"><title>Node6&#45;&gt;Node4</title>
<path fill="none" stroke="#9a32cd" stroke-dasharray="5,2" d="M243.424,-19.9949C273.428,-23.7964 315.579,-29.1367 351.717,-33.7153"/>
<polygon fill="#9a32cd" stroke="#9a32cd" points="243.708,-16.5029 233.347,-18.7182 242.828,-23.4474 243.708,-16.5029"/>
<text text-anchor="middle" x="312" y="-34" font-family="Helvetica,sans-Serif" font-size="10.00"> keys</text>
</g>
<!-- Node7 -->
<g id="node7" class="node"><title>Node7</title>
<g id="a_node7"><a xlink:title="STL class. ">
<polygon fill="white" stroke="#bfbfbf" points="0.5,-0 0.5,-30 95.5,-30 95.5,-0 0.5,-0"/>
<text text-anchor="start" x="8.5" y="-18" font-family="Helvetica,sans-Serif" font-size="10.00">std::basic_string&lt;</text>
<text text-anchor="middle" x="48" y="-7" font-family="Helvetica,sans-Serif" font-size="10.00"> char &gt;</text>
</a>
</g>
</g>
<!-- Node7&#45;&gt;Node6 -->
<g id="edge6" class="edge"><title>Node7&#45;&gt;Node6</title>
<path fill="none" stroke="midnightblue" d="M105.988,-15C128.746,-15 153.974,-15 172.856,-15"/>
<polygon fill="midnightblue" stroke="midnightblue" points="105.736,-11.5001 95.7364,-15 105.736,-18.5001 105.736,-11.5001"/>
</g>
</g>
</svg>
