<?xml version="1.0" encoding="UTF-8" standalone="no"?>
<!DOCTYPE svg PUBLIC "-//W3C//DTD SVG 1.1//EN"
 "http://www.w3.org/Graphics/SVG/1.1/DTD/svg11.dtd">
<!-- Generated by graphviz version 2.36.0 (20140111.2315)
 -->
<!-- Title: ai::ITreeLoader Pages: 1 -->
<svg width="328pt" height="246pt"
 viewBox="0.00 0.00 328.00 246.00" xmlns="http://www.w3.org/2000/svg" xmlns:xlink="http://www.w3.org/1999/xlink">
<g id="graph0" class="graph" transform="scale(1 1) rotate(0) translate(4 242)">
<title>ai::ITreeLoader</title>
<polygon fill="white" stroke="none" points="-4,4 -4,-242 324,-242 324,4 -4,4"/>
<!-- Node1 -->
<g id="node1" class="node"><title>Node1</title>
<polygon fill="#bfbfbf" stroke="black" points="130,-0.5 130,-19.5 212,-19.5 212,-0.5 130,-0.5"/>
<text text-anchor="middle" x="171" y="-7.5" font-family="Helvetica,sans-Serif" font-size="10.00">ai::ITreeLoader</text>
</g>
<!-- Node2 -->
<g id="node2" class="node"><title>Node2</title>
<g id="a_node2"><a xlink:href="classai_1_1ReadWriteLock.html" target="_top" xlink:title="ai::ReadWriteLock">
<polygon fill="white" stroke="black" points="0,-74.5 0,-93.5 98,-93.5 98,-74.5 0,-74.5"/>
<text text-anchor="middle" x="49" y="-81.5" font-family="Helvetica,sans-Serif" font-size="10.00">ai::ReadWriteLock</text>
</a>
</g>
</g>
<!-- Node2&#45;&gt;Node1 -->
<g id="edge1" class="edge"><title>Node2&#45;&gt;Node1</title>
<path fill="none" stroke="#9a32cd" stroke-dasharray="5,2" d="M72.2595,-69.2731C97.113,-54.6054 135.735,-31.8119 156.545,-19.531"/>
<polygon fill="#9a32cd" stroke="#9a32cd" points="70.3073,-66.3611 63.4741,-74.4579 73.8651,-72.3896 70.3073,-66.3611"/>
<text text-anchor="middle" x="138.5" y="-41.5" font-family="Helvetica,sans-Serif" font-size="10.00"> _lock</text>
</g>
<!-- Node3 -->
<g id="node3" class="node"><title>Node3</title>
<polygon fill="white" stroke="#bfbfbf" points="116,-69 116,-99 226,-99 226,-69 116,-69"/>
<text text-anchor="start" x="124" y="-87" font-family="Helvetica,sans-Serif" font-size="10.00">std::map&lt; std::string,</text>
<text text-anchor="middle" x="171" y="-76" font-family="Helvetica,sans-Serif" font-size="10.00"> TreeNodePtr &gt;</text>
</g>
<!-- Node3&#45;&gt;Node1 -->
<g id="edge2" class="edge"><title>Node3&#45;&gt;Node1</title>
<path fill="none" stroke="#9a32cd" stroke-dasharray="5,2" d="M171,-58.6883C171,-45.2526 171,-29.3805 171,-19.7589"/>
<polygon fill="#9a32cd" stroke="#9a32cd" points="167.5,-58.7751 171,-68.7751 174.5,-58.7752 167.5,-58.7751"/>
<text text-anchor="middle" x="193" y="-41.5" font-family="Helvetica,sans-Serif" font-size="10.00"> _treeMap</text>
</g>
<!-- Node4 -->
<g id="node4" class="node"><title>Node4</title>
<g id="a_node4"><a xlink:title="STL class. ">
<polygon fill="white" stroke="#bfbfbf" points="141,-148.5 141,-167.5 201,-167.5 201,-148.5 141,-148.5"/>
<text text-anchor="middle" x="171" y="-155.5" font-family="Helvetica,sans-Serif" font-size="10.00">std::string</text>
</a>
</g>
</g>
<!-- Node4&#45;&gt;Node3 -->
<g id="edge3" class="edge"><title>Node4&#45;&gt;Node3</title>
<path fill="none" stroke="#9a32cd" stroke-dasharray="5,2" d="M171,-138.085C171,-125.915 171,-110.354 171,-99.2316"/>
<polygon fill="#9a32cd" stroke="#9a32cd" points="167.5,-138.458 171,-148.458 174.5,-138.458 167.5,-138.458"/>
<text text-anchor="middle" x="183.5" y="-121.5" font-family="Helvetica,sans-Serif" font-size="10.00"> keys</text>
</g>
<!-- Node5 -->
<g id="node5" class="node"><title>Node5</title>
<g id="a_node5"><a xlink:title="STL class. ">
<polygon fill="white" stroke="#bfbfbf" points="123.5,-207 123.5,-237 218.5,-237 218.5,-207 123.5,-207"/>
<text text-anchor="start" x="131.5" y="-225" font-family="Helvetica,sans-Serif" font-size="10.00">std::basic_string&lt;</text>
<text text-anchor="middle" x="171" y="-214" font-family="Helvetica,sans-Serif" font-size="10.00"> char &gt;</text>
</a>
</g>
</g>
<!-- Node5&#45;&gt;Node4 -->
<g id="edge4" class="edge"><title>Node5&#45;&gt;Node4</title>
<path fill="none" stroke="midnightblue" d="M171,-196.871C171,-186.663 171,-175.408 171,-167.842"/>
<polygon fill="midnightblue" stroke="midnightblue" points="167.5,-196.931 171,-206.931 174.5,-196.931 167.5,-196.931"/>
</g>
<!-- Node6 -->
<g id="node6" class="node"><title>Node6</title>
<g id="a_node6"><a xlink:href="classai_1_1IAIFactory.html" target="_top" xlink:title="ai::IAIFactory">
<polygon fill="white" stroke="black" points="244,-74.5 244,-93.5 320,-93.5 320,-74.5 244,-74.5"/>
<text text-anchor="middle" x="282" y="-81.5" font-family="Helvetica,sans-Serif" font-size="10.00">ai::IAIFactory</text>
</a>
</g>
</g>
<!-- Node6&#45;&gt;Node1 -->
<g id="edge5" class="edge"><title>Node6&#45;&gt;Node1</title>
<path fill="none" stroke="#9a32cd" stroke-dasharray="5,2" d="M262.506,-68.2481C250.247,-59.1804 233.969,-47.517 219,-38 208.672,-31.4337 196.672,-24.6837 187.254,-19.5753"/>
<polygon fill="#9a32cd" stroke="#9a32cd" points="260.539,-71.1473 270.646,-74.3243 264.726,-65.5377 260.539,-71.1473"/>
<text text-anchor="middle" x="261.5" y="-41.5" font-family="Helvetica,sans-Serif" font-size="10.00"> _aiFactory</text>
</g>
</g>
</svg>
