<?xml version="1.0" encoding="UTF-8" standalone="no"?>
<!DOCTYPE svg PUBLIC "-//W3C//DTD SVG 1.1//EN"
 "http://www.w3.org/Graphics/SVG/1.1/DTD/svg11.dtd">
<!-- Generated by graphviz version 2.36.0 (20140111.2315)
 -->
<!-- Title: ai::TreeNode Pages: 1 -->
<svg width="462pt" height="332pt"
 viewBox="0.00 0.00 462.00 332.00" xmlns="http://www.w3.org/2000/svg" xmlns:xlink="http://www.w3.org/1999/xlink">
<g id="graph0" class="graph" transform="scale(1 1) rotate(0) translate(4 328)">
<title>ai::TreeNode</title>
<polygon fill="white" stroke="none" points="-4,4 -4,-328 458,-328 458,4 -4,4"/>
<!-- Node1 -->
<g id="node1" class="node"><title>Node1</title>
<polygon fill="#bfbfbf" stroke="black" points="104.5,-171.5 104.5,-190.5 177.5,-190.5 177.5,-171.5 104.5,-171.5"/>
<text text-anchor="middle" x="141" y="-178.5" font-family="Helvetica,sans-Serif" font-size="10.00">ai::TreeNode</text>
</g>
<!-- Node3 -->
<g id="node3" class="node"><title>Node3</title>
<g id="a_node3"><a xlink:href="classai_1_1Fail.html" target="_top" xlink:title="A decorator node with only one child attached. The result of the attached child is only taken into ac...">
<polygon fill="white" stroke="black" points="237,-304.5 237,-323.5 283,-323.5 283,-304.5 237,-304.5"/>
<text text-anchor="middle" x="260" y="-311.5" font-family="Helvetica,sans-Serif" font-size="10.00">ai::Fail</text>
</a>
</g>
</g>
<!-- Node1&#45;&gt;Node3 -->
<g id="edge2" class="edge"><title>Node1&#45;&gt;Node3</title>
<path fill="none" stroke="midnightblue" d="M149.681,-200.057C160.586,-224.958 182.761,-268.5 214,-295 220.596,-300.596 229.08,-304.748 236.9,-307.72"/>
<polygon fill="midnightblue" stroke="midnightblue" points="152.816,-198.484 145.703,-190.631 146.366,-201.205 152.816,-198.484"/>
</g>
<!-- Node4 -->
<g id="node4" class="node"><title>Node4</title>
<g id="a_node4"><a xlink:href="classai_1_1Invert.html" target="_top" xlink:title="A node with only one child attached. The result of the attached child is inverted. ">
<polygon fill="white" stroke="black" points="232.5,-266.5 232.5,-285.5 287.5,-285.5 287.5,-266.5 232.5,-266.5"/>
<text text-anchor="middle" x="260" y="-273.5" font-family="Helvetica,sans-Serif" font-size="10.00">ai::Invert</text>
</a>
</g>
</g>
<!-- Node1&#45;&gt;Node4 -->
<g id="edge3" class="edge"><title>Node1&#45;&gt;Node4</title>
<path fill="none" stroke="midnightblue" d="M155.1,-198.57C168.394,-215.403 190.338,-240.604 214,-257 219.576,-260.864 226.062,-264.169 232.344,-266.886"/>
<polygon fill="midnightblue" stroke="midnightblue" points="157.85,-196.405 148.973,-190.621 152.306,-200.678 157.85,-196.405"/>
</g>
<!-- Node5 -->
<g id="node5" class="node"><title>Node5</title>
<g id="a_node5"><a xlink:href="classai_1_1ITask.html" target="_top" xlink:title="A node for your real actions in the behaviour tree. ">
<polygon fill="white" stroke="black" points="232.5,-228.5 232.5,-247.5 287.5,-247.5 287.5,-228.5 232.5,-228.5"/>
<text text-anchor="middle" x="260" y="-235.5" font-family="Helvetica,sans-Serif" font-size="10.00">ai::ITask</text>
</a>
</g>
</g>
<!-- Node1&#45;&gt;Node5 -->
<g id="edge4" class="edge"><title>Node1&#45;&gt;Node5</title>
<path fill="none" stroke="midnightblue" d="M168.036,-195.435C181.598,-202.777 198.537,-211.672 214,-219 220.744,-222.196 228.168,-225.44 235.009,-228.321"/>
<polygon fill="midnightblue" stroke="midnightblue" points="169.701,-192.357 159.246,-190.639 166.348,-198.501 169.701,-192.357"/>
</g>
<!-- Node7 -->
<g id="node7" class="node"><title>Node7</title>
<g id="a_node7"><a xlink:href="classai_1_1ITimedNode.html" target="_top" xlink:title="A timed node is a TreeNode that is executed until a given time (millis) is elapsed. ">
<polygon fill="white" stroke="black" points="218.5,-190.5 218.5,-209.5 301.5,-209.5 301.5,-190.5 218.5,-190.5"/>
<text text-anchor="middle" x="260" y="-197.5" font-family="Helvetica,sans-Serif" font-size="10.00">ai::ITimedNode</text>
</a>
</g>
</g>
<!-- Node1&#45;&gt;Node7 -->
<g id="edge6" class="edge"><title>Node1&#45;&gt;Node7</title>
<path fill="none" stroke="midnightblue" d="M187.905,-188.455C197.888,-190.076 208.385,-191.78 218.156,-193.367"/>
<polygon fill="midnightblue" stroke="midnightblue" points="188.171,-184.952 177.74,-186.804 187.049,-191.862 188.171,-184.952"/>
</g>
<!-- Node9 -->
<g id="node9" class="node"><title>Node9</title>
<g id="a_node9"><a xlink:href="classai_1_1Limit.html" target="_top" xlink:title="A decorator node which limits the execution of the attached child to a specified amount of runs...">
<polygon fill="white" stroke="black" points="234.5,-152.5 234.5,-171.5 285.5,-171.5 285.5,-152.5 234.5,-152.5"/>
<text text-anchor="middle" x="260" y="-159.5" font-family="Helvetica,sans-Serif" font-size="10.00">ai::Limit</text>
</a>
</g>
</g>
<!-- Node1&#45;&gt;Node9 -->
<g id="edge8" class="edge"><title>Node1&#45;&gt;Node9</title>
<path fill="none" stroke="midnightblue" d="M187.882,-173.549C203.676,-170.984 220.759,-168.21 234.223,-166.024"/>
<polygon fill="midnightblue" stroke="midnightblue" points="187.049,-170.138 177.74,-175.196 188.171,-177.048 187.049,-170.138"/>
</g>
<!-- Node10 -->
<g id="node10" class="node"><title>Node10</title>
<g id="a_node10"><a xlink:href="classai_1_1LUATreeNode.html" target="_top" xlink:title="ai::LUATreeNode">
<polygon fill="white" stroke="black" points="214,-114.5 214,-133.5 306,-133.5 306,-114.5 214,-114.5"/>
<text text-anchor="middle" x="260" y="-121.5" font-family="Helvetica,sans-Serif" font-size="10.00">ai::LUATreeNode</text>
</a>
</g>
</g>
<!-- Node1&#45;&gt;Node10 -->
<g id="edge9" class="edge"><title>Node1&#45;&gt;Node10</title>
<path fill="none" stroke="midnightblue" d="M168.036,-166.565C181.598,-159.223 198.537,-150.328 214,-143 220.744,-139.804 228.168,-136.56 235.009,-133.679"/>
<polygon fill="midnightblue" stroke="midnightblue" points="166.348,-163.499 159.246,-171.361 169.701,-169.643 166.348,-163.499"/>
</g>
<!-- Node11 -->
<g id="node11" class="node"><title>Node11</title>
<g id="a_node11"><a xlink:href="classai_1_1Selector.html" target="_top" xlink:title="Base class for all type of TreeNode selectors. ">
<polygon fill="white" stroke="black" points="227,-76.5 227,-95.5 293,-95.5 293,-76.5 227,-76.5"/>
<text text-anchor="middle" x="260" y="-83.5" font-family="Helvetica,sans-Serif" font-size="10.00">ai::Selector</text>
</a>
</g>
</g>
<!-- Node1&#45;&gt;Node11 -->
<g id="edge10" class="edge"><title>Node1&#45;&gt;Node11</title>
<path fill="none" stroke="midnightblue" d="M155.1,-163.43C168.394,-146.597 190.338,-121.396 214,-105 219.298,-101.329 225.416,-98.1633 231.4,-95.5262"/>
<polygon fill="midnightblue" stroke="midnightblue" points="152.306,-161.322 148.973,-171.379 157.85,-165.595 152.306,-161.322"/>
</g>
<!-- Node17 -->
<g id="node17" class="node"><title>Node17</title>
<g id="a_node17"><a xlink:href="classai_1_1Succeed.html" target="_top" xlink:title="A decorator node with only one child attached. The result of the attached child is only taken into ac...">
<polygon fill="white" stroke="black" points="226,-38.5 226,-57.5 294,-57.5 294,-38.5 226,-38.5"/>
<text text-anchor="middle" x="260" y="-45.5" font-family="Helvetica,sans-Serif" font-size="10.00">ai::Succeed</text>
</a>
</g>
</g>
<!-- Node1&#45;&gt;Node17 -->
<g id="edge16" class="edge"><title>Node1&#45;&gt;Node17</title>
<path fill="none" stroke="midnightblue" d="M149.681,-161.943C160.586,-137.042 182.761,-93.4998 214,-67 218.398,-63.2696 223.634,-60.1804 228.953,-57.655"/>
<polygon fill="midnightblue" stroke="midnightblue" points="146.366,-160.795 145.703,-171.369 152.816,-163.516 146.366,-160.795"/>
</g>
<!-- Node2 -->
<g id="node2" class="node"><title>Node2</title>
<g id="a_node2"><a xlink:href="classai_1_1__MemObject.html" target="_top" xlink:title="MemObject">
<polygon fill="white" stroke="black" points="0.5,-171.5 0.5,-190.5 67.5,-190.5 67.5,-171.5 0.5,-171.5"/>
<text text-anchor="middle" x="34" y="-178.5" font-family="Helvetica,sans-Serif" font-size="10.00">MemObject</text>
</a>
</g>
</g>
<!-- Node2&#45;&gt;Node1 -->
<g id="edge1" class="edge"><title>Node2&#45;&gt;Node1</title>
<path fill="none" stroke="midnightblue" d="M77.8028,-181C86.657,-181 95.8925,-181 104.454,-181"/>
<polygon fill="midnightblue" stroke="midnightblue" points="77.6471,-177.5 67.6471,-181 77.6471,-184.5 77.6471,-177.5"/>
</g>
<!-- Node6 -->
<g id="node6" class="node"><title>Node6</title>
<g id="a_node6"><a xlink:href="classai_1_1Steer.html" target="_top" xlink:title="ai::Steer">
<polygon fill="white" stroke="black" points="371.5,-228.5 371.5,-247.5 424.5,-247.5 424.5,-228.5 371.5,-228.5"/>
<text text-anchor="middle" x="398" y="-235.5" font-family="Helvetica,sans-Serif" font-size="10.00">ai::Steer</text>
</a>
</g>
</g>
<!-- Node5&#45;&gt;Node6 -->
<g id="edge5" class="edge"><title>Node5&#45;&gt;Node6</title>
<path fill="none" stroke="midnightblue" d="M297.765,-238C321.086,-238 350.668,-238 371.443,-238"/>
<polygon fill="midnightblue" stroke="midnightblue" points="297.545,-234.5 287.545,-238 297.545,-241.5 297.545,-234.5"/>
</g>
<!-- Node8 -->
<g id="node8" class="node"><title>Node8</title>
<g id="a_node8"><a xlink:href="classai_1_1Idle.html" target="_top" xlink:title="ITimedNode that is just idling until the given time is elapsed. ">
<polygon fill="white" stroke="black" points="375,-190.5 375,-209.5 421,-209.5 421,-190.5 375,-190.5"/>
<text text-anchor="middle" x="398" y="-197.5" font-family="Helvetica,sans-Serif" font-size="10.00">ai::Idle</text>
</a>
</g>
</g>
<!-- Node7&#45;&gt;Node8 -->
<g id="edge7" class="edge"><title>Node7&#45;&gt;Node8</title>
<path fill="none" stroke="midnightblue" d="M311.888,-200C333.586,-200 357.77,-200 374.797,-200"/>
<polygon fill="midnightblue" stroke="midnightblue" points="311.805,-196.5 301.804,-200 311.804,-203.5 311.805,-196.5"/>
</g>
<!-- Node12 -->
<g id="node12" class="node"><title>Node12</title>
<g id="a_node12"><a xlink:href="classai_1_1Parallel.html" target="_top" xlink:title="Executes all the connected children in the order they were added (no matter what the TreeNodeStatus o...">
<polygon fill="white" stroke="black" points="367,-152.5 367,-171.5 429,-171.5 429,-152.5 367,-152.5"/>
<text text-anchor="middle" x="398" y="-159.5" font-family="Helvetica,sans-Serif" font-size="10.00">ai::Parallel</text>
</a>
</g>
</g>
<!-- Node11&#45;&gt;Node12 -->
<g id="edge11" class="edge"><title>Node11&#45;&gt;Node12</title>
<path fill="none" stroke="midnightblue" d="M297.833,-100.024C300.675,-101.562 303.434,-103.222 306,-105 325.122,-118.25 322.445,-130.396 342,-143 349.557,-147.871 358.508,-151.651 366.969,-154.511"/>
<polygon fill="midnightblue" stroke="midnightblue" points="299.122,-96.759 288.6,-95.5262 296.057,-103.052 299.122,-96.759"/>
</g>
<!-- Node13 -->
<g id="node13" class="node"><title>Node13</title>
<g id="a_node13"><a xlink:href="classai_1_1PrioritySelector.html" target="_top" xlink:title="This node tries to execute all the attached children until one succeeds. This composite only fails if...">
<polygon fill="white" stroke="black" points="349.5,-114.5 349.5,-133.5 446.5,-133.5 446.5,-114.5 349.5,-114.5"/>
<text text-anchor="middle" x="398" y="-121.5" font-family="Helvetica,sans-Serif" font-size="10.00">ai::PrioritySelector</text>
</a>
</g>
</g>
<!-- Node11&#45;&gt;Node13 -->
<g id="edge12" class="edge"><title>Node11&#45;&gt;Node13</title>
<path fill="none" stroke="midnightblue" d="M302.911,-97.7104C322.067,-103.063 344.48,-109.325 362.624,-114.395"/>
<polygon fill="midnightblue" stroke="midnightblue" points="303.803,-94.3257 293.23,-95.0055 301.919,-101.067 303.803,-94.3257"/>
</g>
<!-- Node14 -->
<g id="node14" class="node"><title>Node14</title>
<g id="a_node14"><a xlink:href="classai_1_1ProbabilitySelector.html" target="_top" xlink:title="This node executes one of the attached children randomly based on the given weights. The node is executed until it is no longer in the running state. ">
<polygon fill="white" stroke="black" points="342,-76.5 342,-95.5 454,-95.5 454,-76.5 342,-76.5"/>
<text text-anchor="middle" x="398" y="-83.5" font-family="Helvetica,sans-Serif" font-size="10.00">ai::ProbabilitySelector</text>
</a>
</g>
</g>
<!-- Node11&#45;&gt;Node14 -->
<g id="edge13" class="edge"><title>Node11&#45;&gt;Node14</title>
<path fill="none" stroke="midnightblue" d="M303.529,-86C315.673,-86 329.084,-86 341.866,-86"/>
<polygon fill="midnightblue" stroke="midnightblue" points="303.23,-82.5001 293.23,-86 303.23,-89.5001 303.23,-82.5001"/>
</g>
<!-- Node15 -->
<g id="node15" class="node"><title>Node15</title>
<g id="a_node15"><a xlink:href="classai_1_1RandomSelector.html" target="_top" xlink:title="This node executes all the attached children in random order. This composite only fails if all childr...">
<polygon fill="white" stroke="black" points="346.5,-38.5 346.5,-57.5 449.5,-57.5 449.5,-38.5 346.5,-38.5"/>
<text text-anchor="middle" x="398" y="-45.5" font-family="Helvetica,sans-Serif" font-size="10.00">ai::RandomSelector</text>
</a>
</g>
</g>
<!-- Node11&#45;&gt;Node15 -->
<g id="edge14" class="edge"><title>Node11&#45;&gt;Node15</title>
<path fill="none" stroke="midnightblue" d="M302.911,-74.2896C322.067,-68.9371 344.48,-62.6748 362.624,-57.6051"/>
<polygon fill="midnightblue" stroke="midnightblue" points="301.919,-70.9325 293.23,-76.9945 303.803,-77.6743 301.919,-70.9325"/>
</g>
<!-- Node16 -->
<g id="node16" class="node"><title>Node16</title>
<g id="a_node16"><a xlink:href="classai_1_1Sequence.html" target="_top" xlink:title="The sequence continues to execute their children until one of the children returned a state that is n...">
<polygon fill="white" stroke="black" points="361,-0.5 361,-19.5 435,-19.5 435,-0.5 361,-0.5"/>
<text text-anchor="middle" x="398" y="-7.5" font-family="Helvetica,sans-Serif" font-size="10.00">ai::Sequence</text>
</a>
</g>
</g>
<!-- Node11&#45;&gt;Node16 -->
<g id="edge15" class="edge"><title>Node11&#45;&gt;Node16</title>
<path fill="none" stroke="midnightblue" d="M297.833,-71.976C300.675,-70.4376 303.434,-68.7781 306,-67 325.122,-53.7496 322.445,-41.6035 342,-29 347.859,-25.2237 354.555,-22.1027 361.212,-19.5582"/>
<polygon fill="midnightblue" stroke="midnightblue" points="296.057,-68.9479 288.6,-76.4738 299.122,-75.241 296.057,-68.9479"/>
</g>
</g>
</svg>
