<?xml version="1.0" encoding="UTF-8" standalone="no"?>
<!DOCTYPE svg PUBLIC "-//W3C//DTD SVG 1.1//EN"
 "http://www.w3.org/Graphics/SVG/1.1/DTD/svg11.dtd">
<!-- Generated by graphviz version 2.36.0 (20140111.2315)
 -->
<!-- Title: ai::LUAAIRegistry Pages: 1 -->
<svg width="1712pt" height="557pt"
 viewBox="0.00 0.00 1712.00 557.36" xmlns="http://www.w3.org/2000/svg" xmlns:xlink="http://www.w3.org/1999/xlink">
<g id="graph0" class="graph" transform="scale(1 1) rotate(0) translate(4 553.359)">
<title>ai::LUAAIRegistry</title>
<polygon fill="white" stroke="none" points="-4,4 -4,-553.359 1708,-553.359 1708,4 -4,4"/>
<!-- Node1 -->
<g id="node1" class="node"><title>Node1</title>
<polygon fill="#bfbfbf" stroke="black" points="1608,-148.859 1608,-167.859 1704,-167.859 1704,-148.859 1608,-148.859"/>
<text text-anchor="middle" x="1656" y="-155.859" font-family="Helvetica,sans-Serif" font-size="10.00">ai::LUAAIRegistry</text>
</g>
<!-- Node2 -->
<g id="node2" class="node"><title>Node2</title>
<g id="a_node2"><a xlink:href="classai_1_1AIRegistry.html" target="_top" xlink:title="The place to register your TreeNode and ICondition factories at. ">
<polygon fill="white" stroke="black" points="1404.5,-320.859 1404.5,-339.859 1481.5,-339.859 1481.5,-320.859 1404.5,-320.859"/>
<text text-anchor="middle" x="1443" y="-327.859" font-family="Helvetica,sans-Serif" font-size="10.00">ai::AIRegistry</text>
</a>
</g>
</g>
<!-- Node2&#45;&gt;Node1 -->
<g id="edge1" class="edge"><title>Node2&#45;&gt;Node1</title>
<path fill="none" stroke="midnightblue" d="M1491.85,-335.2C1522.79,-335.789 1562.31,-331.473 1590,-310.359 1637.7,-273.99 1650.84,-195.694 1654.06,-168.171"/>
<polygon fill="midnightblue" stroke="midnightblue" points="1491.84,-331.698 1481.71,-334.83 1491.58,-338.693 1491.84,-331.698"/>
</g>
<!-- Node3 -->
<g id="node3" class="node"><title>Node3</title>
<g id="a_node3"><a xlink:href="classai_1_1IAIFactory.html" target="_top" xlink:title="ai::IAIFactory">
<polygon fill="white" stroke="black" points="1109,-276.859 1109,-295.859 1185,-295.859 1185,-276.859 1109,-276.859"/>
<text text-anchor="middle" x="1147" y="-283.859" font-family="Helvetica,sans-Serif" font-size="10.00">ai::IAIFactory</text>
</a>
</g>
</g>
<!-- Node3&#45;&gt;Node2 -->
<g id="edge2" class="edge"><title>Node3&#45;&gt;Node2</title>
<path fill="none" stroke="midnightblue" d="M1195.25,-293.431C1253.33,-302.124 1350.73,-316.701 1404.14,-324.693"/>
<polygon fill="midnightblue" stroke="midnightblue" points="1195.64,-289.951 1185.24,-291.932 1194.61,-296.874 1195.64,-289.951"/>
</g>
<!-- Node4 -->
<g id="node4" class="node"><title>Node4</title>
<g id="a_node4"><a xlink:href="classai_1_1AIRegistry_1_1SteerNodeFactory.html" target="_top" xlink:title="ai::AIRegistry::SteerNode\lFactory">
<polygon fill="white" stroke="black" points="1082.5,-461.359 1082.5,-491.359 1211.5,-491.359 1211.5,-461.359 1082.5,-461.359"/>
<text text-anchor="start" x="1090.5" y="-479.359" font-family="Helvetica,sans-Serif" font-size="10.00">ai::AIRegistry::SteerNode</text>
<text text-anchor="middle" x="1147" y="-468.359" font-family="Helvetica,sans-Serif" font-size="10.00">Factory</text>
</a>
</g>
</g>
<!-- Node4&#45;&gt;Node2 -->
<g id="edge3" class="edge"><title>Node4&#45;&gt;Node2</title>
<path fill="none" stroke="#9a32cd" stroke-dasharray="5,2" d="M1221.91,-472.73C1265.97,-467.665 1321.44,-455.978 1364,-429.359 1400.55,-406.503 1427.04,-360.198 1437.3,-340.069"/>
<polygon fill="#9a32cd" stroke="#9a32cd" points="1221.4,-469.264 1211.83,-473.797 1222.14,-476.225 1221.4,-469.264"/>
<text text-anchor="middle" x="1299" y="-474.359" font-family="Helvetica,sans-Serif" font-size="10.00"> _steerNodeFactory</text>
</g>
<!-- Node5 -->
<g id="node5" class="node"><title>Node5</title>
<g id="a_node5"><a xlink:href="classai_1_1IFactoryRegistry.html" target="_top" xlink:title="ai::IFactoryRegistry\l\&lt; std::string, TreeNode,\l SteerNodeFactoryContext \&gt;">
<polygon fill="white" stroke="black" points="764.5,-467.859 764.5,-508.859 907.5,-508.859 907.5,-467.859 764.5,-467.859"/>
<text text-anchor="start" x="772.5" y="-496.859" font-family="Helvetica,sans-Serif" font-size="10.00">ai::IFactoryRegistry</text>
<text text-anchor="start" x="772.5" y="-485.859" font-family="Helvetica,sans-Serif" font-size="10.00">&lt; std::string, TreeNode,</text>
<text text-anchor="middle" x="836" y="-474.859" font-family="Helvetica,sans-Serif" font-size="10.00"> SteerNodeFactoryContext &gt;</text>
</a>
</g>
</g>
<!-- Node5&#45;&gt;Node4 -->
<g id="edge4" class="edge"><title>Node5&#45;&gt;Node4</title>
<path fill="none" stroke="midnightblue" d="M917.582,-485.23C968.974,-483.234 1034.64,-480.684 1082.37,-478.831"/>
<polygon fill="midnightblue" stroke="midnightblue" points="917.36,-481.736 907.504,-485.621 917.632,-488.731 917.36,-481.736"/>
</g>
<!-- Node6 -->
<g id="node6" class="node"><title>Node6</title>
<g id="a_node6"><a xlink:href="classai_1_1NonCopyable.html" target="_top" xlink:title="ai::NonCopyable">
<polygon fill="white" stroke="black" points="420.5,-349.859 420.5,-368.859 509.5,-368.859 509.5,-349.859 420.5,-349.859"/>
<text text-anchor="middle" x="465" y="-356.859" font-family="Helvetica,sans-Serif" font-size="10.00">ai::NonCopyable</text>
</a>
</g>
</g>
<!-- Node6&#45;&gt;Node5 -->
<g id="edge5" class="edge"><title>Node6&#45;&gt;Node5</title>
<path fill="none" stroke="midnightblue" d="M519.771,-360.074C537.677,-362.527 556.889,-367.774 572,-378.359 585.049,-387.5 577.579,-399.383 590,-409.359 640.19,-449.672 666.74,-433.574 728,-453.359 742.414,-458.015 757.907,-463.059 772.505,-467.83"/>
<polygon fill="midnightblue" stroke="midnightblue" points="520.032,-356.582 509.708,-358.959 519.261,-363.539 520.032,-356.582"/>
</g>
<!-- Node12 -->
<g id="node12" class="node"><title>Node12</title>
<g id="a_node12"><a xlink:href="classai_1_1IFactoryRegistry.html" target="_top" xlink:title="ai::IFactoryRegistry\l\&lt; std::string, ICondition,\l ConditionFactoryContext \&gt;">
<polygon fill="white" stroke="black" points="767.5,-224.859 767.5,-265.859 904.5,-265.859 904.5,-224.859 767.5,-224.859"/>
<text text-anchor="start" x="775.5" y="-253.859" font-family="Helvetica,sans-Serif" font-size="10.00">ai::IFactoryRegistry</text>
<text text-anchor="start" x="775.5" y="-242.859" font-family="Helvetica,sans-Serif" font-size="10.00">&lt; std::string, ICondition,</text>
<text text-anchor="middle" x="836" y="-231.859" font-family="Helvetica,sans-Serif" font-size="10.00"> ConditionFactoryContext &gt;</text>
</a>
</g>
</g>
<!-- Node6&#45;&gt;Node12 -->
<g id="edge12" class="edge"><title>Node6&#45;&gt;Node12</title>
<path fill="none" stroke="midnightblue" d="M519.667,-355.827C537.15,-352.992 556.127,-348.019 572,-339.359 582.211,-333.788 579.847,-326.036 590,-320.359 644.704,-289.776 670.68,-316.703 728,-291.359 737.025,-287.369 737.294,-283.006 746,-278.359 754.432,-273.859 763.612,-269.704 772.768,-265.968"/>
<polygon fill="midnightblue" stroke="midnightblue" points="518.989,-352.388 509.581,-357.261 519.974,-359.318 518.989,-352.388"/>
</g>
<!-- Node16 -->
<g id="node16" class="node"><title>Node16</title>
<g id="a_node16"><a xlink:href="classai_1_1IFactoryRegistry.html" target="_top" xlink:title="ai::IFactoryRegistry\l\&lt; std::string, IFilter,\l FilterFactoryContext \&gt;">
<polygon fill="white" stroke="black" points="777,-407.859 777,-448.859 895,-448.859 895,-407.859 777,-407.859"/>
<text text-anchor="start" x="785" y="-436.859" font-family="Helvetica,sans-Serif" font-size="10.00">ai::IFactoryRegistry</text>
<text text-anchor="start" x="785" y="-425.859" font-family="Helvetica,sans-Serif" font-size="10.00">&lt; std::string, IFilter,</text>
<text text-anchor="middle" x="836" y="-414.859" font-family="Helvetica,sans-Serif" font-size="10.00"> FilterFactoryContext &gt;</text>
</a>
</g>
</g>
<!-- Node6&#45;&gt;Node16 -->
<g id="edge18" class="edge"><title>Node6&#45;&gt;Node16</title>
<path fill="none" stroke="midnightblue" d="M519.767,-363.77C573.072,-368.79 656.839,-378.429 728,-394.359 744.073,-397.957 761.193,-402.885 776.917,-407.871"/>
<polygon fill="midnightblue" stroke="midnightblue" points="519.804,-360.258 509.525,-362.827 519.162,-367.229 519.804,-360.258"/>
</g>
<!-- Node20 -->
<g id="node20" class="node"><title>Node20</title>
<g id="a_node20"><a xlink:href="classai_1_1IFactoryRegistry.html" target="_top" xlink:title="ai::IFactoryRegistry\l\&lt; std::string, TreeNode,\l TreeNodeFactoryContext \&gt;">
<polygon fill="white" stroke="black" points="766.5,-347.859 766.5,-388.859 905.5,-388.859 905.5,-347.859 766.5,-347.859"/>
<text text-anchor="start" x="774.5" y="-376.859" font-family="Helvetica,sans-Serif" font-size="10.00">ai::IFactoryRegistry</text>
<text text-anchor="start" x="774.5" y="-365.859" font-family="Helvetica,sans-Serif" font-size="10.00">&lt; std::string, TreeNode,</text>
<text text-anchor="middle" x="836" y="-354.859" font-family="Helvetica,sans-Serif" font-size="10.00"> TreeNodeFactoryContext &gt;</text>
</a>
</g>
</g>
<!-- Node6&#45;&gt;Node20 -->
<g id="edge24" class="edge"><title>Node6&#45;&gt;Node20</title>
<path fill="none" stroke="midnightblue" d="M519.843,-360.673C585.026,-362.262 694.902,-364.942 766.175,-366.681"/>
<polygon fill="midnightblue" stroke="midnightblue" points="519.861,-357.172 509.778,-360.427 519.69,-364.17 519.861,-357.172"/>
</g>
<!-- Node24 -->
<g id="node24" class="node"><title>Node24</title>
<g id="a_node24"><a xlink:href="classai_1_1IFactoryRegistry.html" target="_top" xlink:title="ai::IFactoryRegistry\l\&lt; std::string, movement\l::ISteering, SteeringFactoryContext \&gt;">
<polygon fill="white" stroke="black" points="746,-287.859 746,-328.859 926,-328.859 926,-287.859 746,-287.859"/>
<text text-anchor="start" x="754" y="-316.859" font-family="Helvetica,sans-Serif" font-size="10.00">ai::IFactoryRegistry</text>
<text text-anchor="start" x="754" y="-305.859" font-family="Helvetica,sans-Serif" font-size="10.00">&lt; std::string, movement</text>
<text text-anchor="middle" x="836" y="-294.859" font-family="Helvetica,sans-Serif" font-size="10.00">::ISteering, SteeringFactoryContext &gt;</text>
</a>
</g>
</g>
<!-- Node6&#45;&gt;Node24 -->
<g id="edge30" class="edge"><title>Node6&#45;&gt;Node24</title>
<path fill="none" stroke="midnightblue" d="M520.049,-351.889C579.353,-343.693 675.476,-330.407 745.953,-320.667"/>
<polygon fill="midnightblue" stroke="midnightblue" points="519.205,-348.472 509.778,-353.309 520.163,-355.407 519.205,-348.472"/>
</g>
<!-- Node7 -->
<g id="node7" class="node"><title>Node7</title>
<polygon fill="white" stroke="#bfbfbf" points="358.5,-507.859 358.5,-548.859 571.5,-548.859 571.5,-507.859 358.5,-507.859"/>
<text text-anchor="start" x="366.5" y="-536.859" font-family="Helvetica,sans-Serif" font-size="10.00">std::map&lt; const std</text>
<text text-anchor="start" x="366.5" y="-525.859" font-family="Helvetica,sans-Serif" font-size="10.00">::string, const IFactory</text>
<text text-anchor="middle" x="465" y="-514.859" font-family="Helvetica,sans-Serif" font-size="10.00">&lt; TreeNode, SteerNodeFactoryContext &gt; * &gt;</text>
</g>
<!-- Node7&#45;&gt;Node5 -->
<g id="edge6" class="edge"><title>Node7&#45;&gt;Node5</title>
<path fill="none" stroke="#9a32cd" stroke-dasharray="5,2" d="M581.997,-515.785C641.776,-509.305 712.738,-501.613 764.273,-496.026"/>
<polygon fill="#9a32cd" stroke="#9a32cd" points="581.305,-512.34 571.741,-516.897 582.06,-519.299 581.305,-512.34"/>
<text text-anchor="middle" x="659" y="-516.359" font-family="Helvetica,sans-Serif" font-size="10.00"> _factories</text>
</g>
<!-- Node8 -->
<g id="node8" class="node"><title>Node8</title>
<g id="a_node8"><a xlink:href="classai_1_1IFactory.html" target="_top" xlink:title="ai::IFactory\&lt; TreeNode,\l SteerNodeFactoryContext \&gt;">
<polygon fill="white" stroke="black" points="134.5,-513.359 134.5,-543.359 277.5,-543.359 277.5,-513.359 134.5,-513.359"/>
<text text-anchor="start" x="142.5" y="-531.359" font-family="Helvetica,sans-Serif" font-size="10.00">ai::IFactory&lt; TreeNode,</text>
<text text-anchor="middle" x="206" y="-520.359" font-family="Helvetica,sans-Serif" font-size="10.00"> SteerNodeFactoryContext &gt;</text>
</a>
</g>
</g>
<!-- Node8&#45;&gt;Node7 -->
<g id="edge7" class="edge"><title>Node8&#45;&gt;Node7</title>
<path fill="none" stroke="#9a32cd" stroke-dasharray="5,2" d="M287.696,-528.359C310.117,-528.359 334.802,-528.359 358.419,-528.359"/>
<polygon fill="#9a32cd" stroke="#9a32cd" points="287.566,-524.859 277.566,-528.359 287.566,-531.859 287.566,-524.859"/>
<text text-anchor="middle" x="318" y="-531.359" font-family="Helvetica,sans-Serif" font-size="10.00"> elements</text>
</g>
<!-- Node9 -->
<g id="node9" class="node"><title>Node9</title>
<g id="a_node9"><a xlink:title="STL class. ">
<polygon fill="white" stroke="#bfbfbf" points="176,-220.859 176,-239.859 236,-239.859 236,-220.859 176,-220.859"/>
<text text-anchor="middle" x="206" y="-227.859" font-family="Helvetica,sans-Serif" font-size="10.00">std::string</text>
</a>
</g>
</g>
<!-- Node9&#45;&gt;Node7 -->
<g id="edge8" class="edge"><title>Node9&#45;&gt;Node7</title>
<path fill="none" stroke="#9a32cd" stroke-dasharray="5,2" d="M228.809,-246.237C245.119,-259.371 266.51,-279.524 278,-302.359 301.45,-348.965 270.704,-372.729 296,-418.359 308.528,-440.958 324.651,-435.573 340,-456.359 351.822,-472.369 343.049,-484.225 358,-497.359 362.537,-501.346 367.563,-504.82 372.888,-507.849"/>
<polygon fill="#9a32cd" stroke="#9a32cd" points="230.866,-243.403 220.822,-240.032 226.571,-248.931 230.866,-243.403"/>
<text text-anchor="middle" x="318" y="-459.359" font-family="Helvetica,sans-Serif" font-size="10.00"> keys</text>
</g>
<!-- Node13 -->
<g id="node13" class="node"><title>Node13</title>
<polygon fill="white" stroke="#bfbfbf" points="390,-207.359 390,-259.359 540,-259.359 540,-207.359 390,-207.359"/>
<text text-anchor="start" x="398" y="-247.359" font-family="Helvetica,sans-Serif" font-size="10.00">std::map&lt; const std</text>
<text text-anchor="start" x="398" y="-236.359" font-family="Helvetica,sans-Serif" font-size="10.00">::string, const IFactory</text>
<text text-anchor="start" x="398" y="-225.359" font-family="Helvetica,sans-Serif" font-size="10.00">&lt; ICondition, ConditionFactory</text>
<text text-anchor="middle" x="465" y="-214.359" font-family="Helvetica,sans-Serif" font-size="10.00">Context &gt; * &gt;</text>
</g>
<!-- Node9&#45;&gt;Node13 -->
<g id="edge15" class="edge"><title>Node9&#45;&gt;Node13</title>
<path fill="none" stroke="#9a32cd" stroke-dasharray="5,2" d="M246.088,-230.565C272.588,-230.726 308.406,-230.986 340,-231.359 356.147,-231.55 373.476,-231.801 389.908,-232.06"/>
<polygon fill="#9a32cd" stroke="#9a32cd" points="246.08,-227.065 236.059,-230.506 246.038,-234.065 246.08,-227.065"/>
<text text-anchor="middle" x="318" y="-234.359" font-family="Helvetica,sans-Serif" font-size="10.00"> keys</text>
</g>
<!-- Node17 -->
<g id="node17" class="node"><title>Node17</title>
<polygon fill="white" stroke="#bfbfbf" points="380,-447.859 380,-488.859 550,-488.859 550,-447.859 380,-447.859"/>
<text text-anchor="start" x="388" y="-476.859" font-family="Helvetica,sans-Serif" font-size="10.00">std::map&lt; const std</text>
<text text-anchor="start" x="388" y="-465.859" font-family="Helvetica,sans-Serif" font-size="10.00">::string, const IFactory</text>
<text text-anchor="middle" x="465" y="-454.859" font-family="Helvetica,sans-Serif" font-size="10.00">&lt; IFilter, FilterFactoryContext &gt; * &gt;</text>
</g>
<!-- Node9&#45;&gt;Node17 -->
<g id="edge21" class="edge"><title>Node9&#45;&gt;Node17</title>
<path fill="none" stroke="#9a32cd" stroke-dasharray="5,2" d="M226.282,-246.804C241.613,-260.562 262.917,-281.278 278,-302.359 288.409,-316.908 286.291,-323.335 296,-338.359 312.802,-364.362 324.293,-365.681 340,-392.359 350.929,-410.922 342.055,-422.876 358,-437.359 364.458,-443.225 371.968,-447.985 379.954,-451.847"/>
<polygon fill="#9a32cd" stroke="#9a32cd" points="228.277,-243.897 218.457,-239.918 223.652,-249.152 228.277,-243.897"/>
<text text-anchor="middle" x="318" y="-395.359" font-family="Helvetica,sans-Serif" font-size="10.00"> keys</text>
</g>
<!-- Node21 -->
<g id="node21" class="node"><title>Node21</title>
<polygon fill="white" stroke="#bfbfbf" points="360.5,-387.859 360.5,-428.859 569.5,-428.859 569.5,-387.859 360.5,-387.859"/>
<text text-anchor="start" x="368.5" y="-416.859" font-family="Helvetica,sans-Serif" font-size="10.00">std::map&lt; const std</text>
<text text-anchor="start" x="368.5" y="-405.859" font-family="Helvetica,sans-Serif" font-size="10.00">::string, const IFactory</text>
<text text-anchor="middle" x="465" y="-394.859" font-family="Helvetica,sans-Serif" font-size="10.00">&lt; TreeNode, TreeNodeFactoryContext &gt; * &gt;</text>
</g>
<!-- Node9&#45;&gt;Node21 -->
<g id="edge26" class="edge"><title>Node9&#45;&gt;Node21</title>
<path fill="none" stroke="#9a32cd" stroke-dasharray="5,2" d="M234.403,-244.673C272.278,-264.562 336.408,-298.655 340,-303.359 360.805,-330.604 334.253,-353.637 358,-378.359 361.312,-381.808 364.988,-384.869 368.926,-387.585"/>
<polygon fill="#9a32cd" stroke="#9a32cd" points="235.874,-241.492 225.392,-239.949 232.624,-247.692 235.874,-241.492"/>
<text text-anchor="middle" x="318" y="-306.359" font-family="Helvetica,sans-Serif" font-size="10.00"> keys</text>
</g>
<!-- Node25 -->
<g id="node25" class="node"><title>Node25</title>
<polygon fill="white" stroke="#bfbfbf" points="391,-278.359 391,-330.359 539,-330.359 539,-278.359 391,-278.359"/>
<text text-anchor="start" x="399" y="-318.359" font-family="Helvetica,sans-Serif" font-size="10.00">std::map&lt; const std</text>
<text text-anchor="start" x="399" y="-307.359" font-family="Helvetica,sans-Serif" font-size="10.00">::string, const IFactory</text>
<text text-anchor="start" x="399" y="-296.359" font-family="Helvetica,sans-Serif" font-size="10.00">&lt; movement::ISteering,</text>
<text text-anchor="middle" x="465" y="-285.359" font-family="Helvetica,sans-Serif" font-size="10.00"> SteeringFactoryContext &gt; * &gt;</text>
</g>
<!-- Node9&#45;&gt;Node25 -->
<g id="edge33" class="edge"><title>Node9&#45;&gt;Node25</title>
<path fill="none" stroke="#9a32cd" stroke-dasharray="5,2" d="M245.869,-240.071C272.461,-246.841 308.471,-256.258 340,-265.359 356.478,-270.116 374.102,-275.486 390.737,-280.685"/>
<polygon fill="#9a32cd" stroke="#9a32cd" points="246.721,-236.676 236.167,-237.612 245.001,-243.461 246.721,-236.676"/>
<text text-anchor="middle" x="318" y="-268.359" font-family="Helvetica,sans-Serif" font-size="10.00"> keys</text>
</g>
<!-- Node28 -->
<g id="node28" class="node"><title>Node28</title>
<polygon fill="white" stroke="#bfbfbf" points="590.5,-175.359 590.5,-205.359 727.5,-205.359 727.5,-175.359 590.5,-175.359"/>
<text text-anchor="start" x="598.5" y="-193.359" font-family="Helvetica,sans-Serif" font-size="10.00">std::map&lt; std::string,</text>
<text text-anchor="middle" x="659" y="-182.359" font-family="Helvetica,sans-Serif" font-size="10.00"> LUATreeNodeFactoryPtr &gt;</text>
</g>
<!-- Node9&#45;&gt;Node28 -->
<g id="edge36" class="edge"><title>Node9&#45;&gt;Node28</title>
<path fill="none" stroke="#9a32cd" stroke-dasharray="5,2" d="M245.979,-219.681C276.265,-211.912 319.461,-201.977 358,-197.359 437.402,-187.846 529.443,-187.225 590.419,-188.252"/>
<polygon fill="#9a32cd" stroke="#9a32cd" points="245.022,-216.313 236.228,-222.222 246.787,-223.087 245.022,-216.313"/>
<text text-anchor="middle" x="318" y="-211.359" font-family="Helvetica,sans-Serif" font-size="10.00"> keys</text>
</g>
<!-- Node30 -->
<g id="node30" class="node"><title>Node30</title>
<polygon fill="white" stroke="#bfbfbf" points="944,-106.359 944,-136.359 1060,-136.359 1060,-106.359 944,-106.359"/>
<text text-anchor="start" x="952" y="-124.359" font-family="Helvetica,sans-Serif" font-size="10.00">std::map&lt; std::string,</text>
<text text-anchor="middle" x="1002" y="-113.359" font-family="Helvetica,sans-Serif" font-size="10.00"> LUAFilterFactoryPtr &gt;</text>
</g>
<!-- Node9&#45;&gt;Node30 -->
<g id="edge39" class="edge"><title>Node9&#45;&gt;Node30</title>
<path fill="none" stroke="#9a32cd" stroke-dasharray="5,2" d="M234.002,-215.463C248.321,-206.613 265.488,-194.389 278,-180.359 289.12,-167.891 281.794,-156.151 296,-147.359 403.469,-80.8533 795.832,-104.678 943.911,-116.414"/>
<polygon fill="#9a32cd" stroke="#9a32cd" points="231.881,-212.652 225.081,-220.776 235.463,-218.666 231.881,-212.652"/>
<text text-anchor="middle" x="465" y="-127.359" font-family="Helvetica,sans-Serif" font-size="10.00"> keys</text>
</g>
<!-- Node31 -->
<g id="node31" class="node"><title>Node31</title>
<polygon fill="white" stroke="#bfbfbf" points="1234,-65.3594 1234,-95.3594 1364,-95.3594 1364,-65.3594 1234,-65.3594"/>
<text text-anchor="start" x="1242" y="-83.3594" font-family="Helvetica,sans-Serif" font-size="10.00">std::map&lt; std::string,</text>
<text text-anchor="middle" x="1299" y="-72.3594" font-family="Helvetica,sans-Serif" font-size="10.00"> LUASteeringFactoryPtr &gt;</text>
</g>
<!-- Node9&#45;&gt;Node31 -->
<g id="edge41" class="edge"><title>Node9&#45;&gt;Node31</title>
<path fill="none" stroke="#9a32cd" stroke-dasharray="5,2" d="M236.182,-215.608C250.546,-207.048 267.077,-195.046 278,-180.359 293.098,-160.06 278.925,-145.026 296,-126.359 348.497,-68.9709 386.222,-77.3594 464,-77.3594 464,-77.3594 464,-77.3594 1003,-77.3594 1082.52,-77.3594 1174.08,-78.4627 1233.84,-79.3311"/>
<polygon fill="#9a32cd" stroke="#9a32cd" points="234.114,-212.757 227.137,-220.73 237.564,-218.848 234.114,-212.757"/>
<text text-anchor="middle" x="659" y="-80.3594" font-family="Helvetica,sans-Serif" font-size="10.00"> keys</text>
</g>
<!-- Node32 -->
<g id="node32" class="node"><title>Node32</title>
<polygon fill="white" stroke="#bfbfbf" points="591.5,-22.3594 591.5,-52.3594 726.5,-52.3594 726.5,-22.3594 591.5,-22.3594"/>
<text text-anchor="start" x="599.5" y="-40.3594" font-family="Helvetica,sans-Serif" font-size="10.00">std::map&lt; std::string,</text>
<text text-anchor="middle" x="659" y="-29.3594" font-family="Helvetica,sans-Serif" font-size="10.00"> LUAConditionFactoryPtr &gt;</text>
</g>
<!-- Node9&#45;&gt;Node32 -->
<g id="edge43" class="edge"><title>Node9&#45;&gt;Node32</title>
<path fill="none" stroke="#9a32cd" stroke-dasharray="5,2" d="M238.221,-215.869C252.661,-207.538 268.65,-195.661 278,-180.359 307.953,-131.337 253.431,-90.9369 296,-52.3594 382.46,25.994 533.692,-1.32791 610.43,-22.3186"/>
<polygon fill="#9a32cd" stroke="#9a32cd" points="236.173,-212.997 229.041,-220.832 239.502,-219.155 236.173,-212.997"/>
<text text-anchor="middle" x="318" y="-55.3594" font-family="Helvetica,sans-Serif" font-size="10.00"> keys</text>
</g>
<!-- Node10 -->
<g id="node10" class="node"><title>Node10</title>
<g id="a_node10"><a xlink:title="STL class. ">
<polygon fill="white" stroke="#bfbfbf" points="0.5,-215.359 0.5,-245.359 95.5,-245.359 95.5,-215.359 0.5,-215.359"/>
<text text-anchor="start" x="8.5" y="-233.359" font-family="Helvetica,sans-Serif" font-size="10.00">std::basic_string&lt;</text>
<text text-anchor="middle" x="48" y="-222.359" font-family="Helvetica,sans-Serif" font-size="10.00"> char &gt;</text>
</a>
</g>
</g>
<!-- Node10&#45;&gt;Node9 -->
<g id="edge9" class="edge"><title>Node10&#45;&gt;Node9</title>
<path fill="none" stroke="midnightblue" d="M106.115,-230.359C129.821,-230.359 156.306,-230.359 175.895,-230.359"/>
<polygon fill="midnightblue" stroke="midnightblue" points="105.805,-226.859 95.8051,-230.359 105.805,-233.859 105.805,-226.859"/>
</g>
<!-- Node11 -->
<g id="node11" class="node"><title>Node11</title>
<g id="a_node11"><a xlink:href="classai_1_1AIRegistry_1_1ConditionFactory.html" target="_top" xlink:title="ai::AIRegistry::Condition\lFactory">
<polygon fill="white" stroke="black" points="1085,-227.359 1085,-257.359 1209,-257.359 1209,-227.359 1085,-227.359"/>
<text text-anchor="start" x="1093" y="-245.359" font-family="Helvetica,sans-Serif" font-size="10.00">ai::AIRegistry::Condition</text>
<text text-anchor="middle" x="1147" y="-234.359" font-family="Helvetica,sans-Serif" font-size="10.00">Factory</text>
</a>
</g>
</g>
<!-- Node11&#45;&gt;Node2 -->
<g id="edge10" class="edge"><title>Node11&#45;&gt;Node2</title>
<path fill="none" stroke="#9a32cd" stroke-dasharray="5,2" d="M1219.13,-250.555C1262.05,-256.95 1317.29,-267.782 1364,-285.359 1388.14,-294.444 1413.57,-310.512 1428.59,-320.787"/>
<polygon fill="#9a32cd" stroke="#9a32cd" points="1219.45,-247.065 1209.06,-249.101 1218.45,-253.993 1219.45,-247.065"/>
<text text-anchor="middle" x="1299" y="-288.359" font-family="Helvetica,sans-Serif" font-size="10.00"> _conditionFactory</text>
</g>
<!-- Node12&#45;&gt;Node11 -->
<g id="edge11" class="edge"><title>Node12&#45;&gt;Node11</title>
<path fill="none" stroke="midnightblue" d="M915.12,-244.601C967.768,-244.09 1036.23,-243.425 1084.89,-242.953"/>
<polygon fill="midnightblue" stroke="midnightblue" points="914.777,-241.104 904.811,-244.701 914.845,-248.104 914.777,-241.104"/>
</g>
<!-- Node13&#45;&gt;Node12 -->
<g id="edge13" class="edge"><title>Node13&#45;&gt;Node12</title>
<path fill="none" stroke="#9a32cd" stroke-dasharray="5,2" d="M550.569,-236.11C616.345,-238.249 706.389,-241.177 767.413,-243.161"/>
<polygon fill="#9a32cd" stroke="#9a32cd" points="550.337,-232.6 540.229,-235.773 550.11,-239.597 550.337,-232.6"/>
<text text-anchor="middle" x="659" y="-245.359" font-family="Helvetica,sans-Serif" font-size="10.00"> _factories</text>
</g>
<!-- Node14 -->
<g id="node14" class="node"><title>Node14</title>
<g id="a_node14"><a xlink:href="classai_1_1IFactory.html" target="_top" xlink:title="ai::IFactory\&lt; ICondition,\l ConditionFactoryContext \&gt;">
<polygon fill="white" stroke="black" points="137.5,-141.359 137.5,-171.359 274.5,-171.359 274.5,-141.359 137.5,-141.359"/>
<text text-anchor="start" x="145.5" y="-159.359" font-family="Helvetica,sans-Serif" font-size="10.00">ai::IFactory&lt; ICondition,</text>
<text text-anchor="middle" x="206" y="-148.359" font-family="Helvetica,sans-Serif" font-size="10.00"> ConditionFactoryContext &gt;</text>
</a>
</g>
</g>
<!-- Node14&#45;&gt;Node13 -->
<g id="edge14" class="edge"><title>Node14&#45;&gt;Node13</title>
<path fill="none" stroke="#9a32cd" stroke-dasharray="5,2" d="M284.745,-149.937C303.136,-150.33 322.486,-152.348 340,-157.359 374.35,-167.188 408.611,-189.37 432.387,-207.247"/>
<polygon fill="#9a32cd" stroke="#9a32cd" points="284.665,-146.437 274.644,-149.877 284.623,-153.437 284.665,-146.437"/>
<text text-anchor="middle" x="318" y="-160.359" font-family="Helvetica,sans-Serif" font-size="10.00"> elements</text>
</g>
<!-- Node15 -->
<g id="node15" class="node"><title>Node15</title>
<g id="a_node15"><a xlink:href="classai_1_1AIRegistry_1_1FilterFactory.html" target="_top" xlink:title="ai::AIRegistry::FilterFactory">
<polygon fill="white" stroke="black" points="1078.5,-414.859 1078.5,-433.859 1215.5,-433.859 1215.5,-414.859 1078.5,-414.859"/>
<text text-anchor="middle" x="1147" y="-421.859" font-family="Helvetica,sans-Serif" font-size="10.00">ai::AIRegistry::FilterFactory</text>
</a>
</g>
</g>
<!-- Node15&#45;&gt;Node2 -->
<g id="edge16" class="edge"><title>Node15&#45;&gt;Node2</title>
<path fill="none" stroke="#9a32cd" stroke-dasharray="5,2" d="M1225.53,-416.23C1267.62,-410.026 1319.92,-399.363 1364,-381.359 1389.61,-370.897 1415.81,-351.657 1430.38,-340.033"/>
<polygon fill="#9a32cd" stroke="#9a32cd" points="1225.02,-412.767 1215.61,-417.637 1226,-419.697 1225.02,-412.767"/>
<text text-anchor="middle" x="1299" y="-417.359" font-family="Helvetica,sans-Serif" font-size="10.00"> _filterFactory</text>
</g>
<!-- Node16&#45;&gt;Node15 -->
<g id="edge17" class="edge"><title>Node16&#45;&gt;Node15</title>
<path fill="none" stroke="midnightblue" d="M905.163,-427.477C956.689,-426.81 1027.08,-425.899 1078.46,-425.234"/>
<polygon fill="midnightblue" stroke="midnightblue" points="905.074,-423.978 895.121,-427.607 905.165,-430.977 905.074,-423.978"/>
</g>
<!-- Node17&#45;&gt;Node16 -->
<g id="edge19" class="edge"><title>Node17&#45;&gt;Node16</title>
<path fill="none" stroke="#9a32cd" stroke-dasharray="5,2" d="M560.522,-458.113C628.751,-450.717 718.721,-440.964 776.722,-434.677"/>
<polygon fill="#9a32cd" stroke="#9a32cd" points="559.758,-454.675 550.194,-459.233 560.513,-461.635 559.758,-454.675"/>
<text text-anchor="middle" x="659" y="-457.359" font-family="Helvetica,sans-Serif" font-size="10.00"> _factories</text>
</g>
<!-- Node18 -->
<g id="node18" class="node"><title>Node18</title>
<g id="a_node18"><a xlink:href="classai_1_1IFactory.html" target="_top" xlink:title="ai::IFactory\&lt; IFilter,\l FilterFactoryContext \&gt;">
<polygon fill="white" stroke="black" points="147,-459.359 147,-489.359 265,-489.359 265,-459.359 147,-459.359"/>
<text text-anchor="start" x="155" y="-477.359" font-family="Helvetica,sans-Serif" font-size="10.00">ai::IFactory&lt; IFilter,</text>
<text text-anchor="middle" x="206" y="-466.359" font-family="Helvetica,sans-Serif" font-size="10.00"> FilterFactoryContext &gt;</text>
</a>
</g>
</g>
<!-- Node18&#45;&gt;Node17 -->
<g id="edge20" class="edge"><title>Node18&#45;&gt;Node17</title>
<path fill="none" stroke="#9a32cd" stroke-dasharray="5,2" d="M275.463,-472.761C307.446,-472.014 345.83,-471.118 379.593,-470.33"/>
<polygon fill="#9a32cd" stroke="#9a32cd" points="275.233,-469.265 265.317,-472.998 275.396,-476.263 275.233,-469.265"/>
<text text-anchor="middle" x="318" y="-475.359" font-family="Helvetica,sans-Serif" font-size="10.00"> elements</text>
</g>
<!-- Node19 -->
<g id="node19" class="node"><title>Node19</title>
<g id="a_node19"><a xlink:href="classai_1_1AIRegistry_1_1TreeNodeFactory.html" target="_top" xlink:title="ai::AIRegistry::TreeNode\lFactory">
<polygon fill="white" stroke="black" points="1084.5,-364.359 1084.5,-394.359 1209.5,-394.359 1209.5,-364.359 1084.5,-364.359"/>
<text text-anchor="start" x="1092.5" y="-382.359" font-family="Helvetica,sans-Serif" font-size="10.00">ai::AIRegistry::TreeNode</text>
<text text-anchor="middle" x="1147" y="-371.359" font-family="Helvetica,sans-Serif" font-size="10.00">Factory</text>
</a>
</g>
</g>
<!-- Node19&#45;&gt;Node2 -->
<g id="edge22" class="edge"><title>Node19&#45;&gt;Node2</title>
<path fill="none" stroke="#9a32cd" stroke-dasharray="5,2" d="M1219.43,-368.737C1261.56,-362.317 1315.88,-353.771 1364,-345.359 1377.18,-343.056 1391.57,-340.345 1404.36,-337.865"/>
<polygon fill="#9a32cd" stroke="#9a32cd" points="1218.9,-365.277 1209.54,-370.239 1219.95,-372.198 1218.9,-365.277"/>
<text text-anchor="middle" x="1299" y="-369.359" font-family="Helvetica,sans-Serif" font-size="10.00"> _treeNodeFactory</text>
</g>
<!-- Node20&#45;&gt;Node19 -->
<g id="edge23" class="edge"><title>Node20&#45;&gt;Node19</title>
<path fill="none" stroke="midnightblue" d="M915.838,-371.166C968.22,-373.031 1036.01,-375.444 1084.43,-377.167"/>
<polygon fill="midnightblue" stroke="midnightblue" points="915.695,-367.659 905.577,-370.801 915.446,-374.654 915.695,-367.659"/>
</g>
<!-- Node21&#45;&gt;Node20 -->
<g id="edge25" class="edge"><title>Node21&#45;&gt;Node20</title>
<path fill="none" stroke="#9a32cd" stroke-dasharray="5,2" d="M579.842,-396.019C640.864,-389.404 714.035,-381.472 766.342,-375.802"/>
<polygon fill="#9a32cd" stroke="#9a32cd" points="579.334,-392.553 569.769,-397.111 580.088,-399.513 579.334,-392.553"/>
<text text-anchor="middle" x="659" y="-397.359" font-family="Helvetica,sans-Serif" font-size="10.00"> _factories</text>
</g>
<!-- Node22 -->
<g id="node22" class="node"><title>Node22</title>
<g id="a_node22"><a xlink:href="classai_1_1IFactory.html" target="_top" xlink:title="ai::IFactory\&lt; TreeNode,\l TreeNodeFactoryContext \&gt;">
<polygon fill="white" stroke="black" points="136.5,-391.359 136.5,-421.359 275.5,-421.359 275.5,-391.359 136.5,-391.359"/>
<text text-anchor="start" x="144.5" y="-409.359" font-family="Helvetica,sans-Serif" font-size="10.00">ai::IFactory&lt; TreeNode,</text>
<text text-anchor="middle" x="206" y="-398.359" font-family="Helvetica,sans-Serif" font-size="10.00"> TreeNodeFactoryContext &gt;</text>
</a>
</g>
</g>
<!-- Node22&#45;&gt;Node21 -->
<g id="edge27" class="edge"><title>Node22&#45;&gt;Node21</title>
<path fill="none" stroke="#9a32cd" stroke-dasharray="5,2" d="M286.012,-406.946C303.773,-407.08 322.532,-407.223 340,-407.359 346.674,-407.411 353.549,-407.465 360.48,-407.52"/>
<polygon fill="#9a32cd" stroke="#9a32cd" points="285.713,-403.444 275.687,-406.869 285.66,-410.444 285.713,-403.444"/>
<text text-anchor="middle" x="318" y="-410.359" font-family="Helvetica,sans-Serif" font-size="10.00"> elements</text>
</g>
<!-- Node23 -->
<g id="node23" class="node"><title>Node23</title>
<g id="a_node23"><a xlink:href="classai_1_1AIRegistry_1_1SteeringFactory.html" target="_top" xlink:title="ai::AIRegistry::Steering\lFactory">
<polygon fill="white" stroke="black" points="1087.5,-315.359 1087.5,-345.359 1206.5,-345.359 1206.5,-315.359 1087.5,-315.359"/>
<text text-anchor="start" x="1095.5" y="-333.359" font-family="Helvetica,sans-Serif" font-size="10.00">ai::AIRegistry::Steering</text>
<text text-anchor="middle" x="1147" y="-322.359" font-family="Helvetica,sans-Serif" font-size="10.00">Factory</text>
</a>
</g>
</g>
<!-- Node23&#45;&gt;Node2 -->
<g id="edge28" class="edge"><title>Node23&#45;&gt;Node2</title>
<path fill="none" stroke="#9a32cd" stroke-dasharray="5,2" d="M1217.06,-330.359C1275.53,-330.359 1357.15,-330.359 1404.3,-330.359"/>
<polygon fill="#9a32cd" stroke="#9a32cd" points="1216.79,-326.859 1206.79,-330.359 1216.79,-333.859 1216.79,-326.859"/>
<text text-anchor="middle" x="1299" y="-333.359" font-family="Helvetica,sans-Serif" font-size="10.00"> _steeringFactory</text>
</g>
<!-- Node24&#45;&gt;Node23 -->
<g id="edge29" class="edge"><title>Node24&#45;&gt;Node23</title>
<path fill="none" stroke="midnightblue" d="M936.511,-315.444C986.188,-318.981 1044.59,-323.139 1087.09,-326.165"/>
<polygon fill="midnightblue" stroke="midnightblue" points="936.599,-311.942 926.376,-314.723 936.102,-318.924 936.599,-311.942"/>
</g>
<!-- Node25&#45;&gt;Node24 -->
<g id="edge31" class="edge"><title>Node25&#45;&gt;Node24</title>
<path fill="none" stroke="#9a32cd" stroke-dasharray="5,2" d="M549.211,-304.163C600.713,-304.169 668.2,-304.407 728,-305.359 733.853,-305.453 739.886,-305.568 745.965,-305.699"/>
<polygon fill="#9a32cd" stroke="#9a32cd" points="549.13,-300.663 539.13,-304.165 549.131,-307.663 549.13,-300.663"/>
<text text-anchor="middle" x="659" y="-308.359" font-family="Helvetica,sans-Serif" font-size="10.00"> _factories</text>
</g>
<!-- Node26 -->
<g id="node26" class="node"><title>Node26</title>
<g id="a_node26"><a xlink:href="classai_1_1IFactory.html" target="_top" xlink:title="ai::IFactory\&lt; movement\l::ISteering, SteeringFactory\lContext \&gt;">
<polygon fill="white" stroke="black" points="137.5,-311.859 137.5,-352.859 274.5,-352.859 274.5,-311.859 137.5,-311.859"/>
<text text-anchor="start" x="145.5" y="-340.859" font-family="Helvetica,sans-Serif" font-size="10.00">ai::IFactory&lt; movement</text>
<text text-anchor="start" x="145.5" y="-329.859" font-family="Helvetica,sans-Serif" font-size="10.00">::ISteering, SteeringFactory</text>
<text text-anchor="middle" x="206" y="-318.859" font-family="Helvetica,sans-Serif" font-size="10.00">Context &gt;</text>
</a>
</g>
</g>
<!-- Node26&#45;&gt;Node25 -->
<g id="edge32" class="edge"><title>Node26&#45;&gt;Node25</title>
<path fill="none" stroke="#9a32cd" stroke-dasharray="5,2" d="M284.765,-323.887C318.377,-320.225 357.505,-315.962 390.612,-312.355"/>
<polygon fill="#9a32cd" stroke="#9a32cd" points="284.086,-320.44 274.524,-325.003 284.844,-327.399 284.086,-320.44"/>
<text text-anchor="middle" x="318" y="-326.359" font-family="Helvetica,sans-Serif" font-size="10.00"> elements</text>
</g>
<!-- Node27 -->
<g id="node27" class="node"><title>Node27</title>
<polygon fill="white" stroke="#bfbfbf" points="1382,-224.859 1382,-243.859 1504,-243.859 1504,-224.859 1382,-224.859"/>
<text text-anchor="middle" x="1443" y="-231.859" font-family="Helvetica,sans-Serif" font-size="10.00">std::vector&lt; luaL_Reg &gt;</text>
</g>
<!-- Node27&#45;&gt;Node1 -->
<g id="edge34" class="edge"><title>Node27&#45;&gt;Node1</title>
<path fill="none" stroke="#9a32cd" stroke-dasharray="5,2" d="M1514.28,-230.142C1539.01,-226.777 1566.49,-220.827 1590,-210.359 1612.71,-200.25 1634.24,-180.252 1645.93,-168.216"/>
<polygon fill="#9a32cd" stroke="#9a32cd" points="1513.73,-226.685 1504.24,-231.391 1514.59,-233.631 1513.73,-226.685"/>
<text text-anchor="middle" x="1556" y="-298.359" font-family="Helvetica,sans-Serif" font-size="10.00"> zoneFuncs</text>
<text text-anchor="middle" x="1556" y="-287.359" font-family="Helvetica,sans-Serif" font-size="10.00">aggroMgrFuncs</text>
<text text-anchor="middle" x="1556" y="-276.359" font-family="Helvetica,sans-Serif" font-size="10.00">vecFuncs</text>
<text text-anchor="middle" x="1556" y="-265.359" font-family="Helvetica,sans-Serif" font-size="10.00">aiFuncs</text>
<text text-anchor="middle" x="1556" y="-254.359" font-family="Helvetica,sans-Serif" font-size="10.00">groupMgrFuncs</text>
<text text-anchor="middle" x="1556" y="-243.359" font-family="Helvetica,sans-Serif" font-size="10.00">registryFuncs</text>
<text text-anchor="middle" x="1556" y="-232.359" font-family="Helvetica,sans-Serif" font-size="10.00">characterFuncs</text>
</g>
<!-- Node28&#45;&gt;Node1 -->
<g id="edge35" class="edge"><title>Node28&#45;&gt;Node1</title>
<path fill="none" stroke="#9a32cd" stroke-dasharray="5,2" d="M737.969,-192.511C807.081,-194.232 910.748,-196.359 1001,-196.359 1001,-196.359 1001,-196.359 1444,-196.359 1508.02,-196.359 1581.26,-179.206 1622.43,-167.948"/>
<polygon fill="#9a32cd" stroke="#9a32cd" points="737.69,-189.003 727.605,-192.25 737.514,-196.001 737.69,-189.003"/>
<text text-anchor="middle" x="1147" y="-199.359" font-family="Helvetica,sans-Serif" font-size="10.00"> _treeNodeFactories</text>
</g>
<!-- Node29 -->
<g id="node29" class="node"><title>Node29</title>
<g id="a_node29"><a xlink:href="classai_1_1ReadWriteLock.html" target="_top" xlink:title="ai::ReadWriteLock">
<polygon fill="white" stroke="black" points="1394,-148.859 1394,-167.859 1492,-167.859 1492,-148.859 1394,-148.859"/>
<text text-anchor="middle" x="1443" y="-155.859" font-family="Helvetica,sans-Serif" font-size="10.00">ai::ReadWriteLock</text>
</a>
</g>
</g>
<!-- Node29&#45;&gt;Node1 -->
<g id="edge37" class="edge"><title>Node29&#45;&gt;Node1</title>
<path fill="none" stroke="#9a32cd" stroke-dasharray="5,2" d="M1502.19,-158.359C1535.43,-158.359 1576.57,-158.359 1607.79,-158.359"/>
<polygon fill="#9a32cd" stroke="#9a32cd" points="1502.14,-154.859 1492.14,-158.359 1502.14,-161.859 1502.14,-154.859"/>
<text text-anchor="middle" x="1556" y="-161.359" font-family="Helvetica,sans-Serif" font-size="10.00"> _lock</text>
</g>
<!-- Node30&#45;&gt;Node1 -->
<g id="edge38" class="edge"><title>Node30&#45;&gt;Node1</title>
<path fill="none" stroke="#9a32cd" stroke-dasharray="5,2" d="M1070.38,-121.873C1166.67,-123.04 1349.15,-126.86 1504,-139.359 1538.9,-142.176 1578.12,-147.167 1607.84,-151.327"/>
<polygon fill="#9a32cd" stroke="#9a32cd" points="1070.24,-118.371 1060.2,-121.756 1070.16,-125.371 1070.24,-118.371"/>
<text text-anchor="middle" x="1299" y="-133.359" font-family="Helvetica,sans-Serif" font-size="10.00"> _filterFactories</text>
</g>
<!-- Node31&#45;&gt;Node1 -->
<g id="edge40" class="edge"><title>Node31&#45;&gt;Node1</title>
<path fill="none" stroke="#9a32cd" stroke-dasharray="5,2" d="M1374.3,-74.7521C1434.75,-73.0213 1521.04,-77.1234 1590,-106.359 1613.15,-116.174 1634.86,-136.67 1646.39,-148.793"/>
<polygon fill="#9a32cd" stroke="#9a32cd" points="1373.95,-71.2621 1364.07,-75.1073 1374.19,-78.2579 1373.95,-71.2621"/>
<text text-anchor="middle" x="1443" y="-85.3594" font-family="Helvetica,sans-Serif" font-size="10.00"> _steeringFactories</text>
</g>
<!-- Node32&#45;&gt;Node1 -->
<g id="edge42" class="edge"><title>Node32&#45;&gt;Node1</title>
<path fill="none" stroke="#9a32cd" stroke-dasharray="5,2" d="M737.007,-36.6502C806.12,-36.075 910.338,-35.3594 1001,-35.3594 1001,-35.3594 1001,-35.3594 1444,-35.3594 1512.31,-35.3594 1533.13,-45.5174 1590,-83.3594 1616.82,-101.21 1639.14,-133.001 1649.23,-148.841"/>
<polygon fill="#9a32cd" stroke="#9a32cd" points="736.617,-33.1532 726.647,-36.7375 736.676,-40.153 736.617,-33.1532"/>
<text text-anchor="middle" x="1147" y="-38.3594" font-family="Helvetica,sans-Serif" font-size="10.00"> _conditionFactories</text>
</g>
</g>
</svg>
