<?xml version="1.0" encoding="UTF-8" standalone="no"?>
<!DOCTYPE svg PUBLIC "-//W3C//DTD SVG 1.1//EN"
 "http://www.w3.org/Graphics/SVG/1.1/DTD/svg11.dtd">
<!-- Generated by graphviz version 2.36.0 (20140111.2315)
 -->
<!-- Title: ai::ITimedNode Pages: 1 -->
<svg width="308pt" height="246pt"
 viewBox="0.00 0.00 308.00 246.00" xmlns="http://www.w3.org/2000/svg" xmlns:xlink="http://www.w3.org/1999/xlink">
<g id="graph0" class="graph" transform="scale(1 1) rotate(0) translate(4 242)">
<title>ai::ITimedNode</title>
<polygon fill="white" stroke="none" points="-4,4 -4,-242 304,-242 304,4 -4,4"/>
<!-- Node1 -->
<g id="node1" class="node"><title>Node1</title>
<polygon fill="#bfbfbf" stroke="black" points="73.5,-0.5 73.5,-19.5 156.5,-19.5 156.5,-0.5 73.5,-0.5"/>
<text text-anchor="middle" x="115" y="-7.5" font-family="Helvetica,sans-Serif" font-size="10.00">ai::ITimedNode</text>
</g>
<!-- Node2 -->
<g id="node2" class="node"><title>Node2</title>
<g id="a_node2"><a xlink:href="classai_1_1TreeNode.html" target="_top" xlink:title="The base class for all behaviour tree actions. ">
<polygon fill="white" stroke="black" points="78.5,-58.5 78.5,-77.5 151.5,-77.5 151.5,-58.5 78.5,-58.5"/>
<text text-anchor="middle" x="115" y="-65.5" font-family="Helvetica,sans-Serif" font-size="10.00">ai::TreeNode</text>
</a>
</g>
</g>
<!-- Node2&#45;&gt;Node1 -->
<g id="edge1" class="edge"><title>Node2&#45;&gt;Node1</title>
<path fill="none" stroke="midnightblue" d="M115,-47.953C115,-38.2875 115,-27.0312 115,-19.5052"/>
<polygon fill="midnightblue" stroke="midnightblue" points="111.5,-48.25 115,-58.25 118.5,-48.25 111.5,-48.25"/>
</g>
<!-- Node3 -->
<g id="node3" class="node"><title>Node3</title>
<g id="a_node3"><a xlink:href="classai_1_1__MemObject.html" target="_top" xlink:title="MemObject">
<polygon fill="white" stroke="black" points="-0.5,-148.5 -0.5,-167.5 66.5,-167.5 66.5,-148.5 -0.5,-148.5"/>
<text text-anchor="middle" x="33" y="-155.5" font-family="Helvetica,sans-Serif" font-size="10.00">MemObject</text>
</a>
</g>
</g>
<!-- Node3&#45;&gt;Node2 -->
<g id="edge2" class="edge"><title>Node3&#45;&gt;Node2</title>
<path fill="none" stroke="midnightblue" d="M48.0872,-140.809C65.4135,-122.215 93.2018,-92.3932 106.871,-77.7241"/>
<polygon fill="midnightblue" stroke="midnightblue" points="45.4189,-138.538 41.1623,-148.241 50.5402,-143.31 45.4189,-138.538"/>
</g>
<!-- Node4 -->
<g id="node4" class="node"><title>Node4</title>
<g id="a_node4"><a xlink:title="STL class. ">
<polygon fill="white" stroke="#bfbfbf" points="85,-148.5 85,-167.5 145,-167.5 145,-148.5 85,-148.5"/>
<text text-anchor="middle" x="115" y="-155.5" font-family="Helvetica,sans-Serif" font-size="10.00">std::string</text>
</a>
</g>
</g>
<!-- Node4&#45;&gt;Node2 -->
<g id="edge3" class="edge"><title>Node4&#45;&gt;Node2</title>
<path fill="none" stroke="#9a32cd" stroke-dasharray="5,2" d="M115,-137.978C115,-119.31 115,-91.6696 115,-77.7241"/>
<polygon fill="#9a32cd" stroke="#9a32cd" points="111.5,-138.24 115,-148.241 118.5,-138.241 111.5,-138.24"/>
<text text-anchor="middle" x="142.5" y="-121.5" font-family="Helvetica,sans-Serif" font-size="10.00"> _type</text>
<text text-anchor="middle" x="142.5" y="-110.5" font-family="Helvetica,sans-Serif" font-size="10.00">_name</text>
<text text-anchor="middle" x="142.5" y="-99.5" font-family="Helvetica,sans-Serif" font-size="10.00">_parameters</text>
</g>
<!-- Node5 -->
<g id="node5" class="node"><title>Node5</title>
<g id="a_node5"><a xlink:title="STL class. ">
<polygon fill="white" stroke="#bfbfbf" points="67.5,-207 67.5,-237 162.5,-237 162.5,-207 67.5,-207"/>
<text text-anchor="start" x="75.5" y="-225" font-family="Helvetica,sans-Serif" font-size="10.00">std::basic_string&lt;</text>
<text text-anchor="middle" x="115" y="-214" font-family="Helvetica,sans-Serif" font-size="10.00"> char &gt;</text>
</a>
</g>
</g>
<!-- Node5&#45;&gt;Node4 -->
<g id="edge4" class="edge"><title>Node5&#45;&gt;Node4</title>
<path fill="none" stroke="midnightblue" d="M115,-196.871C115,-186.663 115,-175.408 115,-167.842"/>
<polygon fill="midnightblue" stroke="midnightblue" points="111.5,-196.931 115,-206.931 118.5,-196.931 111.5,-196.931"/>
</g>
<!-- Node6 -->
<g id="node6" class="node"><title>Node6</title>
<polygon fill="white" stroke="#bfbfbf" points="163.5,-148.5 163.5,-167.5 300.5,-167.5 300.5,-148.5 163.5,-148.5"/>
<text text-anchor="middle" x="232" y="-155.5" font-family="Helvetica,sans-Serif" font-size="10.00">std::vector&lt; TreeNodePtr &gt;</text>
</g>
<!-- Node6&#45;&gt;Node2 -->
<g id="edge5" class="edge"><title>Node6&#45;&gt;Node2</title>
<path fill="none" stroke="#9a32cd" stroke-dasharray="5,2" d="M219.065,-140.206C208.161,-126.904 191.563,-108.535 174,-96 163.364,-88.4088 150.253,-82.1534 139.094,-77.5819"/>
<polygon fill="#9a32cd" stroke="#9a32cd" points="216.39,-142.466 225.361,-148.104 221.864,-138.103 216.39,-142.466"/>
<text text-anchor="middle" x="231.5" y="-110.5" font-family="Helvetica,sans-Serif" font-size="10.00"> _children</text>
</g>
</g>
</svg>
