<?xml version="1.0" encoding="UTF-8" standalone="no"?>
<!DOCTYPE svg PUBLIC "-//W3C//DTD SVG 1.1//EN"
 "http://www.w3.org/Graphics/SVG/1.1/DTD/svg11.dtd">
<!-- Generated by graphviz version 2.36.0 (20140111.2315)
 -->
<!-- Title: ai::AggroMgr Pages: 1 -->
<svg width="112pt" height="164pt"
 viewBox="0.00 0.00 112.00 164.00" xmlns="http://www.w3.org/2000/svg" xmlns:xlink="http://www.w3.org/1999/xlink">
<g id="graph0" class="graph" transform="scale(1 1) rotate(0) translate(4 160)">
<title>ai::AggroMgr</title>
<polygon fill="white" stroke="none" points="-4,4 -4,-160 108,-160 108,4 -4,4"/>
<!-- Node1 -->
<g id="node1" class="node"><title>Node1</title>
<polygon fill="#bfbfbf" stroke="black" points="16,-0.5 16,-19.5 88,-19.5 88,-0.5 16,-0.5"/>
<text text-anchor="middle" x="52" y="-7.5" font-family="Helvetica,sans-Serif" font-size="10.00">ai::AggroMgr</text>
</g>
<!-- Node2 -->
<g id="node2" class="node"><title>Node2</title>
<polygon fill="white" stroke="#bfbfbf" points="0,-68.5 0,-87.5 104,-87.5 104,-68.5 0,-68.5"/>
<text text-anchor="middle" x="52" y="-75.5" font-family="Helvetica,sans-Serif" font-size="10.00">std::vector&lt; Entry &gt;</text>
</g>
<!-- Node2&#45;&gt;Node1 -->
<g id="edge1" class="edge"><title>Node2&#45;&gt;Node1</title>
<path fill="none" stroke="#9a32cd" stroke-dasharray="5,2" d="M52,-58.0413C52,-45.4724 52,-29.5631 52,-19.8411"/>
<polygon fill="#9a32cd" stroke="#9a32cd" points="48.5001,-58.3716 52,-68.3717 55.5001,-58.3717 48.5001,-58.3716"/>
<text text-anchor="middle" x="71" y="-41.5" font-family="Helvetica,sans-Serif" font-size="10.00"> _entries</text>
</g>
<!-- Node3 -->
<g id="node3" class="node"><title>Node3</title>
<g id="a_node3"><a xlink:href="classai_1_1Entry.html" target="_top" xlink:title="One entry for the AggroMgr. ">
<polygon fill="white" stroke="black" points="25.5,-136.5 25.5,-155.5 78.5,-155.5 78.5,-136.5 25.5,-136.5"/>
<text text-anchor="middle" x="52" y="-143.5" font-family="Helvetica,sans-Serif" font-size="10.00">ai::Entry</text>
</a>
</g>
</g>
<!-- Node3&#45;&gt;Node2 -->
<g id="edge2" class="edge"><title>Node3&#45;&gt;Node2</title>
<path fill="none" stroke="#9a32cd" stroke-dasharray="5,2" d="M52,-126.041C52,-113.472 52,-97.5631 52,-87.8411"/>
<polygon fill="#9a32cd" stroke="#9a32cd" points="48.5001,-126.372 52,-136.372 55.5001,-126.372 48.5001,-126.372"/>
<text text-anchor="middle" x="73.5" y="-109.5" font-family="Helvetica,sans-Serif" font-size="10.00"> elements</text>
</g>
</g>
</svg>
