<?xml version="1.0" encoding="UTF-8" standalone="no"?>
<!DOCTYPE svg PUBLIC "-//W3C//DTD SVG 1.1//EN"
 "http://www.w3.org/Graphics/SVG/1.1/DTD/svg11.dtd">
<!-- Generated by graphviz version 2.36.0 (20140111.2315)
 -->
<!-- Title: /home/travis/build/mgerhardy/simpleai/src/ai/common/Random.h Pages: 1 -->
<!--zoomable 620 -->
<svg id="main" version="1.1" xmlns="http://www.w3.org/2000/svg" xmlns:xlink="http://www.w3.org/1999/xlink" xml:space="preserve" onload="init(evt)">
<style type="text/css"><![CDATA[
.edge:hover path { stroke: red; }
.edge:hover polygon { stroke: red; fill: red; }
]]></style>
<script type="text/javascript"><![CDATA[
var edges = document.getElementsByTagName('g');
if (edges && edges.length) {
  for (var i=0;i<edges.length;i++) {
    if (edges[i].id.substr(0,4)=='edge') {
      edges[i].setAttribute('class','edge');
    }
  }
}
]]></script>
        <defs>
                <circle id="rim" cx="0" cy="0" r="7"/>
                <circle id="rim2" cx="0" cy="0" r="3.5"/>
                <g id="zoomPlus">
                        <use xlink:href="#rim" fill="#404040">
                                <set attributeName="fill" to="#808080" begin="zoomplus.mouseover" end="zoomplus.mouseout"/>
                        </use>
                        <path d="M-4,0h8M0,-4v8" fill="none" stroke="white" stroke-width="1.5" pointer-events="none"/>
                </g>
                <g id="zoomMin">
                        <use xlink:href="#rim" fill="#404040">
                                <set attributeName="fill" to="#808080" begin="zoomminus.mouseover" end="zoomminus.mouseout"/>
                        </use>
                        <path d="M-4,0h8" fill="none" stroke="white" stroke-width="1.5" pointer-events="none"/>
                </g>
                <g id="dirArrow">
                        <path fill="none" stroke="white" stroke-width="1.5" d="M0,-3.0v7 M-2.5,-0.5L0,-3.0L2.5,-0.5"/>
                </g>
               <g id="resetDef">
                       <use xlink:href="#rim2" fill="#404040">
                               <set attributeName="fill" to="#808080" begin="reset.mouseover" end="reset.mouseout"/>
                       </use>
               </g>
        </defs>

<script type="text/javascript">
var viewWidth = 1435;
var viewHeight = 620;
var sectionId = 'dynsection-1';
</script>
<script xlink:href="svgpan.js"/>
<svg id="graph" class="graph">
<g id="viewport">
<title>/home/travis/build/mgerhardy/simpleai/src/ai/common/Random.h</title>
<polygon fill="white" stroke="none" points="-4,4 -4,-616 1431,-616 1431,4 -4,4"/>
<!-- Node1 -->
<g id="node1" class="node"><title>Node1</title>
<polygon fill="#bfbfbf" stroke="black" points="887,-570.5 887,-611.5 1019,-611.5 1019,-570.5 887,-570.5"/>
<text text-anchor="start" x="895" y="-599.5" font-family="Helvetica,sans-Serif" font-size="10.00">/home/travis/build</text>
<text text-anchor="start" x="895" y="-588.5" font-family="Helvetica,sans-Serif" font-size="10.00">/mgerhardy/simpleai</text>
<text text-anchor="middle" x="953" y="-577.5" font-family="Helvetica,sans-Serif" font-size="10.00">/src/ai/common/Random.h</text>
</g>
<!-- Node2 -->
<g id="node2" class="node"><title>Node2</title>
<g id="a_node2"><a xlink:href="ProbabilitySelector_8h.html" target="_top" xlink:title="/home/travis/build\l/mgerhardy/simpleai\l/src/ai/tree/ProbabilitySelector.h">
<polygon fill="white" stroke="black" points="722,-492.5 722,-533.5 878,-533.5 878,-492.5 722,-492.5"/>
<text text-anchor="start" x="730" y="-521.5" font-family="Helvetica,sans-Serif" font-size="10.00">/home/travis/build</text>
<text text-anchor="start" x="730" y="-510.5" font-family="Helvetica,sans-Serif" font-size="10.00">/mgerhardy/simpleai</text>
<text text-anchor="middle" x="800" y="-499.5" font-family="Helvetica,sans-Serif" font-size="10.00">/src/ai/tree/ProbabilitySelector.h</text>
</a>
</g>
</g>
<!-- Node1&#45;&gt;Node2 -->
<g id="edge1" class="edge"><title>Node1&#45;&gt;Node2</title>
<path fill="none" stroke="midnightblue" d="M904.499,-565.908C883.462,-555.458 859.147,-543.38 839.268,-533.506"/>
<polygon fill="midnightblue" stroke="midnightblue" points="903.086,-569.114 913.599,-570.428 906.2,-562.845 903.086,-569.114"/>
</g>
<!-- Node8 -->
<g id="node8" class="node"><title>Node8</title>
<g id="a_node8"><a xlink:href="SimpleAI_8h.html" target="_top" xlink:title="/home/travis/build\l/mgerhardy/simpleai\l/src/ai/SimpleAI.h">
<polygon fill="white" stroke="black" points="729,-0.5 729,-41.5 833,-41.5 833,-0.5 729,-0.5"/>
<text text-anchor="start" x="737" y="-29.5" font-family="Helvetica,sans-Serif" font-size="10.00">/home/travis/build</text>
<text text-anchor="start" x="737" y="-18.5" font-family="Helvetica,sans-Serif" font-size="10.00">/mgerhardy/simpleai</text>
<text text-anchor="middle" x="781" y="-7.5" font-family="Helvetica,sans-Serif" font-size="10.00">/src/ai/SimpleAI.h</text>
</a>
</g>
</g>
<!-- Node1&#45;&gt;Node8 -->
<g id="edge41" class="edge"><title>Node1&#45;&gt;Node8</title>
<path fill="none" stroke="midnightblue" d="M876.621,-585.691C650.476,-571.922 0,-524.617 0,-436 0,-436 0,-436 0,-176 0,-125.16 15.7415,-104.709 59,-78 115.63,-43.0344 572.551,-27.5985 728.818,-23.307"/>
<polygon fill="midnightblue" stroke="midnightblue" points="876.551,-589.193 886.744,-586.302 876.973,-582.206 876.551,-589.193"/>
</g>
<!-- Node18 -->
<g id="node18" class="node"><title>Node18</title>
<g id="a_node18"><a xlink:href="Steer_8h.html" target="_top" xlink:title="/home/travis/build\l/mgerhardy/simpleai\l/src/ai/tree/Steer.h">
<polygon fill="white" stroke="black" points="1028,-492.5 1028,-533.5 1132,-533.5 1132,-492.5 1028,-492.5"/>
<text text-anchor="start" x="1036" y="-521.5" font-family="Helvetica,sans-Serif" font-size="10.00">/home/travis/build</text>
<text text-anchor="start" x="1036" y="-510.5" font-family="Helvetica,sans-Serif" font-size="10.00">/mgerhardy/simpleai</text>
<text text-anchor="middle" x="1080" y="-499.5" font-family="Helvetica,sans-Serif" font-size="10.00">/src/ai/tree/Steer.h</text>
</a>
</g>
</g>
<!-- Node1&#45;&gt;Node18 -->
<g id="edge28" class="edge"><title>Node1&#45;&gt;Node18</title>
<path fill="none" stroke="midnightblue" d="M994.437,-565.203C1011.62,-554.918 1031.27,-543.159 1047.41,-533.506"/>
<polygon fill="midnightblue" stroke="midnightblue" points="992.489,-562.29 985.706,-570.428 996.084,-568.296 992.489,-562.29"/>
</g>
<!-- Node20 -->
<g id="node20" class="node"><title>Node20</title>
<g id="a_node20"><a xlink:href="filter_2Random_8h.html" target="_top" xlink:title="/home/travis/build\l/mgerhardy/simpleai\l/src/ai/filter/Random.h">
<polygon fill="white" stroke="black" points="896.5,-492.5 896.5,-533.5 1009.5,-533.5 1009.5,-492.5 896.5,-492.5"/>
<text text-anchor="start" x="904.5" y="-521.5" font-family="Helvetica,sans-Serif" font-size="10.00">/home/travis/build</text>
<text text-anchor="start" x="904.5" y="-510.5" font-family="Helvetica,sans-Serif" font-size="10.00">/mgerhardy/simpleai</text>
<text text-anchor="middle" x="953" y="-499.5" font-family="Helvetica,sans-Serif" font-size="10.00">/src/ai/filter/Random.h</text>
</a>
</g>
</g>
<!-- Node1&#45;&gt;Node20 -->
<g id="edge36" class="edge"><title>Node1&#45;&gt;Node20</title>
<path fill="none" stroke="midnightblue" d="M953,-560.297C953,-551.301 953,-541.653 953,-533.506"/>
<polygon fill="midnightblue" stroke="midnightblue" points="949.5,-560.428 953,-570.428 956.5,-560.428 949.5,-560.428"/>
</g>
<!-- Node21 -->
<g id="node21" class="node"><title>Node21</title>
<g id="a_node21"><a xlink:href="Wander_8h.html" target="_top" xlink:title="/home/travis/build\l/mgerhardy/simpleai\l/src/ai/movement/Wander.h">
<polygon fill="white" stroke="black" points="1150.5,-492.5 1150.5,-533.5 1287.5,-533.5 1287.5,-492.5 1150.5,-492.5"/>
<text text-anchor="start" x="1158.5" y="-521.5" font-family="Helvetica,sans-Serif" font-size="10.00">/home/travis/build</text>
<text text-anchor="start" x="1158.5" y="-510.5" font-family="Helvetica,sans-Serif" font-size="10.00">/mgerhardy/simpleai</text>
<text text-anchor="middle" x="1219" y="-499.5" font-family="Helvetica,sans-Serif" font-size="10.00">/src/ai/movement/Wander.h</text>
</a>
</g>
</g>
<!-- Node1&#45;&gt;Node21 -->
<g id="edge38" class="edge"><title>Node1&#45;&gt;Node21</title>
<path fill="none" stroke="midnightblue" d="M1029.15,-568.243C1067.38,-557.319 1113.34,-544.188 1150.46,-533.582"/>
<polygon fill="midnightblue" stroke="midnightblue" points="1027.75,-565.003 1019.09,-571.116 1029.67,-571.734 1027.75,-565.003"/>
</g>
<!-- Node3 -->
<g id="node3" class="node"><title>Node3</title>
<g id="a_node3"><a xlink:href="AIRegistry_8h.html" target="_top" xlink:title="/home/travis/build\l/mgerhardy/simpleai\l/src/ai/AIRegistry.h">
<polygon fill="white" stroke="black" points="858,-414.5 858,-455.5 962,-455.5 962,-414.5 858,-414.5"/>
<text text-anchor="start" x="866" y="-443.5" font-family="Helvetica,sans-Serif" font-size="10.00">/home/travis/build</text>
<text text-anchor="start" x="866" y="-432.5" font-family="Helvetica,sans-Serif" font-size="10.00">/mgerhardy/simpleai</text>
<text text-anchor="middle" x="910" y="-421.5" font-family="Helvetica,sans-Serif" font-size="10.00">/src/ai/AIRegistry.h</text>
</a>
</g>
</g>
<!-- Node2&#45;&gt;Node3 -->
<g id="edge2" class="edge"><title>Node2&#45;&gt;Node3</title>
<path fill="none" stroke="midnightblue" d="M836.712,-486.635C851.401,-476.487 868.053,-464.982 881.768,-455.506"/>
<polygon fill="midnightblue" stroke="midnightblue" points="834.566,-483.864 828.328,-492.428 838.545,-489.623 834.566,-483.864"/>
</g>
<!-- Node4 -->
<g id="node4" class="node"><title>Node4</title>
<g id="a_node4"><a xlink:href="ConditionParser_8h.html" target="_top" xlink:title="/home/travis/build\l/mgerhardy/simpleai\l/src/ai/conditions/Condition\lParser.h">
<polygon fill="white" stroke="black" points="842.5,-325 842.5,-377 977.5,-377 977.5,-325 842.5,-325"/>
<text text-anchor="start" x="850.5" y="-365" font-family="Helvetica,sans-Serif" font-size="10.00">/home/travis/build</text>
<text text-anchor="start" x="850.5" y="-354" font-family="Helvetica,sans-Serif" font-size="10.00">/mgerhardy/simpleai</text>
<text text-anchor="start" x="850.5" y="-343" font-family="Helvetica,sans-Serif" font-size="10.00">/src/ai/conditions/Condition</text>
<text text-anchor="middle" x="910" y="-332" font-family="Helvetica,sans-Serif" font-size="10.00">Parser.h</text>
</a>
</g>
</g>
<!-- Node3&#45;&gt;Node4 -->
<g id="edge3" class="edge"><title>Node3&#45;&gt;Node4</title>
<path fill="none" stroke="midnightblue" d="M910,-403.938C910,-395.176 910,-385.695 910,-377.261"/>
<polygon fill="midnightblue" stroke="midnightblue" points="906.5,-404.15 910,-414.15 913.5,-404.15 906.5,-404.15"/>
</g>
<!-- Node5 -->
<g id="node5" class="node"><title>Node5</title>
<g id="a_node5"><a xlink:href="Server_8h.html" target="_top" xlink:title="/home/travis/build\l/mgerhardy/simpleai\l/src/ai/server/Server.h">
<polygon fill="white" stroke="black" points="721.5,-240.5 721.5,-281.5 834.5,-281.5 834.5,-240.5 721.5,-240.5"/>
<text text-anchor="start" x="729.5" y="-269.5" font-family="Helvetica,sans-Serif" font-size="10.00">/home/travis/build</text>
<text text-anchor="start" x="729.5" y="-258.5" font-family="Helvetica,sans-Serif" font-size="10.00">/mgerhardy/simpleai</text>
<text text-anchor="middle" x="778" y="-247.5" font-family="Helvetica,sans-Serif" font-size="10.00">/src/ai/server/Server.h</text>
</a>
</g>
</g>
<!-- Node3&#45;&gt;Node5 -->
<g id="edge25" class="edge"><title>Node3&#45;&gt;Node5</title>
<path fill="none" stroke="midnightblue" d="M858.942,-409.204C845.534,-400.783 832.035,-390.326 822,-378 798.474,-349.103 786.651,-306.287 781.457,-281.562"/>
<polygon fill="midnightblue" stroke="midnightblue" points="857.323,-412.314 867.702,-414.442 860.916,-406.306 857.323,-412.314"/>
</g>
<!-- Node3&#45;&gt;Node8 -->
<g id="edge26" class="edge"><title>Node3&#45;&gt;Node8</title>
<path fill="none" stroke="midnightblue" d="M847.712,-428.337C648.21,-409.372 38,-344.612 38,-262 38,-262 38,-262 38,-176 38,-106.796 94.8694,-104.008 159,-78 261.861,-36.2855 598.07,-25.4754 728.563,-22.819"/>
<polygon fill="midnightblue" stroke="midnightblue" points="847.456,-431.828 857.74,-429.284 848.114,-424.859 847.456,-431.828"/>
</g>
<!-- Node15 -->
<g id="node15" class="node"><title>Node15</title>
<g id="a_node15"><a xlink:href="LUATreeLoader_8h.html" target="_top" xlink:title="/home/travis/build\l/mgerhardy/simpleai\l/src/ai/tree/loaders\l/lua/LUATreeLoader.h">
<polygon fill="white" stroke="black" points="854,-235 854,-287 966,-287 966,-235 854,-235"/>
<text text-anchor="start" x="862" y="-275" font-family="Helvetica,sans-Serif" font-size="10.00">/home/travis/build</text>
<text text-anchor="start" x="862" y="-264" font-family="Helvetica,sans-Serif" font-size="10.00">/mgerhardy/simpleai</text>
<text text-anchor="start" x="862" y="-253" font-family="Helvetica,sans-Serif" font-size="10.00">/src/ai/tree/loaders</text>
<text text-anchor="middle" x="910" y="-242" font-family="Helvetica,sans-Serif" font-size="10.00">/lua/LUATreeLoader.h</text>
</a>
</g>
</g>
<!-- Node3&#45;&gt;Node15 -->
<g id="edge27" class="edge"><title>Node3&#45;&gt;Node15</title>
<path fill="none" stroke="midnightblue" d="M860.513,-408.555C849.477,-400.38 839.216,-390.207 833,-378 822.109,-356.613 822.638,-345.648 833,-324 840.04,-309.293 852.458,-296.964 865.294,-287.272"/>
<polygon fill="midnightblue" stroke="midnightblue" points="858.825,-411.642 869.049,-414.419 862.788,-405.872 858.825,-411.642"/>
</g>
<!-- Node17 -->
<g id="node17" class="node"><title>Node17</title>
<g id="a_node17"><a xlink:href="LUAAIRegistry_8h_source.html" target="_top" xlink:title="/home/travis/build\l/mgerhardy/simpleai\l/src/ai/LUAAIRegistry.h">
<polygon fill="white" stroke="black" points="995.5,-330.5 995.5,-371.5 1116.5,-371.5 1116.5,-330.5 995.5,-330.5"/>
<text text-anchor="start" x="1003.5" y="-359.5" font-family="Helvetica,sans-Serif" font-size="10.00">/home/travis/build</text>
<text text-anchor="start" x="1003.5" y="-348.5" font-family="Helvetica,sans-Serif" font-size="10.00">/mgerhardy/simpleai</text>
<text text-anchor="middle" x="1056" y="-337.5" font-family="Helvetica,sans-Serif" font-size="10.00">/src/ai/LUAAIRegistry.h</text>
</a>
</g>
</g>
<!-- Node3&#45;&gt;Node17 -->
<g id="edge24" class="edge"><title>Node3&#45;&gt;Node17</title>
<path fill="none" stroke="midnightblue" d="M953.908,-409.339C975.401,-397.268 1000.92,-382.938 1021.06,-371.623"/>
<polygon fill="midnightblue" stroke="midnightblue" points="951.976,-406.41 944.971,-414.359 955.404,-412.514 951.976,-406.41"/>
</g>
<!-- Node4&#45;&gt;Node5 -->
<g id="edge4" class="edge"><title>Node4&#45;&gt;Node5</title>
<path fill="none" stroke="midnightblue" d="M863.765,-319.177C845.052,-306.701 824.004,-292.669 807.442,-281.628"/>
<polygon fill="midnightblue" stroke="midnightblue" points="861.912,-322.148 872.174,-324.783 865.795,-316.324 861.912,-322.148"/>
</g>
<!-- Node4&#45;&gt;Node15 -->
<g id="edge22" class="edge"><title>Node4&#45;&gt;Node15</title>
<path fill="none" stroke="midnightblue" d="M910,-314.489C910,-305.309 910,-295.616 910,-287.092"/>
<polygon fill="midnightblue" stroke="midnightblue" points="906.5,-314.547 910,-324.547 913.5,-314.547 906.5,-314.547"/>
</g>
<!-- Node16 -->
<g id="node16" class="node"><title>Node16</title>
<g id="a_node16"><a xlink:href="XMLTreeLoader_8h.html" target="_top" xlink:title="/home/travis/build\l/mgerhardy/simpleai\l/src/ai/tree/loaders\l/xml/XMLTreeLoader.h">
<polygon fill="white" stroke="black" points="1067,-235 1067,-287 1183,-287 1183,-235 1067,-235"/>
<text text-anchor="start" x="1075" y="-275" font-family="Helvetica,sans-Serif" font-size="10.00">/home/travis/build</text>
<text text-anchor="start" x="1075" y="-264" font-family="Helvetica,sans-Serif" font-size="10.00">/mgerhardy/simpleai</text>
<text text-anchor="start" x="1075" y="-253" font-family="Helvetica,sans-Serif" font-size="10.00">/src/ai/tree/loaders</text>
<text text-anchor="middle" x="1125" y="-242" font-family="Helvetica,sans-Serif" font-size="10.00">/xml/XMLTreeLoader.h</text>
</a>
</g>
</g>
<!-- Node4&#45;&gt;Node16 -->
<g id="edge23" class="edge"><title>Node4&#45;&gt;Node16</title>
<path fill="none" stroke="midnightblue" d="M980.645,-321.085C1008.6,-309.643 1040.34,-296.652 1066.92,-285.771"/>
<polygon fill="midnightblue" stroke="midnightblue" points="979.252,-317.873 971.323,-324.901 981.903,-324.352 979.252,-317.873"/>
</g>
<!-- Node6 -->
<g id="node6" class="node"><title>Node6</title>
<g id="a_node6"><a xlink:href="ChangeHandler_8h.html" target="_top" xlink:title="/home/travis/build\l/mgerhardy/simpleai\l/src/ai/server/ChangeHandler.h">
<polygon fill="white" stroke="black" points="104,-156.5 104,-197.5 256,-197.5 256,-156.5 104,-156.5"/>
<text text-anchor="start" x="112" y="-185.5" font-family="Helvetica,sans-Serif" font-size="10.00">/home/travis/build</text>
<text text-anchor="start" x="112" y="-174.5" font-family="Helvetica,sans-Serif" font-size="10.00">/mgerhardy/simpleai</text>
<text text-anchor="middle" x="180" y="-163.5" font-family="Helvetica,sans-Serif" font-size="10.00">/src/ai/server/ChangeHandler.h</text>
</a>
</g>
</g>
<!-- Node5&#45;&gt;Node6 -->
<g id="edge5" class="edge"><title>Node5&#45;&gt;Node6</title>
<path fill="none" stroke="midnightblue" d="M711.055,-254.297C612.778,-245.385 423.891,-226.205 265,-198 262.164,-197.497 259.281,-196.958 256.373,-196.391"/>
<polygon fill="midnightblue" stroke="midnightblue" points="710.869,-257.794 721.142,-255.204 711.496,-250.822 710.869,-257.794"/>
</g>
<!-- Node7 -->
<g id="node7" class="node"><title>Node7</title>
<g id="a_node7"><a xlink:href="ServerImpl_8h.html" target="_top" xlink:title="/home/travis/build\l/mgerhardy/simpleai\l/src/ai/server/ServerImpl.h">
<polygon fill="white" stroke="black" points="715,-78.5 715,-119.5 847,-119.5 847,-78.5 715,-78.5"/>
<text text-anchor="start" x="723" y="-107.5" font-family="Helvetica,sans-Serif" font-size="10.00">/home/travis/build</text>
<text text-anchor="start" x="723" y="-96.5" font-family="Helvetica,sans-Serif" font-size="10.00">/mgerhardy/simpleai</text>
<text text-anchor="middle" x="781" y="-85.5" font-family="Helvetica,sans-Serif" font-size="10.00">/src/ai/server/ServerImpl.h</text>
</a>
</g>
</g>
<!-- Node5&#45;&gt;Node7 -->
<g id="edge16" class="edge"><title>Node5&#45;&gt;Node7</title>
<path fill="none" stroke="midnightblue" d="M832.741,-237.299C836.848,-236.046 840.964,-234.925 845,-234 893.678,-222.85 1259.13,-234.699 1293,-198 1305.66,-184.282 1305.46,-169.898 1293,-156 1263.73,-123.356 978.801,-107.862 847.119,-102.4"/>
<polygon fill="midnightblue" stroke="midnightblue" points="831.625,-233.981 823.216,-240.427 833.809,-240.632 831.625,-233.981"/>
</g>
<!-- Node5&#45;&gt;Node8 -->
<g id="edge21" class="edge"><title>Node5&#45;&gt;Node8</title>
<path fill="none" stroke="midnightblue" d="M710.911,-258.934C546.904,-255.634 136.028,-242.921 95,-198 5.55127,-100.064 554.116,-42.1966 728.825,-26.4211"/>
<polygon fill="midnightblue" stroke="midnightblue" points="711.284,-262.441 721.351,-259.138 711.421,-255.443 711.284,-262.441"/>
</g>
<!-- Node9 -->
<g id="node9" class="node"><title>Node9</title>
<g id="a_node9"><a xlink:href="DeleteNodeHandler_8h.html" target="_top" xlink:title="/home/travis/build\l/mgerhardy/simpleai\l/src/ai/server/DeleteNodeHandler.h">
<polygon fill="white" stroke="black" points="274,-156.5 274,-197.5 444,-197.5 444,-156.5 274,-156.5"/>
<text text-anchor="start" x="282" y="-185.5" font-family="Helvetica,sans-Serif" font-size="10.00">/home/travis/build</text>
<text text-anchor="start" x="282" y="-174.5" font-family="Helvetica,sans-Serif" font-size="10.00">/mgerhardy/simpleai</text>
<text text-anchor="middle" x="359" y="-163.5" font-family="Helvetica,sans-Serif" font-size="10.00">/src/ai/server/DeleteNodeHandler.h</text>
</a>
</g>
</g>
<!-- Node5&#45;&gt;Node9 -->
<g id="edge8" class="edge"><title>Node5&#45;&gt;Node9</title>
<path fill="none" stroke="midnightblue" d="M711.047,-247.655C645.28,-235.428 542.124,-215.98 453,-198 450.056,-197.406 447.061,-196.797 444.038,-196.177"/>
<polygon fill="midnightblue" stroke="midnightblue" points="710.802,-251.169 721.273,-249.554 712.08,-244.287 710.802,-251.169"/>
</g>
<!-- Node10 -->
<g id="node10" class="node"><title>Node10</title>
<g id="a_node10"><a xlink:href="PauseHandler_8h.html" target="_top" xlink:title="/home/travis/build\l/mgerhardy/simpleai\l/src/ai/server/PauseHandler.h">
<polygon fill="white" stroke="black" points="462,-156.5 462,-197.5 608,-197.5 608,-156.5 462,-156.5"/>
<text text-anchor="start" x="470" y="-185.5" font-family="Helvetica,sans-Serif" font-size="10.00">/home/travis/build</text>
<text text-anchor="start" x="470" y="-174.5" font-family="Helvetica,sans-Serif" font-size="10.00">/mgerhardy/simpleai</text>
<text text-anchor="middle" x="535" y="-163.5" font-family="Helvetica,sans-Serif" font-size="10.00">/src/ai/server/PauseHandler.h</text>
</a>
</g>
</g>
<!-- Node5&#45;&gt;Node10 -->
<g id="edge10" class="edge"><title>Node5&#45;&gt;Node10</title>
<path fill="none" stroke="midnightblue" d="M711.608,-237.596C674.499,-225.074 628.688,-209.615 593.023,-197.58"/>
<polygon fill="midnightblue" stroke="midnightblue" points="710.74,-240.997 721.334,-240.878 712.978,-234.364 710.74,-240.997"/>
</g>
<!-- Node11 -->
<g id="node11" class="node"><title>Node11</title>
<g id="a_node11"><a xlink:href="ResetHandler_8h.html" target="_top" xlink:title="/home/travis/build\l/mgerhardy/simpleai\l/src/ai/server/ResetHandler.h">
<polygon fill="white" stroke="black" points="626.5,-156.5 626.5,-197.5 771.5,-197.5 771.5,-156.5 626.5,-156.5"/>
<text text-anchor="start" x="634.5" y="-185.5" font-family="Helvetica,sans-Serif" font-size="10.00">/home/travis/build</text>
<text text-anchor="start" x="634.5" y="-174.5" font-family="Helvetica,sans-Serif" font-size="10.00">/mgerhardy/simpleai</text>
<text text-anchor="middle" x="699" y="-163.5" font-family="Helvetica,sans-Serif" font-size="10.00">/src/ai/server/ResetHandler.h</text>
</a>
</g>
</g>
<!-- Node5&#45;&gt;Node11 -->
<g id="edge12" class="edge"><title>Node5&#45;&gt;Node11</title>
<path fill="none" stroke="midnightblue" d="M751.865,-232.873C740.782,-221.369 728.108,-208.213 717.948,-197.667"/>
<polygon fill="midnightblue" stroke="midnightblue" points="749.418,-235.377 758.876,-240.15 754.459,-230.52 749.418,-235.377"/>
</g>
<!-- Node12 -->
<g id="node12" class="node"><title>Node12</title>
<g id="a_node12"><a xlink:href="SelectHandler_8h.html" target="_top" xlink:title="/home/travis/build\l/mgerhardy/simpleai\l/src/ai/server/SelectHandler.h">
<polygon fill="white" stroke="black" points="790,-156.5 790,-197.5 936,-197.5 936,-156.5 790,-156.5"/>
<text text-anchor="start" x="798" y="-185.5" font-family="Helvetica,sans-Serif" font-size="10.00">/home/travis/build</text>
<text text-anchor="start" x="798" y="-174.5" font-family="Helvetica,sans-Serif" font-size="10.00">/mgerhardy/simpleai</text>
<text text-anchor="middle" x="863" y="-163.5" font-family="Helvetica,sans-Serif" font-size="10.00">/src/ai/server/SelectHandler.h</text>
</a>
</g>
</g>
<!-- Node5&#45;&gt;Node12 -->
<g id="edge14" class="edge"><title>Node5&#45;&gt;Node12</title>
<path fill="none" stroke="midnightblue" d="M805.779,-233.201C817.784,-221.62 831.578,-208.313 842.613,-197.667"/>
<polygon fill="midnightblue" stroke="midnightblue" points="803.343,-230.688 798.576,-240.15 808.203,-235.726 803.343,-230.688"/>
</g>
<!-- Node13 -->
<g id="node13" class="node"><title>Node13</title>
<g id="a_node13"><a xlink:href="StepHandler_8h.html" target="_top" xlink:title="/home/travis/build\l/mgerhardy/simpleai\l/src/ai/server/StepHandler.h">
<polygon fill="white" stroke="black" points="954.5,-156.5 954.5,-197.5 1093.5,-197.5 1093.5,-156.5 954.5,-156.5"/>
<text text-anchor="start" x="962.5" y="-185.5" font-family="Helvetica,sans-Serif" font-size="10.00">/home/travis/build</text>
<text text-anchor="start" x="962.5" y="-174.5" font-family="Helvetica,sans-Serif" font-size="10.00">/mgerhardy/simpleai</text>
<text text-anchor="middle" x="1024" y="-163.5" font-family="Helvetica,sans-Serif" font-size="10.00">/src/ai/server/StepHandler.h</text>
</a>
</g>
</g>
<!-- Node5&#45;&gt;Node13 -->
<g id="edge17" class="edge"><title>Node5&#45;&gt;Node13</title>
<path fill="none" stroke="midnightblue" d="M836.755,-236.944C839.536,-235.933 842.295,-234.947 845,-234 882.034,-221.038 923.863,-207.871 957.768,-197.564"/>
<polygon fill="midnightblue" stroke="midnightblue" points="835.423,-233.704 827.257,-240.455 837.85,-240.27 835.423,-233.704"/>
</g>
<!-- Node14 -->
<g id="node14" class="node"><title>Node14</title>
<g id="a_node14"><a xlink:href="UpdateNodeHandler_8h.html" target="_top" xlink:title="/home/travis/build\l/mgerhardy/simpleai\l/src/ai/server/UpdateNodeHandler.h">
<polygon fill="white" stroke="black" points="1111.5,-156.5 1111.5,-197.5 1284.5,-197.5 1284.5,-156.5 1111.5,-156.5"/>
<text text-anchor="start" x="1119.5" y="-185.5" font-family="Helvetica,sans-Serif" font-size="10.00">/home/travis/build</text>
<text text-anchor="start" x="1119.5" y="-174.5" font-family="Helvetica,sans-Serif" font-size="10.00">/mgerhardy/simpleai</text>
<text text-anchor="middle" x="1198" y="-163.5" font-family="Helvetica,sans-Serif" font-size="10.00">/src/ai/server/UpdateNodeHandler.h</text>
</a>
</g>
</g>
<!-- Node5&#45;&gt;Node14 -->
<g id="edge19" class="edge"><title>Node5&#45;&gt;Node14</title>
<path fill="none" stroke="midnightblue" d="M834.078,-237.163C837.746,-236.004 841.408,-234.935 845,-234 956.617,-204.943 988.37,-217.773 1102,-198 1105.1,-197.46 1108.26,-196.894 1111.44,-196.308"/>
<polygon fill="midnightblue" stroke="midnightblue" points="832.769,-233.91 824.403,-240.411 834.997,-240.546 832.769,-233.91"/>
</g>
<!-- Node6&#45;&gt;Node7 -->
<g id="edge6" class="edge"><title>Node6&#45;&gt;Node7</title>
<path fill="none" stroke="midnightblue" d="M266.288,-155.878C432.731,-127.903 618.007,-111.823 714.661,-104.576"/>
<polygon fill="midnightblue" stroke="midnightblue" points="265.637,-152.439 256.365,-157.564 266.81,-159.34 265.637,-152.439"/>
</g>
<!-- Node7&#45;&gt;Node8 -->
<g id="edge7" class="edge"><title>Node7&#45;&gt;Node8</title>
<path fill="none" stroke="midnightblue" d="M781,-68.2965C781,-59.3009 781,-49.6532 781,-41.5056"/>
<polygon fill="midnightblue" stroke="midnightblue" points="777.5,-68.4281 781,-78.4281 784.5,-68.4281 777.5,-68.4281"/>
</g>
<!-- Node9&#45;&gt;Node7 -->
<g id="edge9" class="edge"><title>Node9&#45;&gt;Node7</title>
<path fill="none" stroke="midnightblue" d="M453.948,-155.852C550.427,-137.503 650.752,-120.83 714.893,-110.479"/>
<polygon fill="midnightblue" stroke="midnightblue" points="453.189,-152.434 444.023,-157.749 454.502,-159.31 453.189,-152.434"/>
</g>
<!-- Node10&#45;&gt;Node7 -->
<g id="edge11" class="edge"><title>Node10&#45;&gt;Node7</title>
<path fill="none" stroke="midnightblue" d="M608.016,-153.442C642.932,-142.655 684.325,-129.867 717.864,-119.506"/>
<polygon fill="midnightblue" stroke="midnightblue" points="606.872,-150.132 598.351,-156.428 608.939,-156.82 606.872,-150.132"/>
</g>
<!-- Node11&#45;&gt;Node7 -->
<g id="edge13" class="edge"><title>Node11&#45;&gt;Node7</title>
<path fill="none" stroke="midnightblue" d="M727.601,-149.492C738.242,-139.629 750.113,-128.627 759.955,-119.506"/>
<polygon fill="midnightblue" stroke="midnightblue" points="725.072,-147.063 720.117,-156.428 729.831,-152.197 725.072,-147.063"/>
</g>
<!-- Node12&#45;&gt;Node7 -->
<g id="edge15" class="edge"><title>Node12&#45;&gt;Node7</title>
<path fill="none" stroke="midnightblue" d="M834.399,-149.492C823.758,-139.629 811.887,-128.627 802.045,-119.506"/>
<polygon fill="midnightblue" stroke="midnightblue" points="832.169,-152.197 841.883,-156.428 836.928,-147.063 832.169,-152.197"/>
</g>
<!-- Node13&#45;&gt;Node7 -->
<g id="edge18" class="edge"><title>Node13&#45;&gt;Node7</title>
<path fill="none" stroke="midnightblue" d="M951.875,-153.442C917.384,-142.655 876.496,-129.867 843.366,-119.506"/>
<polygon fill="midnightblue" stroke="midnightblue" points="950.833,-156.783 961.421,-156.428 952.922,-150.103 950.833,-156.783"/>
</g>
<!-- Node14&#45;&gt;Node7 -->
<g id="edge20" class="edge"><title>Node14&#45;&gt;Node7</title>
<path fill="none" stroke="midnightblue" d="M1101.42,-155.919C1007.15,-137.992 909.968,-121.382 847.204,-110.9"/>
<polygon fill="midnightblue" stroke="midnightblue" points="1100.94,-159.39 1111.42,-157.827 1102.25,-152.514 1100.94,-159.39"/>
</g>
<!-- Node18&#45;&gt;Node3 -->
<g id="edge29" class="edge"><title>Node18&#45;&gt;Node3</title>
<path fill="none" stroke="midnightblue" d="M1027.05,-488.329C1003.46,-477.783 976.016,-465.513 953.631,-455.506"/>
<polygon fill="midnightblue" stroke="midnightblue" points="1025.66,-491.542 1036.22,-492.428 1028.52,-485.152 1025.66,-491.542"/>
</g>
<!-- Node18&#45;&gt;Node8 -->
<g id="edge30" class="edge"><title>Node18&#45;&gt;Node8</title>
<path fill="none" stroke="midnightblue" d="M1137.76,-488.504C1227.19,-451.247 1389,-379.978 1389,-352 1389,-352 1389,-352 1389,-176 1389,-61.7347 980.356,-31.3191 833.101,-24.0682"/>
<polygon fill="midnightblue" stroke="midnightblue" points="1136.18,-485.371 1128.28,-492.437 1138.86,-491.836 1136.18,-485.371"/>
</g>
<!-- Node19 -->
<g id="node19" class="node"><title>Node19</title>
<g id="a_node19"><a xlink:href="TreeNodeParser_8h.html" target="_top" xlink:title="/home/travis/build\l/mgerhardy/simpleai\l/src/ai/tree/TreeNodeParser.h">
<polygon fill="white" stroke="black" points="1135,-330.5 1135,-371.5 1281,-371.5 1281,-330.5 1135,-330.5"/>
<text text-anchor="start" x="1143" y="-359.5" font-family="Helvetica,sans-Serif" font-size="10.00">/home/travis/build</text>
<text text-anchor="start" x="1143" y="-348.5" font-family="Helvetica,sans-Serif" font-size="10.00">/mgerhardy/simpleai</text>
<text text-anchor="middle" x="1208" y="-337.5" font-family="Helvetica,sans-Serif" font-size="10.00">/src/ai/tree/TreeNodeParser.h</text>
</a>
</g>
</g>
<!-- Node18&#45;&gt;Node19 -->
<g id="edge31" class="edge"><title>Node18&#45;&gt;Node19</title>
<path fill="none" stroke="midnightblue" d="M1102.17,-484.282C1127.86,-452.169 1169.55,-400.059 1192.18,-371.78"/>
<polygon fill="midnightblue" stroke="midnightblue" points="1099.21,-482.386 1095.7,-492.381 1104.68,-486.759 1099.21,-482.386"/>
</g>
<!-- Node19&#45;&gt;Node5 -->
<g id="edge32" class="edge"><title>Node19&#45;&gt;Node5</title>
<path fill="none" stroke="midnightblue" d="M1140.1,-327.675C1135.02,-326.329 1129.94,-325.083 1125,-324 1002.44,-297.143 966.599,-318.922 845,-288 838.107,-286.247 830.963,-283.986 824.02,-281.53"/>
<polygon fill="midnightblue" stroke="midnightblue" points="1139.28,-331.08 1149.85,-330.372 1141.15,-324.333 1139.28,-331.08"/>
</g>
<!-- Node19&#45;&gt;Node8 -->
<g id="edge33" class="edge"><title>Node19&#45;&gt;Node8</title>
<path fill="none" stroke="midnightblue" d="M1240.75,-323.63C1285.18,-284.667 1354.43,-210.462 1312,-156 1252.84,-80.057 955.024,-40.4136 833.129,-27.1607"/>
<polygon fill="midnightblue" stroke="midnightblue" points="1238.34,-321.081 1233.04,-330.255 1242.91,-326.389 1238.34,-321.081"/>
</g>
<!-- Node19&#45;&gt;Node15 -->
<g id="edge34" class="edge"><title>Node19&#45;&gt;Node15</title>
<path fill="none" stroke="midnightblue" d="M1136.37,-327.448C1132.52,-326.273 1128.72,-325.118 1125,-324 1071.24,-307.832 1009.67,-290.162 966.236,-277.838"/>
<polygon fill="midnightblue" stroke="midnightblue" points="1135.37,-330.803 1145.96,-330.395 1137.42,-324.112 1135.37,-330.803"/>
</g>
<!-- Node19&#45;&gt;Node16 -->
<g id="edge35" class="edge"><title>Node19&#45;&gt;Node16</title>
<path fill="none" stroke="midnightblue" d="M1182.45,-322.914C1171.71,-311.521 1159.28,-298.344 1148.74,-287.166"/>
<polygon fill="midnightblue" stroke="midnightblue" points="1180.17,-325.597 1189.58,-330.47 1185.26,-320.794 1180.17,-325.597"/>
</g>
<!-- Node20&#45;&gt;Node3 -->
<g id="edge37" class="edge"><title>Node20&#45;&gt;Node3</title>
<path fill="none" stroke="midnightblue" d="M936.856,-483.466C931.581,-474.143 925.846,-464.007 921.036,-455.506"/>
<polygon fill="midnightblue" stroke="midnightblue" points="933.956,-485.448 941.926,-492.428 940.048,-482.001 933.956,-485.448"/>
</g>
<!-- Node21&#45;&gt;Node3 -->
<g id="edge39" class="edge"><title>Node21&#45;&gt;Node3</title>
<path fill="none" stroke="midnightblue" d="M1140.21,-491.818C1073.18,-475.139 1007,-459.177 962.342,-448.481"/>
<polygon fill="midnightblue" stroke="midnightblue" points="1139.56,-495.261 1150.11,-494.283 1141.25,-488.469 1139.56,-495.261"/>
</g>
<!-- Node21&#45;&gt;Node8 -->
<g id="edge40" class="edge"><title>Node21&#45;&gt;Node8</title>
<path fill="none" stroke="midnightblue" d="M1293.4,-488.798C1353.1,-465.006 1427,-421.517 1427,-352 1427,-352 1427,-352 1427,-176 1427,-110.523 1376.89,-104.456 1317,-78 1231.09,-40.0549 950.313,-27.1849 833.118,-23.397"/>
<polygon fill="midnightblue" stroke="midnightblue" points="1292.02,-485.579 1283.96,-492.449 1294.55,-492.109 1292.02,-485.579"/>
</g>
</g>
</svg>
        <g id="navigator" transform="translate(0 0)" fill="#404254">
                <rect fill="#f2f5e9" fill-opacity="0.5" stroke="#606060" stroke-width=".5" x="0" y="0" width="60" height="60"/>
                <use id="zoomplus" xlink:href="#zoomPlus" x="17" y="9" onmousedown="handleZoom(evt,'in')"/>
                <use id="zoomminus" xlink:href="#zoomMin" x="42" y="9" onmousedown="handleZoom(evt,'out')"/>
                <use id="reset" xlink:href="#resetDef" x="30" y="36" onmousedown="handleReset()"/>
                <g id="arrowUp" xlink:href="#dirArrow" transform="translate(30 24)" onmousedown="handlePan(0,-1)">
                  <use xlink:href="#rim" fill="#404040">
                        <set attributeName="fill" to="#808080" begin="arrowUp.mouseover" end="arrowUp.mouseout"/>
                  </use>
                  <path fill="none" stroke="white" stroke-width="1.5" d="M0,-3.0v7 M-2.5,-0.5L0,-3.0L2.5,-0.5"/>
                </g>
                <g id="arrowRight" xlink:href="#dirArrow" transform="rotate(90) translate(36 -43)" onmousedown="handlePan(1,0)">
                  <use xlink:href="#rim" fill="#404040">
                        <set attributeName="fill" to="#808080" begin="arrowRight.mouseover" end="arrowRight.mouseout"/>
                  </use>
                  <path fill="none" stroke="white" stroke-width="1.5" d="M0,-3.0v7 M-2.5,-0.5L0,-3.0L2.5,-0.5"/>
                </g>
                <g id="arrowDown" xlink:href="#dirArrow" transform="rotate(180) translate(-30 -48)" onmousedown="handlePan(0,1)">
                  <use xlink:href="#rim" fill="#404040">
                        <set attributeName="fill" to="#808080" begin="arrowDown.mouseover" end="arrowDown.mouseout"/>
                  </use>
                  <path fill="none" stroke="white" stroke-width="1.5" d="M0,-3.0v7 M-2.5,-0.5L0,-3.0L2.5,-0.5"/>
                </g>
                <g id="arrowLeft" xlink:href="#dirArrow" transform="rotate(270) translate(-36 17)" onmousedown="handlePan(-1,0)">
                  <use xlink:href="#rim" fill="#404040">
                        <set attributeName="fill" to="#808080" begin="arrowLeft.mouseover" end="arrowLeft.mouseout"/>
                  </use>
                  <path fill="none" stroke="white" stroke-width="1.5" d="M0,-3.0v7 M-2.5,-0.5L0,-3.0L2.5,-0.5"/>
                </g>
        </g>
        <svg viewBox="0 0 15 15" width="100%" height="30px" preserveAspectRatio="xMaxYMin meet">
         <g id="arrow_out" transform="scale(0.3 0.3)">
          <a xlink:href="common_2Random_8h__dep__incl_org.svg" target="_base">
           <rect id="button" ry="5" rx="5" y="6" x="6" height="38" width="38"
                fill="#f2f5e9" fill-opacity="0.5" stroke="#606060" stroke-width="1.0"/>
           <path id="arrow"
             d="M 11.500037,31.436501 C 11.940474,20.09759 22.043105,11.32322 32.158766,21.979434 L 37.068811,17.246167 C 37.068811,17.246167 37.088388,32 37.088388,32 L 22.160133,31.978069 C 22.160133,31.978069 26.997745,27.140456 26.997745,27.140456 C 18.528582,18.264221 13.291696,25.230495 11.500037,31.436501 z"
             style="fill:#404040;"/>
          </a>
         </g>
        </svg>
</svg>
