<?xml version="1.0" encoding="UTF-8" standalone="no"?>
<!DOCTYPE svg PUBLIC "-//W3C//DTD SVG 1.1//EN"
 "http://www.w3.org/Graphics/SVG/1.1/DTD/svg11.dtd">
<!-- Generated by graphviz version 2.36.0 (20140111.2315)
 -->
<!-- Title: /home/travis/build/mgerhardy/simpleai/src/ai/common/Random.h Pages: 1 -->
<svg width="511pt" height="274pt"
 viewBox="0.00 0.00 511.00 274.00" xmlns="http://www.w3.org/2000/svg" xmlns:xlink="http://www.w3.org/1999/xlink">
<g id="graph0" class="graph" transform="scale(1 1) rotate(0) translate(4 270)">
<title>/home/travis/build/mgerhardy/simpleai/src/ai/common/Random.h</title>
<polygon fill="white" stroke="none" points="-4,4 -4,-270 507,-270 507,4 -4,4"/>
<!-- Node1 -->
<g id="node1" class="node"><title>Node1</title>
<polygon fill="#bfbfbf" stroke="black" points="129,-224.5 129,-265.5 261,-265.5 261,-224.5 129,-224.5"/>
<text text-anchor="start" x="137" y="-253.5" font-family="Helvetica,sans-Serif" font-size="10.00">/home/travis/build</text>
<text text-anchor="start" x="137" y="-242.5" font-family="Helvetica,sans-Serif" font-size="10.00">/mgerhardy/simpleai</text>
<text text-anchor="middle" x="195" y="-231.5" font-family="Helvetica,sans-Serif" font-size="10.00">/src/ai/common/Random.h</text>
</g>
<!-- Node2 -->
<g id="node2" class="node"><title>Node2</title>
<polygon fill="white" stroke="#bfbfbf" points="0,-168.5 0,-187.5 46,-187.5 46,-168.5 0,-168.5"/>
<text text-anchor="middle" x="23" y="-175.5" font-family="Helvetica,sans-Serif" font-size="10.00">chrono</text>
</g>
<!-- Node1&#45;&gt;Node2 -->
<g id="edge1" class="edge"><title>Node1&#45;&gt;Node2</title>
<path fill="none" stroke="midnightblue" d="M143.394,-224.498C114.868,-213.718 80.2973,-200.653 55.5322,-191.294"/>
<polygon fill="midnightblue" stroke="midnightblue" points="56.4874,-187.914 45.8958,-187.652 54.0129,-194.462 56.4874,-187.914"/>
</g>
<!-- Node3 -->
<g id="node3" class="node"><title>Node3</title>
<polygon fill="white" stroke="#bfbfbf" points="64.5,-168.5 64.5,-187.5 113.5,-187.5 113.5,-168.5 64.5,-168.5"/>
<text text-anchor="middle" x="89" y="-175.5" font-family="Helvetica,sans-Serif" font-size="10.00">random</text>
</g>
<!-- Node1&#45;&gt;Node3 -->
<g id="edge2" class="edge"><title>Node1&#45;&gt;Node3</title>
<path fill="none" stroke="midnightblue" d="M163.197,-224.498C146.632,-214.34 126.761,-202.155 111.753,-192.952"/>
<polygon fill="midnightblue" stroke="midnightblue" points="113.465,-189.896 103.11,-187.652 109.805,-195.864 113.465,-189.896"/>
</g>
<!-- Node4 -->
<g id="node4" class="node"><title>Node4</title>
<polygon fill="white" stroke="#bfbfbf" points="132,-168.5 132,-187.5 188,-187.5 188,-168.5 132,-168.5"/>
<text text-anchor="middle" x="160" y="-175.5" font-family="Helvetica,sans-Serif" font-size="10.00">algorithm</text>
</g>
<!-- Node1&#45;&gt;Node4 -->
<g id="edge3" class="edge"><title>Node1&#45;&gt;Node4</title>
<path fill="none" stroke="midnightblue" d="M184.499,-224.498C179.7,-215.586 174.061,-205.113 169.403,-196.464"/>
<polygon fill="midnightblue" stroke="midnightblue" points="172.482,-194.798 164.659,-187.652 166.318,-198.117 172.482,-194.798"/>
</g>
<!-- Node5 -->
<g id="node5" class="node"><title>Node5</title>
<polygon fill="white" stroke="#bfbfbf" points="206.5,-168.5 206.5,-187.5 253.5,-187.5 253.5,-168.5 206.5,-168.5"/>
<text text-anchor="middle" x="230" y="-175.5" font-family="Helvetica,sans-Serif" font-size="10.00">iterator</text>
</g>
<!-- Node1&#45;&gt;Node5 -->
<g id="edge4" class="edge"><title>Node1&#45;&gt;Node5</title>
<path fill="none" stroke="midnightblue" d="M205.501,-224.498C210.3,-215.586 215.939,-205.113 220.597,-196.464"/>
<polygon fill="midnightblue" stroke="midnightblue" points="223.682,-198.117 225.341,-187.652 217.518,-194.798 223.682,-198.117"/>
</g>
<!-- Node6 -->
<g id="node6" class="node"><title>Node6</title>
<polygon fill="white" stroke="#bfbfbf" points="272,-168.5 272,-187.5 320,-187.5 320,-168.5 272,-168.5"/>
<text text-anchor="middle" x="296" y="-175.5" font-family="Helvetica,sans-Serif" font-size="10.00">stdlib.h</text>
</g>
<!-- Node1&#45;&gt;Node6 -->
<g id="edge5" class="edge"><title>Node1&#45;&gt;Node6</title>
<path fill="none" stroke="midnightblue" d="M225.303,-224.498C240.937,-214.436 259.664,-202.385 273.914,-193.214"/>
<polygon fill="midnightblue" stroke="midnightblue" points="276.04,-196.008 282.555,-187.652 272.252,-190.121 276.04,-196.008"/>
</g>
<!-- Node7 -->
<g id="node7" class="node"><title>Node7</title>
<g id="a_node7"><a xlink:href="Thread_8h.html" target="_top" xlink:title="common/Thread.h">
<polygon fill="white" stroke="black" points="338.5,-168.5 338.5,-187.5 433.5,-187.5 433.5,-168.5 338.5,-168.5"/>
<text text-anchor="middle" x="386" y="-175.5" font-family="Helvetica,sans-Serif" font-size="10.00">common/Thread.h</text>
</a>
</g>
</g>
<!-- Node1&#45;&gt;Node7 -->
<g id="edge6" class="edge"><title>Node1&#45;&gt;Node7</title>
<path fill="none" stroke="midnightblue" d="M252.306,-224.498C284.406,-213.574 323.398,-200.304 350.968,-190.922"/>
<polygon fill="midnightblue" stroke="midnightblue" points="352.236,-194.188 360.575,-187.652 349.981,-187.561 352.236,-194.188"/>
</g>
<!-- Node8 -->
<g id="node8" class="node"><title>Node8</title>
<g id="a_node8"><a xlink:href="Types_8h.html" target="_top" xlink:title="Types.h">
<polygon fill="white" stroke="black" points="263,-112.5 263,-131.5 315,-131.5 315,-112.5 263,-112.5"/>
<text text-anchor="middle" x="289" y="-119.5" font-family="Helvetica,sans-Serif" font-size="10.00">Types.h</text>
</a>
</g>
</g>
<!-- Node7&#45;&gt;Node8 -->
<g id="edge7" class="edge"><title>Node7&#45;&gt;Node8</title>
<path fill="none" stroke="midnightblue" d="M370.415,-168.324C355.001,-159.743 331.188,-146.486 313.29,-136.522"/>
<polygon fill="midnightblue" stroke="midnightblue" points="314.986,-133.461 304.546,-131.655 311.581,-139.577 314.986,-133.461"/>
</g>
<!-- Node16 -->
<g id="node16" class="node"><title>Node16</title>
<polygon fill="white" stroke="#bfbfbf" points="333,-112.5 333,-131.5 377,-131.5 377,-112.5 333,-112.5"/>
<text text-anchor="middle" x="355" y="-119.5" font-family="Helvetica,sans-Serif" font-size="10.00">thread</text>
</g>
<!-- Node7&#45;&gt;Node16 -->
<g id="edge16" class="edge"><title>Node7&#45;&gt;Node16</title>
<path fill="none" stroke="midnightblue" d="M380.881,-168.083C376.592,-160.613 370.342,-149.724 365.058,-140.52"/>
<polygon fill="midnightblue" stroke="midnightblue" points="368.038,-138.681 360.024,-131.751 361.967,-142.166 368.038,-138.681"/>
</g>
<!-- Node17 -->
<g id="node17" class="node"><title>Node17</title>
<polygon fill="white" stroke="#bfbfbf" points="395,-112.5 395,-131.5 439,-131.5 439,-112.5 395,-112.5"/>
<text text-anchor="middle" x="417" y="-119.5" font-family="Helvetica,sans-Serif" font-size="10.00">mutex</text>
</g>
<!-- Node7&#45;&gt;Node17 -->
<g id="edge17" class="edge"><title>Node7&#45;&gt;Node17</title>
<path fill="none" stroke="midnightblue" d="M391.119,-168.083C395.408,-160.613 401.658,-149.724 406.942,-140.52"/>
<polygon fill="midnightblue" stroke="midnightblue" points="410.033,-142.166 411.976,-131.751 403.962,-138.681 410.033,-142.166"/>
</g>
<!-- Node18 -->
<g id="node18" class="node"><title>Node18</title>
<polygon fill="white" stroke="#bfbfbf" points="457,-112.5 457,-131.5 503,-131.5 503,-112.5 457,-112.5"/>
<text text-anchor="middle" x="480" y="-119.5" font-family="Helvetica,sans-Serif" font-size="10.00">atomic</text>
</g>
<!-- Node7&#45;&gt;Node18 -->
<g id="edge18" class="edge"><title>Node7&#45;&gt;Node18</title>
<path fill="none" stroke="midnightblue" d="M401.103,-168.324C415.903,-159.822 438.694,-146.729 455.982,-136.797"/>
<polygon fill="midnightblue" stroke="midnightblue" points="458.007,-139.671 464.935,-131.655 454.52,-133.601 458.007,-139.671"/>
</g>
<!-- Node9 -->
<g id="node9" class="node"><title>Node9</title>
<g id="a_node9"><a xlink:href="Log_8h.html" target="_top" xlink:title="Log.h">
<polygon fill="white" stroke="black" points="209.5,-56.5 209.5,-75.5 250.5,-75.5 250.5,-56.5 209.5,-56.5"/>
<text text-anchor="middle" x="230" y="-63.5" font-family="Helvetica,sans-Serif" font-size="10.00">Log.h</text>
</a>
</g>
</g>
<!-- Node8&#45;&gt;Node9 -->
<g id="edge8" class="edge"><title>Node8&#45;&gt;Node9</title>
<path fill="none" stroke="midnightblue" d="M279.521,-112.324C270.799,-104.341 257.657,-92.3128 247.102,-82.6529"/>
<polygon fill="midnightblue" stroke="midnightblue" points="249.392,-80.0036 239.652,-75.8339 244.666,-85.1674 249.392,-80.0036"/>
</g>
<!-- Node10 -->
<g id="node10" class="node"><title>Node10</title>
<polygon fill="white" stroke="#bfbfbf" points="148.5,-0.5 148.5,-19.5 191.5,-19.5 191.5,-0.5 148.5,-0.5"/>
<text text-anchor="middle" x="170" y="-7.5" font-family="Helvetica,sans-Serif" font-size="10.00">cstdio</text>
</g>
<!-- Node8&#45;&gt;Node10 -->
<g id="edge15" class="edge"><title>Node8&#45;&gt;Node10</title>
<path fill="none" stroke="midnightblue" d="M262.7,-112.718C243.563,-105.569 218.109,-93.5894 201,-76 188.218,-62.8594 179.909,-43.4484 175.141,-29.2605"/>
<polygon fill="midnightblue" stroke="midnightblue" points="178.46,-28.1455 172.171,-19.6195 171.771,-30.2067 178.46,-28.1455"/>
</g>
<!-- Node13 -->
<g id="node13" class="node"><title>Node13</title>
<polygon fill="white" stroke="#bfbfbf" points="268.5,-56.5 268.5,-75.5 309.5,-75.5 309.5,-56.5 268.5,-56.5"/>
<text text-anchor="middle" x="289" y="-63.5" font-family="Helvetica,sans-Serif" font-size="10.00">string</text>
</g>
<!-- Node8&#45;&gt;Node13 -->
<g id="edge12" class="edge"><title>Node8&#45;&gt;Node13</title>
<path fill="none" stroke="midnightblue" d="M289,-112.083C289,-105.006 289,-94.8611 289,-85.9865"/>
<polygon fill="midnightblue" stroke="midnightblue" points="292.5,-85.751 289,-75.7511 285.5,-85.7511 292.5,-85.751"/>
</g>
<!-- Node14 -->
<g id="node14" class="node"><title>Node14</title>
<polygon fill="white" stroke="#bfbfbf" points="327.5,-56.5 327.5,-75.5 410.5,-75.5 410.5,-56.5 327.5,-56.5"/>
<text text-anchor="middle" x="369" y="-63.5" font-family="Helvetica,sans-Serif" font-size="10.00">unordered_map</text>
</g>
<!-- Node8&#45;&gt;Node14 -->
<g id="edge13" class="edge"><title>Node8&#45;&gt;Node14</title>
<path fill="none" stroke="midnightblue" d="M301.853,-112.324C314.216,-103.979 333.13,-91.2122 347.737,-81.3524"/>
<polygon fill="midnightblue" stroke="midnightblue" points="349.848,-84.1503 356.179,-75.6545 345.932,-78.3483 349.848,-84.1503"/>
</g>
<!-- Node15 -->
<g id="node15" class="node"><title>Node15</title>
<polygon fill="white" stroke="#bfbfbf" points="428.5,-56.5 428.5,-75.5 477.5,-75.5 477.5,-56.5 428.5,-56.5"/>
<text text-anchor="middle" x="453" y="-63.5" font-family="Helvetica,sans-Serif" font-size="10.00">cassert</text>
</g>
<!-- Node8&#45;&gt;Node15 -->
<g id="edge14" class="edge"><title>Node8&#45;&gt;Node15</title>
<path fill="none" stroke="midnightblue" d="M314.986,-112.444C343.104,-103.185 388.052,-88.3854 418.969,-78.2054"/>
<polygon fill="midnightblue" stroke="midnightblue" points="420.071,-81.5275 428.475,-75.0755 417.882,-74.8786 420.071,-81.5275"/>
</g>
<!-- Node9&#45;&gt;Node10 -->
<g id="edge9" class="edge"><title>Node9&#45;&gt;Node10</title>
<path fill="none" stroke="midnightblue" d="M220.36,-56.324C211.49,-48.3414 198.125,-36.3128 187.392,-26.6529"/>
<polygon fill="midnightblue" stroke="midnightblue" points="189.59,-23.922 179.815,-19.8339 184.907,-29.1251 189.59,-23.922"/>
</g>
<!-- Node11 -->
<g id="node11" class="node"><title>Node11</title>
<polygon fill="white" stroke="#bfbfbf" points="209.5,-0.5 209.5,-19.5 258.5,-19.5 258.5,-0.5 209.5,-0.5"/>
<text text-anchor="middle" x="234" y="-7.5" font-family="Helvetica,sans-Serif" font-size="10.00">cstdarg</text>
</g>
<!-- Node9&#45;&gt;Node11 -->
<g id="edge10" class="edge"><title>Node9&#45;&gt;Node11</title>
<path fill="none" stroke="midnightblue" d="M230.661,-56.083C231.185,-49.0059 231.936,-38.8611 232.594,-29.9865"/>
<polygon fill="midnightblue" stroke="midnightblue" points="236.103,-29.9823 233.352,-19.7511 229.123,-29.4652 236.103,-29.9823"/>
</g>
<!-- Node12 -->
<g id="node12" class="node"><title>Node12</title>
<polygon fill="white" stroke="#bfbfbf" points="277,-0.5 277,-19.5 323,-19.5 323,-0.5 277,-0.5"/>
<text text-anchor="middle" x="300" y="-7.5" font-family="Helvetica,sans-Serif" font-size="10.00">cstring</text>
</g>
<!-- Node9&#45;&gt;Node12 -->
<g id="edge11" class="edge"><title>Node9&#45;&gt;Node12</title>
<path fill="none" stroke="midnightblue" d="M241.247,-56.324C251.797,-48.1849 267.801,-35.8395 280.442,-26.0874"/>
<polygon fill="midnightblue" stroke="midnightblue" points="282.769,-28.7132 288.549,-19.8339 278.493,-23.1707 282.769,-28.7132"/>
</g>
</g>
</svg>
