<?xml version="1.0" encoding="UTF-8" standalone="no"?>
<!DOCTYPE svg PUBLIC "-//W3C//DTD SVG 1.1//EN"
 "http://www.w3.org/Graphics/SVG/1.1/DTD/svg11.dtd">
<!-- Generated by graphviz version 2.36.0 (20140111.2315)
 -->
<!-- Title: /home/travis/build/mgerhardy/simpleai/src/ai/common/Random.h Pages: 1 -->
<!--zoomable 620 -->
<svg id="main" version="1.1" xmlns="http://www.w3.org/2000/svg" xmlns:xlink="http://www.w3.org/1999/xlink" xml:space="preserve" onload="init(evt)">
<style type="text/css"><![CDATA[
.edge:hover path { stroke: red; }
.edge:hover polygon { stroke: red; fill: red; }
]]></style>
<script type="text/javascript"><![CDATA[
var edges = document.getElementsByTagName('g');
if (edges && edges.length) {
  for (var i=0;i<edges.length;i++) {
    if (edges[i].id.substr(0,4)=='edge') {
      edges[i].setAttribute('class','edge');
    }
  }
}
]]></script>
        <defs>
                <circle id="rim" cx="0" cy="0" r="7"/>
                <circle id="rim2" cx="0" cy="0" r="3.5"/>
                <g id="zoomPlus">
                        <use xlink:href="#rim" fill="#404040">
                                <set attributeName="fill" to="#808080" begin="zoomplus.mouseover" end="zoomplus.mouseout"/>
                        </use>
                        <path d="M-4,0h8M0,-4v8" fill="none" stroke="white" stroke-width="1.5" pointer-events="none"/>
                </g>
                <g id="zoomMin">
                        <use xlink:href="#rim" fill="#404040">
                                <set attributeName="fill" to="#808080" begin="zoomminus.mouseover" end="zoomminus.mouseout"/>
                        </use>
                        <path d="M-4,0h8" fill="none" stroke="white" stroke-width="1.5" pointer-events="none"/>
                </g>
                <g id="dirArrow">
                        <path fill="none" stroke="white" stroke-width="1.5" d="M0,-3.0v7 M-2.5,-0.5L0,-3.0L2.5,-0.5"/>
                </g>
               <g id="resetDef">
                       <use xlink:href="#rim2" fill="#404040">
                               <set attributeName="fill" to="#808080" begin="reset.mouseover" end="reset.mouseout"/>
                       </use>
               </g>
        </defs>

<script type="text/javascript">
var viewWidth = 1534;
var viewHeight = 620;
var sectionId = 'dynsection-1';
</script>
<script xlink:href="svgpan.js"/>
<svg id="graph" class="graph">
<g id="viewport">
<title>/home/travis/build/mgerhardy/simpleai/src/ai/common/Random.h</title>
<polygon fill="white" stroke="none" points="-4,4 -4,-616 1530,-616 1530,4 -4,4"/>
<!-- Node1 -->
<g id="node1" class="node"><title>Node1</title>
<polygon fill="#bfbfbf" stroke="black" points="1055,-570.5 1055,-611.5 1187,-611.5 1187,-570.5 1055,-570.5"/>
<text text-anchor="start" x="1063" y="-599.5" font-family="Helvetica,sans-Serif" font-size="10.00">/home/travis/build</text>
<text text-anchor="start" x="1063" y="-588.5" font-family="Helvetica,sans-Serif" font-size="10.00">/mgerhardy/simpleai</text>
<text text-anchor="middle" x="1121" y="-577.5" font-family="Helvetica,sans-Serif" font-size="10.00">/src/ai/common/Random.h</text>
</g>
<!-- Node2 -->
<g id="node2" class="node"><title>Node2</title>
<g id="a_node2"><a xlink:href="ProbabilitySelector_8h.html" target="_top" xlink:title="/home/travis/build\l/mgerhardy/simpleai\l/src/ai/tree/ProbabilitySelector.h">
<polygon fill="white" stroke="black" points="1043,-492.5 1043,-533.5 1199,-533.5 1199,-492.5 1043,-492.5"/>
<text text-anchor="start" x="1051" y="-521.5" font-family="Helvetica,sans-Serif" font-size="10.00">/home/travis/build</text>
<text text-anchor="start" x="1051" y="-510.5" font-family="Helvetica,sans-Serif" font-size="10.00">/mgerhardy/simpleai</text>
<text text-anchor="middle" x="1121" y="-499.5" font-family="Helvetica,sans-Serif" font-size="10.00">/src/ai/tree/ProbabilitySelector.h</text>
</a>
</g>
</g>
<!-- Node1&#45;&gt;Node2 -->
<g id="edge1" class="edge"><title>Node1&#45;&gt;Node2</title>
<path fill="none" stroke="midnightblue" d="M1121,-560.297C1121,-551.301 1121,-541.653 1121,-533.506"/>
<polygon fill="midnightblue" stroke="midnightblue" points="1117.5,-560.428 1121,-570.428 1124.5,-560.428 1117.5,-560.428"/>
</g>
<!-- Node8 -->
<g id="node8" class="node"><title>Node8</title>
<g id="a_node8"><a xlink:href="SimpleAI_8h.html" target="_top" xlink:title="/home/travis/build\l/mgerhardy/simpleai\l/src/ai/SimpleAI.h">
<polygon fill="white" stroke="black" points="739,-0.5 739,-41.5 843,-41.5 843,-0.5 739,-0.5"/>
<text text-anchor="start" x="747" y="-29.5" font-family="Helvetica,sans-Serif" font-size="10.00">/home/travis/build</text>
<text text-anchor="start" x="747" y="-18.5" font-family="Helvetica,sans-Serif" font-size="10.00">/mgerhardy/simpleai</text>
<text text-anchor="middle" x="791" y="-7.5" font-family="Helvetica,sans-Serif" font-size="10.00">/src/ai/SimpleAI.h</text>
</a>
</g>
</g>
<!-- Node1&#45;&gt;Node8 -->
<g id="edge43" class="edge"><title>Node1&#45;&gt;Node8</title>
<path fill="none" stroke="midnightblue" d="M1044.45,-587.558C791.734,-578.493 0,-541.66 0,-436 0,-436 0,-436 0,-176 0,-126.054 12.8873,-104.854 55,-78 112.333,-41.4402 580.53,-27.0091 738.883,-23.1443"/>
<polygon fill="midnightblue" stroke="midnightblue" points="1044.53,-591.063 1054.65,-587.919 1044.78,-584.067 1044.53,-591.063"/>
</g>
<!-- Node18 -->
<g id="node18" class="node"><title>Node18</title>
<g id="a_node18"><a xlink:href="Steer_8h.html" target="_top" xlink:title="/home/travis/build\l/mgerhardy/simpleai\l/src/ai/tree/Steer.h">
<polygon fill="white" stroke="black" points="921,-492.5 921,-533.5 1025,-533.5 1025,-492.5 921,-492.5"/>
<text text-anchor="start" x="929" y="-521.5" font-family="Helvetica,sans-Serif" font-size="10.00">/home/travis/build</text>
<text text-anchor="start" x="929" y="-510.5" font-family="Helvetica,sans-Serif" font-size="10.00">/mgerhardy/simpleai</text>
<text text-anchor="middle" x="973" y="-499.5" font-family="Helvetica,sans-Serif" font-size="10.00">/src/ai/tree/Steer.h</text>
</a>
</g>
</g>
<!-- Node1&#45;&gt;Node18 -->
<g id="edge29" class="edge"><title>Node1&#45;&gt;Node18</title>
<path fill="none" stroke="midnightblue" d="M1073.81,-565.768C1053.52,-555.35 1030.13,-543.336 1010.98,-533.506"/>
<polygon fill="midnightblue" stroke="midnightblue" points="1072.39,-568.973 1082.89,-570.428 1075.59,-562.747 1072.39,-568.973"/>
</g>
<!-- Node20 -->
<g id="node20" class="node"><title>Node20</title>
<g id="a_node20"><a xlink:href="filter_2Random_8h.html" target="_top" xlink:title="/home/travis/build\l/mgerhardy/simpleai\l/src/ai/filter/Random.h">
<polygon fill="white" stroke="black" points="1217.5,-492.5 1217.5,-533.5 1330.5,-533.5 1330.5,-492.5 1217.5,-492.5"/>
<text text-anchor="start" x="1225.5" y="-521.5" font-family="Helvetica,sans-Serif" font-size="10.00">/home/travis/build</text>
<text text-anchor="start" x="1225.5" y="-510.5" font-family="Helvetica,sans-Serif" font-size="10.00">/mgerhardy/simpleai</text>
<text text-anchor="middle" x="1274" y="-499.5" font-family="Helvetica,sans-Serif" font-size="10.00">/src/ai/filter/Random.h</text>
</a>
</g>
</g>
<!-- Node1&#45;&gt;Node20 -->
<g id="edge37" class="edge"><title>Node1&#45;&gt;Node20</title>
<path fill="none" stroke="midnightblue" d="M1169.5,-565.908C1190.54,-555.458 1214.85,-543.38 1234.73,-533.506"/>
<polygon fill="midnightblue" stroke="midnightblue" points="1167.8,-562.845 1160.4,-570.428 1170.91,-569.114 1167.8,-562.845"/>
</g>
<!-- Node21 -->
<g id="node21" class="node"><title>Node21</title>
<g id="a_node21"><a xlink:href="Wander_8h.html" target="_top" xlink:title="/home/travis/build\l/mgerhardy/simpleai\l/src/ai/movement/Wander.h">
<polygon fill="white" stroke="black" points="1348.5,-492.5 1348.5,-533.5 1485.5,-533.5 1485.5,-492.5 1348.5,-492.5"/>
<text text-anchor="start" x="1356.5" y="-521.5" font-family="Helvetica,sans-Serif" font-size="10.00">/home/travis/build</text>
<text text-anchor="start" x="1356.5" y="-510.5" font-family="Helvetica,sans-Serif" font-size="10.00">/mgerhardy/simpleai</text>
<text text-anchor="middle" x="1417" y="-499.5" font-family="Helvetica,sans-Serif" font-size="10.00">/src/ai/movement/Wander.h</text>
</a>
</g>
</g>
<!-- Node1&#45;&gt;Node21 -->
<g id="edge40" class="edge"><title>Node1&#45;&gt;Node21</title>
<path fill="none" stroke="midnightblue" d="M1196.83,-570.531C1243.55,-558.535 1302.98,-543.276 1348.31,-531.635"/>
<polygon fill="midnightblue" stroke="midnightblue" points="1195.88,-567.162 1187.06,-573.039 1197.62,-573.942 1195.88,-567.162"/>
</g>
<!-- Node3 -->
<g id="node3" class="node"><title>Node3</title>
<g id="a_node3"><a xlink:href="AIRegistry_8h.html" target="_top" xlink:title="/home/travis/build\l/mgerhardy/simpleai\l/src/ai/AIRegistry.h">
<polygon fill="white" stroke="black" points="1220,-414.5 1220,-455.5 1324,-455.5 1324,-414.5 1220,-414.5"/>
<text text-anchor="start" x="1228" y="-443.5" font-family="Helvetica,sans-Serif" font-size="10.00">/home/travis/build</text>
<text text-anchor="start" x="1228" y="-432.5" font-family="Helvetica,sans-Serif" font-size="10.00">/mgerhardy/simpleai</text>
<text text-anchor="middle" x="1272" y="-421.5" font-family="Helvetica,sans-Serif" font-size="10.00">/src/ai/AIRegistry.h</text>
</a>
</g>
</g>
<!-- Node2&#45;&gt;Node3 -->
<g id="edge2" class="edge"><title>Node2&#45;&gt;Node3</title>
<path fill="none" stroke="midnightblue" d="M1168.87,-487.908C1189.63,-477.458 1213.63,-465.38 1233.25,-455.506"/>
<polygon fill="midnightblue" stroke="midnightblue" points="1167.25,-484.806 1159.89,-492.428 1170.39,-491.059 1167.25,-484.806"/>
</g>
<!-- Node4 -->
<g id="node4" class="node"><title>Node4</title>
<g id="a_node4"><a xlink:href="ConditionParser_8h.html" target="_top" xlink:title="/home/travis/build\l/mgerhardy/simpleai\l/src/ai/conditions/Condition\lParser.h">
<polygon fill="white" stroke="black" points="1108.5,-325 1108.5,-377 1243.5,-377 1243.5,-325 1108.5,-325"/>
<text text-anchor="start" x="1116.5" y="-365" font-family="Helvetica,sans-Serif" font-size="10.00">/home/travis/build</text>
<text text-anchor="start" x="1116.5" y="-354" font-family="Helvetica,sans-Serif" font-size="10.00">/mgerhardy/simpleai</text>
<text text-anchor="start" x="1116.5" y="-343" font-family="Helvetica,sans-Serif" font-size="10.00">/src/ai/conditions/Condition</text>
<text text-anchor="middle" x="1176" y="-332" font-family="Helvetica,sans-Serif" font-size="10.00">Parser.h</text>
</a>
</g>
</g>
<!-- Node3&#45;&gt;Node4 -->
<g id="edge3" class="edge"><title>Node3&#45;&gt;Node4</title>
<path fill="none" stroke="midnightblue" d="M1241.14,-407.644C1229.74,-397.906 1216.86,-386.9 1205.57,-377.261"/>
<polygon fill="midnightblue" stroke="midnightblue" points="1238.88,-410.317 1248.76,-414.15 1243.43,-404.994 1238.88,-410.317"/>
</g>
<!-- Node5 -->
<g id="node5" class="node"><title>Node5</title>
<g id="a_node5"><a xlink:href="Server_8h.html" target="_top" xlink:title="/home/travis/build\l/mgerhardy/simpleai\l/src/ai/server/Server.h">
<polygon fill="white" stroke="black" points="970.5,-240.5 970.5,-281.5 1083.5,-281.5 1083.5,-240.5 970.5,-240.5"/>
<text text-anchor="start" x="978.5" y="-269.5" font-family="Helvetica,sans-Serif" font-size="10.00">/home/travis/build</text>
<text text-anchor="start" x="978.5" y="-258.5" font-family="Helvetica,sans-Serif" font-size="10.00">/mgerhardy/simpleai</text>
<text text-anchor="middle" x="1027" y="-247.5" font-family="Helvetica,sans-Serif" font-size="10.00">/src/ai/server/Server.h</text>
</a>
</g>
</g>
<!-- Node3&#45;&gt;Node5 -->
<g id="edge26" class="edge"><title>Node3&#45;&gt;Node5</title>
<path fill="none" stroke="midnightblue" d="M1209.64,-424.742C1174.29,-416.981 1130.9,-402.973 1099,-378 1081.92,-364.631 1052.47,-311.099 1037.06,-281.657"/>
<polygon fill="midnightblue" stroke="midnightblue" points="1209.35,-428.256 1219.85,-426.862 1210.77,-421.402 1209.35,-428.256"/>
</g>
<!-- Node3&#45;&gt;Node8 -->
<g id="edge27" class="edge"><title>Node3&#45;&gt;Node8</title>
<path fill="none" stroke="midnightblue" d="M1286.85,-405.192C1298.32,-382.983 1314.61,-351.518 1329,-324 1365.74,-253.742 1426.27,-225.978 1389,-156 1359.79,-101.166 1331.28,-99.5258 1273,-78 1195.06,-49.2126 951.073,-31.5408 843.19,-24.9459"/>
<polygon fill="midnightblue" stroke="midnightblue" points="1283.73,-403.613 1282.25,-414.105 1289.95,-406.824 1283.73,-403.613"/>
</g>
<!-- Node15 -->
<g id="node15" class="node"><title>Node15</title>
<g id="a_node15"><a xlink:href="LUATreeLoader_8h.html" target="_top" xlink:title="/home/travis/build\l/mgerhardy/simpleai\l/src/ai/tree/loaders\l/lua/LUATreeLoader.h">
<polygon fill="white" stroke="black" points="1228,-235 1228,-287 1340,-287 1340,-235 1228,-235"/>
<text text-anchor="start" x="1236" y="-275" font-family="Helvetica,sans-Serif" font-size="10.00">/home/travis/build</text>
<text text-anchor="start" x="1236" y="-264" font-family="Helvetica,sans-Serif" font-size="10.00">/mgerhardy/simpleai</text>
<text text-anchor="start" x="1236" y="-253" font-family="Helvetica,sans-Serif" font-size="10.00">/src/ai/tree/loaders</text>
<text text-anchor="middle" x="1284" y="-242" font-family="Helvetica,sans-Serif" font-size="10.00">/lua/LUATreeLoader.h</text>
</a>
</g>
</g>
<!-- Node3&#45;&gt;Node15 -->
<g id="edge28" class="edge"><title>Node3&#45;&gt;Node15</title>
<path fill="none" stroke="midnightblue" d="M1274.07,-404.263C1276.39,-371.131 1280.08,-318.145 1282.25,-287.045"/>
<polygon fill="midnightblue" stroke="midnightblue" points="1270.58,-404.05 1273.38,-414.269 1277.56,-404.537 1270.58,-404.05"/>
</g>
<!-- Node17 -->
<g id="node17" class="node"><title>Node17</title>
<g id="a_node17"><a xlink:href="LUAAIRegistry_8h_source.html" target="_top" xlink:title="/home/travis/build\l/mgerhardy/simpleai\l/src/ai/LUAAIRegistry.h">
<polygon fill="white" stroke="black" points="1338.5,-330.5 1338.5,-371.5 1459.5,-371.5 1459.5,-330.5 1338.5,-330.5"/>
<text text-anchor="start" x="1346.5" y="-359.5" font-family="Helvetica,sans-Serif" font-size="10.00">/home/travis/build</text>
<text text-anchor="start" x="1346.5" y="-348.5" font-family="Helvetica,sans-Serif" font-size="10.00">/mgerhardy/simpleai</text>
<text text-anchor="middle" x="1399" y="-337.5" font-family="Helvetica,sans-Serif" font-size="10.00">/src/ai/LUAAIRegistry.h</text>
</a>
</g>
</g>
<!-- Node3&#45;&gt;Node17 -->
<g id="edge25" class="edge"><title>Node3&#45;&gt;Node17</title>
<path fill="none" stroke="midnightblue" d="M1310.91,-408.874C1329.38,-396.952 1351.12,-382.912 1368.39,-371.765"/>
<polygon fill="midnightblue" stroke="midnightblue" points="1308.92,-405.994 1302.42,-414.359 1312.72,-411.875 1308.92,-405.994"/>
</g>
<!-- Node4&#45;&gt;Node5 -->
<g id="edge4" class="edge"><title>Node4&#45;&gt;Node5</title>
<path fill="none" stroke="midnightblue" d="M1124.67,-319.682C1103.33,-307.081 1079.18,-292.819 1060.23,-281.628"/>
<polygon fill="midnightblue" stroke="midnightblue" points="1122.91,-322.711 1133.3,-324.783 1126.47,-316.684 1122.91,-322.711"/>
</g>
<!-- Node4&#45;&gt;Node8 -->
<g id="edge22" class="edge"><title>Node4&#45;&gt;Node8</title>
<path fill="none" stroke="midnightblue" d="M1180.18,-314.67C1185.12,-288.714 1195.83,-254.528 1219,-234 1270.64,-188.253 1327.24,-252.147 1370,-198 1381.57,-183.35 1381.62,-170.612 1370,-156 1304.27,-73.3169 973.302,-37.1763 843.421,-26.0198"/>
<polygon fill="midnightblue" stroke="midnightblue" points="1176.67,-314.429 1178.45,-324.873 1183.57,-315.598 1176.67,-314.429"/>
</g>
<!-- Node4&#45;&gt;Node15 -->
<g id="edge23" class="edge"><title>Node4&#45;&gt;Node15</title>
<path fill="none" stroke="midnightblue" d="M1214.98,-318.242C1227.49,-308.042 1241.18,-296.887 1253.05,-287.221"/>
<polygon fill="midnightblue" stroke="midnightblue" points="1212.49,-315.753 1206.95,-324.783 1216.91,-321.179 1212.49,-315.753"/>
</g>
<!-- Node16 -->
<g id="node16" class="node"><title>Node16</title>
<g id="a_node16"><a xlink:href="XMLTreeLoader_8h.html" target="_top" xlink:title="/home/travis/build\l/mgerhardy/simpleai\l/src/ai/tree/loaders\l/xml/XMLTreeLoader.h">
<polygon fill="white" stroke="black" points="836,-235 836,-287 952,-287 952,-235 836,-235"/>
<text text-anchor="start" x="844" y="-275" font-family="Helvetica,sans-Serif" font-size="10.00">/home/travis/build</text>
<text text-anchor="start" x="844" y="-264" font-family="Helvetica,sans-Serif" font-size="10.00">/mgerhardy/simpleai</text>
<text text-anchor="start" x="844" y="-253" font-family="Helvetica,sans-Serif" font-size="10.00">/src/ai/tree/loaders</text>
<text text-anchor="middle" x="894" y="-242" font-family="Helvetica,sans-Serif" font-size="10.00">/xml/XMLTreeLoader.h</text>
</a>
</g>
</g>
<!-- Node4&#45;&gt;Node16 -->
<g id="edge24" class="edge"><title>Node4&#45;&gt;Node16</title>
<path fill="none" stroke="midnightblue" d="M1098.53,-329.463C1057.4,-318.107 1006.15,-303.237 961,-288 958.163,-287.043 955.269,-286.036 952.353,-284.998"/>
<polygon fill="midnightblue" stroke="midnightblue" points="1097.65,-332.851 1108.22,-332.125 1099.5,-326.101 1097.65,-332.851"/>
</g>
<!-- Node6 -->
<g id="node6" class="node"><title>Node6</title>
<g id="a_node6"><a xlink:href="ChangeHandler_8h.html" target="_top" xlink:title="/home/travis/build\l/mgerhardy/simpleai\l/src/ai/server/ChangeHandler.h">
<polygon fill="white" stroke="black" points="983,-156.5 983,-197.5 1135,-197.5 1135,-156.5 983,-156.5"/>
<text text-anchor="start" x="991" y="-185.5" font-family="Helvetica,sans-Serif" font-size="10.00">/home/travis/build</text>
<text text-anchor="start" x="991" y="-174.5" font-family="Helvetica,sans-Serif" font-size="10.00">/mgerhardy/simpleai</text>
<text text-anchor="middle" x="1059" y="-163.5" font-family="Helvetica,sans-Serif" font-size="10.00">/src/ai/server/ChangeHandler.h</text>
</a>
</g>
</g>
<!-- Node5&#45;&gt;Node6 -->
<g id="edge5" class="edge"><title>Node5&#45;&gt;Node6</title>
<path fill="none" stroke="midnightblue" d="M1038.49,-230.551C1042.76,-219.626 1047.48,-207.51 1051.33,-197.667"/>
<polygon fill="midnightblue" stroke="midnightblue" points="1035.12,-229.562 1034.75,-240.15 1041.64,-232.107 1035.12,-229.562"/>
</g>
<!-- Node7 -->
<g id="node7" class="node"><title>Node7</title>
<g id="a_node7"><a xlink:href="ServerImpl_8h.html" target="_top" xlink:title="/home/travis/build\l/mgerhardy/simpleai\l/src/ai/server/ServerImpl.h">
<polygon fill="white" stroke="black" points="725,-78.5 725,-119.5 857,-119.5 857,-78.5 725,-78.5"/>
<text text-anchor="start" x="733" y="-107.5" font-family="Helvetica,sans-Serif" font-size="10.00">/home/travis/build</text>
<text text-anchor="start" x="733" y="-96.5" font-family="Helvetica,sans-Serif" font-size="10.00">/mgerhardy/simpleai</text>
<text text-anchor="middle" x="791" y="-85.5" font-family="Helvetica,sans-Serif" font-size="10.00">/src/ai/server/ServerImpl.h</text>
</a>
</g>
</g>
<!-- Node5&#45;&gt;Node7 -->
<g id="edge16" class="edge"><title>Node5&#45;&gt;Node7</title>
<path fill="none" stroke="midnightblue" d="M1092.69,-240.231C1112.69,-230.79 1132.44,-217.216 1144,-198 1153.63,-182.006 1156.12,-170.196 1144,-156 1107.84,-113.648 948.837,-103.156 857.039,-100.667"/>
<polygon fill="midnightblue" stroke="midnightblue" points="1091.24,-237.044 1083.5,-244.284 1094.07,-243.448 1091.24,-237.044"/>
</g>
<!-- Node5&#45;&gt;Node8 -->
<g id="edge21" class="edge"><title>Node5&#45;&gt;Node8</title>
<path fill="none" stroke="midnightblue" d="M972.714,-237.254C968.46,-235.99 964.19,-234.879 960,-234 914.992,-224.556 164.803,-231.218 133,-198 120.091,-184.517 121.191,-170.456 133,-156 209.795,-61.9894 597.076,-32.2559 738.878,-24.4347"/>
<polygon fill="midnightblue" stroke="midnightblue" points="971.973,-240.693 982.565,-240.446 974.131,-234.034 971.973,-240.693"/>
</g>
<!-- Node9 -->
<g id="node9" class="node"><title>Node9</title>
<g id="a_node9"><a xlink:href="DeleteNodeHandler_8h.html" target="_top" xlink:title="/home/travis/build\l/mgerhardy/simpleai\l/src/ai/server/DeleteNodeHandler.h">
<polygon fill="white" stroke="black" points="1191,-156.5 1191,-197.5 1361,-197.5 1361,-156.5 1191,-156.5"/>
<text text-anchor="start" x="1199" y="-185.5" font-family="Helvetica,sans-Serif" font-size="10.00">/home/travis/build</text>
<text text-anchor="start" x="1199" y="-174.5" font-family="Helvetica,sans-Serif" font-size="10.00">/mgerhardy/simpleai</text>
<text text-anchor="middle" x="1276" y="-163.5" font-family="Helvetica,sans-Serif" font-size="10.00">/src/ai/server/DeleteNodeHandler.h</text>
</a>
</g>
</g>
<!-- Node5&#45;&gt;Node9 -->
<g id="edge8" class="edge"><title>Node5&#45;&gt;Node9</title>
<path fill="none" stroke="midnightblue" d="M1093.05,-238.249C1131.46,-225.598 1179.48,-209.784 1216.69,-197.533"/>
<polygon fill="midnightblue" stroke="midnightblue" points="1091.91,-234.941 1083.5,-241.393 1094.09,-241.589 1091.91,-234.941"/>
</g>
<!-- Node10 -->
<g id="node10" class="node"><title>Node10</title>
<g id="a_node10"><a xlink:href="PauseHandler_8h.html" target="_top" xlink:title="/home/travis/build\l/mgerhardy/simpleai\l/src/ai/server/PauseHandler.h">
<polygon fill="white" stroke="black" points="142,-156.5 142,-197.5 288,-197.5 288,-156.5 142,-156.5"/>
<text text-anchor="start" x="150" y="-185.5" font-family="Helvetica,sans-Serif" font-size="10.00">/home/travis/build</text>
<text text-anchor="start" x="150" y="-174.5" font-family="Helvetica,sans-Serif" font-size="10.00">/mgerhardy/simpleai</text>
<text text-anchor="middle" x="215" y="-163.5" font-family="Helvetica,sans-Serif" font-size="10.00">/src/ai/server/PauseHandler.h</text>
</a>
</g>
</g>
<!-- Node5&#45;&gt;Node10 -->
<g id="edge10" class="edge"><title>Node5&#45;&gt;Node10</title>
<path fill="none" stroke="midnightblue" d="M972.495,-237.242C968.312,-235.992 964.117,-234.887 960,-234 671.519,-171.846 588.929,-241.147 297,-198 294.101,-197.571 291.154,-197.088 288.185,-196.56"/>
<polygon fill="midnightblue" stroke="midnightblue" points="971.594,-240.629 982.186,-240.388 973.755,-233.971 971.594,-240.629"/>
</g>
<!-- Node11 -->
<g id="node11" class="node"><title>Node11</title>
<g id="a_node11"><a xlink:href="ResetHandler_8h.html" target="_top" xlink:title="/home/travis/build\l/mgerhardy/simpleai\l/src/ai/server/ResetHandler.h">
<polygon fill="white" stroke="black" points="306.5,-156.5 306.5,-197.5 451.5,-197.5 451.5,-156.5 306.5,-156.5"/>
<text text-anchor="start" x="314.5" y="-185.5" font-family="Helvetica,sans-Serif" font-size="10.00">/home/travis/build</text>
<text text-anchor="start" x="314.5" y="-174.5" font-family="Helvetica,sans-Serif" font-size="10.00">/mgerhardy/simpleai</text>
<text text-anchor="middle" x="379" y="-163.5" font-family="Helvetica,sans-Serif" font-size="10.00">/src/ai/server/ResetHandler.h</text>
</a>
</g>
</g>
<!-- Node5&#45;&gt;Node11 -->
<g id="edge12" class="edge"><title>Node5&#45;&gt;Node11</title>
<path fill="none" stroke="midnightblue" d="M972.267,-237.261C968.159,-236.018 964.04,-234.908 960,-234 743.058,-185.238 680.667,-232.464 461,-198 457.96,-197.523 454.867,-196.99 451.75,-196.413"/>
<polygon fill="midnightblue" stroke="midnightblue" points="971.203,-240.596 981.795,-240.374 973.377,-233.942 971.203,-240.596"/>
</g>
<!-- Node12 -->
<g id="node12" class="node"><title>Node12</title>
<g id="a_node12"><a xlink:href="SelectHandler_8h.html" target="_top" xlink:title="/home/travis/build\l/mgerhardy/simpleai\l/src/ai/server/SelectHandler.h">
<polygon fill="white" stroke="black" points="470,-156.5 470,-197.5 616,-197.5 616,-156.5 470,-156.5"/>
<text text-anchor="start" x="478" y="-185.5" font-family="Helvetica,sans-Serif" font-size="10.00">/home/travis/build</text>
<text text-anchor="start" x="478" y="-174.5" font-family="Helvetica,sans-Serif" font-size="10.00">/mgerhardy/simpleai</text>
<text text-anchor="middle" x="543" y="-163.5" font-family="Helvetica,sans-Serif" font-size="10.00">/src/ai/server/SelectHandler.h</text>
</a>
</g>
</g>
<!-- Node5&#45;&gt;Node12 -->
<g id="edge14" class="edge"><title>Node5&#45;&gt;Node12</title>
<path fill="none" stroke="midnightblue" d="M971.685,-237.252C967.767,-236.038 963.845,-234.935 960,-234 814.497,-198.607 772.507,-223.798 625,-198 622.113,-197.495 619.177,-196.947 616.216,-196.366"/>
<polygon fill="midnightblue" stroke="midnightblue" points="970.785,-240.641 981.378,-240.469 972.989,-233.997 970.785,-240.641"/>
</g>
<!-- Node13 -->
<g id="node13" class="node"><title>Node13</title>
<g id="a_node13"><a xlink:href="StepHandler_8h.html" target="_top" xlink:title="/home/travis/build\l/mgerhardy/simpleai\l/src/ai/server/StepHandler.h">
<polygon fill="white" stroke="black" points="634.5,-156.5 634.5,-197.5 773.5,-197.5 773.5,-156.5 634.5,-156.5"/>
<text text-anchor="start" x="642.5" y="-185.5" font-family="Helvetica,sans-Serif" font-size="10.00">/home/travis/build</text>
<text text-anchor="start" x="642.5" y="-174.5" font-family="Helvetica,sans-Serif" font-size="10.00">/mgerhardy/simpleai</text>
<text text-anchor="middle" x="704" y="-163.5" font-family="Helvetica,sans-Serif" font-size="10.00">/src/ai/server/StepHandler.h</text>
</a>
</g>
</g>
<!-- Node5&#45;&gt;Node13 -->
<g id="edge17" class="edge"><title>Node5&#45;&gt;Node13</title>
<path fill="none" stroke="midnightblue" d="M969.656,-237.018C966.407,-235.945 963.173,-234.929 960,-234 882.54,-211.318 860.673,-216.03 782,-198 779.275,-197.375 776.499,-196.726 773.698,-196.061"/>
<polygon fill="midnightblue" stroke="midnightblue" points="968.803,-240.427 979.398,-240.387 971.091,-233.811 968.803,-240.427"/>
</g>
<!-- Node14 -->
<g id="node14" class="node"><title>Node14</title>
<g id="a_node14"><a xlink:href="UpdateNodeHandler_8h.html" target="_top" xlink:title="/home/travis/build\l/mgerhardy/simpleai\l/src/ai/server/UpdateNodeHandler.h">
<polygon fill="white" stroke="black" points="791.5,-156.5 791.5,-197.5 964.5,-197.5 964.5,-156.5 791.5,-156.5"/>
<text text-anchor="start" x="799.5" y="-185.5" font-family="Helvetica,sans-Serif" font-size="10.00">/home/travis/build</text>
<text text-anchor="start" x="799.5" y="-174.5" font-family="Helvetica,sans-Serif" font-size="10.00">/mgerhardy/simpleai</text>
<text text-anchor="middle" x="878" y="-163.5" font-family="Helvetica,sans-Serif" font-size="10.00">/src/ai/server/UpdateNodeHandler.h</text>
</a>
</g>
</g>
<!-- Node5&#45;&gt;Node14 -->
<g id="edge19" class="edge"><title>Node5&#45;&gt;Node14</title>
<path fill="none" stroke="midnightblue" d="M982.483,-235.501C960.488,-223.396 934.308,-208.988 913.656,-197.623"/>
<polygon fill="midnightblue" stroke="midnightblue" points="980.862,-238.604 991.311,-240.359 984.237,-232.471 980.862,-238.604"/>
</g>
<!-- Node6&#45;&gt;Node7 -->
<g id="edge6" class="edge"><title>Node6&#45;&gt;Node7</title>
<path fill="none" stroke="midnightblue" d="M980.202,-153.654C941.042,-142.549 894.259,-129.282 857.011,-118.719"/>
<polygon fill="midnightblue" stroke="midnightblue" points="979.408,-157.067 989.983,-156.428 981.318,-150.333 979.408,-157.067"/>
</g>
<!-- Node7&#45;&gt;Node8 -->
<g id="edge7" class="edge"><title>Node7&#45;&gt;Node8</title>
<path fill="none" stroke="midnightblue" d="M791,-68.2965C791,-59.3009 791,-49.6532 791,-41.5056"/>
<polygon fill="midnightblue" stroke="midnightblue" points="787.5,-68.4281 791,-78.4281 794.5,-68.4281 787.5,-68.4281"/>
</g>
<!-- Node9&#45;&gt;Node7 -->
<g id="edge9" class="edge"><title>Node9&#45;&gt;Node7</title>
<path fill="none" stroke="midnightblue" d="M1180.81,-156.668C1179.54,-156.442 1178.26,-156.219 1177,-156 1065.08,-136.591 934.093,-118.573 857.085,-108.457"/>
<polygon fill="midnightblue" stroke="midnightblue" points="1180.27,-160.127 1190.73,-158.463 1181.52,-153.238 1180.27,-160.127"/>
</g>
<!-- Node10&#45;&gt;Node7 -->
<g id="edge11" class="edge"><title>Node10&#45;&gt;Node7</title>
<path fill="none" stroke="midnightblue" d="M298.13,-155.907C456.272,-128.301 631.472,-112.234 724.695,-104.838"/>
<polygon fill="midnightblue" stroke="midnightblue" points="297.46,-152.471 288.22,-157.656 298.676,-159.364 297.46,-152.471"/>
</g>
<!-- Node11&#45;&gt;Node7 -->
<g id="edge13" class="edge"><title>Node11&#45;&gt;Node7</title>
<path fill="none" stroke="midnightblue" d="M461.819,-155.899C559.061,-136.062 660.416,-119.681 725,-109.785"/>
<polygon fill="midnightblue" stroke="midnightblue" points="460.907,-152.513 451.817,-157.955 462.317,-159.37 460.907,-152.513"/>
</g>
<!-- Node12&#45;&gt;Node7 -->
<g id="edge15" class="edge"><title>Node12&#45;&gt;Node7</title>
<path fill="none" stroke="midnightblue" d="M616.609,-153.442C651.81,-142.655 693.539,-129.867 727.35,-119.506"/>
<polygon fill="midnightblue" stroke="midnightblue" points="615.402,-150.152 606.866,-156.428 617.453,-156.844 615.402,-150.152"/>
</g>
<!-- Node13&#45;&gt;Node7 -->
<g id="edge18" class="edge"><title>Node13&#45;&gt;Node7</title>
<path fill="none" stroke="midnightblue" d="M734.017,-149.779C745.39,-139.843 758.128,-128.716 768.671,-119.506"/>
<polygon fill="midnightblue" stroke="midnightblue" points="731.633,-147.213 726.405,-156.428 736.238,-152.485 731.633,-147.213"/>
</g>
<!-- Node14&#45;&gt;Node7 -->
<g id="edge20" class="edge"><title>Node14&#45;&gt;Node7</title>
<path fill="none" stroke="midnightblue" d="M847.983,-149.779C836.61,-139.843 823.872,-128.716 813.329,-119.506"/>
<polygon fill="midnightblue" stroke="midnightblue" points="845.762,-152.485 855.595,-156.428 850.367,-147.213 845.762,-152.485"/>
</g>
<!-- Node18&#45;&gt;Node3 -->
<g id="edge30" class="edge"><title>Node18&#45;&gt;Node3</title>
<path fill="none" stroke="midnightblue" d="M1034.89,-491.851C1103.93,-472.705 1173.4,-456.955 1219.67,-446.96"/>
<polygon fill="midnightblue" stroke="midnightblue" points="1033.84,-488.51 1025.15,-494.575 1035.73,-495.251 1033.84,-488.51"/>
</g>
<!-- Node18&#45;&gt;Node8 -->
<g id="edge31" class="edge"><title>Node18&#45;&gt;Node8</title>
<path fill="none" stroke="midnightblue" d="M910.521,-507.937C701.239,-493.506 38,-440.77 38,-352 38,-352 38,-352 38,-176 38,-115.954 76.8824,-104.016 131,-78 238.01,-26.5579 601.824,-21.6689 738.517,-21.7015"/>
<polygon fill="midnightblue" stroke="midnightblue" points="910.511,-511.445 920.727,-508.636 910.989,-504.461 910.511,-511.445"/>
</g>
<!-- Node19 -->
<g id="node19" class="node"><title>Node19</title>
<g id="a_node19"><a xlink:href="TreeNodeParser_8h.html" target="_top" xlink:title="/home/travis/build\l/mgerhardy/simpleai\l/src/ai/tree/TreeNodeParser.h">
<polygon fill="white" stroke="black" points="900,-330.5 900,-371.5 1046,-371.5 1046,-330.5 900,-330.5"/>
<text text-anchor="start" x="908" y="-359.5" font-family="Helvetica,sans-Serif" font-size="10.00">/home/travis/build</text>
<text text-anchor="start" x="908" y="-348.5" font-family="Helvetica,sans-Serif" font-size="10.00">/mgerhardy/simpleai</text>
<text text-anchor="middle" x="973" y="-337.5" font-family="Helvetica,sans-Serif" font-size="10.00">/src/ai/tree/TreeNodeParser.h</text>
</a>
</g>
</g>
<!-- Node18&#45;&gt;Node19 -->
<g id="edge32" class="edge"><title>Node18&#45;&gt;Node19</title>
<path fill="none" stroke="midnightblue" d="M973,-482.206C973,-449.962 973,-399.458 973,-371.78"/>
<polygon fill="midnightblue" stroke="midnightblue" points="969.5,-482.381 973,-492.381 976.5,-482.381 969.5,-482.381"/>
</g>
<!-- Node19&#45;&gt;Node5 -->
<g id="edge33" class="edge"><title>Node19&#45;&gt;Node5</title>
<path fill="none" stroke="midnightblue" d="M990.277,-321.845C998.286,-308.793 1007.61,-293.594 1014.86,-281.78"/>
<polygon fill="midnightblue" stroke="midnightblue" points="987.231,-320.116 984.984,-330.47 993.198,-323.777 987.231,-320.116"/>
</g>
<!-- Node19&#45;&gt;Node8 -->
<g id="edge34" class="edge"><title>Node19&#45;&gt;Node8</title>
<path fill="none" stroke="midnightblue" d="M889.626,-348.158C694.609,-341.91 217.794,-314.761 120,-198 76.2401,-145.753 181.363,-80.9118 187,-78 282.554,-28.6434 610.119,-22.3975 738.647,-21.8892"/>
<polygon fill="midnightblue" stroke="midnightblue" points="889.716,-351.662 899.82,-348.473 889.933,-344.665 889.716,-351.662"/>
</g>
<!-- Node19&#45;&gt;Node15 -->
<g id="edge35" class="edge"><title>Node19&#45;&gt;Node15</title>
<path fill="none" stroke="midnightblue" d="M1051.71,-327.728C1106.57,-312.206 1178.45,-291.866 1227.64,-277.949"/>
<polygon fill="midnightblue" stroke="midnightblue" points="1050.69,-324.379 1042.02,-330.47 1052.6,-331.115 1050.69,-324.379"/>
</g>
<!-- Node19&#45;&gt;Node16 -->
<g id="edge36" class="edge"><title>Node19&#45;&gt;Node16</title>
<path fill="none" stroke="midnightblue" d="M948.684,-322.914C938.457,-311.521 926.627,-298.344 916.592,-287.166"/>
<polygon fill="midnightblue" stroke="midnightblue" points="946.183,-325.367 955.467,-330.47 951.391,-320.69 946.183,-325.367"/>
</g>
<!-- Node20&#45;&gt;Node3 -->
<g id="edge38" class="edge"><title>Node20&#45;&gt;Node3</title>
<path fill="none" stroke="midnightblue" d="M1273.22,-482.297C1272.98,-473.301 1272.73,-463.653 1272.51,-455.506"/>
<polygon fill="midnightblue" stroke="midnightblue" points="1269.72,-482.524 1273.48,-492.428 1276.72,-482.339 1269.72,-482.524"/>
</g>
<!-- Node20&#45;&gt;Node8 -->
<g id="edge39" class="edge"><title>Node20&#45;&gt;Node8</title>
<path fill="none" stroke="midnightblue" d="M1322.26,-487.582C1385.37,-454.018 1488,-393.119 1488,-352 1488,-352 1488,-352 1488,-176 1488,-43.942 1004.92,-25.0301 843.103,-22.3995"/>
<polygon fill="midnightblue" stroke="midnightblue" points="1320.47,-484.571 1313.25,-492.33 1323.73,-490.764 1320.47,-484.571"/>
</g>
<!-- Node21&#45;&gt;Node3 -->
<g id="edge41" class="edge"><title>Node21&#45;&gt;Node3</title>
<path fill="none" stroke="midnightblue" d="M1370.77,-487.768C1350.89,-477.35 1327.97,-465.336 1309.21,-455.506"/>
<polygon fill="midnightblue" stroke="midnightblue" points="1369.18,-490.886 1379.66,-492.428 1372.43,-484.686 1369.18,-490.886"/>
</g>
<!-- Node21&#45;&gt;Node8 -->
<g id="edge42" class="edge"><title>Node21&#45;&gt;Node8</title>
<path fill="none" stroke="midnightblue" d="M1449.87,-485.531C1481.97,-456.494 1526,-406.689 1526,-352 1526,-352 1526,-352 1526,-176 1526,-113.133 1481.23,-104.025 1424,-78 1320.81,-31.0719 975.395,-23.4 843.132,-22.1993"/>
<polygon fill="midnightblue" stroke="midnightblue" points="1447.2,-483.222 1442.01,-492.456 1451.83,-488.476 1447.2,-483.222"/>
</g>
</g>
</svg>
        <g id="navigator" transform="translate(0 0)" fill="#404254">
                <rect fill="#f2f5e9" fill-opacity="0.5" stroke="#606060" stroke-width=".5" x="0" y="0" width="60" height="60"/>
                <use id="zoomplus" xlink:href="#zoomPlus" x="17" y="9" onmousedown="handleZoom(evt,'in')"/>
                <use id="zoomminus" xlink:href="#zoomMin" x="42" y="9" onmousedown="handleZoom(evt,'out')"/>
                <use id="reset" xlink:href="#resetDef" x="30" y="36" onmousedown="handleReset()"/>
                <g id="arrowUp" xlink:href="#dirArrow" transform="translate(30 24)" onmousedown="handlePan(0,-1)">
                  <use xlink:href="#rim" fill="#404040">
                        <set attributeName="fill" to="#808080" begin="arrowUp.mouseover" end="arrowUp.mouseout"/>
                  </use>
                  <path fill="none" stroke="white" stroke-width="1.5" d="M0,-3.0v7 M-2.5,-0.5L0,-3.0L2.5,-0.5"/>
                </g>
                <g id="arrowRight" xlink:href="#dirArrow" transform="rotate(90) translate(36 -43)" onmousedown="handlePan(1,0)">
                  <use xlink:href="#rim" fill="#404040">
                        <set attributeName="fill" to="#808080" begin="arrowRight.mouseover" end="arrowRight.mouseout"/>
                  </use>
                  <path fill="none" stroke="white" stroke-width="1.5" d="M0,-3.0v7 M-2.5,-0.5L0,-3.0L2.5,-0.5"/>
                </g>
                <g id="arrowDown" xlink:href="#dirArrow" transform="rotate(180) translate(-30 -48)" onmousedown="handlePan(0,1)">
                  <use xlink:href="#rim" fill="#404040">
                        <set attributeName="fill" to="#808080" begin="arrowDown.mouseover" end="arrowDown.mouseout"/>
                  </use>
                  <path fill="none" stroke="white" stroke-width="1.5" d="M0,-3.0v7 M-2.5,-0.5L0,-3.0L2.5,-0.5"/>
                </g>
                <g id="arrowLeft" xlink:href="#dirArrow" transform="rotate(270) translate(-36 17)" onmousedown="handlePan(-1,0)">
                  <use xlink:href="#rim" fill="#404040">
                        <set attributeName="fill" to="#808080" begin="arrowLeft.mouseover" end="arrowLeft.mouseout"/>
                  </use>
                  <path fill="none" stroke="white" stroke-width="1.5" d="M0,-3.0v7 M-2.5,-0.5L0,-3.0L2.5,-0.5"/>
                </g>
        </g>
        <svg viewBox="0 0 15 15" width="100%" height="30px" preserveAspectRatio="xMaxYMin meet">
         <g id="arrow_out" transform="scale(0.3 0.3)">
          <a xlink:href="common_2Random_8h__dep__incl_org.svg" target="_base">
           <rect id="button" ry="5" rx="5" y="6" x="6" height="38" width="38"
                fill="#f2f5e9" fill-opacity="0.5" stroke="#606060" stroke-width="1.0"/>
           <path id="arrow"
             d="M 11.500037,31.436501 C 11.940474,20.09759 22.043105,11.32322 32.158766,21.979434 L 37.068811,17.246167 C 37.068811,17.246167 37.088388,32 37.088388,32 L 22.160133,31.978069 C 22.160133,31.978069 26.997745,27.140456 26.997745,27.140456 C 18.528582,18.264221 13.291696,25.230495 11.500037,31.436501 z"
             style="fill:#404040;"/>
          </a>
         </g>
        </svg>
</svg>
