<?xml version="1.0" encoding="UTF-8" standalone="no"?>
<!DOCTYPE svg PUBLIC "-//W3C//DTD SVG 1.1//EN"
 "http://www.w3.org/Graphics/SVG/1.1/DTD/svg11.dtd">
<!-- Generated by graphviz version 2.36.0 (20140111.2315)
 -->
<!-- Title: /home/travis/build/mgerhardy/simpleai/src/ai/common/Random.h Pages: 1 -->
<svg width="526pt" height="274pt"
 viewBox="0.00 0.00 526.00 274.00" xmlns="http://www.w3.org/2000/svg" xmlns:xlink="http://www.w3.org/1999/xlink">
<g id="graph0" class="graph" transform="scale(1 1) rotate(0) translate(4 270)">
<title>/home/travis/build/mgerhardy/simpleai/src/ai/common/Random.h</title>
<polygon fill="white" stroke="none" points="-4,4 -4,-270 522,-270 522,4 -4,4"/>
<!-- Node1 -->
<g id="node1" class="node"><title>Node1</title>
<polygon fill="#bfbfbf" stroke="black" points="129,-224.5 129,-265.5 261,-265.5 261,-224.5 129,-224.5"/>
<text text-anchor="start" x="137" y="-253.5" font-family="Helvetica,sans-Serif" font-size="10.00">/home/travis/build</text>
<text text-anchor="start" x="137" y="-242.5" font-family="Helvetica,sans-Serif" font-size="10.00">/mgerhardy/simpleai</text>
<text text-anchor="middle" x="195" y="-231.5" font-family="Helvetica,sans-Serif" font-size="10.00">/src/ai/common/Random.h</text>
</g>
<!-- Node2 -->
<g id="node2" class="node"><title>Node2</title>
<polygon fill="white" stroke="#bfbfbf" points="0,-168.5 0,-187.5 46,-187.5 46,-168.5 0,-168.5"/>
<text text-anchor="middle" x="23" y="-175.5" font-family="Helvetica,sans-Serif" font-size="10.00">chrono</text>
</g>
<!-- Node1&#45;&gt;Node2 -->
<g id="edge1" class="edge"><title>Node1&#45;&gt;Node2</title>
<path fill="none" stroke="midnightblue" d="M143.394,-224.498C114.868,-213.718 80.2973,-200.653 55.5322,-191.294"/>
<polygon fill="midnightblue" stroke="midnightblue" points="56.4874,-187.914 45.8958,-187.652 54.0129,-194.462 56.4874,-187.914"/>
</g>
<!-- Node3 -->
<g id="node3" class="node"><title>Node3</title>
<polygon fill="white" stroke="#bfbfbf" points="64.5,-168.5 64.5,-187.5 113.5,-187.5 113.5,-168.5 64.5,-168.5"/>
<text text-anchor="middle" x="89" y="-175.5" font-family="Helvetica,sans-Serif" font-size="10.00">random</text>
</g>
<!-- Node1&#45;&gt;Node3 -->
<g id="edge2" class="edge"><title>Node1&#45;&gt;Node3</title>
<path fill="none" stroke="midnightblue" d="M163.197,-224.498C146.632,-214.34 126.761,-202.155 111.753,-192.952"/>
<polygon fill="midnightblue" stroke="midnightblue" points="113.465,-189.896 103.11,-187.652 109.805,-195.864 113.465,-189.896"/>
</g>
<!-- Node4 -->
<g id="node4" class="node"><title>Node4</title>
<polygon fill="white" stroke="#bfbfbf" points="132,-168.5 132,-187.5 188,-187.5 188,-168.5 132,-168.5"/>
<text text-anchor="middle" x="160" y="-175.5" font-family="Helvetica,sans-Serif" font-size="10.00">algorithm</text>
</g>
<!-- Node1&#45;&gt;Node4 -->
<g id="edge3" class="edge"><title>Node1&#45;&gt;Node4</title>
<path fill="none" stroke="midnightblue" d="M184.499,-224.498C179.7,-215.586 174.061,-205.113 169.403,-196.464"/>
<polygon fill="midnightblue" stroke="midnightblue" points="172.482,-194.798 164.659,-187.652 166.318,-198.117 172.482,-194.798"/>
</g>
<!-- Node5 -->
<g id="node5" class="node"><title>Node5</title>
<polygon fill="white" stroke="#bfbfbf" points="206.5,-168.5 206.5,-187.5 253.5,-187.5 253.5,-168.5 206.5,-168.5"/>
<text text-anchor="middle" x="230" y="-175.5" font-family="Helvetica,sans-Serif" font-size="10.00">iterator</text>
</g>
<!-- Node1&#45;&gt;Node5 -->
<g id="edge4" class="edge"><title>Node1&#45;&gt;Node5</title>
<path fill="none" stroke="midnightblue" d="M205.501,-224.498C210.3,-215.586 215.939,-205.113 220.597,-196.464"/>
<polygon fill="midnightblue" stroke="midnightblue" points="223.682,-198.117 225.341,-187.652 217.518,-194.798 223.682,-198.117"/>
</g>
<!-- Node6 -->
<g id="node6" class="node"><title>Node6</title>
<polygon fill="white" stroke="#bfbfbf" points="272,-168.5 272,-187.5 320,-187.5 320,-168.5 272,-168.5"/>
<text text-anchor="middle" x="296" y="-175.5" font-family="Helvetica,sans-Serif" font-size="10.00">stdlib.h</text>
</g>
<!-- Node1&#45;&gt;Node6 -->
<g id="edge5" class="edge"><title>Node1&#45;&gt;Node6</title>
<path fill="none" stroke="midnightblue" d="M225.303,-224.498C240.937,-214.436 259.664,-202.385 273.914,-193.214"/>
<polygon fill="midnightblue" stroke="midnightblue" points="276.04,-196.008 282.555,-187.652 272.252,-190.121 276.04,-196.008"/>
</g>
<!-- Node7 -->
<g id="node7" class="node"><title>Node7</title>
<g id="a_node7"><a xlink:href="Thread_8h.html" target="_top" xlink:title="common/Thread.h">
<polygon fill="white" stroke="black" points="338.5,-168.5 338.5,-187.5 433.5,-187.5 433.5,-168.5 338.5,-168.5"/>
<text text-anchor="middle" x="386" y="-175.5" font-family="Helvetica,sans-Serif" font-size="10.00">common/Thread.h</text>
</a>
</g>
</g>
<!-- Node1&#45;&gt;Node7 -->
<g id="edge6" class="edge"><title>Node1&#45;&gt;Node7</title>
<path fill="none" stroke="midnightblue" d="M252.306,-224.498C284.406,-213.574 323.398,-200.304 350.968,-190.922"/>
<polygon fill="midnightblue" stroke="midnightblue" points="352.236,-194.188 360.575,-187.652 349.981,-187.561 352.236,-194.188"/>
</g>
<!-- Node8 -->
<g id="node8" class="node"><title>Node8</title>
<g id="a_node8"><a xlink:href="Types_8h.html" target="_top" xlink:title="Types.h">
<polygon fill="white" stroke="black" points="263,-112.5 263,-131.5 315,-131.5 315,-112.5 263,-112.5"/>
<text text-anchor="middle" x="289" y="-119.5" font-family="Helvetica,sans-Serif" font-size="10.00">Types.h</text>
</a>
</g>
</g>
<!-- Node7&#45;&gt;Node8 -->
<g id="edge7" class="edge"><title>Node7&#45;&gt;Node8</title>
<path fill="none" stroke="midnightblue" d="M370.415,-168.324C355.001,-159.743 331.188,-146.486 313.29,-136.522"/>
<polygon fill="midnightblue" stroke="midnightblue" points="314.986,-133.461 304.546,-131.655 311.581,-139.577 314.986,-133.461"/>
</g>
<!-- Node17 -->
<g id="node17" class="node"><title>Node17</title>
<polygon fill="white" stroke="#bfbfbf" points="333,-112.5 333,-131.5 377,-131.5 377,-112.5 333,-112.5"/>
<text text-anchor="middle" x="355" y="-119.5" font-family="Helvetica,sans-Serif" font-size="10.00">thread</text>
</g>
<!-- Node7&#45;&gt;Node17 -->
<g id="edge17" class="edge"><title>Node7&#45;&gt;Node17</title>
<path fill="none" stroke="midnightblue" d="M380.881,-168.083C376.592,-160.613 370.342,-149.724 365.058,-140.52"/>
<polygon fill="midnightblue" stroke="midnightblue" points="368.038,-138.681 360.024,-131.751 361.967,-142.166 368.038,-138.681"/>
</g>
<!-- Node18 -->
<g id="node18" class="node"><title>Node18</title>
<polygon fill="white" stroke="#bfbfbf" points="395,-112.5 395,-131.5 439,-131.5 439,-112.5 395,-112.5"/>
<text text-anchor="middle" x="417" y="-119.5" font-family="Helvetica,sans-Serif" font-size="10.00">mutex</text>
</g>
<!-- Node7&#45;&gt;Node18 -->
<g id="edge18" class="edge"><title>Node7&#45;&gt;Node18</title>
<path fill="none" stroke="midnightblue" d="M391.119,-168.083C395.408,-160.613 401.658,-149.724 406.942,-140.52"/>
<polygon fill="midnightblue" stroke="midnightblue" points="410.033,-142.166 411.976,-131.751 403.962,-138.681 410.033,-142.166"/>
</g>
<!-- Node19 -->
<g id="node19" class="node"><title>Node19</title>
<polygon fill="white" stroke="#bfbfbf" points="457,-112.5 457,-131.5 503,-131.5 503,-112.5 457,-112.5"/>
<text text-anchor="middle" x="480" y="-119.5" font-family="Helvetica,sans-Serif" font-size="10.00">atomic</text>
</g>
<!-- Node7&#45;&gt;Node19 -->
<g id="edge19" class="edge"><title>Node7&#45;&gt;Node19</title>
<path fill="none" stroke="midnightblue" d="M401.103,-168.324C415.903,-159.822 438.694,-146.729 455.982,-136.797"/>
<polygon fill="midnightblue" stroke="midnightblue" points="458.007,-139.671 464.935,-131.655 454.52,-133.601 458.007,-139.671"/>
</g>
<!-- Node9 -->
<g id="node9" class="node"><title>Node9</title>
<g id="a_node9"><a xlink:href="Log_8h.html" target="_top" xlink:title="Log.h">
<polygon fill="white" stroke="black" points="169.5,-56.5 169.5,-75.5 210.5,-75.5 210.5,-56.5 169.5,-56.5"/>
<text text-anchor="middle" x="190" y="-63.5" font-family="Helvetica,sans-Serif" font-size="10.00">Log.h</text>
</a>
</g>
</g>
<!-- Node8&#45;&gt;Node9 -->
<g id="edge8" class="edge"><title>Node8&#45;&gt;Node9</title>
<path fill="none" stroke="midnightblue" d="M273.094,-112.324C257.362,-103.743 233.058,-90.486 214.791,-80.5224"/>
<polygon fill="midnightblue" stroke="midnightblue" points="216.322,-77.3704 205.867,-75.6545 212.97,-83.5157 216.322,-77.3704"/>
</g>
<!-- Node10 -->
<g id="node10" class="node"><title>Node10</title>
<polygon fill="white" stroke="#bfbfbf" points="105,-0.5 105,-19.5 151,-19.5 151,-0.5 105,-0.5"/>
<text text-anchor="middle" x="128" y="-7.5" font-family="Helvetica,sans-Serif" font-size="10.00">stdio.h</text>
</g>
<!-- Node8&#45;&gt;Node10 -->
<g id="edge15" class="edge"><title>Node8&#45;&gt;Node10</title>
<path fill="none" stroke="midnightblue" d="M262.802,-117.65C234.685,-112.836 190.143,-101.537 161,-76 147.043,-63.7705 138.249,-44.227 133.281,-29.7595"/>
<polygon fill="midnightblue" stroke="midnightblue" points="136.523,-28.397 130.207,-19.8908 129.84,-30.4793 136.523,-28.397"/>
</g>
<!-- Node13 -->
<g id="node13" class="node"><title>Node13</title>
<polygon fill="white" stroke="#bfbfbf" points="228.5,-56.5 228.5,-75.5 269.5,-75.5 269.5,-56.5 228.5,-56.5"/>
<text text-anchor="middle" x="249" y="-63.5" font-family="Helvetica,sans-Serif" font-size="10.00">string</text>
</g>
<!-- Node8&#45;&gt;Node13 -->
<g id="edge12" class="edge"><title>Node8&#45;&gt;Node13</title>
<path fill="none" stroke="midnightblue" d="M282.395,-112.083C276.745,-104.455 268.455,-93.2645 261.549,-83.9408"/>
<polygon fill="midnightblue" stroke="midnightblue" points="264.247,-81.7034 255.482,-75.7511 258.622,-85.87 264.247,-81.7034"/>
</g>
<!-- Node14 -->
<g id="node14" class="node"><title>Node14</title>
<polygon fill="white" stroke="#bfbfbf" points="287.5,-56.5 287.5,-75.5 370.5,-75.5 370.5,-56.5 287.5,-56.5"/>
<text text-anchor="middle" x="329" y="-63.5" font-family="Helvetica,sans-Serif" font-size="10.00">unordered_map</text>
</g>
<!-- Node8&#45;&gt;Node14 -->
<g id="edge13" class="edge"><title>Node8&#45;&gt;Node14</title>
<path fill="none" stroke="midnightblue" d="M295.605,-112.083C301.255,-104.455 309.545,-93.2645 316.451,-83.9408"/>
<polygon fill="midnightblue" stroke="midnightblue" points="319.378,-85.87 322.518,-75.7511 313.753,-81.7034 319.378,-85.87"/>
</g>
<!-- Node15 -->
<g id="node15" class="node"><title>Node15</title>
<polygon fill="white" stroke="#bfbfbf" points="389,-56.5 389,-75.5 441,-75.5 441,-56.5 389,-56.5"/>
<text text-anchor="middle" x="415" y="-63.5" font-family="Helvetica,sans-Serif" font-size="10.00">assert.h</text>
</g>
<!-- Node8&#45;&gt;Node15 -->
<g id="edge14" class="edge"><title>Node8&#45;&gt;Node15</title>
<path fill="none" stroke="midnightblue" d="M308.965,-112.444C329.609,-103.596 362.063,-89.6875 385.632,-79.5865"/>
<polygon fill="midnightblue" stroke="midnightblue" points="387.316,-82.6727 395.128,-75.5164 384.558,-76.2387 387.316,-82.6727"/>
</g>
<!-- Node16 -->
<g id="node16" class="node"><title>Node16</title>
<polygon fill="white" stroke="#bfbfbf" points="459.5,-56.5 459.5,-75.5 518.5,-75.5 518.5,-56.5 459.5,-56.5"/>
<text text-anchor="middle" x="489" y="-63.5" font-family="Helvetica,sans-Serif" font-size="10.00">inttypes.h</text>
</g>
<!-- Node8&#45;&gt;Node16 -->
<g id="edge16" class="edge"><title>Node8&#45;&gt;Node16</title>
<path fill="none" stroke="midnightblue" d="M315.147,-113.94C349.336,-104.709 409.547,-88.4524 449.361,-77.7026"/>
<polygon fill="midnightblue" stroke="midnightblue" points="450.522,-81.0145 459.264,-75.0288 448.697,-74.2565 450.522,-81.0145"/>
</g>
<!-- Node9&#45;&gt;Node10 -->
<g id="edge9" class="edge"><title>Node9&#45;&gt;Node10</title>
<path fill="none" stroke="midnightblue" d="M180.039,-56.324C170.873,-48.3414 157.063,-36.3128 145.972,-26.6529"/>
<polygon fill="midnightblue" stroke="midnightblue" points="147.982,-23.7624 138.143,-19.8339 143.385,-29.041 147.982,-23.7624"/>
</g>
<!-- Node11 -->
<g id="node11" class="node"><title>Node11</title>
<polygon fill="white" stroke="#bfbfbf" points="169,-0.5 169,-19.5 221,-19.5 221,-0.5 169,-0.5"/>
<text text-anchor="middle" x="195" y="-7.5" font-family="Helvetica,sans-Serif" font-size="10.00">stdarg.h</text>
</g>
<!-- Node9&#45;&gt;Node11 -->
<g id="edge10" class="edge"><title>Node9&#45;&gt;Node11</title>
<path fill="none" stroke="midnightblue" d="M190.826,-56.083C191.481,-49.0059 192.42,-38.8611 193.242,-29.9865"/>
<polygon fill="midnightblue" stroke="midnightblue" points="196.753,-30.0312 194.19,-19.7511 189.783,-29.3858 196.753,-30.0312"/>
</g>
<!-- Node12 -->
<g id="node12" class="node"><title>Node12</title>
<polygon fill="white" stroke="#bfbfbf" points="239.5,-0.5 239.5,-19.5 288.5,-19.5 288.5,-0.5 239.5,-0.5"/>
<text text-anchor="middle" x="264" y="-7.5" font-family="Helvetica,sans-Serif" font-size="10.00">string.h</text>
</g>
<!-- Node9&#45;&gt;Node12 -->
<g id="edge11" class="edge"><title>Node9&#45;&gt;Node12</title>
<path fill="none" stroke="midnightblue" d="M201.889,-56.324C213.15,-48.1066 230.287,-35.6017 243.709,-25.8069"/>
<polygon fill="midnightblue" stroke="midnightblue" points="245.88,-28.5559 251.894,-19.8339 241.753,-22.9014 245.88,-28.5559"/>
</g>
</g>
</svg>
