<?xml version="1.0" encoding="UTF-8" standalone="no"?>
<!DOCTYPE svg PUBLIC "-//W3C//DTD SVG 1.1//EN"
 "http://www.w3.org/Graphics/SVG/1.1/DTD/svg11.dtd">
<!-- Generated by graphviz version 2.36.0 (20140111.2315)
 -->
<!-- Title: /home/travis/build/mgerhardy/simpleai/src/ai/filter/Complement.h Pages: 1 -->
<svg width="2148pt" height="610pt"
 viewBox="0.00 0.00 2148.09 610.00" xmlns="http://www.w3.org/2000/svg" xmlns:xlink="http://www.w3.org/1999/xlink">
<g id="graph0" class="graph" transform="scale(1 1) rotate(0) translate(4 606)">
<title>/home/travis/build/mgerhardy/simpleai/src/ai/filter/Complement.h</title>
<polygon fill="white" stroke="none" points="-4,4 -4,-606 2144.09,-606 2144.09,4 -4,4"/>
<!-- Node1 -->
<g id="node1" class="node"><title>Node1</title>
<polygon fill="#bfbfbf" stroke="black" points="630,-560.5 630,-601.5 762,-601.5 762,-560.5 630,-560.5"/>
<text text-anchor="start" x="638" y="-589.5" font-family="Helvetica,sans-Serif" font-size="10.00">/home/travis/build</text>
<text text-anchor="start" x="638" y="-578.5" font-family="Helvetica,sans-Serif" font-size="10.00">/mgerhardy/simpleai</text>
<text text-anchor="middle" x="696" y="-567.5" font-family="Helvetica,sans-Serif" font-size="10.00">/src/ai/filter/Complement.h</text>
</g>
<!-- Node2 -->
<g id="node2" class="node"><title>Node2</title>
<g id="a_node2"><a xlink:href="IFilter_8h.html" target="_top" xlink:title="filter/IFilter.h">
<polygon fill="white" stroke="black" points="692.5,-504.5 692.5,-523.5 763.5,-523.5 763.5,-504.5 692.5,-504.5"/>
<text text-anchor="middle" x="728" y="-511.5" font-family="Helvetica,sans-Serif" font-size="10.00">filter/IFilter.h</text>
</a>
</g>
</g>
<!-- Node1&#45;&gt;Node2 -->
<g id="edge1" class="edge"><title>Node1&#45;&gt;Node2</title>
<path fill="none" stroke="midnightblue" d="M705.601,-560.498C709.941,-551.682 715.033,-541.339 719.265,-532.743"/>
<polygon fill="midnightblue" stroke="midnightblue" points="722.464,-534.17 723.74,-523.652 716.183,-531.078 722.464,-534.17"/>
</g>
<!-- Node29 -->
<g id="node29" class="node"><title>Node29</title>
<polygon fill="white" stroke="#bfbfbf" points="616,-224.5 616,-243.5 672,-243.5 672,-224.5 616,-224.5"/>
<text text-anchor="middle" x="644" y="-231.5" font-family="Helvetica,sans-Serif" font-size="10.00">algorithm</text>
</g>
<!-- Node1&#45;&gt;Node29 -->
<g id="edge86" class="edge"><title>Node1&#45;&gt;Node29</title>
<path fill="none" stroke="midnightblue" d="M687.425,-560.298C677.946,-536.692 664,-495.722 664,-459 664,-459 664,-459 664,-345 664,-312.438 655.412,-275.315 649.491,-253.592"/>
<polygon fill="midnightblue" stroke="midnightblue" points="652.793,-252.408 646.697,-243.742 646.058,-254.317 652.793,-252.408"/>
</g>
<!-- Node3 -->
<g id="node3" class="node"><title>Node3</title>
<polygon fill="white" stroke="#bfbfbf" points="167.5,-112.5 167.5,-131.5 196.5,-131.5 196.5,-112.5 167.5,-112.5"/>
<text text-anchor="middle" x="182" y="-119.5" font-family="Helvetica,sans-Serif" font-size="10.00">list</text>
</g>
<!-- Node2&#45;&gt;Node3 -->
<g id="edge2" class="edge"><title>Node2&#45;&gt;Node3</title>
<path fill="none" stroke="midnightblue" d="M692.417,-512.03C581.196,-508.728 241.199,-496.505 135,-468 70.684,-450.737 0,-469.593 0,-403 0,-403 0,-403 0,-233 0,-160.252 107.822,-134.324 157.486,-126.24"/>
<polygon fill="midnightblue" stroke="midnightblue" points="158.05,-129.695 167.414,-124.737 157.003,-122.774 158.05,-129.695"/>
</g>
<!-- Node4 -->
<g id="node4" class="node"><title>Node4</title>
<polygon fill="white" stroke="#bfbfbf" points="240,-112.5 240,-131.5 284,-131.5 284,-112.5 240,-112.5"/>
<text text-anchor="middle" x="262" y="-119.5" font-family="Helvetica,sans-Serif" font-size="10.00">vector</text>
</g>
<!-- Node2&#45;&gt;Node4 -->
<g id="edge3" class="edge"><title>Node2&#45;&gt;Node4</title>
<path fill="none" stroke="midnightblue" d="M692.356,-511.125C551.063,-503.229 38,-469.945 38,-403 38,-403 38,-403 38,-233 38,-190.729 168.151,-148.987 230.036,-131.528"/>
<polygon fill="midnightblue" stroke="midnightblue" points="231.005,-134.892 239.703,-128.842 229.131,-128.147 231.005,-134.892"/>
</g>
<!-- Node5 -->
<g id="node5" class="node"><title>Node5</title>
<g id="a_node5"><a xlink:href="ICharacter_8h.html" target="_top" xlink:title="ICharacter.h">
<polygon fill="white" stroke="black" points="1247.5,-224.5 1247.5,-243.5 1318.5,-243.5 1318.5,-224.5 1247.5,-224.5"/>
<text text-anchor="middle" x="1283" y="-231.5" font-family="Helvetica,sans-Serif" font-size="10.00">ICharacter.h</text>
</a>
</g>
</g>
<!-- Node2&#45;&gt;Node5 -->
<g id="edge4" class="edge"><title>Node2&#45;&gt;Node5</title>
<path fill="none" stroke="midnightblue" d="M763.71,-512.551C925.964,-510.342 1587.12,-499.431 1617,-468 1717.37,-362.426 1439.84,-275.867 1327.68,-246.099"/>
<polygon fill="midnightblue" stroke="midnightblue" points="1328.55,-242.709 1317.99,-243.56 1326.78,-249.481 1328.55,-242.709"/>
</g>
<!-- Node26 -->
<g id="node26" class="node"><title>Node26</title>
<g id="a_node26"><a xlink:href="AI_8h.html" target="_top" xlink:title="AI.h">
<polygon fill="white" stroke="black" points="1099.5,-448.5 1099.5,-467.5 1134.5,-467.5 1134.5,-448.5 1099.5,-448.5"/>
<text text-anchor="middle" x="1117" y="-455.5" font-family="Helvetica,sans-Serif" font-size="10.00">AI.h</text>
</a>
</g>
</g>
<!-- Node2&#45;&gt;Node26 -->
<g id="edge27" class="edge"><title>Node2&#45;&gt;Node26</title>
<path fill="none" stroke="midnightblue" d="M763.552,-508.065C840.284,-497.413 1020.06,-472.457 1089.21,-462.857"/>
<polygon fill="midnightblue" stroke="midnightblue" points="1089.91,-466.295 1099.33,-461.453 1088.94,-459.361 1089.91,-466.295"/>
</g>
<!-- Node32 -->
<g id="node32" class="node"><title>Node32</title>
<g id="a_node32"><a xlink:href="MemoryAllocator_8h.html" target="_top" xlink:title="common/MemoryAllocator.h">
<polygon fill="white" stroke="black" points="420.5,-224.5 420.5,-243.5 559.5,-243.5 559.5,-224.5 420.5,-224.5"/>
<text text-anchor="middle" x="490" y="-231.5" font-family="Helvetica,sans-Serif" font-size="10.00">common/MemoryAllocator.h</text>
</a>
</g>
</g>
<!-- Node2&#45;&gt;Node32 -->
<g id="edge84" class="edge"><title>Node2&#45;&gt;Node32</title>
<path fill="none" stroke="midnightblue" d="M692.078,-508.987C639.187,-500.955 541.796,-477.608 497,-412 463.671,-363.186 476.442,-287.9 484.877,-253.406"/>
<polygon fill="midnightblue" stroke="midnightblue" points="488.265,-254.284 487.4,-243.725 481.491,-252.519 488.265,-254.284"/>
</g>
<!-- Node35 -->
<g id="node35" class="node"><title>Node35</title>
<g id="a_node35"><a xlink:href="Thread_8h.html" target="_top" xlink:title="common/Thread.h">
<polygon fill="white" stroke="black" points="1157.5,-168.5 1157.5,-187.5 1252.5,-187.5 1252.5,-168.5 1157.5,-168.5"/>
<text text-anchor="middle" x="1205" y="-175.5" font-family="Helvetica,sans-Serif" font-size="10.00">common/Thread.h</text>
</a>
</g>
</g>
<!-- Node2&#45;&gt;Node35 -->
<g id="edge85" class="edge"><title>Node2&#45;&gt;Node35</title>
<path fill="none" stroke="midnightblue" d="M763.526,-511.525C917.775,-504.763 1524.15,-474.345 1579,-412 1681.82,-295.123 1384.88,-216.835 1258.73,-189.636"/>
<polygon fill="midnightblue" stroke="midnightblue" points="1259.38,-186.195 1248.87,-187.539 1257.92,-193.042 1259.38,-186.195"/>
</g>
<!-- Node6 -->
<g id="node6" class="node"><title>Node6</title>
<g id="a_node6"><a xlink:href="NonCopyable_8h.html" target="_top" xlink:title="common/NonCopyable.h">
<polygon fill="white" stroke="black" points="1028.5,-112.5 1028.5,-131.5 1153.5,-131.5 1153.5,-112.5 1028.5,-112.5"/>
<text text-anchor="middle" x="1091" y="-119.5" font-family="Helvetica,sans-Serif" font-size="10.00">common/NonCopyable.h</text>
</a>
</g>
</g>
<!-- Node5&#45;&gt;Node6 -->
<g id="edge5" class="edge"><title>Node5&#45;&gt;Node6</title>
<path fill="none" stroke="midnightblue" d="M1247.45,-226.532C1218.82,-220.11 1178.46,-208.231 1148,-188 1129.13,-175.465 1112.7,-155.116 1102.39,-140.524"/>
<polygon fill="midnightblue" stroke="midnightblue" points="1105.05,-138.211 1096.53,-131.907 1099.26,-142.145 1105.05,-138.211"/>
</g>
<!-- Node7 -->
<g id="node7" class="node"><title>Node7</title>
<g id="a_node7"><a xlink:href="Math_8h.html" target="_top" xlink:title="common/Math.h">
<polygon fill="white" stroke="black" points="1617.5,-168.5 1617.5,-187.5 1704.5,-187.5 1704.5,-168.5 1617.5,-168.5"/>
<text text-anchor="middle" x="1661" y="-175.5" font-family="Helvetica,sans-Serif" font-size="10.00">common/Math.h</text>
</a>
</g>
</g>
<!-- Node5&#45;&gt;Node7 -->
<g id="edge6" class="edge"><title>Node5&#45;&gt;Node7</title>
<path fill="none" stroke="midnightblue" d="M1318.56,-227.92C1385.13,-218.409 1528.91,-197.869 1607.33,-186.667"/>
<polygon fill="midnightblue" stroke="midnightblue" points="1608.08,-190.096 1617.49,-185.216 1607.09,-183.166 1608.08,-190.096"/>
</g>
<!-- Node8 -->
<g id="node8" class="node"><title>Node8</title>
<g id="a_node8"><a xlink:href="Types_8h.html" target="_top" xlink:title="Types.h">
<polygon fill="white" stroke="black" points="1359,-112.5 1359,-131.5 1411,-131.5 1411,-112.5 1359,-112.5"/>
<text text-anchor="middle" x="1385" y="-119.5" font-family="Helvetica,sans-Serif" font-size="10.00">Types.h</text>
</a>
</g>
</g>
<!-- Node5&#45;&gt;Node8 -->
<g id="edge24" class="edge"><title>Node5&#45;&gt;Node8</title>
<path fill="none" stroke="midnightblue" d="M1289.84,-224.34C1299.99,-211.644 1319.77,-187.384 1338,-168 1347.58,-157.816 1358.88,-146.963 1368,-138.467"/>
<polygon fill="midnightblue" stroke="midnightblue" points="1370.37,-141.036 1375.35,-131.683 1365.63,-135.89 1370.37,-141.036"/>
</g>
<!-- Node24 -->
<g id="node24" class="node"><title>Node24</title>
<polygon fill="white" stroke="#bfbfbf" points="1295,-112.5 1295,-131.5 1341,-131.5 1341,-112.5 1295,-112.5"/>
<text text-anchor="middle" x="1318" y="-119.5" font-family="Helvetica,sans-Serif" font-size="10.00">atomic</text>
</g>
<!-- Node5&#45;&gt;Node24 -->
<g id="edge25" class="edge"><title>Node5&#45;&gt;Node24</title>
<path fill="none" stroke="midnightblue" d="M1285.75,-224.368C1291.42,-206.537 1304.54,-165.295 1312.19,-141.272"/>
<polygon fill="midnightblue" stroke="midnightblue" points="1315.57,-142.182 1315.27,-131.591 1308.9,-140.059 1315.57,-142.182"/>
</g>
<!-- Node25 -->
<g id="node25" class="node"><title>Node25</title>
<polygon fill="white" stroke="#bfbfbf" points="567,-112.5 567,-131.5 619,-131.5 619,-112.5 567,-112.5"/>
<text text-anchor="middle" x="593" y="-119.5" font-family="Helvetica,sans-Serif" font-size="10.00">memory</text>
</g>
<!-- Node5&#45;&gt;Node25 -->
<g id="edge26" class="edge"><title>Node5&#45;&gt;Node25</title>
<path fill="none" stroke="midnightblue" d="M1247.25,-231.603C1145.44,-227.356 855.411,-213.315 764,-188 744.461,-182.589 741.725,-175.775 723,-168 691.706,-155.007 655.17,-142.594 628.814,-134.109"/>
<polygon fill="midnightblue" stroke="midnightblue" points="629.835,-130.761 619.244,-131.056 627.707,-137.43 629.835,-130.761"/>
</g>
<!-- Node7&#45;&gt;Node8 -->
<g id="edge7" class="edge"><title>Node7&#45;&gt;Node8</title>
<path fill="none" stroke="midnightblue" d="M1617.28,-169.746C1570.94,-161.854 1495.41,-148.417 1421.3,-132.176"/>
<polygon fill="midnightblue" stroke="midnightblue" points="1421.85,-128.713 1411.33,-129.972 1420.34,-135.548 1421.85,-128.713"/>
</g>
<!-- Node17 -->
<g id="node17" class="node"><title>Node17</title>
<polygon fill="white" stroke="#bfbfbf" points="1807,-112.5 1807,-131.5 1877,-131.5 1877,-112.5 1807,-112.5"/>
<text text-anchor="middle" x="1842" y="-119.5" font-family="Helvetica,sans-Serif" font-size="10.00">glm/glm.hpp</text>
</g>
<!-- Node7&#45;&gt;Node17 -->
<g id="edge17" class="edge"><title>Node7&#45;&gt;Node17</title>
<path fill="none" stroke="midnightblue" d="M1689.68,-168.444C1720.53,-159.241 1769.73,-144.562 1803.83,-134.388"/>
<polygon fill="midnightblue" stroke="midnightblue" points="1804.87,-137.729 1813.45,-131.516 1802.87,-131.021 1804.87,-137.729"/>
</g>
<!-- Node18 -->
<g id="node18" class="node"><title>Node18</title>
<polygon fill="white" stroke="#bfbfbf" points="1895.5,-112.5 1895.5,-131.5 2008.5,-131.5 2008.5,-112.5 1895.5,-112.5"/>
<text text-anchor="middle" x="1952" y="-119.5" font-family="Helvetica,sans-Serif" font-size="10.00">glm/gtc/constants.hpp</text>
</g>
<!-- Node7&#45;&gt;Node18 -->
<g id="edge18" class="edge"><title>Node7&#45;&gt;Node18</title>
<path fill="none" stroke="midnightblue" d="M1704.57,-168.916C1755.46,-159.471 1839.81,-143.819 1895.65,-133.457"/>
<polygon fill="midnightblue" stroke="midnightblue" points="1896.53,-136.852 1905.73,-131.587 1895.26,-129.97 1896.53,-136.852"/>
</g>
<!-- Node19 -->
<g id="node19" class="node"><title>Node19</title>
<polygon fill="white" stroke="#bfbfbf" points="2026.5,-112.5 2026.5,-131.5 2127.5,-131.5 2127.5,-112.5 2026.5,-112.5"/>
<text text-anchor="middle" x="2077" y="-119.5" font-family="Helvetica,sans-Serif" font-size="10.00">glm/gtc/epsilon.hpp</text>
</g>
<!-- Node7&#45;&gt;Node19 -->
<g id="edge19" class="edge"><title>Node7&#45;&gt;Node19</title>
<path fill="none" stroke="midnightblue" d="M1704.61,-171.817C1769.93,-163.982 1897.32,-148.422 2016.26,-132.074"/>
<polygon fill="midnightblue" stroke="midnightblue" points="2016.84,-135.527 2026.27,-130.693 2015.89,-128.593 2016.84,-135.527"/>
</g>
<!-- Node20 -->
<g id="node20" class="node"><title>Node20</title>
<polygon fill="white" stroke="#bfbfbf" points="1429.5,-112.5 1429.5,-131.5 1554.5,-131.5 1554.5,-112.5 1429.5,-112.5"/>
<text text-anchor="middle" x="1492" y="-119.5" font-family="Helvetica,sans-Serif" font-size="10.00">glm/gtx/compatibility.hpp</text>
</g>
<!-- Node7&#45;&gt;Node20 -->
<g id="edge20" class="edge"><title>Node7&#45;&gt;Node20</title>
<path fill="none" stroke="midnightblue" d="M1634.22,-168.444C1605.67,-159.32 1560.27,-144.813 1528.46,-134.651"/>
<polygon fill="midnightblue" stroke="midnightblue" points="1529.24,-131.226 1518.65,-131.516 1527.11,-137.894 1529.24,-131.226"/>
</g>
<!-- Node21 -->
<g id="node21" class="node"><title>Node21</title>
<polygon fill="white" stroke="#bfbfbf" points="1573,-112.5 1573,-131.5 1665,-131.5 1665,-112.5 1573,-112.5"/>
<text text-anchor="middle" x="1619" y="-119.5" font-family="Helvetica,sans-Serif" font-size="10.00">glm/gtx/norm.hpp</text>
</g>
<!-- Node7&#45;&gt;Node21 -->
<g id="edge21" class="edge"><title>Node7&#45;&gt;Node21</title>
<path fill="none" stroke="midnightblue" d="M1654.06,-168.083C1648.07,-160.377 1639.25,-149.033 1631.95,-139.653"/>
<polygon fill="midnightblue" stroke="midnightblue" points="1634.71,-137.496 1625.81,-131.751 1629.18,-141.793 1634.71,-137.496"/>
</g>
<!-- Node22 -->
<g id="node22" class="node"><title>Node22</title>
<polygon fill="white" stroke="#bfbfbf" points="1683,-112.5 1683,-131.5 1723,-131.5 1723,-112.5 1683,-112.5"/>
<text text-anchor="middle" x="1703" y="-119.5" font-family="Helvetica,sans-Serif" font-size="10.00">limits</text>
</g>
<!-- Node7&#45;&gt;Node22 -->
<g id="edge22" class="edge"><title>Node7&#45;&gt;Node22</title>
<path fill="none" stroke="midnightblue" d="M1667.94,-168.083C1673.93,-160.377 1682.75,-149.033 1690.05,-139.653"/>
<polygon fill="midnightblue" stroke="midnightblue" points="1692.82,-141.793 1696.19,-131.751 1687.29,-137.496 1692.82,-141.793"/>
</g>
<!-- Node23 -->
<g id="node23" class="node"><title>Node23</title>
<polygon fill="white" stroke="#bfbfbf" points="1741.5,-112.5 1741.5,-131.5 1788.5,-131.5 1788.5,-112.5 1741.5,-112.5"/>
<text text-anchor="middle" x="1765" y="-119.5" font-family="Helvetica,sans-Serif" font-size="10.00">math.h</text>
</g>
<!-- Node7&#45;&gt;Node23 -->
<g id="edge23" class="edge"><title>Node7&#45;&gt;Node23</title>
<path fill="none" stroke="midnightblue" d="M1677.71,-168.324C1694.31,-159.703 1720,-146.364 1739.22,-136.386"/>
<polygon fill="midnightblue" stroke="midnightblue" points="1741.07,-139.369 1748.33,-131.655 1737.84,-133.156 1741.07,-139.369"/>
</g>
<!-- Node9 -->
<g id="node9" class="node"><title>Node9</title>
<g id="a_node9"><a xlink:href="Log_8h.html" target="_top" xlink:title="Log.h">
<polygon fill="white" stroke="black" points="1396.5,-56.5 1396.5,-75.5 1437.5,-75.5 1437.5,-56.5 1396.5,-56.5"/>
<text text-anchor="middle" x="1417" y="-63.5" font-family="Helvetica,sans-Serif" font-size="10.00">Log.h</text>
</a>
</g>
</g>
<!-- Node8&#45;&gt;Node9 -->
<g id="edge8" class="edge"><title>Node8&#45;&gt;Node9</title>
<path fill="none" stroke="midnightblue" d="M1390.28,-112.083C1394.71,-104.613 1401.16,-93.7244 1406.62,-84.5199"/>
<polygon fill="midnightblue" stroke="midnightblue" points="1409.73,-86.1383 1411.81,-75.7511 1403.71,-82.5697 1409.73,-86.1383"/>
</g>
<!-- Node10 -->
<g id="node10" class="node"><title>Node10</title>
<polygon fill="white" stroke="#bfbfbf" points="1197,-0.5 1197,-19.5 1243,-19.5 1243,-0.5 1197,-0.5"/>
<text text-anchor="middle" x="1220" y="-7.5" font-family="Helvetica,sans-Serif" font-size="10.00">stdio.h</text>
</g>
<!-- Node8&#45;&gt;Node10 -->
<g id="edge15" class="edge"><title>Node8&#45;&gt;Node10</title>
<path fill="none" stroke="midnightblue" d="M1358.86,-113.638C1318.04,-102.04 1243.32,-80.3805 1239,-76 1227.02,-63.8422 1222.52,-44.5677 1220.86,-30.1593"/>
<polygon fill="midnightblue" stroke="midnightblue" points="1224.33,-29.5734 1220.06,-19.8763 1217.35,-30.1185 1224.33,-29.5734"/>
</g>
<!-- Node13 -->
<g id="node13" class="node"><title>Node13</title>
<polygon fill="white" stroke="#bfbfbf" points="371.5,-56.5 371.5,-75.5 412.5,-75.5 412.5,-56.5 371.5,-56.5"/>
<text text-anchor="middle" x="392" y="-63.5" font-family="Helvetica,sans-Serif" font-size="10.00">string</text>
</g>
<!-- Node8&#45;&gt;Node13 -->
<g id="edge12" class="edge"><title>Node8&#45;&gt;Node13</title>
<path fill="none" stroke="midnightblue" d="M1358.75,-113.634C1355.81,-112.995 1352.85,-112.429 1350,-112 1164.86,-84.1484 565.687,-70.5032 422.8,-67.5982"/>
<polygon fill="midnightblue" stroke="midnightblue" points="422.645,-64.0945 412.577,-67.3929 422.505,-71.0931 422.645,-64.0945"/>
</g>
<!-- Node14 -->
<g id="node14" class="node"><title>Node14</title>
<polygon fill="white" stroke="#bfbfbf" points="1800.5,-56.5 1800.5,-75.5 1883.5,-75.5 1883.5,-56.5 1800.5,-56.5"/>
<text text-anchor="middle" x="1842" y="-63.5" font-family="Helvetica,sans-Serif" font-size="10.00">unordered_map</text>
</g>
<!-- Node8&#45;&gt;Node14 -->
<g id="edge13" class="edge"><title>Node8&#45;&gt;Node14</title>
<path fill="none" stroke="midnightblue" d="M1411.28,-113.804C1414.21,-113.133 1417.16,-112.514 1420,-112 1552.18,-88.0885 1710.12,-75.4118 1790.09,-70.0953"/>
<polygon fill="midnightblue" stroke="midnightblue" points="1790.63,-73.5676 1800.38,-69.4233 1790.18,-66.5824 1790.63,-73.5676"/>
</g>
<!-- Node15 -->
<g id="node15" class="node"><title>Node15</title>
<polygon fill="white" stroke="#bfbfbf" points="1326,-56.5 1326,-75.5 1378,-75.5 1378,-56.5 1326,-56.5"/>
<text text-anchor="middle" x="1352" y="-63.5" font-family="Helvetica,sans-Serif" font-size="10.00">assert.h</text>
</g>
<!-- Node8&#45;&gt;Node15 -->
<g id="edge14" class="edge"><title>Node8&#45;&gt;Node15</title>
<path fill="none" stroke="midnightblue" d="M1379.55,-112.083C1374.99,-104.613 1368.33,-93.7244 1362.71,-84.5199"/>
<polygon fill="midnightblue" stroke="midnightblue" points="1365.55,-82.4588 1357.35,-75.7511 1359.58,-86.109 1365.55,-82.4588"/>
</g>
<!-- Node16 -->
<g id="node16" class="node"><title>Node16</title>
<polygon fill="white" stroke="#bfbfbf" points="1248.5,-56.5 1248.5,-75.5 1307.5,-75.5 1307.5,-56.5 1248.5,-56.5"/>
<text text-anchor="middle" x="1278" y="-63.5" font-family="Helvetica,sans-Serif" font-size="10.00">inttypes.h</text>
</g>
<!-- Node8&#45;&gt;Node16 -->
<g id="edge16" class="edge"><title>Node8&#45;&gt;Node16</title>
<path fill="none" stroke="midnightblue" d="M1367.81,-112.324C1350.65,-103.664 1324.05,-90.2424 1304.25,-80.249"/>
<polygon fill="midnightblue" stroke="midnightblue" points="1305.65,-77.0354 1295.15,-75.6545 1302.5,-83.2847 1305.65,-77.0354"/>
</g>
<!-- Node9&#45;&gt;Node10 -->
<g id="edge9" class="edge"><title>Node9&#45;&gt;Node10</title>
<path fill="none" stroke="midnightblue" d="M1396.37,-58.7262C1393.23,-57.7977 1390.03,-56.8635 1387,-56 1340.54,-42.7754 1286.53,-28.4029 1252.8,-19.5466"/>
<polygon fill="midnightblue" stroke="midnightblue" points="1253.58,-16.1315 1243.02,-16.9825 1251.8,-22.9029 1253.58,-16.1315"/>
</g>
<!-- Node11 -->
<g id="node11" class="node"><title>Node11</title>
<polygon fill="white" stroke="#bfbfbf" points="1292,-0.5 1292,-19.5 1344,-19.5 1344,-0.5 1292,-0.5"/>
<text text-anchor="middle" x="1318" y="-7.5" font-family="Helvetica,sans-Serif" font-size="10.00">stdarg.h</text>
</g>
<!-- Node9&#45;&gt;Node11 -->
<g id="edge10" class="edge"><title>Node9&#45;&gt;Node11</title>
<path fill="none" stroke="midnightblue" d="M1401.09,-56.324C1385.36,-47.7428 1361.06,-34.486 1342.79,-24.5224"/>
<polygon fill="midnightblue" stroke="midnightblue" points="1344.32,-21.3704 1333.87,-19.6545 1340.97,-27.5157 1344.32,-21.3704"/>
</g>
<!-- Node12 -->
<g id="node12" class="node"><title>Node12</title>
<polygon fill="white" stroke="#bfbfbf" points="1392.5,-0.5 1392.5,-19.5 1441.5,-19.5 1441.5,-0.5 1392.5,-0.5"/>
<text text-anchor="middle" x="1417" y="-7.5" font-family="Helvetica,sans-Serif" font-size="10.00">string.h</text>
</g>
<!-- Node9&#45;&gt;Node12 -->
<g id="edge11" class="edge"><title>Node9&#45;&gt;Node12</title>
<path fill="none" stroke="midnightblue" d="M1417,-56.083C1417,-49.0059 1417,-38.8611 1417,-29.9865"/>
<polygon fill="midnightblue" stroke="midnightblue" points="1420.5,-29.751 1417,-19.7511 1413.5,-29.7511 1420.5,-29.751"/>
</g>
<!-- Node26&#45;&gt;Node5 -->
<g id="edge38" class="edge"><title>Node26&#45;&gt;Node5</title>
<path fill="none" stroke="midnightblue" d="M1134.75,-457.549C1166.82,-457.476 1234.16,-452.224 1267,-412 1304.68,-365.85 1294.62,-288.614 1287.4,-253.447"/>
<polygon fill="midnightblue" stroke="midnightblue" points="1290.8,-252.607 1285.22,-243.6 1283.97,-254.12 1290.8,-252.607"/>
</g>
<!-- Node26&#45;&gt;Node6 -->
<g id="edge82" class="edge"><title>Node26&#45;&gt;Node6</title>
<path fill="none" stroke="midnightblue" d="M1113.49,-448.325C1106.4,-429.959 1091,-385.658 1091,-347 1091,-347 1091,-347 1091,-233 1091,-200.948 1091,-163.643 1091,-141.749"/>
<polygon fill="midnightblue" stroke="midnightblue" points="1094.5,-141.558 1091,-131.558 1087.5,-141.558 1094.5,-141.558"/>
</g>
<!-- Node26&#45;&gt;Node7 -->
<g id="edge83" class="edge"><title>Node26&#45;&gt;Node7</title>
<path fill="none" stroke="midnightblue" d="M1134.75,-457.309C1202.63,-458.138 1444.8,-457.782 1503,-412 1527.2,-392.959 1527,-377.795 1527,-347 1527,-347 1527,-347 1527,-289 1527,-238.394 1584.8,-206.812 1624.48,-191.095"/>
<polygon fill="midnightblue" stroke="midnightblue" points="1625.77,-194.347 1633.88,-187.529 1623.29,-187.802 1625.77,-194.347"/>
</g>
<!-- Node26&#45;&gt;Node8 -->
<g id="edge81" class="edge"><title>Node26&#45;&gt;Node8</title>
<path fill="none" stroke="midnightblue" d="M1134.94,-455.65C1209.25,-449.579 1489,-421.756 1489,-347 1489,-347 1489,-347 1489,-233 1489,-188.223 1442.94,-154.325 1412.12,-136.658"/>
<polygon fill="midnightblue" stroke="midnightblue" points="1413.56,-133.457 1403.12,-131.702 1410.19,-139.59 1413.56,-133.457"/>
</g>
<!-- Node26&#45;&gt;Node14 -->
<g id="edge28" class="edge"><title>Node26&#45;&gt;Node14</title>
<path fill="none" stroke="midnightblue" d="M1134.52,-457.056C1191.85,-456.823 1378.66,-452.769 1526,-412 1561.94,-402.056 2115.87,-163.388 2136,-132 2140.8,-124.518 2141.79,-118.744 2136,-112 2105.4,-76.3601 1969.79,-68.6496 1893.89,-67.1711"/>
<polygon fill="midnightblue" stroke="midnightblue" points="1893.65,-63.6668 1883.6,-67.0016 1893.54,-70.6658 1893.65,-63.6668"/>
</g>
<!-- Node26&#45;&gt;Node25 -->
<g id="edge29" class="edge"><title>Node26&#45;&gt;Node25</title>
<path fill="none" stroke="midnightblue" d="M1099.48,-455.777C1024.94,-450.103 738,-423.307 738,-347 738,-347 738,-347 738,-289 738,-288.385 644.273,-181.458 607.529,-139.563"/>
<polygon fill="midnightblue" stroke="midnightblue" points="610.021,-137.096 600.796,-131.886 604.759,-141.712 610.021,-137.096"/>
</g>
<!-- Node27 -->
<g id="node27" class="node"><title>Node27</title>
<g id="a_node27"><a xlink:href="GroupId_8h.html" target="_top" xlink:title="group/GroupId.h">
<polygon fill="white" stroke="black" points="1172,-392.5 1172,-411.5 1258,-411.5 1258,-392.5 1172,-392.5"/>
<text text-anchor="middle" x="1215" y="-399.5" font-family="Helvetica,sans-Serif" font-size="10.00">group/GroupId.h</text>
</a>
</g>
</g>
<!-- Node26&#45;&gt;Node27 -->
<g id="edge30" class="edge"><title>Node26&#45;&gt;Node27</title>
<path fill="none" stroke="midnightblue" d="M1132.75,-448.324C1148.32,-439.743 1172.38,-426.486 1190.46,-416.522"/>
<polygon fill="midnightblue" stroke="midnightblue" points="1192.22,-419.546 1199.29,-411.655 1188.85,-413.415 1192.22,-419.546"/>
</g>
<!-- Node28 -->
<g id="node28" class="node"><title>Node28</title>
<g id="a_node28"><a xlink:href="AggroMgr_8h.html" target="_top" xlink:title="aggro/AggroMgr.h">
<polygon fill="white" stroke="black" points="816,-280.5 816,-299.5 910,-299.5 910,-280.5 816,-280.5"/>
<text text-anchor="middle" x="863" y="-287.5" font-family="Helvetica,sans-Serif" font-size="10.00">aggro/AggroMgr.h</text>
</a>
</g>
</g>
<!-- Node26&#45;&gt;Node28 -->
<g id="edge31" class="edge"><title>Node26&#45;&gt;Node28</title>
<path fill="none" stroke="midnightblue" d="M1099.22,-452.221C1075.66,-445.429 1033.33,-431.596 1001,-412 951.059,-381.726 901.893,-332.78 877.99,-307.415"/>
<polygon fill="midnightblue" stroke="midnightblue" points="880.261,-304.718 870.888,-299.778 875.135,-309.485 880.261,-304.718"/>
</g>
<!-- Node31 -->
<g id="node31" class="node"><title>Node31</title>
<g id="a_node31"><a xlink:href="TreeNode_8h.html" target="_top" xlink:title="tree/TreeNode.h">
<polygon fill="white" stroke="black" points="506.5,-392.5 506.5,-411.5 593.5,-411.5 593.5,-392.5 506.5,-392.5"/>
<text text-anchor="middle" x="550" y="-399.5" font-family="Helvetica,sans-Serif" font-size="10.00">tree/TreeNode.h</text>
</a>
</g>
</g>
<!-- Node26&#45;&gt;Node31 -->
<g id="edge39" class="edge"><title>Node26&#45;&gt;Node31</title>
<path fill="none" stroke="midnightblue" d="M1099.41,-455.325C1024.12,-448.155 727.306,-419.886 604.076,-408.15"/>
<polygon fill="midnightblue" stroke="midnightblue" points="604.04,-404.631 593.753,-407.167 603.377,-411.599 604.04,-404.631"/>
</g>
<!-- Node26&#45;&gt;Node35 -->
<g id="edge80" class="edge"><title>Node26&#45;&gt;Node35</title>
<path fill="none" stroke="midnightblue" d="M1119.73,-448.375C1132,-409.621 1182.17,-251.133 1199.26,-197.125"/>
<polygon fill="midnightblue" stroke="midnightblue" points="1202.62,-198.114 1202.3,-187.524 1195.95,-196.002 1202.62,-198.114"/>
</g>
<!-- Node43 -->
<g id="node43" class="node"><title>Node43</title>
<g id="a_node43"><a xlink:href="ITreeLoader_8h.html" target="_top" xlink:title="tree/loaders/ITreeLoader.h">
<polygon fill="white" stroke="black" points="921.5,-224.5 921.5,-243.5 1052.5,-243.5 1052.5,-224.5 921.5,-224.5"/>
<text text-anchor="middle" x="987" y="-231.5" font-family="Helvetica,sans-Serif" font-size="10.00">tree/loaders/ITreeLoader.h</text>
</a>
</g>
</g>
<!-- Node26&#45;&gt;Node43 -->
<g id="edge72" class="edge"><title>Node26&#45;&gt;Node43</title>
<path fill="none" stroke="midnightblue" d="M1107.99,-448.264C1099.36,-439.588 1086.31,-425.644 1077,-412 1040,-357.753 1008.24,-286.247 994.4,-253.193"/>
<polygon fill="midnightblue" stroke="midnightblue" points="997.465,-251.445 990.413,-243.538 990.995,-254.117 997.465,-251.445"/>
</g>
<!-- Node28&#45;&gt;Node4 -->
<g id="edge32" class="edge"><title>Node28&#45;&gt;Node4</title>
<path fill="none" stroke="midnightblue" d="M841.271,-280.45C807.24,-267.25 739.137,-241.595 680,-224 538.087,-181.777 365.193,-144.359 294.486,-129.641"/>
<polygon fill="midnightblue" stroke="midnightblue" points="294.924,-126.158 284.422,-127.556 293.504,-133.012 294.924,-126.158"/>
</g>
<!-- Node28&#45;&gt;Node5 -->
<g id="edge34" class="edge"><title>Node28&#45;&gt;Node5</title>
<path fill="none" stroke="midnightblue" d="M910.363,-282.91C991.667,-272.457 1156.78,-251.229 1237.08,-240.904"/>
<polygon fill="midnightblue" stroke="midnightblue" points="1237.89,-244.328 1247.37,-239.581 1237,-237.385 1237.89,-244.328"/>
</g>
<!-- Node28&#45;&gt;Node25 -->
<g id="edge33" class="edge"><title>Node28&#45;&gt;Node25</title>
<path fill="none" stroke="midnightblue" d="M848.76,-280.36C827.761,-267.689 787.173,-243.459 752,-224 721.733,-207.256 712.431,-206.173 683,-188 657.584,-172.305 629.955,-151.79 612.109,-138.044"/>
<polygon fill="midnightblue" stroke="midnightblue" points="613.775,-134.906 603.731,-131.534 609.48,-140.434 613.775,-134.906"/>
</g>
<!-- Node28&#45;&gt;Node29 -->
<g id="edge35" class="edge"><title>Node28&#45;&gt;Node29</title>
<path fill="none" stroke="midnightblue" d="M828.299,-280.444C788.494,-270.629 723.429,-254.585 682.208,-244.421"/>
<polygon fill="midnightblue" stroke="midnightblue" points="682.818,-240.967 672.271,-241.971 681.142,-247.763 682.818,-240.967"/>
</g>
<!-- Node30 -->
<g id="node30" class="node"><title>Node30</title>
<g id="a_node30"><a xlink:href="Entry_8h.html" target="_top" xlink:title="aggro/Entry.h">
<polygon fill="white" stroke="black" points="1347.5,-168.5 1347.5,-187.5 1422.5,-187.5 1422.5,-168.5 1347.5,-168.5"/>
<text text-anchor="middle" x="1385" y="-175.5" font-family="Helvetica,sans-Serif" font-size="10.00">aggro/Entry.h</text>
</a>
</g>
</g>
<!-- Node28&#45;&gt;Node30 -->
<g id="edge36" class="edge"><title>Node28&#45;&gt;Node30</title>
<path fill="none" stroke="midnightblue" d="M910.307,-288.729C1013.43,-287.45 1255,-280.523 1327,-244 1348,-233.347 1364.91,-211.611 1374.94,-196.213"/>
<polygon fill="midnightblue" stroke="midnightblue" points="1377.98,-197.945 1380.26,-187.599 1372.03,-194.262 1377.98,-197.945"/>
</g>
<!-- Node30&#45;&gt;Node8 -->
<g id="edge37" class="edge"><title>Node30&#45;&gt;Node8</title>
<path fill="none" stroke="midnightblue" d="M1385,-168.083C1385,-161.006 1385,-150.861 1385,-141.986"/>
<polygon fill="midnightblue" stroke="midnightblue" points="1388.5,-141.751 1385,-131.751 1381.5,-141.751 1388.5,-141.751"/>
</g>
<!-- Node31&#45;&gt;Node4 -->
<g id="edge68" class="edge"><title>Node31&#45;&gt;Node4</title>
<path fill="none" stroke="midnightblue" d="M506.371,-401.583C413.992,-400.059 201.511,-381.206 133,-244 107.888,-193.708 184.659,-153.468 230.441,-134.621"/>
<polygon fill="midnightblue" stroke="midnightblue" points="231.973,-137.778 239.965,-130.823 229.38,-131.276 231.973,-137.778"/>
</g>
<!-- Node31&#45;&gt;Node8 -->
<g id="edge40" class="edge"><title>Node31&#45;&gt;Node8</title>
<path fill="none" stroke="midnightblue" d="M593.762,-400.317C774.198,-396.932 1451,-378.41 1451,-291 1451,-291 1451,-291 1451,-233 1451,-202.775 1446.73,-193.808 1431,-168 1424.14,-156.753 1413.85,-146.32 1404.73,-138.337"/>
<polygon fill="midnightblue" stroke="midnightblue" points="1406.74,-135.46 1396.82,-131.742 1402.26,-140.836 1406.74,-135.46"/>
</g>
<!-- Node31&#45;&gt;Node13 -->
<g id="edge69" class="edge"><title>Node31&#45;&gt;Node13</title>
<path fill="none" stroke="midnightblue" d="M538.432,-392.291C510.763,-370.714 440.85,-311.604 411,-244 387.326,-190.384 388.3,-119.073 390.396,-85.7059"/>
<polygon fill="midnightblue" stroke="midnightblue" points="393.898,-85.8081 391.145,-75.5771 386.917,-85.2915 393.898,-85.8081"/>
</g>
<!-- Node31&#45;&gt;Node25 -->
<g id="edge70" class="edge"><title>Node31&#45;&gt;Node25</title>
<path fill="none" stroke="midnightblue" d="M550.99,-392.301C555.509,-352.691 574.17,-190.363 579,-168 580.946,-158.992 583.89,-149.199 586.577,-141.055"/>
<polygon fill="midnightblue" stroke="midnightblue" points="589.918,-142.1 589.855,-131.506 583.298,-139.827 589.918,-142.1"/>
</g>
<!-- Node31&#45;&gt;Node29 -->
<g id="edge71" class="edge"><title>Node31&#45;&gt;Node29</title>
<path fill="none" stroke="midnightblue" d="M563.731,-392.191C575.394,-384.069 591.817,-371.021 602,-356 623.966,-323.599 635.582,-278.543 640.696,-253.557"/>
<polygon fill="midnightblue" stroke="midnightblue" points="644.158,-254.087 642.602,-243.607 637.283,-252.77 644.158,-254.087"/>
</g>
<!-- Node31&#45;&gt;Node32 -->
<g id="edge41" class="edge"><title>Node31&#45;&gt;Node32</title>
<path fill="none" stroke="midnightblue" d="M546.774,-392.075C537.289,-365.832 509.354,-288.545 496.548,-253.117"/>
<polygon fill="midnightblue" stroke="midnightblue" points="499.788,-251.783 493.097,-243.568 493.205,-254.162 499.788,-251.783"/>
</g>
<!-- Node33 -->
<g id="node33" class="node"><title>Node33</title>
<g id="a_node33"><a xlink:href="ICondition_8h.html" target="_top" xlink:title="Condition related stuff. ">
<polygon fill="white" stroke="black" points="254,-280.5 254,-299.5 370,-299.5 370,-280.5 254,-280.5"/>
<text text-anchor="middle" x="312" y="-287.5" font-family="Helvetica,sans-Serif" font-size="10.00">conditions/ICondition.h</text>
</a>
</g>
</g>
<!-- Node31&#45;&gt;Node33 -->
<g id="edge43" class="edge"><title>Node31&#45;&gt;Node33</title>
<path fill="none" stroke="midnightblue" d="M531.325,-392.368C489.615,-373.091 388.709,-326.454 339.672,-303.789"/>
<polygon fill="midnightblue" stroke="midnightblue" points="341.134,-300.61 330.589,-299.591 338.198,-306.964 341.134,-300.61"/>
</g>
<!-- Node42 -->
<g id="node42" class="node"><title>Node42</title>
<g id="a_node42"><a xlink:href="True_8h.html" target="_top" xlink:title="conditions/True.h">
<polygon fill="white" stroke="black" points="291,-336.5 291,-355.5 383,-355.5 383,-336.5 291,-336.5"/>
<text text-anchor="middle" x="337" y="-343.5" font-family="Helvetica,sans-Serif" font-size="10.00">conditions/True.h</text>
</a>
</g>
</g>
<!-- Node31&#45;&gt;Node42 -->
<g id="edge66" class="edge"><title>Node31&#45;&gt;Node42</title>
<path fill="none" stroke="midnightblue" d="M516.25,-392.444C479.482,-383.122 420.554,-368.183 380.378,-357.997"/>
<polygon fill="midnightblue" stroke="midnightblue" points="381.146,-354.581 370.593,-355.516 379.426,-361.367 381.146,-354.581"/>
</g>
<!-- Node32&#45;&gt;Node25 -->
<g id="edge42" class="edge"><title>Node32&#45;&gt;Node25</title>
<path fill="none" stroke="midnightblue" d="M489.456,-224.461C489.054,-211.045 490.147,-184.828 503,-168 516.364,-150.503 538.383,-139.327 557.296,-132.49"/>
<polygon fill="midnightblue" stroke="midnightblue" points="558.466,-135.789 566.84,-129.299 556.247,-129.15 558.466,-135.789"/>
</g>
<!-- Node33&#45;&gt;Node4 -->
<g id="edge45" class="edge"><title>Node33&#45;&gt;Node4</title>
<path fill="none" stroke="midnightblue" d="M286.839,-280.378C270.581,-273.343 250.707,-261.645 241,-244 222.664,-210.67 240.087,-165.025 252.331,-140.42"/>
<polygon fill="midnightblue" stroke="midnightblue" points="255.445,-142.017 256.99,-131.535 249.246,-138.766 255.445,-142.017"/>
</g>
<!-- Node33&#45;&gt;Node13 -->
<g id="edge44" class="edge"><title>Node33&#45;&gt;Node13</title>
<path fill="none" stroke="midnightblue" d="M253.871,-282.128C207.48,-275.307 147.876,-263.079 133,-244 108.104,-212.07 50.4208,-216.438 158,-112 186.583,-84.2519 304.592,-72.7856 361.301,-68.8077"/>
<polygon fill="midnightblue" stroke="midnightblue" points="361.717,-72.2879 371.462,-68.1296 361.251,-65.3034 361.717,-72.2879"/>
</g>
<!-- Node33&#45;&gt;Node25 -->
<g id="edge47" class="edge"><title>Node33&#45;&gt;Node25</title>
<path fill="none" stroke="midnightblue" d="M323.19,-280.303C350.578,-259.266 423.594,-204.663 490,-168 512.755,-155.436 539.716,-143.764 560.346,-135.457"/>
<polygon fill="midnightblue" stroke="midnightblue" points="561.913,-138.6 569.918,-131.66 559.332,-132.094 561.913,-138.6"/>
</g>
<!-- Node33&#45;&gt;Node32 -->
<g id="edge48" class="edge"><title>Node33&#45;&gt;Node32</title>
<path fill="none" stroke="midnightblue" d="M340.205,-280.444C370.41,-271.28 418.511,-256.688 452.029,-246.519"/>
<polygon fill="midnightblue" stroke="midnightblue" points="453.374,-249.769 461.927,-243.516 451.342,-243.07 453.374,-249.769"/>
</g>
<!-- Node34 -->
<g id="node34" class="node"><title>Node34</title>
<polygon fill="white" stroke="#bfbfbf" points="142,-224.5 142,-243.5 194,-243.5 194,-224.5 142,-224.5"/>
<text text-anchor="middle" x="168" y="-231.5" font-family="Helvetica,sans-Serif" font-size="10.00">sstream</text>
</g>
<!-- Node33&#45;&gt;Node34 -->
<g id="edge46" class="edge"><title>Node33&#45;&gt;Node34</title>
<path fill="none" stroke="midnightblue" d="M289.183,-280.444C265.168,-271.438 227.171,-257.189 200.131,-247.049"/>
<polygon fill="midnightblue" stroke="midnightblue" points="201.303,-243.751 190.71,-243.516 198.845,-250.305 201.303,-243.751"/>
</g>
<!-- Node33&#45;&gt;Node35 -->
<g id="edge49" class="edge"><title>Node33&#45;&gt;Node35</title>
<path fill="none" stroke="midnightblue" d="M370.257,-288.223C522.657,-285.757 930.338,-276.254 1061,-244 1105.78,-232.945 1153.87,-208.364 1181.6,-192.799"/>
<polygon fill="midnightblue" stroke="midnightblue" points="1183.57,-195.705 1190.51,-187.706 1180.09,-189.626 1183.57,-195.705"/>
</g>
<!-- Node38 -->
<g id="node38" class="node"><title>Node38</title>
<g id="a_node38"><a xlink:href="AIFactories_8h.html" target="_top" xlink:title="AIFactories.h">
<polygon fill="white" stroke="black" points="250.5,-224.5 250.5,-243.5 325.5,-243.5 325.5,-224.5 250.5,-224.5"/>
<text text-anchor="middle" x="288" y="-231.5" font-family="Helvetica,sans-Serif" font-size="10.00">AIFactories.h</text>
</a>
</g>
</g>
<!-- Node33&#45;&gt;Node38 -->
<g id="edge54" class="edge"><title>Node33&#45;&gt;Node38</title>
<path fill="none" stroke="midnightblue" d="M308.037,-280.083C304.787,-272.77 300.081,-262.181 296.046,-253.103"/>
<polygon fill="midnightblue" stroke="midnightblue" points="299.149,-251.468 291.889,-243.751 292.752,-254.311 299.149,-251.468"/>
</g>
<!-- Node35&#45;&gt;Node8 -->
<g id="edge50" class="edge"><title>Node35&#45;&gt;Node8</title>
<path fill="none" stroke="midnightblue" d="M1233.52,-168.444C1264.79,-159.064 1315.01,-143.998 1348.97,-133.809"/>
<polygon fill="midnightblue" stroke="midnightblue" points="1350.38,-137.041 1358.95,-130.815 1348.37,-130.336 1350.38,-137.041"/>
</g>
<!-- Node35&#45;&gt;Node24 -->
<g id="edge53" class="edge"><title>Node35&#45;&gt;Node24</title>
<path fill="none" stroke="midnightblue" d="M1222.91,-168.444C1241.25,-159.675 1270.01,-145.935 1291.09,-135.858"/>
<polygon fill="midnightblue" stroke="midnightblue" points="1292.67,-138.986 1300.18,-131.516 1289.65,-132.67 1292.67,-138.986"/>
</g>
<!-- Node36 -->
<g id="node36" class="node"><title>Node36</title>
<polygon fill="white" stroke="#bfbfbf" points="1233,-112.5 1233,-131.5 1277,-131.5 1277,-112.5 1233,-112.5"/>
<text text-anchor="middle" x="1255" y="-119.5" font-family="Helvetica,sans-Serif" font-size="10.00">thread</text>
</g>
<!-- Node35&#45;&gt;Node36 -->
<g id="edge51" class="edge"><title>Node35&#45;&gt;Node36</title>
<path fill="none" stroke="midnightblue" d="M1213.26,-168.083C1220.46,-160.298 1231.11,-148.801 1239.85,-139.367"/>
<polygon fill="midnightblue" stroke="midnightblue" points="1242.67,-141.467 1246.9,-131.751 1237.53,-136.711 1242.67,-141.467"/>
</g>
<!-- Node37 -->
<g id="node37" class="node"><title>Node37</title>
<polygon fill="white" stroke="#bfbfbf" points="1171,-112.5 1171,-131.5 1215,-131.5 1215,-112.5 1171,-112.5"/>
<text text-anchor="middle" x="1193" y="-119.5" font-family="Helvetica,sans-Serif" font-size="10.00">mutex</text>
</g>
<!-- Node35&#45;&gt;Node37 -->
<g id="edge52" class="edge"><title>Node35&#45;&gt;Node37</title>
<path fill="none" stroke="midnightblue" d="M1203.02,-168.083C1201.43,-160.927 1199.14,-150.635 1197.15,-141.691"/>
<polygon fill="midnightblue" stroke="midnightblue" points="1200.53,-140.754 1194.94,-131.751 1193.7,-142.272 1200.53,-140.754"/>
</g>
<!-- Node38&#45;&gt;Node4 -->
<g id="edge65" class="edge"><title>Node38&#45;&gt;Node4</title>
<path fill="none" stroke="midnightblue" d="M285.96,-224.368C281.764,-206.617 272.085,-165.666 266.396,-141.597"/>
<polygon fill="midnightblue" stroke="midnightblue" points="269.737,-140.518 264.031,-131.591 262.925,-142.128 269.737,-140.518"/>
</g>
<!-- Node39 -->
<g id="node39" class="node"><title>Node39</title>
<g id="a_node39"><a xlink:href="IAIFactory_8h.html" target="_top" xlink:title="IAIFactory.h">
<polygon fill="white" stroke="black" points="290.5,-168.5 290.5,-187.5 361.5,-187.5 361.5,-168.5 290.5,-168.5"/>
<text text-anchor="middle" x="326" y="-175.5" font-family="Helvetica,sans-Serif" font-size="10.00">IAIFactory.h</text>
</a>
</g>
</g>
<!-- Node38&#45;&gt;Node39 -->
<g id="edge55" class="edge"><title>Node38&#45;&gt;Node39</title>
<path fill="none" stroke="midnightblue" d="M294.275,-224.083C299.642,-216.455 307.518,-205.264 314.079,-195.941"/>
<polygon fill="midnightblue" stroke="midnightblue" points="316.949,-197.943 319.842,-187.751 311.225,-193.915 316.949,-197.943"/>
</g>
<!-- Node40 -->
<g id="node40" class="node"><title>Node40</title>
<g id="a_node40"><a xlink:href="IFactoryRegistry_8h.html" target="_top" xlink:title="common/IFactoryRegistry.h">
<polygon fill="white" stroke="black" points="773,-168.5 773,-187.5 911,-187.5 911,-168.5 773,-168.5"/>
<text text-anchor="middle" x="842" y="-175.5" font-family="Helvetica,sans-Serif" font-size="10.00">common/IFactoryRegistry.h</text>
</a>
</g>
</g>
<!-- Node38&#45;&gt;Node40 -->
<g id="edge60" class="edge"><title>Node38&#45;&gt;Node40</title>
<path fill="none" stroke="midnightblue" d="M325.643,-229.331C415.064,-220.615 641.79,-198.515 762.897,-186.71"/>
<polygon fill="midnightblue" stroke="midnightblue" points="763.242,-190.194 772.855,-185.74 762.562,-183.227 763.242,-190.194"/>
</g>
<!-- Node39&#45;&gt;Node3 -->
<g id="edge59" class="edge"><title>Node39&#45;&gt;Node3</title>
<path fill="none" stroke="midnightblue" d="M303.183,-168.444C276.742,-158.528 233.35,-142.256 206.296,-132.111"/>
<polygon fill="midnightblue" stroke="midnightblue" points="207.389,-128.783 196.797,-128.549 204.931,-135.337 207.389,-128.783"/>
</g>
<!-- Node39&#45;&gt;Node4 -->
<g id="edge58" class="edge"><title>Node39&#45;&gt;Node4</title>
<path fill="none" stroke="midnightblue" d="M315.717,-168.324C306.164,-160.263 291.72,-148.077 280.216,-138.369"/>
<polygon fill="midnightblue" stroke="midnightblue" points="282.37,-135.608 272.47,-131.834 277.856,-140.958 282.37,-135.608"/>
</g>
<!-- Node39&#45;&gt;Node13 -->
<g id="edge57" class="edge"><title>Node39&#45;&gt;Node13</title>
<path fill="none" stroke="midnightblue" d="M331.179,-168.368C342.023,-150.296 367.294,-108.176 381.616,-84.3074"/>
<polygon fill="midnightblue" stroke="midnightblue" points="384.701,-85.9671 386.845,-75.5914 378.699,-82.3656 384.701,-85.9671"/>
</g>
<!-- Node39&#45;&gt;Node25 -->
<g id="edge56" class="edge"><title>Node39&#45;&gt;Node25</title>
<path fill="none" stroke="midnightblue" d="M361.732,-169.773C412.648,-159.476 505.566,-140.683 556.76,-130.329"/>
<polygon fill="midnightblue" stroke="midnightblue" points="557.612,-133.728 566.719,-128.315 556.224,-126.867 557.612,-133.728"/>
</g>
<!-- Node40&#45;&gt;Node6 -->
<g id="edge62" class="edge"><title>Node40&#45;&gt;Node6</title>
<path fill="none" stroke="midnightblue" d="M881.455,-168.444C924.892,-159.023 994.786,-143.866 1041.78,-133.675"/>
<polygon fill="midnightblue" stroke="midnightblue" points="1042.7,-137.056 1051.73,-131.516 1041.22,-130.215 1042.7,-137.056"/>
</g>
<!-- Node40&#45;&gt;Node8 -->
<g id="edge61" class="edge"><title>Node40&#45;&gt;Node8</title>
<path fill="none" stroke="midnightblue" d="M911.069,-174.458C1007.22,-170.128 1186.89,-159.166 1348.59,-131.976"/>
<polygon fill="midnightblue" stroke="midnightblue" points="1349.46,-135.379 1358.73,-130.247 1348.28,-128.479 1349.46,-135.379"/>
</g>
<!-- Node40&#45;&gt;Node25 -->
<g id="edge63" class="edge"><title>Node40&#45;&gt;Node25</title>
<path fill="none" stroke="midnightblue" d="M802.545,-168.444C754.864,-158.103 675.305,-140.849 629.154,-130.841"/>
<polygon fill="midnightblue" stroke="midnightblue" points="629.8,-127.399 619.285,-128.7 628.316,-134.24 629.8,-127.399"/>
</g>
<!-- Node41 -->
<g id="node41" class="node"><title>Node41</title>
<polygon fill="white" stroke="#bfbfbf" points="842.5,-112.5 842.5,-131.5 877.5,-131.5 877.5,-112.5 842.5,-112.5"/>
<text text-anchor="middle" x="860" y="-119.5" font-family="Helvetica,sans-Serif" font-size="10.00">map</text>
</g>
<!-- Node40&#45;&gt;Node41 -->
<g id="edge64" class="edge"><title>Node40&#45;&gt;Node41</title>
<path fill="none" stroke="midnightblue" d="M844.972,-168.083C847.384,-160.849 850.864,-150.409 853.868,-141.397"/>
<polygon fill="midnightblue" stroke="midnightblue" points="857.241,-142.345 857.083,-131.751 850.6,-140.131 857.241,-142.345"/>
</g>
<!-- Node42&#45;&gt;Node33 -->
<g id="edge67" class="edge"><title>Node42&#45;&gt;Node33</title>
<path fill="none" stroke="midnightblue" d="M332.872,-336.083C329.486,-328.77 324.584,-318.181 320.381,-309.103"/>
<polygon fill="midnightblue" stroke="midnightblue" points="323.429,-307.355 316.051,-299.751 317.077,-310.296 323.429,-307.355"/>
</g>
<!-- Node43&#45;&gt;Node4 -->
<g id="edge76" class="edge"><title>Node43&#45;&gt;Node4</title>
<path fill="none" stroke="midnightblue" d="M926.076,-224.47C864.647,-215.754 767.138,-201.605 683,-188 632.219,-179.789 619.787,-176.175 569,-168 469.073,-151.914 350.454,-135.2 294.409,-127.445"/>
<polygon fill="midnightblue" stroke="midnightblue" points="294.759,-123.96 284.375,-126.06 293.802,-130.895 294.759,-123.96"/>
</g>
<!-- Node43&#45;&gt;Node10 -->
<g id="edge79" class="edge"><title>Node43&#45;&gt;Node10</title>
<path fill="none" stroke="midnightblue" d="M985.53,-224.165C980.392,-192.02 964.669,-81.8245 986,-56 1011.05,-25.6733 1128,-15.5709 1186.5,-12.3806"/>
<polygon fill="midnightblue" stroke="midnightblue" points="1186.9,-15.865 1196.71,-11.862 1186.54,-8.87399 1186.9,-15.865"/>
</g>
<!-- Node43&#45;&gt;Node11 -->
<g id="edge78" class="edge"><title>Node43&#45;&gt;Node11</title>
<path fill="none" stroke="midnightblue" d="M988.219,-224.298C991.867,-199.412 1003.42,-128.666 1019,-112 1055.56,-72.8992 1210.49,-34.6486 1281.8,-18.7282"/>
<polygon fill="midnightblue" stroke="midnightblue" points="1282.68,-22.1181 1291.69,-16.5439 1281.18,-15.2828 1282.68,-22.1181"/>
</g>
<!-- Node43&#45;&gt;Node13 -->
<g id="edge75" class="edge"><title>Node43&#45;&gt;Node13</title>
<path fill="none" stroke="midnightblue" d="M983.148,-224.309C972.12,-200.681 937.851,-135.472 886,-112 802.619,-74.2551 517.134,-68.1665 422.645,-67.187"/>
<polygon fill="midnightblue" stroke="midnightblue" points="422.625,-63.6867 412.594,-67.095 422.561,-70.6864 422.625,-63.6867"/>
</g>
<!-- Node43&#45;&gt;Node25 -->
<g id="edge74" class="edge"><title>Node43&#45;&gt;Node25</title>
<path fill="none" stroke="midnightblue" d="M921.413,-226.346C869.001,-219.873 794.124,-208.019 731,-188 708.943,-181.005 652.696,-153.272 619.214,-136.373"/>
<polygon fill="midnightblue" stroke="midnightblue" points="620.521,-133.112 610.019,-131.715 617.358,-139.356 620.521,-133.112"/>
</g>
<!-- Node43&#45;&gt;Node35 -->
<g id="edge73" class="edge"><title>Node43&#45;&gt;Node35</title>
<path fill="none" stroke="midnightblue" d="M1021.54,-224.444C1059.25,-215.102 1119.74,-200.119 1160.86,-189.933"/>
<polygon fill="midnightblue" stroke="midnightblue" points="1161.75,-193.318 1170.62,-187.516 1160.07,-186.524 1161.75,-193.318"/>
</g>
<!-- Node43&#45;&gt;Node41 -->
<g id="edge77" class="edge"><title>Node43&#45;&gt;Node41</title>
<path fill="none" stroke="midnightblue" d="M978.656,-224.225C966.294,-211.384 942.182,-186.946 920,-168 907.376,-157.218 892.444,-146.014 880.634,-137.482"/>
<polygon fill="midnightblue" stroke="midnightblue" points="882.473,-134.494 872.301,-131.53 878.404,-140.191 882.473,-134.494"/>
</g>
</g>
</svg>
