<?xml version="1.0" encoding="UTF-8" standalone="no"?>
<!DOCTYPE svg PUBLIC "-//W3C//DTD SVG 1.1//EN"
 "http://www.w3.org/Graphics/SVG/1.1/DTD/svg11.dtd">
<!-- Generated by graphviz version 2.36.0 (20140111.2315)
 -->
<!-- Title: /home/travis/build/mgerhardy/simpleai/src/ai/conditions/ConditionParser.h Pages: 1 -->
<!--zoomable 386 -->
<svg id="main" version="1.1" xmlns="http://www.w3.org/2000/svg" xmlns:xlink="http://www.w3.org/1999/xlink" xml:space="preserve" onload="init(evt)">
<style type="text/css"><![CDATA[
.edge:hover path { stroke: red; }
.edge:hover polygon { stroke: red; fill: red; }
]]></style>
<script type="text/javascript"><![CDATA[
var edges = document.getElementsByTagName('g');
if (edges && edges.length) {
  for (var i=0;i<edges.length;i++) {
    if (edges[i].id.substr(0,4)=='edge') {
      edges[i].setAttribute('class','edge');
    }
  }
}
]]></script>
        <defs>
                <circle id="rim" cx="0" cy="0" r="7"/>
                <circle id="rim2" cx="0" cy="0" r="3.5"/>
                <g id="zoomPlus">
                        <use xlink:href="#rim" fill="#404040">
                                <set attributeName="fill" to="#808080" begin="zoomplus.mouseover" end="zoomplus.mouseout"/>
                        </use>
                        <path d="M-4,0h8M0,-4v8" fill="none" stroke="white" stroke-width="1.5" pointer-events="none"/>
                </g>
                <g id="zoomMin">
                        <use xlink:href="#rim" fill="#404040">
                                <set attributeName="fill" to="#808080" begin="zoomminus.mouseover" end="zoomminus.mouseout"/>
                        </use>
                        <path d="M-4,0h8" fill="none" stroke="white" stroke-width="1.5" pointer-events="none"/>
                </g>
                <g id="dirArrow">
                        <path fill="none" stroke="white" stroke-width="1.5" d="M0,-3.0v7 M-2.5,-0.5L0,-3.0L2.5,-0.5"/>
                </g>
               <g id="resetDef">
                       <use xlink:href="#rim2" fill="#404040">
                               <set attributeName="fill" to="#808080" begin="reset.mouseover" end="reset.mouseout"/>
                       </use>
               </g>
        </defs>

<script type="text/javascript">
var viewWidth = 1567;
var viewHeight = 386;
var sectionId = 'dynsection-1';
</script>
<script xlink:href="svgpan.js"/>
<svg id="graph" class="graph">
<g id="viewport">
<title>/home/travis/build/mgerhardy/simpleai/src/ai/conditions/ConditionParser.h</title>
<polygon fill="white" stroke="none" points="-4,4 -4,-382 1563,-382 1563,4 -4,4"/>
<!-- Node1 -->
<g id="node1" class="node"><title>Node1</title>
<polygon fill="#bfbfbf" stroke="black" points="1259.5,-325 1259.5,-377 1394.5,-377 1394.5,-325 1259.5,-325"/>
<text text-anchor="start" x="1267.5" y="-365" font-family="Helvetica,sans-Serif" font-size="10.00">/home/travis/build</text>
<text text-anchor="start" x="1267.5" y="-354" font-family="Helvetica,sans-Serif" font-size="10.00">/mgerhardy/simpleai</text>
<text text-anchor="start" x="1267.5" y="-343" font-family="Helvetica,sans-Serif" font-size="10.00">/src/ai/conditions/Condition</text>
<text text-anchor="middle" x="1327" y="-332" font-family="Helvetica,sans-Serif" font-size="10.00">Parser.h</text>
</g>
<!-- Node2 -->
<g id="node2" class="node"><title>Node2</title>
<g id="a_node2"><a xlink:href="Server_8h.html" target="_top" xlink:title="/home/travis/build\l/mgerhardy/simpleai\l/src/ai/server/Server.h">
<polygon fill="white" stroke="black" points="658.5,-240.5 658.5,-281.5 771.5,-281.5 771.5,-240.5 658.5,-240.5"/>
<text text-anchor="start" x="666.5" y="-269.5" font-family="Helvetica,sans-Serif" font-size="10.00">/home/travis/build</text>
<text text-anchor="start" x="666.5" y="-258.5" font-family="Helvetica,sans-Serif" font-size="10.00">/mgerhardy/simpleai</text>
<text text-anchor="middle" x="715" y="-247.5" font-family="Helvetica,sans-Serif" font-size="10.00">/src/ai/server/Server.h</text>
</a>
</g>
</g>
<!-- Node1&#45;&gt;Node2 -->
<g id="edge1" class="edge"><title>Node1&#45;&gt;Node2</title>
<path fill="none" stroke="midnightblue" d="M1249.21,-338.815C1124.34,-320.86 882.036,-286.018 771.922,-270.185"/>
<polygon fill="midnightblue" stroke="midnightblue" points="1249.06,-342.33 1259.46,-340.289 1250.06,-335.401 1249.06,-342.33"/>
</g>
<!-- Node5 -->
<g id="node5" class="node"><title>Node5</title>
<g id="a_node5"><a xlink:href="SimpleAI_8h.html" target="_top" xlink:title="/home/travis/build\l/mgerhardy/simpleai\l/src/ai/SimpleAI.h">
<polygon fill="white" stroke="black" points="1195,-0.5 1195,-41.5 1299,-41.5 1299,-0.5 1195,-0.5"/>
<text text-anchor="start" x="1203" y="-29.5" font-family="Helvetica,sans-Serif" font-size="10.00">/home/travis/build</text>
<text text-anchor="start" x="1203" y="-18.5" font-family="Helvetica,sans-Serif" font-size="10.00">/mgerhardy/simpleai</text>
<text text-anchor="middle" x="1247" y="-7.5" font-family="Helvetica,sans-Serif" font-size="10.00">/src/ai/SimpleAI.h</text>
</a>
</g>
</g>
<!-- Node1&#45;&gt;Node5 -->
<g id="edge19" class="edge"><title>Node1&#45;&gt;Node5</title>
<path fill="none" stroke="midnightblue" d="M1312.7,-315.192C1309.49,-306.426 1306.34,-296.958 1304,-288 1280.12,-196.59 1297.14,-168.789 1271,-78 1267.4,-65.4978 1261.72,-52.0818 1256.79,-41.5163"/>
<polygon fill="midnightblue" stroke="midnightblue" points="1309.5,-316.62 1316.32,-324.727 1316.05,-314.136 1309.5,-316.62"/>
</g>
<!-- Node12 -->
<g id="node12" class="node"><title>Node12</title>
<g id="a_node12"><a xlink:href="LUATreeLoader_8h.html" target="_top" xlink:title="/home/travis/build\l/mgerhardy/simpleai\l/src/ai/tree/loaders\l/lua/LUATreeLoader.h">
<polygon fill="white" stroke="black" points="1313,-235 1313,-287 1425,-287 1425,-235 1313,-235"/>
<text text-anchor="start" x="1321" y="-275" font-family="Helvetica,sans-Serif" font-size="10.00">/home/travis/build</text>
<text text-anchor="start" x="1321" y="-264" font-family="Helvetica,sans-Serif" font-size="10.00">/mgerhardy/simpleai</text>
<text text-anchor="start" x="1321" y="-253" font-family="Helvetica,sans-Serif" font-size="10.00">/src/ai/tree/loaders</text>
<text text-anchor="middle" x="1369" y="-242" font-family="Helvetica,sans-Serif" font-size="10.00">/lua/LUATreeLoader.h</text>
</a>
</g>
</g>
<!-- Node1&#45;&gt;Node12 -->
<g id="edge20" class="edge"><title>Node1&#45;&gt;Node12</title>
<path fill="none" stroke="midnightblue" d="M1343.53,-315.376C1348.03,-305.935 1352.82,-295.891 1357.02,-287.092"/>
<polygon fill="midnightblue" stroke="midnightblue" points="1340.3,-314.014 1339.15,-324.547 1346.61,-317.03 1340.3,-314.014"/>
</g>
<!-- Node13 -->
<g id="node13" class="node"><title>Node13</title>
<g id="a_node13"><a xlink:href="XMLTreeLoader_8h.html" target="_top" xlink:title="/home/travis/build\l/mgerhardy/simpleai\l/src/ai/tree/loaders\l/xml/XMLTreeLoader.h">
<polygon fill="white" stroke="black" points="1443,-235 1443,-287 1559,-287 1559,-235 1443,-235"/>
<text text-anchor="start" x="1451" y="-275" font-family="Helvetica,sans-Serif" font-size="10.00">/home/travis/build</text>
<text text-anchor="start" x="1451" y="-264" font-family="Helvetica,sans-Serif" font-size="10.00">/mgerhardy/simpleai</text>
<text text-anchor="start" x="1451" y="-253" font-family="Helvetica,sans-Serif" font-size="10.00">/src/ai/tree/loaders</text>
<text text-anchor="middle" x="1501" y="-242" font-family="Helvetica,sans-Serif" font-size="10.00">/xml/XMLTreeLoader.h</text>
</a>
</g>
</g>
<!-- Node1&#45;&gt;Node13 -->
<g id="edge21" class="edge"><title>Node1&#45;&gt;Node13</title>
<path fill="none" stroke="midnightblue" d="M1385.83,-320.249C1407.14,-309.468 1430.99,-297.407 1451.43,-287.069"/>
<polygon fill="midnightblue" stroke="midnightblue" points="1384.21,-317.146 1376.86,-324.783 1387.36,-323.393 1384.21,-317.146"/>
</g>
<!-- Node3 -->
<g id="node3" class="node"><title>Node3</title>
<g id="a_node3"><a xlink:href="ChangeHandler_8h.html" target="_top" xlink:title="/home/travis/build\l/mgerhardy/simpleai\l/src/ai/server/ChangeHandler.h">
<polygon fill="white" stroke="black" points="0,-156.5 0,-197.5 152,-197.5 152,-156.5 0,-156.5"/>
<text text-anchor="start" x="8" y="-185.5" font-family="Helvetica,sans-Serif" font-size="10.00">/home/travis/build</text>
<text text-anchor="start" x="8" y="-174.5" font-family="Helvetica,sans-Serif" font-size="10.00">/mgerhardy/simpleai</text>
<text text-anchor="middle" x="76" y="-163.5" font-family="Helvetica,sans-Serif" font-size="10.00">/src/ai/server/ChangeHandler.h</text>
</a>
</g>
</g>
<!-- Node2&#45;&gt;Node3 -->
<g id="edge2" class="edge"><title>Node2&#45;&gt;Node3</title>
<path fill="none" stroke="midnightblue" d="M648.204,-254.761C544.529,-246.11 338.816,-226.876 166,-198 161.58,-197.261 157.049,-196.445 152.486,-195.577"/>
<polygon fill="midnightblue" stroke="midnightblue" points="647.961,-258.252 658.216,-255.589 648.539,-251.276 647.961,-258.252"/>
</g>
<!-- Node4 -->
<g id="node4" class="node"><title>Node4</title>
<g id="a_node4"><a xlink:href="ServerImpl_8h.html" target="_top" xlink:title="/home/travis/build\l/mgerhardy/simpleai\l/src/ai/server/ServerImpl.h">
<polygon fill="white" stroke="black" points="567,-78.5 567,-119.5 699,-119.5 699,-78.5 567,-78.5"/>
<text text-anchor="start" x="575" y="-107.5" font-family="Helvetica,sans-Serif" font-size="10.00">/home/travis/build</text>
<text text-anchor="start" x="575" y="-96.5" font-family="Helvetica,sans-Serif" font-size="10.00">/mgerhardy/simpleai</text>
<text text-anchor="middle" x="633" y="-85.5" font-family="Helvetica,sans-Serif" font-size="10.00">/src/ai/server/ServerImpl.h</text>
</a>
</g>
</g>
<!-- Node2&#45;&gt;Node4 -->
<g id="edge13" class="edge"><title>Node2&#45;&gt;Node4</title>
<path fill="none" stroke="midnightblue" d="M648.372,-256.845C515.632,-249.874 228.359,-231.098 199,-198 186.613,-184.036 186.674,-170.018 199,-156 222.891,-128.828 451.551,-111.086 566.997,-103.786"/>
<polygon fill="midnightblue" stroke="midnightblue" points="648.257,-260.343 658.424,-257.365 648.619,-253.353 648.257,-260.343"/>
</g>
<!-- Node2&#45;&gt;Node5 -->
<g id="edge18" class="edge"><title>Node2&#45;&gt;Node5</title>
<path fill="none" stroke="midnightblue" d="M782.193,-256.447C913.957,-248.829 1196.18,-229.051 1227,-198 1268.6,-156.096 1259.05,-78.0481 1251.67,-41.643"/>
<polygon fill="midnightblue" stroke="midnightblue" points="781.611,-252.975 771.827,-257.039 782.01,-259.963 781.611,-252.975"/>
</g>
<!-- Node6 -->
<g id="node6" class="node"><title>Node6</title>
<g id="a_node6"><a xlink:href="DeleteNodeHandler_8h.html" target="_top" xlink:title="/home/travis/build\l/mgerhardy/simpleai\l/src/ai/server/DeleteNodeHandler.h">
<polygon fill="white" stroke="black" points="208,-156.5 208,-197.5 378,-197.5 378,-156.5 208,-156.5"/>
<text text-anchor="start" x="216" y="-185.5" font-family="Helvetica,sans-Serif" font-size="10.00">/home/travis/build</text>
<text text-anchor="start" x="216" y="-174.5" font-family="Helvetica,sans-Serif" font-size="10.00">/mgerhardy/simpleai</text>
<text text-anchor="middle" x="293" y="-163.5" font-family="Helvetica,sans-Serif" font-size="10.00">/src/ai/server/DeleteNodeHandler.h</text>
</a>
</g>
</g>
<!-- Node2&#45;&gt;Node6 -->
<g id="edge5" class="edge"><title>Node2&#45;&gt;Node6</title>
<path fill="none" stroke="midnightblue" d="M648.428,-247.877C582.1,-235.689 477.388,-216.156 387,-198 384.056,-197.409 381.06,-196.801 378.036,-196.184"/>
<polygon fill="midnightblue" stroke="midnightblue" points="647.865,-251.332 658.333,-249.694 649.129,-244.447 647.865,-251.332"/>
</g>
<!-- Node7 -->
<g id="node7" class="node"><title>Node7</title>
<g id="a_node7"><a xlink:href="PauseHandler_8h.html" target="_top" xlink:title="/home/travis/build\l/mgerhardy/simpleai\l/src/ai/server/PauseHandler.h">
<polygon fill="white" stroke="black" points="396,-156.5 396,-197.5 542,-197.5 542,-156.5 396,-156.5"/>
<text text-anchor="start" x="404" y="-185.5" font-family="Helvetica,sans-Serif" font-size="10.00">/home/travis/build</text>
<text text-anchor="start" x="404" y="-174.5" font-family="Helvetica,sans-Serif" font-size="10.00">/mgerhardy/simpleai</text>
<text text-anchor="middle" x="469" y="-163.5" font-family="Helvetica,sans-Serif" font-size="10.00">/src/ai/server/PauseHandler.h</text>
</a>
</g>
</g>
<!-- Node2&#45;&gt;Node7 -->
<g id="edge7" class="edge"><title>Node2&#45;&gt;Node7</title>
<path fill="none" stroke="midnightblue" d="M648.372,-237.791C610.654,-225.218 563.911,-209.637 527.598,-197.533"/>
<polygon fill="midnightblue" stroke="midnightblue" points="647.66,-241.243 658.254,-241.085 649.874,-234.602 647.66,-241.243"/>
</g>
<!-- Node8 -->
<g id="node8" class="node"><title>Node8</title>
<g id="a_node8"><a xlink:href="ResetHandler_8h.html" target="_top" xlink:title="/home/travis/build\l/mgerhardy/simpleai\l/src/ai/server/ResetHandler.h">
<polygon fill="white" stroke="black" points="560.5,-156.5 560.5,-197.5 705.5,-197.5 705.5,-156.5 560.5,-156.5"/>
<text text-anchor="start" x="568.5" y="-185.5" font-family="Helvetica,sans-Serif" font-size="10.00">/home/travis/build</text>
<text text-anchor="start" x="568.5" y="-174.5" font-family="Helvetica,sans-Serif" font-size="10.00">/mgerhardy/simpleai</text>
<text text-anchor="middle" x="633" y="-163.5" font-family="Helvetica,sans-Serif" font-size="10.00">/src/ai/server/ResetHandler.h</text>
</a>
</g>
</g>
<!-- Node2&#45;&gt;Node8 -->
<g id="edge9" class="edge"><title>Node2&#45;&gt;Node8</title>
<path fill="none" stroke="midnightblue" d="M687.873,-232.873C676.369,-221.369 663.213,-208.213 652.667,-197.667"/>
<polygon fill="midnightblue" stroke="midnightblue" points="685.604,-235.554 695.15,-240.15 690.554,-230.604 685.604,-235.554"/>
</g>
<!-- Node9 -->
<g id="node9" class="node"><title>Node9</title>
<g id="a_node9"><a xlink:href="SelectHandler_8h.html" target="_top" xlink:title="/home/travis/build\l/mgerhardy/simpleai\l/src/ai/server/SelectHandler.h">
<polygon fill="white" stroke="black" points="724,-156.5 724,-197.5 870,-197.5 870,-156.5 724,-156.5"/>
<text text-anchor="start" x="732" y="-185.5" font-family="Helvetica,sans-Serif" font-size="10.00">/home/travis/build</text>
<text text-anchor="start" x="732" y="-174.5" font-family="Helvetica,sans-Serif" font-size="10.00">/mgerhardy/simpleai</text>
<text text-anchor="middle" x="797" y="-163.5" font-family="Helvetica,sans-Serif" font-size="10.00">/src/ai/server/SelectHandler.h</text>
</a>
</g>
</g>
<!-- Node2&#45;&gt;Node9 -->
<g id="edge11" class="edge"><title>Node2&#45;&gt;Node9</title>
<path fill="none" stroke="midnightblue" d="M742.127,-232.873C753.631,-221.369 766.787,-208.213 777.333,-197.667"/>
<polygon fill="midnightblue" stroke="midnightblue" points="739.446,-230.604 734.85,-240.15 744.396,-235.554 739.446,-230.604"/>
</g>
<!-- Node10 -->
<g id="node10" class="node"><title>Node10</title>
<g id="a_node10"><a xlink:href="StepHandler_8h.html" target="_top" xlink:title="/home/travis/build\l/mgerhardy/simpleai\l/src/ai/server/StepHandler.h">
<polygon fill="white" stroke="black" points="888.5,-156.5 888.5,-197.5 1027.5,-197.5 1027.5,-156.5 888.5,-156.5"/>
<text text-anchor="start" x="896.5" y="-185.5" font-family="Helvetica,sans-Serif" font-size="10.00">/home/travis/build</text>
<text text-anchor="start" x="896.5" y="-174.5" font-family="Helvetica,sans-Serif" font-size="10.00">/mgerhardy/simpleai</text>
<text text-anchor="middle" x="958" y="-163.5" font-family="Helvetica,sans-Serif" font-size="10.00">/src/ai/server/StepHandler.h</text>
</a>
</g>
</g>
<!-- Node2&#45;&gt;Node10 -->
<g id="edge14" class="edge"><title>Node2&#45;&gt;Node10</title>
<path fill="none" stroke="midnightblue" d="M781.392,-237.596C818.501,-225.074 864.312,-209.615 899.977,-197.58"/>
<polygon fill="midnightblue" stroke="midnightblue" points="780.022,-234.364 771.666,-240.878 782.26,-240.997 780.022,-234.364"/>
</g>
<!-- Node11 -->
<g id="node11" class="node"><title>Node11</title>
<g id="a_node11"><a xlink:href="UpdateNodeHandler_8h.html" target="_top" xlink:title="/home/travis/build\l/mgerhardy/simpleai\l/src/ai/server/UpdateNodeHandler.h">
<polygon fill="white" stroke="black" points="1045.5,-156.5 1045.5,-197.5 1218.5,-197.5 1218.5,-156.5 1045.5,-156.5"/>
<text text-anchor="start" x="1053.5" y="-185.5" font-family="Helvetica,sans-Serif" font-size="10.00">/home/travis/build</text>
<text text-anchor="start" x="1053.5" y="-174.5" font-family="Helvetica,sans-Serif" font-size="10.00">/mgerhardy/simpleai</text>
<text text-anchor="middle" x="1132" y="-163.5" font-family="Helvetica,sans-Serif" font-size="10.00">/src/ai/server/UpdateNodeHandler.h</text>
</a>
</g>
</g>
<!-- Node2&#45;&gt;Node11 -->
<g id="edge16" class="edge"><title>Node2&#45;&gt;Node11</title>
<path fill="none" stroke="midnightblue" d="M781.69,-247.413C846.654,-235.082 948.181,-215.628 1036,-198 1039.09,-197.38 1042.23,-196.745 1045.4,-196.101"/>
<polygon fill="midnightblue" stroke="midnightblue" points="780.757,-244.027 771.585,-249.33 782.062,-250.905 780.757,-244.027"/>
</g>
<!-- Node3&#45;&gt;Node4 -->
<g id="edge3" class="edge"><title>Node3&#45;&gt;Node4</title>
<path fill="none" stroke="midnightblue" d="M162.113,-156.677C163.417,-156.445 164.713,-156.22 166,-156 308.072,-131.758 476.226,-114.324 566.965,-105.834"/>
<polygon fill="midnightblue" stroke="midnightblue" points="161.197,-153.287 152.004,-158.553 162.475,-160.17 161.197,-153.287"/>
</g>
<!-- Node4&#45;&gt;Node5 -->
<g id="edge4" class="edge"><title>Node4&#45;&gt;Node5</title>
<path fill="none" stroke="midnightblue" d="M708.998,-88.5931C835.48,-72.9373 1086,-41.9289 1194.67,-28.4774"/>
<polygon fill="midnightblue" stroke="midnightblue" points="708.494,-85.1286 699,-89.8306 709.354,-92.0756 708.494,-85.1286"/>
</g>
<!-- Node6&#45;&gt;Node4 -->
<g id="edge6" class="edge"><title>Node6&#45;&gt;Node4</title>
<path fill="none" stroke="midnightblue" d="M388.45,-154.664C445.354,-141.944 516.155,-126.118 566.91,-114.773"/>
<polygon fill="midnightblue" stroke="midnightblue" points="387.353,-151.323 378.357,-156.92 388.88,-158.154 387.353,-151.323"/>
</g>
<!-- Node7&#45;&gt;Node4 -->
<g id="edge8" class="edge"><title>Node7&#45;&gt;Node4</title>
<path fill="none" stroke="midnightblue" d="M520.382,-152.189C543.07,-141.675 569.41,-129.469 590.909,-119.506"/>
<polygon fill="midnightblue" stroke="midnightblue" points="518.836,-149.048 511.234,-156.428 521.779,-155.399 518.836,-149.048"/>
</g>
<!-- Node8&#45;&gt;Node4 -->
<g id="edge10" class="edge"><title>Node8&#45;&gt;Node4</title>
<path fill="none" stroke="midnightblue" d="M633,-146.297C633,-137.301 633,-127.653 633,-119.506"/>
<polygon fill="midnightblue" stroke="midnightblue" points="629.5,-146.428 633,-156.428 636.5,-146.428 629.5,-146.428"/>
</g>
<!-- Node9&#45;&gt;Node4 -->
<g id="edge12" class="edge"><title>Node9&#45;&gt;Node4</title>
<path fill="none" stroke="midnightblue" d="M745.618,-152.189C722.93,-141.675 696.59,-129.469 675.091,-119.506"/>
<polygon fill="midnightblue" stroke="midnightblue" points="744.221,-155.399 754.766,-156.428 747.164,-149.048 744.221,-155.399"/>
</g>
<!-- Node10&#45;&gt;Node4 -->
<g id="edge15" class="edge"><title>Node10&#45;&gt;Node4</title>
<path fill="none" stroke="midnightblue" d="M878.393,-155.879C811.735,-139.923 746.397,-125.14 699.141,-114.602"/>
<polygon fill="midnightblue" stroke="midnightblue" points="877.695,-159.31 888.236,-158.241 879.329,-152.504 877.695,-159.31"/>
</g>
<!-- Node11&#45;&gt;Node4 -->
<g id="edge17" class="edge"><title>Node11&#45;&gt;Node4</title>
<path fill="none" stroke="midnightblue" d="M1035.33,-155.943C910.585,-134.569 777.09,-117.313 699.179,-107.809"/>
<polygon fill="midnightblue" stroke="midnightblue" points="1034.99,-159.436 1045.44,-157.688 1036.19,-152.538 1034.99,-159.436"/>
</g>
</g>
</svg>
        <g id="navigator" transform="translate(0 0)" fill="#404254">
                <rect fill="#f2f5e9" fill-opacity="0.5" stroke="#606060" stroke-width=".5" x="0" y="0" width="60" height="60"/>
                <use id="zoomplus" xlink:href="#zoomPlus" x="17" y="9" onmousedown="handleZoom(evt,'in')"/>
                <use id="zoomminus" xlink:href="#zoomMin" x="42" y="9" onmousedown="handleZoom(evt,'out')"/>
                <use id="reset" xlink:href="#resetDef" x="30" y="36" onmousedown="handleReset()"/>
                <g id="arrowUp" xlink:href="#dirArrow" transform="translate(30 24)" onmousedown="handlePan(0,-1)">
                  <use xlink:href="#rim" fill="#404040">
                        <set attributeName="fill" to="#808080" begin="arrowUp.mouseover" end="arrowUp.mouseout"/>
                  </use>
                  <path fill="none" stroke="white" stroke-width="1.5" d="M0,-3.0v7 M-2.5,-0.5L0,-3.0L2.5,-0.5"/>
                </g>
                <g id="arrowRight" xlink:href="#dirArrow" transform="rotate(90) translate(36 -43)" onmousedown="handlePan(1,0)">
                  <use xlink:href="#rim" fill="#404040">
                        <set attributeName="fill" to="#808080" begin="arrowRight.mouseover" end="arrowRight.mouseout"/>
                  </use>
                  <path fill="none" stroke="white" stroke-width="1.5" d="M0,-3.0v7 M-2.5,-0.5L0,-3.0L2.5,-0.5"/>
                </g>
                <g id="arrowDown" xlink:href="#dirArrow" transform="rotate(180) translate(-30 -48)" onmousedown="handlePan(0,1)">
                  <use xlink:href="#rim" fill="#404040">
                        <set attributeName="fill" to="#808080" begin="arrowDown.mouseover" end="arrowDown.mouseout"/>
                  </use>
                  <path fill="none" stroke="white" stroke-width="1.5" d="M0,-3.0v7 M-2.5,-0.5L0,-3.0L2.5,-0.5"/>
                </g>
                <g id="arrowLeft" xlink:href="#dirArrow" transform="rotate(270) translate(-36 17)" onmousedown="handlePan(-1,0)">
                  <use xlink:href="#rim" fill="#404040">
                        <set attributeName="fill" to="#808080" begin="arrowLeft.mouseover" end="arrowLeft.mouseout"/>
                  </use>
                  <path fill="none" stroke="white" stroke-width="1.5" d="M0,-3.0v7 M-2.5,-0.5L0,-3.0L2.5,-0.5"/>
                </g>
        </g>
        <svg viewBox="0 0 15 15" width="100%" height="30px" preserveAspectRatio="xMaxYMin meet">
         <g id="arrow_out" transform="scale(0.3 0.3)">
          <a xlink:href="ConditionParser_8h__dep__incl_org.svg" target="_base">
           <rect id="button" ry="5" rx="5" y="6" x="6" height="38" width="38"
                fill="#f2f5e9" fill-opacity="0.5" stroke="#606060" stroke-width="1.0"/>
           <path id="arrow"
             d="M 11.500037,31.436501 C 11.940474,20.09759 22.043105,11.32322 32.158766,21.979434 L 37.068811,17.246167 C 37.068811,17.246167 37.088388,32 37.088388,32 L 22.160133,31.978069 C 22.160133,31.978069 26.997745,27.140456 26.997745,27.140456 C 18.528582,18.264221 13.291696,25.230495 11.500037,31.436501 z"
             style="fill:#404040;"/>
          </a>
         </g>
        </svg>
</svg>
