<?xml version="1.0" encoding="UTF-8" standalone="no"?>
<!DOCTYPE svg PUBLIC "-//W3C//DTD SVG 1.1//EN"
 "http://www.w3.org/Graphics/SVG/1.1/DTD/svg11.dtd">
<!-- Generated by graphviz version 2.36.0 (20140111.2315)
 -->
<!-- Title: /home/travis/build/mgerhardy/simpleai/src/ai/filter/Difference.h Pages: 1 -->
<svg width="2144pt" height="610pt"
 viewBox="0.00 0.00 2144.12 610.00" xmlns="http://www.w3.org/2000/svg" xmlns:xlink="http://www.w3.org/1999/xlink">
<g id="graph0" class="graph" transform="scale(1 1) rotate(0) translate(4 606)">
<title>/home/travis/build/mgerhardy/simpleai/src/ai/filter/Difference.h</title>
<polygon fill="white" stroke="none" points="-4,4 -4,-606 2140.12,-606 2140.12,4 -4,4"/>
<!-- Node1 -->
<g id="node1" class="node"><title>Node1</title>
<polygon fill="#bfbfbf" stroke="black" points="635,-560.5 635,-601.5 757,-601.5 757,-560.5 635,-560.5"/>
<text text-anchor="start" x="643" y="-589.5" font-family="Helvetica,sans-Serif" font-size="10.00">/home/travis/build</text>
<text text-anchor="start" x="643" y="-578.5" font-family="Helvetica,sans-Serif" font-size="10.00">/mgerhardy/simpleai</text>
<text text-anchor="middle" x="696" y="-567.5" font-family="Helvetica,sans-Serif" font-size="10.00">/src/ai/filter/Difference.h</text>
</g>
<!-- Node2 -->
<g id="node2" class="node"><title>Node2</title>
<g id="a_node2"><a xlink:href="IFilter_8h.html" target="_top" xlink:title="filter/IFilter.h">
<polygon fill="white" stroke="black" points="692.5,-504.5 692.5,-523.5 763.5,-523.5 763.5,-504.5 692.5,-504.5"/>
<text text-anchor="middle" x="728" y="-511.5" font-family="Helvetica,sans-Serif" font-size="10.00">filter/IFilter.h</text>
</a>
</g>
</g>
<!-- Node1&#45;&gt;Node2 -->
<g id="edge1" class="edge"><title>Node1&#45;&gt;Node2</title>
<path fill="none" stroke="midnightblue" d="M705.601,-560.498C709.941,-551.682 715.033,-541.339 719.265,-532.743"/>
<polygon fill="midnightblue" stroke="midnightblue" points="722.464,-534.17 723.74,-523.652 716.183,-531.078 722.464,-534.17"/>
</g>
<!-- Node28 -->
<g id="node28" class="node"><title>Node28</title>
<polygon fill="white" stroke="#bfbfbf" points="616,-224.5 616,-243.5 672,-243.5 672,-224.5 616,-224.5"/>
<text text-anchor="middle" x="644" y="-231.5" font-family="Helvetica,sans-Serif" font-size="10.00">algorithm</text>
</g>
<!-- Node1&#45;&gt;Node28 -->
<g id="edge85" class="edge"><title>Node1&#45;&gt;Node28</title>
<path fill="none" stroke="midnightblue" d="M687.425,-560.298C677.946,-536.692 664,-495.722 664,-459 664,-459 664,-459 664,-345 664,-312.438 655.412,-275.315 649.491,-253.592"/>
<polygon fill="midnightblue" stroke="midnightblue" points="652.793,-252.408 646.697,-243.742 646.058,-254.317 652.793,-252.408"/>
</g>
<!-- Node3 -->
<g id="node3" class="node"><title>Node3</title>
<polygon fill="white" stroke="#bfbfbf" points="167.5,-112.5 167.5,-131.5 196.5,-131.5 196.5,-112.5 167.5,-112.5"/>
<text text-anchor="middle" x="182" y="-119.5" font-family="Helvetica,sans-Serif" font-size="10.00">list</text>
</g>
<!-- Node2&#45;&gt;Node3 -->
<g id="edge2" class="edge"><title>Node2&#45;&gt;Node3</title>
<path fill="none" stroke="midnightblue" d="M692.417,-512.03C581.196,-508.728 241.199,-496.505 135,-468 70.684,-450.737 0,-469.593 0,-403 0,-403 0,-403 0,-233 0,-160.252 107.822,-134.324 157.486,-126.24"/>
<polygon fill="midnightblue" stroke="midnightblue" points="158.05,-129.695 167.414,-124.737 157.003,-122.774 158.05,-129.695"/>
</g>
<!-- Node4 -->
<g id="node4" class="node"><title>Node4</title>
<polygon fill="white" stroke="#bfbfbf" points="240,-112.5 240,-131.5 284,-131.5 284,-112.5 240,-112.5"/>
<text text-anchor="middle" x="262" y="-119.5" font-family="Helvetica,sans-Serif" font-size="10.00">vector</text>
</g>
<!-- Node2&#45;&gt;Node4 -->
<g id="edge3" class="edge"><title>Node2&#45;&gt;Node4</title>
<path fill="none" stroke="midnightblue" d="M692.356,-511.125C551.063,-503.229 38,-469.945 38,-403 38,-403 38,-403 38,-233 38,-190.729 168.151,-148.987 230.036,-131.528"/>
<polygon fill="midnightblue" stroke="midnightblue" points="231.005,-134.892 239.703,-128.842 229.131,-128.147 231.005,-134.892"/>
</g>
<!-- Node5 -->
<g id="node5" class="node"><title>Node5</title>
<g id="a_node5"><a xlink:href="ICharacter_8h.html" target="_top" xlink:title="ICharacter.h">
<polygon fill="white" stroke="black" points="1247.5,-224.5 1247.5,-243.5 1318.5,-243.5 1318.5,-224.5 1247.5,-224.5"/>
<text text-anchor="middle" x="1283" y="-231.5" font-family="Helvetica,sans-Serif" font-size="10.00">ICharacter.h</text>
</a>
</g>
</g>
<!-- Node2&#45;&gt;Node5 -->
<g id="edge4" class="edge"><title>Node2&#45;&gt;Node5</title>
<path fill="none" stroke="midnightblue" d="M763.71,-512.551C925.964,-510.342 1587.12,-499.431 1617,-468 1717.37,-362.426 1439.84,-275.867 1327.68,-246.099"/>
<polygon fill="midnightblue" stroke="midnightblue" points="1328.55,-242.709 1317.99,-243.56 1326.78,-249.481 1328.55,-242.709"/>
</g>
<!-- Node25 -->
<g id="node25" class="node"><title>Node25</title>
<g id="a_node25"><a xlink:href="AI_8h.html" target="_top" xlink:title="AI.h">
<polygon fill="white" stroke="black" points="1099.5,-448.5 1099.5,-467.5 1134.5,-467.5 1134.5,-448.5 1099.5,-448.5"/>
<text text-anchor="middle" x="1117" y="-455.5" font-family="Helvetica,sans-Serif" font-size="10.00">AI.h</text>
</a>
</g>
</g>
<!-- Node2&#45;&gt;Node25 -->
<g id="edge26" class="edge"><title>Node2&#45;&gt;Node25</title>
<path fill="none" stroke="midnightblue" d="M763.552,-508.065C840.284,-497.413 1020.06,-472.457 1089.21,-462.857"/>
<polygon fill="midnightblue" stroke="midnightblue" points="1089.91,-466.295 1099.33,-461.453 1088.94,-459.361 1089.91,-466.295"/>
</g>
<!-- Node31 -->
<g id="node31" class="node"><title>Node31</title>
<g id="a_node31"><a xlink:href="MemoryAllocator_8h.html" target="_top" xlink:title="common/MemoryAllocator.h">
<polygon fill="white" stroke="black" points="420.5,-224.5 420.5,-243.5 559.5,-243.5 559.5,-224.5 420.5,-224.5"/>
<text text-anchor="middle" x="490" y="-231.5" font-family="Helvetica,sans-Serif" font-size="10.00">common/MemoryAllocator.h</text>
</a>
</g>
</g>
<!-- Node2&#45;&gt;Node31 -->
<g id="edge83" class="edge"><title>Node2&#45;&gt;Node31</title>
<path fill="none" stroke="midnightblue" d="M692.078,-508.987C639.187,-500.955 541.796,-477.608 497,-412 463.671,-363.186 476.442,-287.9 484.877,-253.406"/>
<polygon fill="midnightblue" stroke="midnightblue" points="488.265,-254.284 487.4,-243.725 481.491,-252.519 488.265,-254.284"/>
</g>
<!-- Node34 -->
<g id="node34" class="node"><title>Node34</title>
<g id="a_node34"><a xlink:href="Thread_8h.html" target="_top" xlink:title="common/Thread.h">
<polygon fill="white" stroke="black" points="1157.5,-168.5 1157.5,-187.5 1252.5,-187.5 1252.5,-168.5 1157.5,-168.5"/>
<text text-anchor="middle" x="1205" y="-175.5" font-family="Helvetica,sans-Serif" font-size="10.00">common/Thread.h</text>
</a>
</g>
</g>
<!-- Node2&#45;&gt;Node34 -->
<g id="edge84" class="edge"><title>Node2&#45;&gt;Node34</title>
<path fill="none" stroke="midnightblue" d="M763.526,-511.525C917.775,-504.763 1524.15,-474.345 1579,-412 1681.82,-295.123 1384.88,-216.835 1258.73,-189.636"/>
<polygon fill="midnightblue" stroke="midnightblue" points="1259.38,-186.195 1248.87,-187.539 1257.92,-193.042 1259.38,-186.195"/>
</g>
<!-- Node6 -->
<g id="node6" class="node"><title>Node6</title>
<g id="a_node6"><a xlink:href="NonCopyable_8h.html" target="_top" xlink:title="common/NonCopyable.h">
<polygon fill="white" stroke="black" points="1028.5,-112.5 1028.5,-131.5 1153.5,-131.5 1153.5,-112.5 1028.5,-112.5"/>
<text text-anchor="middle" x="1091" y="-119.5" font-family="Helvetica,sans-Serif" font-size="10.00">common/NonCopyable.h</text>
</a>
</g>
</g>
<!-- Node5&#45;&gt;Node6 -->
<g id="edge5" class="edge"><title>Node5&#45;&gt;Node6</title>
<path fill="none" stroke="midnightblue" d="M1247.45,-226.532C1218.82,-220.11 1178.46,-208.231 1148,-188 1129.13,-175.465 1112.7,-155.116 1102.39,-140.524"/>
<polygon fill="midnightblue" stroke="midnightblue" points="1105.05,-138.211 1096.53,-131.907 1099.26,-142.145 1105.05,-138.211"/>
</g>
<!-- Node7 -->
<g id="node7" class="node"><title>Node7</title>
<g id="a_node7"><a xlink:href="Math_8h.html" target="_top" xlink:title="common/Math.h">
<polygon fill="white" stroke="black" points="1617.5,-168.5 1617.5,-187.5 1704.5,-187.5 1704.5,-168.5 1617.5,-168.5"/>
<text text-anchor="middle" x="1661" y="-175.5" font-family="Helvetica,sans-Serif" font-size="10.00">common/Math.h</text>
</a>
</g>
</g>
<!-- Node5&#45;&gt;Node7 -->
<g id="edge6" class="edge"><title>Node5&#45;&gt;Node7</title>
<path fill="none" stroke="midnightblue" d="M1318.56,-227.92C1385.13,-218.409 1528.91,-197.869 1607.33,-186.667"/>
<polygon fill="midnightblue" stroke="midnightblue" points="1608.08,-190.096 1617.49,-185.216 1607.09,-183.166 1608.08,-190.096"/>
</g>
<!-- Node8 -->
<g id="node8" class="node"><title>Node8</title>
<g id="a_node8"><a xlink:href="Types_8h.html" target="_top" xlink:title="Types.h">
<polygon fill="white" stroke="black" points="1359,-112.5 1359,-131.5 1411,-131.5 1411,-112.5 1359,-112.5"/>
<text text-anchor="middle" x="1385" y="-119.5" font-family="Helvetica,sans-Serif" font-size="10.00">Types.h</text>
</a>
</g>
</g>
<!-- Node5&#45;&gt;Node8 -->
<g id="edge23" class="edge"><title>Node5&#45;&gt;Node8</title>
<path fill="none" stroke="midnightblue" d="M1289.84,-224.34C1299.99,-211.644 1319.77,-187.384 1338,-168 1347.58,-157.816 1358.88,-146.963 1368,-138.467"/>
<polygon fill="midnightblue" stroke="midnightblue" points="1370.37,-141.036 1375.35,-131.683 1365.63,-135.89 1370.37,-141.036"/>
</g>
<!-- Node23 -->
<g id="node23" class="node"><title>Node23</title>
<polygon fill="white" stroke="#bfbfbf" points="1295,-112.5 1295,-131.5 1341,-131.5 1341,-112.5 1295,-112.5"/>
<text text-anchor="middle" x="1318" y="-119.5" font-family="Helvetica,sans-Serif" font-size="10.00">atomic</text>
</g>
<!-- Node5&#45;&gt;Node23 -->
<g id="edge24" class="edge"><title>Node5&#45;&gt;Node23</title>
<path fill="none" stroke="midnightblue" d="M1285.75,-224.368C1291.42,-206.537 1304.54,-165.295 1312.19,-141.272"/>
<polygon fill="midnightblue" stroke="midnightblue" points="1315.57,-142.182 1315.27,-131.591 1308.9,-140.059 1315.57,-142.182"/>
</g>
<!-- Node24 -->
<g id="node24" class="node"><title>Node24</title>
<polygon fill="white" stroke="#bfbfbf" points="567,-112.5 567,-131.5 619,-131.5 619,-112.5 567,-112.5"/>
<text text-anchor="middle" x="593" y="-119.5" font-family="Helvetica,sans-Serif" font-size="10.00">memory</text>
</g>
<!-- Node5&#45;&gt;Node24 -->
<g id="edge25" class="edge"><title>Node5&#45;&gt;Node24</title>
<path fill="none" stroke="midnightblue" d="M1247.25,-231.603C1145.44,-227.356 855.411,-213.315 764,-188 744.461,-182.589 741.725,-175.775 723,-168 691.706,-155.007 655.17,-142.594 628.814,-134.109"/>
<polygon fill="midnightblue" stroke="midnightblue" points="629.835,-130.761 619.244,-131.056 627.707,-137.43 629.835,-130.761"/>
</g>
<!-- Node7&#45;&gt;Node8 -->
<g id="edge7" class="edge"><title>Node7&#45;&gt;Node8</title>
<path fill="none" stroke="midnightblue" d="M1617.28,-169.746C1570.94,-161.854 1495.41,-148.417 1421.3,-132.176"/>
<polygon fill="midnightblue" stroke="midnightblue" points="1421.85,-128.713 1411.33,-129.972 1420.34,-135.548 1421.85,-128.713"/>
</g>
<!-- Node16 -->
<g id="node16" class="node"><title>Node16</title>
<polygon fill="white" stroke="#bfbfbf" points="1803,-112.5 1803,-131.5 1873,-131.5 1873,-112.5 1803,-112.5"/>
<text text-anchor="middle" x="1838" y="-119.5" font-family="Helvetica,sans-Serif" font-size="10.00">glm/glm.hpp</text>
</g>
<!-- Node7&#45;&gt;Node16 -->
<g id="edge16" class="edge"><title>Node7&#45;&gt;Node16</title>
<path fill="none" stroke="midnightblue" d="M1689.05,-168.444C1719.08,-159.28 1766.91,-144.688 1800.24,-134.519"/>
<polygon fill="midnightblue" stroke="midnightblue" points="1801.54,-137.782 1810.09,-131.516 1799.5,-131.087 1801.54,-137.782"/>
</g>
<!-- Node17 -->
<g id="node17" class="node"><title>Node17</title>
<polygon fill="white" stroke="#bfbfbf" points="1891.5,-112.5 1891.5,-131.5 2004.5,-131.5 2004.5,-112.5 1891.5,-112.5"/>
<text text-anchor="middle" x="1948" y="-119.5" font-family="Helvetica,sans-Serif" font-size="10.00">glm/gtc/constants.hpp</text>
</g>
<!-- Node7&#45;&gt;Node17 -->
<g id="edge17" class="edge"><title>Node7&#45;&gt;Node17</title>
<path fill="none" stroke="midnightblue" d="M1704.59,-168.799C1754.93,-159.327 1837.83,-143.728 1892.68,-133.409"/>
<polygon fill="midnightblue" stroke="midnightblue" points="1893.4,-136.835 1902.58,-131.547 1892.1,-129.956 1893.4,-136.835"/>
</g>
<!-- Node18 -->
<g id="node18" class="node"><title>Node18</title>
<polygon fill="white" stroke="#bfbfbf" points="2022.5,-112.5 2022.5,-131.5 2123.5,-131.5 2123.5,-112.5 2022.5,-112.5"/>
<text text-anchor="middle" x="2073" y="-119.5" font-family="Helvetica,sans-Serif" font-size="10.00">glm/gtc/epsilon.hpp</text>
</g>
<!-- Node7&#45;&gt;Node18 -->
<g id="edge18" class="edge"><title>Node7&#45;&gt;Node18</title>
<path fill="none" stroke="midnightblue" d="M1704.67,-171.727C1769.36,-163.848 1894.73,-148.317 2012.04,-132.107"/>
<polygon fill="midnightblue" stroke="midnightblue" points="2012.85,-135.529 2022.27,-130.688 2011.89,-128.595 2012.85,-135.529"/>
</g>
<!-- Node19 -->
<g id="node19" class="node"><title>Node19</title>
<polygon fill="white" stroke="#bfbfbf" points="1429.5,-112.5 1429.5,-131.5 1554.5,-131.5 1554.5,-112.5 1429.5,-112.5"/>
<text text-anchor="middle" x="1492" y="-119.5" font-family="Helvetica,sans-Serif" font-size="10.00">glm/gtx/compatibility.hpp</text>
</g>
<!-- Node7&#45;&gt;Node19 -->
<g id="edge19" class="edge"><title>Node7&#45;&gt;Node19</title>
<path fill="none" stroke="midnightblue" d="M1634.22,-168.444C1605.67,-159.32 1560.27,-144.813 1528.46,-134.651"/>
<polygon fill="midnightblue" stroke="midnightblue" points="1529.24,-131.226 1518.65,-131.516 1527.11,-137.894 1529.24,-131.226"/>
</g>
<!-- Node20 -->
<g id="node20" class="node"><title>Node20</title>
<polygon fill="white" stroke="#bfbfbf" points="1573,-112.5 1573,-131.5 1665,-131.5 1665,-112.5 1573,-112.5"/>
<text text-anchor="middle" x="1619" y="-119.5" font-family="Helvetica,sans-Serif" font-size="10.00">glm/gtx/norm.hpp</text>
</g>
<!-- Node7&#45;&gt;Node20 -->
<g id="edge20" class="edge"><title>Node7&#45;&gt;Node20</title>
<path fill="none" stroke="midnightblue" d="M1654.06,-168.083C1648.07,-160.377 1639.25,-149.033 1631.95,-139.653"/>
<polygon fill="midnightblue" stroke="midnightblue" points="1634.71,-137.496 1625.81,-131.751 1629.18,-141.793 1634.71,-137.496"/>
</g>
<!-- Node21 -->
<g id="node21" class="node"><title>Node21</title>
<polygon fill="white" stroke="#bfbfbf" points="1683,-112.5 1683,-131.5 1723,-131.5 1723,-112.5 1683,-112.5"/>
<text text-anchor="middle" x="1703" y="-119.5" font-family="Helvetica,sans-Serif" font-size="10.00">limits</text>
</g>
<!-- Node7&#45;&gt;Node21 -->
<g id="edge21" class="edge"><title>Node7&#45;&gt;Node21</title>
<path fill="none" stroke="midnightblue" d="M1667.94,-168.083C1673.93,-160.377 1682.75,-149.033 1690.05,-139.653"/>
<polygon fill="midnightblue" stroke="midnightblue" points="1692.82,-141.793 1696.19,-131.751 1687.29,-137.496 1692.82,-141.793"/>
</g>
<!-- Node22 -->
<g id="node22" class="node"><title>Node22</title>
<polygon fill="white" stroke="#bfbfbf" points="1741,-112.5 1741,-131.5 1785,-131.5 1785,-112.5 1741,-112.5"/>
<text text-anchor="middle" x="1763" y="-119.5" font-family="Helvetica,sans-Serif" font-size="10.00">cmath</text>
</g>
<!-- Node7&#45;&gt;Node22 -->
<g id="edge22" class="edge"><title>Node7&#45;&gt;Node22</title>
<path fill="none" stroke="midnightblue" d="M1677.39,-168.324C1693.67,-159.703 1718.87,-146.364 1737.72,-136.386"/>
<polygon fill="midnightblue" stroke="midnightblue" points="1739.45,-139.427 1746.65,-131.655 1736.18,-133.24 1739.45,-139.427"/>
</g>
<!-- Node9 -->
<g id="node9" class="node"><title>Node9</title>
<g id="a_node9"><a xlink:href="Log_8h.html" target="_top" xlink:title="Log.h">
<polygon fill="white" stroke="black" points="990.5,-56.5 990.5,-75.5 1031.5,-75.5 1031.5,-56.5 990.5,-56.5"/>
<text text-anchor="middle" x="1011" y="-63.5" font-family="Helvetica,sans-Serif" font-size="10.00">Log.h</text>
</a>
</g>
</g>
<!-- Node8&#45;&gt;Node9 -->
<g id="edge8" class="edge"><title>Node8&#45;&gt;Node9</title>
<path fill="none" stroke="midnightblue" d="M1358.7,-113.878C1355.78,-113.193 1352.83,-112.55 1350,-112 1237.52,-90.155 1101.97,-75.6724 1042.06,-69.8664"/>
<polygon fill="midnightblue" stroke="midnightblue" points="1042.06,-66.3509 1031.78,-68.8834 1041.4,-73.3191 1042.06,-66.3509"/>
</g>
<!-- Node10 -->
<g id="node10" class="node"><title>Node10</title>
<polygon fill="white" stroke="#bfbfbf" points="1061.5,-0.5 1061.5,-19.5 1104.5,-19.5 1104.5,-0.5 1061.5,-0.5"/>
<text text-anchor="middle" x="1083" y="-7.5" font-family="Helvetica,sans-Serif" font-size="10.00">cstdio</text>
</g>
<!-- Node8&#45;&gt;Node10 -->
<g id="edge15" class="edge"><title>Node8&#45;&gt;Node10</title>
<path fill="none" stroke="midnightblue" d="M1385.05,-112.308C1384.62,-98.1893 1381.58,-70.4023 1365,-56 1328.13,-23.9685 1180.97,-14.5868 1115.13,-11.9643"/>
<polygon fill="midnightblue" stroke="midnightblue" points="1115.04,-8.4589 1104.92,-11.5864 1114.78,-15.4541 1115.04,-8.4589"/>
</g>
<!-- Node13 -->
<g id="node13" class="node"><title>Node13</title>
<polygon fill="white" stroke="#bfbfbf" points="371.5,-56.5 371.5,-75.5 412.5,-75.5 412.5,-56.5 371.5,-56.5"/>
<text text-anchor="middle" x="392" y="-63.5" font-family="Helvetica,sans-Serif" font-size="10.00">string</text>
</g>
<!-- Node8&#45;&gt;Node13 -->
<g id="edge12" class="edge"><title>Node8&#45;&gt;Node13</title>
<path fill="none" stroke="midnightblue" d="M1358.75,-113.634C1355.81,-112.995 1352.85,-112.429 1350,-112 1164.86,-84.1484 565.687,-70.5032 422.8,-67.5982"/>
<polygon fill="midnightblue" stroke="midnightblue" points="422.645,-64.0945 412.577,-67.3929 422.505,-71.0931 422.645,-64.0945"/>
</g>
<!-- Node14 -->
<g id="node14" class="node"><title>Node14</title>
<polygon fill="white" stroke="#bfbfbf" points="1761.5,-56.5 1761.5,-75.5 1844.5,-75.5 1844.5,-56.5 1761.5,-56.5"/>
<text text-anchor="middle" x="1803" y="-63.5" font-family="Helvetica,sans-Serif" font-size="10.00">unordered_map</text>
</g>
<!-- Node8&#45;&gt;Node14 -->
<g id="edge13" class="edge"><title>Node8&#45;&gt;Node14</title>
<path fill="none" stroke="midnightblue" d="M1411.29,-113.835C1414.22,-113.158 1417.16,-112.529 1420,-112 1537.55,-90.0844 1677.49,-76.8454 1751.37,-70.8432"/>
<polygon fill="midnightblue" stroke="midnightblue" points="1751.66,-74.3314 1761.35,-70.0441 1751.1,-67.3537 1751.66,-74.3314"/>
</g>
<!-- Node15 -->
<g id="node15" class="node"><title>Node15</title>
<polygon fill="white" stroke="#bfbfbf" points="1307.5,-56.5 1307.5,-75.5 1356.5,-75.5 1356.5,-56.5 1307.5,-56.5"/>
<text text-anchor="middle" x="1332" y="-63.5" font-family="Helvetica,sans-Serif" font-size="10.00">cassert</text>
</g>
<!-- Node8&#45;&gt;Node15 -->
<g id="edge14" class="edge"><title>Node8&#45;&gt;Node15</title>
<path fill="none" stroke="midnightblue" d="M1376.25,-112.083C1368.53,-104.22 1357.1,-92.5688 1347.78,-83.0813"/>
<polygon fill="midnightblue" stroke="midnightblue" points="1350.09,-80.4363 1340.59,-75.7511 1345.1,-85.3396 1350.09,-80.4363"/>
</g>
<!-- Node9&#45;&gt;Node10 -->
<g id="edge9" class="edge"><title>Node9&#45;&gt;Node10</title>
<path fill="none" stroke="midnightblue" d="M1022.57,-56.324C1033.42,-48.1849 1049.88,-35.8395 1062.88,-26.0874"/>
<polygon fill="midnightblue" stroke="midnightblue" points="1065.32,-28.6339 1071.22,-19.8339 1061.12,-23.0339 1065.32,-28.6339"/>
</g>
<!-- Node11 -->
<g id="node11" class="node"><title>Node11</title>
<polygon fill="white" stroke="#bfbfbf" points="929.5,-0.5 929.5,-19.5 978.5,-19.5 978.5,-0.5 929.5,-0.5"/>
<text text-anchor="middle" x="954" y="-7.5" font-family="Helvetica,sans-Serif" font-size="10.00">cstdarg</text>
</g>
<!-- Node9&#45;&gt;Node11 -->
<g id="edge10" class="edge"><title>Node9&#45;&gt;Node11</title>
<path fill="none" stroke="midnightblue" d="M1001.84,-56.324C993.499,-48.4196 980.968,-36.5482 970.823,-26.9377"/>
<polygon fill="midnightblue" stroke="midnightblue" points="972.991,-24.1705 963.325,-19.8339 968.177,-29.2522 972.991,-24.1705"/>
</g>
<!-- Node12 -->
<g id="node12" class="node"><title>Node12</title>
<polygon fill="white" stroke="#bfbfbf" points="997,-0.5 997,-19.5 1043,-19.5 1043,-0.5 997,-0.5"/>
<text text-anchor="middle" x="1020" y="-7.5" font-family="Helvetica,sans-Serif" font-size="10.00">cstring</text>
</g>
<!-- Node9&#45;&gt;Node12 -->
<g id="edge11" class="edge"><title>Node9&#45;&gt;Node12</title>
<path fill="none" stroke="midnightblue" d="M1012.49,-56.083C1013.68,-48.9272 1015.39,-38.6353 1016.88,-29.6911"/>
<polygon fill="midnightblue" stroke="midnightblue" points="1020.35,-30.1904 1018.54,-19.7511 1013.45,-29.0396 1020.35,-30.1904"/>
</g>
<!-- Node25&#45;&gt;Node5 -->
<g id="edge37" class="edge"><title>Node25&#45;&gt;Node5</title>
<path fill="none" stroke="midnightblue" d="M1134.61,-457.49C1166.44,-457.32 1233.28,-451.916 1266,-412 1303.79,-365.897 1294.24,-288.637 1287.27,-253.455"/>
<polygon fill="midnightblue" stroke="midnightblue" points="1290.68,-252.649 1285.16,-243.604 1283.83,-254.115 1290.68,-252.649"/>
</g>
<!-- Node25&#45;&gt;Node6 -->
<g id="edge81" class="edge"><title>Node25&#45;&gt;Node6</title>
<path fill="none" stroke="midnightblue" d="M1113.49,-448.325C1106.4,-429.959 1091,-385.658 1091,-347 1091,-347 1091,-347 1091,-233 1091,-200.948 1091,-163.643 1091,-141.749"/>
<polygon fill="midnightblue" stroke="midnightblue" points="1094.5,-141.558 1091,-131.558 1087.5,-141.558 1094.5,-141.558"/>
</g>
<!-- Node25&#45;&gt;Node7 -->
<g id="edge82" class="edge"><title>Node25&#45;&gt;Node7</title>
<path fill="none" stroke="midnightblue" d="M1134.75,-457.309C1202.63,-458.138 1444.8,-457.782 1503,-412 1527.2,-392.959 1527,-377.795 1527,-347 1527,-347 1527,-347 1527,-289 1527,-238.394 1584.8,-206.812 1624.48,-191.095"/>
<polygon fill="midnightblue" stroke="midnightblue" points="1625.77,-194.347 1633.88,-187.529 1623.29,-187.802 1625.77,-194.347"/>
</g>
<!-- Node25&#45;&gt;Node8 -->
<g id="edge80" class="edge"><title>Node25&#45;&gt;Node8</title>
<path fill="none" stroke="midnightblue" d="M1134.94,-455.65C1209.25,-449.579 1489,-421.756 1489,-347 1489,-347 1489,-347 1489,-233 1489,-188.223 1442.94,-154.325 1412.12,-136.658"/>
<polygon fill="midnightblue" stroke="midnightblue" points="1413.56,-133.457 1403.12,-131.702 1410.19,-139.59 1413.56,-133.457"/>
</g>
<!-- Node25&#45;&gt;Node14 -->
<g id="edge27" class="edge"><title>Node25&#45;&gt;Node14</title>
<path fill="none" stroke="midnightblue" d="M1134.52,-457.071C1191.87,-456.883 1378.72,-452.953 1526,-412 1561.73,-402.065 2112.02,-163.244 2132,-132 2136.79,-124.512 2137.84,-118.698 2132,-112 2096.66,-71.4991 1938.24,-66.1245 1854.8,-66.1926"/>
<polygon fill="midnightblue" stroke="midnightblue" points="1854.75,-62.6926 1844.77,-66.2274 1854.78,-69.6926 1854.75,-62.6926"/>
</g>
<!-- Node25&#45;&gt;Node24 -->
<g id="edge28" class="edge"><title>Node25&#45;&gt;Node24</title>
<path fill="none" stroke="midnightblue" d="M1099.48,-455.777C1024.94,-450.103 738,-423.307 738,-347 738,-347 738,-347 738,-289 738,-288.385 644.273,-181.458 607.529,-139.563"/>
<polygon fill="midnightblue" stroke="midnightblue" points="610.021,-137.096 600.796,-131.886 604.759,-141.712 610.021,-137.096"/>
</g>
<!-- Node26 -->
<g id="node26" class="node"><title>Node26</title>
<g id="a_node26"><a xlink:href="GroupId_8h.html" target="_top" xlink:title="group/GroupId.h">
<polygon fill="white" stroke="black" points="1171,-392.5 1171,-411.5 1257,-411.5 1257,-392.5 1171,-392.5"/>
<text text-anchor="middle" x="1214" y="-399.5" font-family="Helvetica,sans-Serif" font-size="10.00">group/GroupId.h</text>
</a>
</g>
</g>
<!-- Node25&#45;&gt;Node26 -->
<g id="edge29" class="edge"><title>Node25&#45;&gt;Node26</title>
<path fill="none" stroke="midnightblue" d="M1132.58,-448.324C1148,-439.743 1171.81,-426.486 1189.71,-416.522"/>
<polygon fill="midnightblue" stroke="midnightblue" points="1191.42,-419.577 1198.45,-411.655 1188.01,-413.461 1191.42,-419.577"/>
</g>
<!-- Node27 -->
<g id="node27" class="node"><title>Node27</title>
<g id="a_node27"><a xlink:href="AggroMgr_8h.html" target="_top" xlink:title="aggro/AggroMgr.h">
<polygon fill="white" stroke="black" points="843,-280.5 843,-299.5 937,-299.5 937,-280.5 843,-280.5"/>
<text text-anchor="middle" x="890" y="-287.5" font-family="Helvetica,sans-Serif" font-size="10.00">aggro/AggroMgr.h</text>
</a>
</g>
</g>
<!-- Node25&#45;&gt;Node27 -->
<g id="edge30" class="edge"><title>Node25&#45;&gt;Node27</title>
<path fill="none" stroke="midnightblue" d="M1099.46,-451.856C1077.56,-444.933 1039.51,-431.23 1011,-412 966.056,-381.683 923.704,-333.105 903.085,-307.704"/>
<polygon fill="midnightblue" stroke="midnightblue" points="905.708,-305.38 896.73,-299.754 900.24,-309.751 905.708,-305.38"/>
</g>
<!-- Node30 -->
<g id="node30" class="node"><title>Node30</title>
<g id="a_node30"><a xlink:href="TreeNode_8h.html" target="_top" xlink:title="tree/TreeNode.h">
<polygon fill="white" stroke="black" points="506.5,-392.5 506.5,-411.5 593.5,-411.5 593.5,-392.5 506.5,-392.5"/>
<text text-anchor="middle" x="550" y="-399.5" font-family="Helvetica,sans-Serif" font-size="10.00">tree/TreeNode.h</text>
</a>
</g>
</g>
<!-- Node25&#45;&gt;Node30 -->
<g id="edge38" class="edge"><title>Node25&#45;&gt;Node30</title>
<path fill="none" stroke="midnightblue" d="M1099.41,-455.325C1024.12,-448.155 727.306,-419.886 604.076,-408.15"/>
<polygon fill="midnightblue" stroke="midnightblue" points="604.04,-404.631 593.753,-407.167 603.377,-411.599 604.04,-404.631"/>
</g>
<!-- Node25&#45;&gt;Node34 -->
<g id="edge79" class="edge"><title>Node25&#45;&gt;Node34</title>
<path fill="none" stroke="midnightblue" d="M1119.73,-448.375C1132,-409.621 1182.17,-251.133 1199.26,-197.125"/>
<polygon fill="midnightblue" stroke="midnightblue" points="1202.62,-198.114 1202.3,-187.524 1195.95,-196.002 1202.62,-198.114"/>
</g>
<!-- Node42 -->
<g id="node42" class="node"><title>Node42</title>
<g id="a_node42"><a xlink:href="ITreeLoader_8h.html" target="_top" xlink:title="tree/loaders/ITreeLoader.h">
<polygon fill="white" stroke="black" points="921.5,-224.5 921.5,-243.5 1052.5,-243.5 1052.5,-224.5 921.5,-224.5"/>
<text text-anchor="middle" x="987" y="-231.5" font-family="Helvetica,sans-Serif" font-size="10.00">tree/loaders/ITreeLoader.h</text>
</a>
</g>
</g>
<!-- Node25&#45;&gt;Node42 -->
<g id="edge71" class="edge"><title>Node25&#45;&gt;Node42</title>
<path fill="none" stroke="midnightblue" d="M1107.99,-448.264C1099.36,-439.588 1086.31,-425.644 1077,-412 1040,-357.753 1008.24,-286.247 994.4,-253.193"/>
<polygon fill="midnightblue" stroke="midnightblue" points="997.465,-251.445 990.413,-243.538 990.995,-254.117 997.465,-251.445"/>
</g>
<!-- Node27&#45;&gt;Node4 -->
<g id="edge31" class="edge"><title>Node27&#45;&gt;Node4</title>
<path fill="none" stroke="midnightblue" d="M864.291,-280.467C824.857,-267.511 746.969,-242.435 680,-224 537.249,-184.703 364.815,-145.678 294.358,-130.087"/>
<polygon fill="midnightblue" stroke="midnightblue" points="294.851,-126.611 284.331,-127.874 293.342,-133.447 294.851,-126.611"/>
</g>
<!-- Node27&#45;&gt;Node5 -->
<g id="edge33" class="edge"><title>Node27&#45;&gt;Node5</title>
<path fill="none" stroke="midnightblue" d="M937.015,-282.54C1013,-272.099 1161.87,-251.644 1237.12,-241.304"/>
<polygon fill="midnightblue" stroke="midnightblue" points="1237.81,-244.743 1247.24,-239.914 1236.85,-237.808 1237.81,-244.743"/>
</g>
<!-- Node27&#45;&gt;Node24 -->
<g id="edge32" class="edge"><title>Node27&#45;&gt;Node24</title>
<path fill="none" stroke="midnightblue" d="M871.534,-280.487C827.578,-260.145 717.818,-208.857 683,-188 657.139,-172.508 629.284,-151.684 611.524,-137.825"/>
<polygon fill="midnightblue" stroke="midnightblue" points="613.69,-135.076 603.67,-131.635 609.357,-140.574 613.69,-135.076"/>
</g>
<!-- Node27&#45;&gt;Node28 -->
<g id="edge34" class="edge"><title>Node27&#45;&gt;Node28</title>
<path fill="none" stroke="midnightblue" d="M851.021,-280.444C804.67,-270.269 727.827,-253.401 681.938,-243.328"/>
<polygon fill="midnightblue" stroke="midnightblue" points="682.602,-239.89 672.085,-241.165 681.101,-246.728 682.602,-239.89"/>
</g>
<!-- Node29 -->
<g id="node29" class="node"><title>Node29</title>
<g id="a_node29"><a xlink:href="Entry_8h.html" target="_top" xlink:title="aggro/Entry.h">
<polygon fill="white" stroke="black" points="1347.5,-168.5 1347.5,-187.5 1422.5,-187.5 1422.5,-168.5 1347.5,-168.5"/>
<text text-anchor="middle" x="1385" y="-175.5" font-family="Helvetica,sans-Serif" font-size="10.00">aggro/Entry.h</text>
</a>
</g>
</g>
<!-- Node27&#45;&gt;Node29 -->
<g id="edge35" class="edge"><title>Node27&#45;&gt;Node29</title>
<path fill="none" stroke="midnightblue" d="M937.149,-288.401C1035.68,-286.468 1259.85,-278.316 1327,-244 1347.97,-233.285 1364.88,-211.563 1374.92,-196.184"/>
<polygon fill="midnightblue" stroke="midnightblue" points="1377.96,-197.926 1380.26,-187.583 1372.01,-194.236 1377.96,-197.926"/>
</g>
<!-- Node29&#45;&gt;Node8 -->
<g id="edge36" class="edge"><title>Node29&#45;&gt;Node8</title>
<path fill="none" stroke="midnightblue" d="M1385,-168.083C1385,-161.006 1385,-150.861 1385,-141.986"/>
<polygon fill="midnightblue" stroke="midnightblue" points="1388.5,-141.751 1385,-131.751 1381.5,-141.751 1388.5,-141.751"/>
</g>
<!-- Node30&#45;&gt;Node4 -->
<g id="edge67" class="edge"><title>Node30&#45;&gt;Node4</title>
<path fill="none" stroke="midnightblue" d="M506.371,-401.583C413.992,-400.059 201.511,-381.206 133,-244 107.888,-193.708 184.659,-153.468 230.441,-134.621"/>
<polygon fill="midnightblue" stroke="midnightblue" points="231.973,-137.778 239.965,-130.823 229.38,-131.276 231.973,-137.778"/>
</g>
<!-- Node30&#45;&gt;Node8 -->
<g id="edge39" class="edge"><title>Node30&#45;&gt;Node8</title>
<path fill="none" stroke="midnightblue" d="M593.762,-400.317C774.198,-396.932 1451,-378.41 1451,-291 1451,-291 1451,-291 1451,-233 1451,-202.775 1446.73,-193.808 1431,-168 1424.14,-156.753 1413.85,-146.32 1404.73,-138.337"/>
<polygon fill="midnightblue" stroke="midnightblue" points="1406.74,-135.46 1396.82,-131.742 1402.26,-140.836 1406.74,-135.46"/>
</g>
<!-- Node30&#45;&gt;Node13 -->
<g id="edge68" class="edge"><title>Node30&#45;&gt;Node13</title>
<path fill="none" stroke="midnightblue" d="M538.432,-392.291C510.763,-370.714 440.85,-311.604 411,-244 387.326,-190.384 388.3,-119.073 390.396,-85.7059"/>
<polygon fill="midnightblue" stroke="midnightblue" points="393.898,-85.8081 391.145,-75.5771 386.917,-85.2915 393.898,-85.8081"/>
</g>
<!-- Node30&#45;&gt;Node24 -->
<g id="edge69" class="edge"><title>Node30&#45;&gt;Node24</title>
<path fill="none" stroke="midnightblue" d="M550.99,-392.301C555.509,-352.691 574.17,-190.363 579,-168 580.946,-158.992 583.89,-149.199 586.577,-141.055"/>
<polygon fill="midnightblue" stroke="midnightblue" points="589.918,-142.1 589.855,-131.506 583.298,-139.827 589.918,-142.1"/>
</g>
<!-- Node30&#45;&gt;Node28 -->
<g id="edge70" class="edge"><title>Node30&#45;&gt;Node28</title>
<path fill="none" stroke="midnightblue" d="M563.731,-392.191C575.394,-384.069 591.817,-371.021 602,-356 623.966,-323.599 635.582,-278.543 640.696,-253.557"/>
<polygon fill="midnightblue" stroke="midnightblue" points="644.158,-254.087 642.602,-243.607 637.283,-252.77 644.158,-254.087"/>
</g>
<!-- Node30&#45;&gt;Node31 -->
<g id="edge40" class="edge"><title>Node30&#45;&gt;Node31</title>
<path fill="none" stroke="midnightblue" d="M546.774,-392.075C537.289,-365.832 509.354,-288.545 496.548,-253.117"/>
<polygon fill="midnightblue" stroke="midnightblue" points="499.788,-251.783 493.097,-243.568 493.205,-254.162 499.788,-251.783"/>
</g>
<!-- Node32 -->
<g id="node32" class="node"><title>Node32</title>
<g id="a_node32"><a xlink:href="ICondition_8h.html" target="_top" xlink:title="Condition related stuff. ">
<polygon fill="white" stroke="black" points="254,-280.5 254,-299.5 370,-299.5 370,-280.5 254,-280.5"/>
<text text-anchor="middle" x="312" y="-287.5" font-family="Helvetica,sans-Serif" font-size="10.00">conditions/ICondition.h</text>
</a>
</g>
</g>
<!-- Node30&#45;&gt;Node32 -->
<g id="edge42" class="edge"><title>Node30&#45;&gt;Node32</title>
<path fill="none" stroke="midnightblue" d="M531.325,-392.368C489.615,-373.091 388.709,-326.454 339.672,-303.789"/>
<polygon fill="midnightblue" stroke="midnightblue" points="341.134,-300.61 330.589,-299.591 338.198,-306.964 341.134,-300.61"/>
</g>
<!-- Node41 -->
<g id="node41" class="node"><title>Node41</title>
<g id="a_node41"><a xlink:href="True_8h.html" target="_top" xlink:title="conditions/True.h">
<polygon fill="white" stroke="black" points="291,-336.5 291,-355.5 383,-355.5 383,-336.5 291,-336.5"/>
<text text-anchor="middle" x="337" y="-343.5" font-family="Helvetica,sans-Serif" font-size="10.00">conditions/True.h</text>
</a>
</g>
</g>
<!-- Node30&#45;&gt;Node41 -->
<g id="edge65" class="edge"><title>Node30&#45;&gt;Node41</title>
<path fill="none" stroke="midnightblue" d="M516.25,-392.444C479.482,-383.122 420.554,-368.183 380.378,-357.997"/>
<polygon fill="midnightblue" stroke="midnightblue" points="381.146,-354.581 370.593,-355.516 379.426,-361.367 381.146,-354.581"/>
</g>
<!-- Node31&#45;&gt;Node24 -->
<g id="edge41" class="edge"><title>Node31&#45;&gt;Node24</title>
<path fill="none" stroke="midnightblue" d="M489.456,-224.461C489.054,-211.045 490.147,-184.828 503,-168 516.364,-150.503 538.383,-139.327 557.296,-132.49"/>
<polygon fill="midnightblue" stroke="midnightblue" points="558.466,-135.789 566.84,-129.299 556.247,-129.15 558.466,-135.789"/>
</g>
<!-- Node32&#45;&gt;Node4 -->
<g id="edge44" class="edge"><title>Node32&#45;&gt;Node4</title>
<path fill="none" stroke="midnightblue" d="M286.839,-280.378C270.581,-273.343 250.707,-261.645 241,-244 222.664,-210.67 240.087,-165.025 252.331,-140.42"/>
<polygon fill="midnightblue" stroke="midnightblue" points="255.445,-142.017 256.99,-131.535 249.246,-138.766 255.445,-142.017"/>
</g>
<!-- Node32&#45;&gt;Node13 -->
<g id="edge43" class="edge"><title>Node32&#45;&gt;Node13</title>
<path fill="none" stroke="midnightblue" d="M253.871,-282.128C207.48,-275.307 147.876,-263.079 133,-244 108.104,-212.07 50.4208,-216.438 158,-112 186.583,-84.2519 304.592,-72.7856 361.301,-68.8077"/>
<polygon fill="midnightblue" stroke="midnightblue" points="361.717,-72.2879 371.462,-68.1296 361.251,-65.3034 361.717,-72.2879"/>
</g>
<!-- Node32&#45;&gt;Node24 -->
<g id="edge46" class="edge"><title>Node32&#45;&gt;Node24</title>
<path fill="none" stroke="midnightblue" d="M323.19,-280.303C350.578,-259.266 423.594,-204.663 490,-168 512.755,-155.436 539.716,-143.764 560.346,-135.457"/>
<polygon fill="midnightblue" stroke="midnightblue" points="561.913,-138.6 569.918,-131.66 559.332,-132.094 561.913,-138.6"/>
</g>
<!-- Node32&#45;&gt;Node31 -->
<g id="edge47" class="edge"><title>Node32&#45;&gt;Node31</title>
<path fill="none" stroke="midnightblue" d="M340.205,-280.444C370.41,-271.28 418.511,-256.688 452.029,-246.519"/>
<polygon fill="midnightblue" stroke="midnightblue" points="453.374,-249.769 461.927,-243.516 451.342,-243.07 453.374,-249.769"/>
</g>
<!-- Node33 -->
<g id="node33" class="node"><title>Node33</title>
<polygon fill="white" stroke="#bfbfbf" points="142,-224.5 142,-243.5 194,-243.5 194,-224.5 142,-224.5"/>
<text text-anchor="middle" x="168" y="-231.5" font-family="Helvetica,sans-Serif" font-size="10.00">sstream</text>
</g>
<!-- Node32&#45;&gt;Node33 -->
<g id="edge45" class="edge"><title>Node32&#45;&gt;Node33</title>
<path fill="none" stroke="midnightblue" d="M289.183,-280.444C265.168,-271.438 227.171,-257.189 200.131,-247.049"/>
<polygon fill="midnightblue" stroke="midnightblue" points="201.303,-243.751 190.71,-243.516 198.845,-250.305 201.303,-243.751"/>
</g>
<!-- Node32&#45;&gt;Node34 -->
<g id="edge48" class="edge"><title>Node32&#45;&gt;Node34</title>
<path fill="none" stroke="midnightblue" d="M370.257,-288.223C522.657,-285.757 930.338,-276.254 1061,-244 1105.78,-232.945 1153.87,-208.364 1181.6,-192.799"/>
<polygon fill="midnightblue" stroke="midnightblue" points="1183.57,-195.705 1190.51,-187.706 1180.09,-189.626 1183.57,-195.705"/>
</g>
<!-- Node37 -->
<g id="node37" class="node"><title>Node37</title>
<g id="a_node37"><a xlink:href="AIFactories_8h.html" target="_top" xlink:title="AIFactories.h">
<polygon fill="white" stroke="black" points="250.5,-224.5 250.5,-243.5 325.5,-243.5 325.5,-224.5 250.5,-224.5"/>
<text text-anchor="middle" x="288" y="-231.5" font-family="Helvetica,sans-Serif" font-size="10.00">AIFactories.h</text>
</a>
</g>
</g>
<!-- Node32&#45;&gt;Node37 -->
<g id="edge53" class="edge"><title>Node32&#45;&gt;Node37</title>
<path fill="none" stroke="midnightblue" d="M308.037,-280.083C304.787,-272.77 300.081,-262.181 296.046,-253.103"/>
<polygon fill="midnightblue" stroke="midnightblue" points="299.149,-251.468 291.889,-243.751 292.752,-254.311 299.149,-251.468"/>
</g>
<!-- Node34&#45;&gt;Node8 -->
<g id="edge49" class="edge"><title>Node34&#45;&gt;Node8</title>
<path fill="none" stroke="midnightblue" d="M1233.52,-168.444C1264.79,-159.064 1315.01,-143.998 1348.97,-133.809"/>
<polygon fill="midnightblue" stroke="midnightblue" points="1350.38,-137.041 1358.95,-130.815 1348.37,-130.336 1350.38,-137.041"/>
</g>
<!-- Node34&#45;&gt;Node23 -->
<g id="edge52" class="edge"><title>Node34&#45;&gt;Node23</title>
<path fill="none" stroke="midnightblue" d="M1222.91,-168.444C1241.25,-159.675 1270.01,-145.935 1291.09,-135.858"/>
<polygon fill="midnightblue" stroke="midnightblue" points="1292.67,-138.986 1300.18,-131.516 1289.65,-132.67 1292.67,-138.986"/>
</g>
<!-- Node35 -->
<g id="node35" class="node"><title>Node35</title>
<polygon fill="white" stroke="#bfbfbf" points="1233,-112.5 1233,-131.5 1277,-131.5 1277,-112.5 1233,-112.5"/>
<text text-anchor="middle" x="1255" y="-119.5" font-family="Helvetica,sans-Serif" font-size="10.00">thread</text>
</g>
<!-- Node34&#45;&gt;Node35 -->
<g id="edge50" class="edge"><title>Node34&#45;&gt;Node35</title>
<path fill="none" stroke="midnightblue" d="M1213.26,-168.083C1220.46,-160.298 1231.11,-148.801 1239.85,-139.367"/>
<polygon fill="midnightblue" stroke="midnightblue" points="1242.67,-141.467 1246.9,-131.751 1237.53,-136.711 1242.67,-141.467"/>
</g>
<!-- Node36 -->
<g id="node36" class="node"><title>Node36</title>
<polygon fill="white" stroke="#bfbfbf" points="1171,-112.5 1171,-131.5 1215,-131.5 1215,-112.5 1171,-112.5"/>
<text text-anchor="middle" x="1193" y="-119.5" font-family="Helvetica,sans-Serif" font-size="10.00">mutex</text>
</g>
<!-- Node34&#45;&gt;Node36 -->
<g id="edge51" class="edge"><title>Node34&#45;&gt;Node36</title>
<path fill="none" stroke="midnightblue" d="M1203.02,-168.083C1201.43,-160.927 1199.14,-150.635 1197.15,-141.691"/>
<polygon fill="midnightblue" stroke="midnightblue" points="1200.53,-140.754 1194.94,-131.751 1193.7,-142.272 1200.53,-140.754"/>
</g>
<!-- Node37&#45;&gt;Node4 -->
<g id="edge64" class="edge"><title>Node37&#45;&gt;Node4</title>
<path fill="none" stroke="midnightblue" d="M285.96,-224.368C281.764,-206.617 272.085,-165.666 266.396,-141.597"/>
<polygon fill="midnightblue" stroke="midnightblue" points="269.737,-140.518 264.031,-131.591 262.925,-142.128 269.737,-140.518"/>
</g>
<!-- Node38 -->
<g id="node38" class="node"><title>Node38</title>
<g id="a_node38"><a xlink:href="IAIFactory_8h.html" target="_top" xlink:title="IAIFactory.h">
<polygon fill="white" stroke="black" points="290.5,-168.5 290.5,-187.5 361.5,-187.5 361.5,-168.5 290.5,-168.5"/>
<text text-anchor="middle" x="326" y="-175.5" font-family="Helvetica,sans-Serif" font-size="10.00">IAIFactory.h</text>
</a>
</g>
</g>
<!-- Node37&#45;&gt;Node38 -->
<g id="edge54" class="edge"><title>Node37&#45;&gt;Node38</title>
<path fill="none" stroke="midnightblue" d="M294.275,-224.083C299.642,-216.455 307.518,-205.264 314.079,-195.941"/>
<polygon fill="midnightblue" stroke="midnightblue" points="316.949,-197.943 319.842,-187.751 311.225,-193.915 316.949,-197.943"/>
</g>
<!-- Node39 -->
<g id="node39" class="node"><title>Node39</title>
<g id="a_node39"><a xlink:href="IFactoryRegistry_8h.html" target="_top" xlink:title="common/IFactoryRegistry.h">
<polygon fill="white" stroke="black" points="773,-168.5 773,-187.5 911,-187.5 911,-168.5 773,-168.5"/>
<text text-anchor="middle" x="842" y="-175.5" font-family="Helvetica,sans-Serif" font-size="10.00">common/IFactoryRegistry.h</text>
</a>
</g>
</g>
<!-- Node37&#45;&gt;Node39 -->
<g id="edge59" class="edge"><title>Node37&#45;&gt;Node39</title>
<path fill="none" stroke="midnightblue" d="M325.643,-229.331C415.064,-220.615 641.79,-198.515 762.897,-186.71"/>
<polygon fill="midnightblue" stroke="midnightblue" points="763.242,-190.194 772.855,-185.74 762.562,-183.227 763.242,-190.194"/>
</g>
<!-- Node38&#45;&gt;Node3 -->
<g id="edge58" class="edge"><title>Node38&#45;&gt;Node3</title>
<path fill="none" stroke="midnightblue" d="M303.183,-168.444C276.742,-158.528 233.35,-142.256 206.296,-132.111"/>
<polygon fill="midnightblue" stroke="midnightblue" points="207.389,-128.783 196.797,-128.549 204.931,-135.337 207.389,-128.783"/>
</g>
<!-- Node38&#45;&gt;Node4 -->
<g id="edge57" class="edge"><title>Node38&#45;&gt;Node4</title>
<path fill="none" stroke="midnightblue" d="M315.717,-168.324C306.164,-160.263 291.72,-148.077 280.216,-138.369"/>
<polygon fill="midnightblue" stroke="midnightblue" points="282.37,-135.608 272.47,-131.834 277.856,-140.958 282.37,-135.608"/>
</g>
<!-- Node38&#45;&gt;Node13 -->
<g id="edge56" class="edge"><title>Node38&#45;&gt;Node13</title>
<path fill="none" stroke="midnightblue" d="M331.179,-168.368C342.023,-150.296 367.294,-108.176 381.616,-84.3074"/>
<polygon fill="midnightblue" stroke="midnightblue" points="384.701,-85.9671 386.845,-75.5914 378.699,-82.3656 384.701,-85.9671"/>
</g>
<!-- Node38&#45;&gt;Node24 -->
<g id="edge55" class="edge"><title>Node38&#45;&gt;Node24</title>
<path fill="none" stroke="midnightblue" d="M361.732,-169.773C412.648,-159.476 505.566,-140.683 556.76,-130.329"/>
<polygon fill="midnightblue" stroke="midnightblue" points="557.612,-133.728 566.719,-128.315 556.224,-126.867 557.612,-133.728"/>
</g>
<!-- Node39&#45;&gt;Node6 -->
<g id="edge61" class="edge"><title>Node39&#45;&gt;Node6</title>
<path fill="none" stroke="midnightblue" d="M881.455,-168.444C924.892,-159.023 994.786,-143.866 1041.78,-133.675"/>
<polygon fill="midnightblue" stroke="midnightblue" points="1042.7,-137.056 1051.73,-131.516 1041.22,-130.215 1042.7,-137.056"/>
</g>
<!-- Node39&#45;&gt;Node8 -->
<g id="edge60" class="edge"><title>Node39&#45;&gt;Node8</title>
<path fill="none" stroke="midnightblue" d="M911.069,-174.458C1007.22,-170.128 1186.89,-159.166 1348.59,-131.976"/>
<polygon fill="midnightblue" stroke="midnightblue" points="1349.46,-135.379 1358.73,-130.247 1348.28,-128.479 1349.46,-135.379"/>
</g>
<!-- Node39&#45;&gt;Node24 -->
<g id="edge62" class="edge"><title>Node39&#45;&gt;Node24</title>
<path fill="none" stroke="midnightblue" d="M802.545,-168.444C754.864,-158.103 675.305,-140.849 629.154,-130.841"/>
<polygon fill="midnightblue" stroke="midnightblue" points="629.8,-127.399 619.285,-128.7 628.316,-134.24 629.8,-127.399"/>
</g>
<!-- Node40 -->
<g id="node40" class="node"><title>Node40</title>
<polygon fill="white" stroke="#bfbfbf" points="842.5,-112.5 842.5,-131.5 877.5,-131.5 877.5,-112.5 842.5,-112.5"/>
<text text-anchor="middle" x="860" y="-119.5" font-family="Helvetica,sans-Serif" font-size="10.00">map</text>
</g>
<!-- Node39&#45;&gt;Node40 -->
<g id="edge63" class="edge"><title>Node39&#45;&gt;Node40</title>
<path fill="none" stroke="midnightblue" d="M844.972,-168.083C847.384,-160.849 850.864,-150.409 853.868,-141.397"/>
<polygon fill="midnightblue" stroke="midnightblue" points="857.241,-142.345 857.083,-131.751 850.6,-140.131 857.241,-142.345"/>
</g>
<!-- Node41&#45;&gt;Node32 -->
<g id="edge66" class="edge"><title>Node41&#45;&gt;Node32</title>
<path fill="none" stroke="midnightblue" d="M332.872,-336.083C329.486,-328.77 324.584,-318.181 320.381,-309.103"/>
<polygon fill="midnightblue" stroke="midnightblue" points="323.429,-307.355 316.051,-299.751 317.077,-310.296 323.429,-307.355"/>
</g>
<!-- Node42&#45;&gt;Node4 -->
<g id="edge75" class="edge"><title>Node42&#45;&gt;Node4</title>
<path fill="none" stroke="midnightblue" d="M926.076,-224.47C864.647,-215.754 767.138,-201.605 683,-188 632.219,-179.789 619.787,-176.175 569,-168 469.073,-151.914 350.454,-135.2 294.409,-127.445"/>
<polygon fill="midnightblue" stroke="midnightblue" points="294.759,-123.96 284.375,-126.06 293.802,-130.895 294.759,-123.96"/>
</g>
<!-- Node42&#45;&gt;Node10 -->
<g id="edge78" class="edge"><title>Node42&#45;&gt;Node10</title>
<path fill="none" stroke="midnightblue" d="M988.326,-224.489C991.667,-204.307 1001.44,-152.226 1019,-112 1022.83,-103.232 1054.33,-54.7117 1071.67,-28.2421"/>
<polygon fill="midnightblue" stroke="midnightblue" points="1074.78,-29.8836 1077.34,-19.6022 1068.92,-26.0441 1074.78,-29.8836"/>
</g>
<!-- Node42&#45;&gt;Node11 -->
<g id="edge77" class="edge"><title>Node42&#45;&gt;Node11</title>
<path fill="none" stroke="midnightblue" d="M985.706,-224.297C980.851,-191.633 963.642,-75.8661 956.818,-29.9573"/>
<polygon fill="midnightblue" stroke="midnightblue" points="960.253,-29.2604 955.321,-19.8837 953.329,-30.2897 960.253,-29.2604"/>
</g>
<!-- Node42&#45;&gt;Node13 -->
<g id="edge74" class="edge"><title>Node42&#45;&gt;Node13</title>
<path fill="none" stroke="midnightblue" d="M983.148,-224.309C972.12,-200.681 937.851,-135.472 886,-112 802.619,-74.2551 517.134,-68.1665 422.645,-67.187"/>
<polygon fill="midnightblue" stroke="midnightblue" points="422.625,-63.6867 412.594,-67.095 422.561,-70.6864 422.625,-63.6867"/>
</g>
<!-- Node42&#45;&gt;Node24 -->
<g id="edge73" class="edge"><title>Node42&#45;&gt;Node24</title>
<path fill="none" stroke="midnightblue" d="M921.413,-226.346C869.001,-219.873 794.124,-208.019 731,-188 708.943,-181.005 652.696,-153.272 619.214,-136.373"/>
<polygon fill="midnightblue" stroke="midnightblue" points="620.521,-133.112 610.019,-131.715 617.358,-139.356 620.521,-133.112"/>
</g>
<!-- Node42&#45;&gt;Node34 -->
<g id="edge72" class="edge"><title>Node42&#45;&gt;Node34</title>
<path fill="none" stroke="midnightblue" d="M1021.54,-224.444C1059.25,-215.102 1119.74,-200.119 1160.86,-189.933"/>
<polygon fill="midnightblue" stroke="midnightblue" points="1161.75,-193.318 1170.62,-187.516 1160.07,-186.524 1161.75,-193.318"/>
</g>
<!-- Node42&#45;&gt;Node40 -->
<g id="edge76" class="edge"><title>Node42&#45;&gt;Node40</title>
<path fill="none" stroke="midnightblue" d="M978.656,-224.225C966.294,-211.384 942.182,-186.946 920,-168 907.376,-157.218 892.444,-146.014 880.634,-137.482"/>
<polygon fill="midnightblue" stroke="midnightblue" points="882.473,-134.494 872.301,-131.53 878.404,-140.191 882.473,-134.494"/>
</g>
</g>
</svg>
