<?xml version="1.0" encoding="UTF-8" standalone="no"?>
<!DOCTYPE svg PUBLIC "-//W3C//DTD SVG 1.1//EN"
 "http://www.w3.org/Graphics/SVG/1.1/DTD/svg11.dtd">
<!-- Generated by graphviz version 2.36.0 (20140111.2315)
 -->
<!-- Title: /home/travis/build/mgerhardy/simpleai/src/ai/tree Pages: 1 -->
<svg width="182pt" height="231pt"
 viewBox="0.00 0.00 182.00 231.00" xmlns="http://www.w3.org/2000/svg" xmlns:xlink="http://www.w3.org/1999/xlink">
<g id="graph0" class="graph" transform="scale(1 1) rotate(0) translate(4 227)">
<title>/home/travis/build/mgerhardy/simpleai/src/ai/tree</title>
<polygon fill="white" stroke="none" points="-4,4 -4,-227 178,-227 178,4 -4,4"/>
<g id="clust1" class="cluster"><title>clusterdir_128a93aeeff33a8423f079f46929dbb3</title>
<g id="a_clust1"><a xlink:href="dir_128a93aeeff33a8423f079f46929dbb3.html" target="_top" xlink:title="ai">
<polygon fill="#ddddee" stroke="black" points="8,-128 8,-215 166,-215 166,-128 8,-128"/>
<text text-anchor="middle" x="87" y="-203" font-family="Helvetica,sans-Serif" font-size="10.00">ai</text>
</a>
</g>
</g>
<g id="clust2" class="cluster"><title>clusterdir_ed52edb1cd1708cebbaeaa3a408829b9</title>
<g id="a_clust2"><a xlink:href="dir_ed52edb1cd1708cebbaeaa3a408829b9.html" target="_top">
<polygon fill="#eeeeff" stroke="black" points="16,-136 16,-188 158,-188 158,-136 16,-136"/>
</a>
</g>
</g>
<!-- dir_ed52edb1cd1708cebbaeaa3a408829b9 -->
<g id="node1" class="node"><title>dir_ed52edb1cd1708cebbaeaa3a408829b9</title>
<text text-anchor="middle" x="51" y="-159.5" font-family="Helvetica,sans-Serif" font-size="10.00">tree</text>
</g>
<!-- dir_ddcec71f3eb0959ea8514fe18d5badbf -->
<g id="node4" class="node"><title>dir_ddcec71f3eb0959ea8514fe18d5badbf</title>
<g id="a_node4"><a xlink:href="dir_ddcec71f3eb0959ea8514fe18d5badbf.html" target="_top" xlink:title="movement">
<polygon fill="none" stroke="black" points="73.5,-108 12.5,-108 12.5,-72 73.5,-72 73.5,-108"/>
<text text-anchor="middle" x="43" y="-87.5" font-family="Helvetica,sans-Serif" font-size="10.00">movement</text>
</a>
</g>
</g>
<!-- dir_ed52edb1cd1708cebbaeaa3a408829b9&#45;&gt;dir_ddcec71f3eb0959ea8514fe18d5badbf -->
<g id="edge5" class="edge"><title>dir_ed52edb1cd1708cebbaeaa3a408829b9&#45;&gt;dir_ddcec71f3eb0959ea8514fe18d5badbf</title>
<path fill="none" stroke="black" d="M49.0225,-143.697C48.1409,-135.983 47.0814,-126.712 46.0986,-118.112"/>
<polygon fill="black" stroke="black" points="49.5677,-117.642 44.9548,-108.104 42.613,-118.437 49.5677,-117.642"/>
<g id="a_edge5&#45;headlabel"><a xlink:href="dir_000009_000007.html" target="_top" xlink:title="2">
<text text-anchor="middle" x="52.7967" y="-118.391" font-family="Helvetica,sans-Serif" font-size="10.00">2</text>
</a>
</g>
</g>
<!-- dir_04280633bbaa39fbe350c8eb2fc19a56 -->
<g id="node2" class="node"><title>dir_04280633bbaa39fbe350c8eb2fc19a56</title>
<g id="a_node2"><a xlink:href="dir_04280633bbaa39fbe350c8eb2fc19a56.html" target="_top" xlink:title="loaders">
<polygon fill="white" stroke="red" points="150,-180 96,-180 96,-144 150,-144 150,-180"/>
<text text-anchor="middle" x="123" y="-159.5" font-family="Helvetica,sans-Serif" font-size="10.00">loaders</text>
</a>
</g>
</g>
<!-- dir_26279f5c56f5918cb81f4f13d1df92ff -->
<g id="node3" class="node"><title>dir_26279f5c56f5918cb81f4f13d1df92ff</title>
<g id="a_node3"><a xlink:href="dir_26279f5c56f5918cb81f4f13d1df92ff.html" target="_top" xlink:title="conditions">
<polygon fill="none" stroke="black" points="153.25,-108 92.75,-108 92.75,-72 153.25,-72 153.25,-108"/>
<text text-anchor="middle" x="123" y="-87.5" font-family="Helvetica,sans-Serif" font-size="10.00">conditions</text>
</a>
</g>
</g>
<!-- dir_04280633bbaa39fbe350c8eb2fc19a56&#45;&gt;dir_26279f5c56f5918cb81f4f13d1df92ff -->
<g id="edge3" class="edge"><title>dir_04280633bbaa39fbe350c8eb2fc19a56&#45;&gt;dir_26279f5c56f5918cb81f4f13d1df92ff</title>
<path fill="none" stroke="black" d="M123,-143.697C123,-135.983 123,-126.712 123,-118.112"/>
<polygon fill="black" stroke="black" points="126.5,-118.104 123,-108.104 119.5,-118.104 126.5,-118.104"/>
<g id="a_edge3&#45;headlabel"><a xlink:href="dir_000010_000005.html" target="_top" xlink:title="2">
<text text-anchor="middle" x="129.339" y="-119.199" font-family="Helvetica,sans-Serif" font-size="10.00">2</text>
</a>
</g>
</g>
<!-- dir_4c8624fe756ae3c7de80e838bac4bfdf -->
<g id="node5" class="node"><title>dir_4c8624fe756ae3c7de80e838bac4bfdf</title>
<g id="a_node5"><a xlink:href="dir_4c8624fe756ae3c7de80e838bac4bfdf.html" target="_top" xlink:title="common">
<polygon fill="none" stroke="black" points="150,-36 96,-36 96,-0 150,-0 150,-36"/>
<text text-anchor="middle" x="123" y="-15.5" font-family="Helvetica,sans-Serif" font-size="10.00">common</text>
</a>
</g>
</g>
<!-- dir_04280633bbaa39fbe350c8eb2fc19a56&#45;&gt;dir_4c8624fe756ae3c7de80e838bac4bfdf -->
<g id="edge4" class="edge"><title>dir_04280633bbaa39fbe350c8eb2fc19a56&#45;&gt;dir_4c8624fe756ae3c7de80e838bac4bfdf</title>
<path fill="none" stroke="black" d="M139.89,-143.993C148.293,-134.315 157.582,-121.459 162,-108 166.99,-92.7982 166.99,-87.2018 162,-72 158.686,-61.9056 152.633,-52.1508 146.268,-43.8211"/>
<polygon fill="black" stroke="black" points="148.925,-41.5402 139.89,-36.0066 143.502,-45.9667 148.925,-41.5402"/>
<g id="a_edge4&#45;headlabel"><a xlink:href="dir_000010_000003.html" target="_top" xlink:title="2">
<text text-anchor="middle" x="153.397" y="-40.0295" font-family="Helvetica,sans-Serif" font-size="10.00">2</text>
</a>
</g>
</g>
<!-- dir_26279f5c56f5918cb81f4f13d1df92ff&#45;&gt;dir_4c8624fe756ae3c7de80e838bac4bfdf -->
<g id="edge1" class="edge"><title>dir_26279f5c56f5918cb81f4f13d1df92ff&#45;&gt;dir_4c8624fe756ae3c7de80e838bac4bfdf</title>
<path fill="none" stroke="black" d="M123,-71.6966C123,-63.9827 123,-54.7125 123,-46.1124"/>
<polygon fill="black" stroke="black" points="126.5,-46.1043 123,-36.1043 119.5,-46.1044 126.5,-46.1043"/>
<g id="a_edge1&#45;headlabel"><a xlink:href="dir_000005_000003.html" target="_top" xlink:title="7">
<text text-anchor="middle" x="129.339" y="-47.199" font-family="Helvetica,sans-Serif" font-size="10.00">7</text>
</a>
</g>
</g>
<!-- dir_ddcec71f3eb0959ea8514fe18d5badbf&#45;&gt;dir_4c8624fe756ae3c7de80e838bac4bfdf -->
<g id="edge2" class="edge"><title>dir_ddcec71f3eb0959ea8514fe18d5badbf&#45;&gt;dir_4c8624fe756ae3c7de80e838bac4bfdf</title>
<path fill="none" stroke="black" d="M62.7753,-71.6966C72.7537,-62.9655 85.0109,-52.2405 95.8568,-42.7503"/>
<polygon fill="black" stroke="black" points="98.2312,-45.3234 103.452,-36.1043 93.6216,-40.0554 98.2312,-45.3234"/>
<g id="a_edge2&#45;headlabel"><a xlink:href="dir_000007_000003.html" target="_top" xlink:title="5">
<text text-anchor="middle" x="97.3956" y="-47.3272" font-family="Helvetica,sans-Serif" font-size="10.00">5</text>
</a>
</g>
</g>
</g>
</svg>
