<?xml version="1.0" encoding="UTF-8" standalone="no"?>
<!DOCTYPE svg PUBLIC "-//W3C//DTD SVG 1.1//EN"
 "http://www.w3.org/Graphics/SVG/1.1/DTD/svg11.dtd">
<!-- Generated by graphviz version 2.36.0 (20140111.2315)
 -->
<!-- Title: /home/travis/build/mgerhardy/simpleai/src/ai/conditions Pages: 1 -->
<svg width="248pt" height="367pt"
 viewBox="0.00 0.00 248.00 367.00" xmlns="http://www.w3.org/2000/svg" xmlns:xlink="http://www.w3.org/1999/xlink">
<g id="graph0" class="graph" transform="scale(1 1) rotate(0) translate(4 363)">
<title>/home/travis/build/mgerhardy/simpleai/src/ai/conditions</title>
<polygon fill="white" stroke="none" points="-4,4 -4,-363 244,-363 244,4 -4,4"/>
<g id="clust1" class="cluster"><title>clusterdir_128a93aeeff33a8423f079f46929dbb3</title>
<g id="a_clust1"><a xlink:href="dir_128a93aeeff33a8423f079f46929dbb3.html" target="_top" xlink:title="ai">
<polygon fill="#ddddee" stroke="black" points="81,-280 81,-351 159,-351 159,-280 81,-280"/>
<text text-anchor="middle" x="120" y="-339" font-family="Helvetica,sans-Serif" font-size="10.00">ai</text>
</a>
</g>
</g>
<!-- dir_26279f5c56f5918cb81f4f13d1df92ff -->
<g id="node1" class="node"><title>dir_26279f5c56f5918cb81f4f13d1df92ff</title>
<g id="a_node1"><a xlink:href="dir_26279f5c56f5918cb81f4f13d1df92ff.html" target="_top" xlink:title="conditions">
<polygon fill="#eeeeff" stroke="black" points="150.25,-324 89.75,-324 89.75,-288 150.25,-288 150.25,-324"/>
<text text-anchor="middle" x="120" y="-303.5" font-family="Helvetica,sans-Serif" font-size="10.00">conditions</text>
</a>
</g>
</g>
<!-- dir_17303d77940fd33d75c32f582a716539 -->
<g id="node2" class="node"><title>dir_17303d77940fd33d75c32f582a716539</title>
<g id="a_node2"><a xlink:href="dir_17303d77940fd33d75c32f582a716539.html" target="_top" xlink:title="zone">
<polygon fill="none" stroke="black" points="92,-180 38,-180 38,-144 92,-144 92,-180"/>
<text text-anchor="middle" x="65" y="-159.5" font-family="Helvetica,sans-Serif" font-size="10.00">zone</text>
</a>
</g>
</g>
<!-- dir_26279f5c56f5918cb81f4f13d1df92ff&#45;&gt;dir_17303d77940fd33d75c32f582a716539 -->
<g id="edge5" class="edge"><title>dir_26279f5c56f5918cb81f4f13d1df92ff&#45;&gt;dir_17303d77940fd33d75c32f582a716539</title>
<path fill="none" stroke="black" d="M113.366,-287.871C103.909,-263.457 86.4677,-218.426 75.3164,-189.635"/>
<polygon fill="black" stroke="black" points="78.5334,-188.25 71.6578,-180.189 72.0059,-190.778 78.5334,-188.25"/>
<g id="a_edge5&#45;headlabel"><a xlink:href="dir_000005_000013.html" target="_top" xlink:title="3">
<text text-anchor="middle" x="82.4792" y="-188.077" font-family="Helvetica,sans-Serif" font-size="10.00">3</text>
</a>
</g>
</g>
<!-- dir_a3d7b76a702f4c439e791d0fce4da492 -->
<g id="node3" class="node"><title>dir_a3d7b76a702f4c439e791d0fce4da492</title>
<g id="a_node3"><a xlink:href="dir_a3d7b76a702f4c439e791d0fce4da492.html" target="_top" xlink:title="filter">
<polygon fill="none" stroke="black" points="54,-252 0,-252 0,-216 54,-216 54,-252"/>
<text text-anchor="middle" x="27" y="-231.5" font-family="Helvetica,sans-Serif" font-size="10.00">filter</text>
</a>
</g>
</g>
<!-- dir_26279f5c56f5918cb81f4f13d1df92ff&#45;&gt;dir_a3d7b76a702f4c439e791d0fce4da492 -->
<g id="edge6" class="edge"><title>dir_26279f5c56f5918cb81f4f13d1df92ff&#45;&gt;dir_a3d7b76a702f4c439e791d0fce4da492</title>
<path fill="none" stroke="black" d="M97.0112,-287.697C85.1861,-278.796 70.608,-267.823 57.8214,-258.199"/>
<polygon fill="black" stroke="black" points="59.8188,-255.322 49.7243,-252.104 55.6092,-260.915 59.8188,-255.322"/>
<g id="a_edge6&#45;headlabel"><a xlink:href="dir_000005_000004.html" target="_top" xlink:title="1">
<text text-anchor="middle" x="64.3983" y="-252.715" font-family="Helvetica,sans-Serif" font-size="10.00">1</text>
</a>
</g>
</g>
<!-- dir_4c8624fe756ae3c7de80e838bac4bfdf -->
<g id="node4" class="node"><title>dir_4c8624fe756ae3c7de80e838bac4bfdf</title>
<g id="a_node4"><a xlink:href="dir_4c8624fe756ae3c7de80e838bac4bfdf.html" target="_top" xlink:title="common">
<polygon fill="none" stroke="black" points="130,-36 76,-36 76,-0 130,-0 130,-36"/>
<text text-anchor="middle" x="103" y="-15.5" font-family="Helvetica,sans-Serif" font-size="10.00">common</text>
</a>
</g>
</g>
<!-- dir_26279f5c56f5918cb81f4f13d1df92ff&#45;&gt;dir_4c8624fe756ae3c7de80e838bac4bfdf -->
<g id="edge7" class="edge"><title>dir_26279f5c56f5918cb81f4f13d1df92ff&#45;&gt;dir_4c8624fe756ae3c7de80e838bac4bfdf</title>
<path fill="none" stroke="black" d="M125.664,-287.862C137.716,-248.649 162.918,-149.78 139,-72 135.991,-62.2153 130.493,-52.6161 124.684,-44.3336"/>
<polygon fill="black" stroke="black" points="127.407,-42.1306 118.61,-36.2264 121.805,-46.3279 127.407,-42.1306"/>
<g id="a_edge7&#45;headlabel"><a xlink:href="dir_000005_000003.html" target="_top" xlink:title="7">
<text text-anchor="middle" x="131.835" y="-40.8048" font-family="Helvetica,sans-Serif" font-size="10.00">7</text>
</a>
</g>
</g>
<!-- dir_f3bf27e5405642d24eac5df74628c4c5 -->
<g id="node5" class="node"><title>dir_f3bf27e5405642d24eac5df74628c4c5</title>
<g id="a_node5"><a xlink:href="dir_f3bf27e5405642d24eac5df74628c4c5.html" target="_top" xlink:title="aggro">
<polygon fill="none" stroke="black" points="240,-252 186,-252 186,-216 240,-216 240,-252"/>
<text text-anchor="middle" x="213" y="-231.5" font-family="Helvetica,sans-Serif" font-size="10.00">aggro</text>
</a>
</g>
</g>
<!-- dir_26279f5c56f5918cb81f4f13d1df92ff&#45;&gt;dir_f3bf27e5405642d24eac5df74628c4c5 -->
<g id="edge8" class="edge"><title>dir_26279f5c56f5918cb81f4f13d1df92ff&#45;&gt;dir_f3bf27e5405642d24eac5df74628c4c5</title>
<path fill="none" stroke="black" d="M142.989,-287.697C154.814,-278.796 169.392,-267.823 182.179,-258.199"/>
<polygon fill="black" stroke="black" points="184.391,-260.915 190.276,-252.104 180.181,-255.322 184.391,-260.915"/>
<g id="a_edge8&#45;headlabel"><a xlink:href="dir_000005_000002.html" target="_top" xlink:title="1">
<text text-anchor="middle" x="183.226" y="-262.845" font-family="Helvetica,sans-Serif" font-size="10.00">1</text>
</a>
</g>
</g>
<!-- dir_2a41c7ce768d54462991419c33b3b067 -->
<g id="node6" class="node"><title>dir_2a41c7ce768d54462991419c33b3b067</title>
<g id="a_node6"><a xlink:href="dir_2a41c7ce768d54462991419c33b3b067.html" target="_top" xlink:title="group">
<polygon fill="none" stroke="black" points="130,-108 76,-108 76,-72 130,-72 130,-108"/>
<text text-anchor="middle" x="103" y="-87.5" font-family="Helvetica,sans-Serif" font-size="10.00">group</text>
</a>
</g>
</g>
<!-- dir_26279f5c56f5918cb81f4f13d1df92ff&#45;&gt;dir_2a41c7ce768d54462991419c33b3b067 -->
<g id="edge9" class="edge"><title>dir_26279f5c56f5918cb81f4f13d1df92ff&#45;&gt;dir_2a41c7ce768d54462991419c33b3b067</title>
<path fill="none" stroke="black" d="M118.638,-287.849C115.697,-250.832 108.734,-163.181 105.176,-118.386"/>
<polygon fill="black" stroke="black" points="108.65,-117.924 104.369,-108.232 101.672,-118.478 108.65,-117.924"/>
<g id="a_edge9&#45;headlabel"><a xlink:href="dir_000005_000006.html" target="_top" xlink:title="3">
<text text-anchor="middle" x="111.765" y="-118.782" font-family="Helvetica,sans-Serif" font-size="10.00">3</text>
</a>
</g>
</g>
<!-- dir_17303d77940fd33d75c32f582a716539&#45;&gt;dir_4c8624fe756ae3c7de80e838bac4bfdf -->
<g id="edge1" class="edge"><title>dir_17303d77940fd33d75c32f582a716539&#45;&gt;dir_4c8624fe756ae3c7de80e838bac4bfdf</title>
<path fill="none" stroke="black" d="M62.5615,-143.797C60.6131,-125.515 59.3254,-95.9947 67,-72 70.1186,-62.2497 75.6475,-52.6602 81.4507,-44.3759"/>
<polygon fill="black" stroke="black" points="84.3296,-46.3703 87.508,-36.2634 78.7206,-42.1822 84.3296,-46.3703"/>
<g id="a_edge1&#45;headlabel"><a xlink:href="dir_000013_000003.html" target="_top" xlink:title="2">
<text text-anchor="middle" x="84.4541" y="-48.4492" font-family="Helvetica,sans-Serif" font-size="10.00">2</text>
</a>
</g>
</g>
<!-- dir_17303d77940fd33d75c32f582a716539&#45;&gt;dir_2a41c7ce768d54462991419c33b3b067 -->
<g id="edge2" class="edge"><title>dir_17303d77940fd33d75c32f582a716539&#45;&gt;dir_2a41c7ce768d54462991419c33b3b067</title>
<path fill="none" stroke="black" d="M74.3933,-143.697C78.7649,-135.644 84.0573,-125.894 88.8953,-116.982"/>
<polygon fill="black" stroke="black" points="92.0198,-118.563 93.7148,-108.104 85.8678,-115.223 92.0198,-118.563"/>
<g id="a_edge2&#45;headlabel"><a xlink:href="dir_000013_000006.html" target="_top" xlink:title="1">
<text text-anchor="middle" x="92.8002" y="-120.576" font-family="Helvetica,sans-Serif" font-size="10.00">1</text>
</a>
</g>
</g>
<!-- dir_a3d7b76a702f4c439e791d0fce4da492&#45;&gt;dir_17303d77940fd33d75c32f582a716539 -->
<g id="edge3" class="edge"><title>dir_a3d7b76a702f4c439e791d0fce4da492&#45;&gt;dir_17303d77940fd33d75c32f582a716539</title>
<path fill="none" stroke="black" d="M36.3933,-215.697C40.7649,-207.644 46.0573,-197.894 50.8953,-188.982"/>
<polygon fill="black" stroke="black" points="54.0198,-190.563 55.7148,-180.104 47.8678,-187.223 54.0198,-190.563"/>
<g id="a_edge3&#45;headlabel"><a xlink:href="dir_000004_000013.html" target="_top" xlink:title="3">
<text text-anchor="middle" x="54.8002" y="-192.576" font-family="Helvetica,sans-Serif" font-size="10.00">3</text>
</a>
</g>
</g>
<!-- dir_a3d7b76a702f4c439e791d0fce4da492&#45;&gt;dir_4c8624fe756ae3c7de80e838bac4bfdf -->
<g id="edge4" class="edge"><title>dir_a3d7b76a702f4c439e791d0fce4da492&#45;&gt;dir_4c8624fe756ae3c7de80e838bac4bfdf</title>
<path fill="none" stroke="black" d="M25.5723,-215.733C24.4978,-197.651 23.96,-168.525 29,-144 35.9444,-110.208 40.1621,-101.529 58,-72 63.9595,-62.1347 71.7337,-52.2554 79.1399,-43.7449"/>
<polygon fill="black" stroke="black" points="81.9746,-45.8269 86.0565,-36.05 76.7685,-41.1474 81.9746,-45.8269"/>
<g id="a_edge4&#45;headlabel"><a xlink:href="dir_000004_000003.html" target="_top" xlink:title="3">
<text text-anchor="middle" x="81.6832" y="-47.8983" font-family="Helvetica,sans-Serif" font-size="10.00">3</text>
</a>
</g>
</g>
<!-- dir_f3bf27e5405642d24eac5df74628c4c5&#45;&gt;dir_4c8624fe756ae3c7de80e838bac4bfdf -->
<g id="edge10" class="edge"><title>dir_f3bf27e5405642d24eac5df74628c4c5&#45;&gt;dir_4c8624fe756ae3c7de80e838bac4bfdf</title>
<path fill="none" stroke="black" d="M212.242,-215.539C210.131,-184.282 202.151,-117.763 172,-72 163.492,-59.0869 150.754,-48.0259 138.53,-39.4008"/>
<polygon fill="black" stroke="black" points="140.464,-36.4834 130.208,-33.8259 136.568,-42.2992 140.464,-36.4834"/>
<g id="a_edge10&#45;headlabel"><a xlink:href="dir_000002_000003.html" target="_top" xlink:title="1">
<text text-anchor="middle" x="145.03" y="-33.625" font-family="Helvetica,sans-Serif" font-size="10.00">1</text>
</a>
</g>
</g>
<!-- dir_2a41c7ce768d54462991419c33b3b067&#45;&gt;dir_4c8624fe756ae3c7de80e838bac4bfdf -->
<g id="edge11" class="edge"><title>dir_2a41c7ce768d54462991419c33b3b067&#45;&gt;dir_4c8624fe756ae3c7de80e838bac4bfdf</title>
<path fill="none" stroke="black" d="M103,-71.6966C103,-63.9827 103,-54.7125 103,-46.1124"/>
<polygon fill="black" stroke="black" points="106.5,-46.1043 103,-36.1043 99.5001,-46.1044 106.5,-46.1043"/>
<g id="a_edge11&#45;headlabel"><a xlink:href="dir_000006_000003.html" target="_top" xlink:title="3">
<text text-anchor="middle" x="109.339" y="-47.199" font-family="Helvetica,sans-Serif" font-size="10.00">3</text>
</a>
</g>
</g>
</g>
</svg>
