<?xml version="1.0" encoding="UTF-8" standalone="no"?>
<!DOCTYPE svg PUBLIC "-//W3C//DTD SVG 1.1//EN"
 "http://www.w3.org/Graphics/SVG/1.1/DTD/svg11.dtd">
<!-- Generated by graphviz version 2.36.0 (20140111.2315)
 -->
<!-- Title: /home/travis/build/mgerhardy/simpleai/src/ai/tree/loaders Pages: 1 -->
<svg width="254pt" height="231pt"
 viewBox="0.00 0.00 254.00 231.00" xmlns="http://www.w3.org/2000/svg" xmlns:xlink="http://www.w3.org/1999/xlink">
<g id="graph0" class="graph" transform="scale(1 1) rotate(0) translate(4 227)">
<title>/home/travis/build/mgerhardy/simpleai/src/ai/tree/loaders</title>
<polygon fill="white" stroke="none" points="-4,4 -4,-227 250,-227 250,4 -4,4"/>
<g id="clust1" class="cluster"><title>clusterdir_ed52edb1cd1708cebbaeaa3a408829b9</title>
<g id="a_clust1"><a xlink:href="dir_ed52edb1cd1708cebbaeaa3a408829b9.html" target="_top" xlink:title="tree">
<polygon fill="#ddddee" stroke="black" points="8,-128 8,-215 238,-215 238,-128 8,-128"/>
<text text-anchor="middle" x="123" y="-203" font-family="Helvetica,sans-Serif" font-size="10.00">tree</text>
</a>
</g>
</g>
<g id="clust2" class="cluster"><title>clusterdir_04280633bbaa39fbe350c8eb2fc19a56</title>
<g id="a_clust2"><a xlink:href="dir_04280633bbaa39fbe350c8eb2fc19a56.html" target="_top">
<polygon fill="#eeeeff" stroke="black" points="16,-136 16,-188 230,-188 230,-136 16,-136"/>
</a>
</g>
</g>
<!-- dir_04280633bbaa39fbe350c8eb2fc19a56 -->
<g id="node1" class="node"><title>dir_04280633bbaa39fbe350c8eb2fc19a56</title>
<text text-anchor="middle" x="51" y="-159.5" font-family="Helvetica,sans-Serif" font-size="10.00">loaders</text>
</g>
<!-- dir_4c8624fe756ae3c7de80e838bac4bfdf -->
<g id="node5" class="node"><title>dir_4c8624fe756ae3c7de80e838bac4bfdf</title>
<g id="a_node5"><a xlink:href="dir_4c8624fe756ae3c7de80e838bac4bfdf.html" target="_top" xlink:title="common">
<polygon fill="none" stroke="black" points="153,-36 99,-36 99,-0 153,-0 153,-36"/>
<text text-anchor="middle" x="126" y="-15.5" font-family="Helvetica,sans-Serif" font-size="10.00">common</text>
</a>
</g>
</g>
<!-- dir_04280633bbaa39fbe350c8eb2fc19a56&#45;&gt;dir_4c8624fe756ae3c7de80e838bac4bfdf -->
<g id="edge2" class="edge"><title>dir_04280633bbaa39fbe350c8eb2fc19a56&#45;&gt;dir_4c8624fe756ae3c7de80e838bac4bfdf</title>
<path fill="none" stroke="black" d="M56.1561,-143.983C62.0716,-125.6 72.6931,-95.7563 86,-72 91.3238,-62.4957 98.1677,-52.7862 104.684,-44.3181"/>
<polygon fill="black" stroke="black" points="107.556,-46.3291 111.023,-36.3174 102.069,-41.9821 107.556,-46.3291"/>
<g id="a_edge2&#45;headlabel"><a xlink:href="dir_000010_000003.html" target="_top" xlink:title="2">
<text text-anchor="middle" x="107.549" y="-48.4097" font-family="Helvetica,sans-Serif" font-size="10.00">2</text>
</a>
</g>
</g>
<!-- dir_fb532bd5e497eb869f41cf121f2f4ade -->
<g id="node2" class="node"><title>dir_fb532bd5e497eb869f41cf121f2f4ade</title>
<g id="a_node2"><a xlink:href="dir_fb532bd5e497eb869f41cf121f2f4ade.html" target="_top" xlink:title="lua">
<polygon fill="white" stroke="black" points="222,-180 168,-180 168,-144 222,-144 222,-180"/>
<text text-anchor="middle" x="195" y="-159.5" font-family="Helvetica,sans-Serif" font-size="10.00">lua</text>
</a>
</g>
</g>
<!-- dir_26279f5c56f5918cb81f4f13d1df92ff -->
<g id="node4" class="node"><title>dir_26279f5c56f5918cb81f4f13d1df92ff</title>
<g id="a_node4"><a xlink:href="dir_26279f5c56f5918cb81f4f13d1df92ff.html" target="_top" xlink:title="conditions">
<polygon fill="none" stroke="black" points="156.25,-108 95.75,-108 95.75,-72 156.25,-72 156.25,-108"/>
<text text-anchor="middle" x="126" y="-87.5" font-family="Helvetica,sans-Serif" font-size="10.00">conditions</text>
</a>
</g>
</g>
<!-- dir_fb532bd5e497eb869f41cf121f2f4ade&#45;&gt;dir_26279f5c56f5918cb81f4f13d1df92ff -->
<g id="edge4" class="edge"><title>dir_fb532bd5e497eb869f41cf121f2f4ade&#45;&gt;dir_26279f5c56f5918cb81f4f13d1df92ff</title>
<path fill="none" stroke="black" d="M177.944,-143.697C169.505,-135.135 159.175,-124.656 149.957,-115.304"/>
<polygon fill="black" stroke="black" points="152.373,-112.769 142.86,-108.104 147.387,-117.683 152.373,-112.769"/>
<g id="a_edge4&#45;headlabel"><a xlink:href="dir_000011_000005.html" target="_top" xlink:title="1">
<text text-anchor="middle" x="156.918" y="-110.836" font-family="Helvetica,sans-Serif" font-size="10.00">1</text>
</a>
</g>
</g>
<!-- dir_fb532bd5e497eb869f41cf121f2f4ade&#45;&gt;dir_4c8624fe756ae3c7de80e838bac4bfdf -->
<g id="edge5" class="edge"><title>dir_fb532bd5e497eb869f41cf121f2f4ade&#45;&gt;dir_4c8624fe756ae3c7de80e838bac4bfdf</title>
<path fill="none" stroke="black" d="M190.943,-143.97C186.183,-125.576 177.343,-95.7224 165,-72 160.017,-62.423 153.399,-52.6944 147.031,-44.2313"/>
<polygon fill="black" stroke="black" points="149.72,-41.9868 140.817,-36.2424 144.194,-46.2846 149.72,-41.9868"/>
<g id="a_edge5&#45;headlabel"><a xlink:href="dir_000011_000003.html" target="_top" xlink:title="1">
<text text-anchor="middle" x="154.168" y="-40.581" font-family="Helvetica,sans-Serif" font-size="10.00">1</text>
</a>
</g>
</g>
<!-- dir_2ddfbbf7198f99a801439dd6bd0760f8 -->
<g id="node3" class="node"><title>dir_2ddfbbf7198f99a801439dd6bd0760f8</title>
<g id="a_node3"><a xlink:href="dir_2ddfbbf7198f99a801439dd6bd0760f8.html" target="_top" xlink:title="xml">
<polygon fill="white" stroke="black" points="150,-180 96,-180 96,-144 150,-144 150,-180"/>
<text text-anchor="middle" x="123" y="-159.5" font-family="Helvetica,sans-Serif" font-size="10.00">xml</text>
</a>
</g>
</g>
<!-- dir_2ddfbbf7198f99a801439dd6bd0760f8&#45;&gt;dir_26279f5c56f5918cb81f4f13d1df92ff -->
<g id="edge3" class="edge"><title>dir_2ddfbbf7198f99a801439dd6bd0760f8&#45;&gt;dir_26279f5c56f5918cb81f4f13d1df92ff</title>
<path fill="none" stroke="black" d="M123.742,-143.697C124.072,-135.983 124.469,-126.712 124.838,-118.112"/>
<polygon fill="black" stroke="black" points="128.335,-118.245 125.267,-108.104 121.342,-117.945 128.335,-118.245"/>
<g id="a_edge3&#45;headlabel"><a xlink:href="dir_000012_000005.html" target="_top" xlink:title="1">
<text text-anchor="middle" x="131.018" y="-119.458" font-family="Helvetica,sans-Serif" font-size="10.00">1</text>
</a>
</g>
</g>
<!-- dir_26279f5c56f5918cb81f4f13d1df92ff&#45;&gt;dir_4c8624fe756ae3c7de80e838bac4bfdf -->
<g id="edge1" class="edge"><title>dir_26279f5c56f5918cb81f4f13d1df92ff&#45;&gt;dir_4c8624fe756ae3c7de80e838bac4bfdf</title>
<path fill="none" stroke="black" d="M126,-71.6966C126,-63.9827 126,-54.7125 126,-46.1124"/>
<polygon fill="black" stroke="black" points="129.5,-46.1043 126,-36.1043 122.5,-46.1044 129.5,-46.1043"/>
<g id="a_edge1&#45;headlabel"><a xlink:href="dir_000005_000003.html" target="_top" xlink:title="7">
<text text-anchor="middle" x="132.339" y="-47.199" font-family="Helvetica,sans-Serif" font-size="10.00">7</text>
</a>
</g>
</g>
</g>
</svg>
