<?xml version="1.0" encoding="UTF-8" standalone="no"?>
<!DOCTYPE svg PUBLIC "-//W3C//DTD SVG 1.1//EN"
 "http://www.w3.org/Graphics/SVG/1.1/DTD/svg11.dtd">
<!-- Generated by graphviz version 2.36.0 (20140111.2315)
 -->
<!-- Title: /home/travis/build/mgerhardy/simpleai/src/ai/tree/loaders/lua Pages: 1 -->
<svg width="110pt" height="223pt"
 viewBox="0.00 0.00 110.00 223.00" xmlns="http://www.w3.org/2000/svg" xmlns:xlink="http://www.w3.org/1999/xlink">
<g id="graph0" class="graph" transform="scale(1 1) rotate(0) translate(4 219)">
<title>/home/travis/build/mgerhardy/simpleai/src/ai/tree/loaders/lua</title>
<polygon fill="white" stroke="none" points="-4,4 -4,-219 106,-219 106,4 -4,4"/>
<g id="clust1" class="cluster"><title>clusterdir_04280633bbaa39fbe350c8eb2fc19a56</title>
<g id="a_clust1"><a xlink:href="dir_04280633bbaa39fbe350c8eb2fc19a56.html" target="_top" xlink:title="loaders">
<polygon fill="#ddddee" stroke="black" points="24,-136 24,-207 94,-207 94,-136 24,-136"/>
<text text-anchor="middle" x="59" y="-195" font-family="Helvetica,sans-Serif" font-size="10.00">loaders</text>
</a>
</g>
</g>
<!-- dir_fb532bd5e497eb869f41cf121f2f4ade -->
<g id="node1" class="node"><title>dir_fb532bd5e497eb869f41cf121f2f4ade</title>
<g id="a_node1"><a xlink:href="dir_fb532bd5e497eb869f41cf121f2f4ade.html" target="_top" xlink:title="lua">
<polygon fill="#eeeeff" stroke="black" points="86,-180 32,-180 32,-144 86,-144 86,-180"/>
<text text-anchor="middle" x="59" y="-159.5" font-family="Helvetica,sans-Serif" font-size="10.00">lua</text>
</a>
</g>
</g>
<!-- dir_26279f5c56f5918cb81f4f13d1df92ff -->
<g id="node2" class="node"><title>dir_26279f5c56f5918cb81f4f13d1df92ff</title>
<g id="a_node2"><a xlink:href="dir_26279f5c56f5918cb81f4f13d1df92ff.html" target="_top" xlink:title="conditions">
<polygon fill="none" stroke="black" points="60.25,-108 -0.25,-108 -0.25,-72 60.25,-72 60.25,-108"/>
<text text-anchor="middle" x="30" y="-87.5" font-family="Helvetica,sans-Serif" font-size="10.00">conditions</text>
</a>
</g>
</g>
<!-- dir_fb532bd5e497eb869f41cf121f2f4ade&#45;&gt;dir_26279f5c56f5918cb81f4f13d1df92ff -->
<g id="edge2" class="edge"><title>dir_fb532bd5e497eb869f41cf121f2f4ade&#45;&gt;dir_26279f5c56f5918cb81f4f13d1df92ff</title>
<path fill="none" stroke="black" d="M51.8315,-143.697C48.5655,-135.813 44.626,-126.304 40.9978,-117.546"/>
<polygon fill="black" stroke="black" points="44.147,-116.003 37.0861,-108.104 37.68,-118.683 44.147,-116.003"/>
<g id="a_edge2&#45;headlabel"><a xlink:href="dir_000011_000005.html" target="_top" xlink:title="1">
<text text-anchor="middle" x="48.1459" y="-115.738" font-family="Helvetica,sans-Serif" font-size="10.00">1</text>
</a>
</g>
</g>
<!-- dir_4c8624fe756ae3c7de80e838bac4bfdf -->
<g id="node3" class="node"><title>dir_4c8624fe756ae3c7de80e838bac4bfdf</title>
<g id="a_node3"><a xlink:href="dir_4c8624fe756ae3c7de80e838bac4bfdf.html" target="_top" xlink:title="common">
<polygon fill="none" stroke="black" points="86,-36 32,-36 32,-0 86,-0 86,-36"/>
<text text-anchor="middle" x="59" y="-15.5" font-family="Helvetica,sans-Serif" font-size="10.00">common</text>
</a>
</g>
</g>
<!-- dir_fb532bd5e497eb869f41cf121f2f4ade&#45;&gt;dir_4c8624fe756ae3c7de80e838bac4bfdf -->
<g id="edge3" class="edge"><title>dir_fb532bd5e497eb869f41cf121f2f4ade&#45;&gt;dir_4c8624fe756ae3c7de80e838bac4bfdf</title>
<path fill="none" stroke="black" d="M63.0591,-143.929C65.3056,-133.598 67.8666,-120.12 69,-108 70.4897,-92.0695 70.4897,-87.9305 69,-72 68.2031,-63.4781 66.7004,-54.2849 65.0975,-45.9862"/>
<polygon fill="black" stroke="black" points="68.5011,-45.1612 63.0591,-36.0708 61.6445,-46.5708 68.5011,-45.1612"/>
<g id="a_edge3&#45;headlabel"><a xlink:href="dir_000011_000003.html" target="_top" xlink:title="1">
<text text-anchor="middle" x="72.006" y="-45.6105" font-family="Helvetica,sans-Serif" font-size="10.00">1</text>
</a>
</g>
</g>
<!-- dir_26279f5c56f5918cb81f4f13d1df92ff&#45;&gt;dir_4c8624fe756ae3c7de80e838bac4bfdf -->
<g id="edge1" class="edge"><title>dir_26279f5c56f5918cb81f4f13d1df92ff&#45;&gt;dir_4c8624fe756ae3c7de80e838bac4bfdf</title>
<path fill="none" stroke="black" d="M37.1685,-71.6966C40.4345,-63.8132 44.374,-54.3042 48.0022,-45.5464"/>
<polygon fill="black" stroke="black" points="51.32,-46.6825 51.9139,-36.1043 44.853,-44.0033 51.32,-46.6825"/>
<g id="a_edge1&#45;headlabel"><a xlink:href="dir_000005_000003.html" target="_top" xlink:title="7">
<text text-anchor="middle" x="52.5673" y="-48.5901" font-family="Helvetica,sans-Serif" font-size="10.00">7</text>
</a>
</g>
</g>
</g>
</svg>
