<?xml version="1.0" encoding="UTF-8" standalone="no"?>
<!DOCTYPE svg PUBLIC "-//W3C//DTD SVG 1.1//EN"
 "http://www.w3.org/Graphics/SVG/1.1/DTD/svg11.dtd">
<!-- Generated by graphviz version 2.36.0 (20140111.2315)
 -->
<!-- Title: /home/travis/build/mgerhardy/simpleai/src/ai Pages: 1 -->
<svg width="382pt" height="615pt"
 viewBox="0.00 0.00 382.00 615.00" xmlns="http://www.w3.org/2000/svg" xmlns:xlink="http://www.w3.org/1999/xlink">
<g id="graph0" class="graph" transform="scale(1 1) rotate(0) translate(4 611)">
<title>/home/travis/build/mgerhardy/simpleai/src/ai</title>
<polygon fill="white" stroke="none" points="-4,4 -4,-611 378,-611 378,4 -4,4"/>
<g id="clust1" class="cluster"><title>clusterdir_68267d1309a1af8e8297ef4c3efbcdba</title>
<g id="a_clust1"><a xlink:href="dir_68267d1309a1af8e8297ef4c3efbcdba.html" target="_top" xlink:title="src">
<polygon fill="#ddddee" stroke="black" points="8,-8 8,-599 366,-599 366,-8 8,-8"/>
<text text-anchor="middle" x="187" y="-587" font-family="Helvetica,sans-Serif" font-size="10.00">src</text>
</a>
</g>
</g>
<g id="clust2" class="cluster"><title>clusterdir_128a93aeeff33a8423f079f46929dbb3</title>
<g id="a_clust2"><a xlink:href="dir_128a93aeeff33a8423f079f46929dbb3.html" target="_top">
<polygon fill="#eeeeff" stroke="black" points="16,-16 16,-572 358,-572 358,-16 16,-16"/>
</a>
</g>
</g>
<!-- dir_128a93aeeff33a8423f079f46929dbb3 -->
<g id="node1" class="node"><title>dir_128a93aeeff33a8423f079f46929dbb3</title>
<text text-anchor="middle" x="154" y="-543.5" font-family="Helvetica,sans-Serif" font-size="10.00">ai</text>
</g>
<!-- dir_f3bf27e5405642d24eac5df74628c4c5 -->
<g id="node2" class="node"><title>dir_f3bf27e5405642d24eac5df74628c4c5</title>
<g id="a_node2"><a xlink:href="dir_f3bf27e5405642d24eac5df74628c4c5.html" target="_top" xlink:title="aggro">
<polygon fill="white" stroke="black" points="78,-276 24,-276 24,-240 78,-240 78,-276"/>
<text text-anchor="middle" x="51" y="-255.5" font-family="Helvetica,sans-Serif" font-size="10.00">aggro</text>
</a>
</g>
</g>
<!-- dir_128a93aeeff33a8423f079f46929dbb3&#45;&gt;dir_f3bf27e5405642d24eac5df74628c4c5 -->
<g id="edge26" class="edge"><title>dir_128a93aeeff33a8423f079f46929dbb3&#45;&gt;dir_f3bf27e5405642d24eac5df74628c4c5</title>
<path fill="none" stroke="black" d="M126.771,-531.324C111.666,-522.274 93.9698,-508.949 84,-492 45.263,-426.146 45.5109,-332.169 48.4581,-286.298"/>
<polygon fill="black" stroke="black" points="51.9553,-286.463 49.2002,-276.233 44.9743,-285.948 51.9553,-286.463"/>
<g id="a_edge26&#45;headlabel"><a xlink:href="dir_000001_000002.html" target="_top" xlink:title="2">
<text text-anchor="middle" x="54.5227" y="-287.757" font-family="Helvetica,sans-Serif" font-size="10.00">2</text>
</a>
</g>
</g>
<!-- dir_26279f5c56f5918cb81f4f13d1df92ff -->
<g id="node4" class="node"><title>dir_26279f5c56f5918cb81f4f13d1df92ff</title>
<g id="a_node4"><a xlink:href="dir_26279f5c56f5918cb81f4f13d1df92ff.html" target="_top" xlink:title="conditions">
<polygon fill="white" stroke="black" points="209.25,-348 148.75,-348 148.75,-312 209.25,-312 209.25,-348"/>
<text text-anchor="middle" x="179" y="-327.5" font-family="Helvetica,sans-Serif" font-size="10.00">conditions</text>
</a>
</g>
</g>
<!-- dir_128a93aeeff33a8423f079f46929dbb3&#45;&gt;dir_26279f5c56f5918cb81f4f13d1df92ff -->
<g id="edge22" class="edge"><title>dir_128a93aeeff33a8423f079f46929dbb3&#45;&gt;dir_26279f5c56f5918cb81f4f13d1df92ff</title>
<path fill="none" stroke="black" d="M156.004,-527.849C160.328,-490.832 170.568,-403.181 175.801,-358.386"/>
<polygon fill="black" stroke="black" points="179.303,-358.571 176.987,-348.232 172.35,-357.759 179.303,-358.571"/>
<g id="a_edge22&#45;headlabel"><a xlink:href="dir_000001_000005.html" target="_top" xlink:title="27">
<text text-anchor="middle" x="181.706" y="-359.971" font-family="Helvetica,sans-Serif" font-size="10.00">27</text>
</a>
</g>
</g>
<!-- dir_a3d7b76a702f4c439e791d0fce4da492 -->
<g id="node5" class="node"><title>dir_a3d7b76a702f4c439e791d0fce4da492</title>
<g id="a_node5"><a xlink:href="dir_a3d7b76a702f4c439e791d0fce4da492.html" target="_top" xlink:title="filter">
<polygon fill="white" stroke="black" points="170,-276 116,-276 116,-240 170,-240 170,-276"/>
<text text-anchor="middle" x="143" y="-255.5" font-family="Helvetica,sans-Serif" font-size="10.00">filter</text>
</a>
</g>
</g>
<!-- dir_128a93aeeff33a8423f079f46929dbb3&#45;&gt;dir_a3d7b76a702f4c439e791d0fce4da492 -->
<g id="edge21" class="edge"><title>dir_128a93aeeff33a8423f079f46929dbb3&#45;&gt;dir_a3d7b76a702f4c439e791d0fce4da492</title>
<path fill="none" stroke="black" d="M141.273,-527.845C134.714,-517.923 127.393,-504.883 124,-492 103.624,-414.638 110.299,-390.818 124,-312 125.523,-303.236 128.365,-294.006 131.394,-285.748"/>
<polygon fill="black" stroke="black" points="134.724,-286.843 135.107,-276.255 128.205,-284.293 134.724,-286.843"/>
<g id="a_edge21&#45;headlabel"><a xlink:href="dir_000001_000004.html" target="_top" xlink:title="30">
<text text-anchor="middle" x="136.059" y="-288.725" font-family="Helvetica,sans-Serif" font-size="10.00">30</text>
</a>
</g>
</g>
<!-- dir_2a41c7ce768d54462991419c33b3b067 -->
<g id="node6" class="node"><title>dir_2a41c7ce768d54462991419c33b3b067</title>
<g id="a_node6"><a xlink:href="dir_2a41c7ce768d54462991419c33b3b067.html" target="_top" xlink:title="group">
<polygon fill="white" stroke="black" points="217,-132 163,-132 163,-96 217,-96 217,-132"/>
<text text-anchor="middle" x="190" y="-111.5" font-family="Helvetica,sans-Serif" font-size="10.00">group</text>
</a>
</g>
</g>
<!-- dir_128a93aeeff33a8423f079f46929dbb3&#45;&gt;dir_2a41c7ce768d54462991419c33b3b067 -->
<g id="edge27" class="edge"><title>dir_128a93aeeff33a8423f079f46929dbb3&#45;&gt;dir_2a41c7ce768d54462991419c33b3b067</title>
<path fill="none" stroke="black" d="M135.703,-527.645C126.86,-518.055 117.083,-505.391 112,-492 72.243,-387.27 74.6369,-347.245 107,-240 118.646,-201.406 146.543,-163.794 166.787,-140.08"/>
<polygon fill="black" stroke="black" points="169.646,-142.127 173.589,-132.293 164.374,-137.522 169.646,-142.127"/>
<g id="a_edge27&#45;headlabel"><a xlink:href="dir_000001_000006.html" target="_top" xlink:title="7">
<text text-anchor="middle" x="169.42" y="-144.202" font-family="Helvetica,sans-Serif" font-size="10.00">7</text>
</a>
</g>
</g>
<!-- dir_ddcec71f3eb0959ea8514fe18d5badbf -->
<g id="node7" class="node"><title>dir_ddcec71f3eb0959ea8514fe18d5badbf</title>
<g id="a_node7"><a xlink:href="dir_ddcec71f3eb0959ea8514fe18d5badbf.html" target="_top" xlink:title="movement">
<polygon fill="white" stroke="black" points="349.5,-348 288.5,-348 288.5,-312 349.5,-312 349.5,-348"/>
<text text-anchor="middle" x="319" y="-327.5" font-family="Helvetica,sans-Serif" font-size="10.00">movement</text>
</a>
</g>
</g>
<!-- dir_128a93aeeff33a8423f079f46929dbb3&#45;&gt;dir_ddcec71f3eb0959ea8514fe18d5badbf -->
<g id="edge23" class="edge"><title>dir_128a93aeeff33a8423f079f46929dbb3&#45;&gt;dir_ddcec71f3eb0959ea8514fe18d5badbf</title>
<path fill="none" stroke="black" d="M181.111,-538.15C208.057,-530.338 249.513,-515.514 279,-492 309.862,-467.39 318.855,-457.558 331,-420 337.536,-399.786 333.715,-375.877 328.71,-357.932"/>
<polygon fill="black" stroke="black" points="331.98,-356.659 325.696,-348.129 325.29,-358.716 331.98,-356.659"/>
<g id="a_edge23&#45;headlabel"><a xlink:href="dir_000001_000007.html" target="_top" xlink:title="20">
<text text-anchor="middle" x="335.751" y="-356.76" font-family="Helvetica,sans-Serif" font-size="10.00">20</text>
</a>
</g>
</g>
<!-- dir_0ecd12b84674f8d63a584d098675a43c -->
<g id="node8" class="node"><title>dir_0ecd12b84674f8d63a584d098675a43c</title>
<g id="a_node8"><a xlink:href="dir_0ecd12b84674f8d63a584d098675a43c.html" target="_top" xlink:title="server">
<polygon fill="white" stroke="black" points="256,-492 202,-492 202,-456 256,-456 256,-492"/>
<text text-anchor="middle" x="229" y="-471.5" font-family="Helvetica,sans-Serif" font-size="10.00">server</text>
</a>
</g>
</g>
<!-- dir_128a93aeeff33a8423f079f46929dbb3&#45;&gt;dir_0ecd12b84674f8d63a584d098675a43c -->
<g id="edge25" class="edge"><title>dir_128a93aeeff33a8423f079f46929dbb3&#45;&gt;dir_0ecd12b84674f8d63a584d098675a43c</title>
<path fill="none" stroke="black" d="M172.539,-527.697C181.803,-519.05 193.162,-508.449 203.257,-499.027"/>
<polygon fill="black" stroke="black" points="205.751,-501.486 210.674,-492.104 200.975,-496.369 205.751,-501.486"/>
<g id="a_edge25&#45;headlabel"><a xlink:href="dir_000001_000008.html" target="_top" xlink:title="18">
<text text-anchor="middle" x="205.061" y="-503.515" font-family="Helvetica,sans-Serif" font-size="10.00">18</text>
</a>
</g>
</g>
<!-- dir_ed52edb1cd1708cebbaeaa3a408829b9 -->
<g id="node9" class="node"><title>dir_ed52edb1cd1708cebbaeaa3a408829b9</title>
<g id="a_node9"><a xlink:href="dir_ed52edb1cd1708cebbaeaa3a408829b9.html" target="_top" xlink:title="tree">
<polygon fill="white" stroke="red" points="322,-420 268,-420 268,-384 322,-384 322,-420"/>
<text text-anchor="middle" x="295" y="-399.5" font-family="Helvetica,sans-Serif" font-size="10.00">tree</text>
</a>
</g>
</g>
<!-- dir_128a93aeeff33a8423f079f46929dbb3&#45;&gt;dir_ed52edb1cd1708cebbaeaa3a408829b9 -->
<g id="edge24" class="edge"><title>dir_128a93aeeff33a8423f079f46929dbb3&#45;&gt;dir_ed52edb1cd1708cebbaeaa3a408829b9</title>
<path fill="none" stroke="black" d="M181.464,-538.469C206.518,-531.158 242.903,-516.93 265,-492 280.331,-474.703 287.882,-449.274 291.568,-430.022"/>
<polygon fill="black" stroke="black" points="295.038,-430.494 293.244,-420.053 288.135,-429.334 295.038,-430.494"/>
<g id="a_edge24&#45;headlabel"><a xlink:href="dir_000001_000009.html" target="_top" xlink:title="34">
<text text-anchor="middle" x="297.242" y="-432.01" font-family="Helvetica,sans-Serif" font-size="10.00">34</text>
</a>
</g>
</g>
<!-- dir_17303d77940fd33d75c32f582a716539 -->
<g id="node10" class="node"><title>dir_17303d77940fd33d75c32f582a716539</title>
<g id="a_node10"><a xlink:href="dir_17303d77940fd33d75c32f582a716539.html" target="_top" xlink:title="zone">
<polygon fill="white" stroke="black" points="250,-204 196,-204 196,-168 250,-168 250,-204"/>
<text text-anchor="middle" x="223" y="-183.5" font-family="Helvetica,sans-Serif" font-size="10.00">zone</text>
</a>
</g>
</g>
<!-- dir_128a93aeeff33a8423f079f46929dbb3&#45;&gt;dir_17303d77940fd33d75c32f582a716539 -->
<g id="edge20" class="edge"><title>dir_128a93aeeff33a8423f079f46929dbb3&#45;&gt;dir_17303d77940fd33d75c32f582a716539</title>
<path fill="none" stroke="black" d="M147.732,-527.961C134.144,-488.122 105.77,-386.613 139,-312 148.731,-290.151 164.553,-295.061 179,-276 193.562,-256.787 205.346,-232.003 213.041,-213.469"/>
<polygon fill="black" stroke="black" points="216.304,-214.734 216.786,-204.151 209.809,-212.124 216.304,-214.734"/>
<g id="a_edge20&#45;headlabel"><a xlink:href="dir_000001_000013.html" target="_top" xlink:title="9">
<text text-anchor="middle" x="217.598" y="-216.629" font-family="Helvetica,sans-Serif" font-size="10.00">9</text>
</a>
</g>
</g>
<!-- dir_4c8624fe756ae3c7de80e838bac4bfdf -->
<g id="node3" class="node"><title>dir_4c8624fe756ae3c7de80e838bac4bfdf</title>
<g id="a_node3"><a xlink:href="dir_4c8624fe756ae3c7de80e838bac4bfdf.html" target="_top" xlink:title="common">
<polygon fill="white" stroke="black" points="282,-60 228,-60 228,-24 282,-24 282,-60"/>
<text text-anchor="middle" x="255" y="-39.5" font-family="Helvetica,sans-Serif" font-size="10.00">common</text>
</a>
</g>
</g>
<!-- dir_f3bf27e5405642d24eac5df74628c4c5&#45;&gt;dir_4c8624fe756ae3c7de80e838bac4bfdf -->
<g id="edge19" class="edge"><title>dir_f3bf27e5405642d24eac5df74628c4c5&#45;&gt;dir_4c8624fe756ae3c7de80e838bac4bfdf</title>
<path fill="none" stroke="black" d="M55.9712,-239.617C66.0274,-207.291 91.6799,-137.456 136,-96 159.038,-74.4504 192.299,-60.6496 217.803,-52.551"/>
<polygon fill="black" stroke="black" points="218.945,-55.8624 227.508,-49.6226 216.923,-49.1609 218.945,-55.8624"/>
<g id="a_edge19&#45;headlabel"><a xlink:href="dir_000002_000003.html" target="_top" xlink:title="1">
<text text-anchor="middle" x="216.324" y="-57.119" font-family="Helvetica,sans-Serif" font-size="10.00">1</text>
</a>
</g>
</g>
<!-- dir_26279f5c56f5918cb81f4f13d1df92ff&#45;&gt;dir_f3bf27e5405642d24eac5df74628c4c5 -->
<g id="edge8" class="edge"><title>dir_26279f5c56f5918cb81f4f13d1df92ff&#45;&gt;dir_f3bf27e5405642d24eac5df74628c4c5</title>
<path fill="none" stroke="black" d="M148.666,-312.411C130.158,-302.289 106.398,-289.296 86.9484,-278.659"/>
<polygon fill="black" stroke="black" points="88.5228,-275.531 78.0697,-273.804 85.1641,-281.673 88.5228,-275.531"/>
<g id="a_edge8&#45;headlabel"><a xlink:href="dir_000005_000002.html" target="_top" xlink:title="1">
<text text-anchor="middle" x="93.0389" y="-272.265" font-family="Helvetica,sans-Serif" font-size="10.00">1</text>
</a>
</g>
</g>
<!-- dir_26279f5c56f5918cb81f4f13d1df92ff&#45;&gt;dir_4c8624fe756ae3c7de80e838bac4bfdf -->
<g id="edge7" class="edge"><title>dir_26279f5c56f5918cb81f4f13d1df92ff&#45;&gt;dir_4c8624fe756ae3c7de80e838bac4bfdf</title>
<path fill="none" stroke="black" d="M195.546,-311.782C215.825,-289.215 248.759,-247.382 259,-204 269.85,-158.037 264.642,-102.639 259.841,-70.2648"/>
<polygon fill="black" stroke="black" points="263.271,-69.5463 258.253,-60.2153 256.357,-70.6391 263.271,-69.5463"/>
<g id="a_edge7&#45;headlabel"><a xlink:href="dir_000005_000003.html" target="_top" xlink:title="7">
<text text-anchor="middle" x="266.637" y="-70.1536" font-family="Helvetica,sans-Serif" font-size="10.00">7</text>
</a>
</g>
</g>
<!-- dir_26279f5c56f5918cb81f4f13d1df92ff&#45;&gt;dir_a3d7b76a702f4c439e791d0fce4da492 -->
<g id="edge6" class="edge"><title>dir_26279f5c56f5918cb81f4f13d1df92ff&#45;&gt;dir_a3d7b76a702f4c439e791d0fce4da492</title>
<path fill="none" stroke="black" d="M170.101,-311.697C166.003,-303.728 161.051,-294.1 156.507,-285.264"/>
<polygon fill="black" stroke="black" points="159.483,-283.396 151.797,-276.104 153.258,-286.598 159.483,-283.396"/>
<g id="a_edge6&#45;headlabel"><a xlink:href="dir_000005_000004.html" target="_top" xlink:title="1">
<text text-anchor="middle" x="163.651" y="-282.795" font-family="Helvetica,sans-Serif" font-size="10.00">1</text>
</a>
</g>
</g>
<!-- dir_26279f5c56f5918cb81f4f13d1df92ff&#45;&gt;dir_2a41c7ce768d54462991419c33b3b067 -->
<g id="edge9" class="edge"><title>dir_26279f5c56f5918cb81f4f13d1df92ff&#45;&gt;dir_2a41c7ce768d54462991419c33b3b067</title>
<path fill="none" stroke="black" d="M179.825,-311.606C181.234,-282.078 184.223,-220.26 187,-168 187.442,-159.681 187.946,-150.629 188.413,-142.399"/>
<polygon fill="black" stroke="black" points="191.92,-142.368 188.997,-132.184 184.932,-141.968 191.92,-142.368"/>
<g id="a_edge9&#45;headlabel"><a xlink:href="dir_000005_000006.html" target="_top" xlink:title="3">
<text text-anchor="middle" x="194.55" y="-143.619" font-family="Helvetica,sans-Serif" font-size="10.00">3</text>
</a>
</g>
</g>
<!-- dir_26279f5c56f5918cb81f4f13d1df92ff&#45;&gt;dir_17303d77940fd33d75c32f582a716539 -->
<g id="edge5" class="edge"><title>dir_26279f5c56f5918cb81f4f13d1df92ff&#45;&gt;dir_17303d77940fd33d75c32f582a716539</title>
<path fill="none" stroke="black" d="M193.66,-311.532C201.057,-301.718 209.412,-288.88 214,-276 221.068,-256.159 223.173,-232.362 223.59,-214.369"/>
<polygon fill="black" stroke="black" points="227.09,-214.287 223.663,-204.262 220.091,-214.236 227.09,-214.287"/>
<g id="a_edge5&#45;headlabel"><a xlink:href="dir_000005_000013.html" target="_top" xlink:title="3">
<text text-anchor="middle" x="229.904" y="-215.402" font-family="Helvetica,sans-Serif" font-size="10.00">3</text>
</a>
</g>
</g>
<!-- dir_a3d7b76a702f4c439e791d0fce4da492&#45;&gt;dir_4c8624fe756ae3c7de80e838bac4bfdf -->
<g id="edge4" class="edge"><title>dir_a3d7b76a702f4c439e791d0fce4da492&#45;&gt;dir_4c8624fe756ae3c7de80e838bac4bfdf</title>
<path fill="none" stroke="black" d="M139.114,-239.801C133.033,-208.383 124.769,-140.823 154,-96 168.511,-73.749 195.548,-60.2643 217.999,-52.4685"/>
<polygon fill="black" stroke="black" points="219.164,-55.7702 227.609,-49.3714 217.017,-49.1076 219.164,-55.7702"/>
<g id="a_edge4&#45;headlabel"><a xlink:href="dir_000004_000003.html" target="_top" xlink:title="3">
<text text-anchor="middle" x="216.614" y="-57.0751" font-family="Helvetica,sans-Serif" font-size="10.00">3</text>
</a>
</g>
</g>
<!-- dir_a3d7b76a702f4c439e791d0fce4da492&#45;&gt;dir_17303d77940fd33d75c32f582a716539 -->
<g id="edge3" class="edge"><title>dir_a3d7b76a702f4c439e791d0fce4da492&#45;&gt;dir_17303d77940fd33d75c32f582a716539</title>
<path fill="none" stroke="black" d="M162.775,-239.697C172.754,-230.965 185.011,-220.24 195.857,-210.75"/>
<polygon fill="black" stroke="black" points="198.231,-213.323 203.452,-204.104 193.622,-208.055 198.231,-213.323"/>
<g id="a_edge3&#45;headlabel"><a xlink:href="dir_000004_000013.html" target="_top" xlink:title="3">
<text text-anchor="middle" x="197.396" y="-215.327" font-family="Helvetica,sans-Serif" font-size="10.00">3</text>
</a>
</g>
</g>
<!-- dir_2a41c7ce768d54462991419c33b3b067&#45;&gt;dir_4c8624fe756ae3c7de80e838bac4bfdf -->
<g id="edge28" class="edge"><title>dir_2a41c7ce768d54462991419c33b3b067&#45;&gt;dir_4c8624fe756ae3c7de80e838bac4bfdf</title>
<path fill="none" stroke="black" d="M206.067,-95.6966C213.939,-87.2198 223.555,-76.8636 232.173,-67.5826"/>
<polygon fill="black" stroke="black" points="234.878,-69.8139 239.117,-60.1043 229.748,-65.0507 234.878,-69.8139"/>
<g id="a_edge28&#45;headlabel"><a xlink:href="dir_000006_000003.html" target="_top" xlink:title="3">
<text text-anchor="middle" x="234.512" y="-71.8799" font-family="Helvetica,sans-Serif" font-size="10.00">3</text>
</a>
</g>
</g>
<!-- dir_ddcec71f3eb0959ea8514fe18d5badbf&#45;&gt;dir_4c8624fe756ae3c7de80e838bac4bfdf -->
<g id="edge11" class="edge"><title>dir_ddcec71f3eb0959ea8514fe18d5badbf&#45;&gt;dir_4c8624fe756ae3c7de80e838bac4bfdf</title>
<path fill="none" stroke="black" d="M325.864,-311.916C340.916,-271.55 372.531,-168.249 334,-96 324.904,-78.9451 307.615,-66.4071 291.524,-57.8206"/>
<polygon fill="black" stroke="black" points="292.772,-54.5327 282.259,-53.2173 289.657,-60.8015 292.772,-54.5327"/>
<g id="a_edge11&#45;headlabel"><a xlink:href="dir_000007_000003.html" target="_top" xlink:title="5">
<text text-anchor="middle" x="297.255" y="-51.0894" font-family="Helvetica,sans-Serif" font-size="10.00">5</text>
</a>
</g>
</g>
<!-- dir_ddcec71f3eb0959ea8514fe18d5badbf&#45;&gt;dir_17303d77940fd33d75c32f582a716539 -->
<g id="edge10" class="edge"><title>dir_ddcec71f3eb0959ea8514fe18d5badbf&#45;&gt;dir_17303d77940fd33d75c32f582a716539</title>
<path fill="none" stroke="black" d="M312.109,-311.751C304.279,-293.17 290.433,-263.157 274,-240 266.913,-230.012 257.978,-220.07 249.574,-211.54"/>
<polygon fill="black" stroke="black" points="251.961,-208.978 242.386,-204.442 247.043,-213.959 251.961,-208.978"/>
<g id="a_edge10&#45;headlabel"><a xlink:href="dir_000007_000013.html" target="_top" xlink:title="1">
<text text-anchor="middle" x="256.514" y="-206.983" font-family="Helvetica,sans-Serif" font-size="10.00">1</text>
</a>
</g>
</g>
<!-- dir_0ecd12b84674f8d63a584d098675a43c&#45;&gt;dir_4c8624fe756ae3c7de80e838bac4bfdf -->
<g id="edge18" class="edge"><title>dir_0ecd12b84674f8d63a584d098675a43c&#45;&gt;dir_4c8624fe756ae3c7de80e838bac4bfdf</title>
<path fill="none" stroke="black" d="M232.039,-455.76C239.411,-413.186 258.279,-299.584 267,-204 269.91,-172.105 269.333,-164.021 270,-132 270.333,-116.003 272.199,-111.848 270,-96 268.817,-87.4752 266.612,-78.3938 264.249,-70.2008"/>
<polygon fill="black" stroke="black" points="267.522,-68.9366 261.238,-60.4069 260.832,-70.9939 267.522,-68.9366"/>
<g id="a_edge18&#45;headlabel"><a xlink:href="dir_000008_000003.html" target="_top" xlink:title="6">
<text text-anchor="middle" x="271.293" y="-69.0381" font-family="Helvetica,sans-Serif" font-size="10.00">6</text>
</a>
</g>
</g>
<!-- dir_0ecd12b84674f8d63a584d098675a43c&#45;&gt;dir_26279f5c56f5918cb81f4f13d1df92ff -->
<g id="edge16" class="edge"><title>dir_0ecd12b84674f8d63a584d098675a43c&#45;&gt;dir_26279f5c56f5918cb81f4f13d1df92ff</title>
<path fill="none" stroke="black" d="M222.969,-455.871C214.372,-431.457 198.516,-386.426 188.379,-357.635"/>
<polygon fill="black" stroke="black" points="191.675,-356.459 185.053,-348.189 185.073,-358.784 191.675,-356.459"/>
<g id="a_edge16&#45;headlabel"><a xlink:href="dir_000008_000005.html" target="_top" xlink:title="1">
<text text-anchor="middle" x="195.547" y="-356.407" font-family="Helvetica,sans-Serif" font-size="10.00">1</text>
</a>
</g>
</g>
<!-- dir_0ecd12b84674f8d63a584d098675a43c&#45;&gt;dir_ed52edb1cd1708cebbaeaa3a408829b9 -->
<g id="edge17" class="edge"><title>dir_0ecd12b84674f8d63a584d098675a43c&#45;&gt;dir_ed52edb1cd1708cebbaeaa3a408829b9</title>
<path fill="none" stroke="black" d="M245.315,-455.697C253.307,-447.22 263.072,-436.864 271.822,-427.583"/>
<polygon fill="black" stroke="black" points="274.559,-429.781 278.873,-420.104 269.466,-424.979 274.559,-429.781"/>
<g id="a_edge17&#45;headlabel"><a xlink:href="dir_000008_000009.html" target="_top" xlink:title="4">
<text text-anchor="middle" x="274.159" y="-431.844" font-family="Helvetica,sans-Serif" font-size="10.00">4</text>
</a>
</g>
</g>
<!-- dir_0ecd12b84674f8d63a584d098675a43c&#45;&gt;dir_17303d77940fd33d75c32f582a716539 -->
<g id="edge15" class="edge"><title>dir_0ecd12b84674f8d63a584d098675a43c&#45;&gt;dir_17303d77940fd33d75c32f582a716539</title>
<path fill="none" stroke="black" d="M228.643,-455.966C227.642,-408.291 224.808,-273.185 223.58,-214.63"/>
<polygon fill="black" stroke="black" points="227.072,-214.231 223.363,-204.306 220.074,-214.378 227.072,-214.231"/>
<g id="a_edge15&#45;headlabel"><a xlink:href="dir_000008_000013.html" target="_top" xlink:title="1">
<text text-anchor="middle" x="229.986" y="-215.265" font-family="Helvetica,sans-Serif" font-size="10.00">1</text>
</a>
</g>
</g>
<!-- dir_ed52edb1cd1708cebbaeaa3a408829b9&#45;&gt;dir_4c8624fe756ae3c7de80e838bac4bfdf -->
<g id="edge14" class="edge"><title>dir_ed52edb1cd1708cebbaeaa3a408829b9&#45;&gt;dir_4c8624fe756ae3c7de80e838bac4bfdf</title>
<path fill="none" stroke="black" d="M288.095,-383.901C281.744,-365.955 274.012,-336.939 279,-312 282.399,-295.003 290.601,-292.997 294,-276 309.689,-197.554 318.952,-172.009 294,-96 290.686,-85.9056 284.633,-76.1508 278.268,-67.8211"/>
<polygon fill="black" stroke="black" points="280.925,-65.5402 271.89,-60.0066 275.502,-69.9667 280.925,-65.5402"/>
<g id="a_edge14&#45;headlabel"><a xlink:href="dir_000009_000003.html" target="_top" xlink:title="13">
<text text-anchor="middle" x="285.397" y="-64.0295" font-family="Helvetica,sans-Serif" font-size="10.00">13</text>
</a>
</g>
</g>
<!-- dir_ed52edb1cd1708cebbaeaa3a408829b9&#45;&gt;dir_26279f5c56f5918cb81f4f13d1df92ff -->
<g id="edge12" class="edge"><title>dir_ed52edb1cd1708cebbaeaa3a408829b9&#45;&gt;dir_26279f5c56f5918cb81f4f13d1df92ff</title>
<path fill="none" stroke="black" d="M267.803,-384.588C252.435,-375.314 233.001,-363.587 216.235,-353.469"/>
<polygon fill="black" stroke="black" points="217.608,-350.21 207.238,-348.04 213.991,-356.203 217.608,-350.21"/>
<g id="a_edge12&#45;headlabel"><a xlink:href="dir_000009_000005.html" target="_top" xlink:title="4">
<text text-anchor="middle" x="222.153" y="-347.136" font-family="Helvetica,sans-Serif" font-size="10.00">4</text>
</a>
</g>
</g>
<!-- dir_ed52edb1cd1708cebbaeaa3a408829b9&#45;&gt;dir_ddcec71f3eb0959ea8514fe18d5badbf -->
<g id="edge13" class="edge"><title>dir_ed52edb1cd1708cebbaeaa3a408829b9&#45;&gt;dir_ddcec71f3eb0959ea8514fe18d5badbf</title>
<path fill="none" stroke="black" d="M300.933,-383.697C303.606,-375.898 306.826,-366.509 309.801,-357.829"/>
<polygon fill="black" stroke="black" points="313.203,-358.699 313.136,-348.104 306.582,-356.429 313.203,-358.699"/>
<g id="a_edge13&#45;headlabel"><a xlink:href="dir_000009_000007.html" target="_top" xlink:title="2">
<text text-anchor="middle" x="314.723" y="-360.52" font-family="Helvetica,sans-Serif" font-size="10.00">2</text>
</a>
</g>
</g>
<!-- dir_17303d77940fd33d75c32f582a716539&#45;&gt;dir_4c8624fe756ae3c7de80e838bac4bfdf -->
<g id="edge1" class="edge"><title>dir_17303d77940fd33d75c32f582a716539&#45;&gt;dir_4c8624fe756ae3c7de80e838bac4bfdf</title>
<path fill="none" stroke="black" d="M226.86,-167.871C232.338,-143.564 242.421,-98.8187 248.913,-70.0132"/>
<polygon fill="black" stroke="black" points="252.342,-70.7141 251.126,-60.1893 245.514,-69.1752 252.342,-70.7141"/>
<g id="a_edge1&#45;headlabel"><a xlink:href="dir_000013_000003.html" target="_top" xlink:title="2">
<text text-anchor="middle" x="254.322" y="-72.3449" font-family="Helvetica,sans-Serif" font-size="10.00">2</text>
</a>
</g>
</g>
<!-- dir_17303d77940fd33d75c32f582a716539&#45;&gt;dir_2a41c7ce768d54462991419c33b3b067 -->
<g id="edge2" class="edge"><title>dir_17303d77940fd33d75c32f582a716539&#45;&gt;dir_2a41c7ce768d54462991419c33b3b067</title>
<path fill="none" stroke="black" d="M214.843,-167.697C211.086,-159.728 206.547,-150.1 202.382,-141.264"/>
<polygon fill="black" stroke="black" points="205.494,-139.657 198.063,-132.104 199.162,-142.642 205.494,-139.657"/>
<g id="a_edge2&#45;headlabel"><a xlink:href="dir_000013_000006.html" target="_top" xlink:title="1">
<text text-anchor="middle" x="209.595" y="-139.198" font-family="Helvetica,sans-Serif" font-size="10.00">1</text>
</a>
</g>
</g>
</g>
</svg>
