<?xml version="1.0" encoding="UTF-8" standalone="no"?>
<!DOCTYPE svg PUBLIC "-//W3C//DTD SVG 1.1//EN"
 "http://www.w3.org/Graphics/SVG/1.1/DTD/svg11.dtd">
<!-- Generated by graphviz version 2.36.0 (20140111.2315)
 -->
<!-- Title: /home/travis/build/mgerhardy/simpleai/src/ai/server Pages: 1 -->
<svg width="160pt" height="367pt"
 viewBox="0.00 0.00 160.48 367.00" xmlns="http://www.w3.org/2000/svg" xmlns:xlink="http://www.w3.org/1999/xlink">
<g id="graph0" class="graph" transform="scale(1 1) rotate(0) translate(4 363)">
<title>/home/travis/build/mgerhardy/simpleai/src/ai/server</title>
<polygon fill="white" stroke="none" points="-4,4 -4,-363 156.476,-363 156.476,4 -4,4"/>
<g id="clust1" class="cluster"><title>clusterdir_128a93aeeff33a8423f079f46929dbb3</title>
<g id="a_clust1"><a xlink:href="dir_128a93aeeff33a8423f079f46929dbb3.html" target="_top" xlink:title="ai">
<polygon fill="#ddddee" stroke="black" points="40,-280 40,-351 110,-351 110,-280 40,-280"/>
<text text-anchor="middle" x="75" y="-339" font-family="Helvetica,sans-Serif" font-size="10.00">ai</text>
</a>
</g>
</g>
<!-- dir_0ecd12b84674f8d63a584d098675a43c -->
<g id="node1" class="node"><title>dir_0ecd12b84674f8d63a584d098675a43c</title>
<g id="a_node1"><a xlink:href="dir_0ecd12b84674f8d63a584d098675a43c.html" target="_top" xlink:title="server">
<polygon fill="#eeeeff" stroke="black" points="102,-324 48,-324 48,-288 102,-288 102,-324"/>
<text text-anchor="middle" x="75" y="-303.5" font-family="Helvetica,sans-Serif" font-size="10.00">server</text>
</a>
</g>
</g>
<!-- dir_17303d77940fd33d75c32f582a716539 -->
<g id="node2" class="node"><title>dir_17303d77940fd33d75c32f582a716539</title>
<g id="a_node2"><a xlink:href="dir_17303d77940fd33d75c32f582a716539.html" target="_top" xlink:title="zone">
<polygon fill="none" stroke="black" points="54,-108 0,-108 0,-72 54,-72 54,-108"/>
<text text-anchor="middle" x="27" y="-87.5" font-family="Helvetica,sans-Serif" font-size="10.00">zone</text>
</a>
</g>
</g>
<!-- dir_0ecd12b84674f8d63a584d098675a43c&#45;&gt;dir_17303d77940fd33d75c32f582a716539 -->
<g id="edge6" class="edge"><title>dir_0ecd12b84674f8d63a584d098675a43c&#45;&gt;dir_17303d77940fd33d75c32f582a716539</title>
<path fill="none" stroke="black" d="M64.9437,-287.945C51.7888,-264.547 29.4245,-220.744 21,-180 16.7734,-159.558 18.6609,-135.97 21.3958,-118.215"/>
<polygon fill="black" stroke="black" points="24.8641,-118.698 23.1125,-108.249 17.9656,-117.51 24.8641,-118.698"/>
<g id="a_edge6&#45;headlabel"><a xlink:href="dir_000008_000013.html" target="_top" xlink:title="1">
<text text-anchor="middle" x="27.052" y="-120.223" font-family="Helvetica,sans-Serif" font-size="10.00">1</text>
</a>
</g>
</g>
<!-- dir_26279f5c56f5918cb81f4f13d1df92ff -->
<g id="node3" class="node"><title>dir_26279f5c56f5918cb81f4f13d1df92ff</title>
<g id="a_node3"><a xlink:href="dir_26279f5c56f5918cb81f4f13d1df92ff.html" target="_top" xlink:title="conditions">
<polygon fill="none" stroke="black" points="91.25,-180 30.75,-180 30.75,-144 91.25,-144 91.25,-180"/>
<text text-anchor="middle" x="61" y="-159.5" font-family="Helvetica,sans-Serif" font-size="10.00">conditions</text>
</a>
</g>
</g>
<!-- dir_0ecd12b84674f8d63a584d098675a43c&#45;&gt;dir_26279f5c56f5918cb81f4f13d1df92ff -->
<g id="edge7" class="edge"><title>dir_0ecd12b84674f8d63a584d098675a43c&#45;&gt;dir_26279f5c56f5918cb81f4f13d1df92ff</title>
<path fill="none" stroke="black" d="M72.0463,-287.861C70.3533,-277.505 68.3107,-264.026 67,-252 64.7489,-231.346 63.2094,-207.898 62.2539,-190.256"/>
<polygon fill="black" stroke="black" points="65.7407,-189.906 61.7333,-180.099 58.7499,-190.265 65.7407,-189.906"/>
<g id="a_edge7&#45;headlabel"><a xlink:href="dir_000008_000005.html" target="_top" xlink:title="1">
<text text-anchor="middle" x="68.7601" y="-190.851" font-family="Helvetica,sans-Serif" font-size="10.00">1</text>
</a>
</g>
</g>
<!-- dir_ed52edb1cd1708cebbaeaa3a408829b9 -->
<g id="node4" class="node"><title>dir_ed52edb1cd1708cebbaeaa3a408829b9</title>
<g id="a_node4"><a xlink:href="dir_ed52edb1cd1708cebbaeaa3a408829b9.html" target="_top" xlink:title="tree">
<polygon fill="white" stroke="red" points="130,-252 76,-252 76,-216 130,-216 130,-252"/>
<text text-anchor="middle" x="103" y="-231.5" font-family="Helvetica,sans-Serif" font-size="10.00">tree</text>
</a>
</g>
</g>
<!-- dir_0ecd12b84674f8d63a584d098675a43c&#45;&gt;dir_ed52edb1cd1708cebbaeaa3a408829b9 -->
<g id="edge8" class="edge"><title>dir_0ecd12b84674f8d63a584d098675a43c&#45;&gt;dir_ed52edb1cd1708cebbaeaa3a408829b9</title>
<path fill="none" stroke="black" d="M81.9214,-287.697C85.0747,-279.813 88.8783,-270.304 92.3814,-261.546"/>
<polygon fill="black" stroke="black" points="95.694,-262.689 96.1583,-252.104 89.1946,-260.089 95.694,-262.689"/>
<g id="a_edge8&#45;headlabel"><a xlink:href="dir_000008_000009.html" target="_top" xlink:title="4">
<text text-anchor="middle" x="96.9952" y="-264.581" font-family="Helvetica,sans-Serif" font-size="10.00">4</text>
</a>
</g>
</g>
<!-- dir_4c8624fe756ae3c7de80e838bac4bfdf -->
<g id="node5" class="node"><title>dir_4c8624fe756ae3c7de80e838bac4bfdf</title>
<g id="a_node5"><a xlink:href="dir_4c8624fe756ae3c7de80e838bac4bfdf.html" target="_top" xlink:title="common">
<polygon fill="none" stroke="black" points="128,-36 74,-36 74,-0 128,-0 128,-36"/>
<text text-anchor="middle" x="101" y="-15.5" font-family="Helvetica,sans-Serif" font-size="10.00">common</text>
</a>
</g>
</g>
<!-- dir_0ecd12b84674f8d63a584d098675a43c&#45;&gt;dir_4c8624fe756ae3c7de80e838bac4bfdf -->
<g id="edge9" class="edge"><title>dir_0ecd12b84674f8d63a584d098675a43c&#45;&gt;dir_4c8624fe756ae3c7de80e838bac4bfdf</title>
<path fill="none" stroke="black" d="M102.096,-290.388C115.887,-281.337 131.326,-268.319 139,-252 171.742,-182.374 136.031,-89.5698 114.653,-45.0212"/>
<polygon fill="black" stroke="black" points="117.776,-43.4407 110.212,-36.0225 111.499,-46.5388 117.776,-43.4407"/>
<g id="a_edge9&#45;headlabel"><a xlink:href="dir_000008_000003.html" target="_top" xlink:title="6">
<text text-anchor="middle" x="121.913" y="-42.9074" font-family="Helvetica,sans-Serif" font-size="10.00">6</text>
</a>
</g>
</g>
<!-- dir_17303d77940fd33d75c32f582a716539&#45;&gt;dir_4c8624fe756ae3c7de80e838bac4bfdf -->
<g id="edge1" class="edge"><title>dir_17303d77940fd33d75c32f582a716539&#45;&gt;dir_4c8624fe756ae3c7de80e838bac4bfdf</title>
<path fill="none" stroke="black" d="M45.2921,-71.6966C54.4326,-63.0503 65.6401,-52.4486 75.6,-43.027"/>
<polygon fill="black" stroke="black" points="78.0588,-45.519 82.9183,-36.1043 73.2484,-40.4337 78.0588,-45.519"/>
<g id="a_edge1&#45;headlabel"><a xlink:href="dir_000013_000003.html" target="_top" xlink:title="2">
<text text-anchor="middle" x="77.3986" y="-47.5518" font-family="Helvetica,sans-Serif" font-size="10.00">2</text>
</a>
</g>
</g>
<!-- dir_26279f5c56f5918cb81f4f13d1df92ff&#45;&gt;dir_17303d77940fd33d75c32f582a716539 -->
<g id="edge2" class="edge"><title>dir_26279f5c56f5918cb81f4f13d1df92ff&#45;&gt;dir_17303d77940fd33d75c32f582a716539</title>
<path fill="none" stroke="black" d="M52.5955,-143.697C48.7252,-135.728 44.0483,-126.1 39.7569,-117.264"/>
<polygon fill="black" stroke="black" points="42.8252,-115.57 35.3078,-108.104 36.5286,-118.629 42.8252,-115.57"/>
<g id="a_edge2&#45;headlabel"><a xlink:href="dir_000005_000013.html" target="_top" xlink:title="3">
<text text-anchor="middle" x="46.9496" y="-115.063" font-family="Helvetica,sans-Serif" font-size="10.00">3</text>
</a>
</g>
</g>
<!-- dir_26279f5c56f5918cb81f4f13d1df92ff&#45;&gt;dir_4c8624fe756ae3c7de80e838bac4bfdf -->
<g id="edge3" class="edge"><title>dir_26279f5c56f5918cb81f4f13d1df92ff&#45;&gt;dir_4c8624fe756ae3c7de80e838bac4bfdf</title>
<path fill="none" stroke="black" d="M65.8249,-143.871C72.6722,-119.564 85.2764,-74.8187 93.3906,-46.0132"/>
<polygon fill="black" stroke="black" points="96.8154,-46.7637 96.158,-36.1893 90.0776,-44.8657 96.8154,-46.7637"/>
<g id="a_edge3&#45;headlabel"><a xlink:href="dir_000005_000003.html" target="_top" xlink:title="7">
<text text-anchor="middle" x="98.5737" y="-48.4935" font-family="Helvetica,sans-Serif" font-size="10.00">7</text>
</a>
</g>
</g>
<!-- dir_ed52edb1cd1708cebbaeaa3a408829b9&#45;&gt;dir_26279f5c56f5918cb81f4f13d1df92ff -->
<g id="edge4" class="edge"><title>dir_ed52edb1cd1708cebbaeaa3a408829b9&#45;&gt;dir_26279f5c56f5918cb81f4f13d1df92ff</title>
<path fill="none" stroke="black" d="M92.618,-215.697C87.7353,-207.559 81.8134,-197.689 76.4208,-188.701"/>
<polygon fill="black" stroke="black" points="79.4088,-186.879 71.2626,-180.104 73.4064,-190.48 79.4088,-186.879"/>
<g id="a_edge4&#45;headlabel"><a xlink:href="dir_000009_000005.html" target="_top" xlink:title="4">
<text text-anchor="middle" x="83.6929" y="-186" font-family="Helvetica,sans-Serif" font-size="10.00">4</text>
</a>
</g>
</g>
<!-- dir_ed52edb1cd1708cebbaeaa3a408829b9&#45;&gt;dir_4c8624fe756ae3c7de80e838bac4bfdf -->
<g id="edge5" class="edge"><title>dir_ed52edb1cd1708cebbaeaa3a408829b9&#45;&gt;dir_4c8624fe756ae3c7de80e838bac4bfdf</title>
<path fill="none" stroke="black" d="M102.84,-215.849C102.494,-178.832 101.675,-91.1809 101.256,-46.3863"/>
<polygon fill="black" stroke="black" points="104.754,-46.1993 101.161,-36.2325 97.7548,-46.2648 104.754,-46.1993"/>
<g id="a_edge5&#45;headlabel"><a xlink:href="dir_000009_000003.html" target="_top" xlink:title="13">
<text text-anchor="middle" x="107.627" y="-47.2672" font-family="Helvetica,sans-Serif" font-size="10.00">13</text>
</a>
</g>
</g>
</g>
</svg>
