<?xml version="1.0" encoding="UTF-8" standalone="no"?>
<!DOCTYPE svg PUBLIC "-//W3C//DTD SVG 1.1//EN"
 "http://www.w3.org/Graphics/SVG/1.1/DTD/svg11.dtd">
<!-- Generated by graphviz version 2.36.0 (20140111.2315)
 -->
<!-- Title: /home/travis/build/mgerhardy/simpleai/src/ai/aggro/Entry.h Pages: 1 -->
<svg width="336pt" height="218pt"
 viewBox="0.00 0.00 336.00 218.00" xmlns="http://www.w3.org/2000/svg" xmlns:xlink="http://www.w3.org/1999/xlink">
<g id="graph0" class="graph" transform="scale(1 1) rotate(0) translate(4 214)">
<title>/home/travis/build/mgerhardy/simpleai/src/ai/aggro/Entry.h</title>
<polygon fill="white" stroke="none" points="-4,4 -4,-214 332,-214 332,4 -4,4"/>
<!-- Node1 -->
<g id="node1" class="node"><title>Node1</title>
<polygon fill="#bfbfbf" stroke="black" points="87.5,-168.5 87.5,-209.5 192.5,-209.5 192.5,-168.5 87.5,-168.5"/>
<text text-anchor="start" x="95.5" y="-197.5" font-family="Helvetica,sans-Serif" font-size="10.00">/home/travis/build</text>
<text text-anchor="start" x="95.5" y="-186.5" font-family="Helvetica,sans-Serif" font-size="10.00">/mgerhardy/simpleai</text>
<text text-anchor="middle" x="140" y="-175.5" font-family="Helvetica,sans-Serif" font-size="10.00">/src/ai/aggro/Entry.h</text>
</g>
<!-- Node2 -->
<g id="node2" class="node"><title>Node2</title>
<g id="a_node2"><a xlink:href="Types_8h.html" target="_top" xlink:title="common/Types.h">
<polygon fill="white" stroke="black" points="94,-112.5 94,-131.5 186,-131.5 186,-112.5 94,-112.5"/>
<text text-anchor="middle" x="140" y="-119.5" font-family="Helvetica,sans-Serif" font-size="10.00">common/Types.h</text>
</a>
</g>
</g>
<!-- Node1&#45;&gt;Node2 -->
<g id="edge1" class="edge"><title>Node1&#45;&gt;Node2</title>
<path fill="none" stroke="midnightblue" d="M140,-168.498C140,-160.065 140,-150.235 140,-141.874"/>
<polygon fill="midnightblue" stroke="midnightblue" points="143.5,-141.652 140,-131.652 136.5,-141.653 143.5,-141.652"/>
</g>
<!-- Node3 -->
<g id="node3" class="node"><title>Node3</title>
<g id="a_node3"><a xlink:href="Log_8h.html" target="_top" xlink:title="Log.h">
<polygon fill="white" stroke="black" points="60.5,-56.5 60.5,-75.5 101.5,-75.5 101.5,-56.5 60.5,-56.5"/>
<text text-anchor="middle" x="81" y="-63.5" font-family="Helvetica,sans-Serif" font-size="10.00">Log.h</text>
</a>
</g>
</g>
<!-- Node2&#45;&gt;Node3 -->
<g id="edge2" class="edge"><title>Node2&#45;&gt;Node3</title>
<path fill="none" stroke="midnightblue" d="M130.521,-112.324C121.799,-104.341 108.657,-92.3128 98.1022,-82.6529"/>
<polygon fill="midnightblue" stroke="midnightblue" points="100.392,-80.0036 90.6519,-75.8339 95.6655,-85.1674 100.392,-80.0036"/>
</g>
<!-- Node4 -->
<g id="node4" class="node"><title>Node4</title>
<polygon fill="white" stroke="#bfbfbf" points="-0.5,-0.5 -0.5,-19.5 42.5,-19.5 42.5,-0.5 -0.5,-0.5"/>
<text text-anchor="middle" x="21" y="-7.5" font-family="Helvetica,sans-Serif" font-size="10.00">cstdio</text>
</g>
<!-- Node2&#45;&gt;Node4 -->
<g id="edge9" class="edge"><title>Node2&#45;&gt;Node4</title>
<path fill="none" stroke="midnightblue" d="M112.107,-112.399C92.8708,-105.266 67.8313,-93.4436 51,-76 38.3462,-62.8859 30.346,-43.4711 25.8198,-29.2751"/>
<polygon fill="midnightblue" stroke="midnightblue" points="29.1677,-28.2534 23.0161,-19.6274 22.4458,-30.2068 29.1677,-28.2534"/>
</g>
<!-- Node7 -->
<g id="node7" class="node"><title>Node7</title>
<polygon fill="white" stroke="#bfbfbf" points="119.5,-56.5 119.5,-75.5 160.5,-75.5 160.5,-56.5 119.5,-56.5"/>
<text text-anchor="middle" x="140" y="-63.5" font-family="Helvetica,sans-Serif" font-size="10.00">string</text>
</g>
<!-- Node2&#45;&gt;Node7 -->
<g id="edge6" class="edge"><title>Node2&#45;&gt;Node7</title>
<path fill="none" stroke="midnightblue" d="M140,-112.083C140,-105.006 140,-94.8611 140,-85.9865"/>
<polygon fill="midnightblue" stroke="midnightblue" points="143.5,-85.751 140,-75.7511 136.5,-85.7511 143.5,-85.751"/>
</g>
<!-- Node8 -->
<g id="node8" class="node"><title>Node8</title>
<polygon fill="white" stroke="#bfbfbf" points="178.5,-56.5 178.5,-75.5 261.5,-75.5 261.5,-56.5 178.5,-56.5"/>
<text text-anchor="middle" x="220" y="-63.5" font-family="Helvetica,sans-Serif" font-size="10.00">unordered_map</text>
</g>
<!-- Node2&#45;&gt;Node8 -->
<g id="edge7" class="edge"><title>Node2&#45;&gt;Node8</title>
<path fill="none" stroke="midnightblue" d="M152.853,-112.324C165.216,-103.979 184.13,-91.2122 198.737,-81.3524"/>
<polygon fill="midnightblue" stroke="midnightblue" points="200.848,-84.1503 207.179,-75.6545 196.932,-78.3483 200.848,-84.1503"/>
</g>
<!-- Node9 -->
<g id="node9" class="node"><title>Node9</title>
<polygon fill="white" stroke="#bfbfbf" points="279.5,-56.5 279.5,-75.5 328.5,-75.5 328.5,-56.5 279.5,-56.5"/>
<text text-anchor="middle" x="304" y="-63.5" font-family="Helvetica,sans-Serif" font-size="10.00">cassert</text>
</g>
<!-- Node2&#45;&gt;Node9 -->
<g id="edge8" class="edge"><title>Node2&#45;&gt;Node9</title>
<path fill="none" stroke="midnightblue" d="M165.986,-112.444C194.104,-103.185 239.052,-88.3854 269.969,-78.2054"/>
<polygon fill="midnightblue" stroke="midnightblue" points="271.071,-81.5275 279.475,-75.0755 268.882,-74.8786 271.071,-81.5275"/>
</g>
<!-- Node3&#45;&gt;Node4 -->
<g id="edge3" class="edge"><title>Node3&#45;&gt;Node4</title>
<path fill="none" stroke="midnightblue" d="M71.36,-56.324C62.4904,-48.3414 49.1253,-36.3128 38.3921,-26.6529"/>
<polygon fill="midnightblue" stroke="midnightblue" points="40.5898,-23.922 30.8154,-19.8339 35.907,-29.1251 40.5898,-23.922"/>
</g>
<!-- Node5 -->
<g id="node5" class="node"><title>Node5</title>
<polygon fill="white" stroke="#bfbfbf" points="60.5,-0.5 60.5,-19.5 109.5,-19.5 109.5,-0.5 60.5,-0.5"/>
<text text-anchor="middle" x="85" y="-7.5" font-family="Helvetica,sans-Serif" font-size="10.00">cstdarg</text>
</g>
<!-- Node3&#45;&gt;Node5 -->
<g id="edge4" class="edge"><title>Node3&#45;&gt;Node5</title>
<path fill="none" stroke="midnightblue" d="M81.6605,-56.083C82.1848,-49.0059 82.9362,-38.8611 83.5936,-29.9865"/>
<polygon fill="midnightblue" stroke="midnightblue" points="87.1034,-29.9823 84.3518,-19.7511 80.1225,-29.4652 87.1034,-29.9823"/>
</g>
<!-- Node6 -->
<g id="node6" class="node"><title>Node6</title>
<polygon fill="white" stroke="#bfbfbf" points="128,-0.5 128,-19.5 174,-19.5 174,-0.5 128,-0.5"/>
<text text-anchor="middle" x="151" y="-7.5" font-family="Helvetica,sans-Serif" font-size="10.00">cstring</text>
</g>
<!-- Node3&#45;&gt;Node6 -->
<g id="edge5" class="edge"><title>Node3&#45;&gt;Node6</title>
<path fill="none" stroke="midnightblue" d="M92.2467,-56.324C102.797,-48.1849 118.801,-35.8395 131.442,-26.0874"/>
<polygon fill="midnightblue" stroke="midnightblue" points="133.769,-28.7132 139.549,-19.8339 129.493,-23.1707 133.769,-28.7132"/>
</g>
</g>
</svg>
