<?xml version="1.0" encoding="UTF-8" standalone="no"?>
<!DOCTYPE svg PUBLIC "-//W3C//DTD SVG 1.1//EN"
 "http://www.w3.org/Graphics/SVG/1.1/DTD/svg11.dtd">
<!-- Generated by graphviz version 2.36.0 (20140111.2315)
 -->
<!-- Title: /home/travis/build/mgerhardy/simpleai/src/ai/conditions/False.h Pages: 1 -->
<svg width="891pt" height="386pt"
 viewBox="0.00 0.00 891.00 386.00" xmlns="http://www.w3.org/2000/svg" xmlns:xlink="http://www.w3.org/1999/xlink">
<g id="graph0" class="graph" transform="scale(1 1) rotate(0) translate(4 382)">
<title>/home/travis/build/mgerhardy/simpleai/src/ai/conditions/False.h</title>
<polygon fill="white" stroke="none" points="-4,4 -4,-382 887,-382 887,4 -4,4"/>
<!-- Node1 -->
<g id="node1" class="node"><title>Node1</title>
<polygon fill="#bfbfbf" stroke="black" points="544,-336.5 544,-377.5 670,-377.5 670,-336.5 544,-336.5"/>
<text text-anchor="start" x="552" y="-365.5" font-family="Helvetica,sans-Serif" font-size="10.00">/home/travis/build</text>
<text text-anchor="start" x="552" y="-354.5" font-family="Helvetica,sans-Serif" font-size="10.00">/mgerhardy/simpleai</text>
<text text-anchor="middle" x="607" y="-343.5" font-family="Helvetica,sans-Serif" font-size="10.00">/src/ai/conditions/False.h</text>
</g>
<!-- Node2 -->
<g id="node2" class="node"><title>Node2</title>
<g id="a_node2"><a xlink:href="ICondition_8h.html" target="_top" xlink:title="Condition related stuff. ">
<polygon fill="white" stroke="black" points="549,-280.5 549,-299.5 665,-299.5 665,-280.5 549,-280.5"/>
<text text-anchor="middle" x="607" y="-287.5" font-family="Helvetica,sans-Serif" font-size="10.00">conditions/ICondition.h</text>
</a>
</g>
</g>
<!-- Node1&#45;&gt;Node2 -->
<g id="edge1" class="edge"><title>Node1&#45;&gt;Node2</title>
<path fill="none" stroke="midnightblue" d="M607,-336.498C607,-328.065 607,-318.235 607,-309.874"/>
<polygon fill="midnightblue" stroke="midnightblue" points="610.5,-309.652 607,-299.652 603.5,-309.653 610.5,-309.652"/>
</g>
<!-- Node3 -->
<g id="node3" class="node"><title>Node3</title>
<polygon fill="white" stroke="#bfbfbf" points="384.5,-56.5 384.5,-75.5 425.5,-75.5 425.5,-56.5 384.5,-56.5"/>
<text text-anchor="middle" x="405" y="-63.5" font-family="Helvetica,sans-Serif" font-size="10.00">string</text>
</g>
<!-- Node2&#45;&gt;Node3 -->
<g id="edge2" class="edge"><title>Node2&#45;&gt;Node3</title>
<path fill="none" stroke="midnightblue" d="M556.242,-280.421C505.656,-268.919 430.416,-243.158 394,-188 373.255,-156.578 386.788,-110.147 396.882,-84.9148"/>
<polygon fill="midnightblue" stroke="midnightblue" points="400.192,-86.0761 400.888,-75.5041 393.751,-83.3344 400.192,-86.0761"/>
</g>
<!-- Node4 -->
<g id="node4" class="node"><title>Node4</title>
<polygon fill="white" stroke="#bfbfbf" points="593,-112.5 593,-131.5 637,-131.5 637,-112.5 593,-112.5"/>
<text text-anchor="middle" x="615" y="-119.5" font-family="Helvetica,sans-Serif" font-size="10.00">vector</text>
</g>
<!-- Node2&#45;&gt;Node4 -->
<g id="edge3" class="edge"><title>Node2&#45;&gt;Node4</title>
<path fill="none" stroke="midnightblue" d="M607.43,-280.075C608.689,-253.945 612.387,-177.211 614.105,-141.577"/>
<polygon fill="midnightblue" stroke="midnightblue" points="617.602,-141.725 614.587,-131.568 610.61,-141.388 617.602,-141.725"/>
</g>
<!-- Node5 -->
<g id="node5" class="node"><title>Node5</title>
<polygon fill="white" stroke="#bfbfbf" points="831,-224.5 831,-243.5 883,-243.5 883,-224.5 831,-224.5"/>
<text text-anchor="middle" x="857" y="-231.5" font-family="Helvetica,sans-Serif" font-size="10.00">sstream</text>
</g>
<!-- Node2&#45;&gt;Node5 -->
<g id="edge4" class="edge"><title>Node2&#45;&gt;Node5</title>
<path fill="none" stroke="midnightblue" d="M647.285,-280.495C689.579,-271.536 758.003,-256.958 817,-244 818.251,-243.725 819.525,-243.444 820.81,-243.16"/>
<polygon fill="midnightblue" stroke="midnightblue" points="821.758,-246.535 830.759,-240.945 820.237,-239.702 821.758,-246.535"/>
</g>
<!-- Node6 -->
<g id="node6" class="node"><title>Node6</title>
<polygon fill="white" stroke="#bfbfbf" points="741,-112.5 741,-131.5 793,-131.5 793,-112.5 741,-112.5"/>
<text text-anchor="middle" x="767" y="-119.5" font-family="Helvetica,sans-Serif" font-size="10.00">memory</text>
</g>
<!-- Node2&#45;&gt;Node6 -->
<g id="edge5" class="edge"><title>Node2&#45;&gt;Node6</title>
<path fill="none" stroke="midnightblue" d="M665.074,-281.853C710.562,-274.921 768.493,-262.683 783,-244 806.405,-213.858 788.961,-166.243 776.559,-140.656"/>
<polygon fill="midnightblue" stroke="midnightblue" points="779.661,-139.035 771.994,-131.723 773.428,-142.22 779.661,-139.035"/>
</g>
<!-- Node7 -->
<g id="node7" class="node"><title>Node7</title>
<g id="a_node7"><a xlink:href="MemoryAllocator_8h.html" target="_top" xlink:title="common/MemoryAllocator.h">
<polygon fill="white" stroke="black" points="635.5,-224.5 635.5,-243.5 774.5,-243.5 774.5,-224.5 635.5,-224.5"/>
<text text-anchor="middle" x="705" y="-231.5" font-family="Helvetica,sans-Serif" font-size="10.00">common/MemoryAllocator.h</text>
</a>
</g>
</g>
<!-- Node2&#45;&gt;Node7 -->
<g id="edge6" class="edge"><title>Node2&#45;&gt;Node7</title>
<path fill="none" stroke="midnightblue" d="M622.745,-280.324C638.319,-271.743 662.377,-258.486 680.459,-248.522"/>
<polygon fill="midnightblue" stroke="midnightblue" points="682.224,-251.546 689.294,-243.655 678.846,-245.415 682.224,-251.546"/>
</g>
<!-- Node8 -->
<g id="node8" class="node"><title>Node8</title>
<g id="a_node8"><a xlink:href="Thread_8h.html" target="_top" xlink:title="common/Thread.h">
<polygon fill="white" stroke="black" points="208.5,-224.5 208.5,-243.5 303.5,-243.5 303.5,-224.5 208.5,-224.5"/>
<text text-anchor="middle" x="256" y="-231.5" font-family="Helvetica,sans-Serif" font-size="10.00">common/Thread.h</text>
</a>
</g>
</g>
<!-- Node2&#45;&gt;Node8 -->
<g id="edge8" class="edge"><title>Node2&#45;&gt;Node8</title>
<path fill="none" stroke="midnightblue" d="M551.383,-280.444C486.52,-270.465 379.806,-254.047 313.956,-243.916"/>
<polygon fill="midnightblue" stroke="midnightblue" points="314.167,-240.408 303.751,-242.346 313.102,-247.326 314.167,-240.408"/>
</g>
<!-- Node20 -->
<g id="node20" class="node"><title>Node20</title>
<g id="a_node20"><a xlink:href="AIFactories_8h.html" target="_top" xlink:title="AIFactories.h">
<polygon fill="white" stroke="black" points="503.5,-224.5 503.5,-243.5 578.5,-243.5 578.5,-224.5 503.5,-224.5"/>
<text text-anchor="middle" x="541" y="-231.5" font-family="Helvetica,sans-Serif" font-size="10.00">AIFactories.h</text>
</a>
</g>
</g>
<!-- Node2&#45;&gt;Node20 -->
<g id="edge22" class="edge"><title>Node2&#45;&gt;Node20</title>
<path fill="none" stroke="midnightblue" d="M596.396,-280.324C586.544,-272.263 571.649,-260.077 559.785,-250.369"/>
<polygon fill="midnightblue" stroke="midnightblue" points="561.753,-247.457 551.797,-243.834 557.32,-252.875 561.753,-247.457"/>
</g>
<!-- Node7&#45;&gt;Node6 -->
<g id="edge7" class="edge"><title>Node7&#45;&gt;Node6</title>
<path fill="none" stroke="midnightblue" d="M709.865,-224.368C720.052,-206.296 743.791,-164.176 757.245,-140.307"/>
<polygon fill="midnightblue" stroke="midnightblue" points="760.296,-142.022 762.158,-131.591 754.198,-138.584 760.296,-142.022"/>
</g>
<!-- Node9 -->
<g id="node9" class="node"><title>Node9</title>
<g id="a_node9"><a xlink:href="Types_8h.html" target="_top" xlink:title="Types.h">
<polygon fill="white" stroke="black" points="234,-112.5 234,-131.5 286,-131.5 286,-112.5 234,-112.5"/>
<text text-anchor="middle" x="260" y="-119.5" font-family="Helvetica,sans-Serif" font-size="10.00">Types.h</text>
</a>
</g>
</g>
<!-- Node8&#45;&gt;Node9 -->
<g id="edge9" class="edge"><title>Node8&#45;&gt;Node9</title>
<path fill="none" stroke="midnightblue" d="M246.834,-224.458C234.955,-212.299 216.589,-189.127 224,-168 227.785,-157.209 235.367,-147.084 242.6,-139.181"/>
<polygon fill="midnightblue" stroke="midnightblue" points="245.326,-141.4 249.838,-131.815 240.333,-136.494 245.326,-141.4"/>
</g>
<!-- Node17 -->
<g id="node17" class="node"><title>Node17</title>
<polygon fill="white" stroke="#bfbfbf" points="297,-168.5 297,-187.5 341,-187.5 341,-168.5 297,-168.5"/>
<text text-anchor="middle" x="319" y="-175.5" font-family="Helvetica,sans-Serif" font-size="10.00">thread</text>
</g>
<!-- Node8&#45;&gt;Node17 -->
<g id="edge19" class="edge"><title>Node8&#45;&gt;Node17</title>
<path fill="none" stroke="midnightblue" d="M266.122,-224.324C275.526,-216.263 289.744,-204.077 301.069,-194.369"/>
<polygon fill="midnightblue" stroke="midnightblue" points="303.379,-196.999 308.694,-187.834 298.823,-191.684 303.379,-196.999"/>
</g>
<!-- Node18 -->
<g id="node18" class="node"><title>Node18</title>
<polygon fill="white" stroke="#bfbfbf" points="133,-168.5 133,-187.5 177,-187.5 177,-168.5 133,-168.5"/>
<text text-anchor="middle" x="155" y="-175.5" font-family="Helvetica,sans-Serif" font-size="10.00">mutex</text>
</g>
<!-- Node8&#45;&gt;Node18 -->
<g id="edge20" class="edge"><title>Node8&#45;&gt;Node18</title>
<path fill="none" stroke="midnightblue" d="M239.773,-224.324C223.649,-215.703 198.7,-202.364 180.036,-192.386"/>
<polygon fill="midnightblue" stroke="midnightblue" points="181.656,-189.283 171.187,-187.655 178.356,-195.456 181.656,-189.283"/>
</g>
<!-- Node19 -->
<g id="node19" class="node"><title>Node19</title>
<polygon fill="white" stroke="#bfbfbf" points="233,-168.5 233,-187.5 279,-187.5 279,-168.5 233,-168.5"/>
<text text-anchor="middle" x="256" y="-175.5" font-family="Helvetica,sans-Serif" font-size="10.00">atomic</text>
</g>
<!-- Node8&#45;&gt;Node19 -->
<g id="edge21" class="edge"><title>Node8&#45;&gt;Node19</title>
<path fill="none" stroke="midnightblue" d="M256,-224.083C256,-217.006 256,-206.861 256,-197.986"/>
<polygon fill="midnightblue" stroke="midnightblue" points="259.5,-197.751 256,-187.751 252.5,-197.751 259.5,-197.751"/>
</g>
<!-- Node9&#45;&gt;Node3 -->
<g id="edge14" class="edge"><title>Node9&#45;&gt;Node3</title>
<path fill="none" stroke="midnightblue" d="M282.976,-112.444C307.868,-103.173 347.681,-88.3464 375.019,-78.1652"/>
<polygon fill="midnightblue" stroke="midnightblue" points="376.327,-81.4133 384.476,-74.6433 373.883,-74.8534 376.327,-81.4133"/>
</g>
<!-- Node10 -->
<g id="node10" class="node"><title>Node10</title>
<g id="a_node10"><a xlink:href="Log_8h.html" target="_top" xlink:title="Log.h">
<polygon fill="white" stroke="black" points="37.5,-56.5 37.5,-75.5 78.5,-75.5 78.5,-56.5 37.5,-56.5"/>
<text text-anchor="middle" x="58" y="-63.5" font-family="Helvetica,sans-Serif" font-size="10.00">Log.h</text>
</a>
</g>
</g>
<!-- Node9&#45;&gt;Node10 -->
<g id="edge10" class="edge"><title>Node9&#45;&gt;Node10</title>
<path fill="none" stroke="midnightblue" d="M233.813,-114.591C201.696,-106.643 145.378,-92.4269 88.4429,-76.3229"/>
<polygon fill="midnightblue" stroke="midnightblue" points="89.136,-72.8813 78.5599,-73.5099 87.2197,-79.6139 89.136,-72.8813"/>
</g>
<!-- Node11 -->
<g id="node11" class="node"><title>Node11</title>
<polygon fill="white" stroke="#bfbfbf" points="235,-0.5 235,-19.5 281,-19.5 281,-0.5 235,-0.5"/>
<text text-anchor="middle" x="258" y="-7.5" font-family="Helvetica,sans-Serif" font-size="10.00">stdio.h</text>
</g>
<!-- Node9&#45;&gt;Node11 -->
<g id="edge17" class="edge"><title>Node9&#45;&gt;Node11</title>
<path fill="none" stroke="midnightblue" d="M285.451,-112.385C312.853,-101.597 350.675,-81.4083 336,-56 326.196,-39.0247 307.283,-27.8827 290.536,-20.9321"/>
<polygon fill="midnightblue" stroke="midnightblue" points="291.603,-17.5933 281.012,-17.3116 289.116,-24.1365 291.603,-17.5933"/>
</g>
<!-- Node14 -->
<g id="node14" class="node"><title>Node14</title>
<polygon fill="white" stroke="#bfbfbf" points="96.5,-56.5 96.5,-75.5 179.5,-75.5 179.5,-56.5 96.5,-56.5"/>
<text text-anchor="middle" x="138" y="-63.5" font-family="Helvetica,sans-Serif" font-size="10.00">unordered_map</text>
</g>
<!-- Node9&#45;&gt;Node14 -->
<g id="edge15" class="edge"><title>Node9&#45;&gt;Node14</title>
<path fill="none" stroke="midnightblue" d="M240.669,-112.444C220.68,-103.596 189.257,-89.6875 166.436,-79.5865"/>
<polygon fill="midnightblue" stroke="midnightblue" points="167.802,-76.3635 157.241,-75.5164 164.968,-82.7645 167.802,-76.3635"/>
</g>
<!-- Node15 -->
<g id="node15" class="node"><title>Node15</title>
<polygon fill="white" stroke="#bfbfbf" points="198,-56.5 198,-75.5 250,-75.5 250,-56.5 198,-56.5"/>
<text text-anchor="middle" x="224" y="-63.5" font-family="Helvetica,sans-Serif" font-size="10.00">assert.h</text>
</g>
<!-- Node9&#45;&gt;Node15 -->
<g id="edge16" class="edge"><title>Node9&#45;&gt;Node15</title>
<path fill="none" stroke="midnightblue" d="M254.055,-112.083C249.023,-104.534 241.663,-93.4948 235.487,-84.2298"/>
<polygon fill="midnightblue" stroke="midnightblue" points="238.293,-82.1301 229.834,-75.7511 232.469,-86.0131 238.293,-82.1301"/>
</g>
<!-- Node16 -->
<g id="node16" class="node"><title>Node16</title>
<polygon fill="white" stroke="#bfbfbf" points="268.5,-56.5 268.5,-75.5 327.5,-75.5 327.5,-56.5 268.5,-56.5"/>
<text text-anchor="middle" x="298" y="-63.5" font-family="Helvetica,sans-Serif" font-size="10.00">inttypes.h</text>
</g>
<!-- Node9&#45;&gt;Node16 -->
<g id="edge18" class="edge"><title>Node9&#45;&gt;Node16</title>
<path fill="none" stroke="midnightblue" d="M266.275,-112.083C271.642,-104.455 279.518,-93.2645 286.079,-83.9408"/>
<polygon fill="midnightblue" stroke="midnightblue" points="288.949,-85.9434 291.842,-75.7511 283.225,-81.9149 288.949,-85.9434"/>
</g>
<!-- Node10&#45;&gt;Node11 -->
<g id="edge11" class="edge"><title>Node10&#45;&gt;Node11</title>
<path fill="none" stroke="midnightblue" d="M78.5619,-58.4974C81.3911,-57.6382 84.2635,-56.7843 87,-56 134.737,-42.3183 190.424,-27.9592 224.952,-19.2419"/>
<polygon fill="midnightblue" stroke="midnightblue" points="226.113,-22.559 234.956,-16.7246 224.404,-15.7706 226.113,-22.559"/>
</g>
<!-- Node12 -->
<g id="node12" class="node"><title>Node12</title>
<polygon fill="white" stroke="#bfbfbf" points="67,-0.5 67,-19.5 119,-19.5 119,-0.5 67,-0.5"/>
<text text-anchor="middle" x="93" y="-7.5" font-family="Helvetica,sans-Serif" font-size="10.00">stdarg.h</text>
</g>
<!-- Node10&#45;&gt;Node12 -->
<g id="edge12" class="edge"><title>Node10&#45;&gt;Node12</title>
<path fill="none" stroke="midnightblue" d="M63.7795,-56.083C68.6724,-48.5341 75.8274,-37.4948 81.8326,-28.2298"/>
<polygon fill="midnightblue" stroke="midnightblue" points="84.826,-30.0463 87.328,-19.7511 78.952,-26.239 84.826,-30.0463"/>
</g>
<!-- Node13 -->
<g id="node13" class="node"><title>Node13</title>
<polygon fill="white" stroke="#bfbfbf" points="-0.5,-0.5 -0.5,-19.5 48.5,-19.5 48.5,-0.5 -0.5,-0.5"/>
<text text-anchor="middle" x="24" y="-7.5" font-family="Helvetica,sans-Serif" font-size="10.00">string.h</text>
</g>
<!-- Node10&#45;&gt;Node13 -->
<g id="edge13" class="edge"><title>Node10&#45;&gt;Node13</title>
<path fill="none" stroke="midnightblue" d="M52.3856,-56.083C47.6326,-48.5341 40.6819,-37.4948 34.8484,-28.2298"/>
<polygon fill="midnightblue" stroke="midnightblue" points="37.7999,-26.3486 29.5099,-19.7511 31.8763,-30.0783 37.7999,-26.3486"/>
</g>
<!-- Node20&#45;&gt;Node4 -->
<g id="edge33" class="edge"><title>Node20&#45;&gt;Node4</title>
<path fill="none" stroke="midnightblue" d="M546.807,-224.368C559.019,-206.215 587.552,-163.802 603.57,-139.99"/>
<polygon fill="midnightblue" stroke="midnightblue" points="606.543,-141.842 609.22,-131.591 600.734,-137.935 606.543,-141.842"/>
</g>
<!-- Node21 -->
<g id="node21" class="node"><title>Node21</title>
<g id="a_node21"><a xlink:href="IAIFactory_8h.html" target="_top" xlink:title="IAIFactory.h">
<polygon fill="white" stroke="black" points="635.5,-168.5 635.5,-187.5 706.5,-187.5 706.5,-168.5 635.5,-168.5"/>
<text text-anchor="middle" x="671" y="-175.5" font-family="Helvetica,sans-Serif" font-size="10.00">IAIFactory.h</text>
</a>
</g>
</g>
<!-- Node20&#45;&gt;Node21 -->
<g id="edge23" class="edge"><title>Node20&#45;&gt;Node21</title>
<path fill="none" stroke="midnightblue" d="M561.599,-224.444C582.993,-215.557 616.681,-201.563 641.024,-191.451"/>
<polygon fill="midnightblue" stroke="midnightblue" points="642.605,-194.585 650.497,-187.516 639.92,-188.12 642.605,-194.585"/>
</g>
<!-- Node23 -->
<g id="node23" class="node"><title>Node23</title>
<g id="a_node23"><a xlink:href="IFactoryRegistry_8h.html" target="_top" xlink:title="common/IFactoryRegistry.h">
<polygon fill="white" stroke="black" points="403,-168.5 403,-187.5 541,-187.5 541,-168.5 403,-168.5"/>
<text text-anchor="middle" x="472" y="-175.5" font-family="Helvetica,sans-Serif" font-size="10.00">common/IFactoryRegistry.h</text>
</a>
</g>
</g>
<!-- Node20&#45;&gt;Node23 -->
<g id="edge28" class="edge"><title>Node20&#45;&gt;Node23</title>
<path fill="none" stroke="midnightblue" d="M529.914,-224.324C519.514,-216.185 503.739,-203.839 491.278,-194.087"/>
<polygon fill="midnightblue" stroke="midnightblue" points="493.32,-191.241 483.288,-187.834 489.006,-196.753 493.32,-191.241"/>
</g>
<!-- Node21&#45;&gt;Node3 -->
<g id="edge25" class="edge"><title>Node21&#45;&gt;Node3</title>
<path fill="none" stroke="midnightblue" d="M670.149,-168.297C668.277,-154.162 662.466,-126.352 645,-112 613.46,-86.0842 493.547,-73.6934 436.076,-69.145"/>
<polygon fill="midnightblue" stroke="midnightblue" points="436.02,-65.6307 425.783,-68.3618 435.489,-72.6105 436.02,-65.6307"/>
</g>
<!-- Node21&#45;&gt;Node4 -->
<g id="edge26" class="edge"><title>Node21&#45;&gt;Node4</title>
<path fill="none" stroke="midnightblue" d="M662.003,-168.324C653.806,-160.42 641.494,-148.548 631.528,-138.938"/>
<polygon fill="midnightblue" stroke="midnightblue" points="633.789,-136.256 624.161,-131.834 628.93,-141.295 633.789,-136.256"/>
</g>
<!-- Node21&#45;&gt;Node6 -->
<g id="edge24" class="edge"><title>Node21&#45;&gt;Node6</title>
<path fill="none" stroke="midnightblue" d="M686.424,-168.324C701.54,-159.822 724.815,-146.729 742.471,-136.797"/>
<polygon fill="midnightblue" stroke="midnightblue" points="744.614,-139.608 751.614,-131.655 741.183,-133.507 744.614,-139.608"/>
</g>
<!-- Node22 -->
<g id="node22" class="node"><title>Node22</title>
<polygon fill="white" stroke="#bfbfbf" points="693.5,-112.5 693.5,-131.5 722.5,-131.5 722.5,-112.5 693.5,-112.5"/>
<text text-anchor="middle" x="708" y="-119.5" font-family="Helvetica,sans-Serif" font-size="10.00">list</text>
</g>
<!-- Node21&#45;&gt;Node22 -->
<g id="edge27" class="edge"><title>Node21&#45;&gt;Node22</title>
<path fill="none" stroke="midnightblue" d="M677.11,-168.083C682.282,-160.534 689.846,-149.495 696.194,-140.23"/>
<polygon fill="midnightblue" stroke="midnightblue" points="699.239,-141.979 702.004,-131.751 693.464,-138.022 699.239,-141.979"/>
</g>
<!-- Node23&#45;&gt;Node6 -->
<g id="edge31" class="edge"><title>Node23&#45;&gt;Node6</title>
<path fill="none" stroke="midnightblue" d="M528.053,-168.471C578.404,-160.537 654.566,-147.862 730.483,-131.969"/>
<polygon fill="midnightblue" stroke="midnightblue" points="731.645,-135.301 740.705,-129.809 730.198,-128.452 731.645,-135.301"/>
</g>
<!-- Node23&#45;&gt;Node9 -->
<g id="edge29" class="edge"><title>Node23&#45;&gt;Node9</title>
<path fill="none" stroke="midnightblue" d="M438.408,-168.444C399.527,-158.54 335.75,-142.295 295.911,-132.147"/>
<polygon fill="midnightblue" stroke="midnightblue" points="296.638,-128.721 286.083,-129.644 294.91,-135.504 296.638,-128.721"/>
</g>
<!-- Node24 -->
<g id="node24" class="node"><title>Node24</title>
<g id="a_node24"><a xlink:href="NonCopyable_8h.html" target="_top" xlink:title="common/NonCopyable.h">
<polygon fill="white" stroke="black" points="450.5,-112.5 450.5,-131.5 575.5,-131.5 575.5,-112.5 450.5,-112.5"/>
<text text-anchor="middle" x="513" y="-119.5" font-family="Helvetica,sans-Serif" font-size="10.00">common/NonCopyable.h</text>
</a>
</g>
</g>
<!-- Node23&#45;&gt;Node24 -->
<g id="edge30" class="edge"><title>Node23&#45;&gt;Node24</title>
<path fill="none" stroke="midnightblue" d="M478.77,-168.083C484.562,-160.455 493.058,-149.264 500.138,-139.941"/>
<polygon fill="midnightblue" stroke="midnightblue" points="503.096,-141.832 506.356,-131.751 497.521,-137.599 503.096,-141.832"/>
</g>
<!-- Node25 -->
<g id="node25" class="node"><title>Node25</title>
<polygon fill="white" stroke="#bfbfbf" points="397.5,-112.5 397.5,-131.5 432.5,-131.5 432.5,-112.5 397.5,-112.5"/>
<text text-anchor="middle" x="415" y="-119.5" font-family="Helvetica,sans-Serif" font-size="10.00">map</text>
</g>
<!-- Node23&#45;&gt;Node25 -->
<g id="edge32" class="edge"><title>Node23&#45;&gt;Node25</title>
<path fill="none" stroke="midnightblue" d="M462.842,-168.324C454.499,-160.42 441.968,-148.548 431.823,-138.938"/>
<polygon fill="midnightblue" stroke="midnightblue" points="433.991,-136.171 424.325,-131.834 429.177,-141.252 433.991,-136.171"/>
</g>
</g>
</svg>
