<?xml version="1.0" encoding="UTF-8" standalone="no"?>
<!DOCTYPE svg PUBLIC "-//W3C//DTD SVG 1.1//EN"
 "http://www.w3.org/Graphics/SVG/1.1/DTD/svg11.dtd">
<!-- Generated by graphviz version 2.36.0 (20140111.2315)
 -->
<!-- Title: /home/travis/build/mgerhardy/simpleai/src/ai/conditions/Filter.h Pages: 1 -->
<svg width="2321pt" height="610pt"
 viewBox="0.00 0.00 2321.00 610.00" xmlns="http://www.w3.org/2000/svg" xmlns:xlink="http://www.w3.org/1999/xlink">
<g id="graph0" class="graph" transform="scale(1 1) rotate(0) translate(4 606)">
<title>/home/travis/build/mgerhardy/simpleai/src/ai/conditions/Filter.h</title>
<polygon fill="white" stroke="none" points="-4,4 -4,-606 2317,-606 2317,4 -4,4"/>
<!-- Node1 -->
<g id="node1" class="node"><title>Node1</title>
<polygon fill="#bfbfbf" stroke="black" points="327,-560.5 327,-601.5 451,-601.5 451,-560.5 327,-560.5"/>
<text text-anchor="start" x="335" y="-589.5" font-family="Helvetica,sans-Serif" font-size="10.00">/home/travis/build</text>
<text text-anchor="start" x="335" y="-578.5" font-family="Helvetica,sans-Serif" font-size="10.00">/mgerhardy/simpleai</text>
<text text-anchor="middle" x="389" y="-567.5" font-family="Helvetica,sans-Serif" font-size="10.00">/src/ai/conditions/Filter.h</text>
</g>
<!-- Node2 -->
<g id="node2" class="node"><title>Node2</title>
<g id="a_node2"><a xlink:href="ICondition_8h.html" target="_top" xlink:title="Condition related stuff. ">
<polygon fill="white" stroke="black" points="220,-280.5 220,-299.5 336,-299.5 336,-280.5 220,-280.5"/>
<text text-anchor="middle" x="278" y="-287.5" font-family="Helvetica,sans-Serif" font-size="10.00">conditions/ICondition.h</text>
</a>
</g>
</g>
<!-- Node1&#45;&gt;Node2 -->
<g id="edge1" class="edge"><title>Node1&#45;&gt;Node2</title>
<path fill="none" stroke="midnightblue" d="M326.942,-578.941C245.833,-573.888 114,-551.454 114,-459 114,-459 114,-459 114,-401 114,-345.672 179.174,-316.387 227.351,-302.298"/>
<polygon fill="midnightblue" stroke="midnightblue" points="228.345,-305.654 237.039,-299.599 226.466,-298.911 228.345,-305.654"/>
</g>
<!-- Node26 -->
<g id="node26" class="node"><title>Node26</title>
<g id="a_node26"><a xlink:href="IFilter_8h.html" target="_top" xlink:title="filter/IFilter.h">
<polygon fill="white" stroke="black" points="628.5,-504.5 628.5,-523.5 699.5,-523.5 699.5,-504.5 628.5,-504.5"/>
<text text-anchor="middle" x="664" y="-511.5" font-family="Helvetica,sans-Serif" font-size="10.00">filter/IFilter.h</text>
</a>
</g>
</g>
<!-- Node1&#45;&gt;Node26 -->
<g id="edge33" class="edge"><title>Node1&#45;&gt;Node26</title>
<path fill="none" stroke="midnightblue" d="M451.058,-565.332C501.869,-553.322 572.585,-536.607 618.328,-525.795"/>
<polygon fill="midnightblue" stroke="midnightblue" points="619.332,-529.154 628.258,-523.448 617.721,-522.342 619.332,-529.154"/>
</g>
<!-- Node3 -->
<g id="node3" class="node"><title>Node3</title>
<polygon fill="white" stroke="#bfbfbf" points="417.5,-56.5 417.5,-75.5 458.5,-75.5 458.5,-56.5 417.5,-56.5"/>
<text text-anchor="middle" x="438" y="-63.5" font-family="Helvetica,sans-Serif" font-size="10.00">string</text>
</g>
<!-- Node2&#45;&gt;Node3 -->
<g id="edge2" class="edge"><title>Node2&#45;&gt;Node3</title>
<path fill="none" stroke="midnightblue" d="M222.086,-280.458C200.528,-274.136 177.978,-263.137 165,-244 148.683,-219.938 183.227,-180.649 193,-168 216.108,-138.091 223.497,-129.495 257,-112 305.851,-86.4897 369.75,-75.0094 407.095,-70.1795"/>
<polygon fill="midnightblue" stroke="midnightblue" points="407.833,-73.6158 417.338,-68.9365 406.99,-66.6668 407.833,-73.6158"/>
</g>
<!-- Node4 -->
<g id="node4" class="node"><title>Node4</title>
<polygon fill="white" stroke="#bfbfbf" points="266,-112.5 266,-131.5 310,-131.5 310,-112.5 266,-112.5"/>
<text text-anchor="middle" x="288" y="-119.5" font-family="Helvetica,sans-Serif" font-size="10.00">vector</text>
</g>
<!-- Node2&#45;&gt;Node4 -->
<g id="edge3" class="edge"><title>Node2&#45;&gt;Node4</title>
<path fill="none" stroke="midnightblue" d="M232.907,-280.496C197.814,-271.436 157.202,-254.138 171,-224 189.566,-183.447 233.344,-152.977 261.769,-136.592"/>
<polygon fill="midnightblue" stroke="midnightblue" points="263.73,-139.506 270.762,-131.581 260.323,-133.392 263.73,-139.506"/>
</g>
<!-- Node5 -->
<g id="node5" class="node"><title>Node5</title>
<polygon fill="white" stroke="#bfbfbf" points="180,-224.5 180,-243.5 232,-243.5 232,-224.5 180,-224.5"/>
<text text-anchor="middle" x="206" y="-231.5" font-family="Helvetica,sans-Serif" font-size="10.00">sstream</text>
</g>
<!-- Node2&#45;&gt;Node5 -->
<g id="edge4" class="edge"><title>Node2&#45;&gt;Node5</title>
<path fill="none" stroke="midnightblue" d="M266.432,-280.324C255.58,-272.185 239.119,-259.839 226.117,-250.087"/>
<polygon fill="midnightblue" stroke="midnightblue" points="227.879,-247.034 217.779,-243.834 223.679,-252.634 227.879,-247.034"/>
</g>
<!-- Node6 -->
<g id="node6" class="node"><title>Node6</title>
<polygon fill="white" stroke="#bfbfbf" points="583,-112.5 583,-131.5 635,-131.5 635,-112.5 583,-112.5"/>
<text text-anchor="middle" x="609" y="-119.5" font-family="Helvetica,sans-Serif" font-size="10.00">memory</text>
</g>
<!-- Node2&#45;&gt;Node6 -->
<g id="edge5" class="edge"><title>Node2&#45;&gt;Node6</title>
<path fill="none" stroke="midnightblue" d="M287.833,-280.246C303.682,-266.537 336.312,-239.925 368,-224 415.475,-200.142 432.846,-208.174 482,-188 519.182,-172.739 560.254,-150.709 585.345,-136.623"/>
<polygon fill="midnightblue" stroke="midnightblue" points="587.161,-139.617 594.138,-131.644 583.712,-133.526 587.161,-139.617"/>
</g>
<!-- Node7 -->
<g id="node7" class="node"><title>Node7</title>
<g id="a_node7"><a xlink:href="MemoryAllocator_8h.html" target="_top" xlink:title="common/MemoryAllocator.h">
<polygon fill="white" stroke="black" points="420.5,-224.5 420.5,-243.5 559.5,-243.5 559.5,-224.5 420.5,-224.5"/>
<text text-anchor="middle" x="490" y="-231.5" font-family="Helvetica,sans-Serif" font-size="10.00">common/MemoryAllocator.h</text>
</a>
</g>
</g>
<!-- Node2&#45;&gt;Node7 -->
<g id="edge6" class="edge"><title>Node2&#45;&gt;Node7</title>
<path fill="none" stroke="midnightblue" d="M311.592,-280.444C348.187,-271.122 406.838,-256.183 446.826,-245.997"/>
<polygon fill="midnightblue" stroke="midnightblue" points="447.739,-249.377 456.565,-243.516 446.011,-242.593 447.739,-249.377"/>
</g>
<!-- Node8 -->
<g id="node8" class="node"><title>Node8</title>
<g id="a_node8"><a xlink:href="Thread_8h.html" target="_top" xlink:title="common/Thread.h">
<polygon fill="white" stroke="black" points="727.5,-168.5 727.5,-187.5 822.5,-187.5 822.5,-168.5 727.5,-168.5"/>
<text text-anchor="middle" x="775" y="-175.5" font-family="Helvetica,sans-Serif" font-size="10.00">common/Thread.h</text>
</a>
</g>
</g>
<!-- Node2&#45;&gt;Node8 -->
<g id="edge8" class="edge"><title>Node2&#45;&gt;Node8</title>
<path fill="none" stroke="midnightblue" d="M295.234,-280.39C329.827,-263.132 404.949,-225.798 411,-224 516.01,-192.802 644.271,-183.213 717.107,-180.279"/>
<polygon fill="midnightblue" stroke="midnightblue" points="717.58,-183.764 727.442,-179.892 717.318,-176.768 717.58,-183.764"/>
</g>
<!-- Node20 -->
<g id="node20" class="node"><title>Node20</title>
<g id="a_node20"><a xlink:href="AIFactories_8h.html" target="_top" xlink:title="AIFactories.h">
<polygon fill="white" stroke="black" points="250.5,-224.5 250.5,-243.5 325.5,-243.5 325.5,-224.5 250.5,-224.5"/>
<text text-anchor="middle" x="288" y="-231.5" font-family="Helvetica,sans-Serif" font-size="10.00">AIFactories.h</text>
</a>
</g>
</g>
<!-- Node2&#45;&gt;Node20 -->
<g id="edge21" class="edge"><title>Node2&#45;&gt;Node20</title>
<path fill="none" stroke="midnightblue" d="M279.651,-280.083C280.976,-272.927 282.882,-262.635 284.539,-253.691"/>
<polygon fill="midnightblue" stroke="midnightblue" points="288,-254.221 286.379,-243.751 281.117,-252.947 288,-254.221"/>
</g>
<!-- Node7&#45;&gt;Node6 -->
<g id="edge7" class="edge"><title>Node7&#45;&gt;Node6</title>
<path fill="none" stroke="midnightblue" d="M499.338,-224.368C519.411,-205.814 566.903,-161.913 592.299,-138.438"/>
<polygon fill="midnightblue" stroke="midnightblue" points="594.738,-140.95 599.706,-131.591 589.987,-135.809 594.738,-140.95"/>
</g>
<!-- Node9 -->
<g id="node9" class="node"><title>Node9</title>
<g id="a_node9"><a xlink:href="Types_8h.html" target="_top" xlink:title="Types.h">
<polygon fill="white" stroke="black" points="1334,-112.5 1334,-131.5 1386,-131.5 1386,-112.5 1334,-112.5"/>
<text text-anchor="middle" x="1360" y="-119.5" font-family="Helvetica,sans-Serif" font-size="10.00">Types.h</text>
</a>
</g>
</g>
<!-- Node8&#45;&gt;Node9 -->
<g id="edge9" class="edge"><title>Node8&#45;&gt;Node9</title>
<path fill="none" stroke="midnightblue" d="M822.873,-172.581C936.86,-162.059 1222.37,-135.704 1323.66,-126.354"/>
<polygon fill="midnightblue" stroke="midnightblue" points="1324.07,-129.831 1333.71,-125.427 1323.43,-122.861 1324.07,-129.831"/>
</g>
<!-- Node17 -->
<g id="node17" class="node"><title>Node17</title>
<polygon fill="white" stroke="#bfbfbf" points="715,-112.5 715,-131.5 759,-131.5 759,-112.5 715,-112.5"/>
<text text-anchor="middle" x="737" y="-119.5" font-family="Helvetica,sans-Serif" font-size="10.00">thread</text>
</g>
<!-- Node8&#45;&gt;Node17 -->
<g id="edge18" class="edge"><title>Node8&#45;&gt;Node17</title>
<path fill="none" stroke="midnightblue" d="M768.725,-168.083C763.358,-160.455 755.482,-149.264 748.921,-139.941"/>
<polygon fill="midnightblue" stroke="midnightblue" points="751.775,-137.915 743.158,-131.751 746.051,-141.943 751.775,-137.915"/>
</g>
<!-- Node18 -->
<g id="node18" class="node"><title>Node18</title>
<polygon fill="white" stroke="#bfbfbf" points="653,-112.5 653,-131.5 697,-131.5 697,-112.5 653,-112.5"/>
<text text-anchor="middle" x="675" y="-119.5" font-family="Helvetica,sans-Serif" font-size="10.00">mutex</text>
</g>
<!-- Node8&#45;&gt;Node18 -->
<g id="edge19" class="edge"><title>Node8&#45;&gt;Node18</title>
<path fill="none" stroke="midnightblue" d="M758.933,-168.324C743.042,-159.743 718.493,-146.486 700.042,-136.522"/>
<polygon fill="midnightblue" stroke="midnightblue" points="701.489,-133.326 691.027,-131.655 698.163,-139.486 701.489,-133.326"/>
</g>
<!-- Node19 -->
<g id="node19" class="node"><title>Node19</title>
<polygon fill="white" stroke="#bfbfbf" points="777,-112.5 777,-131.5 823,-131.5 823,-112.5 777,-112.5"/>
<text text-anchor="middle" x="800" y="-119.5" font-family="Helvetica,sans-Serif" font-size="10.00">atomic</text>
</g>
<!-- Node8&#45;&gt;Node19 -->
<g id="edge20" class="edge"><title>Node8&#45;&gt;Node19</title>
<path fill="none" stroke="midnightblue" d="M779.128,-168.083C782.514,-160.77 787.416,-150.181 791.619,-141.103"/>
<polygon fill="midnightblue" stroke="midnightblue" points="794.923,-142.296 795.949,-131.751 788.571,-139.355 794.923,-142.296"/>
</g>
<!-- Node9&#45;&gt;Node3 -->
<g id="edge14" class="edge"><title>Node9&#45;&gt;Node3</title>
<path fill="none" stroke="midnightblue" d="M1333.89,-119.471C1202.22,-111.759 611.753,-77.1764 469.097,-68.8213"/>
<polygon fill="midnightblue" stroke="midnightblue" points="469.063,-65.3134 458.875,-68.2226 468.653,-72.3014 469.063,-65.3134"/>
</g>
<!-- Node10 -->
<g id="node10" class="node"><title>Node10</title>
<g id="a_node10"><a xlink:href="Log_8h.html" target="_top" xlink:title="Log.h">
<polygon fill="white" stroke="black" points="1394.5,-56.5 1394.5,-75.5 1435.5,-75.5 1435.5,-56.5 1394.5,-56.5"/>
<text text-anchor="middle" x="1415" y="-63.5" font-family="Helvetica,sans-Serif" font-size="10.00">Log.h</text>
</a>
</g>
</g>
<!-- Node9&#45;&gt;Node10 -->
<g id="edge10" class="edge"><title>Node9&#45;&gt;Node10</title>
<path fill="none" stroke="midnightblue" d="M1369.08,-112.083C1377.17,-104.141 1389.2,-92.3354 1398.91,-82.7973"/>
<polygon fill="midnightblue" stroke="midnightblue" points="1401.4,-85.2545 1406.09,-75.7511 1396.5,-80.2595 1401.4,-85.2545"/>
</g>
<!-- Node14 -->
<g id="node14" class="node"><title>Node14</title>
<polygon fill="white" stroke="#bfbfbf" points="1503.5,-56.5 1503.5,-75.5 1586.5,-75.5 1586.5,-56.5 1503.5,-56.5"/>
<text text-anchor="middle" x="1545" y="-63.5" font-family="Helvetica,sans-Serif" font-size="10.00">unordered_map</text>
</g>
<!-- Node9&#45;&gt;Node14 -->
<g id="edge15" class="edge"><title>Node9&#45;&gt;Node14</title>
<path fill="none" stroke="midnightblue" d="M1386.11,-113.378C1417.34,-104.263 1469.9,-88.9205 1505.96,-78.3954"/>
<polygon fill="midnightblue" stroke="midnightblue" points="1507.04,-81.7255 1515.66,-75.5637 1505.08,-75.0059 1507.04,-81.7255"/>
</g>
<!-- Node15 -->
<g id="node15" class="node"><title>Node15</title>
<polygon fill="white" stroke="#bfbfbf" points="1327.5,-56.5 1327.5,-75.5 1376.5,-75.5 1376.5,-56.5 1327.5,-56.5"/>
<text text-anchor="middle" x="1352" y="-63.5" font-family="Helvetica,sans-Serif" font-size="10.00">cassert</text>
</g>
<!-- Node9&#45;&gt;Node15 -->
<g id="edge16" class="edge"><title>Node9&#45;&gt;Node15</title>
<path fill="none" stroke="midnightblue" d="M1358.68,-112.083C1357.62,-104.927 1356.09,-94.6353 1354.77,-85.6911"/>
<polygon fill="midnightblue" stroke="midnightblue" points="1358.22,-85.1302 1353.3,-75.7511 1351.3,-86.1561 1358.22,-85.1302"/>
</g>
<!-- Node16 -->
<g id="node16" class="node"><title>Node16</title>
<polygon fill="white" stroke="#bfbfbf" points="1251.5,-56.5 1251.5,-75.5 1294.5,-75.5 1294.5,-56.5 1251.5,-56.5"/>
<text text-anchor="middle" x="1273" y="-63.5" font-family="Helvetica,sans-Serif" font-size="10.00">cstdio</text>
</g>
<!-- Node9&#45;&gt;Node16 -->
<g id="edge17" class="edge"><title>Node9&#45;&gt;Node16</title>
<path fill="none" stroke="midnightblue" d="M1346.02,-112.324C1332.45,-103.9 1311.62,-90.9709 1295.68,-81.0741"/>
<polygon fill="midnightblue" stroke="midnightblue" points="1297.29,-77.9544 1286.94,-75.6545 1293.59,-83.9019 1297.29,-77.9544"/>
</g>
<!-- Node11 -->
<g id="node11" class="node"><title>Node11</title>
<polygon fill="white" stroke="#bfbfbf" points="1325,-0.5 1325,-19.5 1371,-19.5 1371,-0.5 1325,-0.5"/>
<text text-anchor="middle" x="1348" y="-7.5" font-family="Helvetica,sans-Serif" font-size="10.00">stdio.h</text>
</g>
<!-- Node10&#45;&gt;Node11 -->
<g id="edge11" class="edge"><title>Node10&#45;&gt;Node11</title>
<path fill="none" stroke="midnightblue" d="M1404.24,-56.324C1394.23,-48.2631 1379.11,-36.0765 1367.07,-26.3695"/>
<polygon fill="midnightblue" stroke="midnightblue" points="1368.94,-23.3841 1358.96,-19.8339 1364.55,-28.8343 1368.94,-23.3841"/>
</g>
<!-- Node12 -->
<g id="node12" class="node"><title>Node12</title>
<polygon fill="white" stroke="#bfbfbf" points="1389,-0.5 1389,-19.5 1441,-19.5 1441,-0.5 1389,-0.5"/>
<text text-anchor="middle" x="1415" y="-7.5" font-family="Helvetica,sans-Serif" font-size="10.00">stdarg.h</text>
</g>
<!-- Node10&#45;&gt;Node12 -->
<g id="edge12" class="edge"><title>Node10&#45;&gt;Node12</title>
<path fill="none" stroke="midnightblue" d="M1415,-56.083C1415,-49.0059 1415,-38.8611 1415,-29.9865"/>
<polygon fill="midnightblue" stroke="midnightblue" points="1418.5,-29.751 1415,-19.7511 1411.5,-29.7511 1418.5,-29.751"/>
</g>
<!-- Node13 -->
<g id="node13" class="node"><title>Node13</title>
<polygon fill="white" stroke="#bfbfbf" points="1459.5,-0.5 1459.5,-19.5 1508.5,-19.5 1508.5,-0.5 1459.5,-0.5"/>
<text text-anchor="middle" x="1484" y="-7.5" font-family="Helvetica,sans-Serif" font-size="10.00">string.h</text>
</g>
<!-- Node10&#45;&gt;Node13 -->
<g id="edge13" class="edge"><title>Node10&#45;&gt;Node13</title>
<path fill="none" stroke="midnightblue" d="M1426.09,-56.324C1436.49,-48.1849 1452.26,-35.8395 1464.72,-26.0874"/>
<polygon fill="midnightblue" stroke="midnightblue" points="1466.99,-28.7533 1472.71,-19.8339 1462.68,-23.2407 1466.99,-28.7533"/>
</g>
<!-- Node20&#45;&gt;Node4 -->
<g id="edge32" class="edge"><title>Node20&#45;&gt;Node4</title>
<path fill="none" stroke="midnightblue" d="M288,-224.368C288,-206.617 288,-165.666 288,-141.597"/>
<polygon fill="midnightblue" stroke="midnightblue" points="291.5,-141.591 288,-131.591 284.5,-141.591 291.5,-141.591"/>
</g>
<!-- Node21 -->
<g id="node21" class="node"><title>Node21</title>
<g id="a_node21"><a xlink:href="IAIFactory_8h.html" target="_top" xlink:title="IAIFactory.h">
<polygon fill="white" stroke="black" points="402.5,-168.5 402.5,-187.5 473.5,-187.5 473.5,-168.5 402.5,-168.5"/>
<text text-anchor="middle" x="438" y="-175.5" font-family="Helvetica,sans-Serif" font-size="10.00">IAIFactory.h</text>
</a>
</g>
</g>
<!-- Node20&#45;&gt;Node21 -->
<g id="edge22" class="edge"><title>Node20&#45;&gt;Node21</title>
<path fill="none" stroke="midnightblue" d="M311.768,-224.444C336.893,-215.399 376.711,-201.064 404.9,-190.916"/>
<polygon fill="midnightblue" stroke="midnightblue" points="406.12,-194.197 414.343,-187.516 403.749,-187.611 406.12,-194.197"/>
</g>
<!-- Node23 -->
<g id="node23" class="node"><title>Node23</title>
<g id="a_node23"><a xlink:href="IFactoryRegistry_8h.html" target="_top" xlink:title="common/IFactoryRegistry.h">
<polygon fill="white" stroke="black" points="1099,-168.5 1099,-187.5 1237,-187.5 1237,-168.5 1099,-168.5"/>
<text text-anchor="middle" x="1168" y="-175.5" font-family="Helvetica,sans-Serif" font-size="10.00">common/IFactoryRegistry.h</text>
</a>
</g>
</g>
<!-- Node20&#45;&gt;Node23 -->
<g id="edge27" class="edge"><title>Node20&#45;&gt;Node23</title>
<path fill="none" stroke="midnightblue" d="M325.674,-230.109C350.013,-228.275 382.372,-225.898 411,-224 658.189,-207.61 950.975,-191.002 1088.78,-183.352"/>
<polygon fill="midnightblue" stroke="midnightblue" points="1089.04,-186.843 1098.83,-182.795 1088.66,-179.854 1089.04,-186.843"/>
</g>
<!-- Node21&#45;&gt;Node3 -->
<g id="edge24" class="edge"><title>Node21&#45;&gt;Node3</title>
<path fill="none" stroke="midnightblue" d="M438,-168.368C438,-150.617 438,-109.666 438,-85.5974"/>
<polygon fill="midnightblue" stroke="midnightblue" points="441.5,-85.5914 438,-75.5914 434.5,-85.5915 441.5,-85.5914"/>
</g>
<!-- Node21&#45;&gt;Node4 -->
<g id="edge25" class="edge"><title>Node21&#45;&gt;Node4</title>
<path fill="none" stroke="midnightblue" d="M414.232,-168.444C388.664,-159.239 347.879,-144.556 319.618,-134.383"/>
<polygon fill="midnightblue" stroke="midnightblue" points="320.784,-131.082 310.19,-130.988 318.413,-137.669 320.784,-131.082"/>
</g>
<!-- Node21&#45;&gt;Node6 -->
<g id="edge23" class="edge"><title>Node21&#45;&gt;Node6</title>
<path fill="none" stroke="midnightblue" d="M465.095,-168.444C494.243,-159.239 540.737,-144.557 572.954,-134.383"/>
<polygon fill="midnightblue" stroke="midnightblue" points="574.391,-137.6 582.872,-131.251 572.283,-130.925 574.391,-137.6"/>
</g>
<!-- Node22 -->
<g id="node22" class="node"><title>Node22</title>
<polygon fill="white" stroke="#bfbfbf" points="504.5,-112.5 504.5,-131.5 533.5,-131.5 533.5,-112.5 504.5,-112.5"/>
<text text-anchor="middle" x="519" y="-119.5" font-family="Helvetica,sans-Serif" font-size="10.00">list</text>
</g>
<!-- Node21&#45;&gt;Node22 -->
<g id="edge26" class="edge"><title>Node21&#45;&gt;Node22</title>
<path fill="none" stroke="midnightblue" d="M451.014,-168.324C463.532,-159.979 482.682,-147.212 497.471,-137.352"/>
<polygon fill="midnightblue" stroke="midnightblue" points="499.639,-140.114 506.018,-131.655 495.756,-134.289 499.639,-140.114"/>
</g>
<!-- Node23&#45;&gt;Node6 -->
<g id="edge30" class="edge"><title>Node23&#45;&gt;Node6</title>
<path fill="none" stroke="midnightblue" d="M1098.87,-171.708C973.752,-162.039 716.737,-141.737 645.404,-131.812"/>
<polygon fill="midnightblue" stroke="midnightblue" points="645.688,-128.315 635.272,-130.255 644.624,-135.233 645.688,-128.315"/>
</g>
<!-- Node23&#45;&gt;Node9 -->
<g id="edge28" class="edge"><title>Node23&#45;&gt;Node9</title>
<path fill="none" stroke="midnightblue" d="M1198.42,-168.444C1232.54,-158.848 1287.83,-143.298 1324.05,-133.11"/>
<polygon fill="midnightblue" stroke="midnightblue" points="1325.05,-136.465 1333.73,-130.388 1323.16,-129.727 1325.05,-136.465"/>
</g>
<!-- Node24 -->
<g id="node24" class="node"><title>Node24</title>
<g id="a_node24"><a xlink:href="NonCopyable_8h.html" target="_top" xlink:title="common/NonCopyable.h">
<polygon fill="white" stroke="black" points="1433.5,-112.5 1433.5,-131.5 1558.5,-131.5 1558.5,-112.5 1433.5,-112.5"/>
<text text-anchor="middle" x="1496" y="-119.5" font-family="Helvetica,sans-Serif" font-size="10.00">common/NonCopyable.h</text>
</a>
</g>
</g>
<!-- Node23&#45;&gt;Node24 -->
<g id="edge29" class="edge"><title>Node23&#45;&gt;Node24</title>
<path fill="none" stroke="midnightblue" d="M1219.97,-168.444C1278.15,-158.865 1372.36,-143.356 1434.25,-133.167"/>
<polygon fill="midnightblue" stroke="midnightblue" points="1434.97,-136.594 1444.27,-131.516 1433.83,-129.687 1434.97,-136.594"/>
</g>
<!-- Node25 -->
<g id="node25" class="node"><title>Node25</title>
<polygon fill="white" stroke="#bfbfbf" points="1014.5,-112.5 1014.5,-131.5 1049.5,-131.5 1049.5,-112.5 1014.5,-112.5"/>
<text text-anchor="middle" x="1032" y="-119.5" font-family="Helvetica,sans-Serif" font-size="10.00">map</text>
</g>
<!-- Node23&#45;&gt;Node25 -->
<g id="edge31" class="edge"><title>Node23&#45;&gt;Node25</title>
<path fill="none" stroke="midnightblue" d="M1146.45,-168.444C1122.78,-159.045 1084.72,-143.934 1059.06,-133.744"/>
<polygon fill="midnightblue" stroke="midnightblue" points="1060.14,-130.408 1049.56,-129.971 1057.56,-136.914 1060.14,-130.408"/>
</g>
<!-- Node26&#45;&gt;Node4 -->
<g id="edge35" class="edge"><title>Node26&#45;&gt;Node4</title>
<path fill="none" stroke="midnightblue" d="M628.43,-512.119C576.906,-509.695 479.427,-500.747 404,-468 290.501,-418.724 258.976,-396.876 182,-300 145.376,-253.909 131.992,-212.091 171,-168 192.642,-143.538 229.12,-132.291 255.601,-127.173"/>
<polygon fill="midnightblue" stroke="midnightblue" points="256.307,-130.603 265.559,-125.442 255.108,-123.706 256.307,-130.603"/>
</g>
<!-- Node26&#45;&gt;Node7 -->
<g id="edge84" class="edge"><title>Node26&#45;&gt;Node7</title>
<path fill="none" stroke="midnightblue" d="M628.408,-507.67C548.941,-494.767 364,-458.751 364,-403 364,-403 364,-403 364,-345 364,-295.953 418.851,-263.742 456.172,-247.502"/>
<polygon fill="midnightblue" stroke="midnightblue" points="457.821,-250.606 465.706,-243.53 455.129,-244.145 457.821,-250.606"/>
</g>
<!-- Node26&#45;&gt;Node8 -->
<g id="edge85" class="edge"><title>Node26&#45;&gt;Node8</title>
<path fill="none" stroke="midnightblue" d="M664,-504.442C664,-485.936 664,-440.812 664,-403 664,-403 664,-403 664,-289 664,-258.902 663.607,-247.017 683,-224 695.953,-208.626 715.409,-198.054 733.099,-191.042"/>
<polygon fill="midnightblue" stroke="midnightblue" points="734.52,-194.248 742.692,-187.505 732.098,-187.681 734.52,-194.248"/>
</g>
<!-- Node26&#45;&gt;Node22 -->
<g id="edge34" class="edge"><title>Node26&#45;&gt;Node22</title>
<path fill="none" stroke="midnightblue" d="M696.901,-504.431C795.121,-476.916 1076.04,-383.193 1020,-224 1009.4,-193.882 1003.15,-183.075 975,-168 896.13,-125.759 662.762,-143.232 574,-132 564.096,-130.747 553.242,-129.042 543.812,-127.453"/>
<polygon fill="midnightblue" stroke="midnightblue" points="544.347,-123.994 533.897,-125.739 543.155,-130.891 544.347,-123.994"/>
</g>
<!-- Node27 -->
<g id="node27" class="node"><title>Node27</title>
<g id="a_node27"><a xlink:href="ICharacter_8h.html" target="_top" xlink:title="ICharacter.h">
<polygon fill="white" stroke="black" points="1449.5,-224.5 1449.5,-243.5 1520.5,-243.5 1520.5,-224.5 1449.5,-224.5"/>
<text text-anchor="middle" x="1485" y="-231.5" font-family="Helvetica,sans-Serif" font-size="10.00">ICharacter.h</text>
</a>
</g>
</g>
<!-- Node26&#45;&gt;Node27 -->
<g id="edge36" class="edge"><title>Node26&#45;&gt;Node27</title>
<path fill="none" stroke="midnightblue" d="M699.739,-511.916C863.836,-506.577 1539.72,-480.528 1601,-412 1649.79,-357.44 1552.39,-280.607 1506.79,-249.208"/>
<polygon fill="midnightblue" stroke="midnightblue" points="1508.66,-246.25 1498.42,-243.554 1504.75,-252.051 1508.66,-246.25"/>
</g>
<!-- Node36 -->
<g id="node36" class="node"><title>Node36</title>
<g id="a_node36"><a xlink:href="AI_8h.html" target="_top" xlink:title="AI.h">
<polygon fill="white" stroke="black" points="1057.5,-448.5 1057.5,-467.5 1092.5,-467.5 1092.5,-448.5 1057.5,-448.5"/>
<text text-anchor="middle" x="1075" y="-455.5" font-family="Helvetica,sans-Serif" font-size="10.00">AI.h</text>
</a>
</g>
</g>
<!-- Node26&#45;&gt;Node36 -->
<g id="edge50" class="edge"><title>Node26&#45;&gt;Node36</title>
<path fill="none" stroke="midnightblue" d="M699.755,-508.302C780.376,-497.71 974.927,-472.148 1047.28,-462.642"/>
<polygon fill="midnightblue" stroke="midnightblue" points="1047.97,-466.082 1057.43,-461.309 1047.06,-459.141 1047.97,-466.082"/>
</g>
<!-- Node27&#45;&gt;Node6 -->
<g id="edge49" class="edge"><title>Node27&#45;&gt;Node6</title>
<path fill="none" stroke="midnightblue" d="M1449.48,-233.865C1373.74,-234.741 1191.52,-231.667 1047,-188 1028.73,-182.48 1027.28,-173.483 1009,-168 856.065,-122.13 806.548,-158.809 645.54,-131.988"/>
<polygon fill="midnightblue" stroke="midnightblue" points="645.728,-128.469 635.279,-130.218 644.538,-135.367 645.728,-128.469"/>
</g>
<!-- Node27&#45;&gt;Node9 -->
<g id="edge47" class="edge"><title>Node27&#45;&gt;Node9</title>
<path fill="none" stroke="midnightblue" d="M1482.12,-224.375C1477.21,-210.841 1466.1,-184.465 1449,-168 1433.95,-153.509 1413.32,-142.681 1395.71,-135.283"/>
<polygon fill="midnightblue" stroke="midnightblue" points="1396.87,-131.98 1386.29,-131.524 1394.28,-138.482 1396.87,-131.98"/>
</g>
<!-- Node27&#45;&gt;Node19 -->
<g id="edge48" class="edge"><title>Node27&#45;&gt;Node19</title>
<path fill="none" stroke="midnightblue" d="M1449.4,-232.744C1379.27,-231.417 1218.89,-224.282 1090,-188 1069.71,-182.289 1067.09,-174.385 1047,-168 972.659,-144.368 881.546,-131.785 833.443,-126.352"/>
<polygon fill="midnightblue" stroke="midnightblue" points="833.614,-122.85 823.293,-125.241 832.852,-129.809 833.614,-122.85"/>
</g>
<!-- Node27&#45;&gt;Node24 -->
<g id="edge37" class="edge"><title>Node27&#45;&gt;Node24</title>
<path fill="none" stroke="midnightblue" d="M1485.86,-224.368C1487.64,-206.617 1491.73,-165.666 1494.14,-141.597"/>
<polygon fill="midnightblue" stroke="midnightblue" points="1497.63,-141.89 1495.14,-131.591 1490.66,-141.193 1497.63,-141.89"/>
</g>
<!-- Node28 -->
<g id="node28" class="node"><title>Node28</title>
<g id="a_node28"><a xlink:href="Math_8h.html" target="_top" xlink:title="common/Math.h">
<polygon fill="white" stroke="black" points="1818.5,-168.5 1818.5,-187.5 1905.5,-187.5 1905.5,-168.5 1818.5,-168.5"/>
<text text-anchor="middle" x="1862" y="-175.5" font-family="Helvetica,sans-Serif" font-size="10.00">common/Math.h</text>
</a>
</g>
</g>
<!-- Node27&#45;&gt;Node28 -->
<g id="edge38" class="edge"><title>Node27&#45;&gt;Node28</title>
<path fill="none" stroke="midnightblue" d="M1520.81,-227.871C1587.3,-218.347 1730.16,-197.884 1808.28,-186.695"/>
<polygon fill="midnightblue" stroke="midnightblue" points="1809,-190.128 1818.4,-185.245 1808,-183.199 1809,-190.128"/>
</g>
<!-- Node28&#45;&gt;Node9 -->
<g id="edge39" class="edge"><title>Node28&#45;&gt;Node9</title>
<path fill="none" stroke="midnightblue" d="M1818.42,-173.066C1739.61,-165.831 1568.18,-149.538 1424,-132 1414.94,-130.897 1405.17,-129.587 1396.06,-128.311"/>
<polygon fill="midnightblue" stroke="midnightblue" points="1396.52,-124.841 1386.13,-126.899 1395.54,-131.772 1396.52,-124.841"/>
</g>
<!-- Node29 -->
<g id="node29" class="node"><title>Node29</title>
<polygon fill="white" stroke="#bfbfbf" points="2243,-112.5 2243,-131.5 2313,-131.5 2313,-112.5 2243,-112.5"/>
<text text-anchor="middle" x="2278" y="-119.5" font-family="Helvetica,sans-Serif" font-size="10.00">glm/glm.hpp</text>
</g>
<!-- Node28&#45;&gt;Node29 -->
<g id="edge40" class="edge"><title>Node28&#45;&gt;Node29</title>
<path fill="none" stroke="midnightblue" d="M1905.56,-172.81C1973.2,-166.065 2107.79,-151.692 2232.56,-131.947"/>
<polygon fill="midnightblue" stroke="midnightblue" points="2233.35,-135.365 2242.67,-130.331 2232.25,-128.453 2233.35,-135.365"/>
</g>
<!-- Node30 -->
<g id="node30" class="node"><title>Node30</title>
<polygon fill="white" stroke="#bfbfbf" points="1615.5,-112.5 1615.5,-131.5 1728.5,-131.5 1728.5,-112.5 1615.5,-112.5"/>
<text text-anchor="middle" x="1672" y="-119.5" font-family="Helvetica,sans-Serif" font-size="10.00">glm/gtc/constants.hpp</text>
</g>
<!-- Node28&#45;&gt;Node30 -->
<g id="edge41" class="edge"><title>Node28&#45;&gt;Node30</title>
<path fill="none" stroke="midnightblue" d="M1831.89,-168.444C1799.37,-159.201 1747.42,-144.436 1711.61,-134.257"/>
<polygon fill="midnightblue" stroke="midnightblue" points="1712.54,-130.884 1701.97,-131.516 1710.63,-137.617 1712.54,-130.884"/>
</g>
<!-- Node31 -->
<g id="node31" class="node"><title>Node31</title>
<polygon fill="white" stroke="#bfbfbf" points="1746.5,-112.5 1746.5,-131.5 1847.5,-131.5 1847.5,-112.5 1746.5,-112.5"/>
<text text-anchor="middle" x="1797" y="-119.5" font-family="Helvetica,sans-Serif" font-size="10.00">glm/gtc/epsilon.hpp</text>
</g>
<!-- Node28&#45;&gt;Node31 -->
<g id="edge42" class="edge"><title>Node28&#45;&gt;Node31</title>
<path fill="none" stroke="midnightblue" d="M1851.56,-168.324C1841.85,-160.263 1827.18,-148.077 1815.5,-138.369"/>
<polygon fill="midnightblue" stroke="midnightblue" points="1817.56,-135.532 1807.63,-131.834 1813.09,-140.916 1817.56,-135.532"/>
</g>
<!-- Node32 -->
<g id="node32" class="node"><title>Node32</title>
<polygon fill="white" stroke="#bfbfbf" points="1865.5,-112.5 1865.5,-131.5 1990.5,-131.5 1990.5,-112.5 1865.5,-112.5"/>
<text text-anchor="middle" x="1928" y="-119.5" font-family="Helvetica,sans-Serif" font-size="10.00">glm/gtx/compatibility.hpp</text>
</g>
<!-- Node28&#45;&gt;Node32 -->
<g id="edge43" class="edge"><title>Node28&#45;&gt;Node32</title>
<path fill="none" stroke="midnightblue" d="M1872.6,-168.324C1882.46,-160.263 1897.35,-148.077 1909.22,-138.369"/>
<polygon fill="midnightblue" stroke="midnightblue" points="1911.68,-140.875 1917.2,-131.834 1907.25,-135.457 1911.68,-140.875"/>
</g>
<!-- Node33 -->
<g id="node33" class="node"><title>Node33</title>
<polygon fill="white" stroke="#bfbfbf" points="2009,-112.5 2009,-131.5 2101,-131.5 2101,-112.5 2009,-112.5"/>
<text text-anchor="middle" x="2055" y="-119.5" font-family="Helvetica,sans-Serif" font-size="10.00">glm/gtx/norm.hpp</text>
</g>
<!-- Node28&#45;&gt;Node33 -->
<g id="edge44" class="edge"><title>Node28&#45;&gt;Node33</title>
<path fill="none" stroke="midnightblue" d="M1892.58,-168.444C1925.61,-159.201 1978.39,-144.436 2014.77,-134.257"/>
<polygon fill="midnightblue" stroke="midnightblue" points="2015.87,-137.582 2024.56,-131.516 2013.99,-130.84 2015.87,-137.582"/>
</g>
<!-- Node34 -->
<g id="node34" class="node"><title>Node34</title>
<polygon fill="white" stroke="#bfbfbf" points="2119,-112.5 2119,-131.5 2159,-131.5 2159,-112.5 2119,-112.5"/>
<text text-anchor="middle" x="2139" y="-119.5" font-family="Helvetica,sans-Serif" font-size="10.00">limits</text>
</g>
<!-- Node28&#45;&gt;Node34 -->
<g id="edge45" class="edge"><title>Node28&#45;&gt;Node34</title>
<path fill="none" stroke="midnightblue" d="M1905.79,-170.701C1953.57,-163.465 2032.43,-150.457 2109,-132.007"/>
<polygon fill="midnightblue" stroke="midnightblue" points="2109.92,-135.384 2118.81,-129.61 2108.26,-128.584 2109.92,-135.384"/>
</g>
<!-- Node35 -->
<g id="node35" class="node"><title>Node35</title>
<polygon fill="white" stroke="#bfbfbf" points="2177.5,-112.5 2177.5,-131.5 2224.5,-131.5 2224.5,-112.5 2177.5,-112.5"/>
<text text-anchor="middle" x="2201" y="-119.5" font-family="Helvetica,sans-Serif" font-size="10.00">math.h</text>
</g>
<!-- Node28&#45;&gt;Node35 -->
<g id="edge46" class="edge"><title>Node28&#45;&gt;Node35</title>
<path fill="none" stroke="midnightblue" d="M1905.62,-172.259C1963.32,-165.62 2068.32,-152.267 2167.41,-131.892"/>
<polygon fill="midnightblue" stroke="midnightblue" points="2168.21,-135.3 2177.29,-129.833 2166.79,-128.447 2168.21,-135.3"/>
</g>
<!-- Node36&#45;&gt;Node6 -->
<g id="edge52" class="edge"><title>Node36&#45;&gt;Node6</title>
<path fill="none" stroke="midnightblue" d="M1057.28,-451.251C997.902,-431.248 802.914,-359.547 683,-244 651.208,-213.365 627.649,-166.288 616.386,-140.828"/>
<polygon fill="midnightblue" stroke="midnightblue" points="619.602,-139.444 612.442,-131.635 613.169,-142.205 619.602,-139.444"/>
</g>
<!-- Node36&#45;&gt;Node8 -->
<g id="edge80" class="edge"><title>Node36&#45;&gt;Node8</title>
<path fill="none" stroke="midnightblue" d="M1067.8,-448.416C1045.43,-421.962 974.624,-339.86 908,-280 870.603,-246.4 822.848,-211.979 795.924,-193.265"/>
<polygon fill="midnightblue" stroke="midnightblue" points="797.855,-190.345 787.637,-187.545 793.879,-196.106 797.855,-190.345"/>
</g>
<!-- Node36&#45;&gt;Node9 -->
<g id="edge81" class="edge"><title>Node36&#45;&gt;Node9</title>
<path fill="none" stroke="midnightblue" d="M1092.63,-455.3C1163.14,-448.023 1421,-416.65 1421,-347 1421,-347 1421,-347 1421,-289 1421,-233.9 1417.13,-218.008 1394,-168 1389.18,-157.579 1381.64,-147.263 1374.89,-139.142"/>
<polygon fill="midnightblue" stroke="midnightblue" points="1377.49,-136.799 1368.28,-131.562 1372.21,-141.399 1377.49,-136.799"/>
</g>
<!-- Node36&#45;&gt;Node14 -->
<g id="edge51" class="edge"><title>Node36&#45;&gt;Node14</title>
<path fill="none" stroke="midnightblue" d="M1092.62,-457.059C1182.65,-456.898 1587,-450.418 1587,-347 1587,-347 1587,-347 1587,-177 1587,-142.412 1568.65,-105.492 1556.21,-84.4322"/>
<polygon fill="midnightblue" stroke="midnightblue" points="1559.06,-82.38 1550.84,-75.6923 1553.09,-86.0448 1559.06,-82.38"/>
</g>
<!-- Node36&#45;&gt;Node24 -->
<g id="edge82" class="edge"><title>Node36&#45;&gt;Node24</title>
<path fill="none" stroke="midnightblue" d="M1092.72,-456.76C1178.77,-455.131 1549,-442.566 1549,-347 1549,-347 1549,-347 1549,-233 1549,-196.992 1525.67,-160.339 1509.96,-139.75"/>
<polygon fill="midnightblue" stroke="midnightblue" points="1512.55,-137.379 1503.59,-131.719 1507.07,-141.729 1512.55,-137.379"/>
</g>
<!-- Node36&#45;&gt;Node27 -->
<g id="edge61" class="edge"><title>Node36&#45;&gt;Node27</title>
<path fill="none" stroke="midnightblue" d="M1092.55,-457.273C1157.45,-457.922 1382.81,-456.85 1435,-412 1481.98,-371.623 1486.47,-290.792 1485.89,-254.01"/>
<polygon fill="midnightblue" stroke="midnightblue" points="1489.38,-253.609 1485.57,-243.723 1482.38,-253.827 1489.38,-253.609"/>
</g>
<!-- Node36&#45;&gt;Node28 -->
<g id="edge83" class="edge"><title>Node36&#45;&gt;Node28</title>
<path fill="none" stroke="midnightblue" d="M1092.64,-456.974C1173.23,-456.631 1506.53,-452.732 1601,-412 1716.32,-362.279 1815.61,-240.889 1849.54,-196.028"/>
<polygon fill="midnightblue" stroke="midnightblue" points="1852.44,-198.003 1855.61,-187.895 1846.83,-193.818 1852.44,-198.003"/>
</g>
<!-- Node37 -->
<g id="node37" class="node"><title>Node37</title>
<g id="a_node37"><a xlink:href="GroupId_8h.html" target="_top" xlink:title="group/GroupId.h">
<polygon fill="white" stroke="black" points="1068,-392.5 1068,-411.5 1154,-411.5 1154,-392.5 1068,-392.5"/>
<text text-anchor="middle" x="1111" y="-399.5" font-family="Helvetica,sans-Serif" font-size="10.00">group/GroupId.h</text>
</a>
</g>
</g>
<!-- Node36&#45;&gt;Node37 -->
<g id="edge53" class="edge"><title>Node36&#45;&gt;Node37</title>
<path fill="none" stroke="midnightblue" d="M1080.94,-448.083C1085.98,-440.534 1093.34,-429.495 1099.51,-420.23"/>
<polygon fill="midnightblue" stroke="midnightblue" points="1102.53,-422.013 1105.17,-411.751 1096.71,-418.13 1102.53,-422.013"/>
</g>
<!-- Node38 -->
<g id="node38" class="node"><title>Node38</title>
<g id="a_node38"><a xlink:href="AggroMgr_8h.html" target="_top" xlink:title="aggro/AggroMgr.h">
<polygon fill="white" stroke="black" points="805,-280.5 805,-299.5 899,-299.5 899,-280.5 805,-280.5"/>
<text text-anchor="middle" x="852" y="-287.5" font-family="Helvetica,sans-Serif" font-size="10.00">aggro/AggroMgr.h</text>
</a>
</g>
</g>
<!-- Node36&#45;&gt;Node38 -->
<g id="edge54" class="edge"><title>Node36&#45;&gt;Node38</title>
<path fill="none" stroke="midnightblue" d="M1057.27,-449.416C1039.16,-441.309 1010.56,-427.509 988,-412 940.501,-379.349 891.653,-331.806 867.487,-307.163"/>
<polygon fill="midnightblue" stroke="midnightblue" points="869.754,-304.473 860.276,-299.738 864.733,-309.35 869.754,-304.473"/>
</g>
<!-- Node41 -->
<g id="node41" class="node"><title>Node41</title>
<g id="a_node41"><a xlink:href="TreeNode_8h.html" target="_top" xlink:title="tree/TreeNode.h">
<polygon fill="white" stroke="black" points="506.5,-392.5 506.5,-411.5 593.5,-411.5 593.5,-392.5 506.5,-392.5"/>
<text text-anchor="middle" x="550" y="-399.5" font-family="Helvetica,sans-Serif" font-size="10.00">tree/TreeNode.h</text>
</a>
</g>
</g>
<!-- Node36&#45;&gt;Node41 -->
<g id="edge62" class="edge"><title>Node36&#45;&gt;Node41</title>
<path fill="none" stroke="midnightblue" d="M1057.23,-455.172C985.945,-447.84 719,-420.383 603.649,-408.518"/>
<polygon fill="midnightblue" stroke="midnightblue" points="603.934,-405.029 593.628,-407.487 603.218,-411.992 603.934,-405.029"/>
</g>
<!-- Node43 -->
<g id="node43" class="node"><title>Node43</title>
<g id="a_node43"><a xlink:href="ITreeLoader_8h.html" target="_top" xlink:title="tree/loaders/ITreeLoader.h">
<polygon fill="white" stroke="black" points="880.5,-224.5 880.5,-243.5 1011.5,-243.5 1011.5,-224.5 880.5,-224.5"/>
<text text-anchor="middle" x="946" y="-231.5" font-family="Helvetica,sans-Serif" font-size="10.00">tree/loaders/ITreeLoader.h</text>
</a>
</g>
</g>
<!-- Node36&#45;&gt;Node43 -->
<g id="edge72" class="edge"><title>Node36&#45;&gt;Node43</title>
<path fill="none" stroke="midnightblue" d="M1070.8,-448.291C1058.1,-422.146 1018.48,-342.304 979,-280 972.906,-270.385 965.455,-260.116 959.175,-251.819"/>
<polygon fill="midnightblue" stroke="midnightblue" points="961.812,-249.507 952.941,-243.715 956.264,-253.775 961.812,-249.507"/>
</g>
<!-- Node38&#45;&gt;Node4 -->
<g id="edge55" class="edge"><title>Node38&#45;&gt;Node4</title>
<path fill="none" stroke="midnightblue" d="M839.82,-280.247C816.106,-263.281 765.245,-227.289 756,-224 585.327,-163.279 513.218,-266.587 350,-188 328.124,-177.467 309.925,-155.705 299.022,-140.268"/>
<polygon fill="midnightblue" stroke="midnightblue" points="301.695,-137.972 293.208,-131.63 295.888,-141.88 301.695,-137.972"/>
</g>
<!-- Node38&#45;&gt;Node6 -->
<g id="edge56" class="edge"><title>Node38&#45;&gt;Node6</title>
<path fill="none" stroke="midnightblue" d="M845.829,-280.062C835.737,-266.101 814.37,-239.15 790,-224 744.516,-195.724 720.92,-215.562 675,-188 653.791,-175.27 634.242,-154.372 622.015,-139.717"/>
<polygon fill="midnightblue" stroke="midnightblue" points="624.716,-137.491 615.705,-131.919 619.274,-141.894 624.716,-137.491"/>
</g>
<!-- Node38&#45;&gt;Node27 -->
<g id="edge57" class="edge"><title>Node38&#45;&gt;Node27</title>
<path fill="none" stroke="midnightblue" d="M899.061,-284.985C1016.85,-274.937 1323.23,-248.8 1439.42,-238.888"/>
<polygon fill="midnightblue" stroke="midnightblue" points="1439.74,-242.374 1449.41,-238.036 1439.15,-235.399 1439.74,-242.374"/>
</g>
<!-- Node39 -->
<g id="node39" class="node"><title>Node39</title>
<polygon fill="white" stroke="#bfbfbf" points="692,-224.5 692,-243.5 748,-243.5 748,-224.5 692,-224.5"/>
<text text-anchor="middle" x="720" y="-231.5" font-family="Helvetica,sans-Serif" font-size="10.00">algorithm</text>
</g>
<!-- Node38&#45;&gt;Node39 -->
<g id="edge58" class="edge"><title>Node38&#45;&gt;Node39</title>
<path fill="none" stroke="midnightblue" d="M831.084,-280.444C809.264,-271.517 774.85,-257.439 750.108,-247.317"/>
<polygon fill="midnightblue" stroke="midnightblue" points="751.399,-244.063 740.818,-243.516 748.748,-250.542 751.399,-244.063"/>
</g>
<!-- Node40 -->
<g id="node40" class="node"><title>Node40</title>
<g id="a_node40"><a xlink:href="Entry_8h.html" target="_top" xlink:title="aggro/Entry.h">
<polygon fill="white" stroke="black" points="1293.5,-168.5 1293.5,-187.5 1368.5,-187.5 1368.5,-168.5 1293.5,-168.5"/>
<text text-anchor="middle" x="1331" y="-175.5" font-family="Helvetica,sans-Serif" font-size="10.00">aggro/Entry.h</text>
</a>
</g>
</g>
<!-- Node38&#45;&gt;Node40 -->
<g id="edge59" class="edge"><title>Node38&#45;&gt;Node40</title>
<path fill="none" stroke="midnightblue" d="M890.921,-280.5C925.333,-272.532 976.653,-259.537 1020,-244 1040.22,-236.752 1043.45,-230.271 1064,-224 1156.66,-195.714 1183.49,-204.262 1279,-188 1280.3,-187.779 1281.61,-187.555 1282.93,-187.329"/>
<polygon fill="midnightblue" stroke="midnightblue" points="1283.97,-190.703 1293.23,-185.562 1282.78,-183.804 1283.97,-190.703"/>
</g>
<!-- Node40&#45;&gt;Node9 -->
<g id="edge60" class="edge"><title>Node40&#45;&gt;Node9</title>
<path fill="none" stroke="midnightblue" d="M1335.79,-168.083C1339.76,-160.691 1345.53,-149.953 1350.43,-140.811"/>
<polygon fill="midnightblue" stroke="midnightblue" points="1353.65,-142.217 1355.3,-131.751 1347.49,-138.905 1353.65,-142.217"/>
</g>
<!-- Node41&#45;&gt;Node2 -->
<g id="edge65" class="edge"><title>Node41&#45;&gt;Node2</title>
<path fill="none" stroke="midnightblue" d="M523.054,-392.394C496.773,-383.814 455.787,-369.94 421,-356 379.788,-339.485 333.159,-317.687 304.671,-304.005"/>
<polygon fill="midnightblue" stroke="midnightblue" points="305.917,-300.72 295.389,-299.526 302.874,-307.024 305.917,-300.72"/>
</g>
<!-- Node41&#45;&gt;Node3 -->
<g id="edge69" class="edge"><title>Node41&#45;&gt;Node3</title>
<path fill="none" stroke="midnightblue" d="M506.383,-401.518C376.296,-401.901 0,-394.098 0,-291 0,-291 0,-291 0,-177 0,-92.843 308.012,-72.4769 407.448,-68.0948"/>
<polygon fill="midnightblue" stroke="midnightblue" points="407.616,-71.5909 417.462,-67.6771 407.325,-64.597 407.616,-71.5909"/>
</g>
<!-- Node41&#45;&gt;Node4 -->
<g id="edge68" class="edge"><title>Node41&#45;&gt;Node4</title>
<path fill="none" stroke="midnightblue" d="M506.383,-396.788C437.967,-388.368 303.683,-364.368 211,-300 184.545,-281.627 175.858,-274.324 165,-244 152.865,-210.11 167.277,-193.182 193,-168 210.627,-150.744 236.123,-139.165 256.265,-132.079"/>
<polygon fill="midnightblue" stroke="midnightblue" points="257.562,-135.337 265.952,-128.867 255.359,-128.693 257.562,-135.337"/>
</g>
<!-- Node41&#45;&gt;Node6 -->
<g id="edge70" class="edge"><title>Node41&#45;&gt;Node6</title>
<path fill="none" stroke="midnightblue" d="M551.83,-392.375C560.038,-353.701 593.551,-195.794 605.081,-141.465"/>
<polygon fill="midnightblue" stroke="midnightblue" points="608.539,-142.033 607.191,-131.524 601.691,-140.58 608.539,-142.033"/>
</g>
<!-- Node41&#45;&gt;Node7 -->
<g id="edge64" class="edge"><title>Node41&#45;&gt;Node7</title>
<path fill="none" stroke="midnightblue" d="M547.81,-392.5C544.524,-380.002 537.958,-355.986 531,-336 520.716,-306.458 506.619,-272.959 497.921,-252.928"/>
<polygon fill="midnightblue" stroke="midnightblue" points="501.025,-251.291 493.808,-243.535 494.613,-254.099 501.025,-251.291"/>
</g>
<!-- Node41&#45;&gt;Node9 -->
<g id="edge63" class="edge"><title>Node41&#45;&gt;Node9</title>
<path fill="none" stroke="midnightblue" d="M593.516,-396.672C749.725,-380.156 1278.17,-315.511 1377,-188 1387.68,-174.217 1380.09,-154.365 1371.93,-140.232"/>
<polygon fill="midnightblue" stroke="midnightblue" points="1374.71,-138.082 1366.4,-131.507 1368.79,-141.828 1374.71,-138.082"/>
</g>
<!-- Node41&#45;&gt;Node39 -->
<g id="edge71" class="edge"><title>Node41&#45;&gt;Node39</title>
<path fill="none" stroke="midnightblue" d="M560.588,-392.288C571.26,-383.403 588.097,-369.1 602,-356 640.398,-319.821 683.067,-274.774 705.066,-251.163"/>
<polygon fill="midnightblue" stroke="midnightblue" points="707.705,-253.465 711.945,-243.755 702.575,-248.701 707.705,-253.465"/>
</g>
<!-- Node42 -->
<g id="node42" class="node"><title>Node42</title>
<g id="a_node42"><a xlink:href="True_8h.html" target="_top" xlink:title="conditions/True.h">
<polygon fill="white" stroke="black" points="430,-336.5 430,-355.5 522,-355.5 522,-336.5 430,-336.5"/>
<text text-anchor="middle" x="476" y="-343.5" font-family="Helvetica,sans-Serif" font-size="10.00">conditions/True.h</text>
</a>
</g>
</g>
<!-- Node41&#45;&gt;Node42 -->
<g id="edge66" class="edge"><title>Node41&#45;&gt;Node42</title>
<path fill="none" stroke="midnightblue" d="M538.111,-392.324C526.85,-384.107 509.713,-371.602 496.291,-361.807"/>
<polygon fill="midnightblue" stroke="midnightblue" points="498.247,-358.901 488.106,-355.834 494.12,-364.556 498.247,-358.901"/>
</g>
<!-- Node42&#45;&gt;Node2 -->
<g id="edge67" class="edge"><title>Node42&#45;&gt;Node2</title>
<path fill="none" stroke="midnightblue" d="M444.626,-336.444C410.737,-327.201 356.597,-312.436 319.276,-302.257"/>
<polygon fill="midnightblue" stroke="midnightblue" points="319.795,-298.771 309.227,-299.516 317.954,-305.524 319.795,-298.771"/>
</g>
<!-- Node43&#45;&gt;Node3 -->
<g id="edge75" class="edge"><title>Node43&#45;&gt;Node3</title>
<path fill="none" stroke="midnightblue" d="M937.248,-224.495C928.088,-215.536 913.347,-200.958 901,-188 869.528,-154.972 872.599,-132.811 832,-112 768.528,-79.4642 549.702,-70.1168 468.577,-67.7354"/>
<polygon fill="midnightblue" stroke="midnightblue" points="468.602,-64.2348 458.509,-67.4553 468.408,-71.2321 468.602,-64.2348"/>
</g>
<!-- Node43&#45;&gt;Node4 -->
<g id="edge76" class="edge"><title>Node43&#45;&gt;Node4</title>
<path fill="none" stroke="midnightblue" d="M880.415,-228.488C738.911,-218.641 415.818,-195.505 393,-188 359.647,-177.03 325.998,-153.496 306.08,-137.961"/>
<polygon fill="midnightblue" stroke="midnightblue" points="308.183,-135.162 298.185,-131.657 303.815,-140.632 308.183,-135.162"/>
</g>
<!-- Node43&#45;&gt;Node6 -->
<g id="edge74" class="edge"><title>Node43&#45;&gt;Node6</title>
<path fill="none" stroke="midnightblue" d="M880.47,-226.116C833.983,-219.792 770.739,-208.231 718,-188 684.52,-175.157 649.555,-152.373 628.525,-137.478"/>
<polygon fill="midnightblue" stroke="midnightblue" points="630.569,-134.637 620.41,-131.63 626.476,-140.316 630.569,-134.637"/>
</g>
<!-- Node43&#45;&gt;Node8 -->
<g id="edge73" class="edge"><title>Node43&#45;&gt;Node8</title>
<path fill="none" stroke="midnightblue" d="M918.905,-224.444C890.012,-215.32 844.075,-200.813 811.895,-190.651"/>
<polygon fill="midnightblue" stroke="midnightblue" points="812.559,-187.19 801.969,-187.516 810.451,-193.865 812.559,-187.19"/>
</g>
<!-- Node43&#45;&gt;Node16 -->
<g id="edge79" class="edge"><title>Node43&#45;&gt;Node16</title>
<path fill="none" stroke="midnightblue" d="M1008.84,-224.475C1095.52,-212.588 1241.67,-192.033 1246,-188 1274.38,-161.553 1276.18,-112.362 1274.76,-85.5664"/>
<polygon fill="midnightblue" stroke="midnightblue" points="1278.25,-85.3 1274.02,-75.5853 1271.27,-85.8162 1278.25,-85.3"/>
</g>
<!-- Node43&#45;&gt;Node25 -->
<g id="edge77" class="edge"><title>Node43&#45;&gt;Node25</title>
<path fill="none" stroke="midnightblue" d="M934.37,-224.31C918.768,-211.575 894.495,-187.267 908,-168 929.658,-137.1 974.803,-127.335 1004.23,-124.299"/>
<polygon fill="midnightblue" stroke="midnightblue" points="1004.61,-127.779 1014.29,-123.458 1004.03,-120.803 1004.61,-127.779"/>
</g>
<!-- Node44 -->
<g id="node44" class="node"><title>Node44</title>
<polygon fill="white" stroke="#bfbfbf" points="917.5,-168.5 917.5,-187.5 966.5,-187.5 966.5,-168.5 917.5,-168.5"/>
<text text-anchor="middle" x="942" y="-175.5" font-family="Helvetica,sans-Serif" font-size="10.00">cstdarg</text>
</g>
<!-- Node43&#45;&gt;Node44 -->
<g id="edge78" class="edge"><title>Node43&#45;&gt;Node44</title>
<path fill="none" stroke="midnightblue" d="M945.339,-224.083C944.815,-217.006 944.064,-206.861 943.406,-197.986"/>
<polygon fill="midnightblue" stroke="midnightblue" points="946.877,-197.465 942.648,-187.751 939.897,-197.982 946.877,-197.465"/>
</g>
</g>
</svg>
