<?xml version="1.0" encoding="UTF-8" standalone="no"?>
<!DOCTYPE svg PUBLIC "-//W3C//DTD SVG 1.1//EN"
 "http://www.w3.org/Graphics/SVG/1.1/DTD/svg11.dtd">
<!-- Generated by graphviz version 2.36.0 (20140111.2315)
 -->
<!-- Title: /home/travis/build/mgerhardy/simpleai/src/ai/conditions/Filter.h Pages: 1 -->
<svg width="2004pt" height="610pt"
 viewBox="0.00 0.00 2004.01 610.00" xmlns="http://www.w3.org/2000/svg" xmlns:xlink="http://www.w3.org/1999/xlink">
<g id="graph0" class="graph" transform="scale(1 1) rotate(0) translate(4 606)">
<title>/home/travis/build/mgerhardy/simpleai/src/ai/conditions/Filter.h</title>
<polygon fill="white" stroke="none" points="-4,4 -4,-606 2000.01,-606 2000.01,4 -4,4"/>
<!-- Node1 -->
<g id="node1" class="node"><title>Node1</title>
<polygon fill="#bfbfbf" stroke="black" points="288,-560.5 288,-601.5 412,-601.5 412,-560.5 288,-560.5"/>
<text text-anchor="start" x="296" y="-589.5" font-family="Helvetica,sans-Serif" font-size="10.00">/home/travis/build</text>
<text text-anchor="start" x="296" y="-578.5" font-family="Helvetica,sans-Serif" font-size="10.00">/mgerhardy/simpleai</text>
<text text-anchor="middle" x="350" y="-567.5" font-family="Helvetica,sans-Serif" font-size="10.00">/src/ai/conditions/Filter.h</text>
</g>
<!-- Node2 -->
<g id="node2" class="node"><title>Node2</title>
<g id="a_node2"><a xlink:href="ICondition_8h.html" target="_top" xlink:title="Condition related stuff. ">
<polygon fill="white" stroke="black" points="182,-280.5 182,-299.5 298,-299.5 298,-280.5 182,-280.5"/>
<text text-anchor="middle" x="240" y="-287.5" font-family="Helvetica,sans-Serif" font-size="10.00">conditions/ICondition.h</text>
</a>
</g>
</g>
<!-- Node1&#45;&gt;Node2 -->
<g id="edge1" class="edge"><title>Node1&#45;&gt;Node2</title>
<path fill="none" stroke="midnightblue" d="M287.986,-568.989C196.997,-551.042 38,-512.087 38,-459 38,-459 38,-459 38,-401 38,-338.621 113.215,-311.411 171.852,-299.677"/>
<polygon fill="midnightblue" stroke="midnightblue" points="172.666,-303.085 181.844,-297.792 171.369,-296.206 172.666,-303.085"/>
</g>
<!-- Node25 -->
<g id="node25" class="node"><title>Node25</title>
<g id="a_node25"><a xlink:href="IFilter_8h.html" target="_top" xlink:title="filter/IFilter.h">
<polygon fill="white" stroke="black" points="626.5,-504.5 626.5,-523.5 697.5,-523.5 697.5,-504.5 626.5,-504.5"/>
<text text-anchor="middle" x="662" y="-511.5" font-family="Helvetica,sans-Serif" font-size="10.00">filter/IFilter.h</text>
</a>
</g>
</g>
<!-- Node1&#45;&gt;Node25 -->
<g id="edge33" class="edge"><title>Node1&#45;&gt;Node25</title>
<path fill="none" stroke="midnightblue" d="M412.014,-567.08C472.284,-554.524 562.393,-535.751 616.367,-524.507"/>
<polygon fill="midnightblue" stroke="midnightblue" points="617.259,-527.896 626.335,-522.43 615.831,-521.043 617.259,-527.896"/>
</g>
<!-- Node3 -->
<g id="node3" class="node"><title>Node3</title>
<polygon fill="white" stroke="#bfbfbf" points="271.5,-56.5 271.5,-75.5 312.5,-75.5 312.5,-56.5 271.5,-56.5"/>
<text text-anchor="middle" x="292" y="-63.5" font-family="Helvetica,sans-Serif" font-size="10.00">string</text>
</g>
<!-- Node2&#45;&gt;Node3 -->
<g id="edge2" class="edge"><title>Node2&#45;&gt;Node3</title>
<path fill="none" stroke="midnightblue" d="M181.766,-281.02C159.278,-274.792 135.708,-263.71 122,-244 88.5017,-195.835 85.1809,-158.465 121,-112 138.004,-89.9419 216.814,-76.5455 261.27,-70.6139"/>
<polygon fill="midnightblue" stroke="midnightblue" points="261.778,-74.0774 271.25,-69.3306 260.885,-67.1346 261.778,-74.0774"/>
</g>
<!-- Node4 -->
<g id="node4" class="node"><title>Node4</title>
<polygon fill="white" stroke="#bfbfbf" points="130,-112.5 130,-131.5 174,-131.5 174,-112.5 130,-112.5"/>
<text text-anchor="middle" x="152" y="-119.5" font-family="Helvetica,sans-Serif" font-size="10.00">vector</text>
</g>
<!-- Node2&#45;&gt;Node4 -->
<g id="edge3" class="edge"><title>Node2&#45;&gt;Node4</title>
<path fill="none" stroke="midnightblue" d="M189.491,-280.487C168.321,-274.153 145.712,-263.136 133,-244 112.007,-212.398 129.505,-166.072 142.039,-140.896"/>
<polygon fill="midnightblue" stroke="midnightblue" points="145.271,-142.269 146.823,-131.788 139.074,-139.013 145.271,-142.269"/>
</g>
<!-- Node5 -->
<g id="node5" class="node"><title>Node5</title>
<polygon fill="white" stroke="#bfbfbf" points="142,-224.5 142,-243.5 194,-243.5 194,-224.5 142,-224.5"/>
<text text-anchor="middle" x="168" y="-231.5" font-family="Helvetica,sans-Serif" font-size="10.00">sstream</text>
</g>
<!-- Node2&#45;&gt;Node5 -->
<g id="edge4" class="edge"><title>Node2&#45;&gt;Node5</title>
<path fill="none" stroke="midnightblue" d="M228.432,-280.324C217.58,-272.185 201.119,-259.839 188.117,-250.087"/>
<polygon fill="midnightblue" stroke="midnightblue" points="189.879,-247.034 179.779,-243.834 185.679,-252.634 189.879,-247.034"/>
</g>
<!-- Node6 -->
<g id="node6" class="node"><title>Node6</title>
<polygon fill="white" stroke="#bfbfbf" points="444,-112.5 444,-131.5 496,-131.5 496,-112.5 444,-112.5"/>
<text text-anchor="middle" x="470" y="-119.5" font-family="Helvetica,sans-Serif" font-size="10.00">memory</text>
</g>
<!-- Node2&#45;&gt;Node6 -->
<g id="edge5" class="edge"><title>Node2&#45;&gt;Node6</title>
<path fill="none" stroke="midnightblue" d="M251.936,-280.376C269.17,-267.926 302.026,-244.192 330,-224 372.574,-193.269 422.445,-157.297 449.686,-137.65"/>
<polygon fill="midnightblue" stroke="midnightblue" points="451.95,-140.333 458.013,-131.645 447.855,-134.655 451.95,-140.333"/>
</g>
<!-- Node7 -->
<g id="node7" class="node"><title>Node7</title>
<g id="a_node7"><a xlink:href="MemoryAllocator_8h.html" target="_top" xlink:title="common/MemoryAllocator.h">
<polygon fill="white" stroke="black" points="382.5,-224.5 382.5,-243.5 521.5,-243.5 521.5,-224.5 382.5,-224.5"/>
<text text-anchor="middle" x="452" y="-231.5" font-family="Helvetica,sans-Serif" font-size="10.00">common/MemoryAllocator.h</text>
</a>
</g>
</g>
<!-- Node2&#45;&gt;Node7 -->
<g id="edge6" class="edge"><title>Node2&#45;&gt;Node7</title>
<path fill="none" stroke="midnightblue" d="M273.592,-280.444C310.187,-271.122 368.838,-256.183 408.826,-245.997"/>
<polygon fill="midnightblue" stroke="midnightblue" points="409.739,-249.377 418.565,-243.516 408.011,-242.593 409.739,-249.377"/>
</g>
<!-- Node8 -->
<g id="node8" class="node"><title>Node8</title>
<g id="a_node8"><a xlink:href="Thread_8h.html" target="_top" xlink:title="common/Thread.h">
<polygon fill="white" stroke="black" points="612.5,-168.5 612.5,-187.5 707.5,-187.5 707.5,-168.5 612.5,-168.5"/>
<text text-anchor="middle" x="660" y="-175.5" font-family="Helvetica,sans-Serif" font-size="10.00">common/Thread.h</text>
</a>
</g>
</g>
<!-- Node2&#45;&gt;Node8 -->
<g id="edge8" class="edge"><title>Node2&#45;&gt;Node8</title>
<path fill="none" stroke="midnightblue" d="M257.238,-280.406C291.841,-263.178 366.979,-225.896 373,-224 450.149,-199.707 543.268,-188.191 602.072,-182.977"/>
<polygon fill="midnightblue" stroke="midnightblue" points="602.616,-186.443 612.282,-182.105 602.02,-179.469 602.616,-186.443"/>
</g>
<!-- Node19 -->
<g id="node19" class="node"><title>Node19</title>
<g id="a_node19"><a xlink:href="AIFactories_8h.html" target="_top" xlink:title="AIFactories.h">
<polygon fill="white" stroke="black" points="212.5,-224.5 212.5,-243.5 287.5,-243.5 287.5,-224.5 212.5,-224.5"/>
<text text-anchor="middle" x="250" y="-231.5" font-family="Helvetica,sans-Serif" font-size="10.00">AIFactories.h</text>
</a>
</g>
</g>
<!-- Node2&#45;&gt;Node19 -->
<g id="edge21" class="edge"><title>Node2&#45;&gt;Node19</title>
<path fill="none" stroke="midnightblue" d="M241.651,-280.083C242.976,-272.927 244.882,-262.635 246.539,-253.691"/>
<polygon fill="midnightblue" stroke="midnightblue" points="250,-254.221 248.379,-243.751 243.117,-252.947 250,-254.221"/>
</g>
<!-- Node7&#45;&gt;Node6 -->
<g id="edge7" class="edge"><title>Node7&#45;&gt;Node6</title>
<path fill="none" stroke="midnightblue" d="M441.83,-224.316C428.695,-211.989 408.576,-188.617 418,-168 423.777,-155.36 435.052,-144.911 445.631,-137.274"/>
<polygon fill="midnightblue" stroke="midnightblue" points="447.849,-140.001 454.217,-131.533 443.958,-134.182 447.849,-140.001"/>
</g>
<!-- Node9 -->
<g id="node9" class="node"><title>Node9</title>
<g id="a_node9"><a xlink:href="Types_8h.html" target="_top" xlink:title="Types.h">
<polygon fill="white" stroke="black" points="1072,-112.5 1072,-131.5 1124,-131.5 1124,-112.5 1072,-112.5"/>
<text text-anchor="middle" x="1098" y="-119.5" font-family="Helvetica,sans-Serif" font-size="10.00">Types.h</text>
</a>
</g>
</g>
<!-- Node8&#45;&gt;Node9 -->
<g id="edge9" class="edge"><title>Node8&#45;&gt;Node9</title>
<path fill="none" stroke="midnightblue" d="M707.707,-171.118C795.905,-160.245 982.646,-137.222 1061.57,-127.492"/>
<polygon fill="midnightblue" stroke="midnightblue" points="1062.47,-130.907 1071.97,-126.209 1061.61,-123.959 1062.47,-130.907"/>
</g>
<!-- Node16 -->
<g id="node16" class="node"><title>Node16</title>
<polygon fill="white" stroke="#bfbfbf" points="538,-112.5 538,-131.5 582,-131.5 582,-112.5 538,-112.5"/>
<text text-anchor="middle" x="560" y="-119.5" font-family="Helvetica,sans-Serif" font-size="10.00">thread</text>
</g>
<!-- Node8&#45;&gt;Node16 -->
<g id="edge18" class="edge"><title>Node8&#45;&gt;Node16</title>
<path fill="none" stroke="midnightblue" d="M643.933,-168.324C628.042,-159.743 603.493,-146.486 585.042,-136.522"/>
<polygon fill="midnightblue" stroke="midnightblue" points="586.489,-133.326 576.027,-131.655 583.163,-139.486 586.489,-133.326"/>
</g>
<!-- Node17 -->
<g id="node17" class="node"><title>Node17</title>
<polygon fill="white" stroke="#bfbfbf" points="600,-112.5 600,-131.5 644,-131.5 644,-112.5 600,-112.5"/>
<text text-anchor="middle" x="622" y="-119.5" font-family="Helvetica,sans-Serif" font-size="10.00">mutex</text>
</g>
<!-- Node8&#45;&gt;Node17 -->
<g id="edge19" class="edge"><title>Node8&#45;&gt;Node17</title>
<path fill="none" stroke="midnightblue" d="M653.725,-168.083C648.358,-160.455 640.482,-149.264 633.921,-139.941"/>
<polygon fill="midnightblue" stroke="midnightblue" points="636.775,-137.915 628.158,-131.751 631.051,-141.943 636.775,-137.915"/>
</g>
<!-- Node18 -->
<g id="node18" class="node"><title>Node18</title>
<polygon fill="white" stroke="#bfbfbf" points="662,-112.5 662,-131.5 708,-131.5 708,-112.5 662,-112.5"/>
<text text-anchor="middle" x="685" y="-119.5" font-family="Helvetica,sans-Serif" font-size="10.00">atomic</text>
</g>
<!-- Node8&#45;&gt;Node18 -->
<g id="edge20" class="edge"><title>Node8&#45;&gt;Node18</title>
<path fill="none" stroke="midnightblue" d="M664.128,-168.083C667.514,-160.77 672.416,-150.181 676.619,-141.103"/>
<polygon fill="midnightblue" stroke="midnightblue" points="679.923,-142.296 680.949,-131.751 673.571,-139.355 679.923,-142.296"/>
</g>
<!-- Node9&#45;&gt;Node3 -->
<g id="edge14" class="edge"><title>Node9&#45;&gt;Node3</title>
<path fill="none" stroke="midnightblue" d="M1071.64,-119.234C951.045,-111.154 452.212,-77.7338 322.788,-69.0627"/>
<polygon fill="midnightblue" stroke="midnightblue" points="322.976,-65.5676 312.765,-68.3912 322.508,-72.5519 322.976,-65.5676"/>
</g>
<!-- Node10 -->
<g id="node10" class="node"><title>Node10</title>
<g id="a_node10"><a xlink:href="Log_8h.html" target="_top" xlink:title="Log.h">
<polygon fill="white" stroke="black" points="1140.5,-56.5 1140.5,-75.5 1181.5,-75.5 1181.5,-56.5 1140.5,-56.5"/>
<text text-anchor="middle" x="1161" y="-63.5" font-family="Helvetica,sans-Serif" font-size="10.00">Log.h</text>
</a>
</g>
</g>
<!-- Node9&#45;&gt;Node10 -->
<g id="edge10" class="edge"><title>Node9&#45;&gt;Node10</title>
<path fill="none" stroke="midnightblue" d="M1108.12,-112.324C1117.53,-104.263 1131.74,-92.0765 1143.07,-82.3695"/>
<polygon fill="midnightblue" stroke="midnightblue" points="1145.38,-84.9993 1150.69,-75.8339 1140.82,-79.6844 1145.38,-84.9993"/>
</g>
<!-- Node11 -->
<g id="node11" class="node"><title>Node11</title>
<polygon fill="white" stroke="#bfbfbf" points="985.5,-0.5 985.5,-19.5 1028.5,-19.5 1028.5,-0.5 985.5,-0.5"/>
<text text-anchor="middle" x="1007" y="-7.5" font-family="Helvetica,sans-Serif" font-size="10.00">cstdio</text>
</g>
<!-- Node9&#45;&gt;Node11 -->
<g id="edge17" class="edge"><title>Node9&#45;&gt;Node11</title>
<path fill="none" stroke="midnightblue" d="M1090.86,-112.368C1075.71,-94.0547 1040.13,-51.0489 1020.54,-27.3624"/>
<polygon fill="midnightblue" stroke="midnightblue" points="1023.18,-25.0656 1014.11,-19.5914 1017.78,-29.5276 1023.18,-25.0656"/>
</g>
<!-- Node14 -->
<g id="node14" class="node"><title>Node14</title>
<polygon fill="white" stroke="#bfbfbf" points="1584.5,-56.5 1584.5,-75.5 1667.5,-75.5 1667.5,-56.5 1584.5,-56.5"/>
<text text-anchor="middle" x="1626" y="-63.5" font-family="Helvetica,sans-Serif" font-size="10.00">unordered_map</text>
</g>
<!-- Node9&#45;&gt;Node14 -->
<g id="edge15" class="edge"><title>Node9&#45;&gt;Node14</title>
<path fill="none" stroke="midnightblue" d="M1124.28,-113.761C1127.2,-113.098 1130.16,-112.492 1133,-112 1292.46,-84.4044 1484.06,-73.0584 1574.25,-68.9872"/>
<polygon fill="midnightblue" stroke="midnightblue" points="1574.64,-72.4735 1584.48,-68.5373 1574.33,-65.4802 1574.64,-72.4735"/>
</g>
<!-- Node15 -->
<g id="node15" class="node"><title>Node15</title>
<polygon fill="white" stroke="#bfbfbf" points="1073.5,-56.5 1073.5,-75.5 1122.5,-75.5 1122.5,-56.5 1073.5,-56.5"/>
<text text-anchor="middle" x="1098" y="-63.5" font-family="Helvetica,sans-Serif" font-size="10.00">cassert</text>
</g>
<!-- Node9&#45;&gt;Node15 -->
<g id="edge16" class="edge"><title>Node9&#45;&gt;Node15</title>
<path fill="none" stroke="midnightblue" d="M1098,-112.083C1098,-105.006 1098,-94.8611 1098,-85.9865"/>
<polygon fill="midnightblue" stroke="midnightblue" points="1101.5,-85.751 1098,-75.7511 1094.5,-85.7511 1101.5,-85.751"/>
</g>
<!-- Node10&#45;&gt;Node11 -->
<g id="edge11" class="edge"><title>Node10&#45;&gt;Node11</title>
<path fill="none" stroke="midnightblue" d="M1140.23,-57.7173C1114.05,-48.5354 1068.78,-32.6642 1038.37,-22.0008"/>
<polygon fill="midnightblue" stroke="midnightblue" points="1039.27,-18.6076 1028.68,-18.6014 1036.96,-25.2133 1039.27,-18.6076"/>
</g>
<!-- Node12 -->
<g id="node12" class="node"><title>Node12</title>
<polygon fill="white" stroke="#bfbfbf" points="1058.5,-0.5 1058.5,-19.5 1107.5,-19.5 1107.5,-0.5 1058.5,-0.5"/>
<text text-anchor="middle" x="1083" y="-7.5" font-family="Helvetica,sans-Serif" font-size="10.00">cstdarg</text>
</g>
<!-- Node10&#45;&gt;Node12 -->
<g id="edge12" class="edge"><title>Node10&#45;&gt;Node12</title>
<path fill="none" stroke="midnightblue" d="M1148.47,-56.324C1136.41,-47.979 1117.97,-35.2122 1103.73,-25.3524"/>
<polygon fill="midnightblue" stroke="midnightblue" points="1105.72,-22.469 1095.5,-19.6545 1101.73,-28.2243 1105.72,-22.469"/>
</g>
<!-- Node13 -->
<g id="node13" class="node"><title>Node13</title>
<polygon fill="white" stroke="#bfbfbf" points="1138,-0.5 1138,-19.5 1184,-19.5 1184,-0.5 1138,-0.5"/>
<text text-anchor="middle" x="1161" y="-7.5" font-family="Helvetica,sans-Serif" font-size="10.00">cstring</text>
</g>
<!-- Node10&#45;&gt;Node13 -->
<g id="edge13" class="edge"><title>Node10&#45;&gt;Node13</title>
<path fill="none" stroke="midnightblue" d="M1161,-56.083C1161,-49.0059 1161,-38.8611 1161,-29.9865"/>
<polygon fill="midnightblue" stroke="midnightblue" points="1164.5,-29.751 1161,-19.7511 1157.5,-29.7511 1164.5,-29.751"/>
</g>
<!-- Node19&#45;&gt;Node4 -->
<g id="edge32" class="edge"><title>Node19&#45;&gt;Node4</title>
<path fill="none" stroke="midnightblue" d="M228.146,-224.447C211.762,-217.03 189.862,-204.828 176,-188 165.016,-174.666 158.803,-155.837 155.465,-141.875"/>
<polygon fill="midnightblue" stroke="midnightblue" points="158.853,-140.982 153.367,-131.918 152.004,-142.425 158.853,-140.982"/>
</g>
<!-- Node20 -->
<g id="node20" class="node"><title>Node20</title>
<g id="a_node20"><a xlink:href="IAIFactory_8h.html" target="_top" xlink:title="IAIFactory.h">
<polygon fill="white" stroke="black" points="256.5,-168.5 256.5,-187.5 327.5,-187.5 327.5,-168.5 256.5,-168.5"/>
<text text-anchor="middle" x="292" y="-175.5" font-family="Helvetica,sans-Serif" font-size="10.00">IAIFactory.h</text>
</a>
</g>
</g>
<!-- Node19&#45;&gt;Node20 -->
<g id="edge22" class="edge"><title>Node19&#45;&gt;Node20</title>
<path fill="none" stroke="midnightblue" d="M256.935,-224.083C262.929,-216.377 271.752,-205.033 279.048,-195.653"/>
<polygon fill="midnightblue" stroke="midnightblue" points="281.817,-197.793 285.194,-187.751 276.291,-193.496 281.817,-197.793"/>
</g>
<!-- Node22 -->
<g id="node22" class="node"><title>Node22</title>
<g id="a_node22"><a xlink:href="IFactoryRegistry_8h.html" target="_top" xlink:title="common/IFactoryRegistry.h">
<polygon fill="white" stroke="black" points="802,-168.5 802,-187.5 940,-187.5 940,-168.5 802,-168.5"/>
<text text-anchor="middle" x="871" y="-175.5" font-family="Helvetica,sans-Serif" font-size="10.00">common/IFactoryRegistry.h</text>
</a>
</g>
</g>
<!-- Node19&#45;&gt;Node22 -->
<g id="edge27" class="edge"><title>Node19&#45;&gt;Node22</title>
<path fill="none" stroke="midnightblue" d="M287.912,-229.703C387.235,-221.067 656.652,-197.639 791.657,-185.899"/>
<polygon fill="midnightblue" stroke="midnightblue" points="792.27,-189.359 801.929,-185.006 791.663,-182.386 792.27,-189.359"/>
</g>
<!-- Node20&#45;&gt;Node3 -->
<g id="edge24" class="edge"><title>Node20&#45;&gt;Node3</title>
<path fill="none" stroke="midnightblue" d="M292,-168.368C292,-150.617 292,-109.666 292,-85.5974"/>
<polygon fill="midnightblue" stroke="midnightblue" points="295.5,-85.5914 292,-75.5914 288.5,-85.5915 295.5,-85.5914"/>
</g>
<!-- Node20&#45;&gt;Node4 -->
<g id="edge25" class="edge"><title>Node20&#45;&gt;Node4</title>
<path fill="none" stroke="midnightblue" d="M269.817,-168.444C246.572,-159.478 209.851,-145.314 183.585,-135.183"/>
<polygon fill="midnightblue" stroke="midnightblue" points="184.669,-131.85 174.08,-131.516 182.15,-138.381 184.669,-131.85"/>
</g>
<!-- Node20&#45;&gt;Node6 -->
<g id="edge23" class="edge"><title>Node20&#45;&gt;Node6</title>
<path fill="none" stroke="midnightblue" d="M320.205,-168.444C351.032,-159.091 400.5,-144.084 434.081,-133.897"/>
<polygon fill="midnightblue" stroke="midnightblue" points="435.401,-137.154 443.954,-130.902 433.369,-130.455 435.401,-137.154"/>
</g>
<!-- Node21 -->
<g id="node21" class="node"><title>Node21</title>
<polygon fill="white" stroke="#bfbfbf" points="358.5,-112.5 358.5,-131.5 387.5,-131.5 387.5,-112.5 358.5,-112.5"/>
<text text-anchor="middle" x="373" y="-119.5" font-family="Helvetica,sans-Serif" font-size="10.00">list</text>
</g>
<!-- Node20&#45;&gt;Node21 -->
<g id="edge26" class="edge"><title>Node20&#45;&gt;Node21</title>
<path fill="none" stroke="midnightblue" d="M305.014,-168.324C317.532,-159.979 336.682,-147.212 351.471,-137.352"/>
<polygon fill="midnightblue" stroke="midnightblue" points="353.639,-140.114 360.018,-131.655 349.756,-134.289 353.639,-140.114"/>
</g>
<!-- Node22&#45;&gt;Node6 -->
<g id="edge30" class="edge"><title>Node22&#45;&gt;Node6</title>
<path fill="none" stroke="midnightblue" d="M803.134,-168.488C734.087,-159.729 624.015,-145.496 529,-132 521.595,-130.948 513.674,-129.774 506.118,-128.63"/>
<polygon fill="midnightblue" stroke="midnightblue" points="506.537,-125.153 496.123,-127.103 505.48,-132.073 506.537,-125.153"/>
</g>
<!-- Node22&#45;&gt;Node9 -->
<g id="edge28" class="edge"><title>Node22&#45;&gt;Node9</title>
<path fill="none" stroke="midnightblue" d="M906.969,-168.444C949.355,-158.361 1019.37,-141.704 1061.84,-131.602"/>
<polygon fill="midnightblue" stroke="midnightblue" points="1062.83,-134.963 1071.75,-129.244 1061.21,-128.153 1062.83,-134.963"/>
</g>
<!-- Node23 -->
<g id="node23" class="node"><title>Node23</title>
<g id="a_node23"><a xlink:href="NonCopyable_8h.html" target="_top" xlink:title="common/NonCopyable.h">
<polygon fill="white" stroke="black" points="1142.5,-112.5 1142.5,-131.5 1267.5,-131.5 1267.5,-112.5 1142.5,-112.5"/>
<text text-anchor="middle" x="1205" y="-119.5" font-family="Helvetica,sans-Serif" font-size="10.00">common/NonCopyable.h</text>
</a>
</g>
</g>
<!-- Node22&#45;&gt;Node23 -->
<g id="edge29" class="edge"><title>Node22&#45;&gt;Node23</title>
<path fill="none" stroke="midnightblue" d="M923.923,-168.444C983.166,-158.865 1079.1,-143.356 1142.12,-133.167"/>
<polygon fill="midnightblue" stroke="midnightblue" points="1143.01,-136.568 1152.32,-131.516 1141.89,-129.657 1143.01,-136.568"/>
</g>
<!-- Node24 -->
<g id="node24" class="node"><title>Node24</title>
<polygon fill="white" stroke="#bfbfbf" points="897.5,-112.5 897.5,-131.5 932.5,-131.5 932.5,-112.5 897.5,-112.5"/>
<text text-anchor="middle" x="915" y="-119.5" font-family="Helvetica,sans-Serif" font-size="10.00">map</text>
</g>
<!-- Node22&#45;&gt;Node24 -->
<g id="edge31" class="edge"><title>Node22&#45;&gt;Node24</title>
<path fill="none" stroke="midnightblue" d="M878.266,-168.083C884.545,-160.377 893.788,-149.033 901.431,-139.653"/>
<polygon fill="midnightblue" stroke="midnightblue" points="904.266,-141.714 907.869,-131.751 898.839,-137.293 904.266,-141.714"/>
</g>
<!-- Node25&#45;&gt;Node4 -->
<g id="edge35" class="edge"><title>Node25&#45;&gt;Node4</title>
<path fill="none" stroke="midnightblue" d="M626.408,-511.808C488.904,-506.253 0,-477.338 0,-347 0,-347 0,-347 0,-289 0,-215.462 82.1416,-160.336 125.657,-136.292"/>
<polygon fill="midnightblue" stroke="midnightblue" points="127.411,-139.322 134.564,-131.506 124.098,-133.156 127.411,-139.322"/>
</g>
<!-- Node25&#45;&gt;Node7 -->
<g id="edge84" class="edge"><title>Node25&#45;&gt;Node7</title>
<path fill="none" stroke="midnightblue" d="M626.36,-509.017C539.887,-498.365 326,-465.684 326,-403 326,-403 326,-403 326,-345 326,-295.953 380.851,-263.742 418.172,-247.502"/>
<polygon fill="midnightblue" stroke="midnightblue" points="419.821,-250.606 427.706,-243.53 417.129,-244.145 419.821,-250.606"/>
</g>
<!-- Node25&#45;&gt;Node8 -->
<g id="edge85" class="edge"><title>Node25&#45;&gt;Node8</title>
<path fill="none" stroke="midnightblue" d="M669.723,-504.461C695.726,-474.669 777.346,-372.139 757,-280 751.083,-253.205 749.1,-244.625 731,-224 719.314,-210.683 702.743,-199.876 688.55,-192.194"/>
<polygon fill="midnightblue" stroke="midnightblue" points="690.133,-189.072 679.641,-187.602 686.926,-195.294 690.133,-189.072"/>
</g>
<!-- Node25&#45;&gt;Node21 -->
<g id="edge34" class="edge"><title>Node25&#45;&gt;Node21</title>
<path fill="none" stroke="midnightblue" d="M697.742,-511.816C783.853,-508.519 1000.51,-497.461 1066,-468 1105.75,-450.115 1152.53,-428.037 1128,-392 1052.54,-281.126 688.462,-226.532 560,-188 500.971,-170.294 432.896,-145.505 397.403,-132.24"/>
<polygon fill="midnightblue" stroke="midnightblue" points="398.477,-128.905 387.885,-128.666 396.017,-135.458 398.477,-128.905"/>
</g>
<!-- Node26 -->
<g id="node26" class="node"><title>Node26</title>
<g id="a_node26"><a xlink:href="ICharacter_8h.html" target="_top" xlink:title="ICharacter.h">
<polygon fill="white" stroke="black" points="1242.5,-224.5 1242.5,-243.5 1313.5,-243.5 1313.5,-224.5 1242.5,-224.5"/>
<text text-anchor="middle" x="1278" y="-231.5" font-family="Helvetica,sans-Serif" font-size="10.00">ICharacter.h</text>
</a>
</g>
</g>
<!-- Node25&#45;&gt;Node26 -->
<g id="edge36" class="edge"><title>Node25&#45;&gt;Node26</title>
<path fill="none" stroke="midnightblue" d="M697.547,-512.668C784.139,-511.289 1012.57,-504.209 1199,-468 1281.66,-451.946 1330.03,-479.774 1380,-412 1421.57,-355.621 1338.28,-280.88 1298.05,-249.669"/>
<polygon fill="midnightblue" stroke="midnightblue" points="1300.04,-246.783 1289.96,-243.526 1295.81,-252.359 1300.04,-246.783"/>
</g>
<!-- Node35 -->
<g id="node35" class="node"><title>Node35</title>
<g id="a_node35"><a xlink:href="AI_8h.html" target="_top" xlink:title="AI.h">
<polygon fill="white" stroke="black" points="1022.5,-448.5 1022.5,-467.5 1057.5,-467.5 1057.5,-448.5 1022.5,-448.5"/>
<text text-anchor="middle" x="1040" y="-455.5" font-family="Helvetica,sans-Serif" font-size="10.00">AI.h</text>
</a>
</g>
</g>
<!-- Node25&#45;&gt;Node35 -->
<g id="edge50" class="edge"><title>Node25&#45;&gt;Node35</title>
<path fill="none" stroke="midnightblue" d="M697.561,-507.92C772.247,-497.25 944.101,-472.7 1011.83,-463.025"/>
<polygon fill="midnightblue" stroke="midnightblue" points="1012.73,-466.431 1022.14,-461.552 1011.74,-459.501 1012.73,-466.431"/>
</g>
<!-- Node26&#45;&gt;Node6 -->
<g id="edge49" class="edge"><title>Node26&#45;&gt;Node6</title>
<path fill="none" stroke="midnightblue" d="M1242.44,-231.669C1161.9,-228.226 959.592,-217.167 793,-188 758.172,-181.902 750.525,-175.631 716,-168 641.945,-151.632 554.414,-136.649 506.279,-128.782"/>
<polygon fill="midnightblue" stroke="midnightblue" points="506.772,-125.317 496.34,-127.168 505.649,-132.226 506.772,-125.317"/>
</g>
<!-- Node26&#45;&gt;Node9 -->
<g id="edge47" class="edge"><title>Node26&#45;&gt;Node9</title>
<path fill="none" stroke="midnightblue" d="M1279.09,-224.148C1280.26,-210.303 1280.33,-183.509 1266,-168 1264.85,-166.758 1182.95,-145.193 1133.94,-132.374"/>
<polygon fill="midnightblue" stroke="midnightblue" points="1134.58,-128.924 1124.02,-129.782 1132.81,-135.697 1134.58,-128.924"/>
</g>
<!-- Node26&#45;&gt;Node18 -->
<g id="edge48" class="edge"><title>Node26&#45;&gt;Node18</title>
<path fill="none" stroke="midnightblue" d="M1242.03,-225.573C1181.6,-213.166 1055.79,-187.647 949,-168 866.181,-152.763 768.406,-136.562 718.292,-128.387"/>
<polygon fill="midnightblue" stroke="midnightblue" points="718.777,-124.92 708.344,-126.768 717.652,-131.829 718.777,-124.92"/>
</g>
<!-- Node26&#45;&gt;Node23 -->
<g id="edge37" class="edge"><title>Node26&#45;&gt;Node23</title>
<path fill="none" stroke="midnightblue" d="M1286.65,-224.079C1298.18,-211.056 1315.84,-186.394 1304,-168 1293.69,-151.995 1276.15,-141.617 1258.67,-134.916"/>
<polygon fill="midnightblue" stroke="midnightblue" points="1259.6,-131.535 1249.01,-131.559 1257.3,-138.147 1259.6,-131.535"/>
</g>
<!-- Node27 -->
<g id="node27" class="node"><title>Node27</title>
<g id="a_node27"><a xlink:href="Math_8h.html" target="_top" xlink:title="common/Math.h">
<polygon fill="white" stroke="black" points="1550.5,-168.5 1550.5,-187.5 1637.5,-187.5 1637.5,-168.5 1550.5,-168.5"/>
<text text-anchor="middle" x="1594" y="-175.5" font-family="Helvetica,sans-Serif" font-size="10.00">common/Math.h</text>
</a>
</g>
</g>
<!-- Node26&#45;&gt;Node27 -->
<g id="edge38" class="edge"><title>Node26&#45;&gt;Node27</title>
<path fill="none" stroke="midnightblue" d="M1313.63,-226.91C1368.95,-217.459 1475.8,-199.198 1540.43,-188.154"/>
<polygon fill="midnightblue" stroke="midnightblue" points="1541.16,-191.58 1550.43,-186.445 1539.98,-184.68 1541.16,-191.58"/>
</g>
<!-- Node27&#45;&gt;Node9 -->
<g id="edge39" class="edge"><title>Node27&#45;&gt;Node9</title>
<path fill="none" stroke="midnightblue" d="M1550.48,-174.995C1470.02,-170.803 1292.53,-159.291 1134.2,-131.959"/>
<polygon fill="midnightblue" stroke="midnightblue" points="1134.73,-128.499 1124.28,-130.221 1133.52,-135.394 1134.73,-128.499"/>
</g>
<!-- Node28 -->
<g id="node28" class="node"><title>Node28</title>
<polygon fill="white" stroke="#bfbfbf" points="1782,-112.5 1782,-131.5 1852,-131.5 1852,-112.5 1782,-112.5"/>
<text text-anchor="middle" x="1817" y="-119.5" font-family="Helvetica,sans-Serif" font-size="10.00">glm/glm.hpp</text>
</g>
<!-- Node27&#45;&gt;Node28 -->
<g id="edge40" class="edge"><title>Node27&#45;&gt;Node28</title>
<path fill="none" stroke="midnightblue" d="M1629.34,-168.444C1667.91,-159.102 1729.78,-144.119 1771.85,-133.933"/>
<polygon fill="midnightblue" stroke="midnightblue" points="1772.93,-137.272 1781.83,-131.516 1771.29,-130.468 1772.93,-137.272"/>
</g>
<!-- Node29 -->
<g id="node29" class="node"><title>Node29</title>
<polygon fill="white" stroke="#bfbfbf" points="1870.5,-112.5 1870.5,-131.5 1983.5,-131.5 1983.5,-112.5 1870.5,-112.5"/>
<text text-anchor="middle" x="1927" y="-119.5" font-family="Helvetica,sans-Serif" font-size="10.00">glm/gtc/constants.hpp</text>
</g>
<!-- Node27&#45;&gt;Node29 -->
<g id="edge41" class="edge"><title>Node27&#45;&gt;Node29</title>
<path fill="none" stroke="midnightblue" d="M1637.53,-169.94C1695.47,-160.545 1798.29,-143.872 1864.5,-133.135"/>
<polygon fill="midnightblue" stroke="midnightblue" points="1865.09,-136.586 1874.4,-131.53 1863.97,-129.676 1865.09,-136.586"/>
</g>
<!-- Node30 -->
<g id="node30" class="node"><title>Node30</title>
<polygon fill="white" stroke="#bfbfbf" points="1285.5,-112.5 1285.5,-131.5 1386.5,-131.5 1386.5,-112.5 1285.5,-112.5"/>
<text text-anchor="middle" x="1336" y="-119.5" font-family="Helvetica,sans-Serif" font-size="10.00">glm/gtc/epsilon.hpp</text>
</g>
<!-- Node27&#45;&gt;Node30 -->
<g id="edge42" class="edge"><title>Node27&#45;&gt;Node30</title>
<path fill="none" stroke="midnightblue" d="M1553.12,-168.444C1508.02,-159.004 1435.39,-143.802 1386.7,-133.611"/>
<polygon fill="midnightblue" stroke="midnightblue" points="1387.19,-130.139 1376.69,-131.516 1385.76,-136.991 1387.19,-130.139"/>
</g>
<!-- Node31 -->
<g id="node31" class="node"><title>Node31</title>
<polygon fill="white" stroke="#bfbfbf" points="1404.5,-112.5 1404.5,-131.5 1529.5,-131.5 1529.5,-112.5 1404.5,-112.5"/>
<text text-anchor="middle" x="1467" y="-119.5" font-family="Helvetica,sans-Serif" font-size="10.00">glm/gtx/compatibility.hpp</text>
</g>
<!-- Node27&#45;&gt;Node31 -->
<g id="edge43" class="edge"><title>Node27&#45;&gt;Node31</title>
<path fill="none" stroke="midnightblue" d="M1573.88,-168.444C1552.98,-159.557 1520.07,-145.563 1496.28,-135.451"/>
<polygon fill="midnightblue" stroke="midnightblue" points="1497.6,-132.208 1487.03,-131.516 1494.86,-138.65 1497.6,-132.208"/>
</g>
<!-- Node32 -->
<g id="node32" class="node"><title>Node32</title>
<polygon fill="white" stroke="#bfbfbf" points="1548,-112.5 1548,-131.5 1640,-131.5 1640,-112.5 1548,-112.5"/>
<text text-anchor="middle" x="1594" y="-119.5" font-family="Helvetica,sans-Serif" font-size="10.00">glm/gtx/norm.hpp</text>
</g>
<!-- Node27&#45;&gt;Node32 -->
<g id="edge44" class="edge"><title>Node27&#45;&gt;Node32</title>
<path fill="none" stroke="midnightblue" d="M1594,-168.083C1594,-161.006 1594,-150.861 1594,-141.986"/>
<polygon fill="midnightblue" stroke="midnightblue" points="1597.5,-141.751 1594,-131.751 1590.5,-141.751 1597.5,-141.751"/>
</g>
<!-- Node33 -->
<g id="node33" class="node"><title>Node33</title>
<polygon fill="white" stroke="#bfbfbf" points="1658,-112.5 1658,-131.5 1698,-131.5 1698,-112.5 1658,-112.5"/>
<text text-anchor="middle" x="1678" y="-119.5" font-family="Helvetica,sans-Serif" font-size="10.00">limits</text>
</g>
<!-- Node27&#45;&gt;Node33 -->
<g id="edge45" class="edge"><title>Node27&#45;&gt;Node33</title>
<path fill="none" stroke="midnightblue" d="M1607.5,-168.324C1620.6,-159.9 1640.71,-146.971 1656.11,-137.074"/>
<polygon fill="midnightblue" stroke="midnightblue" points="1658.02,-140.006 1664.54,-131.655 1654.23,-134.118 1658.02,-140.006"/>
</g>
<!-- Node34 -->
<g id="node34" class="node"><title>Node34</title>
<polygon fill="white" stroke="#bfbfbf" points="1716.5,-112.5 1716.5,-131.5 1763.5,-131.5 1763.5,-112.5 1716.5,-112.5"/>
<text text-anchor="middle" x="1740" y="-119.5" font-family="Helvetica,sans-Serif" font-size="10.00">math.h</text>
</g>
<!-- Node27&#45;&gt;Node34 -->
<g id="edge46" class="edge"><title>Node27&#45;&gt;Node34</title>
<path fill="none" stroke="midnightblue" d="M1617.13,-168.444C1641.48,-159.438 1680.01,-145.189 1707.42,-135.049"/>
<polygon fill="midnightblue" stroke="midnightblue" points="1708.81,-138.268 1716.97,-131.516 1706.38,-131.703 1708.81,-138.268"/>
</g>
<!-- Node35&#45;&gt;Node6 -->
<g id="edge52" class="edge"><title>Node35&#45;&gt;Node6</title>
<path fill="none" stroke="midnightblue" d="M1022.4,-457.307C978.064,-457.409 859.104,-453.491 772,-412 637.611,-347.985 625.127,-296.298 523,-188 508.39,-172.507 493.176,-153.502 482.815,-140.054"/>
<polygon fill="midnightblue" stroke="midnightblue" points="485.329,-137.578 476.486,-131.743 479.76,-141.819 485.329,-137.578"/>
</g>
<!-- Node35&#45;&gt;Node8 -->
<g id="edge80" class="edge"><title>Node35&#45;&gt;Node8</title>
<path fill="none" stroke="midnightblue" d="M1022.13,-456.461C969.211,-453.824 817,-438.303 817,-347 817,-347 817,-347 817,-289 817,-257.718 812.778,-245.441 790,-224 770.283,-205.44 742.531,-194.493 717.729,-188.057"/>
<polygon fill="midnightblue" stroke="midnightblue" points="718.215,-184.574 707.675,-185.645 716.582,-191.381 718.215,-184.574"/>
</g>
<!-- Node35&#45;&gt;Node9 -->
<g id="edge81" class="edge"><title>Node35&#45;&gt;Node9</title>
<path fill="none" stroke="midnightblue" d="M1057.63,-452.246C1077.35,-446.07 1109.01,-433.458 1128,-412 1198.26,-332.612 1191.49,-292.389 1210,-188 1211.55,-179.248 1214.98,-175.364 1210,-168 1201.08,-154.799 1163.23,-141.403 1133.98,-132.701"/>
<polygon fill="midnightblue" stroke="midnightblue" points="1134.63,-129.246 1124.05,-129.827 1132.68,-135.97 1134.63,-129.246"/>
</g>
<!-- Node35&#45;&gt;Node14 -->
<g id="edge51" class="edge"><title>Node35&#45;&gt;Node14</title>
<path fill="none" stroke="midnightblue" d="M1057.58,-455.965C1142.38,-450.905 1507,-428.36 1555,-412 1773.34,-337.582 1881.31,-334.379 1992,-132 1996.27,-124.201 1997.89,-118.658 1992,-112 1971.54,-88.867 1773.97,-75.04 1677.92,-69.6335"/>
<polygon fill="midnightblue" stroke="midnightblue" points="1678.01,-66.1336 1667.83,-69.076 1677.63,-73.1229 1678.01,-66.1336"/>
</g>
<!-- Node35&#45;&gt;Node23 -->
<g id="edge82" class="edge"><title>Node35&#45;&gt;Node23</title>
<path fill="none" stroke="midnightblue" d="M1057.53,-454.984C1125.24,-446.717 1366,-412.706 1366,-347 1366,-347 1366,-347 1366,-233 1366,-178.166 1301.54,-148.684 1254.2,-134.425"/>
<polygon fill="midnightblue" stroke="midnightblue" points="1254.96,-131.003 1244.39,-131.61 1253.03,-137.731 1254.96,-131.003"/>
</g>
<!-- Node35&#45;&gt;Node26 -->
<g id="edge61" class="edge"><title>Node35&#45;&gt;Node26</title>
<path fill="none" stroke="midnightblue" d="M1057.84,-453.514C1082.79,-447.979 1128.65,-435.341 1161,-412 1219.21,-370.008 1256.59,-289.403 1271.12,-253.288"/>
<polygon fill="midnightblue" stroke="midnightblue" points="1274.53,-254.189 1274.9,-243.6 1268.01,-251.646 1274.53,-254.189"/>
</g>
<!-- Node35&#45;&gt;Node27 -->
<g id="edge83" class="edge"><title>Node35&#45;&gt;Node27</title>
<path fill="none" stroke="midnightblue" d="M1057.81,-457.343C1152.63,-458.706 1594,-459.031 1594,-347 1594,-347 1594,-347 1594,-289 1594,-256.948 1594,-219.643 1594,-197.749"/>
<polygon fill="midnightblue" stroke="midnightblue" points="1597.5,-197.558 1594,-187.558 1590.5,-197.558 1597.5,-197.558"/>
</g>
<!-- Node36 -->
<g id="node36" class="node"><title>Node36</title>
<g id="a_node36"><a xlink:href="GroupId_8h.html" target="_top" xlink:title="group/GroupId.h">
<polygon fill="white" stroke="black" points="1033,-392.5 1033,-411.5 1119,-411.5 1119,-392.5 1033,-392.5"/>
<text text-anchor="middle" x="1076" y="-399.5" font-family="Helvetica,sans-Serif" font-size="10.00">group/GroupId.h</text>
</a>
</g>
</g>
<!-- Node35&#45;&gt;Node36 -->
<g id="edge53" class="edge"><title>Node35&#45;&gt;Node36</title>
<path fill="none" stroke="midnightblue" d="M1045.94,-448.083C1050.98,-440.534 1058.34,-429.495 1064.51,-420.23"/>
<polygon fill="midnightblue" stroke="midnightblue" points="1067.53,-422.013 1070.17,-411.751 1061.71,-418.13 1067.53,-422.013"/>
</g>
<!-- Node37 -->
<g id="node37" class="node"><title>Node37</title>
<g id="a_node37"><a xlink:href="AggroMgr_8h.html" target="_top" xlink:title="aggro/AggroMgr.h">
<polygon fill="white" stroke="black" points="654,-280.5 654,-299.5 748,-299.5 748,-280.5 654,-280.5"/>
<text text-anchor="middle" x="701" y="-287.5" font-family="Helvetica,sans-Serif" font-size="10.00">aggro/AggroMgr.h</text>
</a>
</g>
</g>
<!-- Node35&#45;&gt;Node37 -->
<g id="edge54" class="edge"><title>Node35&#45;&gt;Node37</title>
<path fill="none" stroke="midnightblue" d="M1022.26,-457.541C980.851,-458.014 875.854,-454.59 803,-412 759.483,-386.56 725.951,-335.436 710.444,-308.509"/>
<polygon fill="midnightblue" stroke="midnightblue" points="713.496,-306.796 705.561,-299.775 707.386,-310.212 713.496,-306.796"/>
</g>
<!-- Node40 -->
<g id="node40" class="node"><title>Node40</title>
<g id="a_node40"><a xlink:href="TreeNode_8h.html" target="_top" xlink:title="tree/TreeNode.h">
<polygon fill="white" stroke="black" points="468.5,-392.5 468.5,-411.5 555.5,-411.5 555.5,-392.5 468.5,-392.5"/>
<text text-anchor="middle" x="512" y="-399.5" font-family="Helvetica,sans-Serif" font-size="10.00">tree/TreeNode.h</text>
</a>
</g>
</g>
<!-- Node35&#45;&gt;Node40 -->
<g id="edge62" class="edge"><title>Node35&#45;&gt;Node40</title>
<path fill="none" stroke="midnightblue" d="M1022.43,-455.203C951.131,-447.911 681.643,-420.35 565.64,-408.486"/>
<polygon fill="midnightblue" stroke="midnightblue" points="565.87,-404.991 555.566,-407.456 565.158,-411.955 565.87,-404.991"/>
</g>
<!-- Node42 -->
<g id="node42" class="node"><title>Node42</title>
<g id="a_node42"><a xlink:href="ITreeLoader_8h.html" target="_top" xlink:title="tree/loaders/ITreeLoader.h">
<polygon fill="white" stroke="black" points="899.5,-224.5 899.5,-243.5 1030.5,-243.5 1030.5,-224.5 899.5,-224.5"/>
<text text-anchor="middle" x="965" y="-231.5" font-family="Helvetica,sans-Serif" font-size="10.00">tree/loaders/ITreeLoader.h</text>
</a>
</g>
</g>
<!-- Node35&#45;&gt;Node42 -->
<g id="edge72" class="edge"><title>Node35&#45;&gt;Node42</title>
<path fill="none" stroke="midnightblue" d="M1036.88,-448.391C1033.62,-439.347 1028.37,-424.7 1024,-412 1004.19,-354.469 981.682,-286.063 971.105,-253.72"/>
<polygon fill="midnightblue" stroke="midnightblue" points="974.316,-252.281 967.885,-243.861 967.662,-254.454 974.316,-252.281"/>
</g>
<!-- Node37&#45;&gt;Node4 -->
<g id="edge55" class="edge"><title>Node37&#45;&gt;Node4</title>
<path fill="none" stroke="midnightblue" d="M701.036,-280.138C700.564,-265.775 697.332,-237.644 680,-224 596.648,-158.384 297.808,-237.528 204,-188 184.291,-177.594 169.457,-156.137 160.777,-140.72"/>
<polygon fill="midnightblue" stroke="midnightblue" points="163.742,-138.84 155.972,-131.637 157.555,-142.113 163.742,-138.84"/>
</g>
<!-- Node37&#45;&gt;Node6 -->
<g id="edge56" class="edge"><title>Node37&#45;&gt;Node6</title>
<path fill="none" stroke="midnightblue" d="M706.629,-280.404C714.686,-266.911 727.159,-240.59 714,-224 670.319,-168.931 623.962,-217.146 560,-188 531.965,-175.225 503.852,-153.062 486.688,-138.215"/>
<polygon fill="midnightblue" stroke="midnightblue" points="489.001,-135.588 479.19,-131.588 484.365,-140.833 489.001,-135.588"/>
</g>
<!-- Node37&#45;&gt;Node26 -->
<g id="edge57" class="edge"><title>Node37&#45;&gt;Node26</title>
<path fill="none" stroke="midnightblue" d="M748.218,-284.581C857.097,-274.391 1124.64,-249.352 1232.16,-239.29"/>
<polygon fill="midnightblue" stroke="midnightblue" points="1232.73,-242.752 1242.36,-238.335 1232.08,-235.782 1232.73,-242.752"/>
</g>
<!-- Node38 -->
<g id="node38" class="node"><title>Node38</title>
<polygon fill="white" stroke="#bfbfbf" points="616,-224.5 616,-243.5 672,-243.5 672,-224.5 616,-224.5"/>
<text text-anchor="middle" x="644" y="-231.5" font-family="Helvetica,sans-Serif" font-size="10.00">algorithm</text>
</g>
<!-- Node37&#45;&gt;Node38 -->
<g id="edge58" class="edge"><title>Node37&#45;&gt;Node38</title>
<path fill="none" stroke="midnightblue" d="M691.842,-280.324C683.499,-272.42 670.968,-260.548 660.823,-250.938"/>
<polygon fill="midnightblue" stroke="midnightblue" points="662.991,-248.171 653.325,-243.834 658.177,-253.252 662.991,-248.171"/>
</g>
<!-- Node39 -->
<g id="node39" class="node"><title>Node39</title>
<g id="a_node39"><a xlink:href="Entry_8h.html" target="_top" xlink:title="aggro/Entry.h">
<polygon fill="white" stroke="black" points="1110.5,-168.5 1110.5,-187.5 1185.5,-187.5 1185.5,-168.5 1110.5,-168.5"/>
<text text-anchor="middle" x="1148" y="-175.5" font-family="Helvetica,sans-Serif" font-size="10.00">aggro/Entry.h</text>
</a>
</g>
</g>
<!-- Node37&#45;&gt;Node39 -->
<g id="edge59" class="edge"><title>Node37&#45;&gt;Node39</title>
<path fill="none" stroke="midnightblue" d="M748.018,-288.67C814.599,-286.892 939.346,-278.696 1039,-244 1073.05,-232.146 1108.1,-208.891 1128.96,-193.652"/>
<polygon fill="midnightblue" stroke="midnightblue" points="1131.07,-196.45 1136.99,-187.668 1126.88,-190.838 1131.07,-196.45"/>
</g>
<!-- Node39&#45;&gt;Node9 -->
<g id="edge60" class="edge"><title>Node39&#45;&gt;Node9</title>
<path fill="none" stroke="midnightblue" d="M1139.74,-168.083C1132.54,-160.298 1121.89,-148.801 1113.15,-139.367"/>
<polygon fill="midnightblue" stroke="midnightblue" points="1115.47,-136.711 1106.1,-131.751 1110.33,-141.467 1115.47,-136.711"/>
</g>
<!-- Node40&#45;&gt;Node2 -->
<g id="edge65" class="edge"><title>Node40&#45;&gt;Node2</title>
<path fill="none" stroke="midnightblue" d="M506.953,-392.236C498.273,-378.013 479.107,-350.079 455,-336 410.396,-309.95 352.804,-298.868 308.454,-294.208"/>
<polygon fill="midnightblue" stroke="midnightblue" points="308.634,-290.709 298.343,-293.232 307.961,-297.677 308.634,-290.709"/>
</g>
<!-- Node40&#45;&gt;Node3 -->
<g id="edge69" class="edge"><title>Node40&#45;&gt;Node3</title>
<path fill="none" stroke="midnightblue" d="M468.258,-398.576C413.33,-394.46 316.857,-383.651 239,-356 166.498,-330.251 137.222,-314.755 107,-244 83.9492,-190.035 63.0034,-153.986 104,-112 125.634,-89.8434 213.773,-76.2464 261.291,-70.3821"/>
<polygon fill="midnightblue" stroke="midnightblue" points="261.814,-73.8445 271.329,-69.1839 260.985,-66.8939 261.814,-73.8445"/>
</g>
<!-- Node40&#45;&gt;Node4 -->
<g id="edge68" class="edge"><title>Node40&#45;&gt;Node4</title>
<path fill="none" stroke="midnightblue" d="M468.332,-395.957C400.433,-386.452 267.535,-361.052 173,-300 144.721,-281.737 134.153,-275.393 122,-244 109.806,-212.5 112.212,-200.328 122,-168 125.117,-157.705 131.452,-147.612 137.501,-139.602"/>
<polygon fill="midnightblue" stroke="midnightblue" points="140.228,-141.797 143.786,-131.818 134.781,-137.399 140.228,-141.797"/>
</g>
<!-- Node40&#45;&gt;Node6 -->
<g id="edge70" class="edge"><title>Node40&#45;&gt;Node6</title>
<path fill="none" stroke="midnightblue" d="M516.306,-392.417C529.261,-365.27 564.892,-279.776 530,-224 510.603,-192.993 475.397,-219.007 456,-188 447.034,-173.668 452.909,-154.461 459.578,-140.647"/>
<polygon fill="midnightblue" stroke="midnightblue" points="462.74,-142.157 464.374,-131.689 456.568,-138.853 462.74,-142.157"/>
</g>
<!-- Node40&#45;&gt;Node7 -->
<g id="edge64" class="edge"><title>Node40&#45;&gt;Node7</title>
<path fill="none" stroke="midnightblue" d="M508.774,-392.075C499.289,-365.832 471.354,-288.545 458.548,-253.117"/>
<polygon fill="midnightblue" stroke="midnightblue" points="461.788,-251.783 455.097,-243.568 455.205,-254.162 461.788,-251.783"/>
</g>
<!-- Node40&#45;&gt;Node9 -->
<g id="edge63" class="edge"><title>Node40&#45;&gt;Node9</title>
<path fill="none" stroke="midnightblue" d="M555.778,-394.647C695.031,-373.404 1122.79,-299.82 1194,-188 1198.77,-180.502 1198.77,-175.502 1194,-168 1186.97,-156.941 1158.06,-144.263 1133.79,-135.189"/>
<polygon fill="midnightblue" stroke="midnightblue" points="1134.68,-131.789 1124.09,-131.657 1132.29,-138.367 1134.68,-131.789"/>
</g>
<!-- Node40&#45;&gt;Node38 -->
<g id="edge71" class="edge"><title>Node40&#45;&gt;Node38</title>
<path fill="none" stroke="midnightblue" d="M523.553,-392.496C534.66,-383.991 551.55,-370.172 564,-356 593.508,-322.411 620.565,-277.214 634.378,-252.666"/>
<polygon fill="midnightblue" stroke="midnightblue" points="637.517,-254.222 639.305,-243.779 631.395,-250.828 637.517,-254.222"/>
</g>
<!-- Node41 -->
<g id="node41" class="node"><title>Node41</title>
<g id="a_node41"><a xlink:href="True_8h.html" target="_top" xlink:title="conditions/True.h">
<polygon fill="white" stroke="black" points="354,-336.5 354,-355.5 446,-355.5 446,-336.5 354,-336.5"/>
<text text-anchor="middle" x="400" y="-343.5" font-family="Helvetica,sans-Serif" font-size="10.00">conditions/True.h</text>
</a>
</g>
</g>
<!-- Node40&#45;&gt;Node41 -->
<g id="edge66" class="edge"><title>Node40&#45;&gt;Node41</title>
<path fill="none" stroke="midnightblue" d="M494.005,-392.324C475.962,-383.625 447.953,-370.12 427.197,-360.113"/>
<polygon fill="midnightblue" stroke="midnightblue" points="428.478,-356.845 417.95,-355.655 425.438,-363.15 428.478,-356.845"/>
</g>
<!-- Node41&#45;&gt;Node2 -->
<g id="edge67" class="edge"><title>Node41&#45;&gt;Node2</title>
<path fill="none" stroke="midnightblue" d="M374.648,-336.444C347.731,-327.359 305.004,-312.939 274.913,-302.783"/>
<polygon fill="midnightblue" stroke="midnightblue" points="275.828,-299.398 265.234,-299.516 273.59,-306.031 275.828,-299.398"/>
</g>
<!-- Node42&#45;&gt;Node3 -->
<g id="edge75" class="edge"><title>Node42&#45;&gt;Node3</title>
<path fill="none" stroke="midnightblue" d="M900.632,-224.475C866.928,-218.011 825.935,-206.886 793,-188 751.56,-164.238 760.108,-132.582 717,-112 647.091,-78.6219 408.451,-69.7554 322.863,-67.6209"/>
<polygon fill="midnightblue" stroke="midnightblue" points="322.826,-64.1191 312.746,-67.3825 322.661,-71.1172 322.826,-64.1191"/>
</g>
<!-- Node42&#45;&gt;Node4 -->
<g id="edge76" class="edge"><title>Node42&#45;&gt;Node4</title>
<path fill="none" stroke="midnightblue" d="M899.286,-230.874C733.605,-225.232 307.676,-208.873 247,-188 216.469,-177.497 186.637,-154.362 168.782,-138.723"/>
<polygon fill="midnightblue" stroke="midnightblue" points="170.8,-135.83 161.028,-131.735 166.113,-141.03 170.8,-135.83"/>
</g>
<!-- Node42&#45;&gt;Node6 -->
<g id="edge74" class="edge"><title>Node42&#45;&gt;Node6</title>
<path fill="none" stroke="midnightblue" d="M899.463,-226.039C802.876,-215.6 630.695,-196.238 603,-188 597.446,-186.348 533.687,-154.753 496.505,-136.231"/>
<polygon fill="midnightblue" stroke="midnightblue" points="497.745,-132.939 487.234,-131.61 494.622,-139.204 497.745,-132.939"/>
</g>
<!-- Node42&#45;&gt;Node8 -->
<g id="edge73" class="edge"><title>Node42&#45;&gt;Node8</title>
<path fill="none" stroke="midnightblue" d="M916.672,-224.444C862.638,-214.877 775.181,-199.393 717.629,-189.203"/>
<polygon fill="midnightblue" stroke="midnightblue" points="718.057,-185.725 707.6,-187.428 716.837,-192.617 718.057,-185.725"/>
</g>
<!-- Node42&#45;&gt;Node11 -->
<g id="edge79" class="edge"><title>Node42&#45;&gt;Node11</title>
<path fill="none" stroke="midnightblue" d="M966.646,-224.297C972.826,-191.633 994.728,-75.8661 1003.41,-29.9573"/>
<polygon fill="midnightblue" stroke="midnightblue" points="1006.9,-30.3601 1005.32,-19.8837 1000.02,-29.0588 1006.9,-30.3601"/>
</g>
<!-- Node42&#45;&gt;Node12 -->
<g id="edge78" class="edge"><title>Node42&#45;&gt;Node12</title>
<path fill="none" stroke="midnightblue" d="M969.853,-224.406C974.934,-215.374 983.117,-200.737 990,-188 1021.42,-129.856 1057.55,-60.2942 1074,-28.4595"/>
<polygon fill="midnightblue" stroke="midnightblue" points="1077.14,-30.0029 1078.62,-19.5115 1070.92,-26.7917 1077.14,-30.0029"/>
</g>
<!-- Node42&#45;&gt;Node24 -->
<g id="edge77" class="edge"><title>Node42&#45;&gt;Node24</title>
<path fill="none" stroke="midnightblue" d="M963.984,-224.209C962.248,-211.35 957.99,-186.889 949,-168 944.066,-157.632 936.518,-147.32 929.786,-139.189"/>
<polygon fill="midnightblue" stroke="midnightblue" points="932.402,-136.863 923.21,-131.593 927.109,-141.444 932.402,-136.863"/>
</g>
</g>
</svg>
