<?xml version="1.0" encoding="UTF-8" standalone="no"?>
<!DOCTYPE svg PUBLIC "-//W3C//DTD SVG 1.1//EN"
 "http://www.w3.org/Graphics/SVG/1.1/DTD/svg11.dtd">
<!-- Generated by graphviz version 2.36.0 (20140111.2315)
 -->
<!-- Title: LUA Pages: 1 -->
<svg width="208pt" height="168pt"
 viewBox="0.00 0.00 208.00 168.00" xmlns="http://www.w3.org/2000/svg" xmlns:xlink="http://www.w3.org/1999/xlink">
<g id="graph0" class="graph" transform="scale(1 1) rotate(0) translate(4 164)">
<title>LUA</title>
<polygon fill="white" stroke="none" points="-4,4 -4,-164 204,-164 204,4 -4,4"/>
<!-- Node1 -->
<g id="node1" class="node"><title>Node1</title>
<g id="a_node1"><a xlink:href="group__Aggro.html" target="_top" xlink:title="Aggro">
<polygon fill="white" stroke="black" points="150,-140.5 150,-159.5 192,-159.5 192,-140.5 150,-140.5"/>
<text text-anchor="middle" x="171" y="-147.5" font-family="Helvetica,sans-Serif" font-size="10.00">Aggro</text>
</a>
</g>
</g>
<!-- Node4 -->
<g id="node2" class="node"><title>Node4</title>
<g id="a_node2"><a xlink:href="group__Filter.html" target="_top" xlink:title="Filter">
<polygon fill="white" stroke="black" points="152,-102.5 152,-121.5 190,-121.5 190,-102.5 152,-102.5"/>
<text text-anchor="middle" x="171" y="-109.5" font-family="Helvetica,sans-Serif" font-size="10.00">Filter</text>
</a>
</g>
</g>
<!-- Node3 -->
<g id="node3" class="node"><title>Node3</title>
<g id="a_node3"><a xlink:href="group__Condition.html" target="_top" xlink:title="Condition">
<polygon fill="white" stroke="black" points="142,-51.5 142,-70.5 200,-70.5 200,-51.5 142,-51.5"/>
<text text-anchor="middle" x="171" y="-58.5" font-family="Helvetica,sans-Serif" font-size="10.00">Condition</text>
</a>
</g>
</g>
<!-- Node2 -->
<g id="node4" class="node"><title>Node2</title>
<g id="a_node4"><a xlink:href="group__Random.html" target="_top" xlink:title="Random">
<polygon fill="white" stroke="black" points="144.5,-0.5 144.5,-19.5 197.5,-19.5 197.5,-0.5 144.5,-0.5"/>
<text text-anchor="middle" x="171" y="-7.5" font-family="Helvetica,sans-Serif" font-size="10.00">Random</text>
</a>
</g>
</g>
<!-- Node0 -->
<g id="node5" class="node"><title>Node0</title>
<polygon fill="#bfbfbf" stroke="black" points="0,-68.5 0,-87.5 36,-87.5 36,-68.5 0,-68.5"/>
<text text-anchor="middle" x="18" y="-75.5" font-family="Helvetica,sans-Serif" font-size="10.00">LUA</text>
</g>
<!-- Node0&#45;&gt;Node1 -->
<g id="edge1" class="edge"><title>Node0&#45;&gt;Node1</title>
<path fill="none" stroke="blueviolet" stroke-dasharray="5,2" d="M25.0316,-87.6897C31.2137,-96.8285 41.6518,-110.249 54,-118 84.0795,-136.882 125.363,-144.798 149.706,-147.985"/>
<text text-anchor="middle" x="89" y="-146" font-family="Helvetica,sans-Serif" font-size="10.00">ai</text>
</g>
<!-- Node0&#45;&gt;Node4 -->
<g id="edge5" class="edge"><title>Node0&#45;&gt;Node4</title>
<path fill="none" stroke="darkgreen" stroke-dasharray="5,2" d="M36.022,-83.138C41.7141,-84.7826 48.1088,-86.5511 54,-88 88.3489,-96.4479 128.906,-104.378 151.823,-108.672"/>
<text text-anchor="middle" x="89" y="-106" font-family="Helvetica,sans-Serif" font-size="10.00">LUAFilter.h</text>
</g>
<!-- Node0&#45;&gt;Node3 -->
<g id="edge3" class="edge"><title>Node0&#45;&gt;Node3</title>
<path fill="none" stroke="blueviolet" stroke-dasharray="5,2" d="M36.0281,-76.0829C61.7122,-73.1913 110.658,-67.6809 141.743,-64.1813"/>
<text text-anchor="middle" x="89" y="-76" font-family="Helvetica,sans-Serif" font-size="10.00">ai</text>
</g>
<!-- Node0&#45;&gt;Node3 -->
<g id="edge4" class="edge"><title>Node0&#45;&gt;Node3</title>
<path fill="none" stroke="darkgreen" stroke-dasharray="5,2" d="M28.0641,-68.2569C34.5884,-61.9961 43.9759,-54.4171 54,-51 82.6987,-41.2169 117.592,-46.3316 141.567,-52.2445"/>
<text text-anchor="middle" x="89" y="-54" font-family="Helvetica,sans-Serif" font-size="10.00">LUACondition.h</text>
</g>
<!-- Node0&#45;&gt;Node2 -->
<g id="edge2" class="edge"><title>Node0&#45;&gt;Node2</title>
<path fill="none" stroke="blueviolet" stroke-dasharray="5,2" d="M23.3461,-68.1243C28.8074,-56.9564 39.281,-39.1411 54,-30 81.4296,-12.965 119.188,-9.33919 144.076,-9.05956"/>
<text text-anchor="middle" x="89" y="-33" font-family="Helvetica,sans-Serif" font-size="10.00">ai</text>
</g>
</g>
</svg>
