<?xml version="1.0" encoding="UTF-8" standalone="no"?>
<!DOCTYPE svg PUBLIC "-//W3C//DTD SVG 1.1//EN"
 "http://www.w3.org/Graphics/SVG/1.1/DTD/svg11.dtd">
<!-- Generated by graphviz version 2.36.0 (20140111.2315)
 -->
<!-- Title: Condition Pages: 1 -->
<svg width="226pt" height="156pt"
 viewBox="0.00 0.00 226.00 156.41" xmlns="http://www.w3.org/2000/svg" xmlns:xlink="http://www.w3.org/1999/xlink">
<g id="graph0" class="graph" transform="scale(1 1) rotate(0) translate(4 152.406)">
<title>Condition</title>
<polygon fill="white" stroke="none" points="-4,4 -4,-152.406 222,-152.406 222,4 -4,4"/>
<!-- Node1 -->
<g id="node1" class="node"><title>Node1</title>
<g id="a_node1"><a xlink:href="group__Aggro.html" target="_top" xlink:title="Aggro">
<polygon fill="white" stroke="black" points="170,-128.906 170,-147.906 212,-147.906 212,-128.906 170,-128.906"/>
<text text-anchor="middle" x="191" y="-135.906" font-family="Helvetica,sans-Serif" font-size="10.00">Aggro</text>
</a>
</g>
</g>
<!-- Node4 -->
<g id="node2" class="node"><title>Node4</title>
<g id="a_node2"><a xlink:href="group__Filter.html" target="_top" xlink:title="Filter">
<polygon fill="white" stroke="black" points="172,-90.9065 172,-109.906 210,-109.906 210,-90.9065 172,-90.9065"/>
<text text-anchor="middle" x="191" y="-97.9065" font-family="Helvetica,sans-Serif" font-size="10.00">Filter</text>
</a>
</g>
</g>
<!-- Node0 -->
<g id="node3" class="node"><title>Node0</title>
<polygon fill="#bfbfbf" stroke="black" points="0,-54.9065 0,-73.9065 58,-73.9065 58,-54.9065 0,-54.9065"/>
<text text-anchor="middle" x="29" y="-61.9065" font-family="Helvetica,sans-Serif" font-size="10.00">Condition</text>
</g>
<!-- Node0&#45;&gt;Node1 -->
<g id="edge1" class="edge"><title>Node0&#45;&gt;Node1</title>
<path fill="none" stroke="blueviolet" stroke-dasharray="5,2" d="M37.7949,-74.0533C46.2198,-83.8538 60.5318,-98.7825 76,-107.406 106.275,-124.286 146.26,-132.389 169.94,-135.947"/>
<text text-anchor="middle" x="111" y="-133.406" font-family="Helvetica,sans-Serif" font-size="10.00">ai</text>
</g>
<!-- Node0&#45;&gt;Node4 -->
<g id="edge4" class="edge"><title>Node0&#45;&gt;Node4</title>
<path fill="none" stroke="darkgreen" stroke-dasharray="5,2" d="M58.0895,-73.4655C63.9753,-75.2198 70.1662,-76.9601 76,-78.4065 109.455,-86.7014 149.081,-93.7308 171.707,-97.4844"/>
<text text-anchor="middle" x="111" y="-95.4065" font-family="Helvetica,sans-Serif" font-size="10.00">Filter.h</text>
</g>
<!-- Node2 -->
<g id="node4" class="node"><title>Node2</title>
<g id="a_node4"><a xlink:href="group__Random.html" target="_top" xlink:title="Random">
<polygon fill="white" stroke="black" points="164.5,-52.9065 164.5,-71.9065 217.5,-71.9065 217.5,-52.9065 164.5,-52.9065"/>
<text text-anchor="middle" x="191" y="-59.9065" font-family="Helvetica,sans-Serif" font-size="10.00">Random</text>
</a>
</g>
</g>
<!-- Node0&#45;&gt;Node2 -->
<g id="edge2" class="edge"><title>Node0&#45;&gt;Node2</title>
<path fill="none" stroke="blueviolet" stroke-dasharray="5,2" d="M58.2365,-64.0535C88.2902,-63.6779 135.424,-63.0887 164.421,-62.7262"/>
<text text-anchor="middle" x="111" y="-66.4065" font-family="Helvetica,sans-Serif" font-size="10.00">ai</text>
</g>
<!-- Node3 -->
<g id="node5" class="node"><title>Node3</title>
<g id="a_node5"><a xlink:href="group__LUA.html" target="_top" xlink:title="LUA">
<polygon fill="white" stroke="black" points="173,-0.906495 173,-19.9065 209,-19.9065 209,-0.906495 173,-0.906495"/>
<text text-anchor="middle" x="191" y="-7.9065" font-family="Helvetica,sans-Serif" font-size="10.00">LUA</text>
</a>
</g>
</g>
<!-- Node0&#45;&gt;Node3 -->
<g id="edge3" class="edge"><title>Node0&#45;&gt;Node3</title>
<path fill="none" stroke="blueviolet" stroke-dasharray="5,2" d="M55.2419,-54.8706C61.968,-52.3865 69.2432,-49.7505 76,-47.4065 110.206,-35.5402 150.578,-22.7116 172.932,-15.7107"/>
<text text-anchor="middle" x="111" y="-50.4065" font-family="Helvetica,sans-Serif" font-size="10.00">ai</text>
</g>
<!-- Node0&#45;&gt;Node3 -->
<g id="edge5" class="edge"><title>Node0&#45;&gt;Node3</title>
<path fill="none" stroke="darkgreen" stroke-dasharray="5,2" d="M34.6182,-54.8127C41.5283,-41.7129 55.926,-18.7868 76,-9.4065 107.559,5.34065 149.607,-0.662187 172.805,-5.85411"/>
<text text-anchor="middle" x="111" y="-12.4065" font-family="Helvetica,sans-Serif" font-size="10.00">LUACondition.h</text>
</g>
</g>
</svg>
