<?xml version="1.0" encoding="UTF-8" standalone="no"?>
<!DOCTYPE svg PUBLIC "-//W3C//DTD SVG 1.1//EN"
 "http://www.w3.org/Graphics/SVG/1.1/DTD/svg11.dtd">
<!-- Generated by graphviz version 2.36.0 (20140111.2315)
 -->
<!-- Title: Random Pages: 1 -->
<svg width="164pt" height="104pt"
 viewBox="0.00 0.00 164.00 104.00" xmlns="http://www.w3.org/2000/svg" xmlns:xlink="http://www.w3.org/1999/xlink">
<g id="graph0" class="graph" transform="scale(1 1) rotate(0) translate(4 100)">
<title>Random</title>
<polygon fill="white" stroke="none" points="-4,4 -4,-100 160,-100 160,4 -4,4"/>
<!-- Node1 -->
<g id="node1" class="node"><title>Node1</title>
<g id="a_node1"><a xlink:href="group__Aggro.html" target="_top" xlink:title="Aggro">
<polygon fill="white" stroke="black" points="106,-76.5 106,-95.5 148,-95.5 148,-76.5 106,-76.5"/>
<text text-anchor="middle" x="127" y="-83.5" font-family="Helvetica,sans-Serif" font-size="10.00">Aggro</text>
</a>
</g>
</g>
<!-- Node2 -->
<g id="node2" class="node"><title>Node2</title>
<g id="a_node2"><a xlink:href="group__Condition.html" target="_top" xlink:title="Condition">
<polygon fill="white" stroke="black" points="98,-38.5 98,-57.5 156,-57.5 156,-38.5 98,-38.5"/>
<text text-anchor="middle" x="127" y="-45.5" font-family="Helvetica,sans-Serif" font-size="10.00">Condition</text>
</a>
</g>
</g>
<!-- Node0 -->
<g id="node3" class="node"><title>Node0</title>
<polygon fill="#bfbfbf" stroke="black" points="0.5,-38.5 0.5,-57.5 53.5,-57.5 53.5,-38.5 0.5,-38.5"/>
<text text-anchor="middle" x="27" y="-45.5" font-family="Helvetica,sans-Serif" font-size="10.00">Random</text>
</g>
<!-- Node0&#45;&gt;Node1 -->
<g id="edge1" class="edge"><title>Node0&#45;&gt;Node1</title>
<path fill="none" stroke="blueviolet" stroke-dasharray="5,2" d="M52.7295,-57.589C69.1733,-63.9651 90.4957,-72.233 105.895,-78.2041"/>
<text text-anchor="middle" x="76" y="-71" font-family="Helvetica,sans-Serif" font-size="10.00">ai</text>
</g>
<!-- Node0&#45;&gt;Node2 -->
<g id="edge2" class="edge"><title>Node0&#45;&gt;Node2</title>
<path fill="none" stroke="blueviolet" stroke-dasharray="5,2" d="M53.7483,-48C67.2454,-48 83.8065,-48 97.6667,-48"/>
<text text-anchor="middle" x="76" y="-51" font-family="Helvetica,sans-Serif" font-size="10.00">ai</text>
</g>
<!-- Node3 -->
<g id="node4" class="node"><title>Node3</title>
<g id="a_node4"><a xlink:href="group__LUA.html" target="_top" xlink:title="LUA">
<polygon fill="white" stroke="black" points="109,-0.5 109,-19.5 145,-19.5 145,-0.5 109,-0.5"/>
<text text-anchor="middle" x="127" y="-7.5" font-family="Helvetica,sans-Serif" font-size="10.00">LUA</text>
</a>
</g>
</g>
<!-- Node0&#45;&gt;Node3 -->
<g id="edge3" class="edge"><title>Node0&#45;&gt;Node3</title>
<path fill="none" stroke="blueviolet" stroke-dasharray="5,2" d="M52.7295,-38.411C70.3073,-31.5951 93.4599,-22.6176 108.993,-16.5947"/>
<text text-anchor="middle" x="76" y="-33" font-family="Helvetica,sans-Serif" font-size="10.00">ai</text>
</g>
</g>
</svg>
