<?xml version="1.0" encoding="UTF-8" standalone="no"?>
<!DOCTYPE svg PUBLIC "-//W3C//DTD SVG 1.1//EN"
 "http://www.w3.org/Graphics/SVG/1.1/DTD/svg11.dtd">
<!-- Generated by graphviz version 2.36.0 (20140111.2315)
 -->
<!-- Title: Aggro Pages: 1 -->
<svg width="152pt" height="104pt"
 viewBox="0.00 0.00 152.00 104.00" xmlns="http://www.w3.org/2000/svg" xmlns:xlink="http://www.w3.org/1999/xlink">
<g id="graph0" class="graph" transform="scale(1 1) rotate(0) translate(4 100)">
<title>Aggro</title>
<polygon fill="white" stroke="none" points="-4,4 -4,-100 148,-100 148,4 -4,4"/>
<!-- Node0 -->
<g id="node1" class="node"><title>Node0</title>
<polygon fill="#bfbfbf" stroke="black" points="0,-38.5 0,-57.5 42,-57.5 42,-38.5 0,-38.5"/>
<text text-anchor="middle" x="21" y="-45.5" font-family="Helvetica,sans-Serif" font-size="10.00">Aggro</text>
</g>
<!-- Node2 -->
<g id="node2" class="node"><title>Node2</title>
<g id="a_node2"><a xlink:href="group__Condition.html" target="_top" xlink:title="Condition">
<polygon fill="white" stroke="black" points="86,-76.5 86,-95.5 144,-95.5 144,-76.5 86,-76.5"/>
<text text-anchor="middle" x="115" y="-83.5" font-family="Helvetica,sans-Serif" font-size="10.00">Condition</text>
</a>
</g>
</g>
<!-- Node0&#45;&gt;Node2 -->
<g id="edge2" class="edge"><title>Node0&#45;&gt;Node2</title>
<path fill="none" stroke="blueviolet" stroke-dasharray="5,2" d="M42.4178,-56.4334C56.7109,-62.3371 75.8356,-70.2365 90.7214,-76.3849"/>
<text text-anchor="middle" x="64" y="-70" font-family="Helvetica,sans-Serif" font-size="10.00">ai</text>
</g>
<!-- Node1 -->
<g id="node3" class="node"><title>Node1</title>
<g id="a_node3"><a xlink:href="group__Random.html" target="_top" xlink:title="Random">
<polygon fill="white" stroke="black" points="88.5,-38.5 88.5,-57.5 141.5,-57.5 141.5,-38.5 88.5,-38.5"/>
<text text-anchor="middle" x="115" y="-45.5" font-family="Helvetica,sans-Serif" font-size="10.00">Random</text>
</a>
</g>
</g>
<!-- Node0&#45;&gt;Node1 -->
<g id="edge1" class="edge"><title>Node0&#45;&gt;Node1</title>
<path fill="none" stroke="blueviolet" stroke-dasharray="5,2" d="M42.4178,-48C55.9698,-48 73.8653,-48 88.3729,-48"/>
<text text-anchor="middle" x="64" y="-51" font-family="Helvetica,sans-Serif" font-size="10.00">ai</text>
</g>
<!-- Node3 -->
<g id="node4" class="node"><title>Node3</title>
<g id="a_node4"><a xlink:href="group__LUA.html" target="_top" xlink:title="LUA">
<polygon fill="white" stroke="black" points="97,-0.5 97,-19.5 133,-19.5 133,-0.5 97,-0.5"/>
<text text-anchor="middle" x="115" y="-7.5" font-family="Helvetica,sans-Serif" font-size="10.00">LUA</text>
</a>
</g>
</g>
<!-- Node0&#45;&gt;Node3 -->
<g id="edge3" class="edge"><title>Node0&#45;&gt;Node3</title>
<path fill="none" stroke="blueviolet" stroke-dasharray="5,2" d="M42.4178,-39.5666C58.7225,-32.832 81.3146,-23.5005 96.7293,-17.1336"/>
<text text-anchor="middle" x="64" y="-34" font-family="Helvetica,sans-Serif" font-size="10.00">ai</text>
</g>
</g>
</svg>
