<?xml version="1.0" encoding="UTF-8" standalone="no"?>
<!DOCTYPE svg PUBLIC "-//W3C//DTD SVG 1.1//EN"
 "http://www.w3.org/Graphics/SVG/1.1/DTD/svg11.dtd">
<!-- Generated by graphviz version 2.36.0 (20140111.2315)
 -->
<!-- Title: /home/travis/build/mgerhardy/simpleai/src/ai/conditions/HasEnemies.h Pages: 1 -->
<svg width="1414pt" height="386pt"
 viewBox="0.00 0.00 1413.60 386.00" xmlns="http://www.w3.org/2000/svg" xmlns:xlink="http://www.w3.org/1999/xlink">
<g id="graph0" class="graph" transform="scale(1 1) rotate(0) translate(4 382)">
<title>/home/travis/build/mgerhardy/simpleai/src/ai/conditions/HasEnemies.h</title>
<polygon fill="white" stroke="none" points="-4,4 -4,-382 1409.6,-382 1409.6,4 -4,4"/>
<!-- Node1 -->
<g id="node1" class="node"><title>Node1</title>
<polygon fill="#bfbfbf" stroke="black" points="821.936,-336.5 821.936,-377.5 979.936,-377.5 979.936,-336.5 821.936,-336.5"/>
<text text-anchor="start" x="829.936" y="-365.5" font-family="Helvetica,sans-Serif" font-size="10.00">/home/travis/build</text>
<text text-anchor="start" x="829.936" y="-354.5" font-family="Helvetica,sans-Serif" font-size="10.00">/mgerhardy/simpleai</text>
<text text-anchor="middle" x="900.936" y="-343.5" font-family="Helvetica,sans-Serif" font-size="10.00">/src/ai/conditions/HasEnemies.h</text>
</g>
<!-- Node2 -->
<g id="node2" class="node"><title>Node2</title>
<g id="a_node2"><a xlink:href="ICondition_8h.html" target="_top" xlink:title="Condition related stuff. ">
<polygon fill="white" stroke="black" points="404.936,-280.5 404.936,-299.5 520.936,-299.5 520.936,-280.5 404.936,-280.5"/>
<text text-anchor="middle" x="462.936" y="-287.5" font-family="Helvetica,sans-Serif" font-size="10.00">conditions/ICondition.h</text>
</a>
</g>
</g>
<!-- Node1&#45;&gt;Node2 -->
<g id="edge1" class="edge"><title>Node1&#45;&gt;Node2</title>
<path fill="none" stroke="midnightblue" d="M821.871,-344.267C738.744,-331.93 609.332,-312.726 530.718,-301.059"/>
<polygon fill="midnightblue" stroke="midnightblue" points="530.851,-297.54 520.445,-299.535 529.823,-304.465 530.851,-297.54"/>
</g>
<!-- Node25 -->
<g id="node25" class="node"><title>Node25</title>
<g id="a_node25"><a xlink:href="String_8h.html" target="_top" xlink:title="common/String.h">
<polygon fill="white" stroke="black" points="1032.44,-280.5 1032.44,-299.5 1123.44,-299.5 1123.44,-280.5 1032.44,-280.5"/>
<text text-anchor="middle" x="1077.94" y="-287.5" font-family="Helvetica,sans-Serif" font-size="10.00">common/String.h</text>
</a>
</g>
</g>
<!-- Node1&#45;&gt;Node25 -->
<g id="edge33" class="edge"><title>Node1&#45;&gt;Node25</title>
<path fill="none" stroke="midnightblue" d="M954.042,-336.498C983.528,-325.67 1019.29,-312.537 1044.8,-303.17"/>
<polygon fill="midnightblue" stroke="midnightblue" points="1046.19,-306.385 1054.37,-299.652 1043.78,-299.814 1046.19,-306.385"/>
</g>
<!-- Node35 -->
<g id="node35" class="node"><title>Node35</title>
<g id="a_node35"><a xlink:href="AggroMgr_8h.html" target="_top" xlink:title="aggro/AggroMgr.h">
<polygon fill="white" stroke="black" points="853.936,-280.5 853.936,-299.5 947.936,-299.5 947.936,-280.5 853.936,-280.5"/>
<text text-anchor="middle" x="900.936" y="-287.5" font-family="Helvetica,sans-Serif" font-size="10.00">aggro/AggroMgr.h</text>
</a>
</g>
</g>
<!-- Node1&#45;&gt;Node35 -->
<g id="edge47" class="edge"><title>Node1&#45;&gt;Node35</title>
<path fill="none" stroke="midnightblue" d="M900.936,-336.498C900.936,-328.065 900.936,-318.235 900.936,-309.874"/>
<polygon fill="midnightblue" stroke="midnightblue" points="904.436,-309.652 900.936,-299.652 897.436,-309.653 904.436,-309.652"/>
</g>
<!-- Node3 -->
<g id="node3" class="node"><title>Node3</title>
<polygon fill="white" stroke="#bfbfbf" points="359.436,-56.5 359.436,-75.5 400.436,-75.5 400.436,-56.5 359.436,-56.5"/>
<text text-anchor="middle" x="379.936" y="-63.5" font-family="Helvetica,sans-Serif" font-size="10.00">string</text>
</g>
<!-- Node2&#45;&gt;Node3 -->
<g id="edge2" class="edge"><title>Node2&#45;&gt;Node3</title>
<path fill="none" stroke="midnightblue" d="M404.562,-284.955C294.067,-275.919 61.2354,-249.823 14.9359,-188 -71.3506,-72.7825 246.648,-65.8136 349.116,-66.4819"/>
<polygon fill="midnightblue" stroke="midnightblue" points="349.124,-69.982 359.157,-66.577 349.191,-62.9823 349.124,-69.982"/>
</g>
<!-- Node4 -->
<g id="node4" class="node"><title>Node4</title>
<polygon fill="white" stroke="#bfbfbf" points="551.936,-112.5 551.936,-131.5 595.936,-131.5 595.936,-112.5 551.936,-112.5"/>
<text text-anchor="middle" x="573.936" y="-119.5" font-family="Helvetica,sans-Serif" font-size="10.00">vector</text>
</g>
<!-- Node2&#45;&gt;Node4 -->
<g id="edge3" class="edge"><title>Node2&#45;&gt;Node4</title>
<path fill="none" stroke="midnightblue" d="M466.985,-280.371C476.758,-259.933 502.976,-207.338 531.936,-168 539.522,-157.696 549.199,-147.186 557.353,-138.918"/>
<polygon fill="midnightblue" stroke="midnightblue" points="559.941,-141.28 564.584,-131.757 555.016,-136.306 559.941,-141.28"/>
</g>
<!-- Node5 -->
<g id="node5" class="node"><title>Node5</title>
<polygon fill="white" stroke="#bfbfbf" points="820.936,-224.5 820.936,-243.5 872.936,-243.5 872.936,-224.5 820.936,-224.5"/>
<text text-anchor="middle" x="846.936" y="-231.5" font-family="Helvetica,sans-Serif" font-size="10.00">sstream</text>
</g>
<!-- Node2&#45;&gt;Node5 -->
<g id="edge4" class="edge"><title>Node2&#45;&gt;Node5</title>
<path fill="none" stroke="midnightblue" d="M521.142,-283.565C588.416,-276.817 702.598,-263.93 810.575,-243.844"/>
<polygon fill="midnightblue" stroke="midnightblue" points="811.489,-247.234 820.668,-241.942 810.193,-240.355 811.489,-247.234"/>
</g>
<!-- Node6 -->
<g id="node6" class="node"><title>Node6</title>
<polygon fill="white" stroke="#bfbfbf" points="285.936,-112.5 285.936,-131.5 337.936,-131.5 337.936,-112.5 285.936,-112.5"/>
<text text-anchor="middle" x="311.936" y="-119.5" font-family="Helvetica,sans-Serif" font-size="10.00">memory</text>
</g>
<!-- Node2&#45;&gt;Node6 -->
<g id="edge5" class="edge"><title>Node2&#45;&gt;Node6</title>
<path fill="none" stroke="midnightblue" d="M429.925,-280.406C389.684,-267.854 324.063,-240.113 299.936,-188 293.021,-173.063 297.622,-154.459 303.005,-140.986"/>
<polygon fill="midnightblue" stroke="midnightblue" points="306.213,-142.387 307.096,-131.829 299.822,-139.531 306.213,-142.387"/>
</g>
<!-- Node7 -->
<g id="node7" class="node"><title>Node7</title>
<g id="a_node7"><a xlink:href="MemoryAllocator_8h.html" target="_top" xlink:title="common/MemoryAllocator.h">
<polygon fill="white" stroke="black" points="24.4359,-168.5 24.4359,-187.5 163.436,-187.5 163.436,-168.5 24.4359,-168.5"/>
<text text-anchor="middle" x="93.9359" y="-175.5" font-family="Helvetica,sans-Serif" font-size="10.00">common/MemoryAllocator.h</text>
</a>
</g>
</g>
<!-- Node2&#45;&gt;Node7 -->
<g id="edge6" class="edge"><title>Node2&#45;&gt;Node7</title>
<path fill="none" stroke="midnightblue" d="M418.121,-280.489C378.104,-272.47 318.083,-259.405 266.936,-244 215.627,-228.547 157.633,-205.591 123.515,-191.5"/>
<polygon fill="midnightblue" stroke="midnightblue" points="124.716,-188.209 114.138,-187.602 122.029,-194.672 124.716,-188.209"/>
</g>
<!-- Node8 -->
<g id="node8" class="node"><title>Node8</title>
<g id="a_node8"><a xlink:href="Thread_8h.html" target="_top" xlink:title="common/Thread.h">
<polygon fill="white" stroke="black" points="577.436,-224.5 577.436,-243.5 672.436,-243.5 672.436,-224.5 577.436,-224.5"/>
<text text-anchor="middle" x="624.936" y="-231.5" font-family="Helvetica,sans-Serif" font-size="10.00">common/Thread.h</text>
</a>
</g>
</g>
<!-- Node2&#45;&gt;Node8 -->
<g id="edge8" class="edge"><title>Node2&#45;&gt;Node8</title>
<path fill="none" stroke="midnightblue" d="M488.605,-280.444C515.859,-271.359 559.12,-256.939 589.586,-246.783"/>
<polygon fill="midnightblue" stroke="midnightblue" points="591.007,-249.999 599.387,-243.516 588.793,-243.358 591.007,-249.999"/>
</g>
<!-- Node19 -->
<g id="node19" class="node"><title>Node19</title>
<g id="a_node19"><a xlink:href="AIFactories_8h.html" target="_top" xlink:title="AIFactories.h">
<polygon fill="white" stroke="black" points="375.436,-224.5 375.436,-243.5 450.436,-243.5 450.436,-224.5 375.436,-224.5"/>
<text text-anchor="middle" x="412.936" y="-231.5" font-family="Helvetica,sans-Serif" font-size="10.00">AIFactories.h</text>
</a>
</g>
</g>
<!-- Node2&#45;&gt;Node19 -->
<g id="edge21" class="edge"><title>Node2&#45;&gt;Node19</title>
<path fill="none" stroke="midnightblue" d="M454.679,-280.083C447.471,-272.298 436.826,-260.801 428.09,-251.367"/>
<polygon fill="midnightblue" stroke="midnightblue" points="430.401,-248.711 421.039,-243.751 425.265,-253.467 430.401,-248.711"/>
</g>
<!-- Node7&#45;&gt;Node6 -->
<g id="edge7" class="edge"><title>Node7&#45;&gt;Node6</title>
<path fill="none" stroke="midnightblue" d="M128.479,-168.444C168.766,-158.464 235.048,-142.046 275.946,-131.915"/>
<polygon fill="midnightblue" stroke="midnightblue" points="276.9,-135.284 285.765,-129.483 275.217,-128.49 276.9,-135.284"/>
</g>
<!-- Node9 -->
<g id="node9" class="node"><title>Node9</title>
<g id="a_node9"><a xlink:href="Types_8h.html" target="_top" xlink:title="Types.h">
<polygon fill="white" stroke="black" points="613.936,-112.5 613.936,-131.5 665.936,-131.5 665.936,-112.5 613.936,-112.5"/>
<text text-anchor="middle" x="639.936" y="-119.5" font-family="Helvetica,sans-Serif" font-size="10.00">Types.h</text>
</a>
</g>
</g>
<!-- Node8&#45;&gt;Node9 -->
<g id="edge9" class="edge"><title>Node8&#45;&gt;Node9</title>
<path fill="none" stroke="midnightblue" d="M633.15,-224.182C640.48,-215.663 650.691,-202.019 654.936,-188 659.703,-172.257 654.563,-153.975 649.042,-140.817"/>
<polygon fill="midnightblue" stroke="midnightblue" points="652.104,-139.102 644.714,-131.509 645.757,-142.053 652.104,-139.102"/>
</g>
<!-- Node16 -->
<g id="node16" class="node"><title>Node16</title>
<polygon fill="white" stroke="#bfbfbf" points="602.936,-168.5 602.936,-187.5 646.936,-187.5 646.936,-168.5 602.936,-168.5"/>
<text text-anchor="middle" x="624.936" y="-175.5" font-family="Helvetica,sans-Serif" font-size="10.00">thread</text>
</g>
<!-- Node8&#45;&gt;Node16 -->
<g id="edge18" class="edge"><title>Node8&#45;&gt;Node16</title>
<path fill="none" stroke="midnightblue" d="M624.936,-224.083C624.936,-217.006 624.936,-206.861 624.936,-197.986"/>
<polygon fill="midnightblue" stroke="midnightblue" points="628.436,-197.751 624.936,-187.751 621.436,-197.751 628.436,-197.751"/>
</g>
<!-- Node17 -->
<g id="node17" class="node"><title>Node17</title>
<polygon fill="white" stroke="#bfbfbf" points="540.936,-168.5 540.936,-187.5 584.936,-187.5 584.936,-168.5 540.936,-168.5"/>
<text text-anchor="middle" x="562.936" y="-175.5" font-family="Helvetica,sans-Serif" font-size="10.00">mutex</text>
</g>
<!-- Node8&#45;&gt;Node17 -->
<g id="edge19" class="edge"><title>Node8&#45;&gt;Node17</title>
<path fill="none" stroke="midnightblue" d="M614.975,-224.324C605.809,-216.341 591.999,-204.313 580.908,-194.653"/>
<polygon fill="midnightblue" stroke="midnightblue" points="582.918,-191.762 573.079,-187.834 578.321,-197.041 582.918,-191.762"/>
</g>
<!-- Node18 -->
<g id="node18" class="node"><title>Node18</title>
<polygon fill="white" stroke="#bfbfbf" points="702.936,-168.5 702.936,-187.5 748.936,-187.5 748.936,-168.5 702.936,-168.5"/>
<text text-anchor="middle" x="725.936" y="-175.5" font-family="Helvetica,sans-Serif" font-size="10.00">atomic</text>
</g>
<!-- Node8&#45;&gt;Node18 -->
<g id="edge20" class="edge"><title>Node8&#45;&gt;Node18</title>
<path fill="none" stroke="midnightblue" d="M641.163,-224.324C657.287,-215.703 682.236,-202.364 700.9,-192.386"/>
<polygon fill="midnightblue" stroke="midnightblue" points="702.58,-195.456 709.749,-187.655 699.28,-189.283 702.58,-195.456"/>
</g>
<!-- Node9&#45;&gt;Node3 -->
<g id="edge14" class="edge"><title>Node9&#45;&gt;Node3</title>
<path fill="none" stroke="midnightblue" d="M613.624,-114.271C610.366,-113.483 607.078,-112.708 603.936,-112 535.121,-96.4947 453.817,-80.8159 410.585,-72.6871"/>
<polygon fill="midnightblue" stroke="midnightblue" points="411.169,-69.2357 400.696,-70.8347 409.88,-76.1161 411.169,-69.2357"/>
</g>
<!-- Node10 -->
<g id="node10" class="node"><title>Node10</title>
<g id="a_node10"><a xlink:href="Log_8h.html" target="_top" xlink:title="Log.h">
<polygon fill="white" stroke="black" points="497.436,-56.5 497.436,-75.5 538.436,-75.5 538.436,-56.5 497.436,-56.5"/>
<text text-anchor="middle" x="517.936" y="-63.5" font-family="Helvetica,sans-Serif" font-size="10.00">Log.h</text>
</a>
</g>
</g>
<!-- Node9&#45;&gt;Node10 -->
<g id="edge10" class="edge"><title>Node9&#45;&gt;Node10</title>
<path fill="none" stroke="midnightblue" d="M620.605,-112.444C600.616,-103.596 569.193,-89.6875 546.372,-79.5865"/>
<polygon fill="midnightblue" stroke="midnightblue" points="547.738,-76.3635 537.177,-75.5164 544.904,-82.7645 547.738,-76.3635"/>
</g>
<!-- Node11 -->
<g id="node11" class="node"><title>Node11</title>
<polygon fill="white" stroke="#bfbfbf" points="652.436,-0.5 652.436,-19.5 695.436,-19.5 695.436,-0.5 652.436,-0.5"/>
<text text-anchor="middle" x="673.936" y="-7.5" font-family="Helvetica,sans-Serif" font-size="10.00">cstdio</text>
</g>
<!-- Node9&#45;&gt;Node11 -->
<g id="edge17" class="edge"><title>Node9&#45;&gt;Node11</title>
<path fill="none" stroke="midnightblue" d="M666.097,-112.903C683.319,-106.055 704.537,-94.3672 714.936,-76 724.809,-58.5628 708.986,-39.2135 694.219,-26.1973"/>
<polygon fill="midnightblue" stroke="midnightblue" points="696.238,-23.3258 686.294,-19.67 691.788,-28.7291 696.238,-23.3258"/>
</g>
<!-- Node14 -->
<g id="node14" class="node"><title>Node14</title>
<polygon fill="white" stroke="#bfbfbf" points="556.436,-56.5 556.436,-75.5 639.436,-75.5 639.436,-56.5 556.436,-56.5"/>
<text text-anchor="middle" x="597.936" y="-63.5" font-family="Helvetica,sans-Serif" font-size="10.00">unordered_map</text>
</g>
<!-- Node9&#45;&gt;Node14 -->
<g id="edge15" class="edge"><title>Node9&#45;&gt;Node14</title>
<path fill="none" stroke="midnightblue" d="M633,-112.083C627.007,-104.377 618.184,-93.0333 610.888,-83.6531"/>
<polygon fill="midnightblue" stroke="midnightblue" points="613.644,-81.4958 604.742,-75.7511 608.119,-85.7934 613.644,-81.4958"/>
</g>
<!-- Node15 -->
<g id="node15" class="node"><title>Node15</title>
<polygon fill="white" stroke="#bfbfbf" points="657.436,-56.5 657.436,-75.5 706.436,-75.5 706.436,-56.5 657.436,-56.5"/>
<text text-anchor="middle" x="681.936" y="-63.5" font-family="Helvetica,sans-Serif" font-size="10.00">cassert</text>
</g>
<!-- Node9&#45;&gt;Node15 -->
<g id="edge16" class="edge"><title>Node9&#45;&gt;Node15</title>
<path fill="none" stroke="midnightblue" d="M646.871,-112.083C652.865,-104.377 661.688,-93.0333 668.984,-83.6531"/>
<polygon fill="midnightblue" stroke="midnightblue" points="671.753,-85.7934 675.13,-75.7511 666.227,-81.4958 671.753,-85.7934"/>
</g>
<!-- Node10&#45;&gt;Node11 -->
<g id="edge11" class="edge"><title>Node10&#45;&gt;Node11</title>
<path fill="none" stroke="midnightblue" d="M538.652,-57.8292C565.235,-48.6273 611.603,-32.5768 642.535,-21.8696"/>
<polygon fill="midnightblue" stroke="midnightblue" points="644.077,-25.0395 652.382,-18.4608 641.788,-18.4246 644.077,-25.0395"/>
</g>
<!-- Node12 -->
<g id="node12" class="node"><title>Node12</title>
<polygon fill="white" stroke="#bfbfbf" points="460.436,-0.5 460.436,-19.5 509.436,-19.5 509.436,-0.5 460.436,-0.5"/>
<text text-anchor="middle" x="484.936" y="-7.5" font-family="Helvetica,sans-Serif" font-size="10.00">cstdarg</text>
</g>
<!-- Node10&#45;&gt;Node12 -->
<g id="edge12" class="edge"><title>Node10&#45;&gt;Node12</title>
<path fill="none" stroke="midnightblue" d="M512.487,-56.083C507.921,-48.6127 501.268,-37.7244 495.642,-28.5199"/>
<polygon fill="midnightblue" stroke="midnightblue" points="498.485,-26.4588 490.284,-19.7511 492.512,-30.109 498.485,-26.4588"/>
</g>
<!-- Node13 -->
<g id="node13" class="node"><title>Node13</title>
<polygon fill="white" stroke="#bfbfbf" points="527.936,-0.5 527.936,-19.5 573.936,-19.5 573.936,-0.5 527.936,-0.5"/>
<text text-anchor="middle" x="550.936" y="-7.5" font-family="Helvetica,sans-Serif" font-size="10.00">cstring</text>
</g>
<!-- Node10&#45;&gt;Node13 -->
<g id="edge13" class="edge"><title>Node10&#45;&gt;Node13</title>
<path fill="none" stroke="midnightblue" d="M523.385,-56.083C527.95,-48.6127 534.604,-37.7244 540.229,-28.5199"/>
<polygon fill="midnightblue" stroke="midnightblue" points="543.36,-30.109 545.588,-19.7511 537.387,-26.4588 543.36,-30.109"/>
</g>
<!-- Node19&#45;&gt;Node4 -->
<g id="edge32" class="edge"><title>Node19&#45;&gt;Node4</title>
<path fill="none" stroke="midnightblue" d="M423.526,-224.412C439.494,-211.599 470.86,-186.954 498.936,-168 515.454,-156.849 534.749,-145.303 549.631,-136.699"/>
<polygon fill="midnightblue" stroke="midnightblue" points="551.763,-139.511 558.701,-131.503 548.284,-133.437 551.763,-139.511"/>
</g>
<!-- Node20 -->
<g id="node20" class="node"><title>Node20</title>
<g id="a_node20"><a xlink:href="IAIFactory_8h.html" target="_top" xlink:title="IAIFactory.h">
<polygon fill="white" stroke="black" points="181.436,-168.5 181.436,-187.5 252.436,-187.5 252.436,-168.5 181.436,-168.5"/>
<text text-anchor="middle" x="216.936" y="-175.5" font-family="Helvetica,sans-Serif" font-size="10.00">IAIFactory.h</text>
</a>
</g>
</g>
<!-- Node19&#45;&gt;Node20 -->
<g id="edge22" class="edge"><title>Node19&#45;&gt;Node20</title>
<path fill="none" stroke="midnightblue" d="M381.879,-224.444C348.333,-215.201 294.739,-200.436 257.795,-190.257"/>
<polygon fill="midnightblue" stroke="midnightblue" points="258.418,-186.798 247.847,-187.516 256.559,-193.547 258.418,-186.798"/>
</g>
<!-- Node22 -->
<g id="node22" class="node"><title>Node22</title>
<g id="a_node22"><a xlink:href="IFactoryRegistry_8h.html" target="_top" xlink:title="common/IFactoryRegistry.h">
<polygon fill="white" stroke="black" points="308.936,-168.5 308.936,-187.5 446.936,-187.5 446.936,-168.5 308.936,-168.5"/>
<text text-anchor="middle" x="377.936" y="-175.5" font-family="Helvetica,sans-Serif" font-size="10.00">common/IFactoryRegistry.h</text>
</a>
</g>
</g>
<!-- Node19&#45;&gt;Node22 -->
<g id="edge27" class="edge"><title>Node19&#45;&gt;Node22</title>
<path fill="none" stroke="midnightblue" d="M407.156,-224.083C402.264,-216.534 395.108,-205.495 389.103,-196.23"/>
<polygon fill="midnightblue" stroke="midnightblue" points="391.984,-194.239 383.608,-187.751 386.11,-198.046 391.984,-194.239"/>
</g>
<!-- Node20&#45;&gt;Node3 -->
<g id="edge24" class="edge"><title>Node20&#45;&gt;Node3</title>
<path fill="none" stroke="midnightblue" d="M223.042,-168.356C232.991,-154.797 253.915,-128.387 276.936,-112 299.306,-96.0757 328.204,-84.0615 349.694,-76.4701"/>
<polygon fill="midnightblue" stroke="midnightblue" points="350.956,-79.7378 359.292,-73.1982 348.697,-73.1122 350.956,-79.7378"/>
</g>
<!-- Node20&#45;&gt;Node4 -->
<g id="edge25" class="edge"><title>Node20&#45;&gt;Node4</title>
<path fill="none" stroke="midnightblue" d="M252.684,-172.732C321.796,-164.378 472.36,-145.645 541.673,-131.948"/>
<polygon fill="midnightblue" stroke="midnightblue" points="542.598,-135.331 551.683,-129.88 541.182,-128.475 542.598,-135.331"/>
</g>
<!-- Node20&#45;&gt;Node6 -->
<g id="edge23" class="edge"><title>Node20&#45;&gt;Node6</title>
<path fill="none" stroke="midnightblue" d="M232.199,-168.324C247.157,-159.822 270.191,-146.729 287.663,-136.797"/>
<polygon fill="midnightblue" stroke="midnightblue" points="289.746,-139.639 296.71,-131.655 286.287,-133.553 289.746,-139.639"/>
</g>
<!-- Node21 -->
<g id="node21" class="node"><title>Node21</title>
<polygon fill="white" stroke="#bfbfbf" points="200.436,-112.5 200.436,-131.5 229.436,-131.5 229.436,-112.5 200.436,-112.5"/>
<text text-anchor="middle" x="214.936" y="-119.5" font-family="Helvetica,sans-Serif" font-size="10.00">list</text>
</g>
<!-- Node20&#45;&gt;Node21 -->
<g id="edge26" class="edge"><title>Node20&#45;&gt;Node21</title>
<path fill="none" stroke="midnightblue" d="M216.606,-168.083C216.344,-161.006 215.968,-150.861 215.639,-141.986"/>
<polygon fill="midnightblue" stroke="midnightblue" points="219.128,-141.615 215.26,-131.751 212.133,-141.874 219.128,-141.615"/>
</g>
<!-- Node22&#45;&gt;Node6 -->
<g id="edge30" class="edge"><title>Node22&#45;&gt;Node6</title>
<path fill="none" stroke="midnightblue" d="M367.332,-168.324C357.48,-160.263 342.585,-148.077 330.721,-138.369"/>
<polygon fill="midnightblue" stroke="midnightblue" points="332.689,-135.457 322.733,-131.834 328.256,-140.875 332.689,-135.457"/>
</g>
<!-- Node22&#45;&gt;Node9 -->
<g id="edge28" class="edge"><title>Node22&#45;&gt;Node9</title>
<path fill="none" stroke="midnightblue" d="M424.388,-168.432C468.028,-160.23 535.382,-147.18 603.562,-131.99"/>
<polygon fill="midnightblue" stroke="midnightblue" points="604.633,-135.337 613.625,-129.734 603.101,-128.507 604.633,-135.337"/>
</g>
<!-- Node23 -->
<g id="node23" class="node"><title>Node23</title>
<g id="a_node23"><a xlink:href="NonCopyable_8h.html" target="_top" xlink:title="common/NonCopyable.h">
<polygon fill="white" stroke="black" points="409.436,-112.5 409.436,-131.5 534.436,-131.5 534.436,-112.5 409.436,-112.5"/>
<text text-anchor="middle" x="471.936" y="-119.5" font-family="Helvetica,sans-Serif" font-size="10.00">common/NonCopyable.h</text>
</a>
</g>
</g>
<!-- Node22&#45;&gt;Node23 -->
<g id="edge29" class="edge"><title>Node22&#45;&gt;Node23</title>
<path fill="none" stroke="midnightblue" d="M393.039,-168.324C407.839,-159.822 430.63,-146.729 447.918,-136.797"/>
<polygon fill="midnightblue" stroke="midnightblue" points="449.943,-139.671 456.871,-131.655 446.456,-133.601 449.943,-139.671"/>
</g>
<!-- Node24 -->
<g id="node24" class="node"><title>Node24</title>
<polygon fill="white" stroke="#bfbfbf" points="356.436,-112.5 356.436,-131.5 391.436,-131.5 391.436,-112.5 356.436,-112.5"/>
<text text-anchor="middle" x="373.936" y="-119.5" font-family="Helvetica,sans-Serif" font-size="10.00">map</text>
</g>
<!-- Node22&#45;&gt;Node24 -->
<g id="edge31" class="edge"><title>Node22&#45;&gt;Node24</title>
<path fill="none" stroke="midnightblue" d="M377.275,-168.083C376.751,-161.006 376,-150.861 375.342,-141.986"/>
<polygon fill="midnightblue" stroke="midnightblue" points="378.813,-141.465 374.584,-131.751 371.833,-141.982 378.813,-141.465"/>
</g>
<!-- Node25&#45;&gt;Node3 -->
<g id="edge44" class="edge"><title>Node25&#45;&gt;Node3</title>
<path fill="none" stroke="midnightblue" d="M1123.76,-280.944C1229.24,-260.627 1473.78,-202.39 1386.94,-112 1352.31,-75.9555 537.826,-79.0762 487.936,-76 461.91,-74.3953 432.412,-71.8904 410.828,-69.9303"/>
<polygon fill="midnightblue" stroke="midnightblue" points="410.9,-66.4222 400.621,-68.9905 410.258,-73.3927 410.9,-66.4222"/>
</g>
<!-- Node25&#45;&gt;Node4 -->
<g id="edge43" class="edge"><title>Node25&#45;&gt;Node4</title>
<path fill="none" stroke="midnightblue" d="M1082.51,-280.395C1089,-266.89 1098.73,-240.553 1085.94,-224 1021.2,-140.249 728.067,-153.697 606.062,-131.819"/>
<polygon fill="midnightblue" stroke="midnightblue" points="606.673,-128.373 596.187,-129.888 605.329,-135.242 606.673,-128.373"/>
</g>
<!-- Node25&#45;&gt;Node5 -->
<g id="edge45" class="edge"><title>Node25&#45;&gt;Node5</title>
<path fill="none" stroke="midnightblue" d="M1041.33,-280.444C997.874,-270.284 925.867,-253.451 882.755,-243.373"/>
<polygon fill="midnightblue" stroke="midnightblue" points="883.507,-239.955 872.972,-241.086 881.913,-246.771 883.507,-239.955"/>
</g>
<!-- Node26 -->
<g id="node26" class="node"><title>Node26</title>
<g id="a_node26"><a xlink:href="Math_8h.html" target="_top" xlink:title="Math.h">
<polygon fill="white" stroke="black" points="1050.44,-168.5 1050.44,-187.5 1097.44,-187.5 1097.44,-168.5 1050.44,-168.5"/>
<text text-anchor="middle" x="1073.94" y="-175.5" font-family="Helvetica,sans-Serif" font-size="10.00">Math.h</text>
</a>
</g>
</g>
<!-- Node25&#45;&gt;Node26 -->
<g id="edge34" class="edge"><title>Node25&#45;&gt;Node26</title>
<path fill="none" stroke="midnightblue" d="M1090.36,-280.31C1105.81,-268.345 1129.1,-245.796 1119.94,-224 1114.91,-212.053 1104.99,-201.692 1095.65,-193.934"/>
<polygon fill="midnightblue" stroke="midnightblue" points="1097.78,-191.155 1087.72,-187.811 1093.5,-196.694 1097.78,-191.155"/>
</g>
<!-- Node34 -->
<g id="node34" class="node"><title>Node34</title>
<polygon fill="white" stroke="#bfbfbf" points="1021.94,-224.5 1021.94,-243.5 1077.94,-243.5 1077.94,-224.5 1021.94,-224.5"/>
<text text-anchor="middle" x="1049.94" y="-231.5" font-family="Helvetica,sans-Serif" font-size="10.00">algorithm</text>
</g>
<!-- Node25&#45;&gt;Node34 -->
<g id="edge46" class="edge"><title>Node25&#45;&gt;Node34</title>
<path fill="none" stroke="midnightblue" d="M1073.31,-280.083C1069.48,-272.691 1063.91,-261.953 1059.17,-252.811"/>
<polygon fill="midnightblue" stroke="midnightblue" points="1062.18,-251.018 1054.47,-243.751 1055.97,-254.24 1062.18,-251.018"/>
</g>
<!-- Node26&#45;&gt;Node9 -->
<g id="edge35" class="edge"><title>Node26&#45;&gt;Node9</title>
<path fill="none" stroke="midnightblue" d="M1050.19,-171.807C1043.35,-170.433 1035.87,-169.043 1028.94,-168 875.759,-144.948 832.391,-159.159 676.179,-131.972"/>
<polygon fill="midnightblue" stroke="midnightblue" points="676.673,-128.506 666.216,-130.21 675.453,-135.399 676.673,-128.506"/>
</g>
<!-- Node27 -->
<g id="node27" class="node"><title>Node27</title>
<polygon fill="white" stroke="#bfbfbf" points="1176.94,-112.5 1176.94,-131.5 1246.94,-131.5 1246.94,-112.5 1176.94,-112.5"/>
<text text-anchor="middle" x="1211.94" y="-119.5" font-family="Helvetica,sans-Serif" font-size="10.00">glm/glm.hpp</text>
</g>
<!-- Node26&#45;&gt;Node27 -->
<g id="edge36" class="edge"><title>Node26&#45;&gt;Node27</title>
<path fill="none" stroke="midnightblue" d="M1095.8,-168.444C1118.72,-159.478 1154.91,-145.314 1180.8,-135.183"/>
<polygon fill="midnightblue" stroke="midnightblue" points="1182.13,-138.42 1190.17,-131.516 1179.58,-131.901 1182.13,-138.42"/>
</g>
<!-- Node28 -->
<g id="node28" class="node"><title>Node28</title>
<polygon fill="white" stroke="#bfbfbf" points="1265.44,-112.5 1265.44,-131.5 1378.44,-131.5 1378.44,-112.5 1265.44,-112.5"/>
<text text-anchor="middle" x="1321.94" y="-119.5" font-family="Helvetica,sans-Serif" font-size="10.00">glm/gtc/constants.hpp</text>
</g>
<!-- Node26&#45;&gt;Node28 -->
<g id="edge37" class="edge"><title>Node26&#45;&gt;Node28</title>
<path fill="none" stroke="midnightblue" d="M1097.72,-171.822C1137.92,-163.068 1220.11,-145.172 1273.03,-133.649"/>
<polygon fill="midnightblue" stroke="midnightblue" points="1273.85,-137.052 1282.88,-131.505 1272.36,-130.213 1273.85,-137.052"/>
</g>
<!-- Node29 -->
<g id="node29" class="node"><title>Node29</title>
<polygon fill="white" stroke="#bfbfbf" points="684.436,-112.5 684.436,-131.5 785.436,-131.5 785.436,-112.5 684.436,-112.5"/>
<text text-anchor="middle" x="734.936" y="-119.5" font-family="Helvetica,sans-Serif" font-size="10.00">glm/gtc/epsilon.hpp</text>
</g>
<!-- Node26&#45;&gt;Node29 -->
<g id="edge38" class="edge"><title>Node26&#45;&gt;Node29</title>
<path fill="none" stroke="midnightblue" d="M1050.15,-172.033C1043.32,-170.662 1035.84,-169.218 1028.94,-168 1023.21,-166.99 879.911,-145.111 795.526,-132.239"/>
<polygon fill="midnightblue" stroke="midnightblue" points="795.954,-128.764 785.54,-130.716 794.898,-135.684 795.954,-128.764"/>
</g>
<!-- Node30 -->
<g id="node30" class="node"><title>Node30</title>
<polygon fill="white" stroke="#bfbfbf" points="803.436,-112.5 803.436,-131.5 928.436,-131.5 928.436,-112.5 803.436,-112.5"/>
<text text-anchor="middle" x="865.936" y="-119.5" font-family="Helvetica,sans-Serif" font-size="10.00">glm/gtx/compatibility.hpp</text>
</g>
<!-- Node26&#45;&gt;Node30 -->
<g id="edge39" class="edge"><title>Node26&#45;&gt;Node30</title>
<path fill="none" stroke="midnightblue" d="M1050.08,-170.806C1015.6,-161.855 951.306,-145.163 908.558,-134.065"/>
<polygon fill="midnightblue" stroke="midnightblue" points="909.277,-130.636 898.718,-131.511 907.518,-137.411 909.277,-130.636"/>
</g>
<!-- Node31 -->
<g id="node31" class="node"><title>Node31</title>
<polygon fill="white" stroke="#bfbfbf" points="946.936,-112.5 946.936,-131.5 1038.94,-131.5 1038.94,-112.5 946.936,-112.5"/>
<text text-anchor="middle" x="992.936" y="-119.5" font-family="Helvetica,sans-Serif" font-size="10.00">glm/gtx/norm.hpp</text>
</g>
<!-- Node26&#45;&gt;Node31 -->
<g id="edge40" class="edge"><title>Node26&#45;&gt;Node31</title>
<path fill="none" stroke="midnightblue" d="M1060.92,-168.324C1048.4,-159.979 1029.25,-147.212 1014.46,-137.352"/>
<polygon fill="midnightblue" stroke="midnightblue" points="1016.18,-134.289 1005.92,-131.655 1012.3,-140.114 1016.18,-134.289"/>
</g>
<!-- Node32 -->
<g id="node32" class="node"><title>Node32</title>
<polygon fill="white" stroke="#bfbfbf" points="1056.94,-112.5 1056.94,-131.5 1096.94,-131.5 1096.94,-112.5 1056.94,-112.5"/>
<text text-anchor="middle" x="1076.94" y="-119.5" font-family="Helvetica,sans-Serif" font-size="10.00">limits</text>
</g>
<!-- Node26&#45;&gt;Node32 -->
<g id="edge41" class="edge"><title>Node26&#45;&gt;Node32</title>
<path fill="none" stroke="midnightblue" d="M1074.43,-168.083C1074.82,-161.006 1075.39,-150.861 1075.88,-141.986"/>
<polygon fill="midnightblue" stroke="midnightblue" points="1079.39,-141.93 1076.45,-131.751 1072.4,-141.542 1079.39,-141.93"/>
</g>
<!-- Node33 -->
<g id="node33" class="node"><title>Node33</title>
<polygon fill="white" stroke="#bfbfbf" points="1114.94,-112.5 1114.94,-131.5 1158.94,-131.5 1158.94,-112.5 1114.94,-112.5"/>
<text text-anchor="middle" x="1136.94" y="-119.5" font-family="Helvetica,sans-Serif" font-size="10.00">cmath</text>
</g>
<!-- Node26&#45;&gt;Node33 -->
<g id="edge42" class="edge"><title>Node26&#45;&gt;Node33</title>
<path fill="none" stroke="midnightblue" d="M1084.06,-168.324C1093.46,-160.263 1107.68,-148.077 1119,-138.369"/>
<polygon fill="midnightblue" stroke="midnightblue" points="1121.31,-140.999 1126.63,-131.834 1116.76,-135.684 1121.31,-140.999"/>
</g>
<!-- Node35&#45;&gt;Node4 -->
<g id="edge48" class="edge"><title>Node35&#45;&gt;Node4</title>
<path fill="none" stroke="midnightblue" d="M900.071,-280.248C897.252,-257.04 886.05,-193.931 845.936,-168 757.65,-110.928 713.365,-152.548 606.084,-131.895"/>
<polygon fill="midnightblue" stroke="midnightblue" points="606.697,-128.447 596.195,-129.85 605.279,-135.302 606.697,-128.447"/>
</g>
<!-- Node35&#45;&gt;Node6 -->
<g id="edge49" class="edge"><title>Node35&#45;&gt;Node6</title>
<path fill="none" stroke="midnightblue" d="M853.588,-283.652C806.172,-277.207 737.994,-264.595 721.936,-244 698.954,-214.525 783.185,-195.557 757.936,-168 728.54,-135.917 425.345,-139.274 348.519,-131.586"/>
<polygon fill="midnightblue" stroke="midnightblue" points="348.576,-128.064 338.209,-130.25 347.676,-135.006 348.576,-128.064"/>
</g>
<!-- Node35&#45;&gt;Node34 -->
<g id="edge56" class="edge"><title>Node35&#45;&gt;Node34</title>
<path fill="none" stroke="midnightblue" d="M924.545,-280.444C949.394,-271.438 988.71,-257.189 1016.69,-247.049"/>
<polygon fill="midnightblue" stroke="midnightblue" points="1018.23,-250.214 1026.44,-243.516 1015.84,-243.633 1018.23,-250.214"/>
</g>
<!-- Node36 -->
<g id="node36" class="node"><title>Node36</title>
<g id="a_node36"><a xlink:href="ICharacter_8h.html" target="_top" xlink:title="ICharacter.h">
<polygon fill="white" stroke="black" points="731.436,-224.5 731.436,-243.5 802.436,-243.5 802.436,-224.5 731.436,-224.5"/>
<text text-anchor="middle" x="766.936" y="-231.5" font-family="Helvetica,sans-Serif" font-size="10.00">ICharacter.h</text>
</a>
</g>
</g>
<!-- Node35&#45;&gt;Node36 -->
<g id="edge50" class="edge"><title>Node35&#45;&gt;Node36</title>
<path fill="none" stroke="midnightblue" d="M879.703,-280.444C857.552,-271.517 822.617,-257.439 797.5,-247.317"/>
<polygon fill="midnightblue" stroke="midnightblue" points="798.653,-244.008 788.069,-243.516 796.036,-250.501 798.653,-244.008"/>
</g>
<!-- Node37 -->
<g id="node37" class="node"><title>Node37</title>
<g id="a_node37"><a xlink:href="Entry_8h.html" target="_top" xlink:title="aggro/Entry.h">
<polygon fill="white" stroke="black" points="929.436,-224.5 929.436,-243.5 1004.44,-243.5 1004.44,-224.5 929.436,-224.5"/>
<text text-anchor="middle" x="966.936" y="-231.5" font-family="Helvetica,sans-Serif" font-size="10.00">aggro/Entry.h</text>
</a>
</g>
</g>
<!-- Node35&#45;&gt;Node37 -->
<g id="edge57" class="edge"><title>Node35&#45;&gt;Node37</title>
<path fill="none" stroke="midnightblue" d="M911.54,-280.324C921.392,-272.263 936.287,-260.077 948.151,-250.369"/>
<polygon fill="midnightblue" stroke="midnightblue" points="950.616,-252.875 956.139,-243.834 946.183,-247.457 950.616,-252.875"/>
</g>
<!-- Node36&#45;&gt;Node6 -->
<g id="edge55" class="edge"><title>Node36&#45;&gt;Node6</title>
<path fill="none" stroke="midnightblue" d="M775.124,-224.329C786.978,-210.732 805.941,-184.271 790.936,-168 758.954,-133.32 428.931,-139.488 348.237,-131.548"/>
<polygon fill="midnightblue" stroke="midnightblue" points="348.569,-128.062 338.206,-130.268 347.682,-135.006 348.569,-128.062"/>
</g>
<!-- Node36&#45;&gt;Node9 -->
<g id="edge53" class="edge"><title>Node36&#45;&gt;Node9</title>
<path fill="none" stroke="midnightblue" d="M802.468,-224.635C839.44,-214.28 889.086,-194.689 866.936,-168 840.891,-136.618 731.73,-140.733 676.279,-131.86"/>
<polygon fill="midnightblue" stroke="midnightblue" points="676.74,-128.385 666.264,-129.97 675.441,-135.264 676.74,-128.385"/>
</g>
<!-- Node36&#45;&gt;Node18 -->
<g id="edge54" class="edge"><title>Node36&#45;&gt;Node18</title>
<path fill="none" stroke="midnightblue" d="M760.166,-224.083C754.374,-216.455 745.877,-205.264 738.798,-195.941"/>
<polygon fill="midnightblue" stroke="midnightblue" points="741.415,-193.599 732.58,-187.751 735.84,-197.832 741.415,-193.599"/>
</g>
<!-- Node36&#45;&gt;Node23 -->
<g id="edge51" class="edge"><title>Node36&#45;&gt;Node23</title>
<path fill="none" stroke="midnightblue" d="M785.81,-224.372C810.151,-212.111 847.298,-188.818 828.936,-168 788.467,-122.118 622.389,-138.362 544.969,-132.009"/>
<polygon fill="midnightblue" stroke="midnightblue" points="544.96,-128.49 534.655,-130.953 544.247,-135.453 544.96,-128.49"/>
</g>
<!-- Node36&#45;&gt;Node26 -->
<g id="edge52" class="edge"><title>Node36&#45;&gt;Node26</title>
<path fill="none" stroke="midnightblue" d="M802.78,-225.739C805.875,-225.14 808.959,-224.553 811.936,-224 893.906,-208.766 990.656,-192.624 1040.51,-184.441"/>
<polygon fill="midnightblue" stroke="midnightblue" points="1041.11,-187.89 1050.41,-182.819 1039.98,-180.982 1041.11,-187.89"/>
</g>
<!-- Node37&#45;&gt;Node9 -->
<g id="edge58" class="edge"><title>Node37&#45;&gt;Node9</title>
<path fill="none" stroke="midnightblue" d="M958.693,-224.174C944.769,-209.861 915.055,-181.803 883.936,-168 800.635,-131.052 769.198,-150.361 676.073,-132.037"/>
<polygon fill="midnightblue" stroke="midnightblue" points="676.756,-128.604 666.255,-130.012 675.342,-135.46 676.756,-128.604"/>
</g>
</g>
</svg>
