<?xml version="1.0" encoding="UTF-8" standalone="no"?>
<!DOCTYPE svg PUBLIC "-//W3C//DTD SVG 1.1//EN"
 "http://www.w3.org/Graphics/SVG/1.1/DTD/svg11.dtd">
<!-- Generated by graphviz version 2.36.0 (20140111.2315)
 -->
<!-- Title: /home/travis/build/mgerhardy/simpleai/src/ai/conditions/HasEnemies.h Pages: 1 -->
<svg width="1417pt" height="386pt"
 viewBox="0.00 0.00 1416.73 386.00" xmlns="http://www.w3.org/2000/svg" xmlns:xlink="http://www.w3.org/1999/xlink">
<g id="graph0" class="graph" transform="scale(1 1) rotate(0) translate(4 382)">
<title>/home/travis/build/mgerhardy/simpleai/src/ai/conditions/HasEnemies.h</title>
<polygon fill="white" stroke="none" points="-4,4 -4,-382 1412.73,-382 1412.73,4 -4,4"/>
<!-- Node1 -->
<g id="node1" class="node"><title>Node1</title>
<polygon fill="#bfbfbf" stroke="black" points="820.908,-336.5 820.908,-377.5 978.908,-377.5 978.908,-336.5 820.908,-336.5"/>
<text text-anchor="start" x="828.908" y="-365.5" font-family="Helvetica,sans-Serif" font-size="10.00">/home/travis/build</text>
<text text-anchor="start" x="828.908" y="-354.5" font-family="Helvetica,sans-Serif" font-size="10.00">/mgerhardy/simpleai</text>
<text text-anchor="middle" x="899.908" y="-343.5" font-family="Helvetica,sans-Serif" font-size="10.00">/src/ai/conditions/HasEnemies.h</text>
</g>
<!-- Node2 -->
<g id="node2" class="node"><title>Node2</title>
<g id="a_node2"><a xlink:href="ICondition_8h.html" target="_top" xlink:title="Condition related stuff. ">
<polygon fill="white" stroke="black" points="403.908,-280.5 403.908,-299.5 519.908,-299.5 519.908,-280.5 403.908,-280.5"/>
<text text-anchor="middle" x="461.908" y="-287.5" font-family="Helvetica,sans-Serif" font-size="10.00">conditions/ICondition.h</text>
</a>
</g>
</g>
<!-- Node1&#45;&gt;Node2 -->
<g id="edge1" class="edge"><title>Node1&#45;&gt;Node2</title>
<path fill="none" stroke="midnightblue" d="M820.843,-344.267C737.716,-331.93 608.304,-312.726 529.69,-301.059"/>
<polygon fill="midnightblue" stroke="midnightblue" points="529.822,-297.54 519.417,-299.535 528.795,-304.465 529.822,-297.54"/>
</g>
<!-- Node26 -->
<g id="node26" class="node"><title>Node26</title>
<g id="a_node26"><a xlink:href="String_8h.html" target="_top" xlink:title="common/String.h">
<polygon fill="white" stroke="black" points="1031.41,-280.5 1031.41,-299.5 1122.41,-299.5 1122.41,-280.5 1031.41,-280.5"/>
<text text-anchor="middle" x="1076.91" y="-287.5" font-family="Helvetica,sans-Serif" font-size="10.00">common/String.h</text>
</a>
</g>
</g>
<!-- Node1&#45;&gt;Node26 -->
<g id="edge33" class="edge"><title>Node1&#45;&gt;Node26</title>
<path fill="none" stroke="midnightblue" d="M953.013,-336.498C982.499,-325.67 1018.26,-312.537 1043.77,-303.17"/>
<polygon fill="midnightblue" stroke="midnightblue" points="1045.17,-306.385 1053.35,-299.652 1042.75,-299.814 1045.17,-306.385"/>
</g>
<!-- Node36 -->
<g id="node36" class="node"><title>Node36</title>
<g id="a_node36"><a xlink:href="AggroMgr_8h.html" target="_top" xlink:title="aggro/AggroMgr.h">
<polygon fill="white" stroke="black" points="852.908,-280.5 852.908,-299.5 946.908,-299.5 946.908,-280.5 852.908,-280.5"/>
<text text-anchor="middle" x="899.908" y="-287.5" font-family="Helvetica,sans-Serif" font-size="10.00">aggro/AggroMgr.h</text>
</a>
</g>
</g>
<!-- Node1&#45;&gt;Node36 -->
<g id="edge47" class="edge"><title>Node1&#45;&gt;Node36</title>
<path fill="none" stroke="midnightblue" d="M899.908,-336.498C899.908,-328.065 899.908,-318.235 899.908,-309.874"/>
<polygon fill="midnightblue" stroke="midnightblue" points="903.408,-309.652 899.908,-299.652 896.408,-309.653 903.408,-309.652"/>
</g>
<!-- Node3 -->
<g id="node3" class="node"><title>Node3</title>
<polygon fill="white" stroke="#bfbfbf" points="329.408,-56.5 329.408,-75.5 370.408,-75.5 370.408,-56.5 329.408,-56.5"/>
<text text-anchor="middle" x="349.908" y="-63.5" font-family="Helvetica,sans-Serif" font-size="10.00">string</text>
</g>
<!-- Node2&#45;&gt;Node3 -->
<g id="edge2" class="edge"><title>Node2&#45;&gt;Node3</title>
<path fill="none" stroke="midnightblue" d="M403.534,-284.955C293.039,-275.919 60.2071,-249.823 13.9076,-188 -65.6185,-81.8097 222.547,-68.6017 319.292,-67.1268"/>
<polygon fill="midnightblue" stroke="midnightblue" points="319.378,-70.6261 329.335,-67.0061 319.294,-63.6266 319.378,-70.6261"/>
</g>
<!-- Node4 -->
<g id="node4" class="node"><title>Node4</title>
<polygon fill="white" stroke="#bfbfbf" points="550.908,-112.5 550.908,-131.5 594.908,-131.5 594.908,-112.5 550.908,-112.5"/>
<text text-anchor="middle" x="572.908" y="-119.5" font-family="Helvetica,sans-Serif" font-size="10.00">vector</text>
</g>
<!-- Node2&#45;&gt;Node4 -->
<g id="edge3" class="edge"><title>Node2&#45;&gt;Node4</title>
<path fill="none" stroke="midnightblue" d="M465.957,-280.371C475.729,-259.933 501.948,-207.338 530.908,-168 538.493,-157.696 548.171,-147.186 556.324,-138.918"/>
<polygon fill="midnightblue" stroke="midnightblue" points="558.913,-141.28 563.556,-131.757 553.988,-136.306 558.913,-141.28"/>
</g>
<!-- Node5 -->
<g id="node5" class="node"><title>Node5</title>
<polygon fill="white" stroke="#bfbfbf" points="819.908,-224.5 819.908,-243.5 871.908,-243.5 871.908,-224.5 819.908,-224.5"/>
<text text-anchor="middle" x="845.908" y="-231.5" font-family="Helvetica,sans-Serif" font-size="10.00">sstream</text>
</g>
<!-- Node2&#45;&gt;Node5 -->
<g id="edge4" class="edge"><title>Node2&#45;&gt;Node5</title>
<path fill="none" stroke="midnightblue" d="M520.114,-283.565C587.387,-276.817 701.569,-263.93 809.547,-243.844"/>
<polygon fill="midnightblue" stroke="midnightblue" points="810.461,-247.234 819.639,-241.942 809.164,-240.355 810.461,-247.234"/>
</g>
<!-- Node6 -->
<g id="node6" class="node"><title>Node6</title>
<polygon fill="white" stroke="#bfbfbf" points="284.908,-112.5 284.908,-131.5 336.908,-131.5 336.908,-112.5 284.908,-112.5"/>
<text text-anchor="middle" x="310.908" y="-119.5" font-family="Helvetica,sans-Serif" font-size="10.00">memory</text>
</g>
<!-- Node2&#45;&gt;Node6 -->
<g id="edge5" class="edge"><title>Node2&#45;&gt;Node6</title>
<path fill="none" stroke="midnightblue" d="M428.897,-280.406C388.656,-267.854 323.034,-240.113 298.908,-188 291.992,-173.063 296.593,-154.459 301.977,-140.986"/>
<polygon fill="midnightblue" stroke="midnightblue" points="305.184,-142.387 306.068,-131.829 298.793,-139.531 305.184,-142.387"/>
</g>
<!-- Node7 -->
<g id="node7" class="node"><title>Node7</title>
<g id="a_node7"><a xlink:href="MemoryAllocator_8h.html" target="_top" xlink:title="common/MemoryAllocator.h">
<polygon fill="white" stroke="black" points="23.4076,-168.5 23.4076,-187.5 162.408,-187.5 162.408,-168.5 23.4076,-168.5"/>
<text text-anchor="middle" x="92.9076" y="-175.5" font-family="Helvetica,sans-Serif" font-size="10.00">common/MemoryAllocator.h</text>
</a>
</g>
</g>
<!-- Node2&#45;&gt;Node7 -->
<g id="edge6" class="edge"><title>Node2&#45;&gt;Node7</title>
<path fill="none" stroke="midnightblue" d="M417.093,-280.489C377.075,-272.47 317.055,-259.405 265.908,-244 214.598,-228.547 156.604,-205.591 122.486,-191.5"/>
<polygon fill="midnightblue" stroke="midnightblue" points="123.688,-188.209 113.11,-187.602 121,-194.672 123.688,-188.209"/>
</g>
<!-- Node8 -->
<g id="node8" class="node"><title>Node8</title>
<g id="a_node8"><a xlink:href="Thread_8h.html" target="_top" xlink:title="common/Thread.h">
<polygon fill="white" stroke="black" points="576.408,-224.5 576.408,-243.5 671.408,-243.5 671.408,-224.5 576.408,-224.5"/>
<text text-anchor="middle" x="623.908" y="-231.5" font-family="Helvetica,sans-Serif" font-size="10.00">common/Thread.h</text>
</a>
</g>
</g>
<!-- Node2&#45;&gt;Node8 -->
<g id="edge8" class="edge"><title>Node2&#45;&gt;Node8</title>
<path fill="none" stroke="midnightblue" d="M487.577,-280.444C514.83,-271.359 558.091,-256.939 588.558,-246.783"/>
<polygon fill="midnightblue" stroke="midnightblue" points="589.978,-249.999 598.358,-243.516 587.765,-243.358 589.978,-249.999"/>
</g>
<!-- Node20 -->
<g id="node20" class="node"><title>Node20</title>
<g id="a_node20"><a xlink:href="AIFactories_8h.html" target="_top" xlink:title="AIFactories.h">
<polygon fill="white" stroke="black" points="374.408,-224.5 374.408,-243.5 449.408,-243.5 449.408,-224.5 374.408,-224.5"/>
<text text-anchor="middle" x="411.908" y="-231.5" font-family="Helvetica,sans-Serif" font-size="10.00">AIFactories.h</text>
</a>
</g>
</g>
<!-- Node2&#45;&gt;Node20 -->
<g id="edge21" class="edge"><title>Node2&#45;&gt;Node20</title>
<path fill="none" stroke="midnightblue" d="M453.651,-280.083C446.443,-272.298 435.798,-260.801 427.062,-251.367"/>
<polygon fill="midnightblue" stroke="midnightblue" points="429.373,-248.711 420.01,-243.751 424.236,-253.467 429.373,-248.711"/>
</g>
<!-- Node7&#45;&gt;Node6 -->
<g id="edge7" class="edge"><title>Node7&#45;&gt;Node6</title>
<path fill="none" stroke="midnightblue" d="M127.45,-168.444C167.738,-158.464 234.019,-142.046 274.917,-131.915"/>
<polygon fill="midnightblue" stroke="midnightblue" points="275.872,-135.284 284.737,-129.483 274.189,-128.49 275.872,-135.284"/>
</g>
<!-- Node9 -->
<g id="node9" class="node"><title>Node9</title>
<g id="a_node9"><a xlink:href="Types_8h.html" target="_top" xlink:title="Types.h">
<polygon fill="white" stroke="black" points="612.908,-112.5 612.908,-131.5 664.908,-131.5 664.908,-112.5 612.908,-112.5"/>
<text text-anchor="middle" x="638.908" y="-119.5" font-family="Helvetica,sans-Serif" font-size="10.00">Types.h</text>
</a>
</g>
</g>
<!-- Node8&#45;&gt;Node9 -->
<g id="edge9" class="edge"><title>Node8&#45;&gt;Node9</title>
<path fill="none" stroke="midnightblue" d="M632.121,-224.182C639.451,-215.663 649.663,-202.019 653.908,-188 658.674,-172.257 653.535,-153.975 648.013,-140.817"/>
<polygon fill="midnightblue" stroke="midnightblue" points="651.076,-139.102 643.686,-131.509 644.728,-142.053 651.076,-139.102"/>
</g>
<!-- Node17 -->
<g id="node17" class="node"><title>Node17</title>
<polygon fill="white" stroke="#bfbfbf" points="601.908,-168.5 601.908,-187.5 645.908,-187.5 645.908,-168.5 601.908,-168.5"/>
<text text-anchor="middle" x="623.908" y="-175.5" font-family="Helvetica,sans-Serif" font-size="10.00">thread</text>
</g>
<!-- Node8&#45;&gt;Node17 -->
<g id="edge18" class="edge"><title>Node8&#45;&gt;Node17</title>
<path fill="none" stroke="midnightblue" d="M623.908,-224.083C623.908,-217.006 623.908,-206.861 623.908,-197.986"/>
<polygon fill="midnightblue" stroke="midnightblue" points="627.408,-197.751 623.908,-187.751 620.408,-197.751 627.408,-197.751"/>
</g>
<!-- Node18 -->
<g id="node18" class="node"><title>Node18</title>
<polygon fill="white" stroke="#bfbfbf" points="539.908,-168.5 539.908,-187.5 583.908,-187.5 583.908,-168.5 539.908,-168.5"/>
<text text-anchor="middle" x="561.908" y="-175.5" font-family="Helvetica,sans-Serif" font-size="10.00">mutex</text>
</g>
<!-- Node8&#45;&gt;Node18 -->
<g id="edge19" class="edge"><title>Node8&#45;&gt;Node18</title>
<path fill="none" stroke="midnightblue" d="M613.946,-224.324C604.781,-216.341 590.97,-204.313 579.879,-194.653"/>
<polygon fill="midnightblue" stroke="midnightblue" points="581.89,-191.762 572.05,-187.834 577.292,-197.041 581.89,-191.762"/>
</g>
<!-- Node19 -->
<g id="node19" class="node"><title>Node19</title>
<polygon fill="white" stroke="#bfbfbf" points="701.908,-168.5 701.908,-187.5 747.908,-187.5 747.908,-168.5 701.908,-168.5"/>
<text text-anchor="middle" x="724.908" y="-175.5" font-family="Helvetica,sans-Serif" font-size="10.00">atomic</text>
</g>
<!-- Node8&#45;&gt;Node19 -->
<g id="edge20" class="edge"><title>Node8&#45;&gt;Node19</title>
<path fill="none" stroke="midnightblue" d="M640.135,-224.324C656.259,-215.703 681.208,-202.364 699.872,-192.386"/>
<polygon fill="midnightblue" stroke="midnightblue" points="701.552,-195.456 708.72,-187.655 698.251,-189.283 701.552,-195.456"/>
</g>
<!-- Node9&#45;&gt;Node3 -->
<g id="edge14" class="edge"><title>Node9&#45;&gt;Node3</title>
<path fill="none" stroke="midnightblue" d="M612.61,-114.203C609.35,-113.427 606.058,-112.673 602.908,-112 523.206,-94.9704 428.419,-79.3301 380.664,-71.7683"/>
<polygon fill="midnightblue" stroke="midnightblue" points="381.085,-68.2916 370.662,-70.1942 379.997,-75.2065 381.085,-68.2916"/>
</g>
<!-- Node10 -->
<g id="node10" class="node"><title>Node10</title>
<g id="a_node10"><a xlink:href="Log_8h.html" target="_top" xlink:title="Log.h">
<polygon fill="white" stroke="black" points="710.408,-56.5 710.408,-75.5 751.408,-75.5 751.408,-56.5 710.408,-56.5"/>
<text text-anchor="middle" x="730.908" y="-63.5" font-family="Helvetica,sans-Serif" font-size="10.00">Log.h</text>
</a>
</g>
</g>
<!-- Node9&#45;&gt;Node10 -->
<g id="edge10" class="edge"><title>Node9&#45;&gt;Node10</title>
<path fill="none" stroke="midnightblue" d="M653.689,-112.324C668.175,-103.822 690.481,-90.7288 707.401,-80.7975"/>
<polygon fill="midnightblue" stroke="midnightblue" points="709.31,-83.735 716.163,-75.6545 705.767,-77.6981 709.31,-83.735"/>
</g>
<!-- Node14 -->
<g id="node14" class="node"><title>Node14</title>
<polygon fill="white" stroke="#bfbfbf" points="481.408,-56.5 481.408,-75.5 564.408,-75.5 564.408,-56.5 481.408,-56.5"/>
<text text-anchor="middle" x="522.908" y="-63.5" font-family="Helvetica,sans-Serif" font-size="10.00">unordered_map</text>
</g>
<!-- Node9&#45;&gt;Node14 -->
<g id="edge15" class="edge"><title>Node9&#45;&gt;Node14</title>
<path fill="none" stroke="midnightblue" d="M620.527,-112.444C601.691,-103.675 572.176,-89.9355 550.528,-79.8579"/>
<polygon fill="midnightblue" stroke="midnightblue" points="551.745,-76.5637 541.202,-75.5164 548.791,-82.9098 551.745,-76.5637"/>
</g>
<!-- Node15 -->
<g id="node15" class="node"><title>Node15</title>
<polygon fill="white" stroke="#bfbfbf" points="582.408,-56.5 582.408,-75.5 631.408,-75.5 631.408,-56.5 582.408,-56.5"/>
<text text-anchor="middle" x="606.908" y="-63.5" font-family="Helvetica,sans-Serif" font-size="10.00">cassert</text>
</g>
<!-- Node9&#45;&gt;Node15 -->
<g id="edge16" class="edge"><title>Node9&#45;&gt;Node15</title>
<path fill="none" stroke="midnightblue" d="M633.623,-112.083C629.197,-104.613 622.744,-93.7244 617.29,-84.5199"/>
<polygon fill="midnightblue" stroke="midnightblue" points="620.202,-82.5697 612.093,-75.7511 614.18,-86.1383 620.202,-82.5697"/>
</g>
<!-- Node16 -->
<g id="node16" class="node"><title>Node16</title>
<polygon fill="white" stroke="#bfbfbf" points="649.408,-56.5 649.408,-75.5 692.408,-75.5 692.408,-56.5 649.408,-56.5"/>
<text text-anchor="middle" x="670.908" y="-63.5" font-family="Helvetica,sans-Serif" font-size="10.00">cstdio</text>
</g>
<!-- Node9&#45;&gt;Node16 -->
<g id="edge17" class="edge"><title>Node9&#45;&gt;Node16</title>
<path fill="none" stroke="midnightblue" d="M644.192,-112.083C648.619,-104.613 655.071,-93.7244 660.525,-84.5199"/>
<polygon fill="midnightblue" stroke="midnightblue" points="663.635,-86.1383 665.722,-75.7511 657.613,-82.5697 663.635,-86.1383"/>
</g>
<!-- Node11 -->
<g id="node11" class="node"><title>Node11</title>
<polygon fill="white" stroke="#bfbfbf" points="640.908,-0.5 640.908,-19.5 686.908,-19.5 686.908,-0.5 640.908,-0.5"/>
<text text-anchor="middle" x="663.908" y="-7.5" font-family="Helvetica,sans-Serif" font-size="10.00">stdio.h</text>
</g>
<!-- Node10&#45;&gt;Node11 -->
<g id="edge11" class="edge"><title>Node10&#45;&gt;Node11</title>
<path fill="none" stroke="midnightblue" d="M720.143,-56.324C710.141,-48.2631 695.021,-36.0765 682.977,-26.3695"/>
<polygon fill="midnightblue" stroke="midnightblue" points="684.85,-23.3841 674.868,-19.8339 680.458,-28.8343 684.85,-23.3841"/>
</g>
<!-- Node12 -->
<g id="node12" class="node"><title>Node12</title>
<polygon fill="white" stroke="#bfbfbf" points="704.908,-0.5 704.908,-19.5 756.908,-19.5 756.908,-0.5 704.908,-0.5"/>
<text text-anchor="middle" x="730.908" y="-7.5" font-family="Helvetica,sans-Serif" font-size="10.00">stdarg.h</text>
</g>
<!-- Node10&#45;&gt;Node12 -->
<g id="edge12" class="edge"><title>Node10&#45;&gt;Node12</title>
<path fill="none" stroke="midnightblue" d="M730.908,-56.083C730.908,-49.0059 730.908,-38.8611 730.908,-29.9865"/>
<polygon fill="midnightblue" stroke="midnightblue" points="734.408,-29.751 730.908,-19.7511 727.408,-29.7511 734.408,-29.751"/>
</g>
<!-- Node13 -->
<g id="node13" class="node"><title>Node13</title>
<polygon fill="white" stroke="#bfbfbf" points="775.408,-0.5 775.408,-19.5 824.408,-19.5 824.408,-0.5 775.408,-0.5"/>
<text text-anchor="middle" x="799.908" y="-7.5" font-family="Helvetica,sans-Serif" font-size="10.00">string.h</text>
</g>
<!-- Node10&#45;&gt;Node13 -->
<g id="edge13" class="edge"><title>Node10&#45;&gt;Node13</title>
<path fill="none" stroke="midnightblue" d="M741.994,-56.324C752.394,-48.1849 768.168,-35.8395 780.629,-26.0874"/>
<polygon fill="midnightblue" stroke="midnightblue" points="782.902,-28.7533 788.62,-19.8339 778.588,-23.2407 782.902,-28.7533"/>
</g>
<!-- Node20&#45;&gt;Node4 -->
<g id="edge32" class="edge"><title>Node20&#45;&gt;Node4</title>
<path fill="none" stroke="midnightblue" d="M422.497,-224.412C438.466,-211.599 469.832,-186.954 497.908,-168 514.426,-156.849 533.721,-145.303 548.603,-136.699"/>
<polygon fill="midnightblue" stroke="midnightblue" points="550.735,-139.511 557.672,-131.503 547.255,-133.437 550.735,-139.511"/>
</g>
<!-- Node21 -->
<g id="node21" class="node"><title>Node21</title>
<g id="a_node21"><a xlink:href="IAIFactory_8h.html" target="_top" xlink:title="IAIFactory.h">
<polygon fill="white" stroke="black" points="180.408,-168.5 180.408,-187.5 251.408,-187.5 251.408,-168.5 180.408,-168.5"/>
<text text-anchor="middle" x="215.908" y="-175.5" font-family="Helvetica,sans-Serif" font-size="10.00">IAIFactory.h</text>
</a>
</g>
</g>
<!-- Node20&#45;&gt;Node21 -->
<g id="edge22" class="edge"><title>Node20&#45;&gt;Node21</title>
<path fill="none" stroke="midnightblue" d="M380.851,-224.444C347.304,-215.201 293.711,-200.436 256.767,-190.257"/>
<polygon fill="midnightblue" stroke="midnightblue" points="257.39,-186.798 246.819,-187.516 255.53,-193.547 257.39,-186.798"/>
</g>
<!-- Node23 -->
<g id="node23" class="node"><title>Node23</title>
<g id="a_node23"><a xlink:href="IFactoryRegistry_8h.html" target="_top" xlink:title="common/IFactoryRegistry.h">
<polygon fill="white" stroke="black" points="307.908,-168.5 307.908,-187.5 445.908,-187.5 445.908,-168.5 307.908,-168.5"/>
<text text-anchor="middle" x="376.908" y="-175.5" font-family="Helvetica,sans-Serif" font-size="10.00">common/IFactoryRegistry.h</text>
</a>
</g>
</g>
<!-- Node20&#45;&gt;Node23 -->
<g id="edge27" class="edge"><title>Node20&#45;&gt;Node23</title>
<path fill="none" stroke="midnightblue" d="M406.128,-224.083C401.235,-216.534 394.08,-205.495 388.075,-196.23"/>
<polygon fill="midnightblue" stroke="midnightblue" points="390.956,-194.239 382.58,-187.751 385.082,-198.046 390.956,-194.239"/>
</g>
<!-- Node21&#45;&gt;Node3 -->
<g id="edge24" class="edge"><title>Node21&#45;&gt;Node3</title>
<path fill="none" stroke="midnightblue" d="M222.627,-168.284C233.077,-155.087 254.277,-129.702 275.908,-112 290.703,-99.8915 309.056,-88.7102 323.783,-80.522"/>
<polygon fill="midnightblue" stroke="midnightblue" points="325.744,-83.44 332.863,-75.5937 322.405,-77.2877 325.744,-83.44"/>
</g>
<!-- Node21&#45;&gt;Node4 -->
<g id="edge25" class="edge"><title>Node21&#45;&gt;Node4</title>
<path fill="none" stroke="midnightblue" d="M251.655,-172.732C320.767,-164.378 471.332,-145.645 540.645,-131.948"/>
<polygon fill="midnightblue" stroke="midnightblue" points="541.57,-135.331 550.655,-129.88 540.154,-128.475 541.57,-135.331"/>
</g>
<!-- Node21&#45;&gt;Node6 -->
<g id="edge23" class="edge"><title>Node21&#45;&gt;Node6</title>
<path fill="none" stroke="midnightblue" d="M231.171,-168.324C246.129,-159.822 269.162,-146.729 286.634,-136.797"/>
<polygon fill="midnightblue" stroke="midnightblue" points="288.718,-139.639 295.682,-131.655 285.259,-133.553 288.718,-139.639"/>
</g>
<!-- Node22 -->
<g id="node22" class="node"><title>Node22</title>
<polygon fill="white" stroke="#bfbfbf" points="199.408,-112.5 199.408,-131.5 228.408,-131.5 228.408,-112.5 199.408,-112.5"/>
<text text-anchor="middle" x="213.908" y="-119.5" font-family="Helvetica,sans-Serif" font-size="10.00">list</text>
</g>
<!-- Node21&#45;&gt;Node22 -->
<g id="edge26" class="edge"><title>Node21&#45;&gt;Node22</title>
<path fill="none" stroke="midnightblue" d="M215.577,-168.083C215.315,-161.006 214.939,-150.861 214.611,-141.986"/>
<polygon fill="midnightblue" stroke="midnightblue" points="218.099,-141.615 214.232,-131.751 211.104,-141.874 218.099,-141.615"/>
</g>
<!-- Node23&#45;&gt;Node6 -->
<g id="edge30" class="edge"><title>Node23&#45;&gt;Node6</title>
<path fill="none" stroke="midnightblue" d="M366.304,-168.324C356.451,-160.263 341.557,-148.077 329.692,-138.369"/>
<polygon fill="midnightblue" stroke="midnightblue" points="331.66,-135.457 321.705,-131.834 327.228,-140.875 331.66,-135.457"/>
</g>
<!-- Node23&#45;&gt;Node9 -->
<g id="edge28" class="edge"><title>Node23&#45;&gt;Node9</title>
<path fill="none" stroke="midnightblue" d="M423.359,-168.432C466.999,-160.23 534.354,-147.18 602.534,-131.99"/>
<polygon fill="midnightblue" stroke="midnightblue" points="603.605,-135.337 612.596,-129.734 602.073,-128.507 603.605,-135.337"/>
</g>
<!-- Node24 -->
<g id="node24" class="node"><title>Node24</title>
<g id="a_node24"><a xlink:href="NonCopyable_8h.html" target="_top" xlink:title="common/NonCopyable.h">
<polygon fill="white" stroke="black" points="408.408,-112.5 408.408,-131.5 533.408,-131.5 533.408,-112.5 408.408,-112.5"/>
<text text-anchor="middle" x="470.908" y="-119.5" font-family="Helvetica,sans-Serif" font-size="10.00">common/NonCopyable.h</text>
</a>
</g>
</g>
<!-- Node23&#45;&gt;Node24 -->
<g id="edge29" class="edge"><title>Node23&#45;&gt;Node24</title>
<path fill="none" stroke="midnightblue" d="M392.01,-168.324C406.811,-159.822 429.602,-146.729 446.89,-136.797"/>
<polygon fill="midnightblue" stroke="midnightblue" points="448.915,-139.671 455.842,-131.655 445.428,-133.601 448.915,-139.671"/>
</g>
<!-- Node25 -->
<g id="node25" class="node"><title>Node25</title>
<polygon fill="white" stroke="#bfbfbf" points="355.408,-112.5 355.408,-131.5 390.408,-131.5 390.408,-112.5 355.408,-112.5"/>
<text text-anchor="middle" x="372.908" y="-119.5" font-family="Helvetica,sans-Serif" font-size="10.00">map</text>
</g>
<!-- Node23&#45;&gt;Node25 -->
<g id="edge31" class="edge"><title>Node23&#45;&gt;Node25</title>
<path fill="none" stroke="midnightblue" d="M376.247,-168.083C375.723,-161.006 374.971,-150.861 374.314,-141.986"/>
<polygon fill="midnightblue" stroke="midnightblue" points="377.785,-141.465 373.556,-131.751 370.804,-141.982 377.785,-141.465"/>
</g>
<!-- Node26&#45;&gt;Node3 -->
<g id="edge44" class="edge"><title>Node26&#45;&gt;Node3</title>
<path fill="none" stroke="midnightblue" d="M1122.5,-281.201C1228.85,-261.264 1477.85,-203.461 1389.91,-112 1354.53,-75.2095 522.866,-78.8779 471.908,-76 440.876,-74.2475 405.455,-71.5575 380.804,-69.5746"/>
<polygon fill="midnightblue" stroke="midnightblue" points="380.867,-66.0683 370.616,-68.7461 380.3,-73.0453 380.867,-66.0683"/>
</g>
<!-- Node26&#45;&gt;Node4 -->
<g id="edge43" class="edge"><title>Node26&#45;&gt;Node4</title>
<path fill="none" stroke="midnightblue" d="M1081.49,-280.395C1087.97,-266.89 1097.7,-240.553 1084.91,-224 1020.18,-140.249 727.038,-153.697 605.034,-131.819"/>
<polygon fill="midnightblue" stroke="midnightblue" points="605.645,-128.373 595.159,-129.888 604.301,-135.242 605.645,-128.373"/>
</g>
<!-- Node26&#45;&gt;Node5 -->
<g id="edge45" class="edge"><title>Node26&#45;&gt;Node5</title>
<path fill="none" stroke="midnightblue" d="M1040.3,-280.444C996.845,-270.284 924.839,-253.451 881.726,-243.373"/>
<polygon fill="midnightblue" stroke="midnightblue" points="882.478,-239.955 871.944,-241.086 880.885,-246.771 882.478,-239.955"/>
</g>
<!-- Node27 -->
<g id="node27" class="node"><title>Node27</title>
<g id="a_node27"><a xlink:href="Math_8h.html" target="_top" xlink:title="Math.h">
<polygon fill="white" stroke="black" points="1049.41,-168.5 1049.41,-187.5 1096.41,-187.5 1096.41,-168.5 1049.41,-168.5"/>
<text text-anchor="middle" x="1072.91" y="-175.5" font-family="Helvetica,sans-Serif" font-size="10.00">Math.h</text>
</a>
</g>
</g>
<!-- Node26&#45;&gt;Node27 -->
<g id="edge34" class="edge"><title>Node26&#45;&gt;Node27</title>
<path fill="none" stroke="midnightblue" d="M1089.34,-280.31C1104.79,-268.345 1128.08,-245.796 1118.91,-224 1113.88,-212.053 1103.96,-201.692 1094.62,-193.934"/>
<polygon fill="midnightblue" stroke="midnightblue" points="1096.75,-191.155 1086.69,-187.811 1092.47,-196.694 1096.75,-191.155"/>
</g>
<!-- Node35 -->
<g id="node35" class="node"><title>Node35</title>
<polygon fill="white" stroke="#bfbfbf" points="1020.91,-224.5 1020.91,-243.5 1076.91,-243.5 1076.91,-224.5 1020.91,-224.5"/>
<text text-anchor="middle" x="1048.91" y="-231.5" font-family="Helvetica,sans-Serif" font-size="10.00">algorithm</text>
</g>
<!-- Node26&#45;&gt;Node35 -->
<g id="edge46" class="edge"><title>Node26&#45;&gt;Node35</title>
<path fill="none" stroke="midnightblue" d="M1072.28,-280.083C1068.45,-272.691 1062.88,-261.953 1058.14,-252.811"/>
<polygon fill="midnightblue" stroke="midnightblue" points="1061.16,-251.018 1053.45,-243.751 1054.94,-254.24 1061.16,-251.018"/>
</g>
<!-- Node27&#45;&gt;Node9 -->
<g id="edge35" class="edge"><title>Node27&#45;&gt;Node9</title>
<path fill="none" stroke="midnightblue" d="M1049.16,-171.807C1042.32,-170.433 1034.84,-169.043 1027.91,-168 874.731,-144.948 831.363,-159.159 675.15,-131.972"/>
<polygon fill="midnightblue" stroke="midnightblue" points="675.645,-128.506 665.188,-130.21 674.425,-135.399 675.645,-128.506"/>
</g>
<!-- Node28 -->
<g id="node28" class="node"><title>Node28</title>
<polygon fill="white" stroke="#bfbfbf" points="1179.91,-112.5 1179.91,-131.5 1249.91,-131.5 1249.91,-112.5 1179.91,-112.5"/>
<text text-anchor="middle" x="1214.91" y="-119.5" font-family="Helvetica,sans-Serif" font-size="10.00">glm/glm.hpp</text>
</g>
<!-- Node27&#45;&gt;Node28 -->
<g id="edge36" class="edge"><title>Node27&#45;&gt;Node28</title>
<path fill="none" stroke="midnightblue" d="M1095.41,-168.444C1118.98,-159.478 1156.23,-145.314 1182.87,-135.183"/>
<polygon fill="midnightblue" stroke="midnightblue" points="1184.41,-138.342 1192.51,-131.516 1181.92,-131.8 1184.41,-138.342"/>
</g>
<!-- Node29 -->
<g id="node29" class="node"><title>Node29</title>
<polygon fill="white" stroke="#bfbfbf" points="1268.41,-112.5 1268.41,-131.5 1381.41,-131.5 1381.41,-112.5 1268.41,-112.5"/>
<text text-anchor="middle" x="1324.91" y="-119.5" font-family="Helvetica,sans-Serif" font-size="10.00">glm/gtc/constants.hpp</text>
</g>
<!-- Node27&#45;&gt;Node29 -->
<g id="edge37" class="edge"><title>Node27&#45;&gt;Node29</title>
<path fill="none" stroke="midnightblue" d="M1096.62,-171.92C1137.25,-163.213 1221.02,-145.262 1275,-133.695"/>
<polygon fill="midnightblue" stroke="midnightblue" points="1276,-137.059 1285.05,-131.542 1274.53,-130.215 1276,-137.059"/>
</g>
<!-- Node30 -->
<g id="node30" class="node"><title>Node30</title>
<polygon fill="white" stroke="#bfbfbf" points="683.408,-112.5 683.408,-131.5 784.408,-131.5 784.408,-112.5 683.408,-112.5"/>
<text text-anchor="middle" x="733.908" y="-119.5" font-family="Helvetica,sans-Serif" font-size="10.00">glm/gtc/epsilon.hpp</text>
</g>
<!-- Node27&#45;&gt;Node30 -->
<g id="edge38" class="edge"><title>Node27&#45;&gt;Node30</title>
<path fill="none" stroke="midnightblue" d="M1049.12,-172.033C1042.29,-170.662 1034.81,-169.218 1027.91,-168 1022.18,-166.99 878.882,-145.111 794.498,-132.239"/>
<polygon fill="midnightblue" stroke="midnightblue" points="794.926,-128.764 784.512,-130.716 793.87,-135.684 794.926,-128.764"/>
</g>
<!-- Node31 -->
<g id="node31" class="node"><title>Node31</title>
<polygon fill="white" stroke="#bfbfbf" points="802.408,-112.5 802.408,-131.5 927.408,-131.5 927.408,-112.5 802.408,-112.5"/>
<text text-anchor="middle" x="864.908" y="-119.5" font-family="Helvetica,sans-Serif" font-size="10.00">glm/gtx/compatibility.hpp</text>
</g>
<!-- Node27&#45;&gt;Node31 -->
<g id="edge39" class="edge"><title>Node27&#45;&gt;Node31</title>
<path fill="none" stroke="midnightblue" d="M1049.05,-170.806C1014.57,-161.855 950.278,-145.163 907.529,-134.065"/>
<polygon fill="midnightblue" stroke="midnightblue" points="908.249,-130.636 897.69,-131.511 906.49,-137.411 908.249,-130.636"/>
</g>
<!-- Node32 -->
<g id="node32" class="node"><title>Node32</title>
<polygon fill="white" stroke="#bfbfbf" points="945.908,-112.5 945.908,-131.5 1037.91,-131.5 1037.91,-112.5 945.908,-112.5"/>
<text text-anchor="middle" x="991.908" y="-119.5" font-family="Helvetica,sans-Serif" font-size="10.00">glm/gtx/norm.hpp</text>
</g>
<!-- Node27&#45;&gt;Node32 -->
<g id="edge40" class="edge"><title>Node27&#45;&gt;Node32</title>
<path fill="none" stroke="midnightblue" d="M1059.89,-168.324C1047.38,-159.979 1028.23,-147.212 1013.44,-137.352"/>
<polygon fill="midnightblue" stroke="midnightblue" points="1015.15,-134.289 1004.89,-131.655 1011.27,-140.114 1015.15,-134.289"/>
</g>
<!-- Node33 -->
<g id="node33" class="node"><title>Node33</title>
<polygon fill="white" stroke="#bfbfbf" points="1055.91,-112.5 1055.91,-131.5 1095.91,-131.5 1095.91,-112.5 1055.91,-112.5"/>
<text text-anchor="middle" x="1075.91" y="-119.5" font-family="Helvetica,sans-Serif" font-size="10.00">limits</text>
</g>
<!-- Node27&#45;&gt;Node33 -->
<g id="edge41" class="edge"><title>Node27&#45;&gt;Node33</title>
<path fill="none" stroke="midnightblue" d="M1073.4,-168.083C1073.8,-161.006 1074.36,-150.861 1074.85,-141.986"/>
<polygon fill="midnightblue" stroke="midnightblue" points="1078.36,-141.93 1075.42,-131.751 1071.37,-141.542 1078.36,-141.93"/>
</g>
<!-- Node34 -->
<g id="node34" class="node"><title>Node34</title>
<polygon fill="white" stroke="#bfbfbf" points="1114.41,-112.5 1114.41,-131.5 1161.41,-131.5 1161.41,-112.5 1114.41,-112.5"/>
<text text-anchor="middle" x="1137.91" y="-119.5" font-family="Helvetica,sans-Serif" font-size="10.00">math.h</text>
</g>
<!-- Node27&#45;&gt;Node34 -->
<g id="edge42" class="edge"><title>Node27&#45;&gt;Node34</title>
<path fill="none" stroke="midnightblue" d="M1083.35,-168.324C1093.05,-160.263 1107.72,-148.077 1119.41,-138.369"/>
<polygon fill="midnightblue" stroke="midnightblue" points="1121.82,-140.916 1127.27,-131.834 1117.35,-135.532 1121.82,-140.916"/>
</g>
<!-- Node36&#45;&gt;Node4 -->
<g id="edge48" class="edge"><title>Node36&#45;&gt;Node4</title>
<path fill="none" stroke="midnightblue" d="M899.043,-280.248C896.224,-257.04 885.022,-193.931 844.908,-168 756.621,-110.928 712.337,-152.548 605.055,-131.895"/>
<polygon fill="midnightblue" stroke="midnightblue" points="605.668,-128.447 595.167,-129.85 604.251,-135.302 605.668,-128.447"/>
</g>
<!-- Node36&#45;&gt;Node6 -->
<g id="edge49" class="edge"><title>Node36&#45;&gt;Node6</title>
<path fill="none" stroke="midnightblue" d="M852.559,-283.652C805.143,-277.207 736.966,-264.595 720.908,-244 697.925,-214.525 782.157,-195.557 756.908,-168 727.512,-135.917 424.316,-139.274 347.491,-131.586"/>
<polygon fill="midnightblue" stroke="midnightblue" points="347.548,-128.064 337.181,-130.25 346.648,-135.006 347.548,-128.064"/>
</g>
<!-- Node36&#45;&gt;Node35 -->
<g id="edge56" class="edge"><title>Node36&#45;&gt;Node35</title>
<path fill="none" stroke="midnightblue" d="M923.517,-280.444C948.365,-271.438 987.682,-257.189 1015.66,-247.049"/>
<polygon fill="midnightblue" stroke="midnightblue" points="1017.2,-250.214 1025.41,-243.516 1014.81,-243.633 1017.2,-250.214"/>
</g>
<!-- Node37 -->
<g id="node37" class="node"><title>Node37</title>
<g id="a_node37"><a xlink:href="ICharacter_8h.html" target="_top" xlink:title="ICharacter.h">
<polygon fill="white" stroke="black" points="730.408,-224.5 730.408,-243.5 801.408,-243.5 801.408,-224.5 730.408,-224.5"/>
<text text-anchor="middle" x="765.908" y="-231.5" font-family="Helvetica,sans-Serif" font-size="10.00">ICharacter.h</text>
</a>
</g>
</g>
<!-- Node36&#45;&gt;Node37 -->
<g id="edge50" class="edge"><title>Node36&#45;&gt;Node37</title>
<path fill="none" stroke="midnightblue" d="M878.675,-280.444C856.524,-271.517 821.589,-257.439 796.472,-247.317"/>
<polygon fill="midnightblue" stroke="midnightblue" points="797.624,-244.008 787.041,-243.516 795.008,-250.501 797.624,-244.008"/>
</g>
<!-- Node38 -->
<g id="node38" class="node"><title>Node38</title>
<g id="a_node38"><a xlink:href="Entry_8h.html" target="_top" xlink:title="aggro/Entry.h">
<polygon fill="white" stroke="black" points="928.408,-224.5 928.408,-243.5 1003.41,-243.5 1003.41,-224.5 928.408,-224.5"/>
<text text-anchor="middle" x="965.908" y="-231.5" font-family="Helvetica,sans-Serif" font-size="10.00">aggro/Entry.h</text>
</a>
</g>
</g>
<!-- Node36&#45;&gt;Node38 -->
<g id="edge57" class="edge"><title>Node36&#45;&gt;Node38</title>
<path fill="none" stroke="midnightblue" d="M910.512,-280.324C920.364,-272.263 935.258,-260.077 947.123,-250.369"/>
<polygon fill="midnightblue" stroke="midnightblue" points="949.587,-252.875 955.111,-243.834 945.155,-247.457 949.587,-252.875"/>
</g>
<!-- Node37&#45;&gt;Node6 -->
<g id="edge55" class="edge"><title>Node37&#45;&gt;Node6</title>
<path fill="none" stroke="midnightblue" d="M774.096,-224.329C785.95,-210.732 804.913,-184.271 789.908,-168 757.926,-133.32 427.902,-139.488 347.209,-131.548"/>
<polygon fill="midnightblue" stroke="midnightblue" points="347.54,-128.062 337.178,-130.268 346.654,-135.006 347.54,-128.062"/>
</g>
<!-- Node37&#45;&gt;Node9 -->
<g id="edge53" class="edge"><title>Node37&#45;&gt;Node9</title>
<path fill="none" stroke="midnightblue" d="M801.439,-224.635C838.412,-214.28 888.057,-194.689 865.908,-168 839.863,-136.618 730.701,-140.733 675.251,-131.86"/>
<polygon fill="midnightblue" stroke="midnightblue" points="675.711,-128.385 665.236,-129.97 674.413,-135.264 675.711,-128.385"/>
</g>
<!-- Node37&#45;&gt;Node19 -->
<g id="edge54" class="edge"><title>Node37&#45;&gt;Node19</title>
<path fill="none" stroke="midnightblue" d="M759.137,-224.083C753.346,-216.455 744.849,-205.264 737.77,-195.941"/>
<polygon fill="midnightblue" stroke="midnightblue" points="740.387,-193.599 731.552,-187.751 734.811,-197.832 740.387,-193.599"/>
</g>
<!-- Node37&#45;&gt;Node24 -->
<g id="edge51" class="edge"><title>Node37&#45;&gt;Node24</title>
<path fill="none" stroke="midnightblue" d="M784.781,-224.372C809.123,-212.111 846.27,-188.818 827.908,-168 787.439,-122.118 621.36,-138.362 543.941,-132.009"/>
<polygon fill="midnightblue" stroke="midnightblue" points="543.931,-128.49 533.627,-130.953 543.219,-135.453 543.931,-128.49"/>
</g>
<!-- Node37&#45;&gt;Node27 -->
<g id="edge52" class="edge"><title>Node37&#45;&gt;Node27</title>
<path fill="none" stroke="midnightblue" d="M801.752,-225.739C804.847,-225.14 807.931,-224.553 810.908,-224 892.878,-208.766 989.628,-192.624 1039.48,-184.441"/>
<polygon fill="midnightblue" stroke="midnightblue" points="1040.08,-187.89 1049.38,-182.819 1038.95,-180.982 1040.08,-187.89"/>
</g>
<!-- Node38&#45;&gt;Node9 -->
<g id="edge58" class="edge"><title>Node38&#45;&gt;Node9</title>
<path fill="none" stroke="midnightblue" d="M957.664,-224.174C943.741,-209.861 914.027,-181.803 882.908,-168 799.607,-131.052 768.169,-150.361 675.044,-132.037"/>
<polygon fill="midnightblue" stroke="midnightblue" points="675.728,-128.604 665.227,-130.012 674.313,-135.46 675.728,-128.604"/>
</g>
</g>
</svg>
