<?xml version="1.0" encoding="UTF-8" standalone="no"?>
<!DOCTYPE svg PUBLIC "-//W3C//DTD SVG 1.1//EN"
 "http://www.w3.org/Graphics/SVG/1.1/DTD/svg11.dtd">
<!-- Generated by graphviz version 2.36.0 (20140111.2315)
 -->
<!-- Title: /home/travis/build/mgerhardy/simpleai/src/ai/conditions/HasEnemies.h Pages: 1 -->
<!--zoomable 386 -->
<svg id="main" version="1.1" xmlns="http://www.w3.org/2000/svg" xmlns:xlink="http://www.w3.org/1999/xlink" xml:space="preserve" onload="init(evt)">
<style type="text/css"><![CDATA[
.edge:hover path { stroke: red; }
.edge:hover polygon { stroke: red; fill: red; }
]]></style>
<script type="text/javascript"><![CDATA[
var edges = document.getElementsByTagName('g');
if (edges && edges.length) {
  for (var i=0;i<edges.length;i++) {
    if (edges[i].id.substr(0,4)=='edge') {
      edges[i].setAttribute('class','edge');
    }
  }
}
]]></script>
        <defs>
                <circle id="rim" cx="0" cy="0" r="7"/>
                <circle id="rim2" cx="0" cy="0" r="3.5"/>
                <g id="zoomPlus">
                        <use xlink:href="#rim" fill="#404040">
                                <set attributeName="fill" to="#808080" begin="zoomplus.mouseover" end="zoomplus.mouseout"/>
                        </use>
                        <path d="M-4,0h8M0,-4v8" fill="none" stroke="white" stroke-width="1.5" pointer-events="none"/>
                </g>
                <g id="zoomMin">
                        <use xlink:href="#rim" fill="#404040">
                                <set attributeName="fill" to="#808080" begin="zoomminus.mouseover" end="zoomminus.mouseout"/>
                        </use>
                        <path d="M-4,0h8" fill="none" stroke="white" stroke-width="1.5" pointer-events="none"/>
                </g>
                <g id="dirArrow">
                        <path fill="none" stroke="white" stroke-width="1.5" d="M0,-3.0v7 M-2.5,-0.5L0,-3.0L2.5,-0.5"/>
                </g>
               <g id="resetDef">
                       <use xlink:href="#rim2" fill="#404040">
                               <set attributeName="fill" to="#808080" begin="reset.mouseover" end="reset.mouseout"/>
                       </use>
               </g>
        </defs>

<script type="text/javascript">
var viewWidth = 1416;
var viewHeight = 386;
var sectionId = 'dynsection-0';
</script>
<script xlink:href="svgpan.js"/>
<svg id="graph" class="graph">
<g id="viewport">
<title>/home/travis/build/mgerhardy/simpleai/src/ai/conditions/HasEnemies.h</title>
<polygon fill="white" stroke="none" points="-4,4 -4,-382 1412.26,-382 1412.26,4 -4,4"/>
<!-- Node1 -->
<g id="node1" class="node"><title>Node1</title>
<polygon fill="#bfbfbf" stroke="black" points="820.414,-336.5 820.414,-377.5 978.414,-377.5 978.414,-336.5 820.414,-336.5"/>
<text text-anchor="start" x="828.414" y="-365.5" font-family="Helvetica,sans-Serif" font-size="10.00">/home/travis/build</text>
<text text-anchor="start" x="828.414" y="-354.5" font-family="Helvetica,sans-Serif" font-size="10.00">/mgerhardy/simpleai</text>
<text text-anchor="middle" x="899.414" y="-343.5" font-family="Helvetica,sans-Serif" font-size="10.00">/src/ai/conditions/HasEnemies.h</text>
</g>
<!-- Node2 -->
<g id="node2" class="node"><title>Node2</title>
<g id="a_node2"><a xlink:href="ICondition_8h.html" target="_top" xlink:title="Condition related stuff. ">
<polygon fill="white" stroke="black" points="403.414,-280.5 403.414,-299.5 519.414,-299.5 519.414,-280.5 403.414,-280.5"/>
<text text-anchor="middle" x="461.414" y="-287.5" font-family="Helvetica,sans-Serif" font-size="10.00">conditions/ICondition.h</text>
</a>
</g>
</g>
<!-- Node1&#45;&gt;Node2 -->
<g id="edge1" class="edge"><title>Node1&#45;&gt;Node2</title>
<path fill="none" stroke="midnightblue" d="M820.35,-344.267C737.223,-331.93 607.811,-312.726 529.197,-301.059"/>
<polygon fill="midnightblue" stroke="midnightblue" points="529.329,-297.54 518.924,-299.535 528.302,-304.465 529.329,-297.54"/>
</g>
<!-- Node26 -->
<g id="node26" class="node"><title>Node26</title>
<g id="a_node26"><a xlink:href="String_8h.html" target="_top" xlink:title="common/String.h">
<polygon fill="white" stroke="black" points="1030.91,-280.5 1030.91,-299.5 1121.91,-299.5 1121.91,-280.5 1030.91,-280.5"/>
<text text-anchor="middle" x="1076.41" y="-287.5" font-family="Helvetica,sans-Serif" font-size="10.00">common/String.h</text>
</a>
</g>
</g>
<!-- Node1&#45;&gt;Node26 -->
<g id="edge34" class="edge"><title>Node1&#45;&gt;Node26</title>
<path fill="none" stroke="midnightblue" d="M952.52,-336.498C982.006,-325.67 1017.77,-312.537 1043.28,-303.17"/>
<polygon fill="midnightblue" stroke="midnightblue" points="1044.67,-306.385 1052.85,-299.652 1042.26,-299.814 1044.67,-306.385"/>
</g>
<!-- Node36 -->
<g id="node36" class="node"><title>Node36</title>
<g id="a_node36"><a xlink:href="AggroMgr_8h.html" target="_top" xlink:title="aggro/AggroMgr.h">
<polygon fill="white" stroke="black" points="852.414,-280.5 852.414,-299.5 946.414,-299.5 946.414,-280.5 852.414,-280.5"/>
<text text-anchor="middle" x="899.414" y="-287.5" font-family="Helvetica,sans-Serif" font-size="10.00">aggro/AggroMgr.h</text>
</a>
</g>
</g>
<!-- Node1&#45;&gt;Node36 -->
<g id="edge48" class="edge"><title>Node1&#45;&gt;Node36</title>
<path fill="none" stroke="midnightblue" d="M899.414,-336.498C899.414,-328.065 899.414,-318.235 899.414,-309.874"/>
<polygon fill="midnightblue" stroke="midnightblue" points="902.915,-309.652 899.414,-299.652 895.915,-309.653 902.915,-309.652"/>
</g>
<!-- Node3 -->
<g id="node3" class="node"><title>Node3</title>
<polygon fill="white" stroke="#bfbfbf" points="314.914,-56.5 314.914,-75.5 355.914,-75.5 355.914,-56.5 314.914,-56.5"/>
<text text-anchor="middle" x="335.414" y="-63.5" font-family="Helvetica,sans-Serif" font-size="10.00">string</text>
</g>
<!-- Node2&#45;&gt;Node3 -->
<g id="edge2" class="edge"><title>Node2&#45;&gt;Node3</title>
<path fill="none" stroke="midnightblue" d="M403.041,-284.955C292.546,-275.919 59.714,-249.823 13.4145,-188 -62.8496,-86.1655 210.814,-70.0249 304.811,-67.4755"/>
<polygon fill="midnightblue" stroke="midnightblue" points="304.934,-70.9737 314.848,-67.2372 304.767,-63.9757 304.934,-70.9737"/>
</g>
<!-- Node4 -->
<g id="node4" class="node"><title>Node4</title>
<polygon fill="white" stroke="#bfbfbf" points="550.414,-112.5 550.414,-131.5 594.414,-131.5 594.414,-112.5 550.414,-112.5"/>
<text text-anchor="middle" x="572.414" y="-119.5" font-family="Helvetica,sans-Serif" font-size="10.00">vector</text>
</g>
<!-- Node2&#45;&gt;Node4 -->
<g id="edge3" class="edge"><title>Node2&#45;&gt;Node4</title>
<path fill="none" stroke="midnightblue" d="M465.464,-280.371C475.236,-259.933 501.455,-207.338 530.414,-168 538,-157.696 547.678,-147.186 555.831,-138.918"/>
<polygon fill="midnightblue" stroke="midnightblue" points="558.42,-141.28 563.063,-131.757 553.494,-136.306 558.42,-141.28"/>
</g>
<!-- Node5 -->
<g id="node5" class="node"><title>Node5</title>
<polygon fill="white" stroke="#bfbfbf" points="819.414,-224.5 819.414,-243.5 871.414,-243.5 871.414,-224.5 819.414,-224.5"/>
<text text-anchor="middle" x="845.414" y="-231.5" font-family="Helvetica,sans-Serif" font-size="10.00">sstream</text>
</g>
<!-- Node2&#45;&gt;Node5 -->
<g id="edge4" class="edge"><title>Node2&#45;&gt;Node5</title>
<path fill="none" stroke="midnightblue" d="M519.621,-283.565C586.894,-276.817 701.076,-263.93 809.053,-243.844"/>
<polygon fill="midnightblue" stroke="midnightblue" points="809.968,-247.234 819.146,-241.942 808.671,-240.355 809.968,-247.234"/>
</g>
<!-- Node6 -->
<g id="node6" class="node"><title>Node6</title>
<polygon fill="white" stroke="#bfbfbf" points="284.414,-112.5 284.414,-131.5 336.414,-131.5 336.414,-112.5 284.414,-112.5"/>
<text text-anchor="middle" x="310.414" y="-119.5" font-family="Helvetica,sans-Serif" font-size="10.00">memory</text>
</g>
<!-- Node2&#45;&gt;Node6 -->
<g id="edge5" class="edge"><title>Node2&#45;&gt;Node6</title>
<path fill="none" stroke="midnightblue" d="M428.404,-280.406C388.163,-267.854 322.541,-240.113 298.414,-188 291.499,-173.063 296.1,-154.459 301.484,-140.986"/>
<polygon fill="midnightblue" stroke="midnightblue" points="304.691,-142.387 305.575,-131.829 298.3,-139.531 304.691,-142.387"/>
</g>
<!-- Node7 -->
<g id="node7" class="node"><title>Node7</title>
<g id="a_node7"><a xlink:href="MemoryAllocator_8h.html" target="_top" xlink:title="common/MemoryAllocator.h">
<polygon fill="white" stroke="black" points="22.9145,-168.5 22.9145,-187.5 161.914,-187.5 161.914,-168.5 22.9145,-168.5"/>
<text text-anchor="middle" x="92.4145" y="-175.5" font-family="Helvetica,sans-Serif" font-size="10.00">common/MemoryAllocator.h</text>
</a>
</g>
</g>
<!-- Node2&#45;&gt;Node7 -->
<g id="edge6" class="edge"><title>Node2&#45;&gt;Node7</title>
<path fill="none" stroke="midnightblue" d="M416.6,-280.489C376.582,-272.47 316.562,-259.405 265.414,-244 214.105,-228.547 156.111,-205.591 121.993,-191.5"/>
<polygon fill="midnightblue" stroke="midnightblue" points="123.194,-188.209 112.617,-187.602 120.507,-194.672 123.194,-188.209"/>
</g>
<!-- Node8 -->
<g id="node8" class="node"><title>Node8</title>
<g id="a_node8"><a xlink:href="Thread_8h.html" target="_top" xlink:title="common/Thread.h">
<polygon fill="white" stroke="black" points="575.914,-224.5 575.914,-243.5 670.914,-243.5 670.914,-224.5 575.914,-224.5"/>
<text text-anchor="middle" x="623.414" y="-231.5" font-family="Helvetica,sans-Serif" font-size="10.00">common/Thread.h</text>
</a>
</g>
</g>
<!-- Node2&#45;&gt;Node8 -->
<g id="edge8" class="edge"><title>Node2&#45;&gt;Node8</title>
<path fill="none" stroke="midnightblue" d="M487.084,-280.444C514.337,-271.359 557.598,-256.939 588.065,-246.783"/>
<polygon fill="midnightblue" stroke="midnightblue" points="589.485,-249.999 597.865,-243.516 587.272,-243.358 589.485,-249.999"/>
</g>
<!-- Node20 -->
<g id="node20" class="node"><title>Node20</title>
<g id="a_node20"><a xlink:href="AIFactories_8h.html" target="_top" xlink:title="AIFactories.h">
<polygon fill="white" stroke="black" points="373.914,-224.5 373.914,-243.5 448.914,-243.5 448.914,-224.5 373.914,-224.5"/>
<text text-anchor="middle" x="411.414" y="-231.5" font-family="Helvetica,sans-Serif" font-size="10.00">AIFactories.h</text>
</a>
</g>
</g>
<!-- Node2&#45;&gt;Node20 -->
<g id="edge22" class="edge"><title>Node2&#45;&gt;Node20</title>
<path fill="none" stroke="midnightblue" d="M453.158,-280.083C445.95,-272.298 435.305,-260.801 426.569,-251.367"/>
<polygon fill="midnightblue" stroke="midnightblue" points="428.88,-248.711 419.517,-243.751 423.743,-253.467 428.88,-248.711"/>
</g>
<!-- Node7&#45;&gt;Node6 -->
<g id="edge7" class="edge"><title>Node7&#45;&gt;Node6</title>
<path fill="none" stroke="midnightblue" d="M126.957,-168.444C167.244,-158.464 233.526,-142.046 274.424,-131.915"/>
<polygon fill="midnightblue" stroke="midnightblue" points="275.379,-135.284 284.244,-129.483 273.696,-128.49 275.379,-135.284"/>
</g>
<!-- Node9 -->
<g id="node9" class="node"><title>Node9</title>
<g id="a_node9"><a xlink:href="Types_8h.html" target="_top" xlink:title="Types.h">
<polygon fill="white" stroke="black" points="612.414,-112.5 612.414,-131.5 664.414,-131.5 664.414,-112.5 612.414,-112.5"/>
<text text-anchor="middle" x="638.414" y="-119.5" font-family="Helvetica,sans-Serif" font-size="10.00">Types.h</text>
</a>
</g>
</g>
<!-- Node8&#45;&gt;Node9 -->
<g id="edge9" class="edge"><title>Node8&#45;&gt;Node9</title>
<path fill="none" stroke="midnightblue" d="M631.628,-224.182C638.958,-215.663 649.17,-202.019 653.414,-188 658.181,-172.257 653.041,-153.975 647.52,-140.817"/>
<polygon fill="midnightblue" stroke="midnightblue" points="650.583,-139.102 643.193,-131.509 644.235,-142.053 650.583,-139.102"/>
</g>
<!-- Node17 -->
<g id="node17" class="node"><title>Node17</title>
<polygon fill="white" stroke="#bfbfbf" points="601.414,-168.5 601.414,-187.5 645.414,-187.5 645.414,-168.5 601.414,-168.5"/>
<text text-anchor="middle" x="623.414" y="-175.5" font-family="Helvetica,sans-Serif" font-size="10.00">thread</text>
</g>
<!-- Node8&#45;&gt;Node17 -->
<g id="edge19" class="edge"><title>Node8&#45;&gt;Node17</title>
<path fill="none" stroke="midnightblue" d="M623.414,-224.083C623.414,-217.006 623.414,-206.861 623.414,-197.986"/>
<polygon fill="midnightblue" stroke="midnightblue" points="626.915,-197.751 623.414,-187.751 619.915,-197.751 626.915,-197.751"/>
</g>
<!-- Node18 -->
<g id="node18" class="node"><title>Node18</title>
<polygon fill="white" stroke="#bfbfbf" points="539.414,-168.5 539.414,-187.5 583.414,-187.5 583.414,-168.5 539.414,-168.5"/>
<text text-anchor="middle" x="561.414" y="-175.5" font-family="Helvetica,sans-Serif" font-size="10.00">mutex</text>
</g>
<!-- Node8&#45;&gt;Node18 -->
<g id="edge20" class="edge"><title>Node8&#45;&gt;Node18</title>
<path fill="none" stroke="midnightblue" d="M613.453,-224.324C604.288,-216.341 590.477,-204.313 579.386,-194.653"/>
<polygon fill="midnightblue" stroke="midnightblue" points="581.397,-191.762 571.557,-187.834 576.799,-197.041 581.397,-191.762"/>
</g>
<!-- Node19 -->
<g id="node19" class="node"><title>Node19</title>
<polygon fill="white" stroke="#bfbfbf" points="701.414,-168.5 701.414,-187.5 747.414,-187.5 747.414,-168.5 701.414,-168.5"/>
<text text-anchor="middle" x="724.414" y="-175.5" font-family="Helvetica,sans-Serif" font-size="10.00">atomic</text>
</g>
<!-- Node8&#45;&gt;Node19 -->
<g id="edge21" class="edge"><title>Node8&#45;&gt;Node19</title>
<path fill="none" stroke="midnightblue" d="M639.642,-224.324C655.765,-215.703 680.715,-202.364 699.379,-192.386"/>
<polygon fill="midnightblue" stroke="midnightblue" points="701.059,-195.456 708.227,-187.655 697.758,-189.283 701.059,-195.456"/>
</g>
<!-- Node9&#45;&gt;Node3 -->
<g id="edge14" class="edge"><title>Node9&#45;&gt;Node3</title>
<path fill="none" stroke="midnightblue" d="M612.123,-114.176C608.862,-113.404 605.568,-112.659 602.414,-112 517.32,-94.2206 415.836,-78.6455 366.047,-71.368"/>
<polygon fill="midnightblue" stroke="midnightblue" points="366.349,-67.8752 355.95,-69.9025 365.343,-74.8026 366.349,-67.8752"/>
</g>
<!-- Node10 -->
<g id="node10" class="node"><title>Node10</title>
<g id="a_node10"><a xlink:href="Log_8h.html" target="_top" xlink:title="Log.h">
<polygon fill="white" stroke="black" points="451.914,-56.5 451.914,-75.5 492.914,-75.5 492.914,-56.5 451.914,-56.5"/>
<text text-anchor="middle" x="472.414" y="-63.5" font-family="Helvetica,sans-Serif" font-size="10.00">Log.h</text>
</a>
</g>
</g>
<!-- Node9&#45;&gt;Node10 -->
<g id="edge10" class="edge"><title>Node9&#45;&gt;Node10</title>
<path fill="none" stroke="midnightblue" d="M612.111,-112.444C582.414,-102.783 534.166,-87.088 502.862,-76.9046"/>
<polygon fill="midnightblue" stroke="midnightblue" points="503.931,-73.5718 493.339,-73.8067 501.765,-80.2285 503.931,-73.5718"/>
</g>
<!-- Node11 -->
<g id="node11" class="node"><title>Node11</title>
<polygon fill="white" stroke="#bfbfbf" points="648.414,-0.5 648.414,-19.5 694.414,-19.5 694.414,-0.5 648.414,-0.5"/>
<text text-anchor="middle" x="671.414" y="-7.5" font-family="Helvetica,sans-Serif" font-size="10.00">stdio.h</text>
</g>
<!-- Node9&#45;&gt;Node11 -->
<g id="edge17" class="edge"><title>Node9&#45;&gt;Node11</title>
<path fill="none" stroke="midnightblue" d="M664.464,-114.173C694.323,-105.759 740.44,-90.7572 750.414,-76 766.073,-52.8331 732.593,-33.5772 704.492,-22.1839"/>
<polygon fill="midnightblue" stroke="midnightblue" points="705.456,-18.8049 694.866,-18.4883 702.947,-25.3399 705.456,-18.8049"/>
</g>
<!-- Node14 -->
<g id="node14" class="node"><title>Node14</title>
<polygon fill="white" stroke="#bfbfbf" points="510.914,-56.5 510.914,-75.5 593.914,-75.5 593.914,-56.5 510.914,-56.5"/>
<text text-anchor="middle" x="552.414" y="-63.5" font-family="Helvetica,sans-Serif" font-size="10.00">unordered_map</text>
</g>
<!-- Node9&#45;&gt;Node14 -->
<g id="edge15" class="edge"><title>Node9&#45;&gt;Node14</title>
<path fill="none" stroke="midnightblue" d="M624.597,-112.324C611.181,-103.9 590.59,-90.9709 574.829,-81.0741"/>
<polygon fill="midnightblue" stroke="midnightblue" points="576.528,-78.0081 566.198,-75.6545 572.805,-83.9364 576.528,-78.0081"/>
</g>
<!-- Node15 -->
<g id="node15" class="node"><title>Node15</title>
<polygon fill="white" stroke="#bfbfbf" points="612.414,-56.5 612.414,-75.5 664.414,-75.5 664.414,-56.5 612.414,-56.5"/>
<text text-anchor="middle" x="638.414" y="-63.5" font-family="Helvetica,sans-Serif" font-size="10.00">assert.h</text>
</g>
<!-- Node9&#45;&gt;Node15 -->
<g id="edge16" class="edge"><title>Node9&#45;&gt;Node15</title>
<path fill="none" stroke="midnightblue" d="M638.414,-112.083C638.414,-105.006 638.414,-94.8611 638.414,-85.9865"/>
<polygon fill="midnightblue" stroke="midnightblue" points="641.915,-85.751 638.414,-75.7511 634.915,-85.7511 641.915,-85.751"/>
</g>
<!-- Node16 -->
<g id="node16" class="node"><title>Node16</title>
<polygon fill="white" stroke="#bfbfbf" points="682.914,-56.5 682.914,-75.5 741.914,-75.5 741.914,-56.5 682.914,-56.5"/>
<text text-anchor="middle" x="712.414" y="-63.5" font-family="Helvetica,sans-Serif" font-size="10.00">inttypes.h</text>
</g>
<!-- Node9&#45;&gt;Node16 -->
<g id="edge18" class="edge"><title>Node9&#45;&gt;Node16</title>
<path fill="none" stroke="midnightblue" d="M650.304,-112.324C661.565,-104.107 678.701,-91.6017 692.124,-81.8069"/>
<polygon fill="midnightblue" stroke="midnightblue" points="694.294,-84.5559 700.309,-75.8339 690.168,-78.9014 694.294,-84.5559"/>
</g>
<!-- Node10&#45;&gt;Node11 -->
<g id="edge11" class="edge"><title>Node10&#45;&gt;Node11</title>
<path fill="none" stroke="midnightblue" d="M492.977,-58.5011C495.806,-57.6413 498.679,-56.7863 501.414,-56 548.748,-42.397 603.929,-28.0695 638.274,-19.3318"/>
<polygon fill="midnightblue" stroke="midnightblue" points="639.399,-22.6573 648.232,-16.8066 637.679,-15.8721 639.399,-22.6573"/>
</g>
<!-- Node12 -->
<g id="node12" class="node"><title>Node12</title>
<polygon fill="white" stroke="#bfbfbf" points="412.414,-0.5 412.414,-19.5 464.414,-19.5 464.414,-0.5 412.414,-0.5"/>
<text text-anchor="middle" x="438.414" y="-7.5" font-family="Helvetica,sans-Serif" font-size="10.00">stdarg.h</text>
</g>
<!-- Node10&#45;&gt;Node12 -->
<g id="edge12" class="edge"><title>Node10&#45;&gt;Node12</title>
<path fill="none" stroke="midnightblue" d="M466.8,-56.083C462.047,-48.5341 455.096,-37.4948 449.263,-28.2298"/>
<polygon fill="midnightblue" stroke="midnightblue" points="452.214,-26.3486 443.924,-19.7511 446.291,-30.0783 452.214,-26.3486"/>
</g>
<!-- Node13 -->
<g id="node13" class="node"><title>Node13</title>
<polygon fill="white" stroke="#bfbfbf" points="482.914,-0.5 482.914,-19.5 531.914,-19.5 531.914,-0.5 482.914,-0.5"/>
<text text-anchor="middle" x="507.414" y="-7.5" font-family="Helvetica,sans-Serif" font-size="10.00">string.h</text>
</g>
<!-- Node10&#45;&gt;Node13 -->
<g id="edge13" class="edge"><title>Node10&#45;&gt;Node13</title>
<path fill="none" stroke="midnightblue" d="M478.194,-56.083C483.087,-48.5341 490.242,-37.4948 496.247,-28.2298"/>
<polygon fill="midnightblue" stroke="midnightblue" points="499.241,-30.0463 501.742,-19.7511 493.366,-26.239 499.241,-30.0463"/>
</g>
<!-- Node20&#45;&gt;Node4 -->
<g id="edge33" class="edge"><title>Node20&#45;&gt;Node4</title>
<path fill="none" stroke="midnightblue" d="M422.004,-224.412C437.973,-211.599 469.339,-186.954 497.414,-168 513.933,-156.849 533.228,-145.303 548.11,-136.699"/>
<polygon fill="midnightblue" stroke="midnightblue" points="550.242,-139.511 557.179,-131.503 546.762,-133.437 550.242,-139.511"/>
</g>
<!-- Node21 -->
<g id="node21" class="node"><title>Node21</title>
<g id="a_node21"><a xlink:href="IAIFactory_8h.html" target="_top" xlink:title="IAIFactory.h">
<polygon fill="white" stroke="black" points="179.914,-168.5 179.914,-187.5 250.914,-187.5 250.914,-168.5 179.914,-168.5"/>
<text text-anchor="middle" x="215.414" y="-175.5" font-family="Helvetica,sans-Serif" font-size="10.00">IAIFactory.h</text>
</a>
</g>
</g>
<!-- Node20&#45;&gt;Node21 -->
<g id="edge23" class="edge"><title>Node20&#45;&gt;Node21</title>
<path fill="none" stroke="midnightblue" d="M380.358,-224.444C346.811,-215.201 293.218,-200.436 256.274,-190.257"/>
<polygon fill="midnightblue" stroke="midnightblue" points="256.896,-186.798 246.326,-187.516 255.037,-193.547 256.896,-186.798"/>
</g>
<!-- Node23 -->
<g id="node23" class="node"><title>Node23</title>
<g id="a_node23"><a xlink:href="IFactoryRegistry_8h.html" target="_top" xlink:title="common/IFactoryRegistry.h">
<polygon fill="white" stroke="black" points="307.414,-168.5 307.414,-187.5 445.414,-187.5 445.414,-168.5 307.414,-168.5"/>
<text text-anchor="middle" x="376.414" y="-175.5" font-family="Helvetica,sans-Serif" font-size="10.00">common/IFactoryRegistry.h</text>
</a>
</g>
</g>
<!-- Node20&#45;&gt;Node23 -->
<g id="edge28" class="edge"><title>Node20&#45;&gt;Node23</title>
<path fill="none" stroke="midnightblue" d="M405.635,-224.083C400.742,-216.534 393.587,-205.495 387.582,-196.23"/>
<polygon fill="midnightblue" stroke="midnightblue" points="390.462,-194.239 382.086,-187.751 384.588,-198.046 390.462,-194.239"/>
</g>
<!-- Node21&#45;&gt;Node3 -->
<g id="edge25" class="edge"><title>Node21&#45;&gt;Node3</title>
<path fill="none" stroke="midnightblue" d="M222.714,-168.113C233.569,-155.135 254.897,-130.526 275.414,-112 287.582,-101.013 302.295,-89.9485 314.105,-81.5401"/>
<polygon fill="midnightblue" stroke="midnightblue" points="316.299,-84.2771 322.481,-75.6733 312.283,-78.5437 316.299,-84.2771"/>
</g>
<!-- Node21&#45;&gt;Node4 -->
<g id="edge26" class="edge"><title>Node21&#45;&gt;Node4</title>
<path fill="none" stroke="midnightblue" d="M251.162,-172.732C320.274,-164.378 470.839,-145.645 540.152,-131.948"/>
<polygon fill="midnightblue" stroke="midnightblue" points="541.076,-135.331 550.162,-129.88 539.66,-128.475 541.076,-135.331"/>
</g>
<!-- Node21&#45;&gt;Node6 -->
<g id="edge24" class="edge"><title>Node21&#45;&gt;Node6</title>
<path fill="none" stroke="midnightblue" d="M230.678,-168.324C245.636,-159.822 268.669,-146.729 286.141,-136.797"/>
<polygon fill="midnightblue" stroke="midnightblue" points="288.225,-139.639 295.189,-131.655 284.766,-133.553 288.225,-139.639"/>
</g>
<!-- Node22 -->
<g id="node22" class="node"><title>Node22</title>
<polygon fill="white" stroke="#bfbfbf" points="198.914,-112.5 198.914,-131.5 227.914,-131.5 227.914,-112.5 198.914,-112.5"/>
<text text-anchor="middle" x="213.414" y="-119.5" font-family="Helvetica,sans-Serif" font-size="10.00">list</text>
</g>
<!-- Node21&#45;&gt;Node22 -->
<g id="edge27" class="edge"><title>Node21&#45;&gt;Node22</title>
<path fill="none" stroke="midnightblue" d="M215.084,-168.083C214.822,-161.006 214.446,-150.861 214.118,-141.986"/>
<polygon fill="midnightblue" stroke="midnightblue" points="217.606,-141.615 213.739,-131.751 210.611,-141.874 217.606,-141.615"/>
</g>
<!-- Node23&#45;&gt;Node6 -->
<g id="edge31" class="edge"><title>Node23&#45;&gt;Node6</title>
<path fill="none" stroke="midnightblue" d="M365.81,-168.324C355.958,-160.263 341.064,-148.077 329.199,-138.369"/>
<polygon fill="midnightblue" stroke="midnightblue" points="331.167,-135.457 321.211,-131.834 326.735,-140.875 331.167,-135.457"/>
</g>
<!-- Node23&#45;&gt;Node9 -->
<g id="edge29" class="edge"><title>Node23&#45;&gt;Node9</title>
<path fill="none" stroke="midnightblue" d="M422.866,-168.432C466.506,-160.23 533.861,-147.18 602.041,-131.99"/>
<polygon fill="midnightblue" stroke="midnightblue" points="603.112,-135.337 612.103,-129.734 601.58,-128.507 603.112,-135.337"/>
</g>
<!-- Node24 -->
<g id="node24" class="node"><title>Node24</title>
<g id="a_node24"><a xlink:href="NonCopyable_8h.html" target="_top" xlink:title="common/NonCopyable.h">
<polygon fill="white" stroke="black" points="407.914,-112.5 407.914,-131.5 532.914,-131.5 532.914,-112.5 407.914,-112.5"/>
<text text-anchor="middle" x="470.414" y="-119.5" font-family="Helvetica,sans-Serif" font-size="10.00">common/NonCopyable.h</text>
</a>
</g>
</g>
<!-- Node23&#45;&gt;Node24 -->
<g id="edge30" class="edge"><title>Node23&#45;&gt;Node24</title>
<path fill="none" stroke="midnightblue" d="M391.517,-168.324C406.318,-159.822 429.109,-146.729 446.397,-136.797"/>
<polygon fill="midnightblue" stroke="midnightblue" points="448.422,-139.671 455.349,-131.655 444.935,-133.601 448.422,-139.671"/>
</g>
<!-- Node25 -->
<g id="node25" class="node"><title>Node25</title>
<polygon fill="white" stroke="#bfbfbf" points="354.914,-112.5 354.914,-131.5 389.914,-131.5 389.914,-112.5 354.914,-112.5"/>
<text text-anchor="middle" x="372.414" y="-119.5" font-family="Helvetica,sans-Serif" font-size="10.00">map</text>
</g>
<!-- Node23&#45;&gt;Node25 -->
<g id="edge32" class="edge"><title>Node23&#45;&gt;Node25</title>
<path fill="none" stroke="midnightblue" d="M375.754,-168.083C375.23,-161.006 374.478,-150.861 373.821,-141.986"/>
<polygon fill="midnightblue" stroke="midnightblue" points="377.292,-141.465 373.063,-131.751 370.311,-141.982 377.292,-141.465"/>
</g>
<!-- Node26&#45;&gt;Node3 -->
<g id="edge45" class="edge"><title>Node26&#45;&gt;Node3</title>
<path fill="none" stroke="midnightblue" d="M1122.02,-281.195C1228.38,-261.242 1477.41,-203.408 1389.41,-112 1352.9,-74.0709 494.966,-79.2073 442.414,-76 416.786,-74.4359 387.763,-71.9497 366.416,-69.9864"/>
<polygon fill="midnightblue" stroke="midnightblue" points="366.589,-66.4874 356.307,-69.043 365.938,-73.4571 366.589,-66.4874"/>
</g>
<!-- Node26&#45;&gt;Node4 -->
<g id="edge44" class="edge"><title>Node26&#45;&gt;Node4</title>
<path fill="none" stroke="midnightblue" d="M1080.99,-280.395C1087.48,-266.89 1097.21,-240.553 1084.41,-224 1019.68,-140.249 726.545,-153.697 604.541,-131.819"/>
<polygon fill="midnightblue" stroke="midnightblue" points="605.152,-128.373 594.666,-129.888 603.808,-135.242 605.152,-128.373"/>
</g>
<!-- Node26&#45;&gt;Node5 -->
<g id="edge46" class="edge"><title>Node26&#45;&gt;Node5</title>
<path fill="none" stroke="midnightblue" d="M1039.81,-280.444C996.352,-270.284 924.346,-253.451 881.233,-243.373"/>
<polygon fill="midnightblue" stroke="midnightblue" points="881.985,-239.955 871.451,-241.086 880.392,-246.771 881.985,-239.955"/>
</g>
<!-- Node27 -->
<g id="node27" class="node"><title>Node27</title>
<g id="a_node27"><a xlink:href="Math_8h.html" target="_top" xlink:title="Math.h">
<polygon fill="white" stroke="black" points="1048.91,-168.5 1048.91,-187.5 1095.91,-187.5 1095.91,-168.5 1048.91,-168.5"/>
<text text-anchor="middle" x="1072.41" y="-175.5" font-family="Helvetica,sans-Serif" font-size="10.00">Math.h</text>
</a>
</g>
</g>
<!-- Node26&#45;&gt;Node27 -->
<g id="edge35" class="edge"><title>Node26&#45;&gt;Node27</title>
<path fill="none" stroke="midnightblue" d="M1088.84,-280.31C1104.29,-268.345 1127.58,-245.796 1118.41,-224 1113.39,-212.053 1103.47,-201.692 1094.13,-193.934"/>
<polygon fill="midnightblue" stroke="midnightblue" points="1096.25,-191.155 1086.2,-187.811 1091.98,-196.694 1096.25,-191.155"/>
</g>
<!-- Node35 -->
<g id="node35" class="node"><title>Node35</title>
<polygon fill="white" stroke="#bfbfbf" points="1020.41,-224.5 1020.41,-243.5 1076.41,-243.5 1076.41,-224.5 1020.41,-224.5"/>
<text text-anchor="middle" x="1048.41" y="-231.5" font-family="Helvetica,sans-Serif" font-size="10.00">algorithm</text>
</g>
<!-- Node26&#45;&gt;Node35 -->
<g id="edge47" class="edge"><title>Node26&#45;&gt;Node35</title>
<path fill="none" stroke="midnightblue" d="M1071.79,-280.083C1067.96,-272.691 1062.39,-261.953 1057.65,-252.811"/>
<polygon fill="midnightblue" stroke="midnightblue" points="1060.66,-251.018 1052.95,-243.751 1054.45,-254.24 1060.66,-251.018"/>
</g>
<!-- Node27&#45;&gt;Node9 -->
<g id="edge36" class="edge"><title>Node27&#45;&gt;Node9</title>
<path fill="none" stroke="midnightblue" d="M1048.67,-171.807C1041.83,-170.433 1034.35,-169.043 1027.41,-168 874.238,-144.948 830.87,-159.159 674.657,-131.972"/>
<polygon fill="midnightblue" stroke="midnightblue" points="675.152,-128.506 664.695,-130.21 673.932,-135.399 675.152,-128.506"/>
</g>
<!-- Node28 -->
<g id="node28" class="node"><title>Node28</title>
<polygon fill="white" stroke="#bfbfbf" points="1179.41,-112.5 1179.41,-131.5 1249.41,-131.5 1249.41,-112.5 1179.41,-112.5"/>
<text text-anchor="middle" x="1214.41" y="-119.5" font-family="Helvetica,sans-Serif" font-size="10.00">glm/glm.hpp</text>
</g>
<!-- Node27&#45;&gt;Node28 -->
<g id="edge37" class="edge"><title>Node27&#45;&gt;Node28</title>
<path fill="none" stroke="midnightblue" d="M1094.91,-168.444C1118.49,-159.478 1155.74,-145.314 1182.38,-135.183"/>
<polygon fill="midnightblue" stroke="midnightblue" points="1183.92,-138.342 1192.02,-131.516 1181.43,-131.8 1183.92,-138.342"/>
</g>
<!-- Node29 -->
<g id="node29" class="node"><title>Node29</title>
<polygon fill="white" stroke="#bfbfbf" points="1267.91,-112.5 1267.91,-131.5 1380.91,-131.5 1380.91,-112.5 1267.91,-112.5"/>
<text text-anchor="middle" x="1324.41" y="-119.5" font-family="Helvetica,sans-Serif" font-size="10.00">glm/gtc/constants.hpp</text>
</g>
<!-- Node27&#45;&gt;Node29 -->
<g id="edge38" class="edge"><title>Node27&#45;&gt;Node29</title>
<path fill="none" stroke="midnightblue" d="M1096.12,-171.92C1136.75,-163.213 1220.53,-145.262 1274.51,-133.695"/>
<polygon fill="midnightblue" stroke="midnightblue" points="1275.51,-137.059 1284.55,-131.542 1274.04,-130.215 1275.51,-137.059"/>
</g>
<!-- Node30 -->
<g id="node30" class="node"><title>Node30</title>
<polygon fill="white" stroke="#bfbfbf" points="682.914,-112.5 682.914,-131.5 783.914,-131.5 783.914,-112.5 682.914,-112.5"/>
<text text-anchor="middle" x="733.414" y="-119.5" font-family="Helvetica,sans-Serif" font-size="10.00">glm/gtc/epsilon.hpp</text>
</g>
<!-- Node27&#45;&gt;Node30 -->
<g id="edge39" class="edge"><title>Node27&#45;&gt;Node30</title>
<path fill="none" stroke="midnightblue" d="M1048.63,-172.033C1041.79,-170.662 1034.32,-169.218 1027.41,-168 1021.69,-166.99 878.389,-145.111 794.005,-132.239"/>
<polygon fill="midnightblue" stroke="midnightblue" points="794.432,-128.764 784.019,-130.716 793.377,-135.684 794.432,-128.764"/>
</g>
<!-- Node31 -->
<g id="node31" class="node"><title>Node31</title>
<polygon fill="white" stroke="#bfbfbf" points="801.914,-112.5 801.914,-131.5 926.914,-131.5 926.914,-112.5 801.914,-112.5"/>
<text text-anchor="middle" x="864.414" y="-119.5" font-family="Helvetica,sans-Serif" font-size="10.00">glm/gtx/compatibility.hpp</text>
</g>
<!-- Node27&#45;&gt;Node31 -->
<g id="edge40" class="edge"><title>Node27&#45;&gt;Node31</title>
<path fill="none" stroke="midnightblue" d="M1048.55,-170.806C1014.08,-161.855 949.784,-145.163 907.036,-134.065"/>
<polygon fill="midnightblue" stroke="midnightblue" points="907.756,-130.636 897.197,-131.511 905.997,-137.411 907.756,-130.636"/>
</g>
<!-- Node32 -->
<g id="node32" class="node"><title>Node32</title>
<polygon fill="white" stroke="#bfbfbf" points="945.414,-112.5 945.414,-131.5 1037.41,-131.5 1037.41,-112.5 945.414,-112.5"/>
<text text-anchor="middle" x="991.414" y="-119.5" font-family="Helvetica,sans-Serif" font-size="10.00">glm/gtx/norm.hpp</text>
</g>
<!-- Node27&#45;&gt;Node32 -->
<g id="edge41" class="edge"><title>Node27&#45;&gt;Node32</title>
<path fill="none" stroke="midnightblue" d="M1059.4,-168.324C1046.88,-159.979 1027.73,-147.212 1012.94,-137.352"/>
<polygon fill="midnightblue" stroke="midnightblue" points="1014.66,-134.289 1004.4,-131.655 1010.78,-140.114 1014.66,-134.289"/>
</g>
<!-- Node33 -->
<g id="node33" class="node"><title>Node33</title>
<polygon fill="white" stroke="#bfbfbf" points="1055.41,-112.5 1055.41,-131.5 1095.41,-131.5 1095.41,-112.5 1055.41,-112.5"/>
<text text-anchor="middle" x="1075.41" y="-119.5" font-family="Helvetica,sans-Serif" font-size="10.00">limits</text>
</g>
<!-- Node27&#45;&gt;Node33 -->
<g id="edge42" class="edge"><title>Node27&#45;&gt;Node33</title>
<path fill="none" stroke="midnightblue" d="M1072.91,-168.083C1073.3,-161.006 1073.87,-150.861 1074.36,-141.986"/>
<polygon fill="midnightblue" stroke="midnightblue" points="1077.87,-141.93 1074.93,-131.751 1070.88,-141.542 1077.87,-141.93"/>
</g>
<!-- Node34 -->
<g id="node34" class="node"><title>Node34</title>
<polygon fill="white" stroke="#bfbfbf" points="1113.91,-112.5 1113.91,-131.5 1160.91,-131.5 1160.91,-112.5 1113.91,-112.5"/>
<text text-anchor="middle" x="1137.41" y="-119.5" font-family="Helvetica,sans-Serif" font-size="10.00">math.h</text>
</g>
<!-- Node27&#45;&gt;Node34 -->
<g id="edge43" class="edge"><title>Node27&#45;&gt;Node34</title>
<path fill="none" stroke="midnightblue" d="M1082.86,-168.324C1092.56,-160.263 1107.23,-148.077 1118.91,-138.369"/>
<polygon fill="midnightblue" stroke="midnightblue" points="1121.33,-140.916 1126.78,-131.834 1116.85,-135.532 1121.33,-140.916"/>
</g>
<!-- Node36&#45;&gt;Node4 -->
<g id="edge49" class="edge"><title>Node36&#45;&gt;Node4</title>
<path fill="none" stroke="midnightblue" d="M898.55,-280.248C895.731,-257.04 884.528,-193.931 844.414,-168 756.128,-110.928 711.844,-152.548 604.562,-131.895"/>
<polygon fill="midnightblue" stroke="midnightblue" points="605.175,-128.447 594.674,-129.85 603.758,-135.302 605.175,-128.447"/>
</g>
<!-- Node36&#45;&gt;Node6 -->
<g id="edge50" class="edge"><title>Node36&#45;&gt;Node6</title>
<path fill="none" stroke="midnightblue" d="M852.066,-283.652C804.65,-277.207 736.473,-264.595 720.414,-244 697.432,-214.525 781.664,-195.557 756.414,-168 727.019,-135.917 423.823,-139.274 346.998,-131.586"/>
<polygon fill="midnightblue" stroke="midnightblue" points="347.055,-128.064 336.688,-130.25 346.155,-135.006 347.055,-128.064"/>
</g>
<!-- Node36&#45;&gt;Node35 -->
<g id="edge57" class="edge"><title>Node36&#45;&gt;Node35</title>
<path fill="none" stroke="midnightblue" d="M923.024,-280.444C947.872,-271.438 987.189,-257.189 1015.17,-247.049"/>
<polygon fill="midnightblue" stroke="midnightblue" points="1016.71,-250.214 1024.92,-243.516 1014.32,-243.633 1016.71,-250.214"/>
</g>
<!-- Node37 -->
<g id="node37" class="node"><title>Node37</title>
<g id="a_node37"><a xlink:href="ICharacter_8h.html" target="_top" xlink:title="ICharacter.h">
<polygon fill="white" stroke="black" points="729.914,-224.5 729.914,-243.5 800.914,-243.5 800.914,-224.5 729.914,-224.5"/>
<text text-anchor="middle" x="765.414" y="-231.5" font-family="Helvetica,sans-Serif" font-size="10.00">ICharacter.h</text>
</a>
</g>
</g>
<!-- Node36&#45;&gt;Node37 -->
<g id="edge51" class="edge"><title>Node36&#45;&gt;Node37</title>
<path fill="none" stroke="midnightblue" d="M878.182,-280.444C856.031,-271.517 821.096,-257.439 795.978,-247.317"/>
<polygon fill="midnightblue" stroke="midnightblue" points="797.131,-244.008 786.548,-243.516 794.515,-250.501 797.131,-244.008"/>
</g>
<!-- Node38 -->
<g id="node38" class="node"><title>Node38</title>
<g id="a_node38"><a xlink:href="Entry_8h.html" target="_top" xlink:title="aggro/Entry.h">
<polygon fill="white" stroke="black" points="927.914,-224.5 927.914,-243.5 1002.91,-243.5 1002.91,-224.5 927.914,-224.5"/>
<text text-anchor="middle" x="965.414" y="-231.5" font-family="Helvetica,sans-Serif" font-size="10.00">aggro/Entry.h</text>
</a>
</g>
</g>
<!-- Node36&#45;&gt;Node38 -->
<g id="edge58" class="edge"><title>Node36&#45;&gt;Node38</title>
<path fill="none" stroke="midnightblue" d="M910.018,-280.324C919.871,-272.263 934.765,-260.077 946.63,-250.369"/>
<polygon fill="midnightblue" stroke="midnightblue" points="949.094,-252.875 954.617,-243.834 944.662,-247.457 949.094,-252.875"/>
</g>
<!-- Node37&#45;&gt;Node6 -->
<g id="edge56" class="edge"><title>Node37&#45;&gt;Node6</title>
<path fill="none" stroke="midnightblue" d="M773.603,-224.329C785.457,-210.732 804.42,-184.271 789.414,-168 757.433,-133.32 427.409,-139.488 346.716,-131.548"/>
<polygon fill="midnightblue" stroke="midnightblue" points="347.047,-128.062 336.685,-130.268 346.161,-135.006 347.047,-128.062"/>
</g>
<!-- Node37&#45;&gt;Node9 -->
<g id="edge54" class="edge"><title>Node37&#45;&gt;Node9</title>
<path fill="none" stroke="midnightblue" d="M800.946,-224.635C837.919,-214.28 887.564,-194.689 865.414,-168 839.37,-136.618 730.208,-140.733 674.758,-131.86"/>
<polygon fill="midnightblue" stroke="midnightblue" points="675.218,-128.385 664.743,-129.97 673.92,-135.264 675.218,-128.385"/>
</g>
<!-- Node37&#45;&gt;Node19 -->
<g id="edge55" class="edge"><title>Node37&#45;&gt;Node19</title>
<path fill="none" stroke="midnightblue" d="M758.644,-224.083C752.853,-216.455 744.356,-205.264 737.277,-195.941"/>
<polygon fill="midnightblue" stroke="midnightblue" points="739.893,-193.599 731.059,-187.751 734.318,-197.832 739.893,-193.599"/>
</g>
<!-- Node37&#45;&gt;Node24 -->
<g id="edge52" class="edge"><title>Node37&#45;&gt;Node24</title>
<path fill="none" stroke="midnightblue" d="M784.288,-224.372C808.629,-212.111 845.777,-188.818 827.414,-168 786.945,-122.118 620.867,-138.362 543.447,-132.009"/>
<polygon fill="midnightblue" stroke="midnightblue" points="543.438,-128.49 533.134,-130.953 542.726,-135.453 543.438,-128.49"/>
</g>
<!-- Node37&#45;&gt;Node27 -->
<g id="edge53" class="edge"><title>Node37&#45;&gt;Node27</title>
<path fill="none" stroke="midnightblue" d="M801.259,-225.739C804.353,-225.14 807.438,-224.553 810.414,-224 892.385,-208.766 989.135,-192.624 1038.99,-184.441"/>
<polygon fill="midnightblue" stroke="midnightblue" points="1039.59,-187.89 1048.89,-182.819 1038.46,-180.982 1039.59,-187.89"/>
</g>
<!-- Node38&#45;&gt;Node9 -->
<g id="edge59" class="edge"><title>Node38&#45;&gt;Node9</title>
<path fill="none" stroke="midnightblue" d="M957.171,-224.174C943.248,-209.861 913.534,-181.803 882.414,-168 799.114,-131.052 767.676,-150.361 674.551,-132.037"/>
<polygon fill="midnightblue" stroke="midnightblue" points="675.234,-128.604 664.734,-130.012 673.82,-135.46 675.234,-128.604"/>
</g>
</g>
</svg>
        <g id="navigator" transform="translate(0 0)" fill="#404254">
                <rect fill="#f2f5e9" fill-opacity="0.5" stroke="#606060" stroke-width=".5" x="0" y="0" width="60" height="60"/>
                <use id="zoomplus" xlink:href="#zoomPlus" x="17" y="9" onmousedown="handleZoom(evt,'in')"/>
                <use id="zoomminus" xlink:href="#zoomMin" x="42" y="9" onmousedown="handleZoom(evt,'out')"/>
                <use id="reset" xlink:href="#resetDef" x="30" y="36" onmousedown="handleReset()"/>
                <g id="arrowUp" xlink:href="#dirArrow" transform="translate(30 24)" onmousedown="handlePan(0,-1)">
                  <use xlink:href="#rim" fill="#404040">
                        <set attributeName="fill" to="#808080" begin="arrowUp.mouseover" end="arrowUp.mouseout"/>
                  </use>
                  <path fill="none" stroke="white" stroke-width="1.5" d="M0,-3.0v7 M-2.5,-0.5L0,-3.0L2.5,-0.5"/>
                </g>
                <g id="arrowRight" xlink:href="#dirArrow" transform="rotate(90) translate(36 -43)" onmousedown="handlePan(1,0)">
                  <use xlink:href="#rim" fill="#404040">
                        <set attributeName="fill" to="#808080" begin="arrowRight.mouseover" end="arrowRight.mouseout"/>
                  </use>
                  <path fill="none" stroke="white" stroke-width="1.5" d="M0,-3.0v7 M-2.5,-0.5L0,-3.0L2.5,-0.5"/>
                </g>
                <g id="arrowDown" xlink:href="#dirArrow" transform="rotate(180) translate(-30 -48)" onmousedown="handlePan(0,1)">
                  <use xlink:href="#rim" fill="#404040">
                        <set attributeName="fill" to="#808080" begin="arrowDown.mouseover" end="arrowDown.mouseout"/>
                  </use>
                  <path fill="none" stroke="white" stroke-width="1.5" d="M0,-3.0v7 M-2.5,-0.5L0,-3.0L2.5,-0.5"/>
                </g>
                <g id="arrowLeft" xlink:href="#dirArrow" transform="rotate(270) translate(-36 17)" onmousedown="handlePan(-1,0)">
                  <use xlink:href="#rim" fill="#404040">
                        <set attributeName="fill" to="#808080" begin="arrowLeft.mouseover" end="arrowLeft.mouseout"/>
                  </use>
                  <path fill="none" stroke="white" stroke-width="1.5" d="M0,-3.0v7 M-2.5,-0.5L0,-3.0L2.5,-0.5"/>
                </g>
        </g>
        <svg viewBox="0 0 15 15" width="100%" height="30px" preserveAspectRatio="xMaxYMin meet">
         <g id="arrow_out" transform="scale(0.3 0.3)">
          <a xlink:href="HasEnemies_8h__incl_org.svg" target="_base">
           <rect id="button" ry="5" rx="5" y="6" x="6" height="38" width="38"
                fill="#f2f5e9" fill-opacity="0.5" stroke="#606060" stroke-width="1.0"/>
           <path id="arrow"
             d="M 11.500037,31.436501 C 11.940474,20.09759 22.043105,11.32322 32.158766,21.979434 L 37.068811,17.246167 C 37.068811,17.246167 37.088388,32 37.088388,32 L 22.160133,31.978069 C 22.160133,31.978069 26.997745,27.140456 26.997745,27.140456 C 18.528582,18.264221 13.291696,25.230495 11.500037,31.436501 z"
             style="fill:#404040;"/>
          </a>
         </g>
        </svg>
</svg>
