<?xml version="1.0" encoding="UTF-8" standalone="no"?>
<!DOCTYPE svg PUBLIC "-//W3C//DTD SVG 1.1//EN"
 "http://www.w3.org/Graphics/SVG/1.1/DTD/svg11.dtd">
<!-- Generated by graphviz version 2.36.0 (20140111.2315)
 -->
<!-- Title: /home/travis/build/mgerhardy/simpleai/src/ai/ICharacter.h Pages: 1 -->
<!--zoomable 274 -->
<svg id="main" version="1.1" xmlns="http://www.w3.org/2000/svg" xmlns:xlink="http://www.w3.org/1999/xlink" xml:space="preserve" onload="init(evt)">
<style type="text/css"><![CDATA[
.edge:hover path { stroke: red; }
.edge:hover polygon { stroke: red; fill: red; }
]]></style>
<script type="text/javascript"><![CDATA[
var edges = document.getElementsByTagName('g');
if (edges && edges.length) {
  for (var i=0;i<edges.length;i++) {
    if (edges[i].id.substr(0,4)=='edge') {
      edges[i].setAttribute('class','edge');
    }
  }
}
]]></script>
        <defs>
                <circle id="rim" cx="0" cy="0" r="7"/>
                <circle id="rim2" cx="0" cy="0" r="3.5"/>
                <g id="zoomPlus">
                        <use xlink:href="#rim" fill="#404040">
                                <set attributeName="fill" to="#808080" begin="zoomplus.mouseover" end="zoomplus.mouseout"/>
                        </use>
                        <path d="M-4,0h8M0,-4v8" fill="none" stroke="white" stroke-width="1.5" pointer-events="none"/>
                </g>
                <g id="zoomMin">
                        <use xlink:href="#rim" fill="#404040">
                                <set attributeName="fill" to="#808080" begin="zoomminus.mouseover" end="zoomminus.mouseout"/>
                        </use>
                        <path d="M-4,0h8" fill="none" stroke="white" stroke-width="1.5" pointer-events="none"/>
                </g>
                <g id="dirArrow">
                        <path fill="none" stroke="white" stroke-width="1.5" d="M0,-3.0v7 M-2.5,-0.5L0,-3.0L2.5,-0.5"/>
                </g>
               <g id="resetDef">
                       <use xlink:href="#rim2" fill="#404040">
                               <set attributeName="fill" to="#808080" begin="reset.mouseover" end="reset.mouseout"/>
                       </use>
               </g>
        </defs>

<script type="text/javascript">
var viewWidth = 933;
var viewHeight = 274;
var sectionId = 'dynsection-0';
</script>
<script xlink:href="svgpan.js"/>
<svg id="graph" class="graph">
<g id="viewport">
<title>/home/travis/build/mgerhardy/simpleai/src/ai/ICharacter.h</title>
<polygon fill="white" stroke="none" points="-4,4 -4,-270 929,-270 929,4 -4,4"/>
<!-- Node1 -->
<g id="node1" class="node"><title>Node1</title>
<polygon fill="#bfbfbf" stroke="black" points="446,-224.5 446,-265.5 550,-265.5 550,-224.5 446,-224.5"/>
<text text-anchor="start" x="454" y="-253.5" font-family="Helvetica,sans-Serif" font-size="10.00">/home/travis/build</text>
<text text-anchor="start" x="454" y="-242.5" font-family="Helvetica,sans-Serif" font-size="10.00">/mgerhardy/simpleai</text>
<text text-anchor="middle" x="498" y="-231.5" font-family="Helvetica,sans-Serif" font-size="10.00">/src/ai/ICharacter.h</text>
</g>
<!-- Node2 -->
<g id="node2" class="node"><title>Node2</title>
<g id="a_node2"><a xlink:href="NonCopyable_8h.html" target="_top" xlink:title="common/NonCopyable.h">
<polygon fill="white" stroke="black" points="272.5,-168.5 272.5,-187.5 397.5,-187.5 397.5,-168.5 272.5,-168.5"/>
<text text-anchor="middle" x="335" y="-175.5" font-family="Helvetica,sans-Serif" font-size="10.00">common/NonCopyable.h</text>
</a>
</g>
</g>
<!-- Node1&#45;&gt;Node2 -->
<g id="edge1" class="edge"><title>Node1&#45;&gt;Node2</title>
<path fill="none" stroke="midnightblue" d="M449.095,-224.498C422.181,-213.766 389.59,-200.769 366.143,-191.419"/>
<polygon fill="midnightblue" stroke="midnightblue" points="367.283,-188.106 356.698,-187.652 364.69,-194.608 367.283,-188.106"/>
</g>
<!-- Node3 -->
<g id="node3" class="node"><title>Node3</title>
<g id="a_node3"><a xlink:href="Math_8h.html" target="_top" xlink:title="common/Math.h">
<polygon fill="white" stroke="black" points="454.5,-168.5 454.5,-187.5 541.5,-187.5 541.5,-168.5 454.5,-168.5"/>
<text text-anchor="middle" x="498" y="-175.5" font-family="Helvetica,sans-Serif" font-size="10.00">common/Math.h</text>
</a>
</g>
</g>
<!-- Node1&#45;&gt;Node3 -->
<g id="edge2" class="edge"><title>Node1&#45;&gt;Node3</title>
<path fill="none" stroke="midnightblue" d="M498,-224.498C498,-216.065 498,-206.235 498,-197.874"/>
<polygon fill="midnightblue" stroke="midnightblue" points="501.5,-197.652 498,-187.652 494.5,-197.653 501.5,-197.652"/>
</g>
<!-- Node4 -->
<g id="node4" class="node"><title>Node4</title>
<g id="a_node4"><a xlink:href="Types_8h.html" target="_top" xlink:title="Types.h">
<polygon fill="white" stroke="black" points="158,-112.5 158,-131.5 210,-131.5 210,-112.5 158,-112.5"/>
<text text-anchor="middle" x="184" y="-119.5" font-family="Helvetica,sans-Serif" font-size="10.00">Types.h</text>
</a>
</g>
</g>
<!-- Node1&#45;&gt;Node4 -->
<g id="edge20" class="edge"><title>Node1&#45;&gt;Node4</title>
<path fill="none" stroke="midnightblue" d="M479.904,-224.236C462.648,-206.661 435.049,-181.687 406,-168 332.277,-133.264 303.714,-149.241 220.234,-132.091"/>
<polygon fill="midnightblue" stroke="midnightblue" points="220.844,-128.642 210.331,-129.956 219.369,-135.485 220.844,-128.642"/>
</g>
<!-- Node20 -->
<g id="node20" class="node"><title>Node20</title>
<polygon fill="white" stroke="#bfbfbf" points="560,-168.5 560,-187.5 606,-187.5 606,-168.5 560,-168.5"/>
<text text-anchor="middle" x="583" y="-175.5" font-family="Helvetica,sans-Serif" font-size="10.00">atomic</text>
</g>
<!-- Node1&#45;&gt;Node20 -->
<g id="edge21" class="edge"><title>Node1&#45;&gt;Node20</title>
<path fill="none" stroke="midnightblue" d="M523.503,-224.498C536.41,-214.628 551.82,-202.843 563.724,-193.741"/>
<polygon fill="midnightblue" stroke="midnightblue" points="565.868,-196.507 571.685,-187.652 561.616,-190.947 565.868,-196.507"/>
</g>
<!-- Node21 -->
<g id="node21" class="node"><title>Node21</title>
<polygon fill="white" stroke="#bfbfbf" points="624,-168.5 624,-187.5 676,-187.5 676,-168.5 624,-168.5"/>
<text text-anchor="middle" x="650" y="-175.5" font-family="Helvetica,sans-Serif" font-size="10.00">memory</text>
</g>
<!-- Node1&#45;&gt;Node21 -->
<g id="edge22" class="edge"><title>Node1&#45;&gt;Node21</title>
<path fill="none" stroke="midnightblue" d="M543.605,-224.498C568.478,-213.861 598.551,-201.001 620.371,-191.67"/>
<polygon fill="midnightblue" stroke="midnightblue" points="621.948,-194.803 629.766,-187.652 619.196,-188.366 621.948,-194.803"/>
</g>
<!-- Node3&#45;&gt;Node4 -->
<g id="edge3" class="edge"><title>Node3&#45;&gt;Node4</title>
<path fill="none" stroke="midnightblue" d="M454.47,-170.204C387.931,-159.786 264.68,-140.357 220.397,-132.035"/>
<polygon fill="midnightblue" stroke="midnightblue" points="220.802,-128.548 210.313,-130.042 219.444,-135.415 220.802,-128.548"/>
</g>
<!-- Node13 -->
<g id="node13" class="node"><title>Node13</title>
<polygon fill="white" stroke="#bfbfbf" points="228,-112.5 228,-131.5 298,-131.5 298,-112.5 228,-112.5"/>
<text text-anchor="middle" x="263" y="-119.5" font-family="Helvetica,sans-Serif" font-size="10.00">glm/glm.hpp</text>
</g>
<!-- Node3&#45;&gt;Node13 -->
<g id="edge13" class="edge"><title>Node3&#45;&gt;Node13</title>
<path fill="none" stroke="midnightblue" d="M460.764,-168.444C419.34,-158.925 352.423,-143.548 308.073,-133.357"/>
<polygon fill="midnightblue" stroke="midnightblue" points="308.673,-129.904 298.143,-131.075 307.105,-136.726 308.673,-129.904"/>
</g>
<!-- Node14 -->
<g id="node14" class="node"><title>Node14</title>
<polygon fill="white" stroke="#bfbfbf" points="316.5,-112.5 316.5,-131.5 429.5,-131.5 429.5,-112.5 316.5,-112.5"/>
<text text-anchor="middle" x="373" y="-119.5" font-family="Helvetica,sans-Serif" font-size="10.00">glm/gtc/constants.hpp</text>
</g>
<!-- Node3&#45;&gt;Node14 -->
<g id="edge14" class="edge"><title>Node3&#45;&gt;Node14</title>
<path fill="none" stroke="midnightblue" d="M478.193,-168.444C457.713,-159.596 425.517,-145.687 402.135,-135.586"/>
<polygon fill="midnightblue" stroke="midnightblue" points="403.282,-132.269 392.714,-131.516 400.506,-138.695 403.282,-132.269"/>
</g>
<!-- Node15 -->
<g id="node15" class="node"><title>Node15</title>
<polygon fill="white" stroke="#bfbfbf" points="447.5,-112.5 447.5,-131.5 548.5,-131.5 548.5,-112.5 447.5,-112.5"/>
<text text-anchor="middle" x="498" y="-119.5" font-family="Helvetica,sans-Serif" font-size="10.00">glm/gtc/epsilon.hpp</text>
</g>
<!-- Node3&#45;&gt;Node15 -->
<g id="edge15" class="edge"><title>Node3&#45;&gt;Node15</title>
<path fill="none" stroke="midnightblue" d="M498,-168.083C498,-161.006 498,-150.861 498,-141.986"/>
<polygon fill="midnightblue" stroke="midnightblue" points="501.5,-141.751 498,-131.751 494.5,-141.751 501.5,-141.751"/>
</g>
<!-- Node16 -->
<g id="node16" class="node"><title>Node16</title>
<polygon fill="white" stroke="#bfbfbf" points="566.5,-112.5 566.5,-131.5 691.5,-131.5 691.5,-112.5 566.5,-112.5"/>
<text text-anchor="middle" x="629" y="-119.5" font-family="Helvetica,sans-Serif" font-size="10.00">glm/gtx/compatibility.hpp</text>
</g>
<!-- Node3&#45;&gt;Node16 -->
<g id="edge16" class="edge"><title>Node3&#45;&gt;Node16</title>
<path fill="none" stroke="midnightblue" d="M518.757,-168.444C540.316,-159.557 574.263,-145.563 598.794,-135.451"/>
<polygon fill="midnightblue" stroke="midnightblue" points="600.428,-138.563 608.34,-131.516 597.761,-132.092 600.428,-138.563"/>
</g>
<!-- Node17 -->
<g id="node17" class="node"><title>Node17</title>
<polygon fill="white" stroke="#bfbfbf" points="710,-112.5 710,-131.5 802,-131.5 802,-112.5 710,-112.5"/>
<text text-anchor="middle" x="756" y="-119.5" font-family="Helvetica,sans-Serif" font-size="10.00">glm/gtx/norm.hpp</text>
</g>
<!-- Node3&#45;&gt;Node17 -->
<g id="edge17" class="edge"><title>Node3&#45;&gt;Node17</title>
<path fill="none" stroke="midnightblue" d="M538.881,-168.444C583.983,-159.004 656.612,-143.802 705.302,-133.611"/>
<polygon fill="midnightblue" stroke="midnightblue" points="706.24,-136.991 715.31,-131.516 704.805,-130.139 706.24,-136.991"/>
</g>
<!-- Node18 -->
<g id="node18" class="node"><title>Node18</title>
<polygon fill="white" stroke="#bfbfbf" points="820,-112.5 820,-131.5 860,-131.5 860,-112.5 820,-112.5"/>
<text text-anchor="middle" x="840" y="-119.5" font-family="Helvetica,sans-Serif" font-size="10.00">limits</text>
</g>
<!-- Node3&#45;&gt;Node18 -->
<g id="edge18" class="edge"><title>Node3&#45;&gt;Node18</title>
<path fill="none" stroke="midnightblue" d="M541.656,-169.478C544.816,-168.967 547.956,-168.469 551,-168 663.144,-150.719 695.385,-157.001 809.969,-131.912"/>
<polygon fill="midnightblue" stroke="midnightblue" points="810.829,-135.307 819.832,-129.721 809.311,-128.473 810.829,-135.307"/>
</g>
<!-- Node19 -->
<g id="node19" class="node"><title>Node19</title>
<polygon fill="white" stroke="#bfbfbf" points="878.5,-112.5 878.5,-131.5 925.5,-131.5 925.5,-112.5 878.5,-112.5"/>
<text text-anchor="middle" x="902" y="-119.5" font-family="Helvetica,sans-Serif" font-size="10.00">math.h</text>
</g>
<!-- Node3&#45;&gt;Node19 -->
<g id="edge19" class="edge"><title>Node3&#45;&gt;Node19</title>
<path fill="none" stroke="midnightblue" d="M541.643,-169.392C544.806,-168.901 547.95,-168.431 551,-168 688.672,-148.533 727.574,-158.326 868.435,-131.815"/>
<polygon fill="midnightblue" stroke="midnightblue" points="869.143,-135.243 878.309,-129.929 867.83,-128.367 869.143,-135.243"/>
</g>
<!-- Node5 -->
<g id="node5" class="node"><title>Node5</title>
<g id="a_node5"><a xlink:href="Log_8h.html" target="_top" xlink:title="Log.h">
<polygon fill="white" stroke="black" points="64.5,-56.5 64.5,-75.5 105.5,-75.5 105.5,-56.5 64.5,-56.5"/>
<text text-anchor="middle" x="85" y="-63.5" font-family="Helvetica,sans-Serif" font-size="10.00">Log.h</text>
</a>
</g>
</g>
<!-- Node4&#45;&gt;Node5 -->
<g id="edge4" class="edge"><title>Node4&#45;&gt;Node5</title>
<path fill="none" stroke="midnightblue" d="M168.094,-112.324C152.362,-103.743 128.058,-90.486 109.791,-80.5224"/>
<polygon fill="midnightblue" stroke="midnightblue" points="111.322,-77.3704 100.867,-75.6545 107.97,-83.5157 111.322,-77.3704"/>
</g>
<!-- Node6 -->
<g id="node6" class="node"><title>Node6</title>
<polygon fill="white" stroke="#bfbfbf" points="0,-0.5 0,-19.5 46,-19.5 46,-0.5 0,-0.5"/>
<text text-anchor="middle" x="23" y="-7.5" font-family="Helvetica,sans-Serif" font-size="10.00">stdio.h</text>
</g>
<!-- Node4&#45;&gt;Node6 -->
<g id="edge11" class="edge"><title>Node4&#45;&gt;Node6</title>
<path fill="none" stroke="midnightblue" d="M157.798,-117.817C129.425,-113.134 84.3075,-101.938 55,-76 41.1893,-63.7772 32.7014,-44.2326 27.9695,-29.7631"/>
<polygon fill="midnightblue" stroke="midnightblue" points="31.2441,-28.4935 25.0572,-19.8928 24.5303,-30.4745 31.2441,-28.4935"/>
</g>
<!-- Node9 -->
<g id="node9" class="node"><title>Node9</title>
<polygon fill="white" stroke="#bfbfbf" points="123.5,-56.5 123.5,-75.5 164.5,-75.5 164.5,-56.5 123.5,-56.5"/>
<text text-anchor="middle" x="144" y="-63.5" font-family="Helvetica,sans-Serif" font-size="10.00">string</text>
</g>
<!-- Node4&#45;&gt;Node9 -->
<g id="edge8" class="edge"><title>Node4&#45;&gt;Node9</title>
<path fill="none" stroke="midnightblue" d="M177.395,-112.083C171.745,-104.455 163.455,-93.2645 156.549,-83.9408"/>
<polygon fill="midnightblue" stroke="midnightblue" points="159.247,-81.7034 150.482,-75.7511 153.622,-85.87 159.247,-81.7034"/>
</g>
<!-- Node10 -->
<g id="node10" class="node"><title>Node10</title>
<polygon fill="white" stroke="#bfbfbf" points="182.5,-56.5 182.5,-75.5 265.5,-75.5 265.5,-56.5 182.5,-56.5"/>
<text text-anchor="middle" x="224" y="-63.5" font-family="Helvetica,sans-Serif" font-size="10.00">unordered_map</text>
</g>
<!-- Node4&#45;&gt;Node10 -->
<g id="edge9" class="edge"><title>Node4&#45;&gt;Node10</title>
<path fill="none" stroke="midnightblue" d="M190.605,-112.083C196.255,-104.455 204.545,-93.2645 211.451,-83.9408"/>
<polygon fill="midnightblue" stroke="midnightblue" points="214.378,-85.87 217.518,-75.7511 208.753,-81.7034 214.378,-85.87"/>
</g>
<!-- Node11 -->
<g id="node11" class="node"><title>Node11</title>
<polygon fill="white" stroke="#bfbfbf" points="284,-56.5 284,-75.5 336,-75.5 336,-56.5 284,-56.5"/>
<text text-anchor="middle" x="310" y="-63.5" font-family="Helvetica,sans-Serif" font-size="10.00">assert.h</text>
</g>
<!-- Node4&#45;&gt;Node11 -->
<g id="edge10" class="edge"><title>Node4&#45;&gt;Node11</title>
<path fill="none" stroke="midnightblue" d="M203.965,-112.444C224.609,-103.596 257.063,-89.6875 280.632,-79.5865"/>
<polygon fill="midnightblue" stroke="midnightblue" points="282.316,-82.6727 290.128,-75.5164 279.558,-76.2387 282.316,-82.6727"/>
</g>
<!-- Node12 -->
<g id="node12" class="node"><title>Node12</title>
<polygon fill="white" stroke="#bfbfbf" points="354.5,-56.5 354.5,-75.5 413.5,-75.5 413.5,-56.5 354.5,-56.5"/>
<text text-anchor="middle" x="384" y="-63.5" font-family="Helvetica,sans-Serif" font-size="10.00">inttypes.h</text>
</g>
<!-- Node4&#45;&gt;Node12 -->
<g id="edge12" class="edge"><title>Node4&#45;&gt;Node12</title>
<path fill="none" stroke="midnightblue" d="M210.147,-113.94C244.336,-104.709 304.547,-88.4524 344.361,-77.7026"/>
<polygon fill="midnightblue" stroke="midnightblue" points="345.522,-81.0145 354.264,-75.0288 343.697,-74.2565 345.522,-81.0145"/>
</g>
<!-- Node5&#45;&gt;Node6 -->
<g id="edge5" class="edge"><title>Node5&#45;&gt;Node6</title>
<path fill="none" stroke="midnightblue" d="M75.0386,-56.324C65.8734,-48.3414 52.0628,-36.3128 40.9718,-26.6529"/>
<polygon fill="midnightblue" stroke="midnightblue" points="42.9822,-23.7624 33.1426,-19.8339 38.3847,-29.041 42.9822,-23.7624"/>
</g>
<!-- Node7 -->
<g id="node7" class="node"><title>Node7</title>
<polygon fill="white" stroke="#bfbfbf" points="64,-0.5 64,-19.5 116,-19.5 116,-0.5 64,-0.5"/>
<text text-anchor="middle" x="90" y="-7.5" font-family="Helvetica,sans-Serif" font-size="10.00">stdarg.h</text>
</g>
<!-- Node5&#45;&gt;Node7 -->
<g id="edge6" class="edge"><title>Node5&#45;&gt;Node7</title>
<path fill="none" stroke="midnightblue" d="M85.8256,-56.083C86.4809,-49.0059 87.4203,-38.8611 88.242,-29.9865"/>
<polygon fill="midnightblue" stroke="midnightblue" points="91.7527,-30.0312 89.1897,-19.7511 84.7826,-29.3858 91.7527,-30.0312"/>
</g>
<!-- Node8 -->
<g id="node8" class="node"><title>Node8</title>
<polygon fill="white" stroke="#bfbfbf" points="134.5,-0.5 134.5,-19.5 183.5,-19.5 183.5,-0.5 134.5,-0.5"/>
<text text-anchor="middle" x="159" y="-7.5" font-family="Helvetica,sans-Serif" font-size="10.00">string.h</text>
</g>
<!-- Node5&#45;&gt;Node8 -->
<g id="edge7" class="edge"><title>Node5&#45;&gt;Node8</title>
<path fill="none" stroke="midnightblue" d="M96.8894,-56.324C108.15,-48.1066 125.287,-35.6017 138.709,-25.8069"/>
<polygon fill="midnightblue" stroke="midnightblue" points="140.88,-28.5559 146.894,-19.8339 136.753,-22.9014 140.88,-28.5559"/>
</g>
</g>
</svg>
        <g id="navigator" transform="translate(0 0)" fill="#404254">
                <rect fill="#f2f5e9" fill-opacity="0.5" stroke="#606060" stroke-width=".5" x="0" y="0" width="60" height="60"/>
                <use id="zoomplus" xlink:href="#zoomPlus" x="17" y="9" onmousedown="handleZoom(evt,'in')"/>
                <use id="zoomminus" xlink:href="#zoomMin" x="42" y="9" onmousedown="handleZoom(evt,'out')"/>
                <use id="reset" xlink:href="#resetDef" x="30" y="36" onmousedown="handleReset()"/>
                <g id="arrowUp" xlink:href="#dirArrow" transform="translate(30 24)" onmousedown="handlePan(0,-1)">
                  <use xlink:href="#rim" fill="#404040">
                        <set attributeName="fill" to="#808080" begin="arrowUp.mouseover" end="arrowUp.mouseout"/>
                  </use>
                  <path fill="none" stroke="white" stroke-width="1.5" d="M0,-3.0v7 M-2.5,-0.5L0,-3.0L2.5,-0.5"/>
                </g>
                <g id="arrowRight" xlink:href="#dirArrow" transform="rotate(90) translate(36 -43)" onmousedown="handlePan(1,0)">
                  <use xlink:href="#rim" fill="#404040">
                        <set attributeName="fill" to="#808080" begin="arrowRight.mouseover" end="arrowRight.mouseout"/>
                  </use>
                  <path fill="none" stroke="white" stroke-width="1.5" d="M0,-3.0v7 M-2.5,-0.5L0,-3.0L2.5,-0.5"/>
                </g>
                <g id="arrowDown" xlink:href="#dirArrow" transform="rotate(180) translate(-30 -48)" onmousedown="handlePan(0,1)">
                  <use xlink:href="#rim" fill="#404040">
                        <set attributeName="fill" to="#808080" begin="arrowDown.mouseover" end="arrowDown.mouseout"/>
                  </use>
                  <path fill="none" stroke="white" stroke-width="1.5" d="M0,-3.0v7 M-2.5,-0.5L0,-3.0L2.5,-0.5"/>
                </g>
                <g id="arrowLeft" xlink:href="#dirArrow" transform="rotate(270) translate(-36 17)" onmousedown="handlePan(-1,0)">
                  <use xlink:href="#rim" fill="#404040">
                        <set attributeName="fill" to="#808080" begin="arrowLeft.mouseover" end="arrowLeft.mouseout"/>
                  </use>
                  <path fill="none" stroke="white" stroke-width="1.5" d="M0,-3.0v7 M-2.5,-0.5L0,-3.0L2.5,-0.5"/>
                </g>
        </g>
        <svg viewBox="0 0 15 15" width="100%" height="30px" preserveAspectRatio="xMaxYMin meet">
         <g id="arrow_out" transform="scale(0.3 0.3)">
          <a xlink:href="ICharacter_8h__incl_org.svg" target="_base">
           <rect id="button" ry="5" rx="5" y="6" x="6" height="38" width="38"
                fill="#f2f5e9" fill-opacity="0.5" stroke="#606060" stroke-width="1.0"/>
           <path id="arrow"
             d="M 11.500037,31.436501 C 11.940474,20.09759 22.043105,11.32322 32.158766,21.979434 L 37.068811,17.246167 C 37.068811,17.246167 37.088388,32 37.088388,32 L 22.160133,31.978069 C 22.160133,31.978069 26.997745,27.140456 26.997745,27.140456 C 18.528582,18.264221 13.291696,25.230495 11.500037,31.436501 z"
             style="fill:#404040;"/>
          </a>
         </g>
        </svg>
</svg>
