<?xml version="1.0" encoding="UTF-8" standalone="no"?>
<!DOCTYPE svg PUBLIC "-//W3C//DTD SVG 1.1//EN"
 "http://www.w3.org/Graphics/SVG/1.1/DTD/svg11.dtd">
<!-- Generated by graphviz version 2.36.0 (20140111.2315)
 -->
<!-- Title: /home/travis/build/mgerhardy/simpleai/src/ai/conditions/ICondition.h Pages: 1 -->
<svg width="797pt" height="330pt"
 viewBox="0.00 0.00 797.00 330.00" xmlns="http://www.w3.org/2000/svg" xmlns:xlink="http://www.w3.org/1999/xlink">
<g id="graph0" class="graph" transform="scale(1 1) rotate(0) translate(4 326)">
<title>/home/travis/build/mgerhardy/simpleai/src/ai/conditions/ICondition.h</title>
<polygon fill="white" stroke="none" points="-4,4 -4,-326 793,-326 793,4 -4,4"/>
<!-- Node1 -->
<g id="node1" class="node"><title>Node1</title>
<polygon fill="#bfbfbf" stroke="black" points="440,-280.5 440,-321.5 586,-321.5 586,-280.5 440,-280.5"/>
<text text-anchor="start" x="448" y="-309.5" font-family="Helvetica,sans-Serif" font-size="10.00">/home/travis/build</text>
<text text-anchor="start" x="448" y="-298.5" font-family="Helvetica,sans-Serif" font-size="10.00">/mgerhardy/simpleai</text>
<text text-anchor="middle" x="513" y="-287.5" font-family="Helvetica,sans-Serif" font-size="10.00">/src/ai/conditions/ICondition.h</text>
</g>
<!-- Node2 -->
<g id="node2" class="node"><title>Node2</title>
<polygon fill="white" stroke="#bfbfbf" points="287.5,-56.5 287.5,-75.5 328.5,-75.5 328.5,-56.5 287.5,-56.5"/>
<text text-anchor="middle" x="308" y="-63.5" font-family="Helvetica,sans-Serif" font-size="10.00">string</text>
</g>
<!-- Node1&#45;&gt;Node2 -->
<g id="edge1" class="edge"><title>Node1&#45;&gt;Node2</title>
<path fill="none" stroke="midnightblue" d="M439.985,-281.482C391.827,-265.215 331.939,-236.377 300,-188 279.295,-156.639 291.353,-110.184 300.552,-84.9315"/>
<polygon fill="midnightblue" stroke="midnightblue" points="303.852,-86.1014 304.215,-75.5127 297.328,-83.564 303.852,-86.1014"/>
</g>
<!-- Node3 -->
<g id="node3" class="node"><title>Node3</title>
<polygon fill="white" stroke="#bfbfbf" points="499,-112.5 499,-131.5 543,-131.5 543,-112.5 499,-112.5"/>
<text text-anchor="middle" x="521" y="-119.5" font-family="Helvetica,sans-Serif" font-size="10.00">vector</text>
</g>
<!-- Node1&#45;&gt;Node3 -->
<g id="edge2" class="edge"><title>Node1&#45;&gt;Node3</title>
<path fill="none" stroke="midnightblue" d="M513.887,-280.382C515.437,-246.082 518.62,-175.658 520.147,-141.883"/>
<polygon fill="midnightblue" stroke="midnightblue" points="523.657,-141.732 520.612,-131.584 516.664,-141.416 523.657,-141.732"/>
</g>
<!-- Node4 -->
<g id="node4" class="node"><title>Node4</title>
<polygon fill="white" stroke="#bfbfbf" points="737,-224.5 737,-243.5 789,-243.5 789,-224.5 737,-224.5"/>
<text text-anchor="middle" x="763" y="-231.5" font-family="Helvetica,sans-Serif" font-size="10.00">sstream</text>
</g>
<!-- Node1&#45;&gt;Node4 -->
<g id="edge3" class="edge"><title>Node1&#45;&gt;Node4</title>
<path fill="none" stroke="midnightblue" d="M586.319,-280.937C632.676,-268.884 690.543,-253.839 727.147,-244.322"/>
<polygon fill="midnightblue" stroke="midnightblue" points="728.082,-247.695 736.88,-241.791 726.321,-240.92 728.082,-247.695"/>
</g>
<!-- Node5 -->
<g id="node5" class="node"><title>Node5</title>
<polygon fill="white" stroke="#bfbfbf" points="647,-112.5 647,-131.5 699,-131.5 699,-112.5 647,-112.5"/>
<text text-anchor="middle" x="673" y="-119.5" font-family="Helvetica,sans-Serif" font-size="10.00">memory</text>
</g>
<!-- Node1&#45;&gt;Node5 -->
<g id="edge4" class="edge"><title>Node1&#45;&gt;Node5</title>
<path fill="none" stroke="midnightblue" d="M586.405,-296.288C623.505,-290.237 665.531,-276.095 689,-244 711.425,-213.332 694.59,-166.268 682.488,-140.819"/>
<polygon fill="midnightblue" stroke="midnightblue" points="685.488,-138.994 677.871,-131.63 679.233,-142.137 685.488,-138.994"/>
</g>
<!-- Node6 -->
<g id="node6" class="node"><title>Node6</title>
<g id="a_node6"><a xlink:href="MemoryAllocator_8h.html" target="_top" xlink:title="common/MemoryAllocator.h">
<polygon fill="white" stroke="black" points="541.5,-224.5 541.5,-243.5 680.5,-243.5 680.5,-224.5 541.5,-224.5"/>
<text text-anchor="middle" x="611" y="-231.5" font-family="Helvetica,sans-Serif" font-size="10.00">common/MemoryAllocator.h</text>
</a>
</g>
</g>
<!-- Node1&#45;&gt;Node6 -->
<g id="edge5" class="edge"><title>Node1&#45;&gt;Node6</title>
<path fill="none" stroke="midnightblue" d="M542.403,-280.498C557.573,-270.436 575.743,-258.385 589.57,-249.214"/>
<polygon fill="midnightblue" stroke="midnightblue" points="591.556,-252.097 597.955,-243.652 587.687,-246.263 591.556,-252.097"/>
</g>
<!-- Node7 -->
<g id="node7" class="node"><title>Node7</title>
<g id="a_node7"><a xlink:href="Thread_8h.html" target="_top" xlink:title="common/Thread.h">
<polygon fill="white" stroke="black" points="114.5,-224.5 114.5,-243.5 209.5,-243.5 209.5,-224.5 114.5,-224.5"/>
<text text-anchor="middle" x="162" y="-231.5" font-family="Helvetica,sans-Serif" font-size="10.00">common/Thread.h</text>
</a>
</g>
</g>
<!-- Node1&#45;&gt;Node7 -->
<g id="edge7" class="edge"><title>Node1&#45;&gt;Node7</title>
<path fill="none" stroke="midnightblue" d="M439.846,-286.453C373.847,-274.231 278.164,-256.512 218.055,-245.381"/>
<polygon fill="midnightblue" stroke="midnightblue" points="218.463,-241.897 207.992,-243.517 217.188,-248.78 218.463,-241.897"/>
</g>
<!-- Node19 -->
<g id="node19" class="node"><title>Node19</title>
<g id="a_node19"><a xlink:href="AIFactories_8h.html" target="_top" xlink:title="AIFactories.h">
<polygon fill="white" stroke="black" points="409.5,-224.5 409.5,-243.5 484.5,-243.5 484.5,-224.5 409.5,-224.5"/>
<text text-anchor="middle" x="447" y="-231.5" font-family="Helvetica,sans-Serif" font-size="10.00">AIFactories.h</text>
</a>
</g>
</g>
<!-- Node1&#45;&gt;Node19 -->
<g id="edge20" class="edge"><title>Node1&#45;&gt;Node19</title>
<path fill="none" stroke="midnightblue" d="M493.198,-280.498C483.565,-271.011 472.137,-259.756 463.056,-250.813"/>
<polygon fill="midnightblue" stroke="midnightblue" points="465.366,-248.176 455.786,-243.652 460.455,-253.163 465.366,-248.176"/>
</g>
<!-- Node6&#45;&gt;Node5 -->
<g id="edge6" class="edge"><title>Node6&#45;&gt;Node5</title>
<path fill="none" stroke="midnightblue" d="M615.865,-224.368C626.052,-206.296 649.791,-164.176 663.245,-140.307"/>
<polygon fill="midnightblue" stroke="midnightblue" points="666.296,-142.022 668.158,-131.591 660.198,-138.584 666.296,-142.022"/>
</g>
<!-- Node8 -->
<g id="node8" class="node"><title>Node8</title>
<g id="a_node8"><a xlink:href="Types_8h.html" target="_top" xlink:title="Types.h">
<polygon fill="white" stroke="black" points="163,-112.5 163,-131.5 215,-131.5 215,-112.5 163,-112.5"/>
<text text-anchor="middle" x="189" y="-119.5" font-family="Helvetica,sans-Serif" font-size="10.00">Types.h</text>
</a>
</g>
</g>
<!-- Node7&#45;&gt;Node8 -->
<g id="edge8" class="edge"><title>Node7&#45;&gt;Node8</title>
<path fill="none" stroke="midnightblue" d="M152.132,-224.163C139.419,-211.652 120.068,-188.066 130,-168 136.603,-154.659 149.265,-144.194 161.171,-136.726"/>
<polygon fill="midnightblue" stroke="midnightblue" points="163.118,-139.643 170.016,-131.602 159.609,-133.587 163.118,-139.643"/>
</g>
<!-- Node16 -->
<g id="node16" class="node"><title>Node16</title>
<polygon fill="white" stroke="#bfbfbf" points="203,-168.5 203,-187.5 247,-187.5 247,-168.5 203,-168.5"/>
<text text-anchor="middle" x="225" y="-175.5" font-family="Helvetica,sans-Serif" font-size="10.00">thread</text>
</g>
<!-- Node7&#45;&gt;Node16 -->
<g id="edge17" class="edge"><title>Node7&#45;&gt;Node16</title>
<path fill="none" stroke="midnightblue" d="M172.122,-224.324C181.526,-216.263 195.744,-204.077 207.069,-194.369"/>
<polygon fill="midnightblue" stroke="midnightblue" points="209.379,-196.999 214.694,-187.834 204.823,-191.684 209.379,-196.999"/>
</g>
<!-- Node17 -->
<g id="node17" class="node"><title>Node17</title>
<polygon fill="white" stroke="#bfbfbf" points="39,-168.5 39,-187.5 83,-187.5 83,-168.5 39,-168.5"/>
<text text-anchor="middle" x="61" y="-175.5" font-family="Helvetica,sans-Serif" font-size="10.00">mutex</text>
</g>
<!-- Node7&#45;&gt;Node17 -->
<g id="edge18" class="edge"><title>Node7&#45;&gt;Node17</title>
<path fill="none" stroke="midnightblue" d="M145.773,-224.324C129.649,-215.703 104.7,-202.364 86.0359,-192.386"/>
<polygon fill="midnightblue" stroke="midnightblue" points="87.6561,-189.283 77.1871,-187.655 84.3556,-195.456 87.6561,-189.283"/>
</g>
<!-- Node18 -->
<g id="node18" class="node"><title>Node18</title>
<polygon fill="white" stroke="#bfbfbf" points="139,-168.5 139,-187.5 185,-187.5 185,-168.5 139,-168.5"/>
<text text-anchor="middle" x="162" y="-175.5" font-family="Helvetica,sans-Serif" font-size="10.00">atomic</text>
</g>
<!-- Node7&#45;&gt;Node18 -->
<g id="edge19" class="edge"><title>Node7&#45;&gt;Node18</title>
<path fill="none" stroke="midnightblue" d="M162,-224.083C162,-217.006 162,-206.861 162,-197.986"/>
<polygon fill="midnightblue" stroke="midnightblue" points="165.5,-197.751 162,-187.751 158.5,-197.751 165.5,-197.751"/>
</g>
<!-- Node8&#45;&gt;Node2 -->
<g id="edge13" class="edge"><title>Node8&#45;&gt;Node2</title>
<path fill="none" stroke="midnightblue" d="M207.856,-112.444C227.266,-103.636 257.73,-89.8116 279.965,-79.722"/>
<polygon fill="midnightblue" stroke="midnightblue" points="281.572,-82.836 289.232,-75.5164 278.68,-76.4615 281.572,-82.836"/>
</g>
<!-- Node9 -->
<g id="node9" class="node"><title>Node9</title>
<g id="a_node9"><a xlink:href="Log_8h.html" target="_top" xlink:title="Log.h">
<polygon fill="white" stroke="black" points="228.5,-56.5 228.5,-75.5 269.5,-75.5 269.5,-56.5 228.5,-56.5"/>
<text text-anchor="middle" x="249" y="-63.5" font-family="Helvetica,sans-Serif" font-size="10.00">Log.h</text>
</a>
</g>
</g>
<!-- Node8&#45;&gt;Node9 -->
<g id="edge9" class="edge"><title>Node8&#45;&gt;Node9</title>
<path fill="none" stroke="midnightblue" d="M198.64,-112.324C207.51,-104.341 220.875,-92.3128 231.608,-82.6529"/>
<polygon fill="midnightblue" stroke="midnightblue" points="234.093,-85.1251 239.185,-75.8339 229.41,-79.922 234.093,-85.1251"/>
</g>
<!-- Node13 -->
<g id="node13" class="node"><title>Node13</title>
<polygon fill="white" stroke="#bfbfbf" points="-0.5,-56.5 -0.5,-75.5 82.5,-75.5 82.5,-56.5 -0.5,-56.5"/>
<text text-anchor="middle" x="41" y="-63.5" font-family="Helvetica,sans-Serif" font-size="10.00">unordered_map</text>
</g>
<!-- Node8&#45;&gt;Node13 -->
<g id="edge14" class="edge"><title>Node8&#45;&gt;Node13</title>
<path fill="none" stroke="midnightblue" d="M165.549,-112.444C140.867,-103.438 101.815,-89.1891 74.0233,-79.049"/>
<polygon fill="midnightblue" stroke="midnightblue" points="74.9352,-75.6561 64.3413,-75.5164 72.5359,-82.2321 74.9352,-75.6561"/>
</g>
<!-- Node14 -->
<g id="node14" class="node"><title>Node14</title>
<polygon fill="white" stroke="#bfbfbf" points="100.5,-56.5 100.5,-75.5 149.5,-75.5 149.5,-56.5 100.5,-56.5"/>
<text text-anchor="middle" x="125" y="-63.5" font-family="Helvetica,sans-Serif" font-size="10.00">cassert</text>
</g>
<!-- Node8&#45;&gt;Node14 -->
<g id="edge15" class="edge"><title>Node8&#45;&gt;Node14</title>
<path fill="none" stroke="midnightblue" d="M178.717,-112.324C169.164,-104.263 154.72,-92.0765 143.216,-82.3695"/>
<polygon fill="midnightblue" stroke="midnightblue" points="145.37,-79.6076 135.47,-75.8339 140.856,-84.9577 145.37,-79.6076"/>
</g>
<!-- Node15 -->
<g id="node15" class="node"><title>Node15</title>
<polygon fill="white" stroke="#bfbfbf" points="167.5,-56.5 167.5,-75.5 210.5,-75.5 210.5,-56.5 167.5,-56.5"/>
<text text-anchor="middle" x="189" y="-63.5" font-family="Helvetica,sans-Serif" font-size="10.00">cstdio</text>
</g>
<!-- Node8&#45;&gt;Node15 -->
<g id="edge16" class="edge"><title>Node8&#45;&gt;Node15</title>
<path fill="none" stroke="midnightblue" d="M189,-112.083C189,-105.006 189,-94.8611 189,-85.9865"/>
<polygon fill="midnightblue" stroke="midnightblue" points="192.5,-85.751 189,-75.7511 185.5,-85.7511 192.5,-85.751"/>
</g>
<!-- Node10 -->
<g id="node10" class="node"><title>Node10</title>
<polygon fill="white" stroke="#bfbfbf" points="159,-0.5 159,-19.5 205,-19.5 205,-0.5 159,-0.5"/>
<text text-anchor="middle" x="182" y="-7.5" font-family="Helvetica,sans-Serif" font-size="10.00">stdio.h</text>
</g>
<!-- Node9&#45;&gt;Node10 -->
<g id="edge10" class="edge"><title>Node9&#45;&gt;Node10</title>
<path fill="none" stroke="midnightblue" d="M238.235,-56.324C228.234,-48.2631 213.113,-36.0765 201.07,-26.3695"/>
<polygon fill="midnightblue" stroke="midnightblue" points="202.943,-23.3841 192.961,-19.8339 198.55,-28.8343 202.943,-23.3841"/>
</g>
<!-- Node11 -->
<g id="node11" class="node"><title>Node11</title>
<polygon fill="white" stroke="#bfbfbf" points="223,-0.5 223,-19.5 275,-19.5 275,-0.5 223,-0.5"/>
<text text-anchor="middle" x="249" y="-7.5" font-family="Helvetica,sans-Serif" font-size="10.00">stdarg.h</text>
</g>
<!-- Node9&#45;&gt;Node11 -->
<g id="edge11" class="edge"><title>Node9&#45;&gt;Node11</title>
<path fill="none" stroke="midnightblue" d="M249,-56.083C249,-49.0059 249,-38.8611 249,-29.9865"/>
<polygon fill="midnightblue" stroke="midnightblue" points="252.5,-29.751 249,-19.7511 245.5,-29.7511 252.5,-29.751"/>
</g>
<!-- Node12 -->
<g id="node12" class="node"><title>Node12</title>
<polygon fill="white" stroke="#bfbfbf" points="293.5,-0.5 293.5,-19.5 342.5,-19.5 342.5,-0.5 293.5,-0.5"/>
<text text-anchor="middle" x="318" y="-7.5" font-family="Helvetica,sans-Serif" font-size="10.00">string.h</text>
</g>
<!-- Node9&#45;&gt;Node12 -->
<g id="edge12" class="edge"><title>Node9&#45;&gt;Node12</title>
<path fill="none" stroke="midnightblue" d="M260.086,-56.324C270.486,-48.1849 286.261,-35.8395 298.722,-26.0874"/>
<polygon fill="midnightblue" stroke="midnightblue" points="300.994,-28.7533 306.712,-19.8339 296.68,-23.2407 300.994,-28.7533"/>
</g>
<!-- Node19&#45;&gt;Node3 -->
<g id="edge31" class="edge"><title>Node19&#45;&gt;Node3</title>
<path fill="none" stroke="midnightblue" d="M452.807,-224.368C465.019,-206.215 493.552,-163.802 509.57,-139.99"/>
<polygon fill="midnightblue" stroke="midnightblue" points="512.543,-141.842 515.22,-131.591 506.734,-137.935 512.543,-141.842"/>
</g>
<!-- Node20 -->
<g id="node20" class="node"><title>Node20</title>
<g id="a_node20"><a xlink:href="IAIFactory_8h.html" target="_top" xlink:title="IAIFactory.h">
<polygon fill="white" stroke="black" points="541.5,-168.5 541.5,-187.5 612.5,-187.5 612.5,-168.5 541.5,-168.5"/>
<text text-anchor="middle" x="577" y="-175.5" font-family="Helvetica,sans-Serif" font-size="10.00">IAIFactory.h</text>
</a>
</g>
</g>
<!-- Node19&#45;&gt;Node20 -->
<g id="edge21" class="edge"><title>Node19&#45;&gt;Node20</title>
<path fill="none" stroke="midnightblue" d="M467.599,-224.444C488.993,-215.557 522.681,-201.563 547.024,-191.451"/>
<polygon fill="midnightblue" stroke="midnightblue" points="548.605,-194.585 556.497,-187.516 545.92,-188.12 548.605,-194.585"/>
</g>
<!-- Node22 -->
<g id="node22" class="node"><title>Node22</title>
<g id="a_node22"><a xlink:href="IFactoryRegistry_8h.html" target="_top" xlink:title="common/IFactoryRegistry.h">
<polygon fill="white" stroke="black" points="309,-168.5 309,-187.5 447,-187.5 447,-168.5 309,-168.5"/>
<text text-anchor="middle" x="378" y="-175.5" font-family="Helvetica,sans-Serif" font-size="10.00">common/IFactoryRegistry.h</text>
</a>
</g>
</g>
<!-- Node19&#45;&gt;Node22 -->
<g id="edge26" class="edge"><title>Node19&#45;&gt;Node22</title>
<path fill="none" stroke="midnightblue" d="M435.914,-224.324C425.514,-216.185 409.739,-203.839 397.278,-194.087"/>
<polygon fill="midnightblue" stroke="midnightblue" points="399.32,-191.241 389.288,-187.834 395.006,-196.753 399.32,-191.241"/>
</g>
<!-- Node20&#45;&gt;Node2 -->
<g id="edge23" class="edge"><title>Node20&#45;&gt;Node2</title>
<path fill="none" stroke="midnightblue" d="M576.153,-168.293C574.286,-154.151 568.483,-126.332 551,-112 518.905,-85.6885 396.546,-73.4455 338.676,-69.0339"/>
<polygon fill="midnightblue" stroke="midnightblue" points="338.887,-65.54 328.657,-68.2997 338.375,-72.5213 338.887,-65.54"/>
</g>
<!-- Node20&#45;&gt;Node3 -->
<g id="edge24" class="edge"><title>Node20&#45;&gt;Node3</title>
<path fill="none" stroke="midnightblue" d="M568.003,-168.324C559.806,-160.42 547.494,-148.548 537.528,-138.938"/>
<polygon fill="midnightblue" stroke="midnightblue" points="539.789,-136.256 530.161,-131.834 534.93,-141.295 539.789,-136.256"/>
</g>
<!-- Node20&#45;&gt;Node5 -->
<g id="edge22" class="edge"><title>Node20&#45;&gt;Node5</title>
<path fill="none" stroke="midnightblue" d="M592.424,-168.324C607.54,-159.822 630.815,-146.729 648.471,-136.797"/>
<polygon fill="midnightblue" stroke="midnightblue" points="650.614,-139.608 657.614,-131.655 647.183,-133.507 650.614,-139.608"/>
</g>
<!-- Node21 -->
<g id="node21" class="node"><title>Node21</title>
<polygon fill="white" stroke="#bfbfbf" points="599.5,-112.5 599.5,-131.5 628.5,-131.5 628.5,-112.5 599.5,-112.5"/>
<text text-anchor="middle" x="614" y="-119.5" font-family="Helvetica,sans-Serif" font-size="10.00">list</text>
</g>
<!-- Node20&#45;&gt;Node21 -->
<g id="edge25" class="edge"><title>Node20&#45;&gt;Node21</title>
<path fill="none" stroke="midnightblue" d="M583.11,-168.083C588.282,-160.534 595.846,-149.495 602.194,-140.23"/>
<polygon fill="midnightblue" stroke="midnightblue" points="605.239,-141.979 608.004,-131.751 599.464,-138.022 605.239,-141.979"/>
</g>
<!-- Node22&#45;&gt;Node5 -->
<g id="edge29" class="edge"><title>Node22&#45;&gt;Node5</title>
<path fill="none" stroke="midnightblue" d="M434.053,-168.471C484.404,-160.537 560.566,-147.862 636.483,-131.969"/>
<polygon fill="midnightblue" stroke="midnightblue" points="637.645,-135.301 646.705,-129.809 636.198,-128.452 637.645,-135.301"/>
</g>
<!-- Node22&#45;&gt;Node8 -->
<g id="edge27" class="edge"><title>Node22&#45;&gt;Node8</title>
<path fill="none" stroke="midnightblue" d="M348.052,-168.444C314.705,-158.916 260.815,-143.519 225.148,-133.328"/>
<polygon fill="midnightblue" stroke="midnightblue" points="225.732,-129.855 215.156,-130.473 223.809,-136.586 225.732,-129.855"/>
</g>
<!-- Node23 -->
<g id="node23" class="node"><title>Node23</title>
<g id="a_node23"><a xlink:href="NonCopyable_8h.html" target="_top" xlink:title="common/NonCopyable.h">
<polygon fill="white" stroke="black" points="356.5,-112.5 356.5,-131.5 481.5,-131.5 481.5,-112.5 356.5,-112.5"/>
<text text-anchor="middle" x="419" y="-119.5" font-family="Helvetica,sans-Serif" font-size="10.00">common/NonCopyable.h</text>
</a>
</g>
</g>
<!-- Node22&#45;&gt;Node23 -->
<g id="edge28" class="edge"><title>Node22&#45;&gt;Node23</title>
<path fill="none" stroke="midnightblue" d="M384.77,-168.083C390.562,-160.455 399.058,-149.264 406.138,-139.941"/>
<polygon fill="midnightblue" stroke="midnightblue" points="409.096,-141.832 412.356,-131.751 403.521,-137.599 409.096,-141.832"/>
</g>
<!-- Node24 -->
<g id="node24" class="node"><title>Node24</title>
<polygon fill="white" stroke="#bfbfbf" points="303.5,-112.5 303.5,-131.5 338.5,-131.5 338.5,-112.5 303.5,-112.5"/>
<text text-anchor="middle" x="321" y="-119.5" font-family="Helvetica,sans-Serif" font-size="10.00">map</text>
</g>
<!-- Node22&#45;&gt;Node24 -->
<g id="edge30" class="edge"><title>Node22&#45;&gt;Node24</title>
<path fill="none" stroke="midnightblue" d="M368.842,-168.324C360.499,-160.42 347.968,-148.548 337.823,-138.938"/>
<polygon fill="midnightblue" stroke="midnightblue" points="339.991,-136.171 330.325,-131.834 335.177,-141.252 339.991,-136.171"/>
</g>
</g>
</svg>
