<?xml version="1.0" encoding="UTF-8" standalone="no"?>
<!DOCTYPE svg PUBLIC "-//W3C//DTD SVG 1.1//EN"
 "http://www.w3.org/Graphics/SVG/1.1/DTD/svg11.dtd">
<!-- Generated by graphviz version 2.36.0 (20140111.2315)
 -->
<!-- Title: /home/travis/build/mgerhardy/simpleai/src/ai/common/IFactoryRegistry.h Pages: 1 -->
<svg width="505pt" height="218pt"
 viewBox="0.00 0.00 505.00 218.00" xmlns="http://www.w3.org/2000/svg" xmlns:xlink="http://www.w3.org/1999/xlink">
<g id="graph0" class="graph" transform="scale(1 1) rotate(0) translate(4 214)">
<title>/home/travis/build/mgerhardy/simpleai/src/ai/common/IFactoryRegistry.h</title>
<polygon fill="white" stroke="none" points="-4,4 -4,-214 501,-214 501,4 -4,4"/>
<!-- Node1 -->
<g id="node1" class="node"><title>Node1</title>
<polygon fill="#bfbfbf" stroke="black" points="280,-168.5 280,-209.5 448,-209.5 448,-168.5 280,-168.5"/>
<text text-anchor="start" x="288" y="-197.5" font-family="Helvetica,sans-Serif" font-size="10.00">/home/travis/build</text>
<text text-anchor="start" x="288" y="-186.5" font-family="Helvetica,sans-Serif" font-size="10.00">/mgerhardy/simpleai</text>
<text text-anchor="middle" x="364" y="-175.5" font-family="Helvetica,sans-Serif" font-size="10.00">/src/ai/common/IFactoryRegistry.h</text>
</g>
<!-- Node2 -->
<g id="node2" class="node"><title>Node2</title>
<g id="a_node2"><a xlink:href="Types_8h.html" target="_top" xlink:title="common/Types.h">
<polygon fill="white" stroke="black" points="138,-112.5 138,-131.5 230,-131.5 230,-112.5 138,-112.5"/>
<text text-anchor="middle" x="184" y="-119.5" font-family="Helvetica,sans-Serif" font-size="10.00">common/Types.h</text>
</a>
</g>
</g>
<!-- Node1&#45;&gt;Node2 -->
<g id="edge1" class="edge"><title>Node1&#45;&gt;Node2</title>
<path fill="none" stroke="midnightblue" d="M309.994,-168.498C280.008,-157.67 243.641,-144.537 217.7,-135.17"/>
<polygon fill="midnightblue" stroke="midnightblue" points="218.555,-131.757 207.961,-131.652 216.178,-138.341 218.555,-131.757"/>
</g>
<!-- Node11 -->
<g id="node11" class="node"><title>Node11</title>
<g id="a_node11"><a xlink:href="NonCopyable_8h.html" target="_top" xlink:title="common/NonCopyable.h">
<polygon fill="white" stroke="black" points="248.5,-112.5 248.5,-131.5 373.5,-131.5 373.5,-112.5 248.5,-112.5"/>
<text text-anchor="middle" x="311" y="-119.5" font-family="Helvetica,sans-Serif" font-size="10.00">common/NonCopyable.h</text>
</a>
</g>
</g>
<!-- Node1&#45;&gt;Node11 -->
<g id="edge11" class="edge"><title>Node1&#45;&gt;Node11</title>
<path fill="none" stroke="midnightblue" d="M348.098,-168.498C340.597,-159.299 331.74,-148.436 324.562,-139.632"/>
<polygon fill="midnightblue" stroke="midnightblue" points="327.087,-137.191 318.055,-131.652 321.662,-141.614 327.087,-137.191"/>
</g>
<!-- Node12 -->
<g id="node12" class="node"><title>Node12</title>
<polygon fill="white" stroke="#bfbfbf" points="392,-112.5 392,-131.5 444,-131.5 444,-112.5 392,-112.5"/>
<text text-anchor="middle" x="418" y="-119.5" font-family="Helvetica,sans-Serif" font-size="10.00">memory</text>
</g>
<!-- Node1&#45;&gt;Node12 -->
<g id="edge12" class="edge"><title>Node1&#45;&gt;Node12</title>
<path fill="none" stroke="midnightblue" d="M380.202,-168.498C387.924,-159.203 397.057,-148.21 404.41,-139.358"/>
<polygon fill="midnightblue" stroke="midnightblue" points="407.114,-141.581 410.812,-131.652 401.729,-137.108 407.114,-141.581"/>
</g>
<!-- Node13 -->
<g id="node13" class="node"><title>Node13</title>
<polygon fill="white" stroke="#bfbfbf" points="462.5,-112.5 462.5,-131.5 497.5,-131.5 497.5,-112.5 462.5,-112.5"/>
<text text-anchor="middle" x="480" y="-119.5" font-family="Helvetica,sans-Serif" font-size="10.00">map</text>
</g>
<!-- Node1&#45;&gt;Node13 -->
<g id="edge13" class="edge"><title>Node1&#45;&gt;Node13</title>
<path fill="none" stroke="midnightblue" d="M398.804,-168.498C417.102,-158.245 439.088,-145.925 455.564,-136.693"/>
<polygon fill="midnightblue" stroke="midnightblue" points="457.546,-139.594 464.559,-131.652 454.124,-133.488 457.546,-139.594"/>
</g>
<!-- Node3 -->
<g id="node3" class="node"><title>Node3</title>
<g id="a_node3"><a xlink:href="Log_8h.html" target="_top" xlink:title="Log.h">
<polygon fill="white" stroke="black" points="64.5,-56.5 64.5,-75.5 105.5,-75.5 105.5,-56.5 64.5,-56.5"/>
<text text-anchor="middle" x="85" y="-63.5" font-family="Helvetica,sans-Serif" font-size="10.00">Log.h</text>
</a>
</g>
</g>
<!-- Node2&#45;&gt;Node3 -->
<g id="edge2" class="edge"><title>Node2&#45;&gt;Node3</title>
<path fill="none" stroke="midnightblue" d="M168.094,-112.324C152.362,-103.743 128.058,-90.486 109.791,-80.5224"/>
<polygon fill="midnightblue" stroke="midnightblue" points="111.322,-77.3704 100.867,-75.6545 107.97,-83.5157 111.322,-77.3704"/>
</g>
<!-- Node4 -->
<g id="node4" class="node"><title>Node4</title>
<polygon fill="white" stroke="#bfbfbf" points="0,-0.5 0,-19.5 46,-19.5 46,-0.5 0,-0.5"/>
<text text-anchor="middle" x="23" y="-7.5" font-family="Helvetica,sans-Serif" font-size="10.00">stdio.h</text>
</g>
<!-- Node2&#45;&gt;Node4 -->
<g id="edge9" class="edge"><title>Node2&#45;&gt;Node4</title>
<path fill="none" stroke="midnightblue" d="M137.793,-113.879C110.996,-107.721 78.0907,-96.4359 55,-76 41.1893,-63.7772 32.7014,-44.2326 27.9695,-29.7631"/>
<polygon fill="midnightblue" stroke="midnightblue" points="31.2441,-28.4935 25.0572,-19.8928 24.5303,-30.4745 31.2441,-28.4935"/>
</g>
<!-- Node7 -->
<g id="node7" class="node"><title>Node7</title>
<polygon fill="white" stroke="#bfbfbf" points="123.5,-56.5 123.5,-75.5 164.5,-75.5 164.5,-56.5 123.5,-56.5"/>
<text text-anchor="middle" x="144" y="-63.5" font-family="Helvetica,sans-Serif" font-size="10.00">string</text>
</g>
<!-- Node2&#45;&gt;Node7 -->
<g id="edge6" class="edge"><title>Node2&#45;&gt;Node7</title>
<path fill="none" stroke="midnightblue" d="M177.395,-112.083C171.745,-104.455 163.455,-93.2645 156.549,-83.9408"/>
<polygon fill="midnightblue" stroke="midnightblue" points="159.247,-81.7034 150.482,-75.7511 153.622,-85.87 159.247,-81.7034"/>
</g>
<!-- Node8 -->
<g id="node8" class="node"><title>Node8</title>
<polygon fill="white" stroke="#bfbfbf" points="182.5,-56.5 182.5,-75.5 265.5,-75.5 265.5,-56.5 182.5,-56.5"/>
<text text-anchor="middle" x="224" y="-63.5" font-family="Helvetica,sans-Serif" font-size="10.00">unordered_map</text>
</g>
<!-- Node2&#45;&gt;Node8 -->
<g id="edge7" class="edge"><title>Node2&#45;&gt;Node8</title>
<path fill="none" stroke="midnightblue" d="M190.605,-112.083C196.255,-104.455 204.545,-93.2645 211.451,-83.9408"/>
<polygon fill="midnightblue" stroke="midnightblue" points="214.378,-85.87 217.518,-75.7511 208.753,-81.7034 214.378,-85.87"/>
</g>
<!-- Node9 -->
<g id="node9" class="node"><title>Node9</title>
<polygon fill="white" stroke="#bfbfbf" points="284,-56.5 284,-75.5 336,-75.5 336,-56.5 284,-56.5"/>
<text text-anchor="middle" x="310" y="-63.5" font-family="Helvetica,sans-Serif" font-size="10.00">assert.h</text>
</g>
<!-- Node2&#45;&gt;Node9 -->
<g id="edge8" class="edge"><title>Node2&#45;&gt;Node9</title>
<path fill="none" stroke="midnightblue" d="M203.965,-112.444C224.609,-103.596 257.063,-89.6875 280.632,-79.5865"/>
<polygon fill="midnightblue" stroke="midnightblue" points="282.316,-82.6727 290.128,-75.5164 279.558,-76.2387 282.316,-82.6727"/>
</g>
<!-- Node10 -->
<g id="node10" class="node"><title>Node10</title>
<polygon fill="white" stroke="#bfbfbf" points="354.5,-56.5 354.5,-75.5 413.5,-75.5 413.5,-56.5 354.5,-56.5"/>
<text text-anchor="middle" x="384" y="-63.5" font-family="Helvetica,sans-Serif" font-size="10.00">inttypes.h</text>
</g>
<!-- Node2&#45;&gt;Node10 -->
<g id="edge10" class="edge"><title>Node2&#45;&gt;Node10</title>
<path fill="none" stroke="midnightblue" d="M215.691,-112.444C250.526,-103.038 306.546,-87.9127 344.286,-77.7227"/>
<polygon fill="midnightblue" stroke="midnightblue" points="345.672,-80.974 354.414,-74.9883 343.847,-74.216 345.672,-80.974"/>
</g>
<!-- Node3&#45;&gt;Node4 -->
<g id="edge3" class="edge"><title>Node3&#45;&gt;Node4</title>
<path fill="none" stroke="midnightblue" d="M75.0386,-56.324C65.8734,-48.3414 52.0628,-36.3128 40.9718,-26.6529"/>
<polygon fill="midnightblue" stroke="midnightblue" points="42.9822,-23.7624 33.1426,-19.8339 38.3847,-29.041 42.9822,-23.7624"/>
</g>
<!-- Node5 -->
<g id="node5" class="node"><title>Node5</title>
<polygon fill="white" stroke="#bfbfbf" points="64,-0.5 64,-19.5 116,-19.5 116,-0.5 64,-0.5"/>
<text text-anchor="middle" x="90" y="-7.5" font-family="Helvetica,sans-Serif" font-size="10.00">stdarg.h</text>
</g>
<!-- Node3&#45;&gt;Node5 -->
<g id="edge4" class="edge"><title>Node3&#45;&gt;Node5</title>
<path fill="none" stroke="midnightblue" d="M85.8256,-56.083C86.4809,-49.0059 87.4203,-38.8611 88.242,-29.9865"/>
<polygon fill="midnightblue" stroke="midnightblue" points="91.7527,-30.0312 89.1897,-19.7511 84.7826,-29.3858 91.7527,-30.0312"/>
</g>
<!-- Node6 -->
<g id="node6" class="node"><title>Node6</title>
<polygon fill="white" stroke="#bfbfbf" points="134.5,-0.5 134.5,-19.5 183.5,-19.5 183.5,-0.5 134.5,-0.5"/>
<text text-anchor="middle" x="159" y="-7.5" font-family="Helvetica,sans-Serif" font-size="10.00">string.h</text>
</g>
<!-- Node3&#45;&gt;Node6 -->
<g id="edge5" class="edge"><title>Node3&#45;&gt;Node6</title>
<path fill="none" stroke="midnightblue" d="M96.8894,-56.324C108.15,-48.1066 125.287,-35.6017 138.709,-25.8069"/>
<polygon fill="midnightblue" stroke="midnightblue" points="140.88,-28.5559 146.894,-19.8339 136.753,-22.9014 140.88,-28.5559"/>
</g>
</g>
</svg>
