<?xml version="1.0" encoding="UTF-8" standalone="no"?>
<!DOCTYPE svg PUBLIC "-//W3C//DTD SVG 1.1//EN"
 "http://www.w3.org/Graphics/SVG/1.1/DTD/svg11.dtd">
<!-- Generated by graphviz version 2.36.0 (20140111.2315)
 -->
<!-- Title: /home/travis/build/mgerhardy/simpleai/src/ai/filter/IFilter.h Pages: 1 -->
<svg width="2134pt" height="632pt"
 viewBox="0.00 0.00 2133.87 632.00" xmlns="http://www.w3.org/2000/svg" xmlns:xlink="http://www.w3.org/1999/xlink">
<g id="graph0" class="graph" transform="scale(1 1) rotate(0) translate(4 628)">
<title>/home/travis/build/mgerhardy/simpleai/src/ai/filter/IFilter.h</title>
<polygon fill="white" stroke="none" points="-4,4 -4,-628 2129.87,-628 2129.87,4 -4,4"/>
<!-- Node1 -->
<g id="node1" class="node"><title>Node1</title>
<polygon fill="#bfbfbf" stroke="black" points="994,-582.5 994,-623.5 1098,-623.5 1098,-582.5 994,-582.5"/>
<text text-anchor="start" x="1002" y="-611.5" font-family="Helvetica,sans-Serif" font-size="10.00">/home/travis/build</text>
<text text-anchor="start" x="1002" y="-600.5" font-family="Helvetica,sans-Serif" font-size="10.00">/mgerhardy/simpleai</text>
<text text-anchor="middle" x="1046" y="-589.5" font-family="Helvetica,sans-Serif" font-size="10.00">/src/ai/filter/IFilter.h</text>
</g>
<!-- Node2 -->
<g id="node2" class="node"><title>Node2</title>
<g id="a_node2"><a xlink:href="Filter_8h.html" target="_top" xlink:title="/home/travis/build\l/mgerhardy/simpleai\l/src/ai/conditions/Filter.h">
<polygon fill="white" stroke="black" points="63,-498.5 63,-539.5 187,-539.5 187,-498.5 63,-498.5"/>
<text text-anchor="start" x="71" y="-527.5" font-family="Helvetica,sans-Serif" font-size="10.00">/home/travis/build</text>
<text text-anchor="start" x="71" y="-516.5" font-family="Helvetica,sans-Serif" font-size="10.00">/mgerhardy/simpleai</text>
<text text-anchor="middle" x="125" y="-505.5" font-family="Helvetica,sans-Serif" font-size="10.00">/src/ai/conditions/Filter.h</text>
</a>
</g>
</g>
<!-- Node1&#45;&gt;Node2 -->
<g id="edge1" class="edge"><title>Node1&#45;&gt;Node2</title>
<path fill="none" stroke="midnightblue" d="M983.58,-599.994C814.593,-594.224 350.846,-576.048 201,-546 192.933,-544.382 184.547,-542.129 176.419,-539.62"/>
<polygon fill="midnightblue" stroke="midnightblue" points="983.689,-603.5 993.802,-600.34 983.926,-596.504 983.689,-603.5"/>
</g>
<!-- Node3 -->
<g id="node3" class="node"><title>Node3</title>
<g id="a_node3"><a xlink:href="AIRegistry_8h.html" target="_top" xlink:title="/home/travis/build\l/mgerhardy/simpleai\l/src/ai/AIRegistry.h">
<polygon fill="white" stroke="black" points="928,-414.5 928,-455.5 1032,-455.5 1032,-414.5 928,-414.5"/>
<text text-anchor="start" x="936" y="-443.5" font-family="Helvetica,sans-Serif" font-size="10.00">/home/travis/build</text>
<text text-anchor="start" x="936" y="-432.5" font-family="Helvetica,sans-Serif" font-size="10.00">/mgerhardy/simpleai</text>
<text text-anchor="middle" x="980" y="-421.5" font-family="Helvetica,sans-Serif" font-size="10.00">/src/ai/AIRegistry.h</text>
</a>
</g>
</g>
<!-- Node1&#45;&gt;Node3 -->
<g id="edge29" class="edge"><title>Node1&#45;&gt;Node3</title>
<path fill="none" stroke="midnightblue" d="M983.707,-602.471C802.437,-603.194 284.81,-600.434 234,-546 217.624,-528.455 217.677,-509.594 234,-492 257.615,-466.545 762.462,-444.536 927.968,-437.982"/>
<polygon fill="midnightblue" stroke="midnightblue" points="983.893,-605.97 993.878,-602.425 983.862,-598.97 983.893,-605.97"/>
</g>
<!-- Node18 -->
<g id="node18" class="node"><title>Node18</title>
<g id="a_node18"><a xlink:href="Complement_8h.html" target="_top" xlink:title="/home/travis/build\l/mgerhardy/simpleai\l/src/ai/filter/Complement.h">
<polygon fill="white" stroke="black" points="243,-498.5 243,-539.5 375,-539.5 375,-498.5 243,-498.5"/>
<text text-anchor="start" x="251" y="-527.5" font-family="Helvetica,sans-Serif" font-size="10.00">/home/travis/build</text>
<text text-anchor="start" x="251" y="-516.5" font-family="Helvetica,sans-Serif" font-size="10.00">/mgerhardy/simpleai</text>
<text text-anchor="middle" x="309" y="-505.5" font-family="Helvetica,sans-Serif" font-size="10.00">/src/ai/filter/Complement.h</text>
</a>
</g>
</g>
<!-- Node1&#45;&gt;Node18 -->
<g id="edge30" class="edge"><title>Node1&#45;&gt;Node18</title>
<path fill="none" stroke="midnightblue" d="M983.55,-601.871C865.24,-600.497 600.858,-592.006 384,-546 376.181,-544.341 368.055,-542.099 360.163,-539.624"/>
<polygon fill="midnightblue" stroke="midnightblue" points="983.822,-605.374 993.857,-601.977 983.894,-598.375 983.822,-605.374"/>
</g>
<!-- Node19 -->
<g id="node19" class="node"><title>Node19</title>
<g id="a_node19"><a xlink:href="Difference_8h.html" target="_top" xlink:title="/home/travis/build\l/mgerhardy/simpleai\l/src/ai/filter/Difference.h">
<polygon fill="white" stroke="black" points="393,-498.5 393,-539.5 515,-539.5 515,-498.5 393,-498.5"/>
<text text-anchor="start" x="401" y="-527.5" font-family="Helvetica,sans-Serif" font-size="10.00">/home/travis/build</text>
<text text-anchor="start" x="401" y="-516.5" font-family="Helvetica,sans-Serif" font-size="10.00">/mgerhardy/simpleai</text>
<text text-anchor="middle" x="454" y="-505.5" font-family="Helvetica,sans-Serif" font-size="10.00">/src/ai/filter/Difference.h</text>
</a>
</g>
</g>
<!-- Node1&#45;&gt;Node19 -->
<g id="edge32" class="edge"><title>Node1&#45;&gt;Node19</title>
<path fill="none" stroke="midnightblue" d="M983.685,-600.309C884.945,-596.518 687.018,-584.385 524,-546 516.681,-544.277 509.085,-542 501.714,-539.508"/>
<polygon fill="midnightblue" stroke="midnightblue" points="983.667,-603.81 993.789,-600.68 983.924,-596.815 983.667,-603.81"/>
</g>
<!-- Node20 -->
<g id="node20" class="node"><title>Node20</title>
<g id="a_node20"><a xlink:href="First_8h.html" target="_top" xlink:title="/home/travis/build\l/mgerhardy/simpleai\l/src/ai/filter/First.h">
<polygon fill="white" stroke="black" points="533,-498.5 533,-539.5 637,-539.5 637,-498.5 533,-498.5"/>
<text text-anchor="start" x="541" y="-527.5" font-family="Helvetica,sans-Serif" font-size="10.00">/home/travis/build</text>
<text text-anchor="start" x="541" y="-516.5" font-family="Helvetica,sans-Serif" font-size="10.00">/mgerhardy/simpleai</text>
<text text-anchor="middle" x="585" y="-505.5" font-family="Helvetica,sans-Serif" font-size="10.00">/src/ai/filter/First.h</text>
</a>
</g>
</g>
<!-- Node1&#45;&gt;Node20 -->
<g id="edge34" class="edge"><title>Node1&#45;&gt;Node20</title>
<path fill="none" stroke="midnightblue" d="M983.63,-598.373C904.045,-592.59 762.71,-578.427 646,-546 639.678,-544.243 633.146,-541.98 626.813,-539.523"/>
<polygon fill="midnightblue" stroke="midnightblue" points="983.747,-601.89 993.968,-599.102 984.239,-594.907 983.747,-601.89"/>
</g>
<!-- Node21 -->
<g id="node21" class="node"><title>Node21</title>
<g id="a_node21"><a xlink:href="Intersection_8h.html" target="_top" xlink:title="/home/travis/build\l/mgerhardy/simpleai\l/src/ai/filter/Intersection.h">
<polygon fill="white" stroke="black" points="655,-498.5 655,-539.5 783,-539.5 783,-498.5 655,-498.5"/>
<text text-anchor="start" x="663" y="-527.5" font-family="Helvetica,sans-Serif" font-size="10.00">/home/travis/build</text>
<text text-anchor="start" x="663" y="-516.5" font-family="Helvetica,sans-Serif" font-size="10.00">/mgerhardy/simpleai</text>
<text text-anchor="middle" x="719" y="-505.5" font-family="Helvetica,sans-Serif" font-size="10.00">/src/ai/filter/Intersection.h</text>
</a>
</g>
</g>
<!-- Node1&#45;&gt;Node21 -->
<g id="edge36" class="edge"><title>Node1&#45;&gt;Node21</title>
<path fill="none" stroke="midnightblue" d="M983.932,-590.572C932.169,-580.505 856.697,-564.575 792,-546 785.276,-544.07 778.271,-541.851 771.378,-539.54"/>
<polygon fill="midnightblue" stroke="midnightblue" points="983.476,-594.049 993.958,-592.507 984.802,-587.175 983.476,-594.049"/>
</g>
<!-- Node22 -->
<g id="node22" class="node"><title>Node22</title>
<g id="a_node22"><a xlink:href="Last_8h.html" target="_top" xlink:title="/home/travis/build\l/mgerhardy/simpleai\l/src/ai/filter/Last.h">
<polygon fill="white" stroke="black" points="801,-498.5 801,-539.5 905,-539.5 905,-498.5 801,-498.5"/>
<text text-anchor="start" x="809" y="-527.5" font-family="Helvetica,sans-Serif" font-size="10.00">/home/travis/build</text>
<text text-anchor="start" x="809" y="-516.5" font-family="Helvetica,sans-Serif" font-size="10.00">/mgerhardy/simpleai</text>
<text text-anchor="middle" x="853" y="-505.5" font-family="Helvetica,sans-Serif" font-size="10.00">/src/ai/filter/Last.h</text>
</a>
</g>
</g>
<!-- Node1&#45;&gt;Node22 -->
<g id="edge38" class="edge"><title>Node1&#45;&gt;Node22</title>
<path fill="none" stroke="midnightblue" d="M990.387,-578.431C966.822,-568.438 939.067,-556.66 914,-546 909.127,-543.928 904.035,-541.761 898.961,-539.6"/>
<polygon fill="midnightblue" stroke="midnightblue" points="989.297,-581.771 999.87,-582.452 992.03,-575.326 989.297,-581.771"/>
</g>
<!-- Node23 -->
<g id="node23" class="node"><title>Node23</title>
<g id="a_node23"><a xlink:href="LUAFilter_8h.html" target="_top" xlink:title="/home/travis/build\l/mgerhardy/simpleai\l/src/ai/filter/LUAFilter.h">
<polygon fill="white" stroke="black" points="1822,-414.5 1822,-455.5 1940,-455.5 1940,-414.5 1822,-414.5"/>
<text text-anchor="start" x="1830" y="-443.5" font-family="Helvetica,sans-Serif" font-size="10.00">/home/travis/build</text>
<text text-anchor="start" x="1830" y="-432.5" font-family="Helvetica,sans-Serif" font-size="10.00">/mgerhardy/simpleai</text>
<text text-anchor="middle" x="1881" y="-421.5" font-family="Helvetica,sans-Serif" font-size="10.00">/src/ai/filter/LUAFilter.h</text>
</a>
</g>
</g>
<!-- Node1&#45;&gt;Node23 -->
<g id="edge40" class="edge"><title>Node1&#45;&gt;Node23</title>
<path fill="none" stroke="midnightblue" d="M1108.32,-601.074C1331.46,-597.46 2079.23,-582.646 2114,-546 2130.52,-528.591 2128.86,-510.849 2114,-492 2092.72,-465.002 2001.83,-449.525 1940.06,-441.944"/>
<polygon fill="midnightblue" stroke="midnightblue" points="1108.04,-597.578 1098.09,-601.238 1108.15,-604.577 1108.04,-597.578"/>
</g>
<!-- Node24 -->
<g id="node24" class="node"><title>Node24</title>
<g id="a_node24"><a xlink:href="filter_2Random_8h.html" target="_top" xlink:title="/home/travis/build\l/mgerhardy/simpleai\l/src/ai/filter/Random.h">
<polygon fill="white" stroke="black" points="923.5,-498.5 923.5,-539.5 1036.5,-539.5 1036.5,-498.5 923.5,-498.5"/>
<text text-anchor="start" x="931.5" y="-527.5" font-family="Helvetica,sans-Serif" font-size="10.00">/home/travis/build</text>
<text text-anchor="start" x="931.5" y="-516.5" font-family="Helvetica,sans-Serif" font-size="10.00">/mgerhardy/simpleai</text>
<text text-anchor="middle" x="980" y="-505.5" font-family="Helvetica,sans-Serif" font-size="10.00">/src/ai/filter/Random.h</text>
</a>
</g>
</g>
<!-- Node1&#45;&gt;Node24 -->
<g id="edge42" class="edge"><title>Node1&#45;&gt;Node24</title>
<path fill="none" stroke="midnightblue" d="M1023.64,-574.214C1014.5,-562.869 1004.16,-550.012 995.83,-539.667"/>
<polygon fill="midnightblue" stroke="midnightblue" points="1021.03,-576.554 1030.02,-582.15 1026.48,-572.165 1021.03,-576.554"/>
</g>
<!-- Node25 -->
<g id="node25" class="node"><title>Node25</title>
<g id="a_node25"><a xlink:href="SelectAll_8h.html" target="_top" xlink:title="/home/travis/build\l/mgerhardy/simpleai\l/src/ai/filter/SelectAll.h">
<polygon fill="white" stroke="black" points="1055,-498.5 1055,-539.5 1171,-539.5 1171,-498.5 1055,-498.5"/>
<text text-anchor="start" x="1063" y="-527.5" font-family="Helvetica,sans-Serif" font-size="10.00">/home/travis/build</text>
<text text-anchor="start" x="1063" y="-516.5" font-family="Helvetica,sans-Serif" font-size="10.00">/mgerhardy/simpleai</text>
<text text-anchor="middle" x="1113" y="-505.5" font-family="Helvetica,sans-Serif" font-size="10.00">/src/ai/filter/SelectAll.h</text>
</a>
</g>
</g>
<!-- Node1&#45;&gt;Node25 -->
<g id="edge44" class="edge"><title>Node1&#45;&gt;Node25</title>
<path fill="none" stroke="midnightblue" d="M1068.7,-574.214C1077.97,-562.869 1088.48,-550.012 1096.93,-539.667"/>
<polygon fill="midnightblue" stroke="midnightblue" points="1065.84,-572.192 1062.22,-582.15 1071.26,-576.621 1065.84,-572.192"/>
</g>
<!-- Node26 -->
<g id="node26" class="node"><title>Node26</title>
<g id="a_node26"><a xlink:href="SelectEmpty_8h.html" target="_top" xlink:title="/home/travis/build\l/mgerhardy/simpleai\l/src/ai/filter/SelectEmpty.h">
<polygon fill="white" stroke="black" points="1189.5,-498.5 1189.5,-539.5 1322.5,-539.5 1322.5,-498.5 1189.5,-498.5"/>
<text text-anchor="start" x="1197.5" y="-527.5" font-family="Helvetica,sans-Serif" font-size="10.00">/home/travis/build</text>
<text text-anchor="start" x="1197.5" y="-516.5" font-family="Helvetica,sans-Serif" font-size="10.00">/mgerhardy/simpleai</text>
<text text-anchor="middle" x="1256" y="-505.5" font-family="Helvetica,sans-Serif" font-size="10.00">/src/ai/filter/SelectEmpty.h</text>
</a>
</g>
</g>
<!-- Node1&#45;&gt;Node26 -->
<g id="edge46" class="edge"><title>Node1&#45;&gt;Node26</title>
<path fill="none" stroke="midnightblue" d="M1105.64,-578.714C1137.34,-566.336 1175.87,-551.29 1205.99,-539.529"/>
<polygon fill="midnightblue" stroke="midnightblue" points="1104.08,-575.566 1096.03,-582.463 1106.62,-582.086 1104.08,-575.566"/>
</g>
<!-- Node27 -->
<g id="node27" class="node"><title>Node27</title>
<g id="a_node27"><a xlink:href="SelectGroupLeader_8h.html" target="_top" xlink:title="/home/travis/build\l/mgerhardy/simpleai\l/src/ai/filter/SelectGroupLeader.h">
<polygon fill="white" stroke="black" points="1341,-498.5 1341,-539.5 1501,-539.5 1501,-498.5 1341,-498.5"/>
<text text-anchor="start" x="1349" y="-527.5" font-family="Helvetica,sans-Serif" font-size="10.00">/home/travis/build</text>
<text text-anchor="start" x="1349" y="-516.5" font-family="Helvetica,sans-Serif" font-size="10.00">/mgerhardy/simpleai</text>
<text text-anchor="middle" x="1421" y="-505.5" font-family="Helvetica,sans-Serif" font-size="10.00">/src/ai/filter/SelectGroupLeader.h</text>
</a>
</g>
</g>
<!-- Node1&#45;&gt;Node27 -->
<g id="edge48" class="edge"><title>Node1&#45;&gt;Node27</title>
<path fill="none" stroke="midnightblue" d="M1108.14,-591.402C1166.1,-581.137 1254.83,-564.448 1331,-546 1339.06,-544.047 1347.48,-541.841 1355.8,-539.559"/>
<polygon fill="midnightblue" stroke="midnightblue" points="1107.28,-587.999 1098.04,-593.181 1108.5,-594.893 1107.28,-587.999"/>
</g>
<!-- Node28 -->
<g id="node28" class="node"><title>Node28</title>
<g id="a_node28"><a xlink:href="SelectGroupMembers_8h.html" target="_top" xlink:title="/home/travis/build\l/mgerhardy/simpleai\l/src/ai/filter/SelectGroupMembers.h">
<polygon fill="white" stroke="black" points="1519.5,-498.5 1519.5,-539.5 1690.5,-539.5 1690.5,-498.5 1519.5,-498.5"/>
<text text-anchor="start" x="1527.5" y="-527.5" font-family="Helvetica,sans-Serif" font-size="10.00">/home/travis/build</text>
<text text-anchor="start" x="1527.5" y="-516.5" font-family="Helvetica,sans-Serif" font-size="10.00">/mgerhardy/simpleai</text>
<text text-anchor="middle" x="1605" y="-505.5" font-family="Helvetica,sans-Serif" font-size="10.00">/src/ai/filter/SelectGroupMembers.h</text>
</a>
</g>
</g>
<!-- Node1&#45;&gt;Node28 -->
<g id="edge50" class="edge"><title>Node1&#45;&gt;Node28</title>
<path fill="none" stroke="midnightblue" d="M1108.21,-597.416C1197.68,-590.165 1367.59,-573.925 1510,-546 1519.31,-544.174 1529.05,-541.918 1538.6,-539.503"/>
<polygon fill="midnightblue" stroke="midnightblue" points="1107.92,-593.928 1098.23,-598.215 1108.48,-600.906 1107.92,-593.928"/>
</g>
<!-- Node29 -->
<g id="node29" class="node"><title>Node29</title>
<g id="a_node29"><a xlink:href="SelectHighestAggro_8h.html" target="_top" xlink:title="/home/travis/build\l/mgerhardy/simpleai\l/src/ai/filter/SelectHighest\lAggro.h">
<polygon fill="white" stroke="black" points="1709,-493 1709,-545 1839,-545 1839,-493 1709,-493"/>
<text text-anchor="start" x="1717" y="-533" font-family="Helvetica,sans-Serif" font-size="10.00">/home/travis/build</text>
<text text-anchor="start" x="1717" y="-522" font-family="Helvetica,sans-Serif" font-size="10.00">/mgerhardy/simpleai</text>
<text text-anchor="start" x="1717" y="-511" font-family="Helvetica,sans-Serif" font-size="10.00">/src/ai/filter/SelectHighest</text>
<text text-anchor="middle" x="1774" y="-500" font-family="Helvetica,sans-Serif" font-size="10.00">Aggro.h</text>
</a>
</g>
</g>
<!-- Node1&#45;&gt;Node29 -->
<g id="edge52" class="edge"><title>Node1&#45;&gt;Node29</title>
<path fill="none" stroke="midnightblue" d="M1108.49,-601.767C1225.62,-600.204 1485.64,-591.394 1699,-546 1702.24,-545.312 1705.52,-544.524 1708.82,-543.662"/>
<polygon fill="midnightblue" stroke="midnightblue" points="1108.24,-598.27 1098.28,-601.89 1108.32,-605.269 1108.24,-598.27"/>
</g>
<!-- Node30 -->
<g id="node30" class="node"><title>Node30</title>
<g id="a_node30"><a xlink:href="SelectZone_8h.html" target="_top" xlink:title="/home/travis/build\l/mgerhardy/simpleai\l/src/ai/filter/SelectZone.h">
<polygon fill="white" stroke="black" points="1857,-498.5 1857,-539.5 1983,-539.5 1983,-498.5 1857,-498.5"/>
<text text-anchor="start" x="1865" y="-527.5" font-family="Helvetica,sans-Serif" font-size="10.00">/home/travis/build</text>
<text text-anchor="start" x="1865" y="-516.5" font-family="Helvetica,sans-Serif" font-size="10.00">/mgerhardy/simpleai</text>
<text text-anchor="middle" x="1920" y="-505.5" font-family="Helvetica,sans-Serif" font-size="10.00">/src/ai/filter/SelectZone.h</text>
</a>
</g>
</g>
<!-- Node1&#45;&gt;Node30 -->
<g id="edge54" class="edge"><title>Node1&#45;&gt;Node30</title>
<path fill="none" stroke="midnightblue" d="M1108.33,-599.876C1271.26,-593.969 1706.94,-575.79 1848,-546 1855.67,-544.38 1863.63,-542.125 1871.34,-539.615"/>
<polygon fill="midnightblue" stroke="midnightblue" points="1107.87,-596.39 1098,-600.247 1108.12,-603.386 1107.87,-596.39"/>
</g>
<!-- Node31 -->
<g id="node31" class="node"><title>Node31</title>
<g id="a_node31"><a xlink:href="Union_8h.html" target="_top" xlink:title="/home/travis/build\l/mgerhardy/simpleai\l/src/ai/filter/Union.h">
<polygon fill="white" stroke="black" points="2001,-498.5 2001,-539.5 2105,-539.5 2105,-498.5 2001,-498.5"/>
<text text-anchor="start" x="2009" y="-527.5" font-family="Helvetica,sans-Serif" font-size="10.00">/home/travis/build</text>
<text text-anchor="start" x="2009" y="-516.5" font-family="Helvetica,sans-Serif" font-size="10.00">/mgerhardy/simpleai</text>
<text text-anchor="middle" x="2053" y="-505.5" font-family="Helvetica,sans-Serif" font-size="10.00">/src/ai/filter/Union.h</text>
</a>
</g>
</g>
<!-- Node1&#45;&gt;Node31 -->
<g id="edge56" class="edge"><title>Node1&#45;&gt;Node31</title>
<path fill="none" stroke="midnightblue" d="M1108.32,-601.092C1291.04,-597.99 1823.21,-585.702 1992,-546 1998.72,-544.418 2005.65,-542.15 2012.31,-539.604"/>
<polygon fill="midnightblue" stroke="midnightblue" points="1108.01,-597.596 1098.07,-601.262 1108.13,-604.595 1108.01,-597.596"/>
</g>
<!-- Node2&#45;&gt;Node3 -->
<g id="edge2" class="edge"><title>Node2&#45;&gt;Node3</title>
<path fill="none" stroke="midnightblue" d="M186.034,-495.61C191.055,-494.231 196.087,-492.999 201,-492 340.763,-463.568 776.891,-444.048 927.907,-437.993"/>
<polygon fill="midnightblue" stroke="midnightblue" points="185.042,-492.253 176.427,-498.42 187.007,-498.972 185.042,-492.253"/>
</g>
<!-- Node4 -->
<g id="node4" class="node"><title>Node4</title>
<g id="a_node4"><a xlink:href="ConditionParser_8h.html" target="_top" xlink:title="/home/travis/build\l/mgerhardy/simpleai\l/src/ai/conditions/Condition\lParser.h">
<polygon fill="white" stroke="black" points="780.5,-325 780.5,-377 915.5,-377 915.5,-325 780.5,-325"/>
<text text-anchor="start" x="788.5" y="-365" font-family="Helvetica,sans-Serif" font-size="10.00">/home/travis/build</text>
<text text-anchor="start" x="788.5" y="-354" font-family="Helvetica,sans-Serif" font-size="10.00">/mgerhardy/simpleai</text>
<text text-anchor="start" x="788.5" y="-343" font-family="Helvetica,sans-Serif" font-size="10.00">/src/ai/conditions/Condition</text>
<text text-anchor="middle" x="848" y="-332" font-family="Helvetica,sans-Serif" font-size="10.00">Parser.h</text>
</a>
</g>
</g>
<!-- Node2&#45;&gt;Node4 -->
<g id="edge28" class="edge"><title>Node2&#45;&gt;Node4</title>
<path fill="none" stroke="midnightblue" d="M196.851,-497.498C203.983,-495.587 211.124,-493.724 218,-492 421.503,-440.981 664.361,-389.696 780.125,-365.829"/>
<polygon fill="midnightblue" stroke="midnightblue" points="195.896,-494.13 187.158,-500.123 197.725,-500.887 195.896,-494.13"/>
</g>
<!-- Node3&#45;&gt;Node4 -->
<g id="edge3" class="edge"><title>Node3&#45;&gt;Node4</title>
<path fill="none" stroke="midnightblue" d="M939.63,-408.921C923.363,-398.816 904.636,-387.183 888.369,-377.078"/>
<polygon fill="midnightblue" stroke="midnightblue" points="938.041,-412.055 948.383,-414.359 941.735,-406.109 938.041,-412.055"/>
</g>
<!-- Node5 -->
<g id="node5" class="node"><title>Node5</title>
<g id="a_node5"><a xlink:href="Server_8h.html" target="_top" xlink:title="/home/travis/build\l/mgerhardy/simpleai\l/src/ai/server/Server.h">
<polygon fill="white" stroke="black" points="658.5,-240.5 658.5,-281.5 771.5,-281.5 771.5,-240.5 658.5,-240.5"/>
<text text-anchor="start" x="666.5" y="-269.5" font-family="Helvetica,sans-Serif" font-size="10.00">/home/travis/build</text>
<text text-anchor="start" x="666.5" y="-258.5" font-family="Helvetica,sans-Serif" font-size="10.00">/mgerhardy/simpleai</text>
<text text-anchor="middle" x="715" y="-247.5" font-family="Helvetica,sans-Serif" font-size="10.00">/src/ai/server/Server.h</text>
</a>
</g>
</g>
<!-- Node3&#45;&gt;Node5 -->
<g id="edge25" class="edge"><title>Node3&#45;&gt;Node5</title>
<path fill="none" stroke="midnightblue" d="M917.695,-430.888C872.498,-425.656 812.296,-412.182 771,-378 740.68,-352.904 725.581,-307.487 719.106,-281.552"/>
<polygon fill="midnightblue" stroke="midnightblue" points="917.366,-434.373 927.677,-431.939 918.099,-427.411 917.366,-434.373"/>
</g>
<!-- Node8 -->
<g id="node8" class="node"><title>Node8</title>
<g id="a_node8"><a xlink:href="SimpleAI_8h.html" target="_top" xlink:title="/home/travis/build\l/mgerhardy/simpleai\l/src/ai/SimpleAI.h">
<polygon fill="white" stroke="black" points="1195,-0.5 1195,-41.5 1299,-41.5 1299,-0.5 1195,-0.5"/>
<text text-anchor="start" x="1203" y="-29.5" font-family="Helvetica,sans-Serif" font-size="10.00">/home/travis/build</text>
<text text-anchor="start" x="1203" y="-18.5" font-family="Helvetica,sans-Serif" font-size="10.00">/mgerhardy/simpleai</text>
<text text-anchor="middle" x="1247" y="-7.5" font-family="Helvetica,sans-Serif" font-size="10.00">/src/ai/SimpleAI.h</text>
</a>
</g>
</g>
<!-- Node3&#45;&gt;Node8 -->
<g id="edge26" class="edge"><title>Node3&#45;&gt;Node8</title>
<path fill="none" stroke="midnightblue" d="M1042.1,-426.868C1131.27,-412.785 1285,-372.485 1285,-262 1285,-262 1285,-262 1285,-176 1285,-132.002 1282.88,-120.364 1271,-78 1267.52,-65.5748 1261.9,-52.2741 1256.98,-41.7543"/>
<polygon fill="midnightblue" stroke="midnightblue" points="1041.45,-423.426 1032.08,-428.382 1042.5,-430.348 1041.45,-423.426"/>
</g>
<!-- Node15 -->
<g id="node15" class="node"><title>Node15</title>
<g id="a_node15"><a xlink:href="LUATreeLoader_8h.html" target="_top" xlink:title="/home/travis/build\l/mgerhardy/simpleai\l/src/ai/tree/loaders\l/lua/LUATreeLoader.h">
<polygon fill="white" stroke="black" points="924,-235 924,-287 1036,-287 1036,-235 924,-235"/>
<text text-anchor="start" x="932" y="-275" font-family="Helvetica,sans-Serif" font-size="10.00">/home/travis/build</text>
<text text-anchor="start" x="932" y="-264" font-family="Helvetica,sans-Serif" font-size="10.00">/mgerhardy/simpleai</text>
<text text-anchor="start" x="932" y="-253" font-family="Helvetica,sans-Serif" font-size="10.00">/src/ai/tree/loaders</text>
<text text-anchor="middle" x="980" y="-242" font-family="Helvetica,sans-Serif" font-size="10.00">/lua/LUATreeLoader.h</text>
</a>
</g>
</g>
<!-- Node3&#45;&gt;Node15 -->
<g id="edge27" class="edge"><title>Node3&#45;&gt;Node15</title>
<path fill="none" stroke="midnightblue" d="M980,-404.263C980,-371.131 980,-318.145 980,-287.045"/>
<polygon fill="midnightblue" stroke="midnightblue" points="976.5,-404.269 980,-414.269 983.5,-404.269 976.5,-404.269"/>
</g>
<!-- Node17 -->
<g id="node17" class="node"><title>Node17</title>
<g id="a_node17"><a xlink:href="LUAAIRegistry_8h_source.html" target="_top" xlink:title="/home/travis/build\l/mgerhardy/simpleai\l/src/ai/LUAAIRegistry.h">
<polygon fill="white" stroke="black" points="1482.5,-330.5 1482.5,-371.5 1603.5,-371.5 1603.5,-330.5 1482.5,-330.5"/>
<text text-anchor="start" x="1490.5" y="-359.5" font-family="Helvetica,sans-Serif" font-size="10.00">/home/travis/build</text>
<text text-anchor="start" x="1490.5" y="-348.5" font-family="Helvetica,sans-Serif" font-size="10.00">/mgerhardy/simpleai</text>
<text text-anchor="middle" x="1543" y="-337.5" font-family="Helvetica,sans-Serif" font-size="10.00">/src/ai/LUAAIRegistry.h</text>
</a>
</g>
</g>
<!-- Node3&#45;&gt;Node17 -->
<g id="edge24" class="edge"><title>Node3&#45;&gt;Node17</title>
<path fill="none" stroke="midnightblue" d="M1042.38,-424.914C1151.29,-409.053 1374.73,-376.508 1482.38,-360.829"/>
<polygon fill="midnightblue" stroke="midnightblue" points="1041.6,-421.491 1032.21,-426.396 1042.61,-428.418 1041.6,-421.491"/>
</g>
<!-- Node4&#45;&gt;Node5 -->
<g id="edge4" class="edge"><title>Node4&#45;&gt;Node5</title>
<path fill="none" stroke="midnightblue" d="M801.415,-319.177C782.56,-306.701 761.353,-292.669 744.665,-281.628"/>
<polygon fill="midnightblue" stroke="midnightblue" points="799.616,-322.184 809.888,-324.783 803.479,-316.346 799.616,-322.184"/>
</g>
<!-- Node4&#45;&gt;Node15 -->
<g id="edge22" class="edge"><title>Node4&#45;&gt;Node15</title>
<path fill="none" stroke="midnightblue" d="M894.329,-319.114C909.98,-308.68 927.255,-297.163 942.169,-287.221"/>
<polygon fill="midnightblue" stroke="midnightblue" points="892.205,-316.324 885.826,-324.783 896.088,-322.148 892.205,-316.324"/>
</g>
<!-- Node16 -->
<g id="node16" class="node"><title>Node16</title>
<g id="a_node16"><a xlink:href="XMLTreeLoader_8h.html" target="_top" xlink:title="/home/travis/build\l/mgerhardy/simpleai\l/src/ai/tree/loaders\l/xml/XMLTreeLoader.h">
<polygon fill="white" stroke="black" points="790,-235 790,-287 906,-287 906,-235 790,-235"/>
<text text-anchor="start" x="798" y="-275" font-family="Helvetica,sans-Serif" font-size="10.00">/home/travis/build</text>
<text text-anchor="start" x="798" y="-264" font-family="Helvetica,sans-Serif" font-size="10.00">/mgerhardy/simpleai</text>
<text text-anchor="start" x="798" y="-253" font-family="Helvetica,sans-Serif" font-size="10.00">/src/ai/tree/loaders</text>
<text text-anchor="middle" x="848" y="-242" font-family="Helvetica,sans-Serif" font-size="10.00">/xml/XMLTreeLoader.h</text>
</a>
</g>
</g>
<!-- Node4&#45;&gt;Node16 -->
<g id="edge23" class="edge"><title>Node4&#45;&gt;Node16</title>
<path fill="none" stroke="midnightblue" d="M848,-314.489C848,-305.309 848,-295.616 848,-287.092"/>
<polygon fill="midnightblue" stroke="midnightblue" points="844.5,-314.547 848,-324.547 851.5,-314.547 844.5,-314.547"/>
</g>
<!-- Node6 -->
<g id="node6" class="node"><title>Node6</title>
<g id="a_node6"><a xlink:href="ChangeHandler_8h.html" target="_top" xlink:title="/home/travis/build\l/mgerhardy/simpleai\l/src/ai/server/ChangeHandler.h">
<polygon fill="white" stroke="black" points="0,-156.5 0,-197.5 152,-197.5 152,-156.5 0,-156.5"/>
<text text-anchor="start" x="8" y="-185.5" font-family="Helvetica,sans-Serif" font-size="10.00">/home/travis/build</text>
<text text-anchor="start" x="8" y="-174.5" font-family="Helvetica,sans-Serif" font-size="10.00">/mgerhardy/simpleai</text>
<text text-anchor="middle" x="76" y="-163.5" font-family="Helvetica,sans-Serif" font-size="10.00">/src/ai/server/ChangeHandler.h</text>
</a>
</g>
</g>
<!-- Node5&#45;&gt;Node6 -->
<g id="edge5" class="edge"><title>Node5&#45;&gt;Node6</title>
<path fill="none" stroke="midnightblue" d="M648.204,-254.761C544.529,-246.11 338.816,-226.876 166,-198 161.58,-197.261 157.049,-196.445 152.486,-195.577"/>
<polygon fill="midnightblue" stroke="midnightblue" points="647.961,-258.252 658.216,-255.589 648.539,-251.276 647.961,-258.252"/>
</g>
<!-- Node7 -->
<g id="node7" class="node"><title>Node7</title>
<g id="a_node7"><a xlink:href="ServerImpl_8h.html" target="_top" xlink:title="/home/travis/build\l/mgerhardy/simpleai\l/src/ai/server/ServerImpl.h">
<polygon fill="white" stroke="black" points="567,-78.5 567,-119.5 699,-119.5 699,-78.5 567,-78.5"/>
<text text-anchor="start" x="575" y="-107.5" font-family="Helvetica,sans-Serif" font-size="10.00">/home/travis/build</text>
<text text-anchor="start" x="575" y="-96.5" font-family="Helvetica,sans-Serif" font-size="10.00">/mgerhardy/simpleai</text>
<text text-anchor="middle" x="633" y="-85.5" font-family="Helvetica,sans-Serif" font-size="10.00">/src/ai/server/ServerImpl.h</text>
</a>
</g>
</g>
<!-- Node5&#45;&gt;Node7 -->
<g id="edge16" class="edge"><title>Node5&#45;&gt;Node7</title>
<path fill="none" stroke="midnightblue" d="M648.372,-256.845C515.632,-249.874 228.359,-231.098 199,-198 186.613,-184.036 186.674,-170.018 199,-156 222.891,-128.828 451.551,-111.086 566.997,-103.786"/>
<polygon fill="midnightblue" stroke="midnightblue" points="648.257,-260.343 658.424,-257.365 648.619,-253.353 648.257,-260.343"/>
</g>
<!-- Node5&#45;&gt;Node8 -->
<g id="edge21" class="edge"><title>Node5&#45;&gt;Node8</title>
<path fill="none" stroke="midnightblue" d="M769.249,-237.192C773.186,-235.982 777.129,-234.898 781,-234 829.431,-222.767 1191.28,-232.577 1227,-198 1269.54,-156.829 1259.41,-78.0589 1251.77,-41.5148"/>
<polygon fill="midnightblue" stroke="midnightblue" points="767.911,-233.949 759.524,-240.423 770.118,-240.592 767.911,-233.949"/>
</g>
<!-- Node9 -->
<g id="node9" class="node"><title>Node9</title>
<g id="a_node9"><a xlink:href="DeleteNodeHandler_8h.html" target="_top" xlink:title="/home/travis/build\l/mgerhardy/simpleai\l/src/ai/server/DeleteNodeHandler.h">
<polygon fill="white" stroke="black" points="208,-156.5 208,-197.5 378,-197.5 378,-156.5 208,-156.5"/>
<text text-anchor="start" x="216" y="-185.5" font-family="Helvetica,sans-Serif" font-size="10.00">/home/travis/build</text>
<text text-anchor="start" x="216" y="-174.5" font-family="Helvetica,sans-Serif" font-size="10.00">/mgerhardy/simpleai</text>
<text text-anchor="middle" x="293" y="-163.5" font-family="Helvetica,sans-Serif" font-size="10.00">/src/ai/server/DeleteNodeHandler.h</text>
</a>
</g>
</g>
<!-- Node5&#45;&gt;Node9 -->
<g id="edge8" class="edge"><title>Node5&#45;&gt;Node9</title>
<path fill="none" stroke="midnightblue" d="M648.428,-247.877C582.1,-235.689 477.388,-216.156 387,-198 384.056,-197.409 381.06,-196.801 378.036,-196.184"/>
<polygon fill="midnightblue" stroke="midnightblue" points="647.865,-251.332 658.333,-249.694 649.129,-244.447 647.865,-251.332"/>
</g>
<!-- Node10 -->
<g id="node10" class="node"><title>Node10</title>
<g id="a_node10"><a xlink:href="PauseHandler_8h.html" target="_top" xlink:title="/home/travis/build\l/mgerhardy/simpleai\l/src/ai/server/PauseHandler.h">
<polygon fill="white" stroke="black" points="396,-156.5 396,-197.5 542,-197.5 542,-156.5 396,-156.5"/>
<text text-anchor="start" x="404" y="-185.5" font-family="Helvetica,sans-Serif" font-size="10.00">/home/travis/build</text>
<text text-anchor="start" x="404" y="-174.5" font-family="Helvetica,sans-Serif" font-size="10.00">/mgerhardy/simpleai</text>
<text text-anchor="middle" x="469" y="-163.5" font-family="Helvetica,sans-Serif" font-size="10.00">/src/ai/server/PauseHandler.h</text>
</a>
</g>
</g>
<!-- Node5&#45;&gt;Node10 -->
<g id="edge10" class="edge"><title>Node5&#45;&gt;Node10</title>
<path fill="none" stroke="midnightblue" d="M648.372,-237.791C610.654,-225.218 563.911,-209.637 527.598,-197.533"/>
<polygon fill="midnightblue" stroke="midnightblue" points="647.66,-241.243 658.254,-241.085 649.874,-234.602 647.66,-241.243"/>
</g>
<!-- Node11 -->
<g id="node11" class="node"><title>Node11</title>
<g id="a_node11"><a xlink:href="ResetHandler_8h.html" target="_top" xlink:title="/home/travis/build\l/mgerhardy/simpleai\l/src/ai/server/ResetHandler.h">
<polygon fill="white" stroke="black" points="560.5,-156.5 560.5,-197.5 705.5,-197.5 705.5,-156.5 560.5,-156.5"/>
<text text-anchor="start" x="568.5" y="-185.5" font-family="Helvetica,sans-Serif" font-size="10.00">/home/travis/build</text>
<text text-anchor="start" x="568.5" y="-174.5" font-family="Helvetica,sans-Serif" font-size="10.00">/mgerhardy/simpleai</text>
<text text-anchor="middle" x="633" y="-163.5" font-family="Helvetica,sans-Serif" font-size="10.00">/src/ai/server/ResetHandler.h</text>
</a>
</g>
</g>
<!-- Node5&#45;&gt;Node11 -->
<g id="edge12" class="edge"><title>Node5&#45;&gt;Node11</title>
<path fill="none" stroke="midnightblue" d="M687.873,-232.873C676.369,-221.369 663.213,-208.213 652.667,-197.667"/>
<polygon fill="midnightblue" stroke="midnightblue" points="685.604,-235.554 695.15,-240.15 690.554,-230.604 685.604,-235.554"/>
</g>
<!-- Node12 -->
<g id="node12" class="node"><title>Node12</title>
<g id="a_node12"><a xlink:href="SelectHandler_8h.html" target="_top" xlink:title="/home/travis/build\l/mgerhardy/simpleai\l/src/ai/server/SelectHandler.h">
<polygon fill="white" stroke="black" points="724,-156.5 724,-197.5 870,-197.5 870,-156.5 724,-156.5"/>
<text text-anchor="start" x="732" y="-185.5" font-family="Helvetica,sans-Serif" font-size="10.00">/home/travis/build</text>
<text text-anchor="start" x="732" y="-174.5" font-family="Helvetica,sans-Serif" font-size="10.00">/mgerhardy/simpleai</text>
<text text-anchor="middle" x="797" y="-163.5" font-family="Helvetica,sans-Serif" font-size="10.00">/src/ai/server/SelectHandler.h</text>
</a>
</g>
</g>
<!-- Node5&#45;&gt;Node12 -->
<g id="edge14" class="edge"><title>Node5&#45;&gt;Node12</title>
<path fill="none" stroke="midnightblue" d="M742.127,-232.873C753.631,-221.369 766.787,-208.213 777.333,-197.667"/>
<polygon fill="midnightblue" stroke="midnightblue" points="739.446,-230.604 734.85,-240.15 744.396,-235.554 739.446,-230.604"/>
</g>
<!-- Node13 -->
<g id="node13" class="node"><title>Node13</title>
<g id="a_node13"><a xlink:href="StepHandler_8h.html" target="_top" xlink:title="/home/travis/build\l/mgerhardy/simpleai\l/src/ai/server/StepHandler.h">
<polygon fill="white" stroke="black" points="888.5,-156.5 888.5,-197.5 1027.5,-197.5 1027.5,-156.5 888.5,-156.5"/>
<text text-anchor="start" x="896.5" y="-185.5" font-family="Helvetica,sans-Serif" font-size="10.00">/home/travis/build</text>
<text text-anchor="start" x="896.5" y="-174.5" font-family="Helvetica,sans-Serif" font-size="10.00">/mgerhardy/simpleai</text>
<text text-anchor="middle" x="958" y="-163.5" font-family="Helvetica,sans-Serif" font-size="10.00">/src/ai/server/StepHandler.h</text>
</a>
</g>
</g>
<!-- Node5&#45;&gt;Node13 -->
<g id="edge17" class="edge"><title>Node5&#45;&gt;Node13</title>
<path fill="none" stroke="midnightblue" d="M773.148,-236.84C775.796,-235.865 778.423,-234.914 781,-234 817.603,-221.017 858.965,-207.849 892.495,-197.547"/>
<polygon fill="midnightblue" stroke="midnightblue" points="771.652,-233.663 763.516,-240.45 774.108,-240.218 771.652,-233.663"/>
</g>
<!-- Node14 -->
<g id="node14" class="node"><title>Node14</title>
<g id="a_node14"><a xlink:href="UpdateNodeHandler_8h.html" target="_top" xlink:title="/home/travis/build\l/mgerhardy/simpleai\l/src/ai/server/UpdateNodeHandler.h">
<polygon fill="white" stroke="black" points="1045.5,-156.5 1045.5,-197.5 1218.5,-197.5 1218.5,-156.5 1045.5,-156.5"/>
<text text-anchor="start" x="1053.5" y="-185.5" font-family="Helvetica,sans-Serif" font-size="10.00">/home/travis/build</text>
<text text-anchor="start" x="1053.5" y="-174.5" font-family="Helvetica,sans-Serif" font-size="10.00">/mgerhardy/simpleai</text>
<text text-anchor="middle" x="1132" y="-163.5" font-family="Helvetica,sans-Serif" font-size="10.00">/src/ai/server/UpdateNodeHandler.h</text>
</a>
</g>
</g>
<!-- Node5&#45;&gt;Node14 -->
<g id="edge19" class="edge"><title>Node5&#45;&gt;Node14</title>
<path fill="none" stroke="midnightblue" d="M770.232,-237.16C773.847,-236.002 777.457,-234.934 781,-234 891.676,-204.823 923.248,-217.682 1036,-198 1039.1,-197.458 1042.26,-196.891 1045.44,-196.303"/>
<polygon fill="midnightblue" stroke="midnightblue" points="769.034,-233.871 760.696,-240.407 771.291,-240.497 769.034,-233.871"/>
</g>
<!-- Node6&#45;&gt;Node7 -->
<g id="edge6" class="edge"><title>Node6&#45;&gt;Node7</title>
<path fill="none" stroke="midnightblue" d="M162.113,-156.677C163.417,-156.445 164.713,-156.22 166,-156 308.072,-131.758 476.226,-114.324 566.965,-105.834"/>
<polygon fill="midnightblue" stroke="midnightblue" points="161.197,-153.287 152.004,-158.553 162.475,-160.17 161.197,-153.287"/>
</g>
<!-- Node7&#45;&gt;Node8 -->
<g id="edge7" class="edge"><title>Node7&#45;&gt;Node8</title>
<path fill="none" stroke="midnightblue" d="M708.998,-88.5931C835.48,-72.9373 1086,-41.9289 1194.67,-28.4774"/>
<polygon fill="midnightblue" stroke="midnightblue" points="708.494,-85.1286 699,-89.8306 709.354,-92.0756 708.494,-85.1286"/>
</g>
<!-- Node9&#45;&gt;Node7 -->
<g id="edge9" class="edge"><title>Node9&#45;&gt;Node7</title>
<path fill="none" stroke="midnightblue" d="M388.45,-154.664C445.354,-141.944 516.155,-126.118 566.91,-114.773"/>
<polygon fill="midnightblue" stroke="midnightblue" points="387.353,-151.323 378.357,-156.92 388.88,-158.154 387.353,-151.323"/>
</g>
<!-- Node10&#45;&gt;Node7 -->
<g id="edge11" class="edge"><title>Node10&#45;&gt;Node7</title>
<path fill="none" stroke="midnightblue" d="M520.382,-152.189C543.07,-141.675 569.41,-129.469 590.909,-119.506"/>
<polygon fill="midnightblue" stroke="midnightblue" points="518.836,-149.048 511.234,-156.428 521.779,-155.399 518.836,-149.048"/>
</g>
<!-- Node11&#45;&gt;Node7 -->
<g id="edge13" class="edge"><title>Node11&#45;&gt;Node7</title>
<path fill="none" stroke="midnightblue" d="M633,-146.297C633,-137.301 633,-127.653 633,-119.506"/>
<polygon fill="midnightblue" stroke="midnightblue" points="629.5,-146.428 633,-156.428 636.5,-146.428 629.5,-146.428"/>
</g>
<!-- Node12&#45;&gt;Node7 -->
<g id="edge15" class="edge"><title>Node12&#45;&gt;Node7</title>
<path fill="none" stroke="midnightblue" d="M745.618,-152.189C722.93,-141.675 696.59,-129.469 675.091,-119.506"/>
<polygon fill="midnightblue" stroke="midnightblue" points="744.221,-155.399 754.766,-156.428 747.164,-149.048 744.221,-155.399"/>
</g>
<!-- Node13&#45;&gt;Node7 -->
<g id="edge18" class="edge"><title>Node13&#45;&gt;Node7</title>
<path fill="none" stroke="midnightblue" d="M878.393,-155.879C811.735,-139.923 746.397,-125.14 699.141,-114.602"/>
<polygon fill="midnightblue" stroke="midnightblue" points="877.695,-159.31 888.236,-158.241 879.329,-152.504 877.695,-159.31"/>
</g>
<!-- Node14&#45;&gt;Node7 -->
<g id="edge20" class="edge"><title>Node14&#45;&gt;Node7</title>
<path fill="none" stroke="midnightblue" d="M1035.33,-155.943C910.585,-134.569 777.09,-117.313 699.179,-107.809"/>
<polygon fill="midnightblue" stroke="midnightblue" points="1034.99,-159.436 1045.44,-157.688 1036.19,-152.538 1034.99,-159.436"/>
</g>
<!-- Node18&#45;&gt;Node3 -->
<g id="edge31" class="edge"><title>Node18&#45;&gt;Node3</title>
<path fill="none" stroke="midnightblue" d="M369.871,-495.547C374.615,-494.213 379.362,-493.006 384,-492 581.796,-449.077 823.571,-439.052 927.941,-436.712"/>
<polygon fill="midnightblue" stroke="midnightblue" points="368.758,-492.226 360.177,-498.441 370.76,-498.934 368.758,-492.226"/>
</g>
<!-- Node19&#45;&gt;Node3 -->
<g id="edge33" class="edge"><title>Node19&#45;&gt;Node3</title>
<path fill="none" stroke="midnightblue" d="M511.71,-495.379C515.837,-494.129 519.961,-492.984 524,-492 667.561,-457.033 842.133,-443.349 927.66,-438.455"/>
<polygon fill="midnightblue" stroke="midnightblue" points="510.568,-492.07 502.119,-498.463 512.711,-498.734 510.568,-492.07"/>
</g>
<!-- Node20&#45;&gt;Node3 -->
<g id="edge35" class="edge"><title>Node20&#45;&gt;Node3</title>
<path fill="none" stroke="midnightblue" d="M637.067,-494.859C640.065,-493.824 643.056,-492.861 646,-492 743.486,-463.49 861.495,-447.957 927.937,-440.87"/>
<polygon fill="midnightblue" stroke="midnightblue" points="635.7,-491.633 627.524,-498.372 638.117,-498.202 635.7,-491.633"/>
</g>
<!-- Node21&#45;&gt;Node3 -->
<g id="edge37" class="edge"><title>Node21&#45;&gt;Node3</title>
<path fill="none" stroke="midnightblue" d="M782.634,-495.114C785.796,-494.046 788.931,-493.003 792,-492 837.644,-477.085 890.04,-461.612 927.904,-450.72"/>
<polygon fill="midnightblue" stroke="midnightblue" points="781.436,-491.824 773.107,-498.372 783.701,-498.448 781.436,-491.824"/>
</g>
<!-- Node22&#45;&gt;Node3 -->
<g id="edge39" class="edge"><title>Node22&#45;&gt;Node3</title>
<path fill="none" stroke="midnightblue" d="M891.915,-492.874C910.379,-480.952 932.124,-466.912 949.388,-455.765"/>
<polygon fill="midnightblue" stroke="midnightblue" points="889.922,-489.994 883.42,-498.359 893.719,-495.875 889.922,-489.994"/>
</g>
<!-- Node23&#45;&gt;Node17 -->
<g id="edge41" class="edge"><title>Node23&#45;&gt;Node17</title>
<path fill="none" stroke="midnightblue" d="M1811.78,-417.206C1750.55,-402.352 1662.11,-380.896 1603.62,-366.706"/>
<polygon fill="midnightblue" stroke="midnightblue" points="1811.19,-420.666 1821.74,-419.623 1812.85,-413.864 1811.19,-420.666"/>
</g>
<!-- Node24&#45;&gt;Node3 -->
<g id="edge43" class="edge"><title>Node24&#45;&gt;Node3</title>
<path fill="none" stroke="midnightblue" d="M980,-487.881C980,-477.133 980,-465.309 980,-455.667"/>
<polygon fill="midnightblue" stroke="midnightblue" points="976.5,-488.15 980,-498.15 983.5,-488.15 976.5,-488.15"/>
</g>
<!-- Node25&#45;&gt;Node3 -->
<g id="edge45" class="edge"><title>Node25&#45;&gt;Node3</title>
<path fill="none" stroke="midnightblue" d="M1072.51,-493.036C1053.12,-481.079 1030.22,-466.963 1012.06,-455.765"/>
<polygon fill="midnightblue" stroke="midnightblue" points="1070.79,-496.09 1081.14,-498.359 1074.47,-490.132 1070.79,-496.09"/>
</g>
<!-- Node26&#45;&gt;Node3 -->
<g id="edge47" class="edge"><title>Node26&#45;&gt;Node3</title>
<path fill="none" stroke="midnightblue" d="M1189.19,-495.208C1185.75,-494.107 1182.34,-493.032 1179,-492 1129.45,-476.675 1072.44,-460.808 1032.17,-449.894"/>
<polygon fill="midnightblue" stroke="midnightblue" points="1188.33,-498.609 1198.92,-498.363 1190.49,-491.95 1188.33,-498.609"/>
</g>
<!-- Node27&#45;&gt;Node3 -->
<g id="edge49" class="edge"><title>Node27&#45;&gt;Node3</title>
<path fill="none" stroke="midnightblue" d="M1347.09,-495.863C1341.66,-494.48 1336.26,-493.174 1331,-492 1225.91,-468.53 1101,-451.037 1032.12,-442.277"/>
<polygon fill="midnightblue" stroke="midnightblue" points="1346.28,-499.271 1356.85,-498.426 1348.06,-492.501 1346.28,-499.271"/>
</g>
<!-- Node28&#45;&gt;Node3 -->
<g id="edge51" class="edge"><title>Node28&#45;&gt;Node3</title>
<path fill="none" stroke="midnightblue" d="M1529.07,-496.053C1522.65,-494.553 1516.23,-493.174 1510,-492 1336.78,-459.368 1127.88,-444.292 1032.32,-438.713"/>
<polygon fill="midnightblue" stroke="midnightblue" points="1528.59,-499.539 1539.14,-498.499 1530.25,-492.737 1528.59,-499.539"/>
</g>
<!-- Node29&#45;&gt;Node3 -->
<g id="edge53" class="edge"><title>Node29&#45;&gt;Node3</title>
<path fill="none" stroke="midnightblue" d="M1699.3,-492.064C1699.2,-492.042 1699.1,-492.021 1699,-492 1453.26,-440.722 1151.41,-435.415 1032.08,-435.525"/>
<polygon fill="midnightblue" stroke="midnightblue" points="1698.3,-495.422 1708.83,-494.307 1699.9,-488.608 1698.3,-495.422"/>
</g>
<!-- Node30&#45;&gt;Node3 -->
<g id="edge55" class="edge"><title>Node30&#45;&gt;Node3</title>
<path fill="none" stroke="midnightblue" d="M1862.1,-495.518C1857.37,-494.167 1852.63,-492.966 1848,-492 1690.65,-459.205 1194.8,-442.229 1032.2,-437.44"/>
<polygon fill="midnightblue" stroke="midnightblue" points="1861.15,-498.888 1871.74,-498.476 1863.21,-492.197 1861.15,-498.888"/>
</g>
<!-- Node31&#45;&gt;Node3 -->
<g id="edge57" class="edge"><title>Node31&#45;&gt;Node3</title>
<path fill="none" stroke="midnightblue" d="M2002.82,-495.025C1999.2,-493.862 1995.57,-492.833 1992,-492 1806.71,-448.792 1212.33,-438.623 1032.22,-436.506"/>
<polygon fill="midnightblue" stroke="midnightblue" points="2001.72,-498.347 2012.31,-498.374 2004.05,-491.746 2001.72,-498.347"/>
</g>
</g>
</svg>
