<?xml version="1.0" encoding="UTF-8" standalone="no"?>
<!DOCTYPE svg PUBLIC "-//W3C//DTD SVG 1.1//EN"
 "http://www.w3.org/Graphics/SVG/1.1/DTD/svg11.dtd">
<!-- Generated by graphviz version 2.36.0 (20140111.2315)
 -->
<!-- Title: Graphical Class Hierarchy Pages: 1 -->
<svg width="272pt" height="370pt"
 viewBox="0.00 0.00 272.00 370.00" xmlns="http://www.w3.org/2000/svg" xmlns:xlink="http://www.w3.org/1999/xlink">
<g id="graph0" class="graph" transform="scale(1 1) rotate(0) translate(4 366)">
<title>Graphical Class Hierarchy</title>
<polygon fill="white" stroke="none" points="-4,4 -4,-366 268,-366 268,4 -4,4"/>
<!-- Node1 -->
<g id="node1" class="node"><title>Node1</title>
<g id="a_node1"><a xlink:href="classai_1_1IProtocolHandler.html" target="_top" xlink:title="Interface for the execution of assigned IProtocolMessage. ">
<polygon fill="white" stroke="black" points="0.5,-171.5 0.5,-190.5 103.5,-190.5 103.5,-171.5 0.5,-171.5"/>
<text text-anchor="middle" x="52" y="-178.5" font-family="Helvetica,sans-Serif" font-size="10.00">ai::IProtocolHandler</text>
</a>
</g>
</g>
<!-- Node2 -->
<g id="node2" class="node"><title>Node2</title>
<g id="a_node2"><a xlink:href="classai_1_1AddNodeHandler.html" target="_top" xlink:title="ai::AddNodeHandler">
<polygon fill="white" stroke="black" points="150,-342.5 150,-361.5 254,-361.5 254,-342.5 150,-342.5"/>
<text text-anchor="middle" x="202" y="-349.5" font-family="Helvetica,sans-Serif" font-size="10.00">ai::AddNodeHandler</text>
</a>
</g>
</g>
<!-- Node1&#45;&gt;Node2 -->
<g id="edge1" class="edge"><title>Node1&#45;&gt;Node2</title>
<path fill="none" stroke="midnightblue" d="M58.9123,-200.482C69.7116,-232.794 95.6911,-297.429 140,-333 144.844,-336.889 150.487,-339.985 156.349,-342.45"/>
<polygon fill="midnightblue" stroke="midnightblue" points="62.2113,-199.307 55.8273,-190.852 55.545,-201.443 62.2113,-199.307"/>
</g>
<!-- Node3 -->
<g id="node3" class="node"><title>Node3</title>
<g id="a_node3"><a xlink:href="classai_1_1ChangeHandler.html" target="_top" xlink:title="ai::ChangeHandler">
<polygon fill="white" stroke="black" points="153,-304.5 153,-323.5 251,-323.5 251,-304.5 153,-304.5"/>
<text text-anchor="middle" x="202" y="-311.5" font-family="Helvetica,sans-Serif" font-size="10.00">ai::ChangeHandler</text>
</a>
</g>
</g>
<!-- Node1&#45;&gt;Node3 -->
<g id="edge2" class="edge"><title>Node1&#45;&gt;Node3</title>
<path fill="none" stroke="midnightblue" d="M62.3227,-199.461C75.9849,-224.687 103.801,-269.676 140,-295 145.544,-298.879 151.91,-301.988 158.39,-304.473"/>
<polygon fill="midnightblue" stroke="midnightblue" points="65.3922,-197.778 57.6436,-190.553 59.195,-201.033 65.3922,-197.778"/>
</g>
<!-- Node4 -->
<g id="node4" class="node"><title>Node4</title>
<g id="a_node4"><a xlink:href="classai_1_1DeleteNodeHandler.html" target="_top" xlink:title="ai::DeleteNodeHandler">
<polygon fill="white" stroke="black" points="144,-266.5 144,-285.5 260,-285.5 260,-266.5 144,-266.5"/>
<text text-anchor="middle" x="202" y="-273.5" font-family="Helvetica,sans-Serif" font-size="10.00">ai::DeleteNodeHandler</text>
</a>
</g>
</g>
<!-- Node1&#45;&gt;Node4 -->
<g id="edge3" class="edge"><title>Node1&#45;&gt;Node4</title>
<path fill="none" stroke="midnightblue" d="M68.4981,-198.213C84.7741,-215.337 111.871,-241.266 140,-257 146.776,-260.79 154.408,-263.928 161.92,-266.488"/>
<polygon fill="midnightblue" stroke="midnightblue" points="70.7917,-195.54 61.4203,-190.597 65.6641,-200.305 70.7917,-195.54"/>
</g>
<!-- Node5 -->
<g id="node5" class="node"><title>Node5</title>
<g id="a_node5"><a xlink:href="classai_1_1NopHandler.html" target="_top" xlink:title="ai::NopHandler">
<polygon fill="white" stroke="black" points="161,-228.5 161,-247.5 243,-247.5 243,-228.5 161,-228.5"/>
<text text-anchor="middle" x="202" y="-235.5" font-family="Helvetica,sans-Serif" font-size="10.00">ai::NopHandler</text>
</a>
</g>
</g>
<!-- Node1&#45;&gt;Node5 -->
<g id="edge4" class="edge"><title>Node1&#45;&gt;Node5</title>
<path fill="none" stroke="midnightblue" d="M82.3756,-194.792C99.0845,-202.393 120.506,-211.732 140,-219 149.042,-222.371 158.984,-225.646 168.169,-228.499"/>
<polygon fill="midnightblue" stroke="midnightblue" points="83.6806,-191.539 73.1324,-190.546 80.7588,-197.901 83.6806,-191.539"/>
</g>
<!-- Node6 -->
<g id="node6" class="node"><title>Node6</title>
<g id="a_node6"><a xlink:href="classai_1_1PauseHandler.html" target="_top" xlink:title="ai::PauseHandler">
<polygon fill="white" stroke="black" points="156,-190.5 156,-209.5 248,-209.5 248,-190.5 156,-190.5"/>
<text text-anchor="middle" x="202" y="-197.5" font-family="Helvetica,sans-Serif" font-size="10.00">ai::PauseHandler</text>
</a>
</g>
</g>
<!-- Node1&#45;&gt;Node6 -->
<g id="edge5" class="edge"><title>Node1&#45;&gt;Node6</title>
<path fill="none" stroke="midnightblue" d="M113.609,-188.781C127.67,-190.586 142.397,-192.477 155.67,-194.181"/>
<polygon fill="midnightblue" stroke="midnightblue" points="113.884,-185.287 103.519,-187.486 112.992,-192.231 113.884,-185.287"/>
</g>
<!-- Node7 -->
<g id="node7" class="node"><title>Node7</title>
<g id="a_node7"><a xlink:href="classai_1_1ProtocolHandler.html" target="_top" xlink:title="ai::ProtocolHandler\&lt; T \&gt;">
<polygon fill="white" stroke="black" points="140,-152.5 140,-171.5 264,-171.5 264,-152.5 140,-152.5"/>
<text text-anchor="middle" x="202" y="-159.5" font-family="Helvetica,sans-Serif" font-size="10.00">ai::ProtocolHandler&lt; T &gt;</text>
</a>
</g>
</g>
<!-- Node1&#45;&gt;Node7 -->
<g id="edge6" class="edge"><title>Node1&#45;&gt;Node7</title>
<path fill="none" stroke="midnightblue" d="M113.589,-173.222C122.293,-172.104 131.253,-170.954 139.965,-169.836"/>
<polygon fill="midnightblue" stroke="midnightblue" points="112.992,-169.769 103.519,-174.514 113.884,-176.713 112.992,-169.769"/>
</g>
<!-- Node8 -->
<g id="node8" class="node"><title>Node8</title>
<g id="a_node8"><a xlink:href="classai_1_1ResetHandler.html" target="_top" xlink:title="ai::ResetHandler">
<polygon fill="white" stroke="black" points="157,-114.5 157,-133.5 247,-133.5 247,-114.5 157,-114.5"/>
<text text-anchor="middle" x="202" y="-121.5" font-family="Helvetica,sans-Serif" font-size="10.00">ai::ResetHandler</text>
</a>
</g>
</g>
<!-- Node1&#45;&gt;Node8 -->
<g id="edge7" class="edge"><title>Node1&#45;&gt;Node8</title>
<path fill="none" stroke="midnightblue" d="M82.3756,-167.208C99.0845,-159.607 120.506,-150.268 140,-143 149.042,-139.629 158.984,-136.354 168.169,-133.501"/>
<polygon fill="midnightblue" stroke="midnightblue" points="80.7588,-164.099 73.1324,-171.454 83.6806,-170.461 80.7588,-164.099"/>
</g>
<!-- Node9 -->
<g id="node9" class="node"><title>Node9</title>
<g id="a_node9"><a xlink:href="classai_1_1SelectHandler.html" target="_top" xlink:title="ai::SelectHandler">
<polygon fill="white" stroke="black" points="156,-76.5 156,-95.5 248,-95.5 248,-76.5 156,-76.5"/>
<text text-anchor="middle" x="202" y="-83.5" font-family="Helvetica,sans-Serif" font-size="10.00">ai::SelectHandler</text>
</a>
</g>
</g>
<!-- Node1&#45;&gt;Node9 -->
<g id="edge8" class="edge"><title>Node1&#45;&gt;Node9</title>
<path fill="none" stroke="midnightblue" d="M68.4981,-163.787C84.7741,-146.663 111.871,-120.734 140,-105 146.776,-101.21 154.408,-98.0716 161.92,-95.5124"/>
<polygon fill="midnightblue" stroke="midnightblue" points="65.6641,-161.695 61.4203,-171.403 70.7917,-166.46 65.6641,-161.695"/>
</g>
<!-- Node10 -->
<g id="node10" class="node"><title>Node10</title>
<g id="a_node10"><a xlink:href="classai_1_1StepHandler.html" target="_top" xlink:title="ai::StepHandler">
<polygon fill="white" stroke="black" points="160,-38.5 160,-57.5 244,-57.5 244,-38.5 160,-38.5"/>
<text text-anchor="middle" x="202" y="-45.5" font-family="Helvetica,sans-Serif" font-size="10.00">ai::StepHandler</text>
</a>
</g>
</g>
<!-- Node1&#45;&gt;Node10 -->
<g id="edge9" class="edge"><title>Node1&#45;&gt;Node10</title>
<path fill="none" stroke="midnightblue" d="M62.3227,-162.539C75.9849,-137.313 103.801,-92.3241 140,-67 145.999,-62.8035 152.959,-59.508 159.986,-56.9277"/>
<polygon fill="midnightblue" stroke="midnightblue" points="59.195,-160.967 57.6436,-171.447 65.3922,-164.222 59.195,-160.967"/>
</g>
<!-- Node11 -->
<g id="node11" class="node"><title>Node11</title>
<g id="a_node11"><a xlink:href="classai_1_1UpdateNodeHandler.html" target="_top" xlink:title="ai::UpdateNodeHandler">
<polygon fill="white" stroke="black" points="142.5,-0.5 142.5,-19.5 261.5,-19.5 261.5,-0.5 142.5,-0.5"/>
<text text-anchor="middle" x="202" y="-7.5" font-family="Helvetica,sans-Serif" font-size="10.00">ai::UpdateNodeHandler</text>
</a>
</g>
</g>
<!-- Node1&#45;&gt;Node11 -->
<g id="edge10" class="edge"><title>Node1&#45;&gt;Node11</title>
<path fill="none" stroke="midnightblue" d="M58.9123,-161.518C69.7116,-129.206 95.6911,-64.5713 140,-29 144.844,-25.1114 150.487,-22.0149 156.349,-19.55"/>
<polygon fill="midnightblue" stroke="midnightblue" points="55.545,-160.557 55.8273,-171.148 62.2113,-162.693 55.545,-160.557"/>
</g>
</g>
</svg>
