<?xml version="1.0" encoding="UTF-8" standalone="no"?>
<!DOCTYPE svg PUBLIC "-//W3C//DTD SVG 1.1//EN"
 "http://www.w3.org/Graphics/SVG/1.1/DTD/svg11.dtd">
<!-- Generated by graphviz version 2.36.0 (20140111.2315)
 -->
<!-- Title: Graphical Class Hierarchy Pages: 1 -->
<svg width="330pt" height="28pt"
 viewBox="0.00 0.00 330.00 28.00" xmlns="http://www.w3.org/2000/svg" xmlns:xlink="http://www.w3.org/1999/xlink">
<g id="graph0" class="graph" transform="scale(1 1) rotate(0) translate(4 24)">
<title>Graphical Class Hierarchy</title>
<polygon fill="white" stroke="none" points="-4,4 -4,-24 326,-24 326,4 -4,4"/>
<!-- Node1 -->
<g id="node1" class="node"><title>Node1</title>
<g id="a_node1"><a xlink:href="classai_1_1IAIFactory.html" target="_top" xlink:title="ai::IAIFactory">
<polygon fill="white" stroke="black" points="0,-0.5 0,-19.5 76,-19.5 76,-0.5 0,-0.5"/>
<text text-anchor="middle" x="38" y="-7.5" font-family="Helvetica,sans-Serif" font-size="10.00">ai::IAIFactory</text>
</a>
</g>
</g>
<!-- Node2 -->
<g id="node2" class="node"><title>Node2</title>
<g id="a_node2"><a xlink:href="classai_1_1AIRegistry.html" target="_top" xlink:title="The place to register your TreeNode and ICondition factories at. ">
<polygon fill="white" stroke="black" points="112.5,-0.5 112.5,-19.5 189.5,-19.5 189.5,-0.5 112.5,-0.5"/>
<text text-anchor="middle" x="151" y="-7.5" font-family="Helvetica,sans-Serif" font-size="10.00">ai::AIRegistry</text>
</a>
</g>
</g>
<!-- Node1&#45;&gt;Node2 -->
<g id="edge1" class="edge"><title>Node1&#45;&gt;Node2</title>
<path fill="none" stroke="midnightblue" d="M86.2788,-10C94.9566,-10 103.909,-10 112.261,-10"/>
<polygon fill="midnightblue" stroke="midnightblue" points="86.2702,-6.5001 76.2702,-10 86.2701,-13.5001 86.2702,-6.5001"/>
</g>
<!-- Node3 -->
<g id="node3" class="node"><title>Node3</title>
<g id="a_node3"><a xlink:href="classai_1_1LUAAIRegistry.html" target="_top" xlink:title="Allows you to register lua TreeNodes, Conditions, Filters and ISteerings. ">
<polygon fill="white" stroke="black" points="226,-0.5 226,-19.5 322,-19.5 322,-0.5 226,-0.5"/>
<text text-anchor="middle" x="274" y="-7.5" font-family="Helvetica,sans-Serif" font-size="10.00">ai::LUAAIRegistry</text>
</a>
</g>
</g>
<!-- Node2&#45;&gt;Node3 -->
<g id="edge2" class="edge"><title>Node2&#45;&gt;Node3</title>
<path fill="none" stroke="midnightblue" d="M199.758,-10C208.249,-10 217.091,-10 225.574,-10"/>
<polygon fill="midnightblue" stroke="midnightblue" points="199.622,-6.5001 189.622,-10 199.622,-13.5001 199.622,-6.5001"/>
</g>
</g>
</svg>
