<?xml version="1.0" encoding="UTF-8" standalone="no"?>
<!DOCTYPE svg PUBLIC "-//W3C//DTD SVG 1.1//EN"
 "http://www.w3.org/Graphics/SVG/1.1/DTD/svg11.dtd">
<!-- Generated by graphviz version 2.36.0 (20140111.2315)
 -->
<!-- Title: Graphical Class Hierarchy Pages: 1 -->
<svg width="468pt" height="38pt"
 viewBox="0.00 0.00 468.00 38.00" xmlns="http://www.w3.org/2000/svg" xmlns:xlink="http://www.w3.org/1999/xlink">
<g id="graph0" class="graph" transform="scale(1 1) rotate(0) translate(4 34)">
<title>Graphical Class Hierarchy</title>
<polygon fill="white" stroke="none" points="-4,4 -4,-34 464,-34 464,4 -4,4"/>
<!-- Node1 -->
<g id="node1" class="node"><title>Node1</title>
<g id="a_node1"><a xlink:href="classai_1_1IFactory.html" target="_top" xlink:title="ai::IFactory\&lt; TreeNode,\l TreeNodeFactoryContext \&gt;">
<polygon fill="white" stroke="black" points="0.5,-0 0.5,-30 139.5,-30 139.5,-0 0.5,-0"/>
<text text-anchor="start" x="8.5" y="-18" font-family="Helvetica,sans-Serif" font-size="10.00">ai::IFactory&lt; TreeNode,</text>
<text text-anchor="middle" x="70" y="-7" font-family="Helvetica,sans-Serif" font-size="10.00"> TreeNodeFactoryContext &gt;</text>
</a>
</g>
</g>
<!-- Node2 -->
<g id="node2" class="node"><title>Node2</title>
<g id="a_node2"><a xlink:href="classai_1_1ITreeNodeFactory.html" target="_top" xlink:title="This factory will create tree nodes. It uses the TreeNodeFactoryContext to collect all the needed dat...">
<polygon fill="white" stroke="black" points="176.5,-5.5 176.5,-24.5 285.5,-24.5 285.5,-5.5 176.5,-5.5"/>
<text text-anchor="middle" x="231" y="-12.5" font-family="Helvetica,sans-Serif" font-size="10.00">ai::ITreeNodeFactory</text>
</a>
</g>
</g>
<!-- Node1&#45;&gt;Node2 -->
<g id="edge1" class="edge"><title>Node1&#45;&gt;Node2</title>
<path fill="none" stroke="midnightblue" d="M149.92,-15C158.895,-15 167.88,-15 176.417,-15"/>
<polygon fill="midnightblue" stroke="midnightblue" points="149.815,-11.5001 139.815,-15 149.815,-18.5001 149.815,-11.5001"/>
</g>
<!-- Node3 -->
<g id="node3" class="node"><title>Node3</title>
<g id="a_node3"><a xlink:href="classai_1_1LUATreeNode_1_1LUATreeNodeFactory.html" target="_top" xlink:title="ai::LUATreeNode::LUATree\lNodeFactory">
<polygon fill="white" stroke="black" points="322.5,-0 322.5,-30 459.5,-30 459.5,-0 322.5,-0"/>
<text text-anchor="start" x="330.5" y="-18" font-family="Helvetica,sans-Serif" font-size="10.00">ai::LUATreeNode::LUATree</text>
<text text-anchor="middle" x="391" y="-7" font-family="Helvetica,sans-Serif" font-size="10.00">NodeFactory</text>
</a>
</g>
</g>
<!-- Node2&#45;&gt;Node3 -->
<g id="edge2" class="edge"><title>Node2&#45;&gt;Node3</title>
<path fill="none" stroke="midnightblue" d="M295.982,-15C304.663,-15 313.596,-15 322.339,-15"/>
<polygon fill="midnightblue" stroke="midnightblue" points="295.933,-11.5001 285.933,-15 295.933,-18.5001 295.933,-11.5001"/>
</g>
</g>
</svg>
