<?xml version="1.0" encoding="UTF-8" standalone="no"?>
<!DOCTYPE svg PUBLIC "-//W3C//DTD SVG 1.1//EN"
 "http://www.w3.org/Graphics/SVG/1.1/DTD/svg11.dtd">
<!-- Generated by graphviz version 2.36.0 (20140111.2315)
 -->
<!-- Title: Graphical Class Hierarchy Pages: 1 -->
<svg width="524pt" height="491pt"
 viewBox="0.00 0.00 524.00 491.00" xmlns="http://www.w3.org/2000/svg" xmlns:xlink="http://www.w3.org/1999/xlink">
<g id="graph0" class="graph" transform="scale(1 1) rotate(0) translate(4 487)">
<title>Graphical Class Hierarchy</title>
<polygon fill="white" stroke="none" points="-4,4 -4,-487 520,-487 520,4 -4,4"/>
<!-- Node1 -->
<g id="node1" class="node"><title>Node1</title>
<polygon fill="white" stroke="#bfbfbf" points="0.5,-444.5 0.5,-463.5 125.5,-463.5 125.5,-444.5 0.5,-444.5"/>
<text text-anchor="middle" x="63" y="-451.5" font-family="Helvetica,sans-Serif" font-size="10.00">enable_shared_from_this</text>
</g>
<!-- Node2 -->
<g id="node2" class="node"><title>Node2</title>
<g id="a_node2"><a xlink:href="classai_1_1AI.html" target="_top" xlink:title="This is the type the library works with. It interacts with it&#39;s real world entity by the ICharacter i...">
<polygon fill="white" stroke="black" points="232,-463.5 232,-482.5 272,-482.5 272,-463.5 232,-463.5"/>
<text text-anchor="middle" x="252" y="-470.5" font-family="Helvetica,sans-Serif" font-size="10.00">ai::AI</text>
</a>
</g>
</g>
<!-- Node1&#45;&gt;Node2 -->
<g id="edge1" class="edge"><title>Node1&#45;&gt;Node2</title>
<path fill="none" stroke="midnightblue" d="M135.831,-461.298C170.354,-464.806 209.048,-468.737 231.647,-471.034"/>
<polygon fill="midnightblue" stroke="midnightblue" points="136.052,-457.803 125.749,-460.274 135.344,-464.767 136.052,-457.803"/>
</g>
<!-- Node3 -->
<g id="node3" class="node"><title>Node3</title>
<g id="a_node3"><a xlink:href="classai_1_1ICharacter.html" target="_top" xlink:title="Class that should be extended by the AI controlled entity class. ">
<polygon fill="white" stroke="black" points="214,-425.5 214,-444.5 290,-444.5 290,-425.5 214,-425.5"/>
<text text-anchor="middle" x="252" y="-432.5" font-family="Helvetica,sans-Serif" font-size="10.00">ai::ICharacter</text>
</a>
</g>
</g>
<!-- Node1&#45;&gt;Node3 -->
<g id="edge2" class="edge"><title>Node1&#45;&gt;Node3</title>
<path fill="none" stroke="midnightblue" d="M135.816,-446.703C162.45,-443.997 191.568,-441.039 213.864,-438.773"/>
<polygon fill="midnightblue" stroke="midnightblue" points="135.344,-443.233 125.749,-447.726 136.052,-450.197 135.344,-443.233"/>
</g>
<!-- Node4 -->
<g id="node4" class="node"><title>Node4</title>
<g id="a_node4"><a xlink:href="classai_1_1NonCopyable.html" target="_top" xlink:title="ai::NonCopyable">
<polygon fill="white" stroke="black" points="18.5,-248.5 18.5,-267.5 107.5,-267.5 107.5,-248.5 18.5,-248.5"/>
<text text-anchor="middle" x="63" y="-255.5" font-family="Helvetica,sans-Serif" font-size="10.00">ai::NonCopyable</text>
</a>
</g>
</g>
<!-- Node4&#45;&gt;Node2 -->
<g id="edge3" class="edge"><title>Node4&#45;&gt;Node2</title>
<path fill="none" stroke="midnightblue" d="M67.8376,-277.412C76.7752,-317.228 102.878,-408.234 162,-454 182.115,-469.571 212.131,-473.071 231.638,-473.525"/>
<polygon fill="midnightblue" stroke="midnightblue" points="71.2591,-276.674 65.7587,-267.619 64.4117,-278.128 71.2591,-276.674"/>
</g>
<!-- Node4&#45;&gt;Node3 -->
<g id="edge4" class="edge"><title>Node4&#45;&gt;Node3</title>
<path fill="none" stroke="midnightblue" d="M70.2763,-277.326C82.3106,-311.148 111.97,-380.811 162,-416 176.991,-426.544 196.67,-431.433 213.711,-433.628"/>
<polygon fill="midnightblue" stroke="midnightblue" points="73.5304,-276.025 66.9849,-267.694 66.9064,-278.288 73.5304,-276.025"/>
</g>
<!-- Node5 -->
<g id="node5" class="node"><title>Node5</title>
<g id="a_node5"><a xlink:href="classai_1_1IFactoryRegistry.html" target="_top" xlink:title="ai::IFactoryRegistry\l\&lt; KEY, TYPE, CTX \&gt;">
<polygon fill="white" stroke="black" points="195.5,-39 195.5,-69 308.5,-69 308.5,-39 195.5,-39"/>
<text text-anchor="start" x="203.5" y="-57" font-family="Helvetica,sans-Serif" font-size="10.00">ai::IFactoryRegistry</text>
<text text-anchor="middle" x="252" y="-46" font-family="Helvetica,sans-Serif" font-size="10.00">&lt; KEY, TYPE, CTX &gt;</text>
</a>
</g>
</g>
<!-- Node4&#45;&gt;Node5 -->
<g id="edge5" class="edge"><title>Node4&#45;&gt;Node5</title>
<path fill="none" stroke="midnightblue" d="M69.0824,-238.406C79.7515,-201.265 108.071,-120.533 162,-78 171.55,-70.4681 183.273,-65.293 195.038,-61.7393"/>
<polygon fill="midnightblue" stroke="midnightblue" points="65.5994,-237.874 66.3292,-248.443 72.35,-239.725 65.5994,-237.874"/>
</g>
<!-- Node6 -->
<g id="node6" class="node"><title>Node6</title>
<g id="a_node6"><a xlink:href="classai_1_1lua_1_1LUA.html" target="_top" xlink:title="ai::lua::LUA">
<polygon fill="white" stroke="black" points="218,-0.5 218,-19.5 286,-19.5 286,-0.5 218,-0.5"/>
<text text-anchor="middle" x="252" y="-7.5" font-family="Helvetica,sans-Serif" font-size="10.00">ai::lua::LUA</text>
</a>
</g>
</g>
<!-- Node4&#45;&gt;Node6 -->
<g id="edge6" class="edge"><title>Node4&#45;&gt;Node6</title>
<path fill="none" stroke="midnightblue" d="M66.3753,-238.173C72.843,-193.401 95.0252,-84.0944 162,-29 177.496,-16.2527 199.521,-11.477 217.783,-9.90089"/>
<polygon fill="midnightblue" stroke="midnightblue" points="62.8748,-237.945 65.0244,-248.32 69.8136,-238.869 62.8748,-237.945"/>
</g>
<!-- Node7 -->
<g id="node7" class="node"><title>Node7</title>
<g id="a_node7"><a xlink:href="classai_1_1ProtocolMessageFactory.html" target="_top" xlink:title="ai::ProtocolMessageFactory">
<polygon fill="white" stroke="black" points="182.5,-387.5 182.5,-406.5 321.5,-406.5 321.5,-387.5 182.5,-387.5"/>
<text text-anchor="middle" x="252" y="-394.5" font-family="Helvetica,sans-Serif" font-size="10.00">ai::ProtocolMessageFactory</text>
</a>
</g>
</g>
<!-- Node4&#45;&gt;Node7 -->
<g id="edge7" class="edge"><title>Node4&#45;&gt;Node7</title>
<path fill="none" stroke="midnightblue" d="M73.9329,-276.561C89.1854,-303.18 120.966,-351.759 162,-377 169.014,-381.315 176.851,-384.702 184.887,-387.36"/>
<polygon fill="midnightblue" stroke="midnightblue" points="76.8298,-274.569 68.9117,-267.53 70.7117,-277.97 76.8298,-274.569"/>
</g>
<!-- Node8 -->
<g id="node8" class="node"><title>Node8</title>
<g id="a_node8"><a xlink:href="classai_1_1IFactoryRegistry.html" target="_top" xlink:title="ai::IFactoryRegistry\l\&lt; std::string, ICondition,\l ConditionFactoryContext \&gt;">
<polygon fill="white" stroke="black" points="183.5,-327.5 183.5,-368.5 320.5,-368.5 320.5,-327.5 183.5,-327.5"/>
<text text-anchor="start" x="191.5" y="-356.5" font-family="Helvetica,sans-Serif" font-size="10.00">ai::IFactoryRegistry</text>
<text text-anchor="start" x="191.5" y="-345.5" font-family="Helvetica,sans-Serif" font-size="10.00">&lt; std::string, ICondition,</text>
<text text-anchor="middle" x="252" y="-334.5" font-family="Helvetica,sans-Serif" font-size="10.00"> ConditionFactoryContext &gt;</text>
</a>
</g>
</g>
<!-- Node4&#45;&gt;Node8 -->
<g id="edge8" class="edge"><title>Node4&#45;&gt;Node8</title>
<path fill="none" stroke="midnightblue" d="M86.2044,-273.189C105.604,-286.01 134.837,-304.26 162,-317 169.851,-320.682 178.266,-324.169 186.675,-327.382"/>
<polygon fill="midnightblue" stroke="midnightblue" points="88.0323,-270.201 77.7745,-267.55 84.1402,-276.019 88.0323,-270.201"/>
</g>
<!-- Node10 -->
<g id="node10" class="node"><title>Node10</title>
<g id="a_node10"><a xlink:href="classai_1_1IFactoryRegistry.html" target="_top" xlink:title="ai::IFactoryRegistry\l\&lt; std::string, IFilter,\l FilterFactoryContext \&gt;">
<polygon fill="white" stroke="black" points="193,-267.5 193,-308.5 311,-308.5 311,-267.5 193,-267.5"/>
<text text-anchor="start" x="201" y="-296.5" font-family="Helvetica,sans-Serif" font-size="10.00">ai::IFactoryRegistry</text>
<text text-anchor="start" x="201" y="-285.5" font-family="Helvetica,sans-Serif" font-size="10.00">&lt; std::string, IFilter,</text>
<text text-anchor="middle" x="252" y="-274.5" font-family="Helvetica,sans-Serif" font-size="10.00"> FilterFactoryContext &gt;</text>
</a>
</g>
</g>
<!-- Node4&#45;&gt;Node10 -->
<g id="edge10" class="edge"><title>Node4&#45;&gt;Node10</title>
<path fill="none" stroke="midnightblue" d="M117.971,-266.659C141.444,-270.424 168.991,-274.843 192.91,-278.681"/>
<polygon fill="midnightblue" stroke="midnightblue" points="118.271,-263.162 107.843,-265.034 117.163,-270.074 118.271,-263.162"/>
</g>
<!-- Node12 -->
<g id="node12" class="node"><title>Node12</title>
<g id="a_node12"><a xlink:href="classai_1_1IFactoryRegistry.html" target="_top" xlink:title="ai::IFactoryRegistry\l\&lt; std::string, movement\l::ISteering, SteeringFactoryContext \&gt;">
<polygon fill="white" stroke="black" points="162,-207.5 162,-248.5 342,-248.5 342,-207.5 162,-207.5"/>
<text text-anchor="start" x="170" y="-236.5" font-family="Helvetica,sans-Serif" font-size="10.00">ai::IFactoryRegistry</text>
<text text-anchor="start" x="170" y="-225.5" font-family="Helvetica,sans-Serif" font-size="10.00">&lt; std::string, movement</text>
<text text-anchor="middle" x="252" y="-214.5" font-family="Helvetica,sans-Serif" font-size="10.00">::ISteering, SteeringFactoryContext &gt;</text>
</a>
</g>
</g>
<!-- Node4&#45;&gt;Node12 -->
<g id="edge12" class="edge"><title>Node4&#45;&gt;Node12</title>
<path fill="none" stroke="midnightblue" d="M118.032,-249.332C131.742,-247.132 146.839,-244.71 161.789,-242.312"/>
<polygon fill="midnightblue" stroke="midnightblue" points="117.163,-245.926 107.843,-250.966 118.271,-252.838 117.163,-245.926"/>
</g>
<!-- Node14 -->
<g id="node14" class="node"><title>Node14</title>
<g id="a_node14"><a xlink:href="classai_1_1IFactoryRegistry.html" target="_top" xlink:title="ai::IFactoryRegistry\l\&lt; std::string, TreeNode,\l SteerNodeFactoryContext \&gt;">
<polygon fill="white" stroke="black" points="180.5,-147.5 180.5,-188.5 323.5,-188.5 323.5,-147.5 180.5,-147.5"/>
<text text-anchor="start" x="188.5" y="-176.5" font-family="Helvetica,sans-Serif" font-size="10.00">ai::IFactoryRegistry</text>
<text text-anchor="start" x="188.5" y="-165.5" font-family="Helvetica,sans-Serif" font-size="10.00">&lt; std::string, TreeNode,</text>
<text text-anchor="middle" x="252" y="-154.5" font-family="Helvetica,sans-Serif" font-size="10.00"> SteerNodeFactoryContext &gt;</text>
</a>
</g>
</g>
<!-- Node4&#45;&gt;Node14 -->
<g id="edge14" class="edge"><title>Node4&#45;&gt;Node14</title>
<path fill="none" stroke="midnightblue" d="M85.8031,-242.68C105.156,-229.57 134.541,-210.835 162,-198 169.09,-194.686 176.651,-191.56 184.256,-188.668"/>
<polygon fill="midnightblue" stroke="midnightblue" points="83.6752,-239.895 77.4108,-248.44 87.6363,-245.667 83.6752,-239.895"/>
</g>
<!-- Node16 -->
<g id="node16" class="node"><title>Node16</title>
<g id="a_node16"><a xlink:href="classai_1_1IFactoryRegistry.html" target="_top" xlink:title="ai::IFactoryRegistry\l\&lt; std::string, TreeNode,\l TreeNodeFactoryContext \&gt;">
<polygon fill="white" stroke="black" points="182.5,-87.5 182.5,-128.5 321.5,-128.5 321.5,-87.5 182.5,-87.5"/>
<text text-anchor="start" x="190.5" y="-116.5" font-family="Helvetica,sans-Serif" font-size="10.00">ai::IFactoryRegistry</text>
<text text-anchor="start" x="190.5" y="-105.5" font-family="Helvetica,sans-Serif" font-size="10.00">&lt; std::string, TreeNode,</text>
<text text-anchor="middle" x="252" y="-94.5" font-family="Helvetica,sans-Serif" font-size="10.00"> TreeNodeFactoryContext &gt;</text>
</a>
</g>
</g>
<!-- Node4&#45;&gt;Node16 -->
<g id="edge16" class="edge"><title>Node4&#45;&gt;Node16</title>
<path fill="none" stroke="midnightblue" d="M74.4896,-239.452C90.2314,-213.218 122.388,-165.424 162,-138 168.301,-133.638 175.288,-129.866 182.497,-126.615"/>
<polygon fill="midnightblue" stroke="midnightblue" points="71.3052,-237.964 69.2787,-248.363 77.348,-241.497 71.3052,-237.964"/>
</g>
<!-- Node9 -->
<g id="node9" class="node"><title>Node9</title>
<g id="a_node9"><a xlink:href="classai_1_1AIRegistry_1_1ConditionFactory.html" target="_top" xlink:title="ai::AIRegistry::Condition\lFactory">
<polygon fill="white" stroke="black" points="385,-333 385,-363 509,-363 509,-333 385,-333"/>
<text text-anchor="start" x="393" y="-351" font-family="Helvetica,sans-Serif" font-size="10.00">ai::AIRegistry::Condition</text>
<text text-anchor="middle" x="447" y="-340" font-family="Helvetica,sans-Serif" font-size="10.00">Factory</text>
</a>
</g>
</g>
<!-- Node8&#45;&gt;Node9 -->
<g id="edge9" class="edge"><title>Node8&#45;&gt;Node9</title>
<path fill="none" stroke="midnightblue" d="M330.719,-348C348.784,-348 367.762,-348 384.987,-348"/>
<polygon fill="midnightblue" stroke="midnightblue" points="330.502,-344.5 320.502,-348 330.502,-351.5 330.502,-344.5"/>
</g>
<!-- Node11 -->
<g id="node11" class="node"><title>Node11</title>
<g id="a_node11"><a xlink:href="classai_1_1AIRegistry_1_1FilterFactory.html" target="_top" xlink:title="ai::AIRegistry::FilterFactory">
<polygon fill="white" stroke="black" points="378.5,-278.5 378.5,-297.5 515.5,-297.5 515.5,-278.5 378.5,-278.5"/>
<text text-anchor="middle" x="447" y="-285.5" font-family="Helvetica,sans-Serif" font-size="10.00">ai::AIRegistry::FilterFactory</text>
</a>
</g>
</g>
<!-- Node10&#45;&gt;Node11 -->
<g id="edge11" class="edge"><title>Node10&#45;&gt;Node11</title>
<path fill="none" stroke="midnightblue" d="M321.301,-288C339.859,-288 359.943,-288 378.458,-288"/>
<polygon fill="midnightblue" stroke="midnightblue" points="321.168,-284.5 311.168,-288 321.168,-291.5 321.168,-284.5"/>
</g>
<!-- Node13 -->
<g id="node13" class="node"><title>Node13</title>
<g id="a_node13"><a xlink:href="classai_1_1AIRegistry_1_1SteeringFactory.html" target="_top" xlink:title="ai::AIRegistry::Steering\lFactory">
<polygon fill="white" stroke="black" points="387.5,-213 387.5,-243 506.5,-243 506.5,-213 387.5,-213"/>
<text text-anchor="start" x="395.5" y="-231" font-family="Helvetica,sans-Serif" font-size="10.00">ai::AIRegistry::Steering</text>
<text text-anchor="middle" x="447" y="-220" font-family="Helvetica,sans-Serif" font-size="10.00">Factory</text>
</a>
</g>
</g>
<!-- Node12&#45;&gt;Node13 -->
<g id="edge13" class="edge"><title>Node12&#45;&gt;Node13</title>
<path fill="none" stroke="midnightblue" d="M352.222,-228C364.209,-228 376.139,-228 387.274,-228"/>
<polygon fill="midnightblue" stroke="midnightblue" points="352.156,-224.5 342.156,-228 352.156,-231.5 352.156,-224.5"/>
</g>
<!-- Node15 -->
<g id="node15" class="node"><title>Node15</title>
<g id="a_node15"><a xlink:href="classai_1_1AIRegistry_1_1SteerNodeFactory.html" target="_top" xlink:title="ai::AIRegistry::SteerNode\lFactory">
<polygon fill="white" stroke="black" points="382.5,-153 382.5,-183 511.5,-183 511.5,-153 382.5,-153"/>
<text text-anchor="start" x="390.5" y="-171" font-family="Helvetica,sans-Serif" font-size="10.00">ai::AIRegistry::SteerNode</text>
<text text-anchor="middle" x="447" y="-160" font-family="Helvetica,sans-Serif" font-size="10.00">Factory</text>
</a>
</g>
</g>
<!-- Node14&#45;&gt;Node15 -->
<g id="edge15" class="edge"><title>Node14&#45;&gt;Node15</title>
<path fill="none" stroke="midnightblue" d="M334.215,-168C350.265,-168 366.895,-168 382.266,-168"/>
<polygon fill="midnightblue" stroke="midnightblue" points="333.77,-164.5 323.77,-168 333.77,-171.5 333.77,-164.5"/>
</g>
<!-- Node17 -->
<g id="node17" class="node"><title>Node17</title>
<g id="a_node17"><a xlink:href="classai_1_1AIRegistry_1_1TreeNodeFactory.html" target="_top" xlink:title="ai::AIRegistry::TreeNode\lFactory">
<polygon fill="white" stroke="black" points="384.5,-93 384.5,-123 509.5,-123 509.5,-93 384.5,-93"/>
<text text-anchor="start" x="392.5" y="-111" font-family="Helvetica,sans-Serif" font-size="10.00">ai::AIRegistry::TreeNode</text>
<text text-anchor="middle" x="447" y="-100" font-family="Helvetica,sans-Serif" font-size="10.00">Factory</text>
</a>
</g>
</g>
<!-- Node16&#45;&gt;Node17 -->
<g id="edge17" class="edge"><title>Node16&#45;&gt;Node17</title>
<path fill="none" stroke="midnightblue" d="M331.797,-108C349.325,-108 367.66,-108 384.38,-108"/>
<polygon fill="midnightblue" stroke="midnightblue" points="331.588,-104.5 321.588,-108 331.588,-111.5 331.588,-104.5"/>
</g>
</g>
</svg>
