<?xml version="1.0" encoding="UTF-8" standalone="no"?>
<!DOCTYPE svg PUBLIC "-//W3C//DTD SVG 1.1//EN"
 "http://www.w3.org/Graphics/SVG/1.1/DTD/svg11.dtd">
<!-- Generated by graphviz version 2.36.0 (20140111.2315)
 -->
<!-- Title: Graphical Class Hierarchy Pages: 1 -->
<svg width="458pt" height="48pt"
 viewBox="0.00 0.00 458.00 48.00" xmlns="http://www.w3.org/2000/svg" xmlns:xlink="http://www.w3.org/1999/xlink">
<g id="graph0" class="graph" transform="scale(1 1) rotate(0) translate(4 44)">
<title>Graphical Class Hierarchy</title>
<polygon fill="white" stroke="none" points="-4,4 -4,-44 454,-44 454,4 -4,4"/>
<!-- Node1 -->
<g id="node1" class="node"><title>Node1</title>
<g id="a_node1"><a xlink:href="classai_1_1IFactory.html" target="_top" xlink:title="ai::IFactory\&lt; movement\l::ISteering, SteeringFactory\lContext \&gt;">
<polygon fill="white" stroke="black" points="0.5,0.5 0.5,-40.5 137.5,-40.5 137.5,0.5 0.5,0.5"/>
<text text-anchor="start" x="8.5" y="-28.5" font-family="Helvetica,sans-Serif" font-size="10.00">ai::IFactory&lt; movement</text>
<text text-anchor="start" x="8.5" y="-17.5" font-family="Helvetica,sans-Serif" font-size="10.00">::ISteering, SteeringFactory</text>
<text text-anchor="middle" x="69" y="-6.5" font-family="Helvetica,sans-Serif" font-size="10.00">Context &gt;</text>
</a>
</g>
</g>
<!-- Node2 -->
<g id="node2" class="node"><title>Node2</title>
<g id="a_node2"><a xlink:href="classai_1_1ISteeringFactory.html" target="_top" xlink:title="ai::ISteeringFactory">
<polygon fill="white" stroke="black" points="174,-10.5 174,-29.5 276,-29.5 276,-10.5 174,-10.5"/>
<text text-anchor="middle" x="225" y="-17.5" font-family="Helvetica,sans-Serif" font-size="10.00">ai::ISteeringFactory</text>
</a>
</g>
</g>
<!-- Node1&#45;&gt;Node2 -->
<g id="edge1" class="edge"><title>Node1&#45;&gt;Node2</title>
<path fill="none" stroke="midnightblue" d="M147.823,-20C156.595,-20 165.352,-20 173.64,-20"/>
<polygon fill="midnightblue" stroke="midnightblue" points="147.547,-16.5001 137.547,-20 147.547,-23.5001 147.547,-16.5001"/>
</g>
<!-- Node3 -->
<g id="node3" class="node"><title>Node3</title>
<g id="a_node3"><a xlink:href="classai_1_1movement_1_1LUASteering_1_1LUASteeringFactory.html" target="_top" xlink:title="ai::movement::LUASteering\l::LUASteeringFactory">
<polygon fill="white" stroke="black" points="312.5,-5 312.5,-35 449.5,-35 449.5,-5 312.5,-5"/>
<text text-anchor="start" x="320.5" y="-23" font-family="Helvetica,sans-Serif" font-size="10.00">ai::movement::LUASteering</text>
<text text-anchor="middle" x="381" y="-12" font-family="Helvetica,sans-Serif" font-size="10.00">::LUASteeringFactory</text>
</a>
</g>
</g>
<!-- Node2&#45;&gt;Node3 -->
<g id="edge2" class="edge"><title>Node2&#45;&gt;Node3</title>
<path fill="none" stroke="midnightblue" d="M286.587,-20C295.054,-20 303.8,-20 312.387,-20"/>
<polygon fill="midnightblue" stroke="midnightblue" points="286.425,-16.5001 276.425,-20 286.425,-23.5001 286.425,-16.5001"/>
</g>
</g>
</svg>
