<?xml version="1.0" encoding="UTF-8" standalone="no"?>
<!DOCTYPE svg PUBLIC "-//W3C//DTD SVG 1.1//EN"
 "http://www.w3.org/Graphics/SVG/1.1/DTD/svg11.dtd">
<!-- Generated by graphviz version 2.36.0 (20140111.2315)
 -->
<!-- Title: Graphical Class Hierarchy Pages: 1 -->
<svg width="208pt" height="66pt"
 viewBox="0.00 0.00 208.00 66.00" xmlns="http://www.w3.org/2000/svg" xmlns:xlink="http://www.w3.org/1999/xlink">
<g id="graph0" class="graph" transform="scale(1 1) rotate(0) translate(4 62)">
<title>Graphical Class Hierarchy</title>
<polygon fill="white" stroke="none" points="-4,4 -4,-62 204,-62 204,4 -4,4"/>
<!-- Node1 -->
<g id="node1" class="node"><title>Node1</title>
<g id="a_node1"><a xlink:href="classai_1_1IParser.html" target="_top" xlink:title="ai::IParser">
<polygon fill="white" stroke="black" points="0,-19.5 0,-38.5 62,-38.5 62,-19.5 0,-19.5"/>
<text text-anchor="middle" x="31" y="-26.5" font-family="Helvetica,sans-Serif" font-size="10.00">ai::IParser</text>
</a>
</g>
</g>
<!-- Node2 -->
<g id="node2" class="node"><title>Node2</title>
<g id="a_node2"><a xlink:href="classai_1_1ConditionParser.html" target="_top" xlink:title="Transforms the string representation of a condition with all its sub conditions and parameters into a...">
<polygon fill="white" stroke="black" points="99,-38.5 99,-57.5 199,-57.5 199,-38.5 99,-38.5"/>
<text text-anchor="middle" x="149" y="-45.5" font-family="Helvetica,sans-Serif" font-size="10.00">ai::ConditionParser</text>
</a>
</g>
</g>
<!-- Node1&#45;&gt;Node2 -->
<g id="edge1" class="edge"><title>Node1&#45;&gt;Node2</title>
<path fill="none" stroke="midnightblue" d="M72.2321,-35.5897C80.7538,-36.9855 89.8419,-38.4741 98.6571,-39.918"/>
<polygon fill="midnightblue" stroke="midnightblue" points="72.6091,-32.1049 62.1748,-33.9424 71.4776,-39.0129 72.6091,-32.1049"/>
</g>
<!-- Node3 -->
<g id="node3" class="node"><title>Node3</title>
<g id="a_node3"><a xlink:href="classai_1_1TreeNodeParser.html" target="_top" xlink:title="Transforms the string representation of a TreeNode with all its parameters into a TreeNode instance...">
<polygon fill="white" stroke="black" points="98.5,-0.5 98.5,-19.5 199.5,-19.5 199.5,-0.5 98.5,-0.5"/>
<text text-anchor="middle" x="149" y="-7.5" font-family="Helvetica,sans-Serif" font-size="10.00">ai::TreeNodeParser</text>
</a>
</g>
</g>
<!-- Node1&#45;&gt;Node3 -->
<g id="edge2" class="edge"><title>Node1&#45;&gt;Node3</title>
<path fill="none" stroke="midnightblue" d="M72.1069,-22.4308C80.5204,-21.0527 89.4908,-19.5834 98.2087,-18.1555"/>
<polygon fill="midnightblue" stroke="midnightblue" points="71.4776,-18.9871 62.1748,-24.0576 72.6091,-25.8951 71.4776,-18.9871"/>
</g>
</g>
</svg>
