<?xml version="1.0" encoding="UTF-8" standalone="no"?>
<!DOCTYPE svg PUBLIC "-//W3C//DTD SVG 1.1//EN"
 "http://www.w3.org/Graphics/SVG/1.1/DTD/svg11.dtd">
<!-- Generated by graphviz version 2.36.0 (20140111.2315)
 -->
<!-- Title: Graphical Class Hierarchy Pages: 1 -->
<svg width="676pt" height="1016pt"
 viewBox="0.00 0.00 676.00 1016.00" xmlns="http://www.w3.org/2000/svg" xmlns:xlink="http://www.w3.org/1999/xlink">
<g id="graph0" class="graph" transform="scale(1 1) rotate(0) translate(4 1012)">
<title>Graphical Class Hierarchy</title>
<polygon fill="white" stroke="none" points="-4,4 -4,-1012 672,-1012 672,4 -4,4"/>
<!-- Node1 -->
<g id="node1" class="node"><title>Node1</title>
<g id="a_node1"><a xlink:href="classai_1_1__MemObject.html" target="_top" xlink:title="ai::_MemObject\&lt; Allocator\lClass \&gt;">
<polygon fill="white" stroke="black" points="0.5,-451 0.5,-481 133.5,-481 133.5,-451 0.5,-451"/>
<text text-anchor="start" x="8.5" y="-469" font-family="Helvetica,sans-Serif" font-size="10.00">ai::_MemObject&lt; Allocator</text>
<text text-anchor="middle" x="67" y="-458" font-family="Helvetica,sans-Serif" font-size="10.00">Class &gt;</text>
</a>
</g>
</g>
<!-- Node2 -->
<g id="node2" class="node"><title>Node2</title>
<g id="a_node2"><a xlink:href="classai_1_1ICondition.html" target="_top" xlink:title="A condition can be placed on a TreeNode to decide which node is going to get executed. In general they are stateless. If they are not, it should explicitly get noted. ">
<polygon fill="white" stroke="black" points="194,-779.5 194,-798.5 268,-798.5 268,-779.5 194,-779.5"/>
<text text-anchor="middle" x="231" y="-786.5" font-family="Helvetica,sans-Serif" font-size="10.00">ai::ICondition</text>
</a>
</g>
</g>
<!-- Node1&#45;&gt;Node2 -->
<g id="edge1" class="edge"><title>Node1&#45;&gt;Node2</title>
<path fill="none" stroke="midnightblue" d="M80.2134,-490.351C113.23,-556.181 203.247,-735.659 225.149,-779.327"/>
<polygon fill="midnightblue" stroke="midnightblue" points="83.2081,-488.515 75.5963,-481.146 76.951,-491.654 83.2081,-488.515"/>
</g>
<!-- Node14 -->
<g id="node14" class="node"><title>Node14</title>
<g id="a_node14"><a xlink:href="classai_1_1movement_1_1ISteering.html" target="_top" xlink:title="Steering interface. ">
<polygon fill="white" stroke="black" points="170.5,-456.5 170.5,-475.5 291.5,-475.5 291.5,-456.5 170.5,-456.5"/>
<text text-anchor="middle" x="231" y="-463.5" font-family="Helvetica,sans-Serif" font-size="10.00">ai::movement::ISteering</text>
</a>
</g>
</g>
<!-- Node1&#45;&gt;Node14 -->
<g id="edge13" class="edge"><title>Node1&#45;&gt;Node14</title>
<path fill="none" stroke="midnightblue" d="M144.177,-466C152.989,-466 161.879,-466 170.425,-466"/>
<polygon fill="midnightblue" stroke="midnightblue" points="143.892,-462.5 133.892,-466 143.892,-469.5 143.892,-462.5"/>
</g>
<!-- Node24 -->
<g id="node24" class="node"><title>Node24</title>
<g id="a_node24"><a xlink:href="classai_1_1TreeNode.html" target="_top" xlink:title="The base class for all behaviour tree actions. ">
<polygon fill="white" stroke="black" points="194.5,-190.5 194.5,-209.5 267.5,-209.5 267.5,-190.5 194.5,-190.5"/>
<text text-anchor="middle" x="231" y="-197.5" font-family="Helvetica,sans-Serif" font-size="10.00">ai::TreeNode</text>
</a>
</g>
</g>
<!-- Node1&#45;&gt;Node24 -->
<g id="edge23" class="edge"><title>Node1&#45;&gt;Node24</title>
<path fill="none" stroke="midnightblue" d="M82.385,-442.38C116.52,-386.331 201.272,-247.171 224.202,-209.521"/>
<polygon fill="midnightblue" stroke="midnightblue" points="79.3863,-440.575 77.174,-450.937 85.3648,-444.216 79.3863,-440.575"/>
</g>
<!-- Node3 -->
<g id="node3" class="node"><title>Node3</title>
<g id="a_node3"><a xlink:href="classai_1_1And.html" target="_top" xlink:title="This condition will logically and all contained conditions. ">
<polygon fill="white" stroke="black" points="383.5,-988.5 383.5,-1007.5 430.5,-1007.5 430.5,-988.5 383.5,-988.5"/>
<text text-anchor="middle" x="407" y="-995.5" font-family="Helvetica,sans-Serif" font-size="10.00">ai::And</text>
</a>
</g>
</g>
<!-- Node2&#45;&gt;Node3 -->
<g id="edge2" class="edge"><title>Node2&#45;&gt;Node3</title>
<path fill="none" stroke="midnightblue" d="M236.172,-808.726C245.46,-847.608 271.62,-934.246 328,-979 343.72,-991.478 366.434,-995.93 383.301,-997.437"/>
<polygon fill="midnightblue" stroke="midnightblue" points="239.523,-807.675 233.902,-798.694 232.695,-809.22 239.523,-807.675"/>
</g>
<!-- Node4 -->
<g id="node4" class="node"><title>Node4</title>
<g id="a_node4"><a xlink:href="classai_1_1False.html" target="_top" xlink:title="This condition just always evaluates to false. ">
<polygon fill="white" stroke="black" points="380,-950.5 380,-969.5 434,-969.5 434,-950.5 380,-950.5"/>
<text text-anchor="middle" x="407" y="-957.5" font-family="Helvetica,sans-Serif" font-size="10.00">ai::False</text>
</a>
</g>
</g>
<!-- Node2&#45;&gt;Node4 -->
<g id="edge3" class="edge"><title>Node2&#45;&gt;Node4</title>
<path fill="none" stroke="midnightblue" d="M238.681,-808.345C250.985,-840.991 280.411,-906.795 328,-941 343.052,-951.819 363.517,-956.525 379.708,-958.549"/>
<polygon fill="midnightblue" stroke="midnightblue" points="241.861,-806.848 235.163,-798.639 235.28,-809.233 241.861,-806.848"/>
</g>
<!-- Node5 -->
<g id="node5" class="node"><title>Node5</title>
<g id="a_node5"><a xlink:href="classai_1_1Filter.html" target="_top" xlink:title="The filter condition executes some selection filters (IFilter) and evaluates to true if the resulting...">
<polygon fill="white" stroke="black" points="381,-912.5 381,-931.5 433,-931.5 433,-912.5 381,-912.5"/>
<text text-anchor="middle" x="407" y="-919.5" font-family="Helvetica,sans-Serif" font-size="10.00">ai::Filter</text>
</a>
</g>
</g>
<!-- Node2&#45;&gt;Node5 -->
<g id="edge4" class="edge"><title>Node2&#45;&gt;Node5</title>
<path fill="none" stroke="midnightblue" d="M242.344,-807.443C257.653,-832.98 288.804,-878.703 328,-903 343.992,-912.914 364.809,-917.655 380.914,-919.923"/>
<polygon fill="midnightblue" stroke="midnightblue" points="245.326,-805.609 237.268,-798.731 239.278,-809.133 245.326,-805.609"/>
</g>
<!-- Node6 -->
<g id="node6" class="node"><title>Node6</title>
<g id="a_node6"><a xlink:href="classai_1_1HasEnemies.html" target="_top" xlink:title="This condition checks whether there are enemies. ">
<polygon fill="white" stroke="black" points="364,-874.5 364,-893.5 450,-893.5 450,-874.5 364,-874.5"/>
<text text-anchor="middle" x="407" y="-881.5" font-family="Helvetica,sans-Serif" font-size="10.00">ai::HasEnemies</text>
</a>
</g>
</g>
<!-- Node2&#45;&gt;Node6 -->
<g id="edge5" class="edge"><title>Node2&#45;&gt;Node6</title>
<path fill="none" stroke="midnightblue" d="M248.466,-805.773C266.447,-823.131 296.859,-849.792 328,-865 339.146,-870.443 351.97,-874.398 363.957,-877.242"/>
<polygon fill="midnightblue" stroke="midnightblue" points="250.698,-803.058 241.121,-798.526 245.781,-808.041 250.698,-803.058"/>
</g>
<!-- Node7 -->
<g id="node7" class="node"><title>Node7</title>
<g id="a_node7"><a xlink:href="classai_1_1IsCloseToGroup.html" target="_top" xlink:title="Checks whether the controlled AI is close to a particular group. ">
<polygon fill="white" stroke="black" points="356.5,-836.5 356.5,-855.5 457.5,-855.5 457.5,-836.5 356.5,-836.5"/>
<text text-anchor="middle" x="407" y="-843.5" font-family="Helvetica,sans-Serif" font-size="10.00">ai::IsCloseToGroup</text>
</a>
</g>
</g>
<!-- Node2&#45;&gt;Node7 -->
<g id="edge6" class="edge"><title>Node2&#45;&gt;Node7</title>
<path fill="none" stroke="midnightblue" d="M263.236,-802.631C281.819,-810.421 305.991,-820 328,-827 338.891,-830.464 350.808,-833.658 361.976,-836.4"/>
<polygon fill="midnightblue" stroke="midnightblue" points="264.376,-799.313 253.803,-798.63 261.642,-805.757 264.376,-799.313"/>
</g>
<!-- Node8 -->
<g id="node8" class="node"><title>Node8</title>
<g id="a_node8"><a xlink:href="classai_1_1IsGroupLeader.html" target="_top" xlink:title="Evaluates to true if you are the first member in a particular group. ">
<polygon fill="white" stroke="black" points="360,-798.5 360,-817.5 454,-817.5 454,-798.5 360,-798.5"/>
<text text-anchor="middle" x="407" y="-805.5" font-family="Helvetica,sans-Serif" font-size="10.00">ai::IsGroupLeader</text>
</a>
</g>
</g>
<!-- Node2&#45;&gt;Node8 -->
<g id="edge7" class="edge"><title>Node2&#45;&gt;Node8</title>
<path fill="none" stroke="midnightblue" d="M278.108,-794.035C303.327,-796.789 334.481,-800.19 359.726,-802.947"/>
<polygon fill="midnightblue" stroke="midnightblue" points="278.374,-790.543 268.053,-792.937 277.614,-797.502 278.374,-790.543"/>
</g>
<!-- Node9 -->
<g id="node9" class="node"><title>Node9</title>
<g id="a_node9"><a xlink:href="classai_1_1IsInGroup.html" target="_top" xlink:title="Checks whether the AI is in any or in a particular group. ">
<polygon fill="white" stroke="black" points="370.5,-760.5 370.5,-779.5 443.5,-779.5 443.5,-760.5 370.5,-760.5"/>
<text text-anchor="middle" x="407" y="-767.5" font-family="Helvetica,sans-Serif" font-size="10.00">ai::IsInGroup</text>
</a>
</g>
</g>
<!-- Node2&#45;&gt;Node9 -->
<g id="edge8" class="edge"><title>Node2&#45;&gt;Node9</title>
<path fill="none" stroke="midnightblue" d="M278.298,-783.944C307.142,-780.795 343.692,-776.804 370.291,-773.899"/>
<polygon fill="midnightblue" stroke="midnightblue" points="277.614,-780.498 268.053,-785.063 278.374,-787.457 277.614,-780.498"/>
</g>
<!-- Node10 -->
<g id="node10" class="node"><title>Node10</title>
<g id="a_node10"><a xlink:href="classai_1_1LUACondition.html" target="_top" xlink:title="ai::LUACondition">
<polygon fill="white" stroke="black" points="361.5,-722.5 361.5,-741.5 452.5,-741.5 452.5,-722.5 361.5,-722.5"/>
<text text-anchor="middle" x="407" y="-729.5" font-family="Helvetica,sans-Serif" font-size="10.00">ai::LUACondition</text>
</a>
</g>
</g>
<!-- Node2&#45;&gt;Node10 -->
<g id="edge9" class="edge"><title>Node2&#45;&gt;Node10</title>
<path fill="none" stroke="midnightblue" d="M263.236,-775.369C281.819,-767.579 305.991,-758 328,-751 338.891,-747.536 350.808,-744.342 361.976,-741.6"/>
<polygon fill="midnightblue" stroke="midnightblue" points="261.642,-772.243 253.803,-779.37 264.376,-778.687 261.642,-772.243"/>
</g>
<!-- Node11 -->
<g id="node11" class="node"><title>Node11</title>
<g id="a_node11"><a xlink:href="classai_1_1Not.html" target="_top" xlink:title="This condition will just swap the result of the contained condition. ">
<polygon fill="white" stroke="black" points="384,-684.5 384,-703.5 430,-703.5 430,-684.5 384,-684.5"/>
<text text-anchor="middle" x="407" y="-691.5" font-family="Helvetica,sans-Serif" font-size="10.00">ai::Not</text>
</a>
</g>
</g>
<!-- Node2&#45;&gt;Node11 -->
<g id="edge10" class="edge"><title>Node2&#45;&gt;Node11</title>
<path fill="none" stroke="midnightblue" d="M248.466,-772.227C266.447,-754.869 296.859,-728.208 328,-713 345.784,-704.315 367.838,-699.419 383.953,-696.781"/>
<polygon fill="midnightblue" stroke="midnightblue" points="245.781,-769.959 241.121,-779.474 250.698,-774.942 245.781,-769.959"/>
</g>
<!-- Node12 -->
<g id="node12" class="node"><title>Node12</title>
<g id="a_node12"><a xlink:href="classai_1_1Or.html" target="_top" xlink:title="This condition will logically or all contained conditions. ">
<polygon fill="white" stroke="black" points="386.5,-646.5 386.5,-665.5 427.5,-665.5 427.5,-646.5 386.5,-646.5"/>
<text text-anchor="middle" x="407" y="-653.5" font-family="Helvetica,sans-Serif" font-size="10.00">ai::Or</text>
</a>
</g>
</g>
<!-- Node2&#45;&gt;Node12 -->
<g id="edge11" class="edge"><title>Node2&#45;&gt;Node12</title>
<path fill="none" stroke="midnightblue" d="M242.344,-770.557C257.653,-745.02 288.804,-699.297 328,-675 345.888,-663.911 369.811,-659.294 386.426,-657.371"/>
<polygon fill="midnightblue" stroke="midnightblue" points="239.278,-768.867 237.268,-779.269 245.326,-772.391 239.278,-768.867"/>
</g>
<!-- Node13 -->
<g id="node13" class="node"><title>Node13</title>
<g id="a_node13"><a xlink:href="classai_1_1True.html" target="_top" xlink:title="This condition just always evaluates to true. ">
<polygon fill="white" stroke="black" points="382,-608.5 382,-627.5 432,-627.5 432,-608.5 382,-608.5"/>
<text text-anchor="middle" x="407" y="-615.5" font-family="Helvetica,sans-Serif" font-size="10.00">ai::True</text>
</a>
</g>
</g>
<!-- Node2&#45;&gt;Node13 -->
<g id="edge12" class="edge"><title>Node2&#45;&gt;Node13</title>
<path fill="none" stroke="midnightblue" d="M238.681,-769.655C250.985,-737.009 280.411,-671.205 328,-637 343.731,-625.693 365.375,-621.063 381.873,-619.193"/>
<polygon fill="midnightblue" stroke="midnightblue" points="235.28,-768.767 235.163,-779.361 241.861,-771.152 235.28,-768.767"/>
</g>
<!-- Node15 -->
<g id="node15" class="node"><title>Node15</title>
<g id="a_node15"><a xlink:href="classai_1_1movement_1_1GroupFlee.html" target="_top" xlink:title="Flees from a particular group. ">
<polygon fill="white" stroke="black" points="343.5,-570.5 343.5,-589.5 470.5,-589.5 470.5,-570.5 343.5,-570.5"/>
<text text-anchor="middle" x="407" y="-577.5" font-family="Helvetica,sans-Serif" font-size="10.00">ai::movement::GroupFlee</text>
</a>
</g>
</g>
<!-- Node14&#45;&gt;Node15 -->
<g id="edge14" class="edge"><title>Node14&#45;&gt;Node15</title>
<path fill="none" stroke="midnightblue" d="M244.776,-483.518C261.463,-505.094 292.739,-541.297 328,-561 334.935,-564.875 342.649,-567.967 350.451,-570.431"/>
<polygon fill="midnightblue" stroke="midnightblue" points="247.554,-481.39 238.737,-475.515 241.966,-485.606 247.554,-481.39"/>
</g>
<!-- Node16 -->
<g id="node16" class="node"><title>Node16</title>
<g id="a_node16"><a xlink:href="classai_1_1movement_1_1GroupSeek.html" target="_top" xlink:title="Seeks a particular group. ">
<polygon fill="white" stroke="black" points="341.5,-532.5 341.5,-551.5 472.5,-551.5 472.5,-532.5 341.5,-532.5"/>
<text text-anchor="middle" x="407" y="-539.5" font-family="Helvetica,sans-Serif" font-size="10.00">ai::movement::GroupSeek</text>
</a>
</g>
</g>
<!-- Node14&#45;&gt;Node16 -->
<g id="edge15" class="edge"><title>Node14&#45;&gt;Node16</title>
<path fill="none" stroke="midnightblue" d="M253.753,-481.476C272.6,-494.243 301.01,-511.988 328,-523 337.162,-526.738 347.242,-529.864 357.026,-532.43"/>
<polygon fill="midnightblue" stroke="midnightblue" points="255.537,-478.455 245.318,-475.66 251.564,-484.218 255.537,-478.455"/>
</g>
<!-- Node17 -->
<g id="node17" class="node"><title>Node17</title>
<g id="a_node17"><a xlink:href="classai_1_1movement_1_1LUASteering.html" target="_top" xlink:title="ai::movement::LUASteering">
<polygon fill="white" stroke="black" points="338.5,-494.5 338.5,-513.5 475.5,-513.5 475.5,-494.5 338.5,-494.5"/>
<text text-anchor="middle" x="407" y="-501.5" font-family="Helvetica,sans-Serif" font-size="10.00">ai::movement::LUASteering</text>
</a>
</g>
</g>
<!-- Node14&#45;&gt;Node17 -->
<g id="edge16" class="edge"><title>Node14&#45;&gt;Node17</title>
<path fill="none" stroke="midnightblue" d="M285.814,-477.753C310.418,-483.126 339.187,-489.409 362.408,-494.48"/>
<polygon fill="midnightblue" stroke="midnightblue" points="286.424,-474.303 275.908,-475.589 284.93,-481.142 286.424,-474.303"/>
</g>
<!-- Node18 -->
<g id="node18" class="node"><title>Node18</title>
<g id="a_node18"><a xlink:href="classai_1_1movement_1_1SelectionSteering.html" target="_top" xlink:title="IFilter steering interface ">
<polygon fill="white" stroke="black" points="328,-456.5 328,-475.5 486,-475.5 486,-456.5 328,-456.5"/>
<text text-anchor="middle" x="407" y="-463.5" font-family="Helvetica,sans-Serif" font-size="10.00">ai::movement::SelectionSteering</text>
</a>
</g>
</g>
<!-- Node14&#45;&gt;Node18 -->
<g id="edge17" class="edge"><title>Node14&#45;&gt;Node18</title>
<path fill="none" stroke="midnightblue" d="M302.097,-466C310.581,-466 319.288,-466 327.879,-466"/>
<polygon fill="midnightblue" stroke="midnightblue" points="301.881,-462.5 291.881,-466 301.881,-469.5 301.881,-462.5"/>
</g>
<!-- Node21 -->
<g id="node21" class="node"><title>Node21</title>
<g id="a_node21"><a xlink:href="classai_1_1movement_1_1TargetFlee.html" target="_top" xlink:title="Flees from a particular target. ">
<polygon fill="white" stroke="black" points="343,-418.5 343,-437.5 471,-437.5 471,-418.5 343,-418.5"/>
<text text-anchor="middle" x="407" y="-425.5" font-family="Helvetica,sans-Serif" font-size="10.00">ai::movement::TargetFlee</text>
</a>
</g>
</g>
<!-- Node14&#45;&gt;Node21 -->
<g id="edge20" class="edge"><title>Node14&#45;&gt;Node21</title>
<path fill="none" stroke="midnightblue" d="M285.814,-454.247C310.418,-448.874 339.187,-442.591 362.408,-437.52"/>
<polygon fill="midnightblue" stroke="midnightblue" points="284.93,-450.858 275.908,-456.411 286.424,-457.697 284.93,-450.858"/>
</g>
<!-- Node22 -->
<g id="node22" class="node"><title>Node22</title>
<g id="a_node22"><a xlink:href="classai_1_1movement_1_1TargetSeek.html" target="_top" xlink:title="Seeks a particular target. ">
<polygon fill="white" stroke="black" points="341,-380.5 341,-399.5 473,-399.5 473,-380.5 341,-380.5"/>
<text text-anchor="middle" x="407" y="-387.5" font-family="Helvetica,sans-Serif" font-size="10.00">ai::movement::TargetSeek</text>
</a>
</g>
</g>
<!-- Node14&#45;&gt;Node22 -->
<g id="edge21" class="edge"><title>Node14&#45;&gt;Node22</title>
<path fill="none" stroke="midnightblue" d="M253.753,-450.524C272.6,-437.757 301.01,-420.012 328,-409 337.162,-405.262 347.242,-402.136 357.026,-399.57"/>
<polygon fill="midnightblue" stroke="midnightblue" points="251.564,-447.782 245.318,-456.34 255.537,-453.545 251.564,-447.782"/>
</g>
<!-- Node23 -->
<g id="node23" class="node"><title>Node23</title>
<g id="a_node23"><a xlink:href="classai_1_1movement_1_1Wander.html" target="_top" xlink:title="Moves forward in the direction the character is currently facing into. ">
<polygon fill="white" stroke="black" points="349,-342.5 349,-361.5 465,-361.5 465,-342.5 349,-342.5"/>
<text text-anchor="middle" x="407" y="-349.5" font-family="Helvetica,sans-Serif" font-size="10.00">ai::movement::Wander</text>
</a>
</g>
</g>
<!-- Node14&#45;&gt;Node23 -->
<g id="edge22" class="edge"><title>Node14&#45;&gt;Node23</title>
<path fill="none" stroke="midnightblue" d="M244.776,-448.482C261.463,-426.906 292.739,-390.703 328,-371 334.935,-367.125 342.649,-364.033 350.451,-361.569"/>
<polygon fill="midnightblue" stroke="midnightblue" points="241.966,-446.394 238.737,-456.485 247.554,-450.61 241.966,-446.394"/>
</g>
<!-- Node19 -->
<g id="node19" class="node"><title>Node19</title>
<g id="a_node19"><a xlink:href="classai_1_1movement_1_1SelectionFlee.html" target="_top" xlink:title="Flees the current IFilter selection from the given ICharacter. ">
<polygon fill="white" stroke="black" points="524.5,-475.5 524.5,-494.5 665.5,-494.5 665.5,-475.5 524.5,-475.5"/>
<text text-anchor="middle" x="595" y="-482.5" font-family="Helvetica,sans-Serif" font-size="10.00">ai::movement::SelectionFlee</text>
</a>
</g>
</g>
<!-- Node18&#45;&gt;Node19 -->
<g id="edge18" class="edge"><title>Node18&#45;&gt;Node19</title>
<path fill="none" stroke="midnightblue" d="M496.275,-475.017C505.719,-475.982 515.227,-476.953 524.41,-477.891"/>
<polygon fill="midnightblue" stroke="midnightblue" points="496.376,-471.51 486.072,-473.975 495.665,-478.473 496.376,-471.51"/>
</g>
<!-- Node20 -->
<g id="node20" class="node"><title>Node20</title>
<g id="a_node20"><a xlink:href="classai_1_1movement_1_1SelectionSeek.html" target="_top" xlink:title="Seeks the current IFilter selection from the given ICharacter. ">
<polygon fill="white" stroke="black" points="522.5,-437.5 522.5,-456.5 667.5,-456.5 667.5,-437.5 522.5,-437.5"/>
<text text-anchor="middle" x="595" y="-444.5" font-family="Helvetica,sans-Serif" font-size="10.00">ai::movement::SelectionSeek</text>
</a>
</g>
</g>
<!-- Node18&#45;&gt;Node20 -->
<g id="edge19" class="edge"><title>Node18&#45;&gt;Node20</title>
<path fill="none" stroke="midnightblue" d="M496.285,-456.982C505.022,-456.089 513.814,-455.191 522.353,-454.319"/>
<polygon fill="midnightblue" stroke="midnightblue" points="495.665,-453.527 486.072,-458.025 496.376,-460.49 495.665,-453.527"/>
</g>
<!-- Node25 -->
<g id="node25" class="node"><title>Node25</title>
<g id="a_node25"><a xlink:href="classai_1_1Fail.html" target="_top" xlink:title="A decorator node with only one child attached. The result of the attached child is only taken into ac...">
<polygon fill="white" stroke="black" points="384,-304.5 384,-323.5 430,-323.5 430,-304.5 384,-304.5"/>
<text text-anchor="middle" x="407" y="-311.5" font-family="Helvetica,sans-Serif" font-size="10.00">ai::Fail</text>
</a>
</g>
</g>
<!-- Node24&#45;&gt;Node25 -->
<g id="edge24" class="edge"><title>Node24&#45;&gt;Node25</title>
<path fill="none" stroke="midnightblue" d="M244.776,-217.518C261.463,-239.094 292.739,-275.297 328,-295 345.399,-304.722 367.698,-309.511 383.994,-311.845"/>
<polygon fill="midnightblue" stroke="midnightblue" points="247.554,-215.39 238.737,-209.515 241.966,-219.606 247.554,-215.39"/>
</g>
<!-- Node26 -->
<g id="node26" class="node"><title>Node26</title>
<g id="a_node26"><a xlink:href="classai_1_1Invert.html" target="_top" xlink:title="A node with only one child attached. The result of the attached child is inverted. ">
<polygon fill="white" stroke="black" points="379.5,-266.5 379.5,-285.5 434.5,-285.5 434.5,-266.5 379.5,-266.5"/>
<text text-anchor="middle" x="407" y="-273.5" font-family="Helvetica,sans-Serif" font-size="10.00">ai::Invert</text>
</a>
</g>
</g>
<!-- Node24&#45;&gt;Node26 -->
<g id="edge25" class="edge"><title>Node24&#45;&gt;Node26</title>
<path fill="none" stroke="midnightblue" d="M253.753,-215.476C272.6,-228.243 301.01,-245.988 328,-257 344.518,-263.739 364.018,-268.489 379.389,-271.554"/>
<polygon fill="midnightblue" stroke="midnightblue" points="255.537,-212.455 245.318,-209.66 251.564,-218.218 255.537,-212.455"/>
</g>
<!-- Node27 -->
<g id="node27" class="node"><title>Node27</title>
<g id="a_node27"><a xlink:href="classai_1_1ITask.html" target="_top" xlink:title="A node for your real actions in the behaviour tree. ">
<polygon fill="white" stroke="black" points="379.5,-228.5 379.5,-247.5 434.5,-247.5 434.5,-228.5 379.5,-228.5"/>
<text text-anchor="middle" x="407" y="-235.5" font-family="Helvetica,sans-Serif" font-size="10.00">ai::ITask</text>
</a>
</g>
</g>
<!-- Node24&#45;&gt;Node27 -->
<g id="edge26" class="edge"><title>Node24&#45;&gt;Node27</title>
<path fill="none" stroke="midnightblue" d="M277.773,-209.996C310.184,-217.075 352.524,-226.321 379.498,-232.212"/>
<polygon fill="midnightblue" stroke="midnightblue" points="278.148,-206.496 267.631,-207.782 276.654,-213.335 278.148,-206.496"/>
</g>
<!-- Node29 -->
<g id="node29" class="node"><title>Node29</title>
<g id="a_node29"><a xlink:href="classai_1_1ITimedNode.html" target="_top" xlink:title="A timed node is a TreeNode that is executed until a given time (millis) is elapsed. ">
<polygon fill="white" stroke="black" points="365.5,-190.5 365.5,-209.5 448.5,-209.5 448.5,-190.5 365.5,-190.5"/>
<text text-anchor="middle" x="407" y="-197.5" font-family="Helvetica,sans-Serif" font-size="10.00">ai::ITimedNode</text>
</a>
</g>
</g>
<!-- Node24&#45;&gt;Node29 -->
<g id="edge28" class="edge"><title>Node24&#45;&gt;Node29</title>
<path fill="none" stroke="midnightblue" d="M277.666,-200C304.825,-200 338.984,-200 365.231,-200"/>
<polygon fill="midnightblue" stroke="midnightblue" points="277.631,-196.5 267.631,-200 277.631,-203.5 277.631,-196.5"/>
</g>
<!-- Node31 -->
<g id="node31" class="node"><title>Node31</title>
<g id="a_node31"><a xlink:href="classai_1_1Limit.html" target="_top" xlink:title="A decorator node which limits the execution of the attached child to a specified amount of runs...">
<polygon fill="white" stroke="black" points="381.5,-152.5 381.5,-171.5 432.5,-171.5 432.5,-152.5 381.5,-152.5"/>
<text text-anchor="middle" x="407" y="-159.5" font-family="Helvetica,sans-Serif" font-size="10.00">ai::Limit</text>
</a>
</g>
</g>
<!-- Node24&#45;&gt;Node31 -->
<g id="edge30" class="edge"><title>Node24&#45;&gt;Node31</title>
<path fill="none" stroke="midnightblue" d="M277.564,-190.049C310.754,-182.801 354.439,-173.26 381.352,-167.383"/>
<polygon fill="midnightblue" stroke="midnightblue" points="276.654,-186.665 267.631,-192.218 278.148,-193.504 276.654,-186.665"/>
</g>
<!-- Node32 -->
<g id="node32" class="node"><title>Node32</title>
<g id="a_node32"><a xlink:href="classai_1_1LUATreeNode.html" target="_top" xlink:title="ai::LUATreeNode">
<polygon fill="white" stroke="black" points="361,-114.5 361,-133.5 453,-133.5 453,-114.5 361,-114.5"/>
<text text-anchor="middle" x="407" y="-121.5" font-family="Helvetica,sans-Serif" font-size="10.00">ai::LUATreeNode</text>
</a>
</g>
</g>
<!-- Node24&#45;&gt;Node32 -->
<g id="edge31" class="edge"><title>Node24&#45;&gt;Node32</title>
<path fill="none" stroke="midnightblue" d="M253.753,-184.524C272.6,-171.757 301.01,-154.012 328,-143 338.324,-138.788 349.813,-135.353 360.73,-132.621"/>
<polygon fill="midnightblue" stroke="midnightblue" points="251.564,-181.782 245.318,-190.34 255.537,-187.545 251.564,-181.782"/>
</g>
<!-- Node33 -->
<g id="node33" class="node"><title>Node33</title>
<g id="a_node33"><a xlink:href="classai_1_1Selector.html" target="_top" xlink:title="Base class for all type of TreeNode selectors. ">
<polygon fill="white" stroke="black" points="374,-76.5 374,-95.5 440,-95.5 440,-76.5 374,-76.5"/>
<text text-anchor="middle" x="407" y="-83.5" font-family="Helvetica,sans-Serif" font-size="10.00">ai::Selector</text>
</a>
</g>
</g>
<!-- Node24&#45;&gt;Node33 -->
<g id="edge32" class="edge"><title>Node24&#45;&gt;Node33</title>
<path fill="none" stroke="midnightblue" d="M244.776,-182.482C261.463,-160.906 292.739,-124.703 328,-105 341.992,-97.1817 359.153,-92.5535 373.813,-89.827"/>
<polygon fill="midnightblue" stroke="midnightblue" points="241.966,-180.394 238.737,-190.485 247.554,-184.61 241.966,-180.394"/>
</g>
<!-- Node39 -->
<g id="node39" class="node"><title>Node39</title>
<g id="a_node39"><a xlink:href="classai_1_1Succeed.html" target="_top" xlink:title="A decorator node with only one child attached. The result of the attached child is only taken into ac...">
<polygon fill="white" stroke="black" points="373,-38.5 373,-57.5 441,-57.5 441,-38.5 373,-38.5"/>
<text text-anchor="middle" x="407" y="-45.5" font-family="Helvetica,sans-Serif" font-size="10.00">ai::Succeed</text>
</a>
</g>
</g>
<!-- Node24&#45;&gt;Node39 -->
<g id="edge38" class="edge"><title>Node24&#45;&gt;Node39</title>
<path fill="none" stroke="midnightblue" d="M240.333,-181.002C254.159,-151.784 284.673,-96.1517 328,-67 341.183,-58.1302 358.092,-53.3923 372.795,-50.8653"/>
<polygon fill="midnightblue" stroke="midnightblue" points="237.126,-179.598 236.145,-190.148 243.491,-182.513 237.126,-179.598"/>
</g>
<!-- Node28 -->
<g id="node28" class="node"><title>Node28</title>
<g id="a_node28"><a xlink:href="classai_1_1Steer.html" target="_top" xlink:title="ai::Steer">
<polygon fill="white" stroke="black" points="568.5,-228.5 568.5,-247.5 621.5,-247.5 621.5,-228.5 568.5,-228.5"/>
<text text-anchor="middle" x="595" y="-235.5" font-family="Helvetica,sans-Serif" font-size="10.00">ai::Steer</text>
</a>
</g>
</g>
<!-- Node27&#45;&gt;Node28 -->
<g id="edge27" class="edge"><title>Node27&#45;&gt;Node28</title>
<path fill="none" stroke="midnightblue" d="M444.879,-238C481.373,-238 536.286,-238 568.298,-238"/>
<polygon fill="midnightblue" stroke="midnightblue" points="444.649,-234.5 434.649,-238 444.649,-241.5 444.649,-234.5"/>
</g>
<!-- Node30 -->
<g id="node30" class="node"><title>Node30</title>
<g id="a_node30"><a xlink:href="classai_1_1Idle.html" target="_top" xlink:title="ITimedNode that is just idling until the given time is elapsed. ">
<polygon fill="white" stroke="black" points="572,-190.5 572,-209.5 618,-209.5 618,-190.5 572,-190.5"/>
<text text-anchor="middle" x="595" y="-197.5" font-family="Helvetica,sans-Serif" font-size="10.00">ai::Idle</text>
</a>
</g>
</g>
<!-- Node29&#45;&gt;Node30 -->
<g id="edge29" class="edge"><title>Node29&#45;&gt;Node30</title>
<path fill="none" stroke="midnightblue" d="M458.93,-200C495.93,-200 544.188,-200 571.871,-200"/>
<polygon fill="midnightblue" stroke="midnightblue" points="458.819,-196.5 448.818,-200 458.818,-203.5 458.819,-196.5"/>
</g>
<!-- Node34 -->
<g id="node34" class="node"><title>Node34</title>
<g id="a_node34"><a xlink:href="classai_1_1Parallel.html" target="_top" xlink:title="Executes all the connected children in the order they were added (no matter what the TreeNodeStatus o...">
<polygon fill="white" stroke="black" points="564,-152.5 564,-171.5 626,-171.5 626,-152.5 564,-152.5"/>
<text text-anchor="middle" x="595" y="-159.5" font-family="Helvetica,sans-Serif" font-size="10.00">ai::Parallel</text>
</a>
</g>
</g>
<!-- Node33&#45;&gt;Node34 -->
<g id="edge33" class="edge"><title>Node33&#45;&gt;Node34</title>
<path fill="none" stroke="midnightblue" d="M450.233,-91.6809C462.333,-94.5031 475.169,-98.7164 486,-105 506.123,-116.674 501.989,-131.135 522,-143 534.677,-150.517 550.341,-155.107 563.819,-157.886"/>
<polygon fill="midnightblue" stroke="midnightblue" points="450.806,-88.2252 440.303,-89.6225 449.385,-95.0795 450.806,-88.2252"/>
</g>
<!-- Node35 -->
<g id="node35" class="node"><title>Node35</title>
<g id="a_node35"><a xlink:href="classai_1_1PrioritySelector.html" target="_top" xlink:title="This node tries to execute all the attached children until one succeeds. This composite only fails if...">
<polygon fill="white" stroke="black" points="546.5,-114.5 546.5,-133.5 643.5,-133.5 643.5,-114.5 546.5,-114.5"/>
<text text-anchor="middle" x="595" y="-121.5" font-family="Helvetica,sans-Serif" font-size="10.00">ai::PrioritySelector</text>
</a>
</g>
</g>
<!-- Node33&#45;&gt;Node35 -->
<g id="edge34" class="edge"><title>Node33&#45;&gt;Node35</title>
<path fill="none" stroke="midnightblue" d="M450.205,-94.6225C479.126,-100.531 517.502,-108.371 547.334,-114.466"/>
<polygon fill="midnightblue" stroke="midnightblue" points="450.897,-91.1917 440.399,-92.6191 449.496,-98.05 450.897,-91.1917"/>
</g>
<!-- Node36 -->
<g id="node36" class="node"><title>Node36</title>
<g id="a_node36"><a xlink:href="classai_1_1ProbabilitySelector.html" target="_top" xlink:title="This node executes one of the attached children randomly based on the given weights. The node is executed until it is no longer in the running state. ">
<polygon fill="white" stroke="black" points="539,-76.5 539,-95.5 651,-95.5 651,-76.5 539,-76.5"/>
<text text-anchor="middle" x="595" y="-83.5" font-family="Helvetica,sans-Serif" font-size="10.00">ai::ProbabilitySelector</text>
</a>
</g>
</g>
<!-- Node33&#45;&gt;Node36 -->
<g id="edge35" class="edge"><title>Node33&#45;&gt;Node36</title>
<path fill="none" stroke="midnightblue" d="M450.729,-86C476.846,-86 510.524,-86 538.666,-86"/>
<polygon fill="midnightblue" stroke="midnightblue" points="450.399,-82.5001 440.399,-86 450.399,-89.5001 450.399,-82.5001"/>
</g>
<!-- Node37 -->
<g id="node37" class="node"><title>Node37</title>
<g id="a_node37"><a xlink:href="classai_1_1RandomSelector.html" target="_top" xlink:title="This node executes all the attached children in random order. This composite only fails if all childr...">
<polygon fill="white" stroke="black" points="543.5,-38.5 543.5,-57.5 646.5,-57.5 646.5,-38.5 543.5,-38.5"/>
<text text-anchor="middle" x="595" y="-45.5" font-family="Helvetica,sans-Serif" font-size="10.00">ai::RandomSelector</text>
</a>
</g>
</g>
<!-- Node33&#45;&gt;Node37 -->
<g id="edge36" class="edge"><title>Node33&#45;&gt;Node37</title>
<path fill="none" stroke="midnightblue" d="M450.205,-77.3775C479.126,-71.4688 517.502,-63.6286 547.334,-57.5338"/>
<polygon fill="midnightblue" stroke="midnightblue" points="449.496,-73.95 440.399,-79.3809 450.897,-80.8083 449.496,-73.95"/>
</g>
<!-- Node38 -->
<g id="node38" class="node"><title>Node38</title>
<g id="a_node38"><a xlink:href="classai_1_1Sequence.html" target="_top" xlink:title="The sequence continues to execute their children until one of the children returned a state that is n...">
<polygon fill="white" stroke="black" points="558,-0.5 558,-19.5 632,-19.5 632,-0.5 558,-0.5"/>
<text text-anchor="middle" x="595" y="-7.5" font-family="Helvetica,sans-Serif" font-size="10.00">ai::Sequence</text>
</a>
</g>
</g>
<!-- Node33&#45;&gt;Node38 -->
<g id="edge37" class="edge"><title>Node33&#45;&gt;Node38</title>
<path fill="none" stroke="midnightblue" d="M450.233,-80.3191C462.333,-77.4969 475.169,-73.2836 486,-67 506.123,-55.3259 501.989,-40.8654 522,-29 532.786,-22.6043 545.736,-18.3275 557.66,-15.4821"/>
<polygon fill="midnightblue" stroke="midnightblue" points="449.385,-76.9205 440.303,-82.3775 450.806,-83.7748 449.385,-76.9205"/>
</g>
</g>
</svg>
