<?xml version="1.0" encoding="UTF-8" standalone="no"?>
<!DOCTYPE svg PUBLIC "-//W3C//DTD SVG 1.1//EN"
 "http://www.w3.org/Graphics/SVG/1.1/DTD/svg11.dtd">
<!-- Generated by graphviz version 2.36.0 (20140111.2315)
 -->
<!-- Title: Graphical Class Hierarchy Pages: 1 -->
<svg width="226pt" height="66pt"
 viewBox="0.00 0.00 226.00 66.00" xmlns="http://www.w3.org/2000/svg" xmlns:xlink="http://www.w3.org/1999/xlink">
<g id="graph0" class="graph" transform="scale(1 1) rotate(0) translate(4 62)">
<title>Graphical Class Hierarchy</title>
<polygon fill="white" stroke="none" points="-4,4 -4,-62 222,-62 222,4 -4,4"/>
<!-- Node1 -->
<g id="node1" class="node"><title>Node1</title>
<g id="a_node1"><a xlink:href="classai_1_1ITreeLoader.html" target="_top" xlink:title="This class must be extended to load behaviour trees. The contract here is that the parsing only happe...">
<polygon fill="white" stroke="black" points="0,-19.5 0,-38.5 82,-38.5 82,-19.5 0,-19.5"/>
<text text-anchor="middle" x="41" y="-26.5" font-family="Helvetica,sans-Serif" font-size="10.00">ai::ITreeLoader</text>
</a>
</g>
</g>
<!-- Node2 -->
<g id="node2" class="node"><title>Node2</title>
<g id="a_node2"><a xlink:href="classai_1_1LUATreeLoader.html" target="_top" xlink:title="Implementation of ITreeLoader that gets its data from a lua script. ">
<polygon fill="white" stroke="black" points="119,-38.5 119,-57.5 217,-57.5 217,-38.5 119,-38.5"/>
<text text-anchor="middle" x="168" y="-45.5" font-family="Helvetica,sans-Serif" font-size="10.00">ai::LUATreeLoader</text>
</a>
</g>
</g>
<!-- Node1&#45;&gt;Node2 -->
<g id="edge1" class="edge"><title>Node1&#45;&gt;Node2</title>
<path fill="none" stroke="midnightblue" d="M92.3552,-36.654C101.14,-37.9894 110.259,-39.3753 118.979,-40.7008"/>
<polygon fill="midnightblue" stroke="midnightblue" points="92.6513,-33.1589 82.2388,-35.1163 91.5993,-40.0794 92.6513,-33.1589"/>
</g>
<!-- Node3 -->
<g id="node3" class="node"><title>Node3</title>
<g id="a_node3"><a xlink:href="classai_1_1XMLTreeLoader.html" target="_top" xlink:title="Implementation of ITreeLoader that gets its data from a xml file. ">
<polygon fill="white" stroke="black" points="118.5,-0.5 118.5,-19.5 217.5,-19.5 217.5,-0.5 118.5,-0.5"/>
<text text-anchor="middle" x="168" y="-7.5" font-family="Helvetica,sans-Serif" font-size="10.00">ai::XMLTreeLoader</text>
</a>
</g>
</g>
<!-- Node1&#45;&gt;Node3 -->
<g id="edge2" class="edge"><title>Node1&#45;&gt;Node3</title>
<path fill="none" stroke="midnightblue" d="M92.3832,-21.3418C100.862,-20.053 109.65,-18.7173 118.09,-17.4343"/>
<polygon fill="midnightblue" stroke="midnightblue" points="91.5993,-17.9206 82.2388,-22.8837 92.6513,-24.8411 91.5993,-17.9206"/>
</g>
</g>
</svg>
