<?xml version="1.0" encoding="UTF-8" standalone="no"?>
<!DOCTYPE svg PUBLIC "-//W3C//DTD SVG 1.1//EN"
 "http://www.w3.org/Graphics/SVG/1.1/DTD/svg11.dtd">
<!-- Generated by graphviz version 2.36.0 (20140111.2315)
 -->
<!-- Title: Graphical Class Hierarchy Pages: 1 -->
<svg width="524pt" height="454pt"
 viewBox="0.00 0.00 524.00 454.00" xmlns="http://www.w3.org/2000/svg" xmlns:xlink="http://www.w3.org/1999/xlink">
<g id="graph0" class="graph" transform="scale(1 1) rotate(0) translate(4 450)">
<title>Graphical Class Hierarchy</title>
<polygon fill="white" stroke="none" points="-4,4 -4,-450 520,-450 520,4 -4,4"/>
<!-- Node1 -->
<g id="node1" class="node"><title>Node1</title>
<polygon fill="white" stroke="#bfbfbf" points="0.5,-426.5 0.5,-445.5 125.5,-445.5 125.5,-426.5 0.5,-426.5"/>
<text text-anchor="middle" x="63" y="-433.5" font-family="Helvetica,sans-Serif" font-size="10.00">enable_shared_from_this</text>
</g>
<!-- Node2 -->
<g id="node2" class="node"><title>Node2</title>
<g id="a_node2"><a xlink:href="classai_1_1ICharacter.html" target="_top" xlink:title="Class that should be extended by the AI controlled entity class. ">
<polygon fill="white" stroke="black" points="214,-426.5 214,-445.5 290,-445.5 290,-426.5 214,-426.5"/>
<text text-anchor="middle" x="252" y="-433.5" font-family="Helvetica,sans-Serif" font-size="10.00">ai::ICharacter</text>
</a>
</g>
</g>
<!-- Node1&#45;&gt;Node2 -->
<g id="edge1" class="edge"><title>Node1&#45;&gt;Node2</title>
<path fill="none" stroke="midnightblue" d="M135.816,-436C162.45,-436 191.568,-436 213.864,-436"/>
<polygon fill="midnightblue" stroke="midnightblue" points="135.749,-432.5 125.749,-436 135.749,-439.5 135.749,-432.5"/>
</g>
<!-- Node3 -->
<g id="node3" class="node"><title>Node3</title>
<g id="a_node3"><a xlink:href="classai_1_1NonCopyable.html" target="_top" xlink:title="ai::NonCopyable">
<polygon fill="white" stroke="black" points="18.5,-251.5 18.5,-270.5 107.5,-270.5 107.5,-251.5 18.5,-251.5"/>
<text text-anchor="middle" x="63" y="-258.5" font-family="Helvetica,sans-Serif" font-size="10.00">ai::NonCopyable</text>
</a>
</g>
</g>
<!-- Node3&#45;&gt;Node2 -->
<g id="edge2" class="edge"><title>Node3&#45;&gt;Node2</title>
<path fill="none" stroke="midnightblue" d="M70.5986,-280.386C82.9712,-313.664 112.926,-381.406 162,-416 177.015,-426.584 196.696,-431.683 213.732,-434.094"/>
<polygon fill="midnightblue" stroke="midnightblue" points="73.8613,-279.115 67.1974,-270.879 67.2703,-281.473 73.8613,-279.115"/>
</g>
<!-- Node4 -->
<g id="node4" class="node"><title>Node4</title>
<g id="a_node4"><a xlink:href="classai_1_1IFactoryRegistry.html" target="_top" xlink:title="ai::IFactoryRegistry\l\&lt; KEY, TYPE, CTX \&gt;">
<polygon fill="white" stroke="black" points="195.5,-377 195.5,-407 308.5,-407 308.5,-377 195.5,-377"/>
<text text-anchor="start" x="203.5" y="-395" font-family="Helvetica,sans-Serif" font-size="10.00">ai::IFactoryRegistry</text>
<text text-anchor="middle" x="252" y="-384" font-family="Helvetica,sans-Serif" font-size="10.00">&lt; KEY, TYPE, CTX &gt;</text>
</a>
</g>
</g>
<!-- Node3&#45;&gt;Node4 -->
<g id="edge3" class="edge"><title>Node3&#45;&gt;Node4</title>
<path fill="none" stroke="midnightblue" d="M75.7971,-278.968C92.2825,-302.658 124.445,-344.015 162,-367 172.13,-373.2 183.84,-377.904 195.37,-381.46"/>
<polygon fill="midnightblue" stroke="midnightblue" points="78.597,-276.861 70.0849,-270.553 72.8052,-280.792 78.597,-276.861"/>
</g>
<!-- Node5 -->
<g id="node5" class="node"><title>Node5</title>
<g id="a_node5"><a xlink:href="classai_1_1lua_1_1LUA.html" target="_top" xlink:title="ai::lua::LUA">
<polygon fill="white" stroke="black" points="218,-338.5 218,-357.5 286,-357.5 286,-338.5 218,-338.5"/>
<text text-anchor="middle" x="252" y="-345.5" font-family="Helvetica,sans-Serif" font-size="10.00">ai::lua::LUA</text>
</a>
</g>
</g>
<!-- Node3&#45;&gt;Node5 -->
<g id="edge4" class="edge"><title>Node3&#45;&gt;Node5</title>
<path fill="none" stroke="midnightblue" d="M82.3335,-277.092C101.081,-292.694 131.675,-315.875 162,-329 179.69,-336.656 200.732,-341.33 217.914,-344.126"/>
<polygon fill="midnightblue" stroke="midnightblue" points="84.4844,-274.326 74.5971,-270.52 79.9523,-279.661 84.4844,-274.326"/>
</g>
<!-- Node6 -->
<g id="node6" class="node"><title>Node6</title>
<g id="a_node6"><a xlink:href="classai_1_1ProtocolMessageFactory.html" target="_top" xlink:title="ai::ProtocolMessageFactory">
<polygon fill="white" stroke="black" points="182.5,-300.5 182.5,-319.5 321.5,-319.5 321.5,-300.5 182.5,-300.5"/>
<text text-anchor="middle" x="252" y="-307.5" font-family="Helvetica,sans-Serif" font-size="10.00">ai::ProtocolMessageFactory</text>
</a>
</g>
</g>
<!-- Node3&#45;&gt;Node6 -->
<g id="edge5" class="edge"><title>Node3&#45;&gt;Node6</title>
<path fill="none" stroke="midnightblue" d="M104.273,-273.576C121.915,-278.914 142.908,-285.036 162,-290 176.101,-293.666 191.561,-297.281 205.583,-300.407"/>
<polygon fill="midnightblue" stroke="midnightblue" points="104.899,-270.108 94.3132,-270.538 102.857,-276.803 104.899,-270.108"/>
</g>
<!-- Node7 -->
<g id="node7" class="node"><title>Node7</title>
<g id="a_node7"><a xlink:href="classai_1_1IFactoryRegistry.html" target="_top" xlink:title="ai::IFactoryRegistry\l\&lt; std::string, ICondition,\l ConditionFactoryContext \&gt;">
<polygon fill="white" stroke="black" points="183.5,-240.5 183.5,-281.5 320.5,-281.5 320.5,-240.5 183.5,-240.5"/>
<text text-anchor="start" x="191.5" y="-269.5" font-family="Helvetica,sans-Serif" font-size="10.00">ai::IFactoryRegistry</text>
<text text-anchor="start" x="191.5" y="-258.5" font-family="Helvetica,sans-Serif" font-size="10.00">&lt; std::string, ICondition,</text>
<text text-anchor="middle" x="252" y="-247.5" font-family="Helvetica,sans-Serif" font-size="10.00"> ConditionFactoryContext &gt;</text>
</a>
</g>
</g>
<!-- Node3&#45;&gt;Node7 -->
<g id="edge6" class="edge"><title>Node3&#45;&gt;Node7</title>
<path fill="none" stroke="midnightblue" d="M117.892,-261C138.287,-261 161.767,-261 183.274,-261"/>
<polygon fill="midnightblue" stroke="midnightblue" points="117.843,-257.5 107.843,-261 117.843,-264.5 117.843,-257.5"/>
</g>
<!-- Node9 -->
<g id="node9" class="node"><title>Node9</title>
<g id="a_node9"><a xlink:href="classai_1_1IFactoryRegistry.html" target="_top" xlink:title="ai::IFactoryRegistry\l\&lt; std::string, IFilter,\l FilterFactoryContext \&gt;">
<polygon fill="white" stroke="black" points="193,-180.5 193,-221.5 311,-221.5 311,-180.5 193,-180.5"/>
<text text-anchor="start" x="201" y="-209.5" font-family="Helvetica,sans-Serif" font-size="10.00">ai::IFactoryRegistry</text>
<text text-anchor="start" x="201" y="-198.5" font-family="Helvetica,sans-Serif" font-size="10.00">&lt; std::string, IFilter,</text>
<text text-anchor="middle" x="252" y="-187.5" font-family="Helvetica,sans-Serif" font-size="10.00"> FilterFactoryContext &gt;</text>
</a>
</g>
</g>
<!-- Node3&#45;&gt;Node9 -->
<g id="edge8" class="edge"><title>Node3&#45;&gt;Node9</title>
<path fill="none" stroke="midnightblue" d="M103.483,-248.332C129.424,-240.008 163.809,-228.976 192.855,-219.656"/>
<polygon fill="midnightblue" stroke="midnightblue" points="102.083,-245.105 93.6307,-251.493 104.222,-251.77 102.083,-245.105"/>
</g>
<!-- Node11 -->
<g id="node11" class="node"><title>Node11</title>
<g id="a_node11"><a xlink:href="classai_1_1IFactoryRegistry.html" target="_top" xlink:title="ai::IFactoryRegistry\l\&lt; std::string, movement\l::ISteering, SteeringFactoryContext \&gt;">
<polygon fill="white" stroke="black" points="162,-120.5 162,-161.5 342,-161.5 342,-120.5 162,-120.5"/>
<text text-anchor="start" x="170" y="-149.5" font-family="Helvetica,sans-Serif" font-size="10.00">ai::IFactoryRegistry</text>
<text text-anchor="start" x="170" y="-138.5" font-family="Helvetica,sans-Serif" font-size="10.00">&lt; std::string, movement</text>
<text text-anchor="middle" x="252" y="-127.5" font-family="Helvetica,sans-Serif" font-size="10.00">::ISteering, SteeringFactoryContext &gt;</text>
</a>
</g>
</g>
<!-- Node3&#45;&gt;Node11 -->
<g id="edge10" class="edge"><title>Node3&#45;&gt;Node11</title>
<path fill="none" stroke="midnightblue" d="M78.6586,-243.722C96.4979,-223.679 128.421,-190.855 162,-171 167.895,-167.514 174.251,-164.365 180.759,-161.535"/>
<polygon fill="midnightblue" stroke="midnightblue" points="75.8493,-241.618 71.9116,-251.454 81.1236,-246.22 75.8493,-241.618"/>
</g>
<!-- Node13 -->
<g id="node13" class="node"><title>Node13</title>
<g id="a_node13"><a xlink:href="classai_1_1IFactoryRegistry.html" target="_top" xlink:title="ai::IFactoryRegistry\l\&lt; std::string, TreeNode,\l SteerNodeFactoryContext \&gt;">
<polygon fill="white" stroke="black" points="180.5,-60.5 180.5,-101.5 323.5,-101.5 323.5,-60.5 180.5,-60.5"/>
<text text-anchor="start" x="188.5" y="-89.5" font-family="Helvetica,sans-Serif" font-size="10.00">ai::IFactoryRegistry</text>
<text text-anchor="start" x="188.5" y="-78.5" font-family="Helvetica,sans-Serif" font-size="10.00">&lt; std::string, TreeNode,</text>
<text text-anchor="middle" x="252" y="-67.5" font-family="Helvetica,sans-Serif" font-size="10.00"> SteerNodeFactoryContext &gt;</text>
</a>
</g>
</g>
<!-- Node3&#45;&gt;Node13 -->
<g id="edge12" class="edge"><title>Node3&#45;&gt;Node13</title>
<path fill="none" stroke="midnightblue" d="M71.5213,-241.878C84.9514,-210.144 116.027,-146.577 162,-111 167.545,-106.709 173.738,-103.013 180.205,-99.8334"/>
<polygon fill="midnightblue" stroke="midnightblue" points="68.1998,-240.753 67.6471,-251.334 74.6772,-243.407 68.1998,-240.753"/>
</g>
<!-- Node15 -->
<g id="node15" class="node"><title>Node15</title>
<g id="a_node15"><a xlink:href="classai_1_1IFactoryRegistry.html" target="_top" xlink:title="ai::IFactoryRegistry\l\&lt; std::string, TreeNode,\l TreeNodeFactoryContext \&gt;">
<polygon fill="white" stroke="black" points="182.5,-0.5 182.5,-41.5 321.5,-41.5 321.5,-0.5 182.5,-0.5"/>
<text text-anchor="start" x="190.5" y="-29.5" font-family="Helvetica,sans-Serif" font-size="10.00">ai::IFactoryRegistry</text>
<text text-anchor="start" x="190.5" y="-18.5" font-family="Helvetica,sans-Serif" font-size="10.00">&lt; std::string, TreeNode,</text>
<text text-anchor="middle" x="252" y="-7.5" font-family="Helvetica,sans-Serif" font-size="10.00"> TreeNodeFactoryContext &gt;</text>
</a>
</g>
</g>
<!-- Node3&#45;&gt;Node15 -->
<g id="edge14" class="edge"><title>Node3&#45;&gt;Node15</title>
<path fill="none" stroke="midnightblue" d="M67.6865,-241.636C76.5063,-200.548 102.662,-104.065 162,-51 167.956,-45.674 174.892,-41.2878 182.216,-37.6767"/>
<polygon fill="midnightblue" stroke="midnightblue" points="64.251,-240.967 65.6855,-251.464 71.1103,-242.364 64.251,-240.967"/>
</g>
<!-- Node8 -->
<g id="node8" class="node"><title>Node8</title>
<g id="a_node8"><a xlink:href="classai_1_1AIRegistry_1_1ConditionFactory.html" target="_top" xlink:title="ai::AIRegistry::Condition\lFactory">
<polygon fill="white" stroke="black" points="385,-246 385,-276 509,-276 509,-246 385,-246"/>
<text text-anchor="start" x="393" y="-264" font-family="Helvetica,sans-Serif" font-size="10.00">ai::AIRegistry::Condition</text>
<text text-anchor="middle" x="447" y="-253" font-family="Helvetica,sans-Serif" font-size="10.00">Factory</text>
</a>
</g>
</g>
<!-- Node7&#45;&gt;Node8 -->
<g id="edge7" class="edge"><title>Node7&#45;&gt;Node8</title>
<path fill="none" stroke="midnightblue" d="M330.719,-261C348.784,-261 367.762,-261 384.987,-261"/>
<polygon fill="midnightblue" stroke="midnightblue" points="330.502,-257.5 320.502,-261 330.502,-264.5 330.502,-257.5"/>
</g>
<!-- Node10 -->
<g id="node10" class="node"><title>Node10</title>
<g id="a_node10"><a xlink:href="classai_1_1AIRegistry_1_1FilterFactory.html" target="_top" xlink:title="ai::AIRegistry::FilterFactory">
<polygon fill="white" stroke="black" points="378.5,-191.5 378.5,-210.5 515.5,-210.5 515.5,-191.5 378.5,-191.5"/>
<text text-anchor="middle" x="447" y="-198.5" font-family="Helvetica,sans-Serif" font-size="10.00">ai::AIRegistry::FilterFactory</text>
</a>
</g>
</g>
<!-- Node9&#45;&gt;Node10 -->
<g id="edge9" class="edge"><title>Node9&#45;&gt;Node10</title>
<path fill="none" stroke="midnightblue" d="M321.301,-201C339.859,-201 359.943,-201 378.458,-201"/>
<polygon fill="midnightblue" stroke="midnightblue" points="321.168,-197.5 311.168,-201 321.168,-204.5 321.168,-197.5"/>
</g>
<!-- Node12 -->
<g id="node12" class="node"><title>Node12</title>
<g id="a_node12"><a xlink:href="classai_1_1AIRegistry_1_1SteeringFactory.html" target="_top" xlink:title="ai::AIRegistry::Steering\lFactory">
<polygon fill="white" stroke="black" points="387.5,-126 387.5,-156 506.5,-156 506.5,-126 387.5,-126"/>
<text text-anchor="start" x="395.5" y="-144" font-family="Helvetica,sans-Serif" font-size="10.00">ai::AIRegistry::Steering</text>
<text text-anchor="middle" x="447" y="-133" font-family="Helvetica,sans-Serif" font-size="10.00">Factory</text>
</a>
</g>
</g>
<!-- Node11&#45;&gt;Node12 -->
<g id="edge11" class="edge"><title>Node11&#45;&gt;Node12</title>
<path fill="none" stroke="midnightblue" d="M352.222,-141C364.209,-141 376.139,-141 387.274,-141"/>
<polygon fill="midnightblue" stroke="midnightblue" points="352.156,-137.5 342.156,-141 352.156,-144.5 352.156,-137.5"/>
</g>
<!-- Node14 -->
<g id="node14" class="node"><title>Node14</title>
<g id="a_node14"><a xlink:href="classai_1_1AIRegistry_1_1SteerNodeFactory.html" target="_top" xlink:title="ai::AIRegistry::SteerNode\lFactory">
<polygon fill="white" stroke="black" points="382.5,-66 382.5,-96 511.5,-96 511.5,-66 382.5,-66"/>
<text text-anchor="start" x="390.5" y="-84" font-family="Helvetica,sans-Serif" font-size="10.00">ai::AIRegistry::SteerNode</text>
<text text-anchor="middle" x="447" y="-73" font-family="Helvetica,sans-Serif" font-size="10.00">Factory</text>
</a>
</g>
</g>
<!-- Node13&#45;&gt;Node14 -->
<g id="edge13" class="edge"><title>Node13&#45;&gt;Node14</title>
<path fill="none" stroke="midnightblue" d="M334.215,-81C350.265,-81 366.895,-81 382.266,-81"/>
<polygon fill="midnightblue" stroke="midnightblue" points="333.77,-77.5001 323.77,-81 333.77,-84.5001 333.77,-77.5001"/>
</g>
<!-- Node16 -->
<g id="node16" class="node"><title>Node16</title>
<g id="a_node16"><a xlink:href="classai_1_1AIRegistry_1_1TreeNodeFactory.html" target="_top" xlink:title="ai::AIRegistry::TreeNode\lFactory">
<polygon fill="white" stroke="black" points="384.5,-6 384.5,-36 509.5,-36 509.5,-6 384.5,-6"/>
<text text-anchor="start" x="392.5" y="-24" font-family="Helvetica,sans-Serif" font-size="10.00">ai::AIRegistry::TreeNode</text>
<text text-anchor="middle" x="447" y="-13" font-family="Helvetica,sans-Serif" font-size="10.00">Factory</text>
</a>
</g>
</g>
<!-- Node15&#45;&gt;Node16 -->
<g id="edge15" class="edge"><title>Node15&#45;&gt;Node16</title>
<path fill="none" stroke="midnightblue" d="M331.797,-21C349.325,-21 367.66,-21 384.38,-21"/>
<polygon fill="midnightblue" stroke="midnightblue" points="331.588,-17.5001 321.588,-21 331.588,-24.5001 331.588,-17.5001"/>
</g>
</g>
</svg>
