<?xml version="1.0" encoding="UTF-8" standalone="no"?>
<!DOCTYPE svg PUBLIC "-//W3C//DTD SVG 1.1//EN"
 "http://www.w3.org/Graphics/SVG/1.1/DTD/svg11.dtd">
<!-- Generated by graphviz version 2.36.0 (20140111.2315)
 -->
<!-- Title: Graphical Class Hierarchy Pages: 1 -->
<svg width="308pt" height="408pt"
 viewBox="0.00 0.00 308.00 408.00" xmlns="http://www.w3.org/2000/svg" xmlns:xlink="http://www.w3.org/1999/xlink">
<g id="graph0" class="graph" transform="scale(1 1) rotate(0) translate(4 404)">
<title>Graphical Class Hierarchy</title>
<polygon fill="white" stroke="none" points="-4,4 -4,-404 304,-404 304,4 -4,4"/>
<!-- Node1 -->
<g id="node1" class="node"><title>Node1</title>
<g id="a_node1"><a xlink:href="classai_1_1IProtocolMessage.html" target="_top" xlink:title="A protocol message is used for the serialization of the ai states for remote debugging. ">
<polygon fill="white" stroke="black" points="0.5,-190.5 0.5,-209.5 109.5,-209.5 109.5,-190.5 0.5,-190.5"/>
<text text-anchor="middle" x="55" y="-197.5" font-family="Helvetica,sans-Serif" font-size="10.00">ai::IProtocolMessage</text>
</a>
</g>
</g>
<!-- Node2 -->
<g id="node2" class="node"><title>Node2</title>
<g id="a_node2"><a xlink:href="classai_1_1AIAddNodeMessage.html" target="_top" xlink:title="Message for the remote debugging interface. ">
<polygon fill="white" stroke="black" points="163,-380.5 163,-399.5 283,-399.5 283,-380.5 163,-380.5"/>
<text text-anchor="middle" x="223" y="-387.5" font-family="Helvetica,sans-Serif" font-size="10.00">ai::AIAddNodeMessage</text>
</a>
</g>
</g>
<!-- Node1&#45;&gt;Node2 -->
<g id="edge1" class="edge"><title>Node1&#45;&gt;Node2</title>
<path fill="none" stroke="midnightblue" d="M60.6682,-219.654C70.2298,-255.481 95.5239,-331.366 146,-371 151.028,-374.948 156.771,-378.086 162.797,-380.58"/>
<polygon fill="midnightblue" stroke="midnightblue" points="63.9515,-218.361 58.1047,-209.525 57.1655,-220.079 63.9515,-218.361"/>
</g>
<!-- Node3 -->
<g id="node3" class="node"><title>Node3</title>
<g id="a_node3"><a xlink:href="classai_1_1AIChangeMessage.html" target="_top" xlink:title="Message for the remote debugging interface. ">
<polygon fill="white" stroke="black" points="166.5,-342.5 166.5,-361.5 279.5,-361.5 279.5,-342.5 166.5,-342.5"/>
<text text-anchor="middle" x="223" y="-349.5" font-family="Helvetica,sans-Serif" font-size="10.00">ai::AIChangeMessage</text>
</a>
</g>
</g>
<!-- Node1&#45;&gt;Node3 -->
<g id="edge2" class="edge"><title>Node1&#45;&gt;Node3</title>
<path fill="none" stroke="midnightblue" d="M63.6701,-219.345C76.2965,-248.613 104.29,-303.821 146,-333 152.129,-337.288 159.133,-340.61 166.352,-343.184"/>
<polygon fill="midnightblue" stroke="midnightblue" points="66.7863,-217.723 59.7166,-209.832 60.3223,-220.409 66.7863,-217.723"/>
</g>
<!-- Node4 -->
<g id="node4" class="node"><title>Node4</title>
<g id="a_node4"><a xlink:href="classai_1_1AICharacterDetailsMessage.html" target="_top" xlink:title="Message for the remote debugging interface. ">
<polygon fill="white" stroke="black" points="146.5,-304.5 146.5,-323.5 299.5,-323.5 299.5,-304.5 146.5,-304.5"/>
<text text-anchor="middle" x="223" y="-311.5" font-family="Helvetica,sans-Serif" font-size="10.00">ai::AICharacterDetailsMessage</text>
</a>
</g>
</g>
<!-- Node1&#45;&gt;Node4 -->
<g id="edge3" class="edge"><title>Node1&#45;&gt;Node4</title>
<path fill="none" stroke="midnightblue" d="M67.9471,-217.794C83.3984,-239.39 112.356,-275.346 146,-295 152.694,-298.91 160.175,-302.021 167.76,-304.495"/>
<polygon fill="midnightblue" stroke="midnightblue" points="70.764,-215.715 62.1778,-209.508 65.0192,-219.715 70.764,-215.715"/>
</g>
<!-- Node5 -->
<g id="node5" class="node"><title>Node5</title>
<g id="a_node5"><a xlink:href="classai_1_1AICharacterStaticMessage.html" target="_top" xlink:title="ai::AICharacterStaticMessage">
<polygon fill="white" stroke="black" points="149,-266.5 149,-285.5 297,-285.5 297,-266.5 149,-266.5"/>
<text text-anchor="middle" x="223" y="-273.5" font-family="Helvetica,sans-Serif" font-size="10.00">ai::AICharacterStaticMessage</text>
</a>
</g>
</g>
<!-- Node1&#45;&gt;Node5 -->
<g id="edge4" class="edge"><title>Node1&#45;&gt;Node5</title>
<path fill="none" stroke="midnightblue" d="M76.7411,-215.856C94.3283,-228.613 120.665,-246.146 146,-257 154.751,-260.749 164.399,-263.869 173.798,-266.422"/>
<polygon fill="midnightblue" stroke="midnightblue" points="78.5142,-212.814 68.3934,-209.68 74.3511,-218.441 78.5142,-212.814"/>
</g>
<!-- Node6 -->
<g id="node6" class="node"><title>Node6</title>
<g id="a_node6"><a xlink:href="classai_1_1AIDeleteNodeMessage.html" target="_top" xlink:title="Message for the remote debugging interface. ">
<polygon fill="white" stroke="black" points="157.5,-228.5 157.5,-247.5 288.5,-247.5 288.5,-228.5 157.5,-228.5"/>
<text text-anchor="middle" x="223" y="-235.5" font-family="Helvetica,sans-Serif" font-size="10.00">ai::AIDeleteNodeMessage</text>
</a>
</g>
</g>
<!-- Node1&#45;&gt;Node6 -->
<g id="edge5" class="edge"><title>Node1&#45;&gt;Node6</title>
<path fill="none" stroke="midnightblue" d="M107.653,-211.824C131.056,-217.182 158.357,-223.431 180.412,-228.48"/>
<polygon fill="midnightblue" stroke="midnightblue" points="108.418,-208.409 97.8888,-209.589 106.856,-215.232 108.418,-208.409"/>
</g>
<!-- Node7 -->
<g id="node7" class="node"><title>Node7</title>
<g id="a_node7"><a xlink:href="classai_1_1AINamesMessage.html" target="_top" xlink:title="Message for the remote debugging interface. ">
<polygon fill="white" stroke="black" points="167.5,-190.5 167.5,-209.5 278.5,-209.5 278.5,-190.5 167.5,-190.5"/>
<text text-anchor="middle" x="223" y="-197.5" font-family="Helvetica,sans-Serif" font-size="10.00">ai::AINamesMessage</text>
</a>
</g>
</g>
<!-- Node1&#45;&gt;Node7 -->
<g id="edge6" class="edge"><title>Node1&#45;&gt;Node7</title>
<path fill="none" stroke="midnightblue" d="M119.982,-200C135.576,-200 152.116,-200 167.237,-200"/>
<polygon fill="midnightblue" stroke="midnightblue" points="119.895,-196.5 109.895,-200 119.895,-203.5 119.895,-196.5"/>
</g>
<!-- Node8 -->
<g id="node8" class="node"><title>Node8</title>
<g id="a_node8"><a xlink:href="classai_1_1AIPauseMessage.html" target="_top" xlink:title="Message for the remote debugging interface. ">
<polygon fill="white" stroke="black" points="169.5,-152.5 169.5,-171.5 276.5,-171.5 276.5,-152.5 169.5,-152.5"/>
<text text-anchor="middle" x="223" y="-159.5" font-family="Helvetica,sans-Serif" font-size="10.00">ai::AIPauseMessage</text>
</a>
</g>
</g>
<!-- Node1&#45;&gt;Node8 -->
<g id="edge7" class="edge"><title>Node1&#45;&gt;Node8</title>
<path fill="none" stroke="midnightblue" d="M107.653,-188.176C131.056,-182.818 158.357,-176.569 180.412,-171.52"/>
<polygon fill="midnightblue" stroke="midnightblue" points="106.856,-184.768 97.8888,-190.411 108.418,-191.591 106.856,-184.768"/>
</g>
<!-- Node9 -->
<g id="node9" class="node"><title>Node9</title>
<g id="a_node9"><a xlink:href="classai_1_1AISelectMessage.html" target="_top" xlink:title="Message for the remote debugging interface. ">
<polygon fill="white" stroke="black" points="169.5,-114.5 169.5,-133.5 276.5,-133.5 276.5,-114.5 169.5,-114.5"/>
<text text-anchor="middle" x="223" y="-121.5" font-family="Helvetica,sans-Serif" font-size="10.00">ai::AISelectMessage</text>
</a>
</g>
</g>
<!-- Node1&#45;&gt;Node9 -->
<g id="edge8" class="edge"><title>Node1&#45;&gt;Node9</title>
<path fill="none" stroke="midnightblue" d="M76.7411,-184.144C94.3283,-171.387 120.665,-153.854 146,-143 154.751,-139.251 164.399,-136.131 173.798,-133.578"/>
<polygon fill="midnightblue" stroke="midnightblue" points="74.3511,-181.559 68.3934,-190.32 78.5142,-187.186 74.3511,-181.559"/>
</g>
<!-- Node10 -->
<g id="node10" class="node"><title>Node10</title>
<g id="a_node10"><a xlink:href="classai_1_1AIStateMessage.html" target="_top" xlink:title="Message for the remote debugging interface. ">
<polygon fill="white" stroke="black" points="171.5,-76.5 171.5,-95.5 274.5,-95.5 274.5,-76.5 171.5,-76.5"/>
<text text-anchor="middle" x="223" y="-83.5" font-family="Helvetica,sans-Serif" font-size="10.00">ai::AIStateMessage</text>
</a>
</g>
</g>
<!-- Node1&#45;&gt;Node10 -->
<g id="edge9" class="edge"><title>Node1&#45;&gt;Node10</title>
<path fill="none" stroke="midnightblue" d="M67.9471,-182.206C83.3984,-160.61 112.356,-124.654 146,-105 153.751,-100.472 162.557,-97.0162 171.358,-94.3803"/>
<polygon fill="midnightblue" stroke="midnightblue" points="65.0192,-180.285 62.1778,-190.492 70.764,-184.285 65.0192,-180.285"/>
</g>
<!-- Node11 -->
<g id="node11" class="node"><title>Node11</title>
<g id="a_node11"><a xlink:href="classai_1_1AIStepMessage.html" target="_top" xlink:title="Perform one step if the ai controlled entities are in paused mode. ">
<polygon fill="white" stroke="black" points="173,-38.5 173,-57.5 273,-57.5 273,-38.5 173,-38.5"/>
<text text-anchor="middle" x="223" y="-45.5" font-family="Helvetica,sans-Serif" font-size="10.00">ai::AIStepMessage</text>
</a>
</g>
</g>
<!-- Node1&#45;&gt;Node11 -->
<g id="edge10" class="edge"><title>Node1&#45;&gt;Node11</title>
<path fill="none" stroke="midnightblue" d="M63.6701,-180.655C76.2965,-151.387 104.29,-96.1787 146,-67 153.912,-61.4648 163.282,-57.5384 172.691,-54.7542"/>
<polygon fill="midnightblue" stroke="midnightblue" points="60.3223,-179.591 59.7166,-190.168 66.7863,-182.277 60.3223,-179.591"/>
</g>
<!-- Node12 -->
<g id="node12" class="node"><title>Node12</title>
<g id="a_node12"><a xlink:href="classai_1_1AIUpdateNodeMessage.html" target="_top" xlink:title="Message for the remote debugging interface. ">
<polygon fill="white" stroke="black" points="156,-0.5 156,-19.5 290,-19.5 290,-0.5 156,-0.5"/>
<text text-anchor="middle" x="223" y="-7.5" font-family="Helvetica,sans-Serif" font-size="10.00">ai::AIUpdateNodeMessage</text>
</a>
</g>
</g>
<!-- Node1&#45;&gt;Node12 -->
<g id="edge11" class="edge"><title>Node1&#45;&gt;Node12</title>
<path fill="none" stroke="midnightblue" d="M60.6682,-180.346C70.2298,-144.519 95.5239,-68.6337 146,-29 150.921,-25.1363 156.527,-22.0477 162.413,-19.5803"/>
<polygon fill="midnightblue" stroke="midnightblue" points="57.1655,-179.921 58.1047,-190.475 63.9515,-181.639 57.1655,-179.921"/>
</g>
</g>
</svg>
