<?xml version="1.0" encoding="UTF-8" standalone="no"?>
<!DOCTYPE svg PUBLIC "-//W3C//DTD SVG 1.1//EN"
 "http://www.w3.org/Graphics/SVG/1.1/DTD/svg11.dtd">
<!-- Generated by graphviz version 2.36.0 (20140111.2315)
 -->
<!-- Title: Graphical Class Hierarchy Pages: 1 -->
<svg width="212pt" height="522pt"
 viewBox="0.00 0.00 212.00 522.00" xmlns="http://www.w3.org/2000/svg" xmlns:xlink="http://www.w3.org/1999/xlink">
<g id="graph0" class="graph" transform="scale(1 1) rotate(0) translate(4 518)">
<title>Graphical Class Hierarchy</title>
<polygon fill="white" stroke="none" points="-4,4 -4,-518 208,-518 208,4 -4,4"/>
<!-- Node1 -->
<g id="node1" class="node"><title>Node1</title>
<polygon fill="white" stroke="#bfbfbf" points="0.5,-247.5 0.5,-266.5 41.5,-266.5 41.5,-247.5 0.5,-247.5"/>
<text text-anchor="middle" x="21" y="-254.5" font-family="Helvetica,sans-Serif" font-size="10.00">IFilter</text>
</g>
<!-- Node2 -->
<g id="node2" class="node"><title>Node2</title>
<g id="a_node2"><a xlink:href="classai_1_1Complement.html" target="_top" xlink:title="This filter performs a complement operation on already filtered entities with the results given by th...">
<polygon fill="white" stroke="black" points="98,-494.5 98,-513.5 184,-513.5 184,-494.5 98,-494.5"/>
<text text-anchor="middle" x="141" y="-501.5" font-family="Helvetica,sans-Serif" font-size="10.00">ai::Complement</text>
</a>
</g>
</g>
<!-- Node1&#45;&gt;Node2 -->
<g id="edge1" class="edge"><title>Node1&#45;&gt;Node2</title>
<path fill="none" stroke="midnightblue" d="M24.3203,-276.568C30.5669,-326.08 49.2354,-454.562 78,-485 83.4127,-490.728 90.501,-494.744 97.9438,-497.556"/>
<polygon fill="midnightblue" stroke="midnightblue" points="27.7792,-276.018 23.0877,-266.519 20.8312,-276.871 27.7792,-276.018"/>
</g>
<!-- Node3 -->
<g id="node3" class="node"><title>Node3</title>
<g id="a_node3"><a xlink:href="classai_1_1Difference.html" target="_top" xlink:title="This filter performs a difference operation between several filter results. The result consists of el...">
<polygon fill="white" stroke="black" points="103.5,-456.5 103.5,-475.5 178.5,-475.5 178.5,-456.5 103.5,-456.5"/>
<text text-anchor="middle" x="141" y="-463.5" font-family="Helvetica,sans-Serif" font-size="10.00">ai::Difference</text>
</a>
</g>
</g>
<!-- Node1&#45;&gt;Node3 -->
<g id="edge2" class="edge"><title>Node1&#45;&gt;Node3</title>
<path fill="none" stroke="midnightblue" d="M22.0238,-277.266C23.1938,-315.759 31.314,-399.81 78,-447 84.8092,-453.883 94.0405,-458.285 103.298,-461.098"/>
<polygon fill="midnightblue" stroke="midnightblue" points="25.5168,-276.813 21.8488,-266.873 18.5177,-276.931 25.5168,-276.813"/>
</g>
<!-- Node4 -->
<g id="node4" class="node"><title>Node4</title>
<g id="a_node4"><a xlink:href="classai_1_1First.html" target="_top" xlink:title="This filter will just preserve the first entry of other filters. ">
<polygon fill="white" stroke="black" points="116,-418.5 116,-437.5 166,-437.5 166,-418.5 116,-418.5"/>
<text text-anchor="middle" x="141" y="-425.5" font-family="Helvetica,sans-Serif" font-size="10.00">ai::First</text>
</a>
</g>
</g>
<!-- Node1&#45;&gt;Node4 -->
<g id="edge3" class="edge"><title>Node1&#45;&gt;Node4</title>
<path fill="none" stroke="midnightblue" d="M23.7433,-276.784C27.6474,-309.06 39.9852,-373.043 78,-409 88.2236,-418.67 103.245,-423.427 115.942,-425.763"/>
<polygon fill="midnightblue" stroke="midnightblue" points="27.2185,-276.364 22.6859,-266.788 20.2574,-277.101 27.2185,-276.364"/>
</g>
<!-- Node5 -->
<g id="node5" class="node"><title>Node5</title>
<g id="a_node5"><a xlink:href="classai_1_1Intersection.html" target="_top" xlink:title="This filter performs an intersection between several filter results. ">
<polygon fill="white" stroke="black" points="100.5,-380.5 100.5,-399.5 181.5,-399.5 181.5,-380.5 100.5,-380.5"/>
<text text-anchor="middle" x="141" y="-387.5" font-family="Helvetica,sans-Serif" font-size="10.00">ai::Intersection</text>
</a>
</g>
</g>
<!-- Node1&#45;&gt;Node5 -->
<g id="edge4" class="edge"><title>Node1&#45;&gt;Node5</title>
<path fill="none" stroke="midnightblue" d="M26.4398,-276.46C33.2296,-301.843 48.6148,-345.958 78,-371 84.4264,-376.477 92.4088,-380.375 100.484,-383.15"/>
<polygon fill="midnightblue" stroke="midnightblue" points="29.7836,-275.403 23.9726,-266.544 22.9907,-277.093 29.7836,-275.403"/>
</g>
<!-- Node6 -->
<g id="node6" class="node"><title>Node6</title>
<g id="a_node6"><a xlink:href="classai_1_1Last.html" target="_top" xlink:title="This filter will just preserve the last entry of other filters. ">
<polygon fill="white" stroke="black" points="116.5,-342.5 116.5,-361.5 165.5,-361.5 165.5,-342.5 116.5,-342.5"/>
<text text-anchor="middle" x="141" y="-349.5" font-family="Helvetica,sans-Serif" font-size="10.00">ai::Last</text>
</a>
</g>
</g>
<!-- Node1&#45;&gt;Node6 -->
<g id="edge5" class="edge"><title>Node1&#45;&gt;Node6</title>
<path fill="none" stroke="midnightblue" d="M31.3518,-275.856C40.8417,-293.126 57.0974,-318.185 78,-333 89.2976,-341.007 104.052,-345.706 116.333,-348.427"/>
<polygon fill="midnightblue" stroke="midnightblue" points="34.3067,-273.955 26.5621,-266.725 28.1078,-277.206 34.3067,-273.955"/>
</g>
<!-- Node7 -->
<g id="node7" class="node"><title>Node7</title>
<g id="a_node7"><a xlink:href="classai_1_1LUAFilter.html" target="_top" xlink:title="ai::LUAFilter">
<polygon fill="white" stroke="black" points="105.5,-304.5 105.5,-323.5 176.5,-323.5 176.5,-304.5 105.5,-304.5"/>
<text text-anchor="middle" x="141" y="-311.5" font-family="Helvetica,sans-Serif" font-size="10.00">ai::LUAFilter</text>
</a>
</g>
</g>
<!-- Node1&#45;&gt;Node7 -->
<g id="edge6" class="edge"><title>Node1&#45;&gt;Node7</title>
<path fill="none" stroke="midnightblue" d="M42.0864,-272.79C52.3799,-280.307 65.3792,-288.953 78,-295 86.5285,-299.086 96.1354,-302.536 105.195,-305.328"/>
<polygon fill="midnightblue" stroke="midnightblue" points="43.9101,-269.782 33.8146,-266.567 39.702,-275.376 43.9101,-269.782"/>
</g>
<!-- Node8 -->
<g id="node8" class="node"><title>Node8</title>
<g id="a_node8"><a xlink:href="classai_1_1Random.html" target="_top" xlink:title="This filter will preserve only a few random entries. ">
<polygon fill="white" stroke="black" points="107.5,-266.5 107.5,-285.5 174.5,-285.5 174.5,-266.5 107.5,-266.5"/>
<text text-anchor="middle" x="141" y="-273.5" font-family="Helvetica,sans-Serif" font-size="10.00">ai::Random</text>
</a>
</g>
</g>
<!-- Node1&#45;&gt;Node8 -->
<g id="edge7" class="edge"><title>Node1&#45;&gt;Node8</title>
<path fill="none" stroke="midnightblue" d="M51.6563,-261.775C68.5795,-264.5 89.8237,-267.921 107.238,-270.725"/>
<polygon fill="midnightblue" stroke="midnightblue" points="52.1798,-258.314 41.7505,-260.18 51.067,-265.225 52.1798,-258.314"/>
</g>
<!-- Node9 -->
<g id="node9" class="node"><title>Node9</title>
<g id="a_node9"><a xlink:href="classai_1_1SelectAll.html" target="_top" xlink:title="This filter is a nop &#45; it will just use the already filtered entities. ">
<polygon fill="white" stroke="black" points="106.5,-228.5 106.5,-247.5 175.5,-247.5 175.5,-228.5 106.5,-228.5"/>
<text text-anchor="middle" x="141" y="-235.5" font-family="Helvetica,sans-Serif" font-size="10.00">ai::SelectAll</text>
</a>
</g>
</g>
<!-- Node1&#45;&gt;Node9 -->
<g id="edge8" class="edge"><title>Node1&#45;&gt;Node9</title>
<path fill="none" stroke="midnightblue" d="M51.9738,-252.174C68.5431,-249.506 89.1801,-246.183 106.307,-243.425"/>
<polygon fill="midnightblue" stroke="midnightblue" points="51.067,-248.775 41.7505,-253.82 52.1798,-255.686 51.067,-248.775"/>
</g>
<!-- Node10 -->
<g id="node10" class="node"><title>Node10</title>
<g id="a_node10"><a xlink:href="classai_1_1SelectEmpty.html" target="_top" xlink:title="This filter just clears the selection. ">
<polygon fill="white" stroke="black" points="98,-190.5 98,-209.5 184,-209.5 184,-190.5 98,-190.5"/>
<text text-anchor="middle" x="141" y="-197.5" font-family="Helvetica,sans-Serif" font-size="10.00">ai::SelectEmpty</text>
</a>
</g>
</g>
<!-- Node1&#45;&gt;Node10 -->
<g id="edge9" class="edge"><title>Node1&#45;&gt;Node10</title>
<path fill="none" stroke="midnightblue" d="M42.0864,-241.21C52.3799,-233.693 65.3792,-225.047 78,-219 85.6147,-215.352 94.0892,-212.211 102.266,-209.592"/>
<polygon fill="midnightblue" stroke="midnightblue" points="39.702,-238.624 33.8146,-247.433 43.9101,-244.218 39.702,-238.624"/>
</g>
<!-- Node11 -->
<g id="node11" class="node"><title>Node11</title>
<g id="a_node11"><a xlink:href="classai_1_1SelectGroupLeader.html" target="_top" xlink:title="This filter will pick the group leader of the specified group. ">
<polygon fill="white" stroke="black" points="84.5,-152.5 84.5,-171.5 197.5,-171.5 197.5,-152.5 84.5,-152.5"/>
<text text-anchor="middle" x="141" y="-159.5" font-family="Helvetica,sans-Serif" font-size="10.00">ai::SelectGroupLeader</text>
</a>
</g>
</g>
<!-- Node1&#45;&gt;Node11 -->
<g id="edge10" class="edge"><title>Node1&#45;&gt;Node11</title>
<path fill="none" stroke="midnightblue" d="M31.3518,-238.144C40.8417,-220.874 57.0974,-195.815 78,-181 83.4192,-177.159 89.6336,-174.08 95.9889,-171.614"/>
<polygon fill="midnightblue" stroke="midnightblue" points="28.1078,-236.794 26.5621,-247.275 34.3067,-240.045 28.1078,-236.794"/>
</g>
<!-- Node12 -->
<g id="node12" class="node"><title>Node12</title>
<g id="a_node12"><a xlink:href="classai_1_1SelectGroupMembers.html" target="_top" xlink:title="This filter will pick the entities from the groups the given AI instance is in. ">
<polygon fill="white" stroke="black" points="78.5,-114.5 78.5,-133.5 203.5,-133.5 203.5,-114.5 78.5,-114.5"/>
<text text-anchor="middle" x="141" y="-121.5" font-family="Helvetica,sans-Serif" font-size="10.00">ai::SelectGroupMembers</text>
</a>
</g>
</g>
<!-- Node1&#45;&gt;Node12 -->
<g id="edge11" class="edge"><title>Node1&#45;&gt;Node12</title>
<path fill="none" stroke="midnightblue" d="M26.4398,-237.54C33.2296,-212.157 48.6148,-168.042 78,-143 82.5413,-139.13 87.8597,-136.048 93.4387,-133.593"/>
<polygon fill="midnightblue" stroke="midnightblue" points="22.9907,-236.907 23.9726,-247.456 29.7836,-238.597 22.9907,-236.907"/>
</g>
<!-- Node13 -->
<g id="node13" class="node"><title>Node13</title>
<g id="a_node13"><a xlink:href="classai_1_1SelectHighestAggro.html" target="_top" xlink:title="This filter will pick the entity with the highest aggro value. ">
<polygon fill="white" stroke="black" points="82.5,-76.5 82.5,-95.5 199.5,-95.5 199.5,-76.5 82.5,-76.5"/>
<text text-anchor="middle" x="141" y="-83.5" font-family="Helvetica,sans-Serif" font-size="10.00">ai::SelectHighestAggro</text>
</a>
</g>
</g>
<!-- Node1&#45;&gt;Node13 -->
<g id="edge12" class="edge"><title>Node1&#45;&gt;Node13</title>
<path fill="none" stroke="midnightblue" d="M23.7433,-237.216C27.6474,-204.94 39.9852,-140.957 78,-105 82.0894,-101.132 86.9466,-98.05 92.1155,-95.5948"/>
<polygon fill="midnightblue" stroke="midnightblue" points="20.2574,-236.899 22.6859,-247.212 27.2185,-237.636 20.2574,-236.899"/>
</g>
<!-- Node14 -->
<g id="node14" class="node"><title>Node14</title>
<g id="a_node14"><a xlink:href="classai_1_1SelectZone.html" target="_top" xlink:title="This filter will pick the entities from the zone of the given entity. ">
<polygon fill="white" stroke="black" points="101,-38.5 101,-57.5 181,-57.5 181,-38.5 101,-38.5"/>
<text text-anchor="middle" x="141" y="-45.5" font-family="Helvetica,sans-Serif" font-size="10.00">ai::SelectZone</text>
</a>
</g>
</g>
<!-- Node1&#45;&gt;Node14 -->
<g id="edge13" class="edge"><title>Node1&#45;&gt;Node14</title>
<path fill="none" stroke="midnightblue" d="M22.0238,-236.734C23.1938,-198.241 31.314,-114.19 78,-67 84.1758,-60.7575 92.344,-56.5551 100.717,-53.7293"/>
<polygon fill="midnightblue" stroke="midnightblue" points="18.5177,-237.069 21.8488,-247.127 25.5168,-237.187 18.5177,-237.069"/>
</g>
<!-- Node15 -->
<g id="node15" class="node"><title>Node15</title>
<g id="a_node15"><a xlink:href="classai_1_1Union.html" target="_top" xlink:title="This filter merges several other filter results. ">
<polygon fill="white" stroke="black" points="113,-0.5 113,-19.5 169,-19.5 169,-0.5 113,-0.5"/>
<text text-anchor="middle" x="141" y="-7.5" font-family="Helvetica,sans-Serif" font-size="10.00">ai::Union</text>
</a>
</g>
</g>
<!-- Node1&#45;&gt;Node15 -->
<g id="edge14" class="edge"><title>Node1&#45;&gt;Node15</title>
<path fill="none" stroke="midnightblue" d="M24.3203,-237.432C30.5669,-187.92 49.2354,-59.4381 78,-29 86.9697,-19.5085 100.541,-14.7175 112.701,-12.3161"/>
<polygon fill="midnightblue" stroke="midnightblue" points="20.8312,-237.129 23.0877,-247.481 27.7792,-237.982 20.8312,-237.129"/>
</g>
</g>
</svg>
