<?xml version="1.0" encoding="UTF-8" standalone="no"?>
<!DOCTYPE svg PUBLIC "-//W3C//DTD SVG 1.1//EN"
 "http://www.w3.org/Graphics/SVG/1.1/DTD/svg11.dtd">
<!-- Generated by graphviz version 2.36.0 (20140111.2315)
 -->
<!-- Title: /home/travis/build/mgerhardy/simpleai/src/ai/common/IParser.h Pages: 1 -->
<!--zoomable 330 -->
<svg id="main" version="1.1" xmlns="http://www.w3.org/2000/svg" xmlns:xlink="http://www.w3.org/1999/xlink" xml:space="preserve" onload="init(evt)">
<style type="text/css"><![CDATA[
.edge:hover path { stroke: red; }
.edge:hover polygon { stroke: red; fill: red; }
]]></style>
<script type="text/javascript"><![CDATA[
var edges = document.getElementsByTagName('g');
if (edges && edges.length) {
  for (var i=0;i<edges.length;i++) {
    if (edges[i].id.substr(0,4)=='edge') {
      edges[i].setAttribute('class','edge');
    }
  }
}
]]></script>
        <defs>
                <circle id="rim" cx="0" cy="0" r="7"/>
                <circle id="rim2" cx="0" cy="0" r="3.5"/>
                <g id="zoomPlus">
                        <use xlink:href="#rim" fill="#404040">
                                <set attributeName="fill" to="#808080" begin="zoomplus.mouseover" end="zoomplus.mouseout"/>
                        </use>
                        <path d="M-4,0h8M0,-4v8" fill="none" stroke="white" stroke-width="1.5" pointer-events="none"/>
                </g>
                <g id="zoomMin">
                        <use xlink:href="#rim" fill="#404040">
                                <set attributeName="fill" to="#808080" begin="zoomminus.mouseover" end="zoomminus.mouseout"/>
                        </use>
                        <path d="M-4,0h8" fill="none" stroke="white" stroke-width="1.5" pointer-events="none"/>
                </g>
                <g id="dirArrow">
                        <path fill="none" stroke="white" stroke-width="1.5" d="M0,-3.0v7 M-2.5,-0.5L0,-3.0L2.5,-0.5"/>
                </g>
               <g id="resetDef">
                       <use xlink:href="#rim2" fill="#404040">
                               <set attributeName="fill" to="#808080" begin="reset.mouseover" end="reset.mouseout"/>
                       </use>
               </g>
        </defs>

<script type="text/javascript">
var viewWidth = 937;
var viewHeight = 330;
var sectionId = 'dynsection-0';
</script>
<script xlink:href="svgpan.js"/>
<svg id="graph" class="graph">
<g id="viewport">
<title>/home/travis/build/mgerhardy/simpleai/src/ai/common/IParser.h</title>
<polygon fill="white" stroke="none" points="-4,4 -4,-326 933,-326 933,4 -4,4"/>
<!-- Node1 -->
<g id="node1" class="node"><title>Node1</title>
<polygon fill="#bfbfbf" stroke="black" points="248.5,-280.5 248.5,-321.5 375.5,-321.5 375.5,-280.5 248.5,-280.5"/>
<text text-anchor="start" x="256.5" y="-309.5" font-family="Helvetica,sans-Serif" font-size="10.00">/home/travis/build</text>
<text text-anchor="start" x="256.5" y="-298.5" font-family="Helvetica,sans-Serif" font-size="10.00">/mgerhardy/simpleai</text>
<text text-anchor="middle" x="312" y="-287.5" font-family="Helvetica,sans-Serif" font-size="10.00">/src/ai/common/IParser.h</text>
</g>
<!-- Node2 -->
<g id="node2" class="node"><title>Node2</title>
<g id="a_node2"><a xlink:href="Log_8h.html" target="_top" xlink:title="Log.h">
<polygon fill="white" stroke="black" points="55.5,-56.5 55.5,-75.5 96.5,-75.5 96.5,-56.5 55.5,-56.5"/>
<text text-anchor="middle" x="76" y="-63.5" font-family="Helvetica,sans-Serif" font-size="10.00">Log.h</text>
</a>
</g>
</g>
<!-- Node1&#45;&gt;Node2 -->
<g id="edge1" class="edge"><title>Node1&#45;&gt;Node2</title>
<path fill="none" stroke="midnightblue" d="M278.608,-280.341C233.629,-252.396 153.521,-197.269 104,-132 93.3343,-117.943 85.8236,-99.202 81.2845,-85.4561"/>
<polygon fill="midnightblue" stroke="midnightblue" points="84.5649,-84.2158 78.2779,-75.6879 77.8746,-86.2751 84.5649,-84.2158"/>
</g>
<!-- Node6 -->
<g id="node6" class="node"><title>Node6</title>
<polygon fill="white" stroke="#bfbfbf" points="222,-168.5 222,-187.5 266,-187.5 266,-168.5 222,-168.5"/>
<text text-anchor="middle" x="244" y="-175.5" font-family="Helvetica,sans-Serif" font-size="10.00">vector</text>
</g>
<!-- Node1&#45;&gt;Node6 -->
<g id="edge5" class="edge"><title>Node1&#45;&gt;Node6</title>
<path fill="none" stroke="midnightblue" d="M300.923,-280.29C287.869,-257.061 266.376,-218.815 253.87,-196.562"/>
<polygon fill="midnightblue" stroke="midnightblue" points="256.769,-194.578 248.819,-187.575 250.667,-198.007 256.769,-194.578"/>
</g>
<!-- Node7 -->
<g id="node7" class="node"><title>Node7</title>
<polygon fill="white" stroke="#bfbfbf" points="888.5,-56.5 888.5,-75.5 929.5,-75.5 929.5,-56.5 888.5,-56.5"/>
<text text-anchor="middle" x="909" y="-63.5" font-family="Helvetica,sans-Serif" font-size="10.00">string</text>
</g>
<!-- Node1&#45;&gt;Node7 -->
<g id="edge6" class="edge"><title>Node1&#45;&gt;Node7</title>
<path fill="none" stroke="midnightblue" d="M375.66,-289.846C469.117,-273.907 648.165,-239.429 794,-188 847.99,-168.96 879.565,-180.489 910,-132 918.616,-118.272 917.251,-99.4914 914.391,-85.6467"/>
<polygon fill="midnightblue" stroke="midnightblue" points="917.751,-84.6518 911.94,-75.7927 910.958,-86.3419 917.751,-84.6518"/>
</g>
<!-- Node8 -->
<g id="node8" class="node"><title>Node8</title>
<polygon fill="white" stroke="#bfbfbf" points="284,-168.5 284,-187.5 340,-187.5 340,-168.5 284,-168.5"/>
<text text-anchor="middle" x="312" y="-175.5" font-family="Helvetica,sans-Serif" font-size="10.00">algorithm</text>
</g>
<!-- Node1&#45;&gt;Node8 -->
<g id="edge7" class="edge"><title>Node1&#45;&gt;Node8</title>
<path fill="none" stroke="midnightblue" d="M312,-280.29C312,-257.48 312,-220.189 312,-197.781"/>
<polygon fill="midnightblue" stroke="midnightblue" points="315.5,-197.575 312,-187.575 308.5,-197.575 315.5,-197.575"/>
</g>
<!-- Node9 -->
<g id="node9" class="node"><title>Node9</title>
<g id="a_node9"><a xlink:href="String_8h.html" target="_top" xlink:title="String.h">
<polygon fill="white" stroke="black" points="350,-224.5 350,-243.5 400,-243.5 400,-224.5 350,-224.5"/>
<text text-anchor="middle" x="375" y="-231.5" font-family="Helvetica,sans-Serif" font-size="10.00">String.h</text>
</a>
</g>
</g>
<!-- Node1&#45;&gt;Node9 -->
<g id="edge8" class="edge"><title>Node1&#45;&gt;Node9</title>
<path fill="none" stroke="midnightblue" d="M330.902,-280.498C340.004,-271.107 350.786,-259.983 359.41,-251.085"/>
<polygon fill="midnightblue" stroke="midnightblue" points="362.167,-253.269 366.614,-243.652 357.141,-248.397 362.167,-253.269"/>
</g>
<!-- Node3 -->
<g id="node3" class="node"><title>Node3</title>
<polygon fill="white" stroke="#bfbfbf" points="144.5,-0.5 144.5,-19.5 187.5,-19.5 187.5,-0.5 144.5,-0.5"/>
<text text-anchor="middle" x="166" y="-7.5" font-family="Helvetica,sans-Serif" font-size="10.00">cstdio</text>
</g>
<!-- Node2&#45;&gt;Node3 -->
<g id="edge2" class="edge"><title>Node2&#45;&gt;Node3</title>
<path fill="none" stroke="midnightblue" d="M90.4601,-56.324C104.5,-47.9002 126.048,-34.9709 142.543,-25.0741"/>
<polygon fill="midnightblue" stroke="midnightblue" points="144.802,-27.8007 151.576,-19.6545 141.2,-21.7983 144.802,-27.8007"/>
</g>
<!-- Node4 -->
<g id="node4" class="node"><title>Node4</title>
<polygon fill="white" stroke="#bfbfbf" points="64.5,-0.5 64.5,-19.5 113.5,-19.5 113.5,-0.5 64.5,-0.5"/>
<text text-anchor="middle" x="89" y="-7.5" font-family="Helvetica,sans-Serif" font-size="10.00">cstdarg</text>
</g>
<!-- Node2&#45;&gt;Node4 -->
<g id="edge3" class="edge"><title>Node2&#45;&gt;Node4</title>
<path fill="none" stroke="midnightblue" d="M78.1467,-56.083C79.8694,-48.9272 82.3471,-38.6353 84.5003,-29.6911"/>
<polygon fill="midnightblue" stroke="midnightblue" points="87.9554,-30.2925 86.8933,-19.7511 81.1499,-28.6541 87.9554,-30.2925"/>
</g>
<!-- Node5 -->
<g id="node5" class="node"><title>Node5</title>
<polygon fill="white" stroke="#bfbfbf" points="0,-0.5 0,-19.5 46,-19.5 46,-0.5 0,-0.5"/>
<text text-anchor="middle" x="23" y="-7.5" font-family="Helvetica,sans-Serif" font-size="10.00">cstring</text>
</g>
<!-- Node2&#45;&gt;Node5 -->
<g id="edge4" class="edge"><title>Node2&#45;&gt;Node5</title>
<path fill="none" stroke="midnightblue" d="M67.2481,-56.083C59.5303,-48.2195 48.0953,-36.5688 38.7835,-27.0813"/>
<polygon fill="midnightblue" stroke="midnightblue" points="41.0916,-24.4363 31.589,-19.7511 36.0958,-29.3396 41.0916,-24.4363"/>
</g>
<!-- Node9&#45;&gt;Node6 -->
<g id="edge23" class="edge"><title>Node9&#45;&gt;Node6</title>
<path fill="none" stroke="midnightblue" d="M354.243,-224.444C332.684,-215.557 298.737,-201.563 274.206,-191.451"/>
<polygon fill="midnightblue" stroke="midnightblue" points="275.239,-188.092 264.66,-187.516 272.572,-194.563 275.239,-188.092"/>
</g>
<!-- Node9&#45;&gt;Node7 -->
<g id="edge24" class="edge"><title>Node9&#45;&gt;Node7</title>
<path fill="none" stroke="midnightblue" d="M400.183,-231.454C493.293,-225.242 816.495,-199.122 890,-132 902.868,-120.249 907.205,-100.316 908.575,-85.6149"/>
<polygon fill="midnightblue" stroke="midnightblue" points="912.07,-85.7951 909.137,-75.6144 905.081,-85.4022 912.07,-85.7951"/>
</g>
<!-- Node9&#45;&gt;Node8 -->
<g id="edge26" class="edge"><title>Node9&#45;&gt;Node8</title>
<path fill="none" stroke="midnightblue" d="M364.878,-224.324C355.474,-216.263 341.256,-204.077 329.931,-194.369"/>
<polygon fill="midnightblue" stroke="midnightblue" points="332.177,-191.684 322.306,-187.834 327.621,-196.999 332.177,-191.684"/>
</g>
<!-- Node10 -->
<g id="node10" class="node"><title>Node10</title>
<g id="a_node10"><a xlink:href="Math_8h.html" target="_top" xlink:title="Math.h">
<polygon fill="white" stroke="black" points="428.5,-168.5 428.5,-187.5 475.5,-187.5 475.5,-168.5 428.5,-168.5"/>
<text text-anchor="middle" x="452" y="-175.5" font-family="Helvetica,sans-Serif" font-size="10.00">Math.h</text>
</a>
</g>
</g>
<!-- Node9&#45;&gt;Node10 -->
<g id="edge9" class="edge"><title>Node9&#45;&gt;Node10</title>
<path fill="none" stroke="midnightblue" d="M387.371,-224.324C399.158,-216.058 417.132,-203.453 431.136,-193.632"/>
<polygon fill="midnightblue" stroke="midnightblue" points="433.482,-196.262 439.659,-187.655 429.462,-190.531 433.482,-196.262"/>
</g>
<!-- Node21 -->
<g id="node21" class="node"><title>Node21</title>
<polygon fill="white" stroke="#bfbfbf" points="358,-168.5 358,-187.5 410,-187.5 410,-168.5 358,-168.5"/>
<text text-anchor="middle" x="384" y="-175.5" font-family="Helvetica,sans-Serif" font-size="10.00">sstream</text>
</g>
<!-- Node9&#45;&gt;Node21 -->
<g id="edge25" class="edge"><title>Node9&#45;&gt;Node21</title>
<path fill="none" stroke="midnightblue" d="M376.486,-224.083C377.679,-216.927 379.394,-206.635 380.885,-197.691"/>
<polygon fill="midnightblue" stroke="midnightblue" points="384.35,-198.19 382.541,-187.751 377.445,-197.04 384.35,-198.19"/>
</g>
<!-- Node11 -->
<g id="node11" class="node"><title>Node11</title>
<g id="a_node11"><a xlink:href="Types_8h.html" target="_top" xlink:title="Types.h">
<polygon fill="white" stroke="black" points="113,-112.5 113,-131.5 165,-131.5 165,-112.5 113,-112.5"/>
<text text-anchor="middle" x="139" y="-119.5" font-family="Helvetica,sans-Serif" font-size="10.00">Types.h</text>
</a>
</g>
</g>
<!-- Node10&#45;&gt;Node11 -->
<g id="edge10" class="edge"><title>Node10&#45;&gt;Node11</title>
<path fill="none" stroke="midnightblue" d="M428.29,-170.167C425.179,-169.378 422.023,-168.632 419,-168 314.427,-146.14 283.679,-153.278 175.331,-132.08"/>
<polygon fill="midnightblue" stroke="midnightblue" points="175.796,-128.604 165.304,-130.082 174.427,-135.469 175.796,-128.604"/>
</g>
<!-- Node14 -->
<g id="node14" class="node"><title>Node14</title>
<polygon fill="white" stroke="#bfbfbf" points="307,-112.5 307,-131.5 377,-131.5 377,-112.5 307,-112.5"/>
<text text-anchor="middle" x="342" y="-119.5" font-family="Helvetica,sans-Serif" font-size="10.00">glm/glm.hpp</text>
</g>
<!-- Node10&#45;&gt;Node14 -->
<g id="edge16" class="edge"><title>Node10&#45;&gt;Node14</title>
<path fill="none" stroke="midnightblue" d="M434.327,-168.324C416.606,-159.625 389.097,-146.12 368.712,-136.113"/>
<polygon fill="midnightblue" stroke="midnightblue" points="370.149,-132.919 359.63,-131.655 367.064,-139.203 370.149,-132.919"/>
</g>
<!-- Node15 -->
<g id="node15" class="node"><title>Node15</title>
<polygon fill="white" stroke="#bfbfbf" points="395.5,-112.5 395.5,-131.5 508.5,-131.5 508.5,-112.5 395.5,-112.5"/>
<text text-anchor="middle" x="452" y="-119.5" font-family="Helvetica,sans-Serif" font-size="10.00">glm/gtc/constants.hpp</text>
</g>
<!-- Node10&#45;&gt;Node15 -->
<g id="edge17" class="edge"><title>Node10&#45;&gt;Node15</title>
<path fill="none" stroke="midnightblue" d="M452,-168.083C452,-161.006 452,-150.861 452,-141.986"/>
<polygon fill="midnightblue" stroke="midnightblue" points="455.5,-141.751 452,-131.751 448.5,-141.751 455.5,-141.751"/>
</g>
<!-- Node16 -->
<g id="node16" class="node"><title>Node16</title>
<polygon fill="white" stroke="#bfbfbf" points="526.5,-112.5 526.5,-131.5 627.5,-131.5 627.5,-112.5 526.5,-112.5"/>
<text text-anchor="middle" x="577" y="-119.5" font-family="Helvetica,sans-Serif" font-size="10.00">glm/gtc/epsilon.hpp</text>
</g>
<!-- Node10&#45;&gt;Node16 -->
<g id="edge18" class="edge"><title>Node10&#45;&gt;Node16</title>
<path fill="none" stroke="midnightblue" d="M471.807,-168.444C492.287,-159.596 524.483,-145.687 547.865,-135.586"/>
<polygon fill="midnightblue" stroke="midnightblue" points="549.494,-138.695 557.286,-131.516 546.718,-132.269 549.494,-138.695"/>
</g>
<!-- Node17 -->
<g id="node17" class="node"><title>Node17</title>
<polygon fill="white" stroke="#bfbfbf" points="645.5,-112.5 645.5,-131.5 770.5,-131.5 770.5,-112.5 645.5,-112.5"/>
<text text-anchor="middle" x="708" y="-119.5" font-family="Helvetica,sans-Serif" font-size="10.00">glm/gtx/compatibility.hpp</text>
</g>
<!-- Node10&#45;&gt;Node17 -->
<g id="edge19" class="edge"><title>Node10&#45;&gt;Node17</title>
<path fill="none" stroke="midnightblue" d="M475.625,-172.017C516.759,-163.34 602.39,-145.277 657.427,-133.668"/>
<polygon fill="midnightblue" stroke="midnightblue" points="658.268,-137.068 667.33,-131.579 656.823,-130.218 658.268,-137.068"/>
</g>
<!-- Node18 -->
<g id="node18" class="node"><title>Node18</title>
<polygon fill="white" stroke="#bfbfbf" points="789,-112.5 789,-131.5 881,-131.5 881,-112.5 789,-112.5"/>
<text text-anchor="middle" x="835" y="-119.5" font-family="Helvetica,sans-Serif" font-size="10.00">glm/gtx/norm.hpp</text>
</g>
<!-- Node10&#45;&gt;Node18 -->
<g id="edge20" class="edge"><title>Node10&#45;&gt;Node18</title>
<path fill="none" stroke="midnightblue" d="M475.824,-173.909C528.344,-167.055 658.276,-149.881 778.733,-132.008"/>
<polygon fill="midnightblue" stroke="midnightblue" points="779.492,-135.433 788.868,-130.499 778.462,-128.509 779.492,-135.433"/>
</g>
<!-- Node19 -->
<g id="node19" class="node"><title>Node19</title>
<polygon fill="white" stroke="#bfbfbf" points="183,-112.5 183,-131.5 223,-131.5 223,-112.5 183,-112.5"/>
<text text-anchor="middle" x="203" y="-119.5" font-family="Helvetica,sans-Serif" font-size="10.00">limits</text>
</g>
<!-- Node10&#45;&gt;Node19 -->
<g id="edge21" class="edge"><title>Node10&#45;&gt;Node19</title>
<path fill="none" stroke="midnightblue" d="M428.262,-170.294C425.155,-169.485 422.008,-168.699 419,-168 339.617,-149.562 315.848,-152.33 233.044,-132.034"/>
<polygon fill="midnightblue" stroke="midnightblue" points="233.75,-128.603 223.201,-129.582 232.058,-135.396 233.75,-128.603"/>
</g>
<!-- Node20 -->
<g id="node20" class="node"><title>Node20</title>
<polygon fill="white" stroke="#bfbfbf" points="241.5,-112.5 241.5,-131.5 288.5,-131.5 288.5,-112.5 241.5,-112.5"/>
<text text-anchor="middle" x="265" y="-119.5" font-family="Helvetica,sans-Serif" font-size="10.00">math.h</text>
</g>
<!-- Node10&#45;&gt;Node20 -->
<g id="edge22" class="edge"><title>Node10&#45;&gt;Node20</title>
<path fill="none" stroke="midnightblue" d="M428.316,-170.161C395.527,-160.692 336.124,-143.538 298.714,-132.736"/>
<polygon fill="midnightblue" stroke="midnightblue" points="299.364,-129.28 288.786,-129.869 297.422,-136.006 299.364,-129.28"/>
</g>
<!-- Node11&#45;&gt;Node2 -->
<g id="edge11" class="edge"><title>Node11&#45;&gt;Node2</title>
<path fill="none" stroke="midnightblue" d="M128.878,-112.324C119.474,-104.263 105.256,-92.0765 93.931,-82.3695"/>
<polygon fill="midnightblue" stroke="midnightblue" points="96.1766,-79.6844 86.3062,-75.8339 91.621,-84.9993 96.1766,-79.6844"/>
</g>
<!-- Node11&#45;&gt;Node3 -->
<g id="edge15" class="edge"><title>Node11&#45;&gt;Node3</title>
<path fill="none" stroke="midnightblue" d="M148.02,-112.34C156.072,-103.932 167.298,-90.3633 172,-76 176.958,-60.8543 174.659,-42.7345 171.579,-29.4783"/>
<polygon fill="midnightblue" stroke="midnightblue" points="174.917,-28.4139 168.951,-19.659 168.155,-30.2239 174.917,-28.4139"/>
</g>
<!-- Node11&#45;&gt;Node7 -->
<g id="edge12" class="edge"><title>Node11&#45;&gt;Node7</title>
<path fill="none" stroke="midnightblue" d="M165.261,-113.675C168.193,-113.028 171.149,-112.45 174,-112 444.491,-69.3416 776.892,-66.5648 878.241,-66.7954"/>
<polygon fill="midnightblue" stroke="midnightblue" points="878.372,-70.2958 888.385,-66.8308 878.397,-63.2958 878.372,-70.2958"/>
</g>
<!-- Node12 -->
<g id="node12" class="node"><title>Node12</title>
<polygon fill="white" stroke="#bfbfbf" points="220.5,-56.5 220.5,-75.5 303.5,-75.5 303.5,-56.5 220.5,-56.5"/>
<text text-anchor="middle" x="262" y="-63.5" font-family="Helvetica,sans-Serif" font-size="10.00">unordered_map</text>
</g>
<!-- Node11&#45;&gt;Node12 -->
<g id="edge13" class="edge"><title>Node11&#45;&gt;Node12</title>
<path fill="none" stroke="midnightblue" d="M158.49,-112.444C178.642,-103.596 210.323,-89.6875 233.331,-79.5865"/>
<polygon fill="midnightblue" stroke="midnightblue" points="234.852,-82.7411 242.601,-75.5164 232.038,-76.3316 234.852,-82.7411"/>
</g>
<!-- Node13 -->
<g id="node13" class="node"><title>Node13</title>
<polygon fill="white" stroke="#bfbfbf" points="114.5,-56.5 114.5,-75.5 163.5,-75.5 163.5,-56.5 114.5,-56.5"/>
<text text-anchor="middle" x="139" y="-63.5" font-family="Helvetica,sans-Serif" font-size="10.00">cassert</text>
</g>
<!-- Node11&#45;&gt;Node13 -->
<g id="edge14" class="edge"><title>Node11&#45;&gt;Node13</title>
<path fill="none" stroke="midnightblue" d="M139,-112.083C139,-105.006 139,-94.8611 139,-85.9865"/>
<polygon fill="midnightblue" stroke="midnightblue" points="142.5,-85.751 139,-75.7511 135.5,-85.7511 142.5,-85.751"/>
</g>
</g>
</svg>
        <g id="navigator" transform="translate(0 0)" fill="#404254">
                <rect fill="#f2f5e9" fill-opacity="0.5" stroke="#606060" stroke-width=".5" x="0" y="0" width="60" height="60"/>
                <use id="zoomplus" xlink:href="#zoomPlus" x="17" y="9" onmousedown="handleZoom(evt,'in')"/>
                <use id="zoomminus" xlink:href="#zoomMin" x="42" y="9" onmousedown="handleZoom(evt,'out')"/>
                <use id="reset" xlink:href="#resetDef" x="30" y="36" onmousedown="handleReset()"/>
                <g id="arrowUp" xlink:href="#dirArrow" transform="translate(30 24)" onmousedown="handlePan(0,-1)">
                  <use xlink:href="#rim" fill="#404040">
                        <set attributeName="fill" to="#808080" begin="arrowUp.mouseover" end="arrowUp.mouseout"/>
                  </use>
                  <path fill="none" stroke="white" stroke-width="1.5" d="M0,-3.0v7 M-2.5,-0.5L0,-3.0L2.5,-0.5"/>
                </g>
                <g id="arrowRight" xlink:href="#dirArrow" transform="rotate(90) translate(36 -43)" onmousedown="handlePan(1,0)">
                  <use xlink:href="#rim" fill="#404040">
                        <set attributeName="fill" to="#808080" begin="arrowRight.mouseover" end="arrowRight.mouseout"/>
                  </use>
                  <path fill="none" stroke="white" stroke-width="1.5" d="M0,-3.0v7 M-2.5,-0.5L0,-3.0L2.5,-0.5"/>
                </g>
                <g id="arrowDown" xlink:href="#dirArrow" transform="rotate(180) translate(-30 -48)" onmousedown="handlePan(0,1)">
                  <use xlink:href="#rim" fill="#404040">
                        <set attributeName="fill" to="#808080" begin="arrowDown.mouseover" end="arrowDown.mouseout"/>
                  </use>
                  <path fill="none" stroke="white" stroke-width="1.5" d="M0,-3.0v7 M-2.5,-0.5L0,-3.0L2.5,-0.5"/>
                </g>
                <g id="arrowLeft" xlink:href="#dirArrow" transform="rotate(270) translate(-36 17)" onmousedown="handlePan(-1,0)">
                  <use xlink:href="#rim" fill="#404040">
                        <set attributeName="fill" to="#808080" begin="arrowLeft.mouseover" end="arrowLeft.mouseout"/>
                  </use>
                  <path fill="none" stroke="white" stroke-width="1.5" d="M0,-3.0v7 M-2.5,-0.5L0,-3.0L2.5,-0.5"/>
                </g>
        </g>
        <svg viewBox="0 0 15 15" width="100%" height="30px" preserveAspectRatio="xMaxYMin meet">
         <g id="arrow_out" transform="scale(0.3 0.3)">
          <a xlink:href="IParser_8h__incl_org.svg" target="_base">
           <rect id="button" ry="5" rx="5" y="6" x="6" height="38" width="38"
                fill="#f2f5e9" fill-opacity="0.5" stroke="#606060" stroke-width="1.0"/>
           <path id="arrow"
             d="M 11.500037,31.436501 C 11.940474,20.09759 22.043105,11.32322 32.158766,21.979434 L 37.068811,17.246167 C 37.068811,17.246167 37.088388,32 37.088388,32 L 22.160133,31.978069 C 22.160133,31.978069 26.997745,27.140456 26.997745,27.140456 C 18.528582,18.264221 13.291696,25.230495 11.500037,31.436501 z"
             style="fill:#404040;"/>
          </a>
         </g>
        </svg>
</svg>
