<?xml version="1.0" encoding="UTF-8" standalone="no"?>
<!DOCTYPE svg PUBLIC "-//W3C//DTD SVG 1.1//EN"
 "http://www.w3.org/Graphics/SVG/1.1/DTD/svg11.dtd">
<!-- Generated by graphviz version 2.36.0 (20140111.2315)
 -->
<!-- Title: /home/travis/build/mgerhardy/simpleai/src/ai/common/IParser.h Pages: 1 -->
<svg width="976pt" height="330pt"
 viewBox="0.00 0.00 975.50 330.00" xmlns="http://www.w3.org/2000/svg" xmlns:xlink="http://www.w3.org/1999/xlink">
<g id="graph0" class="graph" transform="scale(1 1) rotate(0) translate(4 326)">
<title>/home/travis/build/mgerhardy/simpleai/src/ai/common/IParser.h</title>
<polygon fill="white" stroke="none" points="-4,4 -4,-326 971.5,-326 971.5,4 -4,4"/>
<!-- Node1 -->
<g id="node1" class="node"><title>Node1</title>
<polygon fill="#bfbfbf" stroke="black" points="680.5,-280.5 680.5,-321.5 807.5,-321.5 807.5,-280.5 680.5,-280.5"/>
<text text-anchor="start" x="688.5" y="-309.5" font-family="Helvetica,sans-Serif" font-size="10.00">/home/travis/build</text>
<text text-anchor="start" x="688.5" y="-298.5" font-family="Helvetica,sans-Serif" font-size="10.00">/mgerhardy/simpleai</text>
<text text-anchor="middle" x="744" y="-287.5" font-family="Helvetica,sans-Serif" font-size="10.00">/src/ai/common/IParser.h</text>
</g>
<!-- Node2 -->
<g id="node2" class="node"><title>Node2</title>
<g id="a_node2"><a xlink:href="Log_8h.html" target="_top" xlink:title="Log.h">
<polygon fill="white" stroke="black" points="69.5,-56.5 69.5,-75.5 110.5,-75.5 110.5,-56.5 69.5,-56.5"/>
<text text-anchor="middle" x="90" y="-63.5" font-family="Helvetica,sans-Serif" font-size="10.00">Log.h</text>
</a>
</g>
</g>
<!-- Node1&#45;&gt;Node2 -->
<g id="edge1" class="edge"><title>Node1&#45;&gt;Node2</title>
<path fill="none" stroke="midnightblue" d="M680.121,-296.53C562.091,-287.263 306.282,-253.56 135,-132 118.085,-119.995 105.459,-99.5121 97.9524,-84.7442"/>
<polygon fill="midnightblue" stroke="midnightblue" points="101.055,-83.1199 93.584,-75.6079 94.7401,-86.1395 101.055,-83.1199"/>
</g>
<!-- Node6 -->
<g id="node6" class="node"><title>Node6</title>
<polygon fill="white" stroke="#bfbfbf" points="522,-168.5 522,-187.5 566,-187.5 566,-168.5 522,-168.5"/>
<text text-anchor="middle" x="544" y="-175.5" font-family="Helvetica,sans-Serif" font-size="10.00">vector</text>
</g>
<!-- Node1&#45;&gt;Node6 -->
<g id="edge5" class="edge"><title>Node1&#45;&gt;Node6</title>
<path fill="none" stroke="midnightblue" d="M711.421,-280.29C670.778,-255.701 602.322,-214.285 566.849,-192.824"/>
<polygon fill="midnightblue" stroke="midnightblue" points="568.541,-189.757 558.173,-187.575 564.917,-195.746 568.541,-189.757"/>
</g>
<!-- Node7 -->
<g id="node7" class="node"><title>Node7</title>
<polygon fill="white" stroke="#bfbfbf" points="919.5,-56.5 919.5,-75.5 960.5,-75.5 960.5,-56.5 919.5,-56.5"/>
<text text-anchor="middle" x="940" y="-63.5" font-family="Helvetica,sans-Serif" font-size="10.00">string</text>
</g>
<!-- Node1&#45;&gt;Node7 -->
<g id="edge6" class="edge"><title>Node1&#45;&gt;Node7</title>
<path fill="none" stroke="midnightblue" d="M807.604,-285.921C858.271,-270.977 925.853,-241.821 958,-188 977.431,-155.469 961.034,-109.509 949.311,-84.6398"/>
<polygon fill="midnightblue" stroke="midnightblue" points="952.427,-83.045 944.838,-75.652 946.16,-86.164 952.427,-83.045"/>
</g>
<!-- Node8 -->
<g id="node8" class="node"><title>Node8</title>
<polygon fill="white" stroke="#bfbfbf" points="894,-168.5 894,-187.5 950,-187.5 950,-168.5 894,-168.5"/>
<text text-anchor="middle" x="922" y="-175.5" font-family="Helvetica,sans-Serif" font-size="10.00">algorithm</text>
</g>
<!-- Node1&#45;&gt;Node8 -->
<g id="edge7" class="edge"><title>Node1&#45;&gt;Node8</title>
<path fill="none" stroke="midnightblue" d="M772.995,-280.29C808.86,-255.91 869.058,-214.988 900.852,-193.376"/>
<polygon fill="midnightblue" stroke="midnightblue" points="903.083,-196.091 909.386,-187.575 899.148,-190.302 903.083,-196.091"/>
</g>
<!-- Node9 -->
<g id="node9" class="node"><title>Node9</title>
<g id="a_node9"><a xlink:href="String_8h.html" target="_top" xlink:title="String.h">
<polygon fill="white" stroke="black" points="719,-224.5 719,-243.5 769,-243.5 769,-224.5 719,-224.5"/>
<text text-anchor="middle" x="744" y="-231.5" font-family="Helvetica,sans-Serif" font-size="10.00">String.h</text>
</a>
</g>
</g>
<!-- Node1&#45;&gt;Node9 -->
<g id="edge8" class="edge"><title>Node1&#45;&gt;Node9</title>
<path fill="none" stroke="midnightblue" d="M744,-280.498C744,-272.065 744,-262.235 744,-253.874"/>
<polygon fill="midnightblue" stroke="midnightblue" points="747.5,-253.652 744,-243.652 740.5,-253.653 747.5,-253.652"/>
</g>
<!-- Node3 -->
<g id="node3" class="node"><title>Node3</title>
<polygon fill="white" stroke="#bfbfbf" points="0,-0.5 0,-19.5 46,-19.5 46,-0.5 0,-0.5"/>
<text text-anchor="middle" x="23" y="-7.5" font-family="Helvetica,sans-Serif" font-size="10.00">stdio.h</text>
</g>
<!-- Node2&#45;&gt;Node3 -->
<g id="edge2" class="edge"><title>Node2&#45;&gt;Node3</title>
<path fill="none" stroke="midnightblue" d="M79.2353,-56.324C69.2339,-48.2631 54.1135,-36.0765 42.0695,-26.3695"/>
<polygon fill="midnightblue" stroke="midnightblue" points="43.9429,-23.3841 33.9606,-19.8339 39.5502,-28.8343 43.9429,-23.3841"/>
</g>
<!-- Node4 -->
<g id="node4" class="node"><title>Node4</title>
<polygon fill="white" stroke="#bfbfbf" points="64,-0.5 64,-19.5 116,-19.5 116,-0.5 64,-0.5"/>
<text text-anchor="middle" x="90" y="-7.5" font-family="Helvetica,sans-Serif" font-size="10.00">stdarg.h</text>
</g>
<!-- Node2&#45;&gt;Node4 -->
<g id="edge3" class="edge"><title>Node2&#45;&gt;Node4</title>
<path fill="none" stroke="midnightblue" d="M90,-56.083C90,-49.0059 90,-38.8611 90,-29.9865"/>
<polygon fill="midnightblue" stroke="midnightblue" points="93.5001,-29.751 90,-19.7511 86.5001,-29.7511 93.5001,-29.751"/>
</g>
<!-- Node5 -->
<g id="node5" class="node"><title>Node5</title>
<polygon fill="white" stroke="#bfbfbf" points="134.5,-0.5 134.5,-19.5 183.5,-19.5 183.5,-0.5 134.5,-0.5"/>
<text text-anchor="middle" x="159" y="-7.5" font-family="Helvetica,sans-Serif" font-size="10.00">string.h</text>
</g>
<!-- Node2&#45;&gt;Node5 -->
<g id="edge4" class="edge"><title>Node2&#45;&gt;Node5</title>
<path fill="none" stroke="midnightblue" d="M101.086,-56.324C111.486,-48.1849 127.261,-35.8395 139.722,-26.0874"/>
<polygon fill="midnightblue" stroke="midnightblue" points="141.994,-28.7533 147.712,-19.8339 137.68,-23.2407 141.994,-28.7533"/>
</g>
<!-- Node9&#45;&gt;Node6 -->
<g id="edge23" class="edge"><title>Node9&#45;&gt;Node6</title>
<path fill="none" stroke="midnightblue" d="M718.926,-226.388C686.069,-217.7 626.664,-201.91 576,-188 575.899,-187.972 575.798,-187.945 575.697,-187.917"/>
<polygon fill="midnightblue" stroke="midnightblue" points="576.596,-184.534 566.024,-185.233 574.724,-191.279 576.596,-184.534"/>
</g>
<!-- Node9&#45;&gt;Node7 -->
<g id="edge24" class="edge"><title>Node9&#45;&gt;Node7</title>
<path fill="none" stroke="midnightblue" d="M769.182,-225.442C807.671,-212.592 880.879,-182.816 921,-132 931.578,-118.603 936.268,-99.4946 938.348,-85.4626"/>
<polygon fill="midnightblue" stroke="midnightblue" points="941.827,-85.8436 939.518,-75.5035 934.875,-85.0268 941.827,-85.8436"/>
</g>
<!-- Node9&#45;&gt;Node8 -->
<g id="edge26" class="edge"><title>Node9&#45;&gt;Node8</title>
<path fill="none" stroke="midnightblue" d="M769.126,-225.378C799.043,-216.302 849.312,-201.052 883.992,-190.531"/>
<polygon fill="midnightblue" stroke="midnightblue" points="885.218,-193.816 893.772,-187.564 883.186,-187.118 885.218,-193.816"/>
</g>
<!-- Node10 -->
<g id="node10" class="node"><title>Node10</title>
<g id="a_node10"><a xlink:href="Math_8h.html" target="_top" xlink:title="Math.h">
<polygon fill="white" stroke="black" points="584.5,-168.5 584.5,-187.5 631.5,-187.5 631.5,-168.5 584.5,-168.5"/>
<text text-anchor="middle" x="608" y="-175.5" font-family="Helvetica,sans-Serif" font-size="10.00">Math.h</text>
</a>
</g>
</g>
<!-- Node9&#45;&gt;Node10 -->
<g id="edge9" class="edge"><title>Node9&#45;&gt;Node10</title>
<path fill="none" stroke="midnightblue" d="M722.45,-224.444C699.969,-215.517 664.512,-201.439 639.02,-191.317"/>
<polygon fill="midnightblue" stroke="midnightblue" points="640.035,-187.954 629.449,-187.516 637.451,-194.46 640.035,-187.954"/>
</g>
<!-- Node22 -->
<g id="node22" class="node"><title>Node22</title>
<polygon fill="white" stroke="#bfbfbf" points="718,-168.5 718,-187.5 770,-187.5 770,-168.5 718,-168.5"/>
<text text-anchor="middle" x="744" y="-175.5" font-family="Helvetica,sans-Serif" font-size="10.00">sstream</text>
</g>
<!-- Node9&#45;&gt;Node22 -->
<g id="edge25" class="edge"><title>Node9&#45;&gt;Node22</title>
<path fill="none" stroke="midnightblue" d="M744,-224.083C744,-217.006 744,-206.861 744,-197.986"/>
<polygon fill="midnightblue" stroke="midnightblue" points="747.5,-197.751 744,-187.751 740.5,-197.751 747.5,-197.751"/>
</g>
<!-- Node11 -->
<g id="node11" class="node"><title>Node11</title>
<g id="a_node11"><a xlink:href="Types_8h.html" target="_top" xlink:title="Types.h">
<polygon fill="white" stroke="black" points="144,-112.5 144,-131.5 196,-131.5 196,-112.5 144,-112.5"/>
<text text-anchor="middle" x="170" y="-119.5" font-family="Helvetica,sans-Serif" font-size="10.00">Types.h</text>
</a>
</g>
</g>
<!-- Node10&#45;&gt;Node11 -->
<g id="edge10" class="edge"><title>Node10&#45;&gt;Node11</title>
<path fill="none" stroke="midnightblue" d="M584.331,-170.212C580.885,-169.377 577.365,-168.605 574,-168 414.993,-139.392 369.062,-159.772 206.155,-131.943"/>
<polygon fill="midnightblue" stroke="midnightblue" points="206.731,-128.49 196.278,-130.221 205.529,-135.386 206.731,-128.49"/>
</g>
<!-- Node15 -->
<g id="node15" class="node"><title>Node15</title>
<polygon fill="white" stroke="#bfbfbf" points="338,-112.5 338,-131.5 408,-131.5 408,-112.5 338,-112.5"/>
<text text-anchor="middle" x="373" y="-119.5" font-family="Helvetica,sans-Serif" font-size="10.00">glm/glm.hpp</text>
</g>
<!-- Node10&#45;&gt;Node15 -->
<g id="edge16" class="edge"><title>Node10&#45;&gt;Node15</title>
<path fill="none" stroke="midnightblue" d="M584.251,-170.589C580.817,-169.698 577.322,-168.811 574,-168 520.679,-154.979 459.039,-141.395 418.226,-132.604"/>
<polygon fill="midnightblue" stroke="midnightblue" points="418.828,-129.154 408.316,-130.476 417.358,-135.998 418.828,-129.154"/>
</g>
<!-- Node16 -->
<g id="node16" class="node"><title>Node16</title>
<polygon fill="white" stroke="#bfbfbf" points="426.5,-112.5 426.5,-131.5 539.5,-131.5 539.5,-112.5 426.5,-112.5"/>
<text text-anchor="middle" x="483" y="-119.5" font-family="Helvetica,sans-Serif" font-size="10.00">glm/gtc/constants.hpp</text>
</g>
<!-- Node10&#45;&gt;Node16 -->
<g id="edge17" class="edge"><title>Node10&#45;&gt;Node16</title>
<path fill="none" stroke="midnightblue" d="M588.193,-168.444C567.713,-159.596 535.517,-145.687 512.135,-135.586"/>
<polygon fill="midnightblue" stroke="midnightblue" points="513.282,-132.269 502.714,-131.516 510.506,-138.695 513.282,-132.269"/>
</g>
<!-- Node17 -->
<g id="node17" class="node"><title>Node17</title>
<polygon fill="white" stroke="#bfbfbf" points="557.5,-112.5 557.5,-131.5 658.5,-131.5 658.5,-112.5 557.5,-112.5"/>
<text text-anchor="middle" x="608" y="-119.5" font-family="Helvetica,sans-Serif" font-size="10.00">glm/gtc/epsilon.hpp</text>
</g>
<!-- Node10&#45;&gt;Node17 -->
<g id="edge18" class="edge"><title>Node10&#45;&gt;Node17</title>
<path fill="none" stroke="midnightblue" d="M608,-168.083C608,-161.006 608,-150.861 608,-141.986"/>
<polygon fill="midnightblue" stroke="midnightblue" points="611.5,-141.751 608,-131.751 604.5,-141.751 611.5,-141.751"/>
</g>
<!-- Node18 -->
<g id="node18" class="node"><title>Node18</title>
<polygon fill="white" stroke="#bfbfbf" points="676.5,-112.5 676.5,-131.5 801.5,-131.5 801.5,-112.5 676.5,-112.5"/>
<text text-anchor="middle" x="739" y="-119.5" font-family="Helvetica,sans-Serif" font-size="10.00">glm/gtx/compatibility.hpp</text>
</g>
<!-- Node10&#45;&gt;Node18 -->
<g id="edge19" class="edge"><title>Node10&#45;&gt;Node18</title>
<path fill="none" stroke="midnightblue" d="M628.757,-168.444C650.316,-159.557 684.263,-145.563 708.794,-135.451"/>
<polygon fill="midnightblue" stroke="midnightblue" points="710.428,-138.563 718.34,-131.516 707.761,-132.092 710.428,-138.563"/>
</g>
<!-- Node19 -->
<g id="node19" class="node"><title>Node19</title>
<polygon fill="white" stroke="#bfbfbf" points="820,-112.5 820,-131.5 912,-131.5 912,-112.5 820,-112.5"/>
<text text-anchor="middle" x="866" y="-119.5" font-family="Helvetica,sans-Serif" font-size="10.00">glm/gtx/norm.hpp</text>
</g>
<!-- Node10&#45;&gt;Node19 -->
<g id="edge20" class="edge"><title>Node10&#45;&gt;Node19</title>
<path fill="none" stroke="midnightblue" d="M631.81,-172.017C673.265,-163.34 759.565,-145.277 815.032,-133.668"/>
<polygon fill="midnightblue" stroke="midnightblue" points="815.941,-137.053 825.012,-131.579 814.507,-130.202 815.941,-137.053"/>
</g>
<!-- Node20 -->
<g id="node20" class="node"><title>Node20</title>
<polygon fill="white" stroke="#bfbfbf" points="214,-112.5 214,-131.5 254,-131.5 254,-112.5 214,-112.5"/>
<text text-anchor="middle" x="234" y="-119.5" font-family="Helvetica,sans-Serif" font-size="10.00">limits</text>
</g>
<!-- Node10&#45;&gt;Node20 -->
<g id="edge21" class="edge"><title>Node10&#45;&gt;Node20</title>
<path fill="none" stroke="midnightblue" d="M584.321,-170.268C580.877,-169.424 577.36,-168.636 574,-168 440.485,-142.737 400.986,-159.897 264.176,-131.877"/>
<polygon fill="midnightblue" stroke="midnightblue" points="264.66,-128.402 254.155,-129.78 263.226,-135.254 264.66,-128.402"/>
</g>
<!-- Node21 -->
<g id="node21" class="node"><title>Node21</title>
<polygon fill="white" stroke="#bfbfbf" points="272.5,-112.5 272.5,-131.5 319.5,-131.5 319.5,-112.5 272.5,-112.5"/>
<text text-anchor="middle" x="296" y="-119.5" font-family="Helvetica,sans-Serif" font-size="10.00">math.h</text>
</g>
<!-- Node10&#45;&gt;Node21 -->
<g id="edge22" class="edge"><title>Node10&#45;&gt;Node21</title>
<path fill="none" stroke="midnightblue" d="M584.302,-170.362C580.861,-169.504 577.35,-168.687 574,-168 469.346,-146.531 438.523,-154.04 329.774,-131.919"/>
<polygon fill="midnightblue" stroke="midnightblue" points="330.212,-128.435 319.71,-129.833 328.792,-135.29 330.212,-128.435"/>
</g>
<!-- Node11&#45;&gt;Node2 -->
<g id="edge11" class="edge"><title>Node11&#45;&gt;Node2</title>
<path fill="none" stroke="midnightblue" d="M157.147,-112.324C144.784,-103.979 125.87,-91.2122 111.263,-81.3524"/>
<polygon fill="midnightblue" stroke="midnightblue" points="113.068,-78.3483 102.821,-75.6545 109.152,-84.1503 113.068,-78.3483"/>
</g>
<!-- Node11&#45;&gt;Node7 -->
<g id="edge12" class="edge"><title>Node11&#45;&gt;Node7</title>
<path fill="none" stroke="midnightblue" d="M196.261,-113.675C199.193,-113.028 202.149,-112.45 205,-112 475.491,-69.3416 807.892,-66.5648 909.241,-66.7954"/>
<polygon fill="midnightblue" stroke="midnightblue" points="909.372,-70.2958 919.385,-66.8308 909.397,-63.2958 909.372,-70.2958"/>
</g>
<!-- Node12 -->
<g id="node12" class="node"><title>Node12</title>
<polygon fill="white" stroke="#bfbfbf" points="128.5,-56.5 128.5,-75.5 211.5,-75.5 211.5,-56.5 128.5,-56.5"/>
<text text-anchor="middle" x="170" y="-63.5" font-family="Helvetica,sans-Serif" font-size="10.00">unordered_map</text>
</g>
<!-- Node11&#45;&gt;Node12 -->
<g id="edge13" class="edge"><title>Node11&#45;&gt;Node12</title>
<path fill="none" stroke="midnightblue" d="M170,-112.083C170,-105.006 170,-94.8611 170,-85.9865"/>
<polygon fill="midnightblue" stroke="midnightblue" points="173.5,-85.751 170,-75.7511 166.5,-85.7511 173.5,-85.751"/>
</g>
<!-- Node13 -->
<g id="node13" class="node"><title>Node13</title>
<polygon fill="white" stroke="#bfbfbf" points="229.5,-56.5 229.5,-75.5 278.5,-75.5 278.5,-56.5 229.5,-56.5"/>
<text text-anchor="middle" x="254" y="-63.5" font-family="Helvetica,sans-Serif" font-size="10.00">cassert</text>
</g>
<!-- Node11&#45;&gt;Node13 -->
<g id="edge14" class="edge"><title>Node11&#45;&gt;Node13</title>
<path fill="none" stroke="midnightblue" d="M183.496,-112.324C196.6,-103.9 216.712,-90.9709 232.107,-81.0741"/>
<polygon fill="midnightblue" stroke="midnightblue" points="234.018,-84.0063 240.537,-75.6545 230.233,-78.118 234.018,-84.0063"/>
</g>
<!-- Node14 -->
<g id="node14" class="node"><title>Node14</title>
<polygon fill="white" stroke="#bfbfbf" points="296.5,-56.5 296.5,-75.5 339.5,-75.5 339.5,-56.5 296.5,-56.5"/>
<text text-anchor="middle" x="318" y="-63.5" font-family="Helvetica,sans-Serif" font-size="10.00">cstdio</text>
</g>
<!-- Node11&#45;&gt;Node14 -->
<g id="edge15" class="edge"><title>Node11&#45;&gt;Node14</title>
<path fill="none" stroke="midnightblue" d="M193.451,-112.444C218.568,-103.279 258.568,-88.6846 286.437,-78.5161"/>
<polygon fill="midnightblue" stroke="midnightblue" points="287.912,-81.704 296.106,-74.9883 285.512,-75.128 287.912,-81.704"/>
</g>
</g>
</svg>
