<?xml version="1.0" encoding="UTF-8" standalone="no"?>
<!DOCTYPE svg PUBLIC "-//W3C//DTD SVG 1.1//EN"
 "http://www.w3.org/Graphics/SVG/1.1/DTD/svg11.dtd">
<!-- Generated by graphviz version 2.36.0 (20140111.2315)
 -->
<!-- Title: /home/travis/build/mgerhardy/simpleai/src/ai/server/IProtocolMessage.h Pages: 1 -->
<svg width="313pt" height="106pt"
 viewBox="0.00 0.00 313.00 106.00" xmlns="http://www.w3.org/2000/svg" xmlns:xlink="http://www.w3.org/1999/xlink">
<g id="graph0" class="graph" transform="scale(1 1) rotate(0) translate(4 102)">
<title>/home/travis/build/mgerhardy/simpleai/src/ai/server/IProtocolMessage.h</title>
<polygon fill="white" stroke="none" points="-4,4 -4,-102 309,-102 309,4 -4,4"/>
<!-- Node1 -->
<g id="node1" class="node"><title>Node1</title>
<polygon fill="#bfbfbf" stroke="black" points="79,-56.5 79,-97.5 243,-97.5 243,-56.5 79,-56.5"/>
<text text-anchor="start" x="87" y="-85.5" font-family="Helvetica,sans-Serif" font-size="10.00">/home/travis/build</text>
<text text-anchor="start" x="87" y="-74.5" font-family="Helvetica,sans-Serif" font-size="10.00">/mgerhardy/simpleai</text>
<text text-anchor="middle" x="161" y="-63.5" font-family="Helvetica,sans-Serif" font-size="10.00">/src/ai/server/IProtocolMessage.h</text>
</g>
<!-- Node2 -->
<g id="node2" class="node"><title>Node2</title>
<polygon fill="white" stroke="#bfbfbf" points="-0.5,-0.5 -0.5,-19.5 48.5,-19.5 48.5,-0.5 -0.5,-0.5"/>
<text text-anchor="middle" x="24" y="-7.5" font-family="Helvetica,sans-Serif" font-size="10.00">stdint.h</text>
</g>
<!-- Node1&#45;&gt;Node2 -->
<g id="edge1" class="edge"><title>Node1&#45;&gt;Node2</title>
<path fill="none" stroke="midnightblue" d="M119.895,-56.4979C97.78,-46.0051 71.1032,-33.3482 51.5068,-24.0507"/>
<polygon fill="midnightblue" stroke="midnightblue" points="52.7718,-20.7769 42.2368,-19.6525 49.7712,-27.1012 52.7718,-20.7769"/>
</g>
<!-- Node3 -->
<g id="node3" class="node"><title>Node3</title>
<polygon fill="white" stroke="#bfbfbf" points="67,-0.5 67,-19.5 119,-19.5 119,-0.5 67,-0.5"/>
<text text-anchor="middle" x="93" y="-7.5" font-family="Helvetica,sans-Serif" font-size="10.00">stddef.h</text>
</g>
<!-- Node1&#45;&gt;Node3 -->
<g id="edge2" class="edge"><title>Node1&#45;&gt;Node3</title>
<path fill="none" stroke="midnightblue" d="M140.598,-56.4979C130.673,-47.0113 118.898,-35.7557 109.543,-26.8131"/>
<polygon fill="midnightblue" stroke="midnightblue" points="111.699,-24.0323 102.052,-19.6525 106.862,-29.0924 111.699,-24.0323"/>
</g>
<!-- Node4 -->
<g id="node4" class="node"><title>Node4</title>
<polygon fill="white" stroke="#bfbfbf" points="137,-0.5 137,-19.5 185,-19.5 185,-0.5 137,-0.5"/>
<text text-anchor="middle" x="161" y="-7.5" font-family="Helvetica,sans-Serif" font-size="10.00">limits.h</text>
</g>
<!-- Node1&#45;&gt;Node4 -->
<g id="edge3" class="edge"><title>Node1&#45;&gt;Node4</title>
<path fill="none" stroke="midnightblue" d="M161,-56.4979C161,-48.0653 161,-38.2351 161,-29.874"/>
<polygon fill="midnightblue" stroke="midnightblue" points="164.5,-29.6525 161,-19.6525 157.5,-29.6525 164.5,-29.6525"/>
</g>
<!-- Node5 -->
<g id="node5" class="node"><title>Node5</title>
<polygon fill="white" stroke="#bfbfbf" points="203.5,-0.5 203.5,-19.5 244.5,-19.5 244.5,-0.5 203.5,-0.5"/>
<text text-anchor="middle" x="224" y="-7.5" font-family="Helvetica,sans-Serif" font-size="10.00">string</text>
</g>
<!-- Node1&#45;&gt;Node5 -->
<g id="edge4" class="edge"><title>Node1&#45;&gt;Node5</title>
<path fill="none" stroke="midnightblue" d="M179.902,-56.4979C189.004,-47.1071 199.786,-35.9829 208.41,-27.0848"/>
<polygon fill="midnightblue" stroke="midnightblue" points="211.167,-29.2691 215.614,-19.6525 206.141,-24.3973 211.167,-29.2691"/>
</g>
<!-- Node6 -->
<g id="node6" class="node"><title>Node6</title>
<polygon fill="white" stroke="#bfbfbf" points="262.5,-0.5 262.5,-19.5 305.5,-19.5 305.5,-0.5 262.5,-0.5"/>
<text text-anchor="middle" x="284" y="-7.5" font-family="Helvetica,sans-Serif" font-size="10.00">deque</text>
</g>
<!-- Node1&#45;&gt;Node6 -->
<g id="edge5" class="edge"><title>Node1&#45;&gt;Node6</title>
<path fill="none" stroke="midnightblue" d="M197.904,-56.4979C217.488,-46.1488 241.055,-33.6946 258.578,-24.4346"/>
<polygon fill="midnightblue" stroke="midnightblue" points="260.421,-27.4193 267.627,-19.6525 257.15,-21.2303 260.421,-27.4193"/>
</g>
</g>
</svg>
