<?xml version="1.0" encoding="UTF-8" standalone="no"?>
<!DOCTYPE svg PUBLIC "-//W3C//DTD SVG 1.1//EN"
 "http://www.w3.org/Graphics/SVG/1.1/DTD/svg11.dtd">
<!-- Generated by graphviz version 2.36.0 (20140111.2315)
 -->
<!-- Title: /home/travis/build/mgerhardy/simpleai/src/ai/server/IProtocolHandler.h Pages: 1 -->
<svg width="1465pt" height="452pt"
 viewBox="0.00 0.00 1465.14 452.00" xmlns="http://www.w3.org/2000/svg" xmlns:xlink="http://www.w3.org/1999/xlink">
<g id="graph0" class="graph" transform="scale(1 1) rotate(0) translate(4 448)">
<title>/home/travis/build/mgerhardy/simpleai/src/ai/server/IProtocolHandler.h</title>
<polygon fill="white" stroke="none" points="-4,4 -4,-448 1461.14,-448 1461.14,4 -4,4"/>
<!-- Node1 -->
<g id="node1" class="node"><title>Node1</title>
<polygon fill="#bfbfbf" stroke="black" points="628,-402.5 628,-443.5 786,-443.5 786,-402.5 628,-402.5"/>
<text text-anchor="start" x="636" y="-431.5" font-family="Helvetica,sans-Serif" font-size="10.00">/home/travis/build</text>
<text text-anchor="start" x="636" y="-420.5" font-family="Helvetica,sans-Serif" font-size="10.00">/mgerhardy/simpleai</text>
<text text-anchor="middle" x="707" y="-409.5" font-family="Helvetica,sans-Serif" font-size="10.00">/src/ai/server/IProtocolHandler.h</text>
</g>
<!-- Node2 -->
<g id="node2" class="node"><title>Node2</title>
<g id="a_node2"><a xlink:href="AddNodeHandler_8h.html" target="_top" xlink:title="/home/travis/build\l/mgerhardy/simpleai\l/src/ai/server/AddNodeHandler.h">
<polygon fill="white" stroke="black" points="132.5,-234.5 132.5,-275.5 291.5,-275.5 291.5,-234.5 132.5,-234.5"/>
<text text-anchor="start" x="140.5" y="-263.5" font-family="Helvetica,sans-Serif" font-size="10.00">/home/travis/build</text>
<text text-anchor="start" x="140.5" y="-252.5" font-family="Helvetica,sans-Serif" font-size="10.00">/mgerhardy/simpleai</text>
<text text-anchor="middle" x="212" y="-241.5" font-family="Helvetica,sans-Serif" font-size="10.00">/src/ai/server/AddNodeHandler.h</text>
</a>
</g>
</g>
<!-- Node1&#45;&gt;Node2 -->
<g id="edge1" class="edge"><title>Node1&#45;&gt;Node2</title>
<path fill="none" stroke="midnightblue" d="M617.794,-413.399C556.544,-405.592 474.141,-391.292 405,-366 341.978,-342.946 275.465,-300.414 239.322,-275.532"/>
<polygon fill="midnightblue" stroke="midnightblue" points="617.466,-416.885 627.82,-414.643 618.328,-409.938 617.466,-416.885"/>
</g>
<!-- Node4 -->
<g id="node4" class="node"><title>Node4</title>
<g id="a_node4"><a xlink:href="SimpleAI_8h.html" target="_top" xlink:title="/home/travis/build\l/mgerhardy/simpleai\l/src/ai/SimpleAI.h">
<polygon fill="white" stroke="black" points="1198,-0.5 1198,-41.5 1302,-41.5 1302,-0.5 1198,-0.5"/>
<text text-anchor="start" x="1206" y="-29.5" font-family="Helvetica,sans-Serif" font-size="10.00">/home/travis/build</text>
<text text-anchor="start" x="1206" y="-18.5" font-family="Helvetica,sans-Serif" font-size="10.00">/mgerhardy/simpleai</text>
<text text-anchor="middle" x="1250" y="-7.5" font-family="Helvetica,sans-Serif" font-size="10.00">/src/ai/SimpleAI.h</text>
</a>
</g>
</g>
<!-- Node1&#45;&gt;Node4 -->
<g id="edge37" class="edge"><title>Node1&#45;&gt;Node4</title>
<path fill="none" stroke="midnightblue" d="M617.707,-419.644C427.588,-412.199 0,-381.505 0,-256 0,-256 0,-256 0,-176 0,-53.2801 961.308,-27.3662 1197.88,-22.847"/>
<polygon fill="midnightblue" stroke="midnightblue" points="617.831,-423.151 627.956,-420.031 618.096,-416.156 617.831,-423.151"/>
</g>
<!-- Node5 -->
<g id="node5" class="node"><title>Node5</title>
<g id="a_node5"><a xlink:href="ChangeHandler_8h.html" target="_top" xlink:title="/home/travis/build\l/mgerhardy/simpleai\l/src/ai/server/ChangeHandler.h">
<polygon fill="white" stroke="black" points="415,-156.5 415,-197.5 567,-197.5 567,-156.5 415,-156.5"/>
<text text-anchor="start" x="423" y="-185.5" font-family="Helvetica,sans-Serif" font-size="10.00">/home/travis/build</text>
<text text-anchor="start" x="423" y="-174.5" font-family="Helvetica,sans-Serif" font-size="10.00">/mgerhardy/simpleai</text>
<text text-anchor="middle" x="491" y="-163.5" font-family="Helvetica,sans-Serif" font-size="10.00">/src/ai/server/ChangeHandler.h</text>
</a>
</g>
</g>
<!-- Node1&#45;&gt;Node5 -->
<g id="edge4" class="edge"><title>Node1&#45;&gt;Node5</title>
<path fill="none" stroke="midnightblue" d="M682.809,-394.673C638.83,-344.993 546.782,-241.013 508.394,-197.648"/>
<polygon fill="midnightblue" stroke="midnightblue" points="680.44,-397.277 689.689,-402.445 685.681,-392.637 680.44,-397.277"/>
</g>
<!-- Node6 -->
<g id="node6" class="node"><title>Node6</title>
<g id="a_node6"><a xlink:href="Network_8h.html" target="_top" xlink:title="/home/travis/build\l/mgerhardy/simpleai\l/src/ai/server/Network.h">
<polygon fill="white" stroke="black" points="1045,-318.5 1045,-359.5 1167,-359.5 1167,-318.5 1045,-318.5"/>
<text text-anchor="start" x="1053" y="-347.5" font-family="Helvetica,sans-Serif" font-size="10.00">/home/travis/build</text>
<text text-anchor="start" x="1053" y="-336.5" font-family="Helvetica,sans-Serif" font-size="10.00">/mgerhardy/simpleai</text>
<text text-anchor="middle" x="1106" y="-325.5" font-family="Helvetica,sans-Serif" font-size="10.00">/src/ai/server/Network.h</text>
</a>
</g>
</g>
<!-- Node1&#45;&gt;Node6 -->
<g id="edge6" class="edge"><title>Node1&#45;&gt;Node6</title>
<path fill="none" stroke="midnightblue" d="M796.619,-410.507C862.133,-401.141 952.823,-386.164 1031,-366 1038.21,-364.141 1045.71,-361.91 1053.06,-359.546"/>
<polygon fill="midnightblue" stroke="midnightblue" points="795.738,-407.097 786.326,-411.962 796.718,-414.028 795.738,-407.097"/>
</g>
<!-- Node8 -->
<g id="node8" class="node"><title>Node8</title>
<g id="a_node8"><a xlink:href="DeleteNodeHandler_8h.html" target="_top" xlink:title="/home/travis/build\l/mgerhardy/simpleai\l/src/ai/server/DeleteNodeHandler.h">
<polygon fill="white" stroke="black" points="585,-156.5 585,-197.5 755,-197.5 755,-156.5 585,-156.5"/>
<text text-anchor="start" x="593" y="-185.5" font-family="Helvetica,sans-Serif" font-size="10.00">/home/travis/build</text>
<text text-anchor="start" x="593" y="-174.5" font-family="Helvetica,sans-Serif" font-size="10.00">/mgerhardy/simpleai</text>
<text text-anchor="middle" x="670" y="-163.5" font-family="Helvetica,sans-Serif" font-size="10.00">/src/ai/server/DeleteNodeHandler.h</text>
</a>
</g>
</g>
<!-- Node1&#45;&gt;Node8 -->
<g id="edge30" class="edge"><title>Node1&#45;&gt;Node8</title>
<path fill="none" stroke="midnightblue" d="M702.525,-392.488C694.869,-342.004 679.46,-240.387 672.979,-197.648"/>
<polygon fill="midnightblue" stroke="midnightblue" points="699.075,-393.083 704.035,-402.445 705.996,-392.033 699.075,-393.083"/>
</g>
<!-- Node9 -->
<g id="node9" class="node"><title>Node9</title>
<g id="a_node9"><a xlink:href="PauseHandler_8h.html" target="_top" xlink:title="/home/travis/build\l/mgerhardy/simpleai\l/src/ai/server/PauseHandler.h">
<polygon fill="white" stroke="black" points="773,-156.5 773,-197.5 919,-197.5 919,-156.5 773,-156.5"/>
<text text-anchor="start" x="781" y="-185.5" font-family="Helvetica,sans-Serif" font-size="10.00">/home/travis/build</text>
<text text-anchor="start" x="781" y="-174.5" font-family="Helvetica,sans-Serif" font-size="10.00">/mgerhardy/simpleai</text>
<text text-anchor="middle" x="846" y="-163.5" font-family="Helvetica,sans-Serif" font-size="10.00">/src/ai/server/PauseHandler.h</text>
</a>
</g>
</g>
<!-- Node1&#45;&gt;Node9 -->
<g id="edge32" class="edge"><title>Node1&#45;&gt;Node9</title>
<path fill="none" stroke="midnightblue" d="M723.096,-393.744C751.6,-343.709 810.256,-240.745 834.807,-197.648"/>
<polygon fill="midnightblue" stroke="midnightblue" points="720.049,-392.023 718.14,-402.445 726.131,-395.488 720.049,-392.023"/>
</g>
<!-- Node10 -->
<g id="node10" class="node"><title>Node10</title>
<g id="a_node10"><a xlink:href="ResetHandler_8h.html" target="_top" xlink:title="/home/travis/build\l/mgerhardy/simpleai\l/src/ai/server/ResetHandler.h">
<polygon fill="white" stroke="black" points="975.5,-156.5 975.5,-197.5 1120.5,-197.5 1120.5,-156.5 975.5,-156.5"/>
<text text-anchor="start" x="983.5" y="-185.5" font-family="Helvetica,sans-Serif" font-size="10.00">/home/travis/build</text>
<text text-anchor="start" x="983.5" y="-174.5" font-family="Helvetica,sans-Serif" font-size="10.00">/mgerhardy/simpleai</text>
<text text-anchor="middle" x="1048" y="-163.5" font-family="Helvetica,sans-Serif" font-size="10.00">/src/ai/server/ResetHandler.h</text>
</a>
</g>
</g>
<!-- Node1&#45;&gt;Node10 -->
<g id="edge33" class="edge"><title>Node1&#45;&gt;Node10</title>
<path fill="none" stroke="midnightblue" d="M758.877,-397.886C811.997,-371.878 895.542,-327.243 959,-276 988.325,-252.32 1016.6,-218.761 1033.14,-197.698"/>
<polygon fill="midnightblue" stroke="midnightblue" points="757.115,-394.85 749.648,-402.367 760.173,-401.147 757.115,-394.85"/>
</g>
<!-- Node11 -->
<g id="node11" class="node"><title>Node11</title>
<g id="a_node11"><a xlink:href="SelectHandler_8h.html" target="_top" xlink:title="/home/travis/build\l/mgerhardy/simpleai\l/src/ai/server/SelectHandler.h">
<polygon fill="white" stroke="black" points="1177,-156.5 1177,-197.5 1323,-197.5 1323,-156.5 1177,-156.5"/>
<text text-anchor="start" x="1185" y="-185.5" font-family="Helvetica,sans-Serif" font-size="10.00">/home/travis/build</text>
<text text-anchor="start" x="1185" y="-174.5" font-family="Helvetica,sans-Serif" font-size="10.00">/mgerhardy/simpleai</text>
<text text-anchor="middle" x="1250" y="-163.5" font-family="Helvetica,sans-Serif" font-size="10.00">/src/ai/server/SelectHandler.h</text>
</a>
</g>
</g>
<!-- Node1&#45;&gt;Node11 -->
<g id="edge34" class="edge"><title>Node1&#45;&gt;Node11</title>
<path fill="none" stroke="midnightblue" d="M785.257,-399.529C815.266,-390.171 849.589,-378.557 880,-366 1007.7,-313.27 1151.68,-234.057 1215.91,-197.618"/>
<polygon fill="midnightblue" stroke="midnightblue" points="784.199,-396.193 775.676,-402.486 786.263,-402.881 784.199,-396.193"/>
</g>
<!-- Node12 -->
<g id="node12" class="node"><title>Node12</title>
<g id="a_node12"><a xlink:href="StepHandler_8h.html" target="_top" xlink:title="/home/travis/build\l/mgerhardy/simpleai\l/src/ai/server/StepHandler.h">
<polygon fill="white" stroke="black" points="66.5,-156.5 66.5,-197.5 205.5,-197.5 205.5,-156.5 66.5,-156.5"/>
<text text-anchor="start" x="74.5" y="-185.5" font-family="Helvetica,sans-Serif" font-size="10.00">/home/travis/build</text>
<text text-anchor="start" x="74.5" y="-174.5" font-family="Helvetica,sans-Serif" font-size="10.00">/mgerhardy/simpleai</text>
<text text-anchor="middle" x="136" y="-163.5" font-family="Helvetica,sans-Serif" font-size="10.00">/src/ai/server/StepHandler.h</text>
</a>
</g>
</g>
<!-- Node1&#45;&gt;Node12 -->
<g id="edge35" class="edge"><title>Node1&#45;&gt;Node12</title>
<path fill="none" stroke="midnightblue" d="M626.592,-399.423C597.289,-390.26 564.198,-378.804 535,-366 425.292,-317.89 409.362,-282.892 300,-234 268.551,-219.94 232.426,-207.255 202.1,-197.527"/>
<polygon fill="midnightblue" stroke="midnightblue" points="625.786,-402.837 636.374,-402.441 627.85,-396.148 625.786,-402.837"/>
</g>
<!-- Node13 -->
<g id="node13" class="node"><title>Node13</title>
<g id="a_node13"><a xlink:href="UpdateNodeHandler_8h.html" target="_top" xlink:title="/home/travis/build\l/mgerhardy/simpleai\l/src/ai/server/UpdateNodeHandler.h">
<polygon fill="white" stroke="black" points="223.5,-156.5 223.5,-197.5 396.5,-197.5 396.5,-156.5 223.5,-156.5"/>
<text text-anchor="start" x="231.5" y="-185.5" font-family="Helvetica,sans-Serif" font-size="10.00">/home/travis/build</text>
<text text-anchor="start" x="231.5" y="-174.5" font-family="Helvetica,sans-Serif" font-size="10.00">/mgerhardy/simpleai</text>
<text text-anchor="middle" x="310" y="-163.5" font-family="Helvetica,sans-Serif" font-size="10.00">/src/ai/server/UpdateNodeHandler.h</text>
</a>
</g>
</g>
<!-- Node1&#45;&gt;Node13 -->
<g id="edge36" class="edge"><title>Node1&#45;&gt;Node13</title>
<path fill="none" stroke="midnightblue" d="M661.041,-397.294C644.377,-387.932 625.582,-376.895 609,-366 527.284,-312.307 517.097,-283.882 433,-234 409.692,-220.175 382.378,-207.425 359.418,-197.595"/>
<polygon fill="midnightblue" stroke="midnightblue" points="659.612,-400.504 670.051,-402.311 663.017,-394.389 659.612,-400.504"/>
</g>
<!-- Node14 -->
<g id="node14" class="node"><title>Node14</title>
<g id="a_node14"><a xlink:href="NetworkImpl_8h.html" target="_top" xlink:title="/home/travis/build\l/mgerhardy/simpleai\l/src/ai/server/NetworkImpl.h">
<polygon fill="white" stroke="black" points="1289,-234.5 1289,-275.5 1429,-275.5 1429,-234.5 1289,-234.5"/>
<text text-anchor="start" x="1297" y="-263.5" font-family="Helvetica,sans-Serif" font-size="10.00">/home/travis/build</text>
<text text-anchor="start" x="1297" y="-252.5" font-family="Helvetica,sans-Serif" font-size="10.00">/mgerhardy/simpleai</text>
<text text-anchor="middle" x="1359" y="-241.5" font-family="Helvetica,sans-Serif" font-size="10.00">/src/ai/server/NetworkImpl.h</text>
</a>
</g>
</g>
<!-- Node1&#45;&gt;Node14 -->
<g id="edge31" class="edge"><title>Node1&#45;&gt;Node14</title>
<path fill="none" stroke="midnightblue" d="M796.44,-420.033C961.514,-415.55 1300.87,-402.02 1340,-366 1364.81,-343.163 1364.67,-300.553 1362.04,-275.599"/>
<polygon fill="midnightblue" stroke="midnightblue" points="796.208,-416.538 786.305,-420.303 796.395,-423.536 796.208,-416.538"/>
</g>
<!-- Node15 -->
<g id="node15" class="node"><title>Node15</title>
<g id="a_node15"><a xlink:href="ProtocolHandlerRegistry_8h.html" target="_top" xlink:title="/home/travis/build\l/mgerhardy/simpleai\l/src/ai/server/ProtocolHandler\lRegistry.h">
<polygon fill="white" stroke="black" points="1185,-313 1185,-365 1331,-365 1331,-313 1185,-313"/>
<text text-anchor="start" x="1193" y="-353" font-family="Helvetica,sans-Serif" font-size="10.00">/home/travis/build</text>
<text text-anchor="start" x="1193" y="-342" font-family="Helvetica,sans-Serif" font-size="10.00">/mgerhardy/simpleai</text>
<text text-anchor="start" x="1193" y="-331" font-family="Helvetica,sans-Serif" font-size="10.00">/src/ai/server/ProtocolHandler</text>
<text text-anchor="middle" x="1258" y="-320" font-family="Helvetica,sans-Serif" font-size="10.00">Registry.h</text>
</a>
</g>
</g>
<!-- Node1&#45;&gt;Node15 -->
<g id="edge26" class="edge"><title>Node1&#45;&gt;Node15</title>
<path fill="none" stroke="midnightblue" d="M796.31,-416.358C891.287,-409.193 1045.5,-394.216 1176,-366 1178.92,-365.369 1181.88,-364.677 1184.87,-363.939"/>
<polygon fill="midnightblue" stroke="midnightblue" points="795.882,-412.88 786.168,-417.11 796.4,-419.861 795.882,-412.88"/>
</g>
<!-- Node3 -->
<g id="node3" class="node"><title>Node3</title>
<g id="a_node3"><a xlink:href="ServerImpl_8h.html" target="_top" xlink:title="/home/travis/build\l/mgerhardy/simpleai\l/src/ai/server/ServerImpl.h">
<polygon fill="white" stroke="black" points="692,-78.5 692,-119.5 824,-119.5 824,-78.5 692,-78.5"/>
<text text-anchor="start" x="700" y="-107.5" font-family="Helvetica,sans-Serif" font-size="10.00">/home/travis/build</text>
<text text-anchor="start" x="700" y="-96.5" font-family="Helvetica,sans-Serif" font-size="10.00">/mgerhardy/simpleai</text>
<text text-anchor="middle" x="758" y="-85.5" font-family="Helvetica,sans-Serif" font-size="10.00">/src/ai/server/ServerImpl.h</text>
</a>
</g>
</g>
<!-- Node2&#45;&gt;Node3 -->
<g id="edge2" class="edge"><title>Node2&#45;&gt;Node3</title>
<path fill="none" stroke="midnightblue" d="M122.545,-241.434C97.2156,-233.282 72.3785,-219.907 57,-198 46.2751,-182.722 44.3371,-169.715 57,-156 99.5495,-109.916 525.499,-101.733 691.894,-100.298"/>
<polygon fill="midnightblue" stroke="midnightblue" points="121.676,-244.827 132.258,-244.31 123.663,-238.115 121.676,-244.827"/>
</g>
<!-- Node3&#45;&gt;Node4 -->
<g id="edge3" class="edge"><title>Node3&#45;&gt;Node4</title>
<path fill="none" stroke="midnightblue" d="M834.229,-86.2248C935.183,-70.6303 1110.6,-43.5338 1197.75,-30.0711"/>
<polygon fill="midnightblue" stroke="midnightblue" points="833.446,-82.8041 824.098,-87.7898 834.515,-89.722 833.446,-82.8041"/>
</g>
<!-- Node5&#45;&gt;Node3 -->
<g id="edge5" class="edge"><title>Node5&#45;&gt;Node3</title>
<path fill="none" stroke="midnightblue" d="M569.466,-153.665C608.328,-142.603 654.732,-129.395 691.778,-118.85"/>
<polygon fill="midnightblue" stroke="midnightblue" points="568.419,-150.324 559.759,-156.428 570.335,-157.057 568.419,-150.324"/>
</g>
<!-- Node6&#45;&gt;Node4 -->
<g id="edge25" class="edge"><title>Node6&#45;&gt;Node4</title>
<path fill="none" stroke="midnightblue" d="M1148.5,-313.117C1212.53,-275.432 1326.84,-207.267 1332,-198 1362.59,-143.074 1305.09,-74.7676 1271.61,-41.7276"/>
<polygon fill="midnightblue" stroke="midnightblue" points="1146.67,-310.137 1139.82,-318.223 1150.21,-316.171 1146.67,-310.137"/>
</g>
<!-- Node7 -->
<g id="node7" class="node"><title>Node7</title>
<g id="a_node7"><a xlink:href="Server_8h.html" target="_top" xlink:title="/home/travis/build\l/mgerhardy/simpleai\l/src/ai/server/Server.h">
<polygon fill="white" stroke="black" points="837.5,-234.5 837.5,-275.5 950.5,-275.5 950.5,-234.5 837.5,-234.5"/>
<text text-anchor="start" x="845.5" y="-263.5" font-family="Helvetica,sans-Serif" font-size="10.00">/home/travis/build</text>
<text text-anchor="start" x="845.5" y="-252.5" font-family="Helvetica,sans-Serif" font-size="10.00">/mgerhardy/simpleai</text>
<text text-anchor="middle" x="894" y="-241.5" font-family="Helvetica,sans-Serif" font-size="10.00">/src/ai/server/Server.h</text>
</a>
</g>
</g>
<!-- Node6&#45;&gt;Node7 -->
<g id="edge7" class="edge"><title>Node6&#45;&gt;Node7</title>
<path fill="none" stroke="midnightblue" d="M1045.8,-314.714C1013.79,-302.336 974.897,-287.29 944.49,-275.529"/>
<polygon fill="midnightblue" stroke="midnightblue" points="1044.9,-318.12 1055.49,-318.463 1047.43,-311.591 1044.9,-318.12"/>
</g>
<!-- Node6&#45;&gt;Node14 -->
<g id="edge23" class="edge"><title>Node6&#45;&gt;Node14</title>
<path fill="none" stroke="midnightblue" d="M1167.11,-315.065C1170.11,-314.013 1173.09,-312.986 1176,-312 1214.08,-299.114 1257.05,-285.898 1291.77,-275.544"/>
<polygon fill="midnightblue" stroke="midnightblue" points="1165.73,-311.839 1157.49,-318.487 1168.08,-318.434 1165.73,-311.839"/>
</g>
<!-- Node7&#45;&gt;Node3 -->
<g id="edge17" class="edge"><title>Node7&#45;&gt;Node3</title>
<path fill="none" stroke="midnightblue" d="M916.703,-225.987C930.63,-205.195 943.147,-176.938 928,-156 904.413,-123.397 861.188,-109.449 824.228,-103.625"/>
<polygon fill="midnightblue" stroke="midnightblue" points="913.665,-224.22 910.725,-234.398 919.371,-228.275 913.665,-224.22"/>
</g>
<!-- Node7&#45;&gt;Node4 -->
<g id="edge22" class="edge"><title>Node7&#45;&gt;Node4</title>
<path fill="none" stroke="midnightblue" d="M960.876,-240.624C1025.31,-227.326 1115.05,-207.571 1129,-198 1159.27,-177.235 1215.1,-83.3068 1238.84,-41.8113"/>
<polygon fill="midnightblue" stroke="midnightblue" points="959.858,-237.26 950.767,-242.7 961.267,-244.117 959.858,-237.26"/>
</g>
<!-- Node7&#45;&gt;Node5 -->
<g id="edge8" class="edge"><title>Node7&#45;&gt;Node5</title>
<path fill="none" stroke="midnightblue" d="M827.199,-243.369C762.706,-232.839 662.392,-215.756 576,-198 573.179,-197.42 570.308,-196.816 567.41,-196.195"/>
<polygon fill="midnightblue" stroke="midnightblue" points="826.802,-246.85 837.234,-245.002 827.926,-239.941 826.802,-246.85"/>
</g>
<!-- Node7&#45;&gt;Node8 -->
<g id="edge9" class="edge"><title>Node7&#45;&gt;Node8</title>
<path fill="none" stroke="midnightblue" d="M827.814,-231.544C796.022,-220.758 758.279,-207.952 727.676,-197.569"/>
<polygon fill="midnightblue" stroke="midnightblue" points="826.881,-234.923 837.475,-234.822 829.13,-228.295 826.881,-234.923"/>
</g>
<!-- Node7&#45;&gt;Node9 -->
<g id="edge11" class="edge"><title>Node7&#45;&gt;Node9</title>
<path fill="none" stroke="midnightblue" d="M876.162,-225.757C870.224,-216.354 863.745,-206.096 858.319,-197.506"/>
<polygon fill="midnightblue" stroke="midnightblue" points="873.34,-227.842 881.639,-234.428 879.258,-224.104 873.34,-227.842"/>
</g>
<!-- Node7&#45;&gt;Node10 -->
<g id="edge13" class="edge"><title>Node7&#45;&gt;Node10</title>
<path fill="none" stroke="midnightblue" d="M942.818,-229.908C963.993,-219.458 988.467,-207.38 1008.48,-197.506"/>
<polygon fill="midnightblue" stroke="midnightblue" points="941.077,-226.864 933.659,-234.428 944.175,-233.141 941.077,-226.864"/>
</g>
<!-- Node7&#45;&gt;Node11 -->
<g id="edge15" class="edge"><title>Node7&#45;&gt;Node11</title>
<path fill="none" stroke="midnightblue" d="M960.63,-240.529C1015.12,-229.417 1094.13,-213.084 1163,-198 1167.54,-197.005 1172.21,-195.969 1176.92,-194.915"/>
<polygon fill="midnightblue" stroke="midnightblue" points="959.85,-237.116 950.75,-242.541 961.247,-243.975 959.85,-237.116"/>
</g>
<!-- Node7&#45;&gt;Node12 -->
<g id="edge18" class="edge"><title>Node7&#45;&gt;Node12</title>
<path fill="none" stroke="midnightblue" d="M826.839,-252.223C704.278,-248.15 436.474,-235.408 214,-198 211.243,-197.536 208.44,-197.023 205.616,-196.471"/>
<polygon fill="midnightblue" stroke="midnightblue" points="827.072,-255.733 837.18,-252.558 827.298,-248.736 827.072,-255.733"/>
</g>
<!-- Node7&#45;&gt;Node13 -->
<g id="edge20" class="edge"><title>Node7&#45;&gt;Node13</title>
<path fill="none" stroke="midnightblue" d="M827.169,-248.276C732.918,-239.762 555.72,-222.135 406,-198 402.891,-197.499 399.729,-196.966 396.54,-196.408"/>
<polygon fill="midnightblue" stroke="midnightblue" points="827.141,-251.787 837.413,-249.195 827.766,-244.815 827.141,-251.787"/>
</g>
<!-- Node8&#45;&gt;Node3 -->
<g id="edge10" class="edge"><title>Node8&#45;&gt;Node3</title>
<path fill="none" stroke="midnightblue" d="M700.362,-149.779C711.866,-139.843 724.75,-128.716 735.415,-119.506"/>
<polygon fill="midnightblue" stroke="midnightblue" points="697.943,-147.243 692.662,-156.428 702.518,-152.541 697.943,-147.243"/>
</g>
<!-- Node9&#45;&gt;Node3 -->
<g id="edge12" class="edge"><title>Node9&#45;&gt;Node3</title>
<path fill="none" stroke="midnightblue" d="M815.638,-149.779C804.134,-139.843 791.25,-128.716 780.585,-119.506"/>
<polygon fill="midnightblue" stroke="midnightblue" points="813.482,-152.541 823.338,-156.428 818.057,-147.243 813.482,-152.541"/>
</g>
<!-- Node10&#45;&gt;Node3 -->
<g id="edge14" class="edge"><title>Node10&#45;&gt;Node3</title>
<path fill="none" stroke="midnightblue" d="M965.241,-154.311C920.593,-142.61 866.226,-128.363 824.381,-117.396"/>
<polygon fill="midnightblue" stroke="midnightblue" points="964.634,-157.771 975.195,-156.92 966.409,-150.999 964.634,-157.771"/>
</g>
<!-- Node11&#45;&gt;Node3 -->
<g id="edge16" class="edge"><title>Node11&#45;&gt;Node3</title>
<path fill="none" stroke="midnightblue" d="M1166.71,-162.075C1154.08,-160.01 1141.2,-157.928 1129,-156 1022.36,-139.139 898.283,-120.636 824.055,-109.686"/>
<polygon fill="midnightblue" stroke="midnightblue" points="1166.33,-165.56 1176.76,-163.725 1167.46,-158.652 1166.33,-165.56"/>
</g>
<!-- Node12&#45;&gt;Node3 -->
<g id="edge19" class="edge"><title>Node12&#45;&gt;Node3</title>
<path fill="none" stroke="midnightblue" d="M215.628,-155.83C392.346,-124.913 590.88,-109.881 691.825,-103.636"/>
<polygon fill="midnightblue" stroke="midnightblue" points="214.865,-152.411 205.629,-157.601 216.086,-159.303 214.865,-152.411"/>
</g>
<!-- Node13&#45;&gt;Node3 -->
<g id="edge21" class="edge"><title>Node13&#45;&gt;Node3</title>
<path fill="none" stroke="midnightblue" d="M406.468,-155.956C512.327,-136.69 623.283,-119.692 691.992,-109.542"/>
<polygon fill="midnightblue" stroke="midnightblue" points="405.777,-152.524 396.57,-157.767 407.036,-159.41 405.777,-152.524"/>
</g>
<!-- Node14&#45;&gt;Node4 -->
<g id="edge24" class="edge"><title>Node14&#45;&gt;Node4</title>
<path fill="none" stroke="midnightblue" d="M1369.29,-224.775C1380.41,-187.616 1393.08,-122.902 1365,-78 1351.11,-55.7823 1325.59,-42.1486 1302.11,-33.9059"/>
<polygon fill="midnightblue" stroke="midnightblue" points="1365.89,-223.896 1366.22,-234.486 1372.57,-226.002 1365.89,-223.896"/>
</g>
<!-- Node15&#45;&gt;Node4 -->
<g id="edge29" class="edge"><title>Node15&#45;&gt;Node4</title>
<path fill="none" stroke="midnightblue" d="M1341.42,-330.492C1377.25,-322.646 1415.9,-306.992 1438,-276 1474.93,-224.219 1457.52,-153.791 1387,-78 1364.68,-54.0149 1330.61,-40.0303 1302.03,-32.0344"/>
<polygon fill="midnightblue" stroke="midnightblue" points="1340.52,-327.102 1331.4,-332.503 1341.9,-333.965 1340.52,-327.102"/>
</g>
<!-- Node15&#45;&gt;Node7 -->
<g id="edge27" class="edge"><title>Node15&#45;&gt;Node7</title>
<path fill="none" stroke="midnightblue" d="M1174.94,-311.831C1091.78,-290.845 1005.65,-274.84 950.595,-265.333"/>
<polygon fill="midnightblue" stroke="midnightblue" points="1174.24,-315.266 1184.8,-314.347 1175.97,-308.483 1174.24,-315.266"/>
</g>
<!-- Node15&#45;&gt;Node14 -->
<g id="edge28" class="edge"><title>Node15&#45;&gt;Node14</title>
<path fill="none" stroke="midnightblue" d="M1296.65,-306.619C1309.45,-296.225 1323.33,-284.957 1334.74,-275.696"/>
<polygon fill="midnightblue" stroke="midnightblue" points="1294.41,-303.931 1288.85,-312.952 1298.82,-309.366 1294.41,-303.931"/>
</g>
</g>
</svg>
