<?xml version="1.0" encoding="UTF-8" standalone="no"?>
<!DOCTYPE svg PUBLIC "-//W3C//DTD SVG 1.1//EN"
 "http://www.w3.org/Graphics/SVG/1.1/DTD/svg11.dtd">
<!-- Generated by graphviz version 2.36.0 (20140111.2315)
 -->
<!-- Title: /home/travis/build/mgerhardy/simpleai/src/ai/server/IProtocolHandler.h Pages: 1 -->
<svg width="601pt" height="218pt"
 viewBox="0.00 0.00 601.00 218.00" xmlns="http://www.w3.org/2000/svg" xmlns:xlink="http://www.w3.org/1999/xlink">
<g id="graph0" class="graph" transform="scale(1 1) rotate(0) translate(4 214)">
<title>/home/travis/build/mgerhardy/simpleai/src/ai/server/IProtocolHandler.h</title>
<polygon fill="white" stroke="none" points="-4,4 -4,-214 597,-214 597,4 -4,4"/>
<!-- Node1 -->
<g id="node1" class="node"><title>Node1</title>
<polygon fill="#bfbfbf" stroke="black" points="114,-168.5 114,-209.5 272,-209.5 272,-168.5 114,-168.5"/>
<text text-anchor="start" x="122" y="-197.5" font-family="Helvetica,sans-Serif" font-size="10.00">/home/travis/build</text>
<text text-anchor="start" x="122" y="-186.5" font-family="Helvetica,sans-Serif" font-size="10.00">/mgerhardy/simpleai</text>
<text text-anchor="middle" x="193" y="-175.5" font-family="Helvetica,sans-Serif" font-size="10.00">/src/ai/server/IProtocolHandler.h</text>
</g>
<!-- Node2 -->
<g id="node2" class="node"><title>Node2</title>
<polygon fill="white" stroke="#bfbfbf" points="71,-112.5 71,-131.5 123,-131.5 123,-112.5 71,-112.5"/>
<text text-anchor="middle" x="97" y="-119.5" font-family="Helvetica,sans-Serif" font-size="10.00">memory</text>
</g>
<!-- Node1&#45;&gt;Node2 -->
<g id="edge1" class="edge"><title>Node1&#45;&gt;Node2</title>
<path fill="none" stroke="midnightblue" d="M164.197,-168.498C149.478,-158.532 131.876,-146.614 118.38,-137.476"/>
<polygon fill="midnightblue" stroke="midnightblue" points="120.022,-134.361 109.779,-131.652 116.097,-140.157 120.022,-134.361"/>
</g>
<!-- Node3 -->
<g id="node3" class="node"><title>Node3</title>
<g id="a_node3"><a xlink:href="IProtocolMessage_8h.html" target="_top" xlink:title="IProtocolMessage.h">
<polygon fill="white" stroke="black" points="141,-112.5 141,-131.5 245,-131.5 245,-112.5 141,-112.5"/>
<text text-anchor="middle" x="193" y="-119.5" font-family="Helvetica,sans-Serif" font-size="10.00">IProtocolMessage.h</text>
</a>
</g>
</g>
<!-- Node1&#45;&gt;Node3 -->
<g id="edge2" class="edge"><title>Node1&#45;&gt;Node3</title>
<path fill="none" stroke="midnightblue" d="M193,-168.498C193,-160.065 193,-150.235 193,-141.874"/>
<polygon fill="midnightblue" stroke="midnightblue" points="196.5,-141.652 193,-131.652 189.5,-141.653 196.5,-141.652"/>
</g>
<!-- Node9 -->
<g id="node9" class="node"><title>Node9</title>
<g id="a_node9"><a xlink:href="Types_8h.html" target="_top" xlink:title="common/Types.h">
<polygon fill="white" stroke="black" points="338,-112.5 338,-131.5 430,-131.5 430,-112.5 338,-112.5"/>
<text text-anchor="middle" x="384" y="-119.5" font-family="Helvetica,sans-Serif" font-size="10.00">common/Types.h</text>
</a>
</g>
</g>
<!-- Node1&#45;&gt;Node9 -->
<g id="edge8" class="edge"><title>Node1&#45;&gt;Node9</title>
<path fill="none" stroke="midnightblue" d="M250.306,-168.498C282.406,-157.574 321.398,-144.304 348.968,-134.922"/>
<polygon fill="midnightblue" stroke="midnightblue" points="350.236,-138.188 358.575,-131.652 347.981,-131.561 350.236,-138.188"/>
</g>
<!-- Node4 -->
<g id="node4" class="node"><title>Node4</title>
<polygon fill="white" stroke="#bfbfbf" points="-0.5,-56.5 -0.5,-75.5 48.5,-75.5 48.5,-56.5 -0.5,-56.5"/>
<text text-anchor="middle" x="24" y="-63.5" font-family="Helvetica,sans-Serif" font-size="10.00">stdint.h</text>
</g>
<!-- Node3&#45;&gt;Node4 -->
<g id="edge3" class="edge"><title>Node3&#45;&gt;Node4</title>
<path fill="none" stroke="midnightblue" d="M166.221,-112.444C137.079,-103.132 90.3909,-88.2137 58.5162,-78.0289"/>
<polygon fill="midnightblue" stroke="midnightblue" points="59.3197,-74.6113 48.7289,-74.9015 57.1891,-81.2792 59.3197,-74.6113"/>
</g>
<!-- Node5 -->
<g id="node5" class="node"><title>Node5</title>
<polygon fill="white" stroke="#bfbfbf" points="67,-56.5 67,-75.5 119,-75.5 119,-56.5 67,-56.5"/>
<text text-anchor="middle" x="93" y="-63.5" font-family="Helvetica,sans-Serif" font-size="10.00">stddef.h</text>
</g>
<!-- Node3&#45;&gt;Node5 -->
<g id="edge4" class="edge"><title>Node3&#45;&gt;Node5</title>
<path fill="none" stroke="midnightblue" d="M176.933,-112.324C161.042,-103.743 136.493,-90.486 118.042,-80.5224"/>
<polygon fill="midnightblue" stroke="midnightblue" points="119.489,-77.3264 109.027,-75.6545 116.163,-83.4857 119.489,-77.3264"/>
</g>
<!-- Node6 -->
<g id="node6" class="node"><title>Node6</title>
<polygon fill="white" stroke="#bfbfbf" points="137,-56.5 137,-75.5 185,-75.5 185,-56.5 137,-56.5"/>
<text text-anchor="middle" x="161" y="-63.5" font-family="Helvetica,sans-Serif" font-size="10.00">limits.h</text>
</g>
<!-- Node3&#45;&gt;Node6 -->
<g id="edge5" class="edge"><title>Node3&#45;&gt;Node6</title>
<path fill="none" stroke="midnightblue" d="M187.716,-112.083C183.289,-104.613 176.837,-93.7244 171.382,-84.5199"/>
<polygon fill="midnightblue" stroke="midnightblue" points="174.295,-82.5697 166.186,-75.7511 168.273,-86.1383 174.295,-82.5697"/>
</g>
<!-- Node7 -->
<g id="node7" class="node"><title>Node7</title>
<polygon fill="white" stroke="#bfbfbf" points="264.5,-56.5 264.5,-75.5 305.5,-75.5 305.5,-56.5 264.5,-56.5"/>
<text text-anchor="middle" x="285" y="-63.5" font-family="Helvetica,sans-Serif" font-size="10.00">string</text>
</g>
<!-- Node3&#45;&gt;Node7 -->
<g id="edge6" class="edge"><title>Node3&#45;&gt;Node7</title>
<path fill="none" stroke="midnightblue" d="M207.781,-112.324C222.267,-103.822 244.573,-90.7288 261.493,-80.7975"/>
<polygon fill="midnightblue" stroke="midnightblue" points="263.403,-83.735 270.255,-75.6545 259.859,-77.6981 263.403,-83.735"/>
</g>
<!-- Node8 -->
<g id="node8" class="node"><title>Node8</title>
<polygon fill="white" stroke="#bfbfbf" points="203.5,-56.5 203.5,-75.5 246.5,-75.5 246.5,-56.5 203.5,-56.5"/>
<text text-anchor="middle" x="225" y="-63.5" font-family="Helvetica,sans-Serif" font-size="10.00">deque</text>
</g>
<!-- Node3&#45;&gt;Node8 -->
<g id="edge7" class="edge"><title>Node3&#45;&gt;Node8</title>
<path fill="none" stroke="midnightblue" d="M198.284,-112.083C202.711,-104.613 209.163,-93.7244 214.618,-84.5199"/>
<polygon fill="midnightblue" stroke="midnightblue" points="217.727,-86.1383 219.814,-75.7511 211.705,-82.5697 217.727,-86.1383"/>
</g>
<!-- Node9&#45;&gt;Node7 -->
<g id="edge13" class="edge"><title>Node9&#45;&gt;Node7</title>
<path fill="none" stroke="midnightblue" d="M368.094,-112.324C352.362,-103.743 328.058,-90.486 309.791,-80.5224"/>
<polygon fill="midnightblue" stroke="midnightblue" points="311.322,-77.3704 300.867,-75.6545 307.97,-83.5157 311.322,-77.3704"/>
</g>
<!-- Node10 -->
<g id="node10" class="node"><title>Node10</title>
<g id="a_node10"><a xlink:href="Log_8h.html" target="_top" xlink:title="Log.h">
<polygon fill="white" stroke="black" points="323.5,-56.5 323.5,-75.5 364.5,-75.5 364.5,-56.5 323.5,-56.5"/>
<text text-anchor="middle" x="344" y="-63.5" font-family="Helvetica,sans-Serif" font-size="10.00">Log.h</text>
</a>
</g>
</g>
<!-- Node9&#45;&gt;Node10 -->
<g id="edge9" class="edge"><title>Node9&#45;&gt;Node10</title>
<path fill="none" stroke="midnightblue" d="M377.395,-112.083C371.745,-104.455 363.455,-93.2645 356.549,-83.9408"/>
<polygon fill="midnightblue" stroke="midnightblue" points="359.247,-81.7034 350.482,-75.7511 353.622,-85.87 359.247,-81.7034"/>
</g>
<!-- Node14 -->
<g id="node14" class="node"><title>Node14</title>
<polygon fill="white" stroke="#bfbfbf" points="382.5,-56.5 382.5,-75.5 465.5,-75.5 465.5,-56.5 382.5,-56.5"/>
<text text-anchor="middle" x="424" y="-63.5" font-family="Helvetica,sans-Serif" font-size="10.00">unordered_map</text>
</g>
<!-- Node9&#45;&gt;Node14 -->
<g id="edge14" class="edge"><title>Node9&#45;&gt;Node14</title>
<path fill="none" stroke="midnightblue" d="M390.605,-112.083C396.255,-104.455 404.545,-93.2645 411.451,-83.9408"/>
<polygon fill="midnightblue" stroke="midnightblue" points="414.378,-85.87 417.518,-75.7511 408.753,-81.7034 414.378,-85.87"/>
</g>
<!-- Node15 -->
<g id="node15" class="node"><title>Node15</title>
<polygon fill="white" stroke="#bfbfbf" points="483.5,-56.5 483.5,-75.5 532.5,-75.5 532.5,-56.5 483.5,-56.5"/>
<text text-anchor="middle" x="508" y="-63.5" font-family="Helvetica,sans-Serif" font-size="10.00">cassert</text>
</g>
<!-- Node9&#45;&gt;Node15 -->
<g id="edge15" class="edge"><title>Node9&#45;&gt;Node15</title>
<path fill="none" stroke="midnightblue" d="M403.648,-112.444C423.965,-103.596 455.903,-89.6875 479.098,-79.5865"/>
<polygon fill="midnightblue" stroke="midnightblue" points="480.673,-82.7181 488.444,-75.5164 477.878,-76.3002 480.673,-82.7181"/>
</g>
<!-- Node16 -->
<g id="node16" class="node"><title>Node16</title>
<polygon fill="white" stroke="#bfbfbf" points="550.5,-56.5 550.5,-75.5 593.5,-75.5 593.5,-56.5 550.5,-56.5"/>
<text text-anchor="middle" x="572" y="-63.5" font-family="Helvetica,sans-Serif" font-size="10.00">cstdio</text>
</g>
<!-- Node9&#45;&gt;Node16 -->
<g id="edge16" class="edge"><title>Node9&#45;&gt;Node16</title>
<path fill="none" stroke="midnightblue" d="M413.815,-112.487C443.489,-104.007 490.586,-90.529 540.617,-76.1035"/>
<polygon fill="midnightblue" stroke="midnightblue" points="541.684,-79.4383 550.323,-73.3037 539.744,-72.7125 541.684,-79.4383"/>
</g>
<!-- Node11 -->
<g id="node11" class="node"><title>Node11</title>
<polygon fill="white" stroke="#bfbfbf" points="254,-0.5 254,-19.5 300,-19.5 300,-0.5 254,-0.5"/>
<text text-anchor="middle" x="277" y="-7.5" font-family="Helvetica,sans-Serif" font-size="10.00">stdio.h</text>
</g>
<!-- Node10&#45;&gt;Node11 -->
<g id="edge10" class="edge"><title>Node10&#45;&gt;Node11</title>
<path fill="none" stroke="midnightblue" d="M333.235,-56.324C323.234,-48.2631 308.113,-36.0765 296.07,-26.3695"/>
<polygon fill="midnightblue" stroke="midnightblue" points="297.943,-23.3841 287.961,-19.8339 293.55,-28.8343 297.943,-23.3841"/>
</g>
<!-- Node12 -->
<g id="node12" class="node"><title>Node12</title>
<polygon fill="white" stroke="#bfbfbf" points="318,-0.5 318,-19.5 370,-19.5 370,-0.5 318,-0.5"/>
<text text-anchor="middle" x="344" y="-7.5" font-family="Helvetica,sans-Serif" font-size="10.00">stdarg.h</text>
</g>
<!-- Node10&#45;&gt;Node12 -->
<g id="edge11" class="edge"><title>Node10&#45;&gt;Node12</title>
<path fill="none" stroke="midnightblue" d="M344,-56.083C344,-49.0059 344,-38.8611 344,-29.9865"/>
<polygon fill="midnightblue" stroke="midnightblue" points="347.5,-29.751 344,-19.7511 340.5,-29.7511 347.5,-29.751"/>
</g>
<!-- Node13 -->
<g id="node13" class="node"><title>Node13</title>
<polygon fill="white" stroke="#bfbfbf" points="388.5,-0.5 388.5,-19.5 437.5,-19.5 437.5,-0.5 388.5,-0.5"/>
<text text-anchor="middle" x="413" y="-7.5" font-family="Helvetica,sans-Serif" font-size="10.00">string.h</text>
</g>
<!-- Node10&#45;&gt;Node13 -->
<g id="edge12" class="edge"><title>Node10&#45;&gt;Node13</title>
<path fill="none" stroke="midnightblue" d="M355.086,-56.324C365.486,-48.1849 381.261,-35.8395 393.722,-26.0874"/>
<polygon fill="midnightblue" stroke="midnightblue" points="395.994,-28.7533 401.712,-19.8339 391.68,-23.2407 395.994,-28.7533"/>
</g>
</g>
</svg>
