<?xml version="1.0" encoding="UTF-8" standalone="no"?>
<!DOCTYPE svg PUBLIC "-//W3C//DTD SVG 1.1//EN"
 "http://www.w3.org/Graphics/SVG/1.1/DTD/svg11.dtd">
<!-- Generated by graphviz version 2.36.0 (20140111.2315)
 -->
<!-- Title: /home/travis/build/mgerhardy/simpleai/src/ai/server/IProtocolHandler.h Pages: 1 -->
<svg width="579pt" height="218pt"
 viewBox="0.00 0.00 579.00 218.00" xmlns="http://www.w3.org/2000/svg" xmlns:xlink="http://www.w3.org/1999/xlink">
<g id="graph0" class="graph" transform="scale(1 1) rotate(0) translate(4 214)">
<title>/home/travis/build/mgerhardy/simpleai/src/ai/server/IProtocolHandler.h</title>
<polygon fill="white" stroke="none" points="-4,4 -4,-214 575,-214 575,4 -4,4"/>
<!-- Node1 -->
<g id="node1" class="node"><title>Node1</title>
<polygon fill="#bfbfbf" stroke="black" points="114,-168.5 114,-209.5 272,-209.5 272,-168.5 114,-168.5"/>
<text text-anchor="start" x="122" y="-197.5" font-family="Helvetica,sans-Serif" font-size="10.00">/home/travis/build</text>
<text text-anchor="start" x="122" y="-186.5" font-family="Helvetica,sans-Serif" font-size="10.00">/mgerhardy/simpleai</text>
<text text-anchor="middle" x="193" y="-175.5" font-family="Helvetica,sans-Serif" font-size="10.00">/src/ai/server/IProtocolHandler.h</text>
</g>
<!-- Node2 -->
<g id="node2" class="node"><title>Node2</title>
<polygon fill="white" stroke="#bfbfbf" points="71,-112.5 71,-131.5 123,-131.5 123,-112.5 71,-112.5"/>
<text text-anchor="middle" x="97" y="-119.5" font-family="Helvetica,sans-Serif" font-size="10.00">memory</text>
</g>
<!-- Node1&#45;&gt;Node2 -->
<g id="edge1" class="edge"><title>Node1&#45;&gt;Node2</title>
<path fill="none" stroke="midnightblue" d="M164.197,-168.498C149.478,-158.532 131.876,-146.614 118.38,-137.476"/>
<polygon fill="midnightblue" stroke="midnightblue" points="120.022,-134.361 109.779,-131.652 116.097,-140.157 120.022,-134.361"/>
</g>
<!-- Node3 -->
<g id="node3" class="node"><title>Node3</title>
<g id="a_node3"><a xlink:href="IProtocolMessage_8h.html" target="_top" xlink:title="IProtocolMessage.h">
<polygon fill="white" stroke="black" points="141,-112.5 141,-131.5 245,-131.5 245,-112.5 141,-112.5"/>
<text text-anchor="middle" x="193" y="-119.5" font-family="Helvetica,sans-Serif" font-size="10.00">IProtocolMessage.h</text>
</a>
</g>
</g>
<!-- Node1&#45;&gt;Node3 -->
<g id="edge2" class="edge"><title>Node1&#45;&gt;Node3</title>
<path fill="none" stroke="midnightblue" d="M193,-168.498C193,-160.065 193,-150.235 193,-141.874"/>
<polygon fill="midnightblue" stroke="midnightblue" points="196.5,-141.652 193,-131.652 189.5,-141.653 196.5,-141.652"/>
</g>
<!-- Node9 -->
<g id="node9" class="node"><title>Node9</title>
<g id="a_node9"><a xlink:href="Types_8h.html" target="_top" xlink:title="common/Types.h">
<polygon fill="white" stroke="black" points="313,-112.5 313,-131.5 405,-131.5 405,-112.5 313,-112.5"/>
<text text-anchor="middle" x="359" y="-119.5" font-family="Helvetica,sans-Serif" font-size="10.00">common/Types.h</text>
</a>
</g>
</g>
<!-- Node1&#45;&gt;Node9 -->
<g id="edge8" class="edge"><title>Node1&#45;&gt;Node9</title>
<path fill="none" stroke="midnightblue" d="M242.805,-168.498C270.214,-157.766 303.405,-144.769 327.283,-135.419"/>
<polygon fill="midnightblue" stroke="midnightblue" points="328.867,-138.558 336.903,-131.652 326.315,-132.04 328.867,-138.558"/>
</g>
<!-- Node4 -->
<g id="node4" class="node"><title>Node4</title>
<polygon fill="white" stroke="#bfbfbf" points="-0.5,-56.5 -0.5,-75.5 48.5,-75.5 48.5,-56.5 -0.5,-56.5"/>
<text text-anchor="middle" x="24" y="-63.5" font-family="Helvetica,sans-Serif" font-size="10.00">stdint.h</text>
</g>
<!-- Node3&#45;&gt;Node4 -->
<g id="edge3" class="edge"><title>Node3&#45;&gt;Node4</title>
<path fill="none" stroke="midnightblue" d="M166.221,-112.444C137.079,-103.132 90.3909,-88.2137 58.5162,-78.0289"/>
<polygon fill="midnightblue" stroke="midnightblue" points="59.3197,-74.6113 48.7289,-74.9015 57.1891,-81.2792 59.3197,-74.6113"/>
</g>
<!-- Node5 -->
<g id="node5" class="node"><title>Node5</title>
<polygon fill="white" stroke="#bfbfbf" points="67,-56.5 67,-75.5 119,-75.5 119,-56.5 67,-56.5"/>
<text text-anchor="middle" x="93" y="-63.5" font-family="Helvetica,sans-Serif" font-size="10.00">stddef.h</text>
</g>
<!-- Node3&#45;&gt;Node5 -->
<g id="edge4" class="edge"><title>Node3&#45;&gt;Node5</title>
<path fill="none" stroke="midnightblue" d="M176.933,-112.324C161.042,-103.743 136.493,-90.486 118.042,-80.5224"/>
<polygon fill="midnightblue" stroke="midnightblue" points="119.489,-77.3264 109.027,-75.6545 116.163,-83.4857 119.489,-77.3264"/>
</g>
<!-- Node6 -->
<g id="node6" class="node"><title>Node6</title>
<polygon fill="white" stroke="#bfbfbf" points="137,-56.5 137,-75.5 185,-75.5 185,-56.5 137,-56.5"/>
<text text-anchor="middle" x="161" y="-63.5" font-family="Helvetica,sans-Serif" font-size="10.00">limits.h</text>
</g>
<!-- Node3&#45;&gt;Node6 -->
<g id="edge5" class="edge"><title>Node3&#45;&gt;Node6</title>
<path fill="none" stroke="midnightblue" d="M187.716,-112.083C183.289,-104.613 176.837,-93.7244 171.382,-84.5199"/>
<polygon fill="midnightblue" stroke="midnightblue" points="174.295,-82.5697 166.186,-75.7511 168.273,-86.1383 174.295,-82.5697"/>
</g>
<!-- Node7 -->
<g id="node7" class="node"><title>Node7</title>
<polygon fill="white" stroke="#bfbfbf" points="264.5,-56.5 264.5,-75.5 305.5,-75.5 305.5,-56.5 264.5,-56.5"/>
<text text-anchor="middle" x="285" y="-63.5" font-family="Helvetica,sans-Serif" font-size="10.00">string</text>
</g>
<!-- Node3&#45;&gt;Node7 -->
<g id="edge6" class="edge"><title>Node3&#45;&gt;Node7</title>
<path fill="none" stroke="midnightblue" d="M207.781,-112.324C222.267,-103.822 244.573,-90.7288 261.493,-80.7975"/>
<polygon fill="midnightblue" stroke="midnightblue" points="263.403,-83.735 270.255,-75.6545 259.859,-77.6981 263.403,-83.735"/>
</g>
<!-- Node8 -->
<g id="node8" class="node"><title>Node8</title>
<polygon fill="white" stroke="#bfbfbf" points="203.5,-56.5 203.5,-75.5 246.5,-75.5 246.5,-56.5 203.5,-56.5"/>
<text text-anchor="middle" x="225" y="-63.5" font-family="Helvetica,sans-Serif" font-size="10.00">deque</text>
</g>
<!-- Node3&#45;&gt;Node8 -->
<g id="edge7" class="edge"><title>Node3&#45;&gt;Node8</title>
<path fill="none" stroke="midnightblue" d="M198.284,-112.083C202.711,-104.613 209.163,-93.7244 214.618,-84.5199"/>
<polygon fill="midnightblue" stroke="midnightblue" points="217.727,-86.1383 219.814,-75.7511 211.705,-82.5697 217.727,-86.1383"/>
</g>
<!-- Node9&#45;&gt;Node7 -->
<g id="edge13" class="edge"><title>Node9&#45;&gt;Node7</title>
<path fill="none" stroke="midnightblue" d="M347.111,-112.324C335.85,-104.107 318.713,-91.6017 305.291,-81.8069"/>
<polygon fill="midnightblue" stroke="midnightblue" points="307.247,-78.9014 297.106,-75.8339 303.12,-84.5559 307.247,-78.9014"/>
</g>
<!-- Node10 -->
<g id="node10" class="node"><title>Node10</title>
<g id="a_node10"><a xlink:href="Log_8h.html" target="_top" xlink:title="Log.h">
<polygon fill="white" stroke="black" points="362.5,-56.5 362.5,-75.5 403.5,-75.5 403.5,-56.5 362.5,-56.5"/>
<text text-anchor="middle" x="383" y="-63.5" font-family="Helvetica,sans-Serif" font-size="10.00">Log.h</text>
</a>
</g>
</g>
<!-- Node9&#45;&gt;Node10 -->
<g id="edge9" class="edge"><title>Node9&#45;&gt;Node10</title>
<path fill="none" stroke="midnightblue" d="M362.963,-112.083C366.213,-104.77 370.919,-94.1814 374.954,-85.1034"/>
<polygon fill="midnightblue" stroke="midnightblue" points="378.248,-86.3107 379.111,-75.7511 371.851,-83.4677 378.248,-86.3107"/>
</g>
<!-- Node11 -->
<g id="node11" class="node"><title>Node11</title>
<polygon fill="white" stroke="#bfbfbf" points="304.5,-0.5 304.5,-19.5 347.5,-19.5 347.5,-0.5 304.5,-0.5"/>
<text text-anchor="middle" x="326" y="-7.5" font-family="Helvetica,sans-Serif" font-size="10.00">cstdio</text>
</g>
<!-- Node9&#45;&gt;Node11 -->
<g id="edge16" class="edge"><title>Node9&#45;&gt;Node11</title>
<path fill="none" stroke="midnightblue" d="M356.411,-112.368C351.061,-94.5366 338.689,-53.2953 331.482,-29.2717"/>
<polygon fill="midnightblue" stroke="midnightblue" points="334.803,-28.1639 328.577,-19.5914 328.099,-30.1754 334.803,-28.1639"/>
</g>
<!-- Node14 -->
<g id="node14" class="node"><title>Node14</title>
<polygon fill="white" stroke="#bfbfbf" points="421.5,-56.5 421.5,-75.5 504.5,-75.5 504.5,-56.5 421.5,-56.5"/>
<text text-anchor="middle" x="463" y="-63.5" font-family="Helvetica,sans-Serif" font-size="10.00">unordered_map</text>
</g>
<!-- Node9&#45;&gt;Node14 -->
<g id="edge14" class="edge"><title>Node9&#45;&gt;Node14</title>
<path fill="none" stroke="midnightblue" d="M375.709,-112.324C392.312,-103.703 418.002,-90.3643 437.22,-80.3855"/>
<polygon fill="midnightblue" stroke="midnightblue" points="439.07,-83.3689 446.332,-75.6545 435.844,-77.1565 439.07,-83.3689"/>
</g>
<!-- Node15 -->
<g id="node15" class="node"><title>Node15</title>
<polygon fill="white" stroke="#bfbfbf" points="522.5,-56.5 522.5,-75.5 571.5,-75.5 571.5,-56.5 522.5,-56.5"/>
<text text-anchor="middle" x="547" y="-63.5" font-family="Helvetica,sans-Serif" font-size="10.00">cassert</text>
</g>
<!-- Node9&#45;&gt;Node15 -->
<g id="edge15" class="edge"><title>Node9&#45;&gt;Node15</title>
<path fill="none" stroke="midnightblue" d="M388.789,-112.444C422.431,-102.78 477.092,-87.0801 512.544,-76.8969"/>
<polygon fill="midnightblue" stroke="midnightblue" points="513.798,-80.1785 522.443,-74.0537 511.865,-73.4505 513.798,-80.1785"/>
</g>
<!-- Node10&#45;&gt;Node11 -->
<g id="edge10" class="edge"><title>Node10&#45;&gt;Node11</title>
<path fill="none" stroke="midnightblue" d="M373.842,-56.324C365.499,-48.4196 352.968,-36.5482 342.823,-26.9377"/>
<polygon fill="midnightblue" stroke="midnightblue" points="344.991,-24.1705 335.325,-19.8339 340.177,-29.2522 344.991,-24.1705"/>
</g>
<!-- Node12 -->
<g id="node12" class="node"><title>Node12</title>
<polygon fill="white" stroke="#bfbfbf" points="365.5,-0.5 365.5,-19.5 414.5,-19.5 414.5,-0.5 365.5,-0.5"/>
<text text-anchor="middle" x="390" y="-7.5" font-family="Helvetica,sans-Serif" font-size="10.00">cstdarg</text>
</g>
<!-- Node10&#45;&gt;Node12 -->
<g id="edge11" class="edge"><title>Node10&#45;&gt;Node12</title>
<path fill="none" stroke="midnightblue" d="M384.156,-56.083C385.084,-48.9272 386.418,-38.6353 387.577,-29.6911"/>
<polygon fill="midnightblue" stroke="midnightblue" points="391.051,-30.1181 388.866,-19.7511 384.109,-29.2181 391.051,-30.1181"/>
</g>
<!-- Node13 -->
<g id="node13" class="node"><title>Node13</title>
<polygon fill="white" stroke="#bfbfbf" points="433,-0.5 433,-19.5 479,-19.5 479,-0.5 433,-0.5"/>
<text text-anchor="middle" x="456" y="-7.5" font-family="Helvetica,sans-Serif" font-size="10.00">cstring</text>
</g>
<!-- Node10&#45;&gt;Node13 -->
<g id="edge12" class="edge"><title>Node10&#45;&gt;Node13</title>
<path fill="none" stroke="midnightblue" d="M394.729,-56.324C405.837,-48.1066 422.742,-35.6017 435.983,-25.8069"/>
<polygon fill="midnightblue" stroke="midnightblue" points="438.1,-28.5948 444.058,-19.8339 433.937,-22.9671 438.1,-28.5948"/>
</g>
</g>
</svg>
