<?xml version="1.0" encoding="UTF-8" standalone="no"?>
<!DOCTYPE svg PUBLIC "-//W3C//DTD SVG 1.1//EN"
 "http://www.w3.org/Graphics/SVG/1.1/DTD/svg11.dtd">
<!-- Generated by graphviz version 2.36.0 (20140111.2315)
 -->
<!-- Title: /home/travis/build/mgerhardy/simpleai/src/ai/server/IProtocolHandler.h Pages: 1 -->
<svg width="660pt" height="218pt"
 viewBox="0.00 0.00 660.00 218.00" xmlns="http://www.w3.org/2000/svg" xmlns:xlink="http://www.w3.org/1999/xlink">
<g id="graph0" class="graph" transform="scale(1 1) rotate(0) translate(4 214)">
<title>/home/travis/build/mgerhardy/simpleai/src/ai/server/IProtocolHandler.h</title>
<polygon fill="white" stroke="none" points="-4,4 -4,-214 656,-214 656,4 -4,4"/>
<!-- Node1 -->
<g id="node1" class="node"><title>Node1</title>
<polygon fill="#bfbfbf" stroke="black" points="114,-168.5 114,-209.5 272,-209.5 272,-168.5 114,-168.5"/>
<text text-anchor="start" x="122" y="-197.5" font-family="Helvetica,sans-Serif" font-size="10.00">/home/travis/build</text>
<text text-anchor="start" x="122" y="-186.5" font-family="Helvetica,sans-Serif" font-size="10.00">/mgerhardy/simpleai</text>
<text text-anchor="middle" x="193" y="-175.5" font-family="Helvetica,sans-Serif" font-size="10.00">/src/ai/server/IProtocolHandler.h</text>
</g>
<!-- Node2 -->
<g id="node2" class="node"><title>Node2</title>
<polygon fill="white" stroke="#bfbfbf" points="71,-112.5 71,-131.5 123,-131.5 123,-112.5 71,-112.5"/>
<text text-anchor="middle" x="97" y="-119.5" font-family="Helvetica,sans-Serif" font-size="10.00">memory</text>
</g>
<!-- Node1&#45;&gt;Node2 -->
<g id="edge1" class="edge"><title>Node1&#45;&gt;Node2</title>
<path fill="none" stroke="midnightblue" d="M164.197,-168.498C149.478,-158.532 131.876,-146.614 118.38,-137.476"/>
<polygon fill="midnightblue" stroke="midnightblue" points="120.022,-134.361 109.779,-131.652 116.097,-140.157 120.022,-134.361"/>
</g>
<!-- Node3 -->
<g id="node3" class="node"><title>Node3</title>
<g id="a_node3"><a xlink:href="IProtocolMessage_8h.html" target="_top" xlink:title="IProtocolMessage.h">
<polygon fill="white" stroke="black" points="141,-112.5 141,-131.5 245,-131.5 245,-112.5 141,-112.5"/>
<text text-anchor="middle" x="193" y="-119.5" font-family="Helvetica,sans-Serif" font-size="10.00">IProtocolMessage.h</text>
</a>
</g>
</g>
<!-- Node1&#45;&gt;Node3 -->
<g id="edge2" class="edge"><title>Node1&#45;&gt;Node3</title>
<path fill="none" stroke="midnightblue" d="M193,-168.498C193,-160.065 193,-150.235 193,-141.874"/>
<polygon fill="midnightblue" stroke="midnightblue" points="196.5,-141.652 193,-131.652 189.5,-141.653 196.5,-141.652"/>
</g>
<!-- Node9 -->
<g id="node9" class="node"><title>Node9</title>
<g id="a_node9"><a xlink:href="Types_8h.html" target="_top" xlink:title="common/Types.h">
<polygon fill="white" stroke="black" points="337,-112.5 337,-131.5 429,-131.5 429,-112.5 337,-112.5"/>
<text text-anchor="middle" x="383" y="-119.5" font-family="Helvetica,sans-Serif" font-size="10.00">common/Types.h</text>
</a>
</g>
</g>
<!-- Node1&#45;&gt;Node9 -->
<g id="edge8" class="edge"><title>Node1&#45;&gt;Node9</title>
<path fill="none" stroke="midnightblue" d="M250.006,-168.498C281.938,-157.574 320.726,-144.304 348.152,-134.922"/>
<polygon fill="midnightblue" stroke="midnightblue" points="349.379,-138.201 357.708,-131.652 347.114,-131.578 349.379,-138.201"/>
</g>
<!-- Node4 -->
<g id="node4" class="node"><title>Node4</title>
<polygon fill="white" stroke="#bfbfbf" points="-0.5,-56.5 -0.5,-75.5 48.5,-75.5 48.5,-56.5 -0.5,-56.5"/>
<text text-anchor="middle" x="24" y="-63.5" font-family="Helvetica,sans-Serif" font-size="10.00">stdint.h</text>
</g>
<!-- Node3&#45;&gt;Node4 -->
<g id="edge3" class="edge"><title>Node3&#45;&gt;Node4</title>
<path fill="none" stroke="midnightblue" d="M166.221,-112.444C137.079,-103.132 90.3909,-88.2137 58.5162,-78.0289"/>
<polygon fill="midnightblue" stroke="midnightblue" points="59.3197,-74.6113 48.7289,-74.9015 57.1891,-81.2792 59.3197,-74.6113"/>
</g>
<!-- Node5 -->
<g id="node5" class="node"><title>Node5</title>
<polygon fill="white" stroke="#bfbfbf" points="67,-56.5 67,-75.5 119,-75.5 119,-56.5 67,-56.5"/>
<text text-anchor="middle" x="93" y="-63.5" font-family="Helvetica,sans-Serif" font-size="10.00">stddef.h</text>
</g>
<!-- Node3&#45;&gt;Node5 -->
<g id="edge4" class="edge"><title>Node3&#45;&gt;Node5</title>
<path fill="none" stroke="midnightblue" d="M176.933,-112.324C161.042,-103.743 136.493,-90.486 118.042,-80.5224"/>
<polygon fill="midnightblue" stroke="midnightblue" points="119.489,-77.3264 109.027,-75.6545 116.163,-83.4857 119.489,-77.3264"/>
</g>
<!-- Node6 -->
<g id="node6" class="node"><title>Node6</title>
<polygon fill="white" stroke="#bfbfbf" points="137,-56.5 137,-75.5 185,-75.5 185,-56.5 137,-56.5"/>
<text text-anchor="middle" x="161" y="-63.5" font-family="Helvetica,sans-Serif" font-size="10.00">limits.h</text>
</g>
<!-- Node3&#45;&gt;Node6 -->
<g id="edge5" class="edge"><title>Node3&#45;&gt;Node6</title>
<path fill="none" stroke="midnightblue" d="M187.716,-112.083C183.289,-104.613 176.837,-93.7244 171.382,-84.5199"/>
<polygon fill="midnightblue" stroke="midnightblue" points="174.295,-82.5697 166.186,-75.7511 168.273,-86.1383 174.295,-82.5697"/>
</g>
<!-- Node7 -->
<g id="node7" class="node"><title>Node7</title>
<polygon fill="white" stroke="#bfbfbf" points="264.5,-56.5 264.5,-75.5 305.5,-75.5 305.5,-56.5 264.5,-56.5"/>
<text text-anchor="middle" x="285" y="-63.5" font-family="Helvetica,sans-Serif" font-size="10.00">string</text>
</g>
<!-- Node3&#45;&gt;Node7 -->
<g id="edge6" class="edge"><title>Node3&#45;&gt;Node7</title>
<path fill="none" stroke="midnightblue" d="M207.781,-112.324C222.267,-103.822 244.573,-90.7288 261.493,-80.7975"/>
<polygon fill="midnightblue" stroke="midnightblue" points="263.403,-83.735 270.255,-75.6545 259.859,-77.6981 263.403,-83.735"/>
</g>
<!-- Node8 -->
<g id="node8" class="node"><title>Node8</title>
<polygon fill="white" stroke="#bfbfbf" points="203.5,-56.5 203.5,-75.5 246.5,-75.5 246.5,-56.5 203.5,-56.5"/>
<text text-anchor="middle" x="225" y="-63.5" font-family="Helvetica,sans-Serif" font-size="10.00">deque</text>
</g>
<!-- Node3&#45;&gt;Node8 -->
<g id="edge7" class="edge"><title>Node3&#45;&gt;Node8</title>
<path fill="none" stroke="midnightblue" d="M198.284,-112.083C202.711,-104.613 209.163,-93.7244 214.618,-84.5199"/>
<polygon fill="midnightblue" stroke="midnightblue" points="217.727,-86.1383 219.814,-75.7511 211.705,-82.5697 217.727,-86.1383"/>
</g>
<!-- Node9&#45;&gt;Node7 -->
<g id="edge13" class="edge"><title>Node9&#45;&gt;Node7</title>
<path fill="none" stroke="midnightblue" d="M367.255,-112.324C351.681,-103.743 327.623,-90.486 309.541,-80.5224"/>
<polygon fill="midnightblue" stroke="midnightblue" points="311.154,-77.4152 300.706,-75.6545 307.776,-83.546 311.154,-77.4152"/>
</g>
<!-- Node10 -->
<g id="node10" class="node"><title>Node10</title>
<g id="a_node10"><a xlink:href="Log_8h.html" target="_top" xlink:title="Log.h">
<polygon fill="white" stroke="black" points="362.5,-56.5 362.5,-75.5 403.5,-75.5 403.5,-56.5 362.5,-56.5"/>
<text text-anchor="middle" x="383" y="-63.5" font-family="Helvetica,sans-Serif" font-size="10.00">Log.h</text>
</a>
</g>
</g>
<!-- Node9&#45;&gt;Node10 -->
<g id="edge9" class="edge"><title>Node9&#45;&gt;Node10</title>
<path fill="none" stroke="midnightblue" d="M383,-112.083C383,-105.006 383,-94.8611 383,-85.9865"/>
<polygon fill="midnightblue" stroke="midnightblue" points="386.5,-85.751 383,-75.7511 379.5,-85.7511 386.5,-85.751"/>
</g>
<!-- Node11 -->
<g id="node11" class="node"><title>Node11</title>
<polygon fill="white" stroke="#bfbfbf" points="302,-0.5 302,-19.5 348,-19.5 348,-0.5 302,-0.5"/>
<text text-anchor="middle" x="325" y="-7.5" font-family="Helvetica,sans-Serif" font-size="10.00">stdio.h</text>
</g>
<!-- Node9&#45;&gt;Node11 -->
<g id="edge16" class="edge"><title>Node9&#45;&gt;Node11</title>
<path fill="none" stroke="midnightblue" d="M376.532,-112.332C370.095,-103.48 360.168,-89.2029 353,-76 344.673,-60.6628 336.967,-42.3362 331.756,-29.0582"/>
<polygon fill="midnightblue" stroke="midnightblue" points="334.996,-27.7301 328.148,-19.6455 328.46,-30.2358 334.996,-27.7301"/>
</g>
<!-- Node14 -->
<g id="node14" class="node"><title>Node14</title>
<polygon fill="white" stroke="#bfbfbf" points="421.5,-56.5 421.5,-75.5 504.5,-75.5 504.5,-56.5 421.5,-56.5"/>
<text text-anchor="middle" x="463" y="-63.5" font-family="Helvetica,sans-Serif" font-size="10.00">unordered_map</text>
</g>
<!-- Node9&#45;&gt;Node14 -->
<g id="edge14" class="edge"><title>Node9&#45;&gt;Node14</title>
<path fill="none" stroke="midnightblue" d="M395.853,-112.324C408.216,-103.979 427.13,-91.2122 441.737,-81.3524"/>
<polygon fill="midnightblue" stroke="midnightblue" points="443.848,-84.1503 450.179,-75.6545 439.932,-78.3483 443.848,-84.1503"/>
</g>
<!-- Node15 -->
<g id="node15" class="node"><title>Node15</title>
<polygon fill="white" stroke="#bfbfbf" points="523,-56.5 523,-75.5 575,-75.5 575,-56.5 523,-56.5"/>
<text text-anchor="middle" x="549" y="-63.5" font-family="Helvetica,sans-Serif" font-size="10.00">assert.h</text>
</g>
<!-- Node9&#45;&gt;Node15 -->
<g id="edge15" class="edge"><title>Node9&#45;&gt;Node15</title>
<path fill="none" stroke="midnightblue" d="M409.303,-112.444C437.351,-103.32 481.944,-88.8133 513.184,-78.6509"/>
<polygon fill="midnightblue" stroke="midnightblue" points="514.393,-81.9383 522.82,-75.5164 512.228,-75.2816 514.393,-81.9383"/>
</g>
<!-- Node16 -->
<g id="node16" class="node"><title>Node16</title>
<polygon fill="white" stroke="#bfbfbf" points="593.5,-56.5 593.5,-75.5 652.5,-75.5 652.5,-56.5 593.5,-56.5"/>
<text text-anchor="middle" x="623" y="-63.5" font-family="Helvetica,sans-Serif" font-size="10.00">inttypes.h</text>
</g>
<!-- Node9&#45;&gt;Node16 -->
<g id="edge17" class="edge"><title>Node9&#45;&gt;Node16</title>
<path fill="none" stroke="midnightblue" d="M421.55,-112.448C459.969,-103.908 520.924,-90.3106 583.192,-76.1725"/>
<polygon fill="midnightblue" stroke="midnightblue" points="584.218,-79.5286 593.194,-73.8994 582.667,-72.7027 584.218,-79.5286"/>
</g>
<!-- Node10&#45;&gt;Node11 -->
<g id="edge10" class="edge"><title>Node10&#45;&gt;Node11</title>
<path fill="none" stroke="midnightblue" d="M373.681,-56.324C365.107,-48.3414 352.188,-36.3128 341.812,-26.6529"/>
<polygon fill="midnightblue" stroke="midnightblue" points="344.192,-24.0865 334.488,-19.8339 339.422,-29.2098 344.192,-24.0865"/>
</g>
<!-- Node12 -->
<g id="node12" class="node"><title>Node12</title>
<polygon fill="white" stroke="#bfbfbf" points="366,-0.5 366,-19.5 418,-19.5 418,-0.5 366,-0.5"/>
<text text-anchor="middle" x="392" y="-7.5" font-family="Helvetica,sans-Serif" font-size="10.00">stdarg.h</text>
</g>
<!-- Node10&#45;&gt;Node12 -->
<g id="edge11" class="edge"><title>Node10&#45;&gt;Node12</title>
<path fill="none" stroke="midnightblue" d="M384.486,-56.083C385.679,-48.9272 387.394,-38.6353 388.885,-29.6911"/>
<polygon fill="midnightblue" stroke="midnightblue" points="392.35,-30.1904 390.541,-19.7511 385.445,-29.0396 392.35,-30.1904"/>
</g>
<!-- Node13 -->
<g id="node13" class="node"><title>Node13</title>
<polygon fill="white" stroke="#bfbfbf" points="436.5,-0.5 436.5,-19.5 485.5,-19.5 485.5,-0.5 436.5,-0.5"/>
<text text-anchor="middle" x="461" y="-7.5" font-family="Helvetica,sans-Serif" font-size="10.00">string.h</text>
</g>
<!-- Node10&#45;&gt;Node13 -->
<g id="edge12" class="edge"><title>Node10&#45;&gt;Node13</title>
<path fill="none" stroke="midnightblue" d="M395.532,-56.324C407.586,-47.979 426.027,-35.2122 440.269,-25.3524"/>
<polygon fill="midnightblue" stroke="midnightblue" points="442.269,-28.2243 448.499,-19.6545 438.285,-22.469 442.269,-28.2243"/>
</g>
</g>
</svg>
