<?xml version="1.0" encoding="UTF-8" standalone="no"?>
<!DOCTYPE svg PUBLIC "-//W3C//DTD SVG 1.1//EN"
 "http://www.w3.org/Graphics/SVG/1.1/DTD/svg11.dtd">
<!-- Generated by graphviz version 2.36.0 (20140111.2315)
 -->
<!-- Title: /home/travis/build/mgerhardy/simpleai/src/ai/conditions/IsInGroup.h Pages: 1 -->
<!--zoomable 542 -->
<svg id="main" version="1.1" xmlns="http://www.w3.org/2000/svg" xmlns:xlink="http://www.w3.org/1999/xlink" xml:space="preserve" onload="init(evt)">
<style type="text/css"><![CDATA[
.edge:hover path { stroke: red; }
.edge:hover polygon { stroke: red; fill: red; }
]]></style>
<script type="text/javascript"><![CDATA[
var edges = document.getElementsByTagName('g');
if (edges && edges.length) {
  for (var i=0;i<edges.length;i++) {
    if (edges[i].id.substr(0,4)=='edge') {
      edges[i].setAttribute('class','edge');
    }
  }
}
]]></script>
        <defs>
                <circle id="rim" cx="0" cy="0" r="7"/>
                <circle id="rim2" cx="0" cy="0" r="3.5"/>
                <g id="zoomPlus">
                        <use xlink:href="#rim" fill="#404040">
                                <set attributeName="fill" to="#808080" begin="zoomplus.mouseover" end="zoomplus.mouseout"/>
                        </use>
                        <path d="M-4,0h8M0,-4v8" fill="none" stroke="white" stroke-width="1.5" pointer-events="none"/>
                </g>
                <g id="zoomMin">
                        <use xlink:href="#rim" fill="#404040">
                                <set attributeName="fill" to="#808080" begin="zoomminus.mouseover" end="zoomminus.mouseout"/>
                        </use>
                        <path d="M-4,0h8" fill="none" stroke="white" stroke-width="1.5" pointer-events="none"/>
                </g>
                <g id="dirArrow">
                        <path fill="none" stroke="white" stroke-width="1.5" d="M0,-3.0v7 M-2.5,-0.5L0,-3.0L2.5,-0.5"/>
                </g>
               <g id="resetDef">
                       <use xlink:href="#rim2" fill="#404040">
                               <set attributeName="fill" to="#808080" begin="reset.mouseover" end="reset.mouseout"/>
                       </use>
               </g>
        </defs>

<script type="text/javascript">
var viewWidth = 1442;
var viewHeight = 542;
var sectionId = 'dynsection-1';
</script>
<script xlink:href="svgpan.js"/>
<svg id="graph" class="graph">
<g id="viewport">
<title>/home/travis/build/mgerhardy/simpleai/src/ai/conditions/IsInGroup.h</title>
<polygon fill="white" stroke="none" points="-4,4 -4,-538 1438,-538 1438,4 -4,4"/>
<!-- Node1 -->
<g id="node1" class="node"><title>Node1</title>
<polygon fill="#bfbfbf" stroke="black" points="1080.5,-492.5 1080.5,-533.5 1225.5,-533.5 1225.5,-492.5 1080.5,-492.5"/>
<text text-anchor="start" x="1088.5" y="-521.5" font-family="Helvetica,sans-Serif" font-size="10.00">/home/travis/build</text>
<text text-anchor="start" x="1088.5" y="-510.5" font-family="Helvetica,sans-Serif" font-size="10.00">/mgerhardy/simpleai</text>
<text text-anchor="middle" x="1153" y="-499.5" font-family="Helvetica,sans-Serif" font-size="10.00">/src/ai/conditions/IsInGroup.h</text>
</g>
<!-- Node2 -->
<g id="node2" class="node"><title>Node2</title>
<g id="a_node2"><a xlink:href="AIRegistry_8h.html" target="_top" xlink:title="/home/travis/build\l/mgerhardy/simpleai\l/src/ai/AIRegistry.h">
<polygon fill="white" stroke="black" points="1101,-414.5 1101,-455.5 1205,-455.5 1205,-414.5 1101,-414.5"/>
<text text-anchor="start" x="1109" y="-443.5" font-family="Helvetica,sans-Serif" font-size="10.00">/home/travis/build</text>
<text text-anchor="start" x="1109" y="-432.5" font-family="Helvetica,sans-Serif" font-size="10.00">/mgerhardy/simpleai</text>
<text text-anchor="middle" x="1153" y="-421.5" font-family="Helvetica,sans-Serif" font-size="10.00">/src/ai/AIRegistry.h</text>
</a>
</g>
</g>
<!-- Node1&#45;&gt;Node2 -->
<g id="edge1" class="edge"><title>Node1&#45;&gt;Node2</title>
<path fill="none" stroke="midnightblue" d="M1153,-482.297C1153,-473.301 1153,-463.653 1153,-455.506"/>
<polygon fill="midnightblue" stroke="midnightblue" points="1149.5,-482.428 1153,-492.428 1156.5,-482.428 1149.5,-482.428"/>
</g>
<!-- Node3 -->
<g id="node3" class="node"><title>Node3</title>
<g id="a_node3"><a xlink:href="ConditionParser_8h.html" target="_top" xlink:title="/home/travis/build\l/mgerhardy/simpleai\l/src/ai/conditions/Condition\lParser.h">
<polygon fill="white" stroke="black" points="971.5,-325 971.5,-377 1106.5,-377 1106.5,-325 971.5,-325"/>
<text text-anchor="start" x="979.5" y="-365" font-family="Helvetica,sans-Serif" font-size="10.00">/home/travis/build</text>
<text text-anchor="start" x="979.5" y="-354" font-family="Helvetica,sans-Serif" font-size="10.00">/mgerhardy/simpleai</text>
<text text-anchor="start" x="979.5" y="-343" font-family="Helvetica,sans-Serif" font-size="10.00">/src/ai/conditions/Condition</text>
<text text-anchor="middle" x="1039" y="-332" font-family="Helvetica,sans-Serif" font-size="10.00">Parser.h</text>
</a>
</g>
</g>
<!-- Node2&#45;&gt;Node3 -->
<g id="edge2" class="edge"><title>Node2&#45;&gt;Node3</title>
<path fill="none" stroke="midnightblue" d="M1117.35,-408.359C1103.49,-398.386 1087.65,-386.996 1073.86,-377.078"/>
<polygon fill="midnightblue" stroke="midnightblue" points="1115.53,-411.361 1125.69,-414.359 1119.62,-405.678 1115.53,-411.361"/>
</g>
<!-- Node4 -->
<g id="node4" class="node"><title>Node4</title>
<g id="a_node4"><a xlink:href="Server_8h.html" target="_top" xlink:title="/home/travis/build\l/mgerhardy/simpleai\l/src/ai/server/Server.h">
<polygon fill="white" stroke="black" points="740.5,-240.5 740.5,-281.5 853.5,-281.5 853.5,-240.5 740.5,-240.5"/>
<text text-anchor="start" x="748.5" y="-269.5" font-family="Helvetica,sans-Serif" font-size="10.00">/home/travis/build</text>
<text text-anchor="start" x="748.5" y="-258.5" font-family="Helvetica,sans-Serif" font-size="10.00">/mgerhardy/simpleai</text>
<text text-anchor="middle" x="797" y="-247.5" font-family="Helvetica,sans-Serif" font-size="10.00">/src/ai/server/Server.h</text>
</a>
</g>
</g>
<!-- Node2&#45;&gt;Node4 -->
<g id="edge24" class="edge"><title>Node2&#45;&gt;Node4</title>
<path fill="none" stroke="midnightblue" d="M1090.66,-421.191C1052.39,-412.01 1003.01,-397.758 962,-378 906.794,-351.402 849.961,-306.962 819.522,-281.502"/>
<polygon fill="midnightblue" stroke="midnightblue" points="1090.11,-424.656 1100.64,-423.531 1091.71,-417.84 1090.11,-424.656"/>
</g>
<!-- Node7 -->
<g id="node7" class="node"><title>Node7</title>
<g id="a_node7"><a xlink:href="SimpleAI_8h.html" target="_top" xlink:title="/home/travis/build\l/mgerhardy/simpleai\l/src/ai/SimpleAI.h">
<polygon fill="white" stroke="black" points="1195,-0.5 1195,-41.5 1299,-41.5 1299,-0.5 1195,-0.5"/>
<text text-anchor="start" x="1203" y="-29.5" font-family="Helvetica,sans-Serif" font-size="10.00">/home/travis/build</text>
<text text-anchor="start" x="1203" y="-18.5" font-family="Helvetica,sans-Serif" font-size="10.00">/mgerhardy/simpleai</text>
<text text-anchor="middle" x="1247" y="-7.5" font-family="Helvetica,sans-Serif" font-size="10.00">/src/ai/SimpleAI.h</text>
</a>
</g>
</g>
<!-- Node2&#45;&gt;Node7 -->
<g id="edge25" class="edge"><title>Node2&#45;&gt;Node7</title>
<path fill="none" stroke="midnightblue" d="M1190.35,-408.438C1229.38,-378.372 1285,-324.552 1285,-262 1285,-262 1285,-262 1285,-176 1285,-132.002 1282.88,-120.364 1271,-78 1267.52,-65.5748 1261.9,-52.2741 1256.98,-41.7543"/>
<polygon fill="midnightblue" stroke="midnightblue" points="1188.19,-405.682 1182.3,-414.488 1192.39,-411.278 1188.19,-405.682"/>
</g>
<!-- Node14 -->
<g id="node14" class="node"><title>Node14</title>
<g id="a_node14"><a xlink:href="LUATreeLoader_8h.html" target="_top" xlink:title="/home/travis/build\l/mgerhardy/simpleai\l/src/ai/tree/loaders\l/lua/LUATreeLoader.h">
<polygon fill="white" stroke="black" points="1097,-235 1097,-287 1209,-287 1209,-235 1097,-235"/>
<text text-anchor="start" x="1105" y="-275" font-family="Helvetica,sans-Serif" font-size="10.00">/home/travis/build</text>
<text text-anchor="start" x="1105" y="-264" font-family="Helvetica,sans-Serif" font-size="10.00">/mgerhardy/simpleai</text>
<text text-anchor="start" x="1105" y="-253" font-family="Helvetica,sans-Serif" font-size="10.00">/src/ai/tree/loaders</text>
<text text-anchor="middle" x="1153" y="-242" font-family="Helvetica,sans-Serif" font-size="10.00">/lua/LUATreeLoader.h</text>
</a>
</g>
</g>
<!-- Node2&#45;&gt;Node14 -->
<g id="edge26" class="edge"><title>Node2&#45;&gt;Node14</title>
<path fill="none" stroke="midnightblue" d="M1153,-404.263C1153,-371.131 1153,-318.145 1153,-287.045"/>
<polygon fill="midnightblue" stroke="midnightblue" points="1149.5,-404.269 1153,-414.269 1156.5,-404.269 1149.5,-404.269"/>
</g>
<!-- Node16 -->
<g id="node16" class="node"><title>Node16</title>
<g id="a_node16"><a xlink:href="LUAAIRegistry_8h_source.html" target="_top" xlink:title="/home/travis/build\l/mgerhardy/simpleai\l/src/ai/LUAAIRegistry.h">
<polygon fill="white" stroke="black" points="1313.5,-330.5 1313.5,-371.5 1434.5,-371.5 1434.5,-330.5 1313.5,-330.5"/>
<text text-anchor="start" x="1321.5" y="-359.5" font-family="Helvetica,sans-Serif" font-size="10.00">/home/travis/build</text>
<text text-anchor="start" x="1321.5" y="-348.5" font-family="Helvetica,sans-Serif" font-size="10.00">/mgerhardy/simpleai</text>
<text text-anchor="middle" x="1374" y="-337.5" font-family="Helvetica,sans-Serif" font-size="10.00">/src/ai/LUAAIRegistry.h</text>
</a>
</g>
</g>
<!-- Node2&#45;&gt;Node16 -->
<g id="edge23" class="edge"><title>Node2&#45;&gt;Node16</title>
<path fill="none" stroke="midnightblue" d="M1214.77,-411.082C1248.22,-398.668 1289.13,-383.49 1321.11,-371.626"/>
<polygon fill="midnightblue" stroke="midnightblue" points="1213.25,-407.911 1205.09,-414.671 1215.69,-414.474 1213.25,-407.911"/>
</g>
<!-- Node3&#45;&gt;Node4 -->
<g id="edge3" class="edge"><title>Node3&#45;&gt;Node4</title>
<path fill="none" stroke="midnightblue" d="M961.742,-321.906C925.631,-308.775 883.514,-293.46 850.905,-281.602"/>
<polygon fill="midnightblue" stroke="midnightblue" points="960.674,-325.242 971.268,-325.37 963.066,-318.663 960.674,-325.242"/>
</g>
<!-- Node3&#45;&gt;Node14 -->
<g id="edge21" class="edge"><title>Node3&#45;&gt;Node14</title>
<path fill="none" stroke="midnightblue" d="M1079.76,-318.534C1093.08,-308.254 1107.69,-296.979 1120.33,-287.221"/>
<polygon fill="midnightblue" stroke="midnightblue" points="1077.45,-315.902 1071.67,-324.783 1081.72,-321.443 1077.45,-315.902"/>
</g>
<!-- Node15 -->
<g id="node15" class="node"><title>Node15</title>
<g id="a_node15"><a xlink:href="XMLTreeLoader_8h.html" target="_top" xlink:title="/home/travis/build\l/mgerhardy/simpleai\l/src/ai/tree/loaders\l/xml/XMLTreeLoader.h">
<polygon fill="white" stroke="black" points="963,-235 963,-287 1079,-287 1079,-235 963,-235"/>
<text text-anchor="start" x="971" y="-275" font-family="Helvetica,sans-Serif" font-size="10.00">/home/travis/build</text>
<text text-anchor="start" x="971" y="-264" font-family="Helvetica,sans-Serif" font-size="10.00">/mgerhardy/simpleai</text>
<text text-anchor="start" x="971" y="-253" font-family="Helvetica,sans-Serif" font-size="10.00">/src/ai/tree/loaders</text>
<text text-anchor="middle" x="1021" y="-242" font-family="Helvetica,sans-Serif" font-size="10.00">/xml/XMLTreeLoader.h</text>
</a>
</g>
</g>
<!-- Node3&#45;&gt;Node15 -->
<g id="edge22" class="edge"><title>Node3&#45;&gt;Node15</title>
<path fill="none" stroke="midnightblue" d="M1031.74,-314.489C1029.86,-305.309 1027.88,-295.616 1026.13,-287.092"/>
<polygon fill="midnightblue" stroke="midnightblue" points="1028.36,-315.451 1033.79,-324.547 1035.22,-314.048 1028.36,-315.451"/>
</g>
<!-- Node5 -->
<g id="node5" class="node"><title>Node5</title>
<g id="a_node5"><a xlink:href="ChangeHandler_8h.html" target="_top" xlink:title="/home/travis/build\l/mgerhardy/simpleai\l/src/ai/server/ChangeHandler.h">
<polygon fill="white" stroke="black" points="0,-156.5 0,-197.5 152,-197.5 152,-156.5 0,-156.5"/>
<text text-anchor="start" x="8" y="-185.5" font-family="Helvetica,sans-Serif" font-size="10.00">/home/travis/build</text>
<text text-anchor="start" x="8" y="-174.5" font-family="Helvetica,sans-Serif" font-size="10.00">/mgerhardy/simpleai</text>
<text text-anchor="middle" x="76" y="-163.5" font-family="Helvetica,sans-Serif" font-size="10.00">/src/ai/server/ChangeHandler.h</text>
</a>
</g>
</g>
<!-- Node4&#45;&gt;Node5 -->
<g id="edge4" class="edge"><title>Node4&#45;&gt;Node5</title>
<path fill="none" stroke="midnightblue" d="M730.032,-256.086C614.427,-248.736 370.172,-230.594 166,-198 161.574,-197.293 157.04,-196.502 152.474,-195.653"/>
<polygon fill="midnightblue" stroke="midnightblue" points="729.944,-259.587 740.144,-256.722 730.383,-252.601 729.944,-259.587"/>
</g>
<!-- Node6 -->
<g id="node6" class="node"><title>Node6</title>
<g id="a_node6"><a xlink:href="ServerImpl_8h.html" target="_top" xlink:title="/home/travis/build\l/mgerhardy/simpleai\l/src/ai/server/ServerImpl.h">
<polygon fill="white" stroke="black" points="567,-78.5 567,-119.5 699,-119.5 699,-78.5 567,-78.5"/>
<text text-anchor="start" x="575" y="-107.5" font-family="Helvetica,sans-Serif" font-size="10.00">/home/travis/build</text>
<text text-anchor="start" x="575" y="-96.5" font-family="Helvetica,sans-Serif" font-size="10.00">/mgerhardy/simpleai</text>
<text text-anchor="middle" x="633" y="-85.5" font-family="Helvetica,sans-Serif" font-size="10.00">/src/ai/server/ServerImpl.h</text>
</a>
</g>
</g>
<!-- Node4&#45;&gt;Node6 -->
<g id="edge15" class="edge"><title>Node4&#45;&gt;Node6</title>
<path fill="none" stroke="midnightblue" d="M729.944,-258.005C581.222,-252.889 234.046,-236.867 199,-198 186.5,-184.137 186.674,-170.018 199,-156 222.891,-128.828 451.551,-111.086 566.997,-103.786"/>
<polygon fill="midnightblue" stroke="midnightblue" points="730.19,-261.515 740.302,-258.354 730.426,-254.519 730.19,-261.515"/>
</g>
<!-- Node4&#45;&gt;Node7 -->
<g id="edge20" class="edge"><title>Node4&#45;&gt;Node7</title>
<path fill="none" stroke="midnightblue" d="M863.65,-248.463C891.536,-243.766 924.307,-238.415 954,-234 1014.53,-225 1184.12,-241.656 1227,-198 1268.37,-155.876 1258.94,-77.9381 1251.63,-41.6018"/>
<polygon fill="midnightblue" stroke="midnightblue" points="862.888,-245.043 853.611,-250.161 864.055,-251.945 862.888,-245.043"/>
</g>
<!-- Node8 -->
<g id="node8" class="node"><title>Node8</title>
<g id="a_node8"><a xlink:href="DeleteNodeHandler_8h.html" target="_top" xlink:title="/home/travis/build\l/mgerhardy/simpleai\l/src/ai/server/DeleteNodeHandler.h">
<polygon fill="white" stroke="black" points="208,-156.5 208,-197.5 378,-197.5 378,-156.5 208,-156.5"/>
<text text-anchor="start" x="216" y="-185.5" font-family="Helvetica,sans-Serif" font-size="10.00">/home/travis/build</text>
<text text-anchor="start" x="216" y="-174.5" font-family="Helvetica,sans-Serif" font-size="10.00">/mgerhardy/simpleai</text>
<text text-anchor="middle" x="293" y="-163.5" font-family="Helvetica,sans-Serif" font-size="10.00">/src/ai/server/DeleteNodeHandler.h</text>
</a>
</g>
</g>
<!-- Node4&#45;&gt;Node8 -->
<g id="edge7" class="edge"><title>Node4&#45;&gt;Node8</title>
<path fill="none" stroke="midnightblue" d="M730.358,-251.165C649.066,-240.102 507.564,-219.922 387,-198 384.045,-197.463 381.041,-196.902 378.01,-196.324"/>
<polygon fill="midnightblue" stroke="midnightblue" points="730.072,-254.659 740.452,-252.534 731.013,-247.722 730.072,-254.659"/>
</g>
<!-- Node9 -->
<g id="node9" class="node"><title>Node9</title>
<g id="a_node9"><a xlink:href="PauseHandler_8h.html" target="_top" xlink:title="/home/travis/build\l/mgerhardy/simpleai\l/src/ai/server/PauseHandler.h">
<polygon fill="white" stroke="black" points="396,-156.5 396,-197.5 542,-197.5 542,-156.5 396,-156.5"/>
<text text-anchor="start" x="404" y="-185.5" font-family="Helvetica,sans-Serif" font-size="10.00">/home/travis/build</text>
<text text-anchor="start" x="404" y="-174.5" font-family="Helvetica,sans-Serif" font-size="10.00">/mgerhardy/simpleai</text>
<text text-anchor="middle" x="469" y="-163.5" font-family="Helvetica,sans-Serif" font-size="10.00">/src/ai/server/PauseHandler.h</text>
</a>
</g>
</g>
<!-- Node4&#45;&gt;Node9 -->
<g id="edge9" class="edge"><title>Node4&#45;&gt;Node9</title>
<path fill="none" stroke="midnightblue" d="M730.304,-243.326C675.624,-229.656 598.338,-210.335 542.007,-196.252"/>
<polygon fill="midnightblue" stroke="midnightblue" points="729.691,-246.78 740.241,-245.81 731.389,-239.989 729.691,-246.78"/>
</g>
<!-- Node10 -->
<g id="node10" class="node"><title>Node10</title>
<g id="a_node10"><a xlink:href="ResetHandler_8h.html" target="_top" xlink:title="/home/travis/build\l/mgerhardy/simpleai\l/src/ai/server/ResetHandler.h">
<polygon fill="white" stroke="black" points="560.5,-156.5 560.5,-197.5 705.5,-197.5 705.5,-156.5 560.5,-156.5"/>
<text text-anchor="start" x="568.5" y="-185.5" font-family="Helvetica,sans-Serif" font-size="10.00">/home/travis/build</text>
<text text-anchor="start" x="568.5" y="-174.5" font-family="Helvetica,sans-Serif" font-size="10.00">/mgerhardy/simpleai</text>
<text text-anchor="middle" x="633" y="-163.5" font-family="Helvetica,sans-Serif" font-size="10.00">/src/ai/server/ResetHandler.h</text>
</a>
</g>
</g>
<!-- Node4&#45;&gt;Node10 -->
<g id="edge11" class="edge"><title>Node4&#45;&gt;Node10</title>
<path fill="none" stroke="midnightblue" d="M748.646,-235.823C724.305,-223.652 695.178,-209.089 672.245,-197.623"/>
<polygon fill="midnightblue" stroke="midnightblue" points="747.208,-239.017 757.718,-240.359 750.339,-232.756 747.208,-239.017"/>
</g>
<!-- Node11 -->
<g id="node11" class="node"><title>Node11</title>
<g id="a_node11"><a xlink:href="SelectHandler_8h.html" target="_top" xlink:title="/home/travis/build\l/mgerhardy/simpleai\l/src/ai/server/SelectHandler.h">
<polygon fill="white" stroke="black" points="724,-156.5 724,-197.5 870,-197.5 870,-156.5 724,-156.5"/>
<text text-anchor="start" x="732" y="-185.5" font-family="Helvetica,sans-Serif" font-size="10.00">/home/travis/build</text>
<text text-anchor="start" x="732" y="-174.5" font-family="Helvetica,sans-Serif" font-size="10.00">/mgerhardy/simpleai</text>
<text text-anchor="middle" x="797" y="-163.5" font-family="Helvetica,sans-Serif" font-size="10.00">/src/ai/server/SelectHandler.h</text>
</a>
</g>
</g>
<!-- Node4&#45;&gt;Node11 -->
<g id="edge13" class="edge"><title>Node4&#45;&gt;Node11</title>
<path fill="none" stroke="midnightblue" d="M797,-229.881C797,-219.133 797,-207.309 797,-197.667"/>
<polygon fill="midnightblue" stroke="midnightblue" points="793.5,-230.15 797,-240.15 800.5,-230.15 793.5,-230.15"/>
</g>
<!-- Node12 -->
<g id="node12" class="node"><title>Node12</title>
<g id="a_node12"><a xlink:href="StepHandler_8h.html" target="_top" xlink:title="/home/travis/build\l/mgerhardy/simpleai\l/src/ai/server/StepHandler.h">
<polygon fill="white" stroke="black" points="888.5,-156.5 888.5,-197.5 1027.5,-197.5 1027.5,-156.5 888.5,-156.5"/>
<text text-anchor="start" x="896.5" y="-185.5" font-family="Helvetica,sans-Serif" font-size="10.00">/home/travis/build</text>
<text text-anchor="start" x="896.5" y="-174.5" font-family="Helvetica,sans-Serif" font-size="10.00">/mgerhardy/simpleai</text>
<text text-anchor="middle" x="958" y="-163.5" font-family="Helvetica,sans-Serif" font-size="10.00">/src/ai/server/StepHandler.h</text>
</a>
</g>
</g>
<!-- Node4&#45;&gt;Node12 -->
<g id="edge16" class="edge"><title>Node4&#45;&gt;Node12</title>
<path fill="none" stroke="midnightblue" d="M844.785,-235.662C868.617,-223.524 897.058,-209.039 919.472,-197.623"/>
<polygon fill="midnightblue" stroke="midnightblue" points="842.886,-232.702 835.564,-240.359 846.063,-238.939 842.886,-232.702"/>
</g>
<!-- Node13 -->
<g id="node13" class="node"><title>Node13</title>
<g id="a_node13"><a xlink:href="UpdateNodeHandler_8h.html" target="_top" xlink:title="/home/travis/build\l/mgerhardy/simpleai\l/src/ai/server/UpdateNodeHandler.h">
<polygon fill="white" stroke="black" points="1045.5,-156.5 1045.5,-197.5 1218.5,-197.5 1218.5,-156.5 1045.5,-156.5"/>
<text text-anchor="start" x="1053.5" y="-185.5" font-family="Helvetica,sans-Serif" font-size="10.00">/home/travis/build</text>
<text text-anchor="start" x="1053.5" y="-174.5" font-family="Helvetica,sans-Serif" font-size="10.00">/mgerhardy/simpleai</text>
<text text-anchor="middle" x="1132" y="-163.5" font-family="Helvetica,sans-Serif" font-size="10.00">/src/ai/server/UpdateNodeHandler.h</text>
</a>
</g>
</g>
<!-- Node4&#45;&gt;Node13 -->
<g id="edge18" class="edge"><title>Node4&#45;&gt;Node13</title>
<path fill="none" stroke="midnightblue" d="M863.691,-243.676C917.967,-230.39 994.729,-211.601 1052.25,-197.521"/>
<polygon fill="midnightblue" stroke="midnightblue" points="862.709,-240.313 853.828,-246.09 864.374,-247.112 862.709,-240.313"/>
</g>
<!-- Node5&#45;&gt;Node6 -->
<g id="edge5" class="edge"><title>Node5&#45;&gt;Node6</title>
<path fill="none" stroke="midnightblue" d="M162.113,-156.677C163.417,-156.445 164.713,-156.22 166,-156 308.072,-131.758 476.226,-114.324 566.965,-105.834"/>
<polygon fill="midnightblue" stroke="midnightblue" points="161.197,-153.287 152.004,-158.553 162.475,-160.17 161.197,-153.287"/>
</g>
<!-- Node6&#45;&gt;Node7 -->
<g id="edge6" class="edge"><title>Node6&#45;&gt;Node7</title>
<path fill="none" stroke="midnightblue" d="M708.998,-88.5931C835.48,-72.9373 1086,-41.9289 1194.67,-28.4774"/>
<polygon fill="midnightblue" stroke="midnightblue" points="708.494,-85.1286 699,-89.8306 709.354,-92.0756 708.494,-85.1286"/>
</g>
<!-- Node8&#45;&gt;Node6 -->
<g id="edge8" class="edge"><title>Node8&#45;&gt;Node6</title>
<path fill="none" stroke="midnightblue" d="M388.45,-154.664C445.354,-141.944 516.155,-126.118 566.91,-114.773"/>
<polygon fill="midnightblue" stroke="midnightblue" points="387.353,-151.323 378.357,-156.92 388.88,-158.154 387.353,-151.323"/>
</g>
<!-- Node9&#45;&gt;Node6 -->
<g id="edge10" class="edge"><title>Node9&#45;&gt;Node6</title>
<path fill="none" stroke="midnightblue" d="M520.382,-152.189C543.07,-141.675 569.41,-129.469 590.909,-119.506"/>
<polygon fill="midnightblue" stroke="midnightblue" points="518.836,-149.048 511.234,-156.428 521.779,-155.399 518.836,-149.048"/>
</g>
<!-- Node10&#45;&gt;Node6 -->
<g id="edge12" class="edge"><title>Node10&#45;&gt;Node6</title>
<path fill="none" stroke="midnightblue" d="M633,-146.297C633,-137.301 633,-127.653 633,-119.506"/>
<polygon fill="midnightblue" stroke="midnightblue" points="629.5,-146.428 633,-156.428 636.5,-146.428 629.5,-146.428"/>
</g>
<!-- Node11&#45;&gt;Node6 -->
<g id="edge14" class="edge"><title>Node11&#45;&gt;Node6</title>
<path fill="none" stroke="midnightblue" d="M745.618,-152.189C722.93,-141.675 696.59,-129.469 675.091,-119.506"/>
<polygon fill="midnightblue" stroke="midnightblue" points="744.221,-155.399 754.766,-156.428 747.164,-149.048 744.221,-155.399"/>
</g>
<!-- Node12&#45;&gt;Node6 -->
<g id="edge17" class="edge"><title>Node12&#45;&gt;Node6</title>
<path fill="none" stroke="midnightblue" d="M878.393,-155.879C811.735,-139.923 746.397,-125.14 699.141,-114.602"/>
<polygon fill="midnightblue" stroke="midnightblue" points="877.695,-159.31 888.236,-158.241 879.329,-152.504 877.695,-159.31"/>
</g>
<!-- Node13&#45;&gt;Node6 -->
<g id="edge19" class="edge"><title>Node13&#45;&gt;Node6</title>
<path fill="none" stroke="midnightblue" d="M1035.33,-155.943C910.585,-134.569 777.09,-117.313 699.179,-107.809"/>
<polygon fill="midnightblue" stroke="midnightblue" points="1034.99,-159.436 1045.44,-157.688 1036.19,-152.538 1034.99,-159.436"/>
</g>
</g>
</svg>
        <g id="navigator" transform="translate(0 0)" fill="#404254">
                <rect fill="#f2f5e9" fill-opacity="0.5" stroke="#606060" stroke-width=".5" x="0" y="0" width="60" height="60"/>
                <use id="zoomplus" xlink:href="#zoomPlus" x="17" y="9" onmousedown="handleZoom(evt,'in')"/>
                <use id="zoomminus" xlink:href="#zoomMin" x="42" y="9" onmousedown="handleZoom(evt,'out')"/>
                <use id="reset" xlink:href="#resetDef" x="30" y="36" onmousedown="handleReset()"/>
                <g id="arrowUp" xlink:href="#dirArrow" transform="translate(30 24)" onmousedown="handlePan(0,-1)">
                  <use xlink:href="#rim" fill="#404040">
                        <set attributeName="fill" to="#808080" begin="arrowUp.mouseover" end="arrowUp.mouseout"/>
                  </use>
                  <path fill="none" stroke="white" stroke-width="1.5" d="M0,-3.0v7 M-2.5,-0.5L0,-3.0L2.5,-0.5"/>
                </g>
                <g id="arrowRight" xlink:href="#dirArrow" transform="rotate(90) translate(36 -43)" onmousedown="handlePan(1,0)">
                  <use xlink:href="#rim" fill="#404040">
                        <set attributeName="fill" to="#808080" begin="arrowRight.mouseover" end="arrowRight.mouseout"/>
                  </use>
                  <path fill="none" stroke="white" stroke-width="1.5" d="M0,-3.0v7 M-2.5,-0.5L0,-3.0L2.5,-0.5"/>
                </g>
                <g id="arrowDown" xlink:href="#dirArrow" transform="rotate(180) translate(-30 -48)" onmousedown="handlePan(0,1)">
                  <use xlink:href="#rim" fill="#404040">
                        <set attributeName="fill" to="#808080" begin="arrowDown.mouseover" end="arrowDown.mouseout"/>
                  </use>
                  <path fill="none" stroke="white" stroke-width="1.5" d="M0,-3.0v7 M-2.5,-0.5L0,-3.0L2.5,-0.5"/>
                </g>
                <g id="arrowLeft" xlink:href="#dirArrow" transform="rotate(270) translate(-36 17)" onmousedown="handlePan(-1,0)">
                  <use xlink:href="#rim" fill="#404040">
                        <set attributeName="fill" to="#808080" begin="arrowLeft.mouseover" end="arrowLeft.mouseout"/>
                  </use>
                  <path fill="none" stroke="white" stroke-width="1.5" d="M0,-3.0v7 M-2.5,-0.5L0,-3.0L2.5,-0.5"/>
                </g>
        </g>
        <svg viewBox="0 0 15 15" width="100%" height="30px" preserveAspectRatio="xMaxYMin meet">
         <g id="arrow_out" transform="scale(0.3 0.3)">
          <a xlink:href="IsInGroup_8h__dep__incl_org.svg" target="_base">
           <rect id="button" ry="5" rx="5" y="6" x="6" height="38" width="38"
                fill="#f2f5e9" fill-opacity="0.5" stroke="#606060" stroke-width="1.0"/>
           <path id="arrow"
             d="M 11.500037,31.436501 C 11.940474,20.09759 22.043105,11.32322 32.158766,21.979434 L 37.068811,17.246167 C 37.068811,17.246167 37.088388,32 37.088388,32 L 22.160133,31.978069 C 22.160133,31.978069 26.997745,27.140456 26.997745,27.140456 C 18.528582,18.264221 13.291696,25.230495 11.500037,31.436501 z"
             style="fill:#404040;"/>
          </a>
         </g>
        </svg>
</svg>
