<?xml version="1.0" encoding="UTF-8" standalone="no"?>
<!DOCTYPE svg PUBLIC "-//W3C//DTD SVG 1.1//EN"
 "http://www.w3.org/Graphics/SVG/1.1/DTD/svg11.dtd">
<!-- Generated by graphviz version 2.36.0 (20140111.2315)
 -->
<!-- Title: /home/travis/build/mgerhardy/simpleai/src/ai/tree/ITask.h Pages: 1 -->
<!--zoomable 620 -->
<svg id="main" version="1.1" xmlns="http://www.w3.org/2000/svg" xmlns:xlink="http://www.w3.org/1999/xlink" xml:space="preserve" onload="init(evt)">
<style type="text/css"><![CDATA[
.edge:hover path { stroke: red; }
.edge:hover polygon { stroke: red; fill: red; }
]]></style>
<script type="text/javascript"><![CDATA[
var edges = document.getElementsByTagName('g');
if (edges && edges.length) {
  for (var i=0;i<edges.length;i++) {
    if (edges[i].id.substr(0,4)=='edge') {
      edges[i].setAttribute('class','edge');
    }
  }
}
]]></script>
        <defs>
                <circle id="rim" cx="0" cy="0" r="7"/>
                <circle id="rim2" cx="0" cy="0" r="3.5"/>
                <g id="zoomPlus">
                        <use xlink:href="#rim" fill="#404040">
                                <set attributeName="fill" to="#808080" begin="zoomplus.mouseover" end="zoomplus.mouseout"/>
                        </use>
                        <path d="M-4,0h8M0,-4v8" fill="none" stroke="white" stroke-width="1.5" pointer-events="none"/>
                </g>
                <g id="zoomMin">
                        <use xlink:href="#rim" fill="#404040">
                                <set attributeName="fill" to="#808080" begin="zoomminus.mouseover" end="zoomminus.mouseout"/>
                        </use>
                        <path d="M-4,0h8" fill="none" stroke="white" stroke-width="1.5" pointer-events="none"/>
                </g>
                <g id="dirArrow">
                        <path fill="none" stroke="white" stroke-width="1.5" d="M0,-3.0v7 M-2.5,-0.5L0,-3.0L2.5,-0.5"/>
                </g>
               <g id="resetDef">
                       <use xlink:href="#rim2" fill="#404040">
                               <set attributeName="fill" to="#808080" begin="reset.mouseover" end="reset.mouseout"/>
                       </use>
               </g>
        </defs>

<script type="text/javascript">
var viewWidth = 1470;
var viewHeight = 620;
var sectionId = 'dynsection-1';
</script>
<script xlink:href="svgpan.js"/>
<svg id="graph" class="graph">
<g id="viewport">
<title>/home/travis/build/mgerhardy/simpleai/src/ai/tree/ITask.h</title>
<polygon fill="white" stroke="none" points="-4,4 -4,-616 1466,-616 1466,4 -4,4"/>
<!-- Node1 -->
<g id="node1" class="node"><title>Node1</title>
<polygon fill="#bfbfbf" stroke="black" points="143,-570.5 143,-611.5 247,-611.5 247,-570.5 143,-570.5"/>
<text text-anchor="start" x="151" y="-599.5" font-family="Helvetica,sans-Serif" font-size="10.00">/home/travis/build</text>
<text text-anchor="start" x="151" y="-588.5" font-family="Helvetica,sans-Serif" font-size="10.00">/mgerhardy/simpleai</text>
<text text-anchor="middle" x="195" y="-577.5" font-family="Helvetica,sans-Serif" font-size="10.00">/src/ai/tree/ITask.h</text>
</g>
<!-- Node2 -->
<g id="node2" class="node"><title>Node2</title>
<g id="a_node2"><a xlink:href="Steer_8h.html" target="_top" xlink:title="/home/travis/build\l/mgerhardy/simpleai\l/src/ai/tree/Steer.h">
<polygon fill="white" stroke="black" points="352,-492.5 352,-533.5 456,-533.5 456,-492.5 352,-492.5"/>
<text text-anchor="start" x="360" y="-521.5" font-family="Helvetica,sans-Serif" font-size="10.00">/home/travis/build</text>
<text text-anchor="start" x="360" y="-510.5" font-family="Helvetica,sans-Serif" font-size="10.00">/mgerhardy/simpleai</text>
<text text-anchor="middle" x="404" y="-499.5" font-family="Helvetica,sans-Serif" font-size="10.00">/src/ai/tree/Steer.h</text>
</a>
</g>
</g>
<!-- Node1&#45;&gt;Node2 -->
<g id="edge1" class="edge"><title>Node1&#45;&gt;Node2</title>
<path fill="none" stroke="midnightblue" d="M256.786,-567.532C286.984,-556.551 322.929,-543.48 351.741,-533.003"/>
<polygon fill="midnightblue" stroke="midnightblue" points="255.402,-564.311 247.2,-571.018 257.794,-570.89 255.402,-564.311"/>
</g>
<!-- Node8 -->
<g id="node8" class="node"><title>Node8</title>
<g id="a_node8"><a xlink:href="SimpleAI_8h.html" target="_top" xlink:title="/home/travis/build\l/mgerhardy/simpleai\l/src/ai/SimpleAI.h">
<polygon fill="white" stroke="black" points="681,-0.5 681,-41.5 785,-41.5 785,-0.5 681,-0.5"/>
<text text-anchor="start" x="689" y="-29.5" font-family="Helvetica,sans-Serif" font-size="10.00">/home/travis/build</text>
<text text-anchor="start" x="689" y="-18.5" font-family="Helvetica,sans-Serif" font-size="10.00">/mgerhardy/simpleai</text>
<text text-anchor="middle" x="733" y="-7.5" font-family="Helvetica,sans-Serif" font-size="10.00">/src/ai/SimpleAI.h</text>
</a>
</g>
</g>
<!-- Node1&#45;&gt;Node8 -->
<g id="edge35" class="edge"><title>Node1&#45;&gt;Node8</title>
<path fill="none" stroke="midnightblue" d="M133.648,-570.528C76.4814,-548.096 0,-505.162 0,-436 0,-436 0,-436 0,-176 0,-118.052 34.2939,-104.163 86,-78 189.745,-25.5058 546.287,-21.2477 680.947,-21.5752"/>
<polygon fill="midnightblue" stroke="midnightblue" points="132.409,-573.801 143,-574.085 134.897,-567.259 132.409,-573.801"/>
</g>
<!-- Node3 -->
<g id="node3" class="node"><title>Node3</title>
<g id="a_node3"><a xlink:href="AIRegistry_8h.html" target="_top" xlink:title="/home/travis/build\l/mgerhardy/simpleai\l/src/ai/AIRegistry.h">
<polygon fill="white" stroke="black" points="433,-414.5 433,-455.5 537,-455.5 537,-414.5 433,-414.5"/>
<text text-anchor="start" x="441" y="-443.5" font-family="Helvetica,sans-Serif" font-size="10.00">/home/travis/build</text>
<text text-anchor="start" x="441" y="-432.5" font-family="Helvetica,sans-Serif" font-size="10.00">/mgerhardy/simpleai</text>
<text text-anchor="middle" x="485" y="-421.5" font-family="Helvetica,sans-Serif" font-size="10.00">/src/ai/AIRegistry.h</text>
</a>
</g>
</g>
<!-- Node2&#45;&gt;Node3 -->
<g id="edge2" class="edge"><title>Node2&#45;&gt;Node3</title>
<path fill="none" stroke="midnightblue" d="M432.252,-485.492C442.763,-475.629 454.489,-464.627 464.211,-455.506"/>
<polygon fill="midnightblue" stroke="midnightblue" points="429.757,-483.033 424.86,-492.428 434.547,-488.138 429.757,-483.033"/>
</g>
<!-- Node2&#45;&gt;Node8 -->
<g id="edge29" class="edge"><title>Node2&#45;&gt;Node8</title>
<path fill="none" stroke="midnightblue" d="M466.169,-509.204C692.878,-498.193 1462,-453.37 1462,-352 1462,-352 1462,-352 1462,-176 1462,-37.5086 951.986,-22.9531 785.135,-21.8969"/>
<polygon fill="midnightblue" stroke="midnightblue" points="465.926,-505.711 456.106,-509.688 466.262,-512.703 465.926,-505.711"/>
</g>
<!-- Node18 -->
<g id="node18" class="node"><title>Node18</title>
<g id="a_node18"><a xlink:href="TreeNodeParser_8h.html" target="_top" xlink:title="/home/travis/build\l/mgerhardy/simpleai\l/src/ai/tree/TreeNodeParser.h">
<polygon fill="white" stroke="black" points="153,-330.5 153,-371.5 299,-371.5 299,-330.5 153,-330.5"/>
<text text-anchor="start" x="161" y="-359.5" font-family="Helvetica,sans-Serif" font-size="10.00">/home/travis/build</text>
<text text-anchor="start" x="161" y="-348.5" font-family="Helvetica,sans-Serif" font-size="10.00">/mgerhardy/simpleai</text>
<text text-anchor="middle" x="226" y="-337.5" font-family="Helvetica,sans-Serif" font-size="10.00">/src/ai/tree/TreeNodeParser.h</text>
</a>
</g>
</g>
<!-- Node2&#45;&gt;Node18 -->
<g id="edge30" class="edge"><title>Node2&#45;&gt;Node18</title>
<path fill="none" stroke="midnightblue" d="M374.499,-485.482C338.794,-453.388 279.516,-400.104 247.726,-371.529"/>
<polygon fill="midnightblue" stroke="midnightblue" points="372.397,-488.299 382.174,-492.381 377.076,-483.093 372.397,-488.299"/>
</g>
<!-- Node4 -->
<g id="node4" class="node"><title>Node4</title>
<g id="a_node4"><a xlink:href="ConditionParser_8h.html" target="_top" xlink:title="/home/travis/build\l/mgerhardy/simpleai\l/src/ai/conditions/Condition\lParser.h">
<polygon fill="white" stroke="black" points="355.5,-325 355.5,-377 490.5,-377 490.5,-325 355.5,-325"/>
<text text-anchor="start" x="363.5" y="-365" font-family="Helvetica,sans-Serif" font-size="10.00">/home/travis/build</text>
<text text-anchor="start" x="363.5" y="-354" font-family="Helvetica,sans-Serif" font-size="10.00">/mgerhardy/simpleai</text>
<text text-anchor="start" x="363.5" y="-343" font-family="Helvetica,sans-Serif" font-size="10.00">/src/ai/conditions/Condition</text>
<text text-anchor="middle" x="423" y="-332" font-family="Helvetica,sans-Serif" font-size="10.00">Parser.h</text>
</a>
</g>
</g>
<!-- Node3&#45;&gt;Node4 -->
<g id="edge3" class="edge"><title>Node3&#45;&gt;Node4</title>
<path fill="none" stroke="midnightblue" d="M463.789,-405.946C456.753,-396.641 448.967,-386.344 442.1,-377.261"/>
<polygon fill="midnightblue" stroke="midnightblue" points="461.169,-408.284 469.992,-414.15 466.752,-404.063 461.169,-408.284"/>
</g>
<!-- Node5 -->
<g id="node5" class="node"><title>Node5</title>
<g id="a_node5"><a xlink:href="Server_8h.html" target="_top" xlink:title="/home/travis/build\l/mgerhardy/simpleai\l/src/ai/server/Server.h">
<polygon fill="white" stroke="black" points="591.5,-240.5 591.5,-281.5 704.5,-281.5 704.5,-240.5 591.5,-240.5"/>
<text text-anchor="start" x="599.5" y="-269.5" font-family="Helvetica,sans-Serif" font-size="10.00">/home/travis/build</text>
<text text-anchor="start" x="599.5" y="-258.5" font-family="Helvetica,sans-Serif" font-size="10.00">/mgerhardy/simpleai</text>
<text text-anchor="middle" x="648" y="-247.5" font-family="Helvetica,sans-Serif" font-size="10.00">/src/ai/server/Server.h</text>
</a>
</g>
</g>
<!-- Node3&#45;&gt;Node5 -->
<g id="edge26" class="edge"><title>Node3&#45;&gt;Node5</title>
<path fill="none" stroke="midnightblue" d="M510.778,-406.799C543.854,-371.896 600.425,-312.202 629.52,-281.5"/>
<polygon fill="midnightblue" stroke="midnightblue" points="508.036,-404.603 503.698,-414.269 513.117,-409.418 508.036,-404.603"/>
</g>
<!-- Node3&#45;&gt;Node8 -->
<g id="edge27" class="edge"><title>Node3&#45;&gt;Node8</title>
<path fill="none" stroke="midnightblue" d="M547.422,-426.676C729.013,-403.964 1250.48,-328.305 1350,-198 1410.37,-118.951 1267.14,-89.5613 1236,-78 1154.24,-47.6499 896.855,-30.6972 785.355,-24.6129"/>
<polygon fill="midnightblue" stroke="midnightblue" points="546.73,-423.235 537.236,-427.939 547.591,-430.182 546.73,-423.235"/>
</g>
<!-- Node15 -->
<g id="node15" class="node"><title>Node15</title>
<g id="a_node15"><a xlink:href="LUATreeLoader_8h.html" target="_top" xlink:title="/home/travis/build\l/mgerhardy/simpleai\l/src/ai/tree/loaders\l/lua/LUATreeLoader.h">
<polygon fill="white" stroke="black" points="257,-235 257,-287 369,-287 369,-235 257,-235"/>
<text text-anchor="start" x="265" y="-275" font-family="Helvetica,sans-Serif" font-size="10.00">/home/travis/build</text>
<text text-anchor="start" x="265" y="-264" font-family="Helvetica,sans-Serif" font-size="10.00">/mgerhardy/simpleai</text>
<text text-anchor="start" x="265" y="-253" font-family="Helvetica,sans-Serif" font-size="10.00">/src/ai/tree/loaders</text>
<text text-anchor="middle" x="313" y="-242" font-family="Helvetica,sans-Serif" font-size="10.00">/lua/LUATreeLoader.h</text>
</a>
</g>
</g>
<!-- Node3&#45;&gt;Node15 -->
<g id="edge28" class="edge"><title>Node3&#45;&gt;Node15</title>
<path fill="none" stroke="midnightblue" d="M423.08,-421.971C396.032,-413.78 365.989,-400.224 346,-378 323.317,-352.78 316.128,-313.027 313.906,-287.233"/>
<polygon fill="midnightblue" stroke="midnightblue" points="422.309,-425.39 432.885,-424.752 424.22,-418.656 422.309,-425.39"/>
</g>
<!-- Node17 -->
<g id="node17" class="node"><title>Node17</title>
<g id="a_node17"><a xlink:href="LUAAIRegistry_8h_source.html" target="_top" xlink:title="/home/travis/build\l/mgerhardy/simpleai\l/src/ai/LUAAIRegistry.h">
<polygon fill="white" stroke="black" points="1312.5,-330.5 1312.5,-371.5 1433.5,-371.5 1433.5,-330.5 1312.5,-330.5"/>
<text text-anchor="start" x="1320.5" y="-359.5" font-family="Helvetica,sans-Serif" font-size="10.00">/home/travis/build</text>
<text text-anchor="start" x="1320.5" y="-348.5" font-family="Helvetica,sans-Serif" font-size="10.00">/mgerhardy/simpleai</text>
<text text-anchor="middle" x="1373" y="-337.5" font-family="Helvetica,sans-Serif" font-size="10.00">/src/ai/LUAAIRegistry.h</text>
</a>
</g>
</g>
<!-- Node3&#45;&gt;Node17 -->
<g id="edge25" class="edge"><title>Node3&#45;&gt;Node17</title>
<path fill="none" stroke="midnightblue" d="M547.581,-431.833C712.228,-425.789 1154.64,-407.246 1298,-378 1305.97,-376.375 1314.24,-374.118 1322.27,-371.606"/>
<polygon fill="midnightblue" stroke="midnightblue" points="547.01,-428.351 537.144,-432.213 547.264,-435.347 547.01,-428.351"/>
</g>
<!-- Node4&#45;&gt;Node5 -->
<g id="edge4" class="edge"><title>Node4&#45;&gt;Node5</title>
<path fill="none" stroke="midnightblue" d="M496.838,-321.121C530.017,-308.144 568.304,-293.17 598.044,-281.538"/>
<polygon fill="midnightblue" stroke="midnightblue" points="495.213,-317.998 487.175,-324.901 497.763,-324.518 495.213,-317.998"/>
</g>
<!-- Node4&#45;&gt;Node8 -->
<g id="edge22" class="edge"><title>Node4&#45;&gt;Node8</title>
<path fill="none" stroke="midnightblue" d="M418.623,-314.714C413.381,-288.237 401.928,-253.351 377,-234 274.279,-154.258 13.0415,-256.961 95,-156 169.008,-64.8331 542.199,-33.4201 680.948,-24.7898"/>
<polygon fill="midnightblue" stroke="midnightblue" points="415.211,-315.52 420.399,-324.757 422.104,-314.301 415.211,-315.52"/>
</g>
<!-- Node4&#45;&gt;Node15 -->
<g id="edge23" class="edge"><title>Node4&#45;&gt;Node15</title>
<path fill="none" stroke="midnightblue" d="M383.667,-318.534C370.818,-308.254 356.724,-296.979 344.526,-287.221"/>
<polygon fill="midnightblue" stroke="midnightblue" points="381.483,-321.269 391.478,-324.783 385.856,-315.803 381.483,-321.269"/>
</g>
<!-- Node16 -->
<g id="node16" class="node"><title>Node16</title>
<g id="a_node16"><a xlink:href="XMLTreeLoader_8h.html" target="_top" xlink:title="/home/travis/build\l/mgerhardy/simpleai\l/src/ai/tree/loaders\l/xml/XMLTreeLoader.h">
<polygon fill="white" stroke="black" points="123,-235 123,-287 239,-287 239,-235 123,-235"/>
<text text-anchor="start" x="131" y="-275" font-family="Helvetica,sans-Serif" font-size="10.00">/home/travis/build</text>
<text text-anchor="start" x="131" y="-264" font-family="Helvetica,sans-Serif" font-size="10.00">/mgerhardy/simpleai</text>
<text text-anchor="start" x="131" y="-253" font-family="Helvetica,sans-Serif" font-size="10.00">/src/ai/tree/loaders</text>
<text text-anchor="middle" x="181" y="-242" font-family="Helvetica,sans-Serif" font-size="10.00">/xml/XMLTreeLoader.h</text>
</a>
</g>
</g>
<!-- Node4&#45;&gt;Node16 -->
<g id="edge24" class="edge"><title>Node4&#45;&gt;Node16</title>
<path fill="none" stroke="midnightblue" d="M345.395,-323.061C314.954,-312.35 279.767,-299.788 248,-288 245.076,-286.915 242.083,-285.794 239.065,-284.654"/>
<polygon fill="midnightblue" stroke="midnightblue" points="344.506,-326.459 355.101,-326.471 346.826,-319.855 344.506,-326.459"/>
</g>
<!-- Node6 -->
<g id="node6" class="node"><title>Node6</title>
<g id="a_node6"><a xlink:href="ChangeHandler_8h.html" target="_top" xlink:title="/home/travis/build\l/mgerhardy/simpleai\l/src/ai/server/ChangeHandler.h">
<polygon fill="white" stroke="black" points="819,-156.5 819,-197.5 971,-197.5 971,-156.5 819,-156.5"/>
<text text-anchor="start" x="827" y="-185.5" font-family="Helvetica,sans-Serif" font-size="10.00">/home/travis/build</text>
<text text-anchor="start" x="827" y="-174.5" font-family="Helvetica,sans-Serif" font-size="10.00">/mgerhardy/simpleai</text>
<text text-anchor="middle" x="895" y="-163.5" font-family="Helvetica,sans-Serif" font-size="10.00">/src/ai/server/ChangeHandler.h</text>
</a>
</g>
</g>
<!-- Node5&#45;&gt;Node6 -->
<g id="edge5" class="edge"><title>Node5&#45;&gt;Node6</title>
<path fill="none" stroke="midnightblue" d="M714.588,-237.894C752.463,-225.32 799.48,-209.711 836.019,-197.581"/>
<polygon fill="midnightblue" stroke="midnightblue" points="713.055,-234.715 704.667,-241.188 715.26,-241.358 713.055,-234.715"/>
</g>
<!-- Node7 -->
<g id="node7" class="node"><title>Node7</title>
<g id="a_node7"><a xlink:href="ServerImpl_8h.html" target="_top" xlink:title="/home/travis/build\l/mgerhardy/simpleai\l/src/ai/server/ServerImpl.h">
<polygon fill="white" stroke="black" points="667,-78.5 667,-119.5 799,-119.5 799,-78.5 667,-78.5"/>
<text text-anchor="start" x="675" y="-107.5" font-family="Helvetica,sans-Serif" font-size="10.00">/home/travis/build</text>
<text text-anchor="start" x="675" y="-96.5" font-family="Helvetica,sans-Serif" font-size="10.00">/mgerhardy/simpleai</text>
<text text-anchor="middle" x="733" y="-85.5" font-family="Helvetica,sans-Serif" font-size="10.00">/src/ai/server/ServerImpl.h</text>
</a>
</g>
</g>
<!-- Node5&#45;&gt;Node7 -->
<g id="edge16" class="edge"><title>Node5&#45;&gt;Node7</title>
<path fill="none" stroke="midnightblue" d="M714.136,-242.216C736.113,-232.814 758.218,-218.757 771,-198 786.501,-172.828 767.166,-140.27 750.878,-119.754"/>
<polygon fill="midnightblue" stroke="midnightblue" points="712.74,-239.004 704.753,-245.966 715.337,-245.505 712.74,-239.004"/>
</g>
<!-- Node5&#45;&gt;Node8 -->
<g id="edge21" class="edge"><title>Node5&#45;&gt;Node8</title>
<path fill="none" stroke="midnightblue" d="M715.187,-258.941C879.433,-255.659 1290.91,-242.984 1332,-198 1344.59,-184.218 1343.67,-170.569 1332,-156 1263.46,-70.4378 918.169,-35.8527 785.255,-25.572"/>
<polygon fill="midnightblue" stroke="midnightblue" points="714.662,-255.451 704.732,-259.144 714.798,-262.449 714.662,-255.451"/>
</g>
<!-- Node9 -->
<g id="node9" class="node"><title>Node9</title>
<g id="a_node9"><a xlink:href="DeleteNodeHandler_8h.html" target="_top" xlink:title="/home/travis/build\l/mgerhardy/simpleai\l/src/ai/server/DeleteNodeHandler.h">
<polygon fill="white" stroke="black" points="989,-156.5 989,-197.5 1159,-197.5 1159,-156.5 989,-156.5"/>
<text text-anchor="start" x="997" y="-185.5" font-family="Helvetica,sans-Serif" font-size="10.00">/home/travis/build</text>
<text text-anchor="start" x="997" y="-174.5" font-family="Helvetica,sans-Serif" font-size="10.00">/mgerhardy/simpleai</text>
<text text-anchor="middle" x="1074" y="-163.5" font-family="Helvetica,sans-Serif" font-size="10.00">/src/ai/server/DeleteNodeHandler.h</text>
</a>
</g>
</g>
<!-- Node5&#45;&gt;Node9 -->
<g id="edge8" class="edge"><title>Node5&#45;&gt;Node9</title>
<path fill="none" stroke="midnightblue" d="M714.79,-248.034C781.901,-235.891 888.254,-216.324 980,-198 982.945,-197.412 985.941,-196.807 988.965,-196.192"/>
<polygon fill="midnightblue" stroke="midnightblue" points="713.99,-244.622 704.772,-249.844 715.235,-251.51 713.99,-244.622"/>
</g>
<!-- Node10 -->
<g id="node10" class="node"><title>Node10</title>
<g id="a_node10"><a xlink:href="PauseHandler_8h.html" target="_top" xlink:title="/home/travis/build\l/mgerhardy/simpleai\l/src/ai/server/PauseHandler.h">
<polygon fill="white" stroke="black" points="1177,-156.5 1177,-197.5 1323,-197.5 1323,-156.5 1177,-156.5"/>
<text text-anchor="start" x="1185" y="-185.5" font-family="Helvetica,sans-Serif" font-size="10.00">/home/travis/build</text>
<text text-anchor="start" x="1185" y="-174.5" font-family="Helvetica,sans-Serif" font-size="10.00">/mgerhardy/simpleai</text>
<text text-anchor="middle" x="1250" y="-163.5" font-family="Helvetica,sans-Serif" font-size="10.00">/src/ai/server/PauseHandler.h</text>
</a>
</g>
</g>
<!-- Node5&#45;&gt;Node10 -->
<g id="edge10" class="edge"><title>Node5&#45;&gt;Node10</title>
<path fill="none" stroke="midnightblue" d="M714.693,-254.64C814.008,-246.075 1006.42,-227.228 1168,-198 1170.88,-197.478 1173.82,-196.916 1176.78,-196.323"/>
<polygon fill="midnightblue" stroke="midnightblue" points="714.17,-251.172 704.504,-255.511 714.766,-258.147 714.17,-251.172"/>
</g>
<!-- Node11 -->
<g id="node11" class="node"><title>Node11</title>
<g id="a_node11"><a xlink:href="ResetHandler_8h.html" target="_top" xlink:title="/home/travis/build\l/mgerhardy/simpleai\l/src/ai/server/ResetHandler.h">
<polygon fill="white" stroke="black" points="104.5,-156.5 104.5,-197.5 249.5,-197.5 249.5,-156.5 104.5,-156.5"/>
<text text-anchor="start" x="112.5" y="-185.5" font-family="Helvetica,sans-Serif" font-size="10.00">/home/travis/build</text>
<text text-anchor="start" x="112.5" y="-174.5" font-family="Helvetica,sans-Serif" font-size="10.00">/mgerhardy/simpleai</text>
<text text-anchor="middle" x="177" y="-163.5" font-family="Helvetica,sans-Serif" font-size="10.00">/src/ai/server/ResetHandler.h</text>
</a>
</g>
</g>
<!-- Node5&#45;&gt;Node11 -->
<g id="edge12" class="edge"><title>Node5&#45;&gt;Node11</title>
<path fill="none" stroke="midnightblue" d="M581.242,-251.041C503.521,-240.223 371.443,-220.635 259,-198 255.983,-197.393 252.91,-196.751 249.809,-196.083"/>
<polygon fill="midnightblue" stroke="midnightblue" points="580.989,-254.54 591.375,-252.445 581.95,-247.606 580.989,-254.54"/>
</g>
<!-- Node12 -->
<g id="node12" class="node"><title>Node12</title>
<g id="a_node12"><a xlink:href="SelectHandler_8h.html" target="_top" xlink:title="/home/travis/build\l/mgerhardy/simpleai\l/src/ai/server/SelectHandler.h">
<polygon fill="white" stroke="black" points="268,-156.5 268,-197.5 414,-197.5 414,-156.5 268,-156.5"/>
<text text-anchor="start" x="276" y="-185.5" font-family="Helvetica,sans-Serif" font-size="10.00">/home/travis/build</text>
<text text-anchor="start" x="276" y="-174.5" font-family="Helvetica,sans-Serif" font-size="10.00">/mgerhardy/simpleai</text>
<text text-anchor="middle" x="341" y="-163.5" font-family="Helvetica,sans-Serif" font-size="10.00">/src/ai/server/SelectHandler.h</text>
</a>
</g>
</g>
<!-- Node5&#45;&gt;Node12 -->
<g id="edge14" class="edge"><title>Node5&#45;&gt;Node12</title>
<path fill="none" stroke="midnightblue" d="M581.409,-242.214C532.108,-229.045 464.967,-211.112 414.168,-197.543"/>
<polygon fill="midnightblue" stroke="midnightblue" points="580.769,-245.665 591.334,-244.864 582.576,-238.902 580.769,-245.665"/>
</g>
<!-- Node13 -->
<g id="node13" class="node"><title>Node13</title>
<g id="a_node13"><a xlink:href="StepHandler_8h.html" target="_top" xlink:title="/home/travis/build\l/mgerhardy/simpleai\l/src/ai/server/StepHandler.h">
<polygon fill="white" stroke="black" points="432.5,-156.5 432.5,-197.5 571.5,-197.5 571.5,-156.5 432.5,-156.5"/>
<text text-anchor="start" x="440.5" y="-185.5" font-family="Helvetica,sans-Serif" font-size="10.00">/home/travis/build</text>
<text text-anchor="start" x="440.5" y="-174.5" font-family="Helvetica,sans-Serif" font-size="10.00">/mgerhardy/simpleai</text>
<text text-anchor="middle" x="502" y="-163.5" font-family="Helvetica,sans-Serif" font-size="10.00">/src/ai/server/StepHandler.h</text>
</a>
</g>
</g>
<!-- Node5&#45;&gt;Node13 -->
<g id="edge17" class="edge"><title>Node5&#45;&gt;Node13</title>
<path fill="none" stroke="midnightblue" d="M604.092,-235.339C582.599,-223.268 557.084,-208.938 536.938,-197.623"/>
<polygon fill="midnightblue" stroke="midnightblue" points="602.596,-238.514 613.029,-240.359 606.024,-232.41 602.596,-238.514"/>
</g>
<!-- Node14 -->
<g id="node14" class="node"><title>Node14</title>
<g id="a_node14"><a xlink:href="UpdateNodeHandler_8h.html" target="_top" xlink:title="/home/travis/build\l/mgerhardy/simpleai\l/src/ai/server/UpdateNodeHandler.h">
<polygon fill="white" stroke="black" points="589.5,-156.5 589.5,-197.5 762.5,-197.5 762.5,-156.5 589.5,-156.5"/>
<text text-anchor="start" x="597.5" y="-185.5" font-family="Helvetica,sans-Serif" font-size="10.00">/home/travis/build</text>
<text text-anchor="start" x="597.5" y="-174.5" font-family="Helvetica,sans-Serif" font-size="10.00">/mgerhardy/simpleai</text>
<text text-anchor="middle" x="676" y="-163.5" font-family="Helvetica,sans-Serif" font-size="10.00">/src/ai/server/UpdateNodeHandler.h</text>
</a>
</g>
</g>
<!-- Node5&#45;&gt;Node14 -->
<g id="edge19" class="edge"><title>Node5&#45;&gt;Node14</title>
<path fill="none" stroke="midnightblue" d="M658.056,-230.551C661.786,-219.626 665.923,-207.51 669.284,-197.667"/>
<polygon fill="midnightblue" stroke="midnightblue" points="654.697,-229.556 654.778,-240.15 661.322,-231.818 654.697,-229.556"/>
</g>
<!-- Node6&#45;&gt;Node7 -->
<g id="edge6" class="edge"><title>Node6&#45;&gt;Node7</title>
<path fill="none" stroke="midnightblue" d="M843.946,-152.049C821.602,-141.566 795.72,-129.424 774.578,-119.506"/>
<polygon fill="midnightblue" stroke="midnightblue" points="842.741,-155.349 853.281,-156.428 845.714,-149.012 842.741,-155.349"/>
</g>
<!-- Node7&#45;&gt;Node8 -->
<g id="edge7" class="edge"><title>Node7&#45;&gt;Node8</title>
<path fill="none" stroke="midnightblue" d="M733,-68.2965C733,-59.3009 733,-49.6532 733,-41.5056"/>
<polygon fill="midnightblue" stroke="midnightblue" points="729.5,-68.4281 733,-78.4281 736.5,-68.4281 729.5,-68.4281"/>
</g>
<!-- Node9&#45;&gt;Node7 -->
<g id="edge9" class="edge"><title>Node9&#45;&gt;Node7</title>
<path fill="none" stroke="midnightblue" d="M979.046,-154.837C921.805,-142.08 850.324,-126.148 799.182,-114.75"/>
<polygon fill="midnightblue" stroke="midnightblue" points="978.309,-158.259 988.831,-157.018 979.832,-151.426 978.309,-158.259"/>
</g>
<!-- Node10&#45;&gt;Node7 -->
<g id="edge11" class="edge"><title>Node10&#45;&gt;Node7</title>
<path fill="none" stroke="midnightblue" d="M1166.6,-155.837C1030.85,-131.08 882.829,-114.57 799.314,-106.22"/>
<polygon fill="midnightblue" stroke="midnightblue" points="1166.3,-159.341 1176.77,-157.712 1167.57,-152.457 1166.3,-159.341"/>
</g>
<!-- Node11&#45;&gt;Node7 -->
<g id="edge13" class="edge"><title>Node11&#45;&gt;Node7</title>
<path fill="none" stroke="midnightblue" d="M259.701,-155.986C410.667,-129.253 576.654,-112.995 666.679,-105.271"/>
<polygon fill="midnightblue" stroke="midnightblue" points="259.006,-152.555 249.779,-157.762 260.24,-159.445 259.006,-152.555"/>
</g>
<!-- Node12&#45;&gt;Node7 -->
<g id="edge15" class="edge"><title>Node12&#45;&gt;Node7</title>
<path fill="none" stroke="midnightblue" d="M424.307,-155.777C513.709,-137.025 606.213,-120.889 666.858,-110.756"/>
<polygon fill="midnightblue" stroke="midnightblue" points="423.329,-152.407 414.267,-157.897 424.775,-159.256 423.329,-152.407"/>
</g>
<!-- Node13&#45;&gt;Node7 -->
<g id="edge18" class="edge"><title>Node13&#45;&gt;Node7</title>
<path fill="none" stroke="midnightblue" d="M571.406,-153.165C604.015,-142.437 642.489,-129.779 673.713,-119.506"/>
<polygon fill="midnightblue" stroke="midnightblue" points="569.893,-149.978 561.488,-156.428 572.081,-156.627 569.893,-149.978"/>
</g>
<!-- Node14&#45;&gt;Node7 -->
<g id="edge20" class="edge"><title>Node14&#45;&gt;Node7</title>
<path fill="none" stroke="midnightblue" d="M696.747,-148.338C703.917,-138.778 711.795,-128.273 718.371,-119.506"/>
<polygon fill="midnightblue" stroke="midnightblue" points="693.879,-146.328 690.679,-156.428 699.479,-150.528 693.879,-146.328"/>
</g>
<!-- Node18&#45;&gt;Node5 -->
<g id="edge31" class="edge"><title>Node18&#45;&gt;Node5</title>
<path fill="none" stroke="midnightblue" d="M309.116,-331.869C321.476,-329.208 334.068,-326.517 346,-324 431.496,-305.962 530.761,-285.717 591.467,-273.415"/>
<polygon fill="midnightblue" stroke="midnightblue" points="308.307,-328.463 299.269,-333.992 309.783,-335.305 308.307,-328.463"/>
</g>
<!-- Node18&#45;&gt;Node8 -->
<g id="edge32" class="edge"><title>Node18&#45;&gt;Node8</title>
<path fill="none" stroke="midnightblue" d="M165.552,-325.895C147.165,-316.275 128.111,-303.694 114,-288 84.9685,-255.714 84.6158,-240.556 76,-198 63.8359,-137.918 89.4654,-105.997 144,-78 236.979,-30.2672 554.325,-23.0356 680.577,-22.0771"/>
<polygon fill="midnightblue" stroke="midnightblue" points="163.992,-329.028 174.5,-330.379 167.129,-322.77 163.992,-329.028"/>
</g>
<!-- Node18&#45;&gt;Node15 -->
<g id="edge33" class="edge"><title>Node18&#45;&gt;Node15</title>
<path fill="none" stroke="midnightblue" d="M252.454,-323.242C263.791,-311.775 276.963,-298.451 288.12,-287.166"/>
<polygon fill="midnightblue" stroke="midnightblue" points="249.85,-320.898 245.308,-330.47 254.828,-325.819 249.85,-320.898"/>
</g>
<!-- Node18&#45;&gt;Node16 -->
<g id="edge34" class="edge"><title>Node18&#45;&gt;Node16</title>
<path fill="none" stroke="midnightblue" d="M211.303,-321.259C205.678,-310.259 199.31,-297.807 193.869,-287.166"/>
<polygon fill="midnightblue" stroke="midnightblue" points="208.344,-323.16 216.013,-330.47 214.576,-319.973 208.344,-323.16"/>
</g>
</g>
</svg>
        <g id="navigator" transform="translate(0 0)" fill="#404254">
                <rect fill="#f2f5e9" fill-opacity="0.5" stroke="#606060" stroke-width=".5" x="0" y="0" width="60" height="60"/>
                <use id="zoomplus" xlink:href="#zoomPlus" x="17" y="9" onmousedown="handleZoom(evt,'in')"/>
                <use id="zoomminus" xlink:href="#zoomMin" x="42" y="9" onmousedown="handleZoom(evt,'out')"/>
                <use id="reset" xlink:href="#resetDef" x="30" y="36" onmousedown="handleReset()"/>
                <g id="arrowUp" xlink:href="#dirArrow" transform="translate(30 24)" onmousedown="handlePan(0,-1)">
                  <use xlink:href="#rim" fill="#404040">
                        <set attributeName="fill" to="#808080" begin="arrowUp.mouseover" end="arrowUp.mouseout"/>
                  </use>
                  <path fill="none" stroke="white" stroke-width="1.5" d="M0,-3.0v7 M-2.5,-0.5L0,-3.0L2.5,-0.5"/>
                </g>
                <g id="arrowRight" xlink:href="#dirArrow" transform="rotate(90) translate(36 -43)" onmousedown="handlePan(1,0)">
                  <use xlink:href="#rim" fill="#404040">
                        <set attributeName="fill" to="#808080" begin="arrowRight.mouseover" end="arrowRight.mouseout"/>
                  </use>
                  <path fill="none" stroke="white" stroke-width="1.5" d="M0,-3.0v7 M-2.5,-0.5L0,-3.0L2.5,-0.5"/>
                </g>
                <g id="arrowDown" xlink:href="#dirArrow" transform="rotate(180) translate(-30 -48)" onmousedown="handlePan(0,1)">
                  <use xlink:href="#rim" fill="#404040">
                        <set attributeName="fill" to="#808080" begin="arrowDown.mouseover" end="arrowDown.mouseout"/>
                  </use>
                  <path fill="none" stroke="white" stroke-width="1.5" d="M0,-3.0v7 M-2.5,-0.5L0,-3.0L2.5,-0.5"/>
                </g>
                <g id="arrowLeft" xlink:href="#dirArrow" transform="rotate(270) translate(-36 17)" onmousedown="handlePan(-1,0)">
                  <use xlink:href="#rim" fill="#404040">
                        <set attributeName="fill" to="#808080" begin="arrowLeft.mouseover" end="arrowLeft.mouseout"/>
                  </use>
                  <path fill="none" stroke="white" stroke-width="1.5" d="M0,-3.0v7 M-2.5,-0.5L0,-3.0L2.5,-0.5"/>
                </g>
        </g>
        <svg viewBox="0 0 15 15" width="100%" height="30px" preserveAspectRatio="xMaxYMin meet">
         <g id="arrow_out" transform="scale(0.3 0.3)">
          <a xlink:href="ITask_8h__dep__incl_org.svg" target="_base">
           <rect id="button" ry="5" rx="5" y="6" x="6" height="38" width="38"
                fill="#f2f5e9" fill-opacity="0.5" stroke="#606060" stroke-width="1.0"/>
           <path id="arrow"
             d="M 11.500037,31.436501 C 11.940474,20.09759 22.043105,11.32322 32.158766,21.979434 L 37.068811,17.246167 C 37.068811,17.246167 37.088388,32 37.088388,32 L 22.160133,31.978069 C 22.160133,31.978069 26.997745,27.140456 26.997745,27.140456 C 18.528582,18.264221 13.291696,25.230495 11.500037,31.436501 z"
             style="fill:#404040;"/>
          </a>
         </g>
        </svg>
</svg>
