<?xml version="1.0" encoding="UTF-8" standalone="no"?>
<!DOCTYPE svg PUBLIC "-//W3C//DTD SVG 1.1//EN"
 "http://www.w3.org/Graphics/SVG/1.1/DTD/svg11.dtd">
<!-- Generated by graphviz version 2.36.0 (20140111.2315)
 -->
<!-- Title: /home/travis/build/mgerhardy/simpleai/src/ai/tree/ITask.h Pages: 1 -->
<svg width="1398pt" height="620pt"
 viewBox="0.00 0.00 1398.00 620.00" xmlns="http://www.w3.org/2000/svg" xmlns:xlink="http://www.w3.org/1999/xlink">
<g id="graph0" class="graph" transform="scale(1 1) rotate(0) translate(4 616)">
<title>/home/travis/build/mgerhardy/simpleai/src/ai/tree/ITask.h</title>
<polygon fill="white" stroke="none" points="-4,4 -4,-616 1394,-616 1394,4 -4,4"/>
<!-- Node1 -->
<g id="node1" class="node"><title>Node1</title>
<polygon fill="#bfbfbf" stroke="black" points="273,-570.5 273,-611.5 377,-611.5 377,-570.5 273,-570.5"/>
<text text-anchor="start" x="281" y="-599.5" font-family="Helvetica,sans-Serif" font-size="10.00">/home/travis/build</text>
<text text-anchor="start" x="281" y="-588.5" font-family="Helvetica,sans-Serif" font-size="10.00">/mgerhardy/simpleai</text>
<text text-anchor="middle" x="325" y="-577.5" font-family="Helvetica,sans-Serif" font-size="10.00">/src/ai/tree/ITask.h</text>
</g>
<!-- Node2 -->
<g id="node2" class="node"><title>Node2</title>
<g id="a_node2"><a xlink:href="Steer_8h.html" target="_top" xlink:title="/home/travis/build\l/mgerhardy/simpleai\l/src/ai/tree/Steer.h">
<polygon fill="white" stroke="black" points="599,-492.5 599,-533.5 703,-533.5 703,-492.5 599,-492.5"/>
<text text-anchor="start" x="607" y="-521.5" font-family="Helvetica,sans-Serif" font-size="10.00">/home/travis/build</text>
<text text-anchor="start" x="607" y="-510.5" font-family="Helvetica,sans-Serif" font-size="10.00">/mgerhardy/simpleai</text>
<text text-anchor="middle" x="651" y="-499.5" font-family="Helvetica,sans-Serif" font-size="10.00">/src/ai/tree/Steer.h</text>
</a>
</g>
</g>
<!-- Node1&#45;&gt;Node2 -->
<g id="edge1" class="edge"><title>Node1&#45;&gt;Node2</title>
<path fill="none" stroke="midnightblue" d="M386.959,-575.556C448.319,-561.251 541.224,-539.592 598.9,-526.146"/>
<polygon fill="midnightblue" stroke="midnightblue" points="385.96,-572.194 377.016,-577.874 387.55,-579.012 385.96,-572.194"/>
</g>
<!-- Node8 -->
<g id="node8" class="node"><title>Node8</title>
<g id="a_node8"><a xlink:href="SimpleAI_8h.html" target="_top" xlink:title="/home/travis/build\l/mgerhardy/simpleai\l/src/ai/SimpleAI.h">
<polygon fill="white" stroke="black" points="968,-0.5 968,-41.5 1072,-41.5 1072,-0.5 968,-0.5"/>
<text text-anchor="start" x="976" y="-29.5" font-family="Helvetica,sans-Serif" font-size="10.00">/home/travis/build</text>
<text text-anchor="start" x="976" y="-18.5" font-family="Helvetica,sans-Serif" font-size="10.00">/mgerhardy/simpleai</text>
<text text-anchor="middle" x="1020" y="-7.5" font-family="Helvetica,sans-Serif" font-size="10.00">/src/ai/SimpleAI.h</text>
</a>
</g>
</g>
<!-- Node1&#45;&gt;Node8 -->
<g id="edge34" class="edge"><title>Node1&#45;&gt;Node8</title>
<path fill="none" stroke="midnightblue" d="M262.775,-587.604C168.416,-580.27 0,-551.063 0,-436 0,-436 0,-436 0,-176 0,-96.738 73.8367,-103.158 149,-78 302.122,-26.7478 803.97,-22.0196 967.775,-21.8734"/>
<polygon fill="midnightblue" stroke="midnightblue" points="262.558,-591.098 272.783,-588.322 263.059,-584.115 262.558,-591.098"/>
</g>
<!-- Node3 -->
<g id="node3" class="node"><title>Node3</title>
<g id="a_node3"><a xlink:href="AIRegistry_8h.html" target="_top" xlink:title="/home/travis/build\l/mgerhardy/simpleai\l/src/ai/AIRegistry.h">
<polygon fill="white" stroke="black" points="673,-414.5 673,-455.5 777,-455.5 777,-414.5 673,-414.5"/>
<text text-anchor="start" x="681" y="-443.5" font-family="Helvetica,sans-Serif" font-size="10.00">/home/travis/build</text>
<text text-anchor="start" x="681" y="-432.5" font-family="Helvetica,sans-Serif" font-size="10.00">/mgerhardy/simpleai</text>
<text text-anchor="middle" x="725" y="-421.5" font-family="Helvetica,sans-Serif" font-size="10.00">/src/ai/AIRegistry.h</text>
</a>
</g>
</g>
<!-- Node2&#45;&gt;Node3 -->
<g id="edge2" class="edge"><title>Node2&#45;&gt;Node3</title>
<path fill="none" stroke="midnightblue" d="M677.091,-485.204C686.621,-475.416 697.212,-464.539 706.008,-455.506"/>
<polygon fill="midnightblue" stroke="midnightblue" points="674.525,-482.822 670.057,-492.428 679.541,-487.705 674.525,-482.822"/>
</g>
<!-- Node2&#45;&gt;Node8 -->
<g id="edge28" class="edge"><title>Node2&#45;&gt;Node8</title>
<path fill="none" stroke="midnightblue" d="M713.261,-511.72C891.331,-509.254 1390,-490.027 1390,-352 1390,-352 1390,-352 1390,-176 1390,-124.696 1371.44,-106.827 1329,-78 1287.96,-50.1234 1149.09,-33.5796 1072.24,-26.3446"/>
<polygon fill="midnightblue" stroke="midnightblue" points="713.215,-508.22 703.259,-511.845 713.303,-515.22 713.215,-508.22"/>
</g>
<!-- Node18 -->
<g id="node18" class="node"><title>Node18</title>
<g id="a_node18"><a xlink:href="TreeNodeParser_8h.html" target="_top" xlink:title="/home/travis/build\l/mgerhardy/simpleai\l/src/ai/tree/TreeNodeParser.h">
<polygon fill="white" stroke="black" points="407,-330.5 407,-371.5 553,-371.5 553,-330.5 407,-330.5"/>
<text text-anchor="start" x="415" y="-359.5" font-family="Helvetica,sans-Serif" font-size="10.00">/home/travis/build</text>
<text text-anchor="start" x="415" y="-348.5" font-family="Helvetica,sans-Serif" font-size="10.00">/mgerhardy/simpleai</text>
<text text-anchor="middle" x="480" y="-337.5" font-family="Helvetica,sans-Serif" font-size="10.00">/src/ai/tree/TreeNodeParser.h</text>
</a>
</g>
</g>
<!-- Node2&#45;&gt;Node18 -->
<g id="edge29" class="edge"><title>Node2&#45;&gt;Node18</title>
<path fill="none" stroke="midnightblue" d="M622.659,-485.482C588.358,-453.388 531.411,-400.104 500.872,-371.529"/>
<polygon fill="midnightblue" stroke="midnightblue" points="620.339,-488.104 630.032,-492.381 625.121,-482.993 620.339,-488.104"/>
</g>
<!-- Node4 -->
<g id="node4" class="node"><title>Node4</title>
<g id="a_node4"><a xlink:href="ConditionParser_8h.html" target="_top" xlink:title="/home/travis/build\l/mgerhardy/simpleai\l/src/ai/conditions/Condition\lParser.h">
<polygon fill="white" stroke="black" points="609.5,-325 609.5,-377 744.5,-377 744.5,-325 609.5,-325"/>
<text text-anchor="start" x="617.5" y="-365" font-family="Helvetica,sans-Serif" font-size="10.00">/home/travis/build</text>
<text text-anchor="start" x="617.5" y="-354" font-family="Helvetica,sans-Serif" font-size="10.00">/mgerhardy/simpleai</text>
<text text-anchor="start" x="617.5" y="-343" font-family="Helvetica,sans-Serif" font-size="10.00">/src/ai/conditions/Condition</text>
<text text-anchor="middle" x="677" y="-332" font-family="Helvetica,sans-Serif" font-size="10.00">Parser.h</text>
</a>
</g>
</g>
<!-- Node3&#45;&gt;Node4 -->
<g id="edge3" class="edge"><title>Node3&#45;&gt;Node4</title>
<path fill="none" stroke="midnightblue" d="M708.244,-405.375C702.885,-396.221 696.995,-386.158 691.787,-377.261"/>
<polygon fill="midnightblue" stroke="midnightblue" points="705.308,-407.288 713.381,-414.15 711.349,-403.752 705.308,-407.288"/>
</g>
<!-- Node5 -->
<g id="node5" class="node"><title>Node5</title>
<g id="a_node5"><a xlink:href="Server_8h.html" target="_top" xlink:title="/home/travis/build\l/mgerhardy/simpleai\l/src/ai/server/Server.h">
<polygon fill="white" stroke="black" points="670.5,-240.5 670.5,-281.5 783.5,-281.5 783.5,-240.5 670.5,-240.5"/>
<text text-anchor="start" x="678.5" y="-269.5" font-family="Helvetica,sans-Serif" font-size="10.00">/home/travis/build</text>
<text text-anchor="start" x="678.5" y="-258.5" font-family="Helvetica,sans-Serif" font-size="10.00">/mgerhardy/simpleai</text>
<text text-anchor="middle" x="727" y="-247.5" font-family="Helvetica,sans-Serif" font-size="10.00">/src/ai/server/Server.h</text>
</a>
</g>
</g>
<!-- Node3&#45;&gt;Node5 -->
<g id="edge25" class="edge"><title>Node3&#45;&gt;Node5</title>
<path fill="none" stroke="midnightblue" d="M742.384,-405.579C746.729,-397.022 750.781,-387.4 753,-378 758.514,-354.642 757.734,-347.529 753,-324 750.03,-309.239 743.451,-293.611 737.655,-281.738"/>
<polygon fill="midnightblue" stroke="midnightblue" points="739.3,-403.923 737.626,-414.385 745.459,-407.25 739.3,-403.923"/>
</g>
<!-- Node3&#45;&gt;Node8 -->
<g id="edge26" class="edge"><title>Node3&#45;&gt;Node8</title>
<path fill="none" stroke="midnightblue" d="M787.181,-430.201C945.61,-418.828 1352,-378.318 1352,-262 1352,-262 1352,-262 1352,-176 1352,-54.1661 1165.74,-28.4455 1072.24,-23.2092"/>
<polygon fill="midnightblue" stroke="midnightblue" points="786.841,-426.716 777.111,-430.908 787.332,-433.699 786.841,-426.716"/>
</g>
<!-- Node15 -->
<g id="node15" class="node"><title>Node15</title>
<g id="a_node15"><a xlink:href="LUATreeLoader_8h.html" target="_top" xlink:title="/home/travis/build\l/mgerhardy/simpleai\l/src/ai/tree/loaders\l/lua/LUATreeLoader.h">
<polygon fill="white" stroke="black" points="540,-235 540,-287 652,-287 652,-235 540,-235"/>
<text text-anchor="start" x="548" y="-275" font-family="Helvetica,sans-Serif" font-size="10.00">/home/travis/build</text>
<text text-anchor="start" x="548" y="-264" font-family="Helvetica,sans-Serif" font-size="10.00">/mgerhardy/simpleai</text>
<text text-anchor="start" x="548" y="-253" font-family="Helvetica,sans-Serif" font-size="10.00">/src/ai/tree/loaders</text>
<text text-anchor="middle" x="596" y="-242" font-family="Helvetica,sans-Serif" font-size="10.00">/lua/LUATreeLoader.h</text>
</a>
</g>
</g>
<!-- Node3&#45;&gt;Node15 -->
<g id="edge27" class="edge"><title>Node3&#45;&gt;Node15</title>
<path fill="none" stroke="midnightblue" d="M662.984,-421.084C639.266,-412.849 614.463,-399.505 600,-378 582.008,-351.246 584.943,-312.622 589.675,-287.416"/>
<polygon fill="midnightblue" stroke="midnightblue" points="662.105,-424.477 672.696,-424.204 664.246,-417.813 662.105,-424.477"/>
</g>
<!-- Node17 -->
<g id="node17" class="node"><title>Node17</title>
<g id="a_node17"><a xlink:href="LUAAIRegistry_8h_source.html" target="_top" xlink:title="/home/travis/build\l/mgerhardy/simpleai\l/src/ai/LUAAIRegistry.h">
<polygon fill="white" stroke="black" points="801.5,-330.5 801.5,-371.5 922.5,-371.5 922.5,-330.5 801.5,-330.5"/>
<text text-anchor="start" x="809.5" y="-359.5" font-family="Helvetica,sans-Serif" font-size="10.00">/home/travis/build</text>
<text text-anchor="start" x="809.5" y="-348.5" font-family="Helvetica,sans-Serif" font-size="10.00">/mgerhardy/simpleai</text>
<text text-anchor="middle" x="862" y="-337.5" font-family="Helvetica,sans-Serif" font-size="10.00">/src/ai/LUAAIRegistry.h</text>
</a>
</g>
</g>
<!-- Node3&#45;&gt;Node17 -->
<g id="edge24" class="edge"><title>Node3&#45;&gt;Node17</title>
<path fill="none" stroke="midnightblue" d="M766.439,-409.197C786.473,-397.206 810.186,-383.013 828.978,-371.765"/>
<polygon fill="midnightblue" stroke="midnightblue" points="764.598,-406.22 757.815,-414.359 768.193,-412.226 764.598,-406.22"/>
</g>
<!-- Node4&#45;&gt;Node5 -->
<g id="edge4" class="edge"><title>Node4&#45;&gt;Node5</title>
<path fill="none" stroke="midnightblue" d="M696.576,-315.546C703.139,-303.996 710.225,-291.524 715.906,-281.525"/>
<polygon fill="midnightblue" stroke="midnightblue" points="693.359,-314.123 691.462,-324.547 699.445,-317.581 693.359,-314.123"/>
</g>
<!-- Node4&#45;&gt;Node15 -->
<g id="edge22" class="edge"><title>Node4&#45;&gt;Node15</title>
<path fill="none" stroke="midnightblue" d="M646.753,-317.139C637.601,-307.196 627.701,-296.441 619.096,-287.092"/>
<polygon fill="midnightblue" stroke="midnightblue" points="644.224,-319.559 653.571,-324.547 649.374,-314.819 644.224,-319.559"/>
</g>
<!-- Node16 -->
<g id="node16" class="node"><title>Node16</title>
<g id="a_node16"><a xlink:href="XMLTreeLoader_8h.html" target="_top" xlink:title="/home/travis/build\l/mgerhardy/simpleai\l/src/ai/tree/loaders\l/xml/XMLTreeLoader.h">
<polygon fill="white" stroke="black" points="406,-235 406,-287 522,-287 522,-235 406,-235"/>
<text text-anchor="start" x="414" y="-275" font-family="Helvetica,sans-Serif" font-size="10.00">/home/travis/build</text>
<text text-anchor="start" x="414" y="-264" font-family="Helvetica,sans-Serif" font-size="10.00">/mgerhardy/simpleai</text>
<text text-anchor="start" x="414" y="-253" font-family="Helvetica,sans-Serif" font-size="10.00">/src/ai/tree/loaders</text>
<text text-anchor="middle" x="464" y="-242" font-family="Helvetica,sans-Serif" font-size="10.00">/xml/XMLTreeLoader.h</text>
</a>
</g>
</g>
<!-- Node4&#45;&gt;Node16 -->
<g id="edge23" class="edge"><title>Node4&#45;&gt;Node16</title>
<path fill="none" stroke="midnightblue" d="M606.731,-320.969C579.359,-309.66 548.362,-296.854 522.265,-286.072"/>
<polygon fill="midnightblue" stroke="midnightblue" points="605.669,-324.317 616.248,-324.901 608.342,-317.847 605.669,-324.317"/>
</g>
<!-- Node6 -->
<g id="node6" class="node"><title>Node6</title>
<g id="a_node6"><a xlink:href="ChangeHandler_8h.html" target="_top" xlink:title="/home/travis/build\l/mgerhardy/simpleai\l/src/ai/server/ChangeHandler.h">
<polygon fill="white" stroke="black" points="296,-156.5 296,-197.5 448,-197.5 448,-156.5 296,-156.5"/>
<text text-anchor="start" x="304" y="-185.5" font-family="Helvetica,sans-Serif" font-size="10.00">/home/travis/build</text>
<text text-anchor="start" x="304" y="-174.5" font-family="Helvetica,sans-Serif" font-size="10.00">/mgerhardy/simpleai</text>
<text text-anchor="middle" x="372" y="-163.5" font-family="Helvetica,sans-Serif" font-size="10.00">/src/ai/server/ChangeHandler.h</text>
</a>
</g>
</g>
<!-- Node5&#45;&gt;Node6 -->
<g id="edge5" class="edge"><title>Node5&#45;&gt;Node6</title>
<path fill="none" stroke="midnightblue" d="M670.178,-237.087C666.756,-235.976 663.346,-234.936 660,-234 571.76,-209.308 546.743,-216.501 457,-198 454.179,-197.418 451.308,-196.813 448.411,-196.191"/>
<polygon fill="midnightblue" stroke="midnightblue" points="669.211,-240.455 679.805,-240.374 671.472,-233.83 669.211,-240.455"/>
</g>
<!-- Node7 -->
<g id="node7" class="node"><title>Node7</title>
<g id="a_node7"><a xlink:href="ServerImpl_8h.html" target="_top" xlink:title="/home/travis/build\l/mgerhardy/simpleai\l/src/ai/server/ServerImpl.h">
<polygon fill="white" stroke="black" points="661,-78.5 661,-119.5 793,-119.5 793,-78.5 661,-78.5"/>
<text text-anchor="start" x="669" y="-107.5" font-family="Helvetica,sans-Serif" font-size="10.00">/home/travis/build</text>
<text text-anchor="start" x="669" y="-96.5" font-family="Helvetica,sans-Serif" font-size="10.00">/mgerhardy/simpleai</text>
<text text-anchor="middle" x="727" y="-85.5" font-family="Helvetica,sans-Serif" font-size="10.00">/src/ai/server/ServerImpl.h</text>
</a>
</g>
</g>
<!-- Node5&#45;&gt;Node7 -->
<g id="edge16" class="edge"><title>Node5&#45;&gt;Node7</title>
<path fill="none" stroke="midnightblue" d="M671.697,-237.204C667.775,-236.002 663.85,-234.915 660,-234 495.22,-194.862 175.057,-283.094 287,-156 311.272,-128.443 543.661,-110.861 660.548,-103.689"/>
<polygon fill="midnightblue" stroke="midnightblue" points="670.802,-240.594 681.395,-240.4 672.993,-233.946 670.802,-240.594"/>
</g>
<!-- Node5&#45;&gt;Node8 -->
<g id="edge21" class="edge"><title>Node5&#45;&gt;Node8</title>
<path fill="none" stroke="midnightblue" d="M793.878,-257.605C936.674,-251.802 1261.11,-234.683 1294,-198 1367.5,-116.02 1170.6,-56.9152 1072.17,-33.3253"/>
<polygon fill="midnightblue" stroke="midnightblue" points="793.358,-254.123 783.506,-258.019 793.638,-261.117 793.358,-254.123"/>
</g>
<!-- Node9 -->
<g id="node9" class="node"><title>Node9</title>
<g id="a_node9"><a xlink:href="DeleteNodeHandler_8h.html" target="_top" xlink:title="/home/travis/build\l/mgerhardy/simpleai\l/src/ai/server/DeleteNodeHandler.h">
<polygon fill="white" stroke="black" points="466,-156.5 466,-197.5 636,-197.5 636,-156.5 466,-156.5"/>
<text text-anchor="start" x="474" y="-185.5" font-family="Helvetica,sans-Serif" font-size="10.00">/home/travis/build</text>
<text text-anchor="start" x="474" y="-174.5" font-family="Helvetica,sans-Serif" font-size="10.00">/mgerhardy/simpleai</text>
<text text-anchor="middle" x="551" y="-163.5" font-family="Helvetica,sans-Serif" font-size="10.00">/src/ai/server/DeleteNodeHandler.h</text>
</a>
</g>
</g>
<!-- Node5&#45;&gt;Node9 -->
<g id="edge8" class="edge"><title>Node5&#45;&gt;Node9</title>
<path fill="none" stroke="midnightblue" d="M675.453,-235.984C649.261,-223.781 617.836,-209.14 593.117,-197.623"/>
<polygon fill="midnightblue" stroke="midnightblue" points="674.301,-239.308 684.844,-240.359 677.257,-232.963 674.301,-239.308"/>
</g>
<!-- Node10 -->
<g id="node10" class="node"><title>Node10</title>
<g id="a_node10"><a xlink:href="PauseHandler_8h.html" target="_top" xlink:title="/home/travis/build\l/mgerhardy/simpleai\l/src/ai/server/PauseHandler.h">
<polygon fill="white" stroke="black" points="654,-156.5 654,-197.5 800,-197.5 800,-156.5 654,-156.5"/>
<text text-anchor="start" x="662" y="-185.5" font-family="Helvetica,sans-Serif" font-size="10.00">/home/travis/build</text>
<text text-anchor="start" x="662" y="-174.5" font-family="Helvetica,sans-Serif" font-size="10.00">/mgerhardy/simpleai</text>
<text text-anchor="middle" x="727" y="-163.5" font-family="Helvetica,sans-Serif" font-size="10.00">/src/ai/server/PauseHandler.h</text>
</a>
</g>
</g>
<!-- Node5&#45;&gt;Node10 -->
<g id="edge10" class="edge"><title>Node5&#45;&gt;Node10</title>
<path fill="none" stroke="midnightblue" d="M727,-229.881C727,-219.133 727,-207.309 727,-197.667"/>
<polygon fill="midnightblue" stroke="midnightblue" points="723.5,-230.15 727,-240.15 730.5,-230.15 723.5,-230.15"/>
</g>
<!-- Node11 -->
<g id="node11" class="node"><title>Node11</title>
<g id="a_node11"><a xlink:href="ResetHandler_8h.html" target="_top" xlink:title="/home/travis/build\l/mgerhardy/simpleai\l/src/ai/server/ResetHandler.h">
<polygon fill="white" stroke="black" points="818.5,-156.5 818.5,-197.5 963.5,-197.5 963.5,-156.5 818.5,-156.5"/>
<text text-anchor="start" x="826.5" y="-185.5" font-family="Helvetica,sans-Serif" font-size="10.00">/home/travis/build</text>
<text text-anchor="start" x="826.5" y="-174.5" font-family="Helvetica,sans-Serif" font-size="10.00">/mgerhardy/simpleai</text>
<text text-anchor="middle" x="891" y="-163.5" font-family="Helvetica,sans-Serif" font-size="10.00">/src/ai/server/ResetHandler.h</text>
</a>
</g>
</g>
<!-- Node5&#45;&gt;Node11 -->
<g id="edge12" class="edge"><title>Node5&#45;&gt;Node11</title>
<path fill="none" stroke="midnightblue" d="M775.354,-235.823C799.695,-223.652 828.822,-209.089 851.755,-197.623"/>
<polygon fill="midnightblue" stroke="midnightblue" points="773.661,-232.756 766.282,-240.359 776.792,-239.017 773.661,-232.756"/>
</g>
<!-- Node12 -->
<g id="node12" class="node"><title>Node12</title>
<g id="a_node12"><a xlink:href="SelectHandler_8h.html" target="_top" xlink:title="/home/travis/build\l/mgerhardy/simpleai\l/src/ai/server/SelectHandler.h">
<polygon fill="white" stroke="black" points="982,-156.5 982,-197.5 1128,-197.5 1128,-156.5 982,-156.5"/>
<text text-anchor="start" x="990" y="-185.5" font-family="Helvetica,sans-Serif" font-size="10.00">/home/travis/build</text>
<text text-anchor="start" x="990" y="-174.5" font-family="Helvetica,sans-Serif" font-size="10.00">/mgerhardy/simpleai</text>
<text text-anchor="middle" x="1055" y="-163.5" font-family="Helvetica,sans-Serif" font-size="10.00">/src/ai/server/SelectHandler.h</text>
</a>
</g>
</g>
<!-- Node5&#45;&gt;Node12 -->
<g id="edge14" class="edge"><title>Node5&#45;&gt;Node12</title>
<path fill="none" stroke="midnightblue" d="M793.696,-243.326C848.376,-229.656 925.662,-210.335 981.993,-196.252"/>
<polygon fill="midnightblue" stroke="midnightblue" points="792.611,-239.989 783.759,-245.81 794.309,-246.78 792.611,-239.989"/>
</g>
<!-- Node13 -->
<g id="node13" class="node"><title>Node13</title>
<g id="a_node13"><a xlink:href="StepHandler_8h.html" target="_top" xlink:title="/home/travis/build\l/mgerhardy/simpleai\l/src/ai/server/StepHandler.h">
<polygon fill="white" stroke="black" points="1146.5,-156.5 1146.5,-197.5 1285.5,-197.5 1285.5,-156.5 1146.5,-156.5"/>
<text text-anchor="start" x="1154.5" y="-185.5" font-family="Helvetica,sans-Serif" font-size="10.00">/home/travis/build</text>
<text text-anchor="start" x="1154.5" y="-174.5" font-family="Helvetica,sans-Serif" font-size="10.00">/mgerhardy/simpleai</text>
<text text-anchor="middle" x="1216" y="-163.5" font-family="Helvetica,sans-Serif" font-size="10.00">/src/ai/server/StepHandler.h</text>
</a>
</g>
</g>
<!-- Node5&#45;&gt;Node13 -->
<g id="edge17" class="edge"><title>Node5&#45;&gt;Node13</title>
<path fill="none" stroke="midnightblue" d="M793.791,-251.942C875.23,-241.648 1016.88,-222.227 1137,-198 1140.05,-197.385 1143.16,-196.727 1146.3,-196.04"/>
<polygon fill="midnightblue" stroke="midnightblue" points="793.164,-248.493 783.678,-253.212 794.036,-255.439 793.164,-248.493"/>
</g>
<!-- Node14 -->
<g id="node14" class="node"><title>Node14</title>
<g id="a_node14"><a xlink:href="UpdateNodeHandler_8h.html" target="_top" xlink:title="/home/travis/build\l/mgerhardy/simpleai\l/src/ai/server/UpdateNodeHandler.h">
<polygon fill="white" stroke="black" points="66.5,-156.5 66.5,-197.5 239.5,-197.5 239.5,-156.5 66.5,-156.5"/>
<text text-anchor="start" x="74.5" y="-185.5" font-family="Helvetica,sans-Serif" font-size="10.00">/home/travis/build</text>
<text text-anchor="start" x="74.5" y="-174.5" font-family="Helvetica,sans-Serif" font-size="10.00">/mgerhardy/simpleai</text>
<text text-anchor="middle" x="153" y="-163.5" font-family="Helvetica,sans-Serif" font-size="10.00">/src/ai/server/UpdateNodeHandler.h</text>
</a>
</g>
</g>
<!-- Node5&#45;&gt;Node14 -->
<g id="edge19" class="edge"><title>Node5&#45;&gt;Node14</title>
<path fill="none" stroke="midnightblue" d="M672.25,-237.337C668.145,-236.075 664.032,-234.941 660,-234 483.589,-192.824 433.33,-223.631 254,-198 249.311,-197.33 244.51,-196.584 239.671,-195.786"/>
<polygon fill="midnightblue" stroke="midnightblue" points="671.178,-240.668 681.772,-240.479 673.372,-234.021 671.178,-240.668"/>
</g>
<!-- Node6&#45;&gt;Node7 -->
<g id="edge6" class="edge"><title>Node6&#45;&gt;Node7</title>
<path fill="none" stroke="midnightblue" d="M458.493,-155.693C533.217,-139.241 608.499,-123.781 660.873,-113.205"/>
<polygon fill="midnightblue" stroke="midnightblue" points="457.444,-152.34 448.434,-157.914 458.953,-159.175 457.444,-152.34"/>
</g>
<!-- Node7&#45;&gt;Node8 -->
<g id="edge7" class="edge"><title>Node7&#45;&gt;Node8</title>
<path fill="none" stroke="midnightblue" d="M802.928,-78.3052C854.704,-64.8754 921.931,-47.4378 967.763,-35.5495"/>
<polygon fill="midnightblue" stroke="midnightblue" points="801.921,-74.9506 793.12,-80.8494 803.679,-81.7264 801.921,-74.9506"/>
</g>
<!-- Node9&#45;&gt;Node7 -->
<g id="edge9" class="edge"><title>Node9&#45;&gt;Node7</title>
<path fill="none" stroke="midnightblue" d="M605.817,-152.329C630.238,-141.783 658.654,-129.513 681.829,-119.506"/>
<polygon fill="midnightblue" stroke="midnightblue" points="604.117,-149.25 596.324,-156.428 606.893,-155.677 604.117,-149.25"/>
</g>
<!-- Node10&#45;&gt;Node7 -->
<g id="edge11" class="edge"><title>Node10&#45;&gt;Node7</title>
<path fill="none" stroke="midnightblue" d="M727,-146.297C727,-137.301 727,-127.653 727,-119.506"/>
<polygon fill="midnightblue" stroke="midnightblue" points="723.5,-146.428 727,-156.428 730.5,-146.428 723.5,-146.428"/>
</g>
<!-- Node11&#45;&gt;Node7 -->
<g id="edge13" class="edge"><title>Node11&#45;&gt;Node7</title>
<path fill="none" stroke="midnightblue" d="M839.618,-152.189C816.93,-141.675 790.59,-129.469 769.091,-119.506"/>
<polygon fill="midnightblue" stroke="midnightblue" points="838.221,-155.399 848.766,-156.428 841.164,-149.048 838.221,-155.399"/>
</g>
<!-- Node12&#45;&gt;Node7 -->
<g id="edge15" class="edge"><title>Node12&#45;&gt;Node7</title>
<path fill="none" stroke="midnightblue" d="M971.826,-155.971C905.04,-140.324 840.102,-125.525 793.079,-114.883"/>
<polygon fill="midnightblue" stroke="midnightblue" points="971.156,-159.409 981.691,-158.286 972.754,-152.594 971.156,-159.409"/>
</g>
<!-- Node13&#45;&gt;Node7 -->
<g id="edge18" class="edge"><title>Node13&#45;&gt;Node7</title>
<path fill="none" stroke="midnightblue" d="M1136.4,-155.994C1009.4,-131.747 872.334,-115.285 793.057,-106.713"/>
<polygon fill="midnightblue" stroke="midnightblue" points="1135.83,-159.447 1146.31,-157.905 1137.15,-152.574 1135.83,-159.447"/>
</g>
<!-- Node14&#45;&gt;Node7 -->
<g id="edge20" class="edge"><title>Node14&#45;&gt;Node7</title>
<path fill="none" stroke="midnightblue" d="M249.582,-156.71C251.065,-156.468 252.538,-156.231 254,-156 398.572,-133.163 569.342,-115.135 660.972,-106.183"/>
<polygon fill="midnightblue" stroke="midnightblue" points="248.973,-153.263 239.696,-158.381 250.14,-160.166 248.973,-153.263"/>
</g>
<!-- Node18&#45;&gt;Node5 -->
<g id="edge30" class="edge"><title>Node18&#45;&gt;Node5</title>
<path fill="none" stroke="midnightblue" d="M548.324,-327.156C582.048,-315.705 623.277,-301.444 660,-288 665.624,-285.941 671.494,-283.74 677.321,-281.523"/>
<polygon fill="midnightblue" stroke="midnightblue" points="546.916,-323.938 538.568,-330.462 549.162,-330.568 546.916,-323.938"/>
</g>
<!-- Node18&#45;&gt;Node8 -->
<g id="edge31" class="edge"><title>Node18&#45;&gt;Node8</title>
<path fill="none" stroke="midnightblue" d="M396.733,-341.854C246.486,-324.057 -45.2837,-273.502 57,-156 117.54,-86.4525 776.271,-38.0072 967.96,-25.3066"/>
<polygon fill="midnightblue" stroke="midnightblue" points="396.522,-345.353 406.859,-343.029 397.329,-338.4 396.522,-345.353"/>
</g>
<!-- Node18&#45;&gt;Node15 -->
<g id="edge32" class="edge"><title>Node18&#45;&gt;Node15</title>
<path fill="none" stroke="midnightblue" d="M513.982,-324.221C529.382,-312.538 547.525,-298.774 562.827,-287.166"/>
<polygon fill="midnightblue" stroke="midnightblue" points="511.596,-321.638 505.744,-330.47 515.826,-327.214 511.596,-321.638"/>
</g>
<!-- Node18&#45;&gt;Node16 -->
<g id="edge33" class="edge"><title>Node18&#45;&gt;Node16</title>
<path fill="none" stroke="midnightblue" d="M474.653,-320.591C472.683,-309.757 470.471,-297.592 468.576,-287.166"/>
<polygon fill="midnightblue" stroke="midnightblue" points="471.217,-321.257 476.449,-330.47 478.104,-320.005 471.217,-321.257"/>
</g>
</g>
</svg>
