<?xml version="1.0" encoding="UTF-8" standalone="no"?>
<!DOCTYPE svg PUBLIC "-//W3C//DTD SVG 1.1//EN"
 "http://www.w3.org/Graphics/SVG/1.1/DTD/svg11.dtd">
<!-- Generated by graphviz version 2.36.0 (20140111.2315)
 -->
<!-- Title: /home/travis/build/mgerhardy/simpleai/src/ai/tree/ITimedNode.h Pages: 1 -->
<svg width="1525pt" height="620pt"
 viewBox="0.00 0.00 1525.00 620.00" xmlns="http://www.w3.org/2000/svg" xmlns:xlink="http://www.w3.org/1999/xlink">
<g id="graph0" class="graph" transform="scale(1 1) rotate(0) translate(4 616)">
<title>/home/travis/build/mgerhardy/simpleai/src/ai/tree/ITimedNode.h</title>
<polygon fill="white" stroke="none" points="-4,4 -4,-616 1521,-616 1521,4 -4,4"/>
<!-- Node1 -->
<g id="node1" class="node"><title>Node1</title>
<polygon fill="#bfbfbf" stroke="black" points="1389,-570.5 1389,-611.5 1517,-611.5 1517,-570.5 1389,-570.5"/>
<text text-anchor="start" x="1397" y="-599.5" font-family="Helvetica,sans-Serif" font-size="10.00">/home/travis/build</text>
<text text-anchor="start" x="1397" y="-588.5" font-family="Helvetica,sans-Serif" font-size="10.00">/mgerhardy/simpleai</text>
<text text-anchor="middle" x="1453" y="-577.5" font-family="Helvetica,sans-Serif" font-size="10.00">/src/ai/tree/ITimedNode.h</text>
</g>
<!-- Node2 -->
<g id="node2" class="node"><title>Node2</title>
<g id="a_node2"><a xlink:href="Idle_8h.html" target="_top" xlink:title="/home/travis/build\l/mgerhardy/simpleai\l/src/ai/tree/Idle.h">
<polygon fill="white" stroke="black" points="1361,-492.5 1361,-533.5 1465,-533.5 1465,-492.5 1361,-492.5"/>
<text text-anchor="start" x="1369" y="-521.5" font-family="Helvetica,sans-Serif" font-size="10.00">/home/travis/build</text>
<text text-anchor="start" x="1369" y="-510.5" font-family="Helvetica,sans-Serif" font-size="10.00">/mgerhardy/simpleai</text>
<text text-anchor="middle" x="1413" y="-499.5" font-family="Helvetica,sans-Serif" font-size="10.00">/src/ai/tree/Idle.h</text>
</a>
</g>
</g>
<!-- Node1&#45;&gt;Node2 -->
<g id="edge1" class="edge"><title>Node1&#45;&gt;Node2</title>
<path fill="none" stroke="midnightblue" d="M1437.98,-561.466C1433.08,-552.143 1427.74,-542.007 1423.27,-533.506"/>
<polygon fill="midnightblue" stroke="midnightblue" points="1434.94,-563.209 1442.7,-570.428 1441.14,-559.949 1434.94,-563.209"/>
</g>
<!-- Node8 -->
<g id="node8" class="node"><title>Node8</title>
<g id="a_node8"><a xlink:href="SimpleAI_8h.html" target="_top" xlink:title="/home/travis/build\l/mgerhardy/simpleai\l/src/ai/SimpleAI.h">
<polygon fill="white" stroke="black" points="1252,-0.5 1252,-41.5 1356,-41.5 1356,-0.5 1252,-0.5"/>
<text text-anchor="start" x="1260" y="-29.5" font-family="Helvetica,sans-Serif" font-size="10.00">/home/travis/build</text>
<text text-anchor="start" x="1260" y="-18.5" font-family="Helvetica,sans-Serif" font-size="10.00">/mgerhardy/simpleai</text>
<text text-anchor="middle" x="1304" y="-7.5" font-family="Helvetica,sans-Serif" font-size="10.00">/src/ai/SimpleAI.h</text>
</a>
</g>
</g>
<!-- Node1&#45;&gt;Node8 -->
<g id="edge30" class="edge"><title>Node1&#45;&gt;Node8</title>
<path fill="none" stroke="midnightblue" d="M1465.28,-560.899C1477.04,-530.36 1493,-480.672 1493,-436 1493,-436 1493,-436 1493,-176 1493,-125.16 1472.29,-111.439 1434,-78 1411.79,-58.6038 1381.83,-45.0868 1356.28,-36.1992"/>
<polygon fill="midnightblue" stroke="midnightblue" points="1461.91,-559.901 1461.48,-570.487 1468.42,-562.478 1461.91,-559.901"/>
</g>
<!-- Node3 -->
<g id="node3" class="node"><title>Node3</title>
<g id="a_node3"><a xlink:href="AIRegistry_8h.html" target="_top" xlink:title="/home/travis/build\l/mgerhardy/simpleai\l/src/ai/AIRegistry.h">
<polygon fill="white" stroke="black" points="1206,-414.5 1206,-455.5 1310,-455.5 1310,-414.5 1206,-414.5"/>
<text text-anchor="start" x="1214" y="-443.5" font-family="Helvetica,sans-Serif" font-size="10.00">/home/travis/build</text>
<text text-anchor="start" x="1214" y="-432.5" font-family="Helvetica,sans-Serif" font-size="10.00">/mgerhardy/simpleai</text>
<text text-anchor="middle" x="1258" y="-421.5" font-family="Helvetica,sans-Serif" font-size="10.00">/src/ai/AIRegistry.h</text>
</a>
</g>
</g>
<!-- Node2&#45;&gt;Node3 -->
<g id="edge2" class="edge"><title>Node2&#45;&gt;Node3</title>
<path fill="none" stroke="midnightblue" d="M1363.87,-487.908C1342.55,-477.458 1317.92,-465.38 1297.78,-455.506"/>
<polygon fill="midnightblue" stroke="midnightblue" points="1362.56,-491.168 1373.08,-492.428 1365.65,-484.883 1362.56,-491.168"/>
</g>
<!-- Node2&#45;&gt;Node8 -->
<g id="edge29" class="edge"><title>Node2&#45;&gt;Node8</title>
<path fill="none" stroke="midnightblue" d="M1425.53,-482.717C1437.9,-451.085 1455,-398.905 1455,-352 1455,-352 1455,-352 1455,-176 1455,-112.907 1389.58,-66.1522 1344.86,-41.562"/>
<polygon fill="midnightblue" stroke="midnightblue" points="1422.18,-481.649 1421.7,-492.233 1428.68,-484.26 1422.18,-481.649"/>
</g>
<!-- Node4 -->
<g id="node4" class="node"><title>Node4</title>
<g id="a_node4"><a xlink:href="ConditionParser_8h.html" target="_top" xlink:title="/home/travis/build\l/mgerhardy/simpleai\l/src/ai/conditions/Condition\lParser.h">
<polygon fill="white" stroke="black" points="1039.5,-325 1039.5,-377 1174.5,-377 1174.5,-325 1039.5,-325"/>
<text text-anchor="start" x="1047.5" y="-365" font-family="Helvetica,sans-Serif" font-size="10.00">/home/travis/build</text>
<text text-anchor="start" x="1047.5" y="-354" font-family="Helvetica,sans-Serif" font-size="10.00">/mgerhardy/simpleai</text>
<text text-anchor="start" x="1047.5" y="-343" font-family="Helvetica,sans-Serif" font-size="10.00">/src/ai/conditions/Condition</text>
<text text-anchor="middle" x="1107" y="-332" font-family="Helvetica,sans-Serif" font-size="10.00">Parser.h</text>
</a>
</g>
</g>
<!-- Node3&#45;&gt;Node4 -->
<g id="edge3" class="edge"><title>Node3&#45;&gt;Node4</title>
<path fill="none" stroke="midnightblue" d="M1212.85,-409.481C1194,-399.248 1172.13,-387.37 1153.18,-377.078"/>
<polygon fill="midnightblue" stroke="midnightblue" points="1211.37,-412.662 1221.83,-414.359 1214.71,-406.511 1211.37,-412.662"/>
</g>
<!-- Node5 -->
<g id="node5" class="node"><title>Node5</title>
<g id="a_node5"><a xlink:href="Server_8h.html" target="_top" xlink:title="/home/travis/build\l/mgerhardy/simpleai\l/src/ai/server/Server.h">
<polygon fill="white" stroke="black" points="740.5,-240.5 740.5,-281.5 853.5,-281.5 853.5,-240.5 740.5,-240.5"/>
<text text-anchor="start" x="748.5" y="-269.5" font-family="Helvetica,sans-Serif" font-size="10.00">/home/travis/build</text>
<text text-anchor="start" x="748.5" y="-258.5" font-family="Helvetica,sans-Serif" font-size="10.00">/mgerhardy/simpleai</text>
<text text-anchor="middle" x="797" y="-247.5" font-family="Helvetica,sans-Serif" font-size="10.00">/src/ai/server/Server.h</text>
</a>
</g>
</g>
<!-- Node3&#45;&gt;Node5 -->
<g id="edge26" class="edge"><title>Node3&#45;&gt;Node5</title>
<path fill="none" stroke="midnightblue" d="M1195.94,-422.627C1149.46,-413.186 1084.73,-398.063 1030,-378 955.966,-350.859 874.602,-306.821 830.299,-281.532"/>
<polygon fill="midnightblue" stroke="midnightblue" points="1195.38,-426.083 1205.87,-424.614 1196.75,-419.219 1195.38,-426.083"/>
</g>
<!-- Node3&#45;&gt;Node8 -->
<g id="edge27" class="edge"><title>Node3&#45;&gt;Node8</title>
<path fill="none" stroke="midnightblue" d="M1269.6,-404.544C1280.45,-375.445 1296.01,-329.409 1303,-288 1315.44,-214.329 1307.67,-194.702 1309,-120 1309.33,-101.336 1309.83,-96.6482 1309,-78 1308.46,-65.9085 1307.27,-52.392 1306.19,-41.6678"/>
<polygon fill="midnightblue" stroke="midnightblue" points="1266.25,-403.504 1265.98,-414.095 1272.79,-405.985 1266.25,-403.504"/>
</g>
<!-- Node15 -->
<g id="node15" class="node"><title>Node15</title>
<g id="a_node15"><a xlink:href="LUATreeLoader_8h.html" target="_top" xlink:title="/home/travis/build\l/mgerhardy/simpleai\l/src/ai/tree/loaders\l/lua/LUATreeLoader.h">
<polygon fill="white" stroke="black" points="1183,-235 1183,-287 1295,-287 1295,-235 1183,-235"/>
<text text-anchor="start" x="1191" y="-275" font-family="Helvetica,sans-Serif" font-size="10.00">/home/travis/build</text>
<text text-anchor="start" x="1191" y="-264" font-family="Helvetica,sans-Serif" font-size="10.00">/mgerhardy/simpleai</text>
<text text-anchor="start" x="1191" y="-253" font-family="Helvetica,sans-Serif" font-size="10.00">/src/ai/tree/loaders</text>
<text text-anchor="middle" x="1239" y="-242" font-family="Helvetica,sans-Serif" font-size="10.00">/lua/LUATreeLoader.h</text>
</a>
</g>
</g>
<!-- Node3&#45;&gt;Node15 -->
<g id="edge28" class="edge"><title>Node3&#45;&gt;Node15</title>
<path fill="none" stroke="midnightblue" d="M1254.72,-404.263C1251.06,-371.131 1245.2,-318.145 1241.77,-287.045"/>
<polygon fill="midnightblue" stroke="midnightblue" points="1251.24,-404.714 1255.82,-414.269 1258.2,-403.946 1251.24,-404.714"/>
</g>
<!-- Node17 -->
<g id="node17" class="node"><title>Node17</title>
<g id="a_node17"><a xlink:href="LUAAIRegistry_8h_source.html" target="_top" xlink:title="/home/travis/build\l/mgerhardy/simpleai\l/src/ai/LUAAIRegistry.h">
<polygon fill="white" stroke="black" points="1305.5,-330.5 1305.5,-371.5 1426.5,-371.5 1426.5,-330.5 1305.5,-330.5"/>
<text text-anchor="start" x="1313.5" y="-359.5" font-family="Helvetica,sans-Serif" font-size="10.00">/home/travis/build</text>
<text text-anchor="start" x="1313.5" y="-348.5" font-family="Helvetica,sans-Serif" font-size="10.00">/mgerhardy/simpleai</text>
<text text-anchor="middle" x="1366" y="-337.5" font-family="Helvetica,sans-Serif" font-size="10.00">/src/ai/LUAAIRegistry.h</text>
</a>
</g>
</g>
<!-- Node3&#45;&gt;Node17 -->
<g id="edge25" class="edge"><title>Node3&#45;&gt;Node17</title>
<path fill="none" stroke="midnightblue" d="M1292.16,-408.062C1307.63,-396.318 1325.62,-382.66 1339.97,-371.765"/>
<polygon fill="midnightblue" stroke="midnightblue" points="1289.72,-405.524 1283.87,-414.359 1293.95,-411.099 1289.72,-405.524"/>
</g>
<!-- Node4&#45;&gt;Node5 -->
<g id="edge4" class="edge"><title>Node4&#45;&gt;Node5</title>
<path fill="none" stroke="midnightblue" d="M1029.7,-328.057C975.033,-312.538 902.969,-292.082 853.605,-278.069"/>
<polygon fill="midnightblue" stroke="midnightblue" points="1028.78,-331.433 1039.35,-330.797 1030.69,-324.699 1028.78,-331.433"/>
</g>
<!-- Node4&#45;&gt;Node8 -->
<g id="edge22" class="edge"><title>Node4&#45;&gt;Node8</title>
<path fill="none" stroke="midnightblue" d="M1061.82,-317.969C1052.97,-309.336 1044.91,-299.232 1040,-288 1030.39,-266.009 1024.49,-252.318 1040,-234 1102.6,-160.051 1182.97,-262.796 1255,-198 1300.39,-157.166 1305.23,-78.2262 1304.83,-41.5771"/>
<polygon fill="midnightblue" stroke="midnightblue" points="1059.65,-320.722 1069.4,-324.867 1064.36,-315.546 1059.65,-320.722"/>
</g>
<!-- Node4&#45;&gt;Node15 -->
<g id="edge23" class="edge"><title>Node4&#45;&gt;Node15</title>
<path fill="none" stroke="midnightblue" d="M1153.33,-319.114C1168.98,-308.68 1186.26,-297.163 1201.17,-287.221"/>
<polygon fill="midnightblue" stroke="midnightblue" points="1151.2,-316.324 1144.83,-324.783 1155.09,-322.148 1151.2,-316.324"/>
</g>
<!-- Node16 -->
<g id="node16" class="node"><title>Node16</title>
<g id="a_node16"><a xlink:href="XMLTreeLoader_8h.html" target="_top" xlink:title="/home/travis/build\l/mgerhardy/simpleai\l/src/ai/tree/loaders\l/xml/XMLTreeLoader.h">
<polygon fill="white" stroke="black" points="1049,-235 1049,-287 1165,-287 1165,-235 1049,-235"/>
<text text-anchor="start" x="1057" y="-275" font-family="Helvetica,sans-Serif" font-size="10.00">/home/travis/build</text>
<text text-anchor="start" x="1057" y="-264" font-family="Helvetica,sans-Serif" font-size="10.00">/mgerhardy/simpleai</text>
<text text-anchor="start" x="1057" y="-253" font-family="Helvetica,sans-Serif" font-size="10.00">/src/ai/tree/loaders</text>
<text text-anchor="middle" x="1107" y="-242" font-family="Helvetica,sans-Serif" font-size="10.00">/xml/XMLTreeLoader.h</text>
</a>
</g>
</g>
<!-- Node4&#45;&gt;Node16 -->
<g id="edge24" class="edge"><title>Node4&#45;&gt;Node16</title>
<path fill="none" stroke="midnightblue" d="M1107,-314.489C1107,-305.309 1107,-295.616 1107,-287.092"/>
<polygon fill="midnightblue" stroke="midnightblue" points="1103.5,-314.547 1107,-324.547 1110.5,-314.547 1103.5,-314.547"/>
</g>
<!-- Node6 -->
<g id="node6" class="node"><title>Node6</title>
<g id="a_node6"><a xlink:href="ChangeHandler_8h.html" target="_top" xlink:title="/home/travis/build\l/mgerhardy/simpleai\l/src/ai/server/ChangeHandler.h">
<polygon fill="white" stroke="black" points="0,-156.5 0,-197.5 152,-197.5 152,-156.5 0,-156.5"/>
<text text-anchor="start" x="8" y="-185.5" font-family="Helvetica,sans-Serif" font-size="10.00">/home/travis/build</text>
<text text-anchor="start" x="8" y="-174.5" font-family="Helvetica,sans-Serif" font-size="10.00">/mgerhardy/simpleai</text>
<text text-anchor="middle" x="76" y="-163.5" font-family="Helvetica,sans-Serif" font-size="10.00">/src/ai/server/ChangeHandler.h</text>
</a>
</g>
</g>
<!-- Node5&#45;&gt;Node6 -->
<g id="edge5" class="edge"><title>Node5&#45;&gt;Node6</title>
<path fill="none" stroke="midnightblue" d="M730.032,-256.086C614.427,-248.736 370.172,-230.594 166,-198 161.574,-197.293 157.04,-196.502 152.474,-195.653"/>
<polygon fill="midnightblue" stroke="midnightblue" points="729.944,-259.587 740.144,-256.722 730.383,-252.601 729.944,-259.587"/>
</g>
<!-- Node7 -->
<g id="node7" class="node"><title>Node7</title>
<g id="a_node7"><a xlink:href="ServerImpl_8h.html" target="_top" xlink:title="/home/travis/build\l/mgerhardy/simpleai\l/src/ai/server/ServerImpl.h">
<polygon fill="white" stroke="black" points="567,-78.5 567,-119.5 699,-119.5 699,-78.5 567,-78.5"/>
<text text-anchor="start" x="575" y="-107.5" font-family="Helvetica,sans-Serif" font-size="10.00">/home/travis/build</text>
<text text-anchor="start" x="575" y="-96.5" font-family="Helvetica,sans-Serif" font-size="10.00">/mgerhardy/simpleai</text>
<text text-anchor="middle" x="633" y="-85.5" font-family="Helvetica,sans-Serif" font-size="10.00">/src/ai/server/ServerImpl.h</text>
</a>
</g>
</g>
<!-- Node5&#45;&gt;Node7 -->
<g id="edge16" class="edge"><title>Node5&#45;&gt;Node7</title>
<path fill="none" stroke="midnightblue" d="M729.944,-258.005C581.222,-252.889 234.046,-236.867 199,-198 186.5,-184.137 186.674,-170.018 199,-156 222.891,-128.828 451.551,-111.086 566.997,-103.786"/>
<polygon fill="midnightblue" stroke="midnightblue" points="730.19,-261.515 740.302,-258.354 730.426,-254.519 730.19,-261.515"/>
</g>
<!-- Node5&#45;&gt;Node8 -->
<g id="edge21" class="edge"><title>Node5&#45;&gt;Node8</title>
<path fill="none" stroke="midnightblue" d="M863.947,-251.239C983.045,-235.532 1219.99,-203.683 1227,-198 1271.12,-162.225 1246.7,-129.347 1271,-78 1276.89,-65.5556 1284.66,-52.254 1291.18,-41.7385"/>
<polygon fill="midnightblue" stroke="midnightblue" points="863.299,-247.794 853.842,-252.57 864.214,-254.734 863.299,-247.794"/>
</g>
<!-- Node9 -->
<g id="node9" class="node"><title>Node9</title>
<g id="a_node9"><a xlink:href="DeleteNodeHandler_8h.html" target="_top" xlink:title="/home/travis/build\l/mgerhardy/simpleai\l/src/ai/server/DeleteNodeHandler.h">
<polygon fill="white" stroke="black" points="208,-156.5 208,-197.5 378,-197.5 378,-156.5 208,-156.5"/>
<text text-anchor="start" x="216" y="-185.5" font-family="Helvetica,sans-Serif" font-size="10.00">/home/travis/build</text>
<text text-anchor="start" x="216" y="-174.5" font-family="Helvetica,sans-Serif" font-size="10.00">/mgerhardy/simpleai</text>
<text text-anchor="middle" x="293" y="-163.5" font-family="Helvetica,sans-Serif" font-size="10.00">/src/ai/server/DeleteNodeHandler.h</text>
</a>
</g>
</g>
<!-- Node5&#45;&gt;Node9 -->
<g id="edge8" class="edge"><title>Node5&#45;&gt;Node9</title>
<path fill="none" stroke="midnightblue" d="M730.358,-251.165C649.066,-240.102 507.564,-219.922 387,-198 384.045,-197.463 381.041,-196.902 378.01,-196.324"/>
<polygon fill="midnightblue" stroke="midnightblue" points="730.072,-254.659 740.452,-252.534 731.013,-247.722 730.072,-254.659"/>
</g>
<!-- Node10 -->
<g id="node10" class="node"><title>Node10</title>
<g id="a_node10"><a xlink:href="PauseHandler_8h.html" target="_top" xlink:title="/home/travis/build\l/mgerhardy/simpleai\l/src/ai/server/PauseHandler.h">
<polygon fill="white" stroke="black" points="396,-156.5 396,-197.5 542,-197.5 542,-156.5 396,-156.5"/>
<text text-anchor="start" x="404" y="-185.5" font-family="Helvetica,sans-Serif" font-size="10.00">/home/travis/build</text>
<text text-anchor="start" x="404" y="-174.5" font-family="Helvetica,sans-Serif" font-size="10.00">/mgerhardy/simpleai</text>
<text text-anchor="middle" x="469" y="-163.5" font-family="Helvetica,sans-Serif" font-size="10.00">/src/ai/server/PauseHandler.h</text>
</a>
</g>
</g>
<!-- Node5&#45;&gt;Node10 -->
<g id="edge10" class="edge"><title>Node5&#45;&gt;Node10</title>
<path fill="none" stroke="midnightblue" d="M730.304,-243.326C675.624,-229.656 598.338,-210.335 542.007,-196.252"/>
<polygon fill="midnightblue" stroke="midnightblue" points="729.691,-246.78 740.241,-245.81 731.389,-239.989 729.691,-246.78"/>
</g>
<!-- Node11 -->
<g id="node11" class="node"><title>Node11</title>
<g id="a_node11"><a xlink:href="ResetHandler_8h.html" target="_top" xlink:title="/home/travis/build\l/mgerhardy/simpleai\l/src/ai/server/ResetHandler.h">
<polygon fill="white" stroke="black" points="560.5,-156.5 560.5,-197.5 705.5,-197.5 705.5,-156.5 560.5,-156.5"/>
<text text-anchor="start" x="568.5" y="-185.5" font-family="Helvetica,sans-Serif" font-size="10.00">/home/travis/build</text>
<text text-anchor="start" x="568.5" y="-174.5" font-family="Helvetica,sans-Serif" font-size="10.00">/mgerhardy/simpleai</text>
<text text-anchor="middle" x="633" y="-163.5" font-family="Helvetica,sans-Serif" font-size="10.00">/src/ai/server/ResetHandler.h</text>
</a>
</g>
</g>
<!-- Node5&#45;&gt;Node11 -->
<g id="edge12" class="edge"><title>Node5&#45;&gt;Node11</title>
<path fill="none" stroke="midnightblue" d="M748.646,-235.823C724.305,-223.652 695.178,-209.089 672.245,-197.623"/>
<polygon fill="midnightblue" stroke="midnightblue" points="747.208,-239.017 757.718,-240.359 750.339,-232.756 747.208,-239.017"/>
</g>
<!-- Node12 -->
<g id="node12" class="node"><title>Node12</title>
<g id="a_node12"><a xlink:href="SelectHandler_8h.html" target="_top" xlink:title="/home/travis/build\l/mgerhardy/simpleai\l/src/ai/server/SelectHandler.h">
<polygon fill="white" stroke="black" points="724,-156.5 724,-197.5 870,-197.5 870,-156.5 724,-156.5"/>
<text text-anchor="start" x="732" y="-185.5" font-family="Helvetica,sans-Serif" font-size="10.00">/home/travis/build</text>
<text text-anchor="start" x="732" y="-174.5" font-family="Helvetica,sans-Serif" font-size="10.00">/mgerhardy/simpleai</text>
<text text-anchor="middle" x="797" y="-163.5" font-family="Helvetica,sans-Serif" font-size="10.00">/src/ai/server/SelectHandler.h</text>
</a>
</g>
</g>
<!-- Node5&#45;&gt;Node12 -->
<g id="edge14" class="edge"><title>Node5&#45;&gt;Node12</title>
<path fill="none" stroke="midnightblue" d="M797,-229.881C797,-219.133 797,-207.309 797,-197.667"/>
<polygon fill="midnightblue" stroke="midnightblue" points="793.5,-230.15 797,-240.15 800.5,-230.15 793.5,-230.15"/>
</g>
<!-- Node13 -->
<g id="node13" class="node"><title>Node13</title>
<g id="a_node13"><a xlink:href="StepHandler_8h.html" target="_top" xlink:title="/home/travis/build\l/mgerhardy/simpleai\l/src/ai/server/StepHandler.h">
<polygon fill="white" stroke="black" points="888.5,-156.5 888.5,-197.5 1027.5,-197.5 1027.5,-156.5 888.5,-156.5"/>
<text text-anchor="start" x="896.5" y="-185.5" font-family="Helvetica,sans-Serif" font-size="10.00">/home/travis/build</text>
<text text-anchor="start" x="896.5" y="-174.5" font-family="Helvetica,sans-Serif" font-size="10.00">/mgerhardy/simpleai</text>
<text text-anchor="middle" x="958" y="-163.5" font-family="Helvetica,sans-Serif" font-size="10.00">/src/ai/server/StepHandler.h</text>
</a>
</g>
</g>
<!-- Node5&#45;&gt;Node13 -->
<g id="edge17" class="edge"><title>Node5&#45;&gt;Node13</title>
<path fill="none" stroke="midnightblue" d="M844.785,-235.662C868.617,-223.524 897.058,-209.039 919.472,-197.623"/>
<polygon fill="midnightblue" stroke="midnightblue" points="842.886,-232.702 835.564,-240.359 846.063,-238.939 842.886,-232.702"/>
</g>
<!-- Node14 -->
<g id="node14" class="node"><title>Node14</title>
<g id="a_node14"><a xlink:href="UpdateNodeHandler_8h.html" target="_top" xlink:title="/home/travis/build\l/mgerhardy/simpleai\l/src/ai/server/UpdateNodeHandler.h">
<polygon fill="white" stroke="black" points="1045.5,-156.5 1045.5,-197.5 1218.5,-197.5 1218.5,-156.5 1045.5,-156.5"/>
<text text-anchor="start" x="1053.5" y="-185.5" font-family="Helvetica,sans-Serif" font-size="10.00">/home/travis/build</text>
<text text-anchor="start" x="1053.5" y="-174.5" font-family="Helvetica,sans-Serif" font-size="10.00">/mgerhardy/simpleai</text>
<text text-anchor="middle" x="1132" y="-163.5" font-family="Helvetica,sans-Serif" font-size="10.00">/src/ai/server/UpdateNodeHandler.h</text>
</a>
</g>
</g>
<!-- Node5&#45;&gt;Node14 -->
<g id="edge19" class="edge"><title>Node5&#45;&gt;Node14</title>
<path fill="none" stroke="midnightblue" d="M863.691,-243.676C917.967,-230.39 994.729,-211.601 1052.25,-197.521"/>
<polygon fill="midnightblue" stroke="midnightblue" points="862.709,-240.313 853.828,-246.09 864.374,-247.112 862.709,-240.313"/>
</g>
<!-- Node6&#45;&gt;Node7 -->
<g id="edge6" class="edge"><title>Node6&#45;&gt;Node7</title>
<path fill="none" stroke="midnightblue" d="M162.113,-156.677C163.417,-156.445 164.713,-156.22 166,-156 308.072,-131.758 476.226,-114.324 566.965,-105.834"/>
<polygon fill="midnightblue" stroke="midnightblue" points="161.197,-153.287 152.004,-158.553 162.475,-160.17 161.197,-153.287"/>
</g>
<!-- Node7&#45;&gt;Node8 -->
<g id="edge7" class="edge"><title>Node7&#45;&gt;Node8</title>
<path fill="none" stroke="midnightblue" d="M709.224,-89.3666C846.874,-73.7758 1133.57,-41.3031 1251.55,-27.9405"/>
<polygon fill="midnightblue" stroke="midnightblue" points="708.717,-85.9015 699.174,-90.5048 709.505,-92.8571 708.717,-85.9015"/>
</g>
<!-- Node9&#45;&gt;Node7 -->
<g id="edge9" class="edge"><title>Node9&#45;&gt;Node7</title>
<path fill="none" stroke="midnightblue" d="M388.45,-154.664C445.354,-141.944 516.155,-126.118 566.91,-114.773"/>
<polygon fill="midnightblue" stroke="midnightblue" points="387.353,-151.323 378.357,-156.92 388.88,-158.154 387.353,-151.323"/>
</g>
<!-- Node10&#45;&gt;Node7 -->
<g id="edge11" class="edge"><title>Node10&#45;&gt;Node7</title>
<path fill="none" stroke="midnightblue" d="M520.382,-152.189C543.07,-141.675 569.41,-129.469 590.909,-119.506"/>
<polygon fill="midnightblue" stroke="midnightblue" points="518.836,-149.048 511.234,-156.428 521.779,-155.399 518.836,-149.048"/>
</g>
<!-- Node11&#45;&gt;Node7 -->
<g id="edge13" class="edge"><title>Node11&#45;&gt;Node7</title>
<path fill="none" stroke="midnightblue" d="M633,-146.297C633,-137.301 633,-127.653 633,-119.506"/>
<polygon fill="midnightblue" stroke="midnightblue" points="629.5,-146.428 633,-156.428 636.5,-146.428 629.5,-146.428"/>
</g>
<!-- Node12&#45;&gt;Node7 -->
<g id="edge15" class="edge"><title>Node12&#45;&gt;Node7</title>
<path fill="none" stroke="midnightblue" d="M745.618,-152.189C722.93,-141.675 696.59,-129.469 675.091,-119.506"/>
<polygon fill="midnightblue" stroke="midnightblue" points="744.221,-155.399 754.766,-156.428 747.164,-149.048 744.221,-155.399"/>
</g>
<!-- Node13&#45;&gt;Node7 -->
<g id="edge18" class="edge"><title>Node13&#45;&gt;Node7</title>
<path fill="none" stroke="midnightblue" d="M878.393,-155.879C811.735,-139.923 746.397,-125.14 699.141,-114.602"/>
<polygon fill="midnightblue" stroke="midnightblue" points="877.695,-159.31 888.236,-158.241 879.329,-152.504 877.695,-159.31"/>
</g>
<!-- Node14&#45;&gt;Node7 -->
<g id="edge20" class="edge"><title>Node14&#45;&gt;Node7</title>
<path fill="none" stroke="midnightblue" d="M1035.33,-155.943C910.585,-134.569 777.09,-117.313 699.179,-107.809"/>
<polygon fill="midnightblue" stroke="midnightblue" points="1034.99,-159.436 1045.44,-157.688 1036.19,-152.538 1034.99,-159.436"/>
</g>
</g>
</svg>
