<?xml version="1.0" encoding="UTF-8" standalone="no"?>
<!DOCTYPE svg PUBLIC "-//W3C//DTD SVG 1.1//EN"
 "http://www.w3.org/Graphics/SVG/1.1/DTD/svg11.dtd">
<!-- Generated by graphviz version 2.36.0 (20140111.2315)
 -->
<!-- Title: /home/travis/build/mgerhardy/simpleai/src/ai/tree/loaders/ITreeLoader.h Pages: 1 -->
<svg width="639pt" height="286pt"
 viewBox="0.00 0.00 638.85 286.00" xmlns="http://www.w3.org/2000/svg" xmlns:xlink="http://www.w3.org/1999/xlink">
<g id="graph0" class="graph" transform="scale(1 1) rotate(0) translate(4 282)">
<title>/home/travis/build/mgerhardy/simpleai/src/ai/tree/loaders/ITreeLoader.h</title>
<polygon fill="white" stroke="none" points="-4,4 -4,-282 634.855,-282 634.855,4 -4,4"/>
<!-- Node1 -->
<g id="node1" class="node"><title>Node1</title>
<polygon fill="#bfbfbf" stroke="black" points="383.855,-225 383.855,-277 487.855,-277 487.855,-225 383.855,-225"/>
<text text-anchor="start" x="391.855" y="-265" font-family="Helvetica,sans-Serif" font-size="10.00">/home/travis/build</text>
<text text-anchor="start" x="391.855" y="-254" font-family="Helvetica,sans-Serif" font-size="10.00">/mgerhardy/simpleai</text>
<text text-anchor="start" x="391.855" y="-243" font-family="Helvetica,sans-Serif" font-size="10.00">/src/ai/tree/loaders</text>
<text text-anchor="middle" x="435.855" y="-232" font-family="Helvetica,sans-Serif" font-size="10.00">/ITreeLoader.h</text>
</g>
<!-- Node2 -->
<g id="node2" class="node"><title>Node2</title>
<g id="a_node2"><a xlink:href="Thread_8h.html" target="_top" xlink:title="common/Thread.h">
<polygon fill="white" stroke="black" points="134.355,-168.5 134.355,-187.5 229.355,-187.5 229.355,-168.5 134.355,-168.5"/>
<text text-anchor="middle" x="181.855" y="-175.5" font-family="Helvetica,sans-Serif" font-size="10.00">common/Thread.h</text>
</a>
</g>
</g>
<!-- Node1&#45;&gt;Node2 -->
<g id="edge1" class="edge"><title>Node1&#45;&gt;Node2</title>
<path fill="none" stroke="midnightblue" d="M383.841,-235.461C335.905,-222.061 265.765,-202.455 222.013,-190.225"/>
<polygon fill="midnightblue" stroke="midnightblue" points="222.865,-186.829 212.292,-187.508 220.98,-193.571 222.865,-186.829"/>
</g>
<!-- Node5 -->
<g id="node5" class="node"><title>Node5</title>
<polygon fill="white" stroke="#bfbfbf" points="154.855,-0.5 154.855,-19.5 200.855,-19.5 200.855,-0.5 154.855,-0.5"/>
<text text-anchor="middle" x="177.855" y="-7.5" font-family="Helvetica,sans-Serif" font-size="10.00">stdio.h</text>
</g>
<!-- Node1&#45;&gt;Node5 -->
<g id="edge20" class="edge"><title>Node1&#45;&gt;Node5</title>
<path fill="none" stroke="midnightblue" d="M383.592,-244.65C320.673,-237.069 212.528,-220.365 124.855,-188 77.0678,-170.359 55.7892,-172.47 24.8546,-132 3.99658,-104.713 -10.0348,-83.2633 10.8546,-56 27.0432,-34.8718 100.902,-21.4255 144.791,-15.1543"/>
<polygon fill="midnightblue" stroke="midnightblue" points="145.295,-18.6179 154.723,-13.7841 144.339,-11.6836 145.295,-18.6179"/>
</g>
<!-- Node6 -->
<g id="node6" class="node"><title>Node6</title>
<polygon fill="white" stroke="#bfbfbf" points="389.855,-0.5 389.855,-19.5 441.855,-19.5 441.855,-0.5 389.855,-0.5"/>
<text text-anchor="middle" x="415.855" y="-7.5" font-family="Helvetica,sans-Serif" font-size="10.00">stdarg.h</text>
</g>
<!-- Node1&#45;&gt;Node6 -->
<g id="edge19" class="edge"><title>Node1&#45;&gt;Node6</title>
<path fill="none" stroke="midnightblue" d="M433.752,-224.875C429.728,-176.79 421.02,-72.7328 417.441,-29.953"/>
<polygon fill="midnightblue" stroke="midnightblue" points="420.915,-29.4952 416.593,-19.822 413.939,-30.079 420.915,-29.4952"/>
</g>
<!-- Node8 -->
<g id="node8" class="node"><title>Node8</title>
<polygon fill="white" stroke="#bfbfbf" points="366.355,-56.5 366.355,-75.5 407.355,-75.5 407.355,-56.5 366.355,-56.5"/>
<text text-anchor="middle" x="386.855" y="-63.5" font-family="Helvetica,sans-Serif" font-size="10.00">string</text>
</g>
<!-- Node1&#45;&gt;Node8 -->
<g id="edge16" class="edge"><title>Node1&#45;&gt;Node8</title>
<path fill="none" stroke="midnightblue" d="M429.144,-224.938C419.159,-187.649 400.622,-118.419 391.786,-85.4187"/>
<polygon fill="midnightblue" stroke="midnightblue" points="395.156,-84.4693 389.188,-75.7149 388.394,-86.2799 395.156,-84.4693"/>
</g>
<!-- Node15 -->
<g id="node15" class="node"><title>Node15</title>
<polygon fill="white" stroke="#bfbfbf" points="463.855,-168.5 463.855,-187.5 515.855,-187.5 515.855,-168.5 463.855,-168.5"/>
<text text-anchor="middle" x="489.855" y="-175.5" font-family="Helvetica,sans-Serif" font-size="10.00">memory</text>
</g>
<!-- Node1&#45;&gt;Node15 -->
<g id="edge15" class="edge"><title>Node1&#45;&gt;Node15</title>
<path fill="none" stroke="midnightblue" d="M455.045,-224.768C462.335,-215.183 470.456,-204.506 477.019,-195.877"/>
<polygon fill="midnightblue" stroke="midnightblue" points="479.926,-197.835 483.194,-187.757 474.355,-193.598 479.926,-197.835"/>
</g>
<!-- Node16 -->
<g id="node16" class="node"><title>Node16</title>
<polygon fill="white" stroke="#bfbfbf" points="533.855,-168.5 533.855,-187.5 577.855,-187.5 577.855,-168.5 533.855,-168.5"/>
<text text-anchor="middle" x="555.855" y="-175.5" font-family="Helvetica,sans-Serif" font-size="10.00">vector</text>
</g>
<!-- Node1&#45;&gt;Node16 -->
<g id="edge17" class="edge"><title>Node1&#45;&gt;Node16</title>
<path fill="none" stroke="midnightblue" d="M478.162,-224.968C496.379,-214.19 516.986,-201.997 532.397,-192.879"/>
<polygon fill="midnightblue" stroke="midnightblue" points="534.429,-195.743 541.254,-187.639 530.865,-189.719 534.429,-195.743"/>
</g>
<!-- Node17 -->
<g id="node17" class="node"><title>Node17</title>
<polygon fill="white" stroke="#bfbfbf" points="596.355,-168.5 596.355,-187.5 631.355,-187.5 631.355,-168.5 596.355,-168.5"/>
<text text-anchor="middle" x="613.855" y="-175.5" font-family="Helvetica,sans-Serif" font-size="10.00">map</text>
</g>
<!-- Node1&#45;&gt;Node17 -->
<g id="edge18" class="edge"><title>Node1&#45;&gt;Node17</title>
<path fill="none" stroke="midnightblue" d="M488.298,-229.082C520.527,-216.226 560.498,-200.283 586.563,-189.886"/>
<polygon fill="midnightblue" stroke="midnightblue" points="588.165,-193.015 596.157,-186.059 585.572,-186.513 588.165,-193.015"/>
</g>
<!-- Node3 -->
<g id="node3" class="node"><title>Node3</title>
<g id="a_node3"><a xlink:href="Types_8h.html" target="_top" xlink:title="Types.h">
<polygon fill="white" stroke="black" points="221.855,-112.5 221.855,-131.5 273.855,-131.5 273.855,-112.5 221.855,-112.5"/>
<text text-anchor="middle" x="247.855" y="-119.5" font-family="Helvetica,sans-Serif" font-size="10.00">Types.h</text>
</a>
</g>
</g>
<!-- Node2&#45;&gt;Node3 -->
<g id="edge2" class="edge"><title>Node2&#45;&gt;Node3</title>
<path fill="none" stroke="midnightblue" d="M192.459,-168.324C202.311,-160.263 217.206,-148.077 229.07,-138.369"/>
<polygon fill="midnightblue" stroke="midnightblue" points="231.534,-140.875 237.058,-131.834 227.102,-135.457 231.534,-140.875"/>
</g>
<!-- Node12 -->
<g id="node12" class="node"><title>Node12</title>
<polygon fill="white" stroke="#bfbfbf" points="97.8546,-112.5 97.8546,-131.5 141.855,-131.5 141.855,-112.5 97.8546,-112.5"/>
<text text-anchor="middle" x="119.855" y="-119.5" font-family="Helvetica,sans-Serif" font-size="10.00">thread</text>
</g>
<!-- Node2&#45;&gt;Node12 -->
<g id="edge12" class="edge"><title>Node2&#45;&gt;Node12</title>
<path fill="none" stroke="midnightblue" d="M171.893,-168.324C162.728,-160.341 148.917,-148.313 137.826,-138.653"/>
<polygon fill="midnightblue" stroke="midnightblue" points="139.837,-135.762 129.997,-131.834 135.239,-141.041 139.837,-135.762"/>
</g>
<!-- Node13 -->
<g id="node13" class="node"><title>Node13</title>
<polygon fill="white" stroke="#bfbfbf" points="159.855,-112.5 159.855,-131.5 203.855,-131.5 203.855,-112.5 159.855,-112.5"/>
<text text-anchor="middle" x="181.855" y="-119.5" font-family="Helvetica,sans-Serif" font-size="10.00">mutex</text>
</g>
<!-- Node2&#45;&gt;Node13 -->
<g id="edge13" class="edge"><title>Node2&#45;&gt;Node13</title>
<path fill="none" stroke="midnightblue" d="M181.855,-168.083C181.855,-161.006 181.855,-150.861 181.855,-141.986"/>
<polygon fill="midnightblue" stroke="midnightblue" points="185.355,-141.751 181.855,-131.751 178.355,-141.751 185.355,-141.751"/>
</g>
<!-- Node14 -->
<g id="node14" class="node"><title>Node14</title>
<polygon fill="white" stroke="#bfbfbf" points="33.8546,-112.5 33.8546,-131.5 79.8546,-131.5 79.8546,-112.5 33.8546,-112.5"/>
<text text-anchor="middle" x="56.8546" y="-119.5" font-family="Helvetica,sans-Serif" font-size="10.00">atomic</text>
</g>
<!-- Node2&#45;&gt;Node14 -->
<g id="edge14" class="edge"><title>Node2&#45;&gt;Node14</title>
<path fill="none" stroke="midnightblue" d="M162.048,-168.444C141.568,-159.596 109.372,-145.687 85.9899,-135.586"/>
<polygon fill="midnightblue" stroke="midnightblue" points="87.1366,-132.269 76.5685,-131.516 84.3605,-138.695 87.1366,-132.269"/>
</g>
<!-- Node4 -->
<g id="node4" class="node"><title>Node4</title>
<g id="a_node4"><a xlink:href="Log_8h.html" target="_top" xlink:title="Log.h">
<polygon fill="white" stroke="black" points="307.355,-56.5 307.355,-75.5 348.355,-75.5 348.355,-56.5 307.355,-56.5"/>
<text text-anchor="middle" x="327.855" y="-63.5" font-family="Helvetica,sans-Serif" font-size="10.00">Log.h</text>
</a>
</g>
</g>
<!-- Node3&#45;&gt;Node4 -->
<g id="edge3" class="edge"><title>Node3&#45;&gt;Node4</title>
<path fill="none" stroke="midnightblue" d="M260.708,-112.324C273.071,-103.979 291.985,-91.2122 306.592,-81.3524"/>
<polygon fill="midnightblue" stroke="midnightblue" points="308.703,-84.1503 315.033,-75.6545 304.786,-78.3483 308.703,-84.1503"/>
</g>
<!-- Node3&#45;&gt;Node5 -->
<g id="edge10" class="edge"><title>Node3&#45;&gt;Node5</title>
<path fill="none" stroke="midnightblue" d="M234.209,-112.254C222.656,-104.172 206.481,-91.1484 196.855,-76 187.889,-61.891 183.021,-43.4029 180.465,-29.7527"/>
<polygon fill="midnightblue" stroke="midnightblue" points="183.879,-28.9373 178.823,-19.6267 176.969,-30.0581 183.879,-28.9373"/>
</g>
<!-- Node3&#45;&gt;Node8 -->
<g id="edge7" class="edge"><title>Node3&#45;&gt;Node8</title>
<path fill="none" stroke="midnightblue" d="M269.88,-112.444C293.366,-103.319 330.708,-88.8125 356.866,-78.6501"/>
<polygon fill="midnightblue" stroke="midnightblue" points="358.238,-81.8721 366.292,-74.9883 355.703,-75.3471 358.238,-81.8721"/>
</g>
<!-- Node9 -->
<g id="node9" class="node"><title>Node9</title>
<polygon fill="white" stroke="#bfbfbf" points="206.355,-56.5 206.355,-75.5 289.355,-75.5 289.355,-56.5 206.355,-56.5"/>
<text text-anchor="middle" x="247.855" y="-63.5" font-family="Helvetica,sans-Serif" font-size="10.00">unordered_map</text>
</g>
<!-- Node3&#45;&gt;Node9 -->
<g id="edge8" class="edge"><title>Node3&#45;&gt;Node9</title>
<path fill="none" stroke="midnightblue" d="M247.855,-112.083C247.855,-105.006 247.855,-94.8611 247.855,-85.9865"/>
<polygon fill="midnightblue" stroke="midnightblue" points="251.355,-85.751 247.855,-75.7511 244.355,-85.7511 251.355,-85.751"/>
</g>
<!-- Node10 -->
<g id="node10" class="node"><title>Node10</title>
<polygon fill="white" stroke="#bfbfbf" points="19.8546,-56.5 19.8546,-75.5 71.8546,-75.5 71.8546,-56.5 19.8546,-56.5"/>
<text text-anchor="middle" x="45.8546" y="-63.5" font-family="Helvetica,sans-Serif" font-size="10.00">assert.h</text>
</g>
<!-- Node3&#45;&gt;Node10 -->
<g id="edge9" class="edge"><title>Node3&#45;&gt;Node10</title>
<path fill="none" stroke="midnightblue" d="M221.447,-113.94C185.735,-104.394 121.913,-87.3326 81.8399,-76.6198"/>
<polygon fill="midnightblue" stroke="midnightblue" points="82.5136,-73.1771 71.9489,-73.9757 80.7058,-79.9396 82.5136,-73.1771"/>
</g>
<!-- Node11 -->
<g id="node11" class="node"><title>Node11</title>
<polygon fill="white" stroke="#bfbfbf" points="90.3546,-56.5 90.3546,-75.5 149.355,-75.5 149.355,-56.5 90.3546,-56.5"/>
<text text-anchor="middle" x="119.855" y="-63.5" font-family="Helvetica,sans-Serif" font-size="10.00">inttypes.h</text>
</g>
<!-- Node3&#45;&gt;Node11 -->
<g id="edge11" class="edge"><title>Node3&#45;&gt;Node11</title>
<path fill="none" stroke="midnightblue" d="M227.573,-112.444C206.507,-103.557 173.338,-89.5632 149.369,-79.4514"/>
<polygon fill="midnightblue" stroke="midnightblue" points="150.616,-76.1787 140.042,-75.5164 147.895,-82.6283 150.616,-76.1787"/>
</g>
<!-- Node4&#45;&gt;Node5 -->
<g id="edge4" class="edge"><title>Node4&#45;&gt;Node5</title>
<path fill="none" stroke="midnightblue" d="M307.312,-57.6048C282.37,-48.6255 239.993,-33.3699 210.547,-22.7693"/>
<polygon fill="midnightblue" stroke="midnightblue" points="211.695,-19.4627 201.101,-19.3685 209.324,-26.0489 211.695,-19.4627"/>
</g>
<!-- Node4&#45;&gt;Node6 -->
<g id="edge5" class="edge"><title>Node4&#45;&gt;Node6</title>
<path fill="none" stroke="midnightblue" d="M341.993,-56.324C355.721,-47.9002 376.791,-34.9709 392.919,-25.0741"/>
<polygon fill="midnightblue" stroke="midnightblue" points="395.058,-27.8678 401.751,-19.6545 391.397,-21.9016 395.058,-27.8678"/>
</g>
<!-- Node7 -->
<g id="node7" class="node"><title>Node7</title>
<polygon fill="white" stroke="#bfbfbf" points="303.355,-0.5 303.355,-19.5 352.355,-19.5 352.355,-0.5 303.355,-0.5"/>
<text text-anchor="middle" x="327.855" y="-7.5" font-family="Helvetica,sans-Serif" font-size="10.00">string.h</text>
</g>
<!-- Node4&#45;&gt;Node7 -->
<g id="edge6" class="edge"><title>Node4&#45;&gt;Node7</title>
<path fill="none" stroke="midnightblue" d="M327.855,-56.083C327.855,-49.0059 327.855,-38.8611 327.855,-29.9865"/>
<polygon fill="midnightblue" stroke="midnightblue" points="331.355,-29.751 327.855,-19.7511 324.355,-29.7511 331.355,-29.751"/>
</g>
</g>
</svg>
