<?xml version="1.0" encoding="UTF-8" standalone="no"?>
<!DOCTYPE svg PUBLIC "-//W3C//DTD SVG 1.1//EN"
 "http://www.w3.org/Graphics/SVG/1.1/DTD/svg11.dtd">
<!-- Generated by graphviz version 2.36.0 (20140111.2315)
 -->
<!-- Title: /home/travis/build/mgerhardy/simpleai/src/ai/tree/loaders/ITreeLoader.h Pages: 1 -->
<svg width="455pt" height="286pt"
 viewBox="0.00 0.00 455.00 286.00" xmlns="http://www.w3.org/2000/svg" xmlns:xlink="http://www.w3.org/1999/xlink">
<g id="graph0" class="graph" transform="scale(1 1) rotate(0) translate(4 282)">
<title>/home/travis/build/mgerhardy/simpleai/src/ai/tree/loaders/ITreeLoader.h</title>
<polygon fill="white" stroke="none" points="-4,4 -4,-282 451,-282 451,4 -4,4"/>
<!-- Node1 -->
<g id="node1" class="node"><title>Node1</title>
<polygon fill="#bfbfbf" stroke="black" points="187,-225 187,-277 291,-277 291,-225 187,-225"/>
<text text-anchor="start" x="195" y="-265" font-family="Helvetica,sans-Serif" font-size="10.00">/home/travis/build</text>
<text text-anchor="start" x="195" y="-254" font-family="Helvetica,sans-Serif" font-size="10.00">/mgerhardy/simpleai</text>
<text text-anchor="start" x="195" y="-243" font-family="Helvetica,sans-Serif" font-size="10.00">/src/ai/tree/loaders</text>
<text text-anchor="middle" x="239" y="-232" font-family="Helvetica,sans-Serif" font-size="10.00">/ITreeLoader.h</text>
</g>
<!-- Node2 -->
<g id="node2" class="node"><title>Node2</title>
<g id="a_node2"><a xlink:href="Thread_8h.html" target="_top" xlink:title="common/Thread.h">
<polygon fill="white" stroke="black" points="99.5,-168.5 99.5,-187.5 194.5,-187.5 194.5,-168.5 99.5,-168.5"/>
<text text-anchor="middle" x="147" y="-175.5" font-family="Helvetica,sans-Serif" font-size="10.00">common/Thread.h</text>
</a>
</g>
</g>
<!-- Node1&#45;&gt;Node2 -->
<g id="edge1" class="edge"><title>Node1&#45;&gt;Node2</title>
<path fill="none" stroke="midnightblue" d="M206.564,-224.968C193.207,-214.66 178.175,-203.059 166.553,-194.09"/>
<polygon fill="midnightblue" stroke="midnightblue" points="168.47,-191.148 158.415,-187.81 164.193,-196.69 168.47,-191.148"/>
</g>
<!-- Node8 -->
<g id="node8" class="node"><title>Node8</title>
<polygon fill="white" stroke="#bfbfbf" points="-0.5,-56.5 -0.5,-75.5 40.5,-75.5 40.5,-56.5 -0.5,-56.5"/>
<text text-anchor="middle" x="20" y="-63.5" font-family="Helvetica,sans-Serif" font-size="10.00">string</text>
</g>
<!-- Node1&#45;&gt;Node8 -->
<g id="edge15" class="edge"><title>Node1&#45;&gt;Node8</title>
<path fill="none" stroke="midnightblue" d="M186.922,-241.811C150.717,-233.692 103.49,-217.941 72,-188 42.4102,-159.865 28.7991,-112.105 23.2726,-85.7889"/>
<polygon fill="midnightblue" stroke="midnightblue" points="26.6482,-84.808 21.3246,-75.6478 19.7739,-86.1285 26.6482,-84.808"/>
</g>
<!-- Node11 -->
<g id="node11" class="node"><title>Node11</title>
<polygon fill="white" stroke="#bfbfbf" points="67.5,-56.5 67.5,-75.5 110.5,-75.5 110.5,-56.5 67.5,-56.5"/>
<text text-anchor="middle" x="89" y="-63.5" font-family="Helvetica,sans-Serif" font-size="10.00">cstdio</text>
</g>
<!-- Node1&#45;&gt;Node11 -->
<g id="edge19" class="edge"><title>Node1&#45;&gt;Node11</title>
<path fill="none" stroke="midnightblue" d="M186.695,-239.906C154.756,-231.205 115.324,-215.527 90,-188 66.4983,-162.454 65.7649,-146.148 72,-112 73.6876,-102.757 77.175,-92.9479 80.5544,-84.8546"/>
<polygon fill="midnightblue" stroke="midnightblue" points="83.7635,-86.2518 84.6337,-75.6928 77.3687,-83.4045 83.7635,-86.2518"/>
</g>
<!-- Node15 -->
<g id="node15" class="node"><title>Node15</title>
<polygon fill="white" stroke="#bfbfbf" points="213,-168.5 213,-187.5 265,-187.5 265,-168.5 213,-168.5"/>
<text text-anchor="middle" x="239" y="-175.5" font-family="Helvetica,sans-Serif" font-size="10.00">memory</text>
</g>
<!-- Node1&#45;&gt;Node15 -->
<g id="edge14" class="edge"><title>Node1&#45;&gt;Node15</title>
<path fill="none" stroke="midnightblue" d="M239,-224.768C239,-215.89 239,-206.074 239,-197.816"/>
<polygon fill="midnightblue" stroke="midnightblue" points="242.5,-197.757 239,-187.757 235.5,-197.757 242.5,-197.757"/>
</g>
<!-- Node16 -->
<g id="node16" class="node"><title>Node16</title>
<polygon fill="white" stroke="#bfbfbf" points="283,-168.5 283,-187.5 327,-187.5 327,-168.5 283,-168.5"/>
<text text-anchor="middle" x="305" y="-175.5" font-family="Helvetica,sans-Serif" font-size="10.00">vector</text>
</g>
<!-- Node1&#45;&gt;Node16 -->
<g id="edge16" class="edge"><title>Node1&#45;&gt;Node16</title>
<path fill="none" stroke="midnightblue" d="M262.455,-224.768C271.552,-214.982 281.708,-204.056 289.816,-195.335"/>
<polygon fill="midnightblue" stroke="midnightblue" points="292.615,-197.464 296.86,-187.757 287.488,-192.698 292.615,-197.464"/>
</g>
<!-- Node17 -->
<g id="node17" class="node"><title>Node17</title>
<polygon fill="white" stroke="#bfbfbf" points="345.5,-168.5 345.5,-187.5 380.5,-187.5 380.5,-168.5 345.5,-168.5"/>
<text text-anchor="middle" x="363" y="-175.5" font-family="Helvetica,sans-Serif" font-size="10.00">map</text>
</g>
<!-- Node1&#45;&gt;Node17 -->
<g id="edge17" class="edge"><title>Node1&#45;&gt;Node17</title>
<path fill="none" stroke="midnightblue" d="M282.718,-224.968C301.72,-214.088 323.237,-201.767 339.21,-192.622"/>
<polygon fill="midnightblue" stroke="midnightblue" points="340.973,-195.645 347.912,-187.639 337.495,-189.571 340.973,-195.645"/>
</g>
<!-- Node18 -->
<g id="node18" class="node"><title>Node18</title>
<polygon fill="white" stroke="#bfbfbf" points="398.5,-168.5 398.5,-187.5 447.5,-187.5 447.5,-168.5 398.5,-168.5"/>
<text text-anchor="middle" x="423" y="-175.5" font-family="Helvetica,sans-Serif" font-size="10.00">cstdarg</text>
</g>
<!-- Node1&#45;&gt;Node18 -->
<g id="edge18" class="edge"><title>Node1&#45;&gt;Node18</title>
<path fill="none" stroke="midnightblue" d="M291.235,-229.844C323.408,-217.43 363.615,-201.915 391.099,-191.31"/>
<polygon fill="midnightblue" stroke="midnightblue" points="392.541,-194.505 400.61,-187.639 390.021,-187.974 392.541,-194.505"/>
</g>
<!-- Node3 -->
<g id="node3" class="node"><title>Node3</title>
<g id="a_node3"><a xlink:href="Types_8h.html" target="_top" xlink:title="Types.h">
<polygon fill="white" stroke="black" points="207,-112.5 207,-131.5 259,-131.5 259,-112.5 207,-112.5"/>
<text text-anchor="middle" x="233" y="-119.5" font-family="Helvetica,sans-Serif" font-size="10.00">Types.h</text>
</a>
</g>
</g>
<!-- Node2&#45;&gt;Node3 -->
<g id="edge2" class="edge"><title>Node2&#45;&gt;Node3</title>
<path fill="none" stroke="midnightblue" d="M160.817,-168.324C174.233,-159.9 194.824,-146.971 210.586,-137.074"/>
<polygon fill="midnightblue" stroke="midnightblue" points="212.609,-139.936 219.217,-131.655 208.887,-134.008 212.609,-139.936"/>
</g>
<!-- Node12 -->
<g id="node12" class="node"><title>Node12</title>
<polygon fill="white" stroke="#bfbfbf" points="277,-112.5 277,-131.5 321,-131.5 321,-112.5 277,-112.5"/>
<text text-anchor="middle" x="299" y="-119.5" font-family="Helvetica,sans-Serif" font-size="10.00">thread</text>
</g>
<!-- Node2&#45;&gt;Node12 -->
<g id="edge11" class="edge"><title>Node2&#45;&gt;Node12</title>
<path fill="none" stroke="midnightblue" d="M171.085,-168.444C196.994,-159.239 238.323,-144.556 266.96,-134.383"/>
<polygon fill="midnightblue" stroke="midnightblue" points="268.263,-137.634 276.514,-130.988 265.92,-131.038 268.263,-137.634"/>
</g>
<!-- Node13 -->
<g id="node13" class="node"><title>Node13</title>
<polygon fill="white" stroke="#bfbfbf" points="81,-112.5 81,-131.5 125,-131.5 125,-112.5 81,-112.5"/>
<text text-anchor="middle" x="103" y="-119.5" font-family="Helvetica,sans-Serif" font-size="10.00">mutex</text>
</g>
<!-- Node2&#45;&gt;Node13 -->
<g id="edge12" class="edge"><title>Node2&#45;&gt;Node13</title>
<path fill="none" stroke="midnightblue" d="M139.734,-168.083C133.455,-160.377 124.212,-149.033 116.569,-139.653"/>
<polygon fill="midnightblue" stroke="midnightblue" points="119.161,-137.293 110.131,-131.751 113.734,-141.714 119.161,-137.293"/>
</g>
<!-- Node14 -->
<g id="node14" class="node"><title>Node14</title>
<polygon fill="white" stroke="#bfbfbf" points="143,-112.5 143,-131.5 189,-131.5 189,-112.5 143,-112.5"/>
<text text-anchor="middle" x="166" y="-119.5" font-family="Helvetica,sans-Serif" font-size="10.00">atomic</text>
</g>
<!-- Node2&#45;&gt;Node14 -->
<g id="edge13" class="edge"><title>Node2&#45;&gt;Node14</title>
<path fill="none" stroke="midnightblue" d="M150.137,-168.083C152.683,-160.849 156.356,-150.409 159.527,-141.397"/>
<polygon fill="midnightblue" stroke="midnightblue" points="162.903,-142.346 162.921,-131.751 156.3,-140.023 162.903,-142.346"/>
</g>
<!-- Node4 -->
<g id="node4" class="node"><title>Node4</title>
<g id="a_node4"><a xlink:href="Log_8h.html" target="_top" xlink:title="Log.h">
<polygon fill="white" stroke="black" points="132.5,-56.5 132.5,-75.5 173.5,-75.5 173.5,-56.5 132.5,-56.5"/>
<text text-anchor="middle" x="153" y="-63.5" font-family="Helvetica,sans-Serif" font-size="10.00">Log.h</text>
</a>
</g>
</g>
<!-- Node3&#45;&gt;Node4 -->
<g id="edge3" class="edge"><title>Node3&#45;&gt;Node4</title>
<path fill="none" stroke="midnightblue" d="M220.147,-112.324C207.784,-103.979 188.87,-91.2122 174.263,-81.3524"/>
<polygon fill="midnightblue" stroke="midnightblue" points="176.068,-78.3483 165.821,-75.6545 172.152,-84.1503 176.068,-78.3483"/>
</g>
<!-- Node3&#45;&gt;Node8 -->
<g id="edge7" class="edge"><title>Node3&#45;&gt;Node8</title>
<path fill="none" stroke="midnightblue" d="M206.63,-114.207C203.718,-113.46 200.797,-112.713 198,-112 146.134,-98.7754 85.7223,-83.5379 50.2929,-74.6184"/>
<polygon fill="midnightblue" stroke="midnightblue" points="51.1153,-71.2163 40.5635,-72.1698 49.4068,-78.0047 51.1153,-71.2163"/>
</g>
<!-- Node9 -->
<g id="node9" class="node"><title>Node9</title>
<polygon fill="white" stroke="#bfbfbf" points="191.5,-56.5 191.5,-75.5 274.5,-75.5 274.5,-56.5 191.5,-56.5"/>
<text text-anchor="middle" x="233" y="-63.5" font-family="Helvetica,sans-Serif" font-size="10.00">unordered_map</text>
</g>
<!-- Node3&#45;&gt;Node9 -->
<g id="edge8" class="edge"><title>Node3&#45;&gt;Node9</title>
<path fill="none" stroke="midnightblue" d="M233,-112.083C233,-105.006 233,-94.8611 233,-85.9865"/>
<polygon fill="midnightblue" stroke="midnightblue" points="236.5,-85.751 233,-75.7511 229.5,-85.7511 236.5,-85.751"/>
</g>
<!-- Node10 -->
<g id="node10" class="node"><title>Node10</title>
<polygon fill="white" stroke="#bfbfbf" points="292.5,-56.5 292.5,-75.5 341.5,-75.5 341.5,-56.5 292.5,-56.5"/>
<text text-anchor="middle" x="317" y="-63.5" font-family="Helvetica,sans-Serif" font-size="10.00">cassert</text>
</g>
<!-- Node3&#45;&gt;Node10 -->
<g id="edge9" class="edge"><title>Node3&#45;&gt;Node10</title>
<path fill="none" stroke="midnightblue" d="M246.496,-112.324C259.6,-103.9 279.712,-90.9709 295.107,-81.0741"/>
<polygon fill="midnightblue" stroke="midnightblue" points="297.018,-84.0063 303.537,-75.6545 293.233,-78.118 297.018,-84.0063"/>
</g>
<!-- Node3&#45;&gt;Node11 -->
<g id="edge10" class="edge"><title>Node3&#45;&gt;Node11</title>
<path fill="none" stroke="midnightblue" d="M210.183,-112.444C185.886,-103.332 147.275,-88.8531 120.181,-78.6929"/>
<polygon fill="midnightblue" stroke="midnightblue" points="121.36,-75.3971 110.768,-75.1629 118.902,-81.9514 121.36,-75.3971"/>
</g>
<!-- Node5 -->
<g id="node5" class="node"><title>Node5</title>
<polygon fill="white" stroke="#bfbfbf" points="63,-0.5 63,-19.5 109,-19.5 109,-0.5 63,-0.5"/>
<text text-anchor="middle" x="86" y="-7.5" font-family="Helvetica,sans-Serif" font-size="10.00">stdio.h</text>
</g>
<!-- Node4&#45;&gt;Node5 -->
<g id="edge4" class="edge"><title>Node4&#45;&gt;Node5</title>
<path fill="none" stroke="midnightblue" d="M142.235,-56.324C132.234,-48.2631 117.113,-36.0765 105.07,-26.3695"/>
<polygon fill="midnightblue" stroke="midnightblue" points="106.943,-23.3841 96.9606,-19.8339 102.55,-28.8343 106.943,-23.3841"/>
</g>
<!-- Node6 -->
<g id="node6" class="node"><title>Node6</title>
<polygon fill="white" stroke="#bfbfbf" points="127,-0.5 127,-19.5 179,-19.5 179,-0.5 127,-0.5"/>
<text text-anchor="middle" x="153" y="-7.5" font-family="Helvetica,sans-Serif" font-size="10.00">stdarg.h</text>
</g>
<!-- Node4&#45;&gt;Node6 -->
<g id="edge5" class="edge"><title>Node4&#45;&gt;Node6</title>
<path fill="none" stroke="midnightblue" d="M153,-56.083C153,-49.0059 153,-38.8611 153,-29.9865"/>
<polygon fill="midnightblue" stroke="midnightblue" points="156.5,-29.751 153,-19.7511 149.5,-29.7511 156.5,-29.751"/>
</g>
<!-- Node7 -->
<g id="node7" class="node"><title>Node7</title>
<polygon fill="white" stroke="#bfbfbf" points="197.5,-0.5 197.5,-19.5 246.5,-19.5 246.5,-0.5 197.5,-0.5"/>
<text text-anchor="middle" x="222" y="-7.5" font-family="Helvetica,sans-Serif" font-size="10.00">string.h</text>
</g>
<!-- Node4&#45;&gt;Node7 -->
<g id="edge6" class="edge"><title>Node4&#45;&gt;Node7</title>
<path fill="none" stroke="midnightblue" d="M164.086,-56.324C174.486,-48.1849 190.261,-35.8395 202.722,-26.0874"/>
<polygon fill="midnightblue" stroke="midnightblue" points="204.994,-28.7533 210.712,-19.8339 200.68,-23.2407 204.994,-28.7533"/>
</g>
</g>
</svg>
