<?xml version="1.0" encoding="UTF-8" standalone="no"?>
<!DOCTYPE svg PUBLIC "-//W3C//DTD SVG 1.1//EN"
 "http://www.w3.org/Graphics/SVG/1.1/DTD/svg11.dtd">
<!-- Generated by graphviz version 2.36.0 (20140111.2315)
 -->
<!-- Title: /home/travis/build/mgerhardy/simpleai/src/ai/filter/Last.h Pages: 1 -->
<svg width="2117pt" height="610pt"
 viewBox="0.00 0.00 2116.81 610.00" xmlns="http://www.w3.org/2000/svg" xmlns:xlink="http://www.w3.org/1999/xlink">
<g id="graph0" class="graph" transform="scale(1 1) rotate(0) translate(4 606)">
<title>/home/travis/build/mgerhardy/simpleai/src/ai/filter/Last.h</title>
<polygon fill="white" stroke="none" points="-4,4 -4,-606 2112.81,-606 2112.81,4 -4,4"/>
<!-- Node1 -->
<g id="node1" class="node"><title>Node1</title>
<polygon fill="#bfbfbf" stroke="black" points="585,-560.5 585,-601.5 689,-601.5 689,-560.5 585,-560.5"/>
<text text-anchor="start" x="593" y="-589.5" font-family="Helvetica,sans-Serif" font-size="10.00">/home/travis/build</text>
<text text-anchor="start" x="593" y="-578.5" font-family="Helvetica,sans-Serif" font-size="10.00">/mgerhardy/simpleai</text>
<text text-anchor="middle" x="637" y="-567.5" font-family="Helvetica,sans-Serif" font-size="10.00">/src/ai/filter/Last.h</text>
</g>
<!-- Node2 -->
<g id="node2" class="node"><title>Node2</title>
<g id="a_node2"><a xlink:href="IFilter_8h.html" target="_top" xlink:title="filter/IFilter.h">
<polygon fill="white" stroke="black" points="601.5,-504.5 601.5,-523.5 672.5,-523.5 672.5,-504.5 601.5,-504.5"/>
<text text-anchor="middle" x="637" y="-511.5" font-family="Helvetica,sans-Serif" font-size="10.00">filter/IFilter.h</text>
</a>
</g>
</g>
<!-- Node1&#45;&gt;Node2 -->
<g id="edge1" class="edge"><title>Node1&#45;&gt;Node2</title>
<path fill="none" stroke="midnightblue" d="M637,-560.498C637,-552.065 637,-542.235 637,-533.874"/>
<polygon fill="midnightblue" stroke="midnightblue" points="640.5,-533.652 637,-523.652 633.5,-533.653 640.5,-533.652"/>
</g>
<!-- Node3 -->
<g id="node3" class="node"><title>Node3</title>
<polygon fill="white" stroke="#bfbfbf" points="111.5,-112.5 111.5,-131.5 140.5,-131.5 140.5,-112.5 111.5,-112.5"/>
<text text-anchor="middle" x="126" y="-119.5" font-family="Helvetica,sans-Serif" font-size="10.00">list</text>
</g>
<!-- Node2&#45;&gt;Node3 -->
<g id="edge2" class="edge"><title>Node2&#45;&gt;Node3</title>
<path fill="none" stroke="midnightblue" d="M601.365,-511.465C501.96,-506.919 223.15,-492.307 135,-468 70.8034,-450.298 0,-469.593 0,-403 0,-403 0,-403 0,-233 0,-179.649 64.8985,-146.219 101.543,-131.595"/>
<polygon fill="midnightblue" stroke="midnightblue" points="102.955,-134.802 111.051,-127.968 100.461,-128.262 102.955,-134.802"/>
</g>
<!-- Node4 -->
<g id="node4" class="node"><title>Node4</title>
<polygon fill="white" stroke="#bfbfbf" points="256,-112.5 256,-131.5 300,-131.5 300,-112.5 256,-112.5"/>
<text text-anchor="middle" x="278" y="-119.5" font-family="Helvetica,sans-Serif" font-size="10.00">vector</text>
</g>
<!-- Node2&#45;&gt;Node4 -->
<g id="edge3" class="edge"><title>Node2&#45;&gt;Node4</title>
<path fill="none" stroke="midnightblue" d="M601.324,-510.257C472.37,-499.875 38,-460.624 38,-403 38,-403 38,-403 38,-289 38,-188.974 180.755,-144.497 246.068,-129.383"/>
<polygon fill="midnightblue" stroke="midnightblue" points="246.851,-132.794 255.852,-127.205 245.33,-125.962 246.851,-132.794"/>
</g>
<!-- Node5 -->
<g id="node5" class="node"><title>Node5</title>
<g id="a_node5"><a xlink:href="ICharacter_8h.html" target="_top" xlink:title="ICharacter.h">
<polygon fill="white" stroke="black" points="1182.5,-224.5 1182.5,-243.5 1253.5,-243.5 1253.5,-224.5 1182.5,-224.5"/>
<text text-anchor="middle" x="1218" y="-231.5" font-family="Helvetica,sans-Serif" font-size="10.00">ICharacter.h</text>
</a>
</g>
</g>
<!-- Node2&#45;&gt;Node5 -->
<g id="edge4" class="edge"><title>Node2&#45;&gt;Node5</title>
<path fill="none" stroke="midnightblue" d="M672.788,-513.611C750.007,-514.028 937.37,-510.172 1087,-468 1142.1,-452.47 1170.54,-459.159 1203,-412 1236.46,-363.385 1228.28,-288.545 1222.01,-253.854"/>
<polygon fill="midnightblue" stroke="midnightblue" points="1225.38,-252.863 1220.02,-243.724 1218.52,-254.211 1225.38,-252.863"/>
</g>
<!-- Node26 -->
<g id="node26" class="node"><title>Node26</title>
<g id="a_node26"><a xlink:href="AI_8h.html" target="_top" xlink:title="AI.h">
<polygon fill="white" stroke="black" points="1043.5,-448.5 1043.5,-467.5 1078.5,-467.5 1078.5,-448.5 1043.5,-448.5"/>
<text text-anchor="middle" x="1061" y="-455.5" font-family="Helvetica,sans-Serif" font-size="10.00">AI.h</text>
</a>
</g>
</g>
<!-- Node2&#45;&gt;Node26 -->
<g id="edge27" class="edge"><title>Node2&#45;&gt;Node26</title>
<path fill="none" stroke="midnightblue" d="M672.785,-508.443C755.561,-497.9 958.848,-472.01 1033.19,-462.542"/>
<polygon fill="midnightblue" stroke="midnightblue" points="1033.71,-466.003 1043.19,-461.268 1032.83,-459.059 1033.71,-466.003"/>
</g>
<!-- Node32 -->
<g id="node32" class="node"><title>Node32</title>
<g id="a_node32"><a xlink:href="MemoryAllocator_8h.html" target="_top" xlink:title="common/MemoryAllocator.h">
<polygon fill="white" stroke="black" points="420.5,-224.5 420.5,-243.5 559.5,-243.5 559.5,-224.5 420.5,-224.5"/>
<text text-anchor="middle" x="490" y="-231.5" font-family="Helvetica,sans-Serif" font-size="10.00">common/MemoryAllocator.h</text>
</a>
</g>
</g>
<!-- Node2&#45;&gt;Node32 -->
<g id="edge84" class="edge"><title>Node2&#45;&gt;Node32</title>
<path fill="none" stroke="midnightblue" d="M601.264,-510.982C521.933,-504.346 331.77,-476.048 251,-356 205.835,-288.872 256.767,-348.223 372,-300 406.892,-285.398 444.79,-263.306 467.972,-249.014"/>
<polygon fill="midnightblue" stroke="midnightblue" points="470.036,-251.851 476.669,-243.59 466.332,-245.911 470.036,-251.851"/>
</g>
<!-- Node35 -->
<g id="node35" class="node"><title>Node35</title>
<g id="a_node35"><a xlink:href="Thread_8h.html" target="_top" xlink:title="common/Thread.h">
<polygon fill="white" stroke="black" points="1726.5,-168.5 1726.5,-187.5 1821.5,-187.5 1821.5,-168.5 1726.5,-168.5"/>
<text text-anchor="middle" x="1774" y="-175.5" font-family="Helvetica,sans-Serif" font-size="10.00">common/Thread.h</text>
</a>
</g>
</g>
<!-- Node2&#45;&gt;Node35 -->
<g id="edge85" class="edge"><title>Node2&#45;&gt;Node35</title>
<path fill="none" stroke="midnightblue" d="M672.78,-512.18C894.361,-506.875 2070,-475.321 2070,-403 2070,-403 2070,-403 2070,-289 2070,-238.638 1917.54,-203.907 1831.46,-188.31"/>
<polygon fill="midnightblue" stroke="midnightblue" points="1832.02,-184.855 1821.56,-186.548 1830.79,-191.746 1832.02,-184.855"/>
</g>
<!-- Node6 -->
<g id="node6" class="node"><title>Node6</title>
<g id="a_node6"><a xlink:href="NonCopyable_8h.html" target="_top" xlink:title="common/NonCopyable.h">
<polygon fill="white" stroke="black" points="979.5,-112.5 979.5,-131.5 1104.5,-131.5 1104.5,-112.5 979.5,-112.5"/>
<text text-anchor="middle" x="1042" y="-119.5" font-family="Helvetica,sans-Serif" font-size="10.00">common/NonCopyable.h</text>
</a>
</g>
</g>
<!-- Node5&#45;&gt;Node6 -->
<g id="edge5" class="edge"><title>Node5&#45;&gt;Node6</title>
<path fill="none" stroke="midnightblue" d="M1211.42,-224.301C1200.7,-210.666 1178.25,-184.154 1154,-168 1132.07,-153.393 1104.66,-142.278 1082.45,-134.75"/>
<polygon fill="midnightblue" stroke="midnightblue" points="1083.24,-131.326 1072.65,-131.544 1081.06,-137.979 1083.24,-131.326"/>
</g>
<!-- Node7 -->
<g id="node7" class="node"><title>Node7</title>
<g id="a_node7"><a xlink:href="Math_8h.html" target="_top" xlink:title="common/Math.h">
<polygon fill="white" stroke="black" points="1381.5,-168.5 1381.5,-187.5 1468.5,-187.5 1468.5,-168.5 1381.5,-168.5"/>
<text text-anchor="middle" x="1425" y="-175.5" font-family="Helvetica,sans-Serif" font-size="10.00">common/Math.h</text>
</a>
</g>
</g>
<!-- Node5&#45;&gt;Node7 -->
<g id="edge6" class="edge"><title>Node5&#45;&gt;Node7</title>
<path fill="none" stroke="midnightblue" d="M1250.8,-224.444C1286.38,-215.162 1343.31,-200.309 1382.35,-190.127"/>
<polygon fill="midnightblue" stroke="midnightblue" points="1383.56,-193.427 1392.35,-187.516 1381.79,-186.654 1383.56,-193.427"/>
</g>
<!-- Node8 -->
<g id="node8" class="node"><title>Node8</title>
<g id="a_node8"><a xlink:href="Types_8h.html" target="_top" xlink:title="Types.h">
<polygon fill="white" stroke="black" points="1123,-112.5 1123,-131.5 1175,-131.5 1175,-112.5 1123,-112.5"/>
<text text-anchor="middle" x="1149" y="-119.5" font-family="Helvetica,sans-Serif" font-size="10.00">Types.h</text>
</a>
</g>
</g>
<!-- Node5&#45;&gt;Node8 -->
<g id="edge24" class="edge"><title>Node5&#45;&gt;Node8</title>
<path fill="none" stroke="midnightblue" d="M1222.2,-224.345C1227.91,-211.229 1236.3,-185.948 1226,-168 1217,-152.319 1200.19,-141.581 1184.57,-134.539"/>
<polygon fill="midnightblue" stroke="midnightblue" points="1185.66,-131.2 1175.08,-130.621 1182.99,-137.671 1185.66,-131.2"/>
</g>
<!-- Node24 -->
<g id="node24" class="node"><title>Node24</title>
<polygon fill="white" stroke="#bfbfbf" points="1910,-112.5 1910,-131.5 1956,-131.5 1956,-112.5 1910,-112.5"/>
<text text-anchor="middle" x="1933" y="-119.5" font-family="Helvetica,sans-Serif" font-size="10.00">atomic</text>
</g>
<!-- Node5&#45;&gt;Node24 -->
<g id="edge25" class="edge"><title>Node5&#45;&gt;Node24</title>
<path fill="none" stroke="midnightblue" d="M1253.76,-229.227C1354.19,-218.31 1647.3,-184.24 1899.56,-131.848"/>
<polygon fill="midnightblue" stroke="midnightblue" points="1900.58,-135.212 1909.65,-129.739 1899.14,-128.36 1900.58,-135.212"/>
</g>
<!-- Node25 -->
<g id="node25" class="node"><title>Node25</title>
<polygon fill="white" stroke="#bfbfbf" points="556,-112.5 556,-131.5 608,-131.5 608,-112.5 556,-112.5"/>
<text text-anchor="middle" x="582" y="-119.5" font-family="Helvetica,sans-Serif" font-size="10.00">memory</text>
</g>
<!-- Node5&#45;&gt;Node25 -->
<g id="edge26" class="edge"><title>Node5&#45;&gt;Node25</title>
<path fill="none" stroke="midnightblue" d="M1182.49,-231.616C1108.82,-228.23 934.278,-217.531 791,-188 727.013,-174.812 654.705,-150.02 614.113,-135.159"/>
<polygon fill="midnightblue" stroke="midnightblue" points="615.094,-131.79 604.501,-131.608 612.669,-138.357 615.094,-131.79"/>
</g>
<!-- Node7&#45;&gt;Node8 -->
<g id="edge7" class="edge"><title>Node7&#45;&gt;Node8</title>
<path fill="none" stroke="midnightblue" d="M1381.28,-169.746C1334.94,-161.854 1259.41,-148.417 1185.3,-132.176"/>
<polygon fill="midnightblue" stroke="midnightblue" points="1185.85,-128.713 1175.33,-129.972 1184.34,-135.548 1185.85,-128.713"/>
</g>
<!-- Node17 -->
<g id="node17" class="node"><title>Node17</title>
<polygon fill="white" stroke="#bfbfbf" points="1571,-112.5 1571,-131.5 1641,-131.5 1641,-112.5 1571,-112.5"/>
<text text-anchor="middle" x="1606" y="-119.5" font-family="Helvetica,sans-Serif" font-size="10.00">glm/glm.hpp</text>
</g>
<!-- Node7&#45;&gt;Node17 -->
<g id="edge17" class="edge"><title>Node7&#45;&gt;Node17</title>
<path fill="none" stroke="midnightblue" d="M1453.68,-168.444C1484.53,-159.241 1533.73,-144.562 1567.83,-134.388"/>
<polygon fill="midnightblue" stroke="midnightblue" points="1568.87,-137.729 1577.45,-131.516 1566.87,-131.021 1568.87,-137.729"/>
</g>
<!-- Node18 -->
<g id="node18" class="node"><title>Node18</title>
<polygon fill="white" stroke="#bfbfbf" points="1659.5,-112.5 1659.5,-131.5 1772.5,-131.5 1772.5,-112.5 1659.5,-112.5"/>
<text text-anchor="middle" x="1716" y="-119.5" font-family="Helvetica,sans-Serif" font-size="10.00">glm/gtc/constants.hpp</text>
</g>
<!-- Node7&#45;&gt;Node18 -->
<g id="edge18" class="edge"><title>Node7&#45;&gt;Node18</title>
<path fill="none" stroke="midnightblue" d="M1468.57,-168.916C1519.46,-159.471 1603.81,-143.819 1659.65,-133.457"/>
<polygon fill="midnightblue" stroke="midnightblue" points="1660.53,-136.852 1669.73,-131.587 1659.26,-129.97 1660.53,-136.852"/>
</g>
<!-- Node19 -->
<g id="node19" class="node"><title>Node19</title>
<polygon fill="white" stroke="#bfbfbf" points="1790.5,-112.5 1790.5,-131.5 1891.5,-131.5 1891.5,-112.5 1790.5,-112.5"/>
<text text-anchor="middle" x="1841" y="-119.5" font-family="Helvetica,sans-Serif" font-size="10.00">glm/gtc/epsilon.hpp</text>
</g>
<!-- Node7&#45;&gt;Node19 -->
<g id="edge19" class="edge"><title>Node7&#45;&gt;Node19</title>
<path fill="none" stroke="midnightblue" d="M1468.61,-171.817C1533.93,-163.982 1661.32,-148.422 1780.26,-132.074"/>
<polygon fill="midnightblue" stroke="midnightblue" points="1780.84,-135.527 1790.27,-130.693 1779.89,-128.593 1780.84,-135.527"/>
</g>
<!-- Node20 -->
<g id="node20" class="node"><title>Node20</title>
<polygon fill="white" stroke="#bfbfbf" points="1193.5,-112.5 1193.5,-131.5 1318.5,-131.5 1318.5,-112.5 1193.5,-112.5"/>
<text text-anchor="middle" x="1256" y="-119.5" font-family="Helvetica,sans-Serif" font-size="10.00">glm/gtx/compatibility.hpp</text>
</g>
<!-- Node7&#45;&gt;Node20 -->
<g id="edge20" class="edge"><title>Node7&#45;&gt;Node20</title>
<path fill="none" stroke="midnightblue" d="M1398.22,-168.444C1369.67,-159.32 1324.27,-144.813 1292.46,-134.651"/>
<polygon fill="midnightblue" stroke="midnightblue" points="1293.24,-131.226 1282.65,-131.516 1291.11,-137.894 1293.24,-131.226"/>
</g>
<!-- Node21 -->
<g id="node21" class="node"><title>Node21</title>
<polygon fill="white" stroke="#bfbfbf" points="1337,-112.5 1337,-131.5 1429,-131.5 1429,-112.5 1337,-112.5"/>
<text text-anchor="middle" x="1383" y="-119.5" font-family="Helvetica,sans-Serif" font-size="10.00">glm/gtx/norm.hpp</text>
</g>
<!-- Node7&#45;&gt;Node21 -->
<g id="edge21" class="edge"><title>Node7&#45;&gt;Node21</title>
<path fill="none" stroke="midnightblue" d="M1418.06,-168.083C1412.07,-160.377 1403.25,-149.033 1395.95,-139.653"/>
<polygon fill="midnightblue" stroke="midnightblue" points="1398.71,-137.496 1389.81,-131.751 1393.18,-141.793 1398.71,-137.496"/>
</g>
<!-- Node22 -->
<g id="node22" class="node"><title>Node22</title>
<polygon fill="white" stroke="#bfbfbf" points="1447,-112.5 1447,-131.5 1487,-131.5 1487,-112.5 1447,-112.5"/>
<text text-anchor="middle" x="1467" y="-119.5" font-family="Helvetica,sans-Serif" font-size="10.00">limits</text>
</g>
<!-- Node7&#45;&gt;Node22 -->
<g id="edge22" class="edge"><title>Node7&#45;&gt;Node22</title>
<path fill="none" stroke="midnightblue" d="M1431.94,-168.083C1437.93,-160.377 1446.75,-149.033 1454.05,-139.653"/>
<polygon fill="midnightblue" stroke="midnightblue" points="1456.82,-141.793 1460.19,-131.751 1451.29,-137.496 1456.82,-141.793"/>
</g>
<!-- Node23 -->
<g id="node23" class="node"><title>Node23</title>
<polygon fill="white" stroke="#bfbfbf" points="1505.5,-112.5 1505.5,-131.5 1552.5,-131.5 1552.5,-112.5 1505.5,-112.5"/>
<text text-anchor="middle" x="1529" y="-119.5" font-family="Helvetica,sans-Serif" font-size="10.00">math.h</text>
</g>
<!-- Node7&#45;&gt;Node23 -->
<g id="edge23" class="edge"><title>Node7&#45;&gt;Node23</title>
<path fill="none" stroke="midnightblue" d="M1441.71,-168.324C1458.31,-159.703 1484,-146.364 1503.22,-136.386"/>
<polygon fill="midnightblue" stroke="midnightblue" points="1505.07,-139.369 1512.33,-131.655 1501.84,-133.156 1505.07,-139.369"/>
</g>
<!-- Node9 -->
<g id="node9" class="node"><title>Node9</title>
<g id="a_node9"><a xlink:href="Log_8h.html" target="_top" xlink:title="Log.h">
<polygon fill="white" stroke="black" points="1179.5,-56.5 1179.5,-75.5 1220.5,-75.5 1220.5,-56.5 1179.5,-56.5"/>
<text text-anchor="middle" x="1200" y="-63.5" font-family="Helvetica,sans-Serif" font-size="10.00">Log.h</text>
</a>
</g>
</g>
<!-- Node8&#45;&gt;Node9 -->
<g id="edge8" class="edge"><title>Node8&#45;&gt;Node9</title>
<path fill="none" stroke="midnightblue" d="M1157.42,-112.083C1164.85,-104.22 1175.85,-92.5688 1184.81,-83.0813"/>
<polygon fill="midnightblue" stroke="midnightblue" points="1187.41,-85.4244 1191.74,-75.7511 1182.32,-80.618 1187.41,-85.4244"/>
</g>
<!-- Node10 -->
<g id="node10" class="node"><title>Node10</title>
<polygon fill="white" stroke="#bfbfbf" points="980,-0.5 980,-19.5 1026,-19.5 1026,-0.5 980,-0.5"/>
<text text-anchor="middle" x="1003" y="-7.5" font-family="Helvetica,sans-Serif" font-size="10.00">stdio.h</text>
</g>
<!-- Node8&#45;&gt;Node10 -->
<g id="edge15" class="edge"><title>Node8&#45;&gt;Node10</title>
<path fill="none" stroke="midnightblue" d="M1122.81,-113.12C1087.76,-102.365 1029.15,-83.5642 1022,-76 1010.27,-63.5959 1005.74,-44.3545 1004.01,-30.0209"/>
<polygon fill="midnightblue" stroke="midnightblue" points="1007.47,-29.4693 1003.14,-19.8022 1000.5,-30.0631 1007.47,-29.4693"/>
</g>
<!-- Node13 -->
<g id="node13" class="node"><title>Node13</title>
<polygon fill="white" stroke="#bfbfbf" points="371.5,-56.5 371.5,-75.5 412.5,-75.5 412.5,-56.5 371.5,-56.5"/>
<text text-anchor="middle" x="392" y="-63.5" font-family="Helvetica,sans-Serif" font-size="10.00">string</text>
</g>
<!-- Node8&#45;&gt;Node13 -->
<g id="edge12" class="edge"><title>Node8&#45;&gt;Node13</title>
<path fill="none" stroke="midnightblue" d="M1122.77,-113.854C1119.5,-113.137 1116.18,-112.493 1113,-112 848.095,-70.9724 522.941,-67.0852 422.803,-66.9199"/>
<polygon fill="midnightblue" stroke="midnightblue" points="422.507,-63.4198 412.505,-66.9152 422.503,-70.4198 422.507,-63.4198"/>
</g>
<!-- Node14 -->
<g id="node14" class="node"><title>Node14</title>
<polygon fill="white" stroke="#bfbfbf" points="1652.5,-56.5 1652.5,-75.5 1735.5,-75.5 1735.5,-56.5 1652.5,-56.5"/>
<text text-anchor="middle" x="1694" y="-63.5" font-family="Helvetica,sans-Serif" font-size="10.00">unordered_map</text>
</g>
<!-- Node8&#45;&gt;Node14 -->
<g id="edge13" class="edge"><title>Node8&#45;&gt;Node14</title>
<path fill="none" stroke="midnightblue" d="M1175.27,-113.752C1178.2,-113.091 1181.16,-112.488 1184,-112 1349.97,-83.536 1549.59,-72.5564 1642.17,-68.7714"/>
<polygon fill="midnightblue" stroke="midnightblue" points="1642.53,-72.2598 1652.39,-68.3653 1642.26,-65.2653 1642.53,-72.2598"/>
</g>
<!-- Node15 -->
<g id="node15" class="node"><title>Node15</title>
<polygon fill="white" stroke="#bfbfbf" points="1109,-56.5 1109,-75.5 1161,-75.5 1161,-56.5 1109,-56.5"/>
<text text-anchor="middle" x="1135" y="-63.5" font-family="Helvetica,sans-Serif" font-size="10.00">assert.h</text>
</g>
<!-- Node8&#45;&gt;Node15 -->
<g id="edge14" class="edge"><title>Node8&#45;&gt;Node15</title>
<path fill="none" stroke="midnightblue" d="M1146.69,-112.083C1144.83,-104.927 1142.16,-94.6353 1139.85,-85.6911"/>
<polygon fill="midnightblue" stroke="midnightblue" points="1143.17,-84.5527 1137.27,-75.7511 1136.39,-86.3094 1143.17,-84.5527"/>
</g>
<!-- Node16 -->
<g id="node16" class="node"><title>Node16</title>
<polygon fill="white" stroke="#bfbfbf" points="1031.5,-56.5 1031.5,-75.5 1090.5,-75.5 1090.5,-56.5 1031.5,-56.5"/>
<text text-anchor="middle" x="1061" y="-63.5" font-family="Helvetica,sans-Serif" font-size="10.00">inttypes.h</text>
</g>
<!-- Node8&#45;&gt;Node16 -->
<g id="edge16" class="edge"><title>Node8&#45;&gt;Node16</title>
<path fill="none" stroke="midnightblue" d="M1134.86,-112.324C1121.13,-103.9 1100.06,-90.9709 1083.94,-81.0741"/>
<polygon fill="midnightblue" stroke="midnightblue" points="1085.46,-77.9016 1075.1,-75.6545 1081.8,-83.8678 1085.46,-77.9016"/>
</g>
<!-- Node9&#45;&gt;Node10 -->
<g id="edge9" class="edge"><title>Node9&#45;&gt;Node10</title>
<path fill="none" stroke="midnightblue" d="M1179.37,-58.7262C1176.23,-57.7977 1173.03,-56.8635 1170,-56 1123.54,-42.7754 1069.53,-28.4029 1035.8,-19.5466"/>
<polygon fill="midnightblue" stroke="midnightblue" points="1036.58,-16.1315 1026.02,-16.9825 1034.8,-22.9029 1036.58,-16.1315"/>
</g>
<!-- Node11 -->
<g id="node11" class="node"><title>Node11</title>
<polygon fill="white" stroke="#bfbfbf" points="1075,-0.5 1075,-19.5 1127,-19.5 1127,-0.5 1075,-0.5"/>
<text text-anchor="middle" x="1101" y="-7.5" font-family="Helvetica,sans-Serif" font-size="10.00">stdarg.h</text>
</g>
<!-- Node9&#45;&gt;Node11 -->
<g id="edge10" class="edge"><title>Node9&#45;&gt;Node11</title>
<path fill="none" stroke="midnightblue" d="M1184.09,-56.324C1168.36,-47.7428 1144.06,-34.486 1125.79,-24.5224"/>
<polygon fill="midnightblue" stroke="midnightblue" points="1127.32,-21.3704 1116.87,-19.6545 1123.97,-27.5157 1127.32,-21.3704"/>
</g>
<!-- Node12 -->
<g id="node12" class="node"><title>Node12</title>
<polygon fill="white" stroke="#bfbfbf" points="1175.5,-0.5 1175.5,-19.5 1224.5,-19.5 1224.5,-0.5 1175.5,-0.5"/>
<text text-anchor="middle" x="1200" y="-7.5" font-family="Helvetica,sans-Serif" font-size="10.00">string.h</text>
</g>
<!-- Node9&#45;&gt;Node12 -->
<g id="edge11" class="edge"><title>Node9&#45;&gt;Node12</title>
<path fill="none" stroke="midnightblue" d="M1200,-56.083C1200,-49.0059 1200,-38.8611 1200,-29.9865"/>
<polygon fill="midnightblue" stroke="midnightblue" points="1203.5,-29.751 1200,-19.7511 1196.5,-29.7511 1203.5,-29.751"/>
</g>
<!-- Node26&#45;&gt;Node5 -->
<g id="edge38" class="edge"><title>Node26&#45;&gt;Node5</title>
<path fill="none" stroke="midnightblue" d="M1065.6,-448.389C1072.45,-435.753 1085.93,-411.567 1099,-392 1134.48,-338.874 1181.54,-279.692 1204.39,-251.574"/>
<polygon fill="midnightblue" stroke="midnightblue" points="1207.3,-253.543 1210.91,-243.583 1201.88,-249.116 1207.3,-253.543"/>
</g>
<!-- Node26&#45;&gt;Node6 -->
<g id="edge82" class="edge"><title>Node26&#45;&gt;Node6</title>
<path fill="none" stroke="midnightblue" d="M1058.44,-448.249C1053.25,-429.738 1042,-385.179 1042,-347 1042,-347 1042,-347 1042,-233 1042,-200.948 1042,-163.643 1042,-141.749"/>
<polygon fill="midnightblue" stroke="midnightblue" points="1045.5,-141.558 1042,-131.558 1038.5,-141.558 1045.5,-141.558"/>
</g>
<!-- Node26&#45;&gt;Node7 -->
<g id="edge83" class="edge"><title>Node26&#45;&gt;Node7</title>
<path fill="none" stroke="midnightblue" d="M1078.84,-455.775C1128.5,-452.048 1266.95,-439.382 1302,-412 1374.41,-355.434 1339.3,-301.917 1388,-224 1394.29,-213.942 1402.58,-203.657 1409.72,-195.462"/>
<polygon fill="midnightblue" stroke="midnightblue" points="1412.54,-197.559 1416.61,-187.777 1407.33,-192.885 1412.54,-197.559"/>
</g>
<!-- Node26&#45;&gt;Node8 -->
<g id="edge81" class="edge"><title>Node26&#45;&gt;Node8</title>
<path fill="none" stroke="midnightblue" d="M1078.71,-449.581C1080.16,-449.029 1081.6,-448.495 1083,-448 1178.76,-414.139 1288,-448.569 1288,-347 1288,-347 1288,-347 1288,-233 1288,-180.293 1225.79,-148.875 1184.6,-133.852"/>
<polygon fill="midnightblue" stroke="midnightblue" points="1185.74,-130.542 1175.14,-130.553 1183.43,-137.152 1185.74,-130.542"/>
</g>
<!-- Node26&#45;&gt;Node14 -->
<g id="edge28" class="edge"><title>Node26&#45;&gt;Node14</title>
<path fill="none" stroke="midnightblue" d="M1078.73,-456.129C1216.32,-449.147 2108,-399.699 2108,-291 2108,-291 2108,-291 2108,-177 2108,-146.775 2111.25,-131.31 2088,-112 2037.14,-69.7647 1840.85,-65.5732 1745.95,-66.1146"/>
<polygon fill="midnightblue" stroke="midnightblue" points="1745.69,-62.6164 1735.72,-66.1937 1745.75,-69.6162 1745.69,-62.6164"/>
</g>
<!-- Node26&#45;&gt;Node25 -->
<g id="edge29" class="edge"><title>Node26&#45;&gt;Node25</title>
<path fill="none" stroke="midnightblue" d="M1043.29,-453.902C1014.64,-448.398 956.906,-435.253 913,-412 795.411,-349.725 790.63,-297.934 680,-224 652.219,-205.434 637.127,-212.116 614,-188 601.235,-174.689 592.595,-155.303 587.542,-141.167"/>
<polygon fill="midnightblue" stroke="midnightblue" points="590.831,-139.964 584.369,-131.569 584.185,-142.162 590.831,-139.964"/>
</g>
<!-- Node27 -->
<g id="node27" class="node"><title>Node27</title>
<g id="a_node27"><a xlink:href="GroupId_8h.html" target="_top" xlink:title="group/GroupId.h">
<polygon fill="white" stroke="black" points="1108,-392.5 1108,-411.5 1194,-411.5 1194,-392.5 1108,-392.5"/>
<text text-anchor="middle" x="1151" y="-399.5" font-family="Helvetica,sans-Serif" font-size="10.00">group/GroupId.h</text>
</a>
</g>
</g>
<!-- Node26&#45;&gt;Node27 -->
<g id="edge30" class="edge"><title>Node26&#45;&gt;Node27</title>
<path fill="none" stroke="midnightblue" d="M1075.46,-448.324C1089.5,-439.9 1111.05,-426.971 1127.54,-417.074"/>
<polygon fill="midnightblue" stroke="midnightblue" points="1129.8,-419.801 1136.58,-411.655 1126.2,-413.798 1129.8,-419.801"/>
</g>
<!-- Node28 -->
<g id="node28" class="node"><title>Node28</title>
<g id="a_node28"><a xlink:href="AggroMgr_8h.html" target="_top" xlink:title="aggro/AggroMgr.h">
<polygon fill="white" stroke="black" points="810,-280.5 810,-299.5 904,-299.5 904,-280.5 810,-280.5"/>
<text text-anchor="middle" x="857" y="-287.5" font-family="Helvetica,sans-Serif" font-size="10.00">aggro/AggroMgr.h</text>
</a>
</g>
</g>
<!-- Node26&#45;&gt;Node28 -->
<g id="edge31" class="edge"><title>Node26&#45;&gt;Node28</title>
<path fill="none" stroke="midnightblue" d="M1043.26,-454.203C1017.53,-449.396 969.378,-437.514 937,-412 901.361,-383.917 876.26,-335.427 864.518,-309.166"/>
<polygon fill="midnightblue" stroke="midnightblue" points="867.605,-307.486 860.432,-299.689 861.177,-310.258 867.605,-307.486"/>
</g>
<!-- Node31 -->
<g id="node31" class="node"><title>Node31</title>
<g id="a_node31"><a xlink:href="TreeNode_8h.html" target="_top" xlink:title="tree/TreeNode.h">
<polygon fill="white" stroke="black" points="446.5,-392.5 446.5,-411.5 533.5,-411.5 533.5,-392.5 446.5,-392.5"/>
<text text-anchor="middle" x="490" y="-399.5" font-family="Helvetica,sans-Serif" font-size="10.00">tree/TreeNode.h</text>
</a>
</g>
</g>
<!-- Node26&#45;&gt;Node31 -->
<g id="edge39" class="edge"><title>Node26&#45;&gt;Node31</title>
<path fill="none" stroke="midnightblue" d="M1043.28,-455.325C967.302,-448.139 667.233,-419.761 543.636,-408.072"/>
<polygon fill="midnightblue" stroke="midnightblue" points="543.925,-404.584 533.64,-407.127 543.266,-411.553 543.925,-404.584"/>
</g>
<!-- Node26&#45;&gt;Node35 -->
<g id="edge80" class="edge"><title>Node26&#45;&gt;Node35</title>
<path fill="none" stroke="midnightblue" d="M1078.57,-455.928C1121.86,-452.883 1236.65,-442.348 1327,-412 1500.99,-353.558 1689.92,-234.485 1752.53,-193.354"/>
<polygon fill="midnightblue" stroke="midnightblue" points="1754.74,-196.088 1761.15,-187.654 1750.88,-190.248 1754.74,-196.088"/>
</g>
<!-- Node43 -->
<g id="node43" class="node"><title>Node43</title>
<g id="a_node43"><a xlink:href="ITreeLoader_8h.html" target="_top" xlink:title="tree/loaders/ITreeLoader.h">
<polygon fill="white" stroke="black" points="805.5,-224.5 805.5,-243.5 936.5,-243.5 936.5,-224.5 805.5,-224.5"/>
<text text-anchor="middle" x="871" y="-231.5" font-family="Helvetica,sans-Serif" font-size="10.00">tree/loaders/ITreeLoader.h</text>
</a>
</g>
</g>
<!-- Node26&#45;&gt;Node43 -->
<g id="edge72" class="edge"><title>Node26&#45;&gt;Node43</title>
<path fill="none" stroke="midnightblue" d="M1054.08,-448.386C1033.22,-422.509 968.963,-343.337 913,-280 904.42,-270.29 894.546,-259.683 886.528,-251.207"/>
<polygon fill="midnightblue" stroke="midnightblue" points="888.941,-248.666 879.513,-243.833 883.869,-253.49 888.941,-248.666"/>
</g>
<!-- Node28&#45;&gt;Node4 -->
<g id="edge32" class="edge"><title>Node28&#45;&gt;Node4</title>
<path fill="none" stroke="midnightblue" d="M836.589,-280.49C803.95,-267.115 737.799,-240.953 680,-224 609.225,-203.241 589.615,-205.645 518,-188 442.988,-169.518 355.564,-145.11 309.741,-132.095"/>
<polygon fill="midnightblue" stroke="midnightblue" points="310.657,-128.716 300.081,-129.344 308.74,-135.449 310.657,-128.716"/>
</g>
<!-- Node28&#45;&gt;Node5 -->
<g id="edge34" class="edge"><title>Node28&#45;&gt;Node5</title>
<path fill="none" stroke="midnightblue" d="M904.194,-281.94C973.91,-271.512 1103.57,-252.117 1172.37,-241.825"/>
<polygon fill="midnightblue" stroke="midnightblue" points="1173.1,-245.255 1182.47,-240.314 1172.07,-238.332 1173.1,-245.255"/>
</g>
<!-- Node28&#45;&gt;Node25 -->
<g id="edge33" class="edge"><title>Node28&#45;&gt;Node25</title>
<path fill="none" stroke="midnightblue" d="M845.249,-280.404C826.376,-266.909 787.792,-240.587 752,-224 704.944,-202.193 684.56,-216.148 641,-188 621.495,-175.397 604.307,-154.768 593.588,-140.134"/>
<polygon fill="midnightblue" stroke="midnightblue" points="596.415,-138.069 587.787,-131.921 590.698,-142.108 596.415,-138.069"/>
</g>
<!-- Node29 -->
<g id="node29" class="node"><title>Node29</title>
<polygon fill="white" stroke="#bfbfbf" points="616,-224.5 616,-243.5 672,-243.5 672,-224.5 616,-224.5"/>
<text text-anchor="middle" x="644" y="-231.5" font-family="Helvetica,sans-Serif" font-size="10.00">algorithm</text>
</g>
<!-- Node28&#45;&gt;Node29 -->
<g id="edge35" class="edge"><title>Node28&#45;&gt;Node29</title>
<path fill="none" stroke="midnightblue" d="M823.25,-280.444C784.833,-270.704 722.225,-254.832 682.09,-244.657"/>
<polygon fill="midnightblue" stroke="midnightblue" points="682.704,-241.202 672.151,-242.137 680.984,-247.987 682.704,-241.202"/>
</g>
<!-- Node30 -->
<g id="node30" class="node"><title>Node30</title>
<g id="a_node30"><a xlink:href="Entry_8h.html" target="_top" xlink:title="aggro/Entry.h">
<polygon fill="white" stroke="black" points="1070.5,-168.5 1070.5,-187.5 1145.5,-187.5 1145.5,-168.5 1070.5,-168.5"/>
<text text-anchor="middle" x="1108" y="-175.5" font-family="Helvetica,sans-Serif" font-size="10.00">aggro/Entry.h</text>
</a>
</g>
</g>
<!-- Node28&#45;&gt;Node30 -->
<g id="edge36" class="edge"><title>Node28&#45;&gt;Node30</title>
<path fill="none" stroke="midnightblue" d="M873.57,-280.301C898.511,-267.344 947.328,-242.519 990,-224 1017.98,-211.856 1050.4,-199.621 1074.17,-190.981"/>
<polygon fill="midnightblue" stroke="midnightblue" points="1075.57,-194.196 1083.79,-187.508 1073.19,-187.612 1075.57,-194.196"/>
</g>
<!-- Node30&#45;&gt;Node8 -->
<g id="edge37" class="edge"><title>Node30&#45;&gt;Node8</title>
<path fill="none" stroke="midnightblue" d="M1114.77,-168.083C1120.56,-160.455 1129.06,-149.264 1136.14,-139.941"/>
<polygon fill="midnightblue" stroke="midnightblue" points="1139.1,-141.832 1142.36,-131.751 1133.52,-137.599 1139.1,-141.832"/>
</g>
<!-- Node31&#45;&gt;Node4 -->
<g id="edge68" class="edge"><title>Node31&#45;&gt;Node4</title>
<path fill="none" stroke="midnightblue" d="M446.188,-400.106C396.358,-397.472 313.779,-388.104 251,-356 186.623,-323.079 161.539,-310.436 133,-244 118.248,-209.659 140.305,-191.949 169,-168 191.454,-149.259 222.792,-137.421 246.105,-130.618"/>
<polygon fill="midnightblue" stroke="midnightblue" points="247.165,-133.957 255.873,-127.922 245.303,-127.209 247.165,-133.957"/>
</g>
<!-- Node31&#45;&gt;Node8 -->
<g id="edge40" class="edge"><title>Node31&#45;&gt;Node8</title>
<path fill="none" stroke="midnightblue" d="M533.752,-393.554C611.451,-379.674 778.042,-346.938 913,-300 1024.56,-261.201 1090.47,-287.574 1154,-188 1162.74,-174.297 1160.1,-155.513 1156.1,-141.661"/>
<polygon fill="midnightblue" stroke="midnightblue" points="1159.29,-140.166 1152.79,-131.801 1152.65,-142.395 1159.29,-140.166"/>
</g>
<!-- Node31&#45;&gt;Node13 -->
<g id="edge69" class="edge"><title>Node31&#45;&gt;Node13</title>
<path fill="none" stroke="midnightblue" d="M480.245,-392.366C455.457,-369.419 392,-303.942 392,-235 392,-235 392,-235 392,-177 392,-144.948 392,-107.643 392,-85.7489"/>
<polygon fill="midnightblue" stroke="midnightblue" points="395.5,-85.5577 392,-75.5578 388.5,-85.5578 395.5,-85.5577"/>
</g>
<!-- Node31&#45;&gt;Node25 -->
<g id="edge70" class="edge"><title>Node31&#45;&gt;Node25</title>
<path fill="none" stroke="midnightblue" d="M496.125,-392.358C511.897,-369.504 553.673,-305.038 568,-244 575.719,-211.116 562.925,-201.394 568,-168 569.368,-159.001 572.19,-149.325 574.945,-141.26"/>
<polygon fill="midnightblue" stroke="midnightblue" points="578.265,-142.372 578.4,-131.778 571.688,-139.976 578.265,-142.372"/>
</g>
<!-- Node31&#45;&gt;Node29 -->
<g id="edge71" class="edge"><title>Node31&#45;&gt;Node29</title>
<path fill="none" stroke="midnightblue" d="M533.771,-392.604C556.801,-386.134 583.927,-374.961 602,-356 629.397,-327.257 639.009,-279.737 642.317,-253.622"/>
<polygon fill="midnightblue" stroke="midnightblue" points="645.809,-253.884 643.408,-243.565 638.849,-253.129 645.809,-253.884"/>
</g>
<!-- Node31&#45;&gt;Node32 -->
<g id="edge41" class="edge"><title>Node31&#45;&gt;Node32</title>
<path fill="none" stroke="midnightblue" d="M490,-392.075C490,-365.945 490,-289.211 490,-253.577"/>
<polygon fill="midnightblue" stroke="midnightblue" points="493.5,-253.568 490,-243.568 486.5,-253.568 493.5,-253.568"/>
</g>
<!-- Node33 -->
<g id="node33" class="node"><title>Node33</title>
<g id="a_node33"><a xlink:href="ICondition_8h.html" target="_top" xlink:title="Condition related stuff. ">
<polygon fill="white" stroke="black" points="248,-280.5 248,-299.5 364,-299.5 364,-280.5 248,-280.5"/>
<text text-anchor="middle" x="306" y="-287.5" font-family="Helvetica,sans-Serif" font-size="10.00">conditions/ICondition.h</text>
</a>
</g>
</g>
<!-- Node31&#45;&gt;Node33 -->
<g id="edge43" class="edge"><title>Node31&#45;&gt;Node33</title>
<path fill="none" stroke="midnightblue" d="M472.25,-392.386C454.654,-383.691 427.065,-369.634 404,-356 376.538,-339.767 346.09,-319.134 326.532,-305.521"/>
<polygon fill="midnightblue" stroke="midnightblue" points="328.314,-302.495 318.115,-299.626 324.298,-308.229 328.314,-302.495"/>
</g>
<!-- Node42 -->
<g id="node42" class="node"><title>Node42</title>
<g id="a_node42"><a xlink:href="True_8h.html" target="_top" xlink:title="conditions/True.h">
<polygon fill="white" stroke="black" points="260,-336.5 260,-355.5 352,-355.5 352,-336.5 260,-336.5"/>
<text text-anchor="middle" x="306" y="-343.5" font-family="Helvetica,sans-Serif" font-size="10.00">conditions/True.h</text>
</a>
</g>
</g>
<!-- Node31&#45;&gt;Node42 -->
<g id="edge66" class="edge"><title>Node31&#45;&gt;Node42</title>
<path fill="none" stroke="midnightblue" d="M460.845,-392.444C429.487,-383.241 379.469,-368.562 344.803,-358.388"/>
<polygon fill="midnightblue" stroke="midnightblue" points="345.6,-354.974 335.019,-355.516 343.629,-361.691 345.6,-354.974"/>
</g>
<!-- Node32&#45;&gt;Node25 -->
<g id="edge42" class="edge"><title>Node32&#45;&gt;Node25</title>
<path fill="none" stroke="midnightblue" d="M494.179,-224.452C500.753,-211.475 514.381,-186.374 530,-168 539.424,-156.914 551.661,-146.184 561.896,-137.984"/>
<polygon fill="midnightblue" stroke="midnightblue" points="564.177,-140.644 569.917,-131.739 559.877,-135.121 564.177,-140.644"/>
</g>
<!-- Node33&#45;&gt;Node4 -->
<g id="edge45" class="edge"><title>Node33&#45;&gt;Node4</title>
<path fill="none" stroke="midnightblue" d="M304.708,-280.158C302.863,-267.642 299.328,-244.049 296,-224 291.223,-195.225 285.192,-161.932 281.466,-141.678"/>
<polygon fill="midnightblue" stroke="midnightblue" points="284.869,-140.832 279.61,-131.635 277.985,-142.104 284.869,-140.832"/>
</g>
<!-- Node33&#45;&gt;Node13 -->
<g id="edge44" class="edge"><title>Node33&#45;&gt;Node13</title>
<path fill="none" stroke="midnightblue" d="M247.836,-288.166C210.366,-284.541 163.186,-273.72 133,-244 90.0578,-201.72 62.7907,-157.763 102,-112 135.119,-73.3461 293.205,-67.6179 361.007,-66.9655"/>
<polygon fill="midnightblue" stroke="midnightblue" points="361.103,-70.4651 371.08,-66.9001 361.058,-63.4652 361.103,-70.4651"/>
</g>
<!-- Node33&#45;&gt;Node25 -->
<g id="edge47" class="edge"><title>Node33&#45;&gt;Node25</title>
<path fill="none" stroke="midnightblue" d="M319.537,-280.495C339.483,-267.992 377.978,-243.97 411,-224 463.363,-192.333 525.311,-156.03 558.386,-136.739"/>
<polygon fill="midnightblue" stroke="midnightblue" points="560.422,-139.603 567.3,-131.544 556.897,-133.556 560.422,-139.603"/>
</g>
<!-- Node33&#45;&gt;Node32 -->
<g id="edge48" class="edge"><title>Node33&#45;&gt;Node32</title>
<path fill="none" stroke="midnightblue" d="M335.155,-280.444C366.513,-271.241 416.531,-256.562 451.197,-246.388"/>
<polygon fill="midnightblue" stroke="midnightblue" points="452.371,-249.691 460.981,-243.516 450.4,-242.974 452.371,-249.691"/>
</g>
<!-- Node34 -->
<g id="node34" class="node"><title>Node34</title>
<polygon fill="white" stroke="#bfbfbf" points="142,-224.5 142,-243.5 194,-243.5 194,-224.5 142,-224.5"/>
<text text-anchor="middle" x="168" y="-231.5" font-family="Helvetica,sans-Serif" font-size="10.00">sstream</text>
</g>
<!-- Node33&#45;&gt;Node34 -->
<g id="edge46" class="edge"><title>Node33&#45;&gt;Node34</title>
<path fill="none" stroke="midnightblue" d="M284.133,-280.444C261.221,-271.478 225.025,-257.314 199.134,-247.183"/>
<polygon fill="midnightblue" stroke="midnightblue" points="200.352,-243.901 189.764,-243.516 197.801,-250.42 200.352,-243.901"/>
</g>
<!-- Node33&#45;&gt;Node35 -->
<g id="edge49" class="edge"><title>Node33&#45;&gt;Node35</title>
<path fill="none" stroke="midnightblue" d="M364.091,-288.496C513.458,-286.716 922.952,-278.781 1262,-244 1318.41,-238.214 1331.83,-231.729 1388,-224 1504.18,-208.014 1640.55,-192.99 1716.13,-184.992"/>
<polygon fill="midnightblue" stroke="midnightblue" points="1716.8,-188.44 1726.38,-183.911 1716.07,-181.479 1716.8,-188.44"/>
</g>
<!-- Node38 -->
<g id="node38" class="node"><title>Node38</title>
<g id="a_node38"><a xlink:href="AIFactories_8h.html" target="_top" xlink:title="AIFactories.h">
<polygon fill="white" stroke="black" points="212.5,-224.5 212.5,-243.5 287.5,-243.5 287.5,-224.5 212.5,-224.5"/>
<text text-anchor="middle" x="250" y="-231.5" font-family="Helvetica,sans-Serif" font-size="10.00">AIFactories.h</text>
</a>
</g>
</g>
<!-- Node33&#45;&gt;Node38 -->
<g id="edge54" class="edge"><title>Node33&#45;&gt;Node38</title>
<path fill="none" stroke="midnightblue" d="M297.003,-280.324C288.806,-272.42 276.494,-260.548 266.528,-250.938"/>
<polygon fill="midnightblue" stroke="midnightblue" points="268.789,-248.256 259.161,-243.834 263.93,-253.295 268.789,-248.256"/>
</g>
<!-- Node35&#45;&gt;Node8 -->
<g id="edge50" class="edge"><title>Node35&#45;&gt;Node8</title>
<path fill="none" stroke="midnightblue" d="M1726.25,-176.193C1627.04,-173.907 1391.42,-165.306 1185.37,-131.941"/>
<polygon fill="midnightblue" stroke="midnightblue" points="1185.7,-128.45 1175.27,-130.282 1184.57,-135.357 1185.7,-128.45"/>
</g>
<!-- Node35&#45;&gt;Node24 -->
<g id="edge53" class="edge"><title>Node35&#45;&gt;Node24</title>
<path fill="none" stroke="midnightblue" d="M1799.19,-168.444C1826.57,-159.145 1870.41,-144.257 1900.39,-134.073"/>
<polygon fill="midnightblue" stroke="midnightblue" points="1901.65,-137.345 1909.99,-130.815 1899.39,-130.717 1901.65,-137.345"/>
</g>
<!-- Node36 -->
<g id="node36" class="node"><title>Node36</title>
<polygon fill="white" stroke="#bfbfbf" points="2036,-112.5 2036,-131.5 2080,-131.5 2080,-112.5 2036,-112.5"/>
<text text-anchor="middle" x="2058" y="-119.5" font-family="Helvetica,sans-Serif" font-size="10.00">thread</text>
</g>
<!-- Node35&#45;&gt;Node36 -->
<g id="edge51" class="edge"><title>Node35&#45;&gt;Node36</title>
<path fill="none" stroke="midnightblue" d="M1821.65,-169.91C1870.45,-162.333 1948.65,-149.316 2025.8,-131.84"/>
<polygon fill="midnightblue" stroke="midnightblue" points="2026.73,-135.219 2035.69,-129.574 2025.16,-128.396 2026.73,-135.219"/>
</g>
<!-- Node37 -->
<g id="node37" class="node"><title>Node37</title>
<polygon fill="white" stroke="#bfbfbf" points="1974,-112.5 1974,-131.5 2018,-131.5 2018,-112.5 1974,-112.5"/>
<text text-anchor="middle" x="1996" y="-119.5" font-family="Helvetica,sans-Serif" font-size="10.00">mutex</text>
</g>
<!-- Node35&#45;&gt;Node37 -->
<g id="edge52" class="edge"><title>Node35&#45;&gt;Node37</title>
<path fill="none" stroke="midnightblue" d="M1812.92,-168.443C1849.5,-160.265 1906.01,-147.285 1963.67,-132.254"/>
<polygon fill="midnightblue" stroke="midnightblue" points="1964.9,-135.55 1973.69,-129.626 1963.13,-128.779 1964.9,-135.55"/>
</g>
<!-- Node38&#45;&gt;Node4 -->
<g id="edge65" class="edge"><title>Node38&#45;&gt;Node4</title>
<path fill="none" stroke="midnightblue" d="M252.197,-224.368C256.716,-206.617 267.139,-165.666 273.266,-141.597"/>
<polygon fill="midnightblue" stroke="midnightblue" points="276.738,-142.146 275.813,-131.591 269.954,-140.419 276.738,-142.146"/>
</g>
<!-- Node39 -->
<g id="node39" class="node"><title>Node39</title>
<g id="a_node39"><a xlink:href="IAIFactory_8h.html" target="_top" xlink:title="IAIFactory.h">
<polygon fill="white" stroke="black" points="178.5,-168.5 178.5,-187.5 249.5,-187.5 249.5,-168.5 178.5,-168.5"/>
<text text-anchor="middle" x="214" y="-175.5" font-family="Helvetica,sans-Serif" font-size="10.00">IAIFactory.h</text>
</a>
</g>
</g>
<!-- Node38&#45;&gt;Node39 -->
<g id="edge55" class="edge"><title>Node38&#45;&gt;Node39</title>
<path fill="none" stroke="midnightblue" d="M244.055,-224.083C239.023,-216.534 231.663,-205.495 225.487,-196.23"/>
<polygon fill="midnightblue" stroke="midnightblue" points="228.293,-194.13 219.834,-187.751 222.469,-198.013 228.293,-194.13"/>
</g>
<!-- Node40 -->
<g id="node40" class="node"><title>Node40</title>
<g id="a_node40"><a xlink:href="IFactoryRegistry_8h.html" target="_top" xlink:title="common/IFactoryRegistry.h">
<polygon fill="white" stroke="black" points="800,-168.5 800,-187.5 938,-187.5 938,-168.5 800,-168.5"/>
<text text-anchor="middle" x="869" y="-175.5" font-family="Helvetica,sans-Serif" font-size="10.00">common/IFactoryRegistry.h</text>
</a>
</g>
</g>
<!-- Node38&#45;&gt;Node40 -->
<g id="edge60" class="edge"><title>Node38&#45;&gt;Node40</title>
<path fill="none" stroke="midnightblue" d="M287.789,-229.703C386.729,-221.072 654.995,-197.669 789.651,-185.922"/>
<polygon fill="midnightblue" stroke="midnightblue" points="790.24,-189.384 799.898,-185.028 789.632,-182.411 790.24,-189.384"/>
</g>
<!-- Node39&#45;&gt;Node3 -->
<g id="edge59" class="edge"><title>Node39&#45;&gt;Node3</title>
<path fill="none" stroke="midnightblue" d="M199.861,-168.324C186.134,-159.9 165.064,-146.971 148.936,-137.074"/>
<polygon fill="midnightblue" stroke="midnightblue" points="150.457,-133.902 140.104,-131.655 146.796,-139.868 150.457,-133.902"/>
</g>
<!-- Node39&#45;&gt;Node4 -->
<g id="edge58" class="edge"><title>Node39&#45;&gt;Node4</title>
<path fill="none" stroke="midnightblue" d="M224.283,-168.324C233.836,-160.263 248.28,-148.077 259.784,-138.369"/>
<polygon fill="midnightblue" stroke="midnightblue" points="262.144,-140.958 267.53,-131.834 257.63,-135.608 262.144,-140.958"/>
</g>
<!-- Node39&#45;&gt;Node13 -->
<g id="edge57" class="edge"><title>Node39&#45;&gt;Node13</title>
<path fill="none" stroke="midnightblue" d="M216.018,-168.483C219.742,-154.616 229.011,-127.182 247,-112 279.756,-84.3554 329.406,-73.6739 361.27,-69.5596"/>
<polygon fill="midnightblue" stroke="midnightblue" points="361.809,-73.0208 371.344,-68.4011 361.009,-66.0666 361.809,-73.0208"/>
</g>
<!-- Node39&#45;&gt;Node25 -->
<g id="edge56" class="edge"><title>Node39&#45;&gt;Node25</title>
<path fill="none" stroke="midnightblue" d="M249.62,-171.773C319.621,-161.501 474.461,-138.78 545.314,-128.383"/>
<polygon fill="midnightblue" stroke="midnightblue" points="546.153,-131.798 555.539,-126.883 545.137,-124.872 546.153,-131.798"/>
</g>
<!-- Node40&#45;&gt;Node6 -->
<g id="edge62" class="edge"><title>Node40&#45;&gt;Node6</title>
<path fill="none" stroke="midnightblue" d="M896.412,-168.444C925.769,-159.28 972.519,-144.688 1005.1,-134.519"/>
<polygon fill="midnightblue" stroke="midnightblue" points="1006.21,-137.837 1014.72,-131.516 1004.13,-131.155 1006.21,-137.837"/>
</g>
<!-- Node40&#45;&gt;Node8 -->
<g id="edge61" class="edge"><title>Node40&#45;&gt;Node8</title>
<path fill="none" stroke="midnightblue" d="M920.597,-168.45C967.984,-160.379 1040.36,-147.507 1112.93,-131.896"/>
<polygon fill="midnightblue" stroke="midnightblue" points="1113.67,-135.317 1122.7,-129.777 1112.18,-128.476 1113.67,-135.317"/>
</g>
<!-- Node40&#45;&gt;Node25 -->
<g id="edge63" class="edge"><title>Node40&#45;&gt;Node25</title>
<path fill="none" stroke="midnightblue" d="M823.524,-168.444C766.741,-157.76 670.734,-139.696 618.503,-129.868"/>
<polygon fill="midnightblue" stroke="midnightblue" points="618.833,-126.369 608.358,-127.959 617.538,-133.248 618.833,-126.369"/>
</g>
<!-- Node41 -->
<g id="node41" class="node"><title>Node41</title>
<polygon fill="white" stroke="#bfbfbf" points="787.5,-112.5 787.5,-131.5 822.5,-131.5 822.5,-112.5 787.5,-112.5"/>
<text text-anchor="middle" x="805" y="-119.5" font-family="Helvetica,sans-Serif" font-size="10.00">map</text>
</g>
<!-- Node40&#45;&gt;Node41 -->
<g id="edge64" class="edge"><title>Node40&#45;&gt;Node41</title>
<path fill="none" stroke="midnightblue" d="M858.717,-168.324C849.164,-160.263 834.72,-148.077 823.216,-138.369"/>
<polygon fill="midnightblue" stroke="midnightblue" points="825.37,-135.608 815.47,-131.834 820.856,-140.958 825.37,-135.608"/>
</g>
<!-- Node42&#45;&gt;Node33 -->
<g id="edge67" class="edge"><title>Node42&#45;&gt;Node33</title>
<path fill="none" stroke="midnightblue" d="M306,-336.083C306,-329.006 306,-318.861 306,-309.986"/>
<polygon fill="midnightblue" stroke="midnightblue" points="309.5,-309.751 306,-299.751 302.5,-309.751 309.5,-309.751"/>
</g>
<!-- Node43&#45;&gt;Node4 -->
<g id="edge76" class="edge"><title>Node43&#45;&gt;Node4</title>
<path fill="none" stroke="midnightblue" d="M824.962,-224.46C709.305,-203.006 408.766,-147.257 309.984,-128.933"/>
<polygon fill="midnightblue" stroke="midnightblue" points="310.478,-125.465 300.008,-127.082 309.202,-132.348 310.478,-125.465"/>
</g>
<!-- Node43&#45;&gt;Node10 -->
<g id="edge79" class="edge"><title>Node43&#45;&gt;Node10</title>
<path fill="none" stroke="midnightblue" d="M899.015,-224.397C916.174,-217.515 936.748,-205.984 947,-188 951.402,-180.278 948.201,-176.807 947,-168 944.757,-151.546 939.243,-148.454 937,-132 932.438,-98.5317 921.217,-85.8636 937,-56 944.424,-41.9533 958.421,-31.4667 971.621,-24.167"/>
<polygon fill="midnightblue" stroke="midnightblue" points="973.223,-27.2788 980.541,-19.6178 970.043,-21.0428 973.223,-27.2788"/>
</g>
<!-- Node43&#45;&gt;Node11 -->
<g id="edge78" class="edge"><title>Node43&#45;&gt;Node11</title>
<path fill="none" stroke="midnightblue" d="M907.772,-224.396C927.436,-217.808 950.178,-206.588 963,-188 982.261,-160.078 956.165,-142.971 970,-112 989.266,-68.8712 1037.85,-39.4687 1070.13,-23.9586"/>
<polygon fill="midnightblue" stroke="midnightblue" points="1071.97,-26.9658 1079.58,-19.5913 1069.03,-20.6124 1071.97,-26.9658"/>
</g>
<!-- Node43&#45;&gt;Node13 -->
<g id="edge75" class="edge"><title>Node43&#45;&gt;Node13</title>
<path fill="none" stroke="midnightblue" d="M854.404,-224.429C806.076,-199.576 665.784,-128.22 617,-112 549.426,-89.5328 466.513,-76.5006 422.633,-70.6817"/>
<polygon fill="midnightblue" stroke="midnightblue" points="422.971,-67.1964 412.605,-69.3883 422.075,-74.1389 422.971,-67.1964"/>
</g>
<!-- Node43&#45;&gt;Node25 -->
<g id="edge74" class="edge"><title>Node43&#45;&gt;Node25</title>
<path fill="none" stroke="midnightblue" d="M812.716,-224.447C774.493,-217.562 724.005,-206.011 682,-188 651.304,-174.838 619.591,-152.458 600.328,-137.701"/>
<polygon fill="midnightblue" stroke="midnightblue" points="602.439,-134.909 592.402,-131.518 598.133,-140.428 602.439,-134.909"/>
</g>
<!-- Node43&#45;&gt;Node35 -->
<g id="edge73" class="edge"><title>Node43&#45;&gt;Node35</title>
<path fill="none" stroke="midnightblue" d="M936.669,-229.073C1106.14,-218.938 1556.16,-192.027 1716.37,-182.447"/>
<polygon fill="midnightblue" stroke="midnightblue" points="1716.72,-185.932 1726.49,-181.841 1716.3,-178.944 1716.72,-185.932"/>
</g>
<!-- Node43&#45;&gt;Node41 -->
<g id="edge77" class="edge"><title>Node43&#45;&gt;Node41</title>
<path fill="none" stroke="midnightblue" d="M840.753,-224.488C822.875,-217.726 801.7,-206.295 791,-188 782.465,-173.407 788.277,-154.237 794.815,-140.504"/>
<polygon fill="midnightblue" stroke="midnightblue" points="797.938,-142.085 799.508,-131.608 791.746,-138.819 797.938,-142.085"/>
</g>
</g>
</svg>
