<?xml version="1.0" encoding="UTF-8" standalone="no"?>
<!DOCTYPE svg PUBLIC "-//W3C//DTD SVG 1.1//EN"
 "http://www.w3.org/Graphics/SVG/1.1/DTD/svg11.dtd">
<!-- Generated by graphviz version 2.36.0 (20140111.2315)
 -->
<!-- Title: /home/travis/build/mgerhardy/simpleai/src/ai/common/LUA.h Pages: 1 -->
<svg width="435pt" height="218pt"
 viewBox="0.00 0.00 435.00 218.00" xmlns="http://www.w3.org/2000/svg" xmlns:xlink="http://www.w3.org/1999/xlink">
<g id="graph0" class="graph" transform="scale(1 1) rotate(0) translate(4 214)">
<title>/home/travis/build/mgerhardy/simpleai/src/ai/common/LUA.h</title>
<polygon fill="white" stroke="none" points="-4,4 -4,-214 431,-214 431,4 -4,4"/>
<!-- Node1 -->
<g id="node1" class="node"><title>Node1</title>
<polygon fill="#bfbfbf" stroke="black" points="187.5,-168.5 187.5,-209.5 302.5,-209.5 302.5,-168.5 187.5,-168.5"/>
<text text-anchor="start" x="195.5" y="-197.5" font-family="Helvetica,sans-Serif" font-size="10.00">/home/travis/build</text>
<text text-anchor="start" x="195.5" y="-186.5" font-family="Helvetica,sans-Serif" font-size="10.00">/mgerhardy/simpleai</text>
<text text-anchor="middle" x="245" y="-175.5" font-family="Helvetica,sans-Serif" font-size="10.00">/src/ai/common/LUA.h</text>
</g>
<!-- Node2 -->
<g id="node2" class="node"><title>Node2</title>
<g id="a_node2"><a xlink:href="Types_8h.html" target="_top" xlink:title="common/Types.h">
<polygon fill="white" stroke="black" points="72,-112.5 72,-131.5 164,-131.5 164,-112.5 72,-112.5"/>
<text text-anchor="middle" x="118" y="-119.5" font-family="Helvetica,sans-Serif" font-size="10.00">common/Types.h</text>
</a>
</g>
</g>
<!-- Node1&#45;&gt;Node2 -->
<g id="edge1" class="edge"><title>Node1&#45;&gt;Node2</title>
<path fill="none" stroke="midnightblue" d="M206.896,-168.498C186.675,-158.149 162.342,-145.695 144.249,-136.435"/>
<polygon fill="midnightblue" stroke="midnightblue" points="145.402,-133.093 134.906,-131.652 142.213,-139.324 145.402,-133.093"/>
</g>
<!-- Node7 -->
<g id="node7" class="node"><title>Node7</title>
<polygon fill="white" stroke="#bfbfbf" points="-0.5,-56.5 -0.5,-75.5 40.5,-75.5 40.5,-56.5 -0.5,-56.5"/>
<text text-anchor="middle" x="20" y="-63.5" font-family="Helvetica,sans-Serif" font-size="10.00">string</text>
</g>
<!-- Node1&#45;&gt;Node7 -->
<g id="edge13" class="edge"><title>Node1&#45;&gt;Node7</title>
<path fill="none" stroke="midnightblue" d="M187.088,-180.539C148.836,-173.266 99.262,-159.136 63,-132 46.7858,-119.867 34.8327,-99.7025 27.7005,-85.0455"/>
<polygon fill="midnightblue" stroke="midnightblue" points="30.7,-83.1872 23.3672,-75.5399 24.3306,-86.0908 30.7,-83.1872"/>
</g>
<!-- Node11 -->
<g id="node11" class="node"><title>Node11</title>
<g id="a_node11"><a xlink:href="NonCopyable_8h.html" target="_top" xlink:title="common/NonCopyable.h">
<polygon fill="white" stroke="black" points="182.5,-112.5 182.5,-131.5 307.5,-131.5 307.5,-112.5 182.5,-112.5"/>
<text text-anchor="middle" x="245" y="-119.5" font-family="Helvetica,sans-Serif" font-size="10.00">common/NonCopyable.h</text>
</a>
</g>
</g>
<!-- Node1&#45;&gt;Node11 -->
<g id="edge11" class="edge"><title>Node1&#45;&gt;Node11</title>
<path fill="none" stroke="midnightblue" d="M245,-168.498C245,-160.065 245,-150.235 245,-141.874"/>
<polygon fill="midnightblue" stroke="midnightblue" points="248.5,-141.652 245,-131.652 241.5,-141.653 248.5,-141.652"/>
</g>
<!-- Node12 -->
<g id="node12" class="node"><title>Node12</title>
<polygon fill="white" stroke="#bfbfbf" points="326,-112.5 326,-131.5 374,-131.5 374,-112.5 326,-112.5"/>
<text text-anchor="middle" x="350" y="-119.5" font-family="Helvetica,sans-Serif" font-size="10.00">lua.hpp</text>
</g>
<!-- Node1&#45;&gt;Node12 -->
<g id="edge12" class="edge"><title>Node1&#45;&gt;Node12</title>
<path fill="none" stroke="midnightblue" d="M276.503,-168.498C292.912,-158.34 312.596,-146.155 327.462,-136.952"/>
<polygon fill="midnightblue" stroke="midnightblue" points="329.362,-139.892 336.023,-131.652 325.678,-133.94 329.362,-139.892"/>
</g>
<!-- Node13 -->
<g id="node13" class="node"><title>Node13</title>
<polygon fill="white" stroke="#bfbfbf" points="392.5,-112.5 392.5,-131.5 427.5,-131.5 427.5,-112.5 392.5,-112.5"/>
<text text-anchor="middle" x="410" y="-119.5" font-family="Helvetica,sans-Serif" font-size="10.00">map</text>
</g>
<!-- Node1&#45;&gt;Node13 -->
<g id="edge14" class="edge"><title>Node1&#45;&gt;Node13</title>
<path fill="none" stroke="midnightblue" d="M294.505,-168.498C323.41,-157.111 358.785,-143.176 382.71,-133.751"/>
<polygon fill="midnightblue" stroke="midnightblue" points="384.189,-136.93 392.21,-130.008 381.623,-130.417 384.189,-136.93"/>
</g>
<!-- Node3 -->
<g id="node3" class="node"><title>Node3</title>
<g id="a_node3"><a xlink:href="Log_8h.html" target="_top" xlink:title="Log.h">
<polygon fill="white" stroke="black" points="97.5,-56.5 97.5,-75.5 138.5,-75.5 138.5,-56.5 97.5,-56.5"/>
<text text-anchor="middle" x="118" y="-63.5" font-family="Helvetica,sans-Serif" font-size="10.00">Log.h</text>
</a>
</g>
</g>
<!-- Node2&#45;&gt;Node3 -->
<g id="edge2" class="edge"><title>Node2&#45;&gt;Node3</title>
<path fill="none" stroke="midnightblue" d="M118,-112.083C118,-105.006 118,-94.8611 118,-85.9865"/>
<polygon fill="midnightblue" stroke="midnightblue" points="121.5,-85.751 118,-75.7511 114.5,-85.7511 121.5,-85.751"/>
</g>
<!-- Node4 -->
<g id="node4" class="node"><title>Node4</title>
<polygon fill="white" stroke="#bfbfbf" points="37,-0.5 37,-19.5 83,-19.5 83,-0.5 37,-0.5"/>
<text text-anchor="middle" x="60" y="-7.5" font-family="Helvetica,sans-Serif" font-size="10.00">stdio.h</text>
</g>
<!-- Node2&#45;&gt;Node4 -->
<g id="edge9" class="edge"><title>Node2&#45;&gt;Node4</title>
<path fill="none" stroke="midnightblue" d="M111.532,-112.332C105.095,-103.48 95.1678,-89.2029 88,-76 79.6735,-60.6628 71.9674,-42.3362 66.7564,-29.0582"/>
<polygon fill="midnightblue" stroke="midnightblue" points="69.9957,-27.7301 63.148,-19.6455 63.4595,-30.2358 69.9957,-27.7301"/>
</g>
<!-- Node2&#45;&gt;Node7 -->
<g id="edge6" class="edge"><title>Node2&#45;&gt;Node7</title>
<path fill="none" stroke="midnightblue" d="M102.255,-112.324C86.6813,-103.743 62.6227,-90.486 44.5407,-80.5224"/>
<polygon fill="midnightblue" stroke="midnightblue" points="46.1539,-77.4152 35.7063,-75.6545 42.7756,-83.546 46.1539,-77.4152"/>
</g>
<!-- Node8 -->
<g id="node8" class="node"><title>Node8</title>
<polygon fill="white" stroke="#bfbfbf" points="156.5,-56.5 156.5,-75.5 239.5,-75.5 239.5,-56.5 156.5,-56.5"/>
<text text-anchor="middle" x="198" y="-63.5" font-family="Helvetica,sans-Serif" font-size="10.00">unordered_map</text>
</g>
<!-- Node2&#45;&gt;Node8 -->
<g id="edge7" class="edge"><title>Node2&#45;&gt;Node8</title>
<path fill="none" stroke="midnightblue" d="M130.853,-112.324C143.216,-103.979 162.13,-91.2122 176.737,-81.3524"/>
<polygon fill="midnightblue" stroke="midnightblue" points="178.848,-84.1503 185.179,-75.6545 174.932,-78.3483 178.848,-84.1503"/>
</g>
<!-- Node9 -->
<g id="node9" class="node"><title>Node9</title>
<polygon fill="white" stroke="#bfbfbf" points="258,-56.5 258,-75.5 310,-75.5 310,-56.5 258,-56.5"/>
<text text-anchor="middle" x="284" y="-63.5" font-family="Helvetica,sans-Serif" font-size="10.00">assert.h</text>
</g>
<!-- Node2&#45;&gt;Node9 -->
<g id="edge8" class="edge"><title>Node2&#45;&gt;Node9</title>
<path fill="none" stroke="midnightblue" d="M144.303,-112.444C172.351,-103.32 216.944,-88.8133 248.184,-78.6509"/>
<polygon fill="midnightblue" stroke="midnightblue" points="249.393,-81.9383 257.82,-75.5164 247.228,-75.2816 249.393,-81.9383"/>
</g>
<!-- Node10 -->
<g id="node10" class="node"><title>Node10</title>
<polygon fill="white" stroke="#bfbfbf" points="328.5,-56.5 328.5,-75.5 387.5,-75.5 387.5,-56.5 328.5,-56.5"/>
<text text-anchor="middle" x="358" y="-63.5" font-family="Helvetica,sans-Serif" font-size="10.00">inttypes.h</text>
</g>
<!-- Node2&#45;&gt;Node10 -->
<g id="edge10" class="edge"><title>Node2&#45;&gt;Node10</title>
<path fill="none" stroke="midnightblue" d="M156.55,-112.448C194.969,-103.908 255.924,-90.3106 318.192,-76.1725"/>
<polygon fill="midnightblue" stroke="midnightblue" points="319.218,-79.5286 328.194,-73.8994 317.667,-72.7027 319.218,-79.5286"/>
</g>
<!-- Node3&#45;&gt;Node4 -->
<g id="edge3" class="edge"><title>Node3&#45;&gt;Node4</title>
<path fill="none" stroke="midnightblue" d="M108.681,-56.324C100.107,-48.3414 87.1878,-36.3128 76.8124,-26.6529"/>
<polygon fill="midnightblue" stroke="midnightblue" points="79.1922,-24.0865 69.4883,-19.8339 74.4223,-29.2098 79.1922,-24.0865"/>
</g>
<!-- Node5 -->
<g id="node5" class="node"><title>Node5</title>
<polygon fill="white" stroke="#bfbfbf" points="101,-0.5 101,-19.5 153,-19.5 153,-0.5 101,-0.5"/>
<text text-anchor="middle" x="127" y="-7.5" font-family="Helvetica,sans-Serif" font-size="10.00">stdarg.h</text>
</g>
<!-- Node3&#45;&gt;Node5 -->
<g id="edge4" class="edge"><title>Node3&#45;&gt;Node5</title>
<path fill="none" stroke="midnightblue" d="M119.486,-56.083C120.679,-48.9272 122.394,-38.6353 123.885,-29.6911"/>
<polygon fill="midnightblue" stroke="midnightblue" points="127.35,-30.1904 125.541,-19.7511 120.445,-29.0396 127.35,-30.1904"/>
</g>
<!-- Node6 -->
<g id="node6" class="node"><title>Node6</title>
<polygon fill="white" stroke="#bfbfbf" points="171.5,-0.5 171.5,-19.5 220.5,-19.5 220.5,-0.5 171.5,-0.5"/>
<text text-anchor="middle" x="196" y="-7.5" font-family="Helvetica,sans-Serif" font-size="10.00">string.h</text>
</g>
<!-- Node3&#45;&gt;Node6 -->
<g id="edge5" class="edge"><title>Node3&#45;&gt;Node6</title>
<path fill="none" stroke="midnightblue" d="M130.532,-56.324C142.586,-47.979 161.027,-35.2122 175.269,-25.3524"/>
<polygon fill="midnightblue" stroke="midnightblue" points="177.269,-28.2243 183.499,-19.6545 173.285,-22.469 177.269,-28.2243"/>
</g>
</g>
</svg>
