<?xml version="1.0" encoding="UTF-8" standalone="no"?>
<!DOCTYPE svg PUBLIC "-//W3C//DTD SVG 1.1//EN"
 "http://www.w3.org/Graphics/SVG/1.1/DTD/svg11.dtd">
<!-- Generated by graphviz version 2.36.0 (20140111.2315)
 -->
<!-- Title: /home/travis/build/mgerhardy/simpleai/src/ai/common/LUA.h Pages: 1 -->
<!--zoomable 296 -->
<svg id="main" version="1.1" xmlns="http://www.w3.org/2000/svg" xmlns:xlink="http://www.w3.org/1999/xlink" xml:space="preserve" onload="init(evt)">
<style type="text/css"><![CDATA[
.edge:hover path { stroke: red; }
.edge:hover polygon { stroke: red; fill: red; }
]]></style>
<script type="text/javascript"><![CDATA[
var edges = document.getElementsByTagName('g');
if (edges && edges.length) {
  for (var i=0;i<edges.length;i++) {
    if (edges[i].id.substr(0,4)=='edge') {
      edges[i].setAttribute('class','edge');
    }
  }
}
]]></script>
        <defs>
                <circle id="rim" cx="0" cy="0" r="7"/>
                <circle id="rim2" cx="0" cy="0" r="3.5"/>
                <g id="zoomPlus">
                        <use xlink:href="#rim" fill="#404040">
                                <set attributeName="fill" to="#808080" begin="zoomplus.mouseover" end="zoomplus.mouseout"/>
                        </use>
                        <path d="M-4,0h8M0,-4v8" fill="none" stroke="white" stroke-width="1.5" pointer-events="none"/>
                </g>
                <g id="zoomMin">
                        <use xlink:href="#rim" fill="#404040">
                                <set attributeName="fill" to="#808080" begin="zoomminus.mouseover" end="zoomminus.mouseout"/>
                        </use>
                        <path d="M-4,0h8" fill="none" stroke="white" stroke-width="1.5" pointer-events="none"/>
                </g>
                <g id="dirArrow">
                        <path fill="none" stroke="white" stroke-width="1.5" d="M0,-3.0v7 M-2.5,-0.5L0,-3.0L2.5,-0.5"/>
                </g>
               <g id="resetDef">
                       <use xlink:href="#rim2" fill="#404040">
                               <set attributeName="fill" to="#808080" begin="reset.mouseover" end="reset.mouseout"/>
                       </use>
               </g>
        </defs>

<script type="text/javascript">
var viewWidth = 677;
var viewHeight = 296;
var sectionId = 'dynsection-1';
</script>
<script xlink:href="svgpan.js"/>
<svg id="graph" class="graph">
<g id="viewport">
<title>/home/travis/build/mgerhardy/simpleai/src/ai/common/LUA.h</title>
<polygon fill="white" stroke="none" points="-4,4 -4,-292 673,-292 673,4 -4,4"/>
<!-- Node1 -->
<g id="node1" class="node"><title>Node1</title>
<polygon fill="#bfbfbf" stroke="black" points="286.5,-246.5 286.5,-287.5 401.5,-287.5 401.5,-246.5 286.5,-246.5"/>
<text text-anchor="start" x="294.5" y="-275.5" font-family="Helvetica,sans-Serif" font-size="10.00">/home/travis/build</text>
<text text-anchor="start" x="294.5" y="-264.5" font-family="Helvetica,sans-Serif" font-size="10.00">/mgerhardy/simpleai</text>
<text text-anchor="middle" x="344" y="-253.5" font-family="Helvetica,sans-Serif" font-size="10.00">/src/ai/common/LUA.h</text>
</g>
<!-- Node2 -->
<g id="node2" class="node"><title>Node2</title>
<g id="a_node2"><a xlink:href="LUAFunctions_8h_source.html" target="_top" xlink:title="/home/travis/build\l/mgerhardy/simpleai\l/src/ai/LUAFunctions.h">
<polygon fill="white" stroke="black" points="219.5,-162.5 219.5,-203.5 336.5,-203.5 336.5,-162.5 219.5,-162.5"/>
<text text-anchor="start" x="227.5" y="-191.5" font-family="Helvetica,sans-Serif" font-size="10.00">/home/travis/build</text>
<text text-anchor="start" x="227.5" y="-180.5" font-family="Helvetica,sans-Serif" font-size="10.00">/mgerhardy/simpleai</text>
<text text-anchor="middle" x="278" y="-169.5" font-family="Helvetica,sans-Serif" font-size="10.00">/src/ai/LUAFunctions.h</text>
</a>
</g>
</g>
<!-- Node1&#45;&gt;Node2 -->
<g id="edge1" class="edge"><title>Node1&#45;&gt;Node2</title>
<path fill="none" stroke="midnightblue" d="M321.635,-238.214C312.504,-226.869 302.156,-214.012 293.83,-203.667"/>
<polygon fill="midnightblue" stroke="midnightblue" points="319.027,-240.554 328.023,-246.15 324.48,-236.165 319.027,-240.554"/>
</g>
<!-- Node8 -->
<g id="node8" class="node"><title>Node8</title>
<g id="a_node8"><a xlink:href="LUATreeLoader_8h.html" target="_top" xlink:title="/home/travis/build\l/mgerhardy/simpleai\l/src/ai/tree/loaders\l/lua/LUATreeLoader.h">
<polygon fill="white" stroke="black" points="355,-157 355,-209 467,-209 467,-157 355,-157"/>
<text text-anchor="start" x="363" y="-197" font-family="Helvetica,sans-Serif" font-size="10.00">/home/travis/build</text>
<text text-anchor="start" x="363" y="-186" font-family="Helvetica,sans-Serif" font-size="10.00">/mgerhardy/simpleai</text>
<text text-anchor="start" x="363" y="-175" font-family="Helvetica,sans-Serif" font-size="10.00">/src/ai/tree/loaders</text>
<text text-anchor="middle" x="411" y="-164" font-family="Helvetica,sans-Serif" font-size="10.00">/lua/LUATreeLoader.h</text>
</a>
</g>
</g>
<!-- Node1&#45;&gt;Node8 -->
<g id="edge11" class="edge"><title>Node1&#45;&gt;Node8</title>
<path fill="none" stroke="midnightblue" d="M366.69,-238.231C374.354,-228.851 382.863,-218.436 390.36,-209.261"/>
<polygon fill="midnightblue" stroke="midnightblue" points="363.836,-236.192 360.219,-246.15 369.256,-240.621 363.836,-236.192"/>
</g>
<!-- Node3 -->
<g id="node3" class="node"><title>Node3</title>
<g id="a_node3"><a xlink:href="LUACondition_8h.html" target="_top" xlink:title="/home/travis/build\l/mgerhardy/simpleai\l/src/ai/conditions/LUACondition.h">
<polygon fill="white" stroke="black" points="-0.5,-78.5 -0.5,-119.5 162.5,-119.5 162.5,-78.5 -0.5,-78.5"/>
<text text-anchor="start" x="7.5" y="-107.5" font-family="Helvetica,sans-Serif" font-size="10.00">/home/travis/build</text>
<text text-anchor="start" x="7.5" y="-96.5" font-family="Helvetica,sans-Serif" font-size="10.00">/mgerhardy/simpleai</text>
<text text-anchor="middle" x="81" y="-85.5" font-family="Helvetica,sans-Serif" font-size="10.00">/src/ai/conditions/LUACondition.h</text>
</a>
</g>
</g>
<!-- Node2&#45;&gt;Node3 -->
<g id="edge2" class="edge"><title>Node2&#45;&gt;Node3</title>
<path fill="none" stroke="midnightblue" d="M221.671,-158.554C192.007,-146.206 156.052,-131.24 127.918,-119.529"/>
<polygon fill="midnightblue" stroke="midnightblue" points="220.487,-161.852 231.064,-162.463 223.177,-155.389 220.487,-161.852"/>
</g>
<!-- Node4 -->
<g id="node4" class="node"><title>Node4</title>
<g id="a_node4"><a xlink:href="LUAAIRegistry_8h_source.html" target="_top" xlink:title="/home/travis/build\l/mgerhardy/simpleai\l/src/ai/LUAAIRegistry.h">
<polygon fill="white" stroke="black" points="217.5,-0.5 217.5,-41.5 338.5,-41.5 338.5,-0.5 217.5,-0.5"/>
<text text-anchor="start" x="225.5" y="-29.5" font-family="Helvetica,sans-Serif" font-size="10.00">/home/travis/build</text>
<text text-anchor="start" x="225.5" y="-18.5" font-family="Helvetica,sans-Serif" font-size="10.00">/mgerhardy/simpleai</text>
<text text-anchor="middle" x="278" y="-7.5" font-family="Helvetica,sans-Serif" font-size="10.00">/src/ai/LUAAIRegistry.h</text>
</a>
</g>
</g>
<!-- Node2&#45;&gt;Node4 -->
<g id="edge6" class="edge"><title>Node2&#45;&gt;Node4</title>
<path fill="none" stroke="midnightblue" d="M238.73,-156.021C227.277,-146.225 216.186,-134.012 210,-120 202.461,-102.924 202.033,-94.8812 210,-78 217.049,-63.0628 230.253,-50.762 243.164,-41.5318"/>
<polygon fill="midnightblue" stroke="midnightblue" points="236.678,-158.862 246.661,-162.409 241.069,-153.41 236.678,-158.862"/>
</g>
<!-- Node5 -->
<g id="node5" class="node"><title>Node5</title>
<g id="a_node5"><a xlink:href="LUAFilter_8h.html" target="_top" xlink:title="/home/travis/build\l/mgerhardy/simpleai\l/src/ai/filter/LUAFilter.h">
<polygon fill="white" stroke="black" points="219,-78.5 219,-119.5 337,-119.5 337,-78.5 219,-78.5"/>
<text text-anchor="start" x="227" y="-107.5" font-family="Helvetica,sans-Serif" font-size="10.00">/home/travis/build</text>
<text text-anchor="start" x="227" y="-96.5" font-family="Helvetica,sans-Serif" font-size="10.00">/mgerhardy/simpleai</text>
<text text-anchor="middle" x="278" y="-85.5" font-family="Helvetica,sans-Serif" font-size="10.00">/src/ai/filter/LUAFilter.h</text>
</a>
</g>
</g>
<!-- Node2&#45;&gt;Node5 -->
<g id="edge4" class="edge"><title>Node2&#45;&gt;Node5</title>
<path fill="none" stroke="midnightblue" d="M278,-151.881C278,-141.133 278,-129.309 278,-119.667"/>
<polygon fill="midnightblue" stroke="midnightblue" points="274.5,-152.15 278,-162.15 281.5,-152.15 274.5,-152.15"/>
</g>
<!-- Node6 -->
<g id="node6" class="node"><title>Node6</title>
<g id="a_node6"><a xlink:href="LUATreeNode_8h.html" target="_top" xlink:title="/home/travis/build\l/mgerhardy/simpleai\l/src/ai/tree/LUATreeNode.h">
<polygon fill="white" stroke="black" points="355.5,-78.5 355.5,-119.5 492.5,-119.5 492.5,-78.5 355.5,-78.5"/>
<text text-anchor="start" x="363.5" y="-107.5" font-family="Helvetica,sans-Serif" font-size="10.00">/home/travis/build</text>
<text text-anchor="start" x="363.5" y="-96.5" font-family="Helvetica,sans-Serif" font-size="10.00">/mgerhardy/simpleai</text>
<text text-anchor="middle" x="424" y="-85.5" font-family="Helvetica,sans-Serif" font-size="10.00">/src/ai/tree/LUATreeNode.h</text>
</a>
</g>
</g>
<!-- Node2&#45;&gt;Node6 -->
<g id="edge7" class="edge"><title>Node2&#45;&gt;Node6</title>
<path fill="none" stroke="midnightblue" d="M321.908,-157.339C343.401,-145.268 368.916,-130.938 389.062,-119.623"/>
<polygon fill="midnightblue" stroke="midnightblue" points="319.976,-154.41 312.971,-162.359 323.404,-160.514 319.976,-154.41"/>
</g>
<!-- Node7 -->
<g id="node7" class="node"><title>Node7</title>
<g id="a_node7"><a xlink:href="LUASteering_8h.html" target="_top" xlink:title="/home/travis/build\l/mgerhardy/simpleai\l/src/ai/movement/LUASteering.h">
<polygon fill="white" stroke="black" points="510.5,-78.5 510.5,-119.5 669.5,-119.5 669.5,-78.5 510.5,-78.5"/>
<text text-anchor="start" x="518.5" y="-107.5" font-family="Helvetica,sans-Serif" font-size="10.00">/home/travis/build</text>
<text text-anchor="start" x="518.5" y="-96.5" font-family="Helvetica,sans-Serif" font-size="10.00">/mgerhardy/simpleai</text>
<text text-anchor="middle" x="590" y="-85.5" font-family="Helvetica,sans-Serif" font-size="10.00">/src/ai/movement/LUASteering.h</text>
</a>
</g>
</g>
<!-- Node2&#45;&gt;Node7 -->
<g id="edge9" class="edge"><title>Node2&#45;&gt;Node7</title>
<path fill="none" stroke="midnightblue" d="M336.425,-159.067C339.65,-157.987 342.856,-156.957 346,-156 354.082,-153.541 442.372,-133.407 510.448,-117.978"/>
<polygon fill="midnightblue" stroke="midnightblue" points="335.044,-155.841 326.745,-162.427 337.339,-162.454 335.044,-155.841"/>
</g>
<!-- Node3&#45;&gt;Node4 -->
<g id="edge3" class="edge"><title>Node3&#45;&gt;Node4</title>
<path fill="none" stroke="midnightblue" d="M141.271,-74.7481C168.847,-64.1096 201.155,-51.6458 227.44,-41.5056"/>
<polygon fill="midnightblue" stroke="midnightblue" points="139.802,-71.5633 131.732,-78.4281 142.322,-78.0942 139.802,-71.5633"/>
</g>
<!-- Node5&#45;&gt;Node4 -->
<g id="edge5" class="edge"><title>Node5&#45;&gt;Node4</title>
<path fill="none" stroke="midnightblue" d="M278,-68.2965C278,-59.3009 278,-49.6532 278,-41.5056"/>
<polygon fill="midnightblue" stroke="midnightblue" points="274.5,-68.4281 278,-78.4281 281.5,-68.4281 274.5,-68.4281"/>
</g>
<!-- Node6&#45;&gt;Node4 -->
<g id="edge8" class="edge"><title>Node6&#45;&gt;Node4</title>
<path fill="none" stroke="midnightblue" d="M377.448,-73.7675C357.435,-63.3498 334.356,-51.3358 315.471,-41.5056"/>
<polygon fill="midnightblue" stroke="midnightblue" points="375.915,-76.9153 386.401,-78.4281 379.147,-70.7061 375.915,-76.9153"/>
</g>
<!-- Node7&#45;&gt;Node4 -->
<g id="edge10" class="edge"><title>Node7&#45;&gt;Node4</title>
<path fill="none" stroke="midnightblue" d="M500.588,-76.2202C448.699,-63.5804 384.709,-47.9933 338.677,-36.7803"/>
<polygon fill="midnightblue" stroke="midnightblue" points="499.918,-79.6591 510.462,-78.6253 501.574,-72.858 499.918,-79.6591"/>
</g>
</g>
</svg>
        <g id="navigator" transform="translate(0 0)" fill="#404254">
                <rect fill="#f2f5e9" fill-opacity="0.5" stroke="#606060" stroke-width=".5" x="0" y="0" width="60" height="60"/>
                <use id="zoomplus" xlink:href="#zoomPlus" x="17" y="9" onmousedown="handleZoom(evt,'in')"/>
                <use id="zoomminus" xlink:href="#zoomMin" x="42" y="9" onmousedown="handleZoom(evt,'out')"/>
                <use id="reset" xlink:href="#resetDef" x="30" y="36" onmousedown="handleReset()"/>
                <g id="arrowUp" xlink:href="#dirArrow" transform="translate(30 24)" onmousedown="handlePan(0,-1)">
                  <use xlink:href="#rim" fill="#404040">
                        <set attributeName="fill" to="#808080" begin="arrowUp.mouseover" end="arrowUp.mouseout"/>
                  </use>
                  <path fill="none" stroke="white" stroke-width="1.5" d="M0,-3.0v7 M-2.5,-0.5L0,-3.0L2.5,-0.5"/>
                </g>
                <g id="arrowRight" xlink:href="#dirArrow" transform="rotate(90) translate(36 -43)" onmousedown="handlePan(1,0)">
                  <use xlink:href="#rim" fill="#404040">
                        <set attributeName="fill" to="#808080" begin="arrowRight.mouseover" end="arrowRight.mouseout"/>
                  </use>
                  <path fill="none" stroke="white" stroke-width="1.5" d="M0,-3.0v7 M-2.5,-0.5L0,-3.0L2.5,-0.5"/>
                </g>
                <g id="arrowDown" xlink:href="#dirArrow" transform="rotate(180) translate(-30 -48)" onmousedown="handlePan(0,1)">
                  <use xlink:href="#rim" fill="#404040">
                        <set attributeName="fill" to="#808080" begin="arrowDown.mouseover" end="arrowDown.mouseout"/>
                  </use>
                  <path fill="none" stroke="white" stroke-width="1.5" d="M0,-3.0v7 M-2.5,-0.5L0,-3.0L2.5,-0.5"/>
                </g>
                <g id="arrowLeft" xlink:href="#dirArrow" transform="rotate(270) translate(-36 17)" onmousedown="handlePan(-1,0)">
                  <use xlink:href="#rim" fill="#404040">
                        <set attributeName="fill" to="#808080" begin="arrowLeft.mouseover" end="arrowLeft.mouseout"/>
                  </use>
                  <path fill="none" stroke="white" stroke-width="1.5" d="M0,-3.0v7 M-2.5,-0.5L0,-3.0L2.5,-0.5"/>
                </g>
        </g>
        <svg viewBox="0 0 15 15" width="100%" height="30px" preserveAspectRatio="xMaxYMin meet">
         <g id="arrow_out" transform="scale(0.3 0.3)">
          <a xlink:href="LUA_8h__dep__incl_org.svg" target="_base">
           <rect id="button" ry="5" rx="5" y="6" x="6" height="38" width="38"
                fill="#f2f5e9" fill-opacity="0.5" stroke="#606060" stroke-width="1.0"/>
           <path id="arrow"
             d="M 11.500037,31.436501 C 11.940474,20.09759 22.043105,11.32322 32.158766,21.979434 L 37.068811,17.246167 C 37.068811,17.246167 37.088388,32 37.088388,32 L 22.160133,31.978069 C 22.160133,31.978069 26.997745,27.140456 26.997745,27.140456 C 18.528582,18.264221 13.291696,25.230495 11.500037,31.436501 z"
             style="fill:#404040;"/>
          </a>
         </g>
        </svg>
</svg>
