<?xml version="1.0" encoding="UTF-8" standalone="no"?>
<!DOCTYPE svg PUBLIC "-//W3C//DTD SVG 1.1//EN"
 "http://www.w3.org/Graphics/SVG/1.1/DTD/svg11.dtd">
<!-- Generated by graphviz version 2.36.0 (20140111.2315)
 -->
<!-- Title: /home/travis/build/mgerhardy/simpleai/src/ai/conditions/LUACondition.h Pages: 1 -->
<svg width="878pt" height="386pt"
 viewBox="0.00 0.00 877.97 386.00" xmlns="http://www.w3.org/2000/svg" xmlns:xlink="http://www.w3.org/1999/xlink">
<g id="graph0" class="graph" transform="scale(1 1) rotate(0) translate(4 382)">
<title>/home/travis/build/mgerhardy/simpleai/src/ai/conditions/LUACondition.h</title>
<polygon fill="white" stroke="none" points="-4,4 -4,-382 873.967,-382 873.967,4 -4,4"/>
<!-- Node1 -->
<g id="node1" class="node"><title>Node1</title>
<polygon fill="#bfbfbf" stroke="black" points="421.5,-336.5 421.5,-377.5 584.5,-377.5 584.5,-336.5 421.5,-336.5"/>
<text text-anchor="start" x="429.5" y="-365.5" font-family="Helvetica,sans-Serif" font-size="10.00">/home/travis/build</text>
<text text-anchor="start" x="429.5" y="-354.5" font-family="Helvetica,sans-Serif" font-size="10.00">/mgerhardy/simpleai</text>
<text text-anchor="middle" x="503" y="-343.5" font-family="Helvetica,sans-Serif" font-size="10.00">/src/ai/conditions/LUACondition.h</text>
</g>
<!-- Node2 -->
<g id="node2" class="node"><title>Node2</title>
<g id="a_node2"><a xlink:href="ICondition_8h.html" target="_top" xlink:title="Condition related stuff. ">
<polygon fill="white" stroke="black" points="595.5,-280.5 595.5,-299.5 664.5,-299.5 664.5,-280.5 595.5,-280.5"/>
<text text-anchor="middle" x="630" y="-287.5" font-family="Helvetica,sans-Serif" font-size="10.00">ICondition.h</text>
</a>
</g>
</g>
<!-- Node1&#45;&gt;Node2 -->
<g id="edge1" class="edge"><title>Node1&#45;&gt;Node2</title>
<path fill="none" stroke="midnightblue" d="M541.104,-336.498C561.325,-326.149 585.658,-313.695 603.751,-304.435"/>
<polygon fill="midnightblue" stroke="midnightblue" points="605.787,-307.324 613.094,-299.652 602.598,-301.093 605.787,-307.324"/>
</g>
<!-- Node26 -->
<g id="node26" class="node"><title>Node26</title>
<g id="a_node26"><a xlink:href="LUAFunctions_8h_source.html" target="_top" xlink:title="LUAFunctions.h">
<polygon fill="white" stroke="black" points="332.5,-280.5 332.5,-299.5 419.5,-299.5 419.5,-280.5 332.5,-280.5"/>
<text text-anchor="middle" x="376" y="-287.5" font-family="Helvetica,sans-Serif" font-size="10.00">LUAFunctions.h</text>
</a>
</g>
</g>
<!-- Node1&#45;&gt;Node26 -->
<g id="edge34" class="edge"><title>Node1&#45;&gt;Node26</title>
<path fill="none" stroke="midnightblue" d="M464.896,-336.498C444.675,-326.149 420.342,-313.695 402.249,-304.435"/>
<polygon fill="midnightblue" stroke="midnightblue" points="403.402,-301.093 392.906,-299.652 400.213,-307.324 403.402,-301.093"/>
</g>
<!-- Node3 -->
<g id="node3" class="node"><title>Node3</title>
<polygon fill="white" stroke="#bfbfbf" points="431.5,-56.5 431.5,-75.5 472.5,-75.5 472.5,-56.5 431.5,-56.5"/>
<text text-anchor="middle" x="452" y="-63.5" font-family="Helvetica,sans-Serif" font-size="10.00">string</text>
</g>
<!-- Node2&#45;&gt;Node3 -->
<g id="edge2" class="edge"><title>Node2&#45;&gt;Node3</title>
<path fill="none" stroke="midnightblue" d="M664.871,-287.607C724.214,-284.424 840.874,-274.37 866,-244 871.666,-237.151 870.535,-231.645 866,-224 784.932,-87.3308 564.84,-69.0094 483.107,-67.0202"/>
<polygon fill="midnightblue" stroke="midnightblue" points="483.02,-63.5183 472.959,-66.8418 482.896,-70.5172 483.02,-63.5183"/>
</g>
<!-- Node4 -->
<g id="node4" class="node"><title>Node4</title>
<polygon fill="white" stroke="#bfbfbf" points="609,-112.5 609,-131.5 653,-131.5 653,-112.5 609,-112.5"/>
<text text-anchor="middle" x="631" y="-119.5" font-family="Helvetica,sans-Serif" font-size="10.00">vector</text>
</g>
<!-- Node2&#45;&gt;Node4 -->
<g id="edge3" class="edge"><title>Node2&#45;&gt;Node4</title>
<path fill="none" stroke="midnightblue" d="M664.518,-287.273C694.476,-283.729 736.212,-273.42 757,-244 789.27,-198.33 709.691,-155.677 662.641,-135.388"/>
<polygon fill="midnightblue" stroke="midnightblue" points="663.722,-132.046 653.147,-131.404 661.014,-138.501 663.722,-132.046"/>
</g>
<!-- Node5 -->
<g id="node5" class="node"><title>Node5</title>
<polygon fill="white" stroke="#bfbfbf" points="805,-224.5 805,-243.5 857,-243.5 857,-224.5 805,-224.5"/>
<text text-anchor="middle" x="831" y="-231.5" font-family="Helvetica,sans-Serif" font-size="10.00">sstream</text>
</g>
<!-- Node2&#45;&gt;Node5 -->
<g id="edge4" class="edge"><title>Node2&#45;&gt;Node5</title>
<path fill="none" stroke="midnightblue" d="M661.849,-280.444C697.972,-270.739 756.76,-254.945 794.648,-244.766"/>
<polygon fill="midnightblue" stroke="midnightblue" points="795.995,-248.028 804.745,-242.054 794.179,-241.268 795.995,-248.028"/>
</g>
<!-- Node6 -->
<g id="node6" class="node"><title>Node6</title>
<polygon fill="white" stroke="#bfbfbf" points="539,-112.5 539,-131.5 591,-131.5 591,-112.5 539,-112.5"/>
<text text-anchor="middle" x="565" y="-119.5" font-family="Helvetica,sans-Serif" font-size="10.00">memory</text>
</g>
<!-- Node2&#45;&gt;Node6 -->
<g id="edge5" class="edge"><title>Node2&#45;&gt;Node6</title>
<path fill="none" stroke="midnightblue" d="M622.924,-280.181C616.212,-271.443 606.249,-257.455 600,-244 583.937,-209.414 573.517,-165.801 568.506,-141.508"/>
<polygon fill="midnightblue" stroke="midnightblue" points="571.907,-140.662 566.531,-131.532 565.04,-142.022 571.907,-140.662"/>
</g>
<!-- Node7 -->
<g id="node7" class="node"><title>Node7</title>
<g id="a_node7"><a xlink:href="MemoryAllocator_8h.html" target="_top" xlink:title="common/MemoryAllocator.h">
<polygon fill="white" stroke="black" points="609.5,-224.5 609.5,-243.5 748.5,-243.5 748.5,-224.5 609.5,-224.5"/>
<text text-anchor="middle" x="679" y="-231.5" font-family="Helvetica,sans-Serif" font-size="10.00">common/MemoryAllocator.h</text>
</a>
</g>
</g>
<!-- Node2&#45;&gt;Node7 -->
<g id="edge6" class="edge"><title>Node2&#45;&gt;Node7</title>
<path fill="none" stroke="midnightblue" d="M638.091,-280.083C645.155,-272.298 655.588,-260.801 664.149,-251.367"/>
<polygon fill="midnightblue" stroke="midnightblue" points="666.931,-253.509 671.059,-243.751 661.747,-248.805 666.931,-253.509"/>
</g>
<!-- Node8 -->
<g id="node8" class="node"><title>Node8</title>
<g id="a_node8"><a xlink:href="Thread_8h.html" target="_top" xlink:title="common/Thread.h">
<polygon fill="white" stroke="black" points="179.5,-224.5 179.5,-243.5 274.5,-243.5 274.5,-224.5 179.5,-224.5"/>
<text text-anchor="middle" x="227" y="-231.5" font-family="Helvetica,sans-Serif" font-size="10.00">common/Thread.h</text>
</a>
</g>
</g>
<!-- Node2&#45;&gt;Node8 -->
<g id="edge8" class="edge"><title>Node2&#45;&gt;Node8</title>
<path fill="none" stroke="midnightblue" d="M595.292,-284.349C525.941,-275.057 369.627,-254.111 284.645,-242.724"/>
<polygon fill="midnightblue" stroke="midnightblue" points="285.022,-239.243 274.646,-241.384 284.092,-246.181 285.022,-239.243"/>
</g>
<!-- Node20 -->
<g id="node20" class="node"><title>Node20</title>
<g id="a_node20"><a xlink:href="AIFactories_8h.html" target="_top" xlink:title="AIFactories.h">
<polygon fill="white" stroke="black" points="477.5,-224.5 477.5,-243.5 552.5,-243.5 552.5,-224.5 477.5,-224.5"/>
<text text-anchor="middle" x="515" y="-231.5" font-family="Helvetica,sans-Serif" font-size="10.00">AIFactories.h</text>
</a>
</g>
</g>
<!-- Node2&#45;&gt;Node20 -->
<g id="edge22" class="edge"><title>Node2&#45;&gt;Node20</title>
<path fill="none" stroke="midnightblue" d="M611.778,-280.444C593.104,-271.675 563.844,-257.935 542.383,-247.858"/>
<polygon fill="midnightblue" stroke="midnightblue" points="543.676,-244.599 533.137,-243.516 540.701,-250.935 543.676,-244.599"/>
</g>
<!-- Node7&#45;&gt;Node6 -->
<g id="edge7" class="edge"><title>Node7&#45;&gt;Node6</title>
<path fill="none" stroke="midnightblue" d="M674.867,-224.148C668.299,-210.774 654.42,-185.16 637,-168 623.992,-155.187 606.716,-144.238 592.347,-136.349"/>
<polygon fill="midnightblue" stroke="midnightblue" points="593.875,-133.198 583.398,-131.618 590.603,-139.386 593.875,-133.198"/>
</g>
<!-- Node9 -->
<g id="node9" class="node"><title>Node9</title>
<g id="a_node9"><a xlink:href="Types_8h.html" target="_top" xlink:title="Types.h">
<polygon fill="white" stroke="black" points="140,-112.5 140,-131.5 192,-131.5 192,-112.5 140,-112.5"/>
<text text-anchor="middle" x="166" y="-119.5" font-family="Helvetica,sans-Serif" font-size="10.00">Types.h</text>
</a>
</g>
</g>
<!-- Node8&#45;&gt;Node9 -->
<g id="edge9" class="edge"><title>Node8&#45;&gt;Node9</title>
<path fill="none" stroke="midnightblue" d="M220.361,-224.326C213.744,-215.47 203.513,-201.189 196,-188 187.262,-172.662 178.986,-154.335 173.348,-141.058"/>
<polygon fill="midnightblue" stroke="midnightblue" points="176.506,-139.535 169.434,-131.645 170.042,-142.223 176.506,-139.535"/>
</g>
<!-- Node17 -->
<g id="node17" class="node"><title>Node17</title>
<polygon fill="white" stroke="#bfbfbf" points="205,-168.5 205,-187.5 249,-187.5 249,-168.5 205,-168.5"/>
<text text-anchor="middle" x="227" y="-175.5" font-family="Helvetica,sans-Serif" font-size="10.00">thread</text>
</g>
<!-- Node8&#45;&gt;Node17 -->
<g id="edge19" class="edge"><title>Node8&#45;&gt;Node17</title>
<path fill="none" stroke="midnightblue" d="M227,-224.083C227,-217.006 227,-206.861 227,-197.986"/>
<polygon fill="midnightblue" stroke="midnightblue" points="230.5,-197.751 227,-187.751 223.5,-197.751 230.5,-197.751"/>
</g>
<!-- Node18 -->
<g id="node18" class="node"><title>Node18</title>
<polygon fill="white" stroke="#bfbfbf" points="267,-168.5 267,-187.5 311,-187.5 311,-168.5 267,-168.5"/>
<text text-anchor="middle" x="289" y="-175.5" font-family="Helvetica,sans-Serif" font-size="10.00">mutex</text>
</g>
<!-- Node8&#45;&gt;Node18 -->
<g id="edge20" class="edge"><title>Node8&#45;&gt;Node18</title>
<path fill="none" stroke="midnightblue" d="M236.961,-224.324C246.127,-216.341 259.937,-204.313 271.028,-194.653"/>
<polygon fill="midnightblue" stroke="midnightblue" points="273.615,-197.041 278.857,-187.834 269.018,-191.762 273.615,-197.041"/>
</g>
<!-- Node19 -->
<g id="node19" class="node"><title>Node19</title>
<polygon fill="white" stroke="#bfbfbf" points="103,-168.5 103,-187.5 149,-187.5 149,-168.5 103,-168.5"/>
<text text-anchor="middle" x="126" y="-175.5" font-family="Helvetica,sans-Serif" font-size="10.00">atomic</text>
</g>
<!-- Node8&#45;&gt;Node19 -->
<g id="edge21" class="edge"><title>Node8&#45;&gt;Node19</title>
<path fill="none" stroke="midnightblue" d="M210.773,-224.324C194.649,-215.703 169.7,-202.364 151.036,-192.386"/>
<polygon fill="midnightblue" stroke="midnightblue" points="152.656,-189.283 142.187,-187.655 149.356,-195.456 152.656,-189.283"/>
</g>
<!-- Node9&#45;&gt;Node3 -->
<g id="edge14" class="edge"><title>Node9&#45;&gt;Node3</title>
<path fill="none" stroke="midnightblue" d="M192.217,-114.942C196.804,-113.928 201.536,-112.91 206,-112 283.159,-96.2691 374.466,-80.2406 421.144,-72.2324"/>
<polygon fill="midnightblue" stroke="midnightblue" points="421.944,-75.6463 431.211,-70.5109 420.764,-68.7465 421.944,-75.6463"/>
</g>
<!-- Node10 -->
<g id="node10" class="node"><title>Node10</title>
<g id="a_node10"><a xlink:href="Log_8h.html" target="_top" xlink:title="Log.h">
<polygon fill="white" stroke="black" points="65.5,-56.5 65.5,-75.5 106.5,-75.5 106.5,-56.5 65.5,-56.5"/>
<text text-anchor="middle" x="86" y="-63.5" font-family="Helvetica,sans-Serif" font-size="10.00">Log.h</text>
</a>
</g>
</g>
<!-- Node9&#45;&gt;Node10 -->
<g id="edge10" class="edge"><title>Node9&#45;&gt;Node10</title>
<path fill="none" stroke="midnightblue" d="M153.147,-112.324C140.784,-103.979 121.87,-91.2122 107.263,-81.3524"/>
<polygon fill="midnightblue" stroke="midnightblue" points="109.068,-78.3483 98.8215,-75.6545 105.152,-84.1503 109.068,-78.3483"/>
</g>
<!-- Node11 -->
<g id="node11" class="node"><title>Node11</title>
<polygon fill="white" stroke="#bfbfbf" points="2,-0.5 2,-19.5 48,-19.5 48,-0.5 2,-0.5"/>
<text text-anchor="middle" x="25" y="-7.5" font-family="Helvetica,sans-Serif" font-size="10.00">stdio.h</text>
</g>
<!-- Node9&#45;&gt;Node11 -->
<g id="edge17" class="edge"><title>Node9&#45;&gt;Node11</title>
<path fill="none" stroke="midnightblue" d="M139.936,-115.997C115.584,-110.132 79.5465,-98.2479 56,-76 42.6753,-63.4102 34.4447,-43.919 29.844,-29.5622"/>
<polygon fill="midnightblue" stroke="midnightblue" points="33.1552,-28.4134 27.0091,-19.7835 26.432,-30.3626 33.1552,-28.4134"/>
</g>
<!-- Node14 -->
<g id="node14" class="node"><title>Node14</title>
<polygon fill="white" stroke="#bfbfbf" points="124.5,-56.5 124.5,-75.5 207.5,-75.5 207.5,-56.5 124.5,-56.5"/>
<text text-anchor="middle" x="166" y="-63.5" font-family="Helvetica,sans-Serif" font-size="10.00">unordered_map</text>
</g>
<!-- Node9&#45;&gt;Node14 -->
<g id="edge15" class="edge"><title>Node9&#45;&gt;Node14</title>
<path fill="none" stroke="midnightblue" d="M166,-112.083C166,-105.006 166,-94.8611 166,-85.9865"/>
<polygon fill="midnightblue" stroke="midnightblue" points="169.5,-85.751 166,-75.7511 162.5,-85.7511 169.5,-85.751"/>
</g>
<!-- Node15 -->
<g id="node15" class="node"><title>Node15</title>
<polygon fill="white" stroke="#bfbfbf" points="226,-56.5 226,-75.5 278,-75.5 278,-56.5 226,-56.5"/>
<text text-anchor="middle" x="252" y="-63.5" font-family="Helvetica,sans-Serif" font-size="10.00">assert.h</text>
</g>
<!-- Node9&#45;&gt;Node15 -->
<g id="edge16" class="edge"><title>Node9&#45;&gt;Node15</title>
<path fill="none" stroke="midnightblue" d="M179.817,-112.324C193.233,-103.9 213.824,-90.9709 229.586,-81.0741"/>
<polygon fill="midnightblue" stroke="midnightblue" points="231.609,-83.9364 238.217,-75.6545 227.887,-78.0081 231.609,-83.9364"/>
</g>
<!-- Node16 -->
<g id="node16" class="node"><title>Node16</title>
<polygon fill="white" stroke="#bfbfbf" points="296.5,-56.5 296.5,-75.5 355.5,-75.5 355.5,-56.5 296.5,-56.5"/>
<text text-anchor="middle" x="326" y="-63.5" font-family="Helvetica,sans-Serif" font-size="10.00">inttypes.h</text>
</g>
<!-- Node9&#45;&gt;Node16 -->
<g id="edge18" class="edge"><title>Node9&#45;&gt;Node16</title>
<path fill="none" stroke="midnightblue" d="M191.352,-112.444C218.269,-103.359 260.996,-88.9388 291.087,-78.7831"/>
<polygon fill="midnightblue" stroke="midnightblue" points="292.41,-82.0305 300.766,-75.5164 290.172,-75.3981 292.41,-82.0305"/>
</g>
<!-- Node10&#45;&gt;Node11 -->
<g id="edge11" class="edge"><title>Node10&#45;&gt;Node11</title>
<path fill="none" stroke="midnightblue" d="M76.1993,-56.324C67.1819,-48.3414 53.594,-36.3128 42.682,-26.6529"/>
<polygon fill="midnightblue" stroke="midnightblue" points="44.7866,-23.8416 34.979,-19.8339 40.1467,-29.083 44.7866,-23.8416"/>
</g>
<!-- Node12 -->
<g id="node12" class="node"><title>Node12</title>
<polygon fill="white" stroke="#bfbfbf" points="134,-0.5 134,-19.5 186,-19.5 186,-0.5 134,-0.5"/>
<text text-anchor="middle" x="160" y="-7.5" font-family="Helvetica,sans-Serif" font-size="10.00">stdarg.h</text>
</g>
<!-- Node10&#45;&gt;Node12 -->
<g id="edge12" class="edge"><title>Node10&#45;&gt;Node12</title>
<path fill="none" stroke="midnightblue" d="M97.8894,-56.324C109.15,-48.1066 126.287,-35.6017 139.709,-25.8069"/>
<polygon fill="midnightblue" stroke="midnightblue" points="141.88,-28.5559 147.894,-19.8339 137.753,-22.9014 141.88,-28.5559"/>
</g>
<!-- Node13 -->
<g id="node13" class="node"><title>Node13</title>
<polygon fill="white" stroke="#bfbfbf" points="66.5,-0.5 66.5,-19.5 115.5,-19.5 115.5,-0.5 66.5,-0.5"/>
<text text-anchor="middle" x="91" y="-7.5" font-family="Helvetica,sans-Serif" font-size="10.00">string.h</text>
</g>
<!-- Node10&#45;&gt;Node13 -->
<g id="edge13" class="edge"><title>Node10&#45;&gt;Node13</title>
<path fill="none" stroke="midnightblue" d="M86.8256,-56.083C87.4809,-49.0059 88.4203,-38.8611 89.242,-29.9865"/>
<polygon fill="midnightblue" stroke="midnightblue" points="92.7527,-30.0312 90.1897,-19.7511 85.7826,-29.3858 92.7527,-30.0312"/>
</g>
<!-- Node20&#45;&gt;Node4 -->
<g id="edge33" class="edge"><title>Node20&#45;&gt;Node4</title>
<path fill="none" stroke="midnightblue" d="M524.702,-224.5C534.862,-215.544 551.225,-200.969 565,-188 582.454,-171.567 601.959,-152.233 615.208,-138.948"/>
<polygon fill="midnightblue" stroke="midnightblue" points="618.007,-141.097 622.576,-131.538 613.043,-136.162 618.007,-141.097"/>
</g>
<!-- Node21 -->
<g id="node21" class="node"><title>Node21</title>
<g id="a_node21"><a xlink:href="IAIFactory_8h.html" target="_top" xlink:title="IAIFactory.h">
<polygon fill="white" stroke="black" points="485.5,-168.5 485.5,-187.5 556.5,-187.5 556.5,-168.5 485.5,-168.5"/>
<text text-anchor="middle" x="521" y="-175.5" font-family="Helvetica,sans-Serif" font-size="10.00">IAIFactory.h</text>
</a>
</g>
</g>
<!-- Node20&#45;&gt;Node21 -->
<g id="edge23" class="edge"><title>Node20&#45;&gt;Node21</title>
<path fill="none" stroke="midnightblue" d="M515.991,-224.083C516.786,-216.927 517.929,-206.635 518.923,-197.691"/>
<polygon fill="midnightblue" stroke="midnightblue" points="522.402,-198.076 520.028,-187.751 515.445,-197.303 522.402,-198.076"/>
</g>
<!-- Node23 -->
<g id="node23" class="node"><title>Node23</title>
<g id="a_node23"><a xlink:href="IFactoryRegistry_8h.html" target="_top" xlink:title="common/IFactoryRegistry.h">
<polygon fill="white" stroke="black" points="329,-168.5 329,-187.5 467,-187.5 467,-168.5 329,-168.5"/>
<text text-anchor="middle" x="398" y="-175.5" font-family="Helvetica,sans-Serif" font-size="10.00">common/IFactoryRegistry.h</text>
</a>
</g>
</g>
<!-- Node20&#45;&gt;Node23 -->
<g id="edge28" class="edge"><title>Node20&#45;&gt;Node23</title>
<path fill="none" stroke="midnightblue" d="M496.461,-224.444C477.377,-215.636 447.425,-201.812 425.564,-191.722"/>
<polygon fill="midnightblue" stroke="midnightblue" points="426.999,-188.529 416.452,-187.516 424.065,-194.885 426.999,-188.529"/>
</g>
<!-- Node21&#45;&gt;Node3 -->
<g id="edge25" class="edge"><title>Node21&#45;&gt;Node3</title>
<path fill="none" stroke="midnightblue" d="M517.846,-168.185C513.036,-155.295 503.134,-130.795 491,-112 484.356,-101.708 475.506,-91.3016 467.916,-83.0926"/>
<polygon fill="midnightblue" stroke="midnightblue" points="470.307,-80.5277 460.875,-75.7014 465.239,-85.356 470.307,-80.5277"/>
</g>
<!-- Node21&#45;&gt;Node4 -->
<g id="edge26" class="edge"><title>Node21&#45;&gt;Node4</title>
<path fill="none" stroke="midnightblue" d="M538.673,-168.324C556.394,-159.625 583.903,-146.12 604.288,-136.113"/>
<polygon fill="midnightblue" stroke="midnightblue" points="605.936,-139.203 613.37,-131.655 602.851,-132.919 605.936,-139.203"/>
</g>
<!-- Node21&#45;&gt;Node6 -->
<g id="edge24" class="edge"><title>Node21&#45;&gt;Node6</title>
<path fill="none" stroke="midnightblue" d="M528.266,-168.083C534.545,-160.377 543.788,-149.033 551.431,-139.653"/>
<polygon fill="midnightblue" stroke="midnightblue" points="554.266,-141.714 557.869,-131.751 548.839,-137.293 554.266,-141.714"/>
</g>
<!-- Node22 -->
<g id="node22" class="node"><title>Node22</title>
<polygon fill="white" stroke="#bfbfbf" points="453.5,-112.5 453.5,-131.5 482.5,-131.5 482.5,-112.5 453.5,-112.5"/>
<text text-anchor="middle" x="468" y="-119.5" font-family="Helvetica,sans-Serif" font-size="10.00">list</text>
</g>
<!-- Node21&#45;&gt;Node22 -->
<g id="edge27" class="edge"><title>Node21&#45;&gt;Node22</title>
<path fill="none" stroke="midnightblue" d="M512.248,-168.083C504.53,-160.22 493.095,-148.569 483.783,-139.081"/>
<polygon fill="midnightblue" stroke="midnightblue" points="486.092,-136.436 476.589,-131.751 481.096,-141.34 486.092,-136.436"/>
</g>
<!-- Node23&#45;&gt;Node6 -->
<g id="edge31" class="edge"><title>Node23&#45;&gt;Node6</title>
<path fill="none" stroke="midnightblue" d="M424.462,-168.444C452.761,-159.293 497.805,-144.728 529.245,-134.561"/>
<polygon fill="midnightblue" stroke="midnightblue" points="530.499,-137.835 538.937,-131.428 528.345,-131.174 530.499,-137.835"/>
</g>
<!-- Node23&#45;&gt;Node9 -->
<g id="edge29" class="edge"><title>Node23&#45;&gt;Node9</title>
<path fill="none" stroke="midnightblue" d="M361.239,-168.444C317.591,-158.284 245.273,-141.451 201.974,-131.373"/>
<polygon fill="midnightblue" stroke="midnightblue" points="202.682,-127.945 192.149,-129.086 201.095,-134.762 202.682,-127.945"/>
</g>
<!-- Node24 -->
<g id="node24" class="node"><title>Node24</title>
<g id="a_node24"><a xlink:href="NonCopyable_8h.html" target="_top" xlink:title="common/NonCopyable.h">
<polygon fill="white" stroke="black" points="248.5,-112.5 248.5,-131.5 373.5,-131.5 373.5,-112.5 248.5,-112.5"/>
<text text-anchor="middle" x="311" y="-119.5" font-family="Helvetica,sans-Serif" font-size="10.00">common/NonCopyable.h</text>
</a>
</g>
</g>
<!-- Node23&#45;&gt;Node24 -->
<g id="edge30" class="edge"><title>Node23&#45;&gt;Node24</title>
<path fill="none" stroke="midnightblue" d="M384.022,-168.324C370.45,-159.9 349.62,-146.971 333.675,-137.074"/>
<polygon fill="midnightblue" stroke="midnightblue" points="335.286,-133.954 324.943,-131.655 331.594,-139.902 335.286,-133.954"/>
</g>
<!-- Node25 -->
<g id="node25" class="node"><title>Node25</title>
<polygon fill="white" stroke="#bfbfbf" points="391.5,-112.5 391.5,-131.5 426.5,-131.5 426.5,-112.5 391.5,-112.5"/>
<text text-anchor="middle" x="409" y="-119.5" font-family="Helvetica,sans-Serif" font-size="10.00">map</text>
</g>
<!-- Node23&#45;&gt;Node25 -->
<g id="edge32" class="edge"><title>Node23&#45;&gt;Node25</title>
<path fill="none" stroke="midnightblue" d="M399.816,-168.083C401.274,-160.927 403.371,-150.635 405.193,-141.691"/>
<polygon fill="midnightblue" stroke="midnightblue" points="408.651,-142.248 407.217,-131.751 401.792,-140.851 408.651,-142.248"/>
</g>
<!-- Node27 -->
<g id="node27" class="node"><title>Node27</title>
<g id="a_node27"><a xlink:href="LUA_8h.html" target="_top" xlink:title="common/LUA.h">
<polygon fill="white" stroke="black" points="-0.5,-168.5 -0.5,-187.5 84.5,-187.5 84.5,-168.5 -0.5,-168.5"/>
<text text-anchor="middle" x="42" y="-175.5" font-family="Helvetica,sans-Serif" font-size="10.00">common/LUA.h</text>
</a>
</g>
</g>
<!-- Node26&#45;&gt;Node27 -->
<g id="edge35" class="edge"><title>Node26&#45;&gt;Node27</title>
<path fill="none" stroke="midnightblue" d="M332.5,-282.805C290.181,-276.013 224.481,-263.424 170,-244 131.489,-230.27 89.7746,-207.446 64.7752,-192.821"/>
<polygon fill="midnightblue" stroke="midnightblue" points="66.4412,-189.74 56.0539,-187.653 62.8727,-195.762 66.4412,-189.74"/>
</g>
<!-- Node27&#45;&gt;Node3 -->
<g id="edge39" class="edge"><title>Node27&#45;&gt;Node3</title>
<path fill="none" stroke="midnightblue" d="M80.6523,-168.456C113.319,-160.672 161.039,-147.967 201,-132 218.723,-124.918 221.048,-118.479 239,-112 301.629,-89.398 378.927,-76.5935 421.048,-70.8053"/>
<polygon fill="midnightblue" stroke="midnightblue" points="421.764,-74.2408 431.215,-69.4513 420.84,-67.3021 421.764,-74.2408"/>
</g>
<!-- Node27&#45;&gt;Node9 -->
<g id="edge36" class="edge"><title>Node27&#45;&gt;Node9</title>
<path fill="none" stroke="midnightblue" d="M61.6482,-168.444C81.9645,-159.596 113.903,-145.687 137.098,-135.586"/>
<polygon fill="midnightblue" stroke="midnightblue" points="138.673,-138.718 146.444,-131.516 135.878,-132.3 138.673,-138.718"/>
</g>
<!-- Node27&#45;&gt;Node24 -->
<g id="edge37" class="edge"><title>Node27&#45;&gt;Node24</title>
<path fill="none" stroke="midnightblue" d="M84.6238,-168.444C131.747,-158.984 207.692,-143.738 258.459,-133.547"/>
<polygon fill="midnightblue" stroke="midnightblue" points="259.46,-136.916 268.576,-131.516 258.082,-130.053 259.46,-136.916"/>
</g>
<!-- Node27&#45;&gt;Node25 -->
<g id="edge40" class="edge"><title>Node27&#45;&gt;Node25</title>
<path fill="none" stroke="midnightblue" d="M84.5409,-169.469C87.739,-168.955 90.9189,-168.459 94,-168 218.349,-149.478 254.382,-159.969 381.314,-131.703"/>
<polygon fill="midnightblue" stroke="midnightblue" points="382.443,-135.036 391.423,-129.413 380.897,-128.209 382.443,-135.036"/>
</g>
<!-- Node28 -->
<g id="node28" class="node"><title>Node28</title>
<polygon fill="white" stroke="#bfbfbf" points="18,-112.5 18,-131.5 66,-131.5 66,-112.5 18,-112.5"/>
<text text-anchor="middle" x="42" y="-119.5" font-family="Helvetica,sans-Serif" font-size="10.00">lua.hpp</text>
</g>
<!-- Node27&#45;&gt;Node28 -->
<g id="edge38" class="edge"><title>Node27&#45;&gt;Node28</title>
<path fill="none" stroke="midnightblue" d="M42,-168.083C42,-161.006 42,-150.861 42,-141.986"/>
<polygon fill="midnightblue" stroke="midnightblue" points="45.5001,-141.751 42,-131.751 38.5001,-141.751 45.5001,-141.751"/>
</g>
</g>
</svg>
