<?xml version="1.0" encoding="UTF-8" standalone="no"?>
<!DOCTYPE svg PUBLIC "-//W3C//DTD SVG 1.1//EN"
 "http://www.w3.org/Graphics/SVG/1.1/DTD/svg11.dtd">
<!-- Generated by graphviz version 2.36.0 (20140111.2315)
 -->
<!-- Title: /home/travis/build/mgerhardy/simpleai/src/ai/conditions/LUACondition.h Pages: 1 -->
<!--zoomable 386 -->
<svg id="main" version="1.1" xmlns="http://www.w3.org/2000/svg" xmlns:xlink="http://www.w3.org/1999/xlink" xml:space="preserve" onload="init(evt)">
<style type="text/css"><![CDATA[
.edge:hover path { stroke: red; }
.edge:hover polygon { stroke: red; fill: red; }
]]></style>
<script type="text/javascript"><![CDATA[
var edges = document.getElementsByTagName('g');
if (edges && edges.length) {
  for (var i=0;i<edges.length;i++) {
    if (edges[i].id.substr(0,4)=='edge') {
      edges[i].setAttribute('class','edge');
    }
  }
}
]]></script>
        <defs>
                <circle id="rim" cx="0" cy="0" r="7"/>
                <circle id="rim2" cx="0" cy="0" r="3.5"/>
                <g id="zoomPlus">
                        <use xlink:href="#rim" fill="#404040">
                                <set attributeName="fill" to="#808080" begin="zoomplus.mouseover" end="zoomplus.mouseout"/>
                        </use>
                        <path d="M-4,0h8M0,-4v8" fill="none" stroke="white" stroke-width="1.5" pointer-events="none"/>
                </g>
                <g id="zoomMin">
                        <use xlink:href="#rim" fill="#404040">
                                <set attributeName="fill" to="#808080" begin="zoomminus.mouseover" end="zoomminus.mouseout"/>
                        </use>
                        <path d="M-4,0h8" fill="none" stroke="white" stroke-width="1.5" pointer-events="none"/>
                </g>
                <g id="dirArrow">
                        <path fill="none" stroke="white" stroke-width="1.5" d="M0,-3.0v7 M-2.5,-0.5L0,-3.0L2.5,-0.5"/>
                </g>
               <g id="resetDef">
                       <use xlink:href="#rim2" fill="#404040">
                               <set attributeName="fill" to="#808080" begin="reset.mouseover" end="reset.mouseout"/>
                       </use>
               </g>
        </defs>

<script type="text/javascript">
var viewWidth = 878;
var viewHeight = 386;
var sectionId = 'dynsection-0';
</script>
<script xlink:href="svgpan.js"/>
<svg id="graph" class="graph">
<g id="viewport">
<title>/home/travis/build/mgerhardy/simpleai/src/ai/conditions/LUACondition.h</title>
<polygon fill="white" stroke="none" points="-4,4 -4,-382 873.976,-382 873.976,4 -4,4"/>
<!-- Node1 -->
<g id="node1" class="node"><title>Node1</title>
<polygon fill="#bfbfbf" stroke="black" points="421.5,-336.5 421.5,-377.5 584.5,-377.5 584.5,-336.5 421.5,-336.5"/>
<text text-anchor="start" x="429.5" y="-365.5" font-family="Helvetica,sans-Serif" font-size="10.00">/home/travis/build</text>
<text text-anchor="start" x="429.5" y="-354.5" font-family="Helvetica,sans-Serif" font-size="10.00">/mgerhardy/simpleai</text>
<text text-anchor="middle" x="503" y="-343.5" font-family="Helvetica,sans-Serif" font-size="10.00">/src/ai/conditions/LUACondition.h</text>
</g>
<!-- Node2 -->
<g id="node2" class="node"><title>Node2</title>
<g id="a_node2"><a xlink:href="ICondition_8h.html" target="_top" xlink:title="Condition related stuff. ">
<polygon fill="white" stroke="black" points="595.5,-280.5 595.5,-299.5 664.5,-299.5 664.5,-280.5 595.5,-280.5"/>
<text text-anchor="middle" x="630" y="-287.5" font-family="Helvetica,sans-Serif" font-size="10.00">ICondition.h</text>
</a>
</g>
</g>
<!-- Node1&#45;&gt;Node2 -->
<g id="edge1" class="edge"><title>Node1&#45;&gt;Node2</title>
<path fill="none" stroke="midnightblue" d="M541.104,-336.498C561.325,-326.149 585.658,-313.695 603.751,-304.435"/>
<polygon fill="midnightblue" stroke="midnightblue" points="605.787,-307.324 613.094,-299.652 602.598,-301.093 605.787,-307.324"/>
</g>
<!-- Node25 -->
<g id="node25" class="node"><title>Node25</title>
<g id="a_node25"><a xlink:href="LUAFunctions_8h_source.html" target="_top" xlink:title="LUAFunctions.h">
<polygon fill="white" stroke="black" points="332.5,-280.5 332.5,-299.5 419.5,-299.5 419.5,-280.5 332.5,-280.5"/>
<text text-anchor="middle" x="376" y="-287.5" font-family="Helvetica,sans-Serif" font-size="10.00">LUAFunctions.h</text>
</a>
</g>
</g>
<!-- Node1&#45;&gt;Node25 -->
<g id="edge33" class="edge"><title>Node1&#45;&gt;Node25</title>
<path fill="none" stroke="midnightblue" d="M464.896,-336.498C444.675,-326.149 420.342,-313.695 402.249,-304.435"/>
<polygon fill="midnightblue" stroke="midnightblue" points="403.402,-301.093 392.906,-299.652 400.213,-307.324 403.402,-301.093"/>
</g>
<!-- Node3 -->
<g id="node3" class="node"><title>Node3</title>
<polygon fill="white" stroke="#bfbfbf" points="406.5,-56.5 406.5,-75.5 447.5,-75.5 447.5,-56.5 406.5,-56.5"/>
<text text-anchor="middle" x="427" y="-63.5" font-family="Helvetica,sans-Serif" font-size="10.00">string</text>
</g>
<!-- Node2&#45;&gt;Node3 -->
<g id="edge2" class="edge"><title>Node2&#45;&gt;Node3</title>
<path fill="none" stroke="midnightblue" d="M664.871,-287.607C724.214,-284.424 840.874,-274.37 866,-244 871.666,-237.151 870.573,-231.622 866,-224 779.138,-79.23 542.395,-66.1438 457.668,-66.2631"/>
<polygon fill="midnightblue" stroke="midnightblue" points="457.627,-62.7633 447.655,-66.3417 457.682,-69.763 457.627,-62.7633"/>
</g>
<!-- Node4 -->
<g id="node4" class="node"><title>Node4</title>
<polygon fill="white" stroke="#bfbfbf" points="604,-112.5 604,-131.5 648,-131.5 648,-112.5 604,-112.5"/>
<text text-anchor="middle" x="626" y="-119.5" font-family="Helvetica,sans-Serif" font-size="10.00">vector</text>
</g>
<!-- Node2&#45;&gt;Node4 -->
<g id="edge3" class="edge"><title>Node2&#45;&gt;Node4</title>
<path fill="none" stroke="midnightblue" d="M664.518,-287.273C694.476,-283.729 736.212,-273.42 757,-244 790.179,-197.044 706.285,-154.54 657.712,-134.738"/>
<polygon fill="midnightblue" stroke="midnightblue" points="658.811,-131.409 648.225,-130.975 656.23,-137.916 658.811,-131.409"/>
</g>
<!-- Node5 -->
<g id="node5" class="node"><title>Node5</title>
<polygon fill="white" stroke="#bfbfbf" points="805,-224.5 805,-243.5 857,-243.5 857,-224.5 805,-224.5"/>
<text text-anchor="middle" x="831" y="-231.5" font-family="Helvetica,sans-Serif" font-size="10.00">sstream</text>
</g>
<!-- Node2&#45;&gt;Node5 -->
<g id="edge4" class="edge"><title>Node2&#45;&gt;Node5</title>
<path fill="none" stroke="midnightblue" d="M661.849,-280.444C697.972,-270.739 756.76,-254.945 794.648,-244.766"/>
<polygon fill="midnightblue" stroke="midnightblue" points="795.995,-248.028 804.745,-242.054 794.179,-241.268 795.995,-248.028"/>
</g>
<!-- Node6 -->
<g id="node6" class="node"><title>Node6</title>
<polygon fill="white" stroke="#bfbfbf" points="534,-112.5 534,-131.5 586,-131.5 586,-112.5 534,-112.5"/>
<text text-anchor="middle" x="560" y="-119.5" font-family="Helvetica,sans-Serif" font-size="10.00">memory</text>
</g>
<!-- Node2&#45;&gt;Node6 -->
<g id="edge5" class="edge"><title>Node2&#45;&gt;Node6</title>
<path fill="none" stroke="midnightblue" d="M623.285,-280.459C616.657,-271.706 606.584,-257.504 600,-244 583.092,-209.32 570.658,-165.742 564.449,-141.48"/>
<polygon fill="midnightblue" stroke="midnightblue" points="567.782,-140.379 561.974,-131.518 560.989,-142.067 567.782,-140.379"/>
</g>
<!-- Node7 -->
<g id="node7" class="node"><title>Node7</title>
<g id="a_node7"><a xlink:href="MemoryAllocator_8h.html" target="_top" xlink:title="common/MemoryAllocator.h">
<polygon fill="white" stroke="black" points="609.5,-224.5 609.5,-243.5 748.5,-243.5 748.5,-224.5 609.5,-224.5"/>
<text text-anchor="middle" x="679" y="-231.5" font-family="Helvetica,sans-Serif" font-size="10.00">common/MemoryAllocator.h</text>
</a>
</g>
</g>
<!-- Node2&#45;&gt;Node7 -->
<g id="edge6" class="edge"><title>Node2&#45;&gt;Node7</title>
<path fill="none" stroke="midnightblue" d="M638.091,-280.083C645.155,-272.298 655.588,-260.801 664.149,-251.367"/>
<polygon fill="midnightblue" stroke="midnightblue" points="666.931,-253.509 671.059,-243.751 661.747,-248.805 666.931,-253.509"/>
</g>
<!-- Node8 -->
<g id="node8" class="node"><title>Node8</title>
<g id="a_node8"><a xlink:href="Thread_8h.html" target="_top" xlink:title="common/Thread.h">
<polygon fill="white" stroke="black" points="179.5,-224.5 179.5,-243.5 274.5,-243.5 274.5,-224.5 179.5,-224.5"/>
<text text-anchor="middle" x="227" y="-231.5" font-family="Helvetica,sans-Serif" font-size="10.00">common/Thread.h</text>
</a>
</g>
</g>
<!-- Node2&#45;&gt;Node8 -->
<g id="edge8" class="edge"><title>Node2&#45;&gt;Node8</title>
<path fill="none" stroke="midnightblue" d="M595.292,-284.349C525.941,-275.057 369.627,-254.111 284.645,-242.724"/>
<polygon fill="midnightblue" stroke="midnightblue" points="285.022,-239.243 274.646,-241.384 284.092,-246.181 285.022,-239.243"/>
</g>
<!-- Node19 -->
<g id="node19" class="node"><title>Node19</title>
<g id="a_node19"><a xlink:href="AIFactories_8h.html" target="_top" xlink:title="AIFactories.h">
<polygon fill="white" stroke="black" points="477.5,-224.5 477.5,-243.5 552.5,-243.5 552.5,-224.5 477.5,-224.5"/>
<text text-anchor="middle" x="515" y="-231.5" font-family="Helvetica,sans-Serif" font-size="10.00">AIFactories.h</text>
</a>
</g>
</g>
<!-- Node2&#45;&gt;Node19 -->
<g id="edge21" class="edge"><title>Node2&#45;&gt;Node19</title>
<path fill="none" stroke="midnightblue" d="M611.778,-280.444C593.104,-271.675 563.844,-257.935 542.383,-247.858"/>
<polygon fill="midnightblue" stroke="midnightblue" points="543.676,-244.599 533.137,-243.516 540.701,-250.935 543.676,-244.599"/>
</g>
<!-- Node7&#45;&gt;Node6 -->
<g id="edge7" class="edge"><title>Node7&#45;&gt;Node6</title>
<path fill="none" stroke="midnightblue" d="M674.931,-224.082C668.446,-210.623 654.673,-184.899 637,-168 623.099,-154.708 604.559,-143.72 589.155,-135.93"/>
<polygon fill="midnightblue" stroke="midnightblue" points="590.562,-132.723 580.038,-131.501 587.503,-139.019 590.562,-132.723"/>
</g>
<!-- Node9 -->
<g id="node9" class="node"><title>Node9</title>
<g id="a_node9"><a xlink:href="Types_8h.html" target="_top" xlink:title="Types.h">
<polygon fill="white" stroke="black" points="136,-112.5 136,-131.5 188,-131.5 188,-112.5 136,-112.5"/>
<text text-anchor="middle" x="162" y="-119.5" font-family="Helvetica,sans-Serif" font-size="10.00">Types.h</text>
</a>
</g>
</g>
<!-- Node8&#45;&gt;Node9 -->
<g id="edge9" class="edge"><title>Node8&#45;&gt;Node9</title>
<path fill="none" stroke="midnightblue" d="M220.498,-224.246C213.988,-215.327 203.838,-200.999 196,-188 186.66,-172.51 177.218,-154.2 170.663,-140.967"/>
<polygon fill="midnightblue" stroke="midnightblue" points="173.617,-139.041 166.081,-131.594 167.328,-142.115 173.617,-139.041"/>
</g>
<!-- Node16 -->
<g id="node16" class="node"><title>Node16</title>
<polygon fill="white" stroke="#bfbfbf" points="205,-168.5 205,-187.5 249,-187.5 249,-168.5 205,-168.5"/>
<text text-anchor="middle" x="227" y="-175.5" font-family="Helvetica,sans-Serif" font-size="10.00">thread</text>
</g>
<!-- Node8&#45;&gt;Node16 -->
<g id="edge18" class="edge"><title>Node8&#45;&gt;Node16</title>
<path fill="none" stroke="midnightblue" d="M227,-224.083C227,-217.006 227,-206.861 227,-197.986"/>
<polygon fill="midnightblue" stroke="midnightblue" points="230.5,-197.751 227,-187.751 223.5,-197.751 230.5,-197.751"/>
</g>
<!-- Node17 -->
<g id="node17" class="node"><title>Node17</title>
<polygon fill="white" stroke="#bfbfbf" points="267,-168.5 267,-187.5 311,-187.5 311,-168.5 267,-168.5"/>
<text text-anchor="middle" x="289" y="-175.5" font-family="Helvetica,sans-Serif" font-size="10.00">mutex</text>
</g>
<!-- Node8&#45;&gt;Node17 -->
<g id="edge19" class="edge"><title>Node8&#45;&gt;Node17</title>
<path fill="none" stroke="midnightblue" d="M236.961,-224.324C246.127,-216.341 259.937,-204.313 271.028,-194.653"/>
<polygon fill="midnightblue" stroke="midnightblue" points="273.615,-197.041 278.857,-187.834 269.018,-191.762 273.615,-197.041"/>
</g>
<!-- Node18 -->
<g id="node18" class="node"><title>Node18</title>
<polygon fill="white" stroke="#bfbfbf" points="103,-168.5 103,-187.5 149,-187.5 149,-168.5 103,-168.5"/>
<text text-anchor="middle" x="126" y="-175.5" font-family="Helvetica,sans-Serif" font-size="10.00">atomic</text>
</g>
<!-- Node8&#45;&gt;Node18 -->
<g id="edge20" class="edge"><title>Node8&#45;&gt;Node18</title>
<path fill="none" stroke="midnightblue" d="M210.773,-224.324C194.649,-215.703 169.7,-202.364 151.036,-192.386"/>
<polygon fill="midnightblue" stroke="midnightblue" points="152.656,-189.283 142.187,-187.655 149.356,-195.456 152.656,-189.283"/>
</g>
<!-- Node9&#45;&gt;Node3 -->
<g id="edge14" class="edge"><title>Node9&#45;&gt;Node3</title>
<path fill="none" stroke="midnightblue" d="M188.23,-115.004C192.816,-113.983 197.544,-112.947 202,-112 271.476,-97.2385 353.319,-81.2104 396.6,-72.8406"/>
<polygon fill="midnightblue" stroke="midnightblue" points="397.336,-76.2633 406.491,-70.9314 396.009,-69.3901 397.336,-76.2633"/>
</g>
<!-- Node10 -->
<g id="node10" class="node"><title>Node10</title>
<g id="a_node10"><a xlink:href="Log_8h.html" target="_top" xlink:title="Log.h">
<polygon fill="white" stroke="black" points="101.5,-56.5 101.5,-75.5 142.5,-75.5 142.5,-56.5 101.5,-56.5"/>
<text text-anchor="middle" x="122" y="-63.5" font-family="Helvetica,sans-Serif" font-size="10.00">Log.h</text>
</a>
</g>
</g>
<!-- Node9&#45;&gt;Node10 -->
<g id="edge10" class="edge"><title>Node9&#45;&gt;Node10</title>
<path fill="none" stroke="midnightblue" d="M155.395,-112.083C149.745,-104.455 141.455,-93.2645 134.549,-83.9408"/>
<polygon fill="midnightblue" stroke="midnightblue" points="137.247,-81.7034 128.482,-75.7511 131.622,-85.87 137.247,-81.7034"/>
</g>
<!-- Node11 -->
<g id="node11" class="node"><title>Node11</title>
<polygon fill="white" stroke="#bfbfbf" points="41.5,-0.5 41.5,-19.5 84.5,-19.5 84.5,-0.5 41.5,-0.5"/>
<text text-anchor="middle" x="63" y="-7.5" font-family="Helvetica,sans-Serif" font-size="10.00">cstdio</text>
</g>
<!-- Node9&#45;&gt;Node11 -->
<g id="edge17" class="edge"><title>Node9&#45;&gt;Node11</title>
<path fill="none" stroke="midnightblue" d="M142.574,-112.392C127.15,-104.727 105.93,-92.2215 92,-76 80.4388,-62.5372 72.7226,-43.724 68.1757,-29.7999"/>
<polygon fill="midnightblue" stroke="midnightblue" points="71.4241,-28.4476 65.1958,-19.8768 64.7199,-30.461 71.4241,-28.4476"/>
</g>
<!-- Node14 -->
<g id="node14" class="node"><title>Node14</title>
<polygon fill="white" stroke="#bfbfbf" points="160.5,-56.5 160.5,-75.5 243.5,-75.5 243.5,-56.5 160.5,-56.5"/>
<text text-anchor="middle" x="202" y="-63.5" font-family="Helvetica,sans-Serif" font-size="10.00">unordered_map</text>
</g>
<!-- Node9&#45;&gt;Node14 -->
<g id="edge15" class="edge"><title>Node9&#45;&gt;Node14</title>
<path fill="none" stroke="midnightblue" d="M168.605,-112.083C174.255,-104.455 182.545,-93.2645 189.451,-83.9408"/>
<polygon fill="midnightblue" stroke="midnightblue" points="192.378,-85.87 195.518,-75.7511 186.753,-81.7034 192.378,-85.87"/>
</g>
<!-- Node15 -->
<g id="node15" class="node"><title>Node15</title>
<polygon fill="white" stroke="#bfbfbf" points="261.5,-56.5 261.5,-75.5 310.5,-75.5 310.5,-56.5 261.5,-56.5"/>
<text text-anchor="middle" x="286" y="-63.5" font-family="Helvetica,sans-Serif" font-size="10.00">cassert</text>
</g>
<!-- Node9&#45;&gt;Node15 -->
<g id="edge16" class="edge"><title>Node9&#45;&gt;Node15</title>
<path fill="none" stroke="midnightblue" d="M181.648,-112.444C201.965,-103.596 233.903,-89.6875 257.098,-79.5865"/>
<polygon fill="midnightblue" stroke="midnightblue" points="258.673,-82.7181 266.444,-75.5164 255.878,-76.3002 258.673,-82.7181"/>
</g>
<!-- Node10&#45;&gt;Node11 -->
<g id="edge11" class="edge"><title>Node10&#45;&gt;Node11</title>
<path fill="none" stroke="midnightblue" d="M112.521,-56.324C103.799,-48.3414 90.6565,-36.3128 80.1022,-26.6529"/>
<polygon fill="midnightblue" stroke="midnightblue" points="82.3917,-24.0036 72.6519,-19.8339 77.6655,-29.1674 82.3917,-24.0036"/>
</g>
<!-- Node12 -->
<g id="node12" class="node"><title>Node12</title>
<polygon fill="white" stroke="#bfbfbf" points="167.5,-0.5 167.5,-19.5 216.5,-19.5 216.5,-0.5 167.5,-0.5"/>
<text text-anchor="middle" x="192" y="-7.5" font-family="Helvetica,sans-Serif" font-size="10.00">cstdarg</text>
</g>
<!-- Node10&#45;&gt;Node12 -->
<g id="edge12" class="edge"><title>Node10&#45;&gt;Node12</title>
<path fill="none" stroke="midnightblue" d="M133.247,-56.324C143.797,-48.1849 159.801,-35.8395 172.442,-26.0874"/>
<polygon fill="midnightblue" stroke="midnightblue" points="174.769,-28.7132 180.549,-19.8339 170.493,-23.1707 174.769,-28.7132"/>
</g>
<!-- Node13 -->
<g id="node13" class="node"><title>Node13</title>
<polygon fill="white" stroke="#bfbfbf" points="103,-0.5 103,-19.5 149,-19.5 149,-0.5 103,-0.5"/>
<text text-anchor="middle" x="126" y="-7.5" font-family="Helvetica,sans-Serif" font-size="10.00">cstring</text>
</g>
<!-- Node10&#45;&gt;Node13 -->
<g id="edge13" class="edge"><title>Node10&#45;&gt;Node13</title>
<path fill="none" stroke="midnightblue" d="M122.661,-56.083C123.185,-49.0059 123.936,-38.8611 124.594,-29.9865"/>
<polygon fill="midnightblue" stroke="midnightblue" points="128.103,-29.9823 125.352,-19.7511 121.123,-29.4652 128.103,-29.9823"/>
</g>
<!-- Node19&#45;&gt;Node4 -->
<g id="edge32" class="edge"><title>Node19&#45;&gt;Node4</title>
<path fill="none" stroke="midnightblue" d="M525.188,-224.277C535.456,-215.384 551.65,-201.074 565,-188 581.481,-171.859 599.451,-152.477 611.588,-139.101"/>
<polygon fill="midnightblue" stroke="midnightblue" points="614.227,-141.401 618.326,-131.631 609.029,-136.713 614.227,-141.401"/>
</g>
<!-- Node20 -->
<g id="node20" class="node"><title>Node20</title>
<g id="a_node20"><a xlink:href="IAIFactory_8h.html" target="_top" xlink:title="IAIFactory.h">
<polygon fill="white" stroke="black" points="485.5,-168.5 485.5,-187.5 556.5,-187.5 556.5,-168.5 485.5,-168.5"/>
<text text-anchor="middle" x="521" y="-175.5" font-family="Helvetica,sans-Serif" font-size="10.00">IAIFactory.h</text>
</a>
</g>
</g>
<!-- Node19&#45;&gt;Node20 -->
<g id="edge22" class="edge"><title>Node19&#45;&gt;Node20</title>
<path fill="none" stroke="midnightblue" d="M515.991,-224.083C516.786,-216.927 517.929,-206.635 518.923,-197.691"/>
<polygon fill="midnightblue" stroke="midnightblue" points="522.402,-198.076 520.028,-187.751 515.445,-197.303 522.402,-198.076"/>
</g>
<!-- Node22 -->
<g id="node22" class="node"><title>Node22</title>
<g id="a_node22"><a xlink:href="IFactoryRegistry_8h.html" target="_top" xlink:title="common/IFactoryRegistry.h">
<polygon fill="white" stroke="black" points="329,-168.5 329,-187.5 467,-187.5 467,-168.5 329,-168.5"/>
<text text-anchor="middle" x="398" y="-175.5" font-family="Helvetica,sans-Serif" font-size="10.00">common/IFactoryRegistry.h</text>
</a>
</g>
</g>
<!-- Node19&#45;&gt;Node22 -->
<g id="edge27" class="edge"><title>Node19&#45;&gt;Node22</title>
<path fill="none" stroke="midnightblue" d="M496.461,-224.444C477.377,-215.636 447.425,-201.812 425.564,-191.722"/>
<polygon fill="midnightblue" stroke="midnightblue" points="426.999,-188.529 416.452,-187.516 424.065,-194.885 426.999,-188.529"/>
</g>
<!-- Node20&#45;&gt;Node3 -->
<g id="edge24" class="edge"><title>Node20&#45;&gt;Node3</title>
<path fill="none" stroke="midnightblue" d="M517.713,-168.294C512.445,-155.11 501.144,-129.742 486,-112 475.736,-99.9758 461.755,-89.1389 449.979,-81.114"/>
<polygon fill="midnightblue" stroke="midnightblue" points="451.782,-78.1114 441.501,-75.5525 447.943,-83.9643 451.782,-78.1114"/>
</g>
<!-- Node20&#45;&gt;Node4 -->
<g id="edge25" class="edge"><title>Node20&#45;&gt;Node4</title>
<path fill="none" stroke="midnightblue" d="M537.87,-168.324C554.709,-159.664 580.807,-146.242 600.238,-136.249"/>
<polygon fill="midnightblue" stroke="midnightblue" points="601.88,-139.341 609.172,-131.655 598.678,-133.116 601.88,-139.341"/>
</g>
<!-- Node20&#45;&gt;Node6 -->
<g id="edge23" class="edge"><title>Node20&#45;&gt;Node6</title>
<path fill="none" stroke="midnightblue" d="M527.44,-168.083C532.949,-160.455 541.031,-149.264 547.765,-139.941"/>
<polygon fill="midnightblue" stroke="midnightblue" points="550.662,-141.907 553.68,-131.751 544.987,-137.809 550.662,-141.907"/>
</g>
<!-- Node21 -->
<g id="node21" class="node"><title>Node21</title>
<polygon fill="white" stroke="#bfbfbf" points="448.5,-112.5 448.5,-131.5 477.5,-131.5 477.5,-112.5 448.5,-112.5"/>
<text text-anchor="middle" x="463" y="-119.5" font-family="Helvetica,sans-Serif" font-size="10.00">list</text>
</g>
<!-- Node20&#45;&gt;Node21 -->
<g id="edge26" class="edge"><title>Node20&#45;&gt;Node21</title>
<path fill="none" stroke="midnightblue" d="M511.681,-168.324C503.107,-160.341 490.188,-148.313 479.812,-138.653"/>
<polygon fill="midnightblue" stroke="midnightblue" points="482.192,-136.086 472.488,-131.834 477.422,-141.21 482.192,-136.086"/>
</g>
<!-- Node22&#45;&gt;Node6 -->
<g id="edge30" class="edge"><title>Node22&#45;&gt;Node6</title>
<path fill="none" stroke="midnightblue" d="M423.669,-168.444C450.923,-159.359 494.184,-144.939 524.651,-134.783"/>
<polygon fill="midnightblue" stroke="midnightblue" points="526.071,-137.999 534.451,-131.516 523.857,-131.358 526.071,-137.999"/>
</g>
<!-- Node22&#45;&gt;Node9 -->
<g id="edge28" class="edge"><title>Node22&#45;&gt;Node9</title>
<path fill="none" stroke="midnightblue" d="M360.605,-168.444C316.085,-158.257 242.241,-141.36 198.237,-131.291"/>
<polygon fill="midnightblue" stroke="midnightblue" points="198.788,-127.827 188.259,-129.008 197.226,-134.651 198.788,-127.827"/>
</g>
<!-- Node23 -->
<g id="node23" class="node"><title>Node23</title>
<g id="a_node23"><a xlink:href="NonCopyable_8h.html" target="_top" xlink:title="common/NonCopyable.h">
<polygon fill="white" stroke="black" points="244.5,-112.5 244.5,-131.5 369.5,-131.5 369.5,-112.5 244.5,-112.5"/>
<text text-anchor="middle" x="307" y="-119.5" font-family="Helvetica,sans-Serif" font-size="10.00">common/NonCopyable.h</text>
</a>
</g>
</g>
<!-- Node22&#45;&gt;Node23 -->
<g id="edge29" class="edge"><title>Node22&#45;&gt;Node23</title>
<path fill="none" stroke="midnightblue" d="M383.379,-168.324C369.051,-159.822 346.987,-146.729 330.251,-136.797"/>
<polygon fill="midnightblue" stroke="midnightblue" points="331.97,-133.748 321.584,-131.655 328.398,-139.768 331.97,-133.748"/>
</g>
<!-- Node24 -->
<g id="node24" class="node"><title>Node24</title>
<polygon fill="white" stroke="#bfbfbf" points="387.5,-112.5 387.5,-131.5 422.5,-131.5 422.5,-112.5 387.5,-112.5"/>
<text text-anchor="middle" x="405" y="-119.5" font-family="Helvetica,sans-Serif" font-size="10.00">map</text>
</g>
<!-- Node22&#45;&gt;Node24 -->
<g id="edge31" class="edge"><title>Node22&#45;&gt;Node24</title>
<path fill="none" stroke="midnightblue" d="M399.156,-168.083C400.084,-160.927 401.418,-150.635 402.577,-141.691"/>
<polygon fill="midnightblue" stroke="midnightblue" points="406.051,-142.118 403.866,-131.751 399.109,-141.218 406.051,-142.118"/>
</g>
<!-- Node26 -->
<g id="node26" class="node"><title>Node26</title>
<g id="a_node26"><a xlink:href="LUA_8h.html" target="_top" xlink:title="common/LUA.h">
<polygon fill="white" stroke="black" points="-0.5,-168.5 -0.5,-187.5 84.5,-187.5 84.5,-168.5 -0.5,-168.5"/>
<text text-anchor="middle" x="42" y="-175.5" font-family="Helvetica,sans-Serif" font-size="10.00">common/LUA.h</text>
</a>
</g>
</g>
<!-- Node25&#45;&gt;Node26 -->
<g id="edge34" class="edge"><title>Node25&#45;&gt;Node26</title>
<path fill="none" stroke="midnightblue" d="M332.5,-282.805C290.181,-276.013 224.481,-263.424 170,-244 131.489,-230.27 89.7746,-207.446 64.7752,-192.821"/>
<polygon fill="midnightblue" stroke="midnightblue" points="66.4412,-189.74 56.0539,-187.653 62.8727,-195.762 66.4412,-189.74"/>
</g>
<!-- Node26&#45;&gt;Node3 -->
<g id="edge38" class="edge"><title>Node26&#45;&gt;Node3</title>
<path fill="none" stroke="midnightblue" d="M79.0335,-168.489C110.886,-160.644 157.762,-147.832 197,-132 214.699,-124.859 217.12,-118.676 235,-112 290.117,-91.4205 357.752,-78.1928 396.264,-71.7199"/>
<polygon fill="midnightblue" stroke="midnightblue" points="397.017,-75.1433 406.32,-70.0728 395.885,-68.2354 397.017,-75.1433"/>
</g>
<!-- Node26&#45;&gt;Node9 -->
<g id="edge35" class="edge"><title>Node26&#45;&gt;Node9</title>
<path fill="none" stroke="midnightblue" d="M61.0144,-168.444C80.5876,-159.636 111.308,-145.812 133.729,-135.722"/>
<polygon fill="midnightblue" stroke="midnightblue" points="135.392,-138.812 143.075,-131.516 132.519,-132.428 135.392,-138.812"/>
</g>
<!-- Node26&#45;&gt;Node23 -->
<g id="edge36" class="edge"><title>Node26&#45;&gt;Node23</title>
<path fill="none" stroke="midnightblue" d="M83.99,-168.444C130.412,-158.984 205.228,-143.738 255.24,-133.547"/>
<polygon fill="midnightblue" stroke="midnightblue" points="256.107,-136.943 265.206,-131.516 254.709,-130.084 256.107,-136.943"/>
</g>
<!-- Node26&#45;&gt;Node24 -->
<g id="edge39" class="edge"><title>Node26&#45;&gt;Node24</title>
<path fill="none" stroke="midnightblue" d="M84.5418,-169.476C87.7397,-168.959 90.9193,-168.462 94,-168 216.633,-149.625 252.153,-159.708 377.444,-131.678"/>
<polygon fill="midnightblue" stroke="midnightblue" points="378.447,-135.039 387.422,-129.409 376.895,-128.214 378.447,-135.039"/>
</g>
<!-- Node27 -->
<g id="node27" class="node"><title>Node27</title>
<polygon fill="white" stroke="#bfbfbf" points="18,-112.5 18,-131.5 66,-131.5 66,-112.5 18,-112.5"/>
<text text-anchor="middle" x="42" y="-119.5" font-family="Helvetica,sans-Serif" font-size="10.00">lua.hpp</text>
</g>
<!-- Node26&#45;&gt;Node27 -->
<g id="edge37" class="edge"><title>Node26&#45;&gt;Node27</title>
<path fill="none" stroke="midnightblue" d="M42,-168.083C42,-161.006 42,-150.861 42,-141.986"/>
<polygon fill="midnightblue" stroke="midnightblue" points="45.5001,-141.751 42,-131.751 38.5001,-141.751 45.5001,-141.751"/>
</g>
</g>
</svg>
        <g id="navigator" transform="translate(0 0)" fill="#404254">
                <rect fill="#f2f5e9" fill-opacity="0.5" stroke="#606060" stroke-width=".5" x="0" y="0" width="60" height="60"/>
                <use id="zoomplus" xlink:href="#zoomPlus" x="17" y="9" onmousedown="handleZoom(evt,'in')"/>
                <use id="zoomminus" xlink:href="#zoomMin" x="42" y="9" onmousedown="handleZoom(evt,'out')"/>
                <use id="reset" xlink:href="#resetDef" x="30" y="36" onmousedown="handleReset()"/>
                <g id="arrowUp" xlink:href="#dirArrow" transform="translate(30 24)" onmousedown="handlePan(0,-1)">
                  <use xlink:href="#rim" fill="#404040">
                        <set attributeName="fill" to="#808080" begin="arrowUp.mouseover" end="arrowUp.mouseout"/>
                  </use>
                  <path fill="none" stroke="white" stroke-width="1.5" d="M0,-3.0v7 M-2.5,-0.5L0,-3.0L2.5,-0.5"/>
                </g>
                <g id="arrowRight" xlink:href="#dirArrow" transform="rotate(90) translate(36 -43)" onmousedown="handlePan(1,0)">
                  <use xlink:href="#rim" fill="#404040">
                        <set attributeName="fill" to="#808080" begin="arrowRight.mouseover" end="arrowRight.mouseout"/>
                  </use>
                  <path fill="none" stroke="white" stroke-width="1.5" d="M0,-3.0v7 M-2.5,-0.5L0,-3.0L2.5,-0.5"/>
                </g>
                <g id="arrowDown" xlink:href="#dirArrow" transform="rotate(180) translate(-30 -48)" onmousedown="handlePan(0,1)">
                  <use xlink:href="#rim" fill="#404040">
                        <set attributeName="fill" to="#808080" begin="arrowDown.mouseover" end="arrowDown.mouseout"/>
                  </use>
                  <path fill="none" stroke="white" stroke-width="1.5" d="M0,-3.0v7 M-2.5,-0.5L0,-3.0L2.5,-0.5"/>
                </g>
                <g id="arrowLeft" xlink:href="#dirArrow" transform="rotate(270) translate(-36 17)" onmousedown="handlePan(-1,0)">
                  <use xlink:href="#rim" fill="#404040">
                        <set attributeName="fill" to="#808080" begin="arrowLeft.mouseover" end="arrowLeft.mouseout"/>
                  </use>
                  <path fill="none" stroke="white" stroke-width="1.5" d="M0,-3.0v7 M-2.5,-0.5L0,-3.0L2.5,-0.5"/>
                </g>
        </g>
        <svg viewBox="0 0 15 15" width="100%" height="30px" preserveAspectRatio="xMaxYMin meet">
         <g id="arrow_out" transform="scale(0.3 0.3)">
          <a xlink:href="LUACondition_8h__incl_org.svg" target="_base">
           <rect id="button" ry="5" rx="5" y="6" x="6" height="38" width="38"
                fill="#f2f5e9" fill-opacity="0.5" stroke="#606060" stroke-width="1.0"/>
           <path id="arrow"
             d="M 11.500037,31.436501 C 11.940474,20.09759 22.043105,11.32322 32.158766,21.979434 L 37.068811,17.246167 C 37.068811,17.246167 37.088388,32 37.088388,32 L 22.160133,31.978069 C 22.160133,31.978069 26.997745,27.140456 26.997745,27.140456 C 18.528582,18.264221 13.291696,25.230495 11.500037,31.436501 z"
             style="fill:#404040;"/>
          </a>
         </g>
        </svg>
</svg>
