<?xml version="1.0" encoding="UTF-8" standalone="no"?>
<!DOCTYPE svg PUBLIC "-//W3C//DTD SVG 1.1//EN"
 "http://www.w3.org/Graphics/SVG/1.1/DTD/svg11.dtd">
<!-- Generated by graphviz version 2.36.0 (20140111.2315)
 -->
<!-- Title: /home/travis/build/mgerhardy/simpleai/src/ai/common/MoveVector.h Pages: 1 -->
<svg width="1853pt" height="776pt"
 viewBox="0.00 0.00 1853.00 776.00" xmlns="http://www.w3.org/2000/svg" xmlns:xlink="http://www.w3.org/1999/xlink">
<g id="graph0" class="graph" transform="scale(1 1) rotate(0) translate(4 772)">
<title>/home/travis/build/mgerhardy/simpleai/src/ai/common/MoveVector.h</title>
<polygon fill="white" stroke="none" points="-4,4 -4,-772 1849,-772 1849,4 -4,4"/>
<!-- Node1 -->
<g id="node1" class="node"><title>Node1</title>
<polygon fill="#bfbfbf" stroke="black" points="1253,-726.5 1253,-767.5 1401,-767.5 1401,-726.5 1253,-726.5"/>
<text text-anchor="start" x="1261" y="-755.5" font-family="Helvetica,sans-Serif" font-size="10.00">/home/travis/build</text>
<text text-anchor="start" x="1261" y="-744.5" font-family="Helvetica,sans-Serif" font-size="10.00">/mgerhardy/simpleai</text>
<text text-anchor="middle" x="1327" y="-733.5" font-family="Helvetica,sans-Serif" font-size="10.00">/src/ai/common/MoveVector.h</text>
</g>
<!-- Node2 -->
<g id="node2" class="node"><title>Node2</title>
<g id="a_node2"><a xlink:href="Steering_8h.html" target="_top" xlink:title="Defines some basic movement algorithms like Wandering, Seeking and Fleeing. ">
<polygon fill="white" stroke="black" points="813,-648.5 813,-689.5 953,-689.5 953,-648.5 813,-648.5"/>
<text text-anchor="start" x="821" y="-677.5" font-family="Helvetica,sans-Serif" font-size="10.00">/home/travis/build</text>
<text text-anchor="start" x="821" y="-666.5" font-family="Helvetica,sans-Serif" font-size="10.00">/mgerhardy/simpleai</text>
<text text-anchor="middle" x="883" y="-655.5" font-family="Helvetica,sans-Serif" font-size="10.00">/src/ai/movement/Steering.h</text>
</a>
</g>
</g>
<!-- Node1&#45;&gt;Node2 -->
<g id="edge1" class="edge"><title>Node1&#45;&gt;Node2</title>
<path fill="none" stroke="midnightblue" d="M1242.68,-731.567C1158.82,-717.213 1031.67,-695.448 953.158,-682.009"/>
<polygon fill="midnightblue" stroke="midnightblue" points="1242.24,-735.042 1252.68,-733.279 1243.42,-728.142 1242.24,-735.042"/>
</g>
<!-- Node9 -->
<g id="node9" class="node"><title>Node9</title>
<g id="a_node9"><a xlink:href="SimpleAI_8h.html" target="_top" xlink:title="/home/travis/build\l/mgerhardy/simpleai\l/src/ai/SimpleAI.h">
<polygon fill="white" stroke="black" points="1527,-0.5 1527,-41.5 1631,-41.5 1631,-0.5 1527,-0.5"/>
<text text-anchor="start" x="1535" y="-29.5" font-family="Helvetica,sans-Serif" font-size="10.00">/home/travis/build</text>
<text text-anchor="start" x="1535" y="-18.5" font-family="Helvetica,sans-Serif" font-size="10.00">/mgerhardy/simpleai</text>
<text text-anchor="middle" x="1579" y="-7.5" font-family="Helvetica,sans-Serif" font-size="10.00">/src/ai/SimpleAI.h</text>
</a>
</g>
</g>
<!-- Node1&#45;&gt;Node9 -->
<g id="edge64" class="edge"><title>Node1&#45;&gt;Node9</title>
<path fill="none" stroke="midnightblue" d="M1411.54,-738.448C1558.37,-722.975 1845,-681.331 1845,-592 1845,-592 1845,-592 1845,-176 1845,-127.885 1836.09,-108.649 1799,-78 1751.45,-38.7099 1679.82,-26.5296 1631.32,-22.9968"/>
<polygon fill="midnightblue" stroke="midnightblue" points="1410.8,-735.005 1401.22,-739.517 1411.52,-741.968 1410.8,-735.005"/>
</g>
<!-- Node3 -->
<g id="node3" class="node"><title>Node3</title>
<g id="a_node3"><a xlink:href="Steer_8h.html" target="_top" xlink:title="/home/travis/build\l/mgerhardy/simpleai\l/src/ai/tree/Steer.h">
<polygon fill="white" stroke="black" points="375,-492.5 375,-533.5 479,-533.5 479,-492.5 375,-492.5"/>
<text text-anchor="start" x="383" y="-521.5" font-family="Helvetica,sans-Serif" font-size="10.00">/home/travis/build</text>
<text text-anchor="start" x="383" y="-510.5" font-family="Helvetica,sans-Serif" font-size="10.00">/mgerhardy/simpleai</text>
<text text-anchor="middle" x="427" y="-499.5" font-family="Helvetica,sans-Serif" font-size="10.00">/src/ai/tree/Steer.h</text>
</a>
</g>
</g>
<!-- Node2&#45;&gt;Node3 -->
<g id="edge2" class="edge"><title>Node2&#45;&gt;Node3</title>
<path fill="none" stroke="midnightblue" d="M802.742,-664.174C675.072,-657.256 437.456,-640.662 412,-612 392.912,-590.508 405.111,-555.353 415.901,-533.506"/>
<polygon fill="midnightblue" stroke="midnightblue" points="802.693,-667.676 812.866,-664.714 803.067,-660.686 802.693,-667.676"/>
</g>
<!-- Node4 -->
<g id="node4" class="node"><title>Node4</title>
<g id="a_node4"><a xlink:href="AIRegistry_8h.html" target="_top" xlink:title="/home/travis/build\l/mgerhardy/simpleai\l/src/ai/AIRegistry.h">
<polygon fill="white" stroke="black" points="650,-414.5 650,-455.5 754,-455.5 754,-414.5 650,-414.5"/>
<text text-anchor="start" x="658" y="-443.5" font-family="Helvetica,sans-Serif" font-size="10.00">/home/travis/build</text>
<text text-anchor="start" x="658" y="-432.5" font-family="Helvetica,sans-Serif" font-size="10.00">/mgerhardy/simpleai</text>
<text text-anchor="middle" x="702" y="-421.5" font-family="Helvetica,sans-Serif" font-size="10.00">/src/ai/AIRegistry.h</text>
</a>
</g>
</g>
<!-- Node2&#45;&gt;Node4 -->
<g id="edge47" class="edge"><title>Node2&#45;&gt;Node4</title>
<path fill="none" stroke="midnightblue" d="M861.316,-640.207C824.256,-592.704 749.618,-497.035 717.393,-455.73"/>
<polygon fill="midnightblue" stroke="midnightblue" points="858.657,-642.488 867.568,-648.22 864.176,-638.183 858.657,-642.488"/>
</g>
<!-- Node2&#45;&gt;Node9 -->
<g id="edge63" class="edge"><title>Node2&#45;&gt;Node9</title>
<path fill="none" stroke="midnightblue" d="M963.287,-663.04C1188.01,-648.093 1807,-599.189 1807,-514 1807,-514 1807,-514 1807,-176 1807,-129.444 1804.14,-109.649 1770,-78 1732.24,-42.9983 1673.73,-29.7702 1631.42,-24.8271"/>
<polygon fill="midnightblue" stroke="midnightblue" points="962.956,-659.554 953.209,-663.705 963.417,-666.539 962.956,-659.554"/>
</g>
<!-- Node20 -->
<g id="node20" class="node"><title>Node20</title>
<g id="a_node20"><a xlink:href="SelectionSeek_8h.html" target="_top" xlink:title="/home/travis/build\l/mgerhardy/simpleai\l/src/ai/movement/SelectionSeek.h">
<polygon fill="white" stroke="black" points="1341.5,-492.5 1341.5,-533.5 1508.5,-533.5 1508.5,-492.5 1341.5,-492.5"/>
<text text-anchor="start" x="1349.5" y="-521.5" font-family="Helvetica,sans-Serif" font-size="10.00">/home/travis/build</text>
<text text-anchor="start" x="1349.5" y="-510.5" font-family="Helvetica,sans-Serif" font-size="10.00">/mgerhardy/simpleai</text>
<text text-anchor="middle" x="1425" y="-499.5" font-family="Helvetica,sans-Serif" font-size="10.00">/src/ai/movement/SelectionSeek.h</text>
</a>
</g>
</g>
<!-- Node2&#45;&gt;Node20 -->
<g id="edge36" class="edge"><title>Node2&#45;&gt;Node20</title>
<path fill="none" stroke="midnightblue" d="M963.199,-664.175C1073.54,-657.854 1265.6,-642.748 1328,-612 1364.5,-594.011 1395.3,-556.698 1411.87,-533.658"/>
<polygon fill="midnightblue" stroke="midnightblue" points="962.898,-660.686 953.11,-664.741 963.291,-667.675 962.898,-660.686"/>
</g>
<!-- Node21 -->
<g id="node21" class="node"><title>Node21</title>
<g id="a_node21"><a xlink:href="SelectionFlee_8h.html" target="_top" xlink:title="/home/travis/build\l/mgerhardy/simpleai\l/src/ai/movement/SelectionFlee.h">
<polygon fill="white" stroke="black" points="620.5,-570.5 620.5,-611.5 783.5,-611.5 783.5,-570.5 620.5,-570.5"/>
<text text-anchor="start" x="628.5" y="-599.5" font-family="Helvetica,sans-Serif" font-size="10.00">/home/travis/build</text>
<text text-anchor="start" x="628.5" y="-588.5" font-family="Helvetica,sans-Serif" font-size="10.00">/mgerhardy/simpleai</text>
<text text-anchor="middle" x="702" y="-577.5" font-family="Helvetica,sans-Serif" font-size="10.00">/src/ai/movement/SelectionFlee.h</text>
</a>
</g>
</g>
<!-- Node2&#45;&gt;Node21 -->
<g id="edge39" class="edge"><title>Node2&#45;&gt;Node21</title>
<path fill="none" stroke="midnightblue" d="M826.959,-644.469C801.769,-633.892 772.393,-621.557 748.454,-611.506"/>
<polygon fill="midnightblue" stroke="midnightblue" points="825.813,-647.784 836.388,-648.428 828.523,-641.33 825.813,-647.784"/>
</g>
<!-- Node22 -->
<g id="node22" class="node"><title>Node22</title>
<g id="a_node22"><a xlink:href="GroupFlee_8h.html" target="_top" xlink:title="/home/travis/build\l/mgerhardy/simpleai\l/src/ai/movement/GroupFlee.h">
<polygon fill="white" stroke="black" points="-0.5,-492.5 -0.5,-533.5 148.5,-533.5 148.5,-492.5 -0.5,-492.5"/>
<text text-anchor="start" x="7.5" y="-521.5" font-family="Helvetica,sans-Serif" font-size="10.00">/home/travis/build</text>
<text text-anchor="start" x="7.5" y="-510.5" font-family="Helvetica,sans-Serif" font-size="10.00">/mgerhardy/simpleai</text>
<text text-anchor="middle" x="74" y="-499.5" font-family="Helvetica,sans-Serif" font-size="10.00">/src/ai/movement/GroupFlee.h</text>
</a>
</g>
</g>
<!-- Node2&#45;&gt;Node22 -->
<g id="edge41" class="edge"><title>Node2&#45;&gt;Node22</title>
<path fill="none" stroke="midnightblue" d="M802.709,-667.311C691.557,-664.734 485.243,-654.067 315,-612 240.458,-593.581 158.641,-556.409 112.083,-533.512"/>
<polygon fill="midnightblue" stroke="midnightblue" points="802.763,-670.813 812.836,-667.53 802.914,-663.815 802.763,-670.813"/>
</g>
<!-- Node23 -->
<g id="node23" class="node"><title>Node23</title>
<g id="a_node23"><a xlink:href="GroupSeek_8h.html" target="_top" xlink:title="/home/travis/build\l/mgerhardy/simpleai\l/src/ai/movement/GroupSeek.h">
<polygon fill="white" stroke="black" points="167,-492.5 167,-533.5 319,-533.5 319,-492.5 167,-492.5"/>
<text text-anchor="start" x="175" y="-521.5" font-family="Helvetica,sans-Serif" font-size="10.00">/home/travis/build</text>
<text text-anchor="start" x="175" y="-510.5" font-family="Helvetica,sans-Serif" font-size="10.00">/mgerhardy/simpleai</text>
<text text-anchor="middle" x="243" y="-499.5" font-family="Helvetica,sans-Serif" font-size="10.00">/src/ai/movement/GroupSeek.h</text>
</a>
</g>
</g>
<!-- Node2&#45;&gt;Node23 -->
<g id="edge44" class="edge"><title>Node2&#45;&gt;Node23</title>
<path fill="none" stroke="midnightblue" d="M802.684,-663.028C684.917,-655.006 471.501,-637.487 399,-612 347.704,-593.968 295.743,-556.669 266.62,-533.643"/>
<polygon fill="midnightblue" stroke="midnightblue" points="802.519,-666.524 812.732,-663.705 802.99,-659.54 802.519,-666.524"/>
</g>
<!-- Node24 -->
<g id="node24" class="node"><title>Node24</title>
<g id="a_node24"><a xlink:href="TargetFlee_8h.html" target="_top" xlink:title="/home/travis/build\l/mgerhardy/simpleai\l/src/ai/movement/TargetFlee.h">
<polygon fill="white" stroke="black" points="808,-492.5 808,-533.5 958,-533.5 958,-492.5 808,-492.5"/>
<text text-anchor="start" x="816" y="-521.5" font-family="Helvetica,sans-Serif" font-size="10.00">/home/travis/build</text>
<text text-anchor="start" x="816" y="-510.5" font-family="Helvetica,sans-Serif" font-size="10.00">/mgerhardy/simpleai</text>
<text text-anchor="middle" x="883" y="-499.5" font-family="Helvetica,sans-Serif" font-size="10.00">/src/ai/movement/TargetFlee.h</text>
</a>
</g>
</g>
<!-- Node2&#45;&gt;Node24 -->
<g id="edge48" class="edge"><title>Node2&#45;&gt;Node24</title>
<path fill="none" stroke="midnightblue" d="M883,-638.365C883,-607.606 883,-560.358 883,-533.832"/>
<polygon fill="midnightblue" stroke="midnightblue" points="879.5,-638.496 883,-648.496 886.5,-638.496 879.5,-638.496"/>
</g>
<!-- Node25 -->
<g id="node25" class="node"><title>Node25</title>
<g id="a_node25"><a xlink:href="TargetSeek_8h.html" target="_top" xlink:title="/home/travis/build\l/mgerhardy/simpleai\l/src/ai/movement/TargetSeek.h">
<polygon fill="white" stroke="black" points="976,-492.5 976,-533.5 1130,-533.5 1130,-492.5 976,-492.5"/>
<text text-anchor="start" x="984" y="-521.5" font-family="Helvetica,sans-Serif" font-size="10.00">/home/travis/build</text>
<text text-anchor="start" x="984" y="-510.5" font-family="Helvetica,sans-Serif" font-size="10.00">/mgerhardy/simpleai</text>
<text text-anchor="middle" x="1053" y="-499.5" font-family="Helvetica,sans-Serif" font-size="10.00">/src/ai/movement/TargetSeek.h</text>
</a>
</g>
</g>
<!-- Node2&#45;&gt;Node25 -->
<g id="edge51" class="edge"><title>Node2&#45;&gt;Node25</title>
<path fill="none" stroke="midnightblue" d="M912.247,-641.506C946.121,-610.819 1001.13,-560.984 1031.38,-533.588"/>
<polygon fill="midnightblue" stroke="midnightblue" points="909.592,-639.188 904.531,-648.496 914.292,-644.376 909.592,-639.188"/>
</g>
<!-- Node26 -->
<g id="node26" class="node"><title>Node26</title>
<g id="a_node26"><a xlink:href="Wander_8h.html" target="_top" xlink:title="/home/travis/build\l/mgerhardy/simpleai\l/src/ai/movement/Wander.h">
<polygon fill="white" stroke="black" points="1148.5,-492.5 1148.5,-533.5 1285.5,-533.5 1285.5,-492.5 1148.5,-492.5"/>
<text text-anchor="start" x="1156.5" y="-521.5" font-family="Helvetica,sans-Serif" font-size="10.00">/home/travis/build</text>
<text text-anchor="start" x="1156.5" y="-510.5" font-family="Helvetica,sans-Serif" font-size="10.00">/mgerhardy/simpleai</text>
<text text-anchor="middle" x="1217" y="-499.5" font-family="Helvetica,sans-Serif" font-size="10.00">/src/ai/movement/Wander.h</text>
</a>
</g>
</g>
<!-- Node2&#45;&gt;Node26 -->
<g id="edge54" class="edge"><title>Node2&#45;&gt;Node26</title>
<path fill="none" stroke="midnightblue" d="M934.675,-644.174C1000.59,-613.783 1113.35,-561.793 1174.52,-533.588"/>
<polygon fill="midnightblue" stroke="midnightblue" points="932.917,-641.13 925.301,-648.496 935.848,-647.487 932.917,-641.13"/>
</g>
<!-- Node27 -->
<g id="node27" class="node"><title>Node27</title>
<g id="a_node27"><a xlink:href="WeightedSteering_8h.html" target="_top" xlink:title="/home/travis/build\l/mgerhardy/simpleai\l/src/ai/movement/WeightedSteering.h">
<polygon fill="white" stroke="black" points="421.5,-570.5 421.5,-611.5 602.5,-611.5 602.5,-570.5 421.5,-570.5"/>
<text text-anchor="start" x="429.5" y="-599.5" font-family="Helvetica,sans-Serif" font-size="10.00">/home/travis/build</text>
<text text-anchor="start" x="429.5" y="-588.5" font-family="Helvetica,sans-Serif" font-size="10.00">/mgerhardy/simpleai</text>
<text text-anchor="middle" x="512" y="-577.5" font-family="Helvetica,sans-Serif" font-size="10.00">/src/ai/movement/WeightedSteering.h</text>
</a>
</g>
</g>
<!-- Node2&#45;&gt;Node27 -->
<g id="edge57" class="edge"><title>Node2&#45;&gt;Node27</title>
<path fill="none" stroke="midnightblue" d="M802.783,-651.567C743.903,-639.506 663.865,-623.11 602.665,-610.573"/>
<polygon fill="midnightblue" stroke="midnightblue" points="802.283,-655.038 812.782,-653.616 803.687,-648.18 802.283,-655.038"/>
</g>
<!-- Node28 -->
<g id="node28" class="node"><title>Node28</title>
<g id="a_node28"><a xlink:href="LUASteering_8h.html" target="_top" xlink:title="/home/travis/build\l/mgerhardy/simpleai\l/src/ai/movement/LUASteering.h">
<polygon fill="white" stroke="black" points="1544.5,-414.5 1544.5,-455.5 1703.5,-455.5 1703.5,-414.5 1544.5,-414.5"/>
<text text-anchor="start" x="1552.5" y="-443.5" font-family="Helvetica,sans-Serif" font-size="10.00">/home/travis/build</text>
<text text-anchor="start" x="1552.5" y="-432.5" font-family="Helvetica,sans-Serif" font-size="10.00">/mgerhardy/simpleai</text>
<text text-anchor="middle" x="1624" y="-421.5" font-family="Helvetica,sans-Serif" font-size="10.00">/src/ai/movement/LUASteering.h</text>
</a>
</g>
</g>
<!-- Node2&#45;&gt;Node28 -->
<g id="edge61" class="edge"><title>Node2&#45;&gt;Node28</title>
<path fill="none" stroke="midnightblue" d="M957.583,-645.418C990.3,-635.385 1029.12,-623.307 1064,-612 1166.68,-578.712 1203.4,-592.674 1294,-534 1315.38,-520.153 1310.66,-504.238 1333,-492 1411.44,-449.03 1443.27,-473.405 1531,-456 1535.37,-455.132 1539.86,-454.225 1544.38,-453.297"/>
<polygon fill="midnightblue" stroke="midnightblue" points="956.173,-642.189 947.636,-648.464 958.222,-648.883 956.173,-642.189"/>
</g>
<!-- Node3&#45;&gt;Node4 -->
<g id="edge3" class="edge"><title>Node3&#45;&gt;Node4</title>
<path fill="none" stroke="midnightblue" d="M488.788,-494.924C537.225,-481.538 603.877,-463.118 649.697,-450.455"/>
<polygon fill="midnightblue" stroke="midnightblue" points="487.755,-491.578 479.049,-497.616 489.62,-498.325 487.755,-491.578"/>
</g>
<!-- Node3&#45;&gt;Node9 -->
<g id="edge30" class="edge"><title>Node3&#45;&gt;Node9</title>
<path fill="none" stroke="midnightblue" d="M365.422,-491.857C306.975,-468.407 228,-423.493 228,-352 228,-352 228,-352 228,-176 228,-129.75 225.77,-105.44 263,-78 314.687,-39.905 1288.86,-25.5477 1526.87,-22.6007"/>
<polygon fill="midnightblue" stroke="midnightblue" points="364.386,-495.21 374.975,-495.575 366.925,-488.686 364.386,-495.21"/>
</g>
<!-- Node19 -->
<g id="node19" class="node"><title>Node19</title>
<g id="a_node19"><a xlink:href="TreeNodeParser_8h.html" target="_top" xlink:title="/home/travis/build\l/mgerhardy/simpleai\l/src/ai/tree/TreeNodeParser.h">
<polygon fill="white" stroke="black" points="340,-330.5 340,-371.5 486,-371.5 486,-330.5 340,-330.5"/>
<text text-anchor="start" x="348" y="-359.5" font-family="Helvetica,sans-Serif" font-size="10.00">/home/travis/build</text>
<text text-anchor="start" x="348" y="-348.5" font-family="Helvetica,sans-Serif" font-size="10.00">/mgerhardy/simpleai</text>
<text text-anchor="middle" x="413" y="-337.5" font-family="Helvetica,sans-Serif" font-size="10.00">/src/ai/tree/TreeNodeParser.h</text>
</a>
</g>
</g>
<!-- Node3&#45;&gt;Node19 -->
<g id="edge31" class="edge"><title>Node3&#45;&gt;Node19</title>
<path fill="none" stroke="midnightblue" d="M424.393,-482.206C421.572,-449.962 417.153,-399.458 414.731,-371.78"/>
<polygon fill="midnightblue" stroke="midnightblue" points="420.925,-482.724 425.283,-492.381 427.898,-482.114 420.925,-482.724"/>
</g>
<!-- Node5 -->
<g id="node5" class="node"><title>Node5</title>
<g id="a_node5"><a xlink:href="ConditionParser_8h.html" target="_top" xlink:title="/home/travis/build\l/mgerhardy/simpleai\l/src/ai/conditions/Condition\lParser.h">
<polygon fill="white" stroke="black" points="504.5,-325 504.5,-377 639.5,-377 639.5,-325 504.5,-325"/>
<text text-anchor="start" x="512.5" y="-365" font-family="Helvetica,sans-Serif" font-size="10.00">/home/travis/build</text>
<text text-anchor="start" x="512.5" y="-354" font-family="Helvetica,sans-Serif" font-size="10.00">/mgerhardy/simpleai</text>
<text text-anchor="start" x="512.5" y="-343" font-family="Helvetica,sans-Serif" font-size="10.00">/src/ai/conditions/Condition</text>
<text text-anchor="middle" x="572" y="-332" font-family="Helvetica,sans-Serif" font-size="10.00">Parser.h</text>
</a>
</g>
</g>
<!-- Node4&#45;&gt;Node5 -->
<g id="edge4" class="edge"><title>Node4&#45;&gt;Node5</title>
<path fill="none" stroke="midnightblue" d="M662.241,-408.921C646.221,-398.816 627.778,-387.183 611.758,-377.078"/>
<polygon fill="midnightblue" stroke="midnightblue" points="660.536,-411.984 670.862,-414.359 664.271,-406.064 660.536,-411.984"/>
</g>
<!-- Node6 -->
<g id="node6" class="node"><title>Node6</title>
<g id="a_node6"><a xlink:href="Server_8h.html" target="_top" xlink:title="/home/travis/build\l/mgerhardy/simpleai\l/src/ai/server/Server.h">
<polygon fill="white" stroke="black" points="767.5,-240.5 767.5,-281.5 880.5,-281.5 880.5,-240.5 767.5,-240.5"/>
<text text-anchor="start" x="775.5" y="-269.5" font-family="Helvetica,sans-Serif" font-size="10.00">/home/travis/build</text>
<text text-anchor="start" x="775.5" y="-258.5" font-family="Helvetica,sans-Serif" font-size="10.00">/mgerhardy/simpleai</text>
<text text-anchor="middle" x="824" y="-247.5" font-family="Helvetica,sans-Serif" font-size="10.00">/src/ai/server/Server.h</text>
</a>
</g>
</g>
<!-- Node4&#45;&gt;Node6 -->
<g id="edge27" class="edge"><title>Node4&#45;&gt;Node6</title>
<path fill="none" stroke="midnightblue" d="M721.922,-405.914C746.761,-370.895 788.575,-311.944 810.168,-281.5"/>
<polygon fill="midnightblue" stroke="midnightblue" points="718.926,-404.088 715.995,-414.269 724.635,-408.138 718.926,-404.088"/>
</g>
<!-- Node4&#45;&gt;Node9 -->
<g id="edge28" class="edge"><title>Node4&#45;&gt;Node9</title>
<path fill="none" stroke="midnightblue" d="M695.391,-404.635C683.503,-359.373 653.863,-273.65 593,-234 488.342,-165.82 239.941,-249.29 323,-156 404.433,-64.5369 1300.02,-30.6656 1526.97,-23.5179"/>
<polygon fill="midnightblue" stroke="midnightblue" points="692.022,-405.589 697.853,-414.435 698.811,-403.883 692.022,-405.589"/>
</g>
<!-- Node16 -->
<g id="node16" class="node"><title>Node16</title>
<g id="a_node16"><a xlink:href="LUATreeLoader_8h.html" target="_top" xlink:title="/home/travis/build\l/mgerhardy/simpleai\l/src/ai/tree/loaders\l/lua/LUATreeLoader.h">
<polygon fill="white" stroke="black" points="256,-235 256,-287 368,-287 368,-235 256,-235"/>
<text text-anchor="start" x="264" y="-275" font-family="Helvetica,sans-Serif" font-size="10.00">/home/travis/build</text>
<text text-anchor="start" x="264" y="-264" font-family="Helvetica,sans-Serif" font-size="10.00">/mgerhardy/simpleai</text>
<text text-anchor="start" x="264" y="-253" font-family="Helvetica,sans-Serif" font-size="10.00">/src/ai/tree/loaders</text>
<text text-anchor="middle" x="312" y="-242" font-family="Helvetica,sans-Serif" font-size="10.00">/lua/LUATreeLoader.h</text>
</a>
</g>
</g>
<!-- Node4&#45;&gt;Node16 -->
<g id="edge29" class="edge"><title>Node4&#45;&gt;Node16</title>
<path fill="none" stroke="midnightblue" d="M639.627,-433.169C545.472,-430.544 373.496,-419.966 331,-378 307.187,-354.483 306.087,-313.491 308.371,-287.065"/>
<polygon fill="midnightblue" stroke="midnightblue" points="639.791,-436.674 649.877,-433.432 639.97,-429.676 639.791,-436.674"/>
</g>
<!-- Node18 -->
<g id="node18" class="node"><title>Node18</title>
<g id="a_node18"><a xlink:href="LUAAIRegistry_8h_source.html" target="_top" xlink:title="/home/travis/build\l/mgerhardy/simpleai\l/src/ai/LUAAIRegistry.h">
<polygon fill="white" stroke="black" points="1560.5,-330.5 1560.5,-371.5 1681.5,-371.5 1681.5,-330.5 1560.5,-330.5"/>
<text text-anchor="start" x="1568.5" y="-359.5" font-family="Helvetica,sans-Serif" font-size="10.00">/home/travis/build</text>
<text text-anchor="start" x="1568.5" y="-348.5" font-family="Helvetica,sans-Serif" font-size="10.00">/mgerhardy/simpleai</text>
<text text-anchor="middle" x="1621" y="-337.5" font-family="Helvetica,sans-Serif" font-size="10.00">/src/ai/LUAAIRegistry.h</text>
</a>
</g>
</g>
<!-- Node4&#45;&gt;Node18 -->
<g id="edge26" class="edge"><title>Node4&#45;&gt;Node18</title>
<path fill="none" stroke="midnightblue" d="M764.21,-428.449C932.325,-413.449 1394.22,-372.235 1560.42,-357.406"/>
<polygon fill="midnightblue" stroke="midnightblue" points="763.692,-424.981 754.043,-429.356 764.314,-431.954 763.692,-424.981"/>
</g>
<!-- Node5&#45;&gt;Node6 -->
<g id="edge5" class="edge"><title>Node5&#45;&gt;Node6</title>
<path fill="none" stroke="midnightblue" d="M649.103,-323.075C687.399,-309.702 732.828,-293.838 767.787,-281.63"/>
<polygon fill="midnightblue" stroke="midnightblue" points="647.818,-319.816 639.531,-326.418 650.126,-326.425 647.818,-319.816"/>
</g>
<!-- Node5&#45;&gt;Node9 -->
<g id="edge23" class="edge"><title>Node5&#45;&gt;Node9</title>
<path fill="none" stroke="midnightblue" d="M649.747,-349.243C862.757,-345.537 1448.93,-323.869 1585,-198 1624.59,-161.379 1613.84,-130.829 1603,-78 1600.41,-65.359 1594.83,-52.0482 1589.71,-41.5769"/>
<polygon fill="midnightblue" stroke="midnightblue" points="649.526,-345.746 639.585,-349.411 649.642,-352.746 649.526,-345.746"/>
</g>
<!-- Node5&#45;&gt;Node16 -->
<g id="edge24" class="edge"><title>Node5&#45;&gt;Node16</title>
<path fill="none" stroke="midnightblue" d="M494.773,-323.862C454.175,-310.121 405.307,-293.581 368.32,-281.062"/>
<polygon fill="midnightblue" stroke="midnightblue" points="493.773,-327.218 504.367,-327.109 496.017,-320.587 493.773,-327.218"/>
</g>
<!-- Node17 -->
<g id="node17" class="node"><title>Node17</title>
<g id="a_node17"><a xlink:href="XMLTreeLoader_8h.html" target="_top" xlink:title="/home/travis/build\l/mgerhardy/simpleai\l/src/ai/tree/loaders\l/xml/XMLTreeLoader.h">
<polygon fill="white" stroke="black" points="469,-235 469,-287 585,-287 585,-235 469,-235"/>
<text text-anchor="start" x="477" y="-275" font-family="Helvetica,sans-Serif" font-size="10.00">/home/travis/build</text>
<text text-anchor="start" x="477" y="-264" font-family="Helvetica,sans-Serif" font-size="10.00">/mgerhardy/simpleai</text>
<text text-anchor="start" x="477" y="-253" font-family="Helvetica,sans-Serif" font-size="10.00">/src/ai/tree/loaders</text>
<text text-anchor="middle" x="527" y="-242" font-family="Helvetica,sans-Serif" font-size="10.00">/xml/XMLTreeLoader.h</text>
</a>
</g>
</g>
<!-- Node5&#45;&gt;Node17 -->
<g id="edge25" class="edge"><title>Node5&#45;&gt;Node17</title>
<path fill="none" stroke="midnightblue" d="M554.295,-315.376C549.467,-305.935 544.331,-295.891 539.831,-287.092"/>
<polygon fill="midnightblue" stroke="midnightblue" points="551.315,-317.237 558.984,-324.547 557.547,-314.05 551.315,-317.237"/>
</g>
<!-- Node7 -->
<g id="node7" class="node"><title>Node7</title>
<g id="a_node7"><a xlink:href="ChangeHandler_8h.html" target="_top" xlink:title="/home/travis/build\l/mgerhardy/simpleai\l/src/ai/server/ChangeHandler.h">
<polygon fill="white" stroke="black" points="1173,-156.5 1173,-197.5 1325,-197.5 1325,-156.5 1173,-156.5"/>
<text text-anchor="start" x="1181" y="-185.5" font-family="Helvetica,sans-Serif" font-size="10.00">/home/travis/build</text>
<text text-anchor="start" x="1181" y="-174.5" font-family="Helvetica,sans-Serif" font-size="10.00">/mgerhardy/simpleai</text>
<text text-anchor="middle" x="1249" y="-163.5" font-family="Helvetica,sans-Serif" font-size="10.00">/src/ai/server/ChangeHandler.h</text>
</a>
</g>
</g>
<!-- Node6&#45;&gt;Node7 -->
<g id="edge6" class="edge"><title>Node6&#45;&gt;Node7</title>
<path fill="none" stroke="midnightblue" d="M890.76,-248.757C959.261,-236.994 1068.83,-217.55 1163,-198 1166.15,-197.346 1169.37,-196.664 1172.61,-195.964"/>
<polygon fill="midnightblue" stroke="midnightblue" points="889.809,-245.368 880.543,-250.506 890.991,-252.268 889.809,-245.368"/>
</g>
<!-- Node8 -->
<g id="node8" class="node"><title>Node8</title>
<g id="a_node8"><a xlink:href="ServerImpl_8h.html" target="_top" xlink:title="/home/travis/build\l/mgerhardy/simpleai\l/src/ai/server/ServerImpl.h">
<polygon fill="white" stroke="black" points="1002,-78.5 1002,-119.5 1134,-119.5 1134,-78.5 1002,-78.5"/>
<text text-anchor="start" x="1010" y="-107.5" font-family="Helvetica,sans-Serif" font-size="10.00">/home/travis/build</text>
<text text-anchor="start" x="1010" y="-96.5" font-family="Helvetica,sans-Serif" font-size="10.00">/mgerhardy/simpleai</text>
<text text-anchor="middle" x="1068" y="-85.5" font-family="Helvetica,sans-Serif" font-size="10.00">/src/ai/server/ServerImpl.h</text>
</a>
</g>
</g>
<!-- Node6&#45;&gt;Node8 -->
<g id="edge17" class="edge"><title>Node6&#45;&gt;Node8</title>
<path fill="none" stroke="midnightblue" d="M891.233,-256.711C1023.03,-249.573 1305.1,-230.625 1334,-198 1393.88,-130.398 1231.25,-109.358 1134.33,-102.862"/>
<polygon fill="midnightblue" stroke="midnightblue" points="890.663,-253.237 880.864,-257.265 891.036,-260.227 890.663,-253.237"/>
</g>
<!-- Node6&#45;&gt;Node9 -->
<g id="edge22" class="edge"><title>Node6&#45;&gt;Node9</title>
<path fill="none" stroke="midnightblue" d="M890.829,-259.127C1063.19,-256.219 1512.66,-244.236 1560,-198 1602.21,-156.768 1591.79,-78.3842 1583.95,-41.7691"/>
<polygon fill="midnightblue" stroke="midnightblue" points="890.559,-255.631 880.618,-259.294 890.674,-262.63 890.559,-255.631"/>
</g>
<!-- Node10 -->
<g id="node10" class="node"><title>Node10</title>
<g id="a_node10"><a xlink:href="DeleteNodeHandler_8h.html" target="_top" xlink:title="/home/travis/build\l/mgerhardy/simpleai\l/src/ai/server/DeleteNodeHandler.h">
<polygon fill="white" stroke="black" points="1381,-156.5 1381,-197.5 1551,-197.5 1551,-156.5 1381,-156.5"/>
<text text-anchor="start" x="1389" y="-185.5" font-family="Helvetica,sans-Serif" font-size="10.00">/home/travis/build</text>
<text text-anchor="start" x="1389" y="-174.5" font-family="Helvetica,sans-Serif" font-size="10.00">/mgerhardy/simpleai</text>
<text text-anchor="middle" x="1466" y="-163.5" font-family="Helvetica,sans-Serif" font-size="10.00">/src/ai/server/DeleteNodeHandler.h</text>
</a>
</g>
</g>
<!-- Node6&#45;&gt;Node10 -->
<g id="edge9" class="edge"><title>Node6&#45;&gt;Node10</title>
<path fill="none" stroke="midnightblue" d="M891.126,-254.201C993.937,-244.898 1196.42,-224.918 1367,-198 1371.5,-197.289 1376.11,-196.517 1380.76,-195.702"/>
<polygon fill="midnightblue" stroke="midnightblue" points="890.538,-250.739 880.892,-255.121 891.165,-257.711 890.538,-250.739"/>
</g>
<!-- Node11 -->
<g id="node11" class="node"><title>Node11</title>
<g id="a_node11"><a xlink:href="PauseHandler_8h.html" target="_top" xlink:title="/home/travis/build\l/mgerhardy/simpleai\l/src/ai/server/PauseHandler.h">
<polygon fill="white" stroke="black" points="332,-156.5 332,-197.5 478,-197.5 478,-156.5 332,-156.5"/>
<text text-anchor="start" x="340" y="-185.5" font-family="Helvetica,sans-Serif" font-size="10.00">/home/travis/build</text>
<text text-anchor="start" x="340" y="-174.5" font-family="Helvetica,sans-Serif" font-size="10.00">/mgerhardy/simpleai</text>
<text text-anchor="middle" x="405" y="-163.5" font-family="Helvetica,sans-Serif" font-size="10.00">/src/ai/server/PauseHandler.h</text>
</a>
</g>
</g>
<!-- Node6&#45;&gt;Node11 -->
<g id="edge11" class="edge"><title>Node6&#45;&gt;Node11</title>
<path fill="none" stroke="midnightblue" d="M757.303,-248.197C674.34,-233.435 537.47,-208.788 487,-198 484.134,-197.387 481.215,-196.748 478.27,-196.091"/>
<polygon fill="midnightblue" stroke="midnightblue" points="756.934,-251.687 767.392,-249.991 758.159,-244.795 756.934,-251.687"/>
</g>
<!-- Node12 -->
<g id="node12" class="node"><title>Node12</title>
<g id="a_node12"><a xlink:href="ResetHandler_8h.html" target="_top" xlink:title="/home/travis/build\l/mgerhardy/simpleai\l/src/ai/server/ResetHandler.h">
<polygon fill="white" stroke="black" points="496.5,-156.5 496.5,-197.5 641.5,-197.5 641.5,-156.5 496.5,-156.5"/>
<text text-anchor="start" x="504.5" y="-185.5" font-family="Helvetica,sans-Serif" font-size="10.00">/home/travis/build</text>
<text text-anchor="start" x="504.5" y="-174.5" font-family="Helvetica,sans-Serif" font-size="10.00">/mgerhardy/simpleai</text>
<text text-anchor="middle" x="569" y="-163.5" font-family="Helvetica,sans-Serif" font-size="10.00">/src/ai/server/ResetHandler.h</text>
</a>
</g>
</g>
<!-- Node6&#45;&gt;Node12 -->
<g id="edge13" class="edge"><title>Node6&#45;&gt;Node12</title>
<path fill="none" stroke="midnightblue" d="M757.851,-238.729C718.316,-226.015 668.449,-209.98 629.886,-197.579"/>
<polygon fill="midnightblue" stroke="midnightblue" points="756.816,-242.072 767.407,-241.802 758.959,-235.408 756.816,-242.072"/>
</g>
<!-- Node13 -->
<g id="node13" class="node"><title>Node13</title>
<g id="a_node13"><a xlink:href="SelectHandler_8h.html" target="_top" xlink:title="/home/travis/build\l/mgerhardy/simpleai\l/src/ai/server/SelectHandler.h">
<polygon fill="white" stroke="black" points="660,-156.5 660,-197.5 806,-197.5 806,-156.5 660,-156.5"/>
<text text-anchor="start" x="668" y="-185.5" font-family="Helvetica,sans-Serif" font-size="10.00">/home/travis/build</text>
<text text-anchor="start" x="668" y="-174.5" font-family="Helvetica,sans-Serif" font-size="10.00">/mgerhardy/simpleai</text>
<text text-anchor="middle" x="733" y="-163.5" font-family="Helvetica,sans-Serif" font-size="10.00">/src/ai/server/SelectHandler.h</text>
</a>
</g>
</g>
<!-- Node6&#45;&gt;Node13 -->
<g id="edge15" class="edge"><title>Node6&#45;&gt;Node13</title>
<path fill="none" stroke="midnightblue" d="M794.26,-233.201C781.407,-221.62 766.64,-208.313 754.826,-197.667"/>
<polygon fill="midnightblue" stroke="midnightblue" points="792.2,-236.056 801.971,-240.15 796.885,-230.856 792.2,-236.056"/>
</g>
<!-- Node14 -->
<g id="node14" class="node"><title>Node14</title>
<g id="a_node14"><a xlink:href="StepHandler_8h.html" target="_top" xlink:title="/home/travis/build\l/mgerhardy/simpleai\l/src/ai/server/StepHandler.h">
<polygon fill="white" stroke="black" points="824.5,-156.5 824.5,-197.5 963.5,-197.5 963.5,-156.5 824.5,-156.5"/>
<text text-anchor="start" x="832.5" y="-185.5" font-family="Helvetica,sans-Serif" font-size="10.00">/home/travis/build</text>
<text text-anchor="start" x="832.5" y="-174.5" font-family="Helvetica,sans-Serif" font-size="10.00">/mgerhardy/simpleai</text>
<text text-anchor="middle" x="894" y="-163.5" font-family="Helvetica,sans-Serif" font-size="10.00">/src/ai/server/StepHandler.h</text>
</a>
</g>
</g>
<!-- Node6&#45;&gt;Node14 -->
<g id="edge18" class="edge"><title>Node6&#45;&gt;Node14</title>
<path fill="none" stroke="midnightblue" d="M847.438,-232.544C857.192,-221.119 868.294,-208.113 877.211,-197.667"/>
<polygon fill="midnightblue" stroke="midnightblue" points="844.776,-230.272 840.945,-240.15 850.1,-234.817 844.776,-230.272"/>
</g>
<!-- Node15 -->
<g id="node15" class="node"><title>Node15</title>
<g id="a_node15"><a xlink:href="UpdateNodeHandler_8h.html" target="_top" xlink:title="/home/travis/build\l/mgerhardy/simpleai\l/src/ai/server/UpdateNodeHandler.h">
<polygon fill="white" stroke="black" points="981.5,-156.5 981.5,-197.5 1154.5,-197.5 1154.5,-156.5 981.5,-156.5"/>
<text text-anchor="start" x="989.5" y="-185.5" font-family="Helvetica,sans-Serif" font-size="10.00">/home/travis/build</text>
<text text-anchor="start" x="989.5" y="-174.5" font-family="Helvetica,sans-Serif" font-size="10.00">/mgerhardy/simpleai</text>
<text text-anchor="middle" x="1068" y="-163.5" font-family="Helvetica,sans-Serif" font-size="10.00">/src/ai/server/UpdateNodeHandler.h</text>
</a>
</g>
</g>
<!-- Node6&#45;&gt;Node15 -->
<g id="edge20" class="edge"><title>Node6&#45;&gt;Node15</title>
<path fill="none" stroke="midnightblue" d="M890.358,-237.699C927.624,-225.176 973.705,-209.689 1009.59,-197.628"/>
<polygon fill="midnightblue" stroke="midnightblue" points="888.956,-234.478 880.592,-240.981 891.186,-241.113 888.956,-234.478"/>
</g>
<!-- Node7&#45;&gt;Node8 -->
<g id="edge7" class="edge"><title>Node7&#45;&gt;Node8</title>
<path fill="none" stroke="midnightblue" d="M1192.96,-152.469C1167.77,-141.892 1138.39,-129.557 1114.45,-119.506"/>
<polygon fill="midnightblue" stroke="midnightblue" points="1191.81,-155.784 1202.39,-156.428 1194.52,-149.33 1191.81,-155.784"/>
</g>
<!-- Node8&#45;&gt;Node9 -->
<g id="edge8" class="edge"><title>Node8&#45;&gt;Node9</title>
<path fill="none" stroke="midnightblue" d="M1143.92,-86.708C1248.98,-71.0836 1435.95,-43.2749 1526.7,-29.7779"/>
<polygon fill="midnightblue" stroke="midnightblue" points="1143.4,-83.248 1134.02,-88.1811 1144.43,-90.1718 1143.4,-83.248"/>
</g>
<!-- Node10&#45;&gt;Node8 -->
<g id="edge10" class="edge"><title>Node10&#45;&gt;Node8</title>
<path fill="none" stroke="midnightblue" d="M1370.87,-156.756C1369.57,-156.502 1368.28,-156.25 1367,-156 1287.04,-140.436 1194.88,-123.297 1134.26,-112.131"/>
<polygon fill="midnightblue" stroke="midnightblue" points="1370.47,-160.244 1380.96,-158.739 1371.82,-153.375 1370.47,-160.244"/>
</g>
<!-- Node11&#45;&gt;Node8 -->
<g id="edge12" class="edge"><title>Node11&#45;&gt;Node8</title>
<path fill="none" stroke="midnightblue" d="M488.173,-155.922C679.628,-124.153 895.394,-109.257 1001.81,-103.289"/>
<polygon fill="midnightblue" stroke="midnightblue" points="487.492,-152.487 478.21,-157.594 488.651,-159.39 487.492,-152.487"/>
</g>
<!-- Node12&#45;&gt;Node8 -->
<g id="edge14" class="edge"><title>Node12&#45;&gt;Node8</title>
<path fill="none" stroke="midnightblue" d="M651.893,-155.931C781.443,-131.918 921.511,-115.319 1001.93,-106.689"/>
<polygon fill="midnightblue" stroke="midnightblue" points="650.976,-152.542 641.791,-157.823 652.264,-159.423 650.976,-152.542"/>
</g>
<!-- Node13&#45;&gt;Node8 -->
<g id="edge16" class="edge"><title>Node13&#45;&gt;Node8</title>
<path fill="none" stroke="midnightblue" d="M816.427,-155.688C885.061,-139.789 953.157,-124.809 1001.86,-114.235"/>
<polygon fill="midnightblue" stroke="midnightblue" points="815.248,-152.368 806.299,-158.04 816.832,-159.187 815.248,-152.368"/>
</g>
<!-- Node14&#45;&gt;Node8 -->
<g id="edge19" class="edge"><title>Node14&#45;&gt;Node8</title>
<path fill="none" stroke="midnightblue" d="M948.194,-152.329C972.338,-141.783 1000.43,-129.513 1023.34,-119.506"/>
<polygon fill="midnightblue" stroke="midnightblue" points="946.572,-149.218 938.809,-156.428 949.374,-155.633 946.572,-149.218"/>
</g>
<!-- Node15&#45;&gt;Node8 -->
<g id="edge21" class="edge"><title>Node15&#45;&gt;Node8</title>
<path fill="none" stroke="midnightblue" d="M1068,-146.297C1068,-137.301 1068,-127.653 1068,-119.506"/>
<polygon fill="midnightblue" stroke="midnightblue" points="1064.5,-146.428 1068,-156.428 1071.5,-146.428 1064.5,-146.428"/>
</g>
<!-- Node19&#45;&gt;Node6 -->
<g id="edge32" class="edge"><title>Node19&#45;&gt;Node6</title>
<path fill="none" stroke="midnightblue" d="M481.699,-327.553C486.184,-326.294 490.646,-325.096 495,-324 589.551,-300.194 701.456,-280.965 767.372,-270.537"/>
<polygon fill="midnightblue" stroke="midnightblue" points="480.511,-324.253 471.878,-330.395 482.457,-330.977 480.511,-324.253"/>
</g>
<!-- Node19&#45;&gt;Node9 -->
<g id="edge33" class="edge"><title>Node19&#45;&gt;Node9</title>
<path fill="none" stroke="midnightblue" d="M410.455,-320.323C406.786,-294.592 397.835,-257.839 376,-234 348.013,-203.444 312.956,-232.496 290,-198 260.453,-153.6 253.115,-116.522 290,-78 333.448,-32.623 1290.93,-23.77 1526.84,-22.2752"/>
<polygon fill="midnightblue" stroke="midnightblue" points="406.984,-320.776 411.69,-330.268 413.931,-319.913 406.984,-320.776"/>
</g>
<!-- Node19&#45;&gt;Node16 -->
<g id="edge34" class="edge"><title>Node19&#45;&gt;Node16</title>
<path fill="none" stroke="midnightblue" d="M383.039,-323.896C369.712,-312.283 354.083,-298.666 340.883,-287.166"/>
<polygon fill="midnightblue" stroke="midnightblue" points="380.746,-326.54 390.585,-330.47 385.344,-321.262 380.746,-326.54"/>
</g>
<!-- Node19&#45;&gt;Node17 -->
<g id="edge35" class="edge"><title>Node19&#45;&gt;Node17</title>
<path fill="none" stroke="midnightblue" d="M446.396,-324.221C461.53,-312.538 479.361,-298.774 494.399,-287.166"/>
<polygon fill="midnightblue" stroke="midnightblue" points="444.078,-321.589 438.3,-330.47 448.355,-327.13 444.078,-321.589"/>
</g>
<!-- Node20&#45;&gt;Node4 -->
<g id="edge37" class="edge"><title>Node20&#45;&gt;Node4</title>
<path fill="none" stroke="midnightblue" d="M1331.25,-497.023C1318.74,-495.219 1306.07,-493.491 1294,-492 1095.23,-467.446 857.748,-447.947 754.376,-439.942"/>
<polygon fill="midnightblue" stroke="midnightblue" points="1330.84,-500.499 1341.24,-498.483 1331.85,-493.573 1330.84,-500.499"/>
</g>
<!-- Node20&#45;&gt;Node9 -->
<g id="edge38" class="edge"><title>Node20&#45;&gt;Node9</title>
<path fill="none" stroke="midnightblue" d="M1518.73,-506.893C1601.24,-500.437 1713.07,-486.262 1745,-456 1779.43,-423.367 1769,-399.437 1769,-352 1769,-352 1769,-352 1769,-176 1769,-131.157 1775.33,-111.03 1745,-78 1715.79,-46.1877 1667.91,-32.4372 1631.06,-26.4991"/>
<polygon fill="midnightblue" stroke="midnightblue" points="1518.28,-503.418 1508.57,-507.662 1518.8,-510.398 1518.28,-503.418"/>
</g>
<!-- Node21&#45;&gt;Node4 -->
<g id="edge40" class="edge"><title>Node21&#45;&gt;Node4</title>
<path fill="none" stroke="midnightblue" d="M702,-560.365C702,-529.606 702,-482.358 702,-455.832"/>
<polygon fill="midnightblue" stroke="midnightblue" points="698.5,-560.496 702,-570.496 705.5,-560.496 698.5,-560.496"/>
</g>
<!-- Node22&#45;&gt;Node4 -->
<g id="edge42" class="edge"><title>Node22&#45;&gt;Node4</title>
<path fill="none" stroke="midnightblue" d="M158.526,-492.033C344.791,-461.001 554.443,-445.22 649.939,-439.078"/>
<polygon fill="midnightblue" stroke="midnightblue" points="157.83,-488.601 148.551,-493.714 158.993,-495.504 157.83,-488.601"/>
</g>
<!-- Node22&#45;&gt;Node9 -->
<g id="edge43" class="edge"><title>Node22&#45;&gt;Node9</title>
<path fill="none" stroke="midnightblue" d="M82.0255,-482.477C89.9845,-450.559 101,-398.063 101,-352 101,-352 101,-352 101,-176 101,-127.694 107.63,-104.528 148,-78 206.666,-39.4497 1275.83,-25.3313 1526.65,-22.5424"/>
<polygon fill="midnightblue" stroke="midnightblue" points="78.5558,-481.918 79.4639,-492.474 85.3367,-483.655 78.5558,-481.918"/>
</g>
<!-- Node23&#45;&gt;Node4 -->
<g id="edge45" class="edge"><title>Node23&#45;&gt;Node4</title>
<path fill="none" stroke="midnightblue" d="M329.14,-497.737C423.445,-482.122 571.617,-457.588 649.752,-444.651"/>
<polygon fill="midnightblue" stroke="midnightblue" points="328.346,-494.321 319.052,-499.408 329.489,-501.227 328.346,-494.321"/>
</g>
<!-- Node23&#45;&gt;Node9 -->
<g id="edge46" class="edge"><title>Node23&#45;&gt;Node9</title>
<path fill="none" stroke="midnightblue" d="M203.183,-485.871C192.985,-477.443 182.948,-467.315 176,-456 151.177,-415.576 152,-399.437 152,-352 152,-352 152,-352 152,-176 152,-131.157 141.28,-106.38 176,-78 229.231,-34.4894 1278.45,-24.1754 1526.68,-22.3404"/>
<polygon fill="midnightblue" stroke="midnightblue" points="201.308,-488.848 211.34,-492.256 205.623,-483.336 201.308,-488.848"/>
</g>
<!-- Node24&#45;&gt;Node4 -->
<g id="edge49" class="edge"><title>Node24&#45;&gt;Node4</title>
<path fill="none" stroke="midnightblue" d="M826.959,-488.469C801.769,-477.892 772.393,-465.557 748.454,-455.506"/>
<polygon fill="midnightblue" stroke="midnightblue" points="825.813,-491.784 836.388,-492.428 828.523,-485.33 825.813,-491.784"/>
</g>
<!-- Node24&#45;&gt;Node9 -->
<g id="edge50" class="edge"><title>Node24&#45;&gt;Node9</title>
<path fill="none" stroke="midnightblue" d="M963.187,-489.595C1136.59,-439.347 1536.9,-313.031 1612,-198 1641.24,-153.216 1637.91,-128.739 1621,-78 1616.5,-64.5109 1607.34,-51.6545 1598.72,-41.6701"/>
<polygon fill="midnightblue" stroke="midnightblue" points="961.986,-486.299 953.349,-492.435 963.928,-493.024 961.986,-486.299"/>
</g>
<!-- Node25&#45;&gt;Node4 -->
<g id="edge52" class="edge"><title>Node25&#45;&gt;Node4</title>
<path fill="none" stroke="midnightblue" d="M965.458,-491.898C885.643,-474.317 805.26,-457.427 754.151,-446.791"/>
<polygon fill="midnightblue" stroke="midnightblue" points="965.175,-495.419 975.694,-494.157 966.683,-488.584 965.175,-495.419"/>
</g>
<!-- Node25&#45;&gt;Node9 -->
<g id="edge53" class="edge"><title>Node25&#45;&gt;Node9</title>
<path fill="none" stroke="midnightblue" d="M1140.42,-492.077C1232.52,-480.652 1431.3,-500.604 1493,-456 1545.08,-418.354 1503.88,-366.588 1552,-324 1592.74,-287.943 1636.68,-331.764 1669,-288 1724.45,-212.924 1714.33,-159.588 1669,-78 1660.24,-62.2348 1645,-50.3333 1629.52,-41.6477"/>
<polygon fill="midnightblue" stroke="midnightblue" points="1139.66,-488.651 1130.26,-493.544 1140.66,-495.579 1139.66,-488.651"/>
</g>
<!-- Node26&#45;&gt;Node4 -->
<g id="edge55" class="edge"><title>Node26&#45;&gt;Node4</title>
<path fill="none" stroke="midnightblue" d="M1138.27,-491.979C993.789,-464.826 834.543,-448.101 754.127,-440.578"/>
<polygon fill="midnightblue" stroke="midnightblue" points="1137.72,-495.439 1148.2,-493.868 1139.03,-488.562 1137.72,-495.439"/>
</g>
<!-- Node26&#45;&gt;Node9 -->
<g id="edge56" class="edge"><title>Node26&#45;&gt;Node9</title>
<path fill="none" stroke="midnightblue" d="M1295.52,-497.631C1308.03,-495.581 1320.85,-493.622 1333,-492 1416.86,-480.805 1649.66,-513.195 1712,-456 1746.62,-424.234 1731,-398.987 1731,-352 1731,-352 1731,-352 1731,-176 1731,-131.157 1735.86,-112.318 1707,-78 1687.8,-55.1673 1657.5,-41.3477 1631.2,-33.1512"/>
<polygon fill="midnightblue" stroke="midnightblue" points="1294.85,-494.193 1285.57,-499.29 1296.01,-501.098 1294.85,-494.193"/>
</g>
<!-- Node27&#45;&gt;Node3 -->
<g id="edge58" class="edge"><title>Node27&#45;&gt;Node3</title>
<path fill="none" stroke="midnightblue" d="M482.352,-563.492C471.322,-553.629 459.017,-542.627 448.815,-533.506"/>
<polygon fill="midnightblue" stroke="midnightblue" points="480.323,-566.372 490.11,-570.428 484.989,-561.154 480.323,-566.372"/>
</g>
<!-- Node27&#45;&gt;Node4 -->
<g id="edge59" class="edge"><title>Node27&#45;&gt;Node4</title>
<path fill="none" stroke="midnightblue" d="M544.209,-563.894C582.028,-533.24 643.891,-483.099 677.832,-455.588"/>
<polygon fill="midnightblue" stroke="midnightblue" points="541.628,-561.48 536.064,-570.496 546.036,-566.918 541.628,-561.48"/>
</g>
<!-- Node27&#45;&gt;Node9 -->
<g id="edge60" class="edge"><title>Node27&#45;&gt;Node9</title>
<path fill="none" stroke="midnightblue" d="M431.971,-566.983C409.549,-558.543 385.888,-547.63 366,-534 345.235,-519.77 348.319,-506.86 328,-492 296.856,-469.222 277.463,-482.051 249,-456 209.798,-420.121 190,-405.142 190,-352 190,-352 190,-352 190,-176 190,-129.285 190.011,-105.187 228,-78 281.691,-39.5758 1284.62,-25.4355 1526.73,-22.5743"/>
<polygon fill="midnightblue" stroke="midnightblue" points="430.896,-570.317 441.49,-570.45 433.292,-563.739 430.896,-570.317"/>
</g>
<!-- Node28&#45;&gt;Node18 -->
<g id="edge62" class="edge"><title>Node28&#45;&gt;Node18</title>
<path fill="none" stroke="midnightblue" d="M1622.9,-403.881C1622.5,-393.133 1622.07,-381.309 1621.72,-371.667"/>
<polygon fill="midnightblue" stroke="midnightblue" points="1619.41,-404.285 1623.27,-414.15 1626.41,-404.029 1619.41,-404.285"/>
</g>
</g>
</svg>
