<?xml version="1.0" encoding="UTF-8" standalone="no"?>
<!DOCTYPE svg PUBLIC "-//W3C//DTD SVG 1.1//EN"
 "http://www.w3.org/Graphics/SVG/1.1/DTD/svg11.dtd">
<!-- Generated by graphviz version 2.36.0 (20140111.2315)
 -->
<!-- Title: /home/travis/build/mgerhardy/simpleai/src/ai/common/MoveVector.h Pages: 1 -->
<svg width="2047pt" height="776pt"
 viewBox="0.00 0.00 2047.00 776.00" xmlns="http://www.w3.org/2000/svg" xmlns:xlink="http://www.w3.org/1999/xlink">
<g id="graph0" class="graph" transform="scale(1 1) rotate(0) translate(4 772)">
<title>/home/travis/build/mgerhardy/simpleai/src/ai/common/MoveVector.h</title>
<polygon fill="white" stroke="none" points="-4,4 -4,-772 2043,-772 2043,4 -4,4"/>
<!-- Node1 -->
<g id="node1" class="node"><title>Node1</title>
<polygon fill="#bfbfbf" stroke="black" points="1621,-726.5 1621,-767.5 1769,-767.5 1769,-726.5 1621,-726.5"/>
<text text-anchor="start" x="1629" y="-755.5" font-family="Helvetica,sans-Serif" font-size="10.00">/home/travis/build</text>
<text text-anchor="start" x="1629" y="-744.5" font-family="Helvetica,sans-Serif" font-size="10.00">/mgerhardy/simpleai</text>
<text text-anchor="middle" x="1695" y="-733.5" font-family="Helvetica,sans-Serif" font-size="10.00">/src/ai/common/MoveVector.h</text>
</g>
<!-- Node2 -->
<g id="node2" class="node"><title>Node2</title>
<g id="a_node2"><a xlink:href="Steering_8h.html" target="_top" xlink:title="Defines some basic movement algorithms like Wandering, Seeking and Fleeing. ">
<polygon fill="white" stroke="black" points="1281,-648.5 1281,-689.5 1421,-689.5 1421,-648.5 1281,-648.5"/>
<text text-anchor="start" x="1289" y="-677.5" font-family="Helvetica,sans-Serif" font-size="10.00">/home/travis/build</text>
<text text-anchor="start" x="1289" y="-666.5" font-family="Helvetica,sans-Serif" font-size="10.00">/mgerhardy/simpleai</text>
<text text-anchor="middle" x="1351" y="-655.5" font-family="Helvetica,sans-Serif" font-size="10.00">/src/ai/movement/Steering.h</text>
</a>
</g>
</g>
<!-- Node1&#45;&gt;Node2 -->
<g id="edge1" class="edge"><title>Node1&#45;&gt;Node2</title>
<path fill="none" stroke="midnightblue" d="M1610.88,-727.414C1552.7,-714.562 1476.19,-697.658 1421.27,-685.525"/>
<polygon fill="midnightblue" stroke="midnightblue" points="1610.26,-730.863 1620.78,-729.603 1611.77,-724.028 1610.26,-730.863"/>
</g>
<!-- Node9 -->
<g id="node9" class="node"><title>Node9</title>
<g id="a_node9"><a xlink:href="SimpleAI_8h.html" target="_top" xlink:title="/home/travis/build\l/mgerhardy/simpleai\l/src/ai/SimpleAI.h">
<polygon fill="white" stroke="black" points="1519,-0.5 1519,-41.5 1623,-41.5 1623,-0.5 1519,-0.5"/>
<text text-anchor="start" x="1527" y="-29.5" font-family="Helvetica,sans-Serif" font-size="10.00">/home/travis/build</text>
<text text-anchor="start" x="1527" y="-18.5" font-family="Helvetica,sans-Serif" font-size="10.00">/mgerhardy/simpleai</text>
<text text-anchor="middle" x="1571" y="-7.5" font-family="Helvetica,sans-Serif" font-size="10.00">/src/ai/SimpleAI.h</text>
</a>
</g>
</g>
<!-- Node1&#45;&gt;Node9 -->
<g id="edge63" class="edge"><title>Node1&#45;&gt;Node9</title>
<path fill="none" stroke="midnightblue" d="M1779.2,-743.695C1881.04,-735.899 2039,-705.51 2039,-592 2039,-592 2039,-592 2039,-176 2039,-113.771 1994.67,-105.802 1939,-78 1884.58,-50.8237 1711.2,-33.3341 1623.25,-25.9803"/>
<polygon fill="midnightblue" stroke="midnightblue" points="1778.95,-740.204 1769.22,-744.401 1779.44,-747.186 1778.95,-740.204"/>
</g>
<!-- Node3 -->
<g id="node3" class="node"><title>Node3</title>
<g id="a_node3"><a xlink:href="Steer_8h.html" target="_top" xlink:title="/home/travis/build\l/mgerhardy/simpleai\l/src/ai/tree/Steer.h">
<polygon fill="white" stroke="black" points="835,-492.5 835,-533.5 939,-533.5 939,-492.5 835,-492.5"/>
<text text-anchor="start" x="843" y="-521.5" font-family="Helvetica,sans-Serif" font-size="10.00">/home/travis/build</text>
<text text-anchor="start" x="843" y="-510.5" font-family="Helvetica,sans-Serif" font-size="10.00">/mgerhardy/simpleai</text>
<text text-anchor="middle" x="887" y="-499.5" font-family="Helvetica,sans-Serif" font-size="10.00">/src/ai/tree/Steer.h</text>
</a>
</g>
</g>
<!-- Node2&#45;&gt;Node3 -->
<g id="edge2" class="edge"><title>Node2&#45;&gt;Node3</title>
<path fill="none" stroke="midnightblue" d="M1270.69,-665.32C1129.88,-659.788 850.493,-644.773 821,-612 808.513,-598.125 813.158,-586.939 821,-570 827.818,-555.273 840.63,-543.005 853.165,-533.742"/>
<polygon fill="midnightblue" stroke="midnightblue" points="1270.87,-668.829 1280.99,-665.718 1271.14,-661.835 1270.87,-668.829"/>
</g>
<!-- Node4 -->
<g id="node4" class="node"><title>Node4</title>
<g id="a_node4"><a xlink:href="AIRegistry_8h.html" target="_top" xlink:title="/home/travis/build\l/mgerhardy/simpleai\l/src/ai/AIRegistry.h">
<polygon fill="white" stroke="black" points="1128,-414.5 1128,-455.5 1232,-455.5 1232,-414.5 1128,-414.5"/>
<text text-anchor="start" x="1136" y="-443.5" font-family="Helvetica,sans-Serif" font-size="10.00">/home/travis/build</text>
<text text-anchor="start" x="1136" y="-432.5" font-family="Helvetica,sans-Serif" font-size="10.00">/mgerhardy/simpleai</text>
<text text-anchor="middle" x="1180" y="-421.5" font-family="Helvetica,sans-Serif" font-size="10.00">/src/ai/AIRegistry.h</text>
</a>
</g>
</g>
<!-- Node2&#45;&gt;Node4 -->
<g id="edge46" class="edge"><title>Node2&#45;&gt;Node4</title>
<path fill="none" stroke="midnightblue" d="M1270.56,-662.873C1197.54,-656.342 1097.61,-642.063 1073,-612 1056.82,-592.231 1078.43,-504.443 1087,-492 1097.69,-476.479 1114.22,-464.539 1130.4,-455.75"/>
<polygon fill="midnightblue" stroke="midnightblue" points="1270.41,-666.373 1280.68,-663.744 1271.02,-659.399 1270.41,-666.373"/>
</g>
<!-- Node2&#45;&gt;Node9 -->
<g id="edge62" class="edge"><title>Node2&#45;&gt;Node9</title>
<path fill="none" stroke="midnightblue" d="M1431.3,-665.74C1605.18,-658.665 2001,-629.838 2001,-514 2001,-514 2001,-514 2001,-176 2001,-105.406 1940.36,-106.995 1876,-78 1792.68,-40.4651 1685.75,-28.0857 1623.16,-24.0047"/>
<polygon fill="midnightblue" stroke="midnightblue" points="1431.03,-662.248 1421.18,-666.138 1431.31,-669.243 1431.03,-662.248"/>
</g>
<!-- Node20 -->
<g id="node20" class="node"><title>Node20</title>
<g id="a_node20"><a xlink:href="SelectionSeek_8h.html" target="_top" xlink:title="/home/travis/build\l/mgerhardy/simpleai\l/src/ai/movement/SelectionSeek.h">
<polygon fill="white" stroke="black" points="1639.5,-492.5 1639.5,-533.5 1806.5,-533.5 1806.5,-492.5 1639.5,-492.5"/>
<text text-anchor="start" x="1647.5" y="-521.5" font-family="Helvetica,sans-Serif" font-size="10.00">/home/travis/build</text>
<text text-anchor="start" x="1647.5" y="-510.5" font-family="Helvetica,sans-Serif" font-size="10.00">/mgerhardy/simpleai</text>
<text text-anchor="middle" x="1723" y="-499.5" font-family="Helvetica,sans-Serif" font-size="10.00">/src/ai/movement/SelectionSeek.h</text>
</a>
</g>
</g>
<!-- Node2&#45;&gt;Node20 -->
<g id="edge35" class="edge"><title>Node2&#45;&gt;Node20</title>
<path fill="none" stroke="midnightblue" d="M1431.29,-664.009C1488.51,-658.307 1565.66,-644.63 1626,-612 1661.59,-592.757 1692.46,-556.212 1709.34,-533.595"/>
<polygon fill="midnightblue" stroke="midnightblue" points="1430.84,-660.536 1421.21,-664.952 1431.49,-667.505 1430.84,-660.536"/>
</g>
<!-- Node21 -->
<g id="node21" class="node"><title>Node21</title>
<g id="a_node21"><a xlink:href="SelectionFlee_8h.html" target="_top" xlink:title="/home/travis/build\l/mgerhardy/simpleai\l/src/ai/movement/SelectionFlee.h">
<polygon fill="white" stroke="black" points="1082.5,-570.5 1082.5,-611.5 1245.5,-611.5 1245.5,-570.5 1082.5,-570.5"/>
<text text-anchor="start" x="1090.5" y="-599.5" font-family="Helvetica,sans-Serif" font-size="10.00">/home/travis/build</text>
<text text-anchor="start" x="1090.5" y="-588.5" font-family="Helvetica,sans-Serif" font-size="10.00">/mgerhardy/simpleai</text>
<text text-anchor="middle" x="1164" y="-577.5" font-family="Helvetica,sans-Serif" font-size="10.00">/src/ai/movement/SelectionFlee.h</text>
</a>
</g>
</g>
<!-- Node2&#45;&gt;Node21 -->
<g id="edge38" class="edge"><title>Node2&#45;&gt;Node21</title>
<path fill="none" stroke="midnightblue" d="M1293.44,-644.609C1267.34,-634.001 1236.84,-621.602 1211.99,-611.506"/>
<polygon fill="midnightblue" stroke="midnightblue" points="1292.26,-647.905 1302.84,-648.428 1294.9,-641.421 1292.26,-647.905"/>
</g>
<!-- Node22 -->
<g id="node22" class="node"><title>Node22</title>
<g id="a_node22"><a xlink:href="GroupFlee_8h.html" target="_top" xlink:title="/home/travis/build\l/mgerhardy/simpleai\l/src/ai/movement/GroupFlee.h">
<polygon fill="white" stroke="black" points="1824.5,-492.5 1824.5,-533.5 1973.5,-533.5 1973.5,-492.5 1824.5,-492.5"/>
<text text-anchor="start" x="1832.5" y="-521.5" font-family="Helvetica,sans-Serif" font-size="10.00">/home/travis/build</text>
<text text-anchor="start" x="1832.5" y="-510.5" font-family="Helvetica,sans-Serif" font-size="10.00">/mgerhardy/simpleai</text>
<text text-anchor="middle" x="1899" y="-499.5" font-family="Helvetica,sans-Serif" font-size="10.00">/src/ai/movement/GroupFlee.h</text>
</a>
</g>
</g>
<!-- Node2&#45;&gt;Node22 -->
<g id="edge40" class="edge"><title>Node2&#45;&gt;Node22</title>
<path fill="none" stroke="midnightblue" d="M1431.24,-658.742C1495.59,-650.128 1587.75,-635.1 1666,-612 1736.5,-591.19 1814.49,-555.657 1859.99,-533.577"/>
<polygon fill="midnightblue" stroke="midnightblue" points="1430.62,-655.294 1421.16,-660.07 1431.53,-662.234 1430.62,-655.294"/>
</g>
<!-- Node23 -->
<g id="node23" class="node"><title>Node23</title>
<g id="a_node23"><a xlink:href="GroupSeek_8h.html" target="_top" xlink:title="/home/travis/build\l/mgerhardy/simpleai\l/src/ai/movement/GroupSeek.h">
<polygon fill="white" stroke="black" points="0,-492.5 0,-533.5 152,-533.5 152,-492.5 0,-492.5"/>
<text text-anchor="start" x="8" y="-521.5" font-family="Helvetica,sans-Serif" font-size="10.00">/home/travis/build</text>
<text text-anchor="start" x="8" y="-510.5" font-family="Helvetica,sans-Serif" font-size="10.00">/mgerhardy/simpleai</text>
<text text-anchor="middle" x="76" y="-499.5" font-family="Helvetica,sans-Serif" font-size="10.00">/src/ai/movement/GroupSeek.h</text>
</a>
</g>
</g>
<!-- Node2&#45;&gt;Node23 -->
<g id="edge43" class="edge"><title>Node2&#45;&gt;Node23</title>
<path fill="none" stroke="midnightblue" d="M1270.82,-662.108C1078.98,-647.32 578.744,-604.68 166,-534 161.425,-533.217 156.731,-532.354 152.005,-531.44"/>
<polygon fill="midnightblue" stroke="midnightblue" points="1270.58,-665.599 1280.82,-662.875 1271.12,-658.62 1270.58,-665.599"/>
</g>
<!-- Node24 -->
<g id="node24" class="node"><title>Node24</title>
<g id="a_node24"><a xlink:href="TargetFlee_8h.html" target="_top" xlink:title="/home/travis/build\l/mgerhardy/simpleai\l/src/ai/movement/TargetFlee.h">
<polygon fill="white" stroke="black" points="1106,-492.5 1106,-533.5 1256,-533.5 1256,-492.5 1106,-492.5"/>
<text text-anchor="start" x="1114" y="-521.5" font-family="Helvetica,sans-Serif" font-size="10.00">/home/travis/build</text>
<text text-anchor="start" x="1114" y="-510.5" font-family="Helvetica,sans-Serif" font-size="10.00">/mgerhardy/simpleai</text>
<text text-anchor="middle" x="1181" y="-499.5" font-family="Helvetica,sans-Serif" font-size="10.00">/src/ai/movement/TargetFlee.h</text>
</a>
</g>
</g>
<!-- Node2&#45;&gt;Node24 -->
<g id="edge47" class="edge"><title>Node2&#45;&gt;Node24</title>
<path fill="none" stroke="midnightblue" d="M1326.26,-641.08C1307.19,-620.815 1279.8,-592.738 1254,-570 1239.5,-557.22 1222.4,-544.011 1208.39,-533.633"/>
<polygon fill="midnightblue" stroke="midnightblue" points="1323.75,-643.524 1333.14,-648.436 1328.86,-638.742 1323.75,-643.524"/>
</g>
<!-- Node25 -->
<g id="node25" class="node"><title>Node25</title>
<g id="a_node25"><a xlink:href="TargetSeek_8h.html" target="_top" xlink:title="/home/travis/build\l/mgerhardy/simpleai\l/src/ai/movement/TargetSeek.h">
<polygon fill="white" stroke="black" points="1274,-492.5 1274,-533.5 1428,-533.5 1428,-492.5 1274,-492.5"/>
<text text-anchor="start" x="1282" y="-521.5" font-family="Helvetica,sans-Serif" font-size="10.00">/home/travis/build</text>
<text text-anchor="start" x="1282" y="-510.5" font-family="Helvetica,sans-Serif" font-size="10.00">/mgerhardy/simpleai</text>
<text text-anchor="middle" x="1351" y="-499.5" font-family="Helvetica,sans-Serif" font-size="10.00">/src/ai/movement/TargetSeek.h</text>
</a>
</g>
</g>
<!-- Node2&#45;&gt;Node25 -->
<g id="edge50" class="edge"><title>Node2&#45;&gt;Node25</title>
<path fill="none" stroke="midnightblue" d="M1351,-638.365C1351,-607.606 1351,-560.358 1351,-533.832"/>
<polygon fill="midnightblue" stroke="midnightblue" points="1347.5,-638.496 1351,-648.496 1354.5,-638.496 1347.5,-638.496"/>
</g>
<!-- Node26 -->
<g id="node26" class="node"><title>Node26</title>
<g id="a_node26"><a xlink:href="Wander_8h.html" target="_top" xlink:title="/home/travis/build\l/mgerhardy/simpleai\l/src/ai/movement/Wander.h">
<polygon fill="white" stroke="black" points="1446.5,-492.5 1446.5,-533.5 1583.5,-533.5 1583.5,-492.5 1446.5,-492.5"/>
<text text-anchor="start" x="1454.5" y="-521.5" font-family="Helvetica,sans-Serif" font-size="10.00">/home/travis/build</text>
<text text-anchor="start" x="1454.5" y="-510.5" font-family="Helvetica,sans-Serif" font-size="10.00">/mgerhardy/simpleai</text>
<text text-anchor="middle" x="1515" y="-499.5" font-family="Helvetica,sans-Serif" font-size="10.00">/src/ai/movement/Wander.h</text>
</a>
</g>
</g>
<!-- Node2&#45;&gt;Node26 -->
<g id="edge53" class="edge"><title>Node2&#45;&gt;Node26</title>
<path fill="none" stroke="midnightblue" d="M1379.21,-641.506C1411.89,-610.819 1464.97,-560.984 1494.14,-533.588"/>
<polygon fill="midnightblue" stroke="midnightblue" points="1376.66,-639.099 1371.77,-648.496 1381.46,-644.202 1376.66,-639.099"/>
</g>
<!-- Node27 -->
<g id="node27" class="node"><title>Node27</title>
<g id="a_node27"><a xlink:href="WeightedSteering_8h.html" target="_top" xlink:title="/home/travis/build\l/mgerhardy/simpleai\l/src/ai/movement/WeightedSteering.h">
<polygon fill="white" stroke="black" points="830.5,-570.5 830.5,-611.5 1011.5,-611.5 1011.5,-570.5 830.5,-570.5"/>
<text text-anchor="start" x="838.5" y="-599.5" font-family="Helvetica,sans-Serif" font-size="10.00">/home/travis/build</text>
<text text-anchor="start" x="838.5" y="-588.5" font-family="Helvetica,sans-Serif" font-size="10.00">/mgerhardy/simpleai</text>
<text text-anchor="middle" x="921" y="-577.5" font-family="Helvetica,sans-Serif" font-size="10.00">/src/ai/movement/WeightedSteering.h</text>
</a>
</g>
</g>
<!-- Node2&#45;&gt;Node27 -->
<g id="edge56" class="edge"><title>Node2&#45;&gt;Node27</title>
<path fill="none" stroke="midnightblue" d="M1270.99,-654.616C1205.16,-643.509 1109.46,-627.138 1026,-612 1021.34,-611.155 1016.57,-610.281 1011.76,-609.39"/>
<polygon fill="midnightblue" stroke="midnightblue" points="1270.44,-658.073 1280.88,-656.284 1271.6,-651.171 1270.44,-658.073"/>
</g>
<!-- Node28 -->
<g id="node28" class="node"><title>Node28</title>
<g id="a_node28"><a xlink:href="LUASteering_8h.html" target="_top" xlink:title="/home/travis/build\l/mgerhardy/simpleai\l/src/ai/movement/LUASteering.h">
<polygon fill="white" stroke="black" points="1636.5,-414.5 1636.5,-455.5 1795.5,-455.5 1795.5,-414.5 1636.5,-414.5"/>
<text text-anchor="start" x="1644.5" y="-443.5" font-family="Helvetica,sans-Serif" font-size="10.00">/home/travis/build</text>
<text text-anchor="start" x="1644.5" y="-432.5" font-family="Helvetica,sans-Serif" font-size="10.00">/mgerhardy/simpleai</text>
<text text-anchor="middle" x="1716" y="-421.5" font-family="Helvetica,sans-Serif" font-size="10.00">/src/ai/movement/LUASteering.h</text>
</a>
</g>
</g>
<!-- Node2&#45;&gt;Node28 -->
<g id="edge60" class="edge"><title>Node2&#45;&gt;Node28</title>
<path fill="none" stroke="midnightblue" d="M1404.96,-644.069C1455.86,-620.137 1532.95,-580.299 1592,-534 1612.05,-518.283 1611.56,-508.459 1631,-492 1646.92,-478.527 1666.22,-465.576 1682.4,-455.529"/>
<polygon fill="midnightblue" stroke="midnightblue" points="1403.36,-640.955 1395.77,-648.351 1406.32,-647.3 1403.36,-640.955"/>
</g>
<!-- Node3&#45;&gt;Node4 -->
<g id="edge3" class="edge"><title>Node3&#45;&gt;Node4</title>
<path fill="none" stroke="midnightblue" d="M949.029,-495.91C1002.19,-482.121 1077.89,-462.486 1127.95,-449.502"/>
<polygon fill="midnightblue" stroke="midnightblue" points="947.846,-492.602 939.045,-498.5 949.603,-499.377 947.846,-492.602"/>
</g>
<!-- Node3&#45;&gt;Node9 -->
<g id="edge29" class="edge"><title>Node3&#45;&gt;Node9</title>
<path fill="none" stroke="midnightblue" d="M824.637,-510.678C655.554,-505.416 201,-479.422 201,-352 201,-352 201,-352 201,-176 201,-101.858 266.019,-102.489 336,-78 448.688,-38.567 1298.42,-25.3769 1518.88,-22.6001"/>
<polygon fill="midnightblue" stroke="midnightblue" points="824.776,-514.184 834.875,-510.982 824.984,-507.187 824.776,-514.184"/>
</g>
<!-- Node19 -->
<g id="node19" class="node"><title>Node19</title>
<g id="a_node19"><a xlink:href="TreeNodeParser_8h.html" target="_top" xlink:title="/home/travis/build\l/mgerhardy/simpleai\l/src/ai/tree/TreeNodeParser.h">
<polygon fill="white" stroke="black" points="814,-330.5 814,-371.5 960,-371.5 960,-330.5 814,-330.5"/>
<text text-anchor="start" x="822" y="-359.5" font-family="Helvetica,sans-Serif" font-size="10.00">/home/travis/build</text>
<text text-anchor="start" x="822" y="-348.5" font-family="Helvetica,sans-Serif" font-size="10.00">/mgerhardy/simpleai</text>
<text text-anchor="middle" x="887" y="-337.5" font-family="Helvetica,sans-Serif" font-size="10.00">/src/ai/tree/TreeNodeParser.h</text>
</a>
</g>
</g>
<!-- Node3&#45;&gt;Node19 -->
<g id="edge30" class="edge"><title>Node3&#45;&gt;Node19</title>
<path fill="none" stroke="midnightblue" d="M887,-482.206C887,-449.962 887,-399.458 887,-371.78"/>
<polygon fill="midnightblue" stroke="midnightblue" points="883.5,-482.381 887,-492.381 890.5,-482.381 883.5,-482.381"/>
</g>
<!-- Node5 -->
<g id="node5" class="node"><title>Node5</title>
<g id="a_node5"><a xlink:href="ConditionParser_8h.html" target="_top" xlink:title="/home/travis/build\l/mgerhardy/simpleai\l/src/ai/conditions/Condition\lParser.h">
<polygon fill="white" stroke="black" points="978.5,-325 978.5,-377 1113.5,-377 1113.5,-325 978.5,-325"/>
<text text-anchor="start" x="986.5" y="-365" font-family="Helvetica,sans-Serif" font-size="10.00">/home/travis/build</text>
<text text-anchor="start" x="986.5" y="-354" font-family="Helvetica,sans-Serif" font-size="10.00">/mgerhardy/simpleai</text>
<text text-anchor="start" x="986.5" y="-343" font-family="Helvetica,sans-Serif" font-size="10.00">/src/ai/conditions/Condition</text>
<text text-anchor="middle" x="1046" y="-332" font-family="Helvetica,sans-Serif" font-size="10.00">Parser.h</text>
</a>
</g>
</g>
<!-- Node4&#45;&gt;Node5 -->
<g id="edge4" class="edge"><title>Node4&#45;&gt;Node5</title>
<path fill="none" stroke="midnightblue" d="M1139.02,-408.921C1122.5,-398.816 1103.49,-387.183 1086.98,-377.078"/>
<polygon fill="midnightblue" stroke="midnightblue" points="1137.55,-412.125 1147.9,-414.359 1141.2,-406.154 1137.55,-412.125"/>
</g>
<!-- Node6 -->
<g id="node6" class="node"><title>Node6</title>
<g id="a_node6"><a xlink:href="Server_8h.html" target="_top" xlink:title="/home/travis/build\l/mgerhardy/simpleai\l/src/ai/server/Server.h">
<polygon fill="white" stroke="black" points="963.5,-240.5 963.5,-281.5 1076.5,-281.5 1076.5,-240.5 963.5,-240.5"/>
<text text-anchor="start" x="971.5" y="-269.5" font-family="Helvetica,sans-Serif" font-size="10.00">/home/travis/build</text>
<text text-anchor="start" x="971.5" y="-258.5" font-family="Helvetica,sans-Serif" font-size="10.00">/mgerhardy/simpleai</text>
<text text-anchor="middle" x="1020" y="-247.5" font-family="Helvetica,sans-Serif" font-size="10.00">/src/ai/server/Server.h</text>
</a>
</g>
</g>
<!-- Node4&#45;&gt;Node6 -->
<g id="edge26" class="edge"><title>Node4&#45;&gt;Node6</title>
<path fill="none" stroke="midnightblue" d="M1169.58,-404.572C1160.02,-380.736 1144.01,-347.389 1122,-324 1105.46,-306.417 1082.85,-291.997 1063.12,-281.503"/>
<polygon fill="midnightblue" stroke="midnightblue" points="1166.41,-406.082 1173.28,-414.149 1172.94,-403.559 1166.41,-406.082"/>
</g>
<!-- Node4&#45;&gt;Node9 -->
<g id="edge27" class="edge"><title>Node4&#45;&gt;Node9</title>
<path fill="none" stroke="midnightblue" d="M1242.36,-432.5C1348.29,-426.279 1552,-396.793 1552,-262 1552,-262 1552,-262 1552,-176 1552,-127.51 1561.39,-71.0739 1566.97,-41.8385"/>
<polygon fill="midnightblue" stroke="midnightblue" points="1241.92,-429.019 1232.12,-433.048 1242.29,-436.009 1241.92,-429.019"/>
</g>
<!-- Node16 -->
<g id="node16" class="node"><title>Node16</title>
<g id="a_node16"><a xlink:href="LUATreeLoader_8h.html" target="_top" xlink:title="/home/travis/build\l/mgerhardy/simpleai\l/src/ai/tree/loaders\l/lua/LUATreeLoader.h">
<polygon fill="white" stroke="black" points="1095,-235 1095,-287 1207,-287 1207,-235 1095,-235"/>
<text text-anchor="start" x="1103" y="-275" font-family="Helvetica,sans-Serif" font-size="10.00">/home/travis/build</text>
<text text-anchor="start" x="1103" y="-264" font-family="Helvetica,sans-Serif" font-size="10.00">/mgerhardy/simpleai</text>
<text text-anchor="start" x="1103" y="-253" font-family="Helvetica,sans-Serif" font-size="10.00">/src/ai/tree/loaders</text>
<text text-anchor="middle" x="1151" y="-242" font-family="Helvetica,sans-Serif" font-size="10.00">/lua/LUATreeLoader.h</text>
</a>
</g>
</g>
<!-- Node4&#45;&gt;Node16 -->
<g id="edge28" class="edge"><title>Node4&#45;&gt;Node16</title>
<path fill="none" stroke="midnightblue" d="M1174.99,-404.263C1169.4,-371.131 1160.47,-318.145 1155.22,-287.045"/>
<polygon fill="midnightblue" stroke="midnightblue" points="1171.56,-404.991 1176.67,-414.269 1178.46,-403.827 1171.56,-404.991"/>
</g>
<!-- Node18 -->
<g id="node18" class="node"><title>Node18</title>
<g id="a_node18"><a xlink:href="LUAAIRegistry_8h_source.html" target="_top" xlink:title="/home/travis/build\l/mgerhardy/simpleai\l/src/ai/LUAAIRegistry.h">
<polygon fill="white" stroke="black" points="1656.5,-330.5 1656.5,-371.5 1777.5,-371.5 1777.5,-330.5 1656.5,-330.5"/>
<text text-anchor="start" x="1664.5" y="-359.5" font-family="Helvetica,sans-Serif" font-size="10.00">/home/travis/build</text>
<text text-anchor="start" x="1664.5" y="-348.5" font-family="Helvetica,sans-Serif" font-size="10.00">/mgerhardy/simpleai</text>
<text text-anchor="middle" x="1717" y="-337.5" font-family="Helvetica,sans-Serif" font-size="10.00">/src/ai/LUAAIRegistry.h</text>
</a>
</g>
</g>
<!-- Node4&#45;&gt;Node18 -->
<g id="edge25" class="edge"><title>Node4&#45;&gt;Node18</title>
<path fill="none" stroke="midnightblue" d="M1242.13,-425.502C1318.47,-414.941 1451.91,-396.095 1566,-378 1595.82,-373.271 1628.88,-367.624 1656.44,-362.803"/>
<polygon fill="midnightblue" stroke="midnightblue" points="1241.63,-422.038 1232.2,-426.873 1242.58,-428.972 1241.63,-422.038"/>
</g>
<!-- Node5&#45;&gt;Node6 -->
<g id="edge5" class="edge"><title>Node5&#45;&gt;Node6</title>
<path fill="none" stroke="midnightblue" d="M1035.62,-314.859C1032.26,-303.503 1028.66,-291.326 1025.77,-281.525"/>
<polygon fill="midnightblue" stroke="midnightblue" points="1032.29,-315.948 1038.48,-324.547 1039,-313.965 1032.29,-315.948"/>
</g>
<!-- Node5&#45;&gt;Node16 -->
<g id="edge23" class="edge"><title>Node5&#45;&gt;Node16</title>
<path fill="none" stroke="midnightblue" d="M1083.89,-318.242C1096.06,-308.042 1109.37,-296.887 1120.91,-287.221"/>
<polygon fill="midnightblue" stroke="midnightblue" points="1081.5,-315.677 1076.09,-324.783 1086,-321.042 1081.5,-315.677"/>
</g>
<!-- Node17 -->
<g id="node17" class="node"><title>Node17</title>
<g id="a_node17"><a xlink:href="XMLTreeLoader_8h.html" target="_top" xlink:title="/home/travis/build\l/mgerhardy/simpleai\l/src/ai/tree/loaders\l/xml/XMLTreeLoader.h">
<polygon fill="white" stroke="black" points="829,-235 829,-287 945,-287 945,-235 829,-235"/>
<text text-anchor="start" x="837" y="-275" font-family="Helvetica,sans-Serif" font-size="10.00">/home/travis/build</text>
<text text-anchor="start" x="837" y="-264" font-family="Helvetica,sans-Serif" font-size="10.00">/mgerhardy/simpleai</text>
<text text-anchor="start" x="837" y="-253" font-family="Helvetica,sans-Serif" font-size="10.00">/src/ai/tree/loaders</text>
<text text-anchor="middle" x="887" y="-242" font-family="Helvetica,sans-Serif" font-size="10.00">/xml/XMLTreeLoader.h</text>
</a>
</g>
</g>
<!-- Node5&#45;&gt;Node17 -->
<g id="edge24" class="edge"><title>Node5&#45;&gt;Node17</title>
<path fill="none" stroke="midnightblue" d="M991.462,-319.815C972.183,-309.145 950.724,-297.268 932.295,-287.069"/>
<polygon fill="midnightblue" stroke="midnightblue" points="989.993,-323.003 1000.44,-324.783 993.382,-316.878 989.993,-323.003"/>
</g>
<!-- Node7 -->
<g id="node7" class="node"><title>Node7</title>
<g id="a_node7"><a xlink:href="ChangeHandler_8h.html" target="_top" xlink:title="/home/travis/build\l/mgerhardy/simpleai\l/src/ai/server/ChangeHandler.h">
<polygon fill="white" stroke="black" points="944,-156.5 944,-197.5 1096,-197.5 1096,-156.5 944,-156.5"/>
<text text-anchor="start" x="952" y="-185.5" font-family="Helvetica,sans-Serif" font-size="10.00">/home/travis/build</text>
<text text-anchor="start" x="952" y="-174.5" font-family="Helvetica,sans-Serif" font-size="10.00">/mgerhardy/simpleai</text>
<text text-anchor="middle" x="1020" y="-163.5" font-family="Helvetica,sans-Serif" font-size="10.00">/src/ai/server/ChangeHandler.h</text>
</a>
</g>
</g>
<!-- Node6&#45;&gt;Node7 -->
<g id="edge6" class="edge"><title>Node6&#45;&gt;Node7</title>
<path fill="none" stroke="midnightblue" d="M1020,-229.881C1020,-219.133 1020,-207.309 1020,-197.667"/>
<polygon fill="midnightblue" stroke="midnightblue" points="1016.5,-230.15 1020,-240.15 1023.5,-230.15 1016.5,-230.15"/>
</g>
<!-- Node8 -->
<g id="node8" class="node"><title>Node8</title>
<g id="a_node8"><a xlink:href="ServerImpl_8h.html" target="_top" xlink:title="/home/travis/build\l/mgerhardy/simpleai\l/src/ai/server/ServerImpl.h">
<polygon fill="white" stroke="black" points="954,-78.5 954,-119.5 1086,-119.5 1086,-78.5 954,-78.5"/>
<text text-anchor="start" x="962" y="-107.5" font-family="Helvetica,sans-Serif" font-size="10.00">/home/travis/build</text>
<text text-anchor="start" x="962" y="-96.5" font-family="Helvetica,sans-Serif" font-size="10.00">/mgerhardy/simpleai</text>
<text text-anchor="middle" x="1020" y="-85.5" font-family="Helvetica,sans-Serif" font-size="10.00">/src/ai/server/ServerImpl.h</text>
</a>
</g>
</g>
<!-- Node6&#45;&gt;Node8 -->
<g id="edge17" class="edge"><title>Node6&#45;&gt;Node8</title>
<path fill="none" stroke="midnightblue" d="M1070.62,-234.686C1084.29,-225.18 1097.39,-212.967 1105,-198 1113.46,-181.36 1113.85,-172.434 1105,-156 1096.62,-140.442 1081.82,-128.494 1066.89,-119.709"/>
<polygon fill="midnightblue" stroke="midnightblue" points="1068.54,-231.862 1062.07,-240.255 1072.36,-237.725 1068.54,-231.862"/>
</g>
<!-- Node6&#45;&gt;Node9 -->
<g id="edge22" class="edge"><title>Node6&#45;&gt;Node9</title>
<path fill="none" stroke="midnightblue" d="M1074.26,-237.224C1078.19,-236.007 1082.13,-234.912 1086,-234 1174.81,-213.063 1422.77,-253.743 1495,-198 1539.85,-163.387 1513.96,-129.299 1538,-78 1543.84,-65.534 1551.61,-52.2314 1558.14,-41.7207"/>
<polygon fill="midnightblue" stroke="midnightblue" points="1072.91,-233.983 1064.53,-240.469 1075.13,-240.623 1072.91,-233.983"/>
</g>
<!-- Node10 -->
<g id="node10" class="node"><title>Node10</title>
<g id="a_node10"><a xlink:href="DeleteNodeHandler_8h.html" target="_top" xlink:title="/home/travis/build\l/mgerhardy/simpleai\l/src/ai/server/DeleteNodeHandler.h">
<polygon fill="white" stroke="black" points="1152,-156.5 1152,-197.5 1322,-197.5 1322,-156.5 1152,-156.5"/>
<text text-anchor="start" x="1160" y="-185.5" font-family="Helvetica,sans-Serif" font-size="10.00">/home/travis/build</text>
<text text-anchor="start" x="1160" y="-174.5" font-family="Helvetica,sans-Serif" font-size="10.00">/mgerhardy/simpleai</text>
<text text-anchor="middle" x="1237" y="-163.5" font-family="Helvetica,sans-Serif" font-size="10.00">/src/ai/server/DeleteNodeHandler.h</text>
</a>
</g>
</g>
<!-- Node6&#45;&gt;Node10 -->
<g id="edge9" class="edge"><title>Node6&#45;&gt;Node10</title>
<path fill="none" stroke="midnightblue" d="M1078.79,-236.771C1081.22,-235.831 1083.63,-234.904 1086,-234 1118.25,-221.668 1154.53,-208.201 1183.44,-197.565"/>
<polygon fill="midnightblue" stroke="midnightblue" points="1077.39,-233.56 1069.33,-240.441 1079.92,-240.086 1077.39,-233.56"/>
</g>
<!-- Node11 -->
<g id="node11" class="node"><title>Node11</title>
<g id="a_node11"><a xlink:href="PauseHandler_8h.html" target="_top" xlink:title="/home/travis/build\l/mgerhardy/simpleai\l/src/ai/server/PauseHandler.h">
<polygon fill="white" stroke="black" points="1340,-156.5 1340,-197.5 1486,-197.5 1486,-156.5 1340,-156.5"/>
<text text-anchor="start" x="1348" y="-185.5" font-family="Helvetica,sans-Serif" font-size="10.00">/home/travis/build</text>
<text text-anchor="start" x="1348" y="-174.5" font-family="Helvetica,sans-Serif" font-size="10.00">/mgerhardy/simpleai</text>
<text text-anchor="middle" x="1413" y="-163.5" font-family="Helvetica,sans-Serif" font-size="10.00">/src/ai/server/PauseHandler.h</text>
</a>
</g>
</g>
<!-- Node6&#45;&gt;Node11 -->
<g id="edge11" class="edge"><title>Node6&#45;&gt;Node11</title>
<path fill="none" stroke="midnightblue" d="M1075.24,-237.184C1078.85,-236.02 1082.46,-234.944 1086,-234 1192.34,-205.644 1222.98,-219.062 1331,-198 1333.88,-197.439 1336.8,-196.844 1339.76,-196.223"/>
<polygon fill="midnightblue" stroke="midnightblue" points="1074.04,-233.896 1065.71,-240.442 1076.3,-240.519 1074.04,-233.896"/>
</g>
<!-- Node12 -->
<g id="node12" class="node"><title>Node12</title>
<g id="a_node12"><a xlink:href="ResetHandler_8h.html" target="_top" xlink:title="/home/travis/build\l/mgerhardy/simpleai\l/src/ai/server/ResetHandler.h">
<polygon fill="white" stroke="black" points="267.5,-156.5 267.5,-197.5 412.5,-197.5 412.5,-156.5 267.5,-156.5"/>
<text text-anchor="start" x="275.5" y="-185.5" font-family="Helvetica,sans-Serif" font-size="10.00">/home/travis/build</text>
<text text-anchor="start" x="275.5" y="-174.5" font-family="Helvetica,sans-Serif" font-size="10.00">/mgerhardy/simpleai</text>
<text text-anchor="middle" x="340" y="-163.5" font-family="Helvetica,sans-Serif" font-size="10.00">/src/ai/server/ResetHandler.h</text>
</a>
</g>
</g>
<!-- Node6&#45;&gt;Node12 -->
<g id="edge13" class="edge"><title>Node6&#45;&gt;Node12</title>
<path fill="none" stroke="midnightblue" d="M965.481,-237.305C961.302,-236.04 957.11,-234.915 953,-234 722.105,-182.626 655.762,-234.158 422,-198 418.959,-197.53 415.865,-197.002 412.747,-196.429"/>
<polygon fill="midnightblue" stroke="midnightblue" points="964.574,-240.69 975.167,-240.474 966.751,-234.038 964.574,-240.69"/>
</g>
<!-- Node13 -->
<g id="node13" class="node"><title>Node13</title>
<g id="a_node13"><a xlink:href="SelectHandler_8h.html" target="_top" xlink:title="/home/travis/build\l/mgerhardy/simpleai\l/src/ai/server/SelectHandler.h">
<polygon fill="white" stroke="black" points="431,-156.5 431,-197.5 577,-197.5 577,-156.5 431,-156.5"/>
<text text-anchor="start" x="439" y="-185.5" font-family="Helvetica,sans-Serif" font-size="10.00">/home/travis/build</text>
<text text-anchor="start" x="439" y="-174.5" font-family="Helvetica,sans-Serif" font-size="10.00">/mgerhardy/simpleai</text>
<text text-anchor="middle" x="504" y="-163.5" font-family="Helvetica,sans-Serif" font-size="10.00">/src/ai/server/SelectHandler.h</text>
</a>
</g>
</g>
<!-- Node6&#45;&gt;Node13 -->
<g id="edge15" class="edge"><title>Node6&#45;&gt;Node13</title>
<path fill="none" stroke="midnightblue" d="M964.695,-237.211C960.774,-236.007 956.85,-234.918 953,-234 793.572,-196.002 747.573,-225.487 586,-198 583.111,-197.508 580.173,-196.972 577.211,-196.4"/>
<polygon fill="midnightblue" stroke="midnightblue" points="963.799,-240.601 974.392,-240.41 965.992,-233.953 963.799,-240.601"/>
</g>
<!-- Node14 -->
<g id="node14" class="node"><title>Node14</title>
<g id="a_node14"><a xlink:href="StepHandler_8h.html" target="_top" xlink:title="/home/travis/build\l/mgerhardy/simpleai\l/src/ai/server/StepHandler.h">
<polygon fill="white" stroke="black" points="595.5,-156.5 595.5,-197.5 734.5,-197.5 734.5,-156.5 595.5,-156.5"/>
<text text-anchor="start" x="603.5" y="-185.5" font-family="Helvetica,sans-Serif" font-size="10.00">/home/travis/build</text>
<text text-anchor="start" x="603.5" y="-174.5" font-family="Helvetica,sans-Serif" font-size="10.00">/mgerhardy/simpleai</text>
<text text-anchor="middle" x="665" y="-163.5" font-family="Helvetica,sans-Serif" font-size="10.00">/src/ai/server/StepHandler.h</text>
</a>
</g>
</g>
<!-- Node6&#45;&gt;Node14 -->
<g id="edge18" class="edge"><title>Node6&#45;&gt;Node14</title>
<path fill="none" stroke="midnightblue" d="M963.691,-237.228C960.098,-236.061 956.514,-234.972 953,-234 861.735,-208.744 835.607,-217.776 743,-198 740.266,-197.416 737.483,-196.801 734.675,-196.164"/>
<polygon fill="midnightblue" stroke="midnightblue" points="962.586,-240.549 973.181,-240.47 964.849,-233.925 962.586,-240.549"/>
</g>
<!-- Node15 -->
<g id="node15" class="node"><title>Node15</title>
<g id="a_node15"><a xlink:href="UpdateNodeHandler_8h.html" target="_top" xlink:title="/home/travis/build\l/mgerhardy/simpleai\l/src/ai/server/UpdateNodeHandler.h">
<polygon fill="white" stroke="black" points="752.5,-156.5 752.5,-197.5 925.5,-197.5 925.5,-156.5 752.5,-156.5"/>
<text text-anchor="start" x="760.5" y="-185.5" font-family="Helvetica,sans-Serif" font-size="10.00">/home/travis/build</text>
<text text-anchor="start" x="760.5" y="-174.5" font-family="Helvetica,sans-Serif" font-size="10.00">/mgerhardy/simpleai</text>
<text text-anchor="middle" x="839" y="-163.5" font-family="Helvetica,sans-Serif" font-size="10.00">/src/ai/server/UpdateNodeHandler.h</text>
</a>
</g>
</g>
<!-- Node6&#45;&gt;Node15 -->
<g id="edge20" class="edge"><title>Node6&#45;&gt;Node15</title>
<path fill="none" stroke="midnightblue" d="M967.343,-236.144C940.336,-223.909 907.846,-209.19 882.314,-197.623"/>
<polygon fill="midnightblue" stroke="midnightblue" points="966.093,-239.42 976.646,-240.359 968.982,-233.044 966.093,-239.42"/>
</g>
<!-- Node7&#45;&gt;Node8 -->
<g id="edge7" class="edge"><title>Node7&#45;&gt;Node8</title>
<path fill="none" stroke="midnightblue" d="M1020,-146.297C1020,-137.301 1020,-127.653 1020,-119.506"/>
<polygon fill="midnightblue" stroke="midnightblue" points="1016.5,-146.428 1020,-156.428 1023.5,-146.428 1016.5,-146.428"/>
</g>
<!-- Node8&#45;&gt;Node9 -->
<g id="edge8" class="edge"><title>Node8&#45;&gt;Node9</title>
<path fill="none" stroke="midnightblue" d="M1096.22,-87.4871C1209.99,-71.7941 1421.29,-42.6491 1518.99,-29.1742"/>
<polygon fill="midnightblue" stroke="midnightblue" points="1095.62,-84.0368 1086.19,-88.8704 1096.57,-90.9711 1095.62,-84.0368"/>
</g>
<!-- Node10&#45;&gt;Node8 -->
<g id="edge10" class="edge"><title>Node10&#45;&gt;Node8</title>
<path fill="none" stroke="midnightblue" d="M1171.4,-153.026C1140.86,-142.328 1104.9,-129.734 1075.69,-119.506"/>
<polygon fill="midnightblue" stroke="midnightblue" points="1170.52,-156.426 1181.12,-156.428 1172.84,-149.819 1170.52,-156.426"/>
</g>
<!-- Node11&#45;&gt;Node8 -->
<g id="edge12" class="edge"><title>Node11&#45;&gt;Node8</title>
<path fill="none" stroke="midnightblue" d="M1329.92,-155.826C1240.04,-136.997 1146.95,-120.821 1086.06,-110.691"/>
<polygon fill="midnightblue" stroke="midnightblue" points="1329.23,-159.256 1339.73,-157.895 1330.67,-152.407 1329.23,-159.256"/>
</g>
<!-- Node12&#45;&gt;Node8 -->
<g id="edge14" class="edge"><title>Node12&#45;&gt;Node8</title>
<path fill="none" stroke="midnightblue" d="M422.785,-156.001C621.113,-123.355 844.737,-108.744 953.668,-103.046"/>
<polygon fill="midnightblue" stroke="midnightblue" points="422.053,-152.574 412.763,-157.669 423.202,-159.479 422.053,-152.574"/>
</g>
<!-- Node13&#45;&gt;Node8 -->
<g id="edge16" class="edge"><title>Node13&#45;&gt;Node8</title>
<path fill="none" stroke="midnightblue" d="M587.376,-155.841C722.836,-131.115 870.516,-114.593 953.839,-106.231"/>
<polygon fill="midnightblue" stroke="midnightblue" points="586.43,-152.456 577.231,-157.713 587.7,-159.34 586.43,-152.456"/>
</g>
<!-- Node14&#45;&gt;Node8 -->
<g id="edge19" class="edge"><title>Node14&#45;&gt;Node8</title>
<path fill="none" stroke="midnightblue" d="M744.558,-155.688C821.481,-138.227 899.814,-122.721 953.752,-112.398"/>
<polygon fill="midnightblue" stroke="midnightblue" points="743.668,-152.301 734.698,-157.939 745.226,-159.126 743.668,-152.301"/>
</g>
<!-- Node15&#45;&gt;Node8 -->
<g id="edge21" class="edge"><title>Node15&#45;&gt;Node8</title>
<path fill="none" stroke="midnightblue" d="M895.041,-152.469C920.231,-141.892 949.607,-129.557 973.546,-119.506"/>
<polygon fill="midnightblue" stroke="midnightblue" points="893.477,-149.33 885.612,-156.428 896.187,-155.784 893.477,-149.33"/>
</g>
<!-- Node19&#45;&gt;Node6 -->
<g id="edge31" class="edge"><title>Node19&#45;&gt;Node6</title>
<path fill="none" stroke="midnightblue" d="M925.062,-324.816C945.714,-311.151 970.876,-294.503 990.106,-281.78"/>
<polygon fill="midnightblue" stroke="midnightblue" points="922.925,-322.033 916.517,-330.47 926.788,-327.871 922.925,-322.033"/>
</g>
<!-- Node19&#45;&gt;Node9 -->
<g id="edge32" class="edge"><title>Node19&#45;&gt;Node9</title>
<path fill="none" stroke="midnightblue" d="M803.593,-350.776C599.366,-350.036 101.941,-330.78 258,-156 343.51,-60.2324 1285.68,-29.4433 1518.98,-23.2608"/>
<polygon fill="midnightblue" stroke="midnightblue" points="803.673,-354.276 813.681,-350.798 803.689,-347.276 803.673,-354.276"/>
</g>
<!-- Node19&#45;&gt;Node16 -->
<g id="edge33" class="edge"><title>Node19&#45;&gt;Node16</title>
<path fill="none" stroke="midnightblue" d="M958.353,-327.347C961.953,-326.213 965.518,-325.092 969,-324 1020.51,-307.842 1034.07,-305.905 1085,-288 1088.25,-286.856 1091.58,-285.652 1094.94,-284.413"/>
<polygon fill="midnightblue" stroke="midnightblue" points="957.26,-324.022 948.776,-330.368 959.366,-330.698 957.26,-324.022"/>
</g>
<!-- Node19&#45;&gt;Node17 -->
<g id="edge34" class="edge"><title>Node19&#45;&gt;Node17</title>
<path fill="none" stroke="midnightblue" d="M887,-320.255C887,-309.506 887,-297.484 887,-287.166"/>
<polygon fill="midnightblue" stroke="midnightblue" points="883.5,-320.47 887,-330.47 890.5,-320.47 883.5,-320.47"/>
</g>
<!-- Node20&#45;&gt;Node4 -->
<g id="edge36" class="edge"><title>Node20&#45;&gt;Node4</title>
<path fill="none" stroke="midnightblue" d="M1629.19,-497.487C1616.69,-495.609 1604.04,-493.737 1592,-492 1462.68,-473.341 1310.27,-453.073 1232.07,-442.799"/>
<polygon fill="midnightblue" stroke="midnightblue" points="1628.76,-500.962 1639.17,-498.992 1629.8,-494.04 1628.76,-500.962"/>
</g>
<!-- Node20&#45;&gt;Node9 -->
<g id="edge37" class="edge"><title>Node20&#45;&gt;Node9</title>
<path fill="none" stroke="midnightblue" d="M1787.57,-487.599C1802.5,-479.443 1817.17,-469.019 1828,-456 1859.02,-418.725 1861,-400.493 1861,-352 1861,-352 1861,-352 1861,-176 1861,-69.5416 1706.67,-36.4519 1623.18,-26.3399"/>
<polygon fill="midnightblue" stroke="midnightblue" points="1785.56,-484.697 1778.27,-492.386 1788.77,-490.92 1785.56,-484.697"/>
</g>
<!-- Node21&#45;&gt;Node4 -->
<g id="edge39" class="edge"><title>Node21&#45;&gt;Node4</title>
<path fill="none" stroke="midnightblue" d="M1121.64,-564.111C1111.72,-555.821 1102.47,-545.703 1097,-534 1089.09,-517.09 1088.24,-508.482 1097,-492 1105.24,-476.498 1119.9,-464.511 1134.63,-455.679"/>
<polygon fill="midnightblue" stroke="midnightblue" points="1119.62,-566.981 1129.66,-570.363 1123.92,-561.458 1119.62,-566.981"/>
</g>
<!-- Node22&#45;&gt;Node4 -->
<g id="edge41" class="edge"><title>Node22&#45;&gt;Node4</title>
<path fill="none" stroke="midnightblue" d="M1814.26,-492.015C1592.52,-456.738 1339.44,-442.743 1232.17,-438.025"/>
<polygon fill="midnightblue" stroke="midnightblue" points="1814.03,-495.523 1824.46,-493.656 1815.14,-488.612 1814.03,-495.523"/>
</g>
<!-- Node22&#45;&gt;Node9 -->
<g id="edge42" class="edge"><title>Node22&#45;&gt;Node9</title>
<path fill="none" stroke="midnightblue" d="M1899,-482.226C1899,-450.095 1899,-397.421 1899,-352 1899,-352 1899,-352 1899,-176 1899,-55.6873 1715.94,-29.1891 1623.34,-23.4816"/>
<polygon fill="midnightblue" stroke="midnightblue" points="1895.5,-482.294 1899,-492.294 1902.5,-482.294 1895.5,-482.294"/>
</g>
<!-- Node23&#45;&gt;Node4 -->
<g id="edge44" class="edge"><title>Node23&#45;&gt;Node4</title>
<path fill="none" stroke="midnightblue" d="M162.468,-506.048C381.261,-490.986 951.94,-451.7 1127.7,-439.6"/>
<polygon fill="midnightblue" stroke="midnightblue" points="162.054,-502.568 152.318,-506.746 162.535,-509.551 162.054,-502.568"/>
</g>
<!-- Node23&#45;&gt;Node9 -->
<g id="edge45" class="edge"><title>Node23&#45;&gt;Node9</title>
<path fill="none" stroke="midnightblue" d="M85.8431,-482.488C95.5682,-450.663 109,-398.323 109,-352 109,-352 109,-352 109,-176 109,-128.956 110.476,-105.001 149,-78 206.124,-37.9629 1269.47,-24.9814 1518.93,-22.4806"/>
<polygon fill="midnightblue" stroke="midnightblue" points="82.4921,-481.477 82.8376,-492.067 89.171,-483.573 82.4921,-481.477"/>
</g>
<!-- Node24&#45;&gt;Node4 -->
<g id="edge48" class="edge"><title>Node24&#45;&gt;Node4</title>
<path fill="none" stroke="midnightblue" d="M1180.61,-482.297C1180.49,-473.301 1180.36,-463.653 1180.26,-455.506"/>
<polygon fill="midnightblue" stroke="midnightblue" points="1177.11,-482.475 1180.74,-492.428 1184.11,-482.383 1177.11,-482.475"/>
</g>
<!-- Node24&#45;&gt;Node9 -->
<g id="edge49" class="edge"><title>Node24&#45;&gt;Node9</title>
<path fill="none" stroke="midnightblue" d="M1254.03,-489.394C1340.94,-461.447 1479.54,-413.263 1521,-378 1566.69,-339.135 1590,-321.987 1590,-262 1590,-262 1590,-262 1590,-176 1590,-127.51 1580.61,-71.0739 1575.03,-41.8385"/>
<polygon fill="midnightblue" stroke="midnightblue" points="1252.93,-486.068 1244.48,-492.45 1255.07,-492.735 1252.93,-486.068"/>
</g>
<!-- Node25&#45;&gt;Node4 -->
<g id="edge51" class="edge"><title>Node25&#45;&gt;Node4</title>
<path fill="none" stroke="midnightblue" d="M1297.74,-488.329C1274.01,-477.783 1246.4,-465.513 1223.89,-455.506"/>
<polygon fill="midnightblue" stroke="midnightblue" points="1296.4,-491.565 1306.96,-492.428 1299.25,-485.168 1296.4,-491.565"/>
</g>
<!-- Node25&#45;&gt;Node9 -->
<g id="edge52" class="edge"><title>Node25&#45;&gt;Node9</title>
<path fill="none" stroke="midnightblue" d="M1438.3,-491.652C1504.22,-476.202 1583.62,-457.376 1585,-456 1596.21,-444.838 1628,-284.855 1628,-262 1628,-262 1628,-262 1628,-176 1628,-131.157 1620.9,-119.538 1604,-78 1598.86,-65.3519 1591.2,-52.1496 1584.56,-41.7426"/>
<polygon fill="midnightblue" stroke="midnightblue" points="1437.21,-488.314 1428.27,-494.002 1438.8,-495.129 1437.21,-488.314"/>
</g>
<!-- Node26&#45;&gt;Node4 -->
<g id="edge54" class="edge"><title>Node26&#45;&gt;Node4</title>
<path fill="none" stroke="midnightblue" d="M1436.3,-491.872C1359.67,-473.823 1282.19,-457.258 1232.3,-446.813"/>
<polygon fill="midnightblue" stroke="midnightblue" points="1435.59,-495.301 1446.13,-494.196 1437.2,-488.488 1435.59,-495.301"/>
</g>
<!-- Node26&#45;&gt;Node9 -->
<g id="edge55" class="edge"><title>Node26&#45;&gt;Node9</title>
<path fill="none" stroke="midnightblue" d="M1593.83,-497.832C1678.11,-482.523 1800.24,-459.797 1804,-456 1837.05,-422.598 1823,-398.987 1823,-352 1823,-352 1823,-352 1823,-176 1823,-83.1965 1697.03,-44.6394 1623.21,-30.0127"/>
<polygon fill="midnightblue" stroke="midnightblue" points="1592.97,-494.431 1583.76,-499.66 1594.22,-501.319 1592.97,-494.431"/>
</g>
<!-- Node27&#45;&gt;Node3 -->
<g id="edge57" class="edge"><title>Node27&#45;&gt;Node3</title>
<path fill="none" stroke="midnightblue" d="M908.104,-561.174C903.969,-551.932 899.49,-541.919 895.726,-533.506"/>
<polygon fill="midnightblue" stroke="midnightblue" points="904.966,-562.729 912.244,-570.428 911.355,-559.871 904.966,-562.729"/>
</g>
<!-- Node27&#45;&gt;Node4 -->
<g id="edge58" class="edge"><title>Node27&#45;&gt;Node4</title>
<path fill="none" stroke="midnightblue" d="M944.558,-562.619C964.421,-540.963 994.568,-511.264 1026,-492 1057.53,-472.674 1096.75,-458.535 1127.72,-449.299"/>
<polygon fill="midnightblue" stroke="midnightblue" points="941.82,-560.429 937.722,-570.199 947.018,-565.117 941.82,-560.429"/>
</g>
<!-- Node27&#45;&gt;Node9 -->
<g id="edge59" class="edge"><title>Node27&#45;&gt;Node9</title>
<path fill="none" stroke="midnightblue" d="M820.189,-578.684C656.17,-558.854 340.259,-514.327 245,-456 194.801,-425.263 163,-410.862 163,-352 163,-352 163,-352 163,-176 163,-125.16 178.269,-103.928 222,-78 278.708,-44.3779 1277.8,-26.5985 1518.94,-22.7856"/>
<polygon fill="midnightblue" stroke="midnightblue" points="819.942,-582.18 830.288,-579.897 820.777,-575.23 819.942,-582.18"/>
</g>
<!-- Node28&#45;&gt;Node18 -->
<g id="edge61" class="edge"><title>Node28&#45;&gt;Node18</title>
<path fill="none" stroke="midnightblue" d="M1716.37,-403.881C1716.5,-393.133 1716.64,-381.309 1716.76,-371.667"/>
<polygon fill="midnightblue" stroke="midnightblue" points="1712.86,-404.108 1716.24,-414.15 1719.86,-404.194 1712.86,-404.108"/>
</g>
</g>
</svg>
