<?xml version="1.0" encoding="UTF-8" standalone="no"?>
<!DOCTYPE svg PUBLIC "-//W3C//DTD SVG 1.1//EN"
 "http://www.w3.org/Graphics/SVG/1.1/DTD/svg11.dtd">
<!-- Generated by graphviz version 2.36.0 (20140111.2315)
 -->
<!-- Title: /home/travis/build/mgerhardy/simpleai/src/ai/common/MoveVector.h Pages: 1 -->
<svg width="978pt" height="274pt"
 viewBox="0.00 0.00 978.00 274.00" xmlns="http://www.w3.org/2000/svg" xmlns:xlink="http://www.w3.org/1999/xlink">
<g id="graph0" class="graph" transform="scale(1 1) rotate(0) translate(4 270)">
<title>/home/travis/build/mgerhardy/simpleai/src/ai/common/MoveVector.h</title>
<polygon fill="white" stroke="none" points="-4,4 -4,-270 974,-270 974,4 -4,4"/>
<!-- Node1 -->
<g id="node1" class="node"><title>Node1</title>
<polygon fill="#bfbfbf" stroke="black" points="534,-224.5 534,-265.5 682,-265.5 682,-224.5 534,-224.5"/>
<text text-anchor="start" x="542" y="-253.5" font-family="Helvetica,sans-Serif" font-size="10.00">/home/travis/build</text>
<text text-anchor="start" x="542" y="-242.5" font-family="Helvetica,sans-Serif" font-size="10.00">/mgerhardy/simpleai</text>
<text text-anchor="middle" x="608" y="-231.5" font-family="Helvetica,sans-Serif" font-size="10.00">/src/ai/common/MoveVector.h</text>
</g>
<!-- Node2 -->
<g id="node2" class="node"><title>Node2</title>
<g id="a_node2"><a xlink:href="Math_8h.html" target="_top" xlink:title="Math.h">
<polygon fill="white" stroke="black" points="584.5,-168.5 584.5,-187.5 631.5,-187.5 631.5,-168.5 584.5,-168.5"/>
<text text-anchor="middle" x="608" y="-175.5" font-family="Helvetica,sans-Serif" font-size="10.00">Math.h</text>
</a>
</g>
</g>
<!-- Node1&#45;&gt;Node2 -->
<g id="edge1" class="edge"><title>Node1&#45;&gt;Node2</title>
<path fill="none" stroke="midnightblue" d="M608,-224.498C608,-216.065 608,-206.235 608,-197.874"/>
<polygon fill="midnightblue" stroke="midnightblue" points="611.5,-197.652 608,-187.652 604.5,-197.653 611.5,-197.652"/>
</g>
<!-- Node3 -->
<g id="node3" class="node"><title>Node3</title>
<g id="a_node3"><a xlink:href="Types_8h.html" target="_top" xlink:title="Types.h">
<polygon fill="white" stroke="black" points="203,-112.5 203,-131.5 255,-131.5 255,-112.5 203,-112.5"/>
<text text-anchor="middle" x="229" y="-119.5" font-family="Helvetica,sans-Serif" font-size="10.00">Types.h</text>
</a>
</g>
</g>
<!-- Node2&#45;&gt;Node3 -->
<g id="edge2" class="edge"><title>Node2&#45;&gt;Node3</title>
<path fill="none" stroke="midnightblue" d="M584.484,-174.919C530.051,-169.892 391.048,-155.85 265.467,-132.08"/>
<polygon fill="midnightblue" stroke="midnightblue" points="265.776,-128.575 255.296,-130.127 264.456,-135.45 265.776,-128.575"/>
</g>
<!-- Node12 -->
<g id="node12" class="node"><title>Node12</title>
<polygon fill="white" stroke="#bfbfbf" points="273,-112.5 273,-131.5 343,-131.5 343,-112.5 273,-112.5"/>
<text text-anchor="middle" x="308" y="-119.5" font-family="Helvetica,sans-Serif" font-size="10.00">glm/glm.hpp</text>
</g>
<!-- Node2&#45;&gt;Node12 -->
<g id="edge11" class="edge"><title>Node2&#45;&gt;Node12</title>
<path fill="none" stroke="midnightblue" d="M584.413,-173.022C540.959,-165.654 445.1,-149.216 353.367,-132.032"/>
<polygon fill="midnightblue" stroke="midnightblue" points="353.833,-128.558 343.358,-130.151 352.54,-135.438 353.833,-128.558"/>
</g>
<!-- Node13 -->
<g id="node13" class="node"><title>Node13</title>
<polygon fill="white" stroke="#bfbfbf" points="361.5,-112.5 361.5,-131.5 474.5,-131.5 474.5,-112.5 361.5,-112.5"/>
<text text-anchor="middle" x="418" y="-119.5" font-family="Helvetica,sans-Serif" font-size="10.00">glm/gtc/constants.hpp</text>
</g>
<!-- Node2&#45;&gt;Node13 -->
<g id="edge12" class="edge"><title>Node2&#45;&gt;Node13</title>
<path fill="none" stroke="midnightblue" d="M584.321,-170.27C552.633,-161.264 495.998,-145.168 457.722,-134.289"/>
<polygon fill="midnightblue" stroke="midnightblue" points="458.508,-130.874 447.932,-131.507 456.594,-137.607 458.508,-130.874"/>
</g>
<!-- Node14 -->
<g id="node14" class="node"><title>Node14</title>
<polygon fill="white" stroke="#bfbfbf" points="492.5,-112.5 492.5,-131.5 593.5,-131.5 593.5,-112.5 492.5,-112.5"/>
<text text-anchor="middle" x="543" y="-119.5" font-family="Helvetica,sans-Serif" font-size="10.00">glm/gtc/epsilon.hpp</text>
</g>
<!-- Node2&#45;&gt;Node14 -->
<g id="edge13" class="edge"><title>Node2&#45;&gt;Node14</title>
<path fill="none" stroke="midnightblue" d="M597.557,-168.324C587.854,-160.263 573.185,-148.077 561.5,-138.369"/>
<polygon fill="midnightblue" stroke="midnightblue" points="563.562,-135.532 553.633,-131.834 559.089,-140.916 563.562,-135.532"/>
</g>
<!-- Node15 -->
<g id="node15" class="node"><title>Node15</title>
<polygon fill="white" stroke="#bfbfbf" points="611.5,-112.5 611.5,-131.5 736.5,-131.5 736.5,-112.5 611.5,-112.5"/>
<text text-anchor="middle" x="674" y="-119.5" font-family="Helvetica,sans-Serif" font-size="10.00">glm/gtx/compatibility.hpp</text>
</g>
<!-- Node2&#45;&gt;Node15 -->
<g id="edge14" class="edge"><title>Node2&#45;&gt;Node15</title>
<path fill="none" stroke="midnightblue" d="M618.604,-168.324C628.456,-160.263 643.351,-148.077 655.215,-138.369"/>
<polygon fill="midnightblue" stroke="midnightblue" points="657.68,-140.875 663.203,-131.834 653.247,-135.457 657.68,-140.875"/>
</g>
<!-- Node16 -->
<g id="node16" class="node"><title>Node16</title>
<polygon fill="white" stroke="#bfbfbf" points="755,-112.5 755,-131.5 847,-131.5 847,-112.5 755,-112.5"/>
<text text-anchor="middle" x="801" y="-119.5" font-family="Helvetica,sans-Serif" font-size="10.00">glm/gtx/norm.hpp</text>
</g>
<!-- Node2&#45;&gt;Node16 -->
<g id="edge15" class="edge"><title>Node2&#45;&gt;Node16</title>
<path fill="none" stroke="midnightblue" d="M631.666,-170.379C663.728,-161.408 721.438,-145.261 760.473,-134.339"/>
<polygon fill="midnightblue" stroke="midnightblue" points="761.771,-137.61 770.459,-131.545 759.885,-130.869 761.771,-137.61"/>
</g>
<!-- Node17 -->
<g id="node17" class="node"><title>Node17</title>
<polygon fill="white" stroke="#bfbfbf" points="865,-112.5 865,-131.5 905,-131.5 905,-112.5 865,-112.5"/>
<text text-anchor="middle" x="885" y="-119.5" font-family="Helvetica,sans-Serif" font-size="10.00">limits</text>
</g>
<!-- Node2&#45;&gt;Node17 -->
<g id="edge16" class="edge"><title>Node2&#45;&gt;Node17</title>
<path fill="none" stroke="midnightblue" d="M631.796,-173.666C674.607,-167.459 767.568,-153.029 855,-132.003"/>
<polygon fill="midnightblue" stroke="midnightblue" points="855.921,-135.381 864.806,-129.61 854.262,-128.58 855.921,-135.381"/>
</g>
<!-- Node18 -->
<g id="node18" class="node"><title>Node18</title>
<polygon fill="white" stroke="#bfbfbf" points="923.5,-112.5 923.5,-131.5 970.5,-131.5 970.5,-112.5 923.5,-112.5"/>
<text text-anchor="middle" x="947" y="-119.5" font-family="Helvetica,sans-Serif" font-size="10.00">math.h</text>
</g>
<!-- Node2&#45;&gt;Node18 -->
<g id="edge17" class="edge"><title>Node2&#45;&gt;Node18</title>
<path fill="none" stroke="midnightblue" d="M631.587,-174.511C681.645,-169.021 802.321,-154.689 913.273,-131.918"/>
<polygon fill="midnightblue" stroke="midnightblue" points="914.213,-135.297 923.29,-129.833 912.786,-128.444 914.213,-135.297"/>
</g>
<!-- Node4 -->
<g id="node4" class="node"><title>Node4</title>
<g id="a_node4"><a xlink:href="Log_8h.html" target="_top" xlink:title="Log.h">
<polygon fill="white" stroke="black" points="69.5,-56.5 69.5,-75.5 110.5,-75.5 110.5,-56.5 69.5,-56.5"/>
<text text-anchor="middle" x="90" y="-63.5" font-family="Helvetica,sans-Serif" font-size="10.00">Log.h</text>
</a>
</g>
</g>
<!-- Node3&#45;&gt;Node4 -->
<g id="edge3" class="edge"><title>Node3&#45;&gt;Node4</title>
<path fill="none" stroke="midnightblue" d="M206.975,-112.444C183.489,-103.319 146.147,-88.8125 119.988,-78.6501"/>
<polygon fill="midnightblue" stroke="midnightblue" points="121.151,-75.3471 110.563,-74.9883 118.616,-81.8721 121.151,-75.3471"/>
</g>
<!-- Node8 -->
<g id="node8" class="node"><title>Node8</title>
<polygon fill="white" stroke="#bfbfbf" points="128.5,-56.5 128.5,-75.5 169.5,-75.5 169.5,-56.5 128.5,-56.5"/>
<text text-anchor="middle" x="149" y="-63.5" font-family="Helvetica,sans-Serif" font-size="10.00">string</text>
</g>
<!-- Node3&#45;&gt;Node8 -->
<g id="edge7" class="edge"><title>Node3&#45;&gt;Node8</title>
<path fill="none" stroke="midnightblue" d="M216.147,-112.324C203.784,-103.979 184.87,-91.2122 170.263,-81.3524"/>
<polygon fill="midnightblue" stroke="midnightblue" points="172.068,-78.3483 161.821,-75.6545 168.152,-84.1503 172.068,-78.3483"/>
</g>
<!-- Node9 -->
<g id="node9" class="node"><title>Node9</title>
<polygon fill="white" stroke="#bfbfbf" points="187.5,-56.5 187.5,-75.5 270.5,-75.5 270.5,-56.5 187.5,-56.5"/>
<text text-anchor="middle" x="229" y="-63.5" font-family="Helvetica,sans-Serif" font-size="10.00">unordered_map</text>
</g>
<!-- Node3&#45;&gt;Node9 -->
<g id="edge8" class="edge"><title>Node3&#45;&gt;Node9</title>
<path fill="none" stroke="midnightblue" d="M229,-112.083C229,-105.006 229,-94.8611 229,-85.9865"/>
<polygon fill="midnightblue" stroke="midnightblue" points="232.5,-85.751 229,-75.7511 225.5,-85.7511 232.5,-85.751"/>
</g>
<!-- Node10 -->
<g id="node10" class="node"><title>Node10</title>
<polygon fill="white" stroke="#bfbfbf" points="288.5,-56.5 288.5,-75.5 337.5,-75.5 337.5,-56.5 288.5,-56.5"/>
<text text-anchor="middle" x="313" y="-63.5" font-family="Helvetica,sans-Serif" font-size="10.00">cassert</text>
</g>
<!-- Node3&#45;&gt;Node10 -->
<g id="edge9" class="edge"><title>Node3&#45;&gt;Node10</title>
<path fill="none" stroke="midnightblue" d="M242.496,-112.324C255.6,-103.9 275.712,-90.9709 291.107,-81.0741"/>
<polygon fill="midnightblue" stroke="midnightblue" points="293.018,-84.0063 299.537,-75.6545 289.233,-78.118 293.018,-84.0063"/>
</g>
<!-- Node11 -->
<g id="node11" class="node"><title>Node11</title>
<polygon fill="white" stroke="#bfbfbf" points="355.5,-56.5 355.5,-75.5 398.5,-75.5 398.5,-56.5 355.5,-56.5"/>
<text text-anchor="middle" x="377" y="-63.5" font-family="Helvetica,sans-Serif" font-size="10.00">cstdio</text>
</g>
<!-- Node3&#45;&gt;Node11 -->
<g id="edge10" class="edge"><title>Node3&#45;&gt;Node11</title>
<path fill="none" stroke="midnightblue" d="M252.451,-112.444C277.568,-103.279 317.568,-88.6846 345.437,-78.5161"/>
<polygon fill="midnightblue" stroke="midnightblue" points="346.912,-81.704 355.106,-74.9883 344.512,-75.128 346.912,-81.704"/>
</g>
<!-- Node5 -->
<g id="node5" class="node"><title>Node5</title>
<polygon fill="white" stroke="#bfbfbf" points="0,-0.5 0,-19.5 46,-19.5 46,-0.5 0,-0.5"/>
<text text-anchor="middle" x="23" y="-7.5" font-family="Helvetica,sans-Serif" font-size="10.00">stdio.h</text>
</g>
<!-- Node4&#45;&gt;Node5 -->
<g id="edge4" class="edge"><title>Node4&#45;&gt;Node5</title>
<path fill="none" stroke="midnightblue" d="M79.2353,-56.324C69.2339,-48.2631 54.1135,-36.0765 42.0695,-26.3695"/>
<polygon fill="midnightblue" stroke="midnightblue" points="43.9429,-23.3841 33.9606,-19.8339 39.5502,-28.8343 43.9429,-23.3841"/>
</g>
<!-- Node6 -->
<g id="node6" class="node"><title>Node6</title>
<polygon fill="white" stroke="#bfbfbf" points="64,-0.5 64,-19.5 116,-19.5 116,-0.5 64,-0.5"/>
<text text-anchor="middle" x="90" y="-7.5" font-family="Helvetica,sans-Serif" font-size="10.00">stdarg.h</text>
</g>
<!-- Node4&#45;&gt;Node6 -->
<g id="edge5" class="edge"><title>Node4&#45;&gt;Node6</title>
<path fill="none" stroke="midnightblue" d="M90,-56.083C90,-49.0059 90,-38.8611 90,-29.9865"/>
<polygon fill="midnightblue" stroke="midnightblue" points="93.5001,-29.751 90,-19.7511 86.5001,-29.7511 93.5001,-29.751"/>
</g>
<!-- Node7 -->
<g id="node7" class="node"><title>Node7</title>
<polygon fill="white" stroke="#bfbfbf" points="134.5,-0.5 134.5,-19.5 183.5,-19.5 183.5,-0.5 134.5,-0.5"/>
<text text-anchor="middle" x="159" y="-7.5" font-family="Helvetica,sans-Serif" font-size="10.00">string.h</text>
</g>
<!-- Node4&#45;&gt;Node7 -->
<g id="edge6" class="edge"><title>Node4&#45;&gt;Node7</title>
<path fill="none" stroke="midnightblue" d="M101.086,-56.324C111.486,-48.1849 127.261,-35.8395 139.722,-26.0874"/>
<polygon fill="midnightblue" stroke="midnightblue" points="141.994,-28.7533 147.712,-19.8339 137.68,-23.2407 141.994,-28.7533"/>
</g>
</g>
</svg>
