<?xml version="1.0" encoding="UTF-8" standalone="no"?>
<!DOCTYPE svg PUBLIC "-//W3C//DTD SVG 1.1//EN"
 "http://www.w3.org/Graphics/SVG/1.1/DTD/svg11.dtd">
<!-- Generated by graphviz version 2.36.0 (20140111.2315)
 -->
<!-- Title: /home/travis/build/mgerhardy/simpleai/src/ai/server/NetworkImpl.h Pages: 1 -->
<!--zoomable 274 -->
<svg id="main" version="1.1" xmlns="http://www.w3.org/2000/svg" xmlns:xlink="http://www.w3.org/1999/xlink" xml:space="preserve" onload="init(evt)">
<style type="text/css"><![CDATA[
.edge:hover path { stroke: red; }
.edge:hover polygon { stroke: red; fill: red; }
]]></style>
<script type="text/javascript"><![CDATA[
var edges = document.getElementsByTagName('g');
if (edges && edges.length) {
  for (var i=0;i<edges.length;i++) {
    if (edges[i].id.substr(0,4)=='edge') {
      edges[i].setAttribute('class','edge');
    }
  }
}
]]></script>
        <defs>
                <circle id="rim" cx="0" cy="0" r="7"/>
                <circle id="rim2" cx="0" cy="0" r="3.5"/>
                <g id="zoomPlus">
                        <use xlink:href="#rim" fill="#404040">
                                <set attributeName="fill" to="#808080" begin="zoomplus.mouseover" end="zoomplus.mouseout"/>
                        </use>
                        <path d="M-4,0h8M0,-4v8" fill="none" stroke="white" stroke-width="1.5" pointer-events="none"/>
                </g>
                <g id="zoomMin">
                        <use xlink:href="#rim" fill="#404040">
                                <set attributeName="fill" to="#808080" begin="zoomminus.mouseover" end="zoomminus.mouseout"/>
                        </use>
                        <path d="M-4,0h8" fill="none" stroke="white" stroke-width="1.5" pointer-events="none"/>
                </g>
                <g id="dirArrow">
                        <path fill="none" stroke="white" stroke-width="1.5" d="M0,-3.0v7 M-2.5,-0.5L0,-3.0L2.5,-0.5"/>
                </g>
               <g id="resetDef">
                       <use xlink:href="#rim2" fill="#404040">
                               <set attributeName="fill" to="#808080" begin="reset.mouseover" end="reset.mouseout"/>
                       </use>
               </g>
        </defs>

<script type="text/javascript">
var viewWidth = 2587;
var viewHeight = 274;
var sectionId = 'dynsection-0';
</script>
<script xlink:href="svgpan.js"/>
<svg id="graph" class="graph">
<g id="viewport">
<title>/home/travis/build/mgerhardy/simpleai/src/ai/server/NetworkImpl.h</title>
<polygon fill="white" stroke="none" points="-4,4 -4,-270 2583,-270 2583,4 -4,4"/>
<!-- Node1 -->
<g id="node1" class="node"><title>Node1</title>
<polygon fill="#bfbfbf" stroke="black" points="1679,-224.5 1679,-265.5 1819,-265.5 1819,-224.5 1679,-224.5"/>
<text text-anchor="start" x="1687" y="-253.5" font-family="Helvetica,sans-Serif" font-size="10.00">/home/travis/build</text>
<text text-anchor="start" x="1687" y="-242.5" font-family="Helvetica,sans-Serif" font-size="10.00">/mgerhardy/simpleai</text>
<text text-anchor="middle" x="1749" y="-231.5" font-family="Helvetica,sans-Serif" font-size="10.00">/src/ai/server/NetworkImpl.h</text>
</g>
<!-- Node2 -->
<g id="node2" class="node"><title>Node2</title>
<g id="a_node2"><a xlink:href="Network_8h.html" target="_top" xlink:title="Network.h">
<polygon fill="white" stroke="black" points="448,-168.5 448,-187.5 510,-187.5 510,-168.5 448,-168.5"/>
<text text-anchor="middle" x="479" y="-175.5" font-family="Helvetica,sans-Serif" font-size="10.00">Network.h</text>
</a>
</g>
</g>
<!-- Node1&#45;&gt;Node2 -->
<g id="edge1" class="edge"><title>Node1&#45;&gt;Node2</title>
<path fill="none" stroke="midnightblue" d="M1678.69,-241.539C1497.3,-234.992 998.686,-215.729 584,-188 562.955,-186.593 539.571,-184.628 520.223,-182.893"/>
<polygon fill="midnightblue" stroke="midnightblue" points="520.495,-179.403 510.219,-181.984 519.861,-186.375 520.495,-179.403"/>
</g>
<!-- Node3 -->
<g id="node3" class="node"><title>Node3</title>
<g id="a_node3"><a xlink:href="IProtocolHandler_8h.html" target="_top" xlink:title="IProtocolHandler.h">
<polygon fill="white" stroke="black" points="260,-112.5 260,-131.5 358,-131.5 358,-112.5 260,-112.5"/>
<text text-anchor="middle" x="309" y="-119.5" font-family="Helvetica,sans-Serif" font-size="10.00">IProtocolHandler.h</text>
</a>
</g>
</g>
<!-- Node1&#45;&gt;Node3 -->
<g id="edge25" class="edge"><title>Node1&#45;&gt;Node3</title>
<path fill="none" stroke="midnightblue" d="M1678.91,-242.759C1424.57,-238.016 558.948,-219.689 439,-188 420.167,-183.024 417.398,-176.762 400,-168 378.484,-157.164 354.001,-145.07 335.854,-136.152"/>
<polygon fill="midnightblue" stroke="midnightblue" points="337.002,-132.816 326.483,-131.551 333.917,-139.1 337.002,-132.816"/>
</g>
<!-- Node4 -->
<g id="node4" class="node"><title>Node4</title>
<polygon fill="white" stroke="#bfbfbf" points="354,-56.5 354,-75.5 406,-75.5 406,-56.5 354,-56.5"/>
<text text-anchor="middle" x="380" y="-63.5" font-family="Helvetica,sans-Serif" font-size="10.00">memory</text>
</g>
<!-- Node1&#45;&gt;Node4 -->
<g id="edge69" class="edge"><title>Node1&#45;&gt;Node4</title>
<path fill="none" stroke="midnightblue" d="M1678.91,-244.051C1389.6,-243.924 301.076,-239.983 251,-188 227.566,-163.673 231.441,-139.538 251,-112 256.634,-104.068 308.036,-87.8186 344.224,-77.1717"/>
<polygon fill="midnightblue" stroke="midnightblue" points="345.356,-80.4875 353.977,-74.3289 343.398,-73.7672 345.356,-80.4875"/>
</g>
<!-- Node5 -->
<g id="node5" class="node"><title>Node5</title>
<g id="a_node5"><a xlink:href="IProtocolMessage_8h.html" target="_top" xlink:title="IProtocolMessage.h">
<polygon fill="white" stroke="black" points="1087,-56.5 1087,-75.5 1191,-75.5 1191,-56.5 1087,-56.5"/>
<text text-anchor="middle" x="1139" y="-63.5" font-family="Helvetica,sans-Serif" font-size="10.00">IProtocolMessage.h</text>
</a>
</g>
</g>
<!-- Node1&#45;&gt;Node5 -->
<g id="edge24" class="edge"><title>Node1&#45;&gt;Node5</title>
<path fill="none" stroke="midnightblue" d="M1678.74,-242.408C1442.64,-236.344 688.475,-210.896 617,-132 611.032,-125.412 610.991,-118.55 617,-112 647.498,-78.7596 944.185,-70.014 1076.2,-67.761"/>
<polygon fill="midnightblue" stroke="midnightblue" points="1076.61,-71.2548 1086.56,-67.5919 1076.5,-64.2558 1076.61,-71.2548"/>
</g>
<!-- Node10 -->
<g id="node10" class="node"><title>Node10</title>
<polygon fill="white" stroke="#bfbfbf" points="1758.5,-0.5 1758.5,-19.5 1801.5,-19.5 1801.5,-0.5 1758.5,-0.5"/>
<text text-anchor="middle" x="1780" y="-7.5" font-family="Helvetica,sans-Serif" font-size="10.00">deque</text>
</g>
<!-- Node1&#45;&gt;Node10 -->
<g id="edge65" class="edge"><title>Node1&#45;&gt;Node10</title>
<path fill="none" stroke="midnightblue" d="M1678.87,-242.525C1590.82,-239.02 1447.25,-227.264 1414,-188 1408.26,-181.216 1407.85,-174.416 1414,-168 1479.88,-99.2872 2204.12,-200.713 2270,-132 2336.38,-62.7696 1930.91,-23.4596 1812.05,-13.5234"/>
<polygon fill="midnightblue" stroke="midnightblue" points="1812.03,-10.0102 1801.78,-12.6787 1811.46,-16.9867 1812.03,-10.0102"/>
</g>
<!-- Node14 -->
<g id="node14" class="node"><title>Node14</title>
<polygon fill="white" stroke="#bfbfbf" points="-0.5,-0.5 -0.5,-19.5 48.5,-19.5 48.5,-0.5 -0.5,-0.5"/>
<text text-anchor="middle" x="24" y="-7.5" font-family="Helvetica,sans-Serif" font-size="10.00">cassert</text>
</g>
<!-- Node1&#45;&gt;Node14 -->
<g id="edge67" class="edge"><title>Node1&#45;&gt;Node14</title>
<path fill="none" stroke="midnightblue" d="M1678.77,-244.049C1419.52,-243.818 516.772,-239.266 234,-188 156.557,-173.96 124.316,-184.857 66,-132 36.435,-105.203 27.6813,-56.5205 25.0897,-29.8009"/>
<polygon fill="midnightblue" stroke="midnightblue" points="28.5557,-29.2248 24.2965,-19.5238 21.5765,-29.7635 28.5557,-29.2248"/>
</g>
<!-- Node21 -->
<g id="node21" class="node"><title>Node21</title>
<g id="a_node21"><a xlink:href="ProtocolHandlerRegistry_8h.html" target="_top" xlink:title="ProtocolHandlerRegistry.h">
<polygon fill="white" stroke="black" points="260.5,-168.5 260.5,-187.5 391.5,-187.5 391.5,-168.5 260.5,-168.5"/>
<text text-anchor="middle" x="326" y="-175.5" font-family="Helvetica,sans-Serif" font-size="10.00">ProtocolHandlerRegistry.h</text>
</a>
</g>
</g>
<!-- Node1&#45;&gt;Node21 -->
<g id="edge26" class="edge"><title>Node1&#45;&gt;Node21</title>
<path fill="none" stroke="midnightblue" d="M1678.99,-242.817C1479.69,-239.075 892.288,-225.446 406,-188 404.707,-187.9 403.402,-187.796 402.088,-187.688"/>
<polygon fill="midnightblue" stroke="midnightblue" points="402.156,-184.18 391.886,-186.784 401.538,-191.153 402.156,-184.18"/>
</g>
<!-- Node22 -->
<g id="node22" class="node"><title>Node22</title>
<g id="a_node22"><a xlink:href="ProtocolMessageFactory_8h.html" target="_top" xlink:title="ProtocolMessageFactory.h">
<polygon fill="white" stroke="black" points="1233,-168.5 1233,-187.5 1367,-187.5 1367,-168.5 1233,-168.5"/>
<text text-anchor="middle" x="1300" y="-175.5" font-family="Helvetica,sans-Serif" font-size="10.00">ProtocolMessageFactory.h</text>
</a>
</g>
</g>
<!-- Node1&#45;&gt;Node22 -->
<g id="edge29" class="edge"><title>Node1&#45;&gt;Node22</title>
<path fill="none" stroke="midnightblue" d="M1678.84,-233.844C1594.23,-221.595 1452.93,-201.139 1368.89,-188.972"/>
<polygon fill="midnightblue" stroke="midnightblue" points="1369.33,-185.5 1358.93,-187.531 1368.32,-192.428 1369.33,-185.5"/>
</g>
<!-- Node35 -->
<g id="node35" class="node"><title>Node35</title>
<polygon fill="white" stroke="#bfbfbf" points="1423,-168.5 1423,-187.5 1491,-187.5 1491,-168.5 1423,-168.5"/>
<text text-anchor="middle" x="1457" y="-175.5" font-family="Helvetica,sans-Serif" font-size="10.00">sys/types.h</text>
</g>
<!-- Node1&#45;&gt;Node35 -->
<g id="edge53" class="edge"><title>Node1&#45;&gt;Node35</title>
<path fill="none" stroke="midnightblue" d="M1678.69,-228.348C1623.35,-216.029 1547.95,-199.246 1500.9,-188.771"/>
<polygon fill="midnightblue" stroke="midnightblue" points="1501.54,-185.328 1491.01,-186.572 1500.01,-192.161 1501.54,-185.328"/>
</g>
<!-- Node36 -->
<g id="node36" class="node"><title>Node36</title>
<polygon fill="white" stroke="#bfbfbf" points="1509.5,-168.5 1509.5,-187.5 1582.5,-187.5 1582.5,-168.5 1509.5,-168.5"/>
<text text-anchor="middle" x="1546" y="-175.5" font-family="Helvetica,sans-Serif" font-size="10.00">sys/socket.h</text>
</g>
<!-- Node1&#45;&gt;Node36 -->
<g id="edge54" class="edge"><title>Node1&#45;&gt;Node36</title>
<path fill="none" stroke="midnightblue" d="M1688.09,-224.498C1653.72,-213.493 1611.92,-200.106 1582.58,-190.713"/>
<polygon fill="midnightblue" stroke="midnightblue" points="1583.35,-187.283 1572.76,-187.567 1581.21,-193.95 1583.35,-187.283"/>
</g>
<!-- Node37 -->
<g id="node37" class="node"><title>Node37</title>
<polygon fill="white" stroke="#bfbfbf" points="1601,-168.5 1601,-187.5 1663,-187.5 1663,-168.5 1601,-168.5"/>
<text text-anchor="middle" x="1632" y="-175.5" font-family="Helvetica,sans-Serif" font-size="10.00">sys/ioctl.h</text>
</g>
<!-- Node1&#45;&gt;Node37 -->
<g id="edge55" class="edge"><title>Node1&#45;&gt;Node37</title>
<path fill="none" stroke="midnightblue" d="M1713.9,-224.498C1695.44,-214.245 1673.27,-201.925 1656.65,-192.693"/>
<polygon fill="midnightblue" stroke="midnightblue" points="1658.02,-189.449 1647.57,-187.652 1654.62,-195.569 1658.02,-189.449"/>
</g>
<!-- Node38 -->
<g id="node38" class="node"><title>Node38</title>
<polygon fill="white" stroke="#bfbfbf" points="1681,-168.5 1681,-187.5 1743,-187.5 1743,-168.5 1681,-168.5"/>
<text text-anchor="middle" x="1712" y="-175.5" font-family="Helvetica,sans-Serif" font-size="10.00">sys/time.h</text>
</g>
<!-- Node1&#45;&gt;Node38 -->
<g id="edge56" class="edge"><title>Node1&#45;&gt;Node38</title>
<path fill="none" stroke="midnightblue" d="M1737.9,-224.498C1732.83,-215.586 1726.86,-205.113 1721.94,-196.464"/>
<polygon fill="midnightblue" stroke="midnightblue" points="1724.91,-194.612 1716.93,-187.652 1718.83,-198.075 1724.91,-194.612"/>
</g>
<!-- Node39 -->
<g id="node39" class="node"><title>Node39</title>
<polygon fill="white" stroke="#bfbfbf" points="1761.5,-168.5 1761.5,-187.5 1812.5,-187.5 1812.5,-168.5 1761.5,-168.5"/>
<text text-anchor="middle" x="1787" y="-175.5" font-family="Helvetica,sans-Serif" font-size="10.00">unistd.h</text>
</g>
<!-- Node1&#45;&gt;Node39 -->
<g id="edge57" class="edge"><title>Node1&#45;&gt;Node39</title>
<path fill="none" stroke="midnightblue" d="M1760.4,-224.498C1765.61,-215.586 1771.73,-205.113 1776.79,-196.464"/>
<polygon fill="midnightblue" stroke="midnightblue" points="1779.92,-198.052 1781.94,-187.652 1773.87,-194.519 1779.92,-198.052"/>
</g>
<!-- Node40 -->
<g id="node40" class="node"><title>Node40</title>
<polygon fill="white" stroke="#bfbfbf" points="1831,-168.5 1831,-187.5 1875,-187.5 1875,-168.5 1831,-168.5"/>
<text text-anchor="middle" x="1853" y="-175.5" font-family="Helvetica,sans-Serif" font-size="10.00">fcntl.h</text>
</g>
<!-- Node1&#45;&gt;Node40 -->
<g id="edge58" class="edge"><title>Node1&#45;&gt;Node40</title>
<path fill="none" stroke="midnightblue" d="M1780.2,-224.498C1796.3,-214.436 1815.58,-202.385 1830.26,-193.214"/>
<polygon fill="midnightblue" stroke="midnightblue" points="1832.53,-195.921 1839.16,-187.652 1828.82,-189.985 1832.53,-195.921"/>
</g>
<!-- Node41 -->
<g id="node41" class="node"><title>Node41</title>
<polygon fill="white" stroke="#bfbfbf" points="1893.5,-168.5 1893.5,-187.5 1958.5,-187.5 1958.5,-168.5 1893.5,-168.5"/>
<text text-anchor="middle" x="1926" y="-175.5" font-family="Helvetica,sans-Serif" font-size="10.00">netinet/in.h</text>
</g>
<!-- Node1&#45;&gt;Node41 -->
<g id="edge59" class="edge"><title>Node1&#45;&gt;Node41</title>
<path fill="none" stroke="midnightblue" d="M1802.11,-224.498C1831.59,-213.67 1867.35,-200.537 1892.86,-191.17"/>
<polygon fill="midnightblue" stroke="midnightblue" points="1894.26,-194.385 1902.44,-187.652 1891.84,-187.814 1894.26,-194.385"/>
</g>
<!-- Node42 -->
<g id="node42" class="node"><title>Node42</title>
<polygon fill="white" stroke="#bfbfbf" points="1976.5,-168.5 1976.5,-187.5 2047.5,-187.5 2047.5,-168.5 1976.5,-168.5"/>
<text text-anchor="middle" x="2012" y="-175.5" font-family="Helvetica,sans-Serif" font-size="10.00">netinet/tcp.h</text>
</g>
<!-- Node1&#45;&gt;Node42 -->
<g id="edge60" class="edge"><title>Node1&#45;&gt;Node42</title>
<path fill="none" stroke="midnightblue" d="M1819.13,-226.667C1866.27,-215.017 1926.96,-200.017 1967.56,-189.984"/>
<polygon fill="midnightblue" stroke="midnightblue" points="1968.55,-193.343 1977.42,-187.546 1966.88,-186.547 1968.55,-193.343"/>
</g>
<!-- Node43 -->
<g id="node43" class="node"><title>Node43</title>
<polygon fill="white" stroke="#bfbfbf" points="2065.5,-168.5 2065.5,-187.5 2112.5,-187.5 2112.5,-168.5 2065.5,-168.5"/>
<text text-anchor="middle" x="2089" y="-175.5" font-family="Helvetica,sans-Serif" font-size="10.00">net/if.h</text>
</g>
<!-- Node1&#45;&gt;Node43 -->
<g id="edge61" class="edge"><title>Node1&#45;&gt;Node43</title>
<path fill="none" stroke="midnightblue" d="M1819.15,-232.965C1879.35,-223.093 1968.57,-207.506 2055.5,-187.95"/>
<polygon fill="midnightblue" stroke="midnightblue" points="2056.29,-191.36 2065.27,-185.734 2054.74,-184.534 2056.29,-191.36"/>
</g>
<!-- Node44 -->
<g id="node44" class="node"><title>Node44</title>
<polygon fill="white" stroke="#bfbfbf" points="2130.5,-168.5 2130.5,-187.5 2179.5,-187.5 2179.5,-168.5 2130.5,-168.5"/>
<text text-anchor="middle" x="2155" y="-175.5" font-family="Helvetica,sans-Serif" font-size="10.00">netdb.h</text>
</g>
<!-- Node1&#45;&gt;Node44 -->
<g id="edge62" class="edge"><title>Node1&#45;&gt;Node44</title>
<path fill="none" stroke="midnightblue" d="M1819.34,-235.741C1892.24,-226.654 2009.63,-210.555 2120.2,-187.965"/>
<polygon fill="midnightblue" stroke="midnightblue" points="2121.11,-191.352 2130.19,-185.902 2119.69,-184.497 2121.11,-191.352"/>
</g>
<!-- Node45 -->
<g id="node45" class="node"><title>Node45</title>
<polygon fill="white" stroke="#bfbfbf" points="2198,-168.5 2198,-187.5 2248,-187.5 2248,-168.5 2198,-168.5"/>
<text text-anchor="middle" x="2223" y="-175.5" font-family="Helvetica,sans-Serif" font-size="10.00">signal.h</text>
</g>
<!-- Node1&#45;&gt;Node45 -->
<g id="edge63" class="edge"><title>Node1&#45;&gt;Node45</title>
<path fill="none" stroke="midnightblue" d="M1819.38,-237.755C1906.44,-229.402 2058.96,-212.721 2188,-188 2188.1,-187.981 2188.2,-187.962 2188.3,-187.942"/>
<polygon fill="midnightblue" stroke="midnightblue" points="2188.82,-191.411 2197.85,-185.867 2187.33,-184.57 2188.82,-191.411"/>
</g>
<!-- Node46 -->
<g id="node46" class="node"><title>Node46</title>
<polygon fill="white" stroke="#bfbfbf" points="2266.5,-168.5 2266.5,-187.5 2315.5,-187.5 2315.5,-168.5 2266.5,-168.5"/>
<text text-anchor="middle" x="2291" y="-175.5" font-family="Helvetica,sans-Serif" font-size="10.00">string.h</text>
</g>
<!-- Node1&#45;&gt;Node46 -->
<g id="edge64" class="edge"><title>Node1&#45;&gt;Node46</title>
<path fill="none" stroke="midnightblue" d="M1819.33,-239.573C1915.81,-232.763 2094.65,-217.502 2256.1,-187.896"/>
<polygon fill="midnightblue" stroke="midnightblue" points="2257.02,-191.284 2266.21,-186.017 2255.74,-184.402 2257.02,-191.284"/>
</g>
<!-- Node47 -->
<g id="node47" class="node"><title>Node47</title>
<polygon fill="white" stroke="#bfbfbf" points="2334,-168.5 2334,-187.5 2390,-187.5 2390,-168.5 2334,-168.5"/>
<text text-anchor="middle" x="2362" y="-175.5" font-family="Helvetica,sans-Serif" font-size="10.00">algorithm</text>
</g>
<!-- Node1&#45;&gt;Node47 -->
<g id="edge66" class="edge"><title>Node1&#45;&gt;Node47</title>
<path fill="none" stroke="midnightblue" d="M1819.33,-240.229C1928.09,-233.706 2143.44,-218.033 2324,-188 2324.1,-187.983 2324.2,-187.967 2324.3,-187.95"/>
<polygon fill="midnightblue" stroke="midnightblue" points="2324.7,-191.436 2333.86,-186.112 2323.38,-184.562 2324.7,-191.436"/>
</g>
<!-- Node48 -->
<g id="node48" class="node"><title>Node48</title>
<polygon fill="white" stroke="#bfbfbf" points="2408.5,-168.5 2408.5,-187.5 2457.5,-187.5 2457.5,-168.5 2408.5,-168.5"/>
<text text-anchor="middle" x="2433" y="-175.5" font-family="Helvetica,sans-Serif" font-size="10.00">cstddef</text>
</g>
<!-- Node1&#45;&gt;Node48 -->
<g id="edge68" class="edge"><title>Node1&#45;&gt;Node48</title>
<path fill="none" stroke="midnightblue" d="M1819.11,-241.754C1938.65,-237.078 2189.25,-223.594 2398,-188 2398.1,-187.982 2398.21,-187.964 2398.31,-187.946"/>
<polygon fill="midnightblue" stroke="midnightblue" points="2399.16,-191.345 2408.25,-185.904 2397.75,-184.488 2399.16,-191.345"/>
</g>
<!-- Node49 -->
<g id="node49" class="node"><title>Node49</title>
<polygon fill="white" stroke="#bfbfbf" points="2475.5,-168.5 2475.5,-187.5 2522.5,-187.5 2522.5,-168.5 2475.5,-168.5"/>
<text text-anchor="middle" x="2499" y="-175.5" font-family="Helvetica,sans-Serif" font-size="10.00">iterator</text>
</g>
<!-- Node1&#45;&gt;Node49 -->
<g id="edge70" class="edge"><title>Node1&#45;&gt;Node49</title>
<path fill="none" stroke="midnightblue" d="M1819.01,-242.895C1946.17,-239.938 2223.48,-229.114 2465.29,-187.767"/>
<polygon fill="midnightblue" stroke="midnightblue" points="2466.07,-191.184 2475.33,-186.029 2464.88,-184.287 2466.07,-191.184"/>
</g>
<!-- Node50 -->
<g id="node50" class="node"><title>Node50</title>
<polygon fill="white" stroke="#bfbfbf" points="2541,-168.5 2541,-187.5 2579,-187.5 2579,-168.5 2541,-168.5"/>
<text text-anchor="middle" x="2560" y="-175.5" font-family="Helvetica,sans-Serif" font-size="10.00">array</text>
</g>
<!-- Node1&#45;&gt;Node50 -->
<g id="edge71" class="edge"><title>Node1&#45;&gt;Node50</title>
<path fill="none" stroke="midnightblue" d="M1819.26,-244.337C1957.03,-243.82 2271.84,-236.822 2531,-188 2531.1,-187.981 2531.2,-187.962 2531.3,-187.943"/>
<polygon fill="midnightblue" stroke="midnightblue" points="2531.92,-191.394 2540.81,-185.63 2530.27,-184.592 2531.92,-191.394"/>
</g>
<!-- Node2&#45;&gt;Node3 -->
<g id="edge2" class="edge"><title>Node2&#45;&gt;Node3</title>
<path fill="none" stroke="midnightblue" d="M452.063,-168.444C423.34,-159.32 377.671,-144.813 345.679,-134.651"/>
<polygon fill="midnightblue" stroke="midnightblue" points="346.401,-131.208 335.811,-131.516 344.282,-137.88 346.401,-131.208"/>
</g>
<!-- Node6 -->
<g id="node6" class="node"><title>Node6</title>
<polygon fill="white" stroke="#bfbfbf" points="773.5,-0.5 773.5,-19.5 822.5,-19.5 822.5,-0.5 773.5,-0.5"/>
<text text-anchor="middle" x="798" y="-7.5" font-family="Helvetica,sans-Serif" font-size="10.00">stdint.h</text>
</g>
<!-- Node2&#45;&gt;Node6 -->
<g id="edge21" class="edge"><title>Node2&#45;&gt;Node6</title>
<path fill="none" stroke="midnightblue" d="M491.976,-168.302C511.532,-155.347 549.901,-130.524 584,-112 648.335,-77.0508 726.805,-41.8147 768.552,-23.6281"/>
<polygon fill="midnightblue" stroke="midnightblue" points="770.077,-26.7819 777.859,-19.5918 767.292,-20.3599 770.077,-26.7819"/>
</g>
<!-- Node9 -->
<g id="node9" class="node"><title>Node9</title>
<polygon fill="white" stroke="#bfbfbf" points="413.5,-0.5 413.5,-19.5 454.5,-19.5 454.5,-0.5 413.5,-0.5"/>
<text text-anchor="middle" x="434" y="-7.5" font-family="Helvetica,sans-Serif" font-size="10.00">string</text>
</g>
<!-- Node2&#45;&gt;Node9 -->
<g id="edge20" class="edge"><title>Node2&#45;&gt;Node9</title>
<path fill="none" stroke="midnightblue" d="M472.576,-168.174C466.542,-159.432 457.752,-145.441 453,-132 440.756,-97.3698 436.385,-54.3839 434.837,-30.0845"/>
<polygon fill="midnightblue" stroke="midnightblue" points="438.314,-29.5726 434.281,-19.7754 431.324,-29.9492 438.314,-29.5726"/>
</g>
<!-- Node15 -->
<g id="node15" class="node"><title>Node15</title>
<g id="a_node15"><a xlink:href="Thread_8h.html" target="_top" xlink:title="common/Thread.h">
<polygon fill="white" stroke="black" points="108.5,-112.5 108.5,-131.5 203.5,-131.5 203.5,-112.5 108.5,-112.5"/>
<text text-anchor="middle" x="156" y="-119.5" font-family="Helvetica,sans-Serif" font-size="10.00">common/Thread.h</text>
</a>
</g>
</g>
<!-- Node2&#45;&gt;Node15 -->
<g id="edge15" class="edge"><title>Node2&#45;&gt;Node15</title>
<path fill="none" stroke="midnightblue" d="M447.736,-171.773C393.749,-162.748 282.27,-144.11 213.825,-132.667"/>
<polygon fill="midnightblue" stroke="midnightblue" points="214.079,-129.161 203.638,-130.964 212.924,-136.065 214.079,-129.161"/>
</g>
<!-- Node19 -->
<g id="node19" class="node"><title>Node19</title>
<polygon fill="white" stroke="#bfbfbf" points="376.5,-112.5 376.5,-131.5 405.5,-131.5 405.5,-112.5 376.5,-112.5"/>
<text text-anchor="middle" x="391" y="-119.5" font-family="Helvetica,sans-Serif" font-size="10.00">list</text>
</g>
<!-- Node2&#45;&gt;Node19 -->
<g id="edge22" class="edge"><title>Node2&#45;&gt;Node19</title>
<path fill="none" stroke="midnightblue" d="M464.861,-168.324C451.134,-159.9 430.064,-146.971 413.936,-137.074"/>
<polygon fill="midnightblue" stroke="midnightblue" points="415.457,-133.902 405.104,-131.655 411.796,-139.868 415.457,-133.902"/>
</g>
<!-- Node20 -->
<g id="node20" class="node"><title>Node20</title>
<polygon fill="white" stroke="#bfbfbf" points="462,-112.5 462,-131.5 532,-131.5 532,-112.5 462,-112.5"/>
<text text-anchor="middle" x="497" y="-119.5" font-family="Helvetica,sans-Serif" font-size="10.00">sys/select.h</text>
</g>
<!-- Node2&#45;&gt;Node20 -->
<g id="edge23" class="edge"><title>Node2&#45;&gt;Node20</title>
<path fill="none" stroke="midnightblue" d="M481.972,-168.083C484.384,-160.849 487.864,-150.409 490.868,-141.397"/>
<polygon fill="midnightblue" stroke="midnightblue" points="494.241,-142.345 494.083,-131.751 487.6,-140.131 494.241,-142.345"/>
</g>
<!-- Node3&#45;&gt;Node4 -->
<g id="edge3" class="edge"><title>Node3&#45;&gt;Node4</title>
<path fill="none" stroke="midnightblue" d="M320.407,-112.324C331.109,-104.185 347.341,-91.8395 360.163,-82.0874"/>
<polygon fill="midnightblue" stroke="midnightblue" points="362.544,-84.6734 368.385,-75.8339 358.307,-79.1018 362.544,-84.6734"/>
</g>
<!-- Node3&#45;&gt;Node5 -->
<g id="edge4" class="edge"><title>Node3&#45;&gt;Node5</title>
<path fill="none" stroke="midnightblue" d="M358.004,-113.058C361.045,-112.67 364.062,-112.313 367,-112 629.886,-84.0068 945.121,-72.4532 1076.63,-68.6112"/>
<polygon fill="midnightblue" stroke="midnightblue" points="1077.01,-72.1018 1086.9,-68.3159 1076.81,-65.1047 1077.01,-72.1018"/>
</g>
<!-- Node11 -->
<g id="node11" class="node"><title>Node11</title>
<g id="a_node11"><a xlink:href="Types_8h.html" target="_top" xlink:title="common/Types.h">
<polygon fill="white" stroke="red" points="244,-56.5 244,-75.5 336,-75.5 336,-56.5 244,-56.5"/>
<text text-anchor="middle" x="290" y="-63.5" font-family="Helvetica,sans-Serif" font-size="10.00">common/Types.h</text>
</a>
</g>
</g>
<!-- Node3&#45;&gt;Node11 -->
<g id="edge10" class="edge"><title>Node3&#45;&gt;Node11</title>
<path fill="none" stroke="midnightblue" d="M305.863,-112.083C303.317,-104.849 299.644,-94.4087 296.473,-85.3968"/>
<polygon fill="midnightblue" stroke="midnightblue" points="299.7,-84.0225 293.079,-75.7511 293.097,-86.3459 299.7,-84.0225"/>
</g>
<!-- Node5&#45;&gt;Node6 -->
<g id="edge5" class="edge"><title>Node5&#45;&gt;Node6</title>
<path fill="none" stroke="midnightblue" d="M1086.84,-56.7398C1016.44,-45.5912 892.919,-26.0312 832.819,-16.5138"/>
<polygon fill="midnightblue" stroke="midnightblue" points="833.128,-13.0193 822.704,-14.9121 832.033,-19.9332 833.128,-13.0193"/>
</g>
<!-- Node7 -->
<g id="node7" class="node"><title>Node7</title>
<polygon fill="white" stroke="#bfbfbf" points="1079,-0.5 1079,-19.5 1131,-19.5 1131,-0.5 1079,-0.5"/>
<text text-anchor="middle" x="1105" y="-7.5" font-family="Helvetica,sans-Serif" font-size="10.00">stddef.h</text>
</g>
<!-- Node5&#45;&gt;Node7 -->
<g id="edge6" class="edge"><title>Node5&#45;&gt;Node7</title>
<path fill="none" stroke="midnightblue" d="M1133.39,-56.083C1128.63,-48.5341 1121.68,-37.4948 1115.85,-28.2298"/>
<polygon fill="midnightblue" stroke="midnightblue" points="1118.8,-26.3486 1110.51,-19.7511 1112.88,-30.0783 1118.8,-26.3486"/>
</g>
<!-- Node8 -->
<g id="node8" class="node"><title>Node8</title>
<polygon fill="white" stroke="#bfbfbf" points="1149,-0.5 1149,-19.5 1197,-19.5 1197,-0.5 1149,-0.5"/>
<text text-anchor="middle" x="1173" y="-7.5" font-family="Helvetica,sans-Serif" font-size="10.00">limits.h</text>
</g>
<!-- Node5&#45;&gt;Node8 -->
<g id="edge7" class="edge"><title>Node5&#45;&gt;Node8</title>
<path fill="none" stroke="midnightblue" d="M1144.61,-56.083C1149.37,-48.5341 1156.32,-37.4948 1162.15,-28.2298"/>
<polygon fill="midnightblue" stroke="midnightblue" points="1165.12,-30.0783 1167.49,-19.7511 1159.2,-26.3486 1165.12,-30.0783"/>
</g>
<!-- Node5&#45;&gt;Node9 -->
<g id="edge8" class="edge"><title>Node5&#45;&gt;Node9</title>
<path fill="none" stroke="midnightblue" d="M1086.87,-61.0073C948.453,-50.4049 574.735,-21.7797 464.811,-13.36"/>
<polygon fill="midnightblue" stroke="midnightblue" points="464.963,-9.8615 454.725,-12.5875 464.429,-16.8411 464.963,-9.8615"/>
</g>
<!-- Node5&#45;&gt;Node10 -->
<g id="edge9" class="edge"><title>Node5&#45;&gt;Node10</title>
<path fill="none" stroke="midnightblue" d="M1191.18,-60.6038C1319.05,-49.8316 1645.09,-22.3655 1748.22,-13.6774"/>
<polygon fill="midnightblue" stroke="midnightblue" points="1748.64,-17.1543 1758.31,-12.8271 1748.05,-10.1791 1748.64,-17.1543"/>
</g>
<!-- Node11&#45;&gt;Node9 -->
<g id="edge12" class="edge"><title>Node11&#45;&gt;Node9</title>
<path fill="none" stroke="midnightblue" d="M312.817,-56.4435C337.397,-47.2262 376.625,-32.5157 403.759,-22.3402"/>
<polygon fill="midnightblue" stroke="midnightblue" points="405.025,-25.6036 413.16,-18.8151 402.567,-19.0492 405.025,-25.6036"/>
</g>
<!-- Node12 -->
<g id="node12" class="node"><title>Node12</title>
<g id="a_node12"><a xlink:href="Log_8h.html" target="_top" xlink:title="Log.h">
<polygon fill="white" stroke="red" points="269.5,-0.5 269.5,-19.5 310.5,-19.5 310.5,-0.5 269.5,-0.5"/>
<text text-anchor="middle" x="290" y="-7.5" font-family="Helvetica,sans-Serif" font-size="10.00">Log.h</text>
</a>
</g>
</g>
<!-- Node11&#45;&gt;Node12 -->
<g id="edge11" class="edge"><title>Node11&#45;&gt;Node12</title>
<path fill="none" stroke="midnightblue" d="M290,-56.083C290,-49.0059 290,-38.8611 290,-29.9865"/>
<polygon fill="midnightblue" stroke="midnightblue" points="293.5,-29.751 290,-19.7511 286.5,-29.7511 293.5,-29.751"/>
</g>
<!-- Node13 -->
<g id="node13" class="node"><title>Node13</title>
<polygon fill="white" stroke="#bfbfbf" points="134.5,-0.5 134.5,-19.5 217.5,-19.5 217.5,-0.5 134.5,-0.5"/>
<text text-anchor="middle" x="176" y="-7.5" font-family="Helvetica,sans-Serif" font-size="10.00">unordered_map</text>
</g>
<!-- Node11&#45;&gt;Node13 -->
<g id="edge13" class="edge"><title>Node11&#45;&gt;Node13</title>
<path fill="none" stroke="midnightblue" d="M271.936,-56.4435C253.425,-47.6751 224.419,-33.9355 203.145,-23.8579"/>
<polygon fill="midnightblue" stroke="midnightblue" points="204.515,-20.6343 193.979,-19.5164 201.518,-26.9604 204.515,-20.6343"/>
</g>
<!-- Node11&#45;&gt;Node14 -->
<g id="edge14" class="edge"><title>Node11&#45;&gt;Node14</title>
<path fill="none" stroke="midnightblue" d="M247.852,-56.4435C195.58,-45.832 107.444,-27.9398 58.8203,-18.0688"/>
<polygon fill="midnightblue" stroke="midnightblue" points="59.2813,-14.591 48.7848,-16.0315 57.8886,-21.4511 59.2813,-14.591"/>
</g>
<!-- Node15&#45;&gt;Node11 -->
<g id="edge16" class="edge"><title>Node15&#45;&gt;Node11</title>
<path fill="none" stroke="midnightblue" d="M177.233,-112.444C199.384,-103.517 234.319,-89.4387 259.436,-79.3168"/>
<polygon fill="midnightblue" stroke="midnightblue" points="260.9,-82.5006 268.867,-75.5164 258.283,-76.0079 260.9,-82.5006"/>
</g>
<!-- Node16 -->
<g id="node16" class="node"><title>Node16</title>
<polygon fill="white" stroke="#bfbfbf" points="182,-56.5 182,-75.5 226,-75.5 226,-56.5 182,-56.5"/>
<text text-anchor="middle" x="204" y="-63.5" font-family="Helvetica,sans-Serif" font-size="10.00">thread</text>
</g>
<!-- Node15&#45;&gt;Node16 -->
<g id="edge17" class="edge"><title>Node15&#45;&gt;Node16</title>
<path fill="none" stroke="midnightblue" d="M163.926,-112.083C170.846,-104.298 181.065,-92.8015 189.452,-83.3665"/>
<polygon fill="midnightblue" stroke="midnightblue" points="192.194,-85.5505 196.221,-75.7511 186.962,-80.8999 192.194,-85.5505"/>
</g>
<!-- Node17 -->
<g id="node17" class="node"><title>Node17</title>
<polygon fill="white" stroke="#bfbfbf" points="56,-56.5 56,-75.5 100,-75.5 100,-56.5 56,-56.5"/>
<text text-anchor="middle" x="78" y="-63.5" font-family="Helvetica,sans-Serif" font-size="10.00">mutex</text>
</g>
<!-- Node15&#45;&gt;Node17 -->
<g id="edge18" class="edge"><title>Node15&#45;&gt;Node17</title>
<path fill="none" stroke="midnightblue" d="M143.468,-112.324C131.414,-103.979 112.973,-91.2122 98.7313,-81.3524"/>
<polygon fill="midnightblue" stroke="midnightblue" points="100.715,-78.469 90.5009,-75.6545 96.7306,-84.2243 100.715,-78.469"/>
</g>
<!-- Node18 -->
<g id="node18" class="node"><title>Node18</title>
<polygon fill="white" stroke="#bfbfbf" points="118,-56.5 118,-75.5 164,-75.5 164,-56.5 118,-56.5"/>
<text text-anchor="middle" x="141" y="-63.5" font-family="Helvetica,sans-Serif" font-size="10.00">atomic</text>
</g>
<!-- Node15&#45;&gt;Node18 -->
<g id="edge19" class="edge"><title>Node15&#45;&gt;Node18</title>
<path fill="none" stroke="midnightblue" d="M153.523,-112.083C151.514,-104.849 148.614,-94.4087 146.11,-85.3968"/>
<polygon fill="midnightblue" stroke="midnightblue" points="149.48,-84.4495 143.431,-75.7511 142.735,-86.323 149.48,-84.4495"/>
</g>
<!-- Node21&#45;&gt;Node3 -->
<g id="edge28" class="edge"><title>Node21&#45;&gt;Node3</title>
<path fill="none" stroke="midnightblue" d="M323.193,-168.083C320.915,-160.849 317.629,-150.409 314.792,-141.397"/>
<polygon fill="midnightblue" stroke="midnightblue" points="318.096,-140.239 311.755,-131.751 311.419,-142.341 318.096,-140.239"/>
</g>
<!-- Node21&#45;&gt;Node13 -->
<g id="edge27" class="edge"><title>Node21&#45;&gt;Node13</title>
<path fill="none" stroke="midnightblue" d="M260.433,-174.696C212.984,-170.57 148.729,-159.755 99,-132 69.3422,-115.447 59.4146,-107.614 47,-76 32.9003,-40.0945 82.3157,-23.8703 124.011,-16.639"/>
<polygon fill="midnightblue" stroke="midnightblue" points="124.802,-20.0572 134.127,-15.0277 123.701,-13.1443 124.802,-20.0572"/>
</g>
<!-- Node22&#45;&gt;Node5 -->
<g id="edge31" class="edge"><title>Node22&#45;&gt;Node5</title>
<path fill="none" stroke="midnightblue" d="M1299.93,-168.138C1299.32,-154.28 1296.12,-127.468 1281,-112 1260.07,-90.5907 1229.02,-79.3423 1201.3,-73.4431"/>
<polygon fill="midnightblue" stroke="midnightblue" points="1201.74,-69.9638 1191.26,-71.5028 1200.41,-76.8367 1201.74,-69.9638"/>
</g>
<!-- Node23 -->
<g id="node23" class="node"><title>Node23</title>
<g id="a_node23"><a xlink:href="NonCopyable_8h.html" target="_top" xlink:title="common/NonCopyable.h">
<polygon fill="white" stroke="black" points="1328.5,-112.5 1328.5,-131.5 1453.5,-131.5 1453.5,-112.5 1328.5,-112.5"/>
<text text-anchor="middle" x="1391" y="-119.5" font-family="Helvetica,sans-Serif" font-size="10.00">common/NonCopyable.h</text>
</a>
</g>
</g>
<!-- Node22&#45;&gt;Node23 -->
<g id="edge30" class="edge"><title>Node22&#45;&gt;Node23</title>
<path fill="none" stroke="midnightblue" d="M1314.62,-168.324C1328.95,-159.822 1351.01,-146.729 1367.75,-136.797"/>
<polygon fill="midnightblue" stroke="midnightblue" points="1369.6,-139.768 1376.42,-131.655 1366.03,-133.748 1369.6,-139.768"/>
</g>
<!-- Node24 -->
<g id="node24" class="node"><title>Node24</title>
<g id="a_node24"><a xlink:href="AIStateMessage_8h.html" target="_top" xlink:title="AIStateMessage.h">
<polygon fill="white" stroke="red" points="1472,-112.5 1472,-131.5 1570,-131.5 1570,-112.5 1472,-112.5"/>
<text text-anchor="middle" x="1521" y="-119.5" font-family="Helvetica,sans-Serif" font-size="10.00">AIStateMessage.h</text>
</a>
</g>
</g>
<!-- Node22&#45;&gt;Node24 -->
<g id="edge32" class="edge"><title>Node22&#45;&gt;Node24</title>
<path fill="none" stroke="midnightblue" d="M1335.02,-168.444C1373.25,-159.102 1434.57,-144.119 1476.26,-133.933"/>
<polygon fill="midnightblue" stroke="midnightblue" points="1477.26,-137.29 1486.15,-131.516 1475.6,-130.49 1477.26,-137.29"/>
</g>
<!-- Node25 -->
<g id="node25" class="node"><title>Node25</title>
<g id="a_node25"><a xlink:href="AICharacterDetailsMessage_8h.html" target="_top" xlink:title="AICharacterDetailsMessage.h">
<polygon fill="white" stroke="red" points="1588,-112.5 1588,-131.5 1736,-131.5 1736,-112.5 1588,-112.5"/>
<text text-anchor="middle" x="1662" y="-119.5" font-family="Helvetica,sans-Serif" font-size="10.00">AICharacterDetailsMessage.h</text>
</a>
</g>
</g>
<!-- Node22&#45;&gt;Node25 -->
<g id="edge34" class="edge"><title>Node22&#45;&gt;Node25</title>
<path fill="none" stroke="midnightblue" d="M1357.36,-168.444C1421.83,-158.826 1526.4,-143.228 1594.69,-133.041"/>
<polygon fill="midnightblue" stroke="midnightblue" points="1595.53,-136.454 1604.91,-131.516 1594.5,-129.53 1595.53,-136.454"/>
</g>
<!-- Node26 -->
<g id="node26" class="node"><title>Node26</title>
<g id="a_node26"><a xlink:href="AICharacterStaticMessage_8h.html" target="_top" xlink:title="AICharacterStaticMessage.h">
<polygon fill="white" stroke="red" points="1754.5,-112.5 1754.5,-131.5 1897.5,-131.5 1897.5,-112.5 1754.5,-112.5"/>
<text text-anchor="middle" x="1826" y="-119.5" font-family="Helvetica,sans-Serif" font-size="10.00">AICharacterStaticMessage.h</text>
</a>
</g>
</g>
<!-- Node22&#45;&gt;Node26 -->
<g id="edge36" class="edge"><title>Node22&#45;&gt;Node26</title>
<path fill="none" stroke="midnightblue" d="M1367.18,-169.473C1371.85,-168.968 1376.5,-168.473 1381,-168 1539.36,-151.372 1581.6,-149.067 1744.09,-132.084"/>
<polygon fill="midnightblue" stroke="midnightblue" points="1744.87,-135.521 1754.45,-130.997 1744.14,-128.559 1744.87,-135.521"/>
</g>
<!-- Node27 -->
<g id="node27" class="node"><title>Node27</title>
<g id="a_node27"><a xlink:href="AIPauseMessage_8h.html" target="_top" xlink:title="AIPauseMessage.h">
<polygon fill="white" stroke="black" points="1916,-112.5 1916,-131.5 2018,-131.5 2018,-112.5 1916,-112.5"/>
<text text-anchor="middle" x="1967" y="-119.5" font-family="Helvetica,sans-Serif" font-size="10.00">AIPauseMessage.h</text>
</a>
</g>
</g>
<!-- Node22&#45;&gt;Node27 -->
<g id="edge37" class="edge"><title>Node22&#45;&gt;Node27</title>
<path fill="none" stroke="midnightblue" d="M1367.16,-169.317C1371.84,-168.849 1376.49,-168.405 1381,-168 1610.65,-147.378 1671.75,-156.811 1905.6,-131.946"/>
<polygon fill="midnightblue" stroke="midnightblue" points="1906.21,-135.4 1915.78,-130.853 1905.47,-128.44 1906.21,-135.4"/>
</g>
<!-- Node28 -->
<g id="node28" class="node"><title>Node28</title>
<g id="a_node28"><a xlink:href="AISelectMessage_8h.html" target="_top" xlink:title="AISelectMessage.h">
<polygon fill="white" stroke="red" points="2036,-112.5 2036,-131.5 2138,-131.5 2138,-112.5 2036,-112.5"/>
<text text-anchor="middle" x="2087" y="-119.5" font-family="Helvetica,sans-Serif" font-size="10.00">AISelectMessage.h</text>
</a>
</g>
</g>
<!-- Node22&#45;&gt;Node28 -->
<g id="edge39" class="edge"><title>Node22&#45;&gt;Node28</title>
<path fill="none" stroke="midnightblue" d="M1367.16,-169.251C1371.84,-168.799 1376.49,-168.376 1381,-168 1663.77,-144.417 1738.61,-160.594 2025.49,-131.939"/>
<polygon fill="midnightblue" stroke="midnightblue" points="2026.19,-135.386 2035.79,-130.9 2025.49,-128.421 2026.19,-135.386"/>
</g>
<!-- Node29 -->
<g id="node29" class="node"><title>Node29</title>
<g id="a_node29"><a xlink:href="AINamesMessage_8h.html" target="_top" xlink:title="AINamesMessage.h">
<polygon fill="white" stroke="black" points="2156,-112.5 2156,-131.5 2262,-131.5 2262,-112.5 2156,-112.5"/>
<text text-anchor="middle" x="2209" y="-119.5" font-family="Helvetica,sans-Serif" font-size="10.00">AINamesMessage.h</text>
</a>
</g>
</g>
<!-- Node22&#45;&gt;Node29 -->
<g id="edge41" class="edge"><title>Node22&#45;&gt;Node29</title>
<path fill="none" stroke="midnightblue" d="M1367.15,-169.206C1371.84,-168.765 1376.49,-168.357 1381,-168 1717.01,-141.454 1805.42,-163.662 2145.63,-131.922"/>
<polygon fill="midnightblue" stroke="midnightblue" points="2146.14,-135.389 2155.77,-130.967 2145.48,-128.42 2146.14,-135.389"/>
</g>
<!-- Node30 -->
<g id="node30" class="node"><title>Node30</title>
<g id="a_node30"><a xlink:href="AIChangeMessage_8h.html" target="_top" xlink:title="AIChangeMessage.h">
<polygon fill="white" stroke="black" points="626,-112.5 626,-131.5 734,-131.5 734,-112.5 626,-112.5"/>
<text text-anchor="middle" x="680" y="-119.5" font-family="Helvetica,sans-Serif" font-size="10.00">AIChangeMessage.h</text>
</a>
</g>
</g>
<!-- Node22&#45;&gt;Node30 -->
<g id="edge43" class="edge"><title>Node22&#45;&gt;Node30</title>
<path fill="none" stroke="midnightblue" d="M1232.69,-172.838C1129.9,-166.196 927.393,-151.995 744.185,-131.948"/>
<polygon fill="midnightblue" stroke="midnightblue" points="744.417,-128.452 734.093,-130.835 743.65,-135.41 744.417,-128.452"/>
</g>
<!-- Node31 -->
<g id="node31" class="node"><title>Node31</title>
<g id="a_node31"><a xlink:href="AIStepMessage_8h.html" target="_top" xlink:title="AIStepMessage.h">
<polygon fill="white" stroke="black" points="752.5,-112.5 752.5,-131.5 847.5,-131.5 847.5,-112.5 752.5,-112.5"/>
<text text-anchor="middle" x="800" y="-119.5" font-family="Helvetica,sans-Serif" font-size="10.00">AIStepMessage.h</text>
</a>
</g>
</g>
<!-- Node22&#45;&gt;Node31 -->
<g id="edge45" class="edge"><title>Node22&#45;&gt;Node31</title>
<path fill="none" stroke="midnightblue" d="M1232.7,-171.331C1147.8,-163.919 997.092,-149.895 857.582,-132.005"/>
<polygon fill="midnightblue" stroke="midnightblue" points="857.923,-128.521 847.557,-130.711 857.027,-135.463 857.923,-128.521"/>
</g>
<!-- Node32 -->
<g id="node32" class="node"><title>Node32</title>
<g id="a_node32"><a xlink:href="AIUpdateNodeMessage_8h.html" target="_top" xlink:title="AIUpdateNodeMessage.h">
<polygon fill="white" stroke="red" points="865.5,-112.5 865.5,-131.5 994.5,-131.5 994.5,-112.5 865.5,-112.5"/>
<text text-anchor="middle" x="930" y="-119.5" font-family="Helvetica,sans-Serif" font-size="10.00">AIUpdateNodeMessage.h</text>
</a>
</g>
</g>
<!-- Node22&#45;&gt;Node32 -->
<g id="edge47" class="edge"><title>Node22&#45;&gt;Node32</title>
<path fill="none" stroke="midnightblue" d="M1241.37,-168.444C1175.34,-158.806 1068.16,-143.163 998.369,-132.978"/>
<polygon fill="midnightblue" stroke="midnightblue" points="998.754,-129.497 988.353,-131.516 997.743,-136.424 998.754,-129.497"/>
</g>
<!-- Node33 -->
<g id="node33" class="node"><title>Node33</title>
<g id="a_node33"><a xlink:href="AIAddNodeMessage_8h.html" target="_top" xlink:title="AIAddNodeMessage.h">
<polygon fill="white" stroke="red" points="1012.5,-112.5 1012.5,-131.5 1127.5,-131.5 1127.5,-112.5 1012.5,-112.5"/>
<text text-anchor="middle" x="1070" y="-119.5" font-family="Helvetica,sans-Serif" font-size="10.00">AIAddNodeMessage.h</text>
</a>
</g>
</g>
<!-- Node22&#45;&gt;Node33 -->
<g id="edge49" class="edge"><title>Node22&#45;&gt;Node33</title>
<path fill="none" stroke="midnightblue" d="M1263.56,-168.444C1223.6,-159.063 1159.41,-143.993 1116.02,-133.804"/>
<polygon fill="midnightblue" stroke="midnightblue" points="1116.81,-130.395 1106.27,-131.516 1115.21,-137.21 1116.81,-130.395"/>
</g>
<!-- Node34 -->
<g id="node34" class="node"><title>Node34</title>
<g id="a_node34"><a xlink:href="AIDeleteNodeMessage_8h.html" target="_top" xlink:title="AIDeleteNodeMessage.h">
<polygon fill="white" stroke="red" points="1146,-112.5 1146,-131.5 1272,-131.5 1272,-112.5 1146,-112.5"/>
<text text-anchor="middle" x="1209" y="-119.5" font-family="Helvetica,sans-Serif" font-size="10.00">AIDeleteNodeMessage.h</text>
</a>
</g>
</g>
<!-- Node22&#45;&gt;Node34 -->
<g id="edge51" class="edge"><title>Node22&#45;&gt;Node34</title>
<path fill="none" stroke="midnightblue" d="M1285.38,-168.324C1271.05,-159.822 1248.99,-146.729 1232.25,-136.797"/>
<polygon fill="midnightblue" stroke="midnightblue" points="1233.97,-133.748 1223.58,-131.655 1230.4,-139.768 1233.97,-133.748"/>
</g>
<!-- Node24&#45;&gt;Node5 -->
<g id="edge33" class="edge"><title>Node24&#45;&gt;Node5</title>
<path fill="none" stroke="midnightblue" d="M1471.75,-113.439C1468.45,-112.947 1465.18,-112.464 1462,-112 1371.33,-98.7688 1266.21,-84.2819 1201.15,-75.415"/>
<polygon fill="midnightblue" stroke="midnightblue" points="1201.44,-71.9224 1191.06,-74.0413 1200.49,-78.8584 1201.44,-71.9224"/>
</g>
<!-- Node25&#45;&gt;Node5 -->
<g id="edge35" class="edge"><title>Node25&#45;&gt;Node5</title>
<path fill="none" stroke="midnightblue" d="M1587.8,-113.031C1584.49,-112.681 1581.21,-112.336 1578,-112 1443.64,-97.9159 1286.09,-81.8841 1201.05,-73.2698"/>
<polygon fill="midnightblue" stroke="midnightblue" points="1201.34,-69.782 1191.04,-72.2567 1200.64,-76.7464 1201.34,-69.782"/>
</g>
<!-- Node27&#45;&gt;Node5 -->
<g id="edge38" class="edge"><title>Node27&#45;&gt;Node5</title>
<path fill="none" stroke="midnightblue" d="M1915.79,-113.11C1912.48,-112.704 1909.19,-112.329 1906,-112 1645.04,-85.1458 1332.35,-72.9936 1201.44,-68.8034"/>
<polygon fill="midnightblue" stroke="midnightblue" points="1201.31,-65.2978 1191.21,-68.4804 1201.09,-72.2943 1201.31,-65.2978"/>
</g>
<!-- Node28&#45;&gt;Node5 -->
<g id="edge40" class="edge"><title>Node28&#45;&gt;Node5</title>
<path fill="none" stroke="midnightblue" d="M2035.79,-113.081C2032.48,-112.682 2029.2,-112.316 2026,-112 1717.32,-81.469 1346.03,-71.1336 1201.15,-68.1069"/>
<polygon fill="midnightblue" stroke="midnightblue" points="1201.19,-64.607 1191.12,-67.9014 1201.04,-71.6055 1201.19,-64.607"/>
</g>
<!-- Node29&#45;&gt;Node5 -->
<g id="edge42" class="edge"><title>Node29&#45;&gt;Node5</title>
<path fill="none" stroke="midnightblue" d="M2155.77,-113.024C2152.47,-112.645 2149.19,-112.298 2146,-112 1789.24,-78.6252 1358.97,-69.851 1201.01,-67.6756"/>
<polygon fill="midnightblue" stroke="midnightblue" points="1201.05,-64.1759 1191.01,-67.5416 1200.96,-71.1753 1201.05,-64.1759"/>
</g>
<!-- Node30&#45;&gt;Node5 -->
<g id="edge44" class="edge"><title>Node30&#45;&gt;Node5</title>
<path fill="none" stroke="midnightblue" d="M734.108,-113.289C737.454,-112.844 740.772,-112.411 744,-112 861.455,-97.0536 998.868,-81.9316 1076.75,-73.5809"/>
<polygon fill="midnightblue" stroke="midnightblue" points="1077.3,-77.0419 1086.87,-72.4977 1076.56,-70.0816 1077.3,-77.0419"/>
</g>
<!-- Node31&#45;&gt;Node5 -->
<g id="edge46" class="edge"><title>Node31&#45;&gt;Node5</title>
<path fill="none" stroke="midnightblue" d="M847.851,-113.378C907.793,-103.829 1010.63,-87.4475 1076.67,-76.928"/>
<polygon fill="midnightblue" stroke="midnightblue" points="1077.62,-80.3216 1086.94,-75.292 1076.52,-73.4087 1077.62,-80.3216"/>
</g>
<!-- Node32&#45;&gt;Node5 -->
<g id="edge48" class="edge"><title>Node32&#45;&gt;Node5</title>
<path fill="none" stroke="midnightblue" d="M963.117,-112.444C999.118,-103.142 1056.77,-88.246 1096.19,-78.062"/>
<polygon fill="midnightblue" stroke="midnightblue" points="1097.23,-81.4068 1106.04,-75.5164 1095.48,-74.6294 1097.23,-81.4068"/>
</g>
<!-- Node33&#45;&gt;Node5 -->
<g id="edge50" class="edge"><title>Node33&#45;&gt;Node5</title>
<path fill="none" stroke="midnightblue" d="M1081.09,-112.324C1091.49,-104.185 1107.26,-91.8395 1119.72,-82.0874"/>
<polygon fill="midnightblue" stroke="midnightblue" points="1121.99,-84.7533 1127.71,-75.8339 1117.68,-79.2407 1121.99,-84.7533"/>
</g>
<!-- Node34&#45;&gt;Node5 -->
<g id="edge52" class="edge"><title>Node34&#45;&gt;Node5</title>
<path fill="none" stroke="midnightblue" d="M1197.75,-112.324C1187.2,-104.185 1171.2,-91.8395 1158.56,-82.0874"/>
<polygon fill="midnightblue" stroke="midnightblue" points="1160.51,-79.1707 1150.45,-75.8339 1156.23,-84.7132 1160.51,-79.1707"/>
</g>
</g>
</svg>
        <g id="navigator" transform="translate(0 0)" fill="#404254">
                <rect fill="#f2f5e9" fill-opacity="0.5" stroke="#606060" stroke-width=".5" x="0" y="0" width="60" height="60"/>
                <use id="zoomplus" xlink:href="#zoomPlus" x="17" y="9" onmousedown="handleZoom(evt,'in')"/>
                <use id="zoomminus" xlink:href="#zoomMin" x="42" y="9" onmousedown="handleZoom(evt,'out')"/>
                <use id="reset" xlink:href="#resetDef" x="30" y="36" onmousedown="handleReset()"/>
                <g id="arrowUp" xlink:href="#dirArrow" transform="translate(30 24)" onmousedown="handlePan(0,-1)">
                  <use xlink:href="#rim" fill="#404040">
                        <set attributeName="fill" to="#808080" begin="arrowUp.mouseover" end="arrowUp.mouseout"/>
                  </use>
                  <path fill="none" stroke="white" stroke-width="1.5" d="M0,-3.0v7 M-2.5,-0.5L0,-3.0L2.5,-0.5"/>
                </g>
                <g id="arrowRight" xlink:href="#dirArrow" transform="rotate(90) translate(36 -43)" onmousedown="handlePan(1,0)">
                  <use xlink:href="#rim" fill="#404040">
                        <set attributeName="fill" to="#808080" begin="arrowRight.mouseover" end="arrowRight.mouseout"/>
                  </use>
                  <path fill="none" stroke="white" stroke-width="1.5" d="M0,-3.0v7 M-2.5,-0.5L0,-3.0L2.5,-0.5"/>
                </g>
                <g id="arrowDown" xlink:href="#dirArrow" transform="rotate(180) translate(-30 -48)" onmousedown="handlePan(0,1)">
                  <use xlink:href="#rim" fill="#404040">
                        <set attributeName="fill" to="#808080" begin="arrowDown.mouseover" end="arrowDown.mouseout"/>
                  </use>
                  <path fill="none" stroke="white" stroke-width="1.5" d="M0,-3.0v7 M-2.5,-0.5L0,-3.0L2.5,-0.5"/>
                </g>
                <g id="arrowLeft" xlink:href="#dirArrow" transform="rotate(270) translate(-36 17)" onmousedown="handlePan(-1,0)">
                  <use xlink:href="#rim" fill="#404040">
                        <set attributeName="fill" to="#808080" begin="arrowLeft.mouseover" end="arrowLeft.mouseout"/>
                  </use>
                  <path fill="none" stroke="white" stroke-width="1.5" d="M0,-3.0v7 M-2.5,-0.5L0,-3.0L2.5,-0.5"/>
                </g>
        </g>
        <svg viewBox="0 0 15 15" width="100%" height="30px" preserveAspectRatio="xMaxYMin meet">
         <g id="arrow_out" transform="scale(0.3 0.3)">
          <a xlink:href="NetworkImpl_8h__incl_org.svg" target="_base">
           <rect id="button" ry="5" rx="5" y="6" x="6" height="38" width="38"
                fill="#f2f5e9" fill-opacity="0.5" stroke="#606060" stroke-width="1.0"/>
           <path id="arrow"
             d="M 11.500037,31.436501 C 11.940474,20.09759 22.043105,11.32322 32.158766,21.979434 L 37.068811,17.246167 C 37.068811,17.246167 37.088388,32 37.088388,32 L 22.160133,31.978069 C 22.160133,31.978069 26.997745,27.140456 26.997745,27.140456 C 18.528582,18.264221 13.291696,25.230495 11.500037,31.436501 z"
             style="fill:#404040;"/>
          </a>
         </g>
        </svg>
</svg>
