<?xml version="1.0" encoding="UTF-8" standalone="no"?>
<!DOCTYPE svg PUBLIC "-//W3C//DTD SVG 1.1//EN"
 "http://www.w3.org/Graphics/SVG/1.1/DTD/svg11.dtd">
<!-- Generated by graphviz version 2.36.0 (20140111.2315)
 -->
<!-- Title: /home/travis/build/mgerhardy/simpleai/src/ai/server/NetworkImpl.h Pages: 1 -->
<!--zoomable 330 -->
<svg id="main" version="1.1" xmlns="http://www.w3.org/2000/svg" xmlns:xlink="http://www.w3.org/1999/xlink" xml:space="preserve" onload="init(evt)">
<style type="text/css"><![CDATA[
.edge:hover path { stroke: red; }
.edge:hover polygon { stroke: red; fill: red; }
]]></style>
<script type="text/javascript"><![CDATA[
var edges = document.getElementsByTagName('g');
if (edges && edges.length) {
  for (var i=0;i<edges.length;i++) {
    if (edges[i].id.substr(0,4)=='edge') {
      edges[i].setAttribute('class','edge');
    }
  }
}
]]></script>
        <defs>
                <circle id="rim" cx="0" cy="0" r="7"/>
                <circle id="rim2" cx="0" cy="0" r="3.5"/>
                <g id="zoomPlus">
                        <use xlink:href="#rim" fill="#404040">
                                <set attributeName="fill" to="#808080" begin="zoomplus.mouseover" end="zoomplus.mouseout"/>
                        </use>
                        <path d="M-4,0h8M0,-4v8" fill="none" stroke="white" stroke-width="1.5" pointer-events="none"/>
                </g>
                <g id="zoomMin">
                        <use xlink:href="#rim" fill="#404040">
                                <set attributeName="fill" to="#808080" begin="zoomminus.mouseover" end="zoomminus.mouseout"/>
                        </use>
                        <path d="M-4,0h8" fill="none" stroke="white" stroke-width="1.5" pointer-events="none"/>
                </g>
                <g id="dirArrow">
                        <path fill="none" stroke="white" stroke-width="1.5" d="M0,-3.0v7 M-2.5,-0.5L0,-3.0L2.5,-0.5"/>
                </g>
               <g id="resetDef">
                       <use xlink:href="#rim2" fill="#404040">
                               <set attributeName="fill" to="#808080" begin="reset.mouseover" end="reset.mouseout"/>
                       </use>
               </g>
        </defs>

<script type="text/javascript">
var viewWidth = 2464;
var viewHeight = 330;
var sectionId = 'dynsection-0';
</script>
<script xlink:href="svgpan.js"/>
<svg id="graph" class="graph">
<g id="viewport">
<title>/home/travis/build/mgerhardy/simpleai/src/ai/server/NetworkImpl.h</title>
<polygon fill="white" stroke="none" points="-4,4 -4,-326 2460,-326 2460,4 -4,4"/>
<!-- Node1 -->
<g id="node1" class="node"><title>Node1</title>
<polygon fill="#bfbfbf" stroke="black" points="1547,-280.5 1547,-321.5 1687,-321.5 1687,-280.5 1547,-280.5"/>
<text text-anchor="start" x="1555" y="-309.5" font-family="Helvetica,sans-Serif" font-size="10.00">/home/travis/build</text>
<text text-anchor="start" x="1555" y="-298.5" font-family="Helvetica,sans-Serif" font-size="10.00">/mgerhardy/simpleai</text>
<text text-anchor="middle" x="1617" y="-287.5" font-family="Helvetica,sans-Serif" font-size="10.00">/src/ai/server/NetworkImpl.h</text>
</g>
<!-- Node2 -->
<g id="node2" class="node"><title>Node2</title>
<g id="a_node2"><a xlink:href="Network_8h.html" target="_top" xlink:title="Network.h">
<polygon fill="white" stroke="black" points="326,-224.5 326,-243.5 388,-243.5 388,-224.5 326,-224.5"/>
<text text-anchor="middle" x="357" y="-231.5" font-family="Helvetica,sans-Serif" font-size="10.00">Network.h</text>
</a>
</g>
</g>
<!-- Node1&#45;&gt;Node2 -->
<g id="edge1" class="edge"><title>Node1&#45;&gt;Node2</title>
<path fill="none" stroke="midnightblue" d="M1546.63,-298.394C1324.85,-293.08 641.318,-274.713 398.535,-243.934"/>
<polygon fill="midnightblue" stroke="midnightblue" points="398.719,-240.428 388.349,-242.6 397.81,-247.369 398.719,-240.428"/>
</g>
<!-- Node3 -->
<g id="node3" class="node"><title>Node3</title>
<g id="a_node3"><a xlink:href="IProtocolHandler_8h.html" target="_top" xlink:title="IProtocolHandler.h">
<polygon fill="white" stroke="black" points="478,-168.5 478,-187.5 576,-187.5 576,-168.5 478,-168.5"/>
<text text-anchor="middle" x="527" y="-175.5" font-family="Helvetica,sans-Serif" font-size="10.00">IProtocolHandler.h</text>
</a>
</g>
</g>
<!-- Node1&#45;&gt;Node3 -->
<g id="edge26" class="edge"><title>Node1&#45;&gt;Node3</title>
<path fill="none" stroke="midnightblue" d="M1546.75,-299.124C1329.27,-296.003 676.467,-283.42 590,-244 567.737,-233.851 549.252,-212.006 538.184,-196.444"/>
<polygon fill="midnightblue" stroke="midnightblue" points="540.788,-194.047 532.283,-187.728 534.991,-197.971 540.788,-194.047"/>
</g>
<!-- Node4 -->
<g id="node4" class="node"><title>Node4</title>
<polygon fill="white" stroke="#bfbfbf" points="532,-112.5 532,-131.5 584,-131.5 584,-112.5 532,-112.5"/>
<text text-anchor="middle" x="558" y="-119.5" font-family="Helvetica,sans-Serif" font-size="10.00">memory</text>
</g>
<!-- Node1&#45;&gt;Node4 -->
<g id="edge70" class="edge"><title>Node1&#45;&gt;Node4</title>
<path fill="none" stroke="midnightblue" d="M1546.65,-299.84C1333.67,-298.828 705.682,-291.782 628,-244 627.843,-243.903 587.404,-173.911 568.07,-140.437"/>
<polygon fill="midnightblue" stroke="midnightblue" points="571.052,-138.602 563.02,-131.693 564.991,-142.103 571.052,-138.602"/>
</g>
<!-- Node5 -->
<g id="node5" class="node"><title>Node5</title>
<g id="a_node5"><a xlink:href="IProtocolMessage_8h.html" target="_top" xlink:title="IProtocolMessage.h">
<polygon fill="white" stroke="black" points="1061,-112.5 1061,-131.5 1165,-131.5 1165,-112.5 1061,-112.5"/>
<text text-anchor="middle" x="1113" y="-119.5" font-family="Helvetica,sans-Serif" font-size="10.00">IProtocolMessage.h</text>
</a>
</g>
</g>
<!-- Node1&#45;&gt;Node5 -->
<g id="edge25" class="edge"><title>Node1&#45;&gt;Node5</title>
<path fill="none" stroke="midnightblue" d="M1546.87,-299.89C1451.94,-297.521 1300.7,-284.544 1359,-224 1432.5,-147.671 2238.5,-264.329 2312,-188 2318.17,-181.597 2318.17,-174.402 2312,-168 2272.29,-126.768 1416.45,-123.167 1175.58,-122.972"/>
<polygon fill="midnightblue" stroke="midnightblue" points="1175.25,-119.472 1165.25,-122.966 1175.24,-126.472 1175.25,-119.472"/>
</g>
<!-- Node10 -->
<g id="node10" class="node"><title>Node10</title>
<polygon fill="white" stroke="#bfbfbf" points="805.5,-56.5 805.5,-75.5 848.5,-75.5 848.5,-56.5 805.5,-56.5"/>
<text text-anchor="middle" x="827" y="-63.5" font-family="Helvetica,sans-Serif" font-size="10.00">deque</text>
</g>
<!-- Node1&#45;&gt;Node10 -->
<g id="edge66" class="edge"><title>Node1&#45;&gt;Node10</title>
<path fill="none" stroke="midnightblue" d="M1546.83,-297.059C1336.13,-287.515 719.835,-254.131 661,-188 614.726,-135.988 735.543,-92.9421 795.534,-75.4306"/>
<polygon fill="midnightblue" stroke="midnightblue" points="796.632,-78.757 805.29,-72.651 794.714,-72.0249 796.632,-78.757"/>
</g>
<!-- Node13 -->
<g id="node13" class="node"><title>Node13</title>
<polygon fill="white" stroke="#bfbfbf" points="72.5,-0.5 72.5,-19.5 121.5,-19.5 121.5,-0.5 72.5,-0.5"/>
<text text-anchor="middle" x="97" y="-7.5" font-family="Helvetica,sans-Serif" font-size="10.00">string.h</text>
</g>
<!-- Node1&#45;&gt;Node13 -->
<g id="edge65" class="edge"><title>Node1&#45;&gt;Node13</title>
<path fill="none" stroke="midnightblue" d="M1546.97,-300.092C1296.69,-299.981 447.194,-295.712 181,-244 97.0942,-227.7 0,-264.474 0,-179 0,-179 0,-179 0,-121 0,-77.3471 43.5054,-42.8276 72.2443,-24.7868"/>
<polygon fill="midnightblue" stroke="midnightblue" points="74.2262,-27.6789 80.9824,-19.5177 70.6115,-21.6844 74.2262,-27.6789"/>
</g>
<!-- Node15 -->
<g id="node15" class="node"><title>Node15</title>
<polygon fill="white" stroke="#bfbfbf" points="54.5,-56.5 54.5,-75.5 103.5,-75.5 103.5,-56.5 54.5,-56.5"/>
<text text-anchor="middle" x="79" y="-63.5" font-family="Helvetica,sans-Serif" font-size="10.00">cassert</text>
</g>
<!-- Node1&#45;&gt;Node15 -->
<g id="edge68" class="edge"><title>Node1&#45;&gt;Node15</title>
<path fill="none" stroke="midnightblue" d="M1546.94,-298.979C1312.59,-295.252 557.354,-280.63 317,-244 221.083,-229.382 188.426,-239.184 106,-188 77.9046,-170.554 68.6322,-162.958 57,-132 50.998,-116.026 58.5995,-97.5789 66.4608,-84.4269"/>
<polygon fill="midnightblue" stroke="midnightblue" points="69.4952,-86.1816 72.0402,-75.897 63.6371,-82.3498 69.4952,-86.1816"/>
</g>
<!-- Node22 -->
<g id="node22" class="node"><title>Node22</title>
<g id="a_node22"><a xlink:href="ProtocolHandlerRegistry_8h.html" target="_top" xlink:title="ProtocolHandlerRegistry.h">
<polygon fill="white" stroke="black" points="406.5,-224.5 406.5,-243.5 537.5,-243.5 537.5,-224.5 406.5,-224.5"/>
<text text-anchor="middle" x="472" y="-231.5" font-family="Helvetica,sans-Serif" font-size="10.00">ProtocolHandlerRegistry.h</text>
</a>
</g>
</g>
<!-- Node1&#45;&gt;Node22 -->
<g id="edge27" class="edge"><title>Node1&#45;&gt;Node22</title>
<path fill="none" stroke="midnightblue" d="M1546.81,-297.755C1376.22,-291.983 926.355,-274.872 552,-244 550.707,-243.893 549.403,-243.783 548.09,-243.668"/>
<polygon fill="midnightblue" stroke="midnightblue" points="548.17,-240.161 537.891,-242.727 547.527,-247.131 548.17,-240.161"/>
</g>
<!-- Node23 -->
<g id="node23" class="node"><title>Node23</title>
<g id="a_node23"><a xlink:href="ProtocolMessageFactory_8h.html" target="_top" xlink:title="ProtocolMessageFactory.h">
<polygon fill="white" stroke="black" points="1178,-224.5 1178,-243.5 1312,-243.5 1312,-224.5 1178,-224.5"/>
<text text-anchor="middle" x="1245" y="-231.5" font-family="Helvetica,sans-Serif" font-size="10.00">ProtocolMessageFactory.h</text>
</a>
</g>
</g>
<!-- Node1&#45;&gt;Node23 -->
<g id="edge30" class="edge"><title>Node1&#45;&gt;Node23</title>
<path fill="none" stroke="midnightblue" d="M1546.59,-287.698C1476.41,-275.435 1369.86,-256.817 1303.99,-245.307"/>
<polygon fill="midnightblue" stroke="midnightblue" points="1304.23,-241.797 1293.78,-243.523 1303.03,-248.692 1304.23,-241.797"/>
</g>
<!-- Node36 -->
<g id="node36" class="node"><title>Node36</title>
<polygon fill="white" stroke="#bfbfbf" points="1368,-224.5 1368,-243.5 1436,-243.5 1436,-224.5 1368,-224.5"/>
<text text-anchor="middle" x="1402" y="-231.5" font-family="Helvetica,sans-Serif" font-size="10.00">sys/types.h</text>
</g>
<!-- Node1&#45;&gt;Node36 -->
<g id="edge54" class="edge"><title>Node1&#45;&gt;Node36</title>
<path fill="none" stroke="midnightblue" d="M1552.49,-280.498C1515.77,-269.396 1471.04,-255.872 1439.93,-246.468"/>
<polygon fill="midnightblue" stroke="midnightblue" points="1440.92,-243.111 1430.34,-243.567 1438.9,-249.811 1440.92,-243.111"/>
</g>
<!-- Node37 -->
<g id="node37" class="node"><title>Node37</title>
<polygon fill="white" stroke="#bfbfbf" points="1454.5,-224.5 1454.5,-243.5 1527.5,-243.5 1527.5,-224.5 1454.5,-224.5"/>
<text text-anchor="middle" x="1491" y="-231.5" font-family="Helvetica,sans-Serif" font-size="10.00">sys/socket.h</text>
</g>
<!-- Node1&#45;&gt;Node37 -->
<g id="edge55" class="edge"><title>Node1&#45;&gt;Node37</title>
<path fill="none" stroke="midnightblue" d="M1579.2,-280.498C1559.13,-270.149 1534.99,-257.695 1517.04,-248.435"/>
<polygon fill="midnightblue" stroke="midnightblue" points="1518.26,-245.127 1507.77,-243.652 1515.06,-251.348 1518.26,-245.127"/>
</g>
<!-- Node38 -->
<g id="node38" class="node"><title>Node38</title>
<polygon fill="white" stroke="#bfbfbf" points="1546,-224.5 1546,-243.5 1608,-243.5 1608,-224.5 1546,-224.5"/>
<text text-anchor="middle" x="1577" y="-231.5" font-family="Helvetica,sans-Serif" font-size="10.00">sys/ioctl.h</text>
</g>
<!-- Node1&#45;&gt;Node38 -->
<g id="edge56" class="edge"><title>Node1&#45;&gt;Node38</title>
<path fill="none" stroke="midnightblue" d="M1605,-280.498C1599.46,-271.49 1592.93,-260.888 1587.58,-252.185"/>
<polygon fill="midnightblue" stroke="midnightblue" points="1590.55,-250.335 1582.32,-243.652 1584.58,-254.003 1590.55,-250.335"/>
</g>
<!-- Node39 -->
<g id="node39" class="node"><title>Node39</title>
<polygon fill="white" stroke="#bfbfbf" points="1626,-224.5 1626,-243.5 1688,-243.5 1688,-224.5 1626,-224.5"/>
<text text-anchor="middle" x="1657" y="-231.5" font-family="Helvetica,sans-Serif" font-size="10.00">sys/time.h</text>
</g>
<!-- Node1&#45;&gt;Node39 -->
<g id="edge57" class="edge"><title>Node1&#45;&gt;Node39</title>
<path fill="none" stroke="midnightblue" d="M1629,-280.498C1634.54,-271.49 1641.07,-260.888 1646.42,-252.185"/>
<polygon fill="midnightblue" stroke="midnightblue" points="1649.42,-254.003 1651.68,-243.652 1643.45,-250.335 1649.42,-254.003"/>
</g>
<!-- Node40 -->
<g id="node40" class="node"><title>Node40</title>
<polygon fill="white" stroke="#bfbfbf" points="1706.5,-224.5 1706.5,-243.5 1757.5,-243.5 1757.5,-224.5 1706.5,-224.5"/>
<text text-anchor="middle" x="1732" y="-231.5" font-family="Helvetica,sans-Serif" font-size="10.00">unistd.h</text>
</g>
<!-- Node1&#45;&gt;Node40 -->
<g id="edge58" class="edge"><title>Node1&#45;&gt;Node40</title>
<path fill="none" stroke="midnightblue" d="M1651.5,-280.498C1669.64,-270.245 1691.44,-257.925 1707.77,-248.693"/>
<polygon fill="midnightblue" stroke="midnightblue" points="1709.71,-251.62 1716.69,-243.652 1706.26,-245.526 1709.71,-251.62"/>
</g>
<!-- Node41 -->
<g id="node41" class="node"><title>Node41</title>
<polygon fill="white" stroke="#bfbfbf" points="1776,-224.5 1776,-243.5 1820,-243.5 1820,-224.5 1776,-224.5"/>
<text text-anchor="middle" x="1798" y="-231.5" font-family="Helvetica,sans-Serif" font-size="10.00">fcntl.h</text>
</g>
<!-- Node1&#45;&gt;Node41 -->
<g id="edge59" class="edge"><title>Node1&#45;&gt;Node41</title>
<path fill="none" stroke="midnightblue" d="M1671.31,-280.498C1702.33,-269.357 1740.15,-255.775 1766.35,-246.366"/>
<polygon fill="midnightblue" stroke="midnightblue" points="1767.55,-249.652 1775.78,-242.978 1765.19,-243.064 1767.55,-249.652"/>
</g>
<!-- Node42 -->
<g id="node42" class="node"><title>Node42</title>
<polygon fill="white" stroke="#bfbfbf" points="1838.5,-224.5 1838.5,-243.5 1903.5,-243.5 1903.5,-224.5 1838.5,-224.5"/>
<text text-anchor="middle" x="1871" y="-231.5" font-family="Helvetica,sans-Serif" font-size="10.00">netinet/in.h</text>
</g>
<!-- Node1&#45;&gt;Node42 -->
<g id="edge60" class="edge"><title>Node1&#45;&gt;Node42</title>
<path fill="none" stroke="midnightblue" d="M1687.08,-282.066C1732.37,-270.476 1789.84,-255.77 1828.38,-245.907"/>
<polygon fill="midnightblue" stroke="midnightblue" points="1829.41,-249.255 1838.23,-243.385 1827.68,-242.474 1829.41,-249.255"/>
</g>
<!-- Node43 -->
<g id="node43" class="node"><title>Node43</title>
<polygon fill="white" stroke="#bfbfbf" points="1921.5,-224.5 1921.5,-243.5 1992.5,-243.5 1992.5,-224.5 1921.5,-224.5"/>
<text text-anchor="middle" x="1957" y="-231.5" font-family="Helvetica,sans-Serif" font-size="10.00">netinet/tcp.h</text>
</g>
<!-- Node1&#45;&gt;Node43 -->
<g id="edge61" class="edge"><title>Node1&#45;&gt;Node43</title>
<path fill="none" stroke="midnightblue" d="M1687.07,-286.898C1744.59,-276.098 1828.44,-260.247 1911.31,-244.121"/>
<polygon fill="midnightblue" stroke="midnightblue" points="1912,-247.552 1921.14,-242.204 1910.66,-240.681 1912,-247.552"/>
</g>
<!-- Node44 -->
<g id="node44" class="node"><title>Node44</title>
<polygon fill="white" stroke="#bfbfbf" points="2010.5,-224.5 2010.5,-243.5 2057.5,-243.5 2057.5,-224.5 2010.5,-224.5"/>
<text text-anchor="middle" x="2034" y="-231.5" font-family="Helvetica,sans-Serif" font-size="10.00">net/if.h</text>
</g>
<!-- Node1&#45;&gt;Node44 -->
<g id="edge62" class="edge"><title>Node1&#45;&gt;Node44</title>
<path fill="none" stroke="midnightblue" d="M1687.17,-292.362C1762.31,-283.598 1885.14,-267.592 2000.25,-243.925"/>
<polygon fill="midnightblue" stroke="midnightblue" points="2001.21,-247.299 2010.29,-241.836 1999.79,-240.446 2001.21,-247.299"/>
</g>
<!-- Node45 -->
<g id="node45" class="node"><title>Node45</title>
<polygon fill="white" stroke="#bfbfbf" points="2075.5,-224.5 2075.5,-243.5 2124.5,-243.5 2124.5,-224.5 2075.5,-224.5"/>
<text text-anchor="middle" x="2100" y="-231.5" font-family="Helvetica,sans-Serif" font-size="10.00">netdb.h</text>
</g>
<!-- Node1&#45;&gt;Node45 -->
<g id="edge63" class="edge"><title>Node1&#45;&gt;Node45</title>
<path fill="none" stroke="midnightblue" d="M1687.07,-294.207C1773.73,-286.385 1925.82,-270.511 2065.19,-243.91"/>
<polygon fill="midnightblue" stroke="midnightblue" points="2066.05,-247.309 2075.21,-241.976 2064.72,-240.436 2066.05,-247.309"/>
</g>
<!-- Node46 -->
<g id="node46" class="node"><title>Node46</title>
<polygon fill="white" stroke="#bfbfbf" points="2143,-224.5 2143,-243.5 2193,-243.5 2193,-224.5 2143,-224.5"/>
<text text-anchor="middle" x="2168" y="-231.5" font-family="Helvetica,sans-Serif" font-size="10.00">signal.h</text>
</g>
<!-- Node1&#45;&gt;Node46 -->
<g id="edge64" class="edge"><title>Node1&#45;&gt;Node46</title>
<path fill="none" stroke="midnightblue" d="M1687.15,-295.594C1786.84,-288.607 1974.97,-272.739 2133,-244 2133.1,-243.982 2133.2,-243.963 2133.3,-243.945"/>
<polygon fill="midnightblue" stroke="midnightblue" points="2133.8,-247.417 2142.86,-241.925 2132.35,-240.568 2133.8,-247.417"/>
</g>
<!-- Node47 -->
<g id="node47" class="node"><title>Node47</title>
<polygon fill="white" stroke="#bfbfbf" points="2211,-224.5 2211,-243.5 2267,-243.5 2267,-224.5 2211,-224.5"/>
<text text-anchor="middle" x="2239" y="-231.5" font-family="Helvetica,sans-Serif" font-size="10.00">algorithm</text>
</g>
<!-- Node1&#45;&gt;Node47 -->
<g id="edge67" class="edge"><title>Node1&#45;&gt;Node47</title>
<path fill="none" stroke="midnightblue" d="M1687.21,-296.533C1795.58,-290.466 2010.14,-275.602 2200.88,-243.964"/>
<polygon fill="midnightblue" stroke="midnightblue" points="2201.52,-247.405 2210.8,-242.299 2200.36,-240.502 2201.52,-247.405"/>
</g>
<!-- Node48 -->
<g id="node48" class="node"><title>Node48</title>
<polygon fill="white" stroke="#bfbfbf" points="2285.5,-224.5 2285.5,-243.5 2334.5,-243.5 2334.5,-224.5 2285.5,-224.5"/>
<text text-anchor="middle" x="2310" y="-231.5" font-family="Helvetica,sans-Serif" font-size="10.00">cstddef</text>
</g>
<!-- Node1&#45;&gt;Node48 -->
<g id="edge69" class="edge"><title>Node1&#45;&gt;Node48</title>
<path fill="none" stroke="midnightblue" d="M1687.12,-297.87C1807.93,-293.346 2062.79,-280.056 2275,-244 2275.1,-243.982 2275.21,-243.964 2275.31,-243.946"/>
<polygon fill="midnightblue" stroke="midnightblue" points="2276.16,-247.345 2285.25,-241.908 2274.75,-240.488 2276.16,-247.345"/>
</g>
<!-- Node49 -->
<g id="node49" class="node"><title>Node49</title>
<polygon fill="white" stroke="#bfbfbf" points="2352.5,-224.5 2352.5,-243.5 2399.5,-243.5 2399.5,-224.5 2352.5,-224.5"/>
<text text-anchor="middle" x="2376" y="-231.5" font-family="Helvetica,sans-Serif" font-size="10.00">iterator</text>
</g>
<!-- Node1&#45;&gt;Node49 -->
<g id="edge71" class="edge"><title>Node1&#45;&gt;Node49</title>
<path fill="none" stroke="midnightblue" d="M1687.12,-298.989C1815.52,-296.18 2096.95,-285.584 2342.15,-243.788"/>
<polygon fill="midnightblue" stroke="midnightblue" points="2343.07,-247.182 2352.33,-242.032 2341.88,-240.284 2343.07,-247.182"/>
</g>
<!-- Node50 -->
<g id="node50" class="node"><title>Node50</title>
<polygon fill="white" stroke="#bfbfbf" points="2418,-224.5 2418,-243.5 2456,-243.5 2456,-224.5 2418,-224.5"/>
<text text-anchor="middle" x="2437" y="-231.5" font-family="Helvetica,sans-Serif" font-size="10.00">array</text>
</g>
<!-- Node1&#45;&gt;Node50 -->
<g id="edge72" class="edge"><title>Node1&#45;&gt;Node50</title>
<path fill="none" stroke="midnightblue" d="M1687.26,-300.419C1826.19,-300.067 2145.35,-293.37 2408,-244 2408.1,-243.981 2408.2,-243.962 2408.3,-243.943"/>
<polygon fill="midnightblue" stroke="midnightblue" points="2408.92,-247.394 2417.81,-241.632 2407.27,-240.592 2408.92,-247.394"/>
</g>
<!-- Node2&#45;&gt;Node3 -->
<g id="edge2" class="edge"><title>Node2&#45;&gt;Node3</title>
<path fill="none" stroke="midnightblue" d="M383.937,-224.444C412.66,-215.32 458.329,-200.813 490.321,-190.651"/>
<polygon fill="midnightblue" stroke="midnightblue" points="491.718,-193.88 500.189,-187.516 489.599,-187.208 491.718,-193.88"/>
</g>
<!-- Node6 -->
<g id="node6" class="node"><title>Node6</title>
<polygon fill="white" stroke="#bfbfbf" points="671.5,-56.5 671.5,-75.5 720.5,-75.5 720.5,-56.5 671.5,-56.5"/>
<text text-anchor="middle" x="696" y="-63.5" font-family="Helvetica,sans-Serif" font-size="10.00">stdint.h</text>
</g>
<!-- Node2&#45;&gt;Node6 -->
<g id="edge22" class="edge"><title>Node2&#45;&gt;Node6</title>
<path fill="none" stroke="midnightblue" d="M366.272,-224.231C390.225,-202.056 456.922,-143.284 523,-112 568.315,-90.5463 625.332,-78.249 661.236,-72.0954"/>
<polygon fill="midnightblue" stroke="midnightblue" points="661.922,-75.5296 671.22,-70.4497 660.784,-68.6228 661.922,-75.5296"/>
</g>
<!-- Node9 -->
<g id="node9" class="node"><title>Node9</title>
<polygon fill="white" stroke="#bfbfbf" points="359.5,-56.5 359.5,-75.5 400.5,-75.5 400.5,-56.5 359.5,-56.5"/>
<text text-anchor="middle" x="380" y="-63.5" font-family="Helvetica,sans-Serif" font-size="10.00">string</text>
</g>
<!-- Node2&#45;&gt;Node9 -->
<g id="edge21" class="edge"><title>Node2&#45;&gt;Node9</title>
<path fill="none" stroke="midnightblue" d="M358.237,-224.075C361.857,-197.945 372.489,-121.211 377.426,-85.577"/>
<polygon fill="midnightblue" stroke="midnightblue" points="380.907,-85.9539 378.813,-75.5681 373.973,-84.9931 380.907,-85.9539"/>
</g>
<!-- Node16 -->
<g id="node16" class="node"><title>Node16</title>
<g id="a_node16"><a xlink:href="Thread_8h.html" target="_top" xlink:title="common/Thread.h">
<polygon fill="white" stroke="black" points="115.5,-168.5 115.5,-187.5 210.5,-187.5 210.5,-168.5 115.5,-168.5"/>
<text text-anchor="middle" x="163" y="-175.5" font-family="Helvetica,sans-Serif" font-size="10.00">common/Thread.h</text>
</a>
</g>
</g>
<!-- Node2&#45;&gt;Node16 -->
<g id="edge16" class="edge"><title>Node2&#45;&gt;Node16</title>
<path fill="none" stroke="midnightblue" d="M326.26,-224.444C293.056,-215.201 240.009,-200.436 203.443,-190.257"/>
<polygon fill="midnightblue" stroke="midnightblue" points="204.168,-186.826 193.596,-187.516 202.291,-193.57 204.168,-186.826"/>
</g>
<!-- Node20 -->
<g id="node20" class="node"><title>Node20</title>
<polygon fill="white" stroke="#bfbfbf" points="228.5,-168.5 228.5,-187.5 257.5,-187.5 257.5,-168.5 228.5,-168.5"/>
<text text-anchor="middle" x="243" y="-175.5" font-family="Helvetica,sans-Serif" font-size="10.00">list</text>
</g>
<!-- Node2&#45;&gt;Node20 -->
<g id="edge23" class="edge"><title>Node2&#45;&gt;Node20</title>
<path fill="none" stroke="midnightblue" d="M338.936,-224.444C319.445,-215.211 288.319,-200.467 266.833,-190.289"/>
<polygon fill="midnightblue" stroke="midnightblue" points="268.252,-187.089 257.717,-185.971 265.256,-193.415 268.252,-187.089"/>
</g>
<!-- Node21 -->
<g id="node21" class="node"><title>Node21</title>
<polygon fill="white" stroke="#bfbfbf" points="276,-168.5 276,-187.5 346,-187.5 346,-168.5 276,-168.5"/>
<text text-anchor="middle" x="311" y="-175.5" font-family="Helvetica,sans-Serif" font-size="10.00">sys/select.h</text>
</g>
<!-- Node2&#45;&gt;Node21 -->
<g id="edge24" class="edge"><title>Node2&#45;&gt;Node21</title>
<path fill="none" stroke="midnightblue" d="M349.404,-224.083C342.773,-216.298 332.979,-204.801 324.942,-195.367"/>
<polygon fill="midnightblue" stroke="midnightblue" points="327.604,-193.094 318.455,-187.751 322.275,-197.633 327.604,-193.094"/>
</g>
<!-- Node3&#45;&gt;Node4 -->
<g id="edge3" class="edge"><title>Node3&#45;&gt;Node4</title>
<path fill="none" stroke="midnightblue" d="M532.119,-168.083C536.408,-160.613 542.658,-149.724 547.942,-140.52"/>
<polygon fill="midnightblue" stroke="midnightblue" points="551.033,-142.166 552.976,-131.751 544.962,-138.681 551.033,-142.166"/>
</g>
<!-- Node3&#45;&gt;Node5 -->
<g id="edge4" class="edge"><title>Node3&#45;&gt;Node5</title>
<path fill="none" stroke="midnightblue" d="M576.205,-172.466C682.51,-162.67 933.458,-139.545 1050.66,-128.745"/>
<polygon fill="midnightblue" stroke="midnightblue" points="1051.26,-132.204 1060.9,-127.801 1050.62,-125.233 1051.26,-132.204"/>
</g>
<!-- Node11 -->
<g id="node11" class="node"><title>Node11</title>
<g id="a_node11"><a xlink:href="Types_8h.html" target="_top" xlink:title="common/Types.h">
<polygon fill="white" stroke="red" points="254,-112.5 254,-131.5 346,-131.5 346,-112.5 254,-112.5"/>
<text text-anchor="middle" x="300" y="-119.5" font-family="Helvetica,sans-Serif" font-size="10.00">common/Types.h</text>
</a>
</g>
</g>
<!-- Node3&#45;&gt;Node11 -->
<g id="edge10" class="edge"><title>Node3&#45;&gt;Node11</title>
<path fill="none" stroke="midnightblue" d="M491.031,-168.444C451.681,-159.083 388.513,-144.056 345.686,-133.868"/>
<polygon fill="midnightblue" stroke="midnightblue" points="346.339,-130.426 335.801,-131.516 344.719,-137.236 346.339,-130.426"/>
</g>
<!-- Node5&#45;&gt;Node6 -->
<g id="edge5" class="edge"><title>Node5&#45;&gt;Node6</title>
<path fill="none" stroke="midnightblue" d="M1060.61,-114.216C974.085,-103.011 803.637,-80.9386 730.578,-71.4777"/>
<polygon fill="midnightblue" stroke="midnightblue" points="730.893,-67.9894 720.527,-70.1761 729.994,-74.9315 730.893,-67.9894"/>
</g>
<!-- Node7 -->
<g id="node7" class="node"><title>Node7</title>
<polygon fill="white" stroke="#bfbfbf" points="1053,-56.5 1053,-75.5 1105,-75.5 1105,-56.5 1053,-56.5"/>
<text text-anchor="middle" x="1079" y="-63.5" font-family="Helvetica,sans-Serif" font-size="10.00">stddef.h</text>
</g>
<!-- Node5&#45;&gt;Node7 -->
<g id="edge6" class="edge"><title>Node5&#45;&gt;Node7</title>
<path fill="none" stroke="midnightblue" d="M1107.39,-112.083C1102.63,-104.534 1095.68,-93.4948 1089.85,-84.2298"/>
<polygon fill="midnightblue" stroke="midnightblue" points="1092.8,-82.3486 1084.51,-75.7511 1086.88,-86.0783 1092.8,-82.3486"/>
</g>
<!-- Node8 -->
<g id="node8" class="node"><title>Node8</title>
<polygon fill="white" stroke="#bfbfbf" points="1123,-56.5 1123,-75.5 1171,-75.5 1171,-56.5 1123,-56.5"/>
<text text-anchor="middle" x="1147" y="-63.5" font-family="Helvetica,sans-Serif" font-size="10.00">limits.h</text>
</g>
<!-- Node5&#45;&gt;Node8 -->
<g id="edge7" class="edge"><title>Node5&#45;&gt;Node8</title>
<path fill="none" stroke="midnightblue" d="M1118.61,-112.083C1123.37,-104.534 1130.32,-93.4948 1136.15,-84.2298"/>
<polygon fill="midnightblue" stroke="midnightblue" points="1139.12,-86.0783 1141.49,-75.7511 1133.2,-82.3486 1139.12,-86.0783"/>
</g>
<!-- Node5&#45;&gt;Node9 -->
<g id="edge8" class="edge"><title>Node5&#45;&gt;Node9</title>
<path fill="none" stroke="midnightblue" d="M1060.87,-117.16C918.131,-106.644 524.035,-77.611 410.797,-69.2688"/>
<polygon fill="midnightblue" stroke="midnightblue" points="410.964,-65.7717 400.733,-68.5274 410.449,-72.7528 410.964,-65.7717"/>
</g>
<!-- Node5&#45;&gt;Node10 -->
<g id="edge9" class="edge"><title>Node5&#45;&gt;Node10</title>
<path fill="none" stroke="midnightblue" d="M1067.68,-112.444C1009.3,-101.421 909.321,-82.5431 858.56,-72.9589"/>
<polygon fill="midnightblue" stroke="midnightblue" points="858.984,-69.4772 848.508,-71.061 857.685,-76.3557 858.984,-69.4772"/>
</g>
<!-- Node11&#45;&gt;Node9 -->
<g id="edge13" class="edge"><title>Node11&#45;&gt;Node9</title>
<path fill="none" stroke="midnightblue" d="M312.853,-112.324C325.216,-103.979 344.13,-91.2122 358.737,-81.3524"/>
<polygon fill="midnightblue" stroke="midnightblue" points="360.848,-84.1503 367.179,-75.6545 356.932,-78.3483 360.848,-84.1503"/>
</g>
<!-- Node12 -->
<g id="node12" class="node"><title>Node12</title>
<g id="a_node12"><a xlink:href="Log_8h.html" target="_top" xlink:title="Log.h">
<polygon fill="white" stroke="red" points="173.5,-56.5 173.5,-75.5 214.5,-75.5 214.5,-56.5 173.5,-56.5"/>
<text text-anchor="middle" x="194" y="-63.5" font-family="Helvetica,sans-Serif" font-size="10.00">Log.h</text>
</a>
</g>
</g>
<!-- Node11&#45;&gt;Node12 -->
<g id="edge11" class="edge"><title>Node11&#45;&gt;Node12</title>
<path fill="none" stroke="midnightblue" d="M282.969,-112.324C265.97,-103.664 239.624,-90.2424 220.007,-80.249"/>
<polygon fill="midnightblue" stroke="midnightblue" points="221.488,-77.0752 210.988,-75.6545 218.31,-83.3125 221.488,-77.0752"/>
</g>
<!-- Node14 -->
<g id="node14" class="node"><title>Node14</title>
<polygon fill="white" stroke="#bfbfbf" points="258.5,-56.5 258.5,-75.5 341.5,-75.5 341.5,-56.5 258.5,-56.5"/>
<text text-anchor="middle" x="300" y="-63.5" font-family="Helvetica,sans-Serif" font-size="10.00">unordered_map</text>
</g>
<!-- Node11&#45;&gt;Node14 -->
<g id="edge14" class="edge"><title>Node11&#45;&gt;Node14</title>
<path fill="none" stroke="midnightblue" d="M300,-112.083C300,-105.006 300,-94.8611 300,-85.9865"/>
<polygon fill="midnightblue" stroke="midnightblue" points="303.5,-85.751 300,-75.7511 296.5,-85.7511 303.5,-85.751"/>
</g>
<!-- Node11&#45;&gt;Node15 -->
<g id="edge15" class="edge"><title>Node11&#45;&gt;Node15</title>
<path fill="none" stroke="midnightblue" d="M264.982,-112.444C223.467,-102.3 154.724,-85.5027 113.456,-75.4192"/>
<polygon fill="midnightblue" stroke="midnightblue" points="114.135,-71.9821 103.59,-73.0084 112.473,-78.7821 114.135,-71.9821"/>
</g>
<!-- Node12&#45;&gt;Node13 -->
<g id="edge12" class="edge"><title>Node12&#45;&gt;Node13</title>
<path fill="none" stroke="midnightblue" d="M178.415,-56.324C163.001,-47.7428 139.188,-34.486 121.29,-24.5224"/>
<polygon fill="midnightblue" stroke="midnightblue" points="122.986,-21.4606 112.546,-19.6545 119.581,-27.5767 122.986,-21.4606"/>
</g>
<!-- Node16&#45;&gt;Node11 -->
<g id="edge17" class="edge"><title>Node16&#45;&gt;Node11</title>
<path fill="none" stroke="midnightblue" d="M184.708,-168.444C207.355,-159.517 243.072,-145.439 268.752,-135.317"/>
<polygon fill="midnightblue" stroke="midnightblue" points="270.374,-138.44 278.394,-131.516 267.807,-131.927 270.374,-138.44"/>
</g>
<!-- Node17 -->
<g id="node17" class="node"><title>Node17</title>
<polygon fill="white" stroke="#bfbfbf" points="66,-112.5 66,-131.5 110,-131.5 110,-112.5 66,-112.5"/>
<text text-anchor="middle" x="88" y="-119.5" font-family="Helvetica,sans-Serif" font-size="10.00">thread</text>
</g>
<!-- Node16&#45;&gt;Node17 -->
<g id="edge18" class="edge"><title>Node16&#45;&gt;Node17</title>
<path fill="none" stroke="midnightblue" d="M150.95,-168.324C139.537,-160.107 122.169,-147.602 108.565,-137.807"/>
<polygon fill="midnightblue" stroke="midnightblue" points="110.43,-134.837 100.269,-131.834 106.34,-140.517 110.43,-134.837"/>
</g>
<!-- Node18 -->
<g id="node18" class="node"><title>Node18</title>
<polygon fill="white" stroke="#bfbfbf" points="128,-112.5 128,-131.5 172,-131.5 172,-112.5 128,-112.5"/>
<text text-anchor="middle" x="150" y="-119.5" font-family="Helvetica,sans-Serif" font-size="10.00">mutex</text>
</g>
<!-- Node16&#45;&gt;Node18 -->
<g id="edge19" class="edge"><title>Node16&#45;&gt;Node18</title>
<path fill="none" stroke="midnightblue" d="M160.853,-168.083C159.131,-160.927 156.653,-150.635 154.5,-141.691"/>
<polygon fill="midnightblue" stroke="midnightblue" points="157.85,-140.654 152.107,-131.751 151.045,-142.293 157.85,-140.654"/>
</g>
<!-- Node19 -->
<g id="node19" class="node"><title>Node19</title>
<polygon fill="white" stroke="#bfbfbf" points="190,-112.5 190,-131.5 236,-131.5 236,-112.5 190,-112.5"/>
<text text-anchor="middle" x="213" y="-119.5" font-family="Helvetica,sans-Serif" font-size="10.00">atomic</text>
</g>
<!-- Node16&#45;&gt;Node19 -->
<g id="edge20" class="edge"><title>Node16&#45;&gt;Node19</title>
<path fill="none" stroke="midnightblue" d="M171.256,-168.083C178.465,-160.298 189.11,-148.801 197.846,-139.367"/>
<polygon fill="midnightblue" stroke="midnightblue" points="200.671,-141.467 204.897,-131.751 195.535,-136.711 200.671,-141.467"/>
</g>
<!-- Node22&#45;&gt;Node3 -->
<g id="edge29" class="edge"><title>Node22&#45;&gt;Node3</title>
<path fill="none" stroke="midnightblue" d="M481.082,-224.083C489.171,-216.141 501.195,-204.335 510.91,-194.797"/>
<polygon fill="midnightblue" stroke="midnightblue" points="513.403,-197.254 518.087,-187.751 508.499,-192.26 513.403,-197.254"/>
</g>
<!-- Node22&#45;&gt;Node14 -->
<g id="edge28" class="edge"><title>Node22&#45;&gt;Node14</title>
<path fill="none" stroke="midnightblue" d="M464.376,-224.456C446.169,-204.201 398.432,-151.974 355,-112 343.539,-101.452 330.006,-90.3631 319.232,-81.8324"/>
<polygon fill="midnightblue" stroke="midnightblue" points="321.305,-79.0107 311.275,-75.5986 316.988,-84.521 321.305,-79.0107"/>
</g>
<!-- Node23&#45;&gt;Node5 -->
<g id="edge32" class="edge"><title>Node23&#45;&gt;Node5</title>
<path fill="none" stroke="midnightblue" d="M1177.9,-230.288C1069.3,-225.204 864.886,-212.473 843,-188 837.075,-181.374 837.254,-174.782 843,-168 869.093,-137.198 979.469,-127.46 1050.77,-124.394"/>
<polygon fill="midnightblue" stroke="midnightblue" points="1051.14,-127.882 1060.99,-123.988 1050.86,-120.888 1051.14,-127.882"/>
</g>
<!-- Node24 -->
<g id="node24" class="node"><title>Node24</title>
<g id="a_node24"><a xlink:href="NonCopyable_8h.html" target="_top" xlink:title="common/NonCopyable.h">
<polygon fill="white" stroke="black" points="1624.5,-168.5 1624.5,-187.5 1749.5,-187.5 1749.5,-168.5 1624.5,-168.5"/>
<text text-anchor="middle" x="1687" y="-175.5" font-family="Helvetica,sans-Serif" font-size="10.00">common/NonCopyable.h</text>
</a>
</g>
</g>
<!-- Node23&#45;&gt;Node24 -->
<g id="edge31" class="edge"><title>Node23&#45;&gt;Node24</title>
<path fill="none" stroke="midnightblue" d="M1312.19,-224.897C1384.16,-216.201 1502.04,-201.915 1614.05,-188.114"/>
<polygon fill="midnightblue" stroke="midnightblue" points="1614.68,-191.563 1624.17,-186.866 1613.82,-184.616 1614.68,-191.563"/>
</g>
<!-- Node25 -->
<g id="node25" class="node"><title>Node25</title>
<g id="a_node25"><a xlink:href="AIStateMessage_8h.html" target="_top" xlink:title="AIStateMessage.h">
<polygon fill="white" stroke="red" points="852,-168.5 852,-187.5 950,-187.5 950,-168.5 852,-168.5"/>
<text text-anchor="middle" x="901" y="-175.5" font-family="Helvetica,sans-Serif" font-size="10.00">AIStateMessage.h</text>
</a>
</g>
</g>
<!-- Node23&#45;&gt;Node25 -->
<g id="edge33" class="edge"><title>Node23&#45;&gt;Node25</title>
<path fill="none" stroke="midnightblue" d="M1190.49,-224.444C1127.73,-214.592 1024.99,-198.464 960.284,-188.306"/>
<polygon fill="midnightblue" stroke="midnightblue" points="960.659,-184.822 950.237,-186.729 959.573,-191.738 960.659,-184.822"/>
</g>
<!-- Node26 -->
<g id="node26" class="node"><title>Node26</title>
<g id="a_node26"><a xlink:href="AICharacterDetailsMessage_8h.html" target="_top" xlink:title="AICharacterDetailsMessage.h">
<polygon fill="white" stroke="red" points="968,-168.5 968,-187.5 1116,-187.5 1116,-168.5 968,-168.5"/>
<text text-anchor="middle" x="1042" y="-175.5" font-family="Helvetica,sans-Serif" font-size="10.00">AICharacterDetailsMessage.h</text>
</a>
</g>
</g>
<!-- Node23&#45;&gt;Node26 -->
<g id="edge35" class="edge"><title>Node23&#45;&gt;Node26</title>
<path fill="none" stroke="midnightblue" d="M1212.83,-224.444C1177.94,-215.162 1122.11,-200.309 1083.83,-190.127"/>
<polygon fill="midnightblue" stroke="midnightblue" points="1084.58,-186.705 1074.02,-187.516 1082.78,-193.47 1084.58,-186.705"/>
</g>
<!-- Node27 -->
<g id="node27" class="node"><title>Node27</title>
<g id="a_node27"><a xlink:href="AICharacterStaticMessage_8h.html" target="_top" xlink:title="AICharacterStaticMessage.h">
<polygon fill="white" stroke="red" points="2027.5,-168.5 2027.5,-187.5 2170.5,-187.5 2170.5,-168.5 2027.5,-168.5"/>
<text text-anchor="middle" x="2099" y="-175.5" font-family="Helvetica,sans-Serif" font-size="10.00">AICharacterStaticMessage.h</text>
</a>
</g>
</g>
<!-- Node23&#45;&gt;Node27 -->
<g id="edge37" class="edge"><title>Node23&#45;&gt;Node27</title>
<path fill="none" stroke="midnightblue" d="M1312.15,-225.231C1316.84,-224.784 1321.49,-224.368 1326,-224 1629.66,-199.253 1709.34,-212.719 2017.35,-187.997"/>
<polygon fill="midnightblue" stroke="midnightblue" points="2017.78,-191.474 2027.47,-187.178 2017.22,-184.497 2017.78,-191.474"/>
</g>
<!-- Node28 -->
<g id="node28" class="node"><title>Node28</title>
<g id="a_node28"><a xlink:href="AIPauseMessage_8h.html" target="_top" xlink:title="AIPauseMessage.h">
<polygon fill="white" stroke="black" points="1134,-168.5 1134,-187.5 1236,-187.5 1236,-168.5 1134,-168.5"/>
<text text-anchor="middle" x="1185" y="-175.5" font-family="Helvetica,sans-Serif" font-size="10.00">AIPauseMessage.h</text>
</a>
</g>
</g>
<!-- Node23&#45;&gt;Node28 -->
<g id="edge38" class="edge"><title>Node23&#45;&gt;Node28</title>
<path fill="none" stroke="midnightblue" d="M1235.36,-224.324C1226.49,-216.341 1213.13,-204.313 1202.39,-194.653"/>
<polygon fill="midnightblue" stroke="midnightblue" points="1204.59,-191.922 1194.82,-187.834 1199.91,-197.125 1204.59,-191.922"/>
</g>
<!-- Node29 -->
<g id="node29" class="node"><title>Node29</title>
<g id="a_node29"><a xlink:href="AISelectMessage_8h.html" target="_top" xlink:title="AISelectMessage.h">
<polygon fill="white" stroke="red" points="1254,-168.5 1254,-187.5 1356,-187.5 1356,-168.5 1254,-168.5"/>
<text text-anchor="middle" x="1305" y="-175.5" font-family="Helvetica,sans-Serif" font-size="10.00">AISelectMessage.h</text>
</a>
</g>
</g>
<!-- Node23&#45;&gt;Node29 -->
<g id="edge40" class="edge"><title>Node23&#45;&gt;Node29</title>
<path fill="none" stroke="midnightblue" d="M1254.64,-224.324C1263.51,-216.341 1276.87,-204.313 1287.61,-194.653"/>
<polygon fill="midnightblue" stroke="midnightblue" points="1290.09,-197.125 1295.18,-187.834 1285.41,-191.922 1290.09,-197.125"/>
</g>
<!-- Node30 -->
<g id="node30" class="node"><title>Node30</title>
<g id="a_node30"><a xlink:href="AINamesMessage_8h.html" target="_top" xlink:title="AINamesMessage.h">
<polygon fill="white" stroke="black" points="1374,-168.5 1374,-187.5 1480,-187.5 1480,-168.5 1374,-168.5"/>
<text text-anchor="middle" x="1427" y="-175.5" font-family="Helvetica,sans-Serif" font-size="10.00">AINamesMessage.h</text>
</a>
</g>
</g>
<!-- Node23&#45;&gt;Node30 -->
<g id="edge42" class="edge"><title>Node23&#45;&gt;Node30</title>
<path fill="none" stroke="midnightblue" d="M1273.84,-224.444C1304.86,-215.241 1354.33,-200.562 1388.62,-190.388"/>
<polygon fill="midnightblue" stroke="midnightblue" points="1389.71,-193.716 1398.3,-187.516 1387.71,-187.006 1389.71,-193.716"/>
</g>
<!-- Node31 -->
<g id="node31" class="node"><title>Node31</title>
<g id="a_node31"><a xlink:href="AIChangeMessage_8h.html" target="_top" xlink:title="AIChangeMessage.h">
<polygon fill="white" stroke="black" points="1498,-168.5 1498,-187.5 1606,-187.5 1606,-168.5 1498,-168.5"/>
<text text-anchor="middle" x="1552" y="-175.5" font-family="Helvetica,sans-Serif" font-size="10.00">AIChangeMessage.h</text>
</a>
</g>
</g>
<!-- Node23&#45;&gt;Node31 -->
<g id="edge44" class="edge"><title>Node23&#45;&gt;Node31</title>
<path fill="none" stroke="midnightblue" d="M1293.65,-224.444C1347.87,-214.905 1435.55,-199.483 1493.48,-189.293"/>
<polygon fill="midnightblue" stroke="midnightblue" points="1494.34,-192.696 1503.58,-187.516 1493.13,-185.802 1494.34,-192.696"/>
</g>
<!-- Node32 -->
<g id="node32" class="node"><title>Node32</title>
<g id="a_node32"><a xlink:href="AIStepMessage_8h.html" target="_top" xlink:title="AIStepMessage.h">
<polygon fill="white" stroke="black" points="1767.5,-168.5 1767.5,-187.5 1862.5,-187.5 1862.5,-168.5 1767.5,-168.5"/>
<text text-anchor="middle" x="1815" y="-175.5" font-family="Helvetica,sans-Serif" font-size="10.00">AIStepMessage.h</text>
</a>
</g>
</g>
<!-- Node23&#45;&gt;Node32 -->
<g id="edge46" class="edge"><title>Node23&#45;&gt;Node32</title>
<path fill="none" stroke="midnightblue" d="M1312.17,-225.393C1316.85,-224.907 1321.49,-224.438 1326,-224 1514.48,-205.679 1565,-210.853 1757.29,-187.993"/>
<polygon fill="midnightblue" stroke="midnightblue" points="1757.94,-191.441 1767.45,-186.775 1757.11,-184.491 1757.94,-191.441"/>
</g>
<!-- Node33 -->
<g id="node33" class="node"><title>Node33</title>
<g id="a_node33"><a xlink:href="AIUpdateNodeMessage_8h.html" target="_top" xlink:title="AIUpdateNodeMessage.h">
<polygon fill="white" stroke="red" points="1880.5,-168.5 1880.5,-187.5 2009.5,-187.5 2009.5,-168.5 1880.5,-168.5"/>
<text text-anchor="middle" x="1945" y="-175.5" font-family="Helvetica,sans-Serif" font-size="10.00">AIUpdateNodeMessage.h</text>
</a>
</g>
</g>
<!-- Node23&#45;&gt;Node33 -->
<g id="edge48" class="edge"><title>Node23&#45;&gt;Node33</title>
<path fill="none" stroke="midnightblue" d="M1312.16,-225.304C1316.84,-224.839 1321.49,-224.399 1326,-224 1564.5,-202.884 1627.59,-210.447 1870.25,-188.013"/>
<polygon fill="midnightblue" stroke="midnightblue" points="1870.82,-191.476 1880.45,-187.063 1870.17,-184.506 1870.82,-191.476"/>
</g>
<!-- Node34 -->
<g id="node34" class="node"><title>Node34</title>
<g id="a_node34"><a xlink:href="AIAddNodeMessage_8h.html" target="_top" xlink:title="AIAddNodeMessage.h">
<polygon fill="white" stroke="red" points="2188.5,-168.5 2188.5,-187.5 2303.5,-187.5 2303.5,-168.5 2188.5,-168.5"/>
<text text-anchor="middle" x="2246" y="-175.5" font-family="Helvetica,sans-Serif" font-size="10.00">AIAddNodeMessage.h</text>
</a>
</g>
</g>
<!-- Node23&#45;&gt;Node34 -->
<g id="edge50" class="edge"><title>Node23&#45;&gt;Node34</title>
<path fill="none" stroke="midnightblue" d="M1312.15,-225.181C1316.83,-224.746 1321.49,-224.346 1326,-224 1701.02,-195.286 1799.29,-220.836 2178.15,-187.98"/>
<polygon fill="midnightblue" stroke="midnightblue" points="2178.64,-191.451 2188.29,-187.092 2178.03,-184.477 2178.64,-191.451"/>
</g>
<!-- Node35 -->
<g id="node35" class="node"><title>Node35</title>
<g id="a_node35"><a xlink:href="AIDeleteNodeMessage_8h.html" target="_top" xlink:title="AIDeleteNodeMessage.h">
<polygon fill="white" stroke="red" points="670,-168.5 670,-187.5 796,-187.5 796,-168.5 670,-168.5"/>
<text text-anchor="middle" x="733" y="-175.5" font-family="Helvetica,sans-Serif" font-size="10.00">AIDeleteNodeMessage.h</text>
</a>
</g>
</g>
<!-- Node23&#45;&gt;Node35 -->
<g id="edge52" class="edge"><title>Node23&#45;&gt;Node35</title>
<path fill="none" stroke="midnightblue" d="M1177.9,-226.338C1092.43,-217.787 940.181,-202.341 810,-188 808.721,-187.859 807.43,-187.716 806.129,-187.571"/>
<polygon fill="midnightblue" stroke="midnightblue" points="806.353,-184.075 796.024,-186.435 805.571,-191.031 806.353,-184.075"/>
</g>
<!-- Node25&#45;&gt;Node5 -->
<g id="edge34" class="edge"><title>Node25&#45;&gt;Node5</title>
<path fill="none" stroke="midnightblue" d="M934.592,-168.444C971.187,-159.122 1029.84,-144.183 1069.83,-133.997"/>
<polygon fill="midnightblue" stroke="midnightblue" points="1070.74,-137.377 1079.57,-131.516 1069.01,-130.593 1070.74,-137.377"/>
</g>
<!-- Node26&#45;&gt;Node5 -->
<g id="edge36" class="edge"><title>Node26&#45;&gt;Node5</title>
<path fill="none" stroke="midnightblue" d="M1053.41,-168.324C1064.11,-160.185 1080.34,-147.839 1093.16,-138.087"/>
<polygon fill="midnightblue" stroke="midnightblue" points="1095.54,-140.673 1101.39,-131.834 1091.31,-135.102 1095.54,-140.673"/>
</g>
<!-- Node28&#45;&gt;Node5 -->
<g id="edge39" class="edge"><title>Node28&#45;&gt;Node5</title>
<path fill="none" stroke="midnightblue" d="M1173.43,-168.324C1162.58,-160.185 1146.12,-147.839 1133.12,-138.087"/>
<polygon fill="midnightblue" stroke="midnightblue" points="1134.88,-135.034 1124.78,-131.834 1130.68,-140.634 1134.88,-135.034"/>
</g>
<!-- Node29&#45;&gt;Node5 -->
<g id="edge41" class="edge"><title>Node29&#45;&gt;Node5</title>
<path fill="none" stroke="midnightblue" d="M1274.58,-168.444C1241.72,-159.201 1189.22,-144.436 1153.03,-134.257"/>
<polygon fill="midnightblue" stroke="midnightblue" points="1153.85,-130.855 1143.28,-131.516 1151.96,-137.593 1153.85,-130.855"/>
</g>
<!-- Node30&#45;&gt;Node5 -->
<g id="edge43" class="edge"><title>Node30&#45;&gt;Node5</title>
<path fill="none" stroke="midnightblue" d="M1377.25,-168.444C1321.67,-158.885 1231.74,-143.419 1172.48,-133.23"/>
<polygon fill="midnightblue" stroke="midnightblue" points="1172.97,-129.762 1162.52,-131.516 1171.78,-136.661 1172.97,-129.762"/>
</g>
<!-- Node31&#45;&gt;Node5 -->
<g id="edge45" class="edge"><title>Node31&#45;&gt;Node5</title>
<path fill="none" stroke="midnightblue" d="M1497.89,-169.312C1494.54,-168.861 1491.23,-168.42 1488,-168 1378.08,-153.678 1249.81,-138.648 1175.35,-130.091"/>
<polygon fill="midnightblue" stroke="midnightblue" points="1175.55,-126.59 1165.21,-128.927 1174.75,-133.544 1175.55,-126.59"/>
</g>
<!-- Node32&#45;&gt;Node5 -->
<g id="edge47" class="edge"><title>Node32&#45;&gt;Node5</title>
<path fill="none" stroke="midnightblue" d="M1767.46,-169.176C1764.26,-168.748 1761.09,-168.351 1758,-168 1544.99,-143.799 1290.82,-130.662 1175.46,-125.55"/>
<polygon fill="midnightblue" stroke="midnightblue" points="1175.54,-122.051 1165.39,-125.109 1175.23,-129.044 1175.54,-122.051"/>
</g>
<!-- Node33&#45;&gt;Node5 -->
<g id="edge49" class="edge"><title>Node33&#45;&gt;Node5</title>
<path fill="none" stroke="midnightblue" d="M1880.45,-168.912C1877.26,-168.586 1874.09,-168.28 1871,-168 1613.1,-144.684 1304.7,-130.655 1175.13,-125.388"/>
<polygon fill="midnightblue" stroke="midnightblue" points="1175.14,-121.886 1165.01,-124.98 1174.86,-128.88 1175.14,-121.886"/>
</g>
<!-- Node34&#45;&gt;Node5 -->
<g id="edge51" class="edge"><title>Node34&#45;&gt;Node5</title>
<path fill="none" stroke="midnightblue" d="M2188.29,-168.908C2185.15,-168.574 2182.04,-168.268 2179,-168 1798.93,-134.521 1340.36,-125.784 1175.66,-123.648"/>
<polygon fill="midnightblue" stroke="midnightblue" points="1175.29,-120.143 1165.24,-123.517 1175.2,-127.143 1175.29,-120.143"/>
</g>
<!-- Node35&#45;&gt;Node5 -->
<g id="edge53" class="edge"><title>Node35&#45;&gt;Node5</title>
<path fill="none" stroke="midnightblue" d="M793.212,-168.444C863.524,-158.452 979.26,-142.005 1050.53,-131.878"/>
<polygon fill="midnightblue" stroke="midnightblue" points="1051.3,-135.303 1060.71,-130.431 1050.32,-128.372 1051.3,-135.303"/>
</g>
</g>
</svg>
        <g id="navigator" transform="translate(0 0)" fill="#404254">
                <rect fill="#f2f5e9" fill-opacity="0.5" stroke="#606060" stroke-width=".5" x="0" y="0" width="60" height="60"/>
                <use id="zoomplus" xlink:href="#zoomPlus" x="17" y="9" onmousedown="handleZoom(evt,'in')"/>
                <use id="zoomminus" xlink:href="#zoomMin" x="42" y="9" onmousedown="handleZoom(evt,'out')"/>
                <use id="reset" xlink:href="#resetDef" x="30" y="36" onmousedown="handleReset()"/>
                <g id="arrowUp" xlink:href="#dirArrow" transform="translate(30 24)" onmousedown="handlePan(0,-1)">
                  <use xlink:href="#rim" fill="#404040">
                        <set attributeName="fill" to="#808080" begin="arrowUp.mouseover" end="arrowUp.mouseout"/>
                  </use>
                  <path fill="none" stroke="white" stroke-width="1.5" d="M0,-3.0v7 M-2.5,-0.5L0,-3.0L2.5,-0.5"/>
                </g>
                <g id="arrowRight" xlink:href="#dirArrow" transform="rotate(90) translate(36 -43)" onmousedown="handlePan(1,0)">
                  <use xlink:href="#rim" fill="#404040">
                        <set attributeName="fill" to="#808080" begin="arrowRight.mouseover" end="arrowRight.mouseout"/>
                  </use>
                  <path fill="none" stroke="white" stroke-width="1.5" d="M0,-3.0v7 M-2.5,-0.5L0,-3.0L2.5,-0.5"/>
                </g>
                <g id="arrowDown" xlink:href="#dirArrow" transform="rotate(180) translate(-30 -48)" onmousedown="handlePan(0,1)">
                  <use xlink:href="#rim" fill="#404040">
                        <set attributeName="fill" to="#808080" begin="arrowDown.mouseover" end="arrowDown.mouseout"/>
                  </use>
                  <path fill="none" stroke="white" stroke-width="1.5" d="M0,-3.0v7 M-2.5,-0.5L0,-3.0L2.5,-0.5"/>
                </g>
                <g id="arrowLeft" xlink:href="#dirArrow" transform="rotate(270) translate(-36 17)" onmousedown="handlePan(-1,0)">
                  <use xlink:href="#rim" fill="#404040">
                        <set attributeName="fill" to="#808080" begin="arrowLeft.mouseover" end="arrowLeft.mouseout"/>
                  </use>
                  <path fill="none" stroke="white" stroke-width="1.5" d="M0,-3.0v7 M-2.5,-0.5L0,-3.0L2.5,-0.5"/>
                </g>
        </g>
        <svg viewBox="0 0 15 15" width="100%" height="30px" preserveAspectRatio="xMaxYMin meet">
         <g id="arrow_out" transform="scale(0.3 0.3)">
          <a xlink:href="NetworkImpl_8h__incl_org.svg" target="_base">
           <rect id="button" ry="5" rx="5" y="6" x="6" height="38" width="38"
                fill="#f2f5e9" fill-opacity="0.5" stroke="#606060" stroke-width="1.0"/>
           <path id="arrow"
             d="M 11.500037,31.436501 C 11.940474,20.09759 22.043105,11.32322 32.158766,21.979434 L 37.068811,17.246167 C 37.068811,17.246167 37.088388,32 37.088388,32 L 22.160133,31.978069 C 22.160133,31.978069 26.997745,27.140456 26.997745,27.140456 C 18.528582,18.264221 13.291696,25.230495 11.500037,31.436501 z"
             style="fill:#404040;"/>
          </a>
         </g>
        </svg>
</svg>
