<?xml version="1.0" encoding="UTF-8" standalone="no"?>
<!DOCTYPE svg PUBLIC "-//W3C//DTD SVG 1.1//EN"
 "http://www.w3.org/Graphics/SVG/1.1/DTD/svg11.dtd">
<!-- Generated by graphviz version 2.36.0 (20140111.2315)
 -->
<!-- Title: /home/travis/build/mgerhardy/simpleai/src/ai/server/Network.h Pages: 1 -->
<svg width="595pt" height="274pt"
 viewBox="0.00 0.00 595.00 274.00" xmlns="http://www.w3.org/2000/svg" xmlns:xlink="http://www.w3.org/1999/xlink">
<g id="graph0" class="graph" transform="scale(1 1) rotate(0) translate(4 270)">
<title>/home/travis/build/mgerhardy/simpleai/src/ai/server/Network.h</title>
<polygon fill="white" stroke="none" points="-4,4 -4,-270 591,-270 591,4 -4,4"/>
<!-- Node1 -->
<g id="node1" class="node"><title>Node1</title>
<polygon fill="#bfbfbf" stroke="black" points="256,-224.5 256,-265.5 378,-265.5 378,-224.5 256,-224.5"/>
<text text-anchor="start" x="264" y="-253.5" font-family="Helvetica,sans-Serif" font-size="10.00">/home/travis/build</text>
<text text-anchor="start" x="264" y="-242.5" font-family="Helvetica,sans-Serif" font-size="10.00">/mgerhardy/simpleai</text>
<text text-anchor="middle" x="317" y="-231.5" font-family="Helvetica,sans-Serif" font-size="10.00">/src/ai/server/Network.h</text>
</g>
<!-- Node2 -->
<g id="node2" class="node"><title>Node2</title>
<g id="a_node2"><a xlink:href="IProtocolHandler_8h.html" target="_top" xlink:title="IProtocolHandler.h">
<polygon fill="white" stroke="black" points="151,-168.5 151,-187.5 249,-187.5 249,-168.5 151,-168.5"/>
<text text-anchor="middle" x="200" y="-175.5" font-family="Helvetica,sans-Serif" font-size="10.00">IProtocolHandler.h</text>
</a>
</g>
</g>
<!-- Node1&#45;&gt;Node2 -->
<g id="edge1" class="edge"><title>Node1&#45;&gt;Node2</title>
<path fill="none" stroke="midnightblue" d="M281.896,-224.498C263.44,-214.245 241.265,-201.925 224.647,-192.693"/>
<polygon fill="midnightblue" stroke="midnightblue" points="226.016,-189.449 215.574,-187.652 222.616,-195.569 226.016,-189.449"/>
</g>
<!-- Node5 -->
<g id="node5" class="node"><title>Node5</title>
<polygon fill="white" stroke="#bfbfbf" points="-0.5,-56.5 -0.5,-75.5 48.5,-75.5 48.5,-56.5 -0.5,-56.5"/>
<text text-anchor="middle" x="24" y="-63.5" font-family="Helvetica,sans-Serif" font-size="10.00">stdint.h</text>
</g>
<!-- Node1&#45;&gt;Node5 -->
<g id="edge24" class="edge"><title>Node1&#45;&gt;Node5</title>
<path fill="none" stroke="midnightblue" d="M255.866,-229.889C221.308,-220.591 177.958,-206.663 142,-188 105.392,-168.999 96.3854,-161.923 68,-132 54.2651,-117.521 41.8449,-98.3352 33.7304,-84.5667"/>
<polygon fill="midnightblue" stroke="midnightblue" points="36.6292,-82.5853 28.6254,-75.6433 30.5532,-86.0613 36.6292,-82.5853"/>
</g>
<!-- Node8 -->
<g id="node8" class="node"><title>Node8</title>
<polygon fill="white" stroke="#bfbfbf" points="264.5,-56.5 264.5,-75.5 305.5,-75.5 305.5,-56.5 264.5,-56.5"/>
<text text-anchor="middle" x="285" y="-63.5" font-family="Helvetica,sans-Serif" font-size="10.00">string</text>
</g>
<!-- Node1&#45;&gt;Node8 -->
<g id="edge23" class="edge"><title>Node1&#45;&gt;Node8</title>
<path fill="none" stroke="midnightblue" d="M309.146,-224.346C305.212,-213.741 300.72,-200.332 298,-188 290.14,-152.361 286.969,-109.728 285.737,-85.7645"/>
<polygon fill="midnightblue" stroke="midnightblue" points="289.226,-85.4438 285.276,-75.6129 282.233,-85.7614 289.226,-85.4438"/>
</g>
<!-- Node17 -->
<g id="node17" class="node"><title>Node17</title>
<g id="a_node17"><a xlink:href="Thread_8h.html" target="_top" xlink:title="common/Thread.h">
<polygon fill="white" stroke="black" points="307.5,-168.5 307.5,-187.5 402.5,-187.5 402.5,-168.5 307.5,-168.5"/>
<text text-anchor="middle" x="355" y="-175.5" font-family="Helvetica,sans-Serif" font-size="10.00">common/Thread.h</text>
</a>
</g>
</g>
<!-- Node1&#45;&gt;Node17 -->
<g id="edge18" class="edge"><title>Node1&#45;&gt;Node17</title>
<path fill="none" stroke="midnightblue" d="M328.401,-224.498C333.611,-215.586 339.734,-205.113 344.791,-196.464"/>
<polygon fill="midnightblue" stroke="midnightblue" points="347.916,-198.052 349.942,-187.652 341.873,-194.519 347.916,-198.052"/>
</g>
<!-- Node21 -->
<g id="node21" class="node"><title>Node21</title>
<polygon fill="white" stroke="#bfbfbf" points="420.5,-168.5 420.5,-187.5 449.5,-187.5 449.5,-168.5 420.5,-168.5"/>
<text text-anchor="middle" x="435" y="-175.5" font-family="Helvetica,sans-Serif" font-size="10.00">list</text>
</g>
<!-- Node1&#45;&gt;Node21 -->
<g id="edge25" class="edge"><title>Node1&#45;&gt;Node21</title>
<path fill="none" stroke="midnightblue" d="M352.404,-224.498C371.358,-214.057 394.202,-201.474 411.057,-192.189"/>
<polygon fill="midnightblue" stroke="midnightblue" points="413.144,-195.036 420.214,-187.145 409.766,-188.904 413.144,-195.036"/>
</g>
<!-- Node22 -->
<g id="node22" class="node"><title>Node22</title>
<polygon fill="white" stroke="#bfbfbf" points="468,-168.5 468,-187.5 538,-187.5 538,-168.5 468,-168.5"/>
<text text-anchor="middle" x="503" y="-175.5" font-family="Helvetica,sans-Serif" font-size="10.00">sys/select.h</text>
</g>
<!-- Node1&#45;&gt;Node22 -->
<g id="edge26" class="edge"><title>Node1&#45;&gt;Node22</title>
<path fill="none" stroke="midnightblue" d="M372.806,-224.498C403.928,-213.622 441.704,-200.421 468.531,-191.045"/>
<polygon fill="midnightblue" stroke="midnightblue" points="469.955,-194.256 478.241,-187.652 467.646,-187.647 469.955,-194.256"/>
</g>
<!-- Node3 -->
<g id="node3" class="node"><title>Node3</title>
<polygon fill="white" stroke="#bfbfbf" points="77,-112.5 77,-131.5 129,-131.5 129,-112.5 77,-112.5"/>
<text text-anchor="middle" x="103" y="-119.5" font-family="Helvetica,sans-Serif" font-size="10.00">memory</text>
</g>
<!-- Node2&#45;&gt;Node3 -->
<g id="edge2" class="edge"><title>Node2&#45;&gt;Node3</title>
<path fill="none" stroke="midnightblue" d="M184.415,-168.324C169.001,-159.743 145.188,-146.486 127.29,-136.522"/>
<polygon fill="midnightblue" stroke="midnightblue" points="128.986,-133.461 118.546,-131.655 125.581,-139.577 128.986,-133.461"/>
</g>
<!-- Node4 -->
<g id="node4" class="node"><title>Node4</title>
<g id="a_node4"><a xlink:href="IProtocolMessage_8h.html" target="_top" xlink:title="IProtocolMessage.h">
<polygon fill="white" stroke="black" points="147,-112.5 147,-131.5 251,-131.5 251,-112.5 147,-112.5"/>
<text text-anchor="middle" x="199" y="-119.5" font-family="Helvetica,sans-Serif" font-size="10.00">IProtocolMessage.h</text>
</a>
</g>
</g>
<!-- Node2&#45;&gt;Node4 -->
<g id="edge3" class="edge"><title>Node2&#45;&gt;Node4</title>
<path fill="none" stroke="midnightblue" d="M199.835,-168.083C199.704,-161.006 199.516,-150.861 199.352,-141.986"/>
<polygon fill="midnightblue" stroke="midnightblue" points="202.847,-141.685 199.162,-131.751 195.848,-141.814 202.847,-141.685"/>
</g>
<!-- Node10 -->
<g id="node10" class="node"><title>Node10</title>
<g id="a_node10"><a xlink:href="Types_8h.html" target="_top" xlink:title="common/Types.h">
<polygon fill="white" stroke="black" points="307,-112.5 307,-131.5 399,-131.5 399,-112.5 307,-112.5"/>
<text text-anchor="middle" x="353" y="-119.5" font-family="Helvetica,sans-Serif" font-size="10.00">common/Types.h</text>
</a>
</g>
</g>
<!-- Node2&#45;&gt;Node10 -->
<g id="edge9" class="edge"><title>Node2&#45;&gt;Node10</title>
<path fill="none" stroke="midnightblue" d="M224.243,-168.444C249.871,-159.399 290.485,-145.064 319.238,-134.916"/>
<polygon fill="midnightblue" stroke="midnightblue" points="320.605,-138.145 328.87,-131.516 318.275,-131.544 320.605,-138.145"/>
</g>
<!-- Node4&#45;&gt;Node5 -->
<g id="edge4" class="edge"><title>Node4&#45;&gt;Node5</title>
<path fill="none" stroke="midnightblue" d="M171.271,-112.444C140.701,-103.011 91.4867,-87.8245 58.4611,-77.6337"/>
<polygon fill="midnightblue" stroke="midnightblue" points="59.3575,-74.2475 48.77,-74.6433 57.2935,-80.9363 59.3575,-74.2475"/>
</g>
<!-- Node6 -->
<g id="node6" class="node"><title>Node6</title>
<polygon fill="white" stroke="#bfbfbf" points="67,-56.5 67,-75.5 119,-75.5 119,-56.5 67,-56.5"/>
<text text-anchor="middle" x="93" y="-63.5" font-family="Helvetica,sans-Serif" font-size="10.00">stddef.h</text>
</g>
<!-- Node4&#45;&gt;Node6 -->
<g id="edge5" class="edge"><title>Node4&#45;&gt;Node6</title>
<path fill="none" stroke="midnightblue" d="M181.969,-112.324C164.97,-103.664 138.624,-90.2424 119.007,-80.249"/>
<polygon fill="midnightblue" stroke="midnightblue" points="120.488,-77.0752 109.988,-75.6545 117.31,-83.3125 120.488,-77.0752"/>
</g>
<!-- Node7 -->
<g id="node7" class="node"><title>Node7</title>
<polygon fill="white" stroke="#bfbfbf" points="137,-56.5 137,-75.5 185,-75.5 185,-56.5 137,-56.5"/>
<text text-anchor="middle" x="161" y="-63.5" font-family="Helvetica,sans-Serif" font-size="10.00">limits.h</text>
</g>
<!-- Node4&#45;&gt;Node7 -->
<g id="edge6" class="edge"><title>Node4&#45;&gt;Node7</title>
<path fill="none" stroke="midnightblue" d="M192.725,-112.083C187.358,-104.455 179.482,-93.2645 172.921,-83.9408"/>
<polygon fill="midnightblue" stroke="midnightblue" points="175.775,-81.9149 167.158,-75.7511 170.051,-85.9434 175.775,-81.9149"/>
</g>
<!-- Node4&#45;&gt;Node8 -->
<g id="edge7" class="edge"><title>Node4&#45;&gt;Node8</title>
<path fill="none" stroke="midnightblue" d="M212.817,-112.324C226.233,-103.9 246.824,-90.9709 262.586,-81.0741"/>
<polygon fill="midnightblue" stroke="midnightblue" points="264.609,-83.9364 271.217,-75.6545 260.887,-78.0081 264.609,-83.9364"/>
</g>
<!-- Node9 -->
<g id="node9" class="node"><title>Node9</title>
<polygon fill="white" stroke="#bfbfbf" points="203.5,-56.5 203.5,-75.5 246.5,-75.5 246.5,-56.5 203.5,-56.5"/>
<text text-anchor="middle" x="225" y="-63.5" font-family="Helvetica,sans-Serif" font-size="10.00">deque</text>
</g>
<!-- Node4&#45;&gt;Node9 -->
<g id="edge8" class="edge"><title>Node4&#45;&gt;Node9</title>
<path fill="none" stroke="midnightblue" d="M203.293,-112.083C206.852,-104.691 212.022,-93.9533 216.424,-84.8111"/>
<polygon fill="midnightblue" stroke="midnightblue" points="219.602,-86.2795 220.787,-75.7511 213.295,-83.2427 219.602,-86.2795"/>
</g>
<!-- Node10&#45;&gt;Node8 -->
<g id="edge14" class="edge"><title>Node10&#45;&gt;Node8</title>
<path fill="none" stroke="midnightblue" d="M342.075,-112.324C331.825,-104.185 316.279,-91.8395 303.999,-82.0874"/>
<polygon fill="midnightblue" stroke="midnightblue" points="306.132,-79.3119 296.124,-75.8339 301.779,-84.7937 306.132,-79.3119"/>
</g>
<!-- Node11 -->
<g id="node11" class="node"><title>Node11</title>
<g id="a_node11"><a xlink:href="Log_8h.html" target="_top" xlink:title="Log.h">
<polygon fill="white" stroke="black" points="429.5,-56.5 429.5,-75.5 470.5,-75.5 470.5,-56.5 429.5,-56.5"/>
<text text-anchor="middle" x="450" y="-63.5" font-family="Helvetica,sans-Serif" font-size="10.00">Log.h</text>
</a>
</g>
</g>
<!-- Node10&#45;&gt;Node11 -->
<g id="edge10" class="edge"><title>Node10&#45;&gt;Node11</title>
<path fill="none" stroke="midnightblue" d="M368.585,-112.324C383.999,-103.743 407.812,-90.486 425.71,-80.5224"/>
<polygon fill="midnightblue" stroke="midnightblue" points="427.419,-83.5767 434.454,-75.6545 424.014,-77.4606 427.419,-83.5767"/>
</g>
<!-- Node12 -->
<g id="node12" class="node"><title>Node12</title>
<polygon fill="white" stroke="#bfbfbf" points="371.5,-0.5 371.5,-19.5 414.5,-19.5 414.5,-0.5 371.5,-0.5"/>
<text text-anchor="middle" x="393" y="-7.5" font-family="Helvetica,sans-Serif" font-size="10.00">cstdio</text>
</g>
<!-- Node10&#45;&gt;Node12 -->
<g id="edge17" class="edge"><title>Node10&#45;&gt;Node12</title>
<path fill="none" stroke="midnightblue" d="M359.859,-112.225C366.314,-103.521 375.748,-89.5566 381,-76 386.771,-61.1028 389.814,-43.1851 391.39,-29.938"/>
<polygon fill="midnightblue" stroke="midnightblue" points="394.902,-29.9941 392.428,-19.6921 387.937,-29.2882 394.902,-29.9941"/>
</g>
<!-- Node15 -->
<g id="node15" class="node"><title>Node15</title>
<polygon fill="white" stroke="#bfbfbf" points="488.5,-56.5 488.5,-75.5 571.5,-75.5 571.5,-56.5 488.5,-56.5"/>
<text text-anchor="middle" x="530" y="-63.5" font-family="Helvetica,sans-Serif" font-size="10.00">unordered_map</text>
</g>
<!-- Node10&#45;&gt;Node15 -->
<g id="edge15" class="edge"><title>Node10&#45;&gt;Node15</title>
<path fill="none" stroke="midnightblue" d="M381.046,-112.444C411.082,-103.28 458.913,-88.6876 492.243,-78.5192"/>
<polygon fill="midnightblue" stroke="midnightblue" points="493.542,-81.7822 502.085,-75.5164 491.499,-75.0869 493.542,-81.7822"/>
</g>
<!-- Node16 -->
<g id="node16" class="node"><title>Node16</title>
<polygon fill="white" stroke="#bfbfbf" points="323.5,-56.5 323.5,-75.5 372.5,-75.5 372.5,-56.5 323.5,-56.5"/>
<text text-anchor="middle" x="348" y="-63.5" font-family="Helvetica,sans-Serif" font-size="10.00">cassert</text>
</g>
<!-- Node10&#45;&gt;Node16 -->
<g id="edge16" class="edge"><title>Node10&#45;&gt;Node16</title>
<path fill="none" stroke="midnightblue" d="M352.174,-112.083C351.519,-105.006 350.58,-94.8611 349.758,-85.9865"/>
<polygon fill="midnightblue" stroke="midnightblue" points="353.217,-85.3858 348.81,-75.7511 346.247,-86.0312 353.217,-85.3858"/>
</g>
<!-- Node11&#45;&gt;Node12 -->
<g id="edge11" class="edge"><title>Node11&#45;&gt;Node12</title>
<path fill="none" stroke="midnightblue" d="M440.842,-56.324C432.499,-48.4196 419.968,-36.5482 409.823,-26.9377"/>
<polygon fill="midnightblue" stroke="midnightblue" points="411.991,-24.1705 402.325,-19.8339 407.177,-29.2522 411.991,-24.1705"/>
</g>
<!-- Node13 -->
<g id="node13" class="node"><title>Node13</title>
<polygon fill="white" stroke="#bfbfbf" points="432.5,-0.5 432.5,-19.5 481.5,-19.5 481.5,-0.5 432.5,-0.5"/>
<text text-anchor="middle" x="457" y="-7.5" font-family="Helvetica,sans-Serif" font-size="10.00">cstdarg</text>
</g>
<!-- Node11&#45;&gt;Node13 -->
<g id="edge12" class="edge"><title>Node11&#45;&gt;Node13</title>
<path fill="none" stroke="midnightblue" d="M451.156,-56.083C452.084,-48.9272 453.418,-38.6353 454.577,-29.6911"/>
<polygon fill="midnightblue" stroke="midnightblue" points="458.051,-30.1181 455.866,-19.7511 451.109,-29.2181 458.051,-30.1181"/>
</g>
<!-- Node14 -->
<g id="node14" class="node"><title>Node14</title>
<polygon fill="white" stroke="#bfbfbf" points="500,-0.5 500,-19.5 546,-19.5 546,-0.5 500,-0.5"/>
<text text-anchor="middle" x="523" y="-7.5" font-family="Helvetica,sans-Serif" font-size="10.00">cstring</text>
</g>
<!-- Node11&#45;&gt;Node14 -->
<g id="edge13" class="edge"><title>Node11&#45;&gt;Node14</title>
<path fill="none" stroke="midnightblue" d="M461.729,-56.324C472.837,-48.1066 489.742,-35.6017 502.983,-25.8069"/>
<polygon fill="midnightblue" stroke="midnightblue" points="505.1,-28.5948 511.058,-19.8339 500.937,-22.9671 505.1,-28.5948"/>
</g>
<!-- Node17&#45;&gt;Node10 -->
<g id="edge19" class="edge"><title>Node17&#45;&gt;Node10</title>
<path fill="none" stroke="midnightblue" d="M354.67,-168.083C354.408,-161.006 354.032,-150.861 353.703,-141.986"/>
<polygon fill="midnightblue" stroke="midnightblue" points="357.192,-141.615 353.324,-131.751 350.197,-141.874 357.192,-141.615"/>
</g>
<!-- Node18 -->
<g id="node18" class="node"><title>Node18</title>
<polygon fill="white" stroke="#bfbfbf" points="417,-112.5 417,-131.5 461,-131.5 461,-112.5 417,-112.5"/>
<text text-anchor="middle" x="439" y="-119.5" font-family="Helvetica,sans-Serif" font-size="10.00">thread</text>
</g>
<!-- Node17&#45;&gt;Node18 -->
<g id="edge20" class="edge"><title>Node17&#45;&gt;Node18</title>
<path fill="none" stroke="midnightblue" d="M368.496,-168.324C381.6,-159.9 401.712,-146.971 417.107,-137.074"/>
<polygon fill="midnightblue" stroke="midnightblue" points="419.018,-140.006 425.537,-131.655 415.233,-134.118 419.018,-140.006"/>
</g>
<!-- Node19 -->
<g id="node19" class="node"><title>Node19</title>
<polygon fill="white" stroke="#bfbfbf" points="479,-112.5 479,-131.5 523,-131.5 523,-112.5 479,-112.5"/>
<text text-anchor="middle" x="501" y="-119.5" font-family="Helvetica,sans-Serif" font-size="10.00">mutex</text>
</g>
<!-- Node17&#45;&gt;Node19 -->
<g id="edge21" class="edge"><title>Node17&#45;&gt;Node19</title>
<path fill="none" stroke="midnightblue" d="M378.134,-168.444C402.769,-159.332 441.916,-144.853 469.386,-134.693"/>
<polygon fill="midnightblue" stroke="midnightblue" points="470.765,-137.915 478.93,-131.163 468.337,-131.349 470.765,-137.915"/>
</g>
<!-- Node20 -->
<g id="node20" class="node"><title>Node20</title>
<polygon fill="white" stroke="#bfbfbf" points="541,-112.5 541,-131.5 587,-131.5 587,-112.5 541,-112.5"/>
<text text-anchor="middle" x="564" y="-119.5" font-family="Helvetica,sans-Serif" font-size="10.00">atomic</text>
</g>
<!-- Node17&#45;&gt;Node20 -->
<g id="edge22" class="edge"><title>Node17&#45;&gt;Node20</title>
<path fill="none" stroke="midnightblue" d="M389.111,-168.45C424.598,-159.514 481.755,-145.01 531,-132 531.1,-131.973 531.201,-131.947 531.302,-131.92"/>
<polygon fill="midnightblue" stroke="midnightblue" points="532.179,-135.309 540.934,-129.341 530.369,-128.547 532.179,-135.309"/>
</g>
</g>
</svg>
