<?xml version="1.0" encoding="UTF-8" standalone="no"?>
<!DOCTYPE svg PUBLIC "-//W3C//DTD SVG 1.1//EN"
 "http://www.w3.org/Graphics/SVG/1.1/DTD/svg11.dtd">
<!-- Generated by graphviz version 2.36.0 (20140111.2315)
 -->
<!-- Title: /home/travis/build/mgerhardy/simpleai/src/ai/server/Network.h Pages: 1 -->
<svg width="601pt" height="274pt"
 viewBox="0.00 0.00 601.00 274.00" xmlns="http://www.w3.org/2000/svg" xmlns:xlink="http://www.w3.org/1999/xlink">
<g id="graph0" class="graph" transform="scale(1 1) rotate(0) translate(4 270)">
<title>/home/travis/build/mgerhardy/simpleai/src/ai/server/Network.h</title>
<polygon fill="white" stroke="none" points="-4,4 -4,-270 597,-270 597,4 -4,4"/>
<!-- Node1 -->
<g id="node1" class="node"><title>Node1</title>
<polygon fill="#bfbfbf" stroke="black" points="255,-224.5 255,-265.5 377,-265.5 377,-224.5 255,-224.5"/>
<text text-anchor="start" x="263" y="-253.5" font-family="Helvetica,sans-Serif" font-size="10.00">/home/travis/build</text>
<text text-anchor="start" x="263" y="-242.5" font-family="Helvetica,sans-Serif" font-size="10.00">/mgerhardy/simpleai</text>
<text text-anchor="middle" x="316" y="-231.5" font-family="Helvetica,sans-Serif" font-size="10.00">/src/ai/server/Network.h</text>
</g>
<!-- Node2 -->
<g id="node2" class="node"><title>Node2</title>
<g id="a_node2"><a xlink:href="IProtocolHandler_8h.html" target="_top" xlink:title="IProtocolHandler.h">
<polygon fill="white" stroke="black" points="150,-168.5 150,-187.5 248,-187.5 248,-168.5 150,-168.5"/>
<text text-anchor="middle" x="199" y="-175.5" font-family="Helvetica,sans-Serif" font-size="10.00">IProtocolHandler.h</text>
</a>
</g>
</g>
<!-- Node1&#45;&gt;Node2 -->
<g id="edge1" class="edge"><title>Node1&#45;&gt;Node2</title>
<path fill="none" stroke="midnightblue" d="M280.896,-224.498C262.44,-214.245 240.265,-201.925 223.647,-192.693"/>
<polygon fill="midnightblue" stroke="midnightblue" points="225.016,-189.449 214.574,-187.652 221.616,-195.569 225.016,-189.449"/>
</g>
<!-- Node5 -->
<g id="node5" class="node"><title>Node5</title>
<polygon fill="white" stroke="#bfbfbf" points="-0.5,-56.5 -0.5,-75.5 48.5,-75.5 48.5,-56.5 -0.5,-56.5"/>
<text text-anchor="middle" x="24" y="-63.5" font-family="Helvetica,sans-Serif" font-size="10.00">stdint.h</text>
</g>
<!-- Node1&#45;&gt;Node5 -->
<g id="edge24" class="edge"><title>Node1&#45;&gt;Node5</title>
<path fill="none" stroke="midnightblue" d="M254.866,-229.889C220.308,-220.591 176.958,-206.663 141,-188 104.392,-168.999 95.226,-162.074 67,-132 53.439,-117.551 41.321,-98.3611 33.4333,-84.5833"/>
<polygon fill="midnightblue" stroke="midnightblue" points="36.39,-82.6982 28.4772,-75.6527 30.2693,-86.0949 36.39,-82.6982"/>
</g>
<!-- Node8 -->
<g id="node8" class="node"><title>Node8</title>
<polygon fill="white" stroke="#bfbfbf" points="264.5,-56.5 264.5,-75.5 305.5,-75.5 305.5,-56.5 264.5,-56.5"/>
<text text-anchor="middle" x="285" y="-63.5" font-family="Helvetica,sans-Serif" font-size="10.00">string</text>
</g>
<!-- Node1&#45;&gt;Node8 -->
<g id="edge23" class="edge"><title>Node1&#45;&gt;Node8</title>
<path fill="none" stroke="midnightblue" d="M308.105,-224.354C304.16,-213.752 299.669,-200.343 297,-188 289.293,-152.36 286.523,-109.727 285.537,-85.7639"/>
<polygon fill="midnightblue" stroke="midnightblue" points="289.029,-85.4842 285.182,-75.6126 282.033,-85.7288 289.029,-85.4842"/>
</g>
<!-- Node18 -->
<g id="node18" class="node"><title>Node18</title>
<g id="a_node18"><a xlink:href="Thread_8h.html" target="_top" xlink:title="common/Thread.h">
<polygon fill="white" stroke="black" points="306.5,-168.5 306.5,-187.5 401.5,-187.5 401.5,-168.5 306.5,-168.5"/>
<text text-anchor="middle" x="354" y="-175.5" font-family="Helvetica,sans-Serif" font-size="10.00">common/Thread.h</text>
</a>
</g>
</g>
<!-- Node1&#45;&gt;Node18 -->
<g id="edge18" class="edge"><title>Node1&#45;&gt;Node18</title>
<path fill="none" stroke="midnightblue" d="M327.401,-224.498C332.611,-215.586 338.734,-205.113 343.791,-196.464"/>
<polygon fill="midnightblue" stroke="midnightblue" points="346.916,-198.052 348.942,-187.652 340.873,-194.519 346.916,-198.052"/>
</g>
<!-- Node22 -->
<g id="node22" class="node"><title>Node22</title>
<polygon fill="white" stroke="#bfbfbf" points="419.5,-168.5 419.5,-187.5 448.5,-187.5 448.5,-168.5 419.5,-168.5"/>
<text text-anchor="middle" x="434" y="-175.5" font-family="Helvetica,sans-Serif" font-size="10.00">list</text>
</g>
<!-- Node1&#45;&gt;Node22 -->
<g id="edge25" class="edge"><title>Node1&#45;&gt;Node22</title>
<path fill="none" stroke="midnightblue" d="M351.404,-224.498C370.358,-214.057 393.202,-201.474 410.057,-192.189"/>
<polygon fill="midnightblue" stroke="midnightblue" points="412.144,-195.036 419.214,-187.145 408.766,-188.904 412.144,-195.036"/>
</g>
<!-- Node23 -->
<g id="node23" class="node"><title>Node23</title>
<polygon fill="white" stroke="#bfbfbf" points="467,-168.5 467,-187.5 537,-187.5 537,-168.5 467,-168.5"/>
<text text-anchor="middle" x="502" y="-175.5" font-family="Helvetica,sans-Serif" font-size="10.00">sys/select.h</text>
</g>
<!-- Node1&#45;&gt;Node23 -->
<g id="edge26" class="edge"><title>Node1&#45;&gt;Node23</title>
<path fill="none" stroke="midnightblue" d="M371.806,-224.498C402.928,-213.622 440.704,-200.421 467.531,-191.045"/>
<polygon fill="midnightblue" stroke="midnightblue" points="468.955,-194.256 477.241,-187.652 466.646,-187.647 468.955,-194.256"/>
</g>
<!-- Node3 -->
<g id="node3" class="node"><title>Node3</title>
<polygon fill="white" stroke="#bfbfbf" points="76,-112.5 76,-131.5 128,-131.5 128,-112.5 76,-112.5"/>
<text text-anchor="middle" x="102" y="-119.5" font-family="Helvetica,sans-Serif" font-size="10.00">memory</text>
</g>
<!-- Node2&#45;&gt;Node3 -->
<g id="edge2" class="edge"><title>Node2&#45;&gt;Node3</title>
<path fill="none" stroke="midnightblue" d="M183.415,-168.324C168.001,-159.743 144.188,-146.486 126.29,-136.522"/>
<polygon fill="midnightblue" stroke="midnightblue" points="127.986,-133.461 117.546,-131.655 124.581,-139.577 127.986,-133.461"/>
</g>
<!-- Node4 -->
<g id="node4" class="node"><title>Node4</title>
<g id="a_node4"><a xlink:href="IProtocolMessage_8h.html" target="_top" xlink:title="IProtocolMessage.h">
<polygon fill="white" stroke="black" points="146,-112.5 146,-131.5 250,-131.5 250,-112.5 146,-112.5"/>
<text text-anchor="middle" x="198" y="-119.5" font-family="Helvetica,sans-Serif" font-size="10.00">IProtocolMessage.h</text>
</a>
</g>
</g>
<!-- Node2&#45;&gt;Node4 -->
<g id="edge3" class="edge"><title>Node2&#45;&gt;Node4</title>
<path fill="none" stroke="midnightblue" d="M198.835,-168.083C198.704,-161.006 198.516,-150.861 198.352,-141.986"/>
<polygon fill="midnightblue" stroke="midnightblue" points="201.847,-141.685 198.162,-131.751 194.848,-141.814 201.847,-141.685"/>
</g>
<!-- Node10 -->
<g id="node10" class="node"><title>Node10</title>
<g id="a_node10"><a xlink:href="Types_8h.html" target="_top" xlink:title="common/Types.h">
<polygon fill="white" stroke="black" points="306,-112.5 306,-131.5 398,-131.5 398,-112.5 306,-112.5"/>
<text text-anchor="middle" x="352" y="-119.5" font-family="Helvetica,sans-Serif" font-size="10.00">common/Types.h</text>
</a>
</g>
</g>
<!-- Node2&#45;&gt;Node10 -->
<g id="edge9" class="edge"><title>Node2&#45;&gt;Node10</title>
<path fill="none" stroke="midnightblue" d="M223.243,-168.444C248.871,-159.399 289.485,-145.064 318.238,-134.916"/>
<polygon fill="midnightblue" stroke="midnightblue" points="319.605,-138.145 327.87,-131.516 317.275,-131.544 319.605,-138.145"/>
</g>
<!-- Node4&#45;&gt;Node5 -->
<g id="edge4" class="edge"><title>Node4&#45;&gt;Node5</title>
<path fill="none" stroke="midnightblue" d="M170.429,-112.444C140.034,-103.011 91.1011,-87.8245 58.2642,-77.6337"/>
<polygon fill="midnightblue" stroke="midnightblue" points="59.2166,-74.2647 48.6285,-74.6433 57.1417,-80.9501 59.2166,-74.2647"/>
</g>
<!-- Node6 -->
<g id="node6" class="node"><title>Node6</title>
<polygon fill="white" stroke="#bfbfbf" points="67,-56.5 67,-75.5 119,-75.5 119,-56.5 67,-56.5"/>
<text text-anchor="middle" x="93" y="-63.5" font-family="Helvetica,sans-Serif" font-size="10.00">stddef.h</text>
</g>
<!-- Node4&#45;&gt;Node6 -->
<g id="edge5" class="edge"><title>Node4&#45;&gt;Node6</title>
<path fill="none" stroke="midnightblue" d="M181.13,-112.324C164.291,-103.664 138.193,-90.2424 118.762,-80.249"/>
<polygon fill="midnightblue" stroke="midnightblue" points="120.322,-77.1155 109.828,-75.6545 117.12,-83.3405 120.322,-77.1155"/>
</g>
<!-- Node7 -->
<g id="node7" class="node"><title>Node7</title>
<polygon fill="white" stroke="#bfbfbf" points="137,-56.5 137,-75.5 185,-75.5 185,-56.5 137,-56.5"/>
<text text-anchor="middle" x="161" y="-63.5" font-family="Helvetica,sans-Serif" font-size="10.00">limits.h</text>
</g>
<!-- Node4&#45;&gt;Node7 -->
<g id="edge6" class="edge"><title>Node4&#45;&gt;Node7</title>
<path fill="none" stroke="midnightblue" d="M191.89,-112.083C186.718,-104.534 179.154,-93.4948 172.806,-84.2298"/>
<polygon fill="midnightblue" stroke="midnightblue" points="175.536,-82.0221 166.996,-75.7511 169.761,-85.9787 175.536,-82.0221"/>
</g>
<!-- Node4&#45;&gt;Node8 -->
<g id="edge7" class="edge"><title>Node4&#45;&gt;Node8</title>
<path fill="none" stroke="midnightblue" d="M211.978,-112.324C225.55,-103.9 246.38,-90.9709 262.325,-81.0741"/>
<polygon fill="midnightblue" stroke="midnightblue" points="264.406,-83.9019 271.057,-75.6545 260.714,-77.9544 264.406,-83.9019"/>
</g>
<!-- Node9 -->
<g id="node9" class="node"><title>Node9</title>
<polygon fill="white" stroke="#bfbfbf" points="203.5,-56.5 203.5,-75.5 246.5,-75.5 246.5,-56.5 203.5,-56.5"/>
<text text-anchor="middle" x="225" y="-63.5" font-family="Helvetica,sans-Serif" font-size="10.00">deque</text>
</g>
<!-- Node4&#45;&gt;Node9 -->
<g id="edge8" class="edge"><title>Node4&#45;&gt;Node9</title>
<path fill="none" stroke="midnightblue" d="M202.459,-112.083C206.154,-104.691 211.523,-93.9533 216.094,-84.8111"/>
<polygon fill="midnightblue" stroke="midnightblue" points="219.283,-86.2606 220.624,-75.7511 213.022,-83.1301 219.283,-86.2606"/>
</g>
<!-- Node10&#45;&gt;Node8 -->
<g id="edge14" class="edge"><title>Node10&#45;&gt;Node8</title>
<path fill="none" stroke="midnightblue" d="M341.235,-112.324C331.234,-104.263 316.113,-92.0765 304.07,-82.3695"/>
<polygon fill="midnightblue" stroke="midnightblue" points="305.943,-79.3841 295.961,-75.8339 301.55,-84.8343 305.943,-79.3841"/>
</g>
<!-- Node11 -->
<g id="node11" class="node"><title>Node11</title>
<g id="a_node11"><a xlink:href="Log_8h.html" target="_top" xlink:title="Log.h">
<polygon fill="white" stroke="black" points="384.5,-56.5 384.5,-75.5 425.5,-75.5 425.5,-56.5 384.5,-56.5"/>
<text text-anchor="middle" x="405" y="-63.5" font-family="Helvetica,sans-Serif" font-size="10.00">Log.h</text>
</a>
</g>
</g>
<!-- Node10&#45;&gt;Node11 -->
<g id="edge10" class="edge"><title>Node10&#45;&gt;Node11</title>
<path fill="none" stroke="midnightblue" d="M360.752,-112.083C368.47,-104.22 379.905,-92.5688 389.217,-83.0813"/>
<polygon fill="midnightblue" stroke="midnightblue" points="391.904,-85.3396 396.411,-75.7511 386.908,-80.4363 391.904,-85.3396"/>
</g>
<!-- Node15 -->
<g id="node15" class="node"><title>Node15</title>
<polygon fill="white" stroke="#bfbfbf" points="443.5,-56.5 443.5,-75.5 526.5,-75.5 526.5,-56.5 443.5,-56.5"/>
<text text-anchor="middle" x="485" y="-63.5" font-family="Helvetica,sans-Serif" font-size="10.00">unordered_map</text>
</g>
<!-- Node10&#45;&gt;Node15 -->
<g id="edge15" class="edge"><title>Node10&#45;&gt;Node15</title>
<path fill="none" stroke="midnightblue" d="M373.074,-112.444C395.06,-103.517 429.734,-89.4387 454.664,-79.3168"/>
<polygon fill="midnightblue" stroke="midnightblue" points="456.076,-82.5213 464.024,-75.5164 453.442,-76.0355 456.076,-82.5213"/>
</g>
<!-- Node16 -->
<g id="node16" class="node"><title>Node16</title>
<polygon fill="white" stroke="#bfbfbf" points="544.5,-56.5 544.5,-75.5 593.5,-75.5 593.5,-56.5 544.5,-56.5"/>
<text text-anchor="middle" x="569" y="-63.5" font-family="Helvetica,sans-Serif" font-size="10.00">cassert</text>
</g>
<!-- Node10&#45;&gt;Node16 -->
<g id="edge16" class="edge"><title>Node10&#45;&gt;Node16</title>
<path fill="none" stroke="midnightblue" d="M387.47,-112.474C422.354,-104.046 477.37,-90.6376 534.556,-76.0783"/>
<polygon fill="midnightblue" stroke="midnightblue" points="535.676,-79.4049 544.499,-73.5407 533.944,-72.6223 535.676,-79.4049"/>
</g>
<!-- Node17 -->
<g id="node17" class="node"><title>Node17</title>
<polygon fill="white" stroke="#bfbfbf" points="323.5,-56.5 323.5,-75.5 366.5,-75.5 366.5,-56.5 323.5,-56.5"/>
<text text-anchor="middle" x="345" y="-63.5" font-family="Helvetica,sans-Serif" font-size="10.00">cstdio</text>
</g>
<!-- Node10&#45;&gt;Node17 -->
<g id="edge17" class="edge"><title>Node10&#45;&gt;Node17</title>
<path fill="none" stroke="midnightblue" d="M350.844,-112.083C349.916,-104.927 348.582,-94.6353 347.423,-85.6911"/>
<polygon fill="midnightblue" stroke="midnightblue" points="350.891,-85.2181 346.134,-75.7511 343.949,-86.1181 350.891,-85.2181"/>
</g>
<!-- Node12 -->
<g id="node12" class="node"><title>Node12</title>
<polygon fill="white" stroke="#bfbfbf" points="315,-0.5 315,-19.5 361,-19.5 361,-0.5 315,-0.5"/>
<text text-anchor="middle" x="338" y="-7.5" font-family="Helvetica,sans-Serif" font-size="10.00">stdio.h</text>
</g>
<!-- Node11&#45;&gt;Node12 -->
<g id="edge11" class="edge"><title>Node11&#45;&gt;Node12</title>
<path fill="none" stroke="midnightblue" d="M394.235,-56.324C384.234,-48.2631 369.113,-36.0765 357.07,-26.3695"/>
<polygon fill="midnightblue" stroke="midnightblue" points="358.943,-23.3841 348.961,-19.8339 354.55,-28.8343 358.943,-23.3841"/>
</g>
<!-- Node13 -->
<g id="node13" class="node"><title>Node13</title>
<polygon fill="white" stroke="#bfbfbf" points="379,-0.5 379,-19.5 431,-19.5 431,-0.5 379,-0.5"/>
<text text-anchor="middle" x="405" y="-7.5" font-family="Helvetica,sans-Serif" font-size="10.00">stdarg.h</text>
</g>
<!-- Node11&#45;&gt;Node13 -->
<g id="edge12" class="edge"><title>Node11&#45;&gt;Node13</title>
<path fill="none" stroke="midnightblue" d="M405,-56.083C405,-49.0059 405,-38.8611 405,-29.9865"/>
<polygon fill="midnightblue" stroke="midnightblue" points="408.5,-29.751 405,-19.7511 401.5,-29.7511 408.5,-29.751"/>
</g>
<!-- Node14 -->
<g id="node14" class="node"><title>Node14</title>
<polygon fill="white" stroke="#bfbfbf" points="449.5,-0.5 449.5,-19.5 498.5,-19.5 498.5,-0.5 449.5,-0.5"/>
<text text-anchor="middle" x="474" y="-7.5" font-family="Helvetica,sans-Serif" font-size="10.00">string.h</text>
</g>
<!-- Node11&#45;&gt;Node14 -->
<g id="edge13" class="edge"><title>Node11&#45;&gt;Node14</title>
<path fill="none" stroke="midnightblue" d="M416.086,-56.324C426.486,-48.1849 442.261,-35.8395 454.722,-26.0874"/>
<polygon fill="midnightblue" stroke="midnightblue" points="456.994,-28.7533 462.712,-19.8339 452.68,-23.2407 456.994,-28.7533"/>
</g>
<!-- Node18&#45;&gt;Node10 -->
<g id="edge19" class="edge"><title>Node18&#45;&gt;Node10</title>
<path fill="none" stroke="midnightblue" d="M353.67,-168.083C353.408,-161.006 353.032,-150.861 352.703,-141.986"/>
<polygon fill="midnightblue" stroke="midnightblue" points="356.192,-141.615 352.324,-131.751 349.197,-141.874 356.192,-141.615"/>
</g>
<!-- Node19 -->
<g id="node19" class="node"><title>Node19</title>
<polygon fill="white" stroke="#bfbfbf" points="416,-112.5 416,-131.5 460,-131.5 460,-112.5 416,-112.5"/>
<text text-anchor="middle" x="438" y="-119.5" font-family="Helvetica,sans-Serif" font-size="10.00">thread</text>
</g>
<!-- Node18&#45;&gt;Node19 -->
<g id="edge20" class="edge"><title>Node18&#45;&gt;Node19</title>
<path fill="none" stroke="midnightblue" d="M367.496,-168.324C380.6,-159.9 400.712,-146.971 416.107,-137.074"/>
<polygon fill="midnightblue" stroke="midnightblue" points="418.018,-140.006 424.537,-131.655 414.233,-134.118 418.018,-140.006"/>
</g>
<!-- Node20 -->
<g id="node20" class="node"><title>Node20</title>
<polygon fill="white" stroke="#bfbfbf" points="478,-112.5 478,-131.5 522,-131.5 522,-112.5 478,-112.5"/>
<text text-anchor="middle" x="500" y="-119.5" font-family="Helvetica,sans-Serif" font-size="10.00">mutex</text>
</g>
<!-- Node18&#45;&gt;Node20 -->
<g id="edge21" class="edge"><title>Node18&#45;&gt;Node20</title>
<path fill="none" stroke="midnightblue" d="M377.134,-168.444C401.769,-159.332 440.916,-144.853 468.386,-134.693"/>
<polygon fill="midnightblue" stroke="midnightblue" points="469.765,-137.915 477.93,-131.163 467.337,-131.349 469.765,-137.915"/>
</g>
<!-- Node21 -->
<g id="node21" class="node"><title>Node21</title>
<polygon fill="white" stroke="#bfbfbf" points="540,-112.5 540,-131.5 586,-131.5 586,-112.5 540,-112.5"/>
<text text-anchor="middle" x="563" y="-119.5" font-family="Helvetica,sans-Serif" font-size="10.00">atomic</text>
</g>
<!-- Node18&#45;&gt;Node21 -->
<g id="edge22" class="edge"><title>Node18&#45;&gt;Node21</title>
<path fill="none" stroke="midnightblue" d="M388.111,-168.45C423.598,-159.514 480.755,-145.01 530,-132 530.1,-131.973 530.201,-131.947 530.302,-131.92"/>
<polygon fill="midnightblue" stroke="midnightblue" points="531.179,-135.309 539.934,-129.341 529.369,-128.547 531.179,-135.309"/>
</g>
</g>
</svg>
