<?xml version="1.0" encoding="UTF-8" standalone="no"?>
<!DOCTYPE svg PUBLIC "-//W3C//DTD SVG 1.1//EN"
 "http://www.w3.org/Graphics/SVG/1.1/DTD/svg11.dtd">
<!-- Generated by graphviz version 2.36.0 (20140111.2315)
 -->
<!-- Title: /home/travis/build/mgerhardy/simpleai/src/ai/conditions/Or.h Pages: 1 -->
<svg width="820pt" height="386pt"
 viewBox="0.00 0.00 820.00 386.00" xmlns="http://www.w3.org/2000/svg" xmlns:xlink="http://www.w3.org/1999/xlink">
<g id="graph0" class="graph" transform="scale(1 1) rotate(0) translate(4 382)">
<title>/home/travis/build/mgerhardy/simpleai/src/ai/conditions/Or.h</title>
<polygon fill="white" stroke="none" points="-4,4 -4,-382 816,-382 816,4 -4,4"/>
<!-- Node1 -->
<g id="node1" class="node"><title>Node1</title>
<polygon fill="#bfbfbf" stroke="black" points="479.5,-336.5 479.5,-377.5 592.5,-377.5 592.5,-336.5 479.5,-336.5"/>
<text text-anchor="start" x="487.5" y="-365.5" font-family="Helvetica,sans-Serif" font-size="10.00">/home/travis/build</text>
<text text-anchor="start" x="487.5" y="-354.5" font-family="Helvetica,sans-Serif" font-size="10.00">/mgerhardy/simpleai</text>
<text text-anchor="middle" x="536" y="-343.5" font-family="Helvetica,sans-Serif" font-size="10.00">/src/ai/conditions/Or.h</text>
</g>
<!-- Node2 -->
<g id="node2" class="node"><title>Node2</title>
<g id="a_node2"><a xlink:href="ICondition_8h.html" target="_top" xlink:title="Condition related stuff. ">
<polygon fill="white" stroke="black" points="478,-280.5 478,-299.5 594,-299.5 594,-280.5 478,-280.5"/>
<text text-anchor="middle" x="536" y="-287.5" font-family="Helvetica,sans-Serif" font-size="10.00">conditions/ICondition.h</text>
</a>
</g>
</g>
<!-- Node1&#45;&gt;Node2 -->
<g id="edge1" class="edge"><title>Node1&#45;&gt;Node2</title>
<path fill="none" stroke="midnightblue" d="M536,-336.498C536,-328.065 536,-318.235 536,-309.874"/>
<polygon fill="midnightblue" stroke="midnightblue" points="539.5,-309.652 536,-299.652 532.5,-309.653 539.5,-309.652"/>
</g>
<!-- Node3 -->
<g id="node3" class="node"><title>Node3</title>
<polygon fill="white" stroke="#bfbfbf" points="301.5,-56.5 301.5,-75.5 342.5,-75.5 342.5,-56.5 301.5,-56.5"/>
<text text-anchor="middle" x="322" y="-63.5" font-family="Helvetica,sans-Serif" font-size="10.00">string</text>
</g>
<!-- Node2&#45;&gt;Node3 -->
<g id="edge2" class="edge"><title>Node2&#45;&gt;Node3</title>
<path fill="none" stroke="midnightblue" d="M485.242,-280.421C434.656,-268.919 359.416,-243.158 323,-188 302.432,-156.846 309.937,-110.64 316.451,-85.2897"/>
<polygon fill="midnightblue" stroke="midnightblue" points="319.86,-86.0955 319.184,-75.5223 313.119,-84.2093 319.86,-86.0955"/>
</g>
<!-- Node4 -->
<g id="node4" class="node"><title>Node4</title>
<polygon fill="white" stroke="#bfbfbf" points="522,-112.5 522,-131.5 566,-131.5 566,-112.5 522,-112.5"/>
<text text-anchor="middle" x="544" y="-119.5" font-family="Helvetica,sans-Serif" font-size="10.00">vector</text>
</g>
<!-- Node2&#45;&gt;Node4 -->
<g id="edge3" class="edge"><title>Node2&#45;&gt;Node4</title>
<path fill="none" stroke="midnightblue" d="M536.43,-280.075C537.689,-253.945 541.387,-177.211 543.105,-141.577"/>
<polygon fill="midnightblue" stroke="midnightblue" points="546.602,-141.725 543.587,-131.568 539.61,-141.388 546.602,-141.725"/>
</g>
<!-- Node5 -->
<g id="node5" class="node"><title>Node5</title>
<polygon fill="white" stroke="#bfbfbf" points="760,-224.5 760,-243.5 812,-243.5 812,-224.5 760,-224.5"/>
<text text-anchor="middle" x="786" y="-231.5" font-family="Helvetica,sans-Serif" font-size="10.00">sstream</text>
</g>
<!-- Node2&#45;&gt;Node5 -->
<g id="edge4" class="edge"><title>Node2&#45;&gt;Node5</title>
<path fill="none" stroke="midnightblue" d="M576.285,-280.495C618.579,-271.536 687.003,-256.958 746,-244 747.251,-243.725 748.525,-243.444 749.81,-243.16"/>
<polygon fill="midnightblue" stroke="midnightblue" points="750.758,-246.535 759.759,-240.945 749.237,-239.702 750.758,-246.535"/>
</g>
<!-- Node6 -->
<g id="node6" class="node"><title>Node6</title>
<polygon fill="white" stroke="#bfbfbf" points="670,-112.5 670,-131.5 722,-131.5 722,-112.5 670,-112.5"/>
<text text-anchor="middle" x="696" y="-119.5" font-family="Helvetica,sans-Serif" font-size="10.00">memory</text>
</g>
<!-- Node2&#45;&gt;Node6 -->
<g id="edge5" class="edge"><title>Node2&#45;&gt;Node6</title>
<path fill="none" stroke="midnightblue" d="M594.074,-281.853C639.562,-274.921 697.493,-262.683 712,-244 735.405,-213.858 717.961,-166.243 705.559,-140.656"/>
<polygon fill="midnightblue" stroke="midnightblue" points="708.661,-139.035 700.994,-131.723 702.428,-142.22 708.661,-139.035"/>
</g>
<!-- Node7 -->
<g id="node7" class="node"><title>Node7</title>
<g id="a_node7"><a xlink:href="MemoryAllocator_8h.html" target="_top" xlink:title="common/MemoryAllocator.h">
<polygon fill="white" stroke="black" points="564.5,-224.5 564.5,-243.5 703.5,-243.5 703.5,-224.5 564.5,-224.5"/>
<text text-anchor="middle" x="634" y="-231.5" font-family="Helvetica,sans-Serif" font-size="10.00">common/MemoryAllocator.h</text>
</a>
</g>
</g>
<!-- Node2&#45;&gt;Node7 -->
<g id="edge6" class="edge"><title>Node2&#45;&gt;Node7</title>
<path fill="none" stroke="midnightblue" d="M551.745,-280.324C567.319,-271.743 591.377,-258.486 609.459,-248.522"/>
<polygon fill="midnightblue" stroke="midnightblue" points="611.224,-251.546 618.294,-243.655 607.846,-245.415 611.224,-251.546"/>
</g>
<!-- Node8 -->
<g id="node8" class="node"><title>Node8</title>
<g id="a_node8"><a xlink:href="Thread_8h.html" target="_top" xlink:title="common/Thread.h">
<polygon fill="white" stroke="black" points="137.5,-224.5 137.5,-243.5 232.5,-243.5 232.5,-224.5 137.5,-224.5"/>
<text text-anchor="middle" x="185" y="-231.5" font-family="Helvetica,sans-Serif" font-size="10.00">common/Thread.h</text>
</a>
</g>
</g>
<!-- Node2&#45;&gt;Node8 -->
<g id="edge8" class="edge"><title>Node2&#45;&gt;Node8</title>
<path fill="none" stroke="midnightblue" d="M480.383,-280.444C415.52,-270.465 308.806,-254.047 242.956,-243.916"/>
<polygon fill="midnightblue" stroke="midnightblue" points="243.167,-240.408 232.751,-242.346 242.102,-247.326 243.167,-240.408"/>
</g>
<!-- Node19 -->
<g id="node19" class="node"><title>Node19</title>
<g id="a_node19"><a xlink:href="AIFactories_8h.html" target="_top" xlink:title="AIFactories.h">
<polygon fill="white" stroke="black" points="432.5,-224.5 432.5,-243.5 507.5,-243.5 507.5,-224.5 432.5,-224.5"/>
<text text-anchor="middle" x="470" y="-231.5" font-family="Helvetica,sans-Serif" font-size="10.00">AIFactories.h</text>
</a>
</g>
</g>
<!-- Node2&#45;&gt;Node19 -->
<g id="edge21" class="edge"><title>Node2&#45;&gt;Node19</title>
<path fill="none" stroke="midnightblue" d="M525.396,-280.324C515.544,-272.263 500.649,-260.077 488.785,-250.369"/>
<polygon fill="midnightblue" stroke="midnightblue" points="490.753,-247.457 480.797,-243.834 486.32,-252.875 490.753,-247.457"/>
</g>
<!-- Node7&#45;&gt;Node6 -->
<g id="edge7" class="edge"><title>Node7&#45;&gt;Node6</title>
<path fill="none" stroke="midnightblue" d="M638.865,-224.368C649.052,-206.296 672.791,-164.176 686.245,-140.307"/>
<polygon fill="midnightblue" stroke="midnightblue" points="689.296,-142.022 691.158,-131.591 683.198,-138.584 689.296,-142.022"/>
</g>
<!-- Node9 -->
<g id="node9" class="node"><title>Node9</title>
<g id="a_node9"><a xlink:href="Types_8h.html" target="_top" xlink:title="Types.h">
<polygon fill="white" stroke="black" points="194,-112.5 194,-131.5 246,-131.5 246,-112.5 194,-112.5"/>
<text text-anchor="middle" x="220" y="-119.5" font-family="Helvetica,sans-Serif" font-size="10.00">Types.h</text>
</a>
</g>
</g>
<!-- Node8&#45;&gt;Node9 -->
<g id="edge9" class="edge"><title>Node8&#45;&gt;Node9</title>
<path fill="none" stroke="midnightblue" d="M175.398,-224.498C162.498,-211.998 142.351,-187.98 153,-168 160.55,-153.834 174.761,-143.335 188.158,-136.058"/>
<polygon fill="midnightblue" stroke="midnightblue" points="189.834,-139.133 197.212,-131.529 186.702,-132.872 189.834,-139.133"/>
</g>
<!-- Node16 -->
<g id="node16" class="node"><title>Node16</title>
<polygon fill="white" stroke="#bfbfbf" points="226,-168.5 226,-187.5 270,-187.5 270,-168.5 226,-168.5"/>
<text text-anchor="middle" x="248" y="-175.5" font-family="Helvetica,sans-Serif" font-size="10.00">thread</text>
</g>
<!-- Node8&#45;&gt;Node16 -->
<g id="edge18" class="edge"><title>Node8&#45;&gt;Node16</title>
<path fill="none" stroke="midnightblue" d="M195.122,-224.324C204.526,-216.263 218.744,-204.077 230.069,-194.369"/>
<polygon fill="midnightblue" stroke="midnightblue" points="232.379,-196.999 237.694,-187.834 227.823,-191.684 232.379,-196.999"/>
</g>
<!-- Node17 -->
<g id="node17" class="node"><title>Node17</title>
<polygon fill="white" stroke="#bfbfbf" points="62,-168.5 62,-187.5 106,-187.5 106,-168.5 62,-168.5"/>
<text text-anchor="middle" x="84" y="-175.5" font-family="Helvetica,sans-Serif" font-size="10.00">mutex</text>
</g>
<!-- Node8&#45;&gt;Node17 -->
<g id="edge19" class="edge"><title>Node8&#45;&gt;Node17</title>
<path fill="none" stroke="midnightblue" d="M168.773,-224.324C152.649,-215.703 127.7,-202.364 109.036,-192.386"/>
<polygon fill="midnightblue" stroke="midnightblue" points="110.656,-189.283 100.187,-187.655 107.356,-195.456 110.656,-189.283"/>
</g>
<!-- Node18 -->
<g id="node18" class="node"><title>Node18</title>
<polygon fill="white" stroke="#bfbfbf" points="162,-168.5 162,-187.5 208,-187.5 208,-168.5 162,-168.5"/>
<text text-anchor="middle" x="185" y="-175.5" font-family="Helvetica,sans-Serif" font-size="10.00">atomic</text>
</g>
<!-- Node8&#45;&gt;Node18 -->
<g id="edge20" class="edge"><title>Node8&#45;&gt;Node18</title>
<path fill="none" stroke="midnightblue" d="M185,-224.083C185,-217.006 185,-206.861 185,-197.986"/>
<polygon fill="midnightblue" stroke="midnightblue" points="188.5,-197.751 185,-187.751 181.5,-197.751 188.5,-197.751"/>
</g>
<!-- Node9&#45;&gt;Node3 -->
<g id="edge14" class="edge"><title>Node9&#45;&gt;Node3</title>
<path fill="none" stroke="midnightblue" d="M236.388,-112.324C252.671,-103.703 277.867,-90.3643 296.716,-80.3855"/>
<polygon fill="midnightblue" stroke="midnightblue" points="298.452,-83.4267 305.653,-75.6545 295.177,-77.2402 298.452,-83.4267"/>
</g>
<!-- Node10 -->
<g id="node10" class="node"><title>Node10</title>
<g id="a_node10"><a xlink:href="Log_8h.html" target="_top" xlink:title="Log.h">
<polygon fill="white" stroke="black" points="35.5,-56.5 35.5,-75.5 76.5,-75.5 76.5,-56.5 35.5,-56.5"/>
<text text-anchor="middle" x="56" y="-63.5" font-family="Helvetica,sans-Serif" font-size="10.00">Log.h</text>
</a>
</g>
</g>
<!-- Node9&#45;&gt;Node10 -->
<g id="edge10" class="edge"><title>Node9&#45;&gt;Node10</title>
<path fill="none" stroke="midnightblue" d="M194.014,-112.444C164.801,-102.825 117.42,-87.2238 86.4833,-77.0372"/>
<polygon fill="midnightblue" stroke="midnightblue" points="87.2651,-73.6098 76.6721,-73.8067 85.0758,-80.2586 87.2651,-73.6098"/>
</g>
<!-- Node11 -->
<g id="node11" class="node"><title>Node11</title>
<polygon fill="white" stroke="#bfbfbf" points="191.5,-0.5 191.5,-19.5 234.5,-19.5 234.5,-0.5 191.5,-0.5"/>
<text text-anchor="middle" x="213" y="-7.5" font-family="Helvetica,sans-Serif" font-size="10.00">cstdio</text>
</g>
<!-- Node9&#45;&gt;Node11 -->
<g id="edge17" class="edge"><title>Node9&#45;&gt;Node11</title>
<path fill="none" stroke="midnightblue" d="M229.553,-112.439C241.924,-100.256 261.006,-77.0567 253,-56 248.665,-44.5976 239.969,-34.2394 231.79,-26.343"/>
<polygon fill="midnightblue" stroke="midnightblue" points="234.041,-23.6595 224.266,-19.5728 229.358,-28.8633 234.041,-23.6595"/>
</g>
<!-- Node14 -->
<g id="node14" class="node"><title>Node14</title>
<polygon fill="white" stroke="#bfbfbf" points="94.5,-56.5 94.5,-75.5 177.5,-75.5 177.5,-56.5 94.5,-56.5"/>
<text text-anchor="middle" x="136" y="-63.5" font-family="Helvetica,sans-Serif" font-size="10.00">unordered_map</text>
</g>
<!-- Node9&#45;&gt;Node14 -->
<g id="edge15" class="edge"><title>Node9&#45;&gt;Node14</title>
<path fill="none" stroke="midnightblue" d="M206.504,-112.324C193.4,-103.9 173.288,-90.9709 157.893,-81.0741"/>
<polygon fill="midnightblue" stroke="midnightblue" points="159.767,-78.118 149.463,-75.6545 155.982,-84.0063 159.767,-78.118"/>
</g>
<!-- Node15 -->
<g id="node15" class="node"><title>Node15</title>
<polygon fill="white" stroke="#bfbfbf" points="195.5,-56.5 195.5,-75.5 244.5,-75.5 244.5,-56.5 195.5,-56.5"/>
<text text-anchor="middle" x="220" y="-63.5" font-family="Helvetica,sans-Serif" font-size="10.00">cassert</text>
</g>
<!-- Node9&#45;&gt;Node15 -->
<g id="edge16" class="edge"><title>Node9&#45;&gt;Node15</title>
<path fill="none" stroke="midnightblue" d="M220,-112.083C220,-105.006 220,-94.8611 220,-85.9865"/>
<polygon fill="midnightblue" stroke="midnightblue" points="223.5,-85.751 220,-75.7511 216.5,-85.7511 223.5,-85.751"/>
</g>
<!-- Node10&#45;&gt;Node11 -->
<g id="edge11" class="edge"><title>Node10&#45;&gt;Node11</title>
<path fill="none" stroke="midnightblue" d="M76.525,-57.9404C103.376,-48.7052 150.672,-32.4376 181.926,-21.6879"/>
<polygon fill="midnightblue" stroke="midnightblue" points="183.145,-24.9698 191.463,-18.4076 180.868,-18.3504 183.145,-24.9698"/>
</g>
<!-- Node12 -->
<g id="node12" class="node"><title>Node12</title>
<polygon fill="white" stroke="#bfbfbf" points="64.5,-0.5 64.5,-19.5 113.5,-19.5 113.5,-0.5 64.5,-0.5"/>
<text text-anchor="middle" x="89" y="-7.5" font-family="Helvetica,sans-Serif" font-size="10.00">cstdarg</text>
</g>
<!-- Node10&#45;&gt;Node12 -->
<g id="edge12" class="edge"><title>Node10&#45;&gt;Node12</title>
<path fill="none" stroke="midnightblue" d="M61.4493,-56.083C66.0145,-48.6127 72.6684,-37.7244 78.2934,-28.5199"/>
<polygon fill="midnightblue" stroke="midnightblue" points="81.4241,-30.109 83.6521,-19.7511 75.4511,-26.4588 81.4241,-30.109"/>
</g>
<!-- Node13 -->
<g id="node13" class="node"><title>Node13</title>
<polygon fill="white" stroke="#bfbfbf" points="0,-0.5 0,-19.5 46,-19.5 46,-0.5 0,-0.5"/>
<text text-anchor="middle" x="23" y="-7.5" font-family="Helvetica,sans-Serif" font-size="10.00">cstring</text>
</g>
<!-- Node10&#45;&gt;Node13 -->
<g id="edge13" class="edge"><title>Node10&#45;&gt;Node13</title>
<path fill="none" stroke="midnightblue" d="M50.5507,-56.083C45.9855,-48.6127 39.3316,-37.7244 33.7066,-28.5199"/>
<polygon fill="midnightblue" stroke="midnightblue" points="36.5489,-26.4588 28.3479,-19.7511 30.5759,-30.109 36.5489,-26.4588"/>
</g>
<!-- Node19&#45;&gt;Node4 -->
<g id="edge32" class="edge"><title>Node19&#45;&gt;Node4</title>
<path fill="none" stroke="midnightblue" d="M475.807,-224.368C488.019,-206.215 516.552,-163.802 532.57,-139.99"/>
<polygon fill="midnightblue" stroke="midnightblue" points="535.543,-141.842 538.22,-131.591 529.734,-137.935 535.543,-141.842"/>
</g>
<!-- Node20 -->
<g id="node20" class="node"><title>Node20</title>
<g id="a_node20"><a xlink:href="IAIFactory_8h.html" target="_top" xlink:title="IAIFactory.h">
<polygon fill="white" stroke="black" points="564.5,-168.5 564.5,-187.5 635.5,-187.5 635.5,-168.5 564.5,-168.5"/>
<text text-anchor="middle" x="600" y="-175.5" font-family="Helvetica,sans-Serif" font-size="10.00">IAIFactory.h</text>
</a>
</g>
</g>
<!-- Node19&#45;&gt;Node20 -->
<g id="edge22" class="edge"><title>Node19&#45;&gt;Node20</title>
<path fill="none" stroke="midnightblue" d="M490.599,-224.444C511.993,-215.557 545.681,-201.563 570.024,-191.451"/>
<polygon fill="midnightblue" stroke="midnightblue" points="571.605,-194.585 579.497,-187.516 568.92,-188.12 571.605,-194.585"/>
</g>
<!-- Node22 -->
<g id="node22" class="node"><title>Node22</title>
<g id="a_node22"><a xlink:href="IFactoryRegistry_8h.html" target="_top" xlink:title="common/IFactoryRegistry.h">
<polygon fill="white" stroke="black" points="332,-168.5 332,-187.5 470,-187.5 470,-168.5 332,-168.5"/>
<text text-anchor="middle" x="401" y="-175.5" font-family="Helvetica,sans-Serif" font-size="10.00">common/IFactoryRegistry.h</text>
</a>
</g>
</g>
<!-- Node19&#45;&gt;Node22 -->
<g id="edge27" class="edge"><title>Node19&#45;&gt;Node22</title>
<path fill="none" stroke="midnightblue" d="M458.914,-224.324C448.514,-216.185 432.739,-203.839 420.278,-194.087"/>
<polygon fill="midnightblue" stroke="midnightblue" points="422.32,-191.241 412.288,-187.834 418.006,-196.753 422.32,-191.241"/>
</g>
<!-- Node20&#45;&gt;Node3 -->
<g id="edge24" class="edge"><title>Node20&#45;&gt;Node3</title>
<path fill="none" stroke="midnightblue" d="M599.163,-168.28C597.311,-154.12 591.528,-126.276 574,-112 540.506,-84.7202 412.565,-72.9223 352.933,-68.8241"/>
<polygon fill="midnightblue" stroke="midnightblue" points="352.839,-65.3105 342.631,-68.1465 352.38,-72.2954 352.839,-65.3105"/>
</g>
<!-- Node20&#45;&gt;Node4 -->
<g id="edge25" class="edge"><title>Node20&#45;&gt;Node4</title>
<path fill="none" stroke="midnightblue" d="M591.003,-168.324C582.806,-160.42 570.494,-148.548 560.528,-138.938"/>
<polygon fill="midnightblue" stroke="midnightblue" points="562.789,-136.256 553.161,-131.834 557.93,-141.295 562.789,-136.256"/>
</g>
<!-- Node20&#45;&gt;Node6 -->
<g id="edge23" class="edge"><title>Node20&#45;&gt;Node6</title>
<path fill="none" stroke="midnightblue" d="M615.424,-168.324C630.54,-159.822 653.815,-146.729 671.471,-136.797"/>
<polygon fill="midnightblue" stroke="midnightblue" points="673.614,-139.608 680.614,-131.655 670.183,-133.507 673.614,-139.608"/>
</g>
<!-- Node21 -->
<g id="node21" class="node"><title>Node21</title>
<polygon fill="white" stroke="#bfbfbf" points="622.5,-112.5 622.5,-131.5 651.5,-131.5 651.5,-112.5 622.5,-112.5"/>
<text text-anchor="middle" x="637" y="-119.5" font-family="Helvetica,sans-Serif" font-size="10.00">list</text>
</g>
<!-- Node20&#45;&gt;Node21 -->
<g id="edge26" class="edge"><title>Node20&#45;&gt;Node21</title>
<path fill="none" stroke="midnightblue" d="M606.11,-168.083C611.282,-160.534 618.846,-149.495 625.194,-140.23"/>
<polygon fill="midnightblue" stroke="midnightblue" points="628.239,-141.979 631.004,-131.751 622.464,-138.022 628.239,-141.979"/>
</g>
<!-- Node22&#45;&gt;Node6 -->
<g id="edge30" class="edge"><title>Node22&#45;&gt;Node6</title>
<path fill="none" stroke="midnightblue" d="M457.053,-168.471C507.404,-160.537 583.566,-147.862 659.483,-131.969"/>
<polygon fill="midnightblue" stroke="midnightblue" points="660.645,-135.301 669.705,-129.809 659.198,-128.452 660.645,-135.301"/>
</g>
<!-- Node22&#45;&gt;Node9 -->
<g id="edge28" class="edge"><title>Node22&#45;&gt;Node9</title>
<path fill="none" stroke="midnightblue" d="M372.32,-168.444C340.747,-159.024 289.946,-143.868 255.789,-133.677"/>
<polygon fill="midnightblue" stroke="midnightblue" points="256.778,-130.32 246.195,-130.815 254.777,-137.028 256.778,-130.32"/>
</g>
<!-- Node23 -->
<g id="node23" class="node"><title>Node23</title>
<g id="a_node23"><a xlink:href="NonCopyable_8h.html" target="_top" xlink:title="common/NonCopyable.h">
<polygon fill="white" stroke="black" points="379.5,-112.5 379.5,-131.5 504.5,-131.5 504.5,-112.5 379.5,-112.5"/>
<text text-anchor="middle" x="442" y="-119.5" font-family="Helvetica,sans-Serif" font-size="10.00">common/NonCopyable.h</text>
</a>
</g>
</g>
<!-- Node22&#45;&gt;Node23 -->
<g id="edge29" class="edge"><title>Node22&#45;&gt;Node23</title>
<path fill="none" stroke="midnightblue" d="M407.77,-168.083C413.562,-160.455 422.058,-149.264 429.138,-139.941"/>
<polygon fill="midnightblue" stroke="midnightblue" points="432.096,-141.832 435.356,-131.751 426.521,-137.599 432.096,-141.832"/>
</g>
<!-- Node24 -->
<g id="node24" class="node"><title>Node24</title>
<polygon fill="white" stroke="#bfbfbf" points="326.5,-112.5 326.5,-131.5 361.5,-131.5 361.5,-112.5 326.5,-112.5"/>
<text text-anchor="middle" x="344" y="-119.5" font-family="Helvetica,sans-Serif" font-size="10.00">map</text>
</g>
<!-- Node22&#45;&gt;Node24 -->
<g id="edge31" class="edge"><title>Node22&#45;&gt;Node24</title>
<path fill="none" stroke="midnightblue" d="M391.842,-168.324C383.499,-160.42 370.968,-148.548 360.823,-138.938"/>
<polygon fill="midnightblue" stroke="midnightblue" points="362.991,-136.171 353.325,-131.834 358.177,-141.252 362.991,-136.171"/>
</g>
</g>
</svg>
