<?xml version="1.0" encoding="UTF-8" standalone="no"?>
<!DOCTYPE svg PUBLIC "-//W3C//DTD SVG 1.1//EN"
 "http://www.w3.org/Graphics/SVG/1.1/DTD/svg11.dtd">
<!-- Generated by graphviz version 2.36.0 (20140111.2315)
 -->
<!-- Title: /home/travis/build/mgerhardy/simpleai/src/ai/server/ProtocolHandlerRegistry.h Pages: 1 -->
<svg width="601pt" height="286pt"
 viewBox="0.00 0.00 601.00 286.00" xmlns="http://www.w3.org/2000/svg" xmlns:xlink="http://www.w3.org/1999/xlink">
<g id="graph0" class="graph" transform="scale(1 1) rotate(0) translate(4 282)">
<title>/home/travis/build/mgerhardy/simpleai/src/ai/server/ProtocolHandlerRegistry.h</title>
<polygon fill="white" stroke="none" points="-4,4 -4,-282 597,-282 597,4 -4,4"/>
<!-- Node1 -->
<g id="node1" class="node"><title>Node1</title>
<polygon fill="#bfbfbf" stroke="black" points="101,-225 101,-277 247,-277 247,-225 101,-225"/>
<text text-anchor="start" x="109" y="-265" font-family="Helvetica,sans-Serif" font-size="10.00">/home/travis/build</text>
<text text-anchor="start" x="109" y="-254" font-family="Helvetica,sans-Serif" font-size="10.00">/mgerhardy/simpleai</text>
<text text-anchor="start" x="109" y="-243" font-family="Helvetica,sans-Serif" font-size="10.00">/src/ai/server/ProtocolHandler</text>
<text text-anchor="middle" x="174" y="-232" font-family="Helvetica,sans-Serif" font-size="10.00">Registry.h</text>
</g>
<!-- Node2 -->
<g id="node2" class="node"><title>Node2</title>
<polygon fill="white" stroke="#bfbfbf" points="-0.5,-56.5 -0.5,-75.5 82.5,-75.5 82.5,-56.5 -0.5,-56.5"/>
<text text-anchor="middle" x="41" y="-63.5" font-family="Helvetica,sans-Serif" font-size="10.00">unordered_map</text>
</g>
<!-- Node1&#45;&gt;Node2 -->
<g id="edge1" class="edge"><title>Node1&#45;&gt;Node2</title>
<path fill="none" stroke="midnightblue" d="M155.786,-224.938C128.331,-187.162 77.0533,-116.607 53.4613,-84.146"/>
<polygon fill="midnightblue" stroke="midnightblue" points="56.0441,-81.7465 47.3338,-75.7149 50.3816,-85.8619 56.0441,-81.7465"/>
</g>
<!-- Node3 -->
<g id="node3" class="node"><title>Node3</title>
<g id="a_node3"><a xlink:href="IProtocolHandler_8h.html" target="_top" xlink:title="IProtocolHandler.h">
<polygon fill="white" stroke="black" points="186,-168.5 186,-187.5 284,-187.5 284,-168.5 186,-168.5"/>
<text text-anchor="middle" x="235" y="-175.5" font-family="Helvetica,sans-Serif" font-size="10.00">IProtocolHandler.h</text>
</a>
</g>
</g>
<!-- Node1&#45;&gt;Node3 -->
<g id="edge2" class="edge"><title>Node1&#45;&gt;Node3</title>
<path fill="none" stroke="midnightblue" d="M195.678,-224.768C203.999,-215.083 213.279,-204.281 220.734,-195.605"/>
<polygon fill="midnightblue" stroke="midnightblue" points="223.614,-197.623 227.476,-187.757 218.305,-193.061 223.614,-197.623"/>
</g>
<!-- Node4 -->
<g id="node4" class="node"><title>Node4</title>
<polygon fill="white" stroke="#bfbfbf" points="253,-112.5 253,-131.5 305,-131.5 305,-112.5 253,-112.5"/>
<text text-anchor="middle" x="279" y="-119.5" font-family="Helvetica,sans-Serif" font-size="10.00">memory</text>
</g>
<!-- Node3&#45;&gt;Node4 -->
<g id="edge3" class="edge"><title>Node3&#45;&gt;Node4</title>
<path fill="none" stroke="midnightblue" d="M242.266,-168.083C248.545,-160.377 257.788,-149.033 265.431,-139.653"/>
<polygon fill="midnightblue" stroke="midnightblue" points="268.266,-141.714 271.869,-131.751 262.839,-137.293 268.266,-141.714"/>
</g>
<!-- Node5 -->
<g id="node5" class="node"><title>Node5</title>
<g id="a_node5"><a xlink:href="IProtocolMessage_8h.html" target="_top" xlink:title="IProtocolMessage.h">
<polygon fill="white" stroke="black" points="356,-112.5 356,-131.5 460,-131.5 460,-112.5 356,-112.5"/>
<text text-anchor="middle" x="408" y="-119.5" font-family="Helvetica,sans-Serif" font-size="10.00">IProtocolMessage.h</text>
</a>
</g>
</g>
<!-- Node3&#45;&gt;Node5 -->
<g id="edge4" class="edge"><title>Node3&#45;&gt;Node5</title>
<path fill="none" stroke="midnightblue" d="M262.412,-168.444C291.769,-159.28 338.519,-144.688 371.096,-134.519"/>
<polygon fill="midnightblue" stroke="midnightblue" points="372.213,-137.837 380.716,-131.516 370.127,-131.155 372.213,-137.837"/>
</g>
<!-- Node11 -->
<g id="node11" class="node"><title>Node11</title>
<g id="a_node11"><a xlink:href="Types_8h.html" target="_top" xlink:title="common/Types.h">
<polygon fill="white" stroke="black" points="143,-112.5 143,-131.5 235,-131.5 235,-112.5 143,-112.5"/>
<text text-anchor="middle" x="189" y="-119.5" font-family="Helvetica,sans-Serif" font-size="10.00">common/Types.h</text>
</a>
</g>
</g>
<!-- Node3&#45;&gt;Node11 -->
<g id="edge10" class="edge"><title>Node3&#45;&gt;Node11</title>
<path fill="none" stroke="midnightblue" d="M227.404,-168.083C220.773,-160.298 210.979,-148.801 202.942,-139.367"/>
<polygon fill="midnightblue" stroke="midnightblue" points="205.604,-137.094 196.455,-131.751 200.275,-141.633 205.604,-137.094"/>
</g>
<!-- Node6 -->
<g id="node6" class="node"><title>Node6</title>
<polygon fill="white" stroke="#bfbfbf" points="544.5,-56.5 544.5,-75.5 593.5,-75.5 593.5,-56.5 544.5,-56.5"/>
<text text-anchor="middle" x="569" y="-63.5" font-family="Helvetica,sans-Serif" font-size="10.00">stdint.h</text>
</g>
<!-- Node5&#45;&gt;Node6 -->
<g id="edge5" class="edge"><title>Node5&#45;&gt;Node6</title>
<path fill="none" stroke="midnightblue" d="M433.511,-112.444C460.835,-103.279 504.35,-88.6839 534.667,-78.5153"/>
<polygon fill="midnightblue" stroke="midnightblue" points="536.032,-81.7491 544.4,-75.2508 533.806,-75.1125 536.032,-81.7491"/>
</g>
<!-- Node7 -->
<g id="node7" class="node"><title>Node7</title>
<polygon fill="white" stroke="#bfbfbf" points="347,-56.5 347,-75.5 399,-75.5 399,-56.5 347,-56.5"/>
<text text-anchor="middle" x="373" y="-63.5" font-family="Helvetica,sans-Serif" font-size="10.00">stddef.h</text>
</g>
<!-- Node5&#45;&gt;Node7 -->
<g id="edge6" class="edge"><title>Node5&#45;&gt;Node7</title>
<path fill="none" stroke="midnightblue" d="M402.22,-112.083C397.328,-104.534 390.173,-93.4948 384.167,-84.2298"/>
<polygon fill="midnightblue" stroke="midnightblue" points="387.048,-82.239 378.672,-75.7511 381.174,-86.0463 387.048,-82.239"/>
</g>
<!-- Node8 -->
<g id="node8" class="node"><title>Node8</title>
<polygon fill="white" stroke="#bfbfbf" points="417,-56.5 417,-75.5 465,-75.5 465,-56.5 417,-56.5"/>
<text text-anchor="middle" x="441" y="-63.5" font-family="Helvetica,sans-Serif" font-size="10.00">limits.h</text>
</g>
<!-- Node5&#45;&gt;Node8 -->
<g id="edge7" class="edge"><title>Node5&#45;&gt;Node8</title>
<path fill="none" stroke="midnightblue" d="M413.449,-112.083C418.014,-104.613 424.668,-93.7244 430.293,-84.5199"/>
<polygon fill="midnightblue" stroke="midnightblue" points="433.424,-86.109 435.652,-75.7511 427.451,-82.4588 433.424,-86.109"/>
</g>
<!-- Node9 -->
<g id="node9" class="node"><title>Node9</title>
<polygon fill="white" stroke="#bfbfbf" points="287.5,-56.5 287.5,-75.5 328.5,-75.5 328.5,-56.5 287.5,-56.5"/>
<text text-anchor="middle" x="308" y="-63.5" font-family="Helvetica,sans-Serif" font-size="10.00">string</text>
</g>
<!-- Node5&#45;&gt;Node9 -->
<g id="edge8" class="edge"><title>Node5&#45;&gt;Node9</title>
<path fill="none" stroke="midnightblue" d="M391.933,-112.324C376.042,-103.743 351.493,-90.486 333.042,-80.5224"/>
<polygon fill="midnightblue" stroke="midnightblue" points="334.489,-77.3264 324.027,-75.6545 331.163,-83.4857 334.489,-77.3264"/>
</g>
<!-- Node10 -->
<g id="node10" class="node"><title>Node10</title>
<polygon fill="white" stroke="#bfbfbf" points="483.5,-56.5 483.5,-75.5 526.5,-75.5 526.5,-56.5 483.5,-56.5"/>
<text text-anchor="middle" x="505" y="-63.5" font-family="Helvetica,sans-Serif" font-size="10.00">deque</text>
</g>
<!-- Node5&#45;&gt;Node10 -->
<g id="edge9" class="edge"><title>Node5&#45;&gt;Node10</title>
<path fill="none" stroke="midnightblue" d="M423.585,-112.324C438.999,-103.743 462.812,-90.486 480.71,-80.5224"/>
<polygon fill="midnightblue" stroke="midnightblue" points="482.419,-83.5767 489.454,-75.6545 479.014,-77.4606 482.419,-83.5767"/>
</g>
<!-- Node11&#45;&gt;Node2 -->
<g id="edge16" class="edge"><title>Node11&#45;&gt;Node2</title>
<path fill="none" stroke="midnightblue" d="M165.549,-112.444C140.867,-103.438 101.815,-89.1891 74.0233,-79.049"/>
<polygon fill="midnightblue" stroke="midnightblue" points="74.9352,-75.6561 64.3413,-75.5164 72.5359,-82.2321 74.9352,-75.6561"/>
</g>
<!-- Node11&#45;&gt;Node9 -->
<g id="edge15" class="edge"><title>Node11&#45;&gt;Node9</title>
<path fill="none" stroke="midnightblue" d="M207.856,-112.444C227.266,-103.636 257.73,-89.8116 279.965,-79.722"/>
<polygon fill="midnightblue" stroke="midnightblue" points="281.572,-82.836 289.232,-75.5164 278.68,-76.4615 281.572,-82.836"/>
</g>
<!-- Node12 -->
<g id="node12" class="node"><title>Node12</title>
<g id="a_node12"><a xlink:href="Log_8h.html" target="_top" xlink:title="Log.h">
<polygon fill="white" stroke="black" points="228.5,-56.5 228.5,-75.5 269.5,-75.5 269.5,-56.5 228.5,-56.5"/>
<text text-anchor="middle" x="249" y="-63.5" font-family="Helvetica,sans-Serif" font-size="10.00">Log.h</text>
</a>
</g>
</g>
<!-- Node11&#45;&gt;Node12 -->
<g id="edge11" class="edge"><title>Node11&#45;&gt;Node12</title>
<path fill="none" stroke="midnightblue" d="M198.64,-112.324C207.51,-104.341 220.875,-92.3128 231.608,-82.6529"/>
<polygon fill="midnightblue" stroke="midnightblue" points="234.093,-85.1251 239.185,-75.8339 229.41,-79.922 234.093,-85.1251"/>
</g>
<!-- Node16 -->
<g id="node16" class="node"><title>Node16</title>
<polygon fill="white" stroke="#bfbfbf" points="100.5,-56.5 100.5,-75.5 149.5,-75.5 149.5,-56.5 100.5,-56.5"/>
<text text-anchor="middle" x="125" y="-63.5" font-family="Helvetica,sans-Serif" font-size="10.00">cassert</text>
</g>
<!-- Node11&#45;&gt;Node16 -->
<g id="edge17" class="edge"><title>Node11&#45;&gt;Node16</title>
<path fill="none" stroke="midnightblue" d="M178.717,-112.324C169.164,-104.263 154.72,-92.0765 143.216,-82.3695"/>
<polygon fill="midnightblue" stroke="midnightblue" points="145.37,-79.6076 135.47,-75.8339 140.856,-84.9577 145.37,-79.6076"/>
</g>
<!-- Node17 -->
<g id="node17" class="node"><title>Node17</title>
<polygon fill="white" stroke="#bfbfbf" points="167.5,-56.5 167.5,-75.5 210.5,-75.5 210.5,-56.5 167.5,-56.5"/>
<text text-anchor="middle" x="189" y="-63.5" font-family="Helvetica,sans-Serif" font-size="10.00">cstdio</text>
</g>
<!-- Node11&#45;&gt;Node17 -->
<g id="edge18" class="edge"><title>Node11&#45;&gt;Node17</title>
<path fill="none" stroke="midnightblue" d="M189,-112.083C189,-105.006 189,-94.8611 189,-85.9865"/>
<polygon fill="midnightblue" stroke="midnightblue" points="192.5,-85.751 189,-75.7511 185.5,-85.7511 192.5,-85.751"/>
</g>
<!-- Node13 -->
<g id="node13" class="node"><title>Node13</title>
<polygon fill="white" stroke="#bfbfbf" points="159,-0.5 159,-19.5 205,-19.5 205,-0.5 159,-0.5"/>
<text text-anchor="middle" x="182" y="-7.5" font-family="Helvetica,sans-Serif" font-size="10.00">stdio.h</text>
</g>
<!-- Node12&#45;&gt;Node13 -->
<g id="edge12" class="edge"><title>Node12&#45;&gt;Node13</title>
<path fill="none" stroke="midnightblue" d="M238.235,-56.324C228.234,-48.2631 213.113,-36.0765 201.07,-26.3695"/>
<polygon fill="midnightblue" stroke="midnightblue" points="202.943,-23.3841 192.961,-19.8339 198.55,-28.8343 202.943,-23.3841"/>
</g>
<!-- Node14 -->
<g id="node14" class="node"><title>Node14</title>
<polygon fill="white" stroke="#bfbfbf" points="223,-0.5 223,-19.5 275,-19.5 275,-0.5 223,-0.5"/>
<text text-anchor="middle" x="249" y="-7.5" font-family="Helvetica,sans-Serif" font-size="10.00">stdarg.h</text>
</g>
<!-- Node12&#45;&gt;Node14 -->
<g id="edge13" class="edge"><title>Node12&#45;&gt;Node14</title>
<path fill="none" stroke="midnightblue" d="M249,-56.083C249,-49.0059 249,-38.8611 249,-29.9865"/>
<polygon fill="midnightblue" stroke="midnightblue" points="252.5,-29.751 249,-19.7511 245.5,-29.7511 252.5,-29.751"/>
</g>
<!-- Node15 -->
<g id="node15" class="node"><title>Node15</title>
<polygon fill="white" stroke="#bfbfbf" points="293.5,-0.5 293.5,-19.5 342.5,-19.5 342.5,-0.5 293.5,-0.5"/>
<text text-anchor="middle" x="318" y="-7.5" font-family="Helvetica,sans-Serif" font-size="10.00">string.h</text>
</g>
<!-- Node12&#45;&gt;Node15 -->
<g id="edge14" class="edge"><title>Node12&#45;&gt;Node15</title>
<path fill="none" stroke="midnightblue" d="M260.086,-56.324C270.486,-48.1849 286.261,-35.8395 298.722,-26.0874"/>
<polygon fill="midnightblue" stroke="midnightblue" points="300.994,-28.7533 306.712,-19.8339 296.68,-23.2407 300.994,-28.7533"/>
</g>
</g>
</svg>
