<?xml version="1.0" encoding="UTF-8" standalone="no"?>
<!DOCTYPE svg PUBLIC "-//W3C//DTD SVG 1.1//EN"
 "http://www.w3.org/Graphics/SVG/1.1/DTD/svg11.dtd">
<!-- Generated by graphviz version 2.36.0 (20140111.2315)
 -->
<!-- Title: /home/travis/build/mgerhardy/simpleai/src/ai/server/ProtocolHandlerRegistry.h Pages: 1 -->
<svg width="661pt" height="286pt"
 viewBox="0.00 0.00 661.00 286.00" xmlns="http://www.w3.org/2000/svg" xmlns:xlink="http://www.w3.org/1999/xlink">
<g id="graph0" class="graph" transform="scale(1 1) rotate(0) translate(4 282)">
<title>/home/travis/build/mgerhardy/simpleai/src/ai/server/ProtocolHandlerRegistry.h</title>
<polygon fill="white" stroke="none" points="-4,4 -4,-282 657,-282 657,4 -4,4"/>
<!-- Node1 -->
<g id="node1" class="node"><title>Node1</title>
<polygon fill="#bfbfbf" stroke="black" points="135,-225 135,-277 281,-277 281,-225 135,-225"/>
<text text-anchor="start" x="143" y="-265" font-family="Helvetica,sans-Serif" font-size="10.00">/home/travis/build</text>
<text text-anchor="start" x="143" y="-254" font-family="Helvetica,sans-Serif" font-size="10.00">/mgerhardy/simpleai</text>
<text text-anchor="start" x="143" y="-243" font-family="Helvetica,sans-Serif" font-size="10.00">/src/ai/server/ProtocolHandler</text>
<text text-anchor="middle" x="208" y="-232" font-family="Helvetica,sans-Serif" font-size="10.00">Registry.h</text>
</g>
<!-- Node2 -->
<g id="node2" class="node"><title>Node2</title>
<polygon fill="white" stroke="#bfbfbf" points="-0.5,-56.5 -0.5,-75.5 82.5,-75.5 82.5,-56.5 -0.5,-56.5"/>
<text text-anchor="middle" x="41" y="-63.5" font-family="Helvetica,sans-Serif" font-size="10.00">unordered_map</text>
</g>
<!-- Node1&#45;&gt;Node2 -->
<g id="edge1" class="edge"><title>Node1&#45;&gt;Node2</title>
<path fill="none" stroke="midnightblue" d="M185.13,-224.938C150.361,-186.838 85.1623,-115.393 55.8918,-83.3186"/>
<polygon fill="midnightblue" stroke="midnightblue" points="58.279,-80.7422 48.9529,-75.7149 53.1084,-85.4608 58.279,-80.7422"/>
</g>
<!-- Node3 -->
<g id="node3" class="node"><title>Node3</title>
<g id="a_node3"><a xlink:href="IProtocolHandler_8h.html" target="_top" xlink:title="IProtocolHandler.h">
<polygon fill="white" stroke="black" points="220,-168.5 220,-187.5 318,-187.5 318,-168.5 220,-168.5"/>
<text text-anchor="middle" x="269" y="-175.5" font-family="Helvetica,sans-Serif" font-size="10.00">IProtocolHandler.h</text>
</a>
</g>
</g>
<!-- Node1&#45;&gt;Node3 -->
<g id="edge2" class="edge"><title>Node1&#45;&gt;Node3</title>
<path fill="none" stroke="midnightblue" d="M229.678,-224.768C237.999,-215.083 247.279,-204.281 254.734,-195.605"/>
<polygon fill="midnightblue" stroke="midnightblue" points="257.614,-197.623 261.476,-187.757 252.305,-193.061 257.614,-197.623"/>
</g>
<!-- Node4 -->
<g id="node4" class="node"><title>Node4</title>
<polygon fill="white" stroke="#bfbfbf" points="287,-112.5 287,-131.5 339,-131.5 339,-112.5 287,-112.5"/>
<text text-anchor="middle" x="313" y="-119.5" font-family="Helvetica,sans-Serif" font-size="10.00">memory</text>
</g>
<!-- Node3&#45;&gt;Node4 -->
<g id="edge3" class="edge"><title>Node3&#45;&gt;Node4</title>
<path fill="none" stroke="midnightblue" d="M276.266,-168.083C282.545,-160.377 291.788,-149.033 299.431,-139.653"/>
<polygon fill="midnightblue" stroke="midnightblue" points="302.266,-141.714 305.869,-131.751 296.839,-137.293 302.266,-141.714"/>
</g>
<!-- Node5 -->
<g id="node5" class="node"><title>Node5</title>
<g id="a_node5"><a xlink:href="IProtocolMessage_8h.html" target="_top" xlink:title="IProtocolMessage.h">
<polygon fill="white" stroke="black" points="410,-112.5 410,-131.5 514,-131.5 514,-112.5 410,-112.5"/>
<text text-anchor="middle" x="462" y="-119.5" font-family="Helvetica,sans-Serif" font-size="10.00">IProtocolMessage.h</text>
</a>
</g>
</g>
<!-- Node3&#45;&gt;Node5 -->
<g id="edge4" class="edge"><title>Node3&#45;&gt;Node5</title>
<path fill="none" stroke="midnightblue" d="M299.581,-168.444C332.615,-159.201 385.388,-144.436 421.766,-134.257"/>
<polygon fill="midnightblue" stroke="midnightblue" points="422.875,-137.582 431.562,-131.516 420.988,-130.84 422.875,-137.582"/>
</g>
<!-- Node11 -->
<g id="node11" class="node"><title>Node11</title>
<g id="a_node11"><a xlink:href="Types_8h.html" target="_top" xlink:title="common/Types.h">
<polygon fill="white" stroke="black" points="177,-112.5 177,-131.5 269,-131.5 269,-112.5 177,-112.5"/>
<text text-anchor="middle" x="223" y="-119.5" font-family="Helvetica,sans-Serif" font-size="10.00">common/Types.h</text>
</a>
</g>
</g>
<!-- Node3&#45;&gt;Node11 -->
<g id="edge10" class="edge"><title>Node3&#45;&gt;Node11</title>
<path fill="none" stroke="midnightblue" d="M261.404,-168.083C254.773,-160.298 244.979,-148.801 236.942,-139.367"/>
<polygon fill="midnightblue" stroke="midnightblue" points="239.604,-137.094 230.455,-131.751 234.275,-141.633 239.604,-137.094"/>
</g>
<!-- Node6 -->
<g id="node6" class="node"><title>Node6</title>
<polygon fill="white" stroke="#bfbfbf" points="533.5,-56.5 533.5,-75.5 582.5,-75.5 582.5,-56.5 533.5,-56.5"/>
<text text-anchor="middle" x="558" y="-63.5" font-family="Helvetica,sans-Serif" font-size="10.00">stdint.h</text>
</g>
<!-- Node5&#45;&gt;Node6 -->
<g id="edge5" class="edge"><title>Node5&#45;&gt;Node6</title>
<path fill="none" stroke="midnightblue" d="M477.424,-112.324C492.54,-103.822 515.815,-90.7288 533.471,-80.7975"/>
<polygon fill="midnightblue" stroke="midnightblue" points="535.614,-83.6077 542.614,-75.6545 532.183,-77.5066 535.614,-83.6077"/>
</g>
<!-- Node7 -->
<g id="node7" class="node"><title>Node7</title>
<polygon fill="white" stroke="#bfbfbf" points="601,-56.5 601,-75.5 653,-75.5 653,-56.5 601,-56.5"/>
<text text-anchor="middle" x="627" y="-63.5" font-family="Helvetica,sans-Serif" font-size="10.00">stddef.h</text>
</g>
<!-- Node5&#45;&gt;Node7 -->
<g id="edge6" class="edge"><title>Node5&#45;&gt;Node7</title>
<path fill="none" stroke="midnightblue" d="M488.145,-112.444C516.023,-103.32 560.348,-88.8133 591.4,-78.6509"/>
<polygon fill="midnightblue" stroke="midnightblue" points="592.562,-81.9533 600.978,-75.5164 590.385,-75.3005 592.562,-81.9533"/>
</g>
<!-- Node8 -->
<g id="node8" class="node"><title>Node8</title>
<polygon fill="white" stroke="#bfbfbf" points="406,-56.5 406,-75.5 454,-75.5 454,-56.5 406,-56.5"/>
<text text-anchor="middle" x="430" y="-63.5" font-family="Helvetica,sans-Serif" font-size="10.00">limits.h</text>
</g>
<!-- Node5&#45;&gt;Node8 -->
<g id="edge7" class="edge"><title>Node5&#45;&gt;Node8</title>
<path fill="none" stroke="midnightblue" d="M456.716,-112.083C452.289,-104.613 445.837,-93.7244 440.382,-84.5199"/>
<polygon fill="midnightblue" stroke="midnightblue" points="443.295,-82.5697 435.186,-75.7511 437.273,-86.1383 443.295,-82.5697"/>
</g>
<!-- Node9 -->
<g id="node9" class="node"><title>Node9</title>
<polygon fill="white" stroke="#bfbfbf" points="346.5,-56.5 346.5,-75.5 387.5,-75.5 387.5,-56.5 346.5,-56.5"/>
<text text-anchor="middle" x="367" y="-63.5" font-family="Helvetica,sans-Serif" font-size="10.00">string</text>
</g>
<!-- Node5&#45;&gt;Node9 -->
<g id="edge8" class="edge"><title>Node5&#45;&gt;Node9</title>
<path fill="none" stroke="midnightblue" d="M446.737,-112.324C431.779,-103.822 408.745,-90.7288 391.273,-80.7975"/>
<polygon fill="midnightblue" stroke="midnightblue" points="392.649,-77.5534 382.226,-75.6545 389.19,-83.639 392.649,-77.5534"/>
</g>
<!-- Node10 -->
<g id="node10" class="node"><title>Node10</title>
<polygon fill="white" stroke="#bfbfbf" points="472.5,-56.5 472.5,-75.5 515.5,-75.5 515.5,-56.5 472.5,-56.5"/>
<text text-anchor="middle" x="494" y="-63.5" font-family="Helvetica,sans-Serif" font-size="10.00">deque</text>
</g>
<!-- Node5&#45;&gt;Node10 -->
<g id="edge9" class="edge"><title>Node5&#45;&gt;Node10</title>
<path fill="none" stroke="midnightblue" d="M467.284,-112.083C471.711,-104.613 478.163,-93.7244 483.618,-84.5199"/>
<polygon fill="midnightblue" stroke="midnightblue" points="486.727,-86.1383 488.814,-75.7511 480.705,-82.5697 486.727,-86.1383"/>
</g>
<!-- Node11&#45;&gt;Node2 -->
<g id="edge16" class="edge"><title>Node11&#45;&gt;Node2</title>
<path fill="none" stroke="midnightblue" d="M194.162,-112.444C163.144,-103.241 113.671,-88.5617 79.3816,-78.3879"/>
<polygon fill="midnightblue" stroke="midnightblue" points="80.286,-75.0055 69.7035,-75.5164 78.2949,-81.7164 80.286,-75.0055"/>
</g>
<!-- Node11&#45;&gt;Node9 -->
<g id="edge15" class="edge"><title>Node11&#45;&gt;Node9</title>
<path fill="none" stroke="midnightblue" d="M245.817,-112.444C270.397,-103.226 309.625,-88.5157 336.759,-78.3402"/>
<polygon fill="midnightblue" stroke="midnightblue" points="338.025,-81.6036 346.16,-74.8151 335.567,-75.0492 338.025,-81.6036"/>
</g>
<!-- Node12 -->
<g id="node12" class="node"><title>Node12</title>
<g id="a_node12"><a xlink:href="Log_8h.html" target="_top" xlink:title="Log.h">
<polygon fill="white" stroke="black" points="100.5,-56.5 100.5,-75.5 141.5,-75.5 141.5,-56.5 100.5,-56.5"/>
<text text-anchor="middle" x="121" y="-63.5" font-family="Helvetica,sans-Serif" font-size="10.00">Log.h</text>
</a>
</g>
</g>
<!-- Node11&#45;&gt;Node12 -->
<g id="edge11" class="edge"><title>Node11&#45;&gt;Node12</title>
<path fill="none" stroke="midnightblue" d="M206.612,-112.324C190.329,-103.703 165.133,-90.3643 146.284,-80.3855"/>
<polygon fill="midnightblue" stroke="midnightblue" points="147.823,-77.2402 137.347,-75.6545 144.548,-83.4267 147.823,-77.2402"/>
</g>
<!-- Node13 -->
<g id="node13" class="node"><title>Node13</title>
<polygon fill="white" stroke="#bfbfbf" points="262,-0.5 262,-19.5 308,-19.5 308,-0.5 262,-0.5"/>
<text text-anchor="middle" x="285" y="-7.5" font-family="Helvetica,sans-Serif" font-size="10.00">stdio.h</text>
</g>
<!-- Node11&#45;&gt;Node13 -->
<g id="edge18" class="edge"><title>Node11&#45;&gt;Node13</title>
<path fill="none" stroke="midnightblue" d="M250.282,-112.453C267.294,-105.548 287.825,-93.9707 298,-76 306.223,-61.4759 300.957,-42.5464 294.846,-28.8647"/>
<polygon fill="midnightblue" stroke="midnightblue" points="297.813,-26.9715 290.218,-19.5849 291.549,-30.0958 297.813,-26.9715"/>
</g>
<!-- Node16 -->
<g id="node16" class="node"><title>Node16</title>
<polygon fill="white" stroke="#bfbfbf" points="160,-56.5 160,-75.5 212,-75.5 212,-56.5 160,-56.5"/>
<text text-anchor="middle" x="186" y="-63.5" font-family="Helvetica,sans-Serif" font-size="10.00">assert.h</text>
</g>
<!-- Node11&#45;&gt;Node16 -->
<g id="edge17" class="edge"><title>Node11&#45;&gt;Node16</title>
<path fill="none" stroke="midnightblue" d="M216.89,-112.083C211.718,-104.534 204.154,-93.4948 197.806,-84.2298"/>
<polygon fill="midnightblue" stroke="midnightblue" points="200.536,-82.0221 191.996,-75.7511 194.761,-85.9787 200.536,-82.0221"/>
</g>
<!-- Node17 -->
<g id="node17" class="node"><title>Node17</title>
<polygon fill="white" stroke="#bfbfbf" points="230.5,-56.5 230.5,-75.5 289.5,-75.5 289.5,-56.5 230.5,-56.5"/>
<text text-anchor="middle" x="260" y="-63.5" font-family="Helvetica,sans-Serif" font-size="10.00">inttypes.h</text>
</g>
<!-- Node11&#45;&gt;Node17 -->
<g id="edge19" class="edge"><title>Node11&#45;&gt;Node17</title>
<path fill="none" stroke="midnightblue" d="M229.11,-112.083C234.282,-104.534 241.846,-93.4948 248.194,-84.2298"/>
<polygon fill="midnightblue" stroke="midnightblue" points="251.239,-85.9787 254.004,-75.7511 245.464,-82.0221 251.239,-85.9787"/>
</g>
<!-- Node12&#45;&gt;Node13 -->
<g id="edge12" class="edge"><title>Node12&#45;&gt;Node13</title>
<path fill="none" stroke="midnightblue" d="M141.771,-58.1609C169.578,-49.0047 219.212,-32.6619 252.124,-21.8251"/>
<polygon fill="midnightblue" stroke="midnightblue" points="253.355,-25.1047 261.758,-18.6527 251.165,-18.4559 253.355,-25.1047"/>
</g>
<!-- Node14 -->
<g id="node14" class="node"><title>Node14</title>
<polygon fill="white" stroke="#bfbfbf" points="59,-0.5 59,-19.5 111,-19.5 111,-0.5 59,-0.5"/>
<text text-anchor="middle" x="85" y="-7.5" font-family="Helvetica,sans-Serif" font-size="10.00">stdarg.h</text>
</g>
<!-- Node12&#45;&gt;Node14 -->
<g id="edge13" class="edge"><title>Node12&#45;&gt;Node14</title>
<path fill="none" stroke="midnightblue" d="M115.055,-56.083C110.023,-48.5341 102.663,-37.4948 96.4865,-28.2298"/>
<polygon fill="midnightblue" stroke="midnightblue" points="99.2933,-26.1301 90.8341,-19.7511 93.4689,-30.0131 99.2933,-26.1301"/>
</g>
<!-- Node15 -->
<g id="node15" class="node"><title>Node15</title>
<polygon fill="white" stroke="#bfbfbf" points="129.5,-0.5 129.5,-19.5 178.5,-19.5 178.5,-0.5 129.5,-0.5"/>
<text text-anchor="middle" x="154" y="-7.5" font-family="Helvetica,sans-Serif" font-size="10.00">string.h</text>
</g>
<!-- Node12&#45;&gt;Node15 -->
<g id="edge14" class="edge"><title>Node12&#45;&gt;Node15</title>
<path fill="none" stroke="midnightblue" d="M126.449,-56.083C131.014,-48.6127 137.668,-37.7244 143.293,-28.5199"/>
<polygon fill="midnightblue" stroke="midnightblue" points="146.424,-30.109 148.652,-19.7511 140.451,-26.4588 146.424,-30.109"/>
</g>
</g>
</svg>
