<?xml version="1.0" encoding="UTF-8" standalone="no"?>
<!DOCTYPE svg PUBLIC "-//W3C//DTD SVG 1.1//EN"
 "http://www.w3.org/Graphics/SVG/1.1/DTD/svg11.dtd">
<!-- Generated by graphviz version 2.36.0 (20140111.2315)
 -->
<!-- Title: /home/travis/build/mgerhardy/simpleai/src/ai/server/ProtocolHandlerRegistry.h Pages: 1 -->
<svg width="1461pt" height="374pt"
 viewBox="0.00 0.00 1461.00 374.00" xmlns="http://www.w3.org/2000/svg" xmlns:xlink="http://www.w3.org/1999/xlink">
<g id="graph0" class="graph" transform="scale(1 1) rotate(0) translate(4 370)">
<title>/home/travis/build/mgerhardy/simpleai/src/ai/server/ProtocolHandlerRegistry.h</title>
<polygon fill="white" stroke="none" points="-4,4 -4,-370 1457,-370 1457,4 -4,4"/>
<!-- Node1 -->
<g id="node1" class="node"><title>Node1</title>
<polygon fill="#bfbfbf" stroke="black" points="1212,-313 1212,-365 1358,-365 1358,-313 1212,-313"/>
<text text-anchor="start" x="1220" y="-353" font-family="Helvetica,sans-Serif" font-size="10.00">/home/travis/build</text>
<text text-anchor="start" x="1220" y="-342" font-family="Helvetica,sans-Serif" font-size="10.00">/mgerhardy/simpleai</text>
<text text-anchor="start" x="1220" y="-331" font-family="Helvetica,sans-Serif" font-size="10.00">/src/ai/server/ProtocolHandler</text>
<text text-anchor="middle" x="1285" y="-320" font-family="Helvetica,sans-Serif" font-size="10.00">Registry.h</text>
</g>
<!-- Node2 -->
<g id="node2" class="node"><title>Node2</title>
<g id="a_node2"><a xlink:href="Server_8h.html" target="_top" xlink:title="/home/travis/build\l/mgerhardy/simpleai\l/src/ai/server/Server.h">
<polygon fill="white" stroke="black" points="658.5,-234.5 658.5,-275.5 771.5,-275.5 771.5,-234.5 658.5,-234.5"/>
<text text-anchor="start" x="666.5" y="-263.5" font-family="Helvetica,sans-Serif" font-size="10.00">/home/travis/build</text>
<text text-anchor="start" x="666.5" y="-252.5" font-family="Helvetica,sans-Serif" font-size="10.00">/mgerhardy/simpleai</text>
<text text-anchor="middle" x="715" y="-241.5" font-family="Helvetica,sans-Serif" font-size="10.00">/src/ai/server/Server.h</text>
</a>
</g>
</g>
<!-- Node1&#45;&gt;Node2 -->
<g id="edge1" class="edge"><title>Node1&#45;&gt;Node2</title>
<path fill="none" stroke="midnightblue" d="M1201.91,-326.047C1084.46,-309.151 872.941,-278.721 771.83,-264.176"/>
<polygon fill="midnightblue" stroke="midnightblue" points="1201.54,-329.53 1211.94,-327.49 1202.54,-322.601 1201.54,-329.53"/>
</g>
<!-- Node5 -->
<g id="node5" class="node"><title>Node5</title>
<g id="a_node5"><a xlink:href="SimpleAI_8h.html" target="_top" xlink:title="/home/travis/build\l/mgerhardy/simpleai\l/src/ai/SimpleAI.h">
<polygon fill="white" stroke="black" points="1214,-0.5 1214,-41.5 1318,-41.5 1318,-0.5 1214,-0.5"/>
<text text-anchor="start" x="1222" y="-29.5" font-family="Helvetica,sans-Serif" font-size="10.00">/home/travis/build</text>
<text text-anchor="start" x="1222" y="-18.5" font-family="Helvetica,sans-Serif" font-size="10.00">/mgerhardy/simpleai</text>
<text text-anchor="middle" x="1266" y="-7.5" font-family="Helvetica,sans-Serif" font-size="10.00">/src/ai/SimpleAI.h</text>
</a>
</g>
</g>
<!-- Node1&#45;&gt;Node5 -->
<g id="edge21" class="edge"><title>Node1&#45;&gt;Node5</title>
<path fill="none" stroke="midnightblue" d="M1283.49,-302.602C1281.26,-252.547 1276.74,-158.233 1271,-78 1270.14,-65.9273 1268.94,-52.4114 1267.93,-41.6828"/>
<polygon fill="midnightblue" stroke="midnightblue" points="1280.01,-303.046 1283.94,-312.883 1287,-302.738 1280.01,-303.046"/>
</g>
<!-- Node12 -->
<g id="node12" class="node"><title>Node12</title>
<g id="a_node12"><a xlink:href="NetworkImpl_8h.html" target="_top" xlink:title="/home/travis/build\l/mgerhardy/simpleai\l/src/ai/server/NetworkImpl.h">
<polygon fill="white" stroke="black" points="1313,-78.5 1313,-119.5 1453,-119.5 1453,-78.5 1313,-78.5"/>
<text text-anchor="start" x="1321" y="-107.5" font-family="Helvetica,sans-Serif" font-size="10.00">/home/travis/build</text>
<text text-anchor="start" x="1321" y="-96.5" font-family="Helvetica,sans-Serif" font-size="10.00">/mgerhardy/simpleai</text>
<text text-anchor="middle" x="1383" y="-85.5" font-family="Helvetica,sans-Serif" font-size="10.00">/src/ai/server/NetworkImpl.h</text>
</a>
</g>
</g>
<!-- Node1&#45;&gt;Node12 -->
<g id="edge19" class="edge"><title>Node1&#45;&gt;Node12</title>
<path fill="none" stroke="midnightblue" d="M1299.23,-303.433C1320.1,-252.751 1358.32,-159.927 1374.94,-119.585"/>
<polygon fill="midnightblue" stroke="midnightblue" points="1295.87,-302.4 1295.3,-312.98 1302.35,-305.066 1295.87,-302.4"/>
</g>
<!-- Node3 -->
<g id="node3" class="node"><title>Node3</title>
<g id="a_node3"><a xlink:href="ChangeHandler_8h.html" target="_top" xlink:title="/home/travis/build\l/mgerhardy/simpleai\l/src/ai/server/ChangeHandler.h">
<polygon fill="white" stroke="black" points="0,-156.5 0,-197.5 152,-197.5 152,-156.5 0,-156.5"/>
<text text-anchor="start" x="8" y="-185.5" font-family="Helvetica,sans-Serif" font-size="10.00">/home/travis/build</text>
<text text-anchor="start" x="8" y="-174.5" font-family="Helvetica,sans-Serif" font-size="10.00">/mgerhardy/simpleai</text>
<text text-anchor="middle" x="76" y="-163.5" font-family="Helvetica,sans-Serif" font-size="10.00">/src/ai/server/ChangeHandler.h</text>
</a>
</g>
</g>
<!-- Node2&#45;&gt;Node3 -->
<g id="edge2" class="edge"><title>Node2&#45;&gt;Node3</title>
<path fill="none" stroke="midnightblue" d="M648.192,-249.718C544.502,-242.502 338.768,-225.91 166,-198 161.576,-197.285 157.042,-196.488 152.477,-195.634"/>
<polygon fill="midnightblue" stroke="midnightblue" points="647.989,-253.212 658.206,-250.407 648.47,-246.228 647.989,-253.212"/>
</g>
<!-- Node4 -->
<g id="node4" class="node"><title>Node4</title>
<g id="a_node4"><a xlink:href="ServerImpl_8h.html" target="_top" xlink:title="/home/travis/build\l/mgerhardy/simpleai\l/src/ai/server/ServerImpl.h">
<polygon fill="white" stroke="black" points="567,-78.5 567,-119.5 699,-119.5 699,-78.5 567,-78.5"/>
<text text-anchor="start" x="575" y="-107.5" font-family="Helvetica,sans-Serif" font-size="10.00">/home/travis/build</text>
<text text-anchor="start" x="575" y="-96.5" font-family="Helvetica,sans-Serif" font-size="10.00">/mgerhardy/simpleai</text>
<text text-anchor="middle" x="633" y="-85.5" font-family="Helvetica,sans-Serif" font-size="10.00">/src/ai/server/ServerImpl.h</text>
</a>
</g>
</g>
<!-- Node2&#45;&gt;Node4 -->
<g id="edge13" class="edge"><title>Node2&#45;&gt;Node4</title>
<path fill="none" stroke="midnightblue" d="M648.397,-251.641C515.703,-246.252 228.51,-230.886 199,-198 186.533,-184.107 186.674,-170.018 199,-156 222.891,-128.828 451.551,-111.086 566.997,-103.786"/>
<polygon fill="midnightblue" stroke="midnightblue" points="648.314,-255.14 658.446,-252.042 648.593,-248.146 648.314,-255.14"/>
</g>
<!-- Node2&#45;&gt;Node5 -->
<g id="edge18" class="edge"><title>Node2&#45;&gt;Node5</title>
<path fill="none" stroke="midnightblue" d="M781.906,-250.979C913.147,-244.439 1194.46,-227.165 1227,-198 1271.86,-157.786 1271.31,-78.5339 1268.27,-41.6915"/>
<polygon fill="midnightblue" stroke="midnightblue" points="781.397,-247.499 771.581,-251.487 781.741,-254.491 781.397,-247.499"/>
</g>
<!-- Node6 -->
<g id="node6" class="node"><title>Node6</title>
<g id="a_node6"><a xlink:href="DeleteNodeHandler_8h.html" target="_top" xlink:title="/home/travis/build\l/mgerhardy/simpleai\l/src/ai/server/DeleteNodeHandler.h">
<polygon fill="white" stroke="black" points="208,-156.5 208,-197.5 378,-197.5 378,-156.5 208,-156.5"/>
<text text-anchor="start" x="216" y="-185.5" font-family="Helvetica,sans-Serif" font-size="10.00">/home/travis/build</text>
<text text-anchor="start" x="216" y="-174.5" font-family="Helvetica,sans-Serif" font-size="10.00">/mgerhardy/simpleai</text>
<text text-anchor="middle" x="293" y="-163.5" font-family="Helvetica,sans-Serif" font-size="10.00">/src/ai/server/DeleteNodeHandler.h</text>
</a>
</g>
</g>
<!-- Node2&#45;&gt;Node6 -->
<g id="edge5" class="edge"><title>Node2&#45;&gt;Node6</title>
<path fill="none" stroke="midnightblue" d="M648.372,-243.437C582,-232.723 477.257,-215.299 387,-198 384.05,-197.435 381.051,-196.85 378.023,-196.251"/>
<polygon fill="midnightblue" stroke="midnightblue" points="647.854,-246.899 658.283,-245.033 648.967,-239.988 647.854,-246.899"/>
</g>
<!-- Node7 -->
<g id="node7" class="node"><title>Node7</title>
<g id="a_node7"><a xlink:href="PauseHandler_8h.html" target="_top" xlink:title="/home/travis/build\l/mgerhardy/simpleai\l/src/ai/server/PauseHandler.h">
<polygon fill="white" stroke="black" points="396,-156.5 396,-197.5 542,-197.5 542,-156.5 396,-156.5"/>
<text text-anchor="start" x="404" y="-185.5" font-family="Helvetica,sans-Serif" font-size="10.00">/home/travis/build</text>
<text text-anchor="start" x="404" y="-174.5" font-family="Helvetica,sans-Serif" font-size="10.00">/mgerhardy/simpleai</text>
<text text-anchor="middle" x="469" y="-163.5" font-family="Helvetica,sans-Serif" font-size="10.00">/src/ai/server/PauseHandler.h</text>
</a>
</g>
</g>
<!-- Node2&#45;&gt;Node7 -->
<g id="edge7" class="edge"><title>Node2&#45;&gt;Node7</title>
<path fill="none" stroke="midnightblue" d="M648.313,-233.397C612.243,-222.254 567.933,-208.565 532.385,-197.582"/>
<polygon fill="midnightblue" stroke="midnightblue" points="647.666,-236.861 658.254,-236.469 649.732,-230.173 647.666,-236.861"/>
</g>
<!-- Node8 -->
<g id="node8" class="node"><title>Node8</title>
<g id="a_node8"><a xlink:href="ResetHandler_8h.html" target="_top" xlink:title="/home/travis/build\l/mgerhardy/simpleai\l/src/ai/server/ResetHandler.h">
<polygon fill="white" stroke="black" points="560.5,-156.5 560.5,-197.5 705.5,-197.5 705.5,-156.5 560.5,-156.5"/>
<text text-anchor="start" x="568.5" y="-185.5" font-family="Helvetica,sans-Serif" font-size="10.00">/home/travis/build</text>
<text text-anchor="start" x="568.5" y="-174.5" font-family="Helvetica,sans-Serif" font-size="10.00">/mgerhardy/simpleai</text>
<text text-anchor="middle" x="633" y="-163.5" font-family="Helvetica,sans-Serif" font-size="10.00">/src/ai/server/ResetHandler.h</text>
</a>
</g>
</g>
<!-- Node2&#45;&gt;Node8 -->
<g id="edge9" class="edge"><title>Node2&#45;&gt;Node8</title>
<path fill="none" stroke="midnightblue" d="M686.399,-227.492C675.758,-217.629 663.887,-206.627 654.045,-197.506"/>
<polygon fill="midnightblue" stroke="midnightblue" points="684.169,-230.197 693.883,-234.428 688.928,-225.063 684.169,-230.197"/>
</g>
<!-- Node9 -->
<g id="node9" class="node"><title>Node9</title>
<g id="a_node9"><a xlink:href="SelectHandler_8h.html" target="_top" xlink:title="/home/travis/build\l/mgerhardy/simpleai\l/src/ai/server/SelectHandler.h">
<polygon fill="white" stroke="black" points="724,-156.5 724,-197.5 870,-197.5 870,-156.5 724,-156.5"/>
<text text-anchor="start" x="732" y="-185.5" font-family="Helvetica,sans-Serif" font-size="10.00">/home/travis/build</text>
<text text-anchor="start" x="732" y="-174.5" font-family="Helvetica,sans-Serif" font-size="10.00">/mgerhardy/simpleai</text>
<text text-anchor="middle" x="797" y="-163.5" font-family="Helvetica,sans-Serif" font-size="10.00">/src/ai/server/SelectHandler.h</text>
</a>
</g>
</g>
<!-- Node2&#45;&gt;Node9 -->
<g id="edge11" class="edge"><title>Node2&#45;&gt;Node9</title>
<path fill="none" stroke="midnightblue" d="M743.601,-227.492C754.242,-217.629 766.113,-206.627 775.955,-197.506"/>
<polygon fill="midnightblue" stroke="midnightblue" points="741.072,-225.063 736.117,-234.428 745.831,-230.197 741.072,-225.063"/>
</g>
<!-- Node10 -->
<g id="node10" class="node"><title>Node10</title>
<g id="a_node10"><a xlink:href="StepHandler_8h.html" target="_top" xlink:title="/home/travis/build\l/mgerhardy/simpleai\l/src/ai/server/StepHandler.h">
<polygon fill="white" stroke="black" points="888.5,-156.5 888.5,-197.5 1027.5,-197.5 1027.5,-156.5 888.5,-156.5"/>
<text text-anchor="start" x="896.5" y="-185.5" font-family="Helvetica,sans-Serif" font-size="10.00">/home/travis/build</text>
<text text-anchor="start" x="896.5" y="-174.5" font-family="Helvetica,sans-Serif" font-size="10.00">/mgerhardy/simpleai</text>
<text text-anchor="middle" x="958" y="-163.5" font-family="Helvetica,sans-Serif" font-size="10.00">/src/ai/server/StepHandler.h</text>
</a>
</g>
</g>
<!-- Node2&#45;&gt;Node10 -->
<g id="edge14" class="edge"><title>Node2&#45;&gt;Node10</title>
<path fill="none" stroke="midnightblue" d="M781.449,-233.217C816.931,-222.12 860.355,-208.539 895.259,-197.623"/>
<polygon fill="midnightblue" stroke="midnightblue" points="780.165,-229.952 771.666,-236.277 782.255,-236.633 780.165,-229.952"/>
</g>
<!-- Node11 -->
<g id="node11" class="node"><title>Node11</title>
<g id="a_node11"><a xlink:href="UpdateNodeHandler_8h.html" target="_top" xlink:title="/home/travis/build\l/mgerhardy/simpleai\l/src/ai/server/UpdateNodeHandler.h">
<polygon fill="white" stroke="black" points="1045.5,-156.5 1045.5,-197.5 1218.5,-197.5 1218.5,-156.5 1045.5,-156.5"/>
<text text-anchor="start" x="1053.5" y="-185.5" font-family="Helvetica,sans-Serif" font-size="10.00">/home/travis/build</text>
<text text-anchor="start" x="1053.5" y="-174.5" font-family="Helvetica,sans-Serif" font-size="10.00">/mgerhardy/simpleai</text>
<text text-anchor="middle" x="1132" y="-163.5" font-family="Helvetica,sans-Serif" font-size="10.00">/src/ai/server/UpdateNodeHandler.h</text>
</a>
</g>
</g>
<!-- Node2&#45;&gt;Node11 -->
<g id="edge16" class="edge"><title>Node2&#45;&gt;Node11</title>
<path fill="none" stroke="midnightblue" d="M781.75,-243.009C846.758,-232.15 948.318,-214.777 1036,-198 1039.09,-197.408 1042.24,-196.797 1045.42,-196.173"/>
<polygon fill="midnightblue" stroke="midnightblue" points="780.926,-239.598 771.638,-244.694 782.077,-246.502 780.926,-239.598"/>
</g>
<!-- Node3&#45;&gt;Node4 -->
<g id="edge3" class="edge"><title>Node3&#45;&gt;Node4</title>
<path fill="none" stroke="midnightblue" d="M162.113,-156.677C163.417,-156.445 164.713,-156.22 166,-156 308.072,-131.758 476.226,-114.324 566.965,-105.834"/>
<polygon fill="midnightblue" stroke="midnightblue" points="161.197,-153.287 152.004,-158.553 162.475,-160.17 161.197,-153.287"/>
</g>
<!-- Node4&#45;&gt;Node5 -->
<g id="edge4" class="edge"><title>Node4&#45;&gt;Node5</title>
<path fill="none" stroke="midnightblue" d="M709.555,-88.8085C840.06,-73.1397 1102.3,-41.6547 1213.85,-28.2611"/>
<polygon fill="midnightblue" stroke="midnightblue" points="708.759,-85.3789 699.248,-90.0461 709.594,-92.3289 708.759,-85.3789"/>
</g>
<!-- Node6&#45;&gt;Node4 -->
<g id="edge6" class="edge"><title>Node6&#45;&gt;Node4</title>
<path fill="none" stroke="midnightblue" d="M388.45,-154.664C445.354,-141.944 516.155,-126.118 566.91,-114.773"/>
<polygon fill="midnightblue" stroke="midnightblue" points="387.353,-151.323 378.357,-156.92 388.88,-158.154 387.353,-151.323"/>
</g>
<!-- Node7&#45;&gt;Node4 -->
<g id="edge8" class="edge"><title>Node7&#45;&gt;Node4</title>
<path fill="none" stroke="midnightblue" d="M520.382,-152.189C543.07,-141.675 569.41,-129.469 590.909,-119.506"/>
<polygon fill="midnightblue" stroke="midnightblue" points="518.836,-149.048 511.234,-156.428 521.779,-155.399 518.836,-149.048"/>
</g>
<!-- Node8&#45;&gt;Node4 -->
<g id="edge10" class="edge"><title>Node8&#45;&gt;Node4</title>
<path fill="none" stroke="midnightblue" d="M633,-146.297C633,-137.301 633,-127.653 633,-119.506"/>
<polygon fill="midnightblue" stroke="midnightblue" points="629.5,-146.428 633,-156.428 636.5,-146.428 629.5,-146.428"/>
</g>
<!-- Node9&#45;&gt;Node4 -->
<g id="edge12" class="edge"><title>Node9&#45;&gt;Node4</title>
<path fill="none" stroke="midnightblue" d="M745.618,-152.189C722.93,-141.675 696.59,-129.469 675.091,-119.506"/>
<polygon fill="midnightblue" stroke="midnightblue" points="744.221,-155.399 754.766,-156.428 747.164,-149.048 744.221,-155.399"/>
</g>
<!-- Node10&#45;&gt;Node4 -->
<g id="edge15" class="edge"><title>Node10&#45;&gt;Node4</title>
<path fill="none" stroke="midnightblue" d="M878.393,-155.879C811.735,-139.923 746.397,-125.14 699.141,-114.602"/>
<polygon fill="midnightblue" stroke="midnightblue" points="877.695,-159.31 888.236,-158.241 879.329,-152.504 877.695,-159.31"/>
</g>
<!-- Node11&#45;&gt;Node4 -->
<g id="edge17" class="edge"><title>Node11&#45;&gt;Node4</title>
<path fill="none" stroke="midnightblue" d="M1035.33,-155.943C910.585,-134.569 777.09,-117.313 699.179,-107.809"/>
<polygon fill="midnightblue" stroke="midnightblue" points="1034.99,-159.436 1045.44,-157.688 1036.19,-152.538 1034.99,-159.436"/>
</g>
<!-- Node12&#45;&gt;Node5 -->
<g id="edge20" class="edge"><title>Node12&#45;&gt;Node5</title>
<path fill="none" stroke="midnightblue" d="M1344.39,-72.9194C1328.66,-62.702 1310.75,-51.0701 1296.03,-41.5056"/>
<polygon fill="midnightblue" stroke="midnightblue" points="1342.58,-75.9158 1352.87,-78.4281 1346.39,-70.0456 1342.58,-75.9158"/>
</g>
</g>
</svg>
