<?xml version="1.0" encoding="UTF-8" standalone="no"?>
<!DOCTYPE svg PUBLIC "-//W3C//DTD SVG 1.1//EN"
 "http://www.w3.org/Graphics/SVG/1.1/DTD/svg11.dtd">
<!-- Generated by graphviz version 2.36.0 (20140111.2315)
 -->
<!-- Title: /home/travis/build/mgerhardy/simpleai/src/ai/tree/Selector.h Pages: 1 -->
<svg width="1476pt" height="620pt"
 viewBox="0.00 0.00 1476.11 620.00" xmlns="http://www.w3.org/2000/svg" xmlns:xlink="http://www.w3.org/1999/xlink">
<g id="graph0" class="graph" transform="scale(1 1) rotate(0) translate(4 616)">
<title>/home/travis/build/mgerhardy/simpleai/src/ai/tree/Selector.h</title>
<polygon fill="white" stroke="none" points="-4,4 -4,-616 1472.11,-616 1472.11,4 -4,4"/>
<!-- Node1 -->
<g id="node1" class="node"><title>Node1</title>
<polygon fill="#bfbfbf" stroke="black" points="1094,-570.5 1094,-611.5 1204,-611.5 1204,-570.5 1094,-570.5"/>
<text text-anchor="start" x="1102" y="-599.5" font-family="Helvetica,sans-Serif" font-size="10.00">/home/travis/build</text>
<text text-anchor="start" x="1102" y="-588.5" font-family="Helvetica,sans-Serif" font-size="10.00">/mgerhardy/simpleai</text>
<text text-anchor="middle" x="1149" y="-577.5" font-family="Helvetica,sans-Serif" font-size="10.00">/src/ai/tree/Selector.h</text>
</g>
<!-- Node2 -->
<g id="node2" class="node"><title>Node2</title>
<g id="a_node2"><a xlink:href="Parallel_8h.html" target="_top" xlink:title="/home/travis/build\l/mgerhardy/simpleai\l/src/ai/tree/Parallel.h">
<polygon fill="white" stroke="black" points="694.5,-492.5 694.5,-533.5 801.5,-533.5 801.5,-492.5 694.5,-492.5"/>
<text text-anchor="start" x="702.5" y="-521.5" font-family="Helvetica,sans-Serif" font-size="10.00">/home/travis/build</text>
<text text-anchor="start" x="702.5" y="-510.5" font-family="Helvetica,sans-Serif" font-size="10.00">/mgerhardy/simpleai</text>
<text text-anchor="middle" x="748" y="-499.5" font-family="Helvetica,sans-Serif" font-size="10.00">/src/ai/tree/Parallel.h</text>
</a>
</g>
</g>
<!-- Node1&#45;&gt;Node2 -->
<g id="edge1" class="edge"><title>Node1&#45;&gt;Node2</title>
<path fill="none" stroke="midnightblue" d="M1083.57,-581.988C1015.07,-572.944 904.656,-556.502 811,-534 807.987,-533.276 804.909,-532.483 801.813,-531.642"/>
<polygon fill="midnightblue" stroke="midnightblue" points="1083.41,-585.497 1093.78,-583.323 1084.32,-578.556 1083.41,-585.497"/>
</g>
<!-- Node8 -->
<g id="node8" class="node"><title>Node8</title>
<g id="a_node8"><a xlink:href="SimpleAI_8h.html" target="_top" xlink:title="/home/travis/build\l/mgerhardy/simpleai\l/src/ai/SimpleAI.h">
<polygon fill="white" stroke="black" points="989,-0.5 989,-41.5 1093,-41.5 1093,-0.5 989,-0.5"/>
<text text-anchor="start" x="997" y="-29.5" font-family="Helvetica,sans-Serif" font-size="10.00">/home/travis/build</text>
<text text-anchor="start" x="997" y="-18.5" font-family="Helvetica,sans-Serif" font-size="10.00">/mgerhardy/simpleai</text>
<text text-anchor="middle" x="1041" y="-7.5" font-family="Helvetica,sans-Serif" font-size="10.00">/src/ai/SimpleAI.h</text>
</a>
</g>
</g>
<!-- Node1&#45;&gt;Node8 -->
<g id="edge40" class="edge"><title>Node1&#45;&gt;Node8</title>
<path fill="none" stroke="midnightblue" d="M1214.22,-586.101C1291.58,-580.09 1414.09,-565.743 1446,-534 1477.45,-502.709 1465,-480.367 1465,-436 1465,-436 1465,-436 1465,-176 1465,-125.16 1448.23,-106.309 1406,-78 1355.81,-44.3549 1181.64,-29.8954 1093.28,-24.6094"/>
<polygon fill="midnightblue" stroke="midnightblue" points="1213.8,-582.623 1204.09,-586.861 1214.32,-589.604 1213.8,-582.623"/>
</g>
<!-- Node18 -->
<g id="node18" class="node"><title>Node18</title>
<g id="a_node18"><a xlink:href="PrioritySelector_8h.html" target="_top" xlink:title="/home/travis/build\l/mgerhardy/simpleai\l/src/ai/tree/PrioritySelector.h">
<polygon fill="white" stroke="black" points="1159.5,-492.5 1159.5,-533.5 1300.5,-533.5 1300.5,-492.5 1159.5,-492.5"/>
<text text-anchor="start" x="1167.5" y="-521.5" font-family="Helvetica,sans-Serif" font-size="10.00">/home/travis/build</text>
<text text-anchor="start" x="1167.5" y="-510.5" font-family="Helvetica,sans-Serif" font-size="10.00">/mgerhardy/simpleai</text>
<text text-anchor="middle" x="1230" y="-499.5" font-family="Helvetica,sans-Serif" font-size="10.00">/src/ai/tree/PrioritySelector.h</text>
</a>
</g>
</g>
<!-- Node1&#45;&gt;Node18 -->
<g id="edge30" class="edge"><title>Node1&#45;&gt;Node18</title>
<path fill="none" stroke="midnightblue" d="M1177.25,-563.492C1187.76,-553.629 1199.49,-542.627 1209.21,-533.506"/>
<polygon fill="midnightblue" stroke="midnightblue" points="1174.76,-561.033 1169.86,-570.428 1179.55,-566.138 1174.76,-561.033"/>
</g>
<!-- Node19 -->
<g id="node19" class="node"><title>Node19</title>
<g id="a_node19"><a xlink:href="ProbabilitySelector_8h.html" target="_top" xlink:title="/home/travis/build\l/mgerhardy/simpleai\l/src/ai/tree/ProbabilitySelector.h">
<polygon fill="white" stroke="black" points="820,-492.5 820,-533.5 976,-533.5 976,-492.5 820,-492.5"/>
<text text-anchor="start" x="828" y="-521.5" font-family="Helvetica,sans-Serif" font-size="10.00">/home/travis/build</text>
<text text-anchor="start" x="828" y="-510.5" font-family="Helvetica,sans-Serif" font-size="10.00">/mgerhardy/simpleai</text>
<text text-anchor="middle" x="898" y="-499.5" font-family="Helvetica,sans-Serif" font-size="10.00">/src/ai/tree/ProbabilitySelector.h</text>
</a>
</g>
</g>
<!-- Node1&#45;&gt;Node19 -->
<g id="edge33" class="edge"><title>Node1&#45;&gt;Node19</title>
<path fill="none" stroke="midnightblue" d="M1084.15,-570.363C1046.81,-559.058 1000.04,-544.897 962.725,-533.598"/>
<polygon fill="midnightblue" stroke="midnightblue" points="1083.33,-573.773 1093.92,-573.321 1085.36,-567.074 1083.33,-573.773"/>
</g>
<!-- Node20 -->
<g id="node20" class="node"><title>Node20</title>
<g id="a_node20"><a xlink:href="RandomSelector_8h.html" target="_top" xlink:title="/home/travis/build\l/mgerhardy/simpleai\l/src/ai/tree/RandomSelector.h">
<polygon fill="white" stroke="black" points="994.5,-492.5 994.5,-533.5 1141.5,-533.5 1141.5,-492.5 994.5,-492.5"/>
<text text-anchor="start" x="1002.5" y="-521.5" font-family="Helvetica,sans-Serif" font-size="10.00">/home/travis/build</text>
<text text-anchor="start" x="1002.5" y="-510.5" font-family="Helvetica,sans-Serif" font-size="10.00">/mgerhardy/simpleai</text>
<text text-anchor="middle" x="1068" y="-499.5" font-family="Helvetica,sans-Serif" font-size="10.00">/src/ai/tree/RandomSelector.h</text>
</a>
</g>
</g>
<!-- Node1&#45;&gt;Node20 -->
<g id="edge35" class="edge"><title>Node1&#45;&gt;Node20</title>
<path fill="none" stroke="midnightblue" d="M1120.75,-563.492C1110.24,-553.629 1098.51,-542.627 1088.79,-533.506"/>
<polygon fill="midnightblue" stroke="midnightblue" points="1118.45,-566.138 1128.14,-570.428 1123.24,-561.033 1118.45,-566.138"/>
</g>
<!-- Node21 -->
<g id="node21" class="node"><title>Node21</title>
<g id="a_node21"><a xlink:href="Sequence_8h.html" target="_top" xlink:title="/home/travis/build\l/mgerhardy/simpleai\l/src/ai/tree/Sequence.h">
<polygon fill="white" stroke="black" points="1319,-492.5 1319,-533.5 1437,-533.5 1437,-492.5 1319,-492.5"/>
<text text-anchor="start" x="1327" y="-521.5" font-family="Helvetica,sans-Serif" font-size="10.00">/home/travis/build</text>
<text text-anchor="start" x="1327" y="-510.5" font-family="Helvetica,sans-Serif" font-size="10.00">/mgerhardy/simpleai</text>
<text text-anchor="middle" x="1378" y="-499.5" font-family="Helvetica,sans-Serif" font-size="10.00">/src/ai/tree/Sequence.h</text>
</a>
</g>
</g>
<!-- Node1&#45;&gt;Node21 -->
<g id="edge37" class="edge"><title>Node1&#45;&gt;Node21</title>
<path fill="none" stroke="midnightblue" d="M1213.72,-568.522C1246.78,-557.55 1286.71,-544.297 1318.93,-533.605"/>
<polygon fill="midnightblue" stroke="midnightblue" points="1212.53,-565.228 1204.14,-571.699 1214.74,-571.871 1212.53,-565.228"/>
</g>
<!-- Node3 -->
<g id="node3" class="node"><title>Node3</title>
<g id="a_node3"><a xlink:href="AIRegistry_8h.html" target="_top" xlink:title="/home/travis/build\l/mgerhardy/simpleai\l/src/ai/AIRegistry.h">
<polygon fill="white" stroke="black" points="978,-414.5 978,-455.5 1082,-455.5 1082,-414.5 978,-414.5"/>
<text text-anchor="start" x="986" y="-443.5" font-family="Helvetica,sans-Serif" font-size="10.00">/home/travis/build</text>
<text text-anchor="start" x="986" y="-432.5" font-family="Helvetica,sans-Serif" font-size="10.00">/mgerhardy/simpleai</text>
<text text-anchor="middle" x="1030" y="-421.5" font-family="Helvetica,sans-Serif" font-size="10.00">/src/ai/AIRegistry.h</text>
</a>
</g>
</g>
<!-- Node2&#45;&gt;Node3 -->
<g id="edge2" class="edge"><title>Node2&#45;&gt;Node3</title>
<path fill="none" stroke="midnightblue" d="M811.22,-492.009C873.935,-474.204 935.226,-458.826 977.56,-448.518"/>
<polygon fill="midnightblue" stroke="midnightblue" points="810.208,-488.658 801.553,-494.77 812.13,-495.389 810.208,-488.658"/>
</g>
<!-- Node2&#45;&gt;Node8 -->
<g id="edge29" class="edge"><title>Node2&#45;&gt;Node8</title>
<path fill="none" stroke="midnightblue" d="M684.032,-511.863C502.978,-509.764 0,-491.389 0,-352 0,-352 0,-352 0,-176 0,-125.16 15.4708,-104.266 59,-78 138.82,-29.8358 797.021,-23.0936 988.771,-22.1522"/>
<polygon fill="midnightblue" stroke="midnightblue" points="684.17,-515.364 694.206,-511.967 684.242,-508.365 684.17,-515.364"/>
</g>
<!-- Node4 -->
<g id="node4" class="node"><title>Node4</title>
<g id="a_node4"><a xlink:href="ConditionParser_8h.html" target="_top" xlink:title="/home/travis/build\l/mgerhardy/simpleai\l/src/ai/conditions/Condition\lParser.h">
<polygon fill="white" stroke="black" points="1039.5,-325 1039.5,-377 1174.5,-377 1174.5,-325 1039.5,-325"/>
<text text-anchor="start" x="1047.5" y="-365" font-family="Helvetica,sans-Serif" font-size="10.00">/home/travis/build</text>
<text text-anchor="start" x="1047.5" y="-354" font-family="Helvetica,sans-Serif" font-size="10.00">/mgerhardy/simpleai</text>
<text text-anchor="start" x="1047.5" y="-343" font-family="Helvetica,sans-Serif" font-size="10.00">/src/ai/conditions/Condition</text>
<text text-anchor="middle" x="1107" y="-332" font-family="Helvetica,sans-Serif" font-size="10.00">Parser.h</text>
</a>
</g>
</g>
<!-- Node3&#45;&gt;Node4 -->
<g id="edge3" class="edge"><title>Node3&#45;&gt;Node4</title>
<path fill="none" stroke="midnightblue" d="M1055.54,-406.798C1064.49,-397.272 1074.49,-386.622 1083.28,-377.261"/>
<polygon fill="midnightblue" stroke="midnightblue" points="1052.93,-404.464 1048.64,-414.15 1058.04,-409.256 1052.93,-404.464"/>
</g>
<!-- Node5 -->
<g id="node5" class="node"><title>Node5</title>
<g id="a_node5"><a xlink:href="Server_8h.html" target="_top" xlink:title="/home/travis/build\l/mgerhardy/simpleai\l/src/ai/server/Server.h">
<polygon fill="white" stroke="black" points="674.5,-240.5 674.5,-281.5 787.5,-281.5 787.5,-240.5 674.5,-240.5"/>
<text text-anchor="start" x="682.5" y="-269.5" font-family="Helvetica,sans-Serif" font-size="10.00">/home/travis/build</text>
<text text-anchor="start" x="682.5" y="-258.5" font-family="Helvetica,sans-Serif" font-size="10.00">/mgerhardy/simpleai</text>
<text text-anchor="middle" x="731" y="-247.5" font-family="Helvetica,sans-Serif" font-size="10.00">/src/ai/server/Server.h</text>
</a>
</g>
</g>
<!-- Node3&#45;&gt;Node5 -->
<g id="edge26" class="edge"><title>Node3&#45;&gt;Node5</title>
<path fill="none" stroke="midnightblue" d="M1027.21,-404.171C1023.28,-379.219 1013.81,-344.502 991,-324 961.403,-297.402 854.775,-278.616 787.608,-269.112"/>
<polygon fill="midnightblue" stroke="midnightblue" points="1023.76,-404.763 1028.58,-414.198 1030.7,-403.816 1023.76,-404.763"/>
</g>
<!-- Node3&#45;&gt;Node8 -->
<g id="edge27" class="edge"><title>Node3&#45;&gt;Node8</title>
<path fill="none" stroke="midnightblue" d="M967.417,-429.805C749.617,-414.384 38,-356.748 38,-262 38,-262 38,-262 38,-176 38,-87.2445 126.956,-103.396 212,-78 358.514,-34.2479 830.885,-24.5559 988.934,-22.5168"/>
<polygon fill="midnightblue" stroke="midnightblue" points="967.494,-433.319 977.715,-430.529 967.985,-426.337 967.494,-433.319"/>
</g>
<!-- Node15 -->
<g id="node15" class="node"><title>Node15</title>
<g id="a_node15"><a xlink:href="LUATreeLoader_8h.html" target="_top" xlink:title="/home/travis/build\l/mgerhardy/simpleai\l/src/ai/tree/loaders\l/lua/LUATreeLoader.h">
<polygon fill="white" stroke="black" points="1249,-235 1249,-287 1361,-287 1361,-235 1249,-235"/>
<text text-anchor="start" x="1257" y="-275" font-family="Helvetica,sans-Serif" font-size="10.00">/home/travis/build</text>
<text text-anchor="start" x="1257" y="-264" font-family="Helvetica,sans-Serif" font-size="10.00">/mgerhardy/simpleai</text>
<text text-anchor="start" x="1257" y="-253" font-family="Helvetica,sans-Serif" font-size="10.00">/src/ai/tree/loaders</text>
<text text-anchor="middle" x="1305" y="-242" font-family="Helvetica,sans-Serif" font-size="10.00">/lua/LUATreeLoader.h</text>
</a>
</g>
</g>
<!-- Node3&#45;&gt;Node15 -->
<g id="edge28" class="edge"><title>Node3&#45;&gt;Node15</title>
<path fill="none" stroke="midnightblue" d="M1091.62,-417.789C1120.63,-408.605 1154.93,-395.424 1183,-378 1223.23,-353.029 1261.4,-313.21 1284,-287.334"/>
<polygon fill="midnightblue" stroke="midnightblue" points="1090.53,-414.462 1082,-420.75 1092.59,-421.152 1090.53,-414.462"/>
</g>
<!-- Node17 -->
<g id="node17" class="node"><title>Node17</title>
<g id="a_node17"><a xlink:href="LUAAIRegistry_8h_source.html" target="_top" xlink:title="/home/travis/build\l/mgerhardy/simpleai\l/src/ai/LUAAIRegistry.h">
<polygon fill="white" stroke="black" points="861.5,-330.5 861.5,-371.5 982.5,-371.5 982.5,-330.5 861.5,-330.5"/>
<text text-anchor="start" x="869.5" y="-359.5" font-family="Helvetica,sans-Serif" font-size="10.00">/home/travis/build</text>
<text text-anchor="start" x="869.5" y="-348.5" font-family="Helvetica,sans-Serif" font-size="10.00">/mgerhardy/simpleai</text>
<text text-anchor="middle" x="922" y="-337.5" font-family="Helvetica,sans-Serif" font-size="10.00">/src/ai/LUAAIRegistry.h</text>
</a>
</g>
</g>
<!-- Node3&#45;&gt;Node17 -->
<g id="edge25" class="edge"><title>Node3&#45;&gt;Node17</title>
<path fill="none" stroke="midnightblue" d="M995.837,-408.062C980.37,-396.318 962.381,-382.66 948.032,-371.765"/>
<polygon fill="midnightblue" stroke="midnightblue" points="994.05,-411.099 1004.13,-414.359 998.283,-405.524 994.05,-411.099"/>
</g>
<!-- Node4&#45;&gt;Node5 -->
<g id="edge4" class="edge"><title>Node4&#45;&gt;Node5</title>
<path fill="none" stroke="midnightblue" d="M1029.37,-325.169C1027.9,-324.77 1026.44,-324.38 1025,-324 943.279,-302.484 847.253,-283.371 787.753,-272.236"/>
<polygon fill="midnightblue" stroke="midnightblue" points="1028.56,-328.579 1039.14,-327.912 1030.46,-321.84 1028.56,-328.579"/>
</g>
<!-- Node4&#45;&gt;Node8 -->
<g id="edge22" class="edge"><title>Node4&#45;&gt;Node8</title>
<path fill="none" stroke="midnightblue" d="M1095.58,-314.625C1089.79,-289.245 1087.39,-255.813 1106,-234 1172.02,-156.629 1265.98,-275.371 1332,-198 1344.12,-183.8 1342.07,-171.719 1332,-156 1279.21,-73.5661 1161.46,-41.1429 1093.03,-28.9285"/>
<polygon fill="midnightblue" stroke="midnightblue" points="1092.27,-315.779 1098.13,-324.604 1099.05,-314.05 1092.27,-315.779"/>
</g>
<!-- Node4&#45;&gt;Node15 -->
<g id="edge23" class="edge"><title>Node4&#45;&gt;Node15</title>
<path fill="none" stroke="midnightblue" d="M1172.75,-320.78C1197.37,-309.834 1225.11,-297.508 1248.79,-286.981"/>
<polygon fill="midnightblue" stroke="midnightblue" points="1171.19,-317.641 1163.47,-324.901 1174.03,-324.037 1171.19,-317.641"/>
</g>
<!-- Node16 -->
<g id="node16" class="node"><title>Node16</title>
<g id="a_node16"><a xlink:href="XMLTreeLoader_8h.html" target="_top" xlink:title="/home/travis/build\l/mgerhardy/simpleai\l/src/ai/tree/loaders\l/xml/XMLTreeLoader.h">
<polygon fill="white" stroke="black" points="1115,-235 1115,-287 1231,-287 1231,-235 1115,-235"/>
<text text-anchor="start" x="1123" y="-275" font-family="Helvetica,sans-Serif" font-size="10.00">/home/travis/build</text>
<text text-anchor="start" x="1123" y="-264" font-family="Helvetica,sans-Serif" font-size="10.00">/mgerhardy/simpleai</text>
<text text-anchor="start" x="1123" y="-253" font-family="Helvetica,sans-Serif" font-size="10.00">/src/ai/tree/loaders</text>
<text text-anchor="middle" x="1173" y="-242" font-family="Helvetica,sans-Serif" font-size="10.00">/xml/XMLTreeLoader.h</text>
</a>
</g>
</g>
<!-- Node4&#45;&gt;Node16 -->
<g id="edge24" class="edge"><title>Node4&#45;&gt;Node16</title>
<path fill="none" stroke="midnightblue" d="M1132.31,-316.259C1139.58,-306.564 1147.38,-296.166 1154.18,-287.092"/>
<polygon fill="midnightblue" stroke="midnightblue" points="1129.29,-314.447 1126.09,-324.547 1134.89,-318.647 1129.29,-314.447"/>
</g>
<!-- Node6 -->
<g id="node6" class="node"><title>Node6</title>
<g id="a_node6"><a xlink:href="ChangeHandler_8h.html" target="_top" xlink:title="/home/travis/build\l/mgerhardy/simpleai\l/src/ai/server/ChangeHandler.h">
<polygon fill="white" stroke="black" points="1171,-156.5 1171,-197.5 1323,-197.5 1323,-156.5 1171,-156.5"/>
<text text-anchor="start" x="1179" y="-185.5" font-family="Helvetica,sans-Serif" font-size="10.00">/home/travis/build</text>
<text text-anchor="start" x="1179" y="-174.5" font-family="Helvetica,sans-Serif" font-size="10.00">/mgerhardy/simpleai</text>
<text text-anchor="middle" x="1247" y="-163.5" font-family="Helvetica,sans-Serif" font-size="10.00">/src/ai/server/ChangeHandler.h</text>
</a>
</g>
</g>
<!-- Node5&#45;&gt;Node6 -->
<g id="edge5" class="edge"><title>Node5&#45;&gt;Node6</title>
<path fill="none" stroke="midnightblue" d="M797.605,-252.186C882.368,-241.831 1033.14,-222.04 1161,-198 1164.16,-197.405 1167.39,-196.773 1170.64,-196.115"/>
<polygon fill="midnightblue" stroke="midnightblue" points="797.106,-248.721 787.601,-253.401 797.95,-255.669 797.106,-248.721"/>
</g>
<!-- Node7 -->
<g id="node7" class="node"><title>Node7</title>
<g id="a_node7"><a xlink:href="ServerImpl_8h.html" target="_top" xlink:title="/home/travis/build\l/mgerhardy/simpleai\l/src/ai/server/ServerImpl.h">
<polygon fill="white" stroke="black" points="665,-78.5 665,-119.5 797,-119.5 797,-78.5 665,-78.5"/>
<text text-anchor="start" x="673" y="-107.5" font-family="Helvetica,sans-Serif" font-size="10.00">/home/travis/build</text>
<text text-anchor="start" x="673" y="-96.5" font-family="Helvetica,sans-Serif" font-size="10.00">/mgerhardy/simpleai</text>
<text text-anchor="middle" x="731" y="-85.5" font-family="Helvetica,sans-Serif" font-size="10.00">/src/ai/server/ServerImpl.h</text>
</a>
</g>
</g>
<!-- Node5&#45;&gt;Node7 -->
<g id="edge16" class="edge"><title>Node5&#45;&gt;Node7</title>
<path fill="none" stroke="midnightblue" d="M663.944,-258.005C515.222,-252.889 168.046,-236.867 133,-198 120.5,-184.137 120.431,-169.801 133,-156 168.281,-117.261 516.809,-104.832 664.939,-101.279"/>
<polygon fill="midnightblue" stroke="midnightblue" points="664.19,-261.515 674.302,-258.354 664.426,-254.519 664.19,-261.515"/>
</g>
<!-- Node5&#45;&gt;Node8 -->
<g id="edge21" class="edge"><title>Node5&#45;&gt;Node8</title>
<path fill="none" stroke="midnightblue" d="M664.326,-258.176C513.422,-253.359 155.988,-237.825 120,-198 107.485,-184.15 107.788,-170.118 120,-156 177.512,-89.5135 802.818,-39.2298 988.995,-25.6485"/>
<polygon fill="midnightblue" stroke="midnightblue" points="664.29,-261.676 674.394,-258.491 664.509,-254.68 664.29,-261.676"/>
</g>
<!-- Node9 -->
<g id="node9" class="node"><title>Node9</title>
<g id="a_node9"><a xlink:href="DeleteNodeHandler_8h.html" target="_top" xlink:title="/home/travis/build\l/mgerhardy/simpleai\l/src/ai/server/DeleteNodeHandler.h">
<polygon fill="white" stroke="black" points="142,-156.5 142,-197.5 312,-197.5 312,-156.5 142,-156.5"/>
<text text-anchor="start" x="150" y="-185.5" font-family="Helvetica,sans-Serif" font-size="10.00">/home/travis/build</text>
<text text-anchor="start" x="150" y="-174.5" font-family="Helvetica,sans-Serif" font-size="10.00">/mgerhardy/simpleai</text>
<text text-anchor="middle" x="227" y="-163.5" font-family="Helvetica,sans-Serif" font-size="10.00">/src/ai/server/DeleteNodeHandler.h</text>
</a>
</g>
</g>
<!-- Node5&#45;&gt;Node9 -->
<g id="edge8" class="edge"><title>Node5&#45;&gt;Node9</title>
<path fill="none" stroke="midnightblue" d="M664.358,-251.165C583.066,-240.102 441.564,-219.922 321,-198 318.045,-197.463 315.041,-196.902 312.01,-196.324"/>
<polygon fill="midnightblue" stroke="midnightblue" points="664.072,-254.659 674.452,-252.534 665.013,-247.722 664.072,-254.659"/>
</g>
<!-- Node10 -->
<g id="node10" class="node"><title>Node10</title>
<g id="a_node10"><a xlink:href="PauseHandler_8h.html" target="_top" xlink:title="/home/travis/build\l/mgerhardy/simpleai\l/src/ai/server/PauseHandler.h">
<polygon fill="white" stroke="black" points="330,-156.5 330,-197.5 476,-197.5 476,-156.5 330,-156.5"/>
<text text-anchor="start" x="338" y="-185.5" font-family="Helvetica,sans-Serif" font-size="10.00">/home/travis/build</text>
<text text-anchor="start" x="338" y="-174.5" font-family="Helvetica,sans-Serif" font-size="10.00">/mgerhardy/simpleai</text>
<text text-anchor="middle" x="403" y="-163.5" font-family="Helvetica,sans-Serif" font-size="10.00">/src/ai/server/PauseHandler.h</text>
</a>
</g>
</g>
<!-- Node5&#45;&gt;Node10 -->
<g id="edge10" class="edge"><title>Node5&#45;&gt;Node10</title>
<path fill="none" stroke="midnightblue" d="M664.304,-243.326C609.624,-229.656 532.338,-210.335 476.007,-196.252"/>
<polygon fill="midnightblue" stroke="midnightblue" points="663.691,-246.78 674.241,-245.81 665.389,-239.989 663.691,-246.78"/>
</g>
<!-- Node11 -->
<g id="node11" class="node"><title>Node11</title>
<g id="a_node11"><a xlink:href="ResetHandler_8h.html" target="_top" xlink:title="/home/travis/build\l/mgerhardy/simpleai\l/src/ai/server/ResetHandler.h">
<polygon fill="white" stroke="black" points="494.5,-156.5 494.5,-197.5 639.5,-197.5 639.5,-156.5 494.5,-156.5"/>
<text text-anchor="start" x="502.5" y="-185.5" font-family="Helvetica,sans-Serif" font-size="10.00">/home/travis/build</text>
<text text-anchor="start" x="502.5" y="-174.5" font-family="Helvetica,sans-Serif" font-size="10.00">/mgerhardy/simpleai</text>
<text text-anchor="middle" x="567" y="-163.5" font-family="Helvetica,sans-Serif" font-size="10.00">/src/ai/server/ResetHandler.h</text>
</a>
</g>
</g>
<!-- Node5&#45;&gt;Node11 -->
<g id="edge12" class="edge"><title>Node5&#45;&gt;Node11</title>
<path fill="none" stroke="midnightblue" d="M682.646,-235.823C658.305,-223.652 629.178,-209.089 606.245,-197.623"/>
<polygon fill="midnightblue" stroke="midnightblue" points="681.208,-239.017 691.718,-240.359 684.339,-232.756 681.208,-239.017"/>
</g>
<!-- Node12 -->
<g id="node12" class="node"><title>Node12</title>
<g id="a_node12"><a xlink:href="SelectHandler_8h.html" target="_top" xlink:title="/home/travis/build\l/mgerhardy/simpleai\l/src/ai/server/SelectHandler.h">
<polygon fill="white" stroke="black" points="658,-156.5 658,-197.5 804,-197.5 804,-156.5 658,-156.5"/>
<text text-anchor="start" x="666" y="-185.5" font-family="Helvetica,sans-Serif" font-size="10.00">/home/travis/build</text>
<text text-anchor="start" x="666" y="-174.5" font-family="Helvetica,sans-Serif" font-size="10.00">/mgerhardy/simpleai</text>
<text text-anchor="middle" x="731" y="-163.5" font-family="Helvetica,sans-Serif" font-size="10.00">/src/ai/server/SelectHandler.h</text>
</a>
</g>
</g>
<!-- Node5&#45;&gt;Node12 -->
<g id="edge14" class="edge"><title>Node5&#45;&gt;Node12</title>
<path fill="none" stroke="midnightblue" d="M731,-229.881C731,-219.133 731,-207.309 731,-197.667"/>
<polygon fill="midnightblue" stroke="midnightblue" points="727.5,-230.15 731,-240.15 734.5,-230.15 727.5,-230.15"/>
</g>
<!-- Node13 -->
<g id="node13" class="node"><title>Node13</title>
<g id="a_node13"><a xlink:href="StepHandler_8h.html" target="_top" xlink:title="/home/travis/build\l/mgerhardy/simpleai\l/src/ai/server/StepHandler.h">
<polygon fill="white" stroke="black" points="822.5,-156.5 822.5,-197.5 961.5,-197.5 961.5,-156.5 822.5,-156.5"/>
<text text-anchor="start" x="830.5" y="-185.5" font-family="Helvetica,sans-Serif" font-size="10.00">/home/travis/build</text>
<text text-anchor="start" x="830.5" y="-174.5" font-family="Helvetica,sans-Serif" font-size="10.00">/mgerhardy/simpleai</text>
<text text-anchor="middle" x="892" y="-163.5" font-family="Helvetica,sans-Serif" font-size="10.00">/src/ai/server/StepHandler.h</text>
</a>
</g>
</g>
<!-- Node5&#45;&gt;Node13 -->
<g id="edge17" class="edge"><title>Node5&#45;&gt;Node13</title>
<path fill="none" stroke="midnightblue" d="M778.785,-235.662C802.617,-223.524 831.058,-209.039 853.472,-197.623"/>
<polygon fill="midnightblue" stroke="midnightblue" points="776.886,-232.702 769.564,-240.359 780.063,-238.939 776.886,-232.702"/>
</g>
<!-- Node14 -->
<g id="node14" class="node"><title>Node14</title>
<g id="a_node14"><a xlink:href="UpdateNodeHandler_8h.html" target="_top" xlink:title="/home/travis/build\l/mgerhardy/simpleai\l/src/ai/server/UpdateNodeHandler.h">
<polygon fill="white" stroke="black" points="979.5,-156.5 979.5,-197.5 1152.5,-197.5 1152.5,-156.5 979.5,-156.5"/>
<text text-anchor="start" x="987.5" y="-185.5" font-family="Helvetica,sans-Serif" font-size="10.00">/home/travis/build</text>
<text text-anchor="start" x="987.5" y="-174.5" font-family="Helvetica,sans-Serif" font-size="10.00">/mgerhardy/simpleai</text>
<text text-anchor="middle" x="1066" y="-163.5" font-family="Helvetica,sans-Serif" font-size="10.00">/src/ai/server/UpdateNodeHandler.h</text>
</a>
</g>
</g>
<!-- Node5&#45;&gt;Node14 -->
<g id="edge19" class="edge"><title>Node5&#45;&gt;Node14</title>
<path fill="none" stroke="midnightblue" d="M797.691,-243.676C851.967,-230.39 928.729,-211.601 986.251,-197.521"/>
<polygon fill="midnightblue" stroke="midnightblue" points="796.709,-240.313 787.828,-246.09 798.374,-247.112 796.709,-240.313"/>
</g>
<!-- Node6&#45;&gt;Node7 -->
<g id="edge6" class="edge"><title>Node6&#45;&gt;Node7</title>
<path fill="none" stroke="midnightblue" d="M1160.55,-156.014C1025.69,-132 879.893,-115.223 797.244,-106.569"/>
<polygon fill="midnightblue" stroke="midnightblue" points="1160.19,-159.506 1170.65,-157.831 1161.43,-152.616 1160.19,-159.506"/>
</g>
<!-- Node7&#45;&gt;Node8 -->
<g id="edge7" class="edge"><title>Node7&#45;&gt;Node8</title>
<path fill="none" stroke="midnightblue" d="M807.077,-79.3488C863.542,-65.5057 939.066,-46.9904 988.828,-34.7907"/>
<polygon fill="midnightblue" stroke="midnightblue" points="806.002,-76.0088 797.123,-81.7893 807.668,-82.8075 806.002,-76.0088"/>
</g>
<!-- Node9&#45;&gt;Node7 -->
<g id="edge9" class="edge"><title>Node9&#45;&gt;Node7</title>
<path fill="none" stroke="midnightblue" d="M322.133,-155.86C448.83,-134.051 585.532,-116.857 664.727,-107.524"/>
<polygon fill="midnightblue" stroke="midnightblue" points="321.507,-152.416 312.253,-157.574 322.704,-159.313 321.507,-152.416"/>
</g>
<!-- Node10&#45;&gt;Node7 -->
<g id="edge11" class="edge"><title>Node10&#45;&gt;Node7</title>
<path fill="none" stroke="midnightblue" d="M486.083,-155.759C552.327,-140.185 617.658,-125.371 664.897,-114.758"/>
<polygon fill="midnightblue" stroke="midnightblue" points="485.236,-152.362 476.304,-158.062 486.84,-159.176 485.236,-152.362"/>
</g>
<!-- Node11&#45;&gt;Node7 -->
<g id="edge13" class="edge"><title>Node11&#45;&gt;Node7</title>
<path fill="none" stroke="midnightblue" d="M618.382,-152.189C641.07,-141.675 667.41,-129.469 688.909,-119.506"/>
<polygon fill="midnightblue" stroke="midnightblue" points="616.836,-149.048 609.234,-156.428 619.779,-155.399 616.836,-149.048"/>
</g>
<!-- Node12&#45;&gt;Node7 -->
<g id="edge15" class="edge"><title>Node12&#45;&gt;Node7</title>
<path fill="none" stroke="midnightblue" d="M731,-146.297C731,-137.301 731,-127.653 731,-119.506"/>
<polygon fill="midnightblue" stroke="midnightblue" points="727.5,-146.428 731,-156.428 734.5,-146.428 727.5,-146.428"/>
</g>
<!-- Node13&#45;&gt;Node7 -->
<g id="edge18" class="edge"><title>Node13&#45;&gt;Node7</title>
<path fill="none" stroke="midnightblue" d="M841.261,-152.049C819.055,-141.566 793.333,-129.424 772.321,-119.506"/>
<polygon fill="midnightblue" stroke="midnightblue" points="840.001,-155.324 850.538,-156.428 842.989,-148.994 840.001,-155.324"/>
</g>
<!-- Node14&#45;&gt;Node7 -->
<g id="edge20" class="edge"><title>Node14&#45;&gt;Node7</title>
<path fill="none" stroke="midnightblue" d="M969.909,-154.2C914.583,-141.649 846.47,-126.196 797.146,-115.006"/>
<polygon fill="midnightblue" stroke="midnightblue" points="969.203,-157.629 979.729,-156.428 970.751,-150.802 969.203,-157.629"/>
</g>
<!-- Node18&#45;&gt;Node3 -->
<g id="edge31" class="edge"><title>Node18&#45;&gt;Node3</title>
<path fill="none" stroke="midnightblue" d="M1168.81,-488.748C1140.81,-478.11 1108.02,-465.646 1081.33,-455.506"/>
<polygon fill="midnightblue" stroke="midnightblue" points="1167.9,-492.148 1178.5,-492.428 1170.39,-485.604 1167.9,-492.148"/>
</g>
<!-- Node18&#45;&gt;Node8 -->
<g id="edge32" class="edge"><title>Node18&#45;&gt;Node8</title>
<path fill="none" stroke="midnightblue" d="M1280.98,-487.431C1327.48,-461.046 1389,-414.359 1389,-352 1389,-352 1389,-352 1389,-176 1389,-48.1582 1190.18,-25.5935 1093.1,-22.1955"/>
<polygon fill="midnightblue" stroke="midnightblue" points="1279.26,-484.382 1272.19,-492.278 1282.64,-490.511 1279.26,-484.382"/>
</g>
<!-- Node19&#45;&gt;Node3 -->
<g id="edge34" class="edge"><title>Node19&#45;&gt;Node3</title>
<path fill="none" stroke="midnightblue" d="M941.069,-487.203C958.933,-476.918 979.356,-465.159 996.122,-455.506"/>
<polygon fill="midnightblue" stroke="midnightblue" points="938.913,-484.405 931.993,-492.428 942.406,-490.472 938.913,-484.405"/>
</g>
<!-- Node20&#45;&gt;Node3 -->
<g id="edge36" class="edge"><title>Node20&#45;&gt;Node3</title>
<path fill="none" stroke="midnightblue" d="M1053.73,-483.466C1049.07,-474.143 1044,-464.007 1039.75,-455.506"/>
<polygon fill="midnightblue" stroke="midnightblue" points="1050.61,-485.049 1058.21,-492.428 1056.87,-481.919 1050.61,-485.049"/>
</g>
<!-- Node21&#45;&gt;Node3 -->
<g id="edge38" class="edge"><title>Node21&#45;&gt;Node3</title>
<path fill="none" stroke="midnightblue" d="M1309.31,-492.075C1309.2,-492.05 1309.1,-492.025 1309,-492 1230.54,-472.791 1138.5,-455.276 1082.22,-445.127"/>
<polygon fill="midnightblue" stroke="midnightblue" points="1308.44,-495.466 1318.99,-494.543 1310.17,-488.682 1308.44,-495.466"/>
</g>
<!-- Node21&#45;&gt;Node8 -->
<g id="edge39" class="edge"><title>Node21&#45;&gt;Node8</title>
<path fill="none" stroke="midnightblue" d="M1392.43,-483.338C1406.88,-451.928 1427,-399.653 1427,-352 1427,-352 1427,-352 1427,-176 1427,-125.388 1410.69,-106.693 1369,-78 1325.1,-47.7885 1174.11,-32.0369 1093.19,-25.5949"/>
<polygon fill="midnightblue" stroke="midnightblue" points="1389.26,-481.851 1388.15,-492.388 1395.59,-484.841 1389.26,-481.851"/>
</g>
</g>
</svg>
