<?xml version="1.0" encoding="UTF-8" standalone="no"?>
<!DOCTYPE svg PUBLIC "-//W3C//DTD SVG 1.1//EN"
 "http://www.w3.org/Graphics/SVG/1.1/DTD/svg11.dtd">
<!-- Generated by graphviz version 2.36.0 (20140111.2315)
 -->
<!-- Title: /home/travis/build/mgerhardy/simpleai/src/ai/tree/Steer.h Pages: 1 -->
<svg width="1334pt" height="542pt"
 viewBox="0.00 0.00 1333.74 542.00" xmlns="http://www.w3.org/2000/svg" xmlns:xlink="http://www.w3.org/1999/xlink">
<g id="graph0" class="graph" transform="scale(1 1) rotate(0) translate(4 538)">
<title>/home/travis/build/mgerhardy/simpleai/src/ai/tree/Steer.h</title>
<polygon fill="white" stroke="none" points="-4,4 -4,-538 1329.74,-538 1329.74,4 -4,4"/>
<!-- Node1 -->
<g id="node1" class="node"><title>Node1</title>
<polygon fill="#bfbfbf" stroke="black" points="345,-492.5 345,-533.5 449,-533.5 449,-492.5 345,-492.5"/>
<text text-anchor="start" x="353" y="-521.5" font-family="Helvetica,sans-Serif" font-size="10.00">/home/travis/build</text>
<text text-anchor="start" x="353" y="-510.5" font-family="Helvetica,sans-Serif" font-size="10.00">/mgerhardy/simpleai</text>
<text text-anchor="middle" x="397" y="-499.5" font-family="Helvetica,sans-Serif" font-size="10.00">/src/ai/tree/Steer.h</text>
</g>
<!-- Node2 -->
<g id="node2" class="node"><title>Node2</title>
<g id="a_node2"><a xlink:href="AIRegistry_8h.html" target="_top" xlink:title="/home/travis/build\l/mgerhardy/simpleai\l/src/ai/AIRegistry.h">
<polygon fill="white" stroke="black" points="345,-414.5 345,-455.5 449,-455.5 449,-414.5 345,-414.5"/>
<text text-anchor="start" x="353" y="-443.5" font-family="Helvetica,sans-Serif" font-size="10.00">/home/travis/build</text>
<text text-anchor="start" x="353" y="-432.5" font-family="Helvetica,sans-Serif" font-size="10.00">/mgerhardy/simpleai</text>
<text text-anchor="middle" x="397" y="-421.5" font-family="Helvetica,sans-Serif" font-size="10.00">/src/ai/AIRegistry.h</text>
</a>
</g>
</g>
<!-- Node1&#45;&gt;Node2 -->
<g id="edge1" class="edge"><title>Node1&#45;&gt;Node2</title>
<path fill="none" stroke="midnightblue" d="M397,-482.297C397,-473.301 397,-463.653 397,-455.506"/>
<polygon fill="midnightblue" stroke="midnightblue" points="393.5,-482.428 397,-492.428 400.5,-482.428 393.5,-482.428"/>
</g>
<!-- Node7 -->
<g id="node7" class="node"><title>Node7</title>
<g id="a_node7"><a xlink:href="SimpleAI_8h.html" target="_top" xlink:title="/home/travis/build\l/mgerhardy/simpleai\l/src/ai/SimpleAI.h">
<polygon fill="white" stroke="black" points="663,-0.5 663,-41.5 767,-41.5 767,-0.5 663,-0.5"/>
<text text-anchor="start" x="671" y="-29.5" font-family="Helvetica,sans-Serif" font-size="10.00">/home/travis/build</text>
<text text-anchor="start" x="671" y="-18.5" font-family="Helvetica,sans-Serif" font-size="10.00">/mgerhardy/simpleai</text>
<text text-anchor="middle" x="715" y="-7.5" font-family="Helvetica,sans-Serif" font-size="10.00">/src/ai/SimpleAI.h</text>
</a>
</g>
</g>
<!-- Node1&#45;&gt;Node7 -->
<g id="edge27" class="edge"><title>Node1&#45;&gt;Node7</title>
<path fill="none" stroke="midnightblue" d="M334.556,-500.292C222.763,-477.535 0,-423.25 0,-352 0,-352 0,-352 0,-176 0,-122.215 24.1986,-104.504 71,-78 121.994,-49.1213 518.499,-30.0875 662.75,-24.0585"/>
<polygon fill="midnightblue" stroke="midnightblue" points="334.197,-503.79 344.691,-502.33 335.577,-496.927 334.197,-503.79"/>
</g>
<!-- Node17 -->
<g id="node17" class="node"><title>Node17</title>
<g id="a_node17"><a xlink:href="TreeNodeParser_8h.html" target="_top" xlink:title="/home/travis/build\l/mgerhardy/simpleai\l/src/ai/tree/TreeNodeParser.h">
<polygon fill="white" stroke="black" points="660,-330.5 660,-371.5 806,-371.5 806,-330.5 660,-330.5"/>
<text text-anchor="start" x="668" y="-359.5" font-family="Helvetica,sans-Serif" font-size="10.00">/home/travis/build</text>
<text text-anchor="start" x="668" y="-348.5" font-family="Helvetica,sans-Serif" font-size="10.00">/mgerhardy/simpleai</text>
<text text-anchor="middle" x="733" y="-337.5" font-family="Helvetica,sans-Serif" font-size="10.00">/src/ai/tree/TreeNodeParser.h</text>
</a>
</g>
</g>
<!-- Node1&#45;&gt;Node17 -->
<g id="edge28" class="edge"><title>Node1&#45;&gt;Node17</title>
<path fill="none" stroke="midnightblue" d="M447.266,-488.064C513.935,-456.317 630.343,-400.884 691.989,-371.529"/>
<polygon fill="midnightblue" stroke="midnightblue" points="445.724,-484.921 438.2,-492.381 448.734,-491.241 445.724,-484.921"/>
</g>
<!-- Node3 -->
<g id="node3" class="node"><title>Node3</title>
<g id="a_node3"><a xlink:href="ConditionParser_8h.html" target="_top" xlink:title="/home/travis/build\l/mgerhardy/simpleai\l/src/ai/conditions/Condition\lParser.h">
<polygon fill="white" stroke="black" points="329.5,-325 329.5,-377 464.5,-377 464.5,-325 329.5,-325"/>
<text text-anchor="start" x="337.5" y="-365" font-family="Helvetica,sans-Serif" font-size="10.00">/home/travis/build</text>
<text text-anchor="start" x="337.5" y="-354" font-family="Helvetica,sans-Serif" font-size="10.00">/mgerhardy/simpleai</text>
<text text-anchor="start" x="337.5" y="-343" font-family="Helvetica,sans-Serif" font-size="10.00">/src/ai/conditions/Condition</text>
<text text-anchor="middle" x="397" y="-332" font-family="Helvetica,sans-Serif" font-size="10.00">Parser.h</text>
</a>
</g>
</g>
<!-- Node2&#45;&gt;Node3 -->
<g id="edge2" class="edge"><title>Node2&#45;&gt;Node3</title>
<path fill="none" stroke="midnightblue" d="M397,-403.938C397,-395.176 397,-385.695 397,-377.261"/>
<polygon fill="midnightblue" stroke="midnightblue" points="393.5,-404.15 397,-414.15 400.5,-404.15 393.5,-404.15"/>
</g>
<!-- Node4 -->
<g id="node4" class="node"><title>Node4</title>
<g id="a_node4"><a xlink:href="Server_8h.html" target="_top" xlink:title="/home/travis/build\l/mgerhardy/simpleai\l/src/ai/server/Server.h">
<polygon fill="white" stroke="black" points="658.5,-240.5 658.5,-281.5 771.5,-281.5 771.5,-240.5 658.5,-240.5"/>
<text text-anchor="start" x="666.5" y="-269.5" font-family="Helvetica,sans-Serif" font-size="10.00">/home/travis/build</text>
<text text-anchor="start" x="666.5" y="-258.5" font-family="Helvetica,sans-Serif" font-size="10.00">/mgerhardy/simpleai</text>
<text text-anchor="middle" x="715" y="-247.5" font-family="Helvetica,sans-Serif" font-size="10.00">/src/ai/server/Server.h</text>
</a>
</g>
</g>
<!-- Node2&#45;&gt;Node4 -->
<g id="edge24" class="edge"><title>Node2&#45;&gt;Node4</title>
<path fill="none" stroke="midnightblue" d="M459.362,-429.068C504.98,-422.914 566.572,-409.083 612,-378 636.433,-361.282 631.627,-346.386 651,-324 663.958,-309.027 679.958,-293.527 692.718,-281.77"/>
<polygon fill="midnightblue" stroke="midnightblue" points="458.784,-425.613 449.3,-430.336 459.66,-432.558 458.784,-425.613"/>
</g>
<!-- Node2&#45;&gt;Node7 -->
<g id="edge25" class="edge"><title>Node2&#45;&gt;Node7</title>
<path fill="none" stroke="midnightblue" d="M334.536,-431.547C231.698,-423.799 38,-391.957 38,-262 38,-262 38,-262 38,-176 38,-48.0045 503.924,-26.3908 662.721,-22.7413"/>
<polygon fill="midnightblue" stroke="midnightblue" points="334.579,-435.058 344.798,-432.263 335.066,-428.075 334.579,-435.058"/>
</g>
<!-- Node14 -->
<g id="node14" class="node"><title>Node14</title>
<g id="a_node14"><a xlink:href="LUATreeLoader_8h.html" target="_top" xlink:title="/home/travis/build\l/mgerhardy/simpleai\l/src/ai/tree/loaders\l/lua/LUATreeLoader.h">
<polygon fill="white" stroke="black" points="341,-235 341,-287 453,-287 453,-235 341,-235"/>
<text text-anchor="start" x="349" y="-275" font-family="Helvetica,sans-Serif" font-size="10.00">/home/travis/build</text>
<text text-anchor="start" x="349" y="-264" font-family="Helvetica,sans-Serif" font-size="10.00">/mgerhardy/simpleai</text>
<text text-anchor="start" x="349" y="-253" font-family="Helvetica,sans-Serif" font-size="10.00">/src/ai/tree/loaders</text>
<text text-anchor="middle" x="397" y="-242" font-family="Helvetica,sans-Serif" font-size="10.00">/lua/LUATreeLoader.h</text>
</a>
</g>
</g>
<!-- Node2&#45;&gt;Node14 -->
<g id="edge26" class="edge"><title>Node2&#45;&gt;Node14</title>
<path fill="none" stroke="midnightblue" d="M347.513,-408.555C336.477,-400.38 326.216,-390.207 320,-378 309.109,-356.613 309.638,-345.648 320,-324 327.04,-309.293 339.458,-296.964 352.294,-287.272"/>
<polygon fill="midnightblue" stroke="midnightblue" points="345.825,-411.642 356.049,-414.419 349.788,-405.872 345.825,-411.642"/>
</g>
<!-- Node16 -->
<g id="node16" class="node"><title>Node16</title>
<g id="a_node16"><a xlink:href="LUAAIRegistry_8h_source.html" target="_top" xlink:title="/home/travis/build\l/mgerhardy/simpleai\l/src/ai/LUAAIRegistry.h">
<polygon fill="white" stroke="black" points="482.5,-330.5 482.5,-371.5 603.5,-371.5 603.5,-330.5 482.5,-330.5"/>
<text text-anchor="start" x="490.5" y="-359.5" font-family="Helvetica,sans-Serif" font-size="10.00">/home/travis/build</text>
<text text-anchor="start" x="490.5" y="-348.5" font-family="Helvetica,sans-Serif" font-size="10.00">/mgerhardy/simpleai</text>
<text text-anchor="middle" x="543" y="-337.5" font-family="Helvetica,sans-Serif" font-size="10.00">/src/ai/LUAAIRegistry.h</text>
</a>
</g>
</g>
<!-- Node2&#45;&gt;Node16 -->
<g id="edge23" class="edge"><title>Node2&#45;&gt;Node16</title>
<path fill="none" stroke="midnightblue" d="M440.908,-409.339C462.401,-397.268 487.916,-382.938 508.062,-371.623"/>
<polygon fill="midnightblue" stroke="midnightblue" points="438.976,-406.41 431.971,-414.359 442.404,-412.514 438.976,-406.41"/>
</g>
<!-- Node3&#45;&gt;Node4 -->
<g id="edge3" class="edge"><title>Node3&#45;&gt;Node4</title>
<path fill="none" stroke="midnightblue" d="M474.879,-323.575C543.657,-304.534 563.945,-305.652 630,-288 639.243,-285.53 648.995,-282.731 658.467,-279.908"/>
<polygon fill="midnightblue" stroke="midnightblue" points="473.52,-320.321 464.842,-326.399 475.416,-327.059 473.52,-320.321"/>
</g>
<!-- Node3&#45;&gt;Node14 -->
<g id="edge21" class="edge"><title>Node3&#45;&gt;Node14</title>
<path fill="none" stroke="midnightblue" d="M397,-314.489C397,-305.309 397,-295.616 397,-287.092"/>
<polygon fill="midnightblue" stroke="midnightblue" points="393.5,-314.547 397,-324.547 400.5,-314.547 393.5,-314.547"/>
</g>
<!-- Node15 -->
<g id="node15" class="node"><title>Node15</title>
<g id="a_node15"><a xlink:href="XMLTreeLoader_8h.html" target="_top" xlink:title="/home/travis/build\l/mgerhardy/simpleai\l/src/ai/tree/loaders\l/xml/XMLTreeLoader.h">
<polygon fill="white" stroke="black" points="506,-235 506,-287 622,-287 622,-235 506,-235"/>
<text text-anchor="start" x="514" y="-275" font-family="Helvetica,sans-Serif" font-size="10.00">/home/travis/build</text>
<text text-anchor="start" x="514" y="-264" font-family="Helvetica,sans-Serif" font-size="10.00">/mgerhardy/simpleai</text>
<text text-anchor="start" x="514" y="-253" font-family="Helvetica,sans-Serif" font-size="10.00">/src/ai/tree/loaders</text>
<text text-anchor="middle" x="564" y="-242" font-family="Helvetica,sans-Serif" font-size="10.00">/xml/XMLTreeLoader.h</text>
</a>
</g>
</g>
<!-- Node3&#45;&gt;Node15 -->
<g id="edge22" class="edge"><title>Node3&#45;&gt;Node15</title>
<path fill="none" stroke="midnightblue" d="M453.733,-320.105C474.123,-309.36 496.895,-297.361 516.426,-287.069"/>
<polygon fill="midnightblue" stroke="midnightblue" points="452.071,-317.024 444.855,-324.783 455.334,-323.217 452.071,-317.024"/>
</g>
<!-- Node5 -->
<g id="node5" class="node"><title>Node5</title>
<g id="a_node5"><a xlink:href="ChangeHandler_8h.html" target="_top" xlink:title="/home/travis/build\l/mgerhardy/simpleai\l/src/ai/server/ChangeHandler.h">
<polygon fill="white" stroke="black" points="945,-156.5 945,-197.5 1097,-197.5 1097,-156.5 945,-156.5"/>
<text text-anchor="start" x="953" y="-185.5" font-family="Helvetica,sans-Serif" font-size="10.00">/home/travis/build</text>
<text text-anchor="start" x="953" y="-174.5" font-family="Helvetica,sans-Serif" font-size="10.00">/mgerhardy/simpleai</text>
<text text-anchor="middle" x="1021" y="-163.5" font-family="Helvetica,sans-Serif" font-size="10.00">/src/ai/server/ChangeHandler.h</text>
</a>
</g>
</g>
<!-- Node4&#45;&gt;Node5 -->
<g id="edge4" class="edge"><title>Node4&#45;&gt;Node5</title>
<path fill="none" stroke="midnightblue" d="M781.72,-242.121C830.792,-228.971 897.457,-211.106 947.958,-197.573"/>
<polygon fill="midnightblue" stroke="midnightblue" points="780.592,-238.799 771.839,-244.769 782.404,-245.561 780.592,-238.799"/>
</g>
<!-- Node6 -->
<g id="node6" class="node"><title>Node6</title>
<g id="a_node6"><a xlink:href="ServerImpl_8h.html" target="_top" xlink:title="/home/travis/build\l/mgerhardy/simpleai\l/src/ai/server/ServerImpl.h">
<polygon fill="white" stroke="black" points="649,-78.5 649,-119.5 781,-119.5 781,-78.5 649,-78.5"/>
<text text-anchor="start" x="657" y="-107.5" font-family="Helvetica,sans-Serif" font-size="10.00">/home/travis/build</text>
<text text-anchor="start" x="657" y="-96.5" font-family="Helvetica,sans-Serif" font-size="10.00">/mgerhardy/simpleai</text>
<text text-anchor="middle" x="715" y="-85.5" font-family="Helvetica,sans-Serif" font-size="10.00">/src/ai/server/ServerImpl.h</text>
</a>
</g>
</g>
<!-- Node4&#45;&gt;Node6 -->
<g id="edge15" class="edge"><title>Node4&#45;&gt;Node6</title>
<path fill="none" stroke="midnightblue" d="M781.699,-248.109C847.22,-233.384 932.577,-204.17 897,-156 870.584,-120.233 821.687,-106.591 781.223,-101.699"/>
<polygon fill="midnightblue" stroke="midnightblue" points="780.813,-244.72 771.784,-250.263 782.299,-251.56 780.813,-244.72"/>
</g>
<!-- Node4&#45;&gt;Node7 -->
<g id="edge20" class="edge"><title>Node4&#45;&gt;Node7</title>
<path fill="none" stroke="midnightblue" d="M781.784,-257.771C926.804,-252.242 1260.26,-235.542 1294,-198 1444.81,-30.1833 935.158,-20.0676 767.001,-21.1648"/>
<polygon fill="midnightblue" stroke="midnightblue" points="781.536,-254.277 771.675,-258.15 781.799,-261.272 781.536,-254.277"/>
</g>
<!-- Node8 -->
<g id="node8" class="node"><title>Node8</title>
<g id="a_node8"><a xlink:href="DeleteNodeHandler_8h.html" target="_top" xlink:title="/home/travis/build\l/mgerhardy/simpleai\l/src/ai/server/DeleteNodeHandler.h">
<polygon fill="white" stroke="black" points="1115,-156.5 1115,-197.5 1285,-197.5 1285,-156.5 1115,-156.5"/>
<text text-anchor="start" x="1123" y="-185.5" font-family="Helvetica,sans-Serif" font-size="10.00">/home/travis/build</text>
<text text-anchor="start" x="1123" y="-174.5" font-family="Helvetica,sans-Serif" font-size="10.00">/mgerhardy/simpleai</text>
<text text-anchor="middle" x="1200" y="-163.5" font-family="Helvetica,sans-Serif" font-size="10.00">/src/ai/server/DeleteNodeHandler.h</text>
</a>
</g>
</g>
<!-- Node4&#45;&gt;Node8 -->
<g id="edge7" class="edge"><title>Node4&#45;&gt;Node8</title>
<path fill="none" stroke="midnightblue" d="M781.988,-250.468C860.003,-239.115 992.66,-219.028 1106,-198 1108.95,-197.452 1111.96,-196.882 1114.99,-196.297"/>
<polygon fill="midnightblue" stroke="midnightblue" points="781.211,-247.044 771.817,-251.944 782.216,-253.972 781.211,-247.044"/>
</g>
<!-- Node9 -->
<g id="node9" class="node"><title>Node9</title>
<g id="a_node9"><a xlink:href="PauseHandler_8h.html" target="_top" xlink:title="/home/travis/build\l/mgerhardy/simpleai\l/src/ai/server/PauseHandler.h">
<polygon fill="white" stroke="black" points="66,-156.5 66,-197.5 212,-197.5 212,-156.5 66,-156.5"/>
<text text-anchor="start" x="74" y="-185.5" font-family="Helvetica,sans-Serif" font-size="10.00">/home/travis/build</text>
<text text-anchor="start" x="74" y="-174.5" font-family="Helvetica,sans-Serif" font-size="10.00">/mgerhardy/simpleai</text>
<text text-anchor="middle" x="139" y="-163.5" font-family="Helvetica,sans-Serif" font-size="10.00">/src/ai/server/PauseHandler.h</text>
</a>
</g>
</g>
<!-- Node4&#45;&gt;Node9 -->
<g id="edge9" class="edge"><title>Node4&#45;&gt;Node9</title>
<path fill="none" stroke="midnightblue" d="M648.532,-238.23C642.309,-236.628 636.064,-235.181 630,-234 450.884,-199.121 401.047,-227.705 221,-198 218.108,-197.523 215.168,-196.998 212.204,-196.437"/>
<polygon fill="midnightblue" stroke="midnightblue" points="647.695,-241.629 658.262,-240.857 649.52,-234.871 647.695,-241.629"/>
</g>
<!-- Node10 -->
<g id="node10" class="node"><title>Node10</title>
<g id="a_node10"><a xlink:href="ResetHandler_8h.html" target="_top" xlink:title="/home/travis/build\l/mgerhardy/simpleai\l/src/ai/server/ResetHandler.h">
<polygon fill="white" stroke="black" points="230.5,-156.5 230.5,-197.5 375.5,-197.5 375.5,-156.5 230.5,-156.5"/>
<text text-anchor="start" x="238.5" y="-185.5" font-family="Helvetica,sans-Serif" font-size="10.00">/home/travis/build</text>
<text text-anchor="start" x="238.5" y="-174.5" font-family="Helvetica,sans-Serif" font-size="10.00">/mgerhardy/simpleai</text>
<text text-anchor="middle" x="303" y="-163.5" font-family="Helvetica,sans-Serif" font-size="10.00">/src/ai/server/ResetHandler.h</text>
</a>
</g>
</g>
<!-- Node4&#45;&gt;Node10 -->
<g id="edge11" class="edge"><title>Node4&#45;&gt;Node10</title>
<path fill="none" stroke="midnightblue" d="M648.453,-238.604C642.247,-236.924 636.027,-235.356 630,-234 522.628,-209.835 493.024,-219.062 385,-198 381.98,-197.411 378.903,-196.784 375.8,-196.13"/>
<polygon fill="midnightblue" stroke="midnightblue" points="647.591,-241.998 658.164,-241.323 649.478,-235.257 647.591,-241.998"/>
</g>
<!-- Node11 -->
<g id="node11" class="node"><title>Node11</title>
<g id="a_node11"><a xlink:href="SelectHandler_8h.html" target="_top" xlink:title="/home/travis/build\l/mgerhardy/simpleai\l/src/ai/server/SelectHandler.h">
<polygon fill="white" stroke="black" points="394,-156.5 394,-197.5 540,-197.5 540,-156.5 394,-156.5"/>
<text text-anchor="start" x="402" y="-185.5" font-family="Helvetica,sans-Serif" font-size="10.00">/home/travis/build</text>
<text text-anchor="start" x="402" y="-174.5" font-family="Helvetica,sans-Serif" font-size="10.00">/mgerhardy/simpleai</text>
<text text-anchor="middle" x="467" y="-163.5" font-family="Helvetica,sans-Serif" font-size="10.00">/src/ai/server/SelectHandler.h</text>
</a>
</g>
</g>
<!-- Node4&#45;&gt;Node11 -->
<g id="edge13" class="edge"><title>Node4&#45;&gt;Node11</title>
<path fill="none" stroke="midnightblue" d="M648.455,-237.997C610.422,-225.422 563.132,-209.786 526.365,-197.629"/>
<polygon fill="midnightblue" stroke="midnightblue" points="647.821,-241.474 658.415,-241.29 650.019,-234.828 647.821,-241.474"/>
</g>
<!-- Node12 -->
<g id="node12" class="node"><title>Node12</title>
<g id="a_node12"><a xlink:href="StepHandler_8h.html" target="_top" xlink:title="/home/travis/build\l/mgerhardy/simpleai\l/src/ai/server/StepHandler.h">
<polygon fill="white" stroke="black" points="558.5,-156.5 558.5,-197.5 697.5,-197.5 697.5,-156.5 558.5,-156.5"/>
<text text-anchor="start" x="566.5" y="-185.5" font-family="Helvetica,sans-Serif" font-size="10.00">/home/travis/build</text>
<text text-anchor="start" x="566.5" y="-174.5" font-family="Helvetica,sans-Serif" font-size="10.00">/mgerhardy/simpleai</text>
<text text-anchor="middle" x="628" y="-163.5" font-family="Helvetica,sans-Serif" font-size="10.00">/src/ai/server/StepHandler.h</text>
</a>
</g>
</g>
<!-- Node4&#45;&gt;Node12 -->
<g id="edge16" class="edge"><title>Node4&#45;&gt;Node12</title>
<path fill="none" stroke="midnightblue" d="M686.567,-233.201C674.279,-221.62 660.162,-208.313 648.866,-197.667"/>
<polygon fill="midnightblue" stroke="midnightblue" points="684.262,-235.838 693.94,-240.15 689.063,-230.744 684.262,-235.838"/>
</g>
<!-- Node13 -->
<g id="node13" class="node"><title>Node13</title>
<g id="a_node13"><a xlink:href="UpdateNodeHandler_8h.html" target="_top" xlink:title="/home/travis/build\l/mgerhardy/simpleai\l/src/ai/server/UpdateNodeHandler.h">
<polygon fill="white" stroke="black" points="715.5,-156.5 715.5,-197.5 888.5,-197.5 888.5,-156.5 715.5,-156.5"/>
<text text-anchor="start" x="723.5" y="-185.5" font-family="Helvetica,sans-Serif" font-size="10.00">/home/travis/build</text>
<text text-anchor="start" x="723.5" y="-174.5" font-family="Helvetica,sans-Serif" font-size="10.00">/mgerhardy/simpleai</text>
<text text-anchor="middle" x="802" y="-163.5" font-family="Helvetica,sans-Serif" font-size="10.00">/src/ai/server/UpdateNodeHandler.h</text>
</a>
</g>
</g>
<!-- Node4&#45;&gt;Node13 -->
<g id="edge18" class="edge"><title>Node4&#45;&gt;Node13</title>
<path fill="none" stroke="midnightblue" d="M743.433,-233.201C755.721,-221.62 769.838,-208.313 781.134,-197.667"/>
<polygon fill="midnightblue" stroke="midnightblue" points="740.937,-230.744 736.06,-240.15 745.738,-235.838 740.937,-230.744"/>
</g>
<!-- Node5&#45;&gt;Node6 -->
<g id="edge5" class="edge"><title>Node5&#45;&gt;Node6</title>
<path fill="none" stroke="midnightblue" d="M935.05,-154.653C886.25,-142.533 826.105,-127.595 781.034,-116.401"/>
<polygon fill="midnightblue" stroke="midnightblue" points="934.418,-158.102 944.966,-157.116 936.105,-151.309 934.418,-158.102"/>
</g>
<!-- Node6&#45;&gt;Node7 -->
<g id="edge6" class="edge"><title>Node6&#45;&gt;Node7</title>
<path fill="none" stroke="midnightblue" d="M715,-68.2965C715,-59.3009 715,-49.6532 715,-41.5056"/>
<polygon fill="midnightblue" stroke="midnightblue" points="711.5,-68.4281 715,-78.4281 718.5,-68.4281 711.5,-68.4281"/>
</g>
<!-- Node8&#45;&gt;Node6 -->
<g id="edge8" class="edge"><title>Node8&#45;&gt;Node6</title>
<path fill="none" stroke="midnightblue" d="M1104.92,-155.863C985.163,-134.835 857.102,-117.696 781.286,-108.11"/>
<polygon fill="midnightblue" stroke="midnightblue" points="1104.54,-159.351 1115,-157.646 1105.76,-152.458 1104.54,-159.351"/>
</g>
<!-- Node9&#45;&gt;Node6 -->
<g id="edge10" class="edge"><title>Node9&#45;&gt;Node6</title>
<path fill="none" stroke="midnightblue" d="M222.13,-155.907C380.272,-128.301 555.472,-112.234 648.695,-104.838"/>
<polygon fill="midnightblue" stroke="midnightblue" points="221.46,-152.471 212.22,-157.656 222.676,-159.364 221.46,-152.471"/>
</g>
<!-- Node10&#45;&gt;Node6 -->
<g id="edge12" class="edge"><title>Node10&#45;&gt;Node6</title>
<path fill="none" stroke="midnightblue" d="M385.819,-155.899C483.061,-136.062 584.416,-119.681 649,-109.785"/>
<polygon fill="midnightblue" stroke="midnightblue" points="384.907,-152.513 375.817,-157.955 386.317,-159.37 384.907,-152.513"/>
</g>
<!-- Node11&#45;&gt;Node6 -->
<g id="edge14" class="edge"><title>Node11&#45;&gt;Node6</title>
<path fill="none" stroke="midnightblue" d="M540.609,-153.442C575.81,-142.655 617.539,-129.867 651.35,-119.506"/>
<polygon fill="midnightblue" stroke="midnightblue" points="539.402,-150.152 530.866,-156.428 541.453,-156.844 539.402,-150.152"/>
</g>
<!-- Node12&#45;&gt;Node6 -->
<g id="edge17" class="edge"><title>Node12&#45;&gt;Node6</title>
<path fill="none" stroke="midnightblue" d="M658.017,-149.779C669.39,-139.843 682.128,-128.716 692.671,-119.506"/>
<polygon fill="midnightblue" stroke="midnightblue" points="655.633,-147.213 650.405,-156.428 660.238,-152.485 655.633,-147.213"/>
</g>
<!-- Node13&#45;&gt;Node6 -->
<g id="edge19" class="edge"><title>Node13&#45;&gt;Node6</title>
<path fill="none" stroke="midnightblue" d="M771.983,-149.779C760.61,-139.843 747.872,-128.716 737.329,-119.506"/>
<polygon fill="midnightblue" stroke="midnightblue" points="769.762,-152.485 779.595,-156.428 774.367,-147.213 769.762,-152.485"/>
</g>
<!-- Node17&#45;&gt;Node4 -->
<g id="edge29" class="edge"><title>Node17&#45;&gt;Node4</title>
<path fill="none" stroke="midnightblue" d="M726.931,-320.33C724.333,-307.629 721.37,-293.14 719.046,-281.78"/>
<polygon fill="midnightblue" stroke="midnightblue" points="723.572,-321.374 729.005,-330.47 730.43,-319.971 723.572,-321.374"/>
</g>
<!-- Node17&#45;&gt;Node7 -->
<g id="edge30" class="edge"><title>Node17&#45;&gt;Node7</title>
<path fill="none" stroke="midnightblue" d="M816.445,-340.827C963.384,-322.769 1258.61,-277.314 1320,-198 1331.43,-183.239 1321.77,-174.583 1320,-156 1316.65,-120.857 1331.12,-101.744 1305,-78 1265.6,-42.1866 904.16,-27.676 767.241,-23.4333"/>
<polygon fill="midnightblue" stroke="midnightblue" points="815.632,-337.4 806.127,-342.08 816.476,-344.349 815.632,-337.4"/>
</g>
<!-- Node17&#45;&gt;Node14 -->
<g id="edge31" class="edge"><title>Node17&#45;&gt;Node14</title>
<path fill="none" stroke="midnightblue" d="M649.652,-328.171C588.436,-312.138 506.921,-290.789 453.25,-276.732"/>
<polygon fill="midnightblue" stroke="midnightblue" points="649.118,-331.649 659.679,-330.797 650.892,-324.877 649.118,-331.649"/>
</g>
<!-- Node17&#45;&gt;Node15 -->
<g id="edge32" class="edge"><title>Node17&#45;&gt;Node15</title>
<path fill="none" stroke="midnightblue" d="M686.545,-325.81C663.379,-313.748 635.392,-299.175 612.015,-287.002"/>
<polygon fill="midnightblue" stroke="midnightblue" points="685.007,-328.956 695.493,-330.47 688.24,-322.747 685.007,-328.956"/>
</g>
</g>
</svg>
