<?xml version="1.0" encoding="UTF-8" standalone="no"?>
<!DOCTYPE svg PUBLIC "-//W3C//DTD SVG 1.1//EN"
 "http://www.w3.org/Graphics/SVG/1.1/DTD/svg11.dtd">
<!-- Generated by graphviz version 2.36.0 (20140111.2315)
 -->
<!-- Title: /home/travis/build/mgerhardy/simpleai/src/ai/tree/Steer.h Pages: 1 -->
<svg width="1352pt" height="542pt"
 viewBox="0.00 0.00 1351.68 542.00" xmlns="http://www.w3.org/2000/svg" xmlns:xlink="http://www.w3.org/1999/xlink">
<g id="graph0" class="graph" transform="scale(1 1) rotate(0) translate(4 538)">
<title>/home/travis/build/mgerhardy/simpleai/src/ai/tree/Steer.h</title>
<polygon fill="white" stroke="none" points="-4,4 -4,-538 1347.68,-538 1347.68,4 -4,4"/>
<!-- Node1 -->
<g id="node1" class="node"><title>Node1</title>
<polygon fill="#bfbfbf" stroke="black" points="611,-492.5 611,-533.5 715,-533.5 715,-492.5 611,-492.5"/>
<text text-anchor="start" x="619" y="-521.5" font-family="Helvetica,sans-Serif" font-size="10.00">/home/travis/build</text>
<text text-anchor="start" x="619" y="-510.5" font-family="Helvetica,sans-Serif" font-size="10.00">/mgerhardy/simpleai</text>
<text text-anchor="middle" x="663" y="-499.5" font-family="Helvetica,sans-Serif" font-size="10.00">/src/ai/tree/Steer.h</text>
</g>
<!-- Node2 -->
<g id="node2" class="node"><title>Node2</title>
<g id="a_node2"><a xlink:href="AIRegistry_8h.html" target="_top" xlink:title="/home/travis/build\l/mgerhardy/simpleai\l/src/ai/AIRegistry.h">
<polygon fill="white" stroke="black" points="611,-414.5 611,-455.5 715,-455.5 715,-414.5 611,-414.5"/>
<text text-anchor="start" x="619" y="-443.5" font-family="Helvetica,sans-Serif" font-size="10.00">/home/travis/build</text>
<text text-anchor="start" x="619" y="-432.5" font-family="Helvetica,sans-Serif" font-size="10.00">/mgerhardy/simpleai</text>
<text text-anchor="middle" x="663" y="-421.5" font-family="Helvetica,sans-Serif" font-size="10.00">/src/ai/AIRegistry.h</text>
</a>
</g>
</g>
<!-- Node1&#45;&gt;Node2 -->
<g id="edge1" class="edge"><title>Node1&#45;&gt;Node2</title>
<path fill="none" stroke="midnightblue" d="M663,-482.297C663,-473.301 663,-463.653 663,-455.506"/>
<polygon fill="midnightblue" stroke="midnightblue" points="659.5,-482.428 663,-492.428 666.5,-482.428 659.5,-482.428"/>
</g>
<!-- Node7 -->
<g id="node7" class="node"><title>Node7</title>
<g id="a_node7"><a xlink:href="SimpleAI_8h.html" target="_top" xlink:title="/home/travis/build\l/mgerhardy/simpleai\l/src/ai/SimpleAI.h">
<polygon fill="white" stroke="black" points="335,-0.5 335,-41.5 439,-41.5 439,-0.5 335,-0.5"/>
<text text-anchor="start" x="343" y="-29.5" font-family="Helvetica,sans-Serif" font-size="10.00">/home/travis/build</text>
<text text-anchor="start" x="343" y="-18.5" font-family="Helvetica,sans-Serif" font-size="10.00">/mgerhardy/simpleai</text>
<text text-anchor="middle" x="387" y="-7.5" font-family="Helvetica,sans-Serif" font-size="10.00">/src/ai/SimpleAI.h</text>
</a>
</g>
</g>
<!-- Node1&#45;&gt;Node7 -->
<g id="edge28" class="edge"><title>Node1&#45;&gt;Node7</title>
<path fill="none" stroke="midnightblue" d="M600.496,-510.17C435.352,-503.651 0,-474.816 0,-352 0,-352 0,-352 0,-176 0,-126.483 12.7156,-106.794 53,-78 97.3051,-46.3317 252.386,-31.1718 334.721,-25.2111"/>
<polygon fill="midnightblue" stroke="midnightblue" points="600.85,-513.686 610.976,-510.568 601.116,-506.691 600.85,-513.686"/>
</g>
<!-- Node17 -->
<g id="node17" class="node"><title>Node17</title>
<g id="a_node17"><a xlink:href="TreeNodeParser_8h.html" target="_top" xlink:title="/home/travis/build\l/mgerhardy/simpleai\l/src/ai/tree/TreeNodeParser.h">
<polygon fill="white" stroke="black" points="926,-330.5 926,-371.5 1072,-371.5 1072,-330.5 926,-330.5"/>
<text text-anchor="start" x="934" y="-359.5" font-family="Helvetica,sans-Serif" font-size="10.00">/home/travis/build</text>
<text text-anchor="start" x="934" y="-348.5" font-family="Helvetica,sans-Serif" font-size="10.00">/mgerhardy/simpleai</text>
<text text-anchor="middle" x="999" y="-337.5" font-family="Helvetica,sans-Serif" font-size="10.00">/src/ai/tree/TreeNodeParser.h</text>
</a>
</g>
</g>
<!-- Node1&#45;&gt;Node17 -->
<g id="edge29" class="edge"><title>Node1&#45;&gt;Node17</title>
<path fill="none" stroke="midnightblue" d="M713.266,-488.064C779.935,-456.317 896.343,-400.884 957.989,-371.529"/>
<polygon fill="midnightblue" stroke="midnightblue" points="711.724,-484.921 704.2,-492.381 714.734,-491.241 711.724,-484.921"/>
</g>
<!-- Node3 -->
<g id="node3" class="node"><title>Node3</title>
<g id="a_node3"><a xlink:href="ConditionParser_8h.html" target="_top" xlink:title="/home/travis/build\l/mgerhardy/simpleai\l/src/ai/conditions/Condition\lParser.h">
<polygon fill="white" stroke="black" points="595.5,-325 595.5,-377 730.5,-377 730.5,-325 595.5,-325"/>
<text text-anchor="start" x="603.5" y="-365" font-family="Helvetica,sans-Serif" font-size="10.00">/home/travis/build</text>
<text text-anchor="start" x="603.5" y="-354" font-family="Helvetica,sans-Serif" font-size="10.00">/mgerhardy/simpleai</text>
<text text-anchor="start" x="603.5" y="-343" font-family="Helvetica,sans-Serif" font-size="10.00">/src/ai/conditions/Condition</text>
<text text-anchor="middle" x="663" y="-332" font-family="Helvetica,sans-Serif" font-size="10.00">Parser.h</text>
</a>
</g>
</g>
<!-- Node2&#45;&gt;Node3 -->
<g id="edge2" class="edge"><title>Node2&#45;&gt;Node3</title>
<path fill="none" stroke="midnightblue" d="M663,-403.938C663,-395.176 663,-385.695 663,-377.261"/>
<polygon fill="midnightblue" stroke="midnightblue" points="659.5,-404.15 663,-414.15 666.5,-404.15 659.5,-404.15"/>
</g>
<!-- Node4 -->
<g id="node4" class="node"><title>Node4</title>
<g id="a_node4"><a xlink:href="Server_8h.html" target="_top" xlink:title="/home/travis/build\l/mgerhardy/simpleai\l/src/ai/server/Server.h">
<polygon fill="white" stroke="black" points="642.5,-240.5 642.5,-281.5 755.5,-281.5 755.5,-240.5 642.5,-240.5"/>
<text text-anchor="start" x="650.5" y="-269.5" font-family="Helvetica,sans-Serif" font-size="10.00">/home/travis/build</text>
<text text-anchor="start" x="650.5" y="-258.5" font-family="Helvetica,sans-Serif" font-size="10.00">/mgerhardy/simpleai</text>
<text text-anchor="middle" x="699" y="-247.5" font-family="Helvetica,sans-Serif" font-size="10.00">/src/ai/server/Server.h</text>
</a>
</g>
</g>
<!-- Node2&#45;&gt;Node4 -->
<g id="edge25" class="edge"><title>Node2&#45;&gt;Node4</title>
<path fill="none" stroke="midnightblue" d="M613.513,-408.555C602.477,-400.38 592.216,-390.207 586,-378 575.109,-356.613 573.774,-344.653 586,-324 598.425,-303.011 620.755,-288.655 642.303,-279.09"/>
<polygon fill="midnightblue" stroke="midnightblue" points="611.825,-411.642 622.049,-414.419 615.788,-405.872 611.825,-411.642"/>
</g>
<!-- Node2&#45;&gt;Node7 -->
<g id="edge26" class="edge"><title>Node2&#45;&gt;Node7</title>
<path fill="none" stroke="midnightblue" d="M600.736,-430.141C442.613,-418.645 38,-377.904 38,-262 38,-262 38,-262 38,-176 38,-47.851 237.392,-25.4434 334.751,-22.1405"/>
<polygon fill="midnightblue" stroke="midnightblue" points="600.565,-433.638 610.788,-430.856 601.062,-426.655 600.565,-433.638"/>
</g>
<!-- Node14 -->
<g id="node14" class="node"><title>Node14</title>
<g id="a_node14"><a xlink:href="LUATreeLoader_8h.html" target="_top" xlink:title="/home/travis/build\l/mgerhardy/simpleai\l/src/ai/tree/loaders\l/lua/LUATreeLoader.h">
<polygon fill="white" stroke="black" points="908,-235 908,-287 1020,-287 1020,-235 908,-235"/>
<text text-anchor="start" x="916" y="-275" font-family="Helvetica,sans-Serif" font-size="10.00">/home/travis/build</text>
<text text-anchor="start" x="916" y="-264" font-family="Helvetica,sans-Serif" font-size="10.00">/mgerhardy/simpleai</text>
<text text-anchor="start" x="916" y="-253" font-family="Helvetica,sans-Serif" font-size="10.00">/src/ai/tree/loaders</text>
<text text-anchor="middle" x="964" y="-242" font-family="Helvetica,sans-Serif" font-size="10.00">/lua/LUATreeLoader.h</text>
</a>
</g>
</g>
<!-- Node2&#45;&gt;Node14 -->
<g id="edge27" class="edge"><title>Node2&#45;&gt;Node14</title>
<path fill="none" stroke="midnightblue" d="M725.362,-429.068C770.98,-422.914 832.572,-409.083 878,-378 902.433,-361.282 899.39,-347.798 917,-324 925.999,-311.839 936.12,-298.452 944.658,-287.239"/>
<polygon fill="midnightblue" stroke="midnightblue" points="724.784,-425.613 715.3,-430.336 725.66,-432.558 724.784,-425.613"/>
</g>
<!-- Node16 -->
<g id="node16" class="node"><title>Node16</title>
<g id="a_node16"><a xlink:href="LUAAIRegistry_8h_source.html" target="_top" xlink:title="/home/travis/build\l/mgerhardy/simpleai\l/src/ai/LUAAIRegistry.h">
<polygon fill="white" stroke="black" points="748.5,-330.5 748.5,-371.5 869.5,-371.5 869.5,-330.5 748.5,-330.5"/>
<text text-anchor="start" x="756.5" y="-359.5" font-family="Helvetica,sans-Serif" font-size="10.00">/home/travis/build</text>
<text text-anchor="start" x="756.5" y="-348.5" font-family="Helvetica,sans-Serif" font-size="10.00">/mgerhardy/simpleai</text>
<text text-anchor="middle" x="809" y="-337.5" font-family="Helvetica,sans-Serif" font-size="10.00">/src/ai/LUAAIRegistry.h</text>
</a>
</g>
</g>
<!-- Node2&#45;&gt;Node16 -->
<g id="edge24" class="edge"><title>Node2&#45;&gt;Node16</title>
<path fill="none" stroke="midnightblue" d="M706.908,-409.339C728.401,-397.268 753.916,-382.938 774.062,-371.623"/>
<polygon fill="midnightblue" stroke="midnightblue" points="704.976,-406.41 697.971,-414.359 708.404,-412.514 704.976,-406.41"/>
</g>
<!-- Node3&#45;&gt;Node4 -->
<g id="edge3" class="edge"><title>Node3&#45;&gt;Node4</title>
<path fill="none" stroke="midnightblue" d="M677.235,-315.203C681.921,-303.749 686.962,-291.425 691.013,-281.525"/>
<polygon fill="midnightblue" stroke="midnightblue" points="673.96,-313.966 673.413,-324.547 680.438,-316.617 673.96,-313.966"/>
</g>
<!-- Node3&#45;&gt;Node7 -->
<g id="edge21" class="edge"><title>Node3&#45;&gt;Node7</title>
<path fill="none" stroke="midnightblue" d="M585.051,-340.775C443.806,-322.283 154.615,-275.666 95,-198 24.3602,-105.971 233.053,-51.6934 334.758,-31.3061"/>
<polygon fill="midnightblue" stroke="midnightblue" points="585.005,-344.298 595.371,-342.111 585.903,-337.356 585.005,-344.298"/>
</g>
<!-- Node3&#45;&gt;Node14 -->
<g id="edge22" class="edge"><title>Node3&#45;&gt;Node14</title>
<path fill="none" stroke="midnightblue" d="M740.566,-323.682C810.524,-304.634 831.734,-308.423 898,-288 901.178,-287.021 904.419,-285.959 907.676,-284.842"/>
<polygon fill="midnightblue" stroke="midnightblue" points="739.534,-320.336 730.839,-326.39 741.412,-327.08 739.534,-320.336"/>
</g>
<!-- Node15 -->
<g id="node15" class="node"><title>Node15</title>
<g id="a_node15"><a xlink:href="XMLTreeLoader_8h.html" target="_top" xlink:title="/home/travis/build\l/mgerhardy/simpleai\l/src/ai/tree/loaders\l/xml/XMLTreeLoader.h">
<polygon fill="white" stroke="black" points="774,-235 774,-287 890,-287 890,-235 774,-235"/>
<text text-anchor="start" x="782" y="-275" font-family="Helvetica,sans-Serif" font-size="10.00">/home/travis/build</text>
<text text-anchor="start" x="782" y="-264" font-family="Helvetica,sans-Serif" font-size="10.00">/mgerhardy/simpleai</text>
<text text-anchor="start" x="782" y="-253" font-family="Helvetica,sans-Serif" font-size="10.00">/src/ai/tree/loaders</text>
<text text-anchor="middle" x="832" y="-242" font-family="Helvetica,sans-Serif" font-size="10.00">/xml/XMLTreeLoader.h</text>
</a>
</g>
</g>
<!-- Node3&#45;&gt;Node15 -->
<g id="edge23" class="edge"><title>Node3&#45;&gt;Node15</title>
<path fill="none" stroke="midnightblue" d="M720.412,-320.105C741.047,-309.36 764.091,-297.361 783.857,-287.069"/>
<polygon fill="midnightblue" stroke="midnightblue" points="718.682,-317.06 711.429,-324.783 721.915,-323.269 718.682,-317.06"/>
</g>
<!-- Node5 -->
<g id="node5" class="node"><title>Node5</title>
<g id="a_node5"><a xlink:href="ChangeHandler_8h.html" target="_top" xlink:title="/home/travis/build\l/mgerhardy/simpleai\l/src/ai/server/ChangeHandler.h">
<polygon fill="white" stroke="black" points="104,-156.5 104,-197.5 256,-197.5 256,-156.5 104,-156.5"/>
<text text-anchor="start" x="112" y="-185.5" font-family="Helvetica,sans-Serif" font-size="10.00">/home/travis/build</text>
<text text-anchor="start" x="112" y="-174.5" font-family="Helvetica,sans-Serif" font-size="10.00">/mgerhardy/simpleai</text>
<text text-anchor="middle" x="180" y="-163.5" font-family="Helvetica,sans-Serif" font-size="10.00">/src/ai/server/ChangeHandler.h</text>
</a>
</g>
</g>
<!-- Node4&#45;&gt;Node5 -->
<g id="edge4" class="edge"><title>Node4&#45;&gt;Node5</title>
<path fill="none" stroke="midnightblue" d="M632.12,-252.325C546.622,-242.083 394.188,-222.376 265,-198 262.17,-197.466 259.291,-196.901 256.387,-196.313"/>
<polygon fill="midnightblue" stroke="midnightblue" points="631.865,-255.819 642.209,-253.527 632.693,-248.868 631.865,-255.819"/>
</g>
<!-- Node6 -->
<g id="node6" class="node"><title>Node6</title>
<g id="a_node6"><a xlink:href="ServerImpl_8h.html" target="_top" xlink:title="/home/travis/build\l/mgerhardy/simpleai\l/src/ai/server/ServerImpl.h">
<polygon fill="white" stroke="black" points="633,-78.5 633,-119.5 765,-119.5 765,-78.5 633,-78.5"/>
<text text-anchor="start" x="641" y="-107.5" font-family="Helvetica,sans-Serif" font-size="10.00">/home/travis/build</text>
<text text-anchor="start" x="641" y="-96.5" font-family="Helvetica,sans-Serif" font-size="10.00">/mgerhardy/simpleai</text>
<text text-anchor="middle" x="699" y="-85.5" font-family="Helvetica,sans-Serif" font-size="10.00">/src/ai/server/ServerImpl.h</text>
</a>
</g>
</g>
<!-- Node4&#45;&gt;Node6 -->
<g id="edge15" class="edge"><title>Node4&#45;&gt;Node6</title>
<path fill="none" stroke="midnightblue" d="M752.693,-237.303C756.813,-236.039 760.945,-234.914 765,-234 822.364,-221.071 1252.86,-240.971 1293,-198 1305.74,-184.359 1305.56,-169.805 1293,-156 1258.01,-117.554 912.623,-104.969 765.171,-101.327"/>
<polygon fill="midnightblue" stroke="midnightblue" points="751.534,-234 743.147,-240.472 753.74,-240.643 751.534,-234"/>
</g>
<!-- Node4&#45;&gt;Node7 -->
<g id="edge20" class="edge"><title>Node4&#45;&gt;Node7</title>
<path fill="none" stroke="midnightblue" d="M752.691,-237.293C756.811,-236.031 760.944,-234.909 765,-234 824.326,-220.699 1269.45,-242.383 1311,-198 1323.76,-184.373 1323.21,-170.116 1311,-156 1253.3,-89.309 625.957,-39.1685 439.174,-25.6347"/>
<polygon fill="midnightblue" stroke="midnightblue" points="751.534,-233.989 743.143,-240.458 753.737,-240.633 751.534,-233.989"/>
</g>
<!-- Node8 -->
<g id="node8" class="node"><title>Node8</title>
<g id="a_node8"><a xlink:href="DeleteNodeHandler_8h.html" target="_top" xlink:title="/home/travis/build\l/mgerhardy/simpleai\l/src/ai/server/DeleteNodeHandler.h">
<polygon fill="white" stroke="black" points="274,-156.5 274,-197.5 444,-197.5 444,-156.5 274,-156.5"/>
<text text-anchor="start" x="282" y="-185.5" font-family="Helvetica,sans-Serif" font-size="10.00">/home/travis/build</text>
<text text-anchor="start" x="282" y="-174.5" font-family="Helvetica,sans-Serif" font-size="10.00">/mgerhardy/simpleai</text>
<text text-anchor="middle" x="359" y="-163.5" font-family="Helvetica,sans-Serif" font-size="10.00">/src/ai/server/DeleteNodeHandler.h</text>
</a>
</g>
</g>
<!-- Node4&#45;&gt;Node8 -->
<g id="edge7" class="edge"><title>Node4&#45;&gt;Node8</title>
<path fill="none" stroke="midnightblue" d="M632.455,-243.951C577.282,-230.645 498.65,-211.68 439.856,-197.5"/>
<polygon fill="midnightblue" stroke="midnightblue" points="631.932,-247.425 642.474,-246.367 633.574,-240.62 631.932,-247.425"/>
</g>
<!-- Node9 -->
<g id="node9" class="node"><title>Node9</title>
<g id="a_node9"><a xlink:href="PauseHandler_8h.html" target="_top" xlink:title="/home/travis/build\l/mgerhardy/simpleai\l/src/ai/server/PauseHandler.h">
<polygon fill="white" stroke="black" points="462,-156.5 462,-197.5 608,-197.5 608,-156.5 462,-156.5"/>
<text text-anchor="start" x="470" y="-185.5" font-family="Helvetica,sans-Serif" font-size="10.00">/home/travis/build</text>
<text text-anchor="start" x="470" y="-174.5" font-family="Helvetica,sans-Serif" font-size="10.00">/mgerhardy/simpleai</text>
<text text-anchor="middle" x="535" y="-163.5" font-family="Helvetica,sans-Serif" font-size="10.00">/src/ai/server/PauseHandler.h</text>
</a>
</g>
</g>
<!-- Node4&#45;&gt;Node9 -->
<g id="edge9" class="edge"><title>Node4&#45;&gt;Node9</title>
<path fill="none" stroke="midnightblue" d="M650.646,-235.823C626.305,-223.652 597.178,-209.089 574.245,-197.623"/>
<polygon fill="midnightblue" stroke="midnightblue" points="649.208,-239.017 659.718,-240.359 652.339,-232.756 649.208,-239.017"/>
</g>
<!-- Node10 -->
<g id="node10" class="node"><title>Node10</title>
<g id="a_node10"><a xlink:href="ResetHandler_8h.html" target="_top" xlink:title="/home/travis/build\l/mgerhardy/simpleai\l/src/ai/server/ResetHandler.h">
<polygon fill="white" stroke="black" points="626.5,-156.5 626.5,-197.5 771.5,-197.5 771.5,-156.5 626.5,-156.5"/>
<text text-anchor="start" x="634.5" y="-185.5" font-family="Helvetica,sans-Serif" font-size="10.00">/home/travis/build</text>
<text text-anchor="start" x="634.5" y="-174.5" font-family="Helvetica,sans-Serif" font-size="10.00">/mgerhardy/simpleai</text>
<text text-anchor="middle" x="699" y="-163.5" font-family="Helvetica,sans-Serif" font-size="10.00">/src/ai/server/ResetHandler.h</text>
</a>
</g>
</g>
<!-- Node4&#45;&gt;Node10 -->
<g id="edge11" class="edge"><title>Node4&#45;&gt;Node10</title>
<path fill="none" stroke="midnightblue" d="M699,-229.881C699,-219.133 699,-207.309 699,-197.667"/>
<polygon fill="midnightblue" stroke="midnightblue" points="695.5,-230.15 699,-240.15 702.5,-230.15 695.5,-230.15"/>
</g>
<!-- Node11 -->
<g id="node11" class="node"><title>Node11</title>
<g id="a_node11"><a xlink:href="SelectHandler_8h.html" target="_top" xlink:title="/home/travis/build\l/mgerhardy/simpleai\l/src/ai/server/SelectHandler.h">
<polygon fill="white" stroke="black" points="790,-156.5 790,-197.5 936,-197.5 936,-156.5 790,-156.5"/>
<text text-anchor="start" x="798" y="-185.5" font-family="Helvetica,sans-Serif" font-size="10.00">/home/travis/build</text>
<text text-anchor="start" x="798" y="-174.5" font-family="Helvetica,sans-Serif" font-size="10.00">/mgerhardy/simpleai</text>
<text text-anchor="middle" x="863" y="-163.5" font-family="Helvetica,sans-Serif" font-size="10.00">/src/ai/server/SelectHandler.h</text>
</a>
</g>
</g>
<!-- Node4&#45;&gt;Node11 -->
<g id="edge13" class="edge"><title>Node4&#45;&gt;Node11</title>
<path fill="none" stroke="midnightblue" d="M747.354,-235.823C771.695,-223.652 800.822,-209.089 823.755,-197.623"/>
<polygon fill="midnightblue" stroke="midnightblue" points="745.661,-232.756 738.282,-240.359 748.792,-239.017 745.661,-232.756"/>
</g>
<!-- Node12 -->
<g id="node12" class="node"><title>Node12</title>
<g id="a_node12"><a xlink:href="StepHandler_8h.html" target="_top" xlink:title="/home/travis/build\l/mgerhardy/simpleai\l/src/ai/server/StepHandler.h">
<polygon fill="white" stroke="black" points="954.5,-156.5 954.5,-197.5 1093.5,-197.5 1093.5,-156.5 954.5,-156.5"/>
<text text-anchor="start" x="962.5" y="-185.5" font-family="Helvetica,sans-Serif" font-size="10.00">/home/travis/build</text>
<text text-anchor="start" x="962.5" y="-174.5" font-family="Helvetica,sans-Serif" font-size="10.00">/mgerhardy/simpleai</text>
<text text-anchor="middle" x="1024" y="-163.5" font-family="Helvetica,sans-Serif" font-size="10.00">/src/ai/server/StepHandler.h</text>
</a>
</g>
</g>
<!-- Node4&#45;&gt;Node12 -->
<g id="edge16" class="edge"><title>Node4&#45;&gt;Node12</title>
<path fill="none" stroke="midnightblue" d="M754.989,-237.164C758.356,-236.034 761.711,-234.968 765,-234 843.263,-210.958 865.43,-216.017 945,-198 948.036,-197.313 951.133,-196.596 954.259,-195.859"/>
<polygon fill="midnightblue" stroke="midnightblue" points="753.789,-233.876 745.513,-240.491 756.108,-240.48 753.789,-233.876"/>
</g>
<!-- Node13 -->
<g id="node13" class="node"><title>Node13</title>
<g id="a_node13"><a xlink:href="UpdateNodeHandler_8h.html" target="_top" xlink:title="/home/travis/build\l/mgerhardy/simpleai\l/src/ai/server/UpdateNodeHandler.h">
<polygon fill="white" stroke="black" points="1111.5,-156.5 1111.5,-197.5 1284.5,-197.5 1284.5,-156.5 1111.5,-156.5"/>
<text text-anchor="start" x="1119.5" y="-185.5" font-family="Helvetica,sans-Serif" font-size="10.00">/home/travis/build</text>
<text text-anchor="start" x="1119.5" y="-174.5" font-family="Helvetica,sans-Serif" font-size="10.00">/mgerhardy/simpleai</text>
<text text-anchor="middle" x="1198" y="-163.5" font-family="Helvetica,sans-Serif" font-size="10.00">/src/ai/server/UpdateNodeHandler.h</text>
</a>
</g>
</g>
<!-- Node4&#45;&gt;Node13 -->
<g id="edge18" class="edge"><title>Node4&#45;&gt;Node13</title>
<path fill="none" stroke="midnightblue" d="M753.476,-237.244C757.34,-236.032 761.206,-234.932 765,-234 911.282,-198.071 953.197,-221.389 1102,-198 1105.11,-197.511 1108.27,-196.988 1111.47,-196.439"/>
<polygon fill="midnightblue" stroke="midnightblue" points="752.286,-233.952 743.923,-240.457 754.517,-240.587 752.286,-233.952"/>
</g>
<!-- Node5&#45;&gt;Node6 -->
<g id="edge5" class="edge"><title>Node5&#45;&gt;Node6</title>
<path fill="none" stroke="midnightblue" d="M266.52,-155.809C401.932,-131.633 549.578,-114.929 632.869,-106.396"/>
<polygon fill="midnightblue" stroke="midnightblue" points="265.598,-152.419 256.378,-157.638 266.84,-159.307 265.598,-152.419"/>
</g>
<!-- Node6&#45;&gt;Node7 -->
<g id="edge6" class="edge"><title>Node6&#45;&gt;Node7</title>
<path fill="none" stroke="midnightblue" d="M622.785,-79.4348C565.78,-65.549 489.327,-46.9257 439.145,-34.702"/>
<polygon fill="midnightblue" stroke="midnightblue" points="622.289,-82.9162 632.833,-81.8824 623.945,-76.115 622.289,-82.9162"/>
</g>
<!-- Node8&#45;&gt;Node6 -->
<g id="edge8" class="edge"><title>Node8&#45;&gt;Node6</title>
<path fill="none" stroke="midnightblue" d="M454.45,-154.664C511.354,-141.944 582.155,-126.118 632.91,-114.773"/>
<polygon fill="midnightblue" stroke="midnightblue" points="453.353,-151.323 444.357,-156.92 454.88,-158.154 453.353,-151.323"/>
</g>
<!-- Node9&#45;&gt;Node6 -->
<g id="edge10" class="edge"><title>Node9&#45;&gt;Node6</title>
<path fill="none" stroke="midnightblue" d="M586.382,-152.189C609.07,-141.675 635.41,-129.469 656.909,-119.506"/>
<polygon fill="midnightblue" stroke="midnightblue" points="584.836,-149.048 577.234,-156.428 587.779,-155.399 584.836,-149.048"/>
</g>
<!-- Node10&#45;&gt;Node6 -->
<g id="edge12" class="edge"><title>Node10&#45;&gt;Node6</title>
<path fill="none" stroke="midnightblue" d="M699,-146.297C699,-137.301 699,-127.653 699,-119.506"/>
<polygon fill="midnightblue" stroke="midnightblue" points="695.5,-146.428 699,-156.428 702.5,-146.428 695.5,-146.428"/>
</g>
<!-- Node11&#45;&gt;Node6 -->
<g id="edge14" class="edge"><title>Node11&#45;&gt;Node6</title>
<path fill="none" stroke="midnightblue" d="M811.618,-152.189C788.93,-141.675 762.59,-129.469 741.091,-119.506"/>
<polygon fill="midnightblue" stroke="midnightblue" points="810.221,-155.399 820.766,-156.428 813.164,-149.048 810.221,-155.399"/>
</g>
<!-- Node12&#45;&gt;Node6 -->
<g id="edge17" class="edge"><title>Node12&#45;&gt;Node6</title>
<path fill="none" stroke="midnightblue" d="M944.393,-155.879C877.735,-139.923 812.397,-125.14 765.141,-114.602"/>
<polygon fill="midnightblue" stroke="midnightblue" points="943.695,-159.31 954.236,-158.241 945.329,-152.504 943.695,-159.31"/>
</g>
<!-- Node13&#45;&gt;Node6 -->
<g id="edge19" class="edge"><title>Node13&#45;&gt;Node6</title>
<path fill="none" stroke="midnightblue" d="M1101.33,-155.943C976.585,-134.569 843.09,-117.313 765.179,-107.809"/>
<polygon fill="midnightblue" stroke="midnightblue" points="1100.99,-159.436 1111.44,-157.688 1102.19,-152.538 1100.99,-159.436"/>
</g>
<!-- Node17&#45;&gt;Node4 -->
<g id="edge30" class="edge"><title>Node17&#45;&gt;Node4</title>
<path fill="none" stroke="midnightblue" d="M916.164,-330.548C871.091,-319.34 814.571,-304.27 765,-288 759.032,-286.041 752.823,-283.831 746.705,-281.547"/>
<polygon fill="midnightblue" stroke="midnightblue" points="915.346,-333.951 925.894,-332.952 917.025,-327.155 915.346,-333.951"/>
</g>
<!-- Node17&#45;&gt;Node7 -->
<g id="edge31" class="edge"><title>Node17&#45;&gt;Node7</title>
<path fill="none" stroke="midnightblue" d="M1081.9,-335.866C1200.84,-311.815 1398.36,-255.59 1329,-156 1271.86,-73.9572 1215.67,-99.3572 1118,-78 988.216,-49.6213 584.031,-30.2884 439.251,-24.1186"/>
<polygon fill="midnightblue" stroke="midnightblue" points="1081.19,-332.438 1072.06,-337.818 1082.55,-339.304 1081.19,-332.438"/>
</g>
<!-- Node17&#45;&gt;Node14 -->
<g id="edge32" class="edge"><title>Node17&#45;&gt;Node14</title>
<path fill="none" stroke="midnightblue" d="M987.436,-320.925C983.094,-310.008 978.199,-297.699 974.009,-287.166"/>
<polygon fill="midnightblue" stroke="midnightblue" points="984.284,-322.471 991.232,-330.47 990.789,-319.884 984.284,-322.471"/>
</g>
<!-- Node17&#45;&gt;Node15 -->
<g id="edge33" class="edge"><title>Node17&#45;&gt;Node15</title>
<path fill="none" stroke="midnightblue" d="M952.791,-325.65C929.959,-313.619 902.445,-299.121 879.447,-287.002"/>
<polygon fill="midnightblue" stroke="midnightblue" points="951.459,-328.904 961.937,-330.47 954.722,-322.712 951.459,-328.904"/>
</g>
</g>
</svg>
