<?xml version="1.0" encoding="UTF-8" standalone="no"?>
<!DOCTYPE svg PUBLIC "-//W3C//DTD SVG 1.1//EN"
 "http://www.w3.org/Graphics/SVG/1.1/DTD/svg11.dtd">
<!-- Generated by graphviz version 2.36.0 (20140111.2315)
 -->
<!-- Title: /home/travis/build/mgerhardy/simpleai/src/ai/movement/Steering.h Pages: 1 -->
<!--zoomable 698 -->
<svg id="main" version="1.1" xmlns="http://www.w3.org/2000/svg" xmlns:xlink="http://www.w3.org/1999/xlink" xml:space="preserve" onload="init(evt)">
<style type="text/css"><![CDATA[
.edge:hover path { stroke: red; }
.edge:hover polygon { stroke: red; fill: red; }
]]></style>
<script type="text/javascript"><![CDATA[
var edges = document.getElementsByTagName('g');
if (edges && edges.length) {
  for (var i=0;i<edges.length;i++) {
    if (edges[i].id.substr(0,4)=='edge') {
      edges[i].setAttribute('class','edge');
    }
  }
}
]]></script>
        <defs>
                <circle id="rim" cx="0" cy="0" r="7"/>
                <circle id="rim2" cx="0" cy="0" r="3.5"/>
                <g id="zoomPlus">
                        <use xlink:href="#rim" fill="#404040">
                                <set attributeName="fill" to="#808080" begin="zoomplus.mouseover" end="zoomplus.mouseout"/>
                        </use>
                        <path d="M-4,0h8M0,-4v8" fill="none" stroke="white" stroke-width="1.5" pointer-events="none"/>
                </g>
                <g id="zoomMin">
                        <use xlink:href="#rim" fill="#404040">
                                <set attributeName="fill" to="#808080" begin="zoomminus.mouseover" end="zoomminus.mouseout"/>
                        </use>
                        <path d="M-4,0h8" fill="none" stroke="white" stroke-width="1.5" pointer-events="none"/>
                </g>
                <g id="dirArrow">
                        <path fill="none" stroke="white" stroke-width="1.5" d="M0,-3.0v7 M-2.5,-0.5L0,-3.0L2.5,-0.5"/>
                </g>
               <g id="resetDef">
                       <use xlink:href="#rim2" fill="#404040">
                               <set attributeName="fill" to="#808080" begin="reset.mouseover" end="reset.mouseout"/>
                       </use>
               </g>
        </defs>

<script type="text/javascript">
var viewWidth = 1869;
var viewHeight = 698;
var sectionId = 'dynsection-1';
</script>
<script xlink:href="svgpan.js"/>
<svg id="graph" class="graph">
<g id="viewport">
<title>/home/travis/build/mgerhardy/simpleai/src/ai/movement/Steering.h</title>
<polygon fill="white" stroke="none" points="-4,4 -4,-694 1865,-694 1865,4 -4,4"/>
<!-- Node1 -->
<g id="node1" class="node"><title>Node1</title>
<polygon fill="#bfbfbf" stroke="black" points="1070,-648.5 1070,-689.5 1210,-689.5 1210,-648.5 1070,-648.5"/>
<text text-anchor="start" x="1078" y="-677.5" font-family="Helvetica,sans-Serif" font-size="10.00">/home/travis/build</text>
<text text-anchor="start" x="1078" y="-666.5" font-family="Helvetica,sans-Serif" font-size="10.00">/mgerhardy/simpleai</text>
<text text-anchor="middle" x="1140" y="-655.5" font-family="Helvetica,sans-Serif" font-size="10.00">/src/ai/movement/Steering.h</text>
</g>
<!-- Node2 -->
<g id="node2" class="node"><title>Node2</title>
<g id="a_node2"><a xlink:href="Steer_8h.html" target="_top" xlink:title="/home/travis/build\l/mgerhardy/simpleai\l/src/ai/tree/Steer.h">
<polygon fill="white" stroke="black" points="914,-492.5 914,-533.5 1018,-533.5 1018,-492.5 914,-492.5"/>
<text text-anchor="start" x="922" y="-521.5" font-family="Helvetica,sans-Serif" font-size="10.00">/home/travis/build</text>
<text text-anchor="start" x="922" y="-510.5" font-family="Helvetica,sans-Serif" font-size="10.00">/mgerhardy/simpleai</text>
<text text-anchor="middle" x="966" y="-499.5" font-family="Helvetica,sans-Serif" font-size="10.00">/src/ai/tree/Steer.h</text>
</a>
</g>
</g>
<!-- Node1&#45;&gt;Node2 -->
<g id="edge1" class="edge"><title>Node1&#45;&gt;Node2</title>
<path fill="none" stroke="midnightblue" d="M1059.73,-662.614C987.834,-655.919 890.119,-641.547 866,-612 854.196,-597.539 856.561,-586.104 866,-570 876.615,-551.889 895.464,-539.195 913.958,-530.529"/>
<polygon fill="midnightblue" stroke="midnightblue" points="1059.42,-666.1 1069.69,-663.508 1060.04,-659.128 1059.42,-666.1"/>
</g>
<!-- Node3 -->
<g id="node3" class="node"><title>Node3</title>
<g id="a_node3"><a xlink:href="AIRegistry_8h.html" target="_top" xlink:title="/home/travis/build\l/mgerhardy/simpleai\l/src/ai/AIRegistry.h">
<polygon fill="white" stroke="black" points="1073,-414.5 1073,-455.5 1177,-455.5 1177,-414.5 1073,-414.5"/>
<text text-anchor="start" x="1081" y="-443.5" font-family="Helvetica,sans-Serif" font-size="10.00">/home/travis/build</text>
<text text-anchor="start" x="1081" y="-432.5" font-family="Helvetica,sans-Serif" font-size="10.00">/mgerhardy/simpleai</text>
<text text-anchor="middle" x="1125" y="-421.5" font-family="Helvetica,sans-Serif" font-size="10.00">/src/ai/AIRegistry.h</text>
</a>
</g>
</g>
<!-- Node1&#45;&gt;Node3 -->
<g id="edge46" class="edge"><title>Node1&#45;&gt;Node3</title>
<path fill="none" stroke="midnightblue" d="M1117.6,-640.003C1112.05,-631.496 1106.88,-621.794 1104,-612 1087.83,-556.936 1106.36,-488.692 1117.62,-455.697"/>
<polygon fill="midnightblue" stroke="midnightblue" points="1114.85,-642.179 1123.43,-648.39 1120.6,-638.182 1114.85,-642.179"/>
</g>
<!-- Node8 -->
<g id="node8" class="node"><title>Node8</title>
<g id="a_node8"><a xlink:href="SimpleAI_8h.html" target="_top" xlink:title="/home/travis/build\l/mgerhardy/simpleai\l/src/ai/SimpleAI.h">
<polygon fill="white" stroke="black" points="1133,-0.5 1133,-41.5 1237,-41.5 1237,-0.5 1133,-0.5"/>
<text text-anchor="start" x="1141" y="-29.5" font-family="Helvetica,sans-Serif" font-size="10.00">/home/travis/build</text>
<text text-anchor="start" x="1141" y="-18.5" font-family="Helvetica,sans-Serif" font-size="10.00">/mgerhardy/simpleai</text>
<text text-anchor="middle" x="1185" y="-7.5" font-family="Helvetica,sans-Serif" font-size="10.00">/src/ai/SimpleAI.h</text>
</a>
</g>
</g>
<!-- Node1&#45;&gt;Node8 -->
<g id="edge62" class="edge"><title>Node1&#45;&gt;Node8</title>
<path fill="none" stroke="midnightblue" d="M1059.87,-665.615C800.418,-656.843 0,-621.101 0,-514 0,-514 0,-514 0,-176 0,-129.285 0.111152,-105.327 38,-78 82.9223,-45.6004 914.349,-27.2494 1132.79,-22.9739"/>
<polygon fill="midnightblue" stroke="midnightblue" points="1059.87,-669.117 1069.98,-665.953 1060.1,-662.121 1059.87,-669.117"/>
</g>
<!-- Node19 -->
<g id="node19" class="node"><title>Node19</title>
<g id="a_node19"><a xlink:href="SelectionSeek_8h.html" target="_top" xlink:title="/home/travis/build\l/mgerhardy/simpleai\l/src/ai/movement/SelectionSeek.h">
<polygon fill="white" stroke="black" points="27.5,-492.5 27.5,-533.5 194.5,-533.5 194.5,-492.5 27.5,-492.5"/>
<text text-anchor="start" x="35.5" y="-521.5" font-family="Helvetica,sans-Serif" font-size="10.00">/home/travis/build</text>
<text text-anchor="start" x="35.5" y="-510.5" font-family="Helvetica,sans-Serif" font-size="10.00">/mgerhardy/simpleai</text>
<text text-anchor="middle" x="111" y="-499.5" font-family="Helvetica,sans-Serif" font-size="10.00">/src/ai/movement/SelectionSeek.h</text>
</a>
</g>
</g>
<!-- Node1&#45;&gt;Node19 -->
<g id="edge35" class="edge"><title>Node1&#45;&gt;Node19</title>
<path fill="none" stroke="midnightblue" d="M1059.34,-663.246C946.957,-655.934 737.113,-639.778 560,-612 427.775,-591.262 276.044,-555.622 187.146,-533.515"/>
<polygon fill="midnightblue" stroke="midnightblue" points="1059.37,-666.755 1069.58,-663.905 1059.82,-659.77 1059.37,-666.755"/>
</g>
<!-- Node20 -->
<g id="node20" class="node"><title>Node20</title>
<g id="a_node20"><a xlink:href="SelectionFlee_8h.html" target="_top" xlink:title="/home/travis/build\l/mgerhardy/simpleai\l/src/ai/movement/SelectionFlee.h">
<polygon fill="white" stroke="black" points="1113.5,-570.5 1113.5,-611.5 1276.5,-611.5 1276.5,-570.5 1113.5,-570.5"/>
<text text-anchor="start" x="1121.5" y="-599.5" font-family="Helvetica,sans-Serif" font-size="10.00">/home/travis/build</text>
<text text-anchor="start" x="1121.5" y="-588.5" font-family="Helvetica,sans-Serif" font-size="10.00">/mgerhardy/simpleai</text>
<text text-anchor="middle" x="1195" y="-577.5" font-family="Helvetica,sans-Serif" font-size="10.00">/src/ai/movement/SelectionFlee.h</text>
</a>
</g>
</g>
<!-- Node1&#45;&gt;Node20 -->
<g id="edge38" class="edge"><title>Node1&#45;&gt;Node20</title>
<path fill="none" stroke="midnightblue" d="M1160.23,-640.048C1167.09,-630.566 1174.6,-620.185 1180.88,-611.506"/>
<polygon fill="midnightblue" stroke="midnightblue" points="1157.19,-638.275 1154.16,-648.428 1162.86,-642.379 1157.19,-638.275"/>
</g>
<!-- Node21 -->
<g id="node21" class="node"><title>Node21</title>
<g id="a_node21"><a xlink:href="GroupFlee_8h.html" target="_top" xlink:title="/home/travis/build\l/mgerhardy/simpleai\l/src/ai/movement/GroupFlee.h">
<polygon fill="white" stroke="black" points="212.5,-492.5 212.5,-533.5 361.5,-533.5 361.5,-492.5 212.5,-492.5"/>
<text text-anchor="start" x="220.5" y="-521.5" font-family="Helvetica,sans-Serif" font-size="10.00">/home/travis/build</text>
<text text-anchor="start" x="220.5" y="-510.5" font-family="Helvetica,sans-Serif" font-size="10.00">/mgerhardy/simpleai</text>
<text text-anchor="middle" x="287" y="-499.5" font-family="Helvetica,sans-Serif" font-size="10.00">/src/ai/movement/GroupFlee.h</text>
</a>
</g>
</g>
<!-- Node1&#45;&gt;Node21 -->
<g id="edge40" class="edge"><title>Node1&#45;&gt;Node21</title>
<path fill="none" stroke="midnightblue" d="M1059.72,-655.296C920.116,-632.902 623.734,-584.017 375,-534 370.699,-533.135 366.287,-532.22 361.838,-531.277"/>
<polygon fill="midnightblue" stroke="midnightblue" points="1059.48,-658.801 1069.9,-656.927 1060.58,-651.89 1059.48,-658.801"/>
</g>
<!-- Node22 -->
<g id="node22" class="node"><title>Node22</title>
<g id="a_node22"><a xlink:href="GroupSeek_8h.html" target="_top" xlink:title="/home/travis/build\l/mgerhardy/simpleai\l/src/ai/movement/GroupSeek.h">
<polygon fill="white" stroke="black" points="1152,-492.5 1152,-533.5 1304,-533.5 1304,-492.5 1152,-492.5"/>
<text text-anchor="start" x="1160" y="-521.5" font-family="Helvetica,sans-Serif" font-size="10.00">/home/travis/build</text>
<text text-anchor="start" x="1160" y="-510.5" font-family="Helvetica,sans-Serif" font-size="10.00">/mgerhardy/simpleai</text>
<text text-anchor="middle" x="1228" y="-499.5" font-family="Helvetica,sans-Serif" font-size="10.00">/src/ai/movement/GroupSeek.h</text>
</a>
</g>
</g>
<!-- Node1&#45;&gt;Node22 -->
<g id="edge43" class="edge"><title>Node1&#45;&gt;Node22</title>
<path fill="none" stroke="midnightblue" d="M1219.77,-655.475C1244.85,-647.364 1269.91,-634.004 1285,-612 1295.56,-596.606 1292.22,-587.214 1285,-570 1278.99,-555.672 1267.33,-543.162 1256.11,-533.622"/>
<polygon fill="midnightblue" stroke="midnightblue" points="1218.76,-652.124 1210.18,-658.334 1220.76,-658.832 1218.76,-652.124"/>
</g>
<!-- Node23 -->
<g id="node23" class="node"><title>Node23</title>
<g id="a_node23"><a xlink:href="TargetFlee_8h.html" target="_top" xlink:title="/home/travis/build\l/mgerhardy/simpleai\l/src/ai/movement/TargetFlee.h">
<polygon fill="white" stroke="black" points="1322,-492.5 1322,-533.5 1472,-533.5 1472,-492.5 1322,-492.5"/>
<text text-anchor="start" x="1330" y="-521.5" font-family="Helvetica,sans-Serif" font-size="10.00">/home/travis/build</text>
<text text-anchor="start" x="1330" y="-510.5" font-family="Helvetica,sans-Serif" font-size="10.00">/mgerhardy/simpleai</text>
<text text-anchor="middle" x="1397" y="-499.5" font-family="Helvetica,sans-Serif" font-size="10.00">/src/ai/movement/TargetFlee.h</text>
</a>
</g>
</g>
<!-- Node1&#45;&gt;Node23 -->
<g id="edge47" class="edge"><title>Node1&#45;&gt;Node23</title>
<path fill="none" stroke="midnightblue" d="M1219.94,-648.839C1247.56,-640.118 1277.85,-628.069 1303,-612 1336.18,-590.801 1366.07,-555.556 1382.85,-533.612"/>
<polygon fill="midnightblue" stroke="midnightblue" points="1218.84,-645.516 1210.3,-651.786 1220.89,-652.21 1218.84,-645.516"/>
</g>
<!-- Node24 -->
<g id="node24" class="node"><title>Node24</title>
<g id="a_node24"><a xlink:href="TargetSeek_8h.html" target="_top" xlink:title="/home/travis/build\l/mgerhardy/simpleai\l/src/ai/movement/TargetSeek.h">
<polygon fill="white" stroke="black" points="1490,-492.5 1490,-533.5 1644,-533.5 1644,-492.5 1490,-492.5"/>
<text text-anchor="start" x="1498" y="-521.5" font-family="Helvetica,sans-Serif" font-size="10.00">/home/travis/build</text>
<text text-anchor="start" x="1498" y="-510.5" font-family="Helvetica,sans-Serif" font-size="10.00">/mgerhardy/simpleai</text>
<text text-anchor="middle" x="1567" y="-499.5" font-family="Helvetica,sans-Serif" font-size="10.00">/src/ai/movement/TargetSeek.h</text>
</a>
</g>
</g>
<!-- Node1&#45;&gt;Node24 -->
<g id="edge50" class="edge"><title>Node1&#45;&gt;Node24</title>
<path fill="none" stroke="midnightblue" d="M1219.82,-648.46C1257.02,-638.668 1301.66,-625.935 1341,-612 1407.31,-588.51 1481.72,-554.744 1526.44,-533.607"/>
<polygon fill="midnightblue" stroke="midnightblue" points="1218.83,-645.102 1210.04,-651.014 1220.6,-651.876 1218.83,-645.102"/>
</g>
<!-- Node25 -->
<g id="node25" class="node"><title>Node25</title>
<g id="a_node25"><a xlink:href="Wander_8h.html" target="_top" xlink:title="/home/travis/build\l/mgerhardy/simpleai\l/src/ai/movement/Wander.h">
<polygon fill="white" stroke="black" points="1700.5,-492.5 1700.5,-533.5 1837.5,-533.5 1837.5,-492.5 1700.5,-492.5"/>
<text text-anchor="start" x="1708.5" y="-521.5" font-family="Helvetica,sans-Serif" font-size="10.00">/home/travis/build</text>
<text text-anchor="start" x="1708.5" y="-510.5" font-family="Helvetica,sans-Serif" font-size="10.00">/mgerhardy/simpleai</text>
<text text-anchor="middle" x="1769" y="-499.5" font-family="Helvetica,sans-Serif" font-size="10.00">/src/ai/movement/Wander.h</text>
</a>
</g>
</g>
<!-- Node1&#45;&gt;Node25 -->
<g id="edge53" class="edge"><title>Node1&#45;&gt;Node25</title>
<path fill="none" stroke="midnightblue" d="M1220.17,-667.049C1351.84,-664.292 1607.13,-653.576 1686,-612 1719.53,-594.324 1745.13,-556.908 1758.54,-533.764"/>
<polygon fill="midnightblue" stroke="midnightblue" points="1220.07,-663.55 1210.14,-667.249 1220.21,-670.549 1220.07,-663.55"/>
</g>
<!-- Node26 -->
<g id="node26" class="node"><title>Node26</title>
<g id="a_node26"><a xlink:href="WeightedSteering_8h.html" target="_top" xlink:title="/home/travis/build\l/mgerhardy/simpleai\l/src/ai/movement/WeightedSteering.h">
<polygon fill="white" stroke="black" points="875.5,-570.5 875.5,-611.5 1056.5,-611.5 1056.5,-570.5 875.5,-570.5"/>
<text text-anchor="start" x="883.5" y="-599.5" font-family="Helvetica,sans-Serif" font-size="10.00">/home/travis/build</text>
<text text-anchor="start" x="883.5" y="-588.5" font-family="Helvetica,sans-Serif" font-size="10.00">/mgerhardy/simpleai</text>
<text text-anchor="middle" x="966" y="-577.5" font-family="Helvetica,sans-Serif" font-size="10.00">/src/ai/movement/WeightedSteering.h</text>
</a>
</g>
</g>
<!-- Node1&#45;&gt;Node26 -->
<g id="edge56" class="edge"><title>Node1&#45;&gt;Node26</title>
<path fill="none" stroke="midnightblue" d="M1085.81,-644.329C1061.66,-633.783 1033.57,-621.513 1010.66,-611.506"/>
<polygon fill="midnightblue" stroke="midnightblue" points="1084.63,-647.633 1095.19,-648.428 1087.43,-641.218 1084.63,-647.633"/>
</g>
<!-- Node27 -->
<g id="node27" class="node"><title>Node27</title>
<g id="a_node27"><a xlink:href="LUASteering_8h.html" target="_top" xlink:title="/home/travis/build\l/mgerhardy/simpleai\l/src/ai/movement/LUASteering.h">
<polygon fill="white" stroke="black" points="1636.5,-414.5 1636.5,-455.5 1795.5,-455.5 1795.5,-414.5 1636.5,-414.5"/>
<text text-anchor="start" x="1644.5" y="-443.5" font-family="Helvetica,sans-Serif" font-size="10.00">/home/travis/build</text>
<text text-anchor="start" x="1644.5" y="-432.5" font-family="Helvetica,sans-Serif" font-size="10.00">/mgerhardy/simpleai</text>
<text text-anchor="middle" x="1716" y="-421.5" font-family="Helvetica,sans-Serif" font-size="10.00">/src/ai/movement/LUASteering.h</text>
</a>
</g>
</g>
<!-- Node1&#45;&gt;Node27 -->
<g id="edge60" class="edge"><title>Node1&#45;&gt;Node27</title>
<path fill="none" stroke="midnightblue" d="M1220.25,-665.811C1328.86,-658.995 1523.88,-632.7 1653,-534 1679.84,-513.486 1698.47,-478.033 1708.18,-455.86"/>
<polygon fill="midnightblue" stroke="midnightblue" points="1219.79,-662.332 1210.01,-666.411 1220.2,-669.32 1219.79,-662.332"/>
</g>
<!-- Node2&#45;&gt;Node3 -->
<g id="edge2" class="edge"><title>Node2&#45;&gt;Node3</title>
<path fill="none" stroke="midnightblue" d="M1016.11,-488.049C1038.04,-477.566 1063.44,-465.424 1084.19,-455.506"/>
<polygon fill="midnightblue" stroke="midnightblue" points="1014.46,-484.958 1006.95,-492.428 1017.48,-491.273 1014.46,-484.958"/>
</g>
<!-- Node2&#45;&gt;Node8 -->
<g id="edge29" class="edge"><title>Node2&#45;&gt;Node8</title>
<path fill="none" stroke="midnightblue" d="M903.717,-506.361C713.338,-488.297 152,-428.544 152,-352 152,-352 152,-352 152,-176 152,-99.6836 220.927,-103.094 293,-78 449.613,-23.4724 966.561,-20.9607 1132.93,-21.6168"/>
<polygon fill="midnightblue" stroke="midnightblue" points="903.558,-509.861 913.842,-507.315 904.215,-502.892 903.558,-509.861"/>
</g>
<!-- Node18 -->
<g id="node18" class="node"><title>Node18</title>
<g id="a_node18"><a xlink:href="TreeNodeParser_8h.html" target="_top" xlink:title="/home/travis/build\l/mgerhardy/simpleai\l/src/ai/tree/TreeNodeParser.h">
<polygon fill="white" stroke="black" points="893,-330.5 893,-371.5 1039,-371.5 1039,-330.5 893,-330.5"/>
<text text-anchor="start" x="901" y="-359.5" font-family="Helvetica,sans-Serif" font-size="10.00">/home/travis/build</text>
<text text-anchor="start" x="901" y="-348.5" font-family="Helvetica,sans-Serif" font-size="10.00">/mgerhardy/simpleai</text>
<text text-anchor="middle" x="966" y="-337.5" font-family="Helvetica,sans-Serif" font-size="10.00">/src/ai/tree/TreeNodeParser.h</text>
</a>
</g>
</g>
<!-- Node2&#45;&gt;Node18 -->
<g id="edge30" class="edge"><title>Node2&#45;&gt;Node18</title>
<path fill="none" stroke="midnightblue" d="M966,-482.206C966,-449.962 966,-399.458 966,-371.78"/>
<polygon fill="midnightblue" stroke="midnightblue" points="962.5,-482.381 966,-492.381 969.5,-482.381 962.5,-482.381"/>
</g>
<!-- Node4 -->
<g id="node4" class="node"><title>Node4</title>
<g id="a_node4"><a xlink:href="ConditionParser_8h.html" target="_top" xlink:title="/home/travis/build\l/mgerhardy/simpleai\l/src/ai/conditions/Condition\lParser.h">
<polygon fill="white" stroke="black" points="1057.5,-325 1057.5,-377 1192.5,-377 1192.5,-325 1057.5,-325"/>
<text text-anchor="start" x="1065.5" y="-365" font-family="Helvetica,sans-Serif" font-size="10.00">/home/travis/build</text>
<text text-anchor="start" x="1065.5" y="-354" font-family="Helvetica,sans-Serif" font-size="10.00">/mgerhardy/simpleai</text>
<text text-anchor="start" x="1065.5" y="-343" font-family="Helvetica,sans-Serif" font-size="10.00">/src/ai/conditions/Condition</text>
<text text-anchor="middle" x="1125" y="-332" font-family="Helvetica,sans-Serif" font-size="10.00">Parser.h</text>
</a>
</g>
</g>
<!-- Node3&#45;&gt;Node4 -->
<g id="edge3" class="edge"><title>Node3&#45;&gt;Node4</title>
<path fill="none" stroke="midnightblue" d="M1125,-403.938C1125,-395.176 1125,-385.695 1125,-377.261"/>
<polygon fill="midnightblue" stroke="midnightblue" points="1121.5,-404.15 1125,-414.15 1128.5,-404.15 1121.5,-404.15"/>
</g>
<!-- Node5 -->
<g id="node5" class="node"><title>Node5</title>
<g id="a_node5"><a xlink:href="Server_8h.html" target="_top" xlink:title="/home/travis/build\l/mgerhardy/simpleai\l/src/ai/server/Server.h">
<polygon fill="white" stroke="black" points="848.5,-240.5 848.5,-281.5 961.5,-281.5 961.5,-240.5 848.5,-240.5"/>
<text text-anchor="start" x="856.5" y="-269.5" font-family="Helvetica,sans-Serif" font-size="10.00">/home/travis/build</text>
<text text-anchor="start" x="856.5" y="-258.5" font-family="Helvetica,sans-Serif" font-size="10.00">/mgerhardy/simpleai</text>
<text text-anchor="middle" x="905" y="-247.5" font-family="Helvetica,sans-Serif" font-size="10.00">/src/ai/server/Server.h</text>
</a>
</g>
</g>
<!-- Node3&#45;&gt;Node5 -->
<g id="edge26" class="edge"><title>Node3&#45;&gt;Node5</title>
<path fill="none" stroke="midnightblue" d="M1063.01,-428.248C999.164,-420.89 905.968,-405.657 884,-378 861.979,-350.275 879.311,-307.047 892.864,-281.931"/>
<polygon fill="midnightblue" stroke="midnightblue" points="1062.66,-431.731 1072.99,-429.362 1063.44,-424.774 1062.66,-431.731"/>
</g>
<!-- Node3&#45;&gt;Node8 -->
<g id="edge27" class="edge"><title>Node3&#45;&gt;Node8</title>
<path fill="none" stroke="midnightblue" d="M1187.09,-421.811C1303.07,-397.254 1541,-337.654 1541,-262 1541,-262 1541,-262 1541,-176 1541,-45.191 1336.03,-24.2277 1237.15,-21.7254"/>
<polygon fill="midnightblue" stroke="midnightblue" points="1186.34,-418.393 1177.27,-423.869 1187.77,-425.244 1186.34,-418.393"/>
</g>
<!-- Node15 -->
<g id="node15" class="node"><title>Node15</title>
<g id="a_node15"><a xlink:href="LUATreeLoader_8h.html" target="_top" xlink:title="/home/travis/build\l/mgerhardy/simpleai\l/src/ai/tree/loaders\l/lua/LUATreeLoader.h">
<polygon fill="white" stroke="black" points="1114,-235 1114,-287 1226,-287 1226,-235 1114,-235"/>
<text text-anchor="start" x="1122" y="-275" font-family="Helvetica,sans-Serif" font-size="10.00">/home/travis/build</text>
<text text-anchor="start" x="1122" y="-264" font-family="Helvetica,sans-Serif" font-size="10.00">/mgerhardy/simpleai</text>
<text text-anchor="start" x="1122" y="-253" font-family="Helvetica,sans-Serif" font-size="10.00">/src/ai/tree/loaders</text>
<text text-anchor="middle" x="1170" y="-242" font-family="Helvetica,sans-Serif" font-size="10.00">/lua/LUATreeLoader.h</text>
</a>
</g>
</g>
<!-- Node3&#45;&gt;Node15 -->
<g id="edge28" class="edge"><title>Node3&#45;&gt;Node15</title>
<path fill="none" stroke="midnightblue" d="M1173.86,-408.44C1184.75,-400.266 1194.87,-390.123 1201,-378 1215.85,-348.604 1200.56,-311.307 1186.68,-287.059"/>
<polygon fill="midnightblue" stroke="midnightblue" points="1171.64,-405.72 1165.43,-414.307 1175.64,-411.465 1171.64,-405.72"/>
</g>
<!-- Node17 -->
<g id="node17" class="node"><title>Node17</title>
<g id="a_node17"><a xlink:href="LUAAIRegistry_8h_source.html" target="_top" xlink:title="/home/travis/build\l/mgerhardy/simpleai\l/src/ai/LUAAIRegistry.h">
<polygon fill="white" stroke="black" points="1652.5,-330.5 1652.5,-371.5 1773.5,-371.5 1773.5,-330.5 1652.5,-330.5"/>
<text text-anchor="start" x="1660.5" y="-359.5" font-family="Helvetica,sans-Serif" font-size="10.00">/home/travis/build</text>
<text text-anchor="start" x="1660.5" y="-348.5" font-family="Helvetica,sans-Serif" font-size="10.00">/mgerhardy/simpleai</text>
<text text-anchor="middle" x="1713" y="-337.5" font-family="Helvetica,sans-Serif" font-size="10.00">/src/ai/LUAAIRegistry.h</text>
</a>
</g>
</g>
<!-- Node3&#45;&gt;Node17 -->
<g id="edge25" class="edge"><title>Node3&#45;&gt;Node17</title>
<path fill="none" stroke="midnightblue" d="M1187.14,-426.572C1270.82,-416.417 1424.34,-397.253 1555,-378 1587.18,-373.259 1622.95,-367.42 1652.3,-362.478"/>
<polygon fill="midnightblue" stroke="midnightblue" points="1186.54,-423.119 1177.04,-427.795 1187.39,-430.068 1186.54,-423.119"/>
</g>
<!-- Node4&#45;&gt;Node5 -->
<g id="edge4" class="edge"><title>Node4&#45;&gt;Node5</title>
<path fill="none" stroke="midnightblue" d="M1052.8,-321.121C1020.36,-308.144 982.925,-293.17 953.846,-281.538"/>
<polygon fill="midnightblue" stroke="midnightblue" points="1051.67,-324.436 1062.25,-324.901 1054.27,-317.937 1051.67,-324.436"/>
</g>
<!-- Node4&#45;&gt;Node8 -->
<g id="edge22" class="edge"><title>Node4&#45;&gt;Node8</title>
<path fill="none" stroke="midnightblue" d="M1202.76,-340.154C1284.85,-325.155 1410.33,-288.069 1469,-198 1500.63,-149.443 1465.37,-111.378 1418,-78 1364.1,-40.0195 1287.62,-27.6028 1237.19,-23.6539"/>
<polygon fill="midnightblue" stroke="midnightblue" points="1201.96,-336.74 1192.72,-341.918 1203.17,-343.635 1201.96,-336.74"/>
</g>
<!-- Node4&#45;&gt;Node15 -->
<g id="edge23" class="edge"><title>Node4&#45;&gt;Node15</title>
<path fill="none" stroke="midnightblue" d="M1142.71,-315.376C1147.53,-305.935 1152.67,-295.891 1157.17,-287.092"/>
<polygon fill="midnightblue" stroke="midnightblue" points="1139.45,-314.05 1138.02,-324.547 1145.69,-317.237 1139.45,-314.05"/>
</g>
<!-- Node16 -->
<g id="node16" class="node"><title>Node16</title>
<g id="a_node16"><a xlink:href="XMLTreeLoader_8h.html" target="_top" xlink:title="/home/travis/build\l/mgerhardy/simpleai\l/src/ai/tree/loaders\l/xml/XMLTreeLoader.h">
<polygon fill="white" stroke="black" points="980,-235 980,-287 1096,-287 1096,-235 980,-235"/>
<text text-anchor="start" x="988" y="-275" font-family="Helvetica,sans-Serif" font-size="10.00">/home/travis/build</text>
<text text-anchor="start" x="988" y="-264" font-family="Helvetica,sans-Serif" font-size="10.00">/mgerhardy/simpleai</text>
<text text-anchor="start" x="988" y="-253" font-family="Helvetica,sans-Serif" font-size="10.00">/src/ai/tree/loaders</text>
<text text-anchor="middle" x="1038" y="-242" font-family="Helvetica,sans-Serif" font-size="10.00">/xml/XMLTreeLoader.h</text>
</a>
</g>
</g>
<!-- Node4&#45;&gt;Node16 -->
<g id="edge24" class="edge"><title>Node4&#45;&gt;Node16</title>
<path fill="none" stroke="midnightblue" d="M1092.8,-317.431C1082.89,-307.407 1072.14,-296.533 1062.81,-287.092"/>
<polygon fill="midnightblue" stroke="midnightblue" points="1090.32,-319.896 1099.84,-324.547 1095.29,-314.975 1090.32,-319.896"/>
</g>
<!-- Node6 -->
<g id="node6" class="node"><title>Node6</title>
<g id="a_node6"><a xlink:href="ChangeHandler_8h.html" target="_top" xlink:title="/home/travis/build\l/mgerhardy/simpleai\l/src/ai/server/ChangeHandler.h">
<polygon fill="white" stroke="black" points="933,-156.5 933,-197.5 1085,-197.5 1085,-156.5 933,-156.5"/>
<text text-anchor="start" x="941" y="-185.5" font-family="Helvetica,sans-Serif" font-size="10.00">/home/travis/build</text>
<text text-anchor="start" x="941" y="-174.5" font-family="Helvetica,sans-Serif" font-size="10.00">/mgerhardy/simpleai</text>
<text text-anchor="middle" x="1009" y="-163.5" font-family="Helvetica,sans-Serif" font-size="10.00">/src/ai/server/ChangeHandler.h</text>
</a>
</g>
</g>
<!-- Node5&#45;&gt;Node6 -->
<g id="edge5" class="edge"><title>Node5&#45;&gt;Node6</title>
<path fill="none" stroke="midnightblue" d="M937.898,-234.062C952.792,-222.318 970.114,-208.66 983.932,-197.765"/>
<polygon fill="midnightblue" stroke="midnightblue" points="935.596,-231.419 929.911,-240.359 939.93,-236.916 935.596,-231.419"/>
</g>
<!-- Node7 -->
<g id="node7" class="node"><title>Node7</title>
<g id="a_node7"><a xlink:href="ServerImpl_8h.html" target="_top" xlink:title="/home/travis/build\l/mgerhardy/simpleai\l/src/ai/server/ServerImpl.h">
<polygon fill="white" stroke="black" points="839,-78.5 839,-119.5 971,-119.5 971,-78.5 839,-78.5"/>
<text text-anchor="start" x="847" y="-107.5" font-family="Helvetica,sans-Serif" font-size="10.00">/home/travis/build</text>
<text text-anchor="start" x="847" y="-96.5" font-family="Helvetica,sans-Serif" font-size="10.00">/mgerhardy/simpleai</text>
<text text-anchor="middle" x="905" y="-85.5" font-family="Helvetica,sans-Serif" font-size="10.00">/src/ai/server/ServerImpl.h</text>
</a>
</g>
</g>
<!-- Node5&#45;&gt;Node7 -->
<g id="edge16" class="edge"><title>Node5&#45;&gt;Node7</title>
<path fill="none" stroke="midnightblue" d="M905,-230.206C905,-197.962 905,-147.458 905,-119.78"/>
<polygon fill="midnightblue" stroke="midnightblue" points="901.5,-230.381 905,-240.381 908.5,-230.381 901.5,-230.381"/>
</g>
<!-- Node5&#45;&gt;Node8 -->
<g id="edge21" class="edge"><title>Node5&#45;&gt;Node8</title>
<path fill="none" stroke="midnightblue" d="M959.244,-237.17C963.182,-235.966 967.127,-234.888 971,-234 1022.59,-222.168 1410.02,-236.815 1446,-198 1517.8,-120.548 1332.47,-59.7371 1237.3,-34.579"/>
<polygon fill="midnightblue" stroke="midnightblue" points="957.91,-233.925 949.517,-240.392 960.111,-240.57 957.91,-233.925"/>
</g>
<!-- Node9 -->
<g id="node9" class="node"><title>Node9</title>
<g id="a_node9"><a xlink:href="DeleteNodeHandler_8h.html" target="_top" xlink:title="/home/travis/build\l/mgerhardy/simpleai\l/src/ai/server/DeleteNodeHandler.h">
<polygon fill="white" stroke="black" points="1103,-156.5 1103,-197.5 1273,-197.5 1273,-156.5 1103,-156.5"/>
<text text-anchor="start" x="1111" y="-185.5" font-family="Helvetica,sans-Serif" font-size="10.00">/home/travis/build</text>
<text text-anchor="start" x="1111" y="-174.5" font-family="Helvetica,sans-Serif" font-size="10.00">/mgerhardy/simpleai</text>
<text text-anchor="middle" x="1188" y="-163.5" font-family="Helvetica,sans-Serif" font-size="10.00">/src/ai/server/DeleteNodeHandler.h</text>
</a>
</g>
</g>
<!-- Node5&#45;&gt;Node9 -->
<g id="edge8" class="edge"><title>Node5&#45;&gt;Node9</title>
<path fill="none" stroke="midnightblue" d="M962.189,-236.98C965.157,-235.94 968.106,-234.939 971,-234 1013.93,-220.064 1062.51,-207.259 1102.8,-197.422"/>
<polygon fill="midnightblue" stroke="midnightblue" points="960.906,-233.722 952.693,-240.415 963.287,-240.305 960.906,-233.722"/>
</g>
<!-- Node10 -->
<g id="node10" class="node"><title>Node10</title>
<g id="a_node10"><a xlink:href="PauseHandler_8h.html" target="_top" xlink:title="/home/travis/build\l/mgerhardy/simpleai\l/src/ai/server/PauseHandler.h">
<polygon fill="white" stroke="black" points="1291,-156.5 1291,-197.5 1437,-197.5 1437,-156.5 1291,-156.5"/>
<text text-anchor="start" x="1299" y="-185.5" font-family="Helvetica,sans-Serif" font-size="10.00">/home/travis/build</text>
<text text-anchor="start" x="1299" y="-174.5" font-family="Helvetica,sans-Serif" font-size="10.00">/mgerhardy/simpleai</text>
<text text-anchor="middle" x="1364" y="-163.5" font-family="Helvetica,sans-Serif" font-size="10.00">/src/ai/server/PauseHandler.h</text>
</a>
</g>
</g>
<!-- Node5&#45;&gt;Node10 -->
<g id="edge10" class="edge"><title>Node5&#45;&gt;Node10</title>
<path fill="none" stroke="midnightblue" d="M960.011,-237.117C963.697,-235.961 967.382,-234.905 971,-234 1105.98,-200.215 1145.03,-222.533 1282,-198 1284.88,-197.483 1287.82,-196.925 1290.78,-196.335"/>
<polygon fill="midnightblue" stroke="midnightblue" points="958.66,-233.879 950.296,-240.383 960.891,-240.514 958.66,-233.879"/>
</g>
<!-- Node11 -->
<g id="node11" class="node"><title>Node11</title>
<g id="a_node11"><a xlink:href="ResetHandler_8h.html" target="_top" xlink:title="/home/travis/build\l/mgerhardy/simpleai\l/src/ai/server/ResetHandler.h">
<polygon fill="white" stroke="black" points="218.5,-156.5 218.5,-197.5 363.5,-197.5 363.5,-156.5 218.5,-156.5"/>
<text text-anchor="start" x="226.5" y="-185.5" font-family="Helvetica,sans-Serif" font-size="10.00">/home/travis/build</text>
<text text-anchor="start" x="226.5" y="-174.5" font-family="Helvetica,sans-Serif" font-size="10.00">/mgerhardy/simpleai</text>
<text text-anchor="middle" x="291" y="-163.5" font-family="Helvetica,sans-Serif" font-size="10.00">/src/ai/server/ResetHandler.h</text>
</a>
</g>
</g>
<!-- Node5&#45;&gt;Node11 -->
<g id="edge12" class="edge"><title>Node5&#45;&gt;Node11</title>
<path fill="none" stroke="midnightblue" d="M838.29,-254.882C737.134,-246.525 539.129,-227.823 373,-198 369.971,-197.456 366.888,-196.867 363.778,-196.244"/>
<polygon fill="midnightblue" stroke="midnightblue" points="838.112,-258.38 848.364,-255.707 838.683,-251.403 838.112,-258.38"/>
</g>
<!-- Node12 -->
<g id="node12" class="node"><title>Node12</title>
<g id="a_node12"><a xlink:href="SelectHandler_8h.html" target="_top" xlink:title="/home/travis/build\l/mgerhardy/simpleai\l/src/ai/server/SelectHandler.h">
<polygon fill="white" stroke="black" points="382,-156.5 382,-197.5 528,-197.5 528,-156.5 382,-156.5"/>
<text text-anchor="start" x="390" y="-185.5" font-family="Helvetica,sans-Serif" font-size="10.00">/home/travis/build</text>
<text text-anchor="start" x="390" y="-174.5" font-family="Helvetica,sans-Serif" font-size="10.00">/mgerhardy/simpleai</text>
<text text-anchor="middle" x="455" y="-163.5" font-family="Helvetica,sans-Serif" font-size="10.00">/src/ai/server/SelectHandler.h</text>
</a>
</g>
</g>
<!-- Node5&#45;&gt;Node12 -->
<g id="edge14" class="edge"><title>Node5&#45;&gt;Node12</title>
<path fill="none" stroke="midnightblue" d="M838.237,-250.238C764.299,-239.081 641.699,-219.559 537,-198 534.13,-197.409 531.207,-196.788 528.258,-196.146"/>
<polygon fill="midnightblue" stroke="midnightblue" points="837.931,-253.731 848.34,-251.756 838.971,-246.809 837.931,-253.731"/>
</g>
<!-- Node13 -->
<g id="node13" class="node"><title>Node13</title>
<g id="a_node13"><a xlink:href="StepHandler_8h.html" target="_top" xlink:title="/home/travis/build\l/mgerhardy/simpleai\l/src/ai/server/StepHandler.h">
<polygon fill="white" stroke="black" points="546.5,-156.5 546.5,-197.5 685.5,-197.5 685.5,-156.5 546.5,-156.5"/>
<text text-anchor="start" x="554.5" y="-185.5" font-family="Helvetica,sans-Serif" font-size="10.00">/home/travis/build</text>
<text text-anchor="start" x="554.5" y="-174.5" font-family="Helvetica,sans-Serif" font-size="10.00">/mgerhardy/simpleai</text>
<text text-anchor="middle" x="616" y="-163.5" font-family="Helvetica,sans-Serif" font-size="10.00">/src/ai/server/StepHandler.h</text>
</a>
</g>
</g>
<!-- Node5&#45;&gt;Node13 -->
<g id="edge17" class="edge"><title>Node5&#45;&gt;Node13</title>
<path fill="none" stroke="midnightblue" d="M838.374,-241.096C792.364,-228.041 731.333,-210.724 684.849,-197.535"/>
<polygon fill="midnightblue" stroke="midnightblue" points="837.672,-244.535 848.248,-243.897 839.583,-237.8 837.672,-244.535"/>
</g>
<!-- Node14 -->
<g id="node14" class="node"><title>Node14</title>
<g id="a_node14"><a xlink:href="UpdateNodeHandler_8h.html" target="_top" xlink:title="/home/travis/build\l/mgerhardy/simpleai\l/src/ai/server/UpdateNodeHandler.h">
<polygon fill="white" stroke="black" points="703.5,-156.5 703.5,-197.5 876.5,-197.5 876.5,-156.5 703.5,-156.5"/>
<text text-anchor="start" x="711.5" y="-185.5" font-family="Helvetica,sans-Serif" font-size="10.00">/home/travis/build</text>
<text text-anchor="start" x="711.5" y="-174.5" font-family="Helvetica,sans-Serif" font-size="10.00">/mgerhardy/simpleai</text>
<text text-anchor="middle" x="790" y="-163.5" font-family="Helvetica,sans-Serif" font-size="10.00">/src/ai/server/UpdateNodeHandler.h</text>
</a>
</g>
</g>
<!-- Node5&#45;&gt;Node14 -->
<g id="edge19" class="edge"><title>Node5&#45;&gt;Node14</title>
<path fill="none" stroke="midnightblue" d="M869.08,-234.387C852.508,-222.571 833.14,-208.761 817.719,-197.765"/>
<polygon fill="midnightblue" stroke="midnightblue" points="867.28,-237.403 877.455,-240.359 871.345,-231.703 867.28,-237.403"/>
</g>
<!-- Node6&#45;&gt;Node7 -->
<g id="edge6" class="edge"><title>Node6&#45;&gt;Node7</title>
<path fill="none" stroke="midnightblue" d="M973.9,-150.35C960.109,-140.272 944.538,-128.893 931.692,-119.506"/>
<polygon fill="midnightblue" stroke="midnightblue" points="972.078,-153.354 982.217,-156.428 976.209,-147.702 972.078,-153.354"/>
</g>
<!-- Node7&#45;&gt;Node8 -->
<g id="edge7" class="edge"><title>Node7&#45;&gt;Node8</title>
<path fill="none" stroke="midnightblue" d="M980.773,-77.433C1029,-64.3439 1090.2,-47.7318 1132.98,-36.1207"/>
<polygon fill="midnightblue" stroke="midnightblue" points="979.735,-74.0879 971.002,-80.0853 981.569,-80.8435 979.735,-74.0879"/>
</g>
<!-- Node9&#45;&gt;Node7 -->
<g id="edge9" class="edge"><title>Node9&#45;&gt;Node7</title>
<path fill="none" stroke="midnightblue" d="M1105.32,-153.797C1062.67,-142.344 1011.36,-128.562 971.337,-117.815"/>
<polygon fill="midnightblue" stroke="midnightblue" points="1104.55,-157.215 1115.12,-156.428 1106.37,-150.454 1104.55,-157.215"/>
</g>
<!-- Node10&#45;&gt;Node7 -->
<g id="edge11" class="edge"><title>Node10&#45;&gt;Node7</title>
<path fill="none" stroke="midnightblue" d="M1280.79,-155.844C1166.56,-133.823 1044.41,-117.188 971.034,-107.943"/>
<polygon fill="midnightblue" stroke="midnightblue" points="1280.27,-159.309 1290.76,-157.783 1281.61,-152.437 1280.27,-159.309"/>
</g>
<!-- Node11&#45;&gt;Node7 -->
<g id="edge13" class="edge"><title>Node11&#45;&gt;Node7</title>
<path fill="none" stroke="midnightblue" d="M373.823,-155.98C546.819,-126.492 739.544,-110.879 838.67,-104.107"/>
<polygon fill="midnightblue" stroke="midnightblue" points="373.031,-152.565 363.771,-157.714 374.22,-159.463 373.031,-152.565"/>
</g>
<!-- Node12&#45;&gt;Node7 -->
<g id="edge15" class="edge"><title>Node12&#45;&gt;Node7</title>
<path fill="none" stroke="midnightblue" d="M538.26,-155.829C649.092,-134.254 767.152,-117.651 838.884,-108.273"/>
<polygon fill="midnightblue" stroke="midnightblue" points="537.384,-152.434 528.247,-157.796 538.734,-159.303 537.384,-152.434"/>
</g>
<!-- Node13&#45;&gt;Node7 -->
<g id="edge18" class="edge"><title>Node13&#45;&gt;Node7</title>
<path fill="none" stroke="midnightblue" d="M695.339,-155.136C740.454,-143.272 796.288,-128.589 838.991,-117.359"/>
<polygon fill="midnightblue" stroke="midnightblue" points="694.371,-151.771 685.59,-157.699 696.152,-158.541 694.371,-151.771"/>
</g>
<!-- Node14&#45;&gt;Node7 -->
<g id="edge20" class="edge"><title>Node14&#45;&gt;Node7</title>
<path fill="none" stroke="midnightblue" d="M828.381,-150.635C843.737,-140.487 861.146,-128.982 875.485,-119.506"/>
<polygon fill="midnightblue" stroke="midnightblue" points="826.028,-147.995 819.615,-156.428 829.888,-153.835 826.028,-147.995"/>
</g>
<!-- Node18&#45;&gt;Node5 -->
<g id="edge31" class="edge"><title>Node18&#45;&gt;Node5</title>
<path fill="none" stroke="midnightblue" d="M946.744,-322.221C937.639,-309.086 926.979,-293.708 918.711,-281.78"/>
<polygon fill="midnightblue" stroke="midnightblue" points="943.889,-324.245 952.462,-330.47 949.642,-320.257 943.889,-324.245"/>
</g>
<!-- Node18&#45;&gt;Node8 -->
<g id="edge32" class="edge"><title>Node18&#45;&gt;Node8</title>
<path fill="none" stroke="midnightblue" d="M882.779,-342.985C667.771,-323.26 116.779,-261.748 209,-156 270.476,-85.5066 939.524,-37.6443 1132.93,-25.2081"/>
<polygon fill="midnightblue" stroke="midnightblue" points="882.484,-346.472 892.76,-343.893 883.118,-339.501 882.484,-346.472"/>
</g>
<!-- Node18&#45;&gt;Node15 -->
<g id="edge33" class="edge"><title>Node18&#45;&gt;Node15</title>
<path fill="none" stroke="midnightblue" d="M1020.79,-326.367C1049.62,-313.93 1084.91,-298.707 1113.93,-286.188"/>
<polygon fill="midnightblue" stroke="midnightblue" points="1019.07,-323.295 1011.27,-330.47 1021.84,-329.723 1019.07,-323.295"/>
</g>
<!-- Node18&#45;&gt;Node16 -->
<g id="edge34" class="edge"><title>Node18&#45;&gt;Node16</title>
<path fill="none" stroke="midnightblue" d="M988.43,-322.585C997.69,-311.268 1008.35,-298.237 1017.41,-287.166"/>
<polygon fill="midnightblue" stroke="midnightblue" points="985.603,-320.514 981.979,-330.47 991.02,-324.947 985.603,-320.514"/>
</g>
<!-- Node19&#45;&gt;Node3 -->
<g id="edge36" class="edge"><title>Node19&#45;&gt;Node3</title>
<path fill="none" stroke="midnightblue" d="M205.038,-491.822C540.205,-446.343 933.632,-437.958 1072.99,-436.371"/>
<polygon fill="midnightblue" stroke="midnightblue" points="204.071,-488.422 194.64,-493.248 205.022,-495.357 204.071,-488.422"/>
</g>
<!-- Node19&#45;&gt;Node8 -->
<g id="edge37" class="edge"><title>Node19&#45;&gt;Node8</title>
<path fill="none" stroke="midnightblue" d="M89.0651,-483.652C67.5652,-452.974 38,-401.743 38,-352 38,-352 38,-352 38,-176 38,-129.898 35.1197,-105.664 72,-78 114.901,-45.8203 918.587,-27.3714 1132.87,-23.0109"/>
<polygon fill="midnightblue" stroke="midnightblue" points="86.4759,-486.046 95.1601,-492.116 92.1562,-481.956 86.4759,-486.046"/>
</g>
<!-- Node20&#45;&gt;Node3 -->
<g id="edge39" class="edge"><title>Node20&#45;&gt;Node3</title>
<path fill="none" stroke="midnightblue" d="M1164.44,-563.28C1156.32,-554.699 1148.34,-544.639 1143,-534 1130.43,-508.952 1126.56,-476.361 1125.42,-455.804"/>
<polygon fill="midnightblue" stroke="midnightblue" points="1162.01,-565.8 1171.55,-570.416 1166.97,-560.86 1162.01,-565.8"/>
</g>
<!-- Node21&#45;&gt;Node3 -->
<g id="edge41" class="edge"><title>Node21&#45;&gt;Node3</title>
<path fill="none" stroke="midnightblue" d="M371.795,-504.31C544.47,-488.65 932.429,-453.465 1072.94,-440.722"/>
<polygon fill="midnightblue" stroke="midnightblue" points="371.378,-500.833 361.735,-505.222 372.011,-507.804 371.378,-500.833"/>
</g>
<!-- Node21&#45;&gt;Node8 -->
<g id="edge42" class="edge"><title>Node21&#45;&gt;Node8</title>
<path fill="none" stroke="midnightblue" d="M202.64,-490.887C156.682,-478.659 107.616,-464.121 100,-456 67.5502,-421.398 76,-399.437 76,-352 76,-352 76,-352 76,-176 76,-131.157 65.4466,-106.582 100,-78 140.196,-44.751 921.344,-27.1447 1132.67,-22.9775"/>
<polygon fill="midnightblue" stroke="midnightblue" points="201.822,-494.291 212.384,-493.459 203.608,-487.523 201.822,-494.291"/>
</g>
<!-- Node22&#45;&gt;Node3 -->
<g id="edge44" class="edge"><title>Node22&#45;&gt;Node3</title>
<path fill="none" stroke="midnightblue" d="M1193.24,-486.35C1179.58,-476.272 1164.16,-464.893 1151.44,-455.506"/>
<polygon fill="midnightblue" stroke="midnightblue" points="1191.35,-489.307 1201.47,-492.428 1195.51,-483.674 1191.35,-489.307"/>
</g>
<!-- Node22&#45;&gt;Node8 -->
<g id="edge45" class="edge"><title>Node22&#45;&gt;Node8</title>
<path fill="none" stroke="midnightblue" d="M1314.03,-491.235C1417.95,-460.419 1579,-391.733 1579,-262 1579,-262 1579,-262 1579,-176 1579,-124.929 1561.33,-106.573 1519,-78 1473.86,-47.5305 1319.15,-31.8344 1237.09,-25.4858"/>
<polygon fill="midnightblue" stroke="midnightblue" points="1312.79,-487.951 1304.16,-494.1 1314.74,-494.674 1312.79,-487.951"/>
</g>
<!-- Node23&#45;&gt;Node3 -->
<g id="edge48" class="edge"><title>Node23&#45;&gt;Node3</title>
<path fill="none" stroke="midnightblue" d="M1317.18,-489.698C1272.02,-477.079 1216.83,-461.658 1177.2,-450.584"/>
<polygon fill="midnightblue" stroke="midnightblue" points="1316.38,-493.108 1326.95,-492.428 1318.26,-486.366 1316.38,-493.108"/>
</g>
<!-- Node23&#45;&gt;Node8 -->
<g id="edge49" class="edge"><title>Node23&#45;&gt;Node8</title>
<path fill="none" stroke="midnightblue" d="M1442.6,-487.137C1507.04,-448.278 1617,-366.638 1617,-262 1617,-262 1617,-262 1617,-176 1617,-124.46 1598.15,-106.179 1555,-78 1503.59,-44.4334 1326.42,-29.9067 1237.2,-24.602"/>
<polygon fill="midnightblue" stroke="midnightblue" points="1440.64,-484.227 1433.82,-492.334 1444.21,-490.25 1440.64,-484.227"/>
</g>
<!-- Node24&#45;&gt;Node3 -->
<g id="edge51" class="edge"><title>Node24&#45;&gt;Node3</title>
<path fill="none" stroke="midnightblue" d="M1479.79,-492.03C1365.84,-470.236 1244.67,-452.479 1177.23,-443.08"/>
<polygon fill="midnightblue" stroke="midnightblue" points="1479.26,-495.49 1489.74,-493.945 1480.58,-488.617 1479.26,-495.49"/>
</g>
<!-- Node24&#45;&gt;Node8 -->
<g id="edge52" class="edge"><title>Node24&#45;&gt;Node8</title>
<path fill="none" stroke="midnightblue" d="M1654.24,-496.169C1717.35,-483.924 1793.34,-467.22 1804,-456 1836.36,-421.933 1823,-398.987 1823,-352 1823,-352 1823,-352 1823,-176 1823,-55.788 1389.58,-29.1202 1237.21,-23.4592"/>
<polygon fill="midnightblue" stroke="midnightblue" points="1653.4,-492.768 1644.24,-498.095 1654.72,-499.642 1653.4,-492.768"/>
</g>
<!-- Node25&#45;&gt;Node3 -->
<g id="edge54" class="edge"><title>Node25&#45;&gt;Node3</title>
<path fill="none" stroke="midnightblue" d="M1690.47,-497.748C1677.96,-495.683 1665.14,-493.688 1653,-492 1479.3,-467.84 1272.16,-448.661 1177.22,-440.403"/>
<polygon fill="midnightblue" stroke="midnightblue" points="1689.98,-501.215 1700.42,-499.415 1691.13,-494.311 1689.98,-501.215"/>
</g>
<!-- Node25&#45;&gt;Node8 -->
<g id="edge55" class="edge"><title>Node25&#45;&gt;Node8</title>
<path fill="none" stroke="midnightblue" d="M1802.79,-485.442C1811.99,-476.857 1821.27,-466.754 1828,-456 1853.73,-414.898 1861,-400.493 1861,-352 1861,-352 1861,-352 1861,-176 1861,-108.848 1807.78,-104.313 1746,-78 1655.05,-39.2639 1358.34,-26.7915 1237.21,-23.2533"/>
<polygon fill="midnightblue" stroke="midnightblue" points="1800.26,-483.006 1795.14,-492.277 1804.93,-488.228 1800.26,-483.006"/>
</g>
<!-- Node26&#45;&gt;Node2 -->
<g id="edge57" class="edge"><title>Node26&#45;&gt;Node2</title>
<path fill="none" stroke="midnightblue" d="M966,-560.297C966,-551.301 966,-541.653 966,-533.506"/>
<polygon fill="midnightblue" stroke="midnightblue" points="962.5,-560.428 966,-570.428 969.5,-560.428 962.5,-560.428"/>
</g>
<!-- Node26&#45;&gt;Node3 -->
<g id="edge58" class="edge"><title>Node26&#45;&gt;Node3</title>
<path fill="none" stroke="midnightblue" d="M995.397,-563.48C1005.5,-554.242 1016.83,-543.749 1027,-534 1054.8,-507.365 1086.13,-475.743 1105.72,-455.771"/>
<polygon fill="midnightblue" stroke="midnightblue" points="992.982,-560.944 987.948,-570.266 997.697,-566.119 992.982,-560.944"/>
</g>
<!-- Node26&#45;&gt;Node8 -->
<g id="edge59" class="edge"><title>Node26&#45;&gt;Node8</title>
<path fill="none" stroke="midnightblue" d="M865.379,-580.47C730.009,-565.363 483.336,-529.734 285,-456 201.623,-425.004 114,-440.952 114,-352 114,-352 114,-352 114,-176 114,-125.388 128.742,-104.273 172,-78 254.423,-27.9394 937.166,-22.5471 1132.8,-22.0341"/>
<polygon fill="midnightblue" stroke="midnightblue" points="865.007,-583.95 875.331,-581.565 865.774,-576.992 865.007,-583.95"/>
</g>
<!-- Node27&#45;&gt;Node17 -->
<g id="edge61" class="edge"><title>Node27&#45;&gt;Node17</title>
<path fill="none" stroke="midnightblue" d="M1714.9,-403.881C1714.5,-393.133 1714.07,-381.309 1713.72,-371.667"/>
<polygon fill="midnightblue" stroke="midnightblue" points="1711.41,-404.285 1715.27,-414.15 1718.41,-404.029 1711.41,-404.285"/>
</g>
</g>
</svg>
        <g id="navigator" transform="translate(0 0)" fill="#404254">
                <rect fill="#f2f5e9" fill-opacity="0.5" stroke="#606060" stroke-width=".5" x="0" y="0" width="60" height="60"/>
                <use id="zoomplus" xlink:href="#zoomPlus" x="17" y="9" onmousedown="handleZoom(evt,'in')"/>
                <use id="zoomminus" xlink:href="#zoomMin" x="42" y="9" onmousedown="handleZoom(evt,'out')"/>
                <use id="reset" xlink:href="#resetDef" x="30" y="36" onmousedown="handleReset()"/>
                <g id="arrowUp" xlink:href="#dirArrow" transform="translate(30 24)" onmousedown="handlePan(0,-1)">
                  <use xlink:href="#rim" fill="#404040">
                        <set attributeName="fill" to="#808080" begin="arrowUp.mouseover" end="arrowUp.mouseout"/>
                  </use>
                  <path fill="none" stroke="white" stroke-width="1.5" d="M0,-3.0v7 M-2.5,-0.5L0,-3.0L2.5,-0.5"/>
                </g>
                <g id="arrowRight" xlink:href="#dirArrow" transform="rotate(90) translate(36 -43)" onmousedown="handlePan(1,0)">
                  <use xlink:href="#rim" fill="#404040">
                        <set attributeName="fill" to="#808080" begin="arrowRight.mouseover" end="arrowRight.mouseout"/>
                  </use>
                  <path fill="none" stroke="white" stroke-width="1.5" d="M0,-3.0v7 M-2.5,-0.5L0,-3.0L2.5,-0.5"/>
                </g>
                <g id="arrowDown" xlink:href="#dirArrow" transform="rotate(180) translate(-30 -48)" onmousedown="handlePan(0,1)">
                  <use xlink:href="#rim" fill="#404040">
                        <set attributeName="fill" to="#808080" begin="arrowDown.mouseover" end="arrowDown.mouseout"/>
                  </use>
                  <path fill="none" stroke="white" stroke-width="1.5" d="M0,-3.0v7 M-2.5,-0.5L0,-3.0L2.5,-0.5"/>
                </g>
                <g id="arrowLeft" xlink:href="#dirArrow" transform="rotate(270) translate(-36 17)" onmousedown="handlePan(-1,0)">
                  <use xlink:href="#rim" fill="#404040">
                        <set attributeName="fill" to="#808080" begin="arrowLeft.mouseover" end="arrowLeft.mouseout"/>
                  </use>
                  <path fill="none" stroke="white" stroke-width="1.5" d="M0,-3.0v7 M-2.5,-0.5L0,-3.0L2.5,-0.5"/>
                </g>
        </g>
        <svg viewBox="0 0 15 15" width="100%" height="30px" preserveAspectRatio="xMaxYMin meet">
         <g id="arrow_out" transform="scale(0.3 0.3)">
          <a xlink:href="Steering_8h__dep__incl_org.svg" target="_base">
           <rect id="button" ry="5" rx="5" y="6" x="6" height="38" width="38"
                fill="#f2f5e9" fill-opacity="0.5" stroke="#606060" stroke-width="1.0"/>
           <path id="arrow"
             d="M 11.500037,31.436501 C 11.940474,20.09759 22.043105,11.32322 32.158766,21.979434 L 37.068811,17.246167 C 37.068811,17.246167 37.088388,32 37.088388,32 L 22.160133,31.978069 C 22.160133,31.978069 26.997745,27.140456 26.997745,27.140456 C 18.528582,18.264221 13.291696,25.230495 11.500037,31.436501 z"
             style="fill:#404040;"/>
          </a>
         </g>
        </svg>
</svg>
