<?xml version="1.0" encoding="UTF-8" standalone="no"?>
<!DOCTYPE svg PUBLIC "-//W3C//DTD SVG 1.1//EN"
 "http://www.w3.org/Graphics/SVG/1.1/DTD/svg11.dtd">
<!-- Generated by graphviz version 2.36.0 (20140111.2315)
 -->
<!-- Title: /home/travis/build/mgerhardy/simpleai/src/ai/movement/Steering.h Pages: 1 -->
<!--zoomable 698 -->
<svg id="main" version="1.1" xmlns="http://www.w3.org/2000/svg" xmlns:xlink="http://www.w3.org/1999/xlink" xml:space="preserve" onload="init(evt)">
<style type="text/css"><![CDATA[
.edge:hover path { stroke: red; }
.edge:hover polygon { stroke: red; fill: red; }
]]></style>
<script type="text/javascript"><![CDATA[
var edges = document.getElementsByTagName('g');
if (edges && edges.length) {
  for (var i=0;i<edges.length;i++) {
    if (edges[i].id.substr(0,4)=='edge') {
      edges[i].setAttribute('class','edge');
    }
  }
}
]]></script>
        <defs>
                <circle id="rim" cx="0" cy="0" r="7"/>
                <circle id="rim2" cx="0" cy="0" r="3.5"/>
                <g id="zoomPlus">
                        <use xlink:href="#rim" fill="#404040">
                                <set attributeName="fill" to="#808080" begin="zoomplus.mouseover" end="zoomplus.mouseout"/>
                        </use>
                        <path d="M-4,0h8M0,-4v8" fill="none" stroke="white" stroke-width="1.5" pointer-events="none"/>
                </g>
                <g id="zoomMin">
                        <use xlink:href="#rim" fill="#404040">
                                <set attributeName="fill" to="#808080" begin="zoomminus.mouseover" end="zoomminus.mouseout"/>
                        </use>
                        <path d="M-4,0h8" fill="none" stroke="white" stroke-width="1.5" pointer-events="none"/>
                </g>
                <g id="dirArrow">
                        <path fill="none" stroke="white" stroke-width="1.5" d="M0,-3.0v7 M-2.5,-0.5L0,-3.0L2.5,-0.5"/>
                </g>
               <g id="resetDef">
                       <use xlink:href="#rim2" fill="#404040">
                               <set attributeName="fill" to="#808080" begin="reset.mouseover" end="reset.mouseout"/>
                       </use>
               </g>
        </defs>

<script type="text/javascript">
var viewWidth = 1663;
var viewHeight = 698;
var sectionId = 'dynsection-1';
</script>
<script xlink:href="svgpan.js"/>
<svg id="graph" class="graph">
<g id="viewport">
<title>/home/travis/build/mgerhardy/simpleai/src/ai/movement/Steering.h</title>
<polygon fill="white" stroke="none" points="-4,4 -4,-694 1659,-694 1659,4 -4,4"/>
<!-- Node1 -->
<g id="node1" class="node"><title>Node1</title>
<polygon fill="#bfbfbf" stroke="black" points="696,-648.5 696,-689.5 836,-689.5 836,-648.5 696,-648.5"/>
<text text-anchor="start" x="704" y="-677.5" font-family="Helvetica,sans-Serif" font-size="10.00">/home/travis/build</text>
<text text-anchor="start" x="704" y="-666.5" font-family="Helvetica,sans-Serif" font-size="10.00">/mgerhardy/simpleai</text>
<text text-anchor="middle" x="766" y="-655.5" font-family="Helvetica,sans-Serif" font-size="10.00">/src/ai/movement/Steering.h</text>
</g>
<!-- Node2 -->
<g id="node2" class="node"><title>Node2</title>
<g id="a_node2"><a xlink:href="Steer_8h.html" target="_top" xlink:title="/home/travis/build\l/mgerhardy/simpleai\l/src/ai/tree/Steer.h">
<polygon fill="white" stroke="black" points="540,-492.5 540,-533.5 644,-533.5 644,-492.5 540,-492.5"/>
<text text-anchor="start" x="548" y="-521.5" font-family="Helvetica,sans-Serif" font-size="10.00">/home/travis/build</text>
<text text-anchor="start" x="548" y="-510.5" font-family="Helvetica,sans-Serif" font-size="10.00">/mgerhardy/simpleai</text>
<text text-anchor="middle" x="592" y="-499.5" font-family="Helvetica,sans-Serif" font-size="10.00">/src/ai/tree/Steer.h</text>
</a>
</g>
</g>
<!-- Node1&#45;&gt;Node2 -->
<g id="edge1" class="edge"><title>Node1&#45;&gt;Node2</title>
<path fill="none" stroke="midnightblue" d="M685.727,-662.614C613.834,-655.919 516.119,-641.547 492,-612 480.196,-597.539 482.561,-586.104 492,-570 502.615,-551.889 521.464,-539.195 539.958,-530.529"/>
<polygon fill="midnightblue" stroke="midnightblue" points="685.417,-666.1 695.69,-663.508 686.043,-659.128 685.417,-666.1"/>
</g>
<!-- Node3 -->
<g id="node3" class="node"><title>Node3</title>
<g id="a_node3"><a xlink:href="AIRegistry_8h.html" target="_top" xlink:title="/home/travis/build\l/mgerhardy/simpleai\l/src/ai/AIRegistry.h">
<polygon fill="white" stroke="black" points="699,-414.5 699,-455.5 803,-455.5 803,-414.5 699,-414.5"/>
<text text-anchor="start" x="707" y="-443.5" font-family="Helvetica,sans-Serif" font-size="10.00">/home/travis/build</text>
<text text-anchor="start" x="707" y="-432.5" font-family="Helvetica,sans-Serif" font-size="10.00">/mgerhardy/simpleai</text>
<text text-anchor="middle" x="751" y="-421.5" font-family="Helvetica,sans-Serif" font-size="10.00">/src/ai/AIRegistry.h</text>
</a>
</g>
</g>
<!-- Node1&#45;&gt;Node3 -->
<g id="edge45" class="edge"><title>Node1&#45;&gt;Node3</title>
<path fill="none" stroke="midnightblue" d="M743.601,-640.003C738.053,-631.496 732.877,-621.794 730,-612 713.827,-556.936 732.364,-488.692 743.621,-455.697"/>
<polygon fill="midnightblue" stroke="midnightblue" points="740.851,-642.179 749.435,-648.39 746.597,-638.182 740.851,-642.179"/>
</g>
<!-- Node8 -->
<g id="node8" class="node"><title>Node8</title>
<g id="a_node8"><a xlink:href="SimpleAI_8h.html" target="_top" xlink:title="/home/travis/build\l/mgerhardy/simpleai\l/src/ai/SimpleAI.h">
<polygon fill="white" stroke="black" points="795,-0.5 795,-41.5 899,-41.5 899,-0.5 795,-0.5"/>
<text text-anchor="start" x="803" y="-29.5" font-family="Helvetica,sans-Serif" font-size="10.00">/home/travis/build</text>
<text text-anchor="start" x="803" y="-18.5" font-family="Helvetica,sans-Serif" font-size="10.00">/mgerhardy/simpleai</text>
<text text-anchor="middle" x="847" y="-7.5" font-family="Helvetica,sans-Serif" font-size="10.00">/src/ai/SimpleAI.h</text>
</a>
</g>
</g>
<!-- Node1&#45;&gt;Node8 -->
<g id="edge61" class="edge"><title>Node1&#45;&gt;Node8</title>
<path fill="none" stroke="midnightblue" d="M685.73,-668.651C489.232,-668.09 0,-652.76 0,-514 0,-514 0,-514 0,-176 0,-129.285 0.390837,-105.711 38,-78 98.7807,-33.2167 625.673,-24.165 794.905,-22.4072"/>
<polygon fill="midnightblue" stroke="midnightblue" points="685.986,-672.151 695.992,-668.667 685.998,-665.151 685.986,-672.151"/>
</g>
<!-- Node19 -->
<g id="node19" class="node"><title>Node19</title>
<g id="a_node19"><a xlink:href="SelectionSeek_8h.html" target="_top" xlink:title="/home/travis/build\l/mgerhardy/simpleai\l/src/ai/movement/SelectionSeek.h">
<polygon fill="white" stroke="black" points="27.5,-492.5 27.5,-533.5 194.5,-533.5 194.5,-492.5 27.5,-492.5"/>
<text text-anchor="start" x="35.5" y="-521.5" font-family="Helvetica,sans-Serif" font-size="10.00">/home/travis/build</text>
<text text-anchor="start" x="35.5" y="-510.5" font-family="Helvetica,sans-Serif" font-size="10.00">/mgerhardy/simpleai</text>
<text text-anchor="middle" x="111" y="-499.5" font-family="Helvetica,sans-Serif" font-size="10.00">/src/ai/movement/SelectionSeek.h</text>
</a>
</g>
</g>
<!-- Node1&#45;&gt;Node19 -->
<g id="edge34" class="edge"><title>Node1&#45;&gt;Node19</title>
<path fill="none" stroke="midnightblue" d="M685.463,-660.828C607.726,-652.815 487.118,-637.5 385,-612 302.899,-591.498 210.934,-555.871 157.161,-533.688"/>
<polygon fill="midnightblue" stroke="midnightblue" points="685.366,-664.336 695.669,-661.864 686.073,-657.372 685.366,-664.336"/>
</g>
<!-- Node20 -->
<g id="node20" class="node"><title>Node20</title>
<g id="a_node20"><a xlink:href="SelectionFlee_8h.html" target="_top" xlink:title="/home/travis/build\l/mgerhardy/simpleai\l/src/ai/movement/SelectionFlee.h">
<polygon fill="white" stroke="black" points="739.5,-570.5 739.5,-611.5 902.5,-611.5 902.5,-570.5 739.5,-570.5"/>
<text text-anchor="start" x="747.5" y="-599.5" font-family="Helvetica,sans-Serif" font-size="10.00">/home/travis/build</text>
<text text-anchor="start" x="747.5" y="-588.5" font-family="Helvetica,sans-Serif" font-size="10.00">/mgerhardy/simpleai</text>
<text text-anchor="middle" x="821" y="-577.5" font-family="Helvetica,sans-Serif" font-size="10.00">/src/ai/movement/SelectionFlee.h</text>
</a>
</g>
</g>
<!-- Node1&#45;&gt;Node20 -->
<g id="edge37" class="edge"><title>Node1&#45;&gt;Node20</title>
<path fill="none" stroke="midnightblue" d="M786.229,-640.048C793.091,-630.566 800.603,-620.185 806.884,-611.506"/>
<polygon fill="midnightblue" stroke="midnightblue" points="783.191,-638.275 780.164,-648.428 788.862,-642.379 783.191,-638.275"/>
</g>
<!-- Node21 -->
<g id="node21" class="node"><title>Node21</title>
<g id="a_node21"><a xlink:href="GroupFlee_8h.html" target="_top" xlink:title="/home/travis/build\l/mgerhardy/simpleai\l/src/ai/movement/GroupFlee.h">
<polygon fill="white" stroke="black" points="212.5,-492.5 212.5,-533.5 361.5,-533.5 361.5,-492.5 212.5,-492.5"/>
<text text-anchor="start" x="220.5" y="-521.5" font-family="Helvetica,sans-Serif" font-size="10.00">/home/travis/build</text>
<text text-anchor="start" x="220.5" y="-510.5" font-family="Helvetica,sans-Serif" font-size="10.00">/mgerhardy/simpleai</text>
<text text-anchor="middle" x="287" y="-499.5" font-family="Helvetica,sans-Serif" font-size="10.00">/src/ai/movement/GroupFlee.h</text>
</a>
</g>
</g>
<!-- Node1&#45;&gt;Node21 -->
<g id="edge39" class="edge"><title>Node1&#45;&gt;Node21</title>
<path fill="none" stroke="midnightblue" d="M685.591,-658.198C627.641,-649.699 548.146,-635.066 481,-612 421.224,-591.466 356.618,-555.848 319.093,-533.676"/>
<polygon fill="midnightblue" stroke="midnightblue" points="685.393,-661.706 695.789,-659.663 686.389,-654.777 685.393,-661.706"/>
</g>
<!-- Node22 -->
<g id="node22" class="node"><title>Node22</title>
<g id="a_node22"><a xlink:href="GroupSeek_8h.html" target="_top" xlink:title="/home/travis/build\l/mgerhardy/simpleai\l/src/ai/movement/GroupSeek.h">
<polygon fill="white" stroke="black" points="778,-492.5 778,-533.5 930,-533.5 930,-492.5 778,-492.5"/>
<text text-anchor="start" x="786" y="-521.5" font-family="Helvetica,sans-Serif" font-size="10.00">/home/travis/build</text>
<text text-anchor="start" x="786" y="-510.5" font-family="Helvetica,sans-Serif" font-size="10.00">/mgerhardy/simpleai</text>
<text text-anchor="middle" x="854" y="-499.5" font-family="Helvetica,sans-Serif" font-size="10.00">/src/ai/movement/GroupSeek.h</text>
</a>
</g>
</g>
<!-- Node1&#45;&gt;Node22 -->
<g id="edge42" class="edge"><title>Node1&#45;&gt;Node22</title>
<path fill="none" stroke="midnightblue" d="M845.768,-655.475C870.849,-647.364 895.91,-634.004 911,-612 921.557,-596.606 918.22,-587.214 911,-570 904.991,-555.672 893.329,-543.162 882.112,-533.622"/>
<polygon fill="midnightblue" stroke="midnightblue" points="844.759,-652.124 836.175,-658.334 846.758,-658.832 844.759,-652.124"/>
</g>
<!-- Node23 -->
<g id="node23" class="node"><title>Node23</title>
<g id="a_node23"><a xlink:href="TargetFlee_8h.html" target="_top" xlink:title="/home/travis/build\l/mgerhardy/simpleai\l/src/ai/movement/TargetFlee.h">
<polygon fill="white" stroke="black" points="948,-492.5 948,-533.5 1098,-533.5 1098,-492.5 948,-492.5"/>
<text text-anchor="start" x="956" y="-521.5" font-family="Helvetica,sans-Serif" font-size="10.00">/home/travis/build</text>
<text text-anchor="start" x="956" y="-510.5" font-family="Helvetica,sans-Serif" font-size="10.00">/mgerhardy/simpleai</text>
<text text-anchor="middle" x="1023" y="-499.5" font-family="Helvetica,sans-Serif" font-size="10.00">/src/ai/movement/TargetFlee.h</text>
</a>
</g>
</g>
<!-- Node1&#45;&gt;Node23 -->
<g id="edge46" class="edge"><title>Node1&#45;&gt;Node23</title>
<path fill="none" stroke="midnightblue" d="M845.942,-648.839C873.556,-640.118 903.851,-628.069 929,-612 962.177,-590.801 992.07,-555.556 1008.85,-533.612"/>
<polygon fill="midnightblue" stroke="midnightblue" points="844.84,-645.516 836.299,-651.786 846.886,-652.21 844.84,-645.516"/>
</g>
<!-- Node24 -->
<g id="node24" class="node"><title>Node24</title>
<g id="a_node24"><a xlink:href="TargetSeek_8h.html" target="_top" xlink:title="/home/travis/build\l/mgerhardy/simpleai\l/src/ai/movement/TargetSeek.h">
<polygon fill="white" stroke="black" points="1116,-492.5 1116,-533.5 1270,-533.5 1270,-492.5 1116,-492.5"/>
<text text-anchor="start" x="1124" y="-521.5" font-family="Helvetica,sans-Serif" font-size="10.00">/home/travis/build</text>
<text text-anchor="start" x="1124" y="-510.5" font-family="Helvetica,sans-Serif" font-size="10.00">/mgerhardy/simpleai</text>
<text text-anchor="middle" x="1193" y="-499.5" font-family="Helvetica,sans-Serif" font-size="10.00">/src/ai/movement/TargetSeek.h</text>
</a>
</g>
</g>
<!-- Node1&#45;&gt;Node24 -->
<g id="edge49" class="edge"><title>Node1&#45;&gt;Node24</title>
<path fill="none" stroke="midnightblue" d="M845.822,-648.46C883.024,-638.668 927.662,-625.935 967,-612 1033.31,-588.51 1107.72,-554.744 1152.44,-533.607"/>
<polygon fill="midnightblue" stroke="midnightblue" points="844.829,-645.102 836.036,-651.014 846.596,-651.876 844.829,-645.102"/>
</g>
<!-- Node25 -->
<g id="node25" class="node"><title>Node25</title>
<g id="a_node25"><a xlink:href="Wander_8h.html" target="_top" xlink:title="/home/travis/build\l/mgerhardy/simpleai\l/src/ai/movement/Wander.h">
<polygon fill="white" stroke="black" points="1326.5,-492.5 1326.5,-533.5 1463.5,-533.5 1463.5,-492.5 1326.5,-492.5"/>
<text text-anchor="start" x="1334.5" y="-521.5" font-family="Helvetica,sans-Serif" font-size="10.00">/home/travis/build</text>
<text text-anchor="start" x="1334.5" y="-510.5" font-family="Helvetica,sans-Serif" font-size="10.00">/mgerhardy/simpleai</text>
<text text-anchor="middle" x="1395" y="-499.5" font-family="Helvetica,sans-Serif" font-size="10.00">/src/ai/movement/Wander.h</text>
</a>
</g>
</g>
<!-- Node1&#45;&gt;Node25 -->
<g id="edge52" class="edge"><title>Node1&#45;&gt;Node25</title>
<path fill="none" stroke="midnightblue" d="M846.173,-667.049C977.836,-664.292 1233.13,-653.576 1312,-612 1345.53,-594.324 1371.13,-556.908 1384.54,-533.764"/>
<polygon fill="midnightblue" stroke="midnightblue" points="846.068,-663.55 836.14,-667.249 846.207,-670.549 846.068,-663.55"/>
</g>
<!-- Node26 -->
<g id="node26" class="node"><title>Node26</title>
<g id="a_node26"><a xlink:href="WeightedSteering_8h.html" target="_top" xlink:title="/home/travis/build\l/mgerhardy/simpleai\l/src/ai/movement/WeightedSteering.h">
<polygon fill="white" stroke="black" points="501.5,-570.5 501.5,-611.5 682.5,-611.5 682.5,-570.5 501.5,-570.5"/>
<text text-anchor="start" x="509.5" y="-599.5" font-family="Helvetica,sans-Serif" font-size="10.00">/home/travis/build</text>
<text text-anchor="start" x="509.5" y="-588.5" font-family="Helvetica,sans-Serif" font-size="10.00">/mgerhardy/simpleai</text>
<text text-anchor="middle" x="592" y="-577.5" font-family="Helvetica,sans-Serif" font-size="10.00">/src/ai/movement/WeightedSteering.h</text>
</a>
</g>
</g>
<!-- Node1&#45;&gt;Node26 -->
<g id="edge55" class="edge"><title>Node1&#45;&gt;Node26</title>
<path fill="none" stroke="midnightblue" d="M711.806,-644.329C687.662,-633.783 659.569,-621.513 636.657,-611.506"/>
<polygon fill="midnightblue" stroke="midnightblue" points="710.626,-647.633 721.191,-648.428 713.428,-641.218 710.626,-647.633"/>
</g>
<!-- Node27 -->
<g id="node27" class="node"><title>Node27</title>
<g id="a_node27"><a xlink:href="LUASteering_8h.html" target="_top" xlink:title="/home/travis/build\l/mgerhardy/simpleai\l/src/ai/movement/LUASteering.h">
<polygon fill="white" stroke="black" points="1392.5,-414.5 1392.5,-455.5 1551.5,-455.5 1551.5,-414.5 1392.5,-414.5"/>
<text text-anchor="start" x="1400.5" y="-443.5" font-family="Helvetica,sans-Serif" font-size="10.00">/home/travis/build</text>
<text text-anchor="start" x="1400.5" y="-432.5" font-family="Helvetica,sans-Serif" font-size="10.00">/mgerhardy/simpleai</text>
<text text-anchor="middle" x="1472" y="-421.5" font-family="Helvetica,sans-Serif" font-size="10.00">/src/ai/movement/LUASteering.h</text>
</a>
</g>
</g>
<!-- Node1&#45;&gt;Node27 -->
<g id="edge59" class="edge"><title>Node1&#45;&gt;Node27</title>
<path fill="none" stroke="midnightblue" d="M846.193,-653.253C899.235,-642.976 970.141,-628.236 1032,-612 1143.35,-582.773 1181.72,-595.555 1279,-534 1300.53,-520.38 1296.77,-506.079 1318,-492 1341.71,-476.276 1370.39,-464.292 1396.55,-455.525"/>
<polygon fill="midnightblue" stroke="midnightblue" points="845.326,-649.855 836.168,-655.183 846.649,-656.729 845.326,-649.855"/>
</g>
<!-- Node2&#45;&gt;Node3 -->
<g id="edge2" class="edge"><title>Node2&#45;&gt;Node3</title>
<path fill="none" stroke="midnightblue" d="M642.109,-488.049C664.039,-477.566 689.441,-465.424 710.192,-455.506"/>
<polygon fill="midnightblue" stroke="midnightblue" points="640.459,-484.958 632.946,-492.428 643.478,-491.273 640.459,-484.958"/>
</g>
<!-- Node2&#45;&gt;Node8 -->
<g id="edge28" class="edge"><title>Node2&#45;&gt;Node8</title>
<path fill="none" stroke="midnightblue" d="M529.899,-502.729C408.616,-482.868 152,-431.455 152,-352 152,-352 152,-352 152,-176 152,-111.84 199.429,-104.191 258,-78 353.411,-35.3352 669.323,-25.1143 794.884,-22.7165"/>
<polygon fill="midnightblue" stroke="midnightblue" points="529.368,-506.189 539.798,-504.329 530.485,-499.278 529.368,-506.189"/>
</g>
<!-- Node18 -->
<g id="node18" class="node"><title>Node18</title>
<g id="a_node18"><a xlink:href="TreeNodeParser_8h.html" target="_top" xlink:title="/home/travis/build\l/mgerhardy/simpleai\l/src/ai/tree/TreeNodeParser.h">
<polygon fill="white" stroke="black" points="519,-330.5 519,-371.5 665,-371.5 665,-330.5 519,-330.5"/>
<text text-anchor="start" x="527" y="-359.5" font-family="Helvetica,sans-Serif" font-size="10.00">/home/travis/build</text>
<text text-anchor="start" x="527" y="-348.5" font-family="Helvetica,sans-Serif" font-size="10.00">/mgerhardy/simpleai</text>
<text text-anchor="middle" x="592" y="-337.5" font-family="Helvetica,sans-Serif" font-size="10.00">/src/ai/tree/TreeNodeParser.h</text>
</a>
</g>
</g>
<!-- Node2&#45;&gt;Node18 -->
<g id="edge29" class="edge"><title>Node2&#45;&gt;Node18</title>
<path fill="none" stroke="midnightblue" d="M592,-482.206C592,-449.962 592,-399.458 592,-371.78"/>
<polygon fill="midnightblue" stroke="midnightblue" points="588.5,-482.381 592,-492.381 595.5,-482.381 588.5,-482.381"/>
</g>
<!-- Node4 -->
<g id="node4" class="node"><title>Node4</title>
<g id="a_node4"><a xlink:href="ConditionParser_8h.html" target="_top" xlink:title="/home/travis/build\l/mgerhardy/simpleai\l/src/ai/conditions/Condition\lParser.h">
<polygon fill="white" stroke="black" points="683.5,-325 683.5,-377 818.5,-377 818.5,-325 683.5,-325"/>
<text text-anchor="start" x="691.5" y="-365" font-family="Helvetica,sans-Serif" font-size="10.00">/home/travis/build</text>
<text text-anchor="start" x="691.5" y="-354" font-family="Helvetica,sans-Serif" font-size="10.00">/mgerhardy/simpleai</text>
<text text-anchor="start" x="691.5" y="-343" font-family="Helvetica,sans-Serif" font-size="10.00">/src/ai/conditions/Condition</text>
<text text-anchor="middle" x="751" y="-332" font-family="Helvetica,sans-Serif" font-size="10.00">Parser.h</text>
</a>
</g>
</g>
<!-- Node3&#45;&gt;Node4 -->
<g id="edge3" class="edge"><title>Node3&#45;&gt;Node4</title>
<path fill="none" stroke="midnightblue" d="M751,-403.938C751,-395.176 751,-385.695 751,-377.261"/>
<polygon fill="midnightblue" stroke="midnightblue" points="747.5,-404.15 751,-414.15 754.5,-404.15 747.5,-404.15"/>
</g>
<!-- Node5 -->
<g id="node5" class="node"><title>Node5</title>
<g id="a_node5"><a xlink:href="Server_8h.html" target="_top" xlink:title="/home/travis/build\l/mgerhardy/simpleai\l/src/ai/server/Server.h">
<polygon fill="white" stroke="black" points="790.5,-240.5 790.5,-281.5 903.5,-281.5 903.5,-240.5 790.5,-240.5"/>
<text text-anchor="start" x="798.5" y="-269.5" font-family="Helvetica,sans-Serif" font-size="10.00">/home/travis/build</text>
<text text-anchor="start" x="798.5" y="-258.5" font-family="Helvetica,sans-Serif" font-size="10.00">/mgerhardy/simpleai</text>
<text text-anchor="middle" x="847" y="-247.5" font-family="Helvetica,sans-Serif" font-size="10.00">/src/ai/server/Server.h</text>
</a>
</g>
</g>
<!-- Node3&#45;&gt;Node5 -->
<g id="edge25" class="edge"><title>Node3&#45;&gt;Node5</title>
<path fill="none" stroke="midnightblue" d="M797.194,-408.608C808.561,-400.271 819.585,-390.006 827,-378 845.47,-348.094 848.149,-306.01 847.919,-281.612"/>
<polygon fill="midnightblue" stroke="midnightblue" points="795.142,-405.771 788.903,-414.335 799.12,-411.531 795.142,-405.771"/>
</g>
<!-- Node3&#45;&gt;Node8 -->
<g id="edge26" class="edge"><title>Node3&#45;&gt;Node8</title>
<path fill="none" stroke="midnightblue" d="M813.307,-422.905C972.179,-393.22 1385.41,-306.791 1464,-198 1521.79,-117.994 1372.66,-86.4138 1350,-78 1268.24,-47.6499 1010.86,-30.6972 899.355,-24.6129"/>
<polygon fill="midnightblue" stroke="midnightblue" points="812.41,-419.512 803.216,-424.778 813.687,-426.394 812.41,-419.512"/>
</g>
<!-- Node15 -->
<g id="node15" class="node"><title>Node15</title>
<g id="a_node15"><a xlink:href="LUATreeLoader_8h.html" target="_top" xlink:title="/home/travis/build\l/mgerhardy/simpleai\l/src/ai/tree/loaders\l/lua/LUATreeLoader.h">
<polygon fill="white" stroke="black" points="526,-235 526,-287 638,-287 638,-235 526,-235"/>
<text text-anchor="start" x="534" y="-275" font-family="Helvetica,sans-Serif" font-size="10.00">/home/travis/build</text>
<text text-anchor="start" x="534" y="-264" font-family="Helvetica,sans-Serif" font-size="10.00">/mgerhardy/simpleai</text>
<text text-anchor="start" x="534" y="-253" font-family="Helvetica,sans-Serif" font-size="10.00">/src/ai/tree/loaders</text>
<text text-anchor="middle" x="582" y="-242" font-family="Helvetica,sans-Serif" font-size="10.00">/lua/LUATreeLoader.h</text>
</a>
</g>
</g>
<!-- Node3&#45;&gt;Node15 -->
<g id="edge27" class="edge"><title>Node3&#45;&gt;Node15</title>
<path fill="none" stroke="midnightblue" d="M689.011,-428.248C625.164,-420.89 531.968,-405.657 510,-378 495.073,-359.207 499.996,-345.816 510,-324 516.669,-309.455 528.622,-297.031 540.896,-287.209"/>
<polygon fill="midnightblue" stroke="midnightblue" points="688.664,-431.731 698.99,-429.362 689.44,-424.774 688.664,-431.731"/>
</g>
<!-- Node17 -->
<g id="node17" class="node"><title>Node17</title>
<g id="a_node17"><a xlink:href="LUAAIRegistry_8h_source.html" target="_top" xlink:title="/home/travis/build\l/mgerhardy/simpleai\l/src/ai/LUAAIRegistry.h">
<polygon fill="white" stroke="black" points="1429.5,-330.5 1429.5,-371.5 1550.5,-371.5 1550.5,-330.5 1429.5,-330.5"/>
<text text-anchor="start" x="1437.5" y="-359.5" font-family="Helvetica,sans-Serif" font-size="10.00">/home/travis/build</text>
<text text-anchor="start" x="1437.5" y="-348.5" font-family="Helvetica,sans-Serif" font-size="10.00">/mgerhardy/simpleai</text>
<text text-anchor="middle" x="1490" y="-337.5" font-family="Helvetica,sans-Serif" font-size="10.00">/src/ai/LUAAIRegistry.h</text>
</a>
</g>
</g>
<!-- Node3&#45;&gt;Node17 -->
<g id="edge24" class="edge"><title>Node3&#45;&gt;Node17</title>
<path fill="none" stroke="midnightblue" d="M813.426,-431.25C926.429,-425.644 1172.18,-410.567 1377,-378 1394.1,-375.281 1412.46,-371.455 1429.31,-367.572"/>
<polygon fill="midnightblue" stroke="midnightblue" points="813.053,-427.764 803.236,-431.748 813.395,-434.756 813.053,-427.764"/>
</g>
<!-- Node4&#45;&gt;Node5 -->
<g id="edge4" class="edge"><title>Node4&#45;&gt;Node5</title>
<path fill="none" stroke="midnightblue" d="M786.103,-317.822C799.334,-305.694 813.977,-292.272 825.587,-281.628"/>
<polygon fill="midnightblue" stroke="midnightblue" points="783.516,-315.445 778.51,-324.783 788.246,-320.606 783.516,-315.445"/>
</g>
<!-- Node4&#45;&gt;Node15 -->
<g id="edge22" class="edge"><title>Node4&#45;&gt;Node15</title>
<path fill="none" stroke="midnightblue" d="M693.588,-320.105C672.953,-309.36 649.909,-297.361 630.143,-287.069"/>
<polygon fill="midnightblue" stroke="midnightblue" points="692.085,-323.269 702.571,-324.783 695.318,-317.06 692.085,-323.269"/>
</g>
<!-- Node16 -->
<g id="node16" class="node"><title>Node16</title>
<g id="a_node16"><a xlink:href="XMLTreeLoader_8h.html" target="_top" xlink:title="/home/travis/build\l/mgerhardy/simpleai\l/src/ai/tree/loaders\l/xml/XMLTreeLoader.h">
<polygon fill="white" stroke="black" points="656,-235 656,-287 772,-287 772,-235 656,-235"/>
<text text-anchor="start" x="664" y="-275" font-family="Helvetica,sans-Serif" font-size="10.00">/home/travis/build</text>
<text text-anchor="start" x="664" y="-264" font-family="Helvetica,sans-Serif" font-size="10.00">/mgerhardy/simpleai</text>
<text text-anchor="start" x="664" y="-253" font-family="Helvetica,sans-Serif" font-size="10.00">/src/ai/tree/loaders</text>
<text text-anchor="middle" x="714" y="-242" font-family="Helvetica,sans-Serif" font-size="10.00">/xml/XMLTreeLoader.h</text>
</a>
</g>
</g>
<!-- Node4&#45;&gt;Node16 -->
<g id="edge23" class="edge"><title>Node4&#45;&gt;Node16</title>
<path fill="none" stroke="midnightblue" d="M736.318,-315.081C732.385,-305.726 728.211,-295.799 724.55,-287.092"/>
<polygon fill="midnightblue" stroke="midnightblue" points="733.196,-316.685 740.298,-324.547 739.649,-313.972 733.196,-316.685"/>
</g>
<!-- Node6 -->
<g id="node6" class="node"><title>Node6</title>
<g id="a_node6"><a xlink:href="ChangeHandler_8h.html" target="_top" xlink:title="/home/travis/build\l/mgerhardy/simpleai\l/src/ai/server/ChangeHandler.h">
<polygon fill="white" stroke="black" points="933,-156.5 933,-197.5 1085,-197.5 1085,-156.5 933,-156.5"/>
<text text-anchor="start" x="941" y="-185.5" font-family="Helvetica,sans-Serif" font-size="10.00">/home/travis/build</text>
<text text-anchor="start" x="941" y="-174.5" font-family="Helvetica,sans-Serif" font-size="10.00">/mgerhardy/simpleai</text>
<text text-anchor="middle" x="1009" y="-163.5" font-family="Helvetica,sans-Serif" font-size="10.00">/src/ai/server/ChangeHandler.h</text>
</a>
</g>
</g>
<!-- Node5&#45;&gt;Node6 -->
<g id="edge5" class="edge"><title>Node5&#45;&gt;Node6</title>
<path fill="none" stroke="midnightblue" d="M894.764,-235.823C918.809,-223.652 947.58,-209.089 970.233,-197.623"/>
<polygon fill="midnightblue" stroke="midnightblue" points="893.145,-232.72 885.803,-240.359 896.306,-238.966 893.145,-232.72"/>
</g>
<!-- Node7 -->
<g id="node7" class="node"><title>Node7</title>
<g id="a_node7"><a xlink:href="ServerImpl_8h.html" target="_top" xlink:title="/home/travis/build\l/mgerhardy/simpleai\l/src/ai/server/ServerImpl.h">
<polygon fill="white" stroke="black" points="781,-78.5 781,-119.5 913,-119.5 913,-78.5 781,-78.5"/>
<text text-anchor="start" x="789" y="-107.5" font-family="Helvetica,sans-Serif" font-size="10.00">/home/travis/build</text>
<text text-anchor="start" x="789" y="-96.5" font-family="Helvetica,sans-Serif" font-size="10.00">/mgerhardy/simpleai</text>
<text text-anchor="middle" x="847" y="-85.5" font-family="Helvetica,sans-Serif" font-size="10.00">/src/ai/server/ServerImpl.h</text>
</a>
</g>
</g>
<!-- Node5&#45;&gt;Node7 -->
<g id="edge16" class="edge"><title>Node5&#45;&gt;Node7</title>
<path fill="none" stroke="midnightblue" d="M868.674,-231.979C875.256,-221.839 881.633,-209.935 885,-198 890.068,-180.034 890.482,-173.843 885,-156 880.928,-142.747 872.536,-129.814 864.672,-119.721"/>
<polygon fill="midnightblue" stroke="midnightblue" points="865.674,-230.165 862.907,-240.392 871.448,-234.122 865.674,-230.165"/>
</g>
<!-- Node5&#45;&gt;Node8 -->
<g id="edge21" class="edge"><title>Node5&#45;&gt;Node8</title>
<path fill="none" stroke="midnightblue" d="M913.896,-258.023C1062.71,-252.935 1410.87,-236.952 1446,-198 1458.5,-184.138 1457.67,-170.569 1446,-156 1377.46,-70.4378 1032.17,-35.8527 899.255,-25.572"/>
<polygon fill="midnightblue" stroke="midnightblue" points="913.409,-254.537 903.532,-258.37 913.644,-261.533 913.409,-254.537"/>
</g>
<!-- Node9 -->
<g id="node9" class="node"><title>Node9</title>
<g id="a_node9"><a xlink:href="DeleteNodeHandler_8h.html" target="_top" xlink:title="/home/travis/build\l/mgerhardy/simpleai\l/src/ai/server/DeleteNodeHandler.h">
<polygon fill="white" stroke="black" points="1103,-156.5 1103,-197.5 1273,-197.5 1273,-156.5 1103,-156.5"/>
<text text-anchor="start" x="1111" y="-185.5" font-family="Helvetica,sans-Serif" font-size="10.00">/home/travis/build</text>
<text text-anchor="start" x="1111" y="-174.5" font-family="Helvetica,sans-Serif" font-size="10.00">/mgerhardy/simpleai</text>
<text text-anchor="middle" x="1188" y="-163.5" font-family="Helvetica,sans-Serif" font-size="10.00">/src/ai/server/DeleteNodeHandler.h</text>
</a>
</g>
</g>
<!-- Node5&#45;&gt;Node9 -->
<g id="edge8" class="edge"><title>Node5&#45;&gt;Node9</title>
<path fill="none" stroke="midnightblue" d="M913.74,-243.951C969.076,-230.645 1047.94,-211.68 1106.91,-197.5"/>
<polygon fill="midnightblue" stroke="midnightblue" points="912.597,-240.626 903.692,-246.367 914.233,-247.432 912.597,-240.626"/>
</g>
<!-- Node10 -->
<g id="node10" class="node"><title>Node10</title>
<g id="a_node10"><a xlink:href="PauseHandler_8h.html" target="_top" xlink:title="/home/travis/build\l/mgerhardy/simpleai\l/src/ai/server/PauseHandler.h">
<polygon fill="white" stroke="black" points="1291,-156.5 1291,-197.5 1437,-197.5 1437,-156.5 1291,-156.5"/>
<text text-anchor="start" x="1299" y="-185.5" font-family="Helvetica,sans-Serif" font-size="10.00">/home/travis/build</text>
<text text-anchor="start" x="1299" y="-174.5" font-family="Helvetica,sans-Serif" font-size="10.00">/mgerhardy/simpleai</text>
<text text-anchor="middle" x="1364" y="-163.5" font-family="Helvetica,sans-Serif" font-size="10.00">/src/ai/server/PauseHandler.h</text>
</a>
</g>
</g>
<!-- Node5&#45;&gt;Node10 -->
<g id="edge10" class="edge"><title>Node5&#45;&gt;Node10</title>
<path fill="none" stroke="midnightblue" d="M913.709,-252.545C999.371,-242.503 1152.44,-222.972 1282,-198 1284.88,-197.445 1287.81,-196.855 1290.76,-196.239"/>
<polygon fill="midnightblue" stroke="midnightblue" points="913.131,-249.089 903.603,-253.722 913.941,-256.042 913.131,-249.089"/>
</g>
<!-- Node11 -->
<g id="node11" class="node"><title>Node11</title>
<g id="a_node11"><a xlink:href="ResetHandler_8h.html" target="_top" xlink:title="/home/travis/build\l/mgerhardy/simpleai\l/src/ai/server/ResetHandler.h">
<polygon fill="white" stroke="black" points="218.5,-156.5 218.5,-197.5 363.5,-197.5 363.5,-156.5 218.5,-156.5"/>
<text text-anchor="start" x="226.5" y="-185.5" font-family="Helvetica,sans-Serif" font-size="10.00">/home/travis/build</text>
<text text-anchor="start" x="226.5" y="-174.5" font-family="Helvetica,sans-Serif" font-size="10.00">/mgerhardy/simpleai</text>
<text text-anchor="middle" x="291" y="-163.5" font-family="Helvetica,sans-Serif" font-size="10.00">/src/ai/server/ResetHandler.h</text>
</a>
</g>
</g>
<!-- Node5&#45;&gt;Node11 -->
<g id="edge12" class="edge"><title>Node5&#45;&gt;Node11</title>
<path fill="none" stroke="midnightblue" d="M792.25,-237.336C788.146,-236.075 784.033,-234.941 780,-234 603.154,-192.742 552.167,-227.599 373,-198 369.964,-197.498 366.874,-196.945 363.76,-196.35"/>
<polygon fill="midnightblue" stroke="midnightblue" points="791.179,-240.668 801.772,-240.478 793.372,-234.02 791.179,-240.668"/>
</g>
<!-- Node12 -->
<g id="node12" class="node"><title>Node12</title>
<g id="a_node12"><a xlink:href="SelectHandler_8h.html" target="_top" xlink:title="/home/travis/build\l/mgerhardy/simpleai\l/src/ai/server/SelectHandler.h">
<polygon fill="white" stroke="black" points="382,-156.5 382,-197.5 528,-197.5 528,-156.5 382,-156.5"/>
<text text-anchor="start" x="390" y="-185.5" font-family="Helvetica,sans-Serif" font-size="10.00">/home/travis/build</text>
<text text-anchor="start" x="390" y="-174.5" font-family="Helvetica,sans-Serif" font-size="10.00">/mgerhardy/simpleai</text>
<text text-anchor="middle" x="455" y="-163.5" font-family="Helvetica,sans-Serif" font-size="10.00">/src/ai/server/SelectHandler.h</text>
</a>
</g>
</g>
<!-- Node5&#45;&gt;Node12 -->
<g id="edge14" class="edge"><title>Node5&#45;&gt;Node12</title>
<path fill="none" stroke="midnightblue" d="M790.913,-237.196C787.248,-236.029 783.588,-234.949 780,-234 674.452,-206.077 644.148,-218.958 537,-198 534.124,-197.437 531.197,-196.841 528.244,-196.219"/>
<polygon fill="midnightblue" stroke="midnightblue" points="789.99,-240.579 800.584,-240.46 792.228,-233.946 789.99,-240.579"/>
</g>
<!-- Node13 -->
<g id="node13" class="node"><title>Node13</title>
<g id="a_node13"><a xlink:href="StepHandler_8h.html" target="_top" xlink:title="/home/travis/build\l/mgerhardy/simpleai\l/src/ai/server/StepHandler.h">
<polygon fill="white" stroke="black" points="546.5,-156.5 546.5,-197.5 685.5,-197.5 685.5,-156.5 546.5,-156.5"/>
<text text-anchor="start" x="554.5" y="-185.5" font-family="Helvetica,sans-Serif" font-size="10.00">/home/travis/build</text>
<text text-anchor="start" x="554.5" y="-174.5" font-family="Helvetica,sans-Serif" font-size="10.00">/mgerhardy/simpleai</text>
<text text-anchor="middle" x="616" y="-163.5" font-family="Helvetica,sans-Serif" font-size="10.00">/src/ai/server/StepHandler.h</text>
</a>
</g>
</g>
<!-- Node5&#45;&gt;Node13 -->
<g id="edge17" class="edge"><title>Node5&#45;&gt;Node13</title>
<path fill="none" stroke="midnightblue" d="M787.773,-236.866C785.15,-235.889 782.55,-234.93 780,-234 745.374,-221.376 706.334,-208.011 675.033,-197.504"/>
<polygon fill="midnightblue" stroke="midnightblue" points="786.735,-240.215 797.327,-240.462 789.201,-233.664 786.735,-240.215"/>
</g>
<!-- Node14 -->
<g id="node14" class="node"><title>Node14</title>
<g id="a_node14"><a xlink:href="UpdateNodeHandler_8h.html" target="_top" xlink:title="/home/travis/build\l/mgerhardy/simpleai\l/src/ai/server/UpdateNodeHandler.h">
<polygon fill="white" stroke="black" points="703.5,-156.5 703.5,-197.5 876.5,-197.5 876.5,-156.5 703.5,-156.5"/>
<text text-anchor="start" x="711.5" y="-185.5" font-family="Helvetica,sans-Serif" font-size="10.00">/home/travis/build</text>
<text text-anchor="start" x="711.5" y="-174.5" font-family="Helvetica,sans-Serif" font-size="10.00">/mgerhardy/simpleai</text>
<text text-anchor="middle" x="790" y="-163.5" font-family="Helvetica,sans-Serif" font-size="10.00">/src/ai/server/UpdateNodeHandler.h</text>
</a>
</g>
</g>
<!-- Node5&#45;&gt;Node14 -->
<g id="edge19" class="edge"><title>Node5&#45;&gt;Node14</title>
<path fill="none" stroke="midnightblue" d="M827.455,-231.883C819.626,-220.619 810.792,-207.912 803.671,-197.667"/>
<polygon fill="midnightblue" stroke="midnightblue" points="824.62,-233.937 833.202,-240.15 830.368,-229.941 824.62,-233.937"/>
</g>
<!-- Node6&#45;&gt;Node7 -->
<g id="edge6" class="edge"><title>Node6&#45;&gt;Node7</title>
<path fill="none" stroke="midnightblue" d="M957.946,-152.049C935.602,-141.566 909.72,-129.424 888.578,-119.506"/>
<polygon fill="midnightblue" stroke="midnightblue" points="956.741,-155.349 967.281,-156.428 959.714,-149.012 956.741,-155.349"/>
</g>
<!-- Node7&#45;&gt;Node8 -->
<g id="edge7" class="edge"><title>Node7&#45;&gt;Node8</title>
<path fill="none" stroke="midnightblue" d="M847,-68.2965C847,-59.3009 847,-49.6532 847,-41.5056"/>
<polygon fill="midnightblue" stroke="midnightblue" points="843.5,-68.4281 847,-78.4281 850.5,-68.4281 843.5,-68.4281"/>
</g>
<!-- Node9&#45;&gt;Node7 -->
<g id="edge9" class="edge"><title>Node9&#45;&gt;Node7</title>
<path fill="none" stroke="midnightblue" d="M1093.05,-154.837C1035.8,-142.08 964.324,-126.148 913.182,-114.75"/>
<polygon fill="midnightblue" stroke="midnightblue" points="1092.31,-158.259 1102.83,-157.018 1093.83,-151.426 1092.31,-158.259"/>
</g>
<!-- Node10&#45;&gt;Node7 -->
<g id="edge11" class="edge"><title>Node10&#45;&gt;Node7</title>
<path fill="none" stroke="midnightblue" d="M1280.6,-155.837C1144.85,-131.08 996.829,-114.57 913.314,-106.22"/>
<polygon fill="midnightblue" stroke="midnightblue" points="1280.3,-159.341 1290.77,-157.712 1281.57,-152.457 1280.3,-159.341"/>
</g>
<!-- Node11&#45;&gt;Node7 -->
<g id="edge13" class="edge"><title>Node11&#45;&gt;Node7</title>
<path fill="none" stroke="midnightblue" d="M373.701,-155.986C524.667,-129.253 690.654,-112.995 780.679,-105.271"/>
<polygon fill="midnightblue" stroke="midnightblue" points="373.006,-152.555 363.779,-157.762 374.24,-159.445 373.006,-152.555"/>
</g>
<!-- Node12&#45;&gt;Node7 -->
<g id="edge15" class="edge"><title>Node12&#45;&gt;Node7</title>
<path fill="none" stroke="midnightblue" d="M538.307,-155.777C627.709,-137.025 720.213,-120.889 780.858,-110.756"/>
<polygon fill="midnightblue" stroke="midnightblue" points="537.329,-152.407 528.267,-157.897 538.775,-159.256 537.329,-152.407"/>
</g>
<!-- Node13&#45;&gt;Node7 -->
<g id="edge18" class="edge"><title>Node13&#45;&gt;Node7</title>
<path fill="none" stroke="midnightblue" d="M685.406,-153.165C718.015,-142.437 756.489,-129.779 787.713,-119.506"/>
<polygon fill="midnightblue" stroke="midnightblue" points="683.893,-149.978 675.488,-156.428 686.081,-156.627 683.893,-149.978"/>
</g>
<!-- Node14&#45;&gt;Node7 -->
<g id="edge20" class="edge"><title>Node14&#45;&gt;Node7</title>
<path fill="none" stroke="midnightblue" d="M810.747,-148.338C817.917,-138.778 825.795,-128.273 832.371,-119.506"/>
<polygon fill="midnightblue" stroke="midnightblue" points="807.879,-146.328 804.679,-156.428 813.479,-150.528 807.879,-146.328"/>
</g>
<!-- Node18&#45;&gt;Node5 -->
<g id="edge30" class="edge"><title>Node18&#45;&gt;Node5</title>
<path fill="none" stroke="midnightblue" d="M663.792,-327.285C698.964,-315.913 741.854,-301.681 780,-288 785.637,-285.978 791.516,-283.8 797.348,-281.596"/>
<polygon fill="midnightblue" stroke="midnightblue" points="662.53,-324.014 654.087,-330.414 664.678,-330.677 662.53,-324.014"/>
</g>
<!-- Node18&#45;&gt;Node8 -->
<g id="edge31" class="edge"><title>Node18&#45;&gt;Node8</title>
<path fill="none" stroke="midnightblue" d="M508.828,-339.572C371.336,-319.002 120.203,-265.384 209,-156 283.008,-64.8331 656.199,-33.4201 794.948,-24.7898"/>
<polygon fill="midnightblue" stroke="midnightblue" points="508.527,-343.065 518.929,-341.055 509.543,-336.139 508.527,-343.065"/>
</g>
<!-- Node18&#45;&gt;Node15 -->
<g id="edge32" class="edge"><title>Node18&#45;&gt;Node15</title>
<path fill="none" stroke="midnightblue" d="M588.62,-320.255C587.398,-309.506 586.032,-297.484 584.86,-287.166"/>
<polygon fill="midnightblue" stroke="midnightblue" points="585.174,-320.929 589.781,-330.47 592.129,-320.139 585.174,-320.929"/>
</g>
<!-- Node18&#45;&gt;Node16 -->
<g id="edge33" class="edge"><title>Node18&#45;&gt;Node16</title>
<path fill="none" stroke="midnightblue" d="M627.29,-324.545C643.582,-312.793 662.869,-298.881 679.111,-287.166"/>
<polygon fill="midnightblue" stroke="midnightblue" points="625.139,-321.781 619.076,-330.47 629.234,-327.458 625.139,-321.781"/>
</g>
<!-- Node19&#45;&gt;Node3 -->
<g id="edge35" class="edge"><title>Node19&#45;&gt;Node3</title>
<path fill="none" stroke="midnightblue" d="M204.676,-491.813C391.697,-462.56 603.066,-445.985 698.993,-439.361"/>
<polygon fill="midnightblue" stroke="midnightblue" points="203.993,-488.378 194.662,-493.396 205.085,-495.292 203.993,-488.378"/>
</g>
<!-- Node19&#45;&gt;Node8 -->
<g id="edge36" class="edge"><title>Node19&#45;&gt;Node8</title>
<path fill="none" stroke="midnightblue" d="M89.0651,-483.652C67.5652,-452.974 38,-401.743 38,-352 38,-352 38,-352 38,-176 38,-129.898 35.4243,-106.065 72,-78 129.124,-34.168 630.003,-24.4967 794.736,-22.4936"/>
<polygon fill="midnightblue" stroke="midnightblue" points="86.4759,-486.046 95.1601,-492.116 92.1562,-481.956 86.4759,-486.046"/>
</g>
<!-- Node20&#45;&gt;Node3 -->
<g id="edge38" class="edge"><title>Node20&#45;&gt;Node3</title>
<path fill="none" stroke="midnightblue" d="M790.44,-563.28C782.321,-554.699 774.338,-544.639 769,-534 756.433,-508.952 752.563,-476.361 751.415,-455.804"/>
<polygon fill="midnightblue" stroke="midnightblue" points="788.01,-565.8 797.547,-570.416 792.97,-560.86 788.01,-565.8"/>
</g>
<!-- Node21&#45;&gt;Node3 -->
<g id="edge40" class="edge"><title>Node21&#45;&gt;Node3</title>
<path fill="none" stroke="midnightblue" d="M371.468,-498.165C466.963,-482.523 619.452,-457.547 698.952,-444.525"/>
<polygon fill="midnightblue" stroke="midnightblue" points="370.852,-494.719 361.55,-499.789 371.984,-501.627 370.852,-494.719"/>
</g>
<!-- Node21&#45;&gt;Node8 -->
<g id="edge41" class="edge"><title>Node21&#45;&gt;Node8</title>
<path fill="none" stroke="midnightblue" d="M202.64,-490.887C156.682,-478.659 107.616,-464.121 100,-456 67.5502,-421.398 76,-399.437 76,-352 76,-352 76,-352 76,-176 76,-131.157 65.7813,-106.982 100,-78 152.783,-33.2947 633.752,-24.218 794.76,-22.4271"/>
<polygon fill="midnightblue" stroke="midnightblue" points="201.822,-494.291 212.384,-493.459 203.608,-487.523 201.822,-494.291"/>
</g>
<!-- Node22&#45;&gt;Node3 -->
<g id="edge43" class="edge"><title>Node22&#45;&gt;Node3</title>
<path fill="none" stroke="midnightblue" d="M819.238,-486.35C805.579,-476.272 790.158,-464.893 777.435,-455.506"/>
<polygon fill="midnightblue" stroke="midnightblue" points="817.35,-489.307 827.475,-492.428 821.506,-483.674 817.35,-489.307"/>
</g>
<!-- Node22&#45;&gt;Node8 -->
<g id="edge44" class="edge"><title>Node22&#45;&gt;Node8</title>
<path fill="none" stroke="midnightblue" d="M928.842,-489.377C1035.33,-455.258 1234.35,-384.245 1385,-288 1446.8,-248.519 1510.22,-224.484 1484,-156 1467.34,-112.5 1455.55,-99.0506 1414,-78 1324.66,-32.7383 1021.88,-24.0425 899.234,-22.3847"/>
<polygon fill="midnightblue" stroke="midnightblue" points="927.611,-486.096 919.143,-492.465 929.734,-492.766 927.611,-486.096"/>
</g>
<!-- Node23&#45;&gt;Node3 -->
<g id="edge47" class="edge"><title>Node23&#45;&gt;Node3</title>
<path fill="none" stroke="midnightblue" d="M943.184,-489.698C898.02,-477.079 842.828,-461.658 803.195,-450.584"/>
<polygon fill="midnightblue" stroke="midnightblue" points="942.38,-493.108 952.953,-492.428 944.264,-486.366 942.38,-493.108"/>
</g>
<!-- Node23&#45;&gt;Node8 -->
<g id="edge48" class="edge"><title>Node23&#45;&gt;Node8</title>
<path fill="none" stroke="midnightblue" d="M1108.62,-492.238C1190.43,-484.578 1524.29,-488.261 1560,-456 1594.87,-424.501 1579,-398.987 1579,-352 1579,-352 1579,-352 1579,-176 1579,-105.406 1519.6,-104.083 1454,-78 1353.57,-38.0669 1027,-26.2074 899.073,-23.0445"/>
<polygon fill="midnightblue" stroke="midnightblue" points="1107.96,-488.792 1098.45,-493.456 1108.79,-495.742 1107.96,-488.792"/>
</g>
<!-- Node24&#45;&gt;Node3 -->
<g id="edge50" class="edge"><title>Node24&#45;&gt;Node3</title>
<path fill="none" stroke="midnightblue" d="M1105.79,-492.03C991.844,-470.236 870.667,-452.479 803.231,-443.08"/>
<polygon fill="midnightblue" stroke="midnightblue" points="1105.26,-495.49 1115.74,-493.945 1106.58,-488.617 1105.26,-495.49"/>
</g>
<!-- Node24&#45;&gt;Node8 -->
<g id="edge51" class="edge"><title>Node24&#45;&gt;Node8</title>
<path fill="none" stroke="midnightblue" d="M1280.36,-497.741C1292.98,-495.763 1305.82,-493.795 1318,-492 1377.23,-483.27 1539.33,-494.714 1585,-456 1621.89,-424.728 1617,-400.361 1617,-352 1617,-352 1617,-352 1617,-176 1617,-113.771 1573.58,-103.904 1517,-78 1407.15,-27.7098 1036.89,-22.1342 899.169,-21.8422"/>
<polygon fill="midnightblue" stroke="midnightblue" points="1279.64,-494.312 1270.3,-499.327 1280.73,-501.227 1279.64,-494.312"/>
</g>
<!-- Node25&#45;&gt;Node3 -->
<g id="edge53" class="edge"><title>Node25&#45;&gt;Node3</title>
<path fill="none" stroke="midnightblue" d="M1316.47,-497.748C1303.96,-495.683 1291.14,-493.688 1279,-492 1105.3,-467.84 898.164,-448.661 803.223,-440.403"/>
<polygon fill="midnightblue" stroke="midnightblue" points="1315.98,-501.215 1326.42,-499.415 1317.13,-494.311 1315.98,-501.215"/>
</g>
<!-- Node25&#45;&gt;Node8 -->
<g id="edge54" class="edge"><title>Node25&#45;&gt;Node8</title>
<path fill="none" stroke="midnightblue" d="M1473.75,-508.967C1519.23,-503.368 1574.81,-489.446 1613,-456 1650.5,-423.16 1655,-401.849 1655,-352 1655,-352 1655,-352 1655,-176 1655,-118.052 1620.82,-103.932 1569,-78 1509.52,-48.2344 1054.99,-29.4123 899.198,-23.7814"/>
<polygon fill="midnightblue" stroke="midnightblue" points="1473.17,-505.511 1463.62,-510.1 1473.95,-512.468 1473.17,-505.511"/>
</g>
<!-- Node26&#45;&gt;Node2 -->
<g id="edge56" class="edge"><title>Node26&#45;&gt;Node2</title>
<path fill="none" stroke="midnightblue" d="M592,-560.297C592,-551.301 592,-541.653 592,-533.506"/>
<polygon fill="midnightblue" stroke="midnightblue" points="588.5,-560.428 592,-570.428 595.5,-560.428 588.5,-560.428"/>
</g>
<!-- Node26&#45;&gt;Node3 -->
<g id="edge57" class="edge"><title>Node26&#45;&gt;Node3</title>
<path fill="none" stroke="midnightblue" d="M621.397,-563.48C631.5,-554.242 642.826,-543.749 653,-534 680.797,-507.365 712.129,-475.743 731.719,-455.771"/>
<polygon fill="midnightblue" stroke="midnightblue" points="618.982,-560.944 613.948,-570.266 623.697,-566.119 618.982,-560.944"/>
</g>
<!-- Node26&#45;&gt;Node8 -->
<g id="edge58" class="edge"><title>Node26&#45;&gt;Node8</title>
<path fill="none" stroke="midnightblue" d="M544.527,-565.853C500.276,-544.119 431.98,-512.53 370,-492 301.631,-469.353 274.518,-491.759 212,-456 156.87,-424.467 114,-415.51 114,-352 114,-352 114,-352 114,-176 114,-125.613 128.398,-104.907 171,-78 223.335,-44.946 645.678,-28.4129 794.962,-23.5593"/>
<polygon fill="midnightblue" stroke="midnightblue" points="543.078,-569.04 553.594,-570.333 546.179,-562.765 543.078,-569.04"/>
</g>
<!-- Node27&#45;&gt;Node17 -->
<g id="edge60" class="edge"><title>Node27&#45;&gt;Node17</title>
<path fill="none" stroke="midnightblue" d="M1478.54,-404.217C1480.92,-393.379 1483.54,-381.409 1485.68,-371.667"/>
<polygon fill="midnightblue" stroke="midnightblue" points="1475.08,-403.632 1476.36,-414.15 1481.92,-405.133 1475.08,-403.632"/>
</g>
</g>
</svg>
        <g id="navigator" transform="translate(0 0)" fill="#404254">
                <rect fill="#f2f5e9" fill-opacity="0.5" stroke="#606060" stroke-width=".5" x="0" y="0" width="60" height="60"/>
                <use id="zoomplus" xlink:href="#zoomPlus" x="17" y="9" onmousedown="handleZoom(evt,'in')"/>
                <use id="zoomminus" xlink:href="#zoomMin" x="42" y="9" onmousedown="handleZoom(evt,'out')"/>
                <use id="reset" xlink:href="#resetDef" x="30" y="36" onmousedown="handleReset()"/>
                <g id="arrowUp" xlink:href="#dirArrow" transform="translate(30 24)" onmousedown="handlePan(0,-1)">
                  <use xlink:href="#rim" fill="#404040">
                        <set attributeName="fill" to="#808080" begin="arrowUp.mouseover" end="arrowUp.mouseout"/>
                  </use>
                  <path fill="none" stroke="white" stroke-width="1.5" d="M0,-3.0v7 M-2.5,-0.5L0,-3.0L2.5,-0.5"/>
                </g>
                <g id="arrowRight" xlink:href="#dirArrow" transform="rotate(90) translate(36 -43)" onmousedown="handlePan(1,0)">
                  <use xlink:href="#rim" fill="#404040">
                        <set attributeName="fill" to="#808080" begin="arrowRight.mouseover" end="arrowRight.mouseout"/>
                  </use>
                  <path fill="none" stroke="white" stroke-width="1.5" d="M0,-3.0v7 M-2.5,-0.5L0,-3.0L2.5,-0.5"/>
                </g>
                <g id="arrowDown" xlink:href="#dirArrow" transform="rotate(180) translate(-30 -48)" onmousedown="handlePan(0,1)">
                  <use xlink:href="#rim" fill="#404040">
                        <set attributeName="fill" to="#808080" begin="arrowDown.mouseover" end="arrowDown.mouseout"/>
                  </use>
                  <path fill="none" stroke="white" stroke-width="1.5" d="M0,-3.0v7 M-2.5,-0.5L0,-3.0L2.5,-0.5"/>
                </g>
                <g id="arrowLeft" xlink:href="#dirArrow" transform="rotate(270) translate(-36 17)" onmousedown="handlePan(-1,0)">
                  <use xlink:href="#rim" fill="#404040">
                        <set attributeName="fill" to="#808080" begin="arrowLeft.mouseover" end="arrowLeft.mouseout"/>
                  </use>
                  <path fill="none" stroke="white" stroke-width="1.5" d="M0,-3.0v7 M-2.5,-0.5L0,-3.0L2.5,-0.5"/>
                </g>
        </g>
        <svg viewBox="0 0 15 15" width="100%" height="30px" preserveAspectRatio="xMaxYMin meet">
         <g id="arrow_out" transform="scale(0.3 0.3)">
          <a xlink:href="Steering_8h__dep__incl_org.svg" target="_base">
           <rect id="button" ry="5" rx="5" y="6" x="6" height="38" width="38"
                fill="#f2f5e9" fill-opacity="0.5" stroke="#606060" stroke-width="1.0"/>
           <path id="arrow"
             d="M 11.500037,31.436501 C 11.940474,20.09759 22.043105,11.32322 32.158766,21.979434 L 37.068811,17.246167 C 37.068811,17.246167 37.088388,32 37.088388,32 L 22.160133,31.978069 C 22.160133,31.978069 26.997745,27.140456 26.997745,27.140456 C 18.528582,18.264221 13.291696,25.230495 11.500037,31.436501 z"
             style="fill:#404040;"/>
          </a>
         </g>
        </svg>
</svg>
