<?xml version="1.0" encoding="UTF-8" standalone="no"?>
<!DOCTYPE svg PUBLIC "-//W3C//DTD SVG 1.1//EN"
 "http://www.w3.org/Graphics/SVG/1.1/DTD/svg11.dtd">
<!-- Generated by graphviz version 2.36.0 (20140111.2315)
 -->
<!-- Title: /home/travis/build/mgerhardy/simpleai/src/ai/common/String.h Pages: 1 -->
<svg width="1111pt" height="274pt"
 viewBox="0.00 0.00 1111.00 274.00" xmlns="http://www.w3.org/2000/svg" xmlns:xlink="http://www.w3.org/1999/xlink">
<g id="graph0" class="graph" transform="scale(1 1) rotate(0) translate(4 270)">
<title>/home/travis/build/mgerhardy/simpleai/src/ai/common/String.h</title>
<polygon fill="white" stroke="none" points="-4,4 -4,-270 1107,-270 1107,4 -4,4"/>
<!-- Node1 -->
<g id="node1" class="node"><title>Node1</title>
<polygon fill="#bfbfbf" stroke="black" points="876.5,-224.5 876.5,-265.5 997.5,-265.5 997.5,-224.5 876.5,-224.5"/>
<text text-anchor="start" x="884.5" y="-253.5" font-family="Helvetica,sans-Serif" font-size="10.00">/home/travis/build</text>
<text text-anchor="start" x="884.5" y="-242.5" font-family="Helvetica,sans-Serif" font-size="10.00">/mgerhardy/simpleai</text>
<text text-anchor="middle" x="937" y="-231.5" font-family="Helvetica,sans-Serif" font-size="10.00">/src/ai/common/String.h</text>
</g>
<!-- Node2 -->
<g id="node2" class="node"><title>Node2</title>
<g id="a_node2"><a xlink:href="Math_8h.html" target="_top" xlink:title="Math.h">
<polygon fill="white" stroke="black" points="542.5,-168.5 542.5,-187.5 589.5,-187.5 589.5,-168.5 542.5,-168.5"/>
<text text-anchor="middle" x="566" y="-175.5" font-family="Helvetica,sans-Serif" font-size="10.00">Math.h</text>
</a>
</g>
</g>
<!-- Node1&#45;&gt;Node2 -->
<g id="edge1" class="edge"><title>Node1&#45;&gt;Node2</title>
<path fill="none" stroke="midnightblue" d="M876.152,-233.339C797.255,-219.516 662.365,-195.883 599.76,-184.915"/>
<polygon fill="midnightblue" stroke="midnightblue" points="600.099,-181.421 589.645,-183.143 598.891,-188.316 600.099,-181.421"/>
</g>
<!-- Node8 -->
<g id="node8" class="node"><title>Node8</title>
<polygon fill="white" stroke="#bfbfbf" points="576.5,-56.5 576.5,-75.5 617.5,-75.5 617.5,-56.5 576.5,-56.5"/>
<text text-anchor="middle" x="597" y="-63.5" font-family="Helvetica,sans-Serif" font-size="10.00">string</text>
</g>
<!-- Node1&#45;&gt;Node8 -->
<g id="edge19" class="edge"><title>Node1&#45;&gt;Node8</title>
<path fill="none" stroke="midnightblue" d="M925.945,-224.386C919.959,-213.678 912.483,-200.159 906,-188 888.137,-154.499 897.657,-134.395 867,-112 829.274,-84.4409 690.22,-72.6696 627.747,-68.6917"/>
<polygon fill="midnightblue" stroke="midnightblue" points="627.903,-65.1948 617.708,-68.0781 627.476,-72.1818 627.903,-65.1948"/>
</g>
<!-- Node18 -->
<g id="node18" class="node"><title>Node18</title>
<polygon fill="white" stroke="#bfbfbf" points="915,-168.5 915,-187.5 959,-187.5 959,-168.5 915,-168.5"/>
<text text-anchor="middle" x="937" y="-175.5" font-family="Helvetica,sans-Serif" font-size="10.00">vector</text>
</g>
<!-- Node1&#45;&gt;Node18 -->
<g id="edge18" class="edge"><title>Node1&#45;&gt;Node18</title>
<path fill="none" stroke="midnightblue" d="M937,-224.498C937,-216.065 937,-206.235 937,-197.874"/>
<polygon fill="midnightblue" stroke="midnightblue" points="940.5,-197.652 937,-187.652 933.5,-197.653 940.5,-197.652"/>
</g>
<!-- Node19 -->
<g id="node19" class="node"><title>Node19</title>
<polygon fill="white" stroke="#bfbfbf" points="977,-168.5 977,-187.5 1029,-187.5 1029,-168.5 977,-168.5"/>
<text text-anchor="middle" x="1003" y="-175.5" font-family="Helvetica,sans-Serif" font-size="10.00">sstream</text>
</g>
<!-- Node1&#45;&gt;Node19 -->
<g id="edge20" class="edge"><title>Node1&#45;&gt;Node19</title>
<path fill="none" stroke="midnightblue" d="M956.802,-224.498C966.435,-215.011 977.863,-203.756 986.944,-194.813"/>
<polygon fill="midnightblue" stroke="midnightblue" points="989.545,-197.163 994.214,-187.652 984.634,-192.176 989.545,-197.163"/>
</g>
<!-- Node20 -->
<g id="node20" class="node"><title>Node20</title>
<polygon fill="white" stroke="#bfbfbf" points="1047,-168.5 1047,-187.5 1103,-187.5 1103,-168.5 1047,-168.5"/>
<text text-anchor="middle" x="1075" y="-175.5" font-family="Helvetica,sans-Serif" font-size="10.00">algorithm</text>
</g>
<!-- Node1&#45;&gt;Node20 -->
<g id="edge21" class="edge"><title>Node1&#45;&gt;Node20</title>
<path fill="none" stroke="midnightblue" d="M978.405,-224.498C1000.78,-213.957 1027.8,-201.233 1047.56,-191.923"/>
<polygon fill="midnightblue" stroke="midnightblue" points="1049.07,-195.08 1056.63,-187.652 1046.09,-188.747 1049.07,-195.08"/>
</g>
<!-- Node3 -->
<g id="node3" class="node"><title>Node3</title>
<g id="a_node3"><a xlink:href="Types_8h.html" target="_top" xlink:title="Types.h">
<polygon fill="white" stroke="black" points="95,-112.5 95,-131.5 147,-131.5 147,-112.5 95,-112.5"/>
<text text-anchor="middle" x="121" y="-119.5" font-family="Helvetica,sans-Serif" font-size="10.00">Types.h</text>
</a>
</g>
</g>
<!-- Node2&#45;&gt;Node3 -->
<g id="edge2" class="edge"><title>Node2&#45;&gt;Node3</title>
<path fill="none" stroke="midnightblue" d="M542.257,-175.581C480.388,-171.633 309.045,-159.101 157.253,-131.993"/>
<polygon fill="midnightblue" stroke="midnightblue" points="157.748,-128.526 147.284,-130.187 156.5,-135.414 157.748,-128.526"/>
</g>
<!-- Node11 -->
<g id="node11" class="node"><title>Node11</title>
<polygon fill="white" stroke="#bfbfbf" points="165,-112.5 165,-131.5 235,-131.5 235,-112.5 165,-112.5"/>
<text text-anchor="middle" x="200" y="-119.5" font-family="Helvetica,sans-Serif" font-size="10.00">glm/glm.hpp</text>
</g>
<!-- Node2&#45;&gt;Node11 -->
<g id="edge11" class="edge"><title>Node2&#45;&gt;Node11</title>
<path fill="none" stroke="midnightblue" d="M542.488,-174.229C490.666,-168.012 362.524,-152.039 244.919,-132.065"/>
<polygon fill="midnightblue" stroke="midnightblue" points="245.474,-128.61 235.027,-130.372 244.293,-135.509 245.474,-128.61"/>
</g>
<!-- Node12 -->
<g id="node12" class="node"><title>Node12</title>
<polygon fill="white" stroke="#bfbfbf" points="253.5,-112.5 253.5,-131.5 366.5,-131.5 366.5,-112.5 253.5,-112.5"/>
<text text-anchor="middle" x="310" y="-119.5" font-family="Helvetica,sans-Serif" font-size="10.00">glm/gtc/constants.hpp</text>
</g>
<!-- Node2&#45;&gt;Node12 -->
<g id="edge12" class="edge"><title>Node2&#45;&gt;Node12</title>
<path fill="none" stroke="midnightblue" d="M542.375,-172.017C501.241,-163.34 415.61,-145.277 360.573,-133.668"/>
<polygon fill="midnightblue" stroke="midnightblue" points="361.177,-130.218 350.67,-131.579 359.732,-137.068 361.177,-130.218"/>
</g>
<!-- Node13 -->
<g id="node13" class="node"><title>Node13</title>
<polygon fill="white" stroke="#bfbfbf" points="384.5,-112.5 384.5,-131.5 485.5,-131.5 485.5,-112.5 384.5,-112.5"/>
<text text-anchor="middle" x="435" y="-119.5" font-family="Helvetica,sans-Serif" font-size="10.00">glm/gtc/epsilon.hpp</text>
</g>
<!-- Node2&#45;&gt;Node13 -->
<g id="edge13" class="edge"><title>Node2&#45;&gt;Node13</title>
<path fill="none" stroke="midnightblue" d="M545.243,-168.444C523.684,-159.557 489.737,-145.563 465.206,-135.451"/>
<polygon fill="midnightblue" stroke="midnightblue" points="466.239,-132.092 455.66,-131.516 463.572,-138.563 466.239,-132.092"/>
</g>
<!-- Node14 -->
<g id="node14" class="node"><title>Node14</title>
<polygon fill="white" stroke="#bfbfbf" points="503.5,-112.5 503.5,-131.5 628.5,-131.5 628.5,-112.5 503.5,-112.5"/>
<text text-anchor="middle" x="566" y="-119.5" font-family="Helvetica,sans-Serif" font-size="10.00">glm/gtx/compatibility.hpp</text>
</g>
<!-- Node2&#45;&gt;Node14 -->
<g id="edge14" class="edge"><title>Node2&#45;&gt;Node14</title>
<path fill="none" stroke="midnightblue" d="M566,-168.083C566,-161.006 566,-150.861 566,-141.986"/>
<polygon fill="midnightblue" stroke="midnightblue" points="569.5,-141.751 566,-131.751 562.5,-141.751 569.5,-141.751"/>
</g>
<!-- Node15 -->
<g id="node15" class="node"><title>Node15</title>
<polygon fill="white" stroke="#bfbfbf" points="647,-112.5 647,-131.5 739,-131.5 739,-112.5 647,-112.5"/>
<text text-anchor="middle" x="693" y="-119.5" font-family="Helvetica,sans-Serif" font-size="10.00">glm/gtx/norm.hpp</text>
</g>
<!-- Node2&#45;&gt;Node15 -->
<g id="edge15" class="edge"><title>Node2&#45;&gt;Node15</title>
<path fill="none" stroke="midnightblue" d="M586.124,-168.444C607.024,-159.557 639.935,-145.563 663.716,-135.451"/>
<polygon fill="midnightblue" stroke="midnightblue" points="665.138,-138.65 672.971,-131.516 662.398,-132.208 665.138,-138.65"/>
</g>
<!-- Node16 -->
<g id="node16" class="node"><title>Node16</title>
<polygon fill="white" stroke="#bfbfbf" points="757,-112.5 757,-131.5 797,-131.5 797,-112.5 757,-112.5"/>
<text text-anchor="middle" x="777" y="-119.5" font-family="Helvetica,sans-Serif" font-size="10.00">limits</text>
</g>
<!-- Node2&#45;&gt;Node16 -->
<g id="edge16" class="edge"><title>Node2&#45;&gt;Node16</title>
<path fill="none" stroke="midnightblue" d="M589.675,-171.613C622.742,-163.989 684.834,-149.311 746.82,-132.211"/>
<polygon fill="midnightblue" stroke="midnightblue" points="748.066,-135.497 756.763,-129.446 746.191,-128.753 748.066,-135.497"/>
</g>
<!-- Node17 -->
<g id="node17" class="node"><title>Node17</title>
<polygon fill="white" stroke="#bfbfbf" points="815,-112.5 815,-131.5 859,-131.5 859,-112.5 815,-112.5"/>
<text text-anchor="middle" x="837" y="-119.5" font-family="Helvetica,sans-Serif" font-size="10.00">cmath</text>
</g>
<!-- Node2&#45;&gt;Node17 -->
<g id="edge17" class="edge"><title>Node2&#45;&gt;Node17</title>
<path fill="none" stroke="midnightblue" d="M589.666,-173.347C631.297,-166.753 720.496,-151.88 804.975,-132.063"/>
<polygon fill="midnightblue" stroke="midnightblue" points="805.797,-135.465 814.718,-129.75 804.18,-128.654 805.797,-135.465"/>
</g>
<!-- Node4 -->
<g id="node4" class="node"><title>Node4</title>
<g id="a_node4"><a xlink:href="Log_8h.html" target="_top" xlink:title="Log.h">
<polygon fill="white" stroke="black" points="60.5,-56.5 60.5,-75.5 101.5,-75.5 101.5,-56.5 60.5,-56.5"/>
<text text-anchor="middle" x="81" y="-63.5" font-family="Helvetica,sans-Serif" font-size="10.00">Log.h</text>
</a>
</g>
</g>
<!-- Node3&#45;&gt;Node4 -->
<g id="edge3" class="edge"><title>Node3&#45;&gt;Node4</title>
<path fill="none" stroke="midnightblue" d="M114.395,-112.083C108.745,-104.455 100.455,-93.2645 93.5488,-83.9408"/>
<polygon fill="midnightblue" stroke="midnightblue" points="96.2471,-81.7034 87.4823,-75.7511 90.6221,-85.87 96.2471,-81.7034"/>
</g>
<!-- Node5 -->
<g id="node5" class="node"><title>Node5</title>
<polygon fill="white" stroke="#bfbfbf" points="-0.5,-0.5 -0.5,-19.5 42.5,-19.5 42.5,-0.5 -0.5,-0.5"/>
<text text-anchor="middle" x="21" y="-7.5" font-family="Helvetica,sans-Serif" font-size="10.00">cstdio</text>
</g>
<!-- Node3&#45;&gt;Node5 -->
<g id="edge10" class="edge"><title>Node3&#45;&gt;Node5</title>
<path fill="none" stroke="midnightblue" d="M101.941,-112.499C86.5236,-104.821 65.1283,-92.2413 51,-76 39.2855,-62.5335 31.2733,-43.7207 26.4961,-29.7977"/>
<polygon fill="midnightblue" stroke="midnightblue" points="29.7087,-28.3497 23.3495,-19.8756 23.0362,-30.4658 29.7087,-28.3497"/>
</g>
<!-- Node3&#45;&gt;Node8 -->
<g id="edge7" class="edge"><title>Node3&#45;&gt;Node8</title>
<path fill="none" stroke="midnightblue" d="M147.28,-113.791C150.209,-113.123 153.159,-112.507 156,-112 308.412,-84.7866 493.615,-72.5546 565.953,-68.5634"/>
<polygon fill="midnightblue" stroke="midnightblue" points="566.384,-72.0454 576.182,-68.013 566.008,-65.0555 566.384,-72.0454"/>
</g>
<!-- Node9 -->
<g id="node9" class="node"><title>Node9</title>
<polygon fill="white" stroke="#bfbfbf" points="119.5,-56.5 119.5,-75.5 202.5,-75.5 202.5,-56.5 119.5,-56.5"/>
<text text-anchor="middle" x="161" y="-63.5" font-family="Helvetica,sans-Serif" font-size="10.00">unordered_map</text>
</g>
<!-- Node3&#45;&gt;Node9 -->
<g id="edge8" class="edge"><title>Node3&#45;&gt;Node9</title>
<path fill="none" stroke="midnightblue" d="M127.605,-112.083C133.255,-104.455 141.545,-93.2645 148.451,-83.9408"/>
<polygon fill="midnightblue" stroke="midnightblue" points="151.378,-85.87 154.518,-75.7511 145.753,-81.7034 151.378,-85.87"/>
</g>
<!-- Node10 -->
<g id="node10" class="node"><title>Node10</title>
<polygon fill="white" stroke="#bfbfbf" points="220.5,-56.5 220.5,-75.5 269.5,-75.5 269.5,-56.5 220.5,-56.5"/>
<text text-anchor="middle" x="245" y="-63.5" font-family="Helvetica,sans-Serif" font-size="10.00">cassert</text>
</g>
<!-- Node3&#45;&gt;Node10 -->
<g id="edge9" class="edge"><title>Node3&#45;&gt;Node10</title>
<path fill="none" stroke="midnightblue" d="M140.648,-112.444C160.965,-103.596 192.903,-89.6875 216.098,-79.5865"/>
<polygon fill="midnightblue" stroke="midnightblue" points="217.673,-82.7181 225.444,-75.5164 214.878,-76.3002 217.673,-82.7181"/>
</g>
<!-- Node4&#45;&gt;Node5 -->
<g id="edge4" class="edge"><title>Node4&#45;&gt;Node5</title>
<path fill="none" stroke="midnightblue" d="M71.36,-56.324C62.4904,-48.3414 49.1253,-36.3128 38.3921,-26.6529"/>
<polygon fill="midnightblue" stroke="midnightblue" points="40.5898,-23.922 30.8154,-19.8339 35.907,-29.1251 40.5898,-23.922"/>
</g>
<!-- Node6 -->
<g id="node6" class="node"><title>Node6</title>
<polygon fill="white" stroke="#bfbfbf" points="60.5,-0.5 60.5,-19.5 109.5,-19.5 109.5,-0.5 60.5,-0.5"/>
<text text-anchor="middle" x="85" y="-7.5" font-family="Helvetica,sans-Serif" font-size="10.00">cstdarg</text>
</g>
<!-- Node4&#45;&gt;Node6 -->
<g id="edge5" class="edge"><title>Node4&#45;&gt;Node6</title>
<path fill="none" stroke="midnightblue" d="M81.6605,-56.083C82.1848,-49.0059 82.9362,-38.8611 83.5936,-29.9865"/>
<polygon fill="midnightblue" stroke="midnightblue" points="87.1034,-29.9823 84.3518,-19.7511 80.1225,-29.4652 87.1034,-29.9823"/>
</g>
<!-- Node7 -->
<g id="node7" class="node"><title>Node7</title>
<polygon fill="white" stroke="#bfbfbf" points="128,-0.5 128,-19.5 174,-19.5 174,-0.5 128,-0.5"/>
<text text-anchor="middle" x="151" y="-7.5" font-family="Helvetica,sans-Serif" font-size="10.00">cstring</text>
</g>
<!-- Node4&#45;&gt;Node7 -->
<g id="edge6" class="edge"><title>Node4&#45;&gt;Node7</title>
<path fill="none" stroke="midnightblue" d="M92.2467,-56.324C102.797,-48.1849 118.801,-35.8395 131.442,-26.0874"/>
<polygon fill="midnightblue" stroke="midnightblue" points="133.769,-28.7132 139.549,-19.8339 129.493,-23.1707 133.769,-28.7132"/>
</g>
</g>
</svg>
