<?xml version="1.0" encoding="UTF-8" standalone="no"?>
<!DOCTYPE svg PUBLIC "-//W3C//DTD SVG 1.1//EN"
 "http://www.w3.org/Graphics/SVG/1.1/DTD/svg11.dtd">
<!-- Generated by graphviz version 2.36.0 (20140111.2315)
 -->
<!-- Title: ai::SteerNodeFactoryContext Pages: 1 -->
<svg width="233pt" height="176pt"
 viewBox="0.00 0.00 233.00 176.00" xmlns="http://www.w3.org/2000/svg" xmlns:xlink="http://www.w3.org/1999/xlink">
<g id="graph0" class="graph" transform="scale(1 1) rotate(0) translate(4 172)">
<title>ai::SteerNodeFactoryContext</title>
<polygon fill="white" stroke="none" points="-4,4 -4,-172 229,-172 229,4 -4,4"/>
<!-- Node1 -->
<g id="node1" class="node"><title>Node1</title>
<polygon fill="#bfbfbf" stroke="black" points="37,-0.5 37,-19.5 181,-19.5 181,-0.5 37,-0.5"/>
<text text-anchor="middle" x="109" y="-7.5" font-family="Helvetica,sans-Serif" font-size="10.00">ai::SteerNodeFactoryContext</text>
</g>
<!-- Node2 -->
<g id="node2" class="node"><title>Node2</title>
<polygon fill="white" stroke="#bfbfbf" points="0,-78.5 0,-97.5 130,-97.5 130,-78.5 0,-78.5"/>
<text text-anchor="middle" x="65" y="-85.5" font-family="Helvetica,sans-Serif" font-size="10.00">std::vector&lt; SteeringPtr &gt;</text>
</g>
<!-- Node2&#45;&gt;Node1 -->
<g id="edge1" class="edge"><title>Node2&#45;&gt;Node1</title>
<path fill="none" stroke="#9a32cd" stroke-dasharray="5,2" d="M72.7598,-69.2121C77.1327,-59.7261 82.9264,-47.9846 89,-38 92.8805,-31.6207 97.8805,-24.8707 101.91,-19.7156"/>
<polygon fill="#9a32cd" stroke="#9a32cd" points="69.5243,-67.8735 68.6263,-78.4302 75.9115,-70.7376 69.5243,-67.8735"/>
<text text-anchor="middle" x="110.5" y="-46.5" font-family="Helvetica,sans-Serif" font-size="10.00"> steerings</text>
</g>
<!-- Node3 -->
<g id="node3" class="node"><title>Node3</title>
<g id="a_node3"><a xlink:title="STL class. ">
<polygon fill="white" stroke="#bfbfbf" points="148,-78.5 148,-97.5 208,-97.5 208,-78.5 148,-78.5"/>
<text text-anchor="middle" x="178" y="-85.5" font-family="Helvetica,sans-Serif" font-size="10.00">std::string</text>
</a>
</g>
</g>
<!-- Node3&#45;&gt;Node1 -->
<g id="edge2" class="edge"><title>Node3&#45;&gt;Node1</title>
<path fill="none" stroke="#9a32cd" stroke-dasharray="5,2" d="M163.36,-70.875C149.144,-55.2161 128.104,-32.0422 116.823,-19.6165"/>
<polygon fill="#9a32cd" stroke="#9a32cd" points="160.772,-73.2307 170.085,-78.2818 165.954,-68.5253 160.772,-73.2307"/>
<text text-anchor="middle" x="177" y="-52" font-family="Helvetica,sans-Serif" font-size="10.00"> parameters</text>
<text text-anchor="middle" x="177" y="-41" font-family="Helvetica,sans-Serif" font-size="10.00">name</text>
</g>
<!-- Node4 -->
<g id="node4" class="node"><title>Node4</title>
<g id="a_node4"><a xlink:title="STL class. ">
<polygon fill="white" stroke="#bfbfbf" points="130.5,-137 130.5,-167 225.5,-167 225.5,-137 130.5,-137"/>
<text text-anchor="start" x="138.5" y="-155" font-family="Helvetica,sans-Serif" font-size="10.00">std::basic_string&lt;</text>
<text text-anchor="middle" x="178" y="-144" font-family="Helvetica,sans-Serif" font-size="10.00"> char &gt;</text>
</a>
</g>
</g>
<!-- Node4&#45;&gt;Node3 -->
<g id="edge3" class="edge"><title>Node4&#45;&gt;Node3</title>
<path fill="none" stroke="midnightblue" d="M178,-126.871C178,-116.663 178,-105.408 178,-97.8419"/>
<polygon fill="midnightblue" stroke="midnightblue" points="174.5,-126.931 178,-136.931 181.5,-126.931 174.5,-126.931"/>
</g>
</g>
</svg>
