<?xml version="1.0" encoding="UTF-8" standalone="no"?>
<!DOCTYPE svg PUBLIC "-//W3C//DTD SVG 1.1//EN"
 "http://www.w3.org/Graphics/SVG/1.1/DTD/svg11.dtd">
<!-- Generated by graphviz version 2.36.0 (20140111.2315)
 -->
<!-- Title: ai::TreeNodeFactoryContext Pages: 1 -->
<svg width="148pt" height="176pt"
 viewBox="0.00 0.00 148.00 176.00" xmlns="http://www.w3.org/2000/svg" xmlns:xlink="http://www.w3.org/1999/xlink">
<g id="graph0" class="graph" transform="scale(1 1) rotate(0) translate(4 172)">
<title>ai::TreeNodeFactoryContext</title>
<polygon fill="white" stroke="none" points="-4,4 -4,-172 144,-172 144,4 -4,4"/>
<!-- Node1 -->
<g id="node1" class="node"><title>Node1</title>
<polygon fill="#bfbfbf" stroke="black" points="0,-0.5 0,-19.5 140,-19.5 140,-0.5 0,-0.5"/>
<text text-anchor="middle" x="70" y="-7.5" font-family="Helvetica,sans-Serif" font-size="10.00">ai::TreeNodeFactoryContext</text>
</g>
<!-- Node2 -->
<g id="node2" class="node"><title>Node2</title>
<g id="a_node2"><a xlink:title="STL class. ">
<polygon fill="white" stroke="#bfbfbf" points="40,-78.5 40,-97.5 100,-97.5 100,-78.5 40,-78.5"/>
<text text-anchor="middle" x="70" y="-85.5" font-family="Helvetica,sans-Serif" font-size="10.00">std::string</text>
</a>
</g>
</g>
<!-- Node2&#45;&gt;Node1 -->
<g id="edge1" class="edge"><title>Node2&#45;&gt;Node1</title>
<path fill="none" stroke="#9a32cd" stroke-dasharray="5,2" d="M70,-68.2239C70,-52.6974 70,-31.3582 70,-19.6165"/>
<polygon fill="#9a32cd" stroke="#9a32cd" points="66.5001,-68.2818 70,-78.2818 73.5001,-68.2819 66.5001,-68.2818"/>
<text text-anchor="middle" x="96" y="-52" font-family="Helvetica,sans-Serif" font-size="10.00"> parameters</text>
<text text-anchor="middle" x="96" y="-41" font-family="Helvetica,sans-Serif" font-size="10.00">name</text>
</g>
<!-- Node3 -->
<g id="node3" class="node"><title>Node3</title>
<g id="a_node3"><a xlink:title="STL class. ">
<polygon fill="white" stroke="#bfbfbf" points="22.5,-137 22.5,-167 117.5,-167 117.5,-137 22.5,-137"/>
<text text-anchor="start" x="30.5" y="-155" font-family="Helvetica,sans-Serif" font-size="10.00">std::basic_string&lt;</text>
<text text-anchor="middle" x="70" y="-144" font-family="Helvetica,sans-Serif" font-size="10.00"> char &gt;</text>
</a>
</g>
</g>
<!-- Node3&#45;&gt;Node2 -->
<g id="edge2" class="edge"><title>Node3&#45;&gt;Node2</title>
<path fill="none" stroke="midnightblue" d="M70,-126.871C70,-116.663 70,-105.408 70,-97.8419"/>
<polygon fill="midnightblue" stroke="midnightblue" points="66.5001,-126.931 70,-136.931 73.5001,-126.931 66.5001,-126.931"/>
</g>
</g>
</svg>
