<?xml version="1.0" encoding="UTF-8" standalone="no"?>
<!DOCTYPE svg PUBLIC "-//W3C//DTD SVG 1.1//EN"
 "http://www.w3.org/Graphics/SVG/1.1/DTD/svg11.dtd">
<!-- Generated by graphviz version 2.36.0 (20140111.2315)
 -->
<!-- Title: ai::Server::Event Pages: 1 -->
<svg width="231pt" height="186pt"
 viewBox="0.00 0.00 231.00 186.00" xmlns="http://www.w3.org/2000/svg" xmlns:xlink="http://www.w3.org/1999/xlink">
<g id="graph0" class="graph" transform="scale(1 1) rotate(0) translate(4 182)">
<title>ai::Server::Event</title>
<polygon fill="white" stroke="none" points="-4,4 -4,-182 227,-182 227,4 -4,4"/>
<!-- Node1 -->
<g id="node1" class="node"><title>Node1</title>
<polygon fill="#bfbfbf" stroke="black" points="74,-0.5 74,-19.5 164,-19.5 164,-0.5 74,-0.5"/>
<text text-anchor="middle" x="119" y="-7.5" font-family="Helvetica,sans-Serif" font-size="10.00">ai::Server::Event</text>
</g>
<!-- Node2 -->
<g id="node2" class="node"><title>Node2</title>
<g id="a_node2"><a xlink:href="structai_1_1Client.html" target="_top" xlink:title="ai::Client">
<polygon fill="white" stroke="black" points="39,-68.5 39,-87.5 95,-87.5 95,-68.5 39,-68.5"/>
<text text-anchor="middle" x="67" y="-75.5" font-family="Helvetica,sans-Serif" font-size="10.00">ai::Client</text>
</a>
</g>
</g>
<!-- Node2&#45;&gt;Node1 -->
<g id="edge1" class="edge"><title>Node2&#45;&gt;Node1</title>
<path fill="none" stroke="#9a32cd" stroke-dasharray="5,2" d="M74.3669,-59.0547C77.6747,-52.107 81.9719,-44.3219 87,-38 92.6106,-30.9457 100.294,-24.3905 106.725,-19.506"/>
<polygon fill="#9a32cd" stroke="#9a32cd" points="71.0929,-57.8047 70.2586,-68.3667 77.4974,-60.6303 71.0929,-57.8047"/>
<text text-anchor="middle" x="110.5" y="-41.5" font-family="Helvetica,sans-Serif" font-size="10.00"> newClient</text>
</g>
<!-- Node3 -->
<g id="node3" class="node"><title>Node3</title>
<polygon fill="white" stroke="#bfbfbf" points="0,-152.5 0,-171.5 110,-171.5 110,-152.5 0,-152.5"/>
<text text-anchor="middle" x="55" y="-159.5" font-family="Helvetica,sans-Serif" font-size="10.00">std::deque&lt; uint8_t &gt;</text>
</g>
<!-- Node3&#45;&gt;Node2 -->
<g id="edge2" class="edge"><title>Node3&#45;&gt;Node2</title>
<path fill="none" stroke="#9a32cd" stroke-dasharray="5,2" d="M57.744,-142.25C60.2475,-125.142 63.8359,-100.621 65.725,-87.7123"/>
<polygon fill="#9a32cd" stroke="#9a32cd" points="54.2692,-141.823 56.2842,-152.225 61.1954,-142.837 54.2692,-141.823"/>
<text text-anchor="middle" x="70" y="-120" font-family="Helvetica,sans-Serif" font-size="10.00"> in</text>
<text text-anchor="middle" x="70" y="-109" font-family="Helvetica,sans-Serif" font-size="10.00">out</text>
</g>
<!-- Node4 -->
<g id="node4" class="node"><title>Node4</title>
<g id="a_node4"><a xlink:title="STL class. ">
<polygon fill="white" stroke="#bfbfbf" points="135,-68.5 135,-87.5 195,-87.5 195,-68.5 135,-68.5"/>
<text text-anchor="middle" x="165" y="-75.5" font-family="Helvetica,sans-Serif" font-size="10.00">std::string</text>
</a>
</g>
</g>
<!-- Node4&#45;&gt;Node1 -->
<g id="edge3" class="edge"><title>Node4&#45;&gt;Node1</title>
<path fill="none" stroke="#9a32cd" stroke-dasharray="5,2" d="M153.108,-59.9377C144.169,-47.112 132.284,-30.0591 125.162,-19.8411"/>
<polygon fill="#9a32cd" stroke="#9a32cd" points="150.397,-62.1689 158.986,-68.3717 156.14,-58.1664 150.397,-62.1689"/>
<text text-anchor="middle" x="165" y="-41.5" font-family="Helvetica,sans-Serif" font-size="10.00"> strData</text>
</g>
<!-- Node5 -->
<g id="node5" class="node"><title>Node5</title>
<g id="a_node5"><a xlink:title="STL class. ">
<polygon fill="white" stroke="#bfbfbf" points="128.5,-147 128.5,-177 223.5,-177 223.5,-147 128.5,-147"/>
<text text-anchor="start" x="136.5" y="-165" font-family="Helvetica,sans-Serif" font-size="10.00">std::basic_string&lt;</text>
<text text-anchor="middle" x="176" y="-154" font-family="Helvetica,sans-Serif" font-size="10.00"> char &gt;</text>
</a>
</g>
</g>
<!-- Node5&#45;&gt;Node4 -->
<g id="edge4" class="edge"><title>Node5&#45;&gt;Node4</title>
<path fill="none" stroke="midnightblue" d="M172.727,-136.6C170.504,-120.031 167.698,-99.1113 166.153,-87.5915"/>
<polygon fill="midnightblue" stroke="midnightblue" points="169.285,-137.271 174.084,-146.717 176.223,-136.34 169.285,-137.271"/>
</g>
</g>
</svg>
