<?xml version="1.0" encoding="UTF-8" standalone="no"?>
<!DOCTYPE svg PUBLIC "-//W3C//DTD SVG 1.1//EN"
 "http://www.w3.org/Graphics/SVG/1.1/DTD/svg11.dtd">
<!-- Generated by graphviz version 2.36.0 (20140111.2315)
 -->
<!-- Title: ai::ConditionFactoryContext Pages: 1 -->
<svg width="340pt" height="166pt"
 viewBox="0.00 0.00 340.00 166.00" xmlns="http://www.w3.org/2000/svg" xmlns:xlink="http://www.w3.org/1999/xlink">
<g id="graph0" class="graph" transform="scale(1 1) rotate(0) translate(4 162)">
<title>ai::ConditionFactoryContext</title>
<polygon fill="white" stroke="none" points="-4,4 -4,-162 336,-162 336,4 -4,4"/>
<!-- Node1 -->
<g id="node1" class="node"><title>Node1</title>
<polygon fill="#bfbfbf" stroke="black" points="79.5,-0.5 79.5,-19.5 218.5,-19.5 218.5,-0.5 79.5,-0.5"/>
<text text-anchor="middle" x="149" y="-7.5" font-family="Helvetica,sans-Serif" font-size="10.00">ai::ConditionFactoryContext</text>
</g>
<!-- Node2 -->
<g id="node2" class="node"><title>Node2</title>
<polygon fill="white" stroke="#bfbfbf" points="-0.5,-68.5 -0.5,-87.5 100.5,-87.5 100.5,-68.5 -0.5,-68.5"/>
<text text-anchor="middle" x="50" y="-75.5" font-family="Helvetica,sans-Serif" font-size="10.00">std::list&lt; FilterPtr &gt;</text>
</g>
<!-- Node2&#45;&gt;Node1 -->
<g id="edge1" class="edge"><title>Node2&#45;&gt;Node1</title>
<path fill="none" stroke="#9a32cd" stroke-dasharray="5,2" d="M71.2831,-62.8113C90.9705,-49.6863 119.599,-30.6004 136.054,-19.6305"/>
<polygon fill="#9a32cd" stroke="#9a32cd" points="69.3216,-59.9124 62.9425,-68.3717 73.2045,-65.7368 69.3216,-59.9124"/>
<text text-anchor="middle" x="123" y="-41.5" font-family="Helvetica,sans-Serif" font-size="10.00"> filters</text>
</g>
<!-- Node3 -->
<g id="node3" class="node"><title>Node3</title>
<g id="a_node3"><a xlink:title="STL class. ">
<polygon fill="white" stroke="#bfbfbf" points="119,-68.5 119,-87.5 179,-87.5 179,-68.5 119,-68.5"/>
<text text-anchor="middle" x="149" y="-75.5" font-family="Helvetica,sans-Serif" font-size="10.00">std::string</text>
</a>
</g>
</g>
<!-- Node3&#45;&gt;Node1 -->
<g id="edge2" class="edge"><title>Node3&#45;&gt;Node1</title>
<path fill="none" stroke="#9a32cd" stroke-dasharray="5,2" d="M149,-58.0413C149,-45.4724 149,-29.5631 149,-19.8411"/>
<polygon fill="#9a32cd" stroke="#9a32cd" points="145.5,-58.3716 149,-68.3717 152.5,-58.3717 145.5,-58.3716"/>
<text text-anchor="middle" x="175" y="-41.5" font-family="Helvetica,sans-Serif" font-size="10.00"> parameters</text>
</g>
<!-- Node4 -->
<g id="node4" class="node"><title>Node4</title>
<g id="a_node4"><a xlink:title="STL class. ">
<polygon fill="white" stroke="#bfbfbf" points="101.5,-127 101.5,-157 196.5,-157 196.5,-127 101.5,-127"/>
<text text-anchor="start" x="109.5" y="-145" font-family="Helvetica,sans-Serif" font-size="10.00">std::basic_string&lt;</text>
<text text-anchor="middle" x="149" y="-134" font-family="Helvetica,sans-Serif" font-size="10.00"> char &gt;</text>
</a>
</g>
</g>
<!-- Node4&#45;&gt;Node3 -->
<g id="edge3" class="edge"><title>Node4&#45;&gt;Node3</title>
<path fill="none" stroke="midnightblue" d="M149,-116.871C149,-106.663 149,-95.4077 149,-87.8419"/>
<polygon fill="midnightblue" stroke="midnightblue" points="145.5,-116.931 149,-126.931 152.5,-116.931 145.5,-116.931"/>
</g>
<!-- Node5 -->
<g id="node5" class="node"><title>Node5</title>
<polygon fill="white" stroke="#bfbfbf" points="197.5,-68.5 197.5,-87.5 332.5,-87.5 332.5,-68.5 197.5,-68.5"/>
<text text-anchor="middle" x="265" y="-75.5" font-family="Helvetica,sans-Serif" font-size="10.00">std::vector&lt; ConditionPtr &gt;</text>
</g>
<!-- Node5&#45;&gt;Node1 -->
<g id="edge4" class="edge"><title>Node5&#45;&gt;Node1</title>
<path fill="none" stroke="#9a32cd" stroke-dasharray="5,2" d="M244.486,-62.7395C233.078,-55.0466 218.497,-45.5994 205,-38 193.056,-31.2747 179.18,-24.5772 168.229,-19.5351"/>
<polygon fill="#9a32cd" stroke="#9a32cd" points="242.641,-65.7177 252.874,-68.4641 246.587,-59.9359 242.641,-65.7177"/>
<text text-anchor="middle" x="248" y="-41.5" font-family="Helvetica,sans-Serif" font-size="10.00"> conditions</text>
</g>
</g>
</svg>
