<?xml version="1.0" encoding="UTF-8" standalone="no"?>
<!DOCTYPE svg PUBLIC "-//W3C//DTD SVG 1.1//EN"
 "http://www.w3.org/Graphics/SVG/1.1/DTD/svg11.dtd">
<!-- Generated by graphviz version 2.36.0 (20140111.2315)
 -->
<!-- Title: ai::FilterFactoryContext Pages: 1 -->
<svg width="204pt" height="166pt"
 viewBox="0.00 0.00 204.00 166.00" xmlns="http://www.w3.org/2000/svg" xmlns:xlink="http://www.w3.org/1999/xlink">
<g id="graph0" class="graph" transform="scale(1 1) rotate(0) translate(4 162)">
<title>ai::FilterFactoryContext</title>
<polygon fill="white" stroke="none" points="-4,4 -4,-162 200,-162 200,4 -4,4"/>
<!-- Node1 -->
<g id="node1" class="node"><title>Node1</title>
<polygon fill="#bfbfbf" stroke="black" points="27.5,-0.5 27.5,-19.5 146.5,-19.5 146.5,-0.5 27.5,-0.5"/>
<text text-anchor="middle" x="87" y="-7.5" font-family="Helvetica,sans-Serif" font-size="10.00">ai::FilterFactoryContext</text>
</g>
<!-- Node2 -->
<g id="node2" class="node"><title>Node2</title>
<polygon fill="white" stroke="#bfbfbf" points="-0.5,-68.5 -0.5,-87.5 100.5,-87.5 100.5,-68.5 -0.5,-68.5"/>
<text text-anchor="middle" x="50" y="-75.5" font-family="Helvetica,sans-Serif" font-size="10.00">std::list&lt; FilterPtr &gt;</text>
</g>
<!-- Node2&#45;&gt;Node1 -->
<g id="edge1" class="edge"><title>Node2&#45;&gt;Node1</title>
<path fill="none" stroke="#9a32cd" stroke-dasharray="5,2" d="M59.7753,-59.563C66.9407,-46.7815 76.371,-29.9599 82.0436,-19.8411"/>
<polygon fill="#9a32cd" stroke="#9a32cd" points="56.6742,-57.9373 54.8371,-68.3717 62.7802,-61.3604 56.6742,-57.9373"/>
<text text-anchor="middle" x="86" y="-41.5" font-family="Helvetica,sans-Serif" font-size="10.00"> filters</text>
</g>
<!-- Node3 -->
<g id="node3" class="node"><title>Node3</title>
<g id="a_node3"><a xlink:title="STL class. ">
<polygon fill="white" stroke="#bfbfbf" points="119,-68.5 119,-87.5 179,-87.5 179,-68.5 119,-68.5"/>
<text text-anchor="middle" x="149" y="-75.5" font-family="Helvetica,sans-Serif" font-size="10.00">std::string</text>
</a>
</g>
</g>
<!-- Node3&#45;&gt;Node1 -->
<g id="edge2" class="edge"><title>Node3&#45;&gt;Node1</title>
<path fill="none" stroke="#9a32cd" stroke-dasharray="5,2" d="M134.014,-61.0474C121.862,-48.1111 105.184,-30.3567 95.3053,-19.8411"/>
<polygon fill="#9a32cd" stroke="#9a32cd" points="131.497,-63.4795 140.895,-68.3717 136.599,-58.6868 131.497,-63.4795"/>
<text text-anchor="middle" x="149" y="-41.5" font-family="Helvetica,sans-Serif" font-size="10.00"> parameters</text>
</g>
<!-- Node4 -->
<g id="node4" class="node"><title>Node4</title>
<g id="a_node4"><a xlink:title="STL class. ">
<polygon fill="white" stroke="#bfbfbf" points="101.5,-127 101.5,-157 196.5,-157 196.5,-127 101.5,-127"/>
<text text-anchor="start" x="109.5" y="-145" font-family="Helvetica,sans-Serif" font-size="10.00">std::basic_string&lt;</text>
<text text-anchor="middle" x="149" y="-134" font-family="Helvetica,sans-Serif" font-size="10.00"> char &gt;</text>
</a>
</g>
</g>
<!-- Node4&#45;&gt;Node3 -->
<g id="edge3" class="edge"><title>Node4&#45;&gt;Node3</title>
<path fill="none" stroke="midnightblue" d="M149,-116.871C149,-106.663 149,-95.4077 149,-87.8419"/>
<polygon fill="midnightblue" stroke="midnightblue" points="145.5,-116.931 149,-126.931 152.5,-116.931 145.5,-116.931"/>
</g>
</g>
</svg>
