<?xml version="1.0" encoding="UTF-8" standalone="no"?>
<!DOCTYPE svg PUBLIC "-//W3C//DTD SVG 1.1//EN"
 "http://www.w3.org/Graphics/SVG/1.1/DTD/svg11.dtd">
<!-- Generated by graphviz version 2.36.0 (20140111.2315)
 -->
<!-- Title: /home/travis/build/mgerhardy/simpleai/src/ai/common/ThreadScheduler.h Pages: 1 -->
<svg width="616pt" height="106pt"
 viewBox="0.00 0.00 616.00 106.00" xmlns="http://www.w3.org/2000/svg" xmlns:xlink="http://www.w3.org/1999/xlink">
<g id="graph0" class="graph" transform="scale(1 1) rotate(0) translate(4 102)">
<title>/home/travis/build/mgerhardy/simpleai/src/ai/common/ThreadScheduler.h</title>
<polygon fill="white" stroke="none" points="-4,4 -4,-102 612,-102 612,4 -4,4"/>
<!-- Node1 -->
<g id="node1" class="node"><title>Node1</title>
<polygon fill="#bfbfbf" stroke="black" points="202.5,-56.5 202.5,-97.5 371.5,-97.5 371.5,-56.5 202.5,-56.5"/>
<text text-anchor="start" x="210.5" y="-85.5" font-family="Helvetica,sans-Serif" font-size="10.00">/home/travis/build</text>
<text text-anchor="start" x="210.5" y="-74.5" font-family="Helvetica,sans-Serif" font-size="10.00">/mgerhardy/simpleai</text>
<text text-anchor="middle" x="287" y="-63.5" font-family="Helvetica,sans-Serif" font-size="10.00">/src/ai/common/ThreadScheduler.h</text>
</g>
<!-- Node2 -->
<g id="node2" class="node"><title>Node2</title>
<polygon fill="white" stroke="#bfbfbf" points="0,-0.5 0,-19.5 46,-19.5 46,-0.5 0,-0.5"/>
<text text-anchor="middle" x="23" y="-7.5" font-family="Helvetica,sans-Serif" font-size="10.00">chrono</text>
</g>
<!-- Node1&#45;&gt;Node2 -->
<g id="edge1" class="edge"><title>Node1&#45;&gt;Node2</title>
<path fill="none" stroke="midnightblue" d="M202.779,-56.4697C161.165,-46.6293 109.989,-34.2459 55.8302,-20.1494"/>
<polygon fill="midnightblue" stroke="midnightblue" points="56.6042,-16.7342 46.0441,-17.592 54.8342,-23.5068 56.6042,-16.7342"/>
</g>
<!-- Node3 -->
<g id="node3" class="node"><title>Node3</title>
<polygon fill="white" stroke="#bfbfbf" points="64,-0.5 64,-19.5 108,-19.5 108,-0.5 64,-0.5"/>
<text text-anchor="middle" x="86" y="-7.5" font-family="Helvetica,sans-Serif" font-size="10.00">vector</text>
</g>
<!-- Node1&#45;&gt;Node3 -->
<g id="edge2" class="edge"><title>Node1&#45;&gt;Node3</title>
<path fill="none" stroke="midnightblue" d="M226.693,-56.4979C190.903,-44.9239 146.97,-30.7168 117.818,-21.2895"/>
<polygon fill="midnightblue" stroke="midnightblue" points="118.753,-17.9132 108.161,-18.1664 116.599,-24.5736 118.753,-17.9132"/>
</g>
<!-- Node4 -->
<g id="node4" class="node"><title>Node4</title>
<polygon fill="white" stroke="#bfbfbf" points="126.5,-0.5 126.5,-19.5 185.5,-19.5 185.5,-0.5 126.5,-0.5"/>
<text text-anchor="middle" x="156" y="-7.5" font-family="Helvetica,sans-Serif" font-size="10.00">functional</text>
</g>
<!-- Node1&#45;&gt;Node4 -->
<g id="edge3" class="edge"><title>Node1&#45;&gt;Node4</title>
<path fill="none" stroke="midnightblue" d="M247.696,-56.4979C226.645,-46.053 201.273,-33.4638 182.559,-24.1782"/>
<polygon fill="midnightblue" stroke="midnightblue" points="183.952,-20.962 173.438,-19.6525 180.84,-27.2326 183.952,-20.962"/>
</g>
<!-- Node5 -->
<g id="node5" class="node"><title>Node5</title>
<polygon fill="white" stroke="#bfbfbf" points="203.5,-0.5 203.5,-19.5 246.5,-19.5 246.5,-0.5 203.5,-0.5"/>
<text text-anchor="middle" x="225" y="-7.5" font-family="Helvetica,sans-Serif" font-size="10.00">queue</text>
</g>
<!-- Node1&#45;&gt;Node5 -->
<g id="edge4" class="edge"><title>Node1&#45;&gt;Node5</title>
<path fill="none" stroke="midnightblue" d="M268.398,-56.4979C259.441,-47.1071 248.83,-35.9829 240.342,-27.0848"/>
<polygon fill="midnightblue" stroke="midnightblue" points="242.688,-24.4729 233.253,-19.6525 237.623,-29.3043 242.688,-24.4729"/>
</g>
<!-- Node6 -->
<g id="node6" class="node"><title>Node6</title>
<polygon fill="white" stroke="#bfbfbf" points="265,-0.5 265,-19.5 309,-19.5 309,-0.5 265,-0.5"/>
<text text-anchor="middle" x="287" y="-7.5" font-family="Helvetica,sans-Serif" font-size="10.00">thread</text>
</g>
<!-- Node1&#45;&gt;Node6 -->
<g id="edge5" class="edge"><title>Node1&#45;&gt;Node6</title>
<path fill="none" stroke="midnightblue" d="M287,-56.4979C287,-48.0653 287,-38.2351 287,-29.874"/>
<polygon fill="midnightblue" stroke="midnightblue" points="290.5,-29.6525 287,-19.6525 283.5,-29.6525 290.5,-29.6525"/>
</g>
<!-- Node7 -->
<g id="node7" class="node"><title>Node7</title>
<polygon fill="white" stroke="#bfbfbf" points="327.5,-0.5 327.5,-19.5 368.5,-19.5 368.5,-0.5 327.5,-0.5"/>
<text text-anchor="middle" x="348" y="-7.5" font-family="Helvetica,sans-Serif" font-size="10.00">future</text>
</g>
<!-- Node1&#45;&gt;Node7 -->
<g id="edge6" class="edge"><title>Node1&#45;&gt;Node7</title>
<path fill="none" stroke="midnightblue" d="M305.302,-56.4979C314.115,-47.1071 324.555,-35.9829 332.905,-27.0848"/>
<polygon fill="midnightblue" stroke="midnightblue" points="335.589,-29.3395 339.88,-19.6525 330.485,-24.5493 335.589,-29.3395"/>
</g>
<!-- Node8 -->
<g id="node8" class="node"><title>Node8</title>
<polygon fill="white" stroke="#bfbfbf" points="387,-0.5 387,-19.5 433,-19.5 433,-0.5 387,-0.5"/>
<text text-anchor="middle" x="410" y="-7.5" font-family="Helvetica,sans-Serif" font-size="10.00">atomic</text>
</g>
<!-- Node1&#45;&gt;Node8 -->
<g id="edge7" class="edge"><title>Node1&#45;&gt;Node8</title>
<path fill="none" stroke="midnightblue" d="M323.904,-56.4979C343.488,-46.1488 367.055,-33.6946 384.578,-24.4346"/>
<polygon fill="midnightblue" stroke="midnightblue" points="386.421,-27.4193 393.627,-19.6525 383.15,-21.2303 386.421,-27.4193"/>
</g>
<!-- Node9 -->
<g id="node9" class="node"><title>Node9</title>
<polygon fill="white" stroke="#bfbfbf" points="451,-0.5 451,-19.5 495,-19.5 495,-0.5 451,-0.5"/>
<text text-anchor="middle" x="473" y="-7.5" font-family="Helvetica,sans-Serif" font-size="10.00">mutex</text>
</g>
<!-- Node1&#45;&gt;Node9 -->
<g id="edge8" class="edge"><title>Node1&#45;&gt;Node9</title>
<path fill="none" stroke="midnightblue" d="M342.806,-56.4979C374.877,-45.2902 414.014,-31.6135 440.954,-22.1988"/>
<polygon fill="midnightblue" stroke="midnightblue" points="442.357,-25.4164 450.642,-18.8133 440.047,-18.8082 442.357,-25.4164"/>
</g>
<!-- Node10 -->
<g id="node10" class="node"><title>Node10</title>
<polygon fill="white" stroke="#bfbfbf" points="513.5,-0.5 513.5,-19.5 608.5,-19.5 608.5,-0.5 513.5,-0.5"/>
<text text-anchor="middle" x="561" y="-7.5" font-family="Helvetica,sans-Serif" font-size="10.00">condition_variable</text>
</g>
<!-- Node1&#45;&gt;Node10 -->
<g id="edge9" class="edge"><title>Node1&#45;&gt;Node10</title>
<path fill="none" stroke="midnightblue" d="M369.209,-56.4979C416.918,-45.1801 475.239,-31.3446 514.957,-21.9227"/>
<polygon fill="midnightblue" stroke="midnightblue" points="515.964,-25.2808 524.887,-19.5671 514.349,-18.4699 515.964,-25.2808"/>
</g>
</g>
</svg>
