<?xml version="1.0" encoding="UTF-8" standalone="no"?>
<!DOCTYPE svg PUBLIC "-//W3C//DTD SVG 1.1//EN"
 "http://www.w3.org/Graphics/SVG/1.1/DTD/svg11.dtd">
<!-- Generated by graphviz version 2.36.0 (20140111.2315)
 -->
<!-- Title: /home/travis/build/mgerhardy/simpleai/src/ai/common/Thread.h Pages: 1 -->
<svg width="421pt" height="218pt"
 viewBox="0.00 0.00 421.00 218.00" xmlns="http://www.w3.org/2000/svg" xmlns:xlink="http://www.w3.org/1999/xlink">
<g id="graph0" class="graph" transform="scale(1 1) rotate(0) translate(4 214)">
<title>/home/travis/build/mgerhardy/simpleai/src/ai/common/Thread.h</title>
<polygon fill="white" stroke="none" points="-4,4 -4,-214 417,-214 417,4 -4,4"/>
<!-- Node1 -->
<g id="node1" class="node"><title>Node1</title>
<polygon fill="#bfbfbf" stroke="black" points="218.5,-168.5 218.5,-209.5 343.5,-209.5 343.5,-168.5 218.5,-168.5"/>
<text text-anchor="start" x="226.5" y="-197.5" font-family="Helvetica,sans-Serif" font-size="10.00">/home/travis/build</text>
<text text-anchor="start" x="226.5" y="-186.5" font-family="Helvetica,sans-Serif" font-size="10.00">/mgerhardy/simpleai</text>
<text text-anchor="middle" x="281" y="-175.5" font-family="Helvetica,sans-Serif" font-size="10.00">/src/ai/common/Thread.h</text>
</g>
<!-- Node2 -->
<g id="node2" class="node"><title>Node2</title>
<g id="a_node2"><a xlink:href="Types_8h.html" target="_top" xlink:title="Types.h">
<polygon fill="white" stroke="black" points="158,-112.5 158,-131.5 210,-131.5 210,-112.5 158,-112.5"/>
<text text-anchor="middle" x="184" y="-119.5" font-family="Helvetica,sans-Serif" font-size="10.00">Types.h</text>
</a>
</g>
</g>
<!-- Node1&#45;&gt;Node2 -->
<g id="edge1" class="edge"><title>Node1&#45;&gt;Node2</title>
<path fill="none" stroke="midnightblue" d="M251.897,-168.498C237.025,-158.532 219.24,-146.614 205.603,-137.476"/>
<polygon fill="midnightblue" stroke="midnightblue" points="207.168,-134.312 196.912,-131.652 203.271,-140.127 207.168,-134.312"/>
</g>
<!-- Node11 -->
<g id="node11" class="node"><title>Node11</title>
<polygon fill="white" stroke="#bfbfbf" points="228,-112.5 228,-131.5 272,-131.5 272,-112.5 228,-112.5"/>
<text text-anchor="middle" x="250" y="-119.5" font-family="Helvetica,sans-Serif" font-size="10.00">thread</text>
</g>
<!-- Node1&#45;&gt;Node11 -->
<g id="edge11" class="edge"><title>Node1&#45;&gt;Node11</title>
<path fill="none" stroke="midnightblue" d="M271.699,-168.498C267.495,-159.682 262.561,-149.339 258.462,-140.743"/>
<polygon fill="midnightblue" stroke="midnightblue" points="261.59,-139.172 254.127,-131.652 255.272,-142.185 261.59,-139.172"/>
</g>
<!-- Node12 -->
<g id="node12" class="node"><title>Node12</title>
<polygon fill="white" stroke="#bfbfbf" points="290,-112.5 290,-131.5 334,-131.5 334,-112.5 290,-112.5"/>
<text text-anchor="middle" x="312" y="-119.5" font-family="Helvetica,sans-Serif" font-size="10.00">mutex</text>
</g>
<!-- Node1&#45;&gt;Node12 -->
<g id="edge12" class="edge"><title>Node1&#45;&gt;Node12</title>
<path fill="none" stroke="midnightblue" d="M290.301,-168.498C294.505,-159.682 299.439,-149.339 303.538,-140.743"/>
<polygon fill="midnightblue" stroke="midnightblue" points="306.728,-142.185 307.873,-131.652 300.41,-139.172 306.728,-142.185"/>
</g>
<!-- Node13 -->
<g id="node13" class="node"><title>Node13</title>
<polygon fill="white" stroke="#bfbfbf" points="352,-112.5 352,-131.5 398,-131.5 398,-112.5 352,-112.5"/>
<text text-anchor="middle" x="375" y="-119.5" font-family="Helvetica,sans-Serif" font-size="10.00">atomic</text>
</g>
<!-- Node1&#45;&gt;Node13 -->
<g id="edge13" class="edge"><title>Node1&#45;&gt;Node13</title>
<path fill="none" stroke="midnightblue" d="M309.203,-168.498C323.615,-158.532 340.85,-146.614 354.065,-137.476"/>
<polygon fill="midnightblue" stroke="midnightblue" points="356.253,-140.219 362.487,-131.652 352.271,-134.461 356.253,-140.219"/>
</g>
<!-- Node3 -->
<g id="node3" class="node"><title>Node3</title>
<g id="a_node3"><a xlink:href="Log_8h.html" target="_top" xlink:title="Log.h">
<polygon fill="white" stroke="black" points="64.5,-56.5 64.5,-75.5 105.5,-75.5 105.5,-56.5 64.5,-56.5"/>
<text text-anchor="middle" x="85" y="-63.5" font-family="Helvetica,sans-Serif" font-size="10.00">Log.h</text>
</a>
</g>
</g>
<!-- Node2&#45;&gt;Node3 -->
<g id="edge2" class="edge"><title>Node2&#45;&gt;Node3</title>
<path fill="none" stroke="midnightblue" d="M168.094,-112.324C152.362,-103.743 128.058,-90.486 109.791,-80.5224"/>
<polygon fill="midnightblue" stroke="midnightblue" points="111.322,-77.3704 100.867,-75.6545 107.97,-83.5157 111.322,-77.3704"/>
</g>
<!-- Node4 -->
<g id="node4" class="node"><title>Node4</title>
<polygon fill="white" stroke="#bfbfbf" points="0,-0.5 0,-19.5 46,-19.5 46,-0.5 0,-0.5"/>
<text text-anchor="middle" x="23" y="-7.5" font-family="Helvetica,sans-Serif" font-size="10.00">stdio.h</text>
</g>
<!-- Node2&#45;&gt;Node4 -->
<g id="edge9" class="edge"><title>Node2&#45;&gt;Node4</title>
<path fill="none" stroke="midnightblue" d="M157.798,-117.817C129.425,-113.134 84.3075,-101.938 55,-76 41.1893,-63.7772 32.7014,-44.2326 27.9695,-29.7631"/>
<polygon fill="midnightblue" stroke="midnightblue" points="31.2441,-28.4935 25.0572,-19.8928 24.5303,-30.4745 31.2441,-28.4935"/>
</g>
<!-- Node7 -->
<g id="node7" class="node"><title>Node7</title>
<polygon fill="white" stroke="#bfbfbf" points="123.5,-56.5 123.5,-75.5 164.5,-75.5 164.5,-56.5 123.5,-56.5"/>
<text text-anchor="middle" x="144" y="-63.5" font-family="Helvetica,sans-Serif" font-size="10.00">string</text>
</g>
<!-- Node2&#45;&gt;Node7 -->
<g id="edge6" class="edge"><title>Node2&#45;&gt;Node7</title>
<path fill="none" stroke="midnightblue" d="M177.395,-112.083C171.745,-104.455 163.455,-93.2645 156.549,-83.9408"/>
<polygon fill="midnightblue" stroke="midnightblue" points="159.247,-81.7034 150.482,-75.7511 153.622,-85.87 159.247,-81.7034"/>
</g>
<!-- Node8 -->
<g id="node8" class="node"><title>Node8</title>
<polygon fill="white" stroke="#bfbfbf" points="182.5,-56.5 182.5,-75.5 265.5,-75.5 265.5,-56.5 182.5,-56.5"/>
<text text-anchor="middle" x="224" y="-63.5" font-family="Helvetica,sans-Serif" font-size="10.00">unordered_map</text>
</g>
<!-- Node2&#45;&gt;Node8 -->
<g id="edge7" class="edge"><title>Node2&#45;&gt;Node8</title>
<path fill="none" stroke="midnightblue" d="M190.605,-112.083C196.255,-104.455 204.545,-93.2645 211.451,-83.9408"/>
<polygon fill="midnightblue" stroke="midnightblue" points="214.378,-85.87 217.518,-75.7511 208.753,-81.7034 214.378,-85.87"/>
</g>
<!-- Node9 -->
<g id="node9" class="node"><title>Node9</title>
<polygon fill="white" stroke="#bfbfbf" points="284,-56.5 284,-75.5 336,-75.5 336,-56.5 284,-56.5"/>
<text text-anchor="middle" x="310" y="-63.5" font-family="Helvetica,sans-Serif" font-size="10.00">assert.h</text>
</g>
<!-- Node2&#45;&gt;Node9 -->
<g id="edge8" class="edge"><title>Node2&#45;&gt;Node9</title>
<path fill="none" stroke="midnightblue" d="M203.965,-112.444C224.609,-103.596 257.063,-89.6875 280.632,-79.5865"/>
<polygon fill="midnightblue" stroke="midnightblue" points="282.316,-82.6727 290.128,-75.5164 279.558,-76.2387 282.316,-82.6727"/>
</g>
<!-- Node10 -->
<g id="node10" class="node"><title>Node10</title>
<polygon fill="white" stroke="#bfbfbf" points="354.5,-56.5 354.5,-75.5 413.5,-75.5 413.5,-56.5 354.5,-56.5"/>
<text text-anchor="middle" x="384" y="-63.5" font-family="Helvetica,sans-Serif" font-size="10.00">inttypes.h</text>
</g>
<!-- Node2&#45;&gt;Node10 -->
<g id="edge10" class="edge"><title>Node2&#45;&gt;Node10</title>
<path fill="none" stroke="midnightblue" d="M210.147,-113.94C244.336,-104.709 304.547,-88.4524 344.361,-77.7026"/>
<polygon fill="midnightblue" stroke="midnightblue" points="345.522,-81.0145 354.264,-75.0288 343.697,-74.2565 345.522,-81.0145"/>
</g>
<!-- Node3&#45;&gt;Node4 -->
<g id="edge3" class="edge"><title>Node3&#45;&gt;Node4</title>
<path fill="none" stroke="midnightblue" d="M75.0386,-56.324C65.8734,-48.3414 52.0628,-36.3128 40.9718,-26.6529"/>
<polygon fill="midnightblue" stroke="midnightblue" points="42.9822,-23.7624 33.1426,-19.8339 38.3847,-29.041 42.9822,-23.7624"/>
</g>
<!-- Node5 -->
<g id="node5" class="node"><title>Node5</title>
<polygon fill="white" stroke="#bfbfbf" points="64,-0.5 64,-19.5 116,-19.5 116,-0.5 64,-0.5"/>
<text text-anchor="middle" x="90" y="-7.5" font-family="Helvetica,sans-Serif" font-size="10.00">stdarg.h</text>
</g>
<!-- Node3&#45;&gt;Node5 -->
<g id="edge4" class="edge"><title>Node3&#45;&gt;Node5</title>
<path fill="none" stroke="midnightblue" d="M85.8256,-56.083C86.4809,-49.0059 87.4203,-38.8611 88.242,-29.9865"/>
<polygon fill="midnightblue" stroke="midnightblue" points="91.7527,-30.0312 89.1897,-19.7511 84.7826,-29.3858 91.7527,-30.0312"/>
</g>
<!-- Node6 -->
<g id="node6" class="node"><title>Node6</title>
<polygon fill="white" stroke="#bfbfbf" points="134.5,-0.5 134.5,-19.5 183.5,-19.5 183.5,-0.5 134.5,-0.5"/>
<text text-anchor="middle" x="159" y="-7.5" font-family="Helvetica,sans-Serif" font-size="10.00">string.h</text>
</g>
<!-- Node3&#45;&gt;Node6 -->
<g id="edge5" class="edge"><title>Node3&#45;&gt;Node6</title>
<path fill="none" stroke="midnightblue" d="M96.8894,-56.324C108.15,-48.1066 125.287,-35.6017 138.709,-25.8069"/>
<polygon fill="midnightblue" stroke="midnightblue" points="140.88,-28.5559 146.894,-19.8339 136.753,-22.9014 140.88,-28.5559"/>
</g>
</g>
</svg>
