<?xml version="1.0" encoding="UTF-8" standalone="no"?>
<!DOCTYPE svg PUBLIC "-//W3C//DTD SVG 1.1//EN"
 "http://www.w3.org/Graphics/SVG/1.1/DTD/svg11.dtd">
<!-- Generated by graphviz version 2.36.0 (20140111.2315)
 -->
<!-- Title: /home/travis/build/mgerhardy/simpleai/src/ai/common/ThreadScheduler.h Pages: 1 -->
<svg width="441pt" height="106pt"
 viewBox="0.00 0.00 441.00 106.00" xmlns="http://www.w3.org/2000/svg" xmlns:xlink="http://www.w3.org/1999/xlink">
<g id="graph0" class="graph" transform="scale(1 1) rotate(0) translate(4 102)">
<title>/home/travis/build/mgerhardy/simpleai/src/ai/common/ThreadScheduler.h</title>
<polygon fill="white" stroke="none" points="-4,4 -4,-102 437,-102 437,4 -4,4"/>
<!-- Node1 -->
<g id="node1" class="node"><title>Node1</title>
<polygon fill="#bfbfbf" stroke="black" points="140.5,-56.5 140.5,-97.5 309.5,-97.5 309.5,-56.5 140.5,-56.5"/>
<text text-anchor="start" x="148.5" y="-85.5" font-family="Helvetica,sans-Serif" font-size="10.00">/home/travis/build</text>
<text text-anchor="start" x="148.5" y="-74.5" font-family="Helvetica,sans-Serif" font-size="10.00">/mgerhardy/simpleai</text>
<text text-anchor="middle" x="225" y="-63.5" font-family="Helvetica,sans-Serif" font-size="10.00">/src/ai/common/ThreadScheduler.h</text>
</g>
<!-- Node2 -->
<g id="node2" class="node"><title>Node2</title>
<polygon fill="white" stroke="#bfbfbf" points="0,-0.5 0,-19.5 46,-19.5 46,-0.5 0,-0.5"/>
<text text-anchor="middle" x="23" y="-7.5" font-family="Helvetica,sans-Serif" font-size="10.00">chrono</text>
</g>
<!-- Node1&#45;&gt;Node2 -->
<g id="edge1" class="edge"><title>Node1&#45;&gt;Node2</title>
<path fill="none" stroke="midnightblue" d="M164.393,-56.4979C128.737,-45.0242 85.0386,-30.9629 55.7419,-21.5358"/>
<polygon fill="midnightblue" stroke="midnightblue" points="56.6082,-18.1378 46.0167,-18.4064 54.4639,-24.8013 56.6082,-18.1378"/>
</g>
<!-- Node3 -->
<g id="node3" class="node"><title>Node3</title>
<polygon fill="white" stroke="#bfbfbf" points="64.5,-0.5 64.5,-19.5 107.5,-19.5 107.5,-0.5 64.5,-0.5"/>
<text text-anchor="middle" x="86" y="-7.5" font-family="Helvetica,sans-Serif" font-size="10.00">queue</text>
</g>
<!-- Node1&#45;&gt;Node3 -->
<g id="edge2" class="edge"><title>Node1&#45;&gt;Node3</title>
<path fill="none" stroke="midnightblue" d="M183.295,-56.4979C160.755,-45.9572 133.544,-33.2326 113.636,-23.9235"/>
<polygon fill="midnightblue" stroke="midnightblue" points="115.044,-20.7181 104.503,-19.6525 112.079,-27.059 115.044,-20.7181"/>
</g>
<!-- Node4 -->
<g id="node4" class="node"><title>Node4</title>
<polygon fill="white" stroke="#bfbfbf" points="125.5,-0.5 125.5,-19.5 184.5,-19.5 184.5,-0.5 125.5,-0.5"/>
<text text-anchor="middle" x="155" y="-7.5" font-family="Helvetica,sans-Serif" font-size="10.00">functional</text>
</g>
<!-- Node1&#45;&gt;Node4 -->
<g id="edge3" class="edge"><title>Node1&#45;&gt;Node4</title>
<path fill="none" stroke="midnightblue" d="M203.998,-56.4979C193.678,-46.9154 181.415,-35.5281 171.738,-26.5428"/>
<polygon fill="midnightblue" stroke="midnightblue" points="174.028,-23.8922 164.318,-19.6525 169.264,-29.0218 174.028,-23.8922"/>
</g>
<!-- Node5 -->
<g id="node5" class="node"><title>Node5</title>
<polygon fill="white" stroke="#bfbfbf" points="203,-0.5 203,-19.5 247,-19.5 247,-0.5 203,-0.5"/>
<text text-anchor="middle" x="225" y="-7.5" font-family="Helvetica,sans-Serif" font-size="10.00">thread</text>
</g>
<!-- Node1&#45;&gt;Node5 -->
<g id="edge4" class="edge"><title>Node1&#45;&gt;Node5</title>
<path fill="none" stroke="midnightblue" d="M225,-56.4979C225,-48.0653 225,-38.2351 225,-29.874"/>
<polygon fill="midnightblue" stroke="midnightblue" points="228.5,-29.6525 225,-19.6525 221.5,-29.6525 228.5,-29.6525"/>
</g>
<!-- Node6 -->
<g id="node6" class="node"><title>Node6</title>
<polygon fill="white" stroke="#bfbfbf" points="265.5,-0.5 265.5,-19.5 306.5,-19.5 306.5,-0.5 265.5,-0.5"/>
<text text-anchor="middle" x="286" y="-7.5" font-family="Helvetica,sans-Serif" font-size="10.00">future</text>
</g>
<!-- Node1&#45;&gt;Node6 -->
<g id="edge5" class="edge"><title>Node1&#45;&gt;Node6</title>
<path fill="none" stroke="midnightblue" d="M243.302,-56.4979C252.115,-47.1071 262.555,-35.9829 270.905,-27.0848"/>
<polygon fill="midnightblue" stroke="midnightblue" points="273.589,-29.3395 277.88,-19.6525 268.485,-24.5493 273.589,-29.3395"/>
</g>
<!-- Node7 -->
<g id="node7" class="node"><title>Node7</title>
<polygon fill="white" stroke="#bfbfbf" points="325,-0.5 325,-19.5 371,-19.5 371,-0.5 325,-0.5"/>
<text text-anchor="middle" x="348" y="-7.5" font-family="Helvetica,sans-Serif" font-size="10.00">atomic</text>
</g>
<!-- Node1&#45;&gt;Node7 -->
<g id="edge6" class="edge"><title>Node1&#45;&gt;Node7</title>
<path fill="none" stroke="midnightblue" d="M261.904,-56.4979C281.488,-46.1488 305.055,-33.6946 322.578,-24.4346"/>
<polygon fill="midnightblue" stroke="midnightblue" points="324.421,-27.4193 331.627,-19.6525 321.15,-21.2303 324.421,-27.4193"/>
</g>
<!-- Node8 -->
<g id="node8" class="node"><title>Node8</title>
<polygon fill="white" stroke="#bfbfbf" points="389,-0.5 389,-19.5 433,-19.5 433,-0.5 389,-0.5"/>
<text text-anchor="middle" x="411" y="-7.5" font-family="Helvetica,sans-Serif" font-size="10.00">mutex</text>
</g>
<!-- Node1&#45;&gt;Node8 -->
<g id="edge7" class="edge"><title>Node1&#45;&gt;Node8</title>
<path fill="none" stroke="midnightblue" d="M280.806,-56.4979C312.877,-45.2902 352.014,-31.6135 378.954,-22.1988"/>
<polygon fill="midnightblue" stroke="midnightblue" points="380.357,-25.4164 388.642,-18.8133 378.047,-18.8082 380.357,-25.4164"/>
</g>
</g>
</svg>
