<?xml version="1.0" encoding="UTF-8" standalone="no"?>
<!DOCTYPE svg PUBLIC "-//W3C//DTD SVG 1.1//EN"
 "http://www.w3.org/Graphics/SVG/1.1/DTD/svg11.dtd">
<!-- Generated by graphviz version 2.36.0 (20140111.2315)
 -->
<!-- Title: /home/travis/build/mgerhardy/simpleai/src/ai/tree/TreeNodeImpl.h Pages: 1 -->
<svg width="2159pt" height="554pt"
 viewBox="0.00 0.00 2159.00 554.00" xmlns="http://www.w3.org/2000/svg" xmlns:xlink="http://www.w3.org/1999/xlink">
<g id="graph0" class="graph" transform="scale(1 1) rotate(0) translate(4 550)">
<title>/home/travis/build/mgerhardy/simpleai/src/ai/tree/TreeNodeImpl.h</title>
<polygon fill="white" stroke="none" points="-4,4 -4,-550 2155,-550 2155,4 -4,4"/>
<!-- Node1 -->
<g id="node1" class="node"><title>Node1</title>
<polygon fill="#bfbfbf" stroke="black" points="1282,-504.5 1282,-545.5 1418,-545.5 1418,-504.5 1282,-504.5"/>
<text text-anchor="start" x="1290" y="-533.5" font-family="Helvetica,sans-Serif" font-size="10.00">/home/travis/build</text>
<text text-anchor="start" x="1290" y="-522.5" font-family="Helvetica,sans-Serif" font-size="10.00">/mgerhardy/simpleai</text>
<text text-anchor="middle" x="1350" y="-511.5" font-family="Helvetica,sans-Serif" font-size="10.00">/src/ai/tree/TreeNodeImpl.h</text>
</g>
<!-- Node2 -->
<g id="node2" class="node"><title>Node2</title>
<g id="a_node2"><a xlink:href="TreeNode_8h.html" target="_top" xlink:title="TreeNode.h">
<polygon fill="white" stroke="black" points="1589,-392.5 1589,-411.5 1657,-411.5 1657,-392.5 1589,-392.5"/>
<text text-anchor="middle" x="1623" y="-399.5" font-family="Helvetica,sans-Serif" font-size="10.00">TreeNode.h</text>
</a>
</g>
</g>
<!-- Node1&#45;&gt;Node2 -->
<g id="edge1" class="edge"><title>Node1&#45;&gt;Node2</title>
<path fill="none" stroke="midnightblue" d="M1394.17,-504.425C1450.52,-479.447 1546.4,-436.949 1594.17,-415.776"/>
<polygon fill="midnightblue" stroke="midnightblue" points="1595.88,-418.848 1603.61,-411.596 1593.05,-412.448 1595.88,-418.848"/>
</g>
<!-- Node29 -->
<g id="node29" class="node"><title>Node29</title>
<g id="a_node29"><a xlink:href="AI_8h.html" target="_top" xlink:title="AI.h">
<polygon fill="white" stroke="black" points="1213.5,-448.5 1213.5,-467.5 1248.5,-467.5 1248.5,-448.5 1213.5,-448.5"/>
<text text-anchor="middle" x="1231" y="-455.5" font-family="Helvetica,sans-Serif" font-size="10.00">AI.h</text>
</a>
</g>
</g>
<!-- Node1&#45;&gt;Node29 -->
<g id="edge42" class="edge"><title>Node1&#45;&gt;Node29</title>
<path fill="none" stroke="midnightblue" d="M1314.3,-504.498C1295.52,-494.245 1272.97,-481.925 1256.07,-472.693"/>
<polygon fill="midnightblue" stroke="midnightblue" points="1257.29,-469.375 1246.84,-467.652 1253.94,-475.518 1257.29,-469.375"/>
</g>
<!-- Node3 -->
<g id="node3" class="node"><title>Node3</title>
<g id="a_node3"><a xlink:href="Types_8h.html" target="_top" xlink:title="common/Types.h">
<polygon fill="white" stroke="black" points="944,-112.5 944,-131.5 1036,-131.5 1036,-112.5 944,-112.5"/>
<text text-anchor="middle" x="990" y="-119.5" font-family="Helvetica,sans-Serif" font-size="10.00">common/Types.h</text>
</a>
</g>
</g>
<!-- Node2&#45;&gt;Node3 -->
<g id="edge2" class="edge"><title>Node2&#45;&gt;Node3</title>
<path fill="none" stroke="midnightblue" d="M1588.78,-393.84C1504.01,-375.435 1278.44,-322.349 1103,-244 1059.29,-224.481 1040.66,-225.572 1011,-188 1000.45,-174.632 995.126,-155.808 992.487,-141.855"/>
<polygon fill="midnightblue" stroke="midnightblue" points="995.932,-141.229 990.897,-131.907 989.019,-142.334 995.932,-141.229"/>
</g>
<!-- Node8 -->
<g id="node8" class="node"><title>Node8</title>
<polygon fill="white" stroke="#bfbfbf" points="1787.5,-56.5 1787.5,-75.5 1828.5,-75.5 1828.5,-56.5 1787.5,-56.5"/>
<text text-anchor="middle" x="1808" y="-63.5" font-family="Helvetica,sans-Serif" font-size="10.00">string</text>
</g>
<!-- Node2&#45;&gt;Node8 -->
<g id="edge39" class="edge"><title>Node2&#45;&gt;Node8</title>
<path fill="none" stroke="midnightblue" d="M1657.24,-401.19C1774.24,-400.933 2151,-392.243 2151,-291 2151,-291 2151,-291 2151,-177 2151,-111.707 1922.78,-79.7426 1838.66,-70.1784"/>
<polygon fill="midnightblue" stroke="midnightblue" points="1839.01,-66.696 1828.68,-69.0733 1838.24,-73.6534 1839.01,-66.696"/>
</g>
<!-- Node12 -->
<g id="node12" class="node"><title>Node12</title>
<g id="a_node12"><a xlink:href="MemoryAllocator_8h.html" target="_top" xlink:title="common/MemoryAllocator.h">
<polygon fill="white" stroke="black" points="1629.5,-224.5 1629.5,-243.5 1768.5,-243.5 1768.5,-224.5 1629.5,-224.5"/>
<text text-anchor="middle" x="1699" y="-231.5" font-family="Helvetica,sans-Serif" font-size="10.00">common/MemoryAllocator.h</text>
</a>
</g>
</g>
<!-- Node2&#45;&gt;Node12 -->
<g id="edge11" class="edge"><title>Node2&#45;&gt;Node12</title>
<path fill="none" stroke="midnightblue" d="M1627.09,-392.075C1639.15,-365.719 1674.79,-287.878 1690.91,-252.661"/>
<polygon fill="midnightblue" stroke="midnightblue" points="1694.1,-254.117 1695.08,-243.568 1687.73,-251.204 1694.1,-254.117"/>
</g>
<!-- Node13 -->
<g id="node13" class="node"><title>Node13</title>
<polygon fill="white" stroke="#bfbfbf" points="1626,-112.5 1626,-131.5 1678,-131.5 1678,-112.5 1626,-112.5"/>
<text text-anchor="middle" x="1652" y="-119.5" font-family="Helvetica,sans-Serif" font-size="10.00">memory</text>
</g>
<!-- Node2&#45;&gt;Node13 -->
<g id="edge40" class="edge"><title>Node2&#45;&gt;Node13</title>
<path fill="none" stroke="midnightblue" d="M1620.24,-392.302C1612.25,-365.519 1591.46,-282.573 1620,-224 1631.37,-200.662 1654.63,-211.338 1666,-188 1673.25,-173.115 1667.98,-154.504 1661.95,-141.016"/>
<polygon fill="midnightblue" stroke="midnightblue" points="1664.97,-139.234 1657.38,-131.846 1658.7,-142.357 1664.97,-139.234"/>
</g>
<!-- Node14 -->
<g id="node14" class="node"><title>Node14</title>
<g id="a_node14"><a xlink:href="ICondition_8h.html" target="_top" xlink:title="Condition related stuff. ">
<polygon fill="white" stroke="black" points="1739,-280.5 1739,-299.5 1855,-299.5 1855,-280.5 1739,-280.5"/>
<text text-anchor="middle" x="1797" y="-287.5" font-family="Helvetica,sans-Serif" font-size="10.00">conditions/ICondition.h</text>
</a>
</g>
</g>
<!-- Node2&#45;&gt;Node14 -->
<g id="edge13" class="edge"><title>Node2&#45;&gt;Node14</title>
<path fill="none" stroke="midnightblue" d="M1636.65,-392.368C1666.64,-373.412 1738.47,-328.001 1774.95,-304.942"/>
<polygon fill="midnightblue" stroke="midnightblue" points="1776.83,-307.893 1783.41,-299.591 1773.09,-301.977 1776.83,-307.893"/>
</g>
<!-- Node15 -->
<g id="node15" class="node"><title>Node15</title>
<polygon fill="white" stroke="#bfbfbf" points="1929,-112.5 1929,-131.5 1973,-131.5 1973,-112.5 1929,-112.5"/>
<text text-anchor="middle" x="1951" y="-119.5" font-family="Helvetica,sans-Serif" font-size="10.00">vector</text>
</g>
<!-- Node2&#45;&gt;Node15 -->
<g id="edge38" class="edge"><title>Node2&#45;&gt;Node15</title>
<path fill="none" stroke="midnightblue" d="M1657.34,-399.998C1762.83,-396 2075,-376.911 2075,-291 2075,-291 2075,-291 2075,-233 2075,-183.6 2019.25,-150.991 1982.51,-134.866"/>
<polygon fill="midnightblue" stroke="midnightblue" points="1983.74,-131.588 1973.17,-130.937 1981.03,-138.041 1983.74,-131.588"/>
</g>
<!-- Node27 -->
<g id="node27" class="node"><title>Node27</title>
<g id="a_node27"><a xlink:href="True_8h.html" target="_top" xlink:title="conditions/True.h">
<polygon fill="white" stroke="black" points="1740,-336.5 1740,-355.5 1832,-355.5 1832,-336.5 1740,-336.5"/>
<text text-anchor="middle" x="1786" y="-343.5" font-family="Helvetica,sans-Serif" font-size="10.00">conditions/True.h</text>
</a>
</g>
</g>
<!-- Node2&#45;&gt;Node27 -->
<g id="edge36" class="edge"><title>Node2&#45;&gt;Node27</title>
<path fill="none" stroke="midnightblue" d="M1648.83,-392.444C1676.25,-383.359 1719.78,-368.939 1750.43,-358.783"/>
<polygon fill="midnightblue" stroke="midnightblue" points="1751.9,-361.984 1760.29,-355.516 1749.7,-355.339 1751.9,-361.984"/>
</g>
<!-- Node28 -->
<g id="node28" class="node"><title>Node28</title>
<polygon fill="white" stroke="#bfbfbf" points="1479,-224.5 1479,-243.5 1535,-243.5 1535,-224.5 1479,-224.5"/>
<text text-anchor="middle" x="1507" y="-231.5" font-family="Helvetica,sans-Serif" font-size="10.00">algorithm</text>
</g>
<!-- Node2&#45;&gt;Node28 -->
<g id="edge41" class="edge"><title>Node2&#45;&gt;Node28</title>
<path fill="none" stroke="midnightblue" d="M1615.59,-392.221C1608.13,-383.283 1596.42,-368.94 1587,-356 1560.81,-320.038 1532.67,-276.088 1517.74,-252.3"/>
<polygon fill="midnightblue" stroke="midnightblue" points="1520.63,-250.317 1512.36,-243.69 1514.69,-254.025 1520.63,-250.317"/>
</g>
<!-- Node4 -->
<g id="node4" class="node"><title>Node4</title>
<g id="a_node4"><a xlink:href="Log_8h.html" target="_top" xlink:title="Log.h">
<polygon fill="white" stroke="black" points="933.5,-56.5 933.5,-75.5 974.5,-75.5 974.5,-56.5 933.5,-56.5"/>
<text text-anchor="middle" x="954" y="-63.5" font-family="Helvetica,sans-Serif" font-size="10.00">Log.h</text>
</a>
</g>
</g>
<!-- Node3&#45;&gt;Node4 -->
<g id="edge3" class="edge"><title>Node3&#45;&gt;Node4</title>
<path fill="none" stroke="midnightblue" d="M984.055,-112.083C979.023,-104.534 971.663,-93.4948 965.487,-84.2298"/>
<polygon fill="midnightblue" stroke="midnightblue" points="968.293,-82.1301 959.834,-75.7511 962.469,-86.0131 968.293,-82.1301"/>
</g>
<!-- Node3&#45;&gt;Node8 -->
<g id="edge7" class="edge"><title>Node3&#45;&gt;Node8</title>
<path fill="none" stroke="midnightblue" d="M1036.03,-117.962C1185.13,-108.119 1652.43,-77.2701 1777.15,-69.0368"/>
<polygon fill="midnightblue" stroke="midnightblue" points="1777.74,-72.5055 1787.48,-68.3543 1777.28,-65.5207 1777.74,-72.5055"/>
</g>
<!-- Node9 -->
<g id="node9" class="node"><title>Node9</title>
<polygon fill="white" stroke="#bfbfbf" points="772.5,-56.5 772.5,-75.5 855.5,-75.5 855.5,-56.5 772.5,-56.5"/>
<text text-anchor="middle" x="814" y="-63.5" font-family="Helvetica,sans-Serif" font-size="10.00">unordered_map</text>
</g>
<!-- Node3&#45;&gt;Node9 -->
<g id="edge8" class="edge"><title>Node3&#45;&gt;Node9</title>
<path fill="none" stroke="midnightblue" d="M962.112,-112.444C932.246,-103.28 884.685,-88.6876 851.544,-78.5192"/>
<polygon fill="midnightblue" stroke="midnightblue" points="852.344,-75.1037 841.757,-75.5164 850.291,-81.7958 852.344,-75.1037"/>
</g>
<!-- Node10 -->
<g id="node10" class="node"><title>Node10</title>
<polygon fill="white" stroke="#bfbfbf" points="992.5,-56.5 992.5,-75.5 1041.5,-75.5 1041.5,-56.5 992.5,-56.5"/>
<text text-anchor="middle" x="1017" y="-63.5" font-family="Helvetica,sans-Serif" font-size="10.00">cassert</text>
</g>
<!-- Node3&#45;&gt;Node10 -->
<g id="edge9" class="edge"><title>Node3&#45;&gt;Node10</title>
<path fill="none" stroke="midnightblue" d="M994.459,-112.083C998.154,-104.691 1003.52,-93.9533 1008.09,-84.8111"/>
<polygon fill="midnightblue" stroke="midnightblue" points="1011.28,-86.2606 1012.62,-75.7511 1005.02,-83.1301 1011.28,-86.2606"/>
</g>
<!-- Node11 -->
<g id="node11" class="node"><title>Node11</title>
<polygon fill="white" stroke="#bfbfbf" points="1086.5,-56.5 1086.5,-75.5 1129.5,-75.5 1129.5,-56.5 1086.5,-56.5"/>
<text text-anchor="middle" x="1108" y="-63.5" font-family="Helvetica,sans-Serif" font-size="10.00">cstdio</text>
</g>
<!-- Node3&#45;&gt;Node11 -->
<g id="edge10" class="edge"><title>Node3&#45;&gt;Node11</title>
<path fill="none" stroke="midnightblue" d="M1008.7,-112.444C1027.94,-103.636 1058.15,-89.8116 1080.2,-79.722"/>
<polygon fill="midnightblue" stroke="midnightblue" points="1081.75,-82.8603 1089.39,-75.5164 1078.84,-76.4951 1081.75,-82.8603"/>
</g>
<!-- Node5 -->
<g id="node5" class="node"><title>Node5</title>
<polygon fill="white" stroke="#bfbfbf" points="864,-0.5 864,-19.5 910,-19.5 910,-0.5 864,-0.5"/>
<text text-anchor="middle" x="887" y="-7.5" font-family="Helvetica,sans-Serif" font-size="10.00">stdio.h</text>
</g>
<!-- Node4&#45;&gt;Node5 -->
<g id="edge4" class="edge"><title>Node4&#45;&gt;Node5</title>
<path fill="none" stroke="midnightblue" d="M943.235,-56.324C933.234,-48.2631 918.113,-36.0765 906.07,-26.3695"/>
<polygon fill="midnightblue" stroke="midnightblue" points="907.943,-23.3841 897.961,-19.8339 903.55,-28.8343 907.943,-23.3841"/>
</g>
<!-- Node6 -->
<g id="node6" class="node"><title>Node6</title>
<polygon fill="white" stroke="#bfbfbf" points="928,-0.5 928,-19.5 980,-19.5 980,-0.5 928,-0.5"/>
<text text-anchor="middle" x="954" y="-7.5" font-family="Helvetica,sans-Serif" font-size="10.00">stdarg.h</text>
</g>
<!-- Node4&#45;&gt;Node6 -->
<g id="edge5" class="edge"><title>Node4&#45;&gt;Node6</title>
<path fill="none" stroke="midnightblue" d="M954,-56.083C954,-49.0059 954,-38.8611 954,-29.9865"/>
<polygon fill="midnightblue" stroke="midnightblue" points="957.5,-29.751 954,-19.7511 950.5,-29.7511 957.5,-29.751"/>
</g>
<!-- Node7 -->
<g id="node7" class="node"><title>Node7</title>
<polygon fill="white" stroke="#bfbfbf" points="998.5,-0.5 998.5,-19.5 1047.5,-19.5 1047.5,-0.5 998.5,-0.5"/>
<text text-anchor="middle" x="1023" y="-7.5" font-family="Helvetica,sans-Serif" font-size="10.00">string.h</text>
</g>
<!-- Node4&#45;&gt;Node7 -->
<g id="edge6" class="edge"><title>Node4&#45;&gt;Node7</title>
<path fill="none" stroke="midnightblue" d="M965.086,-56.324C975.486,-48.1849 991.261,-35.8395 1003.72,-26.0874"/>
<polygon fill="midnightblue" stroke="midnightblue" points="1005.99,-28.7533 1011.71,-19.8339 1001.68,-23.2407 1005.99,-28.7533"/>
</g>
<!-- Node12&#45;&gt;Node13 -->
<g id="edge12" class="edge"><title>Node12&#45;&gt;Node13</title>
<path fill="none" stroke="midnightblue" d="M1702.3,-224.114C1706.56,-211.136 1712.47,-186.529 1704,-168 1698.22,-155.36 1686.95,-144.911 1676.37,-137.274"/>
<polygon fill="midnightblue" stroke="midnightblue" points="1678.04,-134.182 1667.78,-131.533 1674.15,-140.001 1678.04,-134.182"/>
</g>
<!-- Node14&#45;&gt;Node8 -->
<g id="edge14" class="edge"><title>Node14&#45;&gt;Node8</title>
<path fill="none" stroke="midnightblue" d="M1855.09,-286.38C1918.58,-282.154 2014.33,-271.321 2037,-244 2077.7,-194.961 2034.12,-147.202 1981,-112 1937.09,-82.9012 1875.35,-72.6067 1838.73,-68.973"/>
<polygon fill="midnightblue" stroke="midnightblue" points="1838.93,-65.4772 1828.66,-68.08 1838.31,-72.4499 1838.93,-65.4772"/>
</g>
<!-- Node14&#45;&gt;Node12 -->
<g id="edge18" class="edge"><title>Node14&#45;&gt;Node12</title>
<path fill="none" stroke="midnightblue" d="M1781.25,-280.324C1765.68,-271.743 1741.62,-258.486 1723.54,-248.522"/>
<polygon fill="midnightblue" stroke="midnightblue" points="1725.15,-245.415 1714.71,-243.655 1721.78,-251.546 1725.15,-245.415"/>
</g>
<!-- Node14&#45;&gt;Node13 -->
<g id="edge17" class="edge"><title>Node14&#45;&gt;Node13</title>
<path fill="none" stroke="midnightblue" d="M1795.73,-280.461C1793.52,-267.496 1788.08,-242.409 1777,-224 1752.85,-183.884 1706.64,-152.956 1677.67,-136.412"/>
<polygon fill="midnightblue" stroke="midnightblue" points="1679.36,-133.349 1668.92,-131.553 1675.97,-139.468 1679.36,-133.349"/>
</g>
<!-- Node14&#45;&gt;Node15 -->
<g id="edge15" class="edge"><title>Node14&#45;&gt;Node15</title>
<path fill="none" stroke="midnightblue" d="M1855.05,-285.307C1913.48,-280.235 1997.78,-268.752 2018,-244 2046.07,-209.641 1998.72,-161.85 1970.2,-137.913"/>
<polygon fill="midnightblue" stroke="midnightblue" points="1972.36,-135.157 1962.39,-131.557 1967.94,-140.585 1972.36,-135.157"/>
</g>
<!-- Node16 -->
<g id="node16" class="node"><title>Node16</title>
<polygon fill="white" stroke="#bfbfbf" points="1957,-224.5 1957,-243.5 2009,-243.5 2009,-224.5 1957,-224.5"/>
<text text-anchor="middle" x="1983" y="-231.5" font-family="Helvetica,sans-Serif" font-size="10.00">sstream</text>
</g>
<!-- Node14&#45;&gt;Node16 -->
<g id="edge16" class="edge"><title>Node14&#45;&gt;Node16</title>
<path fill="none" stroke="midnightblue" d="M1826.47,-280.444C1859.2,-270.943 1912.02,-255.606 1947.13,-245.415"/>
<polygon fill="midnightblue" stroke="midnightblue" points="1948.34,-248.707 1956.97,-242.558 1946.39,-241.985 1948.34,-248.707"/>
</g>
<!-- Node17 -->
<g id="node17" class="node"><title>Node17</title>
<g id="a_node17"><a xlink:href="Thread_8h.html" target="_top" xlink:title="common/Thread.h">
<polygon fill="white" stroke="black" points="792.5,-168.5 792.5,-187.5 887.5,-187.5 887.5,-168.5 792.5,-168.5"/>
<text text-anchor="middle" x="840" y="-175.5" font-family="Helvetica,sans-Serif" font-size="10.00">common/Thread.h</text>
</a>
</g>
</g>
<!-- Node14&#45;&gt;Node17 -->
<g id="edge19" class="edge"><title>Node14&#45;&gt;Node17</title>
<path fill="none" stroke="midnightblue" d="M1738.87,-287.91C1623.55,-285.116 1357.86,-275.522 1137,-244 1044.82,-230.844 938.651,-204.954 881.544,-190.127"/>
<polygon fill="midnightblue" stroke="midnightblue" points="882.362,-186.723 871.802,-187.581 880.592,-193.496 882.362,-186.723"/>
</g>
<!-- Node21 -->
<g id="node21" class="node"><title>Node21</title>
<g id="a_node21"><a xlink:href="AIFactories_8h.html" target="_top" xlink:title="AIFactories.h">
<polygon fill="white" stroke="black" points="1825.5,-224.5 1825.5,-243.5 1900.5,-243.5 1900.5,-224.5 1825.5,-224.5"/>
<text text-anchor="middle" x="1863" y="-231.5" font-family="Helvetica,sans-Serif" font-size="10.00">AIFactories.h</text>
</a>
</g>
</g>
<!-- Node14&#45;&gt;Node21 -->
<g id="edge24" class="edge"><title>Node14&#45;&gt;Node21</title>
<path fill="none" stroke="midnightblue" d="M1807.6,-280.324C1817.46,-272.263 1832.35,-260.077 1844.22,-250.369"/>
<polygon fill="midnightblue" stroke="midnightblue" points="1846.68,-252.875 1852.2,-243.834 1842.25,-247.457 1846.68,-252.875"/>
</g>
<!-- Node17&#45;&gt;Node3 -->
<g id="edge20" class="edge"><title>Node17&#45;&gt;Node3</title>
<path fill="none" stroke="midnightblue" d="M863.768,-168.444C888.893,-159.399 928.711,-145.064 956.9,-134.916"/>
<polygon fill="midnightblue" stroke="midnightblue" points="958.12,-138.197 966.343,-131.516 955.749,-131.611 958.12,-138.197"/>
</g>
<!-- Node18 -->
<g id="node18" class="node"><title>Node18</title>
<polygon fill="white" stroke="#bfbfbf" points="818,-112.5 818,-131.5 862,-131.5 862,-112.5 818,-112.5"/>
<text text-anchor="middle" x="840" y="-119.5" font-family="Helvetica,sans-Serif" font-size="10.00">thread</text>
</g>
<!-- Node17&#45;&gt;Node18 -->
<g id="edge21" class="edge"><title>Node17&#45;&gt;Node18</title>
<path fill="none" stroke="midnightblue" d="M840,-168.083C840,-161.006 840,-150.861 840,-141.986"/>
<polygon fill="midnightblue" stroke="midnightblue" points="843.5,-141.751 840,-131.751 836.5,-141.751 843.5,-141.751"/>
</g>
<!-- Node19 -->
<g id="node19" class="node"><title>Node19</title>
<polygon fill="white" stroke="#bfbfbf" points="880,-112.5 880,-131.5 924,-131.5 924,-112.5 880,-112.5"/>
<text text-anchor="middle" x="902" y="-119.5" font-family="Helvetica,sans-Serif" font-size="10.00">mutex</text>
</g>
<!-- Node17&#45;&gt;Node19 -->
<g id="edge22" class="edge"><title>Node17&#45;&gt;Node19</title>
<path fill="none" stroke="midnightblue" d="M849.961,-168.324C859.127,-160.341 872.937,-148.313 884.028,-138.653"/>
<polygon fill="midnightblue" stroke="midnightblue" points="886.615,-141.041 891.857,-131.834 882.018,-135.762 886.615,-141.041"/>
</g>
<!-- Node20 -->
<g id="node20" class="node"><title>Node20</title>
<polygon fill="white" stroke="#bfbfbf" points="754,-112.5 754,-131.5 800,-131.5 800,-112.5 754,-112.5"/>
<text text-anchor="middle" x="777" y="-119.5" font-family="Helvetica,sans-Serif" font-size="10.00">atomic</text>
</g>
<!-- Node17&#45;&gt;Node20 -->
<g id="edge23" class="edge"><title>Node17&#45;&gt;Node20</title>
<path fill="none" stroke="midnightblue" d="M829.878,-168.324C820.474,-160.263 806.256,-148.077 794.931,-138.369"/>
<polygon fill="midnightblue" stroke="midnightblue" points="797.177,-135.684 787.306,-131.834 792.621,-140.999 797.177,-135.684"/>
</g>
<!-- Node21&#45;&gt;Node15 -->
<g id="edge35" class="edge"><title>Node21&#45;&gt;Node15</title>
<path fill="none" stroke="midnightblue" d="M1872.88,-224.209C1882.4,-215.492 1896.96,-201.52 1908,-188 1920.4,-172.822 1932.53,-154.011 1940.73,-140.537"/>
<polygon fill="midnightblue" stroke="midnightblue" points="1943.83,-142.177 1945.95,-131.798 1937.82,-138.586 1943.83,-142.177"/>
</g>
<!-- Node22 -->
<g id="node22" class="node"><title>Node22</title>
<g id="a_node22"><a xlink:href="IAIFactory_8h.html" target="_top" xlink:title="IAIFactory.h">
<polygon fill="white" stroke="black" points="1794.5,-168.5 1794.5,-187.5 1865.5,-187.5 1865.5,-168.5 1794.5,-168.5"/>
<text text-anchor="middle" x="1830" y="-175.5" font-family="Helvetica,sans-Serif" font-size="10.00">IAIFactory.h</text>
</a>
</g>
</g>
<!-- Node21&#45;&gt;Node22 -->
<g id="edge25" class="edge"><title>Node21&#45;&gt;Node22</title>
<path fill="none" stroke="midnightblue" d="M1857.55,-224.083C1852.99,-216.613 1846.33,-205.724 1840.71,-196.52"/>
<polygon fill="midnightblue" stroke="midnightblue" points="1843.55,-194.459 1835.35,-187.751 1837.58,-198.109 1843.55,-194.459"/>
</g>
<!-- Node24 -->
<g id="node24" class="node"><title>Node24</title>
<g id="a_node24"><a xlink:href="IFactoryRegistry_8h.html" target="_top" xlink:title="common/IFactoryRegistry.h">
<polygon fill="white" stroke="black" points="1334,-168.5 1334,-187.5 1472,-187.5 1472,-168.5 1334,-168.5"/>
<text text-anchor="middle" x="1403" y="-175.5" font-family="Helvetica,sans-Serif" font-size="10.00">common/IFactoryRegistry.h</text>
</a>
</g>
</g>
<!-- Node21&#45;&gt;Node24 -->
<g id="edge30" class="edge"><title>Node21&#45;&gt;Node24</title>
<path fill="none" stroke="midnightblue" d="M1825.36,-228.581C1750.67,-219.814 1582.36,-200.055 1482.22,-188.299"/>
<polygon fill="midnightblue" stroke="midnightblue" points="1482.49,-184.807 1472.15,-187.117 1481.67,-191.759 1482.49,-184.807"/>
</g>
<!-- Node22&#45;&gt;Node8 -->
<g id="edge27" class="edge"><title>Node22&#45;&gt;Node8</title>
<path fill="none" stroke="midnightblue" d="M1828.27,-168.368C1824.72,-150.617 1816.53,-109.666 1811.72,-85.5974"/>
<polygon fill="midnightblue" stroke="midnightblue" points="1815.11,-84.7108 1809.72,-75.5914 1808.25,-86.0837 1815.11,-84.7108"/>
</g>
<!-- Node22&#45;&gt;Node13 -->
<g id="edge26" class="edge"><title>Node22&#45;&gt;Node13</title>
<path fill="none" stroke="midnightblue" d="M1801.8,-168.444C1770.97,-159.091 1721.5,-144.084 1687.92,-133.897"/>
<polygon fill="midnightblue" stroke="midnightblue" points="1688.63,-130.455 1678.05,-130.902 1686.6,-137.154 1688.63,-130.455"/>
</g>
<!-- Node22&#45;&gt;Node15 -->
<g id="edge28" class="edge"><title>Node22&#45;&gt;Node15</title>
<path fill="none" stroke="midnightblue" d="M1849.17,-168.444C1868.91,-159.636 1899.89,-145.812 1922.49,-135.722"/>
<polygon fill="midnightblue" stroke="midnightblue" points="1924.21,-138.788 1931.92,-131.516 1921.36,-132.396 1924.21,-138.788"/>
</g>
<!-- Node23 -->
<g id="node23" class="node"><title>Node23</title>
<polygon fill="white" stroke="#bfbfbf" points="1836.5,-112.5 1836.5,-131.5 1865.5,-131.5 1865.5,-112.5 1836.5,-112.5"/>
<text text-anchor="middle" x="1851" y="-119.5" font-family="Helvetica,sans-Serif" font-size="10.00">list</text>
</g>
<!-- Node22&#45;&gt;Node23 -->
<g id="edge29" class="edge"><title>Node22&#45;&gt;Node23</title>
<path fill="none" stroke="midnightblue" d="M1833.47,-168.083C1836.31,-160.77 1840.43,-150.181 1843.96,-141.103"/>
<polygon fill="midnightblue" stroke="midnightblue" points="1847.23,-142.34 1847.6,-131.751 1840.71,-139.803 1847.23,-142.34"/>
</g>
<!-- Node24&#45;&gt;Node3 -->
<g id="edge31" class="edge"><title>Node24&#45;&gt;Node3</title>
<path fill="none" stroke="midnightblue" d="M1337.56,-168.444C1257.29,-157.948 1122.56,-140.332 1046.57,-130.397"/>
<polygon fill="midnightblue" stroke="midnightblue" points="1046.62,-126.873 1036.25,-129.047 1045.71,-133.814 1046.62,-126.873"/>
</g>
<!-- Node24&#45;&gt;Node13 -->
<g id="edge33" class="edge"><title>Node24&#45;&gt;Node13</title>
<path fill="none" stroke="midnightblue" d="M1442.45,-168.444C1490.14,-158.103 1569.7,-140.849 1615.85,-130.841"/>
<polygon fill="midnightblue" stroke="midnightblue" points="1616.68,-134.24 1625.72,-128.7 1615.2,-127.399 1616.68,-134.24"/>
</g>
<!-- Node25 -->
<g id="node25" class="node"><title>Node25</title>
<g id="a_node25"><a xlink:href="NonCopyable_8h.html" target="_top" xlink:title="common/NonCopyable.h">
<polygon fill="white" stroke="black" points="1243.5,-112.5 1243.5,-131.5 1368.5,-131.5 1368.5,-112.5 1243.5,-112.5"/>
<text text-anchor="middle" x="1306" y="-119.5" font-family="Helvetica,sans-Serif" font-size="10.00">common/NonCopyable.h</text>
</a>
</g>
</g>
<!-- Node24&#45;&gt;Node25 -->
<g id="edge32" class="edge"><title>Node24&#45;&gt;Node25</title>
<path fill="none" stroke="midnightblue" d="M1387.42,-168.324C1372,-159.743 1348.19,-146.486 1330.29,-136.522"/>
<polygon fill="midnightblue" stroke="midnightblue" points="1331.99,-133.461 1321.55,-131.655 1328.58,-139.577 1331.99,-133.461"/>
</g>
<!-- Node26 -->
<g id="node26" class="node"><title>Node26</title>
<polygon fill="white" stroke="#bfbfbf" points="1453.5,-112.5 1453.5,-131.5 1488.5,-131.5 1488.5,-112.5 1453.5,-112.5"/>
<text text-anchor="middle" x="1471" y="-119.5" font-family="Helvetica,sans-Serif" font-size="10.00">map</text>
</g>
<!-- Node24&#45;&gt;Node26 -->
<g id="edge34" class="edge"><title>Node24&#45;&gt;Node26</title>
<path fill="none" stroke="midnightblue" d="M1413.93,-168.324C1424.17,-160.185 1439.72,-147.839 1452,-138.087"/>
<polygon fill="midnightblue" stroke="midnightblue" points="1454.22,-140.794 1459.88,-131.834 1449.87,-135.312 1454.22,-140.794"/>
</g>
<!-- Node27&#45;&gt;Node14 -->
<g id="edge37" class="edge"><title>Node27&#45;&gt;Node14</title>
<path fill="none" stroke="midnightblue" d="M1787.82,-336.083C1789.27,-328.927 1791.37,-318.635 1793.19,-309.691"/>
<polygon fill="midnightblue" stroke="midnightblue" points="1796.65,-310.248 1795.22,-299.751 1789.79,-308.851 1796.65,-310.248"/>
</g>
<!-- Node29&#45;&gt;Node2 -->
<g id="edge67" class="edge"><title>Node29&#45;&gt;Node2</title>
<path fill="none" stroke="midnightblue" d="M1248.6,-454.575C1306.66,-446.578 1493.2,-420.881 1579.03,-409.057"/>
<polygon fill="midnightblue" stroke="midnightblue" points="1579.55,-412.518 1588.98,-407.686 1578.6,-405.583 1579.55,-412.518"/>
</g>
<!-- Node29&#45;&gt;Node3 -->
<g id="edge77" class="edge"><title>Node29&#45;&gt;Node3</title>
<path fill="none" stroke="midnightblue" d="M1213.05,-454.768C1145.99,-445.94 914,-410.788 914,-347 914,-347 914,-347 914,-289 914,-229.796 954.459,-168.614 976.337,-139.859"/>
<polygon fill="midnightblue" stroke="midnightblue" points="979.31,-141.739 982.713,-131.706 973.796,-137.427 979.31,-141.739"/>
</g>
<!-- Node29&#45;&gt;Node9 -->
<g id="edge43" class="edge"><title>Node29&#45;&gt;Node9</title>
<path fill="none" stroke="midnightblue" d="M1213.32,-457.007C1123.94,-456.58 726,-448.955 726,-347 726,-347 726,-347 726,-177 726,-146.902 727.059,-136.166 745,-112 755.044,-98.4718 770.457,-87.8646 784.17,-80.355"/>
<polygon fill="midnightblue" stroke="midnightblue" points="786.015,-83.3415 793.305,-75.6531 782.812,-77.1176 786.015,-83.3415"/>
</g>
<!-- Node29&#45;&gt;Node13 -->
<g id="edge44" class="edge"><title>Node29&#45;&gt;Node13</title>
<path fill="none" stroke="midnightblue" d="M1248.51,-456.187C1282.38,-453.885 1358.2,-445.127 1411,-412 1527.23,-339.074 1614.96,-191.282 1642.72,-140.555"/>
<polygon fill="midnightblue" stroke="midnightblue" points="1645.93,-141.973 1647.59,-131.509 1639.77,-138.653 1645.93,-141.973"/>
</g>
<!-- Node29&#45;&gt;Node17 -->
<g id="edge76" class="edge"><title>Node29&#45;&gt;Node17</title>
<path fill="none" stroke="midnightblue" d="M1213.15,-456.508C1152.16,-454.534 952.862,-445.594 900,-412 870.971,-393.552 858,-381.395 858,-347 858,-347 858,-347 858,-289 858,-256.537 850.27,-219.384 844.942,-197.628"/>
<polygon fill="midnightblue" stroke="midnightblue" points="848.288,-196.587 842.428,-187.76 841.505,-198.315 848.288,-196.587"/>
</g>
<!-- Node29&#45;&gt;Node25 -->
<g id="edge78" class="edge"><title>Node29&#45;&gt;Node25</title>
<path fill="none" stroke="midnightblue" d="M1233.59,-448.139C1242.02,-419.081 1269.1,-323.965 1286,-244 1293.6,-208.016 1300.05,-165.503 1303.44,-141.655"/>
<polygon fill="midnightblue" stroke="midnightblue" points="1306.94,-141.945 1304.85,-131.557 1300,-140.977 1306.94,-141.945"/>
</g>
<!-- Node30 -->
<g id="node30" class="node"><title>Node30</title>
<g id="a_node30"><a xlink:href="GroupId_8h.html" target="_top" xlink:title="group/GroupId.h">
<polygon fill="white" stroke="black" points="1316,-392.5 1316,-411.5 1402,-411.5 1402,-392.5 1316,-392.5"/>
<text text-anchor="middle" x="1359" y="-399.5" font-family="Helvetica,sans-Serif" font-size="10.00">group/GroupId.h</text>
</a>
</g>
</g>
<!-- Node29&#45;&gt;Node30 -->
<g id="edge45" class="edge"><title>Node29&#45;&gt;Node30</title>
<path fill="none" stroke="midnightblue" d="M1248.53,-449.605C1269.32,-440.833 1304.31,-426.07 1329.35,-415.51"/>
<polygon fill="midnightblue" stroke="midnightblue" points="1330.88,-418.663 1338.73,-411.551 1328.16,-412.213 1330.88,-418.663"/>
</g>
<!-- Node31 -->
<g id="node31" class="node"><title>Node31</title>
<g id="a_node31"><a xlink:href="AggroMgr_8h.html" target="_top" xlink:title="aggro/AggroMgr.h">
<polygon fill="white" stroke="black" points="1383,-280.5 1383,-299.5 1477,-299.5 1477,-280.5 1383,-280.5"/>
<text text-anchor="middle" x="1430" y="-287.5" font-family="Helvetica,sans-Serif" font-size="10.00">aggro/AggroMgr.h</text>
</a>
</g>
</g>
<!-- Node29&#45;&gt;Node31 -->
<g id="edge46" class="edge"><title>Node29&#45;&gt;Node31</title>
<path fill="none" stroke="midnightblue" d="M1241.27,-448.103C1255.82,-435.521 1283.31,-411.85 1307,-392 1343.78,-361.177 1387.26,-325.691 1411.43,-306.055"/>
<polygon fill="midnightblue" stroke="midnightblue" points="1413.85,-308.596 1419.41,-299.576 1409.44,-303.162 1413.85,-308.596"/>
</g>
<!-- Node32 -->
<g id="node32" class="node"><title>Node32</title>
<g id="a_node32"><a xlink:href="ICharacter_8h.html" target="_top" xlink:title="ICharacter.h">
<polygon fill="white" stroke="black" points="942.5,-224.5 942.5,-243.5 1013.5,-243.5 1013.5,-224.5 942.5,-224.5"/>
<text text-anchor="middle" x="978" y="-231.5" font-family="Helvetica,sans-Serif" font-size="10.00">ICharacter.h</text>
</a>
</g>
</g>
<!-- Node29&#45;&gt;Node32 -->
<g id="edge66" class="edge"><title>Node29&#45;&gt;Node32</title>
<path fill="none" stroke="midnightblue" d="M1221.08,-448.297C1182.82,-414.726 1044.53,-293.379 995.437,-250.301"/>
<polygon fill="midnightblue" stroke="midnightblue" points="997.674,-247.607 987.849,-243.643 993.057,-252.869 997.674,-247.607"/>
</g>
<!-- Node33 -->
<g id="node33" class="node"><title>Node33</title>
<g id="a_node33"><a xlink:href="Math_8h.html" target="_top" xlink:title="common/Math.h">
<polygon fill="white" stroke="black" points="397.5,-168.5 397.5,-187.5 484.5,-187.5 484.5,-168.5 397.5,-168.5"/>
<text text-anchor="middle" x="441" y="-175.5" font-family="Helvetica,sans-Serif" font-size="10.00">common/Math.h</text>
</a>
</g>
</g>
<!-- Node29&#45;&gt;Node33 -->
<g id="edge79" class="edge"><title>Node29&#45;&gt;Node33</title>
<path fill="none" stroke="midnightblue" d="M1213.27,-457.141C1146.61,-457.321 904.926,-454.799 712,-412 629.778,-393.76 534,-431.221 534,-347 534,-347 534,-347 534,-289 534,-246.311 492.649,-211.643 465.093,-193.28"/>
<polygon fill="midnightblue" stroke="midnightblue" points="466.667,-190.132 456.357,-187.69 462.894,-196.028 466.667,-190.132"/>
</g>
<!-- Node42 -->
<g id="node42" class="node"><title>Node42</title>
<g id="a_node42"><a xlink:href="ITreeLoader_8h.html" target="_top" xlink:title="tree/loaders/ITreeLoader.h">
<polygon fill="white" stroke="black" points="1146.5,-224.5 1146.5,-243.5 1277.5,-243.5 1277.5,-224.5 1146.5,-224.5"/>
<text text-anchor="middle" x="1212" y="-231.5" font-family="Helvetica,sans-Serif" font-size="10.00">tree/loaders/ITreeLoader.h</text>
</a>
</g>
</g>
<!-- Node29&#45;&gt;Node42 -->
<g id="edge68" class="edge"><title>Node29&#45;&gt;Node42</title>
<path fill="none" stroke="midnightblue" d="M1230.26,-448.297C1227.46,-415.633 1217.55,-299.866 1213.62,-253.957"/>
<polygon fill="midnightblue" stroke="midnightblue" points="1217.1,-253.549 1212.76,-243.884 1210.13,-254.146 1217.1,-253.549"/>
</g>
<!-- Node31&#45;&gt;Node13 -->
<g id="edge48" class="edge"><title>Node31&#45;&gt;Node13</title>
<path fill="none" stroke="midnightblue" d="M1433.46,-280.386C1439.25,-266.869 1452.06,-240.515 1470,-224 1496.03,-200.034 1509.94,-204.947 1541,-188 1571.88,-171.152 1606.77,-150.432 1629.06,-136.981"/>
<polygon fill="midnightblue" stroke="midnightblue" points="1631.05,-139.868 1637.79,-131.694 1627.42,-133.88 1631.05,-139.868"/>
</g>
<!-- Node31&#45;&gt;Node15 -->
<g id="edge47" class="edge"><title>Node31&#45;&gt;Node15</title>
<path fill="none" stroke="midnightblue" d="M1477.07,-287.387C1591.08,-283.088 1875.16,-269.876 1909,-244 1940.99,-219.534 1948.74,-169.118 1950.53,-141.719"/>
<polygon fill="midnightblue" stroke="midnightblue" points="1954.04,-141.676 1950.99,-131.529 1947.05,-141.362 1954.04,-141.676"/>
</g>
<!-- Node31&#45;&gt;Node28 -->
<g id="edge63" class="edge"><title>Node31&#45;&gt;Node28</title>
<path fill="none" stroke="midnightblue" d="M1442.37,-280.324C1454.16,-272.058 1472.13,-259.453 1486.14,-249.632"/>
<polygon fill="midnightblue" stroke="midnightblue" points="1488.48,-252.262 1494.66,-243.655 1484.46,-246.531 1488.48,-252.262"/>
</g>
<!-- Node31&#45;&gt;Node32 -->
<g id="edge49" class="edge"><title>Node31&#45;&gt;Node32</title>
<path fill="none" stroke="midnightblue" d="M1382.83,-284.748C1307.6,-277.734 1155.87,-262.644 1028,-244 1026.55,-243.789 1025.09,-243.568 1023.61,-243.339"/>
<polygon fill="midnightblue" stroke="midnightblue" points="1024.16,-239.884 1013.73,-241.73 1023.04,-246.793 1024.16,-239.884"/>
</g>
<!-- Node41 -->
<g id="node41" class="node"><title>Node41</title>
<g id="a_node41"><a xlink:href="Entry_8h.html" target="_top" xlink:title="aggro/Entry.h">
<polygon fill="white" stroke="black" points="1020.5,-168.5 1020.5,-187.5 1095.5,-187.5 1095.5,-168.5 1020.5,-168.5"/>
<text text-anchor="middle" x="1058" y="-175.5" font-family="Helvetica,sans-Serif" font-size="10.00">aggro/Entry.h</text>
</a>
</g>
</g>
<!-- Node31&#45;&gt;Node41 -->
<g id="edge64" class="edge"><title>Node31&#45;&gt;Node41</title>
<path fill="none" stroke="midnightblue" d="M1382.89,-284.826C1311.6,-277.997 1180.05,-263.246 1137,-244 1111.55,-232.623 1087.62,-210.767 1072.9,-195.556"/>
<polygon fill="midnightblue" stroke="midnightblue" points="1075.12,-192.801 1065.73,-187.898 1070.01,-197.587 1075.12,-192.801"/>
</g>
<!-- Node32&#45;&gt;Node3 -->
<g id="edge60" class="edge"><title>Node32&#45;&gt;Node3</title>
<path fill="none" stroke="midnightblue" d="M977.273,-224.121C976.41,-211.561 975.39,-187.917 978,-168 979.156,-159.181 981.534,-149.633 983.87,-141.61"/>
<polygon fill="midnightblue" stroke="midnightblue" points="987.285,-142.415 986.912,-131.827 980.601,-140.337 987.285,-142.415"/>
</g>
<!-- Node32&#45;&gt;Node13 -->
<g id="edge62" class="edge"><title>Node32&#45;&gt;Node13</title>
<path fill="none" stroke="midnightblue" d="M1013.56,-230.753C1120.87,-223.84 1436.85,-202.487 1481,-188 1497.3,-182.653 1498.41,-175.15 1514,-168 1547.46,-152.655 1587.66,-140.171 1616.02,-132.279"/>
<polygon fill="midnightblue" stroke="midnightblue" points="1617.17,-135.592 1625.9,-129.582 1615.33,-128.84 1617.17,-135.592"/>
</g>
<!-- Node32&#45;&gt;Node20 -->
<g id="edge61" class="edge"><title>Node32&#45;&gt;Node20</title>
<path fill="none" stroke="midnightblue" d="M942.085,-229.683C891.62,-224.23 803.572,-211.549 783,-188 772.175,-175.609 771.699,-156.365 773.315,-142.028"/>
<polygon fill="midnightblue" stroke="midnightblue" points="776.826,-142.225 774.901,-131.806 769.909,-141.151 776.826,-142.225"/>
</g>
<!-- Node32&#45;&gt;Node25 -->
<g id="edge50" class="edge"><title>Node32&#45;&gt;Node25</title>
<path fill="none" stroke="midnightblue" d="M1003.46,-224.46C1061.59,-204.966 1204.14,-157.159 1270.7,-134.839"/>
<polygon fill="midnightblue" stroke="midnightblue" points="1271.96,-138.108 1280.33,-131.61 1269.73,-131.472 1271.96,-138.108"/>
</g>
<!-- Node32&#45;&gt;Node33 -->
<g id="edge51" class="edge"><title>Node32&#45;&gt;Node33</title>
<path fill="none" stroke="midnightblue" d="M942.35,-229.415C850.33,-220.162 604.388,-195.43 494.884,-184.418"/>
<polygon fill="midnightblue" stroke="midnightblue" points="495.022,-180.915 484.722,-183.397 494.322,-187.88 495.022,-180.915"/>
</g>
<!-- Node33&#45;&gt;Node3 -->
<g id="edge52" class="edge"><title>Node33&#45;&gt;Node3</title>
<path fill="none" stroke="midnightblue" d="M484.779,-173.911C570.703,-167.645 767.396,-152.294 932,-132 932.6,-131.926 933.204,-131.851 933.811,-131.774"/>
<polygon fill="midnightblue" stroke="midnightblue" points="934.368,-135.23 943.815,-130.433 933.439,-128.292 934.368,-135.23"/>
</g>
<!-- Node34 -->
<g id="node34" class="node"><title>Node34</title>
<polygon fill="white" stroke="#bfbfbf" points="234,-112.5 234,-131.5 304,-131.5 304,-112.5 234,-112.5"/>
<text text-anchor="middle" x="269" y="-119.5" font-family="Helvetica,sans-Serif" font-size="10.00">glm/glm.hpp</text>
</g>
<!-- Node33&#45;&gt;Node34 -->
<g id="edge53" class="edge"><title>Node33&#45;&gt;Node34</title>
<path fill="none" stroke="midnightblue" d="M413.746,-168.444C384.559,-159.28 338.079,-144.688 305.691,-134.519"/>
<polygon fill="midnightblue" stroke="midnightblue" points="306.716,-131.173 296.126,-131.516 304.619,-137.851 306.716,-131.173"/>
</g>
<!-- Node35 -->
<g id="node35" class="node"><title>Node35</title>
<polygon fill="white" stroke="#bfbfbf" points="322.5,-112.5 322.5,-131.5 435.5,-131.5 435.5,-112.5 322.5,-112.5"/>
<text text-anchor="middle" x="379" y="-119.5" font-family="Helvetica,sans-Serif" font-size="10.00">glm/gtc/constants.hpp</text>
</g>
<!-- Node33&#45;&gt;Node35 -->
<g id="edge54" class="edge"><title>Node33&#45;&gt;Node35</title>
<path fill="none" stroke="midnightblue" d="M431.039,-168.324C421.873,-160.341 408.063,-148.313 396.972,-138.653"/>
<polygon fill="midnightblue" stroke="midnightblue" points="398.982,-135.762 389.143,-131.834 394.385,-141.041 398.982,-135.762"/>
</g>
<!-- Node36 -->
<g id="node36" class="node"><title>Node36</title>
<polygon fill="white" stroke="#bfbfbf" points="453.5,-112.5 453.5,-131.5 554.5,-131.5 554.5,-112.5 453.5,-112.5"/>
<text text-anchor="middle" x="504" y="-119.5" font-family="Helvetica,sans-Serif" font-size="10.00">glm/gtc/epsilon.hpp</text>
</g>
<!-- Node33&#45;&gt;Node36 -->
<g id="edge55" class="edge"><title>Node33&#45;&gt;Node36</title>
<path fill="none" stroke="midnightblue" d="M451.122,-168.324C460.526,-160.263 474.744,-148.077 486.069,-138.369"/>
<polygon fill="midnightblue" stroke="midnightblue" points="488.379,-140.999 493.694,-131.834 483.823,-135.684 488.379,-140.999"/>
</g>
<!-- Node37 -->
<g id="node37" class="node"><title>Node37</title>
<polygon fill="white" stroke="#bfbfbf" points="572.5,-112.5 572.5,-131.5 697.5,-131.5 697.5,-112.5 572.5,-112.5"/>
<text text-anchor="middle" x="635" y="-119.5" font-family="Helvetica,sans-Serif" font-size="10.00">glm/gtx/compatibility.hpp</text>
</g>
<!-- Node33&#45;&gt;Node37 -->
<g id="edge56" class="edge"><title>Node33&#45;&gt;Node37</title>
<path fill="none" stroke="midnightblue" d="M471.74,-168.444C504.944,-159.201 557.991,-144.436 594.557,-134.257"/>
<polygon fill="midnightblue" stroke="midnightblue" points="595.709,-137.57 604.404,-131.516 593.832,-130.826 595.709,-137.57"/>
</g>
<!-- Node38 -->
<g id="node38" class="node"><title>Node38</title>
<polygon fill="white" stroke="#bfbfbf" points="0,-112.5 0,-131.5 92,-131.5 92,-112.5 0,-112.5"/>
<text text-anchor="middle" x="46" y="-119.5" font-family="Helvetica,sans-Serif" font-size="10.00">glm/gtx/norm.hpp</text>
</g>
<!-- Node33&#45;&gt;Node38 -->
<g id="edge57" class="edge"><title>Node33&#45;&gt;Node38</title>
<path fill="none" stroke="midnightblue" d="M397.467,-171.671C334.633,-163.885 214.614,-148.657 102.34,-132.162"/>
<polygon fill="midnightblue" stroke="midnightblue" points="102.601,-128.662 92.1975,-130.665 101.579,-135.587 102.601,-128.662"/>
</g>
<!-- Node39 -->
<g id="node39" class="node"><title>Node39</title>
<polygon fill="white" stroke="#bfbfbf" points="110,-112.5 110,-131.5 150,-131.5 150,-112.5 110,-112.5"/>
<text text-anchor="middle" x="130" y="-119.5" font-family="Helvetica,sans-Serif" font-size="10.00">limits</text>
</g>
<!-- Node33&#45;&gt;Node39 -->
<g id="edge58" class="edge"><title>Node33&#45;&gt;Node39</title>
<path fill="none" stroke="midnightblue" d="M397.146,-171.972C343.382,-165.375 249.382,-152.441 160.189,-131.997"/>
<polygon fill="midnightblue" stroke="midnightblue" points="160.714,-128.526 150.18,-129.666 159.126,-135.343 160.714,-128.526"/>
</g>
<!-- Node40 -->
<g id="node40" class="node"><title>Node40</title>
<polygon fill="white" stroke="#bfbfbf" points="168.5,-112.5 168.5,-131.5 215.5,-131.5 215.5,-112.5 168.5,-112.5"/>
<text text-anchor="middle" x="192" y="-119.5" font-family="Helvetica,sans-Serif" font-size="10.00">math.h</text>
</g>
<!-- Node33&#45;&gt;Node40 -->
<g id="edge59" class="edge"><title>Node33&#45;&gt;Node40</title>
<path fill="none" stroke="midnightblue" d="M397.386,-168.723C355.771,-160.645 291.106,-147.625 225.807,-132.077"/>
<polygon fill="midnightblue" stroke="midnightblue" points="226.289,-128.593 215.749,-129.662 224.656,-135.4 226.289,-128.593"/>
</g>
<!-- Node41&#45;&gt;Node3 -->
<g id="edge65" class="edge"><title>Node41&#45;&gt;Node3</title>
<path fill="none" stroke="midnightblue" d="M1047.07,-168.324C1036.83,-160.185 1021.28,-147.839 1009,-138.087"/>
<polygon fill="midnightblue" stroke="midnightblue" points="1011.13,-135.312 1001.12,-131.834 1006.78,-140.794 1011.13,-135.312"/>
</g>
<!-- Node42&#45;&gt;Node8 -->
<g id="edge71" class="edge"><title>Node42&#45;&gt;Node8</title>
<path fill="none" stroke="midnightblue" d="M1210.32,-224.174C1206.54,-201.335 1200.18,-140.121 1234,-112 1275.98,-77.0972 1664.29,-68.9938 1777.29,-67.3677"/>
<polygon fill="midnightblue" stroke="midnightblue" points="1777.39,-70.8667 1787.34,-67.2298 1777.3,-63.8673 1777.39,-70.8667"/>
</g>
<!-- Node42&#45;&gt;Node11 -->
<g id="edge75" class="edge"><title>Node42&#45;&gt;Node11</title>
<path fill="none" stroke="midnightblue" d="M1206.41,-224.075C1189.83,-197.606 1140.71,-119.209 1118.78,-84.2097"/>
<polygon fill="midnightblue" stroke="midnightblue" points="1121.64,-82.1841 1113.37,-75.5681 1115.71,-85.9006 1121.64,-82.1841"/>
</g>
<!-- Node42&#45;&gt;Node13 -->
<g id="edge70" class="edge"><title>Node42&#45;&gt;Node13</title>
<path fill="none" stroke="midnightblue" d="M1277.68,-227.345C1336.5,-221.191 1424.69,-209.258 1499,-188 1545.37,-174.735 1596.4,-151.091 1626.24,-136.27"/>
<polygon fill="midnightblue" stroke="midnightblue" points="1628.15,-139.228 1635.51,-131.61 1625.01,-132.974 1628.15,-139.228"/>
</g>
<!-- Node42&#45;&gt;Node15 -->
<g id="edge72" class="edge"><title>Node42&#45;&gt;Node15</title>
<path fill="none" stroke="midnightblue" d="M1277.54,-230.862C1433.87,-225.432 1819.71,-209.968 1874,-188 1899.72,-177.591 1923.13,-155.126 1937.22,-139.541"/>
<polygon fill="midnightblue" stroke="midnightblue" points="1940.11,-141.55 1944.04,-131.711 1934.83,-136.952 1940.11,-141.55"/>
</g>
<!-- Node42&#45;&gt;Node17 -->
<g id="edge69" class="edge"><title>Node42&#45;&gt;Node17</title>
<path fill="none" stroke="midnightblue" d="M1153.06,-224.444C1083.2,-214.303 967.53,-197.512 898.059,-187.428"/>
<polygon fill="midnightblue" stroke="midnightblue" points="898.137,-183.903 887.738,-185.93 897.132,-190.83 898.137,-183.903"/>
</g>
<!-- Node42&#45;&gt;Node26 -->
<g id="edge73" class="edge"><title>Node42&#45;&gt;Node26</title>
<path fill="none" stroke="midnightblue" d="M1277.67,-231.407C1348.76,-228.131 1455.45,-218.176 1481,-188 1491.92,-175.098 1486.87,-155.377 1480.66,-141.041"/>
<polygon fill="midnightblue" stroke="midnightblue" points="1483.66,-139.202 1476.15,-131.728 1477.36,-142.253 1483.66,-139.202"/>
</g>
<!-- Node43 -->
<g id="node43" class="node"><title>Node43</title>
<polygon fill="white" stroke="#bfbfbf" points="1228.5,-168.5 1228.5,-187.5 1277.5,-187.5 1277.5,-168.5 1228.5,-168.5"/>
<text text-anchor="middle" x="1253" y="-175.5" font-family="Helvetica,sans-Serif" font-size="10.00">cstdarg</text>
</g>
<!-- Node42&#45;&gt;Node43 -->
<g id="edge74" class="edge"><title>Node42&#45;&gt;Node43</title>
<path fill="none" stroke="midnightblue" d="M1218.77,-224.083C1224.56,-216.455 1233.06,-205.264 1240.14,-195.941"/>
<polygon fill="midnightblue" stroke="midnightblue" points="1243.1,-197.832 1246.36,-187.751 1237.52,-193.599 1243.1,-197.832"/>
</g>
</g>
</svg>
