<?xml version="1.0" encoding="UTF-8" standalone="no"?>
<!DOCTYPE svg PUBLIC "-//W3C//DTD SVG 1.1//EN"
 "http://www.w3.org/Graphics/SVG/1.1/DTD/svg11.dtd">
<!-- Generated by graphviz version 2.36.0 (20140111.2315)
 -->
<!-- Title: /home/travis/build/mgerhardy/simpleai/src/ai/tree/TreeNodeImpl.h Pages: 1 -->
<svg width="2039pt" height="554pt"
 viewBox="0.00 0.00 2038.97 554.00" xmlns="http://www.w3.org/2000/svg" xmlns:xlink="http://www.w3.org/1999/xlink">
<g id="graph0" class="graph" transform="scale(1 1) rotate(0) translate(4 550)">
<title>/home/travis/build/mgerhardy/simpleai/src/ai/tree/TreeNodeImpl.h</title>
<polygon fill="white" stroke="none" points="-4,4 -4,-550 2034.97,-550 2034.97,4 -4,4"/>
<!-- Node1 -->
<g id="node1" class="node"><title>Node1</title>
<polygon fill="#bfbfbf" stroke="black" points="739,-504.5 739,-545.5 875,-545.5 875,-504.5 739,-504.5"/>
<text text-anchor="start" x="747" y="-533.5" font-family="Helvetica,sans-Serif" font-size="10.00">/home/travis/build</text>
<text text-anchor="start" x="747" y="-522.5" font-family="Helvetica,sans-Serif" font-size="10.00">/mgerhardy/simpleai</text>
<text text-anchor="middle" x="807" y="-511.5" font-family="Helvetica,sans-Serif" font-size="10.00">/src/ai/tree/TreeNodeImpl.h</text>
</g>
<!-- Node2 -->
<g id="node2" class="node"><title>Node2</title>
<g id="a_node2"><a xlink:href="TreeNode_8h.html" target="_top" xlink:title="TreeNode.h">
<polygon fill="white" stroke="black" points="346,-392.5 346,-411.5 414,-411.5 414,-392.5 346,-392.5"/>
<text text-anchor="middle" x="380" y="-399.5" font-family="Helvetica,sans-Serif" font-size="10.00">TreeNode.h</text>
</a>
</g>
</g>
<!-- Node1&#45;&gt;Node2 -->
<g id="edge1" class="edge"><title>Node1&#45;&gt;Node2</title>
<path fill="none" stroke="midnightblue" d="M738.868,-504.693C648.804,-479.172 493.013,-435.025 419.971,-414.327"/>
<polygon fill="midnightblue" stroke="midnightblue" points="420.804,-410.925 410.229,-411.566 418.896,-417.66 420.804,-410.925"/>
</g>
<!-- Node28 -->
<g id="node28" class="node"><title>Node28</title>
<g id="a_node28"><a xlink:href="AI_8h.html" target="_top" xlink:title="AI.h">
<polygon fill="white" stroke="black" points="940.5,-448.5 940.5,-467.5 975.5,-467.5 975.5,-448.5 940.5,-448.5"/>
<text text-anchor="middle" x="958" y="-455.5" font-family="Helvetica,sans-Serif" font-size="10.00">AI.h</text>
</a>
</g>
</g>
<!-- Node1&#45;&gt;Node28 -->
<g id="edge42" class="edge"><title>Node1&#45;&gt;Node28</title>
<path fill="none" stroke="midnightblue" d="M852.305,-504.498C877.918,-493.472 909.083,-480.057 930.911,-470.661"/>
<polygon fill="midnightblue" stroke="midnightblue" points="932.428,-473.818 940.23,-466.649 929.661,-467.389 932.428,-473.818"/>
</g>
<!-- Node3 -->
<g id="node3" class="node"><title>Node3</title>
<g id="a_node3"><a xlink:href="Types_8h.html" target="_top" xlink:title="common/Types.h">
<polygon fill="white" stroke="black" points="952,-112.5 952,-131.5 1044,-131.5 1044,-112.5 952,-112.5"/>
<text text-anchor="middle" x="998" y="-119.5" font-family="Helvetica,sans-Serif" font-size="10.00">common/Types.h</text>
</a>
</g>
</g>
<!-- Node2&#45;&gt;Node3 -->
<g id="edge2" class="edge"><title>Node2&#45;&gt;Node3</title>
<path fill="none" stroke="midnightblue" d="M414.07,-394.245C504.089,-376.238 746.642,-326.649 824,-300 879.265,-280.962 890.152,-268.975 943,-244 995.485,-219.197 1029.98,-237.065 1061,-188 1073.84,-167.687 1048.86,-148.447 1026.66,-136.247"/>
<polygon fill="midnightblue" stroke="midnightblue" points="1028.24,-133.122 1017.75,-131.621 1025.01,-139.335 1028.24,-133.122"/>
</g>
<!-- Node8 -->
<g id="node8" class="node"><title>Node8</title>
<polygon fill="white" stroke="#bfbfbf" points="279.5,-56.5 279.5,-75.5 320.5,-75.5 320.5,-56.5 279.5,-56.5"/>
<text text-anchor="middle" x="300" y="-63.5" font-family="Helvetica,sans-Serif" font-size="10.00">string</text>
</g>
<!-- Node2&#45;&gt;Node8 -->
<g id="edge39" class="edge"><title>Node2&#45;&gt;Node8</title>
<path fill="none" stroke="midnightblue" d="M373.488,-392.427C356.718,-369.741 312.292,-305.645 297,-244 283.033,-187.698 291.292,-118.201 296.596,-85.5721"/>
<polygon fill="midnightblue" stroke="midnightblue" points="300.056,-86.0997 298.307,-75.6503 293.158,-84.9098 300.056,-86.0997"/>
</g>
<!-- Node11 -->
<g id="node11" class="node"><title>Node11</title>
<g id="a_node11"><a xlink:href="MemoryAllocator_8h.html" target="_top" xlink:title="common/MemoryAllocator.h">
<polygon fill="white" stroke="black" points="306.5,-224.5 306.5,-243.5 445.5,-243.5 445.5,-224.5 306.5,-224.5"/>
<text text-anchor="middle" x="376" y="-231.5" font-family="Helvetica,sans-Serif" font-size="10.00">common/MemoryAllocator.h</text>
</a>
</g>
</g>
<!-- Node2&#45;&gt;Node11 -->
<g id="edge11" class="edge"><title>Node2&#45;&gt;Node11</title>
<path fill="none" stroke="midnightblue" d="M379.785,-392.075C379.155,-365.945 377.306,-289.211 376.448,-253.577"/>
<polygon fill="midnightblue" stroke="midnightblue" points="379.946,-253.481 376.206,-243.568 372.948,-253.65 379.946,-253.481"/>
</g>
<!-- Node12 -->
<g id="node12" class="node"><title>Node12</title>
<polygon fill="white" stroke="#bfbfbf" points="426,-112.5 426,-131.5 478,-131.5 478,-112.5 426,-112.5"/>
<text text-anchor="middle" x="452" y="-119.5" font-family="Helvetica,sans-Serif" font-size="10.00">memory</text>
</g>
<!-- Node2&#45;&gt;Node12 -->
<g id="edge40" class="edge"><title>Node2&#45;&gt;Node12</title>
<path fill="none" stroke="midnightblue" d="M385.814,-392.304C400.786,-369.323 440.44,-304.575 454,-244 455.942,-235.326 455.845,-232.695 454,-224 450.365,-206.872 441.635,-205.128 438,-188 436.155,-179.305 436.665,-176.788 438,-168 439.368,-159.001 442.19,-149.325 444.945,-141.26"/>
<polygon fill="midnightblue" stroke="midnightblue" points="448.265,-142.372 448.4,-131.778 441.688,-139.976 448.265,-142.372"/>
</g>
<!-- Node13 -->
<g id="node13" class="node"><title>Node13</title>
<g id="a_node13"><a xlink:href="ICondition_8h.html" target="_top" xlink:title="Condition related stuff. ">
<polygon fill="white" stroke="black" points="116,-280.5 116,-299.5 232,-299.5 232,-280.5 116,-280.5"/>
<text text-anchor="middle" x="174" y="-287.5" font-family="Helvetica,sans-Serif" font-size="10.00">conditions/ICondition.h</text>
</a>
</g>
</g>
<!-- Node2&#45;&gt;Node13 -->
<g id="edge13" class="edge"><title>Node2&#45;&gt;Node13</title>
<path fill="none" stroke="midnightblue" d="M351.929,-392.359C327.868,-384.432 292.66,-371.574 264,-356 237.465,-341.58 209.696,-320.462 192.145,-306.247"/>
<polygon fill="midnightblue" stroke="midnightblue" points="193.905,-303.163 183.958,-299.514 189.459,-308.569 193.905,-303.163"/>
</g>
<!-- Node14 -->
<g id="node14" class="node"><title>Node14</title>
<polygon fill="white" stroke="#bfbfbf" points="93,-112.5 93,-131.5 137,-131.5 137,-112.5 93,-112.5"/>
<text text-anchor="middle" x="115" y="-119.5" font-family="Helvetica,sans-Serif" font-size="10.00">vector</text>
</g>
<!-- Node2&#45;&gt;Node14 -->
<g id="edge38" class="edge"><title>Node2&#45;&gt;Node14</title>
<path fill="none" stroke="midnightblue" d="M345.943,-398.468C252.672,-390.604 0,-362.685 0,-291 0,-291 0,-291 0,-233 0,-185.902 50.995,-152.752 85.0689,-135.859"/>
<polygon fill="midnightblue" stroke="midnightblue" points="86.6477,-138.984 94.1744,-131.527 83.6405,-132.662 86.6477,-138.984"/>
</g>
<!-- Node26 -->
<g id="node26" class="node"><title>Node26</title>
<g id="a_node26"><a xlink:href="True_8h.html" target="_top" xlink:title="conditions/True.h">
<polygon fill="white" stroke="black" points="120,-336.5 120,-355.5 212,-355.5 212,-336.5 120,-336.5"/>
<text text-anchor="middle" x="166" y="-343.5" font-family="Helvetica,sans-Serif" font-size="10.00">conditions/True.h</text>
</a>
</g>
</g>
<!-- Node2&#45;&gt;Node26 -->
<g id="edge36" class="edge"><title>Node2&#45;&gt;Node26</title>
<path fill="none" stroke="midnightblue" d="M346.091,-392.444C309.151,-383.122 249.946,-368.183 209.582,-357.997"/>
<polygon fill="midnightblue" stroke="midnightblue" points="210.303,-354.57 199.75,-355.516 208.59,-361.357 210.303,-354.57"/>
</g>
<!-- Node27 -->
<g id="node27" class="node"><title>Node27</title>
<polygon fill="white" stroke="#bfbfbf" points="578,-224.5 578,-243.5 634,-243.5 634,-224.5 578,-224.5"/>
<text text-anchor="middle" x="606" y="-231.5" font-family="Helvetica,sans-Serif" font-size="10.00">algorithm</text>
</g>
<!-- Node2&#45;&gt;Node27 -->
<g id="edge41" class="edge"><title>Node2&#45;&gt;Node27</title>
<path fill="none" stroke="midnightblue" d="M414.241,-393.279C451.543,-384.381 508.273,-369.276 526,-356 562.48,-328.68 587.363,-279.516 598.814,-253.046"/>
<polygon fill="midnightblue" stroke="midnightblue" points="602.047,-254.386 602.66,-243.809 595.585,-251.695 602.047,-254.386"/>
</g>
<!-- Node4 -->
<g id="node4" class="node"><title>Node4</title>
<g id="a_node4"><a xlink:href="Log_8h.html" target="_top" xlink:title="Log.h">
<polygon fill="white" stroke="black" points="965.5,-56.5 965.5,-75.5 1006.5,-75.5 1006.5,-56.5 965.5,-56.5"/>
<text text-anchor="middle" x="986" y="-63.5" font-family="Helvetica,sans-Serif" font-size="10.00">Log.h</text>
</a>
</g>
</g>
<!-- Node3&#45;&gt;Node4 -->
<g id="edge3" class="edge"><title>Node3&#45;&gt;Node4</title>
<path fill="none" stroke="midnightblue" d="M996.018,-112.083C994.428,-104.927 992.141,-94.6353 990.154,-85.6911"/>
<polygon fill="midnightblue" stroke="midnightblue" points="993.531,-84.7537 987.945,-75.7511 986.697,-86.2722 993.531,-84.7537"/>
</g>
<!-- Node5 -->
<g id="node5" class="node"><title>Node5</title>
<polygon fill="white" stroke="#bfbfbf" points="848.5,-0.5 848.5,-19.5 891.5,-19.5 891.5,-0.5 848.5,-0.5"/>
<text text-anchor="middle" x="870" y="-7.5" font-family="Helvetica,sans-Serif" font-size="10.00">cstdio</text>
</g>
<!-- Node3&#45;&gt;Node5 -->
<g id="edge10" class="edge"><title>Node3&#45;&gt;Node5</title>
<path fill="none" stroke="midnightblue" d="M954.205,-112.431C931.857,-105.944 905.895,-94.8102 889,-76 877.594,-63.301 873.014,-44.0991 871.186,-29.8551"/>
<polygon fill="midnightblue" stroke="midnightblue" points="874.654,-29.342 870.233,-19.7135 867.684,-29.9972 874.654,-29.342"/>
</g>
<!-- Node3&#45;&gt;Node8 -->
<g id="edge7" class="edge"><title>Node3&#45;&gt;Node8</title>
<path fill="none" stroke="midnightblue" d="M951.9,-113.256C948.555,-112.797 945.228,-112.372 942,-112 707.639,-85.0085 423.15,-71.9296 330.643,-68.1747"/>
<polygon fill="midnightblue" stroke="midnightblue" points="330.704,-64.6744 320.573,-67.7722 330.425,-71.6688 330.704,-64.6744"/>
</g>
<!-- Node9 -->
<g id="node9" class="node"><title>Node9</title>
<polygon fill="white" stroke="#bfbfbf" points="1024.5,-56.5 1024.5,-75.5 1107.5,-75.5 1107.5,-56.5 1024.5,-56.5"/>
<text text-anchor="middle" x="1066" y="-63.5" font-family="Helvetica,sans-Serif" font-size="10.00">unordered_map</text>
</g>
<!-- Node3&#45;&gt;Node9 -->
<g id="edge8" class="edge"><title>Node3&#45;&gt;Node9</title>
<path fill="none" stroke="midnightblue" d="M1008.93,-112.324C1019.17,-104.185 1034.72,-91.8395 1047,-82.0874"/>
<polygon fill="midnightblue" stroke="midnightblue" points="1049.22,-84.7937 1054.88,-75.8339 1044.87,-79.3119 1049.22,-84.7937"/>
</g>
<!-- Node10 -->
<g id="node10" class="node"><title>Node10</title>
<polygon fill="white" stroke="#bfbfbf" points="898.5,-56.5 898.5,-75.5 947.5,-75.5 947.5,-56.5 898.5,-56.5"/>
<text text-anchor="middle" x="923" y="-63.5" font-family="Helvetica,sans-Serif" font-size="10.00">cassert</text>
</g>
<!-- Node3&#45;&gt;Node10 -->
<g id="edge9" class="edge"><title>Node3&#45;&gt;Node10</title>
<path fill="none" stroke="midnightblue" d="M985.95,-112.324C974.537,-104.107 957.169,-91.6017 943.565,-81.8069"/>
<polygon fill="midnightblue" stroke="midnightblue" points="945.43,-78.8366 935.269,-75.8339 941.34,-84.5174 945.43,-78.8366"/>
</g>
<!-- Node4&#45;&gt;Node5 -->
<g id="edge4" class="edge"><title>Node4&#45;&gt;Node5</title>
<path fill="none" stroke="midnightblue" d="M967.619,-56.4435C948.784,-47.6751 919.269,-33.9355 897.621,-23.8579"/>
<polygon fill="midnightblue" stroke="midnightblue" points="898.838,-20.5637 888.295,-19.5164 895.883,-26.9098 898.838,-20.5637"/>
</g>
<!-- Node6 -->
<g id="node6" class="node"><title>Node6</title>
<polygon fill="white" stroke="#bfbfbf" points="1069.5,-0.5 1069.5,-19.5 1118.5,-19.5 1118.5,-0.5 1069.5,-0.5"/>
<text text-anchor="middle" x="1094" y="-7.5" font-family="Helvetica,sans-Serif" font-size="10.00">cstdarg</text>
</g>
<!-- Node4&#45;&gt;Node6 -->
<g id="edge5" class="edge"><title>Node4&#45;&gt;Node6</title>
<path fill="none" stroke="midnightblue" d="M1003.35,-56.324C1020.67,-47.6641 1047.52,-34.2424 1067.5,-24.249"/>
<polygon fill="midnightblue" stroke="midnightblue" points="1069.31,-27.2572 1076.69,-19.6545 1066.18,-20.9962 1069.31,-27.2572"/>
</g>
<!-- Node7 -->
<g id="node7" class="node"><title>Node7</title>
<polygon fill="white" stroke="#bfbfbf" points="963,-0.5 963,-19.5 1009,-19.5 1009,-0.5 963,-0.5"/>
<text text-anchor="middle" x="986" y="-7.5" font-family="Helvetica,sans-Serif" font-size="10.00">cstring</text>
</g>
<!-- Node4&#45;&gt;Node7 -->
<g id="edge6" class="edge"><title>Node4&#45;&gt;Node7</title>
<path fill="none" stroke="midnightblue" d="M986,-56.083C986,-49.0059 986,-38.8611 986,-29.9865"/>
<polygon fill="midnightblue" stroke="midnightblue" points="989.5,-29.751 986,-19.7511 982.5,-29.7511 989.5,-29.751"/>
</g>
<!-- Node11&#45;&gt;Node12 -->
<g id="edge12" class="edge"><title>Node11&#45;&gt;Node12</title>
<path fill="none" stroke="midnightblue" d="M377.733,-224.358C380.665,-211.26 387.538,-186 400,-168 408.176,-156.19 420.153,-145.542 430.552,-137.571"/>
<polygon fill="midnightblue" stroke="midnightblue" points="432.793,-140.269 438.797,-131.54 428.66,-134.619 432.793,-140.269"/>
</g>
<!-- Node13&#45;&gt;Node8 -->
<g id="edge14" class="edge"><title>Node13&#45;&gt;Node8</title>
<path fill="none" stroke="midnightblue" d="M115.639,-287.071C66.9294,-282.385 7.20672,-267.816 19,-224 33.9585,-168.424 37.332,-145.682 84,-112 113.349,-90.8176 217.075,-76.3865 269.374,-70.2823"/>
<polygon fill="midnightblue" stroke="midnightblue" points="269.87,-73.7486 279.41,-69.1398 269.078,-66.7935 269.87,-73.7486"/>
</g>
<!-- Node13&#45;&gt;Node11 -->
<g id="edge18" class="edge"><title>Node13&#45;&gt;Node11</title>
<path fill="none" stroke="midnightblue" d="M206.008,-280.444C240.729,-271.162 296.288,-256.309 334.377,-246.127"/>
<polygon fill="midnightblue" stroke="midnightblue" points="335.385,-249.48 344.142,-243.516 333.578,-242.718 335.385,-249.48"/>
</g>
<!-- Node13&#45;&gt;Node12 -->
<g id="edge17" class="edge"><title>Node13&#45;&gt;Node12</title>
<path fill="none" stroke="midnightblue" d="M188.555,-280.309C233.967,-253.192 373.322,-169.98 428.831,-136.834"/>
<polygon fill="midnightblue" stroke="midnightblue" points="430.798,-139.737 437.589,-131.605 427.209,-133.727 430.798,-139.737"/>
</g>
<!-- Node13&#45;&gt;Node14 -->
<g id="edge15" class="edge"><title>Node13&#45;&gt;Node14</title>
<path fill="none" stroke="midnightblue" d="M161.841,-280.356C151.168,-272.156 135.985,-258.897 127,-244 109.173,-214.442 109.47,-202.484 111,-168 111.383,-159.372 112.176,-149.841 112.956,-141.78"/>
<polygon fill="midnightblue" stroke="midnightblue" points="116.461,-141.918 114.006,-131.612 109.498,-141.199 116.461,-141.918"/>
</g>
<!-- Node15 -->
<g id="node15" class="node"><title>Node15</title>
<polygon fill="white" stroke="#bfbfbf" points="28,-224.5 28,-243.5 80,-243.5 80,-224.5 28,-224.5"/>
<text text-anchor="middle" x="54" y="-231.5" font-family="Helvetica,sans-Serif" font-size="10.00">sstream</text>
</g>
<!-- Node13&#45;&gt;Node15 -->
<g id="edge16" class="edge"><title>Node13&#45;&gt;Node15</title>
<path fill="none" stroke="midnightblue" d="M154.986,-280.444C135.412,-271.636 104.692,-257.812 82.2711,-247.722"/>
<polygon fill="midnightblue" stroke="midnightblue" points="83.4809,-244.428 72.9254,-243.516 80.6083,-250.812 83.4809,-244.428"/>
</g>
<!-- Node16 -->
<g id="node16" class="node"><title>Node16</title>
<g id="a_node16"><a xlink:href="Thread_8h.html" target="_top" xlink:title="common/Thread.h">
<polygon fill="white" stroke="black" points="864.5,-168.5 864.5,-187.5 959.5,-187.5 959.5,-168.5 864.5,-168.5"/>
<text text-anchor="middle" x="912" y="-175.5" font-family="Helvetica,sans-Serif" font-size="10.00">common/Thread.h</text>
</a>
</g>
</g>
<!-- Node13&#45;&gt;Node16 -->
<g id="edge19" class="edge"><title>Node13&#45;&gt;Node16</title>
<path fill="none" stroke="midnightblue" d="M232.163,-287.894C387.865,-284.555 806.093,-272.967 861,-244 880.565,-233.678 895.066,-212.204 903.503,-196.759"/>
<polygon fill="midnightblue" stroke="midnightblue" points="906.721,-198.155 908.165,-187.659 900.491,-194.963 906.721,-198.155"/>
</g>
<!-- Node20 -->
<g id="node20" class="node"><title>Node20</title>
<g id="a_node20"><a xlink:href="AIFactories_8h.html" target="_top" xlink:title="AIFactories.h">
<polygon fill="white" stroke="black" points="136.5,-224.5 136.5,-243.5 211.5,-243.5 211.5,-224.5 136.5,-224.5"/>
<text text-anchor="middle" x="174" y="-231.5" font-family="Helvetica,sans-Serif" font-size="10.00">AIFactories.h</text>
</a>
</g>
</g>
<!-- Node13&#45;&gt;Node20 -->
<g id="edge24" class="edge"><title>Node13&#45;&gt;Node20</title>
<path fill="none" stroke="midnightblue" d="M174,-280.083C174,-273.006 174,-262.861 174,-253.986"/>
<polygon fill="midnightblue" stroke="midnightblue" points="177.5,-253.751 174,-243.751 170.5,-253.751 177.5,-253.751"/>
</g>
<!-- Node16&#45;&gt;Node3 -->
<g id="edge20" class="edge"><title>Node16&#45;&gt;Node3</title>
<path fill="none" stroke="midnightblue" d="M925.817,-168.324C939.233,-159.9 959.824,-146.971 975.586,-137.074"/>
<polygon fill="midnightblue" stroke="midnightblue" points="977.609,-139.936 984.217,-131.655 973.887,-134.008 977.609,-139.936"/>
</g>
<!-- Node17 -->
<g id="node17" class="node"><title>Node17</title>
<polygon fill="white" stroke="#bfbfbf" points="890,-112.5 890,-131.5 934,-131.5 934,-112.5 890,-112.5"/>
<text text-anchor="middle" x="912" y="-119.5" font-family="Helvetica,sans-Serif" font-size="10.00">thread</text>
</g>
<!-- Node16&#45;&gt;Node17 -->
<g id="edge21" class="edge"><title>Node16&#45;&gt;Node17</title>
<path fill="none" stroke="midnightblue" d="M912,-168.083C912,-161.006 912,-150.861 912,-141.986"/>
<polygon fill="midnightblue" stroke="midnightblue" points="915.5,-141.751 912,-131.751 908.5,-141.751 915.5,-141.751"/>
</g>
<!-- Node18 -->
<g id="node18" class="node"><title>Node18</title>
<polygon fill="white" stroke="#bfbfbf" points="828,-112.5 828,-131.5 872,-131.5 872,-112.5 828,-112.5"/>
<text text-anchor="middle" x="850" y="-119.5" font-family="Helvetica,sans-Serif" font-size="10.00">mutex</text>
</g>
<!-- Node16&#45;&gt;Node18 -->
<g id="edge22" class="edge"><title>Node16&#45;&gt;Node18</title>
<path fill="none" stroke="midnightblue" d="M902.039,-168.324C892.873,-160.341 879.063,-148.313 867.972,-138.653"/>
<polygon fill="midnightblue" stroke="midnightblue" points="869.982,-135.762 860.143,-131.834 865.385,-141.041 869.982,-135.762"/>
</g>
<!-- Node19 -->
<g id="node19" class="node"><title>Node19</title>
<polygon fill="white" stroke="#bfbfbf" points="1062,-112.5 1062,-131.5 1108,-131.5 1108,-112.5 1062,-112.5"/>
<text text-anchor="middle" x="1085" y="-119.5" font-family="Helvetica,sans-Serif" font-size="10.00">atomic</text>
</g>
<!-- Node16&#45;&gt;Node19 -->
<g id="edge23" class="edge"><title>Node16&#45;&gt;Node19</title>
<path fill="none" stroke="midnightblue" d="M939.412,-168.444C970.064,-158.876 1019.68,-143.389 1052.32,-133.2"/>
<polygon fill="midnightblue" stroke="midnightblue" points="1053.37,-136.541 1061.87,-130.22 1051.28,-129.859 1053.37,-136.541"/>
</g>
<!-- Node20&#45;&gt;Node14 -->
<g id="edge35" class="edge"><title>Node20&#45;&gt;Node14</title>
<path fill="none" stroke="midnightblue" d="M157.955,-224.456C145.264,-216.752 128.339,-204.158 120,-188 112.62,-173.699 111.895,-155.232 112.71,-141.639"/>
<polygon fill="midnightblue" stroke="midnightblue" points="116.206,-141.846 113.644,-131.565 109.236,-141.199 116.206,-141.846"/>
</g>
<!-- Node21 -->
<g id="node21" class="node"><title>Node21</title>
<g id="a_node21"><a xlink:href="IAIFactory_8h.html" target="_top" xlink:title="IAIFactory.h">
<polygon fill="white" stroke="black" points="200.5,-168.5 200.5,-187.5 271.5,-187.5 271.5,-168.5 200.5,-168.5"/>
<text text-anchor="middle" x="236" y="-175.5" font-family="Helvetica,sans-Serif" font-size="10.00">IAIFactory.h</text>
</a>
</g>
</g>
<!-- Node20&#45;&gt;Node21 -->
<g id="edge25" class="edge"><title>Node20&#45;&gt;Node21</title>
<path fill="none" stroke="midnightblue" d="M183.961,-224.324C193.127,-216.341 206.937,-204.313 218.028,-194.653"/>
<polygon fill="midnightblue" stroke="midnightblue" points="220.615,-197.041 225.857,-187.834 216.018,-191.762 220.615,-197.041"/>
</g>
<!-- Node23 -->
<g id="node23" class="node"><title>Node23</title>
<g id="a_node23"><a xlink:href="IFactoryRegistry_8h.html" target="_top" xlink:title="common/IFactoryRegistry.h">
<polygon fill="white" stroke="black" points="670,-168.5 670,-187.5 808,-187.5 808,-168.5 670,-168.5"/>
<text text-anchor="middle" x="739" y="-175.5" font-family="Helvetica,sans-Serif" font-size="10.00">common/IFactoryRegistry.h</text>
</a>
</g>
</g>
<!-- Node20&#45;&gt;Node23 -->
<g id="edge30" class="edge"><title>Node20&#45;&gt;Node23</title>
<path fill="none" stroke="midnightblue" d="M211.509,-229.415C302.365,-220.731 535.836,-198.417 659.459,-186.602"/>
<polygon fill="midnightblue" stroke="midnightblue" points="659.998,-190.067 669.619,-185.631 659.332,-183.098 659.998,-190.067"/>
</g>
<!-- Node21&#45;&gt;Node8 -->
<g id="edge27" class="edge"><title>Node21&#45;&gt;Node8</title>
<path fill="none" stroke="midnightblue" d="M241.022,-168.368C251.537,-150.296 276.043,-108.176 289.93,-84.3074"/>
<polygon fill="midnightblue" stroke="midnightblue" points="292.998,-85.9951 295.001,-75.5914 286.947,-82.4748 292.998,-85.9951"/>
</g>
<!-- Node21&#45;&gt;Node12 -->
<g id="edge26" class="edge"><title>Node21&#45;&gt;Node12</title>
<path fill="none" stroke="midnightblue" d="M270.226,-168.444C310.034,-158.492 375.457,-142.136 416.005,-131.999"/>
<polygon fill="midnightblue" stroke="midnightblue" points="416.895,-135.384 425.748,-129.563 415.197,-128.593 416.895,-135.384"/>
</g>
<!-- Node21&#45;&gt;Node14 -->
<g id="edge28" class="edge"><title>Node21&#45;&gt;Node14</title>
<path fill="none" stroke="midnightblue" d="M216.827,-168.444C197.091,-159.636 166.115,-145.812 143.507,-135.722"/>
<polygon fill="midnightblue" stroke="midnightblue" points="144.641,-132.396 134.083,-131.516 141.789,-138.788 144.641,-132.396"/>
</g>
<!-- Node22 -->
<g id="node22" class="node"><title>Node22</title>
<polygon fill="white" stroke="#bfbfbf" points="204.5,-112.5 204.5,-131.5 233.5,-131.5 233.5,-112.5 204.5,-112.5"/>
<text text-anchor="middle" x="219" y="-119.5" font-family="Helvetica,sans-Serif" font-size="10.00">list</text>
</g>
<!-- Node21&#45;&gt;Node22 -->
<g id="edge29" class="edge"><title>Node21&#45;&gt;Node22</title>
<path fill="none" stroke="midnightblue" d="M233.193,-168.083C230.915,-160.849 227.629,-150.409 224.792,-141.397"/>
<polygon fill="midnightblue" stroke="midnightblue" points="228.096,-140.239 221.755,-131.751 221.419,-142.341 228.096,-140.239"/>
</g>
<!-- Node23&#45;&gt;Node3 -->
<g id="edge31" class="edge"><title>Node23&#45;&gt;Node3</title>
<path fill="none" stroke="midnightblue" d="M780.039,-168.444C825.316,-159.004 898.227,-143.802 947.106,-133.611"/>
<polygon fill="midnightblue" stroke="midnightblue" points="948.078,-136.984 957.153,-131.516 946.649,-130.131 948.078,-136.984"/>
</g>
<!-- Node23&#45;&gt;Node12 -->
<g id="edge33" class="edge"><title>Node23&#45;&gt;Node12</title>
<path fill="none" stroke="midnightblue" d="M693.524,-168.444C636.741,-157.76 540.734,-139.696 488.503,-129.868"/>
<polygon fill="midnightblue" stroke="midnightblue" points="488.833,-126.369 478.358,-127.959 487.538,-133.248 488.833,-126.369"/>
</g>
<!-- Node24 -->
<g id="node24" class="node"><title>Node24</title>
<g id="a_node24"><a xlink:href="NonCopyable_8h.html" target="_top" xlink:title="common/NonCopyable.h">
<polygon fill="white" stroke="black" points="1164.5,-112.5 1164.5,-131.5 1289.5,-131.5 1289.5,-112.5 1164.5,-112.5"/>
<text text-anchor="middle" x="1227" y="-119.5" font-family="Helvetica,sans-Serif" font-size="10.00">common/NonCopyable.h</text>
</a>
</g>
</g>
<!-- Node23&#45;&gt;Node24 -->
<g id="edge32" class="edge"><title>Node23&#45;&gt;Node24</title>
<path fill="none" stroke="midnightblue" d="M808.142,-169.349C899.758,-159.211 1060.67,-141.406 1154.12,-131.064"/>
<polygon fill="midnightblue" stroke="midnightblue" points="1154.79,-134.512 1164.34,-129.933 1154.02,-127.555 1154.79,-134.512"/>
</g>
<!-- Node25 -->
<g id="node25" class="node"><title>Node25</title>
<polygon fill="white" stroke="#bfbfbf" points="677.5,-112.5 677.5,-131.5 712.5,-131.5 712.5,-112.5 677.5,-112.5"/>
<text text-anchor="middle" x="695" y="-119.5" font-family="Helvetica,sans-Serif" font-size="10.00">map</text>
</g>
<!-- Node23&#45;&gt;Node25 -->
<g id="edge34" class="edge"><title>Node23&#45;&gt;Node25</title>
<path fill="none" stroke="midnightblue" d="M731.734,-168.083C725.455,-160.377 716.212,-149.033 708.569,-139.653"/>
<polygon fill="midnightblue" stroke="midnightblue" points="711.161,-137.293 702.131,-131.751 705.734,-141.714 711.161,-137.293"/>
</g>
<!-- Node26&#45;&gt;Node13 -->
<g id="edge37" class="edge"><title>Node26&#45;&gt;Node13</title>
<path fill="none" stroke="midnightblue" d="M167.321,-336.083C168.381,-328.927 169.906,-318.635 171.231,-309.691"/>
<polygon fill="midnightblue" stroke="midnightblue" points="174.7,-310.156 172.704,-299.751 167.776,-309.13 174.7,-310.156"/>
</g>
<!-- Node28&#45;&gt;Node2 -->
<g id="edge67" class="edge"><title>Node28&#45;&gt;Node2</title>
<path fill="none" stroke="midnightblue" d="M940.047,-456.162C872.498,-452.863 627.261,-439.582 427,-412 426.082,-411.874 425.154,-411.741 424.22,-411.603"/>
<polygon fill="midnightblue" stroke="midnightblue" points="424.504,-408.103 414.072,-409.959 423.384,-415.013 424.504,-408.103"/>
</g>
<!-- Node28&#45;&gt;Node3 -->
<g id="edge77" class="edge"><title>Node28&#45;&gt;Node3</title>
<path fill="none" stroke="midnightblue" d="M975.66,-455.581C1024.36,-450.611 1157,-429.504 1157,-347 1157,-347 1157,-347 1157,-233 1157,-178.316 1092.61,-148.684 1045.78,-134.365"/>
<polygon fill="midnightblue" stroke="midnightblue" points="1046.66,-130.977 1036.08,-131.538 1044.71,-137.697 1046.66,-130.977"/>
</g>
<!-- Node28&#45;&gt;Node9 -->
<g id="edge43" class="edge"><title>Node28&#45;&gt;Node9</title>
<path fill="none" stroke="midnightblue" d="M975.712,-457.108C1115.09,-457.732 2030,-457.616 2030,-347 2030,-347 2030,-347 2030,-177 2030,-146.775 2033.88,-130.531 2010,-112 1974.54,-84.4818 1309.82,-71.1263 1117.63,-67.8295"/>
<polygon fill="midnightblue" stroke="midnightblue" points="1117.57,-64.328 1107.51,-67.6577 1117.45,-71.327 1117.57,-64.328"/>
</g>
<!-- Node28&#45;&gt;Node12 -->
<g id="edge44" class="edge"><title>Node28&#45;&gt;Node12</title>
<path fill="none" stroke="midnightblue" d="M940.469,-456.125C862.375,-451.76 550,-429.166 550,-347 550,-347 550,-347 550,-289 550,-235.377 510.558,-234.585 484,-188 475.152,-172.48 466.272,-154.173 460.119,-140.95"/>
<polygon fill="midnightblue" stroke="midnightblue" points="463.173,-139.213 455.822,-131.584 456.811,-142.133 463.173,-139.213"/>
</g>
<!-- Node28&#45;&gt;Node16 -->
<g id="edge76" class="edge"><title>Node28&#45;&gt;Node16</title>
<path fill="none" stroke="midnightblue" d="M960.562,-448.249C965.749,-429.738 977,-385.179 977,-347 977,-347 977,-347 977,-289 977,-251.178 948.165,-214.94 928.906,-194.955"/>
<polygon fill="midnightblue" stroke="midnightblue" points="931.143,-192.243 921.591,-187.659 926.199,-197.199 931.143,-192.243"/>
</g>
<!-- Node28&#45;&gt;Node24 -->
<g id="edge78" class="edge"><title>Node28&#45;&gt;Node24</title>
<path fill="none" stroke="midnightblue" d="M975.889,-455.351C1047.42,-448.273 1309,-417.565 1309,-347 1309,-347 1309,-347 1309,-233 1309,-192.269 1272.41,-156.872 1248.12,-137.856"/>
<polygon fill="midnightblue" stroke="midnightblue" points="1249.91,-134.825 1239.81,-131.612 1245.7,-140.42 1249.91,-134.825"/>
</g>
<!-- Node29 -->
<g id="node29" class="node"><title>Node29</title>
<g id="a_node29"><a xlink:href="GroupId_8h.html" target="_top" xlink:title="group/GroupId.h">
<polygon fill="white" stroke="black" points="436,-392.5 436,-411.5 522,-411.5 522,-392.5 436,-392.5"/>
<text text-anchor="middle" x="479" y="-399.5" font-family="Helvetica,sans-Serif" font-size="10.00">group/GroupId.h</text>
</a>
</g>
</g>
<!-- Node28&#45;&gt;Node29 -->
<g id="edge45" class="edge"><title>Node28&#45;&gt;Node29</title>
<path fill="none" stroke="midnightblue" d="M940.273,-455.432C882.181,-450.225 692.314,-432.662 536,-412 534.743,-411.834 533.471,-411.662 532.188,-411.486"/>
<polygon fill="midnightblue" stroke="midnightblue" points="532.622,-408.012 522.227,-410.06 531.63,-414.942 532.622,-408.012"/>
</g>
<!-- Node30 -->
<g id="node30" class="node"><title>Node30</title>
<g id="a_node30"><a xlink:href="AggroMgr_8h.html" target="_top" xlink:title="aggro/AggroMgr.h">
<polygon fill="white" stroke="black" points="721,-280.5 721,-299.5 815,-299.5 815,-280.5 721,-280.5"/>
<text text-anchor="middle" x="768" y="-287.5" font-family="Helvetica,sans-Serif" font-size="10.00">aggro/AggroMgr.h</text>
</a>
</g>
</g>
<!-- Node28&#45;&gt;Node30 -->
<g id="edge46" class="edge"><title>Node28&#45;&gt;Node30</title>
<path fill="none" stroke="midnightblue" d="M948.052,-448.309C917.528,-421.64 824.904,-340.716 785.762,-306.519"/>
<polygon fill="midnightblue" stroke="midnightblue" points="787.683,-303.549 777.849,-299.605 783.077,-308.82 787.683,-303.549"/>
</g>
<!-- Node31 -->
<g id="node31" class="node"><title>Node31</title>
<g id="a_node31"><a xlink:href="ICharacter_8h.html" target="_top" xlink:title="ICharacter.h">
<polygon fill="white" stroke="black" points="1185.5,-224.5 1185.5,-243.5 1256.5,-243.5 1256.5,-224.5 1185.5,-224.5"/>
<text text-anchor="middle" x="1221" y="-231.5" font-family="Helvetica,sans-Serif" font-size="10.00">ICharacter.h</text>
</a>
</g>
</g>
<!-- Node28&#45;&gt;Node31 -->
<g id="edge66" class="edge"><title>Node28&#45;&gt;Node31</title>
<path fill="none" stroke="midnightblue" d="M975.614,-455.593C1021.38,-451.587 1142.5,-438.653 1171,-412 1216.25,-369.69 1221.63,-289.856 1221.58,-253.67"/>
<polygon fill="midnightblue" stroke="midnightblue" points="1225.08,-253.5 1221.42,-243.558 1218.08,-253.613 1225.08,-253.5"/>
</g>
<!-- Node32 -->
<g id="node32" class="node"><title>Node32</title>
<g id="a_node32"><a xlink:href="Math_8h.html" target="_top" xlink:title="common/Math.h">
<polygon fill="white" stroke="black" points="1495.5,-168.5 1495.5,-187.5 1582.5,-187.5 1582.5,-168.5 1495.5,-168.5"/>
<text text-anchor="middle" x="1539" y="-175.5" font-family="Helvetica,sans-Serif" font-size="10.00">common/Math.h</text>
</a>
</g>
</g>
<!-- Node28&#45;&gt;Node32 -->
<g id="edge79" class="edge"><title>Node28&#45;&gt;Node32</title>
<path fill="none" stroke="midnightblue" d="M975.712,-457.015C1065.27,-456.624 1464,-449.148 1464,-347 1464,-347 1464,-347 1464,-289 1464,-249.444 1497.52,-213.616 1519.74,-194.209"/>
<polygon fill="midnightblue" stroke="midnightblue" points="1522.2,-196.712 1527.61,-187.602 1517.7,-191.351 1522.2,-196.712"/>
</g>
<!-- Node41 -->
<g id="node41" class="node"><title>Node41</title>
<g id="a_node41"><a xlink:href="ITreeLoader_8h.html" target="_top" xlink:title="tree/loaders/ITreeLoader.h">
<polygon fill="white" stroke="black" points="721.5,-224.5 721.5,-243.5 852.5,-243.5 852.5,-224.5 721.5,-224.5"/>
<text text-anchor="middle" x="787" y="-231.5" font-family="Helvetica,sans-Serif" font-size="10.00">tree/loaders/ITreeLoader.h</text>
</a>
</g>
</g>
<!-- Node28&#45;&gt;Node41 -->
<g id="edge68" class="edge"><title>Node28&#45;&gt;Node41</title>
<path fill="none" stroke="midnightblue" d="M951.71,-448.098C942.782,-435.511 925.867,-411.834 911,-392 873.195,-341.565 863.353,-329.237 824,-280 816.328,-270.401 807.604,-259.777 800.554,-251.263"/>
<polygon fill="midnightblue" stroke="midnightblue" points="803.246,-249.026 794.165,-243.569 797.861,-253.498 803.246,-249.026"/>
</g>
<!-- Node30&#45;&gt;Node12 -->
<g id="edge48" class="edge"><title>Node30&#45;&gt;Node12</title>
<path fill="none" stroke="midnightblue" d="M753.718,-280.376C730.823,-266.844 684.189,-240.472 642,-224 585.754,-202.04 562.445,-219.61 511,-188 490.999,-175.711 473.707,-154.678 463.105,-139.873"/>
<polygon fill="midnightblue" stroke="midnightblue" points="465.958,-137.845 457.404,-131.593 460.193,-141.815 465.958,-137.845"/>
</g>
<!-- Node30&#45;&gt;Node14 -->
<g id="edge47" class="edge"><title>Node30&#45;&gt;Node14</title>
<path fill="none" stroke="midnightblue" d="M731.922,-280.497C673.718,-267.014 555.366,-240.564 454,-224 387.952,-213.207 211.362,-224.085 155,-188 138.136,-177.203 127.243,-156.502 121.148,-141.352"/>
<polygon fill="midnightblue" stroke="midnightblue" points="124.422,-140.115 117.681,-131.941 117.854,-142.535 124.422,-140.115"/>
</g>
<!-- Node30&#45;&gt;Node27 -->
<g id="edge63" class="edge"><title>Node30&#45;&gt;Node27</title>
<path fill="none" stroke="midnightblue" d="M742.331,-280.444C715.077,-271.359 671.816,-256.939 641.349,-246.783"/>
<polygon fill="midnightblue" stroke="midnightblue" points="642.143,-243.358 631.549,-243.516 639.929,-249.999 642.143,-243.358"/>
</g>
<!-- Node30&#45;&gt;Node31 -->
<g id="edge49" class="edge"><title>Node30&#45;&gt;Node31</title>
<path fill="none" stroke="midnightblue" d="M815.197,-283.374C902.736,-272.939 1089.18,-250.713 1175.46,-240.429"/>
<polygon fill="midnightblue" stroke="midnightblue" points="1175.95,-243.895 1185.47,-239.235 1175.13,-236.944 1175.95,-243.895"/>
</g>
<!-- Node40 -->
<g id="node40" class="node"><title>Node40</title>
<g id="a_node40"><a xlink:href="Entry_8h.html" target="_top" xlink:title="aggro/Entry.h">
<polygon fill="white" stroke="black" points="977.5,-168.5 977.5,-187.5 1052.5,-187.5 1052.5,-168.5 977.5,-168.5"/>
<text text-anchor="middle" x="1015" y="-175.5" font-family="Helvetica,sans-Serif" font-size="10.00">aggro/Entry.h</text>
</a>
</g>
</g>
<!-- Node30&#45;&gt;Node40 -->
<g id="edge64" class="edge"><title>Node30&#45;&gt;Node40</title>
<path fill="none" stroke="midnightblue" d="M803.603,-280.492C833.115,-272.809 875.779,-260.227 911,-244 941.996,-229.72 974.947,-207.841 995.254,-193.477"/>
<polygon fill="midnightblue" stroke="midnightblue" points="997.304,-196.314 1003.39,-187.642 993.225,-190.625 997.304,-196.314"/>
</g>
<!-- Node31&#45;&gt;Node3 -->
<g id="edge60" class="edge"><title>Node31&#45;&gt;Node3</title>
<path fill="none" stroke="midnightblue" d="M1216.78,-224.357C1209.47,-210.307 1193.08,-182.618 1171,-168 1151.83,-155.312 1096.93,-142.241 1054.06,-133.478"/>
<polygon fill="midnightblue" stroke="midnightblue" points="1054.5,-129.997 1044,-131.456 1053.12,-136.859 1054.5,-129.997"/>
</g>
<!-- Node31&#45;&gt;Node12 -->
<g id="edge62" class="edge"><title>Node31&#45;&gt;Node12</title>
<path fill="none" stroke="midnightblue" d="M1185.25,-232.856C1095.97,-231.909 856.36,-225.745 661,-188 596.511,-175.54 523.825,-150.273 483.413,-135.174"/>
<polygon fill="midnightblue" stroke="midnightblue" points="484.45,-131.824 473.858,-131.568 481.978,-138.373 484.45,-131.824"/>
</g>
<!-- Node31&#45;&gt;Node19 -->
<g id="edge61" class="edge"><title>Node31&#45;&gt;Node19</title>
<path fill="none" stroke="midnightblue" d="M1221.92,-224.291C1222.87,-210.643 1222.64,-184.114 1209,-168 1186.43,-141.344 1146.74,-130.477 1118.34,-126.048"/>
<polygon fill="midnightblue" stroke="midnightblue" points="1118.45,-122.53 1108.07,-124.646 1117.5,-129.466 1118.45,-122.53"/>
</g>
<!-- Node31&#45;&gt;Node24 -->
<g id="edge50" class="edge"><title>Node31&#45;&gt;Node24</title>
<path fill="none" stroke="midnightblue" d="M1227.89,-224.319C1234.27,-215.684 1243.31,-201.77 1247,-188 1251.34,-171.824 1244.73,-153.618 1237.97,-140.598"/>
<polygon fill="midnightblue" stroke="midnightblue" points="1240.94,-138.736 1232.95,-131.772 1234.85,-142.196 1240.94,-138.736"/>
</g>
<!-- Node31&#45;&gt;Node32 -->
<g id="edge51" class="edge"><title>Node31&#45;&gt;Node32</title>
<path fill="none" stroke="midnightblue" d="M1256.55,-226.963C1312.17,-217.519 1420.1,-199.19 1485.25,-188.128"/>
<polygon fill="midnightblue" stroke="midnightblue" points="1486.05,-191.542 1495.32,-186.417 1484.88,-184.641 1486.05,-191.542"/>
</g>
<!-- Node32&#45;&gt;Node3 -->
<g id="edge52" class="edge"><title>Node32&#45;&gt;Node3</title>
<path fill="none" stroke="midnightblue" d="M1495.32,-173.984C1411.74,-167.99 1223.19,-153.395 1054.25,-132.079"/>
<polygon fill="midnightblue" stroke="midnightblue" points="1054.54,-128.587 1044.18,-130.797 1053.66,-135.531 1054.54,-128.587"/>
</g>
<!-- Node33 -->
<g id="node33" class="node"><title>Node33</title>
<polygon fill="white" stroke="#bfbfbf" points="1681,-112.5 1681,-131.5 1751,-131.5 1751,-112.5 1681,-112.5"/>
<text text-anchor="middle" x="1716" y="-119.5" font-family="Helvetica,sans-Serif" font-size="10.00">glm/glm.hpp</text>
</g>
<!-- Node32&#45;&gt;Node33 -->
<g id="edge53" class="edge"><title>Node32&#45;&gt;Node33</title>
<path fill="none" stroke="midnightblue" d="M1567.05,-168.444C1597.08,-159.28 1644.91,-144.688 1678.24,-134.519"/>
<polygon fill="midnightblue" stroke="midnightblue" points="1679.54,-137.782 1688.09,-131.516 1677.5,-131.087 1679.54,-137.782"/>
</g>
<!-- Node34 -->
<g id="node34" class="node"><title>Node34</title>
<polygon fill="white" stroke="#bfbfbf" points="1769.5,-112.5 1769.5,-131.5 1882.5,-131.5 1882.5,-112.5 1769.5,-112.5"/>
<text text-anchor="middle" x="1826" y="-119.5" font-family="Helvetica,sans-Serif" font-size="10.00">glm/gtc/constants.hpp</text>
</g>
<!-- Node32&#45;&gt;Node34 -->
<g id="edge54" class="edge"><title>Node32&#45;&gt;Node34</title>
<path fill="none" stroke="midnightblue" d="M1582.59,-168.799C1632.93,-159.327 1715.83,-143.728 1770.68,-133.409"/>
<polygon fill="midnightblue" stroke="midnightblue" points="1771.4,-136.835 1780.58,-131.547 1770.1,-129.956 1771.4,-136.835"/>
</g>
<!-- Node35 -->
<g id="node35" class="node"><title>Node35</title>
<polygon fill="white" stroke="#bfbfbf" points="1900.5,-112.5 1900.5,-131.5 2001.5,-131.5 2001.5,-112.5 1900.5,-112.5"/>
<text text-anchor="middle" x="1951" y="-119.5" font-family="Helvetica,sans-Serif" font-size="10.00">glm/gtc/epsilon.hpp</text>
</g>
<!-- Node32&#45;&gt;Node35 -->
<g id="edge55" class="edge"><title>Node32&#45;&gt;Node35</title>
<path fill="none" stroke="midnightblue" d="M1582.67,-171.727C1647.36,-163.848 1772.73,-148.317 1890.04,-132.107"/>
<polygon fill="midnightblue" stroke="midnightblue" points="1890.85,-135.529 1900.27,-130.688 1889.89,-128.595 1890.85,-135.529"/>
</g>
<!-- Node36 -->
<g id="node36" class="node"><title>Node36</title>
<polygon fill="white" stroke="#bfbfbf" points="1307.5,-112.5 1307.5,-131.5 1432.5,-131.5 1432.5,-112.5 1307.5,-112.5"/>
<text text-anchor="middle" x="1370" y="-119.5" font-family="Helvetica,sans-Serif" font-size="10.00">glm/gtx/compatibility.hpp</text>
</g>
<!-- Node32&#45;&gt;Node36 -->
<g id="edge56" class="edge"><title>Node32&#45;&gt;Node36</title>
<path fill="none" stroke="midnightblue" d="M1512.22,-168.444C1483.67,-159.32 1438.27,-144.813 1406.46,-134.651"/>
<polygon fill="midnightblue" stroke="midnightblue" points="1407.24,-131.226 1396.65,-131.516 1405.11,-137.894 1407.24,-131.226"/>
</g>
<!-- Node37 -->
<g id="node37" class="node"><title>Node37</title>
<polygon fill="white" stroke="#bfbfbf" points="1451,-112.5 1451,-131.5 1543,-131.5 1543,-112.5 1451,-112.5"/>
<text text-anchor="middle" x="1497" y="-119.5" font-family="Helvetica,sans-Serif" font-size="10.00">glm/gtx/norm.hpp</text>
</g>
<!-- Node32&#45;&gt;Node37 -->
<g id="edge57" class="edge"><title>Node32&#45;&gt;Node37</title>
<path fill="none" stroke="midnightblue" d="M1532.06,-168.083C1526.07,-160.377 1517.25,-149.033 1509.95,-139.653"/>
<polygon fill="midnightblue" stroke="midnightblue" points="1512.71,-137.496 1503.81,-131.751 1507.18,-141.793 1512.71,-137.496"/>
</g>
<!-- Node38 -->
<g id="node38" class="node"><title>Node38</title>
<polygon fill="white" stroke="#bfbfbf" points="1561,-112.5 1561,-131.5 1601,-131.5 1601,-112.5 1561,-112.5"/>
<text text-anchor="middle" x="1581" y="-119.5" font-family="Helvetica,sans-Serif" font-size="10.00">limits</text>
</g>
<!-- Node32&#45;&gt;Node38 -->
<g id="edge58" class="edge"><title>Node32&#45;&gt;Node38</title>
<path fill="none" stroke="midnightblue" d="M1545.94,-168.083C1551.93,-160.377 1560.75,-149.033 1568.05,-139.653"/>
<polygon fill="midnightblue" stroke="midnightblue" points="1570.82,-141.793 1574.19,-131.751 1565.29,-137.496 1570.82,-141.793"/>
</g>
<!-- Node39 -->
<g id="node39" class="node"><title>Node39</title>
<polygon fill="white" stroke="#bfbfbf" points="1619,-112.5 1619,-131.5 1663,-131.5 1663,-112.5 1619,-112.5"/>
<text text-anchor="middle" x="1641" y="-119.5" font-family="Helvetica,sans-Serif" font-size="10.00">cmath</text>
</g>
<!-- Node32&#45;&gt;Node39 -->
<g id="edge59" class="edge"><title>Node32&#45;&gt;Node39</title>
<path fill="none" stroke="midnightblue" d="M1555.39,-168.324C1571.67,-159.703 1596.87,-146.364 1615.72,-136.386"/>
<polygon fill="midnightblue" stroke="midnightblue" points="1617.45,-139.427 1624.65,-131.655 1614.18,-133.24 1617.45,-139.427"/>
</g>
<!-- Node40&#45;&gt;Node3 -->
<g id="edge65" class="edge"><title>Node40&#45;&gt;Node3</title>
<path fill="none" stroke="midnightblue" d="M1012.19,-168.083C1009.92,-160.849 1006.63,-150.409 1003.79,-141.397"/>
<polygon fill="midnightblue" stroke="midnightblue" points="1007.1,-140.239 1000.75,-131.751 1000.42,-142.341 1007.1,-140.239"/>
</g>
<!-- Node41&#45;&gt;Node5 -->
<g id="edge75" class="edge"><title>Node41&#45;&gt;Node5</title>
<path fill="none" stroke="midnightblue" d="M794.851,-224.482C802.138,-215.968 812.515,-202.141 817,-188 827.216,-155.792 810.74,-144.764 819,-112 826.928,-80.5516 845.843,-47.657 858.276,-28.2626"/>
<polygon fill="midnightblue" stroke="midnightblue" points="861.363,-29.9379 863.938,-19.6607 855.516,-26.0892 861.363,-29.9379"/>
</g>
<!-- Node41&#45;&gt;Node6 -->
<g id="edge74" class="edge"><title>Node41&#45;&gt;Node6</title>
<path fill="none" stroke="midnightblue" d="M852.505,-233.36C910.324,-231.169 995.378,-221.672 1061,-188 1092.32,-171.931 1103.53,-164.519 1117,-132 1120.64,-123.201 1124.71,-92.1938 1116,-56 1113.68,-46.383 1109.08,-36.4278 1104.68,-28.3337"/>
<polygon fill="midnightblue" stroke="midnightblue" points="1107.63,-26.431 1099.59,-19.5315 1101.57,-29.9391 1107.63,-26.431"/>
</g>
<!-- Node41&#45;&gt;Node8 -->
<g id="edge71" class="edge"><title>Node41&#45;&gt;Node8</title>
<path fill="none" stroke="midnightblue" d="M758.715,-224.455C731.379,-215.973 688.942,-202.217 653,-188 577.546,-158.154 563.692,-138.505 487,-112 433.284,-93.4359 368.337,-79.6655 330.835,-72.5204"/>
<polygon fill="midnightblue" stroke="midnightblue" points="331.042,-68.9984 320.569,-70.5998 329.755,-75.8791 331.042,-68.9984"/>
</g>
<!-- Node41&#45;&gt;Node12 -->
<g id="edge70" class="edge"><title>Node41&#45;&gt;Node12</title>
<path fill="none" stroke="midnightblue" d="M721.253,-227.284C673.037,-221.468 606.718,-210.032 552,-188 521.018,-175.525 489.379,-152.966 470.211,-137.983"/>
<polygon fill="midnightblue" stroke="midnightblue" points="472.328,-135.195 462.328,-131.695 467.963,-140.667 472.328,-135.195"/>
</g>
<!-- Node41&#45;&gt;Node14 -->
<g id="edge72" class="edge"><title>Node41&#45;&gt;Node14</title>
<path fill="none" stroke="midnightblue" d="M721.38,-228.582C568.995,-218.251 203.14,-193.011 191,-188 165.543,-177.492 142.454,-155.05 128.573,-139.498"/>
<polygon fill="midnightblue" stroke="midnightblue" points="131.027,-136.984 121.852,-131.686 125.721,-141.549 131.027,-136.984"/>
</g>
<!-- Node41&#45;&gt;Node16 -->
<g id="edge69" class="edge"><title>Node41&#45;&gt;Node16</title>
<path fill="none" stroke="midnightblue" d="M806.807,-224.444C827.287,-215.596 859.483,-201.687 882.865,-191.586"/>
<polygon fill="midnightblue" stroke="midnightblue" points="884.494,-194.695 892.286,-187.516 881.718,-188.269 884.494,-194.695"/>
</g>
<!-- Node41&#45;&gt;Node25 -->
<g id="edge73" class="edge"><title>Node41&#45;&gt;Node25</title>
<path fill="none" stroke="midnightblue" d="M721.206,-225.13C698.32,-218.876 674.916,-207.747 661,-188 649.961,-172.336 663.645,-152.63 676.803,-139.045"/>
<polygon fill="midnightblue" stroke="midnightblue" points="679.52,-141.287 684.298,-131.83 674.666,-136.244 679.52,-141.287"/>
</g>
</g>
</svg>
