<?xml version="1.0" encoding="UTF-8" standalone="no"?>
<!DOCTYPE svg PUBLIC "-//W3C//DTD SVG 1.1//EN"
 "http://www.w3.org/Graphics/SVG/1.1/DTD/svg11.dtd">
<!-- Generated by graphviz version 2.36.0 (20140111.2315)
 -->
<!-- Title: /home/travis/build/mgerhardy/simpleai/src/ai/tree/TreeNodeImpl.h Pages: 1 -->
<svg width="2067pt" height="554pt"
 viewBox="0.00 0.00 2067.16 554.00" xmlns="http://www.w3.org/2000/svg" xmlns:xlink="http://www.w3.org/1999/xlink">
<g id="graph0" class="graph" transform="scale(1 1) rotate(0) translate(4 550)">
<title>/home/travis/build/mgerhardy/simpleai/src/ai/tree/TreeNodeImpl.h</title>
<polygon fill="white" stroke="none" points="-4,4 -4,-550 2063.16,-550 2063.16,4 -4,4"/>
<!-- Node1 -->
<g id="node1" class="node"><title>Node1</title>
<polygon fill="#bfbfbf" stroke="black" points="803,-504.5 803,-545.5 939,-545.5 939,-504.5 803,-504.5"/>
<text text-anchor="start" x="811" y="-533.5" font-family="Helvetica,sans-Serif" font-size="10.00">/home/travis/build</text>
<text text-anchor="start" x="811" y="-522.5" font-family="Helvetica,sans-Serif" font-size="10.00">/mgerhardy/simpleai</text>
<text text-anchor="middle" x="871" y="-511.5" font-family="Helvetica,sans-Serif" font-size="10.00">/src/ai/tree/TreeNodeImpl.h</text>
</g>
<!-- Node2 -->
<g id="node2" class="node"><title>Node2</title>
<g id="a_node2"><a xlink:href="TreeNode_8h.html" target="_top" xlink:title="TreeNode.h">
<polygon fill="white" stroke="black" points="423,-392.5 423,-411.5 491,-411.5 491,-392.5 423,-392.5"/>
<text text-anchor="middle" x="457" y="-399.5" font-family="Helvetica,sans-Serif" font-size="10.00">TreeNode.h</text>
</a>
</g>
</g>
<!-- Node1&#45;&gt;Node2 -->
<g id="edge1" class="edge"><title>Node1&#45;&gt;Node2</title>
<path fill="none" stroke="midnightblue" d="M804.024,-504.425C716.775,-478.924 567.047,-435.163 496.265,-414.476"/>
<polygon fill="midnightblue" stroke="midnightblue" points="496.991,-411.042 486.411,-411.596 495.027,-417.761 496.991,-411.042"/>
</g>
<!-- Node29 -->
<g id="node29" class="node"><title>Node29</title>
<g id="a_node29"><a xlink:href="AI_8h.html" target="_top" xlink:title="AI.h">
<polygon fill="white" stroke="black" points="985.5,-448.5 985.5,-467.5 1020.5,-467.5 1020.5,-448.5 985.5,-448.5"/>
<text text-anchor="middle" x="1003" y="-455.5" font-family="Helvetica,sans-Serif" font-size="10.00">AI.h</text>
</a>
</g>
</g>
<!-- Node1&#45;&gt;Node29 -->
<g id="edge43" class="edge"><title>Node1&#45;&gt;Node29</title>
<path fill="none" stroke="midnightblue" d="M910.604,-504.498C931.815,-494.053 957.381,-481.464 976.238,-472.178"/>
<polygon fill="midnightblue" stroke="midnightblue" points="978.004,-475.21 985.429,-467.652 974.911,-468.93 978.004,-475.21"/>
</g>
<!-- Node3 -->
<g id="node3" class="node"><title>Node3</title>
<g id="a_node3"><a xlink:href="Types_8h.html" target="_top" xlink:title="common/Types.h">
<polygon fill="white" stroke="black" points="977,-112.5 977,-131.5 1069,-131.5 1069,-112.5 977,-112.5"/>
<text text-anchor="middle" x="1023" y="-119.5" font-family="Helvetica,sans-Serif" font-size="10.00">common/Types.h</text>
</a>
</g>
</g>
<!-- Node2&#45;&gt;Node3 -->
<g id="edge2" class="edge"><title>Node2&#45;&gt;Node3</title>
<path fill="none" stroke="midnightblue" d="M491.366,-395.172C613.163,-373.703 1020.45,-294.711 1086,-188 1098.52,-167.613 1073.87,-148.485 1051.83,-136.329"/>
<polygon fill="midnightblue" stroke="midnightblue" points="1053.14,-133.069 1042.66,-131.563 1049.92,-139.28 1053.14,-133.069"/>
</g>
<!-- Node8 -->
<g id="node8" class="node"><title>Node8</title>
<polygon fill="white" stroke="#bfbfbf" points="304.5,-56.5 304.5,-75.5 345.5,-75.5 345.5,-56.5 304.5,-56.5"/>
<text text-anchor="middle" x="325" y="-63.5" font-family="Helvetica,sans-Serif" font-size="10.00">string</text>
</g>
<!-- Node2&#45;&gt;Node8 -->
<g id="edge40" class="edge"><title>Node2&#45;&gt;Node8</title>
<path fill="none" stroke="midnightblue" d="M442.21,-392.361C408.645,-371.778 327.276,-316.127 297,-244 293.56,-235.804 296.03,-232.836 297,-224 298.788,-207.708 301.885,-204.091 305,-188 311.991,-151.892 318.653,-109.422 322.248,-85.6155"/>
<polygon fill="midnightblue" stroke="midnightblue" points="325.737,-85.9448 323.754,-75.5373 318.814,-84.9101 325.737,-85.9448"/>
</g>
<!-- Node12 -->
<g id="node12" class="node"><title>Node12</title>
<g id="a_node12"><a xlink:href="MemoryAllocator_8h.html" target="_top" xlink:title="common/MemoryAllocator.h">
<polygon fill="white" stroke="black" points="306.5,-224.5 306.5,-243.5 445.5,-243.5 445.5,-224.5 306.5,-224.5"/>
<text text-anchor="middle" x="376" y="-231.5" font-family="Helvetica,sans-Serif" font-size="10.00">common/MemoryAllocator.h</text>
</a>
</g>
</g>
<!-- Node2&#45;&gt;Node12 -->
<g id="edge12" class="edge"><title>Node2&#45;&gt;Node12</title>
<path fill="none" stroke="midnightblue" d="M452.645,-392.075C439.785,-365.719 401.802,-287.878 384.618,-252.661"/>
<polygon fill="midnightblue" stroke="midnightblue" points="387.712,-251.02 380.181,-243.568 381.421,-254.09 387.712,-251.02"/>
</g>
<!-- Node13 -->
<g id="node13" class="node"><title>Node13</title>
<polygon fill="white" stroke="#bfbfbf" points="451,-112.5 451,-131.5 503,-131.5 503,-112.5 451,-112.5"/>
<text text-anchor="middle" x="477" y="-119.5" font-family="Helvetica,sans-Serif" font-size="10.00">memory</text>
</g>
<!-- Node2&#45;&gt;Node13 -->
<g id="edge41" class="edge"><title>Node2&#45;&gt;Node13</title>
<path fill="none" stroke="midnightblue" d="M456.379,-392.457C454.329,-361.812 448.691,-254.635 463,-168 464.483,-159.019 467.321,-149.346 470.056,-141.278"/>
<polygon fill="midnightblue" stroke="midnightblue" points="473.378,-142.384 473.47,-131.789 466.791,-140.014 473.378,-142.384"/>
</g>
<!-- Node14 -->
<g id="node14" class="node"><title>Node14</title>
<g id="a_node14"><a xlink:href="ICondition_8h.html" target="_top" xlink:title="Condition related stuff. ">
<polygon fill="white" stroke="black" points="116,-280.5 116,-299.5 232,-299.5 232,-280.5 116,-280.5"/>
<text text-anchor="middle" x="174" y="-287.5" font-family="Helvetica,sans-Serif" font-size="10.00">conditions/ICondition.h</text>
</a>
</g>
</g>
<!-- Node2&#45;&gt;Node14 -->
<g id="edge14" class="edge"><title>Node2&#45;&gt;Node14</title>
<path fill="none" stroke="midnightblue" d="M422.948,-401.35C350.354,-401.294 184.121,-396.625 149,-356 136.951,-342.063 148.103,-321.689 159.105,-307.478"/>
<polygon fill="midnightblue" stroke="midnightblue" points="162.009,-309.46 165.727,-299.539 156.634,-304.976 162.009,-309.46"/>
</g>
<!-- Node15 -->
<g id="node15" class="node"><title>Node15</title>
<polygon fill="white" stroke="#bfbfbf" points="118,-112.5 118,-131.5 162,-131.5 162,-112.5 118,-112.5"/>
<text text-anchor="middle" x="140" y="-119.5" font-family="Helvetica,sans-Serif" font-size="10.00">vector</text>
</g>
<!-- Node2&#45;&gt;Node15 -->
<g id="edge39" class="edge"><title>Node2&#45;&gt;Node15</title>
<path fill="none" stroke="midnightblue" d="M422.651,-400.088C316.37,-396.347 0,-377.911 0,-291 0,-291 0,-291 0,-233 0,-178.315 66.8603,-146.679 108.171,-132.351"/>
<polygon fill="midnightblue" stroke="midnightblue" points="109.424,-135.623 117.817,-129.157 107.223,-128.978 109.424,-135.623"/>
</g>
<!-- Node27 -->
<g id="node27" class="node"><title>Node27</title>
<g id="a_node27"><a xlink:href="True_8h.html" target="_top" xlink:title="conditions/True.h">
<polygon fill="white" stroke="black" points="158,-336.5 158,-355.5 250,-355.5 250,-336.5 158,-336.5"/>
<text text-anchor="middle" x="204" y="-343.5" font-family="Helvetica,sans-Serif" font-size="10.00">conditions/True.h</text>
</a>
</g>
</g>
<!-- Node2&#45;&gt;Node27 -->
<g id="edge37" class="edge"><title>Node2&#45;&gt;Node27</title>
<path fill="none" stroke="midnightblue" d="M422.879,-393.717C379.471,-384.452 304.154,-368.377 254.192,-357.713"/>
<polygon fill="midnightblue" stroke="midnightblue" points="254.756,-354.255 244.246,-355.59 253.295,-361.1 254.756,-354.255"/>
</g>
<!-- Node28 -->
<g id="node28" class="node"><title>Node28</title>
<polygon fill="white" stroke="#bfbfbf" points="578,-224.5 578,-243.5 634,-243.5 634,-224.5 578,-224.5"/>
<text text-anchor="middle" x="606" y="-231.5" font-family="Helvetica,sans-Serif" font-size="10.00">algorithm</text>
</g>
<!-- Node2&#45;&gt;Node28 -->
<g id="edge42" class="edge"><title>Node2&#45;&gt;Node28</title>
<path fill="none" stroke="midnightblue" d="M473.983,-392.498C488.864,-384.485 510.479,-371.424 526,-356 557.871,-324.329 584.176,-278.03 597.192,-252.877"/>
<polygon fill="midnightblue" stroke="midnightblue" points="600.404,-254.281 601.796,-243.778 594.158,-251.121 600.404,-254.281"/>
</g>
<!-- Node4 -->
<g id="node4" class="node"><title>Node4</title>
<g id="a_node4"><a xlink:href="Log_8h.html" target="_top" xlink:title="Log.h">
<polygon fill="white" stroke="black" points="1039.5,-56.5 1039.5,-75.5 1080.5,-75.5 1080.5,-56.5 1039.5,-56.5"/>
<text text-anchor="middle" x="1060" y="-63.5" font-family="Helvetica,sans-Serif" font-size="10.00">Log.h</text>
</a>
</g>
</g>
<!-- Node3&#45;&gt;Node4 -->
<g id="edge3" class="edge"><title>Node3&#45;&gt;Node4</title>
<path fill="none" stroke="midnightblue" d="M1029.11,-112.083C1034.28,-104.534 1041.85,-93.4948 1048.19,-84.2298"/>
<polygon fill="midnightblue" stroke="midnightblue" points="1051.24,-85.9787 1054,-75.7511 1045.46,-82.0221 1051.24,-85.9787"/>
</g>
<!-- Node5 -->
<g id="node5" class="node"><title>Node5</title>
<polygon fill="white" stroke="#bfbfbf" points="979,-0.5 979,-19.5 1025,-19.5 1025,-0.5 979,-0.5"/>
<text text-anchor="middle" x="1002" y="-7.5" font-family="Helvetica,sans-Serif" font-size="10.00">stdio.h</text>
</g>
<!-- Node3&#45;&gt;Node5 -->
<g id="edge10" class="edge"><title>Node3&#45;&gt;Node5</title>
<path fill="none" stroke="midnightblue" d="M1021.35,-112.368C1017.96,-94.617 1010.15,-53.6664 1005.55,-29.5974"/>
<polygon fill="midnightblue" stroke="midnightblue" points="1008.95,-28.7577 1003.64,-19.5914 1002.08,-30.0704 1008.95,-28.7577"/>
</g>
<!-- Node3&#45;&gt;Node8 -->
<g id="edge7" class="edge"><title>Node3&#45;&gt;Node8</title>
<path fill="none" stroke="midnightblue" d="M976.9,-113.256C973.555,-112.797 970.228,-112.372 967,-112 732.639,-85.0085 448.15,-71.9296 355.643,-68.1747"/>
<polygon fill="midnightblue" stroke="midnightblue" points="355.704,-64.6744 345.573,-67.7722 355.425,-71.6688 355.704,-64.6744"/>
</g>
<!-- Node9 -->
<g id="node9" class="node"><title>Node9</title>
<polygon fill="white" stroke="#bfbfbf" points="1098.5,-56.5 1098.5,-75.5 1181.5,-75.5 1181.5,-56.5 1098.5,-56.5"/>
<text text-anchor="middle" x="1140" y="-63.5" font-family="Helvetica,sans-Serif" font-size="10.00">unordered_map</text>
</g>
<!-- Node3&#45;&gt;Node9 -->
<g id="edge8" class="edge"><title>Node3&#45;&gt;Node9</title>
<path fill="none" stroke="midnightblue" d="M1041.54,-112.444C1060.62,-103.636 1090.57,-89.8116 1112.44,-79.722"/>
<polygon fill="midnightblue" stroke="midnightblue" points="1113.93,-82.8849 1121.55,-75.5164 1111,-76.5292 1113.93,-82.8849"/>
</g>
<!-- Node10 -->
<g id="node10" class="node"><title>Node10</title>
<polygon fill="white" stroke="#bfbfbf" points="853,-56.5 853,-75.5 905,-75.5 905,-56.5 853,-56.5"/>
<text text-anchor="middle" x="879" y="-63.5" font-family="Helvetica,sans-Serif" font-size="10.00">assert.h</text>
</g>
<!-- Node3&#45;&gt;Node10 -->
<g id="edge9" class="edge"><title>Node3&#45;&gt;Node10</title>
<path fill="none" stroke="midnightblue" d="M1000.18,-112.444C976.168,-103.438 938.171,-89.1891 911.131,-79.049"/>
<polygon fill="midnightblue" stroke="midnightblue" points="912.303,-75.7506 901.71,-75.5164 909.845,-82.3049 912.303,-75.7506"/>
</g>
<!-- Node11 -->
<g id="node11" class="node"><title>Node11</title>
<polygon fill="white" stroke="#bfbfbf" points="923.5,-56.5 923.5,-75.5 982.5,-75.5 982.5,-56.5 923.5,-56.5"/>
<text text-anchor="middle" x="953" y="-63.5" font-family="Helvetica,sans-Serif" font-size="10.00">inttypes.h</text>
</g>
<!-- Node3&#45;&gt;Node11 -->
<g id="edge11" class="edge"><title>Node3&#45;&gt;Node11</title>
<path fill="none" stroke="midnightblue" d="M1011.75,-112.324C1001.2,-104.185 985.199,-91.8395 972.558,-82.0874"/>
<polygon fill="midnightblue" stroke="midnightblue" points="974.507,-79.1707 964.451,-75.8339 970.231,-84.7132 974.507,-79.1707"/>
</g>
<!-- Node4&#45;&gt;Node5 -->
<g id="edge4" class="edge"><title>Node4&#45;&gt;Node5</title>
<path fill="none" stroke="midnightblue" d="M1050.68,-56.324C1042.11,-48.3414 1029.19,-36.3128 1018.81,-26.6529"/>
<polygon fill="midnightblue" stroke="midnightblue" points="1021.19,-24.0865 1011.49,-19.8339 1016.42,-29.2098 1021.19,-24.0865"/>
</g>
<!-- Node6 -->
<g id="node6" class="node"><title>Node6</title>
<polygon fill="white" stroke="#bfbfbf" points="1151,-0.5 1151,-19.5 1203,-19.5 1203,-0.5 1151,-0.5"/>
<text text-anchor="middle" x="1177" y="-7.5" font-family="Helvetica,sans-Serif" font-size="10.00">stdarg.h</text>
</g>
<!-- Node4&#45;&gt;Node6 -->
<g id="edge5" class="edge"><title>Node4&#45;&gt;Node6</title>
<path fill="none" stroke="midnightblue" d="M1078.54,-56.4435C1097.62,-47.6356 1127.57,-33.8116 1149.44,-23.722"/>
<polygon fill="midnightblue" stroke="midnightblue" points="1150.93,-26.8849 1158.55,-19.5164 1148,-20.5292 1150.93,-26.8849"/>
</g>
<!-- Node7 -->
<g id="node7" class="node"><title>Node7</title>
<polygon fill="white" stroke="#bfbfbf" points="1043.5,-0.5 1043.5,-19.5 1092.5,-19.5 1092.5,-0.5 1043.5,-0.5"/>
<text text-anchor="middle" x="1068" y="-7.5" font-family="Helvetica,sans-Serif" font-size="10.00">string.h</text>
</g>
<!-- Node4&#45;&gt;Node7 -->
<g id="edge6" class="edge"><title>Node4&#45;&gt;Node7</title>
<path fill="none" stroke="midnightblue" d="M1061.32,-56.083C1062.38,-48.9272 1063.91,-38.6353 1065.23,-29.6911"/>
<polygon fill="midnightblue" stroke="midnightblue" points="1068.7,-30.1561 1066.7,-19.7511 1061.78,-29.1302 1068.7,-30.1561"/>
</g>
<!-- Node12&#45;&gt;Node13 -->
<g id="edge13" class="edge"><title>Node12&#45;&gt;Node13</title>
<path fill="none" stroke="midnightblue" d="M381.799,-224.129C390.461,-211.169 407.629,-186.583 425,-168 435.064,-157.234 447.512,-146.388 457.706,-138.042"/>
<polygon fill="midnightblue" stroke="midnightblue" points="460.029,-140.666 465.636,-131.676 455.647,-135.207 460.029,-140.666"/>
</g>
<!-- Node14&#45;&gt;Node8 -->
<g id="edge15" class="edge"><title>Node14&#45;&gt;Node8</title>
<path fill="none" stroke="midnightblue" d="M115.563,-286.744C65.5326,-281.871 3.78868,-267.214 19,-224 40.2029,-163.765 54.5475,-145.358 109,-112 167.54,-76.1379 249.98,-68.4335 294.165,-67.0379"/>
<polygon fill="midnightblue" stroke="midnightblue" points="294.361,-70.5345 304.279,-66.8091 294.202,-63.5363 294.361,-70.5345"/>
</g>
<!-- Node14&#45;&gt;Node12 -->
<g id="edge19" class="edge"><title>Node14&#45;&gt;Node12</title>
<path fill="none" stroke="midnightblue" d="M206.008,-280.444C240.729,-271.162 296.288,-256.309 334.377,-246.127"/>
<polygon fill="midnightblue" stroke="midnightblue" points="335.385,-249.48 344.142,-243.516 333.578,-242.718 335.385,-249.48"/>
</g>
<!-- Node14&#45;&gt;Node13 -->
<g id="edge18" class="edge"><title>Node14&#45;&gt;Node13</title>
<path fill="none" stroke="midnightblue" d="M189.864,-280.309C239.565,-253.08 392.504,-169.292 452.493,-136.426"/>
<polygon fill="midnightblue" stroke="midnightblue" points="454.205,-139.479 461.293,-131.605 450.841,-133.34 454.205,-139.479"/>
</g>
<!-- Node14&#45;&gt;Node15 -->
<g id="edge16" class="edge"><title>Node14&#45;&gt;Node15</title>
<path fill="none" stroke="midnightblue" d="M159.922,-280.259C148.647,-272.355 133.654,-259.584 127,-244 112.401,-209.81 124.013,-165.455 132.701,-141.061"/>
<polygon fill="midnightblue" stroke="midnightblue" points="136,-142.232 136.272,-131.641 129.454,-139.751 136,-142.232"/>
</g>
<!-- Node16 -->
<g id="node16" class="node"><title>Node16</title>
<polygon fill="white" stroke="#bfbfbf" points="28,-224.5 28,-243.5 80,-243.5 80,-224.5 28,-224.5"/>
<text text-anchor="middle" x="54" y="-231.5" font-family="Helvetica,sans-Serif" font-size="10.00">sstream</text>
</g>
<!-- Node14&#45;&gt;Node16 -->
<g id="edge17" class="edge"><title>Node14&#45;&gt;Node16</title>
<path fill="none" stroke="midnightblue" d="M154.986,-280.444C135.412,-271.636 104.692,-257.812 82.2711,-247.722"/>
<polygon fill="midnightblue" stroke="midnightblue" points="83.4809,-244.428 72.9254,-243.516 80.6083,-250.812 83.4809,-244.428"/>
</g>
<!-- Node17 -->
<g id="node17" class="node"><title>Node17</title>
<g id="a_node17"><a xlink:href="Thread_8h.html" target="_top" xlink:title="common/Thread.h">
<polygon fill="white" stroke="black" points="889.5,-168.5 889.5,-187.5 984.5,-187.5 984.5,-168.5 889.5,-168.5"/>
<text text-anchor="middle" x="937" y="-175.5" font-family="Helvetica,sans-Serif" font-size="10.00">common/Thread.h</text>
</a>
</g>
</g>
<!-- Node14&#45;&gt;Node17 -->
<g id="edge20" class="edge"><title>Node14&#45;&gt;Node17</title>
<path fill="none" stroke="midnightblue" d="M232.253,-287.566C389.291,-283.373 813.454,-269.776 871,-244 894.066,-233.668 913.685,-211.526 925.396,-195.967"/>
<polygon fill="midnightblue" stroke="midnightblue" points="928.341,-197.866 931.344,-187.706 922.661,-193.776 928.341,-197.866"/>
</g>
<!-- Node21 -->
<g id="node21" class="node"><title>Node21</title>
<g id="a_node21"><a xlink:href="AIFactories_8h.html" target="_top" xlink:title="AIFactories.h">
<polygon fill="white" stroke="black" points="136.5,-224.5 136.5,-243.5 211.5,-243.5 211.5,-224.5 136.5,-224.5"/>
<text text-anchor="middle" x="174" y="-231.5" font-family="Helvetica,sans-Serif" font-size="10.00">AIFactories.h</text>
</a>
</g>
</g>
<!-- Node14&#45;&gt;Node21 -->
<g id="edge25" class="edge"><title>Node14&#45;&gt;Node21</title>
<path fill="none" stroke="midnightblue" d="M174,-280.083C174,-273.006 174,-262.861 174,-253.986"/>
<polygon fill="midnightblue" stroke="midnightblue" points="177.5,-253.751 174,-243.751 170.5,-253.751 177.5,-253.751"/>
</g>
<!-- Node17&#45;&gt;Node3 -->
<g id="edge21" class="edge"><title>Node17&#45;&gt;Node3</title>
<path fill="none" stroke="midnightblue" d="M950.817,-168.324C964.233,-159.9 984.824,-146.971 1000.59,-137.074"/>
<polygon fill="midnightblue" stroke="midnightblue" points="1002.61,-139.936 1009.22,-131.655 998.887,-134.008 1002.61,-139.936"/>
</g>
<!-- Node18 -->
<g id="node18" class="node"><title>Node18</title>
<polygon fill="white" stroke="#bfbfbf" points="915,-112.5 915,-131.5 959,-131.5 959,-112.5 915,-112.5"/>
<text text-anchor="middle" x="937" y="-119.5" font-family="Helvetica,sans-Serif" font-size="10.00">thread</text>
</g>
<!-- Node17&#45;&gt;Node18 -->
<g id="edge22" class="edge"><title>Node17&#45;&gt;Node18</title>
<path fill="none" stroke="midnightblue" d="M937,-168.083C937,-161.006 937,-150.861 937,-141.986"/>
<polygon fill="midnightblue" stroke="midnightblue" points="940.5,-141.751 937,-131.751 933.5,-141.751 940.5,-141.751"/>
</g>
<!-- Node19 -->
<g id="node19" class="node"><title>Node19</title>
<polygon fill="white" stroke="#bfbfbf" points="853,-112.5 853,-131.5 897,-131.5 897,-112.5 853,-112.5"/>
<text text-anchor="middle" x="875" y="-119.5" font-family="Helvetica,sans-Serif" font-size="10.00">mutex</text>
</g>
<!-- Node17&#45;&gt;Node19 -->
<g id="edge23" class="edge"><title>Node17&#45;&gt;Node19</title>
<path fill="none" stroke="midnightblue" d="M927.039,-168.324C917.873,-160.341 904.063,-148.313 892.972,-138.653"/>
<polygon fill="midnightblue" stroke="midnightblue" points="894.982,-135.762 885.143,-131.834 890.385,-141.041 894.982,-135.762"/>
</g>
<!-- Node20 -->
<g id="node20" class="node"><title>Node20</title>
<polygon fill="white" stroke="#bfbfbf" points="1087,-112.5 1087,-131.5 1133,-131.5 1133,-112.5 1087,-112.5"/>
<text text-anchor="middle" x="1110" y="-119.5" font-family="Helvetica,sans-Serif" font-size="10.00">atomic</text>
</g>
<!-- Node17&#45;&gt;Node20 -->
<g id="edge24" class="edge"><title>Node17&#45;&gt;Node20</title>
<path fill="none" stroke="midnightblue" d="M964.412,-168.444C995.064,-158.876 1044.68,-143.389 1077.32,-133.2"/>
<polygon fill="midnightblue" stroke="midnightblue" points="1078.37,-136.541 1086.87,-130.22 1076.28,-129.859 1078.37,-136.541"/>
</g>
<!-- Node21&#45;&gt;Node15 -->
<g id="edge36" class="edge"><title>Node21&#45;&gt;Node15</title>
<path fill="none" stroke="midnightblue" d="M166.563,-224.384C159.633,-215.797 149.684,-201.918 145,-188 139.974,-173.066 138.936,-155.152 139.035,-141.915"/>
<polygon fill="midnightblue" stroke="midnightblue" points="142.54,-141.78 139.342,-131.68 135.543,-141.57 142.54,-141.78"/>
</g>
<!-- Node22 -->
<g id="node22" class="node"><title>Node22</title>
<g id="a_node22"><a xlink:href="IAIFactory_8h.html" target="_top" xlink:title="IAIFactory.h">
<polygon fill="white" stroke="black" points="225.5,-168.5 225.5,-187.5 296.5,-187.5 296.5,-168.5 225.5,-168.5"/>
<text text-anchor="middle" x="261" y="-175.5" font-family="Helvetica,sans-Serif" font-size="10.00">IAIFactory.h</text>
</a>
</g>
</g>
<!-- Node21&#45;&gt;Node22 -->
<g id="edge26" class="edge"><title>Node21&#45;&gt;Node22</title>
<path fill="none" stroke="midnightblue" d="M187.978,-224.324C201.55,-215.9 222.38,-202.971 238.325,-193.074"/>
<polygon fill="midnightblue" stroke="midnightblue" points="240.406,-195.902 247.057,-187.655 236.714,-189.954 240.406,-195.902"/>
</g>
<!-- Node24 -->
<g id="node24" class="node"><title>Node24</title>
<g id="a_node24"><a xlink:href="IFactoryRegistry_8h.html" target="_top" xlink:title="common/IFactoryRegistry.h">
<polygon fill="white" stroke="black" points="695,-168.5 695,-187.5 833,-187.5 833,-168.5 695,-168.5"/>
<text text-anchor="middle" x="764" y="-175.5" font-family="Helvetica,sans-Serif" font-size="10.00">common/IFactoryRegistry.h</text>
</a>
</g>
</g>
<!-- Node21&#45;&gt;Node24 -->
<g id="edge31" class="edge"><title>Node21&#45;&gt;Node24</title>
<path fill="none" stroke="midnightblue" d="M211.805,-229.54C306.522,-220.871 555.6,-198.074 684.371,-186.288"/>
<polygon fill="midnightblue" stroke="midnightblue" points="684.924,-189.752 694.563,-185.355 684.286,-182.781 684.924,-189.752"/>
</g>
<!-- Node22&#45;&gt;Node8 -->
<g id="edge28" class="edge"><title>Node22&#45;&gt;Node8</title>
<path fill="none" stroke="midnightblue" d="M266.022,-168.368C276.537,-150.296 301.043,-108.176 314.93,-84.3074"/>
<polygon fill="midnightblue" stroke="midnightblue" points="317.998,-85.9951 320.001,-75.5914 311.947,-82.4748 317.998,-85.9951"/>
</g>
<!-- Node22&#45;&gt;Node13 -->
<g id="edge27" class="edge"><title>Node22&#45;&gt;Node13</title>
<path fill="none" stroke="midnightblue" d="M295.226,-168.444C335.034,-158.492 400.457,-142.136 441.005,-131.999"/>
<polygon fill="midnightblue" stroke="midnightblue" points="441.895,-135.384 450.748,-129.563 440.197,-128.593 441.895,-135.384"/>
</g>
<!-- Node22&#45;&gt;Node15 -->
<g id="edge29" class="edge"><title>Node22&#45;&gt;Node15</title>
<path fill="none" stroke="midnightblue" d="M241.827,-168.444C222.091,-159.636 191.115,-145.812 168.507,-135.722"/>
<polygon fill="midnightblue" stroke="midnightblue" points="169.641,-132.396 159.083,-131.516 166.789,-138.788 169.641,-132.396"/>
</g>
<!-- Node23 -->
<g id="node23" class="node"><title>Node23</title>
<polygon fill="white" stroke="#bfbfbf" points="229.5,-112.5 229.5,-131.5 258.5,-131.5 258.5,-112.5 229.5,-112.5"/>
<text text-anchor="middle" x="244" y="-119.5" font-family="Helvetica,sans-Serif" font-size="10.00">list</text>
</g>
<!-- Node22&#45;&gt;Node23 -->
<g id="edge30" class="edge"><title>Node22&#45;&gt;Node23</title>
<path fill="none" stroke="midnightblue" d="M258.193,-168.083C255.915,-160.849 252.629,-150.409 249.792,-141.397"/>
<polygon fill="midnightblue" stroke="midnightblue" points="253.096,-140.239 246.755,-131.751 246.419,-142.341 253.096,-140.239"/>
</g>
<!-- Node24&#45;&gt;Node3 -->
<g id="edge32" class="edge"><title>Node24&#45;&gt;Node3</title>
<path fill="none" stroke="midnightblue" d="M805.039,-168.444C850.316,-159.004 923.227,-143.802 972.106,-133.611"/>
<polygon fill="midnightblue" stroke="midnightblue" points="973.078,-136.984 982.153,-131.516 971.649,-130.131 973.078,-136.984"/>
</g>
<!-- Node24&#45;&gt;Node13 -->
<g id="edge34" class="edge"><title>Node24&#45;&gt;Node13</title>
<path fill="none" stroke="midnightblue" d="M718.524,-168.444C661.741,-157.76 565.734,-139.696 513.503,-129.868"/>
<polygon fill="midnightblue" stroke="midnightblue" points="513.833,-126.369 503.358,-127.959 512.538,-133.248 513.833,-126.369"/>
</g>
<!-- Node25 -->
<g id="node25" class="node"><title>Node25</title>
<g id="a_node25"><a xlink:href="NonCopyable_8h.html" target="_top" xlink:title="common/NonCopyable.h">
<polygon fill="white" stroke="black" points="1189.5,-112.5 1189.5,-131.5 1314.5,-131.5 1314.5,-112.5 1189.5,-112.5"/>
<text text-anchor="middle" x="1252" y="-119.5" font-family="Helvetica,sans-Serif" font-size="10.00">common/NonCopyable.h</text>
</a>
</g>
</g>
<!-- Node24&#45;&gt;Node25 -->
<g id="edge33" class="edge"><title>Node24&#45;&gt;Node25</title>
<path fill="none" stroke="midnightblue" d="M833.142,-169.349C924.758,-159.211 1085.67,-141.406 1179.12,-131.064"/>
<polygon fill="midnightblue" stroke="midnightblue" points="1179.79,-134.512 1189.34,-129.933 1179.02,-127.555 1179.79,-134.512"/>
</g>
<!-- Node26 -->
<g id="node26" class="node"><title>Node26</title>
<polygon fill="white" stroke="#bfbfbf" points="702.5,-112.5 702.5,-131.5 737.5,-131.5 737.5,-112.5 702.5,-112.5"/>
<text text-anchor="middle" x="720" y="-119.5" font-family="Helvetica,sans-Serif" font-size="10.00">map</text>
</g>
<!-- Node24&#45;&gt;Node26 -->
<g id="edge35" class="edge"><title>Node24&#45;&gt;Node26</title>
<path fill="none" stroke="midnightblue" d="M756.734,-168.083C750.455,-160.377 741.212,-149.033 733.569,-139.653"/>
<polygon fill="midnightblue" stroke="midnightblue" points="736.161,-137.293 727.131,-131.751 730.734,-141.714 736.161,-137.293"/>
</g>
<!-- Node27&#45;&gt;Node14 -->
<g id="edge38" class="edge"><title>Node27&#45;&gt;Node14</title>
<path fill="none" stroke="midnightblue" d="M199.046,-336.083C194.896,-328.613 188.847,-317.724 183.733,-308.52"/>
<polygon fill="midnightblue" stroke="midnightblue" points="186.778,-306.793 178.862,-299.751 180.659,-310.192 186.778,-306.793"/>
</g>
<!-- Node29&#45;&gt;Node2 -->
<g id="edge68" class="edge"><title>Node29&#45;&gt;Node2</title>
<path fill="none" stroke="midnightblue" d="M985.174,-455.395C923.143,-449.785 710.972,-430.395 536,-412 524.753,-410.818 512.615,-409.47 501.307,-408.185"/>
<polygon fill="midnightblue" stroke="midnightblue" points="501.538,-404.688 491.205,-407.028 500.742,-411.643 501.538,-404.688"/>
</g>
<!-- Node29&#45;&gt;Node3 -->
<g id="edge78" class="edge"><title>Node29&#45;&gt;Node3</title>
<path fill="none" stroke="midnightblue" d="M1020.82,-454.65C1066.09,-447.579 1182,-422.139 1182,-347 1182,-347 1182,-347 1182,-233 1182,-178.316 1117.61,-148.684 1070.78,-134.365"/>
<polygon fill="midnightblue" stroke="midnightblue" points="1071.66,-130.977 1061.08,-131.538 1069.71,-137.697 1071.66,-130.977"/>
</g>
<!-- Node29&#45;&gt;Node9 -->
<g id="edge44" class="edge"><title>Node29&#45;&gt;Node9</title>
<path fill="none" stroke="midnightblue" d="M1020.87,-457.079C1159.5,-457.464 2058,-455.765 2058,-347 2058,-347 2058,-347 2058,-177 2058,-146.902 2062.62,-130.648 2039,-112 2005.59,-85.63 1377.85,-71.5504 1191.64,-67.9421"/>
<polygon fill="midnightblue" stroke="midnightblue" points="1191.62,-64.4412 1181.56,-67.7486 1191.49,-71.4399 1191.62,-64.4412"/>
</g>
<!-- Node29&#45;&gt;Node13 -->
<g id="edge45" class="edge"><title>Node29&#45;&gt;Node13</title>
<path fill="none" stroke="midnightblue" d="M985.242,-456.574C901.489,-454.094 550,-438.25 550,-347 550,-347 550,-347 550,-289 550,-273.216 505.202,-180.292 485.793,-140.773"/>
<polygon fill="midnightblue" stroke="midnightblue" points="488.908,-139.176 481.348,-131.753 482.629,-142.27 488.908,-139.176"/>
</g>
<!-- Node29&#45;&gt;Node17 -->
<g id="edge77" class="edge"><title>Node29&#45;&gt;Node17</title>
<path fill="none" stroke="midnightblue" d="M1005.56,-448.249C1010.75,-429.738 1022,-385.179 1022,-347 1022,-347 1022,-347 1022,-289 1022,-247.765 984.139,-212.574 958.953,-193.726"/>
<polygon fill="midnightblue" stroke="midnightblue" points="960.818,-190.756 950.657,-187.758 956.731,-196.439 960.818,-190.756"/>
</g>
<!-- Node29&#45;&gt;Node25 -->
<g id="edge79" class="edge"><title>Node29&#45;&gt;Node25</title>
<path fill="none" stroke="midnightblue" d="M1020.8,-455.038C1089.55,-446.972 1334,-413.611 1334,-347 1334,-347 1334,-347 1334,-233 1334,-192.269 1297.41,-156.872 1273.12,-137.856"/>
<polygon fill="midnightblue" stroke="midnightblue" points="1274.91,-134.825 1264.81,-131.612 1270.7,-140.42 1274.91,-134.825"/>
</g>
<!-- Node30 -->
<g id="node30" class="node"><title>Node30</title>
<g id="a_node30"><a xlink:href="GroupId_8h.html" target="_top" xlink:title="group/GroupId.h">
<polygon fill="white" stroke="black" points="832,-392.5 832,-411.5 918,-411.5 918,-392.5 832,-392.5"/>
<text text-anchor="middle" x="875" y="-399.5" font-family="Helvetica,sans-Serif" font-size="10.00">group/GroupId.h</text>
</a>
</g>
</g>
<!-- Node29&#45;&gt;Node30 -->
<g id="edge46" class="edge"><title>Node29&#45;&gt;Node30</title>
<path fill="none" stroke="midnightblue" d="M985.471,-449.605C964.677,-440.833 929.686,-426.07 904.654,-415.51"/>
<polygon fill="midnightblue" stroke="midnightblue" points="905.843,-412.213 895.269,-411.551 903.122,-418.663 905.843,-412.213"/>
</g>
<!-- Node31 -->
<g id="node31" class="node"><title>Node31</title>
<g id="a_node31"><a xlink:href="AggroMgr_8h.html" target="_top" xlink:title="aggro/AggroMgr.h">
<polygon fill="white" stroke="black" points="762,-280.5 762,-299.5 856,-299.5 856,-280.5 762,-280.5"/>
<text text-anchor="middle" x="809" y="-287.5" font-family="Helvetica,sans-Serif" font-size="10.00">aggro/AggroMgr.h</text>
</a>
</g>
</g>
<!-- Node29&#45;&gt;Node31 -->
<g id="edge47" class="edge"><title>Node29&#45;&gt;Node31</title>
<path fill="none" stroke="midnightblue" d="M992.843,-448.309C961.611,-421.584 866.704,-340.375 826.885,-306.304"/>
<polygon fill="midnightblue" stroke="midnightblue" points="828.93,-303.447 819.057,-299.605 824.379,-308.766 828.93,-303.447"/>
</g>
<!-- Node32 -->
<g id="node32" class="node"><title>Node32</title>
<g id="a_node32"><a xlink:href="ICharacter_8h.html" target="_top" xlink:title="ICharacter.h">
<polygon fill="white" stroke="black" points="1210.5,-224.5 1210.5,-243.5 1281.5,-243.5 1281.5,-224.5 1210.5,-224.5"/>
<text text-anchor="middle" x="1246" y="-231.5" font-family="Helvetica,sans-Serif" font-size="10.00">ICharacter.h</text>
</a>
</g>
</g>
<!-- Node29&#45;&gt;Node32 -->
<g id="edge67" class="edge"><title>Node29&#45;&gt;Node32</title>
<path fill="none" stroke="midnightblue" d="M1020.51,-455.184C1063.13,-450.421 1170.62,-436.235 1196,-412 1240.81,-369.22 1246.42,-289.628 1246.51,-253.587"/>
<polygon fill="midnightblue" stroke="midnightblue" points="1250.01,-253.475 1246.38,-243.518 1243.01,-253.559 1250.01,-253.475"/>
</g>
<!-- Node33 -->
<g id="node33" class="node"><title>Node33</title>
<g id="a_node33"><a xlink:href="Math_8h.html" target="_top" xlink:title="common/Math.h">
<polygon fill="white" stroke="black" points="1536.5,-168.5 1536.5,-187.5 1623.5,-187.5 1623.5,-168.5 1536.5,-168.5"/>
<text text-anchor="middle" x="1580" y="-175.5" font-family="Helvetica,sans-Serif" font-size="10.00">common/Math.h</text>
</a>
</g>
</g>
<!-- Node29&#45;&gt;Node33 -->
<g id="edge80" class="edge"><title>Node29&#45;&gt;Node33</title>
<path fill="none" stroke="midnightblue" d="M1020.68,-457.007C1110.06,-456.58 1508,-448.955 1508,-347 1508,-347 1508,-347 1508,-289 1508,-249.939 1540.18,-213.944 1561.51,-194.372"/>
<polygon fill="midnightblue" stroke="midnightblue" points="1563.88,-196.945 1569.06,-187.703 1559.25,-191.697 1563.88,-196.945"/>
</g>
<!-- Node42 -->
<g id="node42" class="node"><title>Node42</title>
<g id="a_node42"><a xlink:href="ITreeLoader_8h.html" target="_top" xlink:title="tree/loaders/ITreeLoader.h">
<polygon fill="white" stroke="black" points="731.5,-224.5 731.5,-243.5 862.5,-243.5 862.5,-224.5 731.5,-224.5"/>
<text text-anchor="middle" x="797" y="-231.5" font-family="Helvetica,sans-Serif" font-size="10.00">tree/loaders/ITreeLoader.h</text>
</a>
</g>
</g>
<!-- Node29&#45;&gt;Node42 -->
<g id="edge69" class="edge"><title>Node29&#45;&gt;Node42</title>
<path fill="none" stroke="midnightblue" d="M997.819,-448.429C981.138,-421.317 926.332,-335.917 865,-280 851.825,-267.989 835.156,-256.905 821.62,-248.743"/>
<polygon fill="midnightblue" stroke="midnightblue" points="823.226,-245.627 812.83,-243.583 819.682,-251.664 823.226,-245.627"/>
</g>
<!-- Node31&#45;&gt;Node13 -->
<g id="edge49" class="edge"><title>Node31&#45;&gt;Node13</title>
<path fill="none" stroke="midnightblue" d="M788.022,-280.494C756.485,-267.785 694.912,-243.272 642,-224 595.25,-206.973 577.602,-215.29 536,-188 516.583,-175.262 499.378,-154.66 488.631,-140.068"/>
<polygon fill="midnightblue" stroke="midnightblue" points="491.459,-138.005 482.812,-131.883 485.753,-142.061 491.459,-138.005"/>
</g>
<!-- Node31&#45;&gt;Node15 -->
<g id="edge48" class="edge"><title>Node31&#45;&gt;Node15</title>
<path fill="none" stroke="midnightblue" d="M764.036,-280.474C682.514,-265.065 513.266,-233.313 454,-224 393.332,-214.467 231.54,-221.392 180,-188 163.194,-177.112 152.291,-156.427 146.178,-141.306"/>
<polygon fill="midnightblue" stroke="midnightblue" points="149.455,-140.076 142.697,-131.916 142.891,-142.509 149.455,-140.076"/>
</g>
<!-- Node31&#45;&gt;Node28 -->
<g id="edge64" class="edge"><title>Node31&#45;&gt;Node28</title>
<path fill="none" stroke="midnightblue" d="M776.834,-280.444C740.709,-270.834 682.14,-255.254 643.843,-245.067"/>
<polygon fill="midnightblue" stroke="midnightblue" points="644.657,-241.661 634.093,-242.473 642.857,-248.426 644.657,-241.661"/>
</g>
<!-- Node31&#45;&gt;Node32 -->
<g id="edge50" class="edge"><title>Node31&#45;&gt;Node32</title>
<path fill="none" stroke="midnightblue" d="M856.182,-283.17C940.715,-272.724 1116.93,-250.949 1200.35,-240.641"/>
<polygon fill="midnightblue" stroke="midnightblue" points="1200.79,-244.113 1210.29,-239.413 1199.93,-237.166 1200.79,-244.113"/>
</g>
<!-- Node41 -->
<g id="node41" class="node"><title>Node41</title>
<g id="a_node41"><a xlink:href="Entry_8h.html" target="_top" xlink:title="aggro/Entry.h">
<polygon fill="white" stroke="black" points="1002.5,-168.5 1002.5,-187.5 1077.5,-187.5 1077.5,-168.5 1002.5,-168.5"/>
<text text-anchor="middle" x="1040" y="-175.5" font-family="Helvetica,sans-Serif" font-size="10.00">aggro/Entry.h</text>
</a>
</g>
</g>
<!-- Node31&#45;&gt;Node41 -->
<g id="edge65" class="edge"><title>Node31&#45;&gt;Node41</title>
<path fill="none" stroke="midnightblue" d="M838.737,-280.483C864.954,-272.504 903.872,-259.502 936,-244 966.569,-229.25 999.394,-207.666 1019.81,-193.478"/>
<polygon fill="midnightblue" stroke="midnightblue" points="1021.85,-196.326 1028.01,-187.711 1017.82,-190.6 1021.85,-196.326"/>
</g>
<!-- Node32&#45;&gt;Node3 -->
<g id="edge61" class="edge"><title>Node32&#45;&gt;Node3</title>
<path fill="none" stroke="midnightblue" d="M1241.78,-224.357C1234.47,-210.307 1218.08,-182.618 1196,-168 1176.83,-155.312 1121.93,-142.241 1079.06,-133.478"/>
<polygon fill="midnightblue" stroke="midnightblue" points="1079.5,-129.997 1069,-131.456 1078.12,-136.859 1079.5,-129.997"/>
</g>
<!-- Node32&#45;&gt;Node13 -->
<g id="edge63" class="edge"><title>Node32&#45;&gt;Node13</title>
<path fill="none" stroke="midnightblue" d="M1210.25,-232.856C1120.97,-231.909 881.36,-225.745 686,-188 621.511,-175.54 548.825,-150.273 508.413,-135.174"/>
<polygon fill="midnightblue" stroke="midnightblue" points="509.45,-131.824 498.858,-131.568 506.978,-138.373 509.45,-131.824"/>
</g>
<!-- Node32&#45;&gt;Node20 -->
<g id="edge62" class="edge"><title>Node32&#45;&gt;Node20</title>
<path fill="none" stroke="midnightblue" d="M1246.92,-224.291C1247.87,-210.643 1247.64,-184.114 1234,-168 1211.43,-141.344 1171.74,-130.477 1143.34,-126.048"/>
<polygon fill="midnightblue" stroke="midnightblue" points="1143.45,-122.53 1133.07,-124.646 1142.5,-129.466 1143.45,-122.53"/>
</g>
<!-- Node32&#45;&gt;Node25 -->
<g id="edge51" class="edge"><title>Node32&#45;&gt;Node25</title>
<path fill="none" stroke="midnightblue" d="M1252.89,-224.319C1259.27,-215.684 1268.31,-201.77 1272,-188 1276.34,-171.824 1269.73,-153.618 1262.97,-140.598"/>
<polygon fill="midnightblue" stroke="midnightblue" points="1265.94,-138.736 1257.95,-131.772 1259.85,-142.196 1265.94,-138.736"/>
</g>
<!-- Node32&#45;&gt;Node33 -->
<g id="edge52" class="edge"><title>Node32&#45;&gt;Node33</title>
<path fill="none" stroke="midnightblue" d="M1281.74,-227.221C1340.41,-217.736 1457.45,-198.813 1526.18,-187.701"/>
<polygon fill="midnightblue" stroke="midnightblue" points="1527.06,-191.105 1536.37,-186.053 1525.94,-184.194 1527.06,-191.105"/>
</g>
<!-- Node33&#45;&gt;Node3 -->
<g id="edge53" class="edge"><title>Node33&#45;&gt;Node3</title>
<path fill="none" stroke="midnightblue" d="M1536.24,-174.154C1450.57,-168.349 1254.5,-153.917 1079.35,-132.086"/>
<polygon fill="midnightblue" stroke="midnightblue" points="1079.54,-128.582 1069.18,-130.807 1078.66,-135.527 1079.54,-128.582"/>
</g>
<!-- Node34 -->
<g id="node34" class="node"><title>Node34</title>
<polygon fill="white" stroke="#bfbfbf" points="1960,-112.5 1960,-131.5 2030,-131.5 2030,-112.5 1960,-112.5"/>
<text text-anchor="middle" x="1995" y="-119.5" font-family="Helvetica,sans-Serif" font-size="10.00">glm/glm.hpp</text>
</g>
<!-- Node33&#45;&gt;Node34 -->
<g id="edge54" class="edge"><title>Node33&#45;&gt;Node34</title>
<path fill="none" stroke="midnightblue" d="M1623.73,-172.775C1691.28,-166.008 1825.29,-151.635 1949.6,-131.942"/>
<polygon fill="midnightblue" stroke="midnightblue" points="1950.35,-135.366 1959.67,-130.33 1949.25,-128.454 1950.35,-135.366"/>
</g>
<!-- Node35 -->
<g id="node35" class="node"><title>Node35</title>
<polygon fill="white" stroke="#bfbfbf" points="1332.5,-112.5 1332.5,-131.5 1445.5,-131.5 1445.5,-112.5 1332.5,-112.5"/>
<text text-anchor="middle" x="1389" y="-119.5" font-family="Helvetica,sans-Serif" font-size="10.00">glm/gtc/constants.hpp</text>
</g>
<!-- Node33&#45;&gt;Node35 -->
<g id="edge55" class="edge"><title>Node33&#45;&gt;Node35</title>
<path fill="none" stroke="midnightblue" d="M1549.74,-168.444C1517.04,-159.201 1464.82,-144.436 1428.82,-134.257"/>
<polygon fill="midnightblue" stroke="midnightblue" points="1429.7,-130.869 1419.12,-131.516 1427.79,-137.605 1429.7,-130.869"/>
</g>
<!-- Node36 -->
<g id="node36" class="node"><title>Node36</title>
<polygon fill="white" stroke="#bfbfbf" points="1463.5,-112.5 1463.5,-131.5 1564.5,-131.5 1564.5,-112.5 1463.5,-112.5"/>
<text text-anchor="middle" x="1514" y="-119.5" font-family="Helvetica,sans-Serif" font-size="10.00">glm/gtc/epsilon.hpp</text>
</g>
<!-- Node33&#45;&gt;Node36 -->
<g id="edge56" class="edge"><title>Node33&#45;&gt;Node36</title>
<path fill="none" stroke="midnightblue" d="M1569.4,-168.324C1559.54,-160.263 1544.65,-148.077 1532.78,-138.369"/>
<polygon fill="midnightblue" stroke="midnightblue" points="1534.75,-135.457 1524.8,-131.834 1530.32,-140.875 1534.75,-135.457"/>
</g>
<!-- Node37 -->
<g id="node37" class="node"><title>Node37</title>
<polygon fill="white" stroke="#bfbfbf" points="1582.5,-112.5 1582.5,-131.5 1707.5,-131.5 1707.5,-112.5 1582.5,-112.5"/>
<text text-anchor="middle" x="1645" y="-119.5" font-family="Helvetica,sans-Serif" font-size="10.00">glm/gtx/compatibility.hpp</text>
</g>
<!-- Node33&#45;&gt;Node37 -->
<g id="edge57" class="edge"><title>Node33&#45;&gt;Node37</title>
<path fill="none" stroke="midnightblue" d="M1590.44,-168.324C1600.15,-160.263 1614.82,-148.077 1626.5,-138.369"/>
<polygon fill="midnightblue" stroke="midnightblue" points="1628.91,-140.916 1634.37,-131.834 1624.44,-135.532 1628.91,-140.916"/>
</g>
<!-- Node38 -->
<g id="node38" class="node"><title>Node38</title>
<polygon fill="white" stroke="#bfbfbf" points="1726,-112.5 1726,-131.5 1818,-131.5 1818,-112.5 1726,-112.5"/>
<text text-anchor="middle" x="1772" y="-119.5" font-family="Helvetica,sans-Serif" font-size="10.00">glm/gtx/norm.hpp</text>
</g>
<!-- Node33&#45;&gt;Node38 -->
<g id="edge58" class="edge"><title>Node33&#45;&gt;Node38</title>
<path fill="none" stroke="midnightblue" d="M1610.42,-168.444C1643.28,-159.201 1695.78,-144.436 1731.97,-134.257"/>
<polygon fill="midnightblue" stroke="midnightblue" points="1733.04,-137.593 1741.72,-131.516 1731.15,-130.855 1733.04,-137.593"/>
</g>
<!-- Node39 -->
<g id="node39" class="node"><title>Node39</title>
<polygon fill="white" stroke="#bfbfbf" points="1836,-112.5 1836,-131.5 1876,-131.5 1876,-112.5 1836,-112.5"/>
<text text-anchor="middle" x="1856" y="-119.5" font-family="Helvetica,sans-Serif" font-size="10.00">limits</text>
</g>
<!-- Node33&#45;&gt;Node39 -->
<g id="edge59" class="edge"><title>Node33&#45;&gt;Node39</title>
<path fill="none" stroke="midnightblue" d="M1623.62,-170.685C1671.2,-163.435 1749.74,-150.415 1826.03,-132.001"/>
<polygon fill="midnightblue" stroke="midnightblue" points="1826.92,-135.386 1835.81,-129.609 1825.26,-128.586 1826.92,-135.386"/>
</g>
<!-- Node40 -->
<g id="node40" class="node"><title>Node40</title>
<polygon fill="white" stroke="#bfbfbf" points="1894.5,-112.5 1894.5,-131.5 1941.5,-131.5 1941.5,-112.5 1894.5,-112.5"/>
<text text-anchor="middle" x="1918" y="-119.5" font-family="Helvetica,sans-Serif" font-size="10.00">math.h</text>
</g>
<!-- Node33&#45;&gt;Node40 -->
<g id="edge60" class="edge"><title>Node33&#45;&gt;Node40</title>
<path fill="none" stroke="midnightblue" d="M1623.73,-172.218C1681.3,-165.556 1785.78,-152.2 1884.45,-131.884"/>
<polygon fill="midnightblue" stroke="midnightblue" points="1885.22,-135.301 1894.29,-129.831 1883.79,-128.448 1885.22,-135.301"/>
</g>
<!-- Node41&#45;&gt;Node3 -->
<g id="edge66" class="edge"><title>Node41&#45;&gt;Node3</title>
<path fill="none" stroke="midnightblue" d="M1037.19,-168.083C1034.92,-160.849 1031.63,-150.409 1028.79,-141.397"/>
<polygon fill="midnightblue" stroke="midnightblue" points="1032.1,-140.239 1025.75,-131.751 1025.42,-142.341 1032.1,-140.239"/>
</g>
<!-- Node42&#45;&gt;Node5 -->
<g id="edge76" class="edge"><title>Node42&#45;&gt;Node5</title>
<path fill="none" stroke="midnightblue" d="M810.006,-224.412C820.819,-216.431 835.456,-203.466 842,-188 864.863,-133.964 808.294,-102.558 844,-56 859.161,-36.2315 927.207,-22.4878 968.9,-15.7519"/>
<polygon fill="midnightblue" stroke="midnightblue" points="969.544,-19.1938 978.884,-14.191 968.463,-12.2778 969.544,-19.1938"/>
</g>
<!-- Node42&#45;&gt;Node6 -->
<g id="edge75" class="edge"><title>Node42&#45;&gt;Node6</title>
<path fill="none" stroke="midnightblue" d="M862.815,-227.52C935.727,-220.619 1048.03,-207.286 1086,-188 1146.57,-157.24 1166.43,-139.709 1190,-76 1195.67,-60.67 1191.05,-42.3426 1185.81,-29.0625"/>
<polygon fill="midnightblue" stroke="midnightblue" points="1188.89,-27.3866 1181.66,-19.648 1182.49,-30.2102 1188.89,-27.3866"/>
</g>
<!-- Node42&#45;&gt;Node8 -->
<g id="edge72" class="edge"><title>Node42&#45;&gt;Node8</title>
<path fill="none" stroke="midnightblue" d="M773.32,-224.466C749.371,-215.72 711.37,-201.522 679,-188 603.755,-156.567 589.104,-138.549 512,-112 458.263,-93.4968 393.323,-79.7064 355.828,-72.5409"/>
<polygon fill="midnightblue" stroke="midnightblue" points="356.038,-69.0193 345.564,-70.6144 354.747,-75.8991 356.038,-69.0193"/>
</g>
<!-- Node42&#45;&gt;Node13 -->
<g id="edge71" class="edge"><title>Node42&#45;&gt;Node13</title>
<path fill="none" stroke="midnightblue" d="M731.106,-226.071C686.384,-219.806 626.598,-208.334 577,-188 546.097,-175.331 514.438,-152.823 495.243,-137.903"/>
<polygon fill="midnightblue" stroke="midnightblue" points="497.359,-135.114 487.348,-131.645 493.011,-140.6 497.359,-135.114"/>
</g>
<!-- Node42&#45;&gt;Node15 -->
<g id="edge73" class="edge"><title>Node42&#45;&gt;Node15</title>
<path fill="none" stroke="midnightblue" d="M731.322,-229.007C584.261,-219.918 239.487,-197.721 216,-188 190.553,-177.468 167.462,-155.032 153.577,-139.487"/>
<polygon fill="midnightblue" stroke="midnightblue" points="156.032,-136.974 146.854,-131.68 150.727,-141.542 156.032,-136.974"/>
</g>
<!-- Node42&#45;&gt;Node17 -->
<g id="edge70" class="edge"><title>Node42&#45;&gt;Node17</title>
<path fill="none" stroke="midnightblue" d="M819.183,-224.444C842.428,-215.478 879.149,-201.314 905.415,-191.183"/>
<polygon fill="midnightblue" stroke="midnightblue" points="906.85,-194.381 914.92,-187.516 904.331,-187.85 906.85,-194.381"/>
</g>
<!-- Node42&#45;&gt;Node26 -->
<g id="edge74" class="edge"><title>Node42&#45;&gt;Node26</title>
<path fill="none" stroke="midnightblue" d="M742.92,-224.468C721.477,-218.146 698.896,-207.143 686,-188 675.294,-172.107 688.919,-152.441 701.972,-138.928"/>
<polygon fill="midnightblue" stroke="midnightblue" points="704.637,-141.22 709.403,-131.758 699.777,-136.183 704.637,-141.22"/>
</g>
</g>
</svg>
