<?xml version="1.0" encoding="UTF-8" standalone="no"?>
<!DOCTYPE svg PUBLIC "-//W3C//DTD SVG 1.1//EN"
 "http://www.w3.org/Graphics/SVG/1.1/DTD/svg11.dtd">
<!-- Generated by graphviz version 2.36.0 (20140111.2315)
 -->
<!-- Title: /home/travis/build/mgerhardy/simpleai/src/ai/tree/TreeNode.h Pages: 1 -->
<svg width="953pt" height="442pt"
 viewBox="0.00 0.00 953.00 442.00" xmlns="http://www.w3.org/2000/svg" xmlns:xlink="http://www.w3.org/1999/xlink">
<g id="graph0" class="graph" transform="scale(1 1) rotate(0) translate(4 438)">
<title>/home/travis/build/mgerhardy/simpleai/src/ai/tree/TreeNode.h</title>
<polygon fill="white" stroke="none" points="-4,4 -4,-438 949,-438 949,4 -4,4"/>
<!-- Node1 -->
<g id="node1" class="node"><title>Node1</title>
<polygon fill="#bfbfbf" stroke="black" points="302.5,-392.5 302.5,-433.5 419.5,-433.5 419.5,-392.5 302.5,-392.5"/>
<text text-anchor="start" x="310.5" y="-421.5" font-family="Helvetica,sans-Serif" font-size="10.00">/home/travis/build</text>
<text text-anchor="start" x="310.5" y="-410.5" font-family="Helvetica,sans-Serif" font-size="10.00">/mgerhardy/simpleai</text>
<text text-anchor="middle" x="361" y="-399.5" font-family="Helvetica,sans-Serif" font-size="10.00">/src/ai/tree/TreeNode.h</text>
</g>
<!-- Node2 -->
<g id="node2" class="node"><title>Node2</title>
<g id="a_node2"><a xlink:href="Types_8h.html" target="_top" xlink:title="common/Types.h">
<polygon fill="white" stroke="black" points="728,-112.5 728,-131.5 820,-131.5 820,-112.5 728,-112.5"/>
<text text-anchor="middle" x="774" y="-119.5" font-family="Helvetica,sans-Serif" font-size="10.00">common/Types.h</text>
</a>
</g>
</g>
<!-- Node1&#45;&gt;Node2 -->
<g id="edge1" class="edge"><title>Node1&#45;&gt;Node2</title>
<path fill="none" stroke="midnightblue" d="M419.827,-410.096C551.998,-404.219 861,-380.869 861,-291 861,-291 861,-291 861,-233 861,-191.4 822.248,-156.331 796.47,-137.605"/>
<polygon fill="midnightblue" stroke="midnightblue" points="798.182,-134.531 787.978,-131.679 794.176,-140.272 798.182,-134.531"/>
</g>
<!-- Node7 -->
<g id="node7" class="node"><title>Node7</title>
<polygon fill="white" stroke="#bfbfbf" points="143.5,-56.5 143.5,-75.5 184.5,-75.5 184.5,-56.5 143.5,-56.5"/>
<text text-anchor="middle" x="164" y="-63.5" font-family="Helvetica,sans-Serif" font-size="10.00">string</text>
</g>
<!-- Node1&#45;&gt;Node7 -->
<g id="edge38" class="edge"><title>Node1&#45;&gt;Node7</title>
<path fill="none" stroke="midnightblue" d="M302.324,-409.339C242.46,-404.649 148.217,-391.705 75,-356 35.3531,-336.666 0,-335.11 0,-291 0,-291 0,-291 0,-177 0,-113.439 86.0136,-84.2485 133.458,-72.9818"/>
<polygon fill="midnightblue" stroke="midnightblue" points="134.241,-76.3932 143.229,-70.7847 132.705,-69.5637 134.241,-76.3932"/>
</g>
<!-- Node10 -->
<g id="node10" class="node"><title>Node10</title>
<g id="a_node10"><a xlink:href="MemoryAllocator_8h.html" target="_top" xlink:title="common/MemoryAllocator.h">
<polygon fill="white" stroke="black" points="142.5,-224.5 142.5,-243.5 281.5,-243.5 281.5,-224.5 142.5,-224.5"/>
<text text-anchor="middle" x="212" y="-231.5" font-family="Helvetica,sans-Serif" font-size="10.00">common/MemoryAllocator.h</text>
</a>
</g>
</g>
<!-- Node1&#45;&gt;Node10 -->
<g id="edge10" class="edge"><title>Node1&#45;&gt;Node10</title>
<path fill="none" stroke="midnightblue" d="M317.373,-392.294C300.64,-383.105 282.374,-370.881 269,-356 241.417,-325.309 224.662,-278.923 216.994,-253.42"/>
<polygon fill="midnightblue" stroke="midnightblue" points="220.296,-252.239 214.181,-243.588 213.566,-254.165 220.296,-252.239"/>
</g>
<!-- Node11 -->
<g id="node11" class="node"><title>Node11</title>
<polygon fill="white" stroke="#bfbfbf" points="377,-112.5 377,-131.5 429,-131.5 429,-112.5 377,-112.5"/>
<text text-anchor="middle" x="403" y="-119.5" font-family="Helvetica,sans-Serif" font-size="10.00">memory</text>
</g>
<!-- Node1&#45;&gt;Node11 -->
<g id="edge39" class="edge"><title>Node1&#45;&gt;Node11</title>
<path fill="none" stroke="midnightblue" d="M383.847,-392.297C415.315,-363.479 470.536,-306.433 492,-244 494.89,-235.594 495.159,-232.309 492,-224 484.392,-203.99 474.168,-204.048 460,-188 445.495,-171.571 428.993,-152.737 417.491,-139.587"/>
<polygon fill="midnightblue" stroke="midnightblue" points="419.942,-137.073 410.726,-131.848 414.672,-141.68 419.942,-137.073"/>
</g>
<!-- Node12 -->
<g id="node12" class="node"><title>Node12</title>
<g id="a_node12"><a xlink:href="ICondition_8h.html" target="_top" xlink:title="Condition related stuff. ">
<polygon fill="white" stroke="black" points="279,-280.5 279,-299.5 395,-299.5 395,-280.5 279,-280.5"/>
<text text-anchor="middle" x="337" y="-287.5" font-family="Helvetica,sans-Serif" font-size="10.00">conditions/ICondition.h</text>
</a>
</g>
</g>
<!-- Node1&#45;&gt;Node12 -->
<g id="edge12" class="edge"><title>Node1&#45;&gt;Node12</title>
<path fill="none" stroke="midnightblue" d="M371.986,-392.484C379.289,-376.851 386.309,-354.544 379,-336 374.486,-324.548 365.531,-314.291 357.045,-306.472"/>
<polygon fill="midnightblue" stroke="midnightblue" points="359.085,-303.611 349.214,-299.764 354.531,-308.927 359.085,-303.611"/>
</g>
<!-- Node13 -->
<g id="node13" class="node"><title>Node13</title>
<polygon fill="white" stroke="#bfbfbf" points="123,-112.5 123,-131.5 167,-131.5 167,-112.5 123,-112.5"/>
<text text-anchor="middle" x="145" y="-119.5" font-family="Helvetica,sans-Serif" font-size="10.00">vector</text>
</g>
<!-- Node1&#45;&gt;Node13 -->
<g id="edge37" class="edge"><title>Node1&#45;&gt;Node13</title>
<path fill="none" stroke="midnightblue" d="M302.132,-402.367C208.968,-385.435 38,-346.765 38,-291 38,-291 38,-291 38,-233 38,-187.413 85.8026,-153.624 117.506,-136.227"/>
<polygon fill="midnightblue" stroke="midnightblue" points="119.148,-139.318 126.362,-131.559 115.884,-133.125 119.148,-139.318"/>
</g>
<!-- Node25 -->
<g id="node25" class="node"><title>Node25</title>
<g id="a_node25"><a xlink:href="True_8h.html" target="_top" xlink:title="conditions/True.h">
<polygon fill="white" stroke="black" points="278,-336.5 278,-355.5 370,-355.5 370,-336.5 278,-336.5"/>
<text text-anchor="middle" x="324" y="-343.5" font-family="Helvetica,sans-Serif" font-size="10.00">conditions/True.h</text>
</a>
</g>
</g>
<!-- Node1&#45;&gt;Node25 -->
<g id="edge35" class="edge"><title>Node1&#45;&gt;Node25</title>
<path fill="none" stroke="midnightblue" d="M349.899,-392.498C344.826,-383.586 338.865,-373.113 333.941,-364.464"/>
<polygon fill="midnightblue" stroke="midnightblue" points="336.914,-362.612 328.925,-355.652 330.831,-366.075 336.914,-362.612"/>
</g>
<!-- Node26 -->
<g id="node26" class="node"><title>Node26</title>
<polygon fill="white" stroke="#bfbfbf" points="889,-336.5 889,-355.5 945,-355.5 945,-336.5 889,-336.5"/>
<text text-anchor="middle" x="917" y="-343.5" font-family="Helvetica,sans-Serif" font-size="10.00">algorithm</text>
</g>
<!-- Node1&#45;&gt;Node26 -->
<g id="edge40" class="edge"><title>Node1&#45;&gt;Node26</title>
<path fill="none" stroke="midnightblue" d="M419.847,-407.565C515.633,-399.903 711.052,-382.425 875,-356 876.242,-355.8 877.503,-355.587 878.775,-355.364"/>
<polygon fill="midnightblue" stroke="midnightblue" points="879.437,-358.801 888.608,-353.497 878.131,-351.924 879.437,-358.801"/>
</g>
<!-- Node3 -->
<g id="node3" class="node"><title>Node3</title>
<g id="a_node3"><a xlink:href="Log_8h.html" target="_top" xlink:title="Log.h">
<polygon fill="white" stroke="black" points="713.5,-56.5 713.5,-75.5 754.5,-75.5 754.5,-56.5 713.5,-56.5"/>
<text text-anchor="middle" x="734" y="-63.5" font-family="Helvetica,sans-Serif" font-size="10.00">Log.h</text>
</a>
</g>
</g>
<!-- Node2&#45;&gt;Node3 -->
<g id="edge2" class="edge"><title>Node2&#45;&gt;Node3</title>
<path fill="none" stroke="midnightblue" d="M767.395,-112.083C761.745,-104.455 753.455,-93.2645 746.549,-83.9408"/>
<polygon fill="midnightblue" stroke="midnightblue" points="749.247,-81.7034 740.482,-75.7511 743.622,-85.87 749.247,-81.7034"/>
</g>
<!-- Node4 -->
<g id="node4" class="node"><title>Node4</title>
<polygon fill="white" stroke="#bfbfbf" points="653.5,-0.5 653.5,-19.5 696.5,-19.5 696.5,-0.5 653.5,-0.5"/>
<text text-anchor="middle" x="675" y="-7.5" font-family="Helvetica,sans-Serif" font-size="10.00">cstdio</text>
</g>
<!-- Node2&#45;&gt;Node4 -->
<g id="edge9" class="edge"><title>Node2&#45;&gt;Node4</title>
<path fill="none" stroke="midnightblue" d="M754.574,-112.392C739.15,-104.727 717.93,-92.2215 704,-76 692.439,-62.5372 684.723,-43.724 680.176,-29.7999"/>
<polygon fill="midnightblue" stroke="midnightblue" points="683.424,-28.4476 677.196,-19.8768 676.72,-30.461 683.424,-28.4476"/>
</g>
<!-- Node2&#45;&gt;Node7 -->
<g id="edge6" class="edge"><title>Node2&#45;&gt;Node7</title>
<path fill="none" stroke="midnightblue" d="M727.901,-116.919C608.999,-106.393 294.299,-78.5347 194.689,-69.7167"/>
<polygon fill="midnightblue" stroke="midnightblue" points="194.947,-66.2259 184.677,-68.8304 194.329,-73.1987 194.947,-66.2259"/>
</g>
<!-- Node8 -->
<g id="node8" class="node"><title>Node8</title>
<polygon fill="white" stroke="#bfbfbf" points="772.5,-56.5 772.5,-75.5 855.5,-75.5 855.5,-56.5 772.5,-56.5"/>
<text text-anchor="middle" x="814" y="-63.5" font-family="Helvetica,sans-Serif" font-size="10.00">unordered_map</text>
</g>
<!-- Node2&#45;&gt;Node8 -->
<g id="edge7" class="edge"><title>Node2&#45;&gt;Node8</title>
<path fill="none" stroke="midnightblue" d="M780.605,-112.083C786.255,-104.455 794.545,-93.2645 801.451,-83.9408"/>
<polygon fill="midnightblue" stroke="midnightblue" points="804.378,-85.87 807.518,-75.7511 798.753,-81.7034 804.378,-85.87"/>
</g>
<!-- Node9 -->
<g id="node9" class="node"><title>Node9</title>
<polygon fill="white" stroke="#bfbfbf" points="873.5,-56.5 873.5,-75.5 922.5,-75.5 922.5,-56.5 873.5,-56.5"/>
<text text-anchor="middle" x="898" y="-63.5" font-family="Helvetica,sans-Serif" font-size="10.00">cassert</text>
</g>
<!-- Node2&#45;&gt;Node9 -->
<g id="edge8" class="edge"><title>Node2&#45;&gt;Node9</title>
<path fill="none" stroke="midnightblue" d="M793.648,-112.444C813.965,-103.596 845.903,-89.6875 869.098,-79.5865"/>
<polygon fill="midnightblue" stroke="midnightblue" points="870.673,-82.7181 878.444,-75.5164 867.878,-76.3002 870.673,-82.7181"/>
</g>
<!-- Node3&#45;&gt;Node4 -->
<g id="edge3" class="edge"><title>Node3&#45;&gt;Node4</title>
<path fill="none" stroke="midnightblue" d="M724.521,-56.324C715.799,-48.3414 702.657,-36.3128 692.102,-26.6529"/>
<polygon fill="midnightblue" stroke="midnightblue" points="694.392,-24.0036 684.652,-19.8339 689.666,-29.1674 694.392,-24.0036"/>
</g>
<!-- Node5 -->
<g id="node5" class="node"><title>Node5</title>
<polygon fill="white" stroke="#bfbfbf" points="779.5,-0.5 779.5,-19.5 828.5,-19.5 828.5,-0.5 779.5,-0.5"/>
<text text-anchor="middle" x="804" y="-7.5" font-family="Helvetica,sans-Serif" font-size="10.00">cstdarg</text>
</g>
<!-- Node3&#45;&gt;Node5 -->
<g id="edge4" class="edge"><title>Node3&#45;&gt;Node5</title>
<path fill="none" stroke="midnightblue" d="M745.247,-56.324C755.797,-48.1849 771.801,-35.8395 784.442,-26.0874"/>
<polygon fill="midnightblue" stroke="midnightblue" points="786.769,-28.7132 792.549,-19.8339 782.493,-23.1707 786.769,-28.7132"/>
</g>
<!-- Node6 -->
<g id="node6" class="node"><title>Node6</title>
<polygon fill="white" stroke="#bfbfbf" points="715,-0.5 715,-19.5 761,-19.5 761,-0.5 715,-0.5"/>
<text text-anchor="middle" x="738" y="-7.5" font-family="Helvetica,sans-Serif" font-size="10.00">cstring</text>
</g>
<!-- Node3&#45;&gt;Node6 -->
<g id="edge5" class="edge"><title>Node3&#45;&gt;Node6</title>
<path fill="none" stroke="midnightblue" d="M734.661,-56.083C735.185,-49.0059 735.936,-38.8611 736.594,-29.9865"/>
<polygon fill="midnightblue" stroke="midnightblue" points="740.103,-29.9823 737.352,-19.7511 733.123,-29.4652 740.103,-29.9823"/>
</g>
<!-- Node10&#45;&gt;Node11 -->
<g id="edge11" class="edge"><title>Node10&#45;&gt;Node11</title>
<path fill="none" stroke="midnightblue" d="M228.562,-224.465C245.609,-215.602 272.87,-201.208 296,-188 325.595,-171.1 359.077,-150.518 380.582,-137.104"/>
<polygon fill="midnightblue" stroke="midnightblue" points="382.67,-139.926 389.291,-131.655 378.957,-133.992 382.67,-139.926"/>
</g>
<!-- Node12&#45;&gt;Node7 -->
<g id="edge13" class="edge"><title>Node12&#45;&gt;Node7</title>
<path fill="none" stroke="midnightblue" d="M278.93,-284.814C221.815,-279.378 140.312,-267.636 120,-244 81.7231,-199.46 90.1075,-165.647 114,-112 119.568,-99.4981 130.516,-89.0124 140.751,-81.3167"/>
<polygon fill="midnightblue" stroke="midnightblue" points="142.851,-84.1193 149.048,-75.5256 138.844,-78.3794 142.851,-84.1193"/>
</g>
<!-- Node12&#45;&gt;Node10 -->
<g id="edge17" class="edge"><title>Node12&#45;&gt;Node10</title>
<path fill="none" stroke="midnightblue" d="M317.193,-280.444C296.713,-271.596 264.517,-257.687 241.135,-247.586"/>
<polygon fill="midnightblue" stroke="midnightblue" points="242.282,-244.269 231.714,-243.516 239.506,-250.695 242.282,-244.269"/>
</g>
<!-- Node12&#45;&gt;Node11 -->
<g id="edge16" class="edge"><title>Node12&#45;&gt;Node11</title>
<path fill="none" stroke="midnightblue" d="M349.724,-280.211C360.411,-272.102 375.157,-259.062 383,-244 400.149,-211.068 403.215,-166.856 403.427,-142.013"/>
<polygon fill="midnightblue" stroke="midnightblue" points="406.925,-141.764 403.357,-131.788 399.925,-141.812 406.925,-141.764"/>
</g>
<!-- Node12&#45;&gt;Node13 -->
<g id="edge14" class="edge"><title>Node12&#45;&gt;Node13</title>
<path fill="none" stroke="midnightblue" d="M278.855,-284.168C225.146,-278.355 151.031,-266.442 133,-244 109.294,-214.494 124.68,-166.965 136.029,-141.132"/>
<polygon fill="midnightblue" stroke="midnightblue" points="139.329,-142.337 140.377,-131.794 132.983,-139.382 139.329,-142.337"/>
</g>
<!-- Node14 -->
<g id="node14" class="node"><title>Node14</title>
<polygon fill="white" stroke="#bfbfbf" points="431,-224.5 431,-243.5 483,-243.5 483,-224.5 431,-224.5"/>
<text text-anchor="middle" x="457" y="-231.5" font-family="Helvetica,sans-Serif" font-size="10.00">sstream</text>
</g>
<!-- Node12&#45;&gt;Node14 -->
<g id="edge15" class="edge"><title>Node12&#45;&gt;Node14</title>
<path fill="none" stroke="midnightblue" d="M356.014,-280.444C375.588,-271.636 406.308,-257.812 428.729,-247.722"/>
<polygon fill="midnightblue" stroke="midnightblue" points="430.392,-250.812 438.075,-243.516 427.519,-244.428 430.392,-250.812"/>
</g>
<!-- Node15 -->
<g id="node15" class="node"><title>Node15</title>
<g id="a_node15"><a xlink:href="Thread_8h.html" target="_top" xlink:title="common/Thread.h">
<polygon fill="white" stroke="black" points="661.5,-224.5 661.5,-243.5 756.5,-243.5 756.5,-224.5 661.5,-224.5"/>
<text text-anchor="middle" x="709" y="-231.5" font-family="Helvetica,sans-Serif" font-size="10.00">common/Thread.h</text>
</a>
</g>
</g>
<!-- Node12&#45;&gt;Node15 -->
<g id="edge18" class="edge"><title>Node12&#45;&gt;Node15</title>
<path fill="none" stroke="midnightblue" d="M395.125,-280.562C465.046,-270.413 581.696,-253.48 651.388,-243.363"/>
<polygon fill="midnightblue" stroke="midnightblue" points="651.925,-246.822 661.319,-241.921 650.92,-239.894 651.925,-246.822"/>
</g>
<!-- Node19 -->
<g id="node19" class="node"><title>Node19</title>
<g id="a_node19"><a xlink:href="AIFactories_8h.html" target="_top" xlink:title="AIFactories.h">
<polygon fill="white" stroke="black" points="299.5,-224.5 299.5,-243.5 374.5,-243.5 374.5,-224.5 299.5,-224.5"/>
<text text-anchor="middle" x="337" y="-231.5" font-family="Helvetica,sans-Serif" font-size="10.00">AIFactories.h</text>
</a>
</g>
</g>
<!-- Node12&#45;&gt;Node19 -->
<g id="edge23" class="edge"><title>Node12&#45;&gt;Node19</title>
<path fill="none" stroke="midnightblue" d="M337,-280.083C337,-273.006 337,-262.861 337,-253.986"/>
<polygon fill="midnightblue" stroke="midnightblue" points="340.5,-253.751 337,-243.751 333.5,-253.751 340.5,-253.751"/>
</g>
<!-- Node15&#45;&gt;Node2 -->
<g id="edge19" class="edge"><title>Node15&#45;&gt;Node2</title>
<path fill="none" stroke="midnightblue" d="M750.051,-224.383C769.96,-217.916 792.094,-206.814 804,-188 813.907,-172.345 802.105,-152.883 790.517,-139.355"/>
<polygon fill="midnightblue" stroke="midnightblue" points="792.882,-136.757 783.525,-131.786 787.74,-141.507 792.882,-136.757"/>
</g>
<!-- Node16 -->
<g id="node16" class="node"><title>Node16</title>
<polygon fill="white" stroke="#bfbfbf" points="625,-168.5 625,-187.5 669,-187.5 669,-168.5 625,-168.5"/>
<text text-anchor="middle" x="647" y="-175.5" font-family="Helvetica,sans-Serif" font-size="10.00">thread</text>
</g>
<!-- Node15&#45;&gt;Node16 -->
<g id="edge20" class="edge"><title>Node15&#45;&gt;Node16</title>
<path fill="none" stroke="midnightblue" d="M699.039,-224.324C689.873,-216.341 676.063,-204.313 664.972,-194.653"/>
<polygon fill="midnightblue" stroke="midnightblue" points="666.982,-191.762 657.143,-187.834 662.385,-197.041 666.982,-191.762"/>
</g>
<!-- Node17 -->
<g id="node17" class="node"><title>Node17</title>
<polygon fill="white" stroke="#bfbfbf" points="687,-168.5 687,-187.5 731,-187.5 731,-168.5 687,-168.5"/>
<text text-anchor="middle" x="709" y="-175.5" font-family="Helvetica,sans-Serif" font-size="10.00">mutex</text>
</g>
<!-- Node15&#45;&gt;Node17 -->
<g id="edge21" class="edge"><title>Node15&#45;&gt;Node17</title>
<path fill="none" stroke="midnightblue" d="M709,-224.083C709,-217.006 709,-206.861 709,-197.986"/>
<polygon fill="midnightblue" stroke="midnightblue" points="712.5,-197.751 709,-187.751 705.5,-197.751 712.5,-197.751"/>
</g>
<!-- Node18 -->
<g id="node18" class="node"><title>Node18</title>
<polygon fill="white" stroke="#bfbfbf" points="749,-168.5 749,-187.5 795,-187.5 795,-168.5 749,-168.5"/>
<text text-anchor="middle" x="772" y="-175.5" font-family="Helvetica,sans-Serif" font-size="10.00">atomic</text>
</g>
<!-- Node15&#45;&gt;Node18 -->
<g id="edge22" class="edge"><title>Node15&#45;&gt;Node18</title>
<path fill="none" stroke="midnightblue" d="M719.122,-224.324C728.526,-216.263 742.744,-204.077 754.069,-194.369"/>
<polygon fill="midnightblue" stroke="midnightblue" points="756.379,-196.999 761.694,-187.834 751.823,-191.684 756.379,-196.999"/>
</g>
<!-- Node19&#45;&gt;Node13 -->
<g id="edge34" class="edge"><title>Node19&#45;&gt;Node13</title>
<path fill="none" stroke="midnightblue" d="M299.308,-225.01C272.15,-218.09 235.431,-206.269 207,-188 187.008,-175.154 168.85,-154.572 157.425,-140.014"/>
<polygon fill="midnightblue" stroke="midnightblue" points="160.061,-137.698 151.226,-131.852 154.487,-141.932 160.061,-137.698"/>
</g>
<!-- Node20 -->
<g id="node20" class="node"><title>Node20</title>
<g id="a_node20"><a xlink:href="IAIFactory_8h.html" target="_top" xlink:title="IAIFactory.h">
<polygon fill="white" stroke="black" points="216.5,-168.5 216.5,-187.5 287.5,-187.5 287.5,-168.5 216.5,-168.5"/>
<text text-anchor="middle" x="252" y="-175.5" font-family="Helvetica,sans-Serif" font-size="10.00">IAIFactory.h</text>
</a>
</g>
</g>
<!-- Node19&#45;&gt;Node20 -->
<g id="edge24" class="edge"><title>Node19&#45;&gt;Node20</title>
<path fill="none" stroke="midnightblue" d="M323.343,-224.324C310.084,-215.9 289.732,-202.971 274.154,-193.074"/>
<polygon fill="midnightblue" stroke="midnightblue" points="275.94,-190.063 265.623,-187.655 272.187,-195.971 275.94,-190.063"/>
</g>
<!-- Node22 -->
<g id="node22" class="node"><title>Node22</title>
<g id="a_node22"><a xlink:href="IFactoryRegistry_8h.html" target="_top" xlink:title="common/IFactoryRegistry.h">
<polygon fill="white" stroke="black" points="469,-168.5 469,-187.5 607,-187.5 607,-168.5 469,-168.5"/>
<text text-anchor="middle" x="538" y="-175.5" font-family="Helvetica,sans-Serif" font-size="10.00">common/IFactoryRegistry.h</text>
</a>
</g>
</g>
<!-- Node19&#45;&gt;Node22 -->
<g id="edge29" class="edge"><title>Node19&#45;&gt;Node22</title>
<path fill="none" stroke="midnightblue" d="M368.849,-224.444C403.398,-215.162 458.682,-200.309 496.583,-190.127"/>
<polygon fill="midnightblue" stroke="midnightblue" points="497.551,-193.491 506.3,-187.516 495.734,-186.731 497.551,-193.491"/>
</g>
<!-- Node20&#45;&gt;Node7 -->
<g id="edge26" class="edge"><title>Node20&#45;&gt;Node7</title>
<path fill="none" stroke="midnightblue" d="M251.18,-168.159C249.551,-154.8 244.873,-129.206 232,-112 221.94,-98.5539 206.602,-87.9066 193.038,-80.3516"/>
<polygon fill="midnightblue" stroke="midnightblue" points="194.498,-77.1655 184.017,-75.6188 191.246,-83.3642 194.498,-77.1655"/>
</g>
<!-- Node20&#45;&gt;Node11 -->
<g id="edge25" class="edge"><title>Node20&#45;&gt;Node11</title>
<path fill="none" stroke="midnightblue" d="M275.926,-168.444C301.219,-159.399 341.302,-145.064 369.68,-134.916"/>
<polygon fill="midnightblue" stroke="midnightblue" points="370.948,-138.179 379.186,-131.516 368.591,-131.588 370.948,-138.179"/>
</g>
<!-- Node20&#45;&gt;Node13 -->
<g id="edge27" class="edge"><title>Node20&#45;&gt;Node13</title>
<path fill="none" stroke="midnightblue" d="M234.809,-168.324C217.649,-159.664 191.054,-146.242 171.253,-136.249"/>
<polygon fill="midnightblue" stroke="midnightblue" points="172.653,-133.035 162.149,-131.655 169.499,-139.285 172.653,-133.035"/>
</g>
<!-- Node21 -->
<g id="node21" class="node"><title>Node21</title>
<polygon fill="white" stroke="#bfbfbf" points="194.5,-112.5 194.5,-131.5 223.5,-131.5 223.5,-112.5 194.5,-112.5"/>
<text text-anchor="middle" x="209" y="-119.5" font-family="Helvetica,sans-Serif" font-size="10.00">list</text>
</g>
<!-- Node20&#45;&gt;Node21 -->
<g id="edge28" class="edge"><title>Node20&#45;&gt;Node21</title>
<path fill="none" stroke="midnightblue" d="M244.899,-168.083C238.763,-160.377 229.73,-149.033 222.261,-139.653"/>
<polygon fill="midnightblue" stroke="midnightblue" points="224.936,-137.394 215.968,-131.751 219.46,-141.754 224.936,-137.394"/>
</g>
<!-- Node22&#45;&gt;Node2 -->
<g id="edge30" class="edge"><title>Node22&#45;&gt;Node2</title>
<path fill="none" stroke="midnightblue" d="M575.395,-168.444C616.392,-159.063 682.254,-143.993 726.784,-133.804"/>
<polygon fill="midnightblue" stroke="midnightblue" points="727.813,-137.159 736.78,-131.516 726.251,-130.335 727.813,-137.159"/>
</g>
<!-- Node22&#45;&gt;Node11 -->
<g id="edge32" class="edge"><title>Node22&#45;&gt;Node11</title>
<path fill="none" stroke="midnightblue" d="M516.609,-168.444C494.293,-159.517 459.097,-145.439 433.792,-135.317"/>
<polygon fill="midnightblue" stroke="midnightblue" points="434.876,-131.981 424.291,-131.516 432.276,-138.48 434.876,-131.981"/>
</g>
<!-- Node23 -->
<g id="node23" class="node"><title>Node23</title>
<g id="a_node23"><a xlink:href="NonCopyable_8h.html" target="_top" xlink:title="common/NonCopyable.h">
<polygon fill="white" stroke="black" points="536.5,-112.5 536.5,-131.5 661.5,-131.5 661.5,-112.5 536.5,-112.5"/>
<text text-anchor="middle" x="599" y="-119.5" font-family="Helvetica,sans-Serif" font-size="10.00">common/NonCopyable.h</text>
</a>
</g>
</g>
<!-- Node22&#45;&gt;Node23 -->
<g id="edge31" class="edge"><title>Node22&#45;&gt;Node23</title>
<path fill="none" stroke="midnightblue" d="M547.801,-168.324C556.818,-160.341 570.406,-148.313 581.318,-138.653"/>
<polygon fill="midnightblue" stroke="midnightblue" points="583.853,-141.083 589.021,-131.834 579.213,-135.842 583.853,-141.083"/>
</g>
<!-- Node24 -->
<g id="node24" class="node"><title>Node24</title>
<polygon fill="white" stroke="#bfbfbf" points="483.5,-112.5 483.5,-131.5 518.5,-131.5 518.5,-112.5 483.5,-112.5"/>
<text text-anchor="middle" x="501" y="-119.5" font-family="Helvetica,sans-Serif" font-size="10.00">map</text>
</g>
<!-- Node22&#45;&gt;Node24 -->
<g id="edge33" class="edge"><title>Node22&#45;&gt;Node24</title>
<path fill="none" stroke="midnightblue" d="M531.89,-168.083C526.718,-160.534 519.154,-149.495 512.806,-140.23"/>
<polygon fill="midnightblue" stroke="midnightblue" points="515.536,-138.022 506.996,-131.751 509.761,-141.979 515.536,-138.022"/>
</g>
<!-- Node25&#45;&gt;Node12 -->
<g id="edge36" class="edge"><title>Node25&#45;&gt;Node12</title>
<path fill="none" stroke="midnightblue" d="M326.147,-336.083C327.869,-328.927 330.347,-318.635 332.5,-309.691"/>
<polygon fill="midnightblue" stroke="midnightblue" points="335.955,-310.293 334.893,-299.751 329.15,-308.654 335.955,-310.293"/>
</g>
</g>
</svg>
