<?xml version="1.0" encoding="UTF-8" standalone="no"?>
<!DOCTYPE svg PUBLIC "-//W3C//DTD SVG 1.1//EN"
 "http://www.w3.org/Graphics/SVG/1.1/DTD/svg11.dtd">
<!-- Generated by graphviz version 2.36.0 (20140111.2315)
 -->
<!-- Title: /home/travis/build/mgerhardy/simpleai/src/ai/common/Types.h Pages: 1 -->
<svg width="336pt" height="162pt"
 viewBox="0.00 0.00 336.00 162.00" xmlns="http://www.w3.org/2000/svg" xmlns:xlink="http://www.w3.org/1999/xlink">
<g id="graph0" class="graph" transform="scale(1 1) rotate(0) translate(4 158)">
<title>/home/travis/build/mgerhardy/simpleai/src/ai/common/Types.h</title>
<polygon fill="white" stroke="none" points="-4,4 -4,-158 332,-158 332,4 -4,4"/>
<!-- Node1 -->
<g id="node1" class="node"><title>Node1</title>
<polygon fill="#bfbfbf" stroke="black" points="79,-112.5 79,-153.5 201,-153.5 201,-112.5 79,-112.5"/>
<text text-anchor="start" x="87" y="-141.5" font-family="Helvetica,sans-Serif" font-size="10.00">/home/travis/build</text>
<text text-anchor="start" x="87" y="-130.5" font-family="Helvetica,sans-Serif" font-size="10.00">/mgerhardy/simpleai</text>
<text text-anchor="middle" x="140" y="-119.5" font-family="Helvetica,sans-Serif" font-size="10.00">/src/ai/common/Types.h</text>
</g>
<!-- Node2 -->
<g id="node2" class="node"><title>Node2</title>
<g id="a_node2"><a xlink:href="Log_8h.html" target="_top" xlink:title="Log.h">
<polygon fill="white" stroke="black" points="60.5,-56.5 60.5,-75.5 101.5,-75.5 101.5,-56.5 60.5,-56.5"/>
<text text-anchor="middle" x="81" y="-63.5" font-family="Helvetica,sans-Serif" font-size="10.00">Log.h</text>
</a>
</g>
</g>
<!-- Node1&#45;&gt;Node2 -->
<g id="edge1" class="edge"><title>Node1&#45;&gt;Node2</title>
<path fill="none" stroke="midnightblue" d="M122.298,-112.498C113.774,-103.107 103.677,-91.9829 95.6,-83.0848"/>
<polygon fill="midnightblue" stroke="midnightblue" points="98.1665,-80.7047 88.8538,-75.6525 92.9833,-85.4095 98.1665,-80.7047"/>
</g>
<!-- Node3 -->
<g id="node3" class="node"><title>Node3</title>
<polygon fill="white" stroke="#bfbfbf" points="-0.5,-0.5 -0.5,-19.5 42.5,-19.5 42.5,-0.5 -0.5,-0.5"/>
<text text-anchor="middle" x="21" y="-7.5" font-family="Helvetica,sans-Serif" font-size="10.00">cstdio</text>
</g>
<!-- Node1&#45;&gt;Node3 -->
<g id="edge8" class="edge"><title>Node1&#45;&gt;Node3</title>
<path fill="none" stroke="midnightblue" d="M98.2023,-112.343C81.8854,-103.094 64.0122,-90.8124 51,-76 39.2202,-62.5905 31.216,-43.7708 26.4583,-29.8307"/>
<polygon fill="midnightblue" stroke="midnightblue" points="29.6711,-28.3805 23.3287,-19.8938 22.9944,-30.4833 29.6711,-28.3805"/>
</g>
<!-- Node6 -->
<g id="node6" class="node"><title>Node6</title>
<polygon fill="white" stroke="#bfbfbf" points="119.5,-56.5 119.5,-75.5 160.5,-75.5 160.5,-56.5 119.5,-56.5"/>
<text text-anchor="middle" x="140" y="-63.5" font-family="Helvetica,sans-Serif" font-size="10.00">string</text>
</g>
<!-- Node1&#45;&gt;Node6 -->
<g id="edge5" class="edge"><title>Node1&#45;&gt;Node6</title>
<path fill="none" stroke="midnightblue" d="M140,-112.498C140,-104.065 140,-94.2351 140,-85.874"/>
<polygon fill="midnightblue" stroke="midnightblue" points="143.5,-85.6525 140,-75.6525 136.5,-85.6525 143.5,-85.6525"/>
</g>
<!-- Node7 -->
<g id="node7" class="node"><title>Node7</title>
<polygon fill="white" stroke="#bfbfbf" points="178.5,-56.5 178.5,-75.5 261.5,-75.5 261.5,-56.5 178.5,-56.5"/>
<text text-anchor="middle" x="220" y="-63.5" font-family="Helvetica,sans-Serif" font-size="10.00">unordered_map</text>
</g>
<!-- Node1&#45;&gt;Node7 -->
<g id="edge6" class="edge"><title>Node1&#45;&gt;Node7</title>
<path fill="none" stroke="midnightblue" d="M164.003,-112.498C176.032,-102.724 190.373,-91.0719 201.53,-82.0066"/>
<polygon fill="midnightblue" stroke="midnightblue" points="203.797,-84.6749 209.351,-75.6525 199.383,-79.242 203.797,-84.6749"/>
</g>
<!-- Node8 -->
<g id="node8" class="node"><title>Node8</title>
<polygon fill="white" stroke="#bfbfbf" points="279.5,-56.5 279.5,-75.5 328.5,-75.5 328.5,-56.5 279.5,-56.5"/>
<text text-anchor="middle" x="304" y="-63.5" font-family="Helvetica,sans-Serif" font-size="10.00">cassert</text>
</g>
<!-- Node1&#45;&gt;Node8 -->
<g id="edge7" class="edge"><title>Node1&#45;&gt;Node8</title>
<path fill="none" stroke="midnightblue" d="M189.205,-112.498C216.284,-101.766 249.075,-88.7691 272.666,-79.4192"/>
<polygon fill="midnightblue" stroke="midnightblue" points="274.162,-82.5909 282.169,-75.6525 271.583,-76.0834 274.162,-82.5909"/>
</g>
<!-- Node2&#45;&gt;Node3 -->
<g id="edge2" class="edge"><title>Node2&#45;&gt;Node3</title>
<path fill="none" stroke="midnightblue" d="M71.36,-56.324C62.4904,-48.3414 49.1253,-36.3128 38.3921,-26.6529"/>
<polygon fill="midnightblue" stroke="midnightblue" points="40.5898,-23.922 30.8154,-19.8339 35.907,-29.1251 40.5898,-23.922"/>
</g>
<!-- Node4 -->
<g id="node4" class="node"><title>Node4</title>
<polygon fill="white" stroke="#bfbfbf" points="60.5,-0.5 60.5,-19.5 109.5,-19.5 109.5,-0.5 60.5,-0.5"/>
<text text-anchor="middle" x="85" y="-7.5" font-family="Helvetica,sans-Serif" font-size="10.00">cstdarg</text>
</g>
<!-- Node2&#45;&gt;Node4 -->
<g id="edge3" class="edge"><title>Node2&#45;&gt;Node4</title>
<path fill="none" stroke="midnightblue" d="M81.6605,-56.083C82.1848,-49.0059 82.9362,-38.8611 83.5936,-29.9865"/>
<polygon fill="midnightblue" stroke="midnightblue" points="87.1034,-29.9823 84.3518,-19.7511 80.1225,-29.4652 87.1034,-29.9823"/>
</g>
<!-- Node5 -->
<g id="node5" class="node"><title>Node5</title>
<polygon fill="white" stroke="#bfbfbf" points="128,-0.5 128,-19.5 174,-19.5 174,-0.5 128,-0.5"/>
<text text-anchor="middle" x="151" y="-7.5" font-family="Helvetica,sans-Serif" font-size="10.00">cstring</text>
</g>
<!-- Node2&#45;&gt;Node5 -->
<g id="edge4" class="edge"><title>Node2&#45;&gt;Node5</title>
<path fill="none" stroke="midnightblue" d="M92.2467,-56.324C102.797,-48.1849 118.801,-35.8395 131.442,-26.0874"/>
<polygon fill="midnightblue" stroke="midnightblue" points="133.769,-28.7132 139.549,-19.8339 129.493,-23.1707 133.769,-28.7132"/>
</g>
</g>
</svg>
