<?xml version="1.0" encoding="UTF-8" standalone="no"?>
<!DOCTYPE svg PUBLIC "-//W3C//DTD SVG 1.1//EN"
 "http://www.w3.org/Graphics/SVG/1.1/DTD/svg11.dtd">
<!-- Generated by graphviz version 2.36.0 (20140111.2315)
 -->
<!-- Title: /home/travis/build/mgerhardy/simpleai/src/ai/movement/WeightedSteering.h Pages: 1 -->
<!--zoomable 620 -->
<svg id="main" version="1.1" xmlns="http://www.w3.org/2000/svg" xmlns:xlink="http://www.w3.org/1999/xlink" xml:space="preserve" onload="init(evt)">
<style type="text/css"><![CDATA[
.edge:hover path { stroke: red; }
.edge:hover polygon { stroke: red; fill: red; }
]]></style>
<script type="text/javascript"><![CDATA[
var edges = document.getElementsByTagName('g');
if (edges && edges.length) {
  for (var i=0;i<edges.length;i++) {
    if (edges[i].id.substr(0,4)=='edge') {
      edges[i].setAttribute('class','edge');
    }
  }
}
]]></script>
        <defs>
                <circle id="rim" cx="0" cy="0" r="7"/>
                <circle id="rim2" cx="0" cy="0" r="3.5"/>
                <g id="zoomPlus">
                        <use xlink:href="#rim" fill="#404040">
                                <set attributeName="fill" to="#808080" begin="zoomplus.mouseover" end="zoomplus.mouseout"/>
                        </use>
                        <path d="M-4,0h8M0,-4v8" fill="none" stroke="white" stroke-width="1.5" pointer-events="none"/>
                </g>
                <g id="zoomMin">
                        <use xlink:href="#rim" fill="#404040">
                                <set attributeName="fill" to="#808080" begin="zoomminus.mouseover" end="zoomminus.mouseout"/>
                        </use>
                        <path d="M-4,0h8" fill="none" stroke="white" stroke-width="1.5" pointer-events="none"/>
                </g>
                <g id="dirArrow">
                        <path fill="none" stroke="white" stroke-width="1.5" d="M0,-3.0v7 M-2.5,-0.5L0,-3.0L2.5,-0.5"/>
                </g>
               <g id="resetDef">
                       <use xlink:href="#rim2" fill="#404040">
                               <set attributeName="fill" to="#808080" begin="reset.mouseover" end="reset.mouseout"/>
                       </use>
               </g>
        </defs>

<script type="text/javascript">
var viewWidth = 1397;
var viewHeight = 620;
var sectionId = 'dynsection-1';
</script>
<script xlink:href="svgpan.js"/>
<svg id="graph" class="graph">
<g id="viewport">
<title>/home/travis/build/mgerhardy/simpleai/src/ai/movement/WeightedSteering.h</title>
<polygon fill="white" stroke="none" points="-4,4 -4,-616 1393,-616 1393,4 -4,4"/>
<!-- Node1 -->
<g id="node1" class="node"><title>Node1</title>
<polygon fill="#bfbfbf" stroke="black" points="447.5,-570.5 447.5,-611.5 628.5,-611.5 628.5,-570.5 447.5,-570.5"/>
<text text-anchor="start" x="455.5" y="-599.5" font-family="Helvetica,sans-Serif" font-size="10.00">/home/travis/build</text>
<text text-anchor="start" x="455.5" y="-588.5" font-family="Helvetica,sans-Serif" font-size="10.00">/mgerhardy/simpleai</text>
<text text-anchor="middle" x="538" y="-577.5" font-family="Helvetica,sans-Serif" font-size="10.00">/src/ai/movement/WeightedSteering.h</text>
</g>
<!-- Node2 -->
<g id="node2" class="node"><title>Node2</title>
<g id="a_node2"><a xlink:href="Steer_8h.html" target="_top" xlink:title="/home/travis/build\l/mgerhardy/simpleai\l/src/ai/tree/Steer.h">
<polygon fill="white" stroke="black" points="486,-492.5 486,-533.5 590,-533.5 590,-492.5 486,-492.5"/>
<text text-anchor="start" x="494" y="-521.5" font-family="Helvetica,sans-Serif" font-size="10.00">/home/travis/build</text>
<text text-anchor="start" x="494" y="-510.5" font-family="Helvetica,sans-Serif" font-size="10.00">/mgerhardy/simpleai</text>
<text text-anchor="middle" x="538" y="-499.5" font-family="Helvetica,sans-Serif" font-size="10.00">/src/ai/tree/Steer.h</text>
</a>
</g>
</g>
<!-- Node1&#45;&gt;Node2 -->
<g id="edge1" class="edge"><title>Node1&#45;&gt;Node2</title>
<path fill="none" stroke="midnightblue" d="M538,-560.297C538,-551.301 538,-541.653 538,-533.506"/>
<polygon fill="midnightblue" stroke="midnightblue" points="534.5,-560.428 538,-570.428 541.5,-560.428 534.5,-560.428"/>
</g>
<!-- Node3 -->
<g id="node3" class="node"><title>Node3</title>
<g id="a_node3"><a xlink:href="AIRegistry_8h.html" target="_top" xlink:title="/home/travis/build\l/mgerhardy/simpleai\l/src/ai/AIRegistry.h">
<polygon fill="white" stroke="black" points="741,-414.5 741,-455.5 845,-455.5 845,-414.5 741,-414.5"/>
<text text-anchor="start" x="749" y="-443.5" font-family="Helvetica,sans-Serif" font-size="10.00">/home/travis/build</text>
<text text-anchor="start" x="749" y="-432.5" font-family="Helvetica,sans-Serif" font-size="10.00">/mgerhardy/simpleai</text>
<text text-anchor="middle" x="793" y="-421.5" font-family="Helvetica,sans-Serif" font-size="10.00">/src/ai/AIRegistry.h</text>
</a>
</g>
</g>
<!-- Node1&#45;&gt;Node3 -->
<g id="edge34" class="edge"><title>Node1&#45;&gt;Node3</title>
<path fill="none" stroke="midnightblue" d="M579.01,-565.233C629.535,-534.72 714.341,-483.504 760.565,-455.588"/>
<polygon fill="midnightblue" stroke="midnightblue" points="577.047,-562.33 570.296,-570.496 580.665,-568.322 577.047,-562.33"/>
</g>
<!-- Node8 -->
<g id="node8" class="node"><title>Node8</title>
<g id="a_node8"><a xlink:href="SimpleAI_8h.html" target="_top" xlink:title="/home/travis/build\l/mgerhardy/simpleai\l/src/ai/SimpleAI.h">
<polygon fill="white" stroke="black" points="335,-0.5 335,-41.5 439,-41.5 439,-0.5 335,-0.5"/>
<text text-anchor="start" x="343" y="-29.5" font-family="Helvetica,sans-Serif" font-size="10.00">/home/travis/build</text>
<text text-anchor="start" x="343" y="-18.5" font-family="Helvetica,sans-Serif" font-size="10.00">/mgerhardy/simpleai</text>
<text text-anchor="middle" x="387" y="-7.5" font-family="Helvetica,sans-Serif" font-size="10.00">/src/ai/SimpleAI.h</text>
</a>
</g>
</g>
<!-- Node1&#45;&gt;Node8 -->
<g id="edge35" class="edge"><title>Node1&#45;&gt;Node8</title>
<path fill="none" stroke="midnightblue" d="M437.271,-581.818C281.52,-566.352 0,-525.957 0,-436 0,-436 0,-436 0,-176 0,-126.483 12.7156,-106.794 53,-78 97.3051,-46.3317 252.386,-31.1718 334.721,-25.2111"/>
<polygon fill="midnightblue" stroke="midnightblue" points="437.051,-585.313 447.344,-582.801 437.731,-578.346 437.051,-585.313"/>
</g>
<!-- Node2&#45;&gt;Node3 -->
<g id="edge2" class="edge"><title>Node2&#45;&gt;Node3</title>
<path fill="none" stroke="midnightblue" d="M600.036,-493.511C643.179,-480.652 700.045,-463.704 740.851,-451.542"/>
<polygon fill="midnightblue" stroke="midnightblue" points="598.802,-490.226 590.218,-496.437 600.802,-496.935 598.802,-490.226"/>
</g>
<!-- Node2&#45;&gt;Node8 -->
<g id="edge28" class="edge"><title>Node2&#45;&gt;Node8</title>
<path fill="none" stroke="midnightblue" d="M475.789,-505.357C341.808,-489.322 38,-442.937 38,-352 38,-352 38,-352 38,-176 38,-47.851 237.392,-25.4434 334.751,-22.1405"/>
<polygon fill="midnightblue" stroke="midnightblue" points="475.565,-508.855 485.906,-506.549 476.384,-501.903 475.565,-508.855"/>
</g>
<!-- Node18 -->
<g id="node18" class="node"><title>Node18</title>
<g id="a_node18"><a xlink:href="TreeNodeParser_8h.html" target="_top" xlink:title="/home/travis/build\l/mgerhardy/simpleai\l/src/ai/tree/TreeNodeParser.h">
<polygon fill="white" stroke="black" points="465,-330.5 465,-371.5 611,-371.5 611,-330.5 465,-330.5"/>
<text text-anchor="start" x="473" y="-359.5" font-family="Helvetica,sans-Serif" font-size="10.00">/home/travis/build</text>
<text text-anchor="start" x="473" y="-348.5" font-family="Helvetica,sans-Serif" font-size="10.00">/mgerhardy/simpleai</text>
<text text-anchor="middle" x="538" y="-337.5" font-family="Helvetica,sans-Serif" font-size="10.00">/src/ai/tree/TreeNodeParser.h</text>
</a>
</g>
</g>
<!-- Node2&#45;&gt;Node18 -->
<g id="edge29" class="edge"><title>Node2&#45;&gt;Node18</title>
<path fill="none" stroke="midnightblue" d="M538,-482.206C538,-449.962 538,-399.458 538,-371.78"/>
<polygon fill="midnightblue" stroke="midnightblue" points="534.5,-482.381 538,-492.381 541.5,-482.381 534.5,-482.381"/>
</g>
<!-- Node4 -->
<g id="node4" class="node"><title>Node4</title>
<g id="a_node4"><a xlink:href="ConditionParser_8h.html" target="_top" xlink:title="/home/travis/build\l/mgerhardy/simpleai\l/src/ai/conditions/Condition\lParser.h">
<polygon fill="white" stroke="black" points="629.5,-325 629.5,-377 764.5,-377 764.5,-325 629.5,-325"/>
<text text-anchor="start" x="637.5" y="-365" font-family="Helvetica,sans-Serif" font-size="10.00">/home/travis/build</text>
<text text-anchor="start" x="637.5" y="-354" font-family="Helvetica,sans-Serif" font-size="10.00">/mgerhardy/simpleai</text>
<text text-anchor="start" x="637.5" y="-343" font-family="Helvetica,sans-Serif" font-size="10.00">/src/ai/conditions/Condition</text>
<text text-anchor="middle" x="697" y="-332" font-family="Helvetica,sans-Serif" font-size="10.00">Parser.h</text>
</a>
</g>
</g>
<!-- Node3&#45;&gt;Node4 -->
<g id="edge3" class="edge"><title>Node3&#45;&gt;Node4</title>
<path fill="none" stroke="midnightblue" d="M762.144,-407.644C750.744,-397.906 737.858,-386.9 726.574,-377.261"/>
<polygon fill="midnightblue" stroke="midnightblue" points="759.884,-410.317 769.761,-414.15 764.431,-404.994 759.884,-410.317"/>
</g>
<!-- Node5 -->
<g id="node5" class="node"><title>Node5</title>
<g id="a_node5"><a xlink:href="Server_8h.html" target="_top" xlink:title="/home/travis/build\l/mgerhardy/simpleai\l/src/ai/server/Server.h">
<polygon fill="white" stroke="black" points="642.5,-240.5 642.5,-281.5 755.5,-281.5 755.5,-240.5 642.5,-240.5"/>
<text text-anchor="start" x="650.5" y="-269.5" font-family="Helvetica,sans-Serif" font-size="10.00">/home/travis/build</text>
<text text-anchor="start" x="650.5" y="-258.5" font-family="Helvetica,sans-Serif" font-size="10.00">/mgerhardy/simpleai</text>
<text text-anchor="middle" x="699" y="-247.5" font-family="Helvetica,sans-Serif" font-size="10.00">/src/ai/server/Server.h</text>
</a>
</g>
</g>
<!-- Node3&#45;&gt;Node5 -->
<g id="edge25" class="edge"><title>Node3&#45;&gt;Node5</title>
<path fill="none" stroke="midnightblue" d="M792.982,-404.045C791.739,-380.786 787.234,-348.482 773,-324 763.059,-306.902 746.561,-292.394 731.661,-281.72"/>
<polygon fill="midnightblue" stroke="midnightblue" points="789.496,-404.48 793.353,-414.348 796.491,-404.228 789.496,-404.48"/>
</g>
<!-- Node3&#45;&gt;Node8 -->
<g id="edge26" class="edge"><title>Node3&#45;&gt;Node8</title>
<path fill="none" stroke="midnightblue" d="M855.27,-429.321C1008.04,-416.137 1389,-372.211 1389,-262 1389,-262 1389,-262 1389,-176 1389,-47.9221 1243.22,-104.915 1118,-78 867.877,-24.2369 559.885,-20.3763 439.09,-21.1991"/>
<polygon fill="midnightblue" stroke="midnightblue" points="854.777,-425.85 845.108,-430.181 855.368,-432.825 854.777,-425.85"/>
</g>
<!-- Node15 -->
<g id="node15" class="node"><title>Node15</title>
<g id="a_node15"><a xlink:href="LUATreeLoader_8h.html" target="_top" xlink:title="/home/travis/build\l/mgerhardy/simpleai\l/src/ai/tree/loaders\l/lua/LUATreeLoader.h">
<polygon fill="white" stroke="black" points="774,-235 774,-287 886,-287 886,-235 774,-235"/>
<text text-anchor="start" x="782" y="-275" font-family="Helvetica,sans-Serif" font-size="10.00">/home/travis/build</text>
<text text-anchor="start" x="782" y="-264" font-family="Helvetica,sans-Serif" font-size="10.00">/mgerhardy/simpleai</text>
<text text-anchor="start" x="782" y="-253" font-family="Helvetica,sans-Serif" font-size="10.00">/src/ai/tree/loaders</text>
<text text-anchor="middle" x="830" y="-242" font-family="Helvetica,sans-Serif" font-size="10.00">/lua/LUATreeLoader.h</text>
</a>
</g>
</g>
<!-- Node3&#45;&gt;Node15 -->
<g id="edge27" class="edge"><title>Node3&#45;&gt;Node15</title>
<path fill="none" stroke="midnightblue" d="M800.673,-404.466C802.808,-395.945 805.069,-386.621 807,-378 813.956,-346.947 820.92,-310.972 825.333,-287.42"/>
<polygon fill="midnightblue" stroke="midnightblue" points="797.229,-403.806 798.162,-414.36 804.014,-405.528 797.229,-403.806"/>
</g>
<!-- Node17 -->
<g id="node17" class="node"><title>Node17</title>
<g id="a_node17"><a xlink:href="LUAAIRegistry_8h_source.html" target="_top" xlink:title="/home/travis/build\l/mgerhardy/simpleai\l/src/ai/LUAAIRegistry.h">
<polygon fill="white" stroke="black" points="859.5,-330.5 859.5,-371.5 980.5,-371.5 980.5,-330.5 859.5,-330.5"/>
<text text-anchor="start" x="867.5" y="-359.5" font-family="Helvetica,sans-Serif" font-size="10.00">/home/travis/build</text>
<text text-anchor="start" x="867.5" y="-348.5" font-family="Helvetica,sans-Serif" font-size="10.00">/mgerhardy/simpleai</text>
<text text-anchor="middle" x="920" y="-337.5" font-family="Helvetica,sans-Serif" font-size="10.00">/src/ai/LUAAIRegistry.h</text>
</a>
</g>
</g>
<!-- Node3&#45;&gt;Node17 -->
<g id="edge24" class="edge"><title>Node3&#45;&gt;Node17</title>
<path fill="none" stroke="midnightblue" d="M831.915,-408.874C850.379,-396.952 872.124,-382.912 889.388,-371.765"/>
<polygon fill="midnightblue" stroke="midnightblue" points="829.922,-405.994 823.42,-414.359 833.719,-411.875 829.922,-405.994"/>
</g>
<!-- Node4&#45;&gt;Node5 -->
<g id="edge4" class="edge"><title>Node4&#45;&gt;Node5</title>
<path fill="none" stroke="midnightblue" d="M697.806,-314.515C698.062,-303.257 698.336,-291.227 698.556,-281.525"/>
<polygon fill="midnightblue" stroke="midnightblue" points="694.307,-314.47 697.578,-324.547 701.305,-314.629 694.307,-314.47"/>
</g>
<!-- Node4&#45;&gt;Node15 -->
<g id="edge22" class="edge"><title>Node4&#45;&gt;Node15</title>
<path fill="none" stroke="midnightblue" d="M743.68,-319.114C759.449,-308.68 776.856,-297.163 791.882,-287.221"/>
<polygon fill="midnightblue" stroke="midnightblue" points="741.521,-316.346 735.112,-324.783 745.384,-322.184 741.521,-316.346"/>
</g>
<!-- Node16 -->
<g id="node16" class="node"><title>Node16</title>
<g id="a_node16"><a xlink:href="XMLTreeLoader_8h.html" target="_top" xlink:title="/home/travis/build\l/mgerhardy/simpleai\l/src/ai/tree/loaders\l/xml/XMLTreeLoader.h">
<polygon fill="white" stroke="black" points="494,-235 494,-287 610,-287 610,-235 494,-235"/>
<text text-anchor="start" x="502" y="-275" font-family="Helvetica,sans-Serif" font-size="10.00">/home/travis/build</text>
<text text-anchor="start" x="502" y="-264" font-family="Helvetica,sans-Serif" font-size="10.00">/mgerhardy/simpleai</text>
<text text-anchor="start" x="502" y="-253" font-family="Helvetica,sans-Serif" font-size="10.00">/src/ai/tree/loaders</text>
<text text-anchor="middle" x="552" y="-242" font-family="Helvetica,sans-Serif" font-size="10.00">/xml/XMLTreeLoader.h</text>
</a>
</g>
</g>
<!-- Node4&#45;&gt;Node16 -->
<g id="edge23" class="edge"><title>Node4&#45;&gt;Node16</title>
<path fill="none" stroke="midnightblue" d="M646.586,-319.404C629.268,-308.894 610.091,-297.255 593.557,-287.221"/>
<polygon fill="midnightblue" stroke="midnightblue" points="645.084,-322.587 655.449,-324.783 648.716,-316.602 645.084,-322.587"/>
</g>
<!-- Node6 -->
<g id="node6" class="node"><title>Node6</title>
<g id="a_node6"><a xlink:href="ChangeHandler_8h.html" target="_top" xlink:title="/home/travis/build\l/mgerhardy/simpleai\l/src/ai/server/ChangeHandler.h">
<polygon fill="white" stroke="black" points="104,-156.5 104,-197.5 256,-197.5 256,-156.5 104,-156.5"/>
<text text-anchor="start" x="112" y="-185.5" font-family="Helvetica,sans-Serif" font-size="10.00">/home/travis/build</text>
<text text-anchor="start" x="112" y="-174.5" font-family="Helvetica,sans-Serif" font-size="10.00">/mgerhardy/simpleai</text>
<text text-anchor="middle" x="180" y="-163.5" font-family="Helvetica,sans-Serif" font-size="10.00">/src/ai/server/ChangeHandler.h</text>
</a>
</g>
</g>
<!-- Node5&#45;&gt;Node6 -->
<g id="edge5" class="edge"><title>Node5&#45;&gt;Node6</title>
<path fill="none" stroke="midnightblue" d="M633.323,-237.659C628.171,-236.294 623.021,-235.05 618,-234 463.635,-201.725 420.525,-224.115 265,-198 262.159,-197.523 259.272,-197.007 256.361,-196.459"/>
<polygon fill="midnightblue" stroke="midnightblue" points="632.624,-241.098 643.197,-240.416 634.506,-234.356 632.624,-241.098"/>
</g>
<!-- Node7 -->
<g id="node7" class="node"><title>Node7</title>
<g id="a_node7"><a xlink:href="ServerImpl_8h.html" target="_top" xlink:title="/home/travis/build\l/mgerhardy/simpleai\l/src/ai/server/ServerImpl.h">
<polygon fill="white" stroke="black" points="633,-78.5 633,-119.5 765,-119.5 765,-78.5 633,-78.5"/>
<text text-anchor="start" x="641" y="-107.5" font-family="Helvetica,sans-Serif" font-size="10.00">/home/travis/build</text>
<text text-anchor="start" x="641" y="-96.5" font-family="Helvetica,sans-Serif" font-size="10.00">/mgerhardy/simpleai</text>
<text text-anchor="middle" x="699" y="-85.5" font-family="Helvetica,sans-Serif" font-size="10.00">/src/ai/server/ServerImpl.h</text>
</a>
</g>
</g>
<!-- Node5&#45;&gt;Node7 -->
<g id="edge16" class="edge"><title>Node5&#45;&gt;Node7</title>
<path fill="none" stroke="midnightblue" d="M752.693,-237.303C756.813,-236.039 760.945,-234.914 765,-234 822.364,-221.071 1252.86,-240.971 1293,-198 1305.74,-184.359 1305.56,-169.805 1293,-156 1258.01,-117.554 912.623,-104.969 765.171,-101.327"/>
<polygon fill="midnightblue" stroke="midnightblue" points="751.534,-234 743.147,-240.472 753.74,-240.643 751.534,-234"/>
</g>
<!-- Node5&#45;&gt;Node8 -->
<g id="edge21" class="edge"><title>Node5&#45;&gt;Node8</title>
<path fill="none" stroke="midnightblue" d="M752.691,-237.293C756.811,-236.031 760.944,-234.909 765,-234 824.326,-220.699 1269.45,-242.383 1311,-198 1323.76,-184.373 1323.21,-170.116 1311,-156 1253.3,-89.309 625.957,-39.1685 439.174,-25.6347"/>
<polygon fill="midnightblue" stroke="midnightblue" points="751.534,-233.989 743.143,-240.458 753.737,-240.633 751.534,-233.989"/>
</g>
<!-- Node9 -->
<g id="node9" class="node"><title>Node9</title>
<g id="a_node9"><a xlink:href="DeleteNodeHandler_8h.html" target="_top" xlink:title="/home/travis/build\l/mgerhardy/simpleai\l/src/ai/server/DeleteNodeHandler.h">
<polygon fill="white" stroke="black" points="274,-156.5 274,-197.5 444,-197.5 444,-156.5 274,-156.5"/>
<text text-anchor="start" x="282" y="-185.5" font-family="Helvetica,sans-Serif" font-size="10.00">/home/travis/build</text>
<text text-anchor="start" x="282" y="-174.5" font-family="Helvetica,sans-Serif" font-size="10.00">/mgerhardy/simpleai</text>
<text text-anchor="middle" x="359" y="-163.5" font-family="Helvetica,sans-Serif" font-size="10.00">/src/ai/server/DeleteNodeHandler.h</text>
</a>
</g>
</g>
<!-- Node5&#45;&gt;Node9 -->
<g id="edge8" class="edge"><title>Node5&#45;&gt;Node9</title>
<path fill="none" stroke="midnightblue" d="M632.256,-238.011C627.447,-236.601 622.659,-235.248 618,-234 609.39,-231.693 516.259,-211.651 444.113,-196.195"/>
<polygon fill="midnightblue" stroke="midnightblue" points="631.537,-241.45 642.121,-240.972 633.549,-234.745 631.537,-241.45"/>
</g>
<!-- Node10 -->
<g id="node10" class="node"><title>Node10</title>
<g id="a_node10"><a xlink:href="PauseHandler_8h.html" target="_top" xlink:title="/home/travis/build\l/mgerhardy/simpleai\l/src/ai/server/PauseHandler.h">
<polygon fill="white" stroke="black" points="462,-156.5 462,-197.5 608,-197.5 608,-156.5 462,-156.5"/>
<text text-anchor="start" x="470" y="-185.5" font-family="Helvetica,sans-Serif" font-size="10.00">/home/travis/build</text>
<text text-anchor="start" x="470" y="-174.5" font-family="Helvetica,sans-Serif" font-size="10.00">/mgerhardy/simpleai</text>
<text text-anchor="middle" x="535" y="-163.5" font-family="Helvetica,sans-Serif" font-size="10.00">/src/ai/server/PauseHandler.h</text>
</a>
</g>
</g>
<!-- Node5&#45;&gt;Node10 -->
<g id="edge10" class="edge"><title>Node5&#45;&gt;Node10</title>
<path fill="none" stroke="midnightblue" d="M650.646,-235.823C626.305,-223.652 597.178,-209.089 574.245,-197.623"/>
<polygon fill="midnightblue" stroke="midnightblue" points="649.208,-239.017 659.718,-240.359 652.339,-232.756 649.208,-239.017"/>
</g>
<!-- Node11 -->
<g id="node11" class="node"><title>Node11</title>
<g id="a_node11"><a xlink:href="ResetHandler_8h.html" target="_top" xlink:title="/home/travis/build\l/mgerhardy/simpleai\l/src/ai/server/ResetHandler.h">
<polygon fill="white" stroke="black" points="626.5,-156.5 626.5,-197.5 771.5,-197.5 771.5,-156.5 626.5,-156.5"/>
<text text-anchor="start" x="634.5" y="-185.5" font-family="Helvetica,sans-Serif" font-size="10.00">/home/travis/build</text>
<text text-anchor="start" x="634.5" y="-174.5" font-family="Helvetica,sans-Serif" font-size="10.00">/mgerhardy/simpleai</text>
<text text-anchor="middle" x="699" y="-163.5" font-family="Helvetica,sans-Serif" font-size="10.00">/src/ai/server/ResetHandler.h</text>
</a>
</g>
</g>
<!-- Node5&#45;&gt;Node11 -->
<g id="edge12" class="edge"><title>Node5&#45;&gt;Node11</title>
<path fill="none" stroke="midnightblue" d="M699,-229.881C699,-219.133 699,-207.309 699,-197.667"/>
<polygon fill="midnightblue" stroke="midnightblue" points="695.5,-230.15 699,-240.15 702.5,-230.15 695.5,-230.15"/>
</g>
<!-- Node12 -->
<g id="node12" class="node"><title>Node12</title>
<g id="a_node12"><a xlink:href="SelectHandler_8h.html" target="_top" xlink:title="/home/travis/build\l/mgerhardy/simpleai\l/src/ai/server/SelectHandler.h">
<polygon fill="white" stroke="black" points="790,-156.5 790,-197.5 936,-197.5 936,-156.5 790,-156.5"/>
<text text-anchor="start" x="798" y="-185.5" font-family="Helvetica,sans-Serif" font-size="10.00">/home/travis/build</text>
<text text-anchor="start" x="798" y="-174.5" font-family="Helvetica,sans-Serif" font-size="10.00">/mgerhardy/simpleai</text>
<text text-anchor="middle" x="863" y="-163.5" font-family="Helvetica,sans-Serif" font-size="10.00">/src/ai/server/SelectHandler.h</text>
</a>
</g>
</g>
<!-- Node5&#45;&gt;Node12 -->
<g id="edge14" class="edge"><title>Node5&#45;&gt;Node12</title>
<path fill="none" stroke="midnightblue" d="M747.354,-235.823C771.695,-223.652 800.822,-209.089 823.755,-197.623"/>
<polygon fill="midnightblue" stroke="midnightblue" points="745.661,-232.756 738.282,-240.359 748.792,-239.017 745.661,-232.756"/>
</g>
<!-- Node13 -->
<g id="node13" class="node"><title>Node13</title>
<g id="a_node13"><a xlink:href="StepHandler_8h.html" target="_top" xlink:title="/home/travis/build\l/mgerhardy/simpleai\l/src/ai/server/StepHandler.h">
<polygon fill="white" stroke="black" points="954.5,-156.5 954.5,-197.5 1093.5,-197.5 1093.5,-156.5 954.5,-156.5"/>
<text text-anchor="start" x="962.5" y="-185.5" font-family="Helvetica,sans-Serif" font-size="10.00">/home/travis/build</text>
<text text-anchor="start" x="962.5" y="-174.5" font-family="Helvetica,sans-Serif" font-size="10.00">/mgerhardy/simpleai</text>
<text text-anchor="middle" x="1024" y="-163.5" font-family="Helvetica,sans-Serif" font-size="10.00">/src/ai/server/StepHandler.h</text>
</a>
</g>
</g>
<!-- Node5&#45;&gt;Node13 -->
<g id="edge17" class="edge"><title>Node5&#45;&gt;Node13</title>
<path fill="none" stroke="midnightblue" d="M754.989,-237.164C758.356,-236.034 761.711,-234.968 765,-234 843.263,-210.958 865.43,-216.017 945,-198 948.036,-197.313 951.133,-196.596 954.259,-195.859"/>
<polygon fill="midnightblue" stroke="midnightblue" points="753.789,-233.876 745.513,-240.491 756.108,-240.48 753.789,-233.876"/>
</g>
<!-- Node14 -->
<g id="node14" class="node"><title>Node14</title>
<g id="a_node14"><a xlink:href="UpdateNodeHandler_8h.html" target="_top" xlink:title="/home/travis/build\l/mgerhardy/simpleai\l/src/ai/server/UpdateNodeHandler.h">
<polygon fill="white" stroke="black" points="1111.5,-156.5 1111.5,-197.5 1284.5,-197.5 1284.5,-156.5 1111.5,-156.5"/>
<text text-anchor="start" x="1119.5" y="-185.5" font-family="Helvetica,sans-Serif" font-size="10.00">/home/travis/build</text>
<text text-anchor="start" x="1119.5" y="-174.5" font-family="Helvetica,sans-Serif" font-size="10.00">/mgerhardy/simpleai</text>
<text text-anchor="middle" x="1198" y="-163.5" font-family="Helvetica,sans-Serif" font-size="10.00">/src/ai/server/UpdateNodeHandler.h</text>
</a>
</g>
</g>
<!-- Node5&#45;&gt;Node14 -->
<g id="edge19" class="edge"><title>Node5&#45;&gt;Node14</title>
<path fill="none" stroke="midnightblue" d="M753.476,-237.244C757.34,-236.032 761.206,-234.932 765,-234 911.282,-198.071 953.197,-221.389 1102,-198 1105.11,-197.511 1108.27,-196.988 1111.47,-196.439"/>
<polygon fill="midnightblue" stroke="midnightblue" points="752.286,-233.952 743.923,-240.457 754.517,-240.587 752.286,-233.952"/>
</g>
<!-- Node6&#45;&gt;Node7 -->
<g id="edge6" class="edge"><title>Node6&#45;&gt;Node7</title>
<path fill="none" stroke="midnightblue" d="M266.52,-155.809C401.932,-131.633 549.578,-114.929 632.869,-106.396"/>
<polygon fill="midnightblue" stroke="midnightblue" points="265.598,-152.419 256.378,-157.638 266.84,-159.307 265.598,-152.419"/>
</g>
<!-- Node7&#45;&gt;Node8 -->
<g id="edge7" class="edge"><title>Node7&#45;&gt;Node8</title>
<path fill="none" stroke="midnightblue" d="M622.785,-79.4348C565.78,-65.549 489.327,-46.9257 439.145,-34.702"/>
<polygon fill="midnightblue" stroke="midnightblue" points="622.289,-82.9162 632.833,-81.8824 623.945,-76.115 622.289,-82.9162"/>
</g>
<!-- Node9&#45;&gt;Node7 -->
<g id="edge9" class="edge"><title>Node9&#45;&gt;Node7</title>
<path fill="none" stroke="midnightblue" d="M454.45,-154.664C511.354,-141.944 582.155,-126.118 632.91,-114.773"/>
<polygon fill="midnightblue" stroke="midnightblue" points="453.353,-151.323 444.357,-156.92 454.88,-158.154 453.353,-151.323"/>
</g>
<!-- Node10&#45;&gt;Node7 -->
<g id="edge11" class="edge"><title>Node10&#45;&gt;Node7</title>
<path fill="none" stroke="midnightblue" d="M586.382,-152.189C609.07,-141.675 635.41,-129.469 656.909,-119.506"/>
<polygon fill="midnightblue" stroke="midnightblue" points="584.836,-149.048 577.234,-156.428 587.779,-155.399 584.836,-149.048"/>
</g>
<!-- Node11&#45;&gt;Node7 -->
<g id="edge13" class="edge"><title>Node11&#45;&gt;Node7</title>
<path fill="none" stroke="midnightblue" d="M699,-146.297C699,-137.301 699,-127.653 699,-119.506"/>
<polygon fill="midnightblue" stroke="midnightblue" points="695.5,-146.428 699,-156.428 702.5,-146.428 695.5,-146.428"/>
</g>
<!-- Node12&#45;&gt;Node7 -->
<g id="edge15" class="edge"><title>Node12&#45;&gt;Node7</title>
<path fill="none" stroke="midnightblue" d="M811.618,-152.189C788.93,-141.675 762.59,-129.469 741.091,-119.506"/>
<polygon fill="midnightblue" stroke="midnightblue" points="810.221,-155.399 820.766,-156.428 813.164,-149.048 810.221,-155.399"/>
</g>
<!-- Node13&#45;&gt;Node7 -->
<g id="edge18" class="edge"><title>Node13&#45;&gt;Node7</title>
<path fill="none" stroke="midnightblue" d="M944.393,-155.879C877.735,-139.923 812.397,-125.14 765.141,-114.602"/>
<polygon fill="midnightblue" stroke="midnightblue" points="943.695,-159.31 954.236,-158.241 945.329,-152.504 943.695,-159.31"/>
</g>
<!-- Node14&#45;&gt;Node7 -->
<g id="edge20" class="edge"><title>Node14&#45;&gt;Node7</title>
<path fill="none" stroke="midnightblue" d="M1101.33,-155.943C976.585,-134.569 843.09,-117.313 765.179,-107.809"/>
<polygon fill="midnightblue" stroke="midnightblue" points="1100.99,-159.436 1111.44,-157.688 1102.19,-152.538 1100.99,-159.436"/>
</g>
<!-- Node18&#45;&gt;Node5 -->
<g id="edge30" class="edge"><title>Node18&#45;&gt;Node5</title>
<path fill="none" stroke="midnightblue" d="M582.773,-325.528C608.111,-311.678 639.373,-294.591 663.091,-281.627"/>
<polygon fill="midnightblue" stroke="midnightblue" points="580.827,-322.603 573.731,-330.47 584.185,-328.745 580.827,-322.603"/>
</g>
<!-- Node18&#45;&gt;Node8 -->
<g id="edge31" class="edge"><title>Node18&#45;&gt;Node8</title>
<path fill="none" stroke="midnightblue" d="M454.691,-348.555C350.783,-341.724 176.858,-312.629 95,-198 27.665,-103.708 234.034,-50.7115 334.902,-30.9888"/>
<polygon fill="midnightblue" stroke="midnightblue" points="454.64,-352.058 464.832,-349.165 455.061,-345.071 454.64,-352.058"/>
</g>
<!-- Node18&#45;&gt;Node15 -->
<g id="edge32" class="edge"><title>Node18&#45;&gt;Node15</title>
<path fill="none" stroke="midnightblue" d="M608.233,-327.418C612.207,-326.238 616.149,-325.091 620,-324 683.473,-306.022 701.177,-308.132 764,-288 767.167,-286.985 770.399,-285.895 773.649,-284.757"/>
<polygon fill="midnightblue" stroke="midnightblue" points="606.891,-324.167 598.327,-330.405 608.912,-330.869 606.891,-324.167"/>
</g>
<!-- Node18&#45;&gt;Node16 -->
<g id="edge33" class="edge"><title>Node18&#45;&gt;Node16</title>
<path fill="none" stroke="midnightblue" d="M542.679,-320.591C544.402,-309.757 546.338,-297.592 547.996,-287.166"/>
<polygon fill="midnightblue" stroke="midnightblue" points="539.222,-320.044 541.107,-330.47 546.135,-321.144 539.222,-320.044"/>
</g>
</g>
</svg>
        <g id="navigator" transform="translate(0 0)" fill="#404254">
                <rect fill="#f2f5e9" fill-opacity="0.5" stroke="#606060" stroke-width=".5" x="0" y="0" width="60" height="60"/>
                <use id="zoomplus" xlink:href="#zoomPlus" x="17" y="9" onmousedown="handleZoom(evt,'in')"/>
                <use id="zoomminus" xlink:href="#zoomMin" x="42" y="9" onmousedown="handleZoom(evt,'out')"/>
                <use id="reset" xlink:href="#resetDef" x="30" y="36" onmousedown="handleReset()"/>
                <g id="arrowUp" xlink:href="#dirArrow" transform="translate(30 24)" onmousedown="handlePan(0,-1)">
                  <use xlink:href="#rim" fill="#404040">
                        <set attributeName="fill" to="#808080" begin="arrowUp.mouseover" end="arrowUp.mouseout"/>
                  </use>
                  <path fill="none" stroke="white" stroke-width="1.5" d="M0,-3.0v7 M-2.5,-0.5L0,-3.0L2.5,-0.5"/>
                </g>
                <g id="arrowRight" xlink:href="#dirArrow" transform="rotate(90) translate(36 -43)" onmousedown="handlePan(1,0)">
                  <use xlink:href="#rim" fill="#404040">
                        <set attributeName="fill" to="#808080" begin="arrowRight.mouseover" end="arrowRight.mouseout"/>
                  </use>
                  <path fill="none" stroke="white" stroke-width="1.5" d="M0,-3.0v7 M-2.5,-0.5L0,-3.0L2.5,-0.5"/>
                </g>
                <g id="arrowDown" xlink:href="#dirArrow" transform="rotate(180) translate(-30 -48)" onmousedown="handlePan(0,1)">
                  <use xlink:href="#rim" fill="#404040">
                        <set attributeName="fill" to="#808080" begin="arrowDown.mouseover" end="arrowDown.mouseout"/>
                  </use>
                  <path fill="none" stroke="white" stroke-width="1.5" d="M0,-3.0v7 M-2.5,-0.5L0,-3.0L2.5,-0.5"/>
                </g>
                <g id="arrowLeft" xlink:href="#dirArrow" transform="rotate(270) translate(-36 17)" onmousedown="handlePan(-1,0)">
                  <use xlink:href="#rim" fill="#404040">
                        <set attributeName="fill" to="#808080" begin="arrowLeft.mouseover" end="arrowLeft.mouseout"/>
                  </use>
                  <path fill="none" stroke="white" stroke-width="1.5" d="M0,-3.0v7 M-2.5,-0.5L0,-3.0L2.5,-0.5"/>
                </g>
        </g>
        <svg viewBox="0 0 15 15" width="100%" height="30px" preserveAspectRatio="xMaxYMin meet">
         <g id="arrow_out" transform="scale(0.3 0.3)">
          <a xlink:href="WeightedSteering_8h__dep__incl_org.svg" target="_base">
           <rect id="button" ry="5" rx="5" y="6" x="6" height="38" width="38"
                fill="#f2f5e9" fill-opacity="0.5" stroke="#606060" stroke-width="1.0"/>
           <path id="arrow"
             d="M 11.500037,31.436501 C 11.940474,20.09759 22.043105,11.32322 32.158766,21.979434 L 37.068811,17.246167 C 37.068811,17.246167 37.088388,32 37.088388,32 L 22.160133,31.978069 C 22.160133,31.978069 26.997745,27.140456 26.997745,27.140456 C 18.528582,18.264221 13.291696,25.230495 11.500037,31.436501 z"
             style="fill:#404040;"/>
          </a>
         </g>
        </svg>
</svg>
