<?xml version="1.0" encoding="UTF-8" standalone="no"?>
<!DOCTYPE svg PUBLIC "-//W3C//DTD SVG 1.1//EN"
 "http://www.w3.org/Graphics/SVG/1.1/DTD/svg11.dtd">
<!-- Generated by graphviz version 2.36.0 (20140111.2315)
 -->
<!-- Title: /home/travis/build/mgerhardy/simpleai/src/ai/movement/WeightedSteering.h Pages: 1 -->
<!--zoomable 620 -->
<svg id="main" version="1.1" xmlns="http://www.w3.org/2000/svg" xmlns:xlink="http://www.w3.org/1999/xlink" xml:space="preserve" onload="init(evt)">
<style type="text/css"><![CDATA[
.edge:hover path { stroke: red; }
.edge:hover polygon { stroke: red; fill: red; }
]]></style>
<script type="text/javascript"><![CDATA[
var edges = document.getElementsByTagName('g');
if (edges && edges.length) {
  for (var i=0;i<edges.length;i++) {
    if (edges[i].id.substr(0,4)=='edge') {
      edges[i].setAttribute('class','edge');
    }
  }
}
]]></script>
        <defs>
                <circle id="rim" cx="0" cy="0" r="7"/>
                <circle id="rim2" cx="0" cy="0" r="3.5"/>
                <g id="zoomPlus">
                        <use xlink:href="#rim" fill="#404040">
                                <set attributeName="fill" to="#808080" begin="zoomplus.mouseover" end="zoomplus.mouseout"/>
                        </use>
                        <path d="M-4,0h8M0,-4v8" fill="none" stroke="white" stroke-width="1.5" pointer-events="none"/>
                </g>
                <g id="zoomMin">
                        <use xlink:href="#rim" fill="#404040">
                                <set attributeName="fill" to="#808080" begin="zoomminus.mouseover" end="zoomminus.mouseout"/>
                        </use>
                        <path d="M-4,0h8" fill="none" stroke="white" stroke-width="1.5" pointer-events="none"/>
                </g>
                <g id="dirArrow">
                        <path fill="none" stroke="white" stroke-width="1.5" d="M0,-3.0v7 M-2.5,-0.5L0,-3.0L2.5,-0.5"/>
                </g>
               <g id="resetDef">
                       <use xlink:href="#rim2" fill="#404040">
                               <set attributeName="fill" to="#808080" begin="reset.mouseover" end="reset.mouseout"/>
                       </use>
               </g>
        </defs>

<script type="text/javascript">
var viewWidth = 1585;
var viewHeight = 620;
var sectionId = 'dynsection-1';
</script>
<script xlink:href="svgpan.js"/>
<svg id="graph" class="graph">
<g id="viewport">
<title>/home/travis/build/mgerhardy/simpleai/src/ai/movement/WeightedSteering.h</title>
<polygon fill="white" stroke="none" points="-4,4 -4,-616 1581,-616 1581,4 -4,4"/>
<!-- Node1 -->
<g id="node1" class="node"><title>Node1</title>
<polygon fill="#bfbfbf" stroke="black" points="1316.5,-570.5 1316.5,-611.5 1497.5,-611.5 1497.5,-570.5 1316.5,-570.5"/>
<text text-anchor="start" x="1324.5" y="-599.5" font-family="Helvetica,sans-Serif" font-size="10.00">/home/travis/build</text>
<text text-anchor="start" x="1324.5" y="-588.5" font-family="Helvetica,sans-Serif" font-size="10.00">/mgerhardy/simpleai</text>
<text text-anchor="middle" x="1407" y="-577.5" font-family="Helvetica,sans-Serif" font-size="10.00">/src/ai/movement/WeightedSteering.h</text>
</g>
<!-- Node2 -->
<g id="node2" class="node"><title>Node2</title>
<g id="a_node2"><a xlink:href="Steer_8h.html" target="_top" xlink:title="/home/travis/build\l/mgerhardy/simpleai\l/src/ai/tree/Steer.h">
<polygon fill="white" stroke="black" points="1355,-492.5 1355,-533.5 1459,-533.5 1459,-492.5 1355,-492.5"/>
<text text-anchor="start" x="1363" y="-521.5" font-family="Helvetica,sans-Serif" font-size="10.00">/home/travis/build</text>
<text text-anchor="start" x="1363" y="-510.5" font-family="Helvetica,sans-Serif" font-size="10.00">/mgerhardy/simpleai</text>
<text text-anchor="middle" x="1407" y="-499.5" font-family="Helvetica,sans-Serif" font-size="10.00">/src/ai/tree/Steer.h</text>
</a>
</g>
</g>
<!-- Node1&#45;&gt;Node2 -->
<g id="edge1" class="edge"><title>Node1&#45;&gt;Node2</title>
<path fill="none" stroke="midnightblue" d="M1407,-560.297C1407,-551.301 1407,-541.653 1407,-533.506"/>
<polygon fill="midnightblue" stroke="midnightblue" points="1403.5,-560.428 1407,-570.428 1410.5,-560.428 1403.5,-560.428"/>
</g>
<!-- Node3 -->
<g id="node3" class="node"><title>Node3</title>
<g id="a_node3"><a xlink:href="AIRegistry_8h.html" target="_top" xlink:title="/home/travis/build\l/mgerhardy/simpleai\l/src/ai/AIRegistry.h">
<polygon fill="white" stroke="black" points="1150,-414.5 1150,-455.5 1254,-455.5 1254,-414.5 1150,-414.5"/>
<text text-anchor="start" x="1158" y="-443.5" font-family="Helvetica,sans-Serif" font-size="10.00">/home/travis/build</text>
<text text-anchor="start" x="1158" y="-432.5" font-family="Helvetica,sans-Serif" font-size="10.00">/mgerhardy/simpleai</text>
<text text-anchor="middle" x="1202" y="-421.5" font-family="Helvetica,sans-Serif" font-size="10.00">/src/ai/AIRegistry.h</text>
</a>
</g>
</g>
<!-- Node1&#45;&gt;Node3 -->
<g id="edge35" class="edge"><title>Node1&#45;&gt;Node3</title>
<path fill="none" stroke="midnightblue" d="M1373.02,-564.471C1332.29,-533.873 1264.93,-483.273 1228.08,-455.588"/>
<polygon fill="midnightblue" stroke="midnightblue" points="1370.94,-567.288 1381.04,-570.496 1375.14,-561.691 1370.94,-567.288"/>
</g>
<!-- Node8 -->
<g id="node8" class="node"><title>Node8</title>
<g id="a_node8"><a xlink:href="SimpleAI_8h.html" target="_top" xlink:title="/home/travis/build\l/mgerhardy/simpleai\l/src/ai/SimpleAI.h">
<polygon fill="white" stroke="black" points="1411,-0.5 1411,-41.5 1515,-41.5 1515,-0.5 1411,-0.5"/>
<text text-anchor="start" x="1419" y="-29.5" font-family="Helvetica,sans-Serif" font-size="10.00">/home/travis/build</text>
<text text-anchor="start" x="1419" y="-18.5" font-family="Helvetica,sans-Serif" font-size="10.00">/mgerhardy/simpleai</text>
<text text-anchor="middle" x="1463" y="-7.5" font-family="Helvetica,sans-Serif" font-size="10.00">/src/ai/SimpleAI.h</text>
</a>
</g>
</g>
<!-- Node1&#45;&gt;Node8 -->
<g id="edge36" class="edge"><title>Node1&#45;&gt;Node8</title>
<path fill="none" stroke="midnightblue" d="M1465.19,-565.984C1514.41,-541.347 1577,-497.858 1577,-436 1577,-436 1577,-436 1577,-176 1577,-128.072 1561.38,-115.87 1532,-78 1521.22,-64.103 1506.36,-51.478 1493.19,-41.748"/>
<polygon fill="midnightblue" stroke="midnightblue" points="1463.64,-562.847 1456.17,-570.365 1466.7,-569.143 1463.64,-562.847"/>
</g>
<!-- Node2&#45;&gt;Node3 -->
<g id="edge2" class="edge"><title>Node2&#45;&gt;Node3</title>
<path fill="none" stroke="midnightblue" d="M1345.11,-489.055C1316.08,-478.292 1281.86,-465.607 1254.17,-455.339"/>
<polygon fill="midnightblue" stroke="midnightblue" points="1344.15,-492.431 1354.74,-492.625 1346.58,-485.867 1344.15,-492.431"/>
</g>
<!-- Node2&#45;&gt;Node8 -->
<g id="edge29" class="edge"><title>Node2&#45;&gt;Node8</title>
<path fill="none" stroke="midnightblue" d="M1447.83,-486.36C1486.6,-458.494 1539,-410.086 1539,-352 1539,-352 1539,-352 1539,-176 1539,-123.228 1502.67,-69.8113 1480.25,-41.8686"/>
<polygon fill="midnightblue" stroke="midnightblue" points="1445.48,-483.728 1439.29,-492.326 1449.49,-489.465 1445.48,-483.728"/>
</g>
<!-- Node18 -->
<g id="node18" class="node"><title>Node18</title>
<g id="a_node18"><a xlink:href="TreeNodeParser_8h.html" target="_top" xlink:title="/home/travis/build\l/mgerhardy/simpleai\l/src/ai/tree/TreeNodeParser.h">
<polygon fill="white" stroke="black" points="1334,-330.5 1334,-371.5 1480,-371.5 1480,-330.5 1334,-330.5"/>
<text text-anchor="start" x="1342" y="-359.5" font-family="Helvetica,sans-Serif" font-size="10.00">/home/travis/build</text>
<text text-anchor="start" x="1342" y="-348.5" font-family="Helvetica,sans-Serif" font-size="10.00">/mgerhardy/simpleai</text>
<text text-anchor="middle" x="1407" y="-337.5" font-family="Helvetica,sans-Serif" font-size="10.00">/src/ai/tree/TreeNodeParser.h</text>
</a>
</g>
</g>
<!-- Node2&#45;&gt;Node18 -->
<g id="edge30" class="edge"><title>Node2&#45;&gt;Node18</title>
<path fill="none" stroke="midnightblue" d="M1407,-482.206C1407,-449.962 1407,-399.458 1407,-371.78"/>
<polygon fill="midnightblue" stroke="midnightblue" points="1403.5,-482.381 1407,-492.381 1410.5,-482.381 1403.5,-482.381"/>
</g>
<!-- Node4 -->
<g id="node4" class="node"><title>Node4</title>
<g id="a_node4"><a xlink:href="ConditionParser_8h.html" target="_top" xlink:title="/home/travis/build\l/mgerhardy/simpleai\l/src/ai/conditions/Condition\lParser.h">
<polygon fill="white" stroke="black" points="1134.5,-325 1134.5,-377 1269.5,-377 1269.5,-325 1134.5,-325"/>
<text text-anchor="start" x="1142.5" y="-365" font-family="Helvetica,sans-Serif" font-size="10.00">/home/travis/build</text>
<text text-anchor="start" x="1142.5" y="-354" font-family="Helvetica,sans-Serif" font-size="10.00">/mgerhardy/simpleai</text>
<text text-anchor="start" x="1142.5" y="-343" font-family="Helvetica,sans-Serif" font-size="10.00">/src/ai/conditions/Condition</text>
<text text-anchor="middle" x="1202" y="-332" font-family="Helvetica,sans-Serif" font-size="10.00">Parser.h</text>
</a>
</g>
</g>
<!-- Node3&#45;&gt;Node4 -->
<g id="edge3" class="edge"><title>Node3&#45;&gt;Node4</title>
<path fill="none" stroke="midnightblue" d="M1202,-403.938C1202,-395.176 1202,-385.695 1202,-377.261"/>
<polygon fill="midnightblue" stroke="midnightblue" points="1198.5,-404.15 1202,-414.15 1205.5,-404.15 1198.5,-404.15"/>
</g>
<!-- Node5 -->
<g id="node5" class="node"><title>Node5</title>
<g id="a_node5"><a xlink:href="Server_8h.html" target="_top" xlink:title="/home/travis/build\l/mgerhardy/simpleai\l/src/ai/server/Server.h">
<polygon fill="white" stroke="black" points="972.5,-240.5 972.5,-281.5 1085.5,-281.5 1085.5,-240.5 972.5,-240.5"/>
<text text-anchor="start" x="980.5" y="-269.5" font-family="Helvetica,sans-Serif" font-size="10.00">/home/travis/build</text>
<text text-anchor="start" x="980.5" y="-258.5" font-family="Helvetica,sans-Serif" font-size="10.00">/mgerhardy/simpleai</text>
<text text-anchor="middle" x="1029" y="-247.5" font-family="Helvetica,sans-Serif" font-size="10.00">/src/ai/server/Server.h</text>
</a>
</g>
</g>
<!-- Node3&#45;&gt;Node5 -->
<g id="edge26" class="edge"><title>Node3&#45;&gt;Node5</title>
<path fill="none" stroke="midnightblue" d="M1162.87,-408.415C1150.25,-399.428 1136.55,-388.85 1125,-378 1092.42,-347.395 1060.53,-305.919 1042.95,-281.751"/>
<polygon fill="midnightblue" stroke="midnightblue" points="1161.19,-411.511 1171.39,-414.367 1165.2,-405.772 1161.19,-411.511"/>
</g>
<!-- Node3&#45;&gt;Node8 -->
<g id="edge27" class="edge"><title>Node3&#45;&gt;Node8</title>
<path fill="none" stroke="midnightblue" d="M1139.74,-430.457C913.624,-416.77 149,-363.021 149,-262 149,-262 149,-262 149,-176 149,-46.6579 1166.29,-25.7017 1410.68,-22.5335"/>
<polygon fill="midnightblue" stroke="midnightblue" points="1139.59,-433.954 1149.78,-431.059 1140.01,-426.966 1139.59,-433.954"/>
</g>
<!-- Node15 -->
<g id="node15" class="node"><title>Node15</title>
<g id="a_node15"><a xlink:href="LUATreeLoader_8h.html" target="_top" xlink:title="/home/travis/build\l/mgerhardy/simpleai\l/src/ai/tree/loaders\l/lua/LUATreeLoader.h">
<polygon fill="white" stroke="black" points="1361,-235 1361,-287 1473,-287 1473,-235 1361,-235"/>
<text text-anchor="start" x="1369" y="-275" font-family="Helvetica,sans-Serif" font-size="10.00">/home/travis/build</text>
<text text-anchor="start" x="1369" y="-264" font-family="Helvetica,sans-Serif" font-size="10.00">/mgerhardy/simpleai</text>
<text text-anchor="start" x="1369" y="-253" font-family="Helvetica,sans-Serif" font-size="10.00">/src/ai/tree/loaders</text>
<text text-anchor="middle" x="1417" y="-242" font-family="Helvetica,sans-Serif" font-size="10.00">/lua/LUATreeLoader.h</text>
</a>
</g>
</g>
<!-- Node3&#45;&gt;Node15 -->
<g id="edge28" class="edge"><title>Node3&#45;&gt;Node15</title>
<path fill="none" stroke="midnightblue" d="M1240.13,-408.41C1252.66,-399.357 1266.35,-388.741 1278,-378 1301.39,-356.433 1301.16,-345.071 1325,-324 1340.15,-310.607 1358.35,-297.77 1374.55,-287.287"/>
<polygon fill="midnightblue" stroke="midnightblue" points="1237.81,-405.766 1231.68,-414.41 1241.86,-411.473 1237.81,-405.766"/>
</g>
<!-- Node17 -->
<g id="node17" class="node"><title>Node17</title>
<g id="a_node17"><a xlink:href="LUAAIRegistry_8h_source.html" target="_top" xlink:title="/home/travis/build\l/mgerhardy/simpleai\l/src/ai/LUAAIRegistry.h">
<polygon fill="white" stroke="black" points="-0.5,-330.5 -0.5,-371.5 120.5,-371.5 120.5,-330.5 -0.5,-330.5"/>
<text text-anchor="start" x="7.5" y="-359.5" font-family="Helvetica,sans-Serif" font-size="10.00">/home/travis/build</text>
<text text-anchor="start" x="7.5" y="-348.5" font-family="Helvetica,sans-Serif" font-size="10.00">/mgerhardy/simpleai</text>
<text text-anchor="middle" x="60" y="-337.5" font-family="Helvetica,sans-Serif" font-size="10.00">/src/ai/LUAAIRegistry.h</text>
</a>
</g>
</g>
<!-- Node3&#45;&gt;Node17 -->
<g id="edge25" class="edge"><title>Node3&#45;&gt;Node17</title>
<path fill="none" stroke="midnightblue" d="M1139.76,-433.026C941.967,-429.572 329.389,-416.004 135,-378 126.885,-376.413 118.454,-374.142 110.301,-371.595"/>
<polygon fill="midnightblue" stroke="midnightblue" points="1139.91,-436.529 1149.97,-433.202 1140.04,-429.53 1139.91,-436.529"/>
</g>
<!-- Node4&#45;&gt;Node5 -->
<g id="edge4" class="edge"><title>Node4&#45;&gt;Node5</title>
<path fill="none" stroke="midnightblue" d="M1143.39,-320.185C1118.37,-307.462 1089.88,-292.968 1067.59,-281.628"/>
<polygon fill="midnightblue" stroke="midnightblue" points="1141.93,-323.368 1152.43,-324.783 1145.1,-317.129 1141.93,-323.368"/>
</g>
<!-- Node4&#45;&gt;Node8 -->
<g id="edge22" class="edge"><title>Node4&#45;&gt;Node8</title>
<path fill="none" stroke="midnightblue" d="M1196.79,-314.496C1195.14,-288.754 1197.74,-254.92 1218,-234 1284.19,-165.666 1359.03,-262.455 1429,-198 1473.06,-157.412 1470.08,-78.3481 1465.89,-41.6224"/>
<polygon fill="midnightblue" stroke="midnightblue" points="1193.31,-314.963 1197.67,-324.62 1200.29,-314.353 1193.31,-314.963"/>
</g>
<!-- Node4&#45;&gt;Node15 -->
<g id="edge23" class="edge"><title>Node4&#45;&gt;Node15</title>
<path fill="none" stroke="midnightblue" d="M1272.84,-321.005C1301.39,-309.319 1333.86,-296.028 1360.75,-285.024"/>
<polygon fill="midnightblue" stroke="midnightblue" points="1271.25,-317.873 1263.32,-324.901 1273.9,-324.352 1271.25,-317.873"/>
</g>
<!-- Node16 -->
<g id="node16" class="node"><title>Node16</title>
<g id="a_node16"><a xlink:href="XMLTreeLoader_8h.html" target="_top" xlink:title="/home/travis/build\l/mgerhardy/simpleai\l/src/ai/tree/loaders\l/xml/XMLTreeLoader.h">
<polygon fill="white" stroke="black" points="1227,-235 1227,-287 1343,-287 1343,-235 1227,-235"/>
<text text-anchor="start" x="1235" y="-275" font-family="Helvetica,sans-Serif" font-size="10.00">/home/travis/build</text>
<text text-anchor="start" x="1235" y="-264" font-family="Helvetica,sans-Serif" font-size="10.00">/mgerhardy/simpleai</text>
<text text-anchor="start" x="1235" y="-253" font-family="Helvetica,sans-Serif" font-size="10.00">/src/ai/tree/loaders</text>
<text text-anchor="middle" x="1285" y="-242" font-family="Helvetica,sans-Serif" font-size="10.00">/xml/XMLTreeLoader.h</text>
</a>
</g>
</g>
<!-- Node4&#45;&gt;Node16 -->
<g id="edge24" class="edge"><title>Node4&#45;&gt;Node16</title>
<path fill="none" stroke="midnightblue" d="M1232.99,-317.139C1242.37,-307.196 1252.52,-296.441 1261.33,-287.092"/>
<polygon fill="midnightblue" stroke="midnightblue" points="1230.32,-314.871 1226.01,-324.547 1235.41,-319.674 1230.32,-314.871"/>
</g>
<!-- Node6 -->
<g id="node6" class="node"><title>Node6</title>
<g id="a_node6"><a xlink:href="ChangeHandler_8h.html" target="_top" xlink:title="/home/travis/build\l/mgerhardy/simpleai\l/src/ai/server/ChangeHandler.h">
<polygon fill="white" stroke="black" points="369,-156.5 369,-197.5 521,-197.5 521,-156.5 369,-156.5"/>
<text text-anchor="start" x="377" y="-185.5" font-family="Helvetica,sans-Serif" font-size="10.00">/home/travis/build</text>
<text text-anchor="start" x="377" y="-174.5" font-family="Helvetica,sans-Serif" font-size="10.00">/mgerhardy/simpleai</text>
<text text-anchor="middle" x="445" y="-163.5" font-family="Helvetica,sans-Serif" font-size="10.00">/src/ai/server/ChangeHandler.h</text>
</a>
</g>
</g>
<!-- Node5&#45;&gt;Node6 -->
<g id="edge5" class="edge"><title>Node5&#45;&gt;Node6</title>
<path fill="none" stroke="midnightblue" d="M962.38,-253.644C867.208,-244.109 687.016,-224.37 535,-198 530.427,-197.207 525.734,-196.336 521.009,-195.417"/>
<polygon fill="midnightblue" stroke="midnightblue" points="962.142,-257.137 972.44,-254.645 962.835,-250.172 962.142,-257.137"/>
</g>
<!-- Node7 -->
<g id="node7" class="node"><title>Node7</title>
<g id="a_node7"><a xlink:href="ServerImpl_8h.html" target="_top" xlink:title="/home/travis/build\l/mgerhardy/simpleai\l/src/ai/server/ServerImpl.h">
<polygon fill="white" stroke="black" points="772,-78.5 772,-119.5 904,-119.5 904,-78.5 772,-78.5"/>
<text text-anchor="start" x="780" y="-107.5" font-family="Helvetica,sans-Serif" font-size="10.00">/home/travis/build</text>
<text text-anchor="start" x="780" y="-96.5" font-family="Helvetica,sans-Serif" font-size="10.00">/mgerhardy/simpleai</text>
<text text-anchor="middle" x="838" y="-85.5" font-family="Helvetica,sans-Serif" font-size="10.00">/src/ai/server/ServerImpl.h</text>
</a>
</g>
</g>
<!-- Node5&#45;&gt;Node7 -->
<g id="edge16" class="edge"><title>Node5&#45;&gt;Node7</title>
<path fill="none" stroke="midnightblue" d="M962.038,-255.803C840.456,-247.496 593.537,-227.202 568,-198 507.598,-128.93 673.506,-108.521 771.607,-102.505"/>
<polygon fill="midnightblue" stroke="midnightblue" points="962.127,-259.317 972.34,-256.499 962.599,-252.333 962.127,-259.317"/>
</g>
<!-- Node5&#45;&gt;Node8 -->
<g id="edge21" class="edge"><title>Node5&#45;&gt;Node8</title>
<path fill="none" stroke="midnightblue" d="M1095.64,-248.85C1123.28,-244.235 1155.69,-238.841 1185,-234 1233.88,-225.928 1367.35,-230.191 1405,-198 1417.26,-187.521 1445.89,-85.4968 1457.73,-41.7522"/>
<polygon fill="midnightblue" stroke="midnightblue" points="1094.97,-245.413 1085.68,-250.512 1096.12,-252.317 1094.97,-245.413"/>
</g>
<!-- Node9 -->
<g id="node9" class="node"><title>Node9</title>
<g id="a_node9"><a xlink:href="DeleteNodeHandler_8h.html" target="_top" xlink:title="/home/travis/build\l/mgerhardy/simpleai\l/src/ai/server/DeleteNodeHandler.h">
<polygon fill="white" stroke="black" points="577,-156.5 577,-197.5 747,-197.5 747,-156.5 577,-156.5"/>
<text text-anchor="start" x="585" y="-185.5" font-family="Helvetica,sans-Serif" font-size="10.00">/home/travis/build</text>
<text text-anchor="start" x="585" y="-174.5" font-family="Helvetica,sans-Serif" font-size="10.00">/mgerhardy/simpleai</text>
<text text-anchor="middle" x="662" y="-163.5" font-family="Helvetica,sans-Serif" font-size="10.00">/src/ai/server/DeleteNodeHandler.h</text>
</a>
</g>
</g>
<!-- Node5&#45;&gt;Node9 -->
<g id="edge8" class="edge"><title>Node5&#45;&gt;Node9</title>
<path fill="none" stroke="midnightblue" d="M962.661,-245.178C902.313,-231.694 812.907,-211.718 747.273,-197.053"/>
<polygon fill="midnightblue" stroke="midnightblue" points="961.938,-248.602 972.461,-247.367 963.464,-241.771 961.938,-248.602"/>
</g>
<!-- Node10 -->
<g id="node10" class="node"><title>Node10</title>
<g id="a_node10"><a xlink:href="PauseHandler_8h.html" target="_top" xlink:title="/home/travis/build\l/mgerhardy/simpleai\l/src/ai/server/PauseHandler.h">
<polygon fill="white" stroke="black" points="765,-156.5 765,-197.5 911,-197.5 911,-156.5 765,-156.5"/>
<text text-anchor="start" x="773" y="-185.5" font-family="Helvetica,sans-Serif" font-size="10.00">/home/travis/build</text>
<text text-anchor="start" x="773" y="-174.5" font-family="Helvetica,sans-Serif" font-size="10.00">/mgerhardy/simpleai</text>
<text text-anchor="middle" x="838" y="-163.5" font-family="Helvetica,sans-Serif" font-size="10.00">/src/ai/server/PauseHandler.h</text>
</a>
</g>
</g>
<!-- Node5&#45;&gt;Node10 -->
<g id="edge10" class="edge"><title>Node5&#45;&gt;Node10</title>
<path fill="none" stroke="midnightblue" d="M973.806,-236.304C945.235,-224.038 910.768,-209.241 883.707,-197.623"/>
<polygon fill="midnightblue" stroke="midnightblue" points="972.681,-239.63 983.251,-240.359 975.443,-233.198 972.681,-239.63"/>
</g>
<!-- Node11 -->
<g id="node11" class="node"><title>Node11</title>
<g id="a_node11"><a xlink:href="ResetHandler_8h.html" target="_top" xlink:title="/home/travis/build\l/mgerhardy/simpleai\l/src/ai/server/ResetHandler.h">
<polygon fill="white" stroke="black" points="929.5,-156.5 929.5,-197.5 1074.5,-197.5 1074.5,-156.5 929.5,-156.5"/>
<text text-anchor="start" x="937.5" y="-185.5" font-family="Helvetica,sans-Serif" font-size="10.00">/home/travis/build</text>
<text text-anchor="start" x="937.5" y="-174.5" font-family="Helvetica,sans-Serif" font-size="10.00">/mgerhardy/simpleai</text>
<text text-anchor="middle" x="1002" y="-163.5" font-family="Helvetica,sans-Serif" font-size="10.00">/src/ai/server/ResetHandler.h</text>
</a>
</g>
</g>
<!-- Node5&#45;&gt;Node11 -->
<g id="edge12" class="edge"><title>Node5&#45;&gt;Node11</title>
<path fill="none" stroke="midnightblue" d="M1019.3,-230.551C1015.71,-219.626 1011.72,-207.51 1008.48,-197.667"/>
<polygon fill="midnightblue" stroke="midnightblue" points="1016.01,-231.746 1022.46,-240.15 1022.66,-229.557 1016.01,-231.746"/>
</g>
<!-- Node12 -->
<g id="node12" class="node"><title>Node12</title>
<g id="a_node12"><a xlink:href="SelectHandler_8h.html" target="_top" xlink:title="/home/travis/build\l/mgerhardy/simpleai\l/src/ai/server/SelectHandler.h">
<polygon fill="white" stroke="black" points="1093,-156.5 1093,-197.5 1239,-197.5 1239,-156.5 1093,-156.5"/>
<text text-anchor="start" x="1101" y="-185.5" font-family="Helvetica,sans-Serif" font-size="10.00">/home/travis/build</text>
<text text-anchor="start" x="1101" y="-174.5" font-family="Helvetica,sans-Serif" font-size="10.00">/mgerhardy/simpleai</text>
<text text-anchor="middle" x="1166" y="-163.5" font-family="Helvetica,sans-Serif" font-size="10.00">/src/ai/server/SelectHandler.h</text>
</a>
</g>
</g>
<!-- Node5&#45;&gt;Node12 -->
<g id="edge14" class="edge"><title>Node5&#45;&gt;Node12</title>
<path fill="none" stroke="midnightblue" d="M1070.44,-235.197C1090.47,-223.206 1114.19,-209.013 1132.98,-197.765"/>
<polygon fill="midnightblue" stroke="midnightblue" points="1068.6,-232.22 1061.81,-240.359 1072.19,-238.226 1068.6,-232.22"/>
</g>
<!-- Node13 -->
<g id="node13" class="node"><title>Node13</title>
<g id="a_node13"><a xlink:href="StepHandler_8h.html" target="_top" xlink:title="/home/travis/build\l/mgerhardy/simpleai\l/src/ai/server/StepHandler.h">
<polygon fill="white" stroke="black" points="1257.5,-156.5 1257.5,-197.5 1396.5,-197.5 1396.5,-156.5 1257.5,-156.5"/>
<text text-anchor="start" x="1265.5" y="-185.5" font-family="Helvetica,sans-Serif" font-size="10.00">/home/travis/build</text>
<text text-anchor="start" x="1265.5" y="-174.5" font-family="Helvetica,sans-Serif" font-size="10.00">/mgerhardy/simpleai</text>
<text text-anchor="middle" x="1327" y="-163.5" font-family="Helvetica,sans-Serif" font-size="10.00">/src/ai/server/StepHandler.h</text>
</a>
</g>
</g>
<!-- Node5&#45;&gt;Node13 -->
<g id="edge17" class="edge"><title>Node5&#45;&gt;Node13</title>
<path fill="none" stroke="midnightblue" d="M1095.45,-241.715C1143.58,-228.472 1208.49,-210.609 1257.35,-197.167"/>
<polygon fill="midnightblue" stroke="midnightblue" points="1094.47,-238.356 1085.75,-244.383 1096.32,-245.105 1094.47,-238.356"/>
</g>
<!-- Node14 -->
<g id="node14" class="node"><title>Node14</title>
<g id="a_node14"><a xlink:href="UpdateNodeHandler_8h.html" target="_top" xlink:title="/home/travis/build\l/mgerhardy/simpleai\l/src/ai/server/UpdateNodeHandler.h">
<polygon fill="white" stroke="black" points="177.5,-156.5 177.5,-197.5 350.5,-197.5 350.5,-156.5 177.5,-156.5"/>
<text text-anchor="start" x="185.5" y="-185.5" font-family="Helvetica,sans-Serif" font-size="10.00">/home/travis/build</text>
<text text-anchor="start" x="185.5" y="-174.5" font-family="Helvetica,sans-Serif" font-size="10.00">/mgerhardy/simpleai</text>
<text text-anchor="middle" x="264" y="-163.5" font-family="Helvetica,sans-Serif" font-size="10.00">/src/ai/server/UpdateNodeHandler.h</text>
</a>
</g>
</g>
<!-- Node5&#45;&gt;Node14 -->
<g id="edge19" class="edge"><title>Node5&#45;&gt;Node14</title>
<path fill="none" stroke="midnightblue" d="M962.161,-256.314C841.422,-249.098 579.128,-230.872 360,-198 356.885,-197.533 353.719,-197.029 350.526,-196.495"/>
<polygon fill="midnightblue" stroke="midnightblue" points="962.164,-259.82 972.353,-256.917 962.577,-252.832 962.164,-259.82"/>
</g>
<!-- Node6&#45;&gt;Node7 -->
<g id="edge6" class="edge"><title>Node6&#45;&gt;Node7</title>
<path fill="none" stroke="midnightblue" d="M531.135,-156.791C532.432,-156.524 533.721,-156.26 535,-156 616.384,-139.442 710.494,-122.372 771.964,-111.5"/>
<polygon fill="midnightblue" stroke="midnightblue" points="530.14,-153.424 521.068,-158.895 531.572,-160.276 530.14,-153.424"/>
</g>
<!-- Node7&#45;&gt;Node8 -->
<g id="edge7" class="edge"><title>Node7&#45;&gt;Node8</title>
<path fill="none" stroke="midnightblue" d="M914.478,-88.7003C1043.37,-73.0271 1300.57,-41.7519 1410.84,-28.3432"/>
<polygon fill="midnightblue" stroke="midnightblue" points="913.799,-85.257 904.294,-89.9386 914.644,-92.2058 913.799,-85.257"/>
</g>
<!-- Node9&#45;&gt;Node7 -->
<g id="edge9" class="edge"><title>Node9&#45;&gt;Node7</title>
<path fill="none" stroke="midnightblue" d="M716.817,-152.329C741.238,-141.783 769.654,-129.513 792.829,-119.506"/>
<polygon fill="midnightblue" stroke="midnightblue" points="715.117,-149.25 707.324,-156.428 717.893,-155.677 715.117,-149.25"/>
</g>
<!-- Node10&#45;&gt;Node7 -->
<g id="edge11" class="edge"><title>Node10&#45;&gt;Node7</title>
<path fill="none" stroke="midnightblue" d="M838,-146.297C838,-137.301 838,-127.653 838,-119.506"/>
<polygon fill="midnightblue" stroke="midnightblue" points="834.5,-146.428 838,-156.428 841.5,-146.428 834.5,-146.428"/>
</g>
<!-- Node11&#45;&gt;Node7 -->
<g id="edge13" class="edge"><title>Node11&#45;&gt;Node7</title>
<path fill="none" stroke="midnightblue" d="M950.618,-152.189C927.93,-141.675 901.59,-129.469 880.091,-119.506"/>
<polygon fill="midnightblue" stroke="midnightblue" points="949.221,-155.399 959.766,-156.428 952.164,-149.048 949.221,-155.399"/>
</g>
<!-- Node12&#45;&gt;Node7 -->
<g id="edge15" class="edge"><title>Node12&#45;&gt;Node7</title>
<path fill="none" stroke="midnightblue" d="M1082.83,-155.971C1016.04,-140.324 951.102,-125.525 904.079,-114.883"/>
<polygon fill="midnightblue" stroke="midnightblue" points="1082.16,-159.409 1092.69,-158.286 1083.75,-152.594 1082.16,-159.409"/>
</g>
<!-- Node13&#45;&gt;Node7 -->
<g id="edge18" class="edge"><title>Node13&#45;&gt;Node7</title>
<path fill="none" stroke="midnightblue" d="M1247.4,-155.994C1120.4,-131.747 983.334,-115.285 904.057,-106.713"/>
<polygon fill="midnightblue" stroke="midnightblue" points="1246.83,-159.447 1257.31,-157.905 1248.15,-152.574 1246.83,-159.447"/>
</g>
<!-- Node14&#45;&gt;Node7 -->
<g id="edge20" class="edge"><title>Node14&#45;&gt;Node7</title>
<path fill="none" stroke="midnightblue" d="M360.596,-155.979C513.576,-131.501 681.076,-114.361 771.631,-105.897"/>
<polygon fill="midnightblue" stroke="midnightblue" points="359.856,-152.553 350.541,-157.602 360.971,-159.464 359.856,-152.553"/>
</g>
<!-- Node18&#45;&gt;Node5 -->
<g id="edge31" class="edge"><title>Node18&#45;&gt;Node5</title>
<path fill="none" stroke="midnightblue" d="M1323.67,-330.601C1251.35,-313.764 1148.6,-289.844 1085.5,-275.154"/>
<polygon fill="midnightblue" stroke="midnightblue" points="1323.14,-334.07 1333.67,-332.928 1324.72,-327.252 1323.14,-334.07"/>
</g>
<!-- Node18&#45;&gt;Node8 -->
<g id="edge32" class="edge"><title>Node18&#45;&gt;Node8</title>
<path fill="none" stroke="midnightblue" d="M1449.94,-324.445C1462.3,-314.726 1474.25,-302.452 1481,-288 1520.45,-203.486 1486.64,-87.2177 1470.46,-41.5431"/>
<polygon fill="midnightblue" stroke="midnightblue" points="1447.77,-321.699 1441.81,-330.46 1451.93,-327.326 1447.77,-321.699"/>
</g>
<!-- Node18&#45;&gt;Node15 -->
<g id="edge33" class="edge"><title>Node18&#45;&gt;Node15</title>
<path fill="none" stroke="midnightblue" d="M1410.38,-320.255C1411.6,-309.506 1412.97,-297.484 1414.14,-287.166"/>
<polygon fill="midnightblue" stroke="midnightblue" points="1406.87,-320.139 1409.22,-330.47 1413.83,-320.929 1406.87,-320.139"/>
</g>
<!-- Node18&#45;&gt;Node16 -->
<g id="edge34" class="edge"><title>Node18&#45;&gt;Node16</title>
<path fill="none" stroke="midnightblue" d="M1371.71,-324.545C1355.42,-312.793 1336.13,-298.881 1319.89,-287.166"/>
<polygon fill="midnightblue" stroke="midnightblue" points="1369.77,-327.458 1379.92,-330.47 1373.86,-321.781 1369.77,-327.458"/>
</g>
</g>
</svg>
        <g id="navigator" transform="translate(0 0)" fill="#404254">
                <rect fill="#f2f5e9" fill-opacity="0.5" stroke="#606060" stroke-width=".5" x="0" y="0" width="60" height="60"/>
                <use id="zoomplus" xlink:href="#zoomPlus" x="17" y="9" onmousedown="handleZoom(evt,'in')"/>
                <use id="zoomminus" xlink:href="#zoomMin" x="42" y="9" onmousedown="handleZoom(evt,'out')"/>
                <use id="reset" xlink:href="#resetDef" x="30" y="36" onmousedown="handleReset()"/>
                <g id="arrowUp" xlink:href="#dirArrow" transform="translate(30 24)" onmousedown="handlePan(0,-1)">
                  <use xlink:href="#rim" fill="#404040">
                        <set attributeName="fill" to="#808080" begin="arrowUp.mouseover" end="arrowUp.mouseout"/>
                  </use>
                  <path fill="none" stroke="white" stroke-width="1.5" d="M0,-3.0v7 M-2.5,-0.5L0,-3.0L2.5,-0.5"/>
                </g>
                <g id="arrowRight" xlink:href="#dirArrow" transform="rotate(90) translate(36 -43)" onmousedown="handlePan(1,0)">
                  <use xlink:href="#rim" fill="#404040">
                        <set attributeName="fill" to="#808080" begin="arrowRight.mouseover" end="arrowRight.mouseout"/>
                  </use>
                  <path fill="none" stroke="white" stroke-width="1.5" d="M0,-3.0v7 M-2.5,-0.5L0,-3.0L2.5,-0.5"/>
                </g>
                <g id="arrowDown" xlink:href="#dirArrow" transform="rotate(180) translate(-30 -48)" onmousedown="handlePan(0,1)">
                  <use xlink:href="#rim" fill="#404040">
                        <set attributeName="fill" to="#808080" begin="arrowDown.mouseover" end="arrowDown.mouseout"/>
                  </use>
                  <path fill="none" stroke="white" stroke-width="1.5" d="M0,-3.0v7 M-2.5,-0.5L0,-3.0L2.5,-0.5"/>
                </g>
                <g id="arrowLeft" xlink:href="#dirArrow" transform="rotate(270) translate(-36 17)" onmousedown="handlePan(-1,0)">
                  <use xlink:href="#rim" fill="#404040">
                        <set attributeName="fill" to="#808080" begin="arrowLeft.mouseover" end="arrowLeft.mouseout"/>
                  </use>
                  <path fill="none" stroke="white" stroke-width="1.5" d="M0,-3.0v7 M-2.5,-0.5L0,-3.0L2.5,-0.5"/>
                </g>
        </g>
        <svg viewBox="0 0 15 15" width="100%" height="30px" preserveAspectRatio="xMaxYMin meet">
         <g id="arrow_out" transform="scale(0.3 0.3)">
          <a xlink:href="WeightedSteering_8h__dep__incl_org.svg" target="_base">
           <rect id="button" ry="5" rx="5" y="6" x="6" height="38" width="38"
                fill="#f2f5e9" fill-opacity="0.5" stroke="#606060" stroke-width="1.0"/>
           <path id="arrow"
             d="M 11.500037,31.436501 C 11.940474,20.09759 22.043105,11.32322 32.158766,21.979434 L 37.068811,17.246167 C 37.068811,17.246167 37.088388,32 37.088388,32 L 22.160133,31.978069 C 22.160133,31.978069 26.997745,27.140456 26.997745,27.140456 C 18.528582,18.264221 13.291696,25.230495 11.500037,31.436501 z"
             style="fill:#404040;"/>
          </a>
         </g>
        </svg>
</svg>
